<?xml version="1.0" encoding="utf-8"?>
<!-- Generator: Adobe Illustrator 21.1.0, SVG Export Plug-In . SVG Version: 6.00 Build 0)  -->
<svg version="1.1" id="Layer_1" xmlns="http://www.w3.org/2000/svg" xmlns:xlink="http://www.w3.org/1999/xlink" x="0px" y="0px"
	 width="541px" height="381px" viewBox="0 0 541 381" style="enable-background:new 0 0 541 381;" xml:space="preserve">
<style type="text/css">
	.st0{fill:#3E4F5B;}
	.st1{fill:#2FADD3;}
	.st2{fill:#AFCA22;}
	.st3{fill:#EA7D00;}
	.st4{fill:#495C6A;}
	.st5{fill:#42C7EF;}
	.st6{fill:#BFDC24;}
	.st7{fill:#F88D19;}
	.st8{fill:none;stroke:#D2D6D9;}
	.st9{fill:#FFFFFF;stroke:#D2D6D9;}
	.st10{enable-background:new    ;}
	.st11{fill:#3F4F5A;}
</style>
<title>model</title>
<desc>Created with Sketch.</desc>
<g id="Page">
	<g id="Extra-large-1200px" transform="translate(-352.000000, -463.000000)">
		<g id="model" transform="translate(351.000000, 460.000000)">
			<polygon id="Path-2" class="st0" points="106,268.9 324,384 324,300.1 155.4,210 			"/>
			<polygon id="Path-2-Copy" class="st1" points="167,198 324,278 324,194.1 216,139 			"/>
			<polygon id="Path-2-Copy-2" class="st2" points="228,123.4 324,173 324,89 277.6,65 			"/>
			<polygon id="Path-3" class="st3" points="324,75 324,5 285,54.5 			"/>
			<polygon id="Path-2_1_" class="st4" points="542,268.9 324,384 324,300.1 492.6,210 			"/>
			<polygon id="Path-2-Copy_1_" class="st5" points="481,198 324,278 324,194.1 432,139 			"/>
			<polygon id="Path-2-Copy-2_1_" class="st6" points="420,123.4 324,173 324,89 370.4,65 			"/>
			<polygon id="Path-3_1_" class="st7" points="324,75 324,5 363,54.5 			"/>
			<path id="Path-4" class="st7" d="M0,0"/>
			<g id="Group" transform="translate(138.000000, 0.000000)">
				<polyline id="Path-5-Copy-2" class="st8" points="178,40 123,10 61,10 				"/>
				<circle id="Oval-Copy-2" class="st9" cx="178" cy="40" r="4"/>
				<g class="st10">
					<path class="st11" d="M2.5,15H1.4V5h5.6v1H2.5v3.7h4.1v1H2.5V15z"/>
					<path class="st11" d="M11.8,7.4c0.3,0,0.6,0,0.9,0.1l-0.2,1.1c-0.3-0.1-0.6-0.1-0.8-0.1c-0.6,0-1.1,0.2-1.6,0.7
						S9.6,10.2,9.6,11v4H8.4V7.5h0.9l0.1,1.4h0.1c0.3-0.5,0.6-0.9,1-1.1C10.9,7.5,11.4,7.4,11.8,7.4z"/>
					<path class="st11" d="M14,5.5c0-0.3,0.1-0.5,0.2-0.6c0.1-0.1,0.3-0.2,0.5-0.2c0.2,0,0.3,0.1,0.5,0.2s0.2,0.3,0.2,0.6
						S15.3,5.9,15.2,6c-0.1,0.1-0.3,0.2-0.5,0.2c-0.2,0-0.4-0.1-0.5-0.2C14.1,5.9,14,5.7,14,5.5z M15.3,15h-1.1V7.5h1.1V15z"/>
					<path class="st11" d="M20.8,15.1c-1.1,0-2-0.3-2.6-1s-1-1.6-1-2.8c0-1.2,0.3-2.2,0.9-2.9s1.4-1.1,2.4-1.1
						c0.9,0,1.7,0.3,2.2,0.9c0.5,0.6,0.8,1.4,0.8,2.4v0.7h-5.2c0,0.9,0.2,1.5,0.7,2s1,0.7,1.8,0.7c0.8,0,1.6-0.2,2.4-0.5v1
						c-0.4,0.2-0.8,0.3-1.1,0.4C21.8,15.1,21.4,15.1,20.8,15.1z M20.5,8.3c-0.6,0-1.1,0.2-1.4,0.6s-0.6,0.9-0.6,1.6h3.9
						c0-0.7-0.2-1.3-0.5-1.6C21.6,8.5,21.1,8.3,20.5,8.3z"/>
					<path class="st11" d="M30.7,15v-4.8c0-0.6-0.1-1.1-0.4-1.4s-0.7-0.5-1.3-0.5c-0.8,0-1.4,0.2-1.7,0.6s-0.5,1.1-0.5,2.1V15h-1.1
						V7.5h0.9l0.2,1h0.1c0.2-0.4,0.6-0.7,1-0.9c0.4-0.2,0.9-0.3,1.4-0.3c0.9,0,1.6,0.2,2,0.7c0.5,0.4,0.7,1.1,0.7,2.1V15H30.7z"/>
					<path class="st11" d="M39.2,14L39.2,14c-0.6,0.8-1.4,1.1-2.4,1.1c-1,0-1.7-0.3-2.3-1s-0.8-1.6-0.8-2.9s0.3-2.2,0.8-2.9
						s1.3-1,2.3-1c1,0,1.8,0.4,2.3,1.1h0.1l0-0.5l0-0.5v-3h1.1V15h-0.9L39.2,14z M37,14.2c0.8,0,1.3-0.2,1.7-0.6
						c0.3-0.4,0.5-1.1,0.5-2v-0.2c0-1.1-0.2-1.8-0.5-2.3c-0.4-0.5-0.9-0.7-1.7-0.7c-0.7,0-1.2,0.3-1.5,0.8c-0.4,0.5-0.5,1.2-0.5,2.2
						c0,1,0.2,1.7,0.5,2.2S36.3,14.2,37,14.2z"/>
					<path class="st11" d="M43.8,15h-1.1V4.4h1.1V15z"/>
					<path class="st11" d="M45.1,7.5h1.2l1.6,4.3c0.4,1,0.6,1.7,0.7,2.1h0.1c0.1-0.2,0.2-0.6,0.4-1.2c0.2-0.6,0.8-2.3,1.9-5.2h1.2
						L48.9,16c-0.3,0.8-0.7,1.4-1.1,1.8c-0.4,0.4-0.9,0.5-1.6,0.5c-0.3,0-0.7,0-1-0.1v-0.9c0.3,0.1,0.5,0.1,0.8,0.1
						c0.8,0,1.3-0.4,1.7-1.3l0.4-1.1L45.1,7.5z"/>
				</g>
			</g>
			<g id="Group-Copy" transform="translate(74.000000, 64.000000)">
				<polyline id="Path-5-Copy-2_1_" class="st8" points="199,40 144,10 82,10 				"/>
				<circle id="Oval-Copy-2_1_" class="st9" cx="199" cy="40" r="4"/>
				<g class="st10">
					<path class="st11" d="M1.4,15V5h1.2v10H1.4z"/>
					<path class="st11" d="M10.2,14L10.2,14c-0.6,0.8-1.4,1.1-2.4,1.1c-1,0-1.7-0.3-2.3-1s-0.8-1.6-0.8-2.9S5,9.1,5.5,8.4
						s1.3-1,2.3-1c1,0,1.8,0.4,2.3,1.1h0.1l0-0.5l0-0.5v-3h1.1V15h-0.9L10.2,14z M7.9,14.2c0.8,0,1.3-0.2,1.7-0.6
						c0.3-0.4,0.5-1.1,0.5-2v-0.2c0-1.1-0.2-1.8-0.5-2.3C9.3,8.5,8.7,8.3,7.9,8.3c-0.7,0-1.2,0.3-1.5,0.8C6,9.6,5.9,10.3,5.9,11.3
						c0,1,0.2,1.7,0.5,2.2S7.3,14.2,7.9,14.2z"/>
					<path class="st11" d="M16.9,15.1c-1.1,0-2-0.3-2.6-1s-1-1.6-1-2.8c0-1.2,0.3-2.2,0.9-2.9s1.4-1.1,2.4-1.1
						c0.9,0,1.7,0.3,2.2,0.9c0.5,0.6,0.8,1.4,0.8,2.4v0.7h-5.2c0,0.9,0.2,1.5,0.7,2s1,0.7,1.8,0.7c0.8,0,1.6-0.2,2.4-0.5v1
						c-0.4,0.2-0.8,0.3-1.1,0.4C17.8,15.1,17.4,15.1,16.9,15.1z M16.5,8.3c-0.6,0-1.1,0.2-1.4,0.6s-0.6,0.9-0.6,1.6h3.9
						c0-0.7-0.2-1.3-0.5-1.6C17.6,8.5,17.1,8.3,16.5,8.3z"/>
					<path class="st11" d="M26.7,15v-4.8c0-0.6-0.1-1.1-0.4-1.4s-0.7-0.5-1.3-0.5c-0.8,0-1.4,0.2-1.7,0.6s-0.5,1.1-0.5,2.1V15h-1.1
						V7.5h0.9l0.2,1h0.1c0.2-0.4,0.6-0.7,1-0.9c0.4-0.2,0.9-0.3,1.4-0.3c0.9,0,1.6,0.2,2,0.7c0.5,0.4,0.7,1.1,0.7,2.1V15H26.7z"/>
					<path class="st11" d="M32.6,14.2c0.2,0,0.4,0,0.6,0c0.2,0,0.3-0.1,0.4-0.1v0.9C33.5,15,33.3,15,33,15.1c-0.2,0-0.5,0.1-0.6,0.1
						c-1.4,0-2.2-0.8-2.2-2.3V8.4h-1.1V7.8l1.1-0.5l0.5-1.6h0.7v1.7h2.2v0.9h-2.2v4.4c0,0.5,0.1,0.8,0.3,1S32.2,14.2,32.6,14.2z"/>
					<path class="st11" d="M35,5.5C35,5.2,35,5,35.2,4.9c0.1-0.1,0.3-0.2,0.5-0.2c0.2,0,0.3,0.1,0.5,0.2s0.2,0.3,0.2,0.6
						S36.3,5.9,36.1,6c-0.1,0.1-0.3,0.2-0.5,0.2c-0.2,0-0.4-0.1-0.5-0.2C35,5.9,35,5.7,35,5.5z M36.2,15h-1.1V7.5h1.1V15z"/>
					<path class="st11" d="M42,8.4h-1.9V15H39V8.4h-1.3V7.9L39,7.5V7c0-1.8,0.8-2.8,2.4-2.8c0.4,0,0.9,0.1,1.4,0.2l-0.3,0.9
						c-0.4-0.1-0.8-0.2-1.1-0.2c-0.4,0-0.7,0.1-1,0.4c-0.2,0.3-0.3,0.7-0.3,1.4v0.5H42V8.4z M43.3,5.5c0-0.3,0.1-0.5,0.2-0.6
						c0.1-0.1,0.3-0.2,0.5-0.2c0.2,0,0.3,0.1,0.5,0.2s0.2,0.3,0.2,0.6S44.5,5.9,44.4,6c-0.1,0.1-0.3,0.2-0.5,0.2
						c-0.2,0-0.4-0.1-0.5-0.2C43.3,5.9,43.3,5.7,43.3,5.5z M44.5,15h-1.1V7.5h1.1V15z"/>
					<path class="st11" d="M51.5,15l-0.2-1.1h-0.1c-0.4,0.5-0.7,0.8-1.1,1c-0.4,0.2-0.8,0.2-1.4,0.2c-0.7,0-1.3-0.2-1.7-0.6
						s-0.6-0.9-0.6-1.6c0-1.5,1.2-2.3,3.6-2.4l1.3,0V10c0-0.6-0.1-1-0.4-1.3c-0.3-0.3-0.7-0.4-1.2-0.4c-0.6,0-1.3,0.2-2.1,0.6
						L47.2,8c0.4-0.2,0.8-0.4,1.2-0.5s0.9-0.2,1.3-0.2c0.9,0,1.6,0.2,2,0.6c0.4,0.4,0.6,1,0.6,1.9V15H51.5z M48.9,14.2
						c0.7,0,1.3-0.2,1.7-0.6s0.6-0.9,0.6-1.6v-0.7l-1.1,0c-0.9,0-1.6,0.2-2,0.4c-0.4,0.2-0.6,0.6-0.6,1.2c0,0.4,0.1,0.7,0.4,0.9
						S48.5,14.2,48.9,14.2z"/>
					<path class="st11" d="M58.2,7.4c1,0,1.7,0.3,2.3,1c0.5,0.7,0.8,1.6,0.8,2.9s-0.3,2.2-0.8,2.9c-0.5,0.7-1.3,1-2.3,1
						c-0.5,0-0.9-0.1-1.3-0.3c-0.4-0.2-0.7-0.5-1-0.8h-0.1l-0.2,1h-0.8V4.4h1.1v2.6c0,0.6,0,1.1-0.1,1.6h0.1
						C56.4,7.8,57.1,7.4,58.2,7.4z M58,8.3c-0.8,0-1.3,0.2-1.7,0.7c-0.3,0.4-0.5,1.2-0.5,2.2s0.2,1.8,0.5,2.3
						c0.4,0.5,0.9,0.7,1.7,0.7c0.7,0,1.2-0.3,1.6-0.8c0.3-0.5,0.5-1.2,0.5-2.2c0-1-0.2-1.7-0.5-2.2S58.7,8.3,58,8.3z"/>
					<path class="st11" d="M64.4,15h-1.1V4.4h1.1V15z"/>
					<path class="st11" d="M70,15.1c-1.1,0-2-0.3-2.6-1s-1-1.6-1-2.8c0-1.2,0.3-2.2,0.9-2.9s1.4-1.1,2.4-1.1c0.9,0,1.7,0.3,2.2,0.9
						c0.5,0.6,0.8,1.4,0.8,2.4v0.7h-5.2c0,0.9,0.2,1.5,0.7,2s1,0.7,1.8,0.7c0.8,0,1.6-0.2,2.4-0.5v1c-0.4,0.2-0.8,0.3-1.1,0.4
						C70.9,15.1,70.5,15.1,70,15.1z M69.7,8.3c-0.6,0-1.1,0.2-1.4,0.6s-0.6,0.9-0.6,1.6h3.9c0-0.7-0.2-1.3-0.5-1.6
						C70.7,8.5,70.3,8.3,69.7,8.3z"/>
				</g>
			</g>
			<g id="Group-6" transform="translate(22.000000, 140.000000)">
				<polyline id="Path-5-Copy-3" class="st8" points="197,40 142,10 80,10 				"/>
				<circle id="Oval-Copy-3" class="st9" cx="197" cy="40" r="4"/>
				<g class="st10">
					<path class="st11" d="M7.7,15l-1.2-3.2h-4L1.2,15H0L4,5h1l3.9,10H7.7z M6,10.8L4.9,7.7C4.7,7.3,4.6,6.8,4.4,6.2
						C4.3,6.7,4.2,7.2,4,7.7l-1.2,3.1H6z"/>
					<path class="st11" d="M13.1,15.1c-1.1,0-1.9-0.3-2.5-1c-0.6-0.7-0.9-1.6-0.9-2.8c0-1.3,0.3-2.2,0.9-2.9s1.5-1,2.6-1
						c0.4,0,0.7,0,1.1,0.1s0.6,0.2,0.8,0.3l-0.3,1c-0.3-0.1-0.5-0.2-0.8-0.2c-0.3-0.1-0.6-0.1-0.8-0.1c-1.5,0-2.3,1-2.3,2.9
						c0,0.9,0.2,1.6,0.6,2.1s0.9,0.7,1.7,0.7c0.6,0,1.3-0.1,1.9-0.4v1C14.4,15,13.8,15.1,13.1,15.1z"/>
					<path class="st11" d="M19.7,15.1c-1.1,0-1.9-0.3-2.5-1c-0.6-0.7-0.9-1.6-0.9-2.8c0-1.3,0.3-2.2,0.9-2.9s1.5-1,2.6-1
						c0.4,0,0.7,0,1.1,0.1s0.6,0.2,0.8,0.3l-0.3,1c-0.3-0.1-0.5-0.2-0.8-0.2c-0.3-0.1-0.6-0.1-0.8-0.1c-1.5,0-2.3,1-2.3,2.9
						c0,0.9,0.2,1.6,0.6,2.1s0.9,0.7,1.7,0.7c0.6,0,1.3-0.1,1.9-0.4v1C21.1,15,20.5,15.1,19.7,15.1z"/>
					<path class="st11" d="M26.6,15.1c-1.1,0-2-0.3-2.6-1s-1-1.6-1-2.8c0-1.2,0.3-2.2,0.9-2.9s1.4-1.1,2.4-1.1
						c0.9,0,1.7,0.3,2.2,0.9c0.5,0.6,0.8,1.4,0.8,2.4v0.7h-5.2c0,0.9,0.2,1.5,0.7,2s1,0.7,1.8,0.7c0.8,0,1.6-0.2,2.4-0.5v1
						c-0.4,0.2-0.8,0.3-1.1,0.4C27.5,15.1,27.1,15.1,26.6,15.1z M26.2,8.3c-0.6,0-1.1,0.2-1.4,0.6s-0.6,0.9-0.6,1.6h3.9
						c0-0.7-0.2-1.3-0.5-1.6C27.3,8.5,26.8,8.3,26.2,8.3z"/>
					<path class="st11" d="M34.7,15.1c-0.5,0-0.9-0.1-1.3-0.3c-0.4-0.2-0.7-0.5-1-0.8h-0.1c0.1,0.4,0.1,0.9,0.1,1.2v3.1h-1.1V7.5
						h0.9l0.2,1h0.1c0.3-0.4,0.6-0.7,1-0.9s0.8-0.3,1.3-0.3c1,0,1.8,0.3,2.3,1s0.8,1.6,0.8,2.9c0,1.2-0.3,2.2-0.8,2.9
						C36.5,14.8,35.7,15.1,34.7,15.1z M34.6,8.3c-0.8,0-1.3,0.2-1.7,0.6s-0.5,1.1-0.5,2v0.3c0,1.1,0.2,1.8,0.5,2.3
						c0.4,0.5,0.9,0.7,1.7,0.7c0.6,0,1.2-0.3,1.5-0.8s0.6-1.2,0.6-2.2c0-0.9-0.2-1.7-0.6-2.1C35.8,8.6,35.2,8.3,34.6,8.3z"/>
					<path class="st11" d="M42.2,14.2c0.2,0,0.4,0,0.6,0c0.2,0,0.3-0.1,0.4-0.1v0.9C43.1,15,43,15,42.7,15.1c-0.2,0-0.5,0.1-0.6,0.1
						c-1.4,0-2.2-0.8-2.2-2.3V8.4h-1.1V7.8l1.1-0.5l0.5-1.6H41v1.7h2.2v0.9H41v4.4c0,0.5,0.1,0.8,0.3,1S41.9,14.2,42.2,14.2z"/>
					<path class="st11" d="M49.4,15l-0.2-1.1h-0.1c-0.4,0.5-0.7,0.8-1.1,1c-0.4,0.2-0.8,0.2-1.4,0.2c-0.7,0-1.3-0.2-1.7-0.6
						s-0.6-0.9-0.6-1.6c0-1.5,1.2-2.3,3.6-2.4l1.3,0V10c0-0.6-0.1-1-0.4-1.3c-0.3-0.3-0.7-0.4-1.2-0.4c-0.6,0-1.3,0.2-2.1,0.6L45,8
						c0.4-0.2,0.8-0.4,1.2-0.5s0.9-0.2,1.3-0.2c0.9,0,1.6,0.2,2,0.6c0.4,0.4,0.6,1,0.6,1.9V15H49.4z M46.8,14.2
						c0.7,0,1.3-0.2,1.7-0.6s0.6-0.9,0.6-1.6v-0.7l-1.1,0c-0.9,0-1.6,0.2-2,0.4c-0.4,0.2-0.6,0.6-0.6,1.2c0,0.4,0.1,0.7,0.4,0.9
						S46.4,14.2,46.8,14.2z"/>
					<path class="st11" d="M56,7.4c1,0,1.7,0.3,2.3,1c0.5,0.7,0.8,1.6,0.8,2.9s-0.3,2.2-0.8,2.9c-0.5,0.7-1.3,1-2.3,1
						c-0.5,0-0.9-0.1-1.3-0.3c-0.4-0.2-0.7-0.5-1-0.8h-0.1l-0.2,1h-0.8V4.4h1.1v2.6c0,0.6,0,1.1-0.1,1.6h0.1C54.2,7.8,55,7.4,56,7.4
						z M55.9,8.3c-0.8,0-1.3,0.2-1.7,0.7c-0.3,0.4-0.5,1.2-0.5,2.2s0.2,1.8,0.5,2.3c0.4,0.5,0.9,0.7,1.7,0.7c0.7,0,1.2-0.3,1.6-0.8
						c0.3-0.5,0.5-1.2,0.5-2.2c0-1-0.2-1.7-0.5-2.2S56.6,8.3,55.9,8.3z"/>
					<path class="st11" d="M62.3,15h-1.1V4.4h1.1V15z"/>
					<path class="st11" d="M67.8,15.1c-1.1,0-2-0.3-2.6-1s-1-1.6-1-2.8c0-1.2,0.3-2.2,0.9-2.9s1.4-1.1,2.4-1.1
						c0.9,0,1.7,0.3,2.2,0.9c0.5,0.6,0.8,1.4,0.8,2.4v0.7h-5.2c0,0.9,0.2,1.5,0.7,2s1,0.7,1.8,0.7c0.8,0,1.6-0.2,2.4-0.5v1
						c-0.4,0.2-0.8,0.3-1.1,0.4C68.8,15.1,68.3,15.1,67.8,15.1z M67.5,8.3c-0.6,0-1.1,0.2-1.4,0.6s-0.6,0.9-0.6,1.6h3.9
						c0-0.7-0.2-1.3-0.5-1.6C68.6,8.5,68.1,8.3,67.5,8.3z"/>
				</g>
			</g>
			<g id="Group-6-Copy" transform="translate(0.000000, 216.000000)">
				<polyline id="Path-5-Copy-3_1_" class="st8" points="167,40 112,10 50,10 				"/>
				<circle id="Oval-Copy-3_1_" class="st9" cx="167" cy="40" r="4"/>
				<g class="st10">
					<path class="st11" d="M8.9,5v6.5c0,1.1-0.3,2-1,2.7s-1.6,1-2.8,1s-2.1-0.3-2.8-1s-1-1.6-1-2.7V5h1.2v6.5c0,0.8,0.2,1.5,0.7,1.9
						s1.1,0.7,2,0.7c0.8,0,1.5-0.2,1.9-0.7c0.5-0.4,0.7-1.1,0.7-1.9V5H8.9z"/>
					<path class="st11" d="M16.2,13c0,0.7-0.3,1.2-0.8,1.6s-1.2,0.6-2.2,0.6c-1,0-1.8-0.2-2.3-0.5v-1.1c0.4,0.2,0.7,0.3,1.2,0.4
						s0.8,0.2,1.2,0.2c0.6,0,1-0.1,1.4-0.3c0.3-0.2,0.5-0.5,0.5-0.9c0-0.3-0.1-0.5-0.4-0.7c-0.3-0.2-0.7-0.5-1.5-0.7
						c-0.7-0.3-1.2-0.5-1.5-0.7c-0.3-0.2-0.5-0.4-0.7-0.7s-0.2-0.5-0.2-0.9c0-0.6,0.2-1.1,0.7-1.4c0.5-0.4,1.2-0.5,2-0.5
						c0.8,0,1.6,0.2,2.4,0.5l-0.4,0.9c-0.8-0.3-1.4-0.5-2-0.5c-0.5,0-0.9,0.1-1.2,0.3S12,9,12,9.3c0,0.2,0.1,0.4,0.2,0.5
						s0.3,0.3,0.5,0.4s0.7,0.3,1.3,0.6c0.9,0.3,1.5,0.6,1.8,1S16.2,12.5,16.2,13z"/>
					<path class="st11" d="M21.2,15.1c-1.1,0-2-0.3-2.6-1s-1-1.6-1-2.8c0-1.2,0.3-2.2,0.9-2.9s1.4-1.1,2.4-1.1
						c0.9,0,1.7,0.3,2.2,0.9c0.5,0.6,0.8,1.4,0.8,2.4v0.7h-5.2c0,0.9,0.2,1.5,0.7,2s1,0.7,1.8,0.7c0.8,0,1.6-0.2,2.4-0.5v1
						c-0.4,0.2-0.8,0.3-1.1,0.4C22.2,15.1,21.7,15.1,21.2,15.1z M20.9,8.3c-0.6,0-1.1,0.2-1.4,0.6s-0.6,0.9-0.6,1.6h3.9
						c0-0.7-0.2-1.3-0.5-1.6C22,8.5,21.5,8.3,20.9,8.3z"/>
					<path class="st11" d="M29.3,8.4h-1.9V15h-1.1V8.4h-1.3V7.9l1.3-0.4V7c0-1.8,0.8-2.8,2.4-2.8c0.4,0,0.9,0.1,1.4,0.2l-0.3,0.9
						c-0.4-0.1-0.8-0.2-1.1-0.2c-0.4,0-0.7,0.1-1,0.4c-0.2,0.3-0.3,0.7-0.3,1.4v0.5h1.9V8.4z"/>
					<path class="st11" d="M31.7,7.5v4.9c0,0.6,0.1,1.1,0.4,1.4s0.7,0.5,1.3,0.5c0.8,0,1.4-0.2,1.7-0.6s0.5-1.1,0.5-2.1V7.5h1.1V15
						h-0.9l-0.2-1h-0.1c-0.2,0.4-0.6,0.7-1,0.8s-0.9,0.3-1.4,0.3c-0.9,0-1.6-0.2-2-0.6s-0.7-1.1-0.7-2.1V7.5H31.7z"/>
					<path class="st11" d="M40.4,15h-1.1V4.4h1.1V15z"/>
				</g>
			</g>
		</g>
	</g>
</g>
</svg>
