<svg xmlns="http://www.w3.org/2000/svg" width="279" height="34" id="Layer_1" viewBox="0 0 279 34"><style>.st0{fill:#4a5c69;}</style><path d="M2 17.6v-12h4.3v11.9c0 2.8 1.6 4.7 4.7 4.7s4.7-1.9 4.7-4.7V5.6H20v12c0 4.9-2.9 8.4-9 8.4-6 0-9-3.4-9-8.4zM33.8 25.6v-8.8c0-2-1-2.7-2.7-2.7-1.5 0-2.6.8-3.3 1.7v9.8H24V11.2h3.8V13c.9-1.1 2.7-2.2 5.1-2.2 3.2 0 4.7 1.8 4.7 4.6v10.2h-3.8zM41 7.3c0-1.3 1-2.2 2.2-2.2 1.3 0 2.3 1 2.3 2.2 0 1.3-1 2.3-2.3 2.3-1.2 0-2.2-1-2.2-2.3zm.3 18.3V11.2h3.8v14.5h-3.8zM49.7 22v-7.5h-2.4v-3.3h2.4v-4h3.8v4h2.9v3.3h-2.9V21c0 .9.5 1.6 1.3 1.6.6 0 1.1-.2 1.3-.5l.8 2.9c-.6.5-1.6.9-3.2.9-2.6.1-4-1.3-4-3.9zM67.5 25.6v-4.1h-9.6v-3.4l7.9-12.5h5.9v12.1h2.6v3.8h-2.6v4.1h-4.2zm0-16.2l-5.4 8.3h5.4V9.4zM85.2 25.6v-20H92c6.2 0 10.3 4.4 10.3 10 0 5.7-4.1 10-10.3 10h-6.8zm14.5-9.9c0-4.3-2.7-7.8-7.7-7.8h-4.4v15.6H92c4.9-.1 7.7-3.6 7.7-7.8zM105.2 18.4c0-4.2 3-7.6 7.1-7.6 4.4 0 7 3.4 7 7.8v.6h-11.7c.2 2.7 2.1 5 5.2 5 1.6 0 3.3-.7 4.5-1.8l1.1 1.5c-1.4 1.4-3.4 2.2-5.8 2.2-4.3-.1-7.4-3.2-7.4-7.7zm7.2-5.7c-3.1 0-4.6 2.6-4.7 4.8h9.5c-.1-2.2-1.5-4.8-4.8-4.8zM121.7 23.7l1.2-1.6c1 1.1 2.8 2.1 4.8 2.1 2.2 0 3.4-1.1 3.4-2.5 0-3.5-9-1.3-9-6.7 0-2.2 2-4.2 5.4-4.2 2.5 0 4.2.9 5.4 2.1l-1 1.6c-.9-1-2.5-1.8-4.3-1.8-2 0-3.2 1-3.2 2.3 0 3.2 9 1.1 9 6.7 0 2.4-2 4.4-5.7 4.4-2.5-.1-4.5-.8-6-2.4zM136.5 7.6c0-.8.7-1.5 1.5-1.5s1.5.7 1.5 1.5-.7 1.5-1.5 1.5-1.5-.7-1.5-1.5zm.4 18V11.2h2.2v14.5h-2.2zM143.6 29.4l1.1-1.7c1.2 1.4 2.6 2 4.7 2 2.4 0 4.6-1.2 4.6-4.4v-2.1c-1 1.5-2.8 2.6-4.9 2.6-3.8 0-6.4-2.8-6.4-7.5 0-4.6 2.6-7.5 6.4-7.5 1.9 0 3.7 1 4.9 2.6v-2.2h2.2v14.1c0 4.8-3.4 6.3-6.9 6.3-2.3-.1-3.9-.6-5.7-2.2zm10.5-7.9v-6.3c-.8-1.3-2.5-2.3-4.3-2.3-2.9 0-4.6 2.3-4.6 5.5s1.7 5.5 4.6 5.5c1.8-.1 3.6-1.2 4.3-2.4zM170.7 25.6v-9.5c0-2.5-1.3-3.4-3.2-3.4-1.8 0-3.4 1.1-4.3 2.2v10.6H161V11.2h2.2v2.1c1-1.2 3-2.5 5.2-2.5 3 0 4.6 1.5 4.6 4.7v10.2h-2.3zM184.1 22.8l1.5-1.9c1.3 1.5 3.5 2.9 6.3 2.9 3.6 0 4.7-1.9 4.7-3.4 0-5.2-11.8-2.3-11.8-9.4 0-3.3 2.9-5.5 6.9-5.5 3.1 0 5.4 1 7.1 2.8l-1.5 1.8c-1.5-1.6-3.6-2.4-5.8-2.4-2.4 0-4.1 1.3-4.1 3.2 0 4.5 11.8 1.9 11.8 9.4 0 2.9-2 5.9-7.4 5.9-3.5-.2-6.1-1.5-7.7-3.4zM202.1 29.3c.3.1.9.2 1.2.2 1 0 1.6-.3 2.2-1.5l1-2.2-6.1-14.6h2.4l4.8 11.9 4.8-11.9h2.5l-7.3 17.4c-.9 2.1-2.3 2.9-4.3 2.9-.5 0-1.2-.1-1.6-.2l.4-2zM216 23.7l1.2-1.6c1 1.1 2.8 2.1 4.8 2.1 2.2 0 3.4-1.1 3.4-2.5 0-3.5-9-1.3-9-6.7 0-2.2 2-4.2 5.4-4.2 2.5 0 4.2.9 5.4 2.1l-1 1.6c-.9-1-2.5-1.8-4.3-1.8-2 0-3.2 1-3.2 2.3 0 3.2 9 1.1 9 6.7 0 2.4-2 4.4-5.7 4.4-2.5-.1-4.5-.8-6-2.4zM231.7 22.6v-9.5h-2.4v-2h2.4v-4h2.2v4h2.9v2h-2.9v9c0 1.1.5 1.9 1.5 1.9.6 0 1.2-.3 1.5-.6l.7 1.7c-.6.5-1.4.9-2.7.9-2.2 0-3.2-1.2-3.2-3.4zM239.2 18.4c0-4.2 3-7.6 7.1-7.6 4.4 0 7 3.4 7 7.8v.6h-11.7c.2 2.7 2.1 5 5.2 5 1.6 0 3.3-.7 4.5-1.8l1.1 1.5c-1.4 1.4-3.4 2.2-5.8 2.2-4.3-.1-7.4-3.2-7.4-7.7zm7.1-5.7c-3.1 0-4.6 2.6-4.7 4.8h9.5c-.1-2.2-1.5-4.8-4.8-4.8zM274.4 25.6v-9.8c0-1.8-.8-3-2.7-3-1.5 0-3.1 1.1-3.8 2.2v10.6h-2.2v-9.8c0-1.8-.8-3-2.7-3-1.5 0-3 1.1-3.8 2.2v10.6H257V11.2h2.2v2.1c.6-.9 2.5-2.5 4.7-2.5s3.5 1.2 3.9 2.7c.8-1.3 2.8-2.7 4.9-2.7 2.6 0 4 1.5 4 4.4v10.5h-2.3z" class="st0"/></svg>
