<?xml version="1.0" encoding="UTF-8"?>
<svg width="371px" height="276px" viewBox="0 0 371 276" version="1.1" xmlns="http://www.w3.org/2000/svg" xmlns:xlink="http://www.w3.org/1999/xlink">
    <!-- Generator: Sketch 47 (45396) - http://www.bohemiancoding.com/sketch -->
    <title>MandatoryConfirmations</title>
    <desc>Created with Sketch.</desc>
    <defs>
        <rect id="path-1" x="0" y="0" width="351" height="256"></rect>
        <filter x="-5.0%" y="-4.9%" width="110.0%" height="113.7%" filterUnits="objectBoundingBox" id="filter-2">
            <feOffset dx="0" dy="5" in="SourceAlpha" result="shadowOffsetOuter1"></feOffset>
            <feGaussianBlur stdDeviation="5" in="shadowOffsetOuter1" result="shadowBlurOuter1"></feGaussianBlur>
            <feColorMatrix values="0 0 0 0 0   0 0 0 0 0   0 0 0 0 0  0 0 0 0.3 0" type="matrix" in="shadowBlurOuter1"></feColorMatrix>
        </filter>
        <rect id="path-3" x="0" y="0" width="111" height="44" rx="3"></rect>
        <rect id="path-4" x="0" y="0" width="111" height="44" rx="3"></rect>
    </defs>
    <g id="Page-1" stroke="none" stroke-width="1" fill="none" fill-rule="evenodd">
        <g id="Buttons-Usage-extra-large-1200" transform="translate(-325.000000, -2014.000000)">
            <g id="Group-9" transform="translate(305.000000, 1988.000000)">
                <g id="MandatoryConfirmations" transform="translate(30.000000, 31.000000)">
                    <g id="modal-copy">
                        <g id="Panel">
                            <use fill="black" fill-opacity="1" filter="url(#filter-2)" xlink:href="#path-1"></use>
                            <use fill="#FFFFFF" fill-rule="evenodd" xlink:href="#path-1"></use>
                        </g>
                    </g>
                    <rect id="Rectangle-2-Copy-7" fill="#4C5358" x="24" y="24" width="119" height="8" rx="4"></rect>
                    <g id="Buttons/Button-Container" transform="translate(89.000000, 188.000000)">
                        <g id="Button-default">
                            <g id="Bg">
                                <use fill="#F5F5F6" fill-rule="evenodd" xlink:href="#path-3"></use>
                                <rect stroke="#A9B1B5" stroke-width="1" x="0.5" y="0.5" width="110" height="43" rx="3"></rect>
                            </g>
                            <path d="M42.26,24.616 C41.7906643,25.5120045 41.193337,26.1733312 40.468,26.6 C39.742663,27.0266688 38.846672,27.24 37.78,27.24 C36.9373291,27.24 36.1933366,27.0880015 35.548,26.784 C34.9026634,26.4799985 34.3640022,26.061336 33.932,25.528 C33.4999978,24.994664 33.1746678,24.365337 32.956,23.64 C32.7373322,22.914663 32.628,22.1360042 32.628,21.304 C32.628,20.4613291 32.7399989,19.6853369 32.964,18.976 C33.1880011,18.2666631 33.5186645,17.6506693 33.956,17.128 C34.3933355,16.6053307 34.9319968,16.1973348 35.572,15.904 C36.2120032,15.6106652 36.9479958,15.464 37.78,15.464 C38.7400048,15.464 39.5879963,15.6533314 40.324,16.032 C41.0600037,16.4106686 41.6733309,17.0053293 42.164,17.816 L40.804,18.504 C40.4946651,17.9386638 40.0840026,17.4986682 39.572,17.184 C39.0599974,16.8693318 38.4626701,16.712 37.78,16.712 C37.1826637,16.712 36.6573356,16.8319988 36.204,17.072 C35.7506644,17.3120012 35.3720015,17.6373313 35.068,18.048 C34.7639985,18.4586687 34.5346674,18.9439972 34.38,19.504 C34.2253326,20.0640028 34.148,20.6639968 34.148,21.304 C34.148,21.9440032 34.2279992,22.5493305 34.388,23.12 C34.5480008,23.6906695 34.7799985,24.1893312 35.084,24.616 C35.3880015,25.0426688 35.7666644,25.3786654 36.22,25.624 C36.6733356,25.8693346 37.1933304,25.992 37.78,25.992 C39.2626741,25.992 40.3026637,25.3040069 40.9,23.928 L42.26,24.616 Z M48.868,27 C48.7506661,26.6159981 48.6813334,26.157336 48.66,25.624 C48.4466656,26.1146691 48.1186689,26.5066652 47.676,26.8 C47.2333311,27.0933348 46.708003,27.24 46.1,27.24 C45.3319962,27.24 44.7240022,27.0213355 44.276,26.584 C43.8279978,26.1466645 43.604,25.5600037 43.604,24.824 C43.604,24.4079979 43.6786659,24.0586681 43.828,23.776 C43.9773341,23.4933319 44.185332,23.2586676 44.452,23.072 C44.718668,22.8853324 45.0333315,22.7386672 45.396,22.632 C45.7586685,22.5253328 46.1533312,22.4400003 46.58,22.376 L48.596,22.072 L48.596,21.576 C48.596,21.2239982 48.5533338,20.9413344 48.468,20.728 C48.3826662,20.5146656 48.2653341,20.3493339 48.116,20.232 C47.9666659,20.1146661 47.796001,20.0373335 47.604,20 C47.411999,19.9626665 47.2093344,19.944 46.996,19.944 C46.387997,19.944 45.8866686,20.0559989 45.492,20.28 C45.0973314,20.5040011 44.766668,20.786665 44.5,21.128 L43.812,20.264 C44.1213349,19.8906648 44.5506639,19.570668 45.1,19.304 C45.6493361,19.037332 46.3293293,18.904 47.14,18.904 C48.1213382,18.904 48.8333311,19.1226645 49.276,19.56 C49.7186689,19.9973355 49.94,20.7013285 49.94,21.672 L49.94,24.856 C49.94,25.1120013 49.9426666,25.335999 49.948,25.528 C49.9533334,25.720001 49.9639999,25.8986658 49.98,26.064 C49.9960001,26.2293342 50.0199998,26.3866659 50.052,26.536 C50.0840002,26.6853341 50.1266664,26.8399992 50.18,27 L48.868,27 Z M48.596,22.952 L46.708,23.256 C46.0573301,23.3733339 45.5960014,23.5493322 45.324,23.784 C45.0519986,24.0186678 44.916,24.3439979 44.916,24.76 C44.916,25.1866688 45.0413321,25.5439986 45.292,25.832 C45.5426679,26.1200014 45.9133309,26.264 46.404,26.264 C46.7026682,26.264 46.985332,26.2053339 47.252,26.088 C47.518668,25.9706661 47.7506657,25.808001 47.948,25.6 C48.1453343,25.391999 48.3026661,25.1413348 48.42,24.848 C48.5373339,24.5546652 48.596,24.2320018 48.596,23.88 L48.596,22.952 Z M52.068,19.128 L53.22,19.128 L53.364,20.696 C53.5666677,20.2159976 53.8893311,19.7973351 54.332,19.44 C54.7746689,19.0826649 55.3213301,18.904 55.972,18.904 C56.7933374,18.904 57.3986647,19.1653307 57.788,19.688 C58.1773353,20.2106693 58.372,20.9413286 58.372,21.88 L58.372,27 L57.044,27 L57.044,22.152 C57.044,21.4373298 56.9000014,20.9120017 56.612,20.576 C56.3239986,20.2399983 55.9346691,20.072 55.444,20.072 C54.8573304,20.072 54.3693353,20.3119976 53.98,20.792 C53.5906647,21.2720024 53.396,21.949329 53.396,22.824 L53.396,27 L52.068,27 L52.068,19.128 Z M66.964,25.272 C66.6439984,25.9120032 66.2146694,26.3999983 65.676,26.736 C65.1373306,27.0720017 64.4840038,27.24 63.716,27.24 C63.0866635,27.24 62.5400023,27.1306678 62.076,26.912 C61.6119977,26.6933322 61.2280015,26.3973352 60.924,26.024 C60.6199985,25.6506648 60.3960007,25.2106692 60.252,24.704 C60.1079993,24.1973308 60.036,23.6560029 60.036,23.08 C60.036,22.4933304 60.1133326,21.9466692 60.268,21.44 C60.4226674,20.9333308 60.6519985,20.4933352 60.956,20.12 C61.2600015,19.7466648 61.641331,19.4506678 62.1,19.232 C62.558669,19.0133322 63.0973302,18.904 63.716,18.904 C64.4946706,18.904 65.1426641,19.0773316 65.66,19.424 C66.1773359,19.7706684 66.5959984,20.2586635 66.916,20.888 L65.796,21.416 C65.3906646,20.4346618 64.7080048,19.944 63.748,19.944 C63.3426646,19.944 62.9933348,20.0239992 62.7,20.184 C62.4066652,20.3440008 62.1666676,20.5626653 61.98,20.84 C61.7933324,21.1173347 61.6546671,21.4399982 61.564,21.808 C61.4733329,22.1760018 61.428,22.5733312 61.428,23 C61.428,23.4053354 61.4706662,23.7999981 61.556,24.184 C61.6413338,24.5680019 61.779999,24.9093318 61.972,25.208 C62.164001,25.5066682 62.4093318,25.7466658 62.708,25.928 C63.0066682,26.1093342 63.3746645,26.2 63.812,26.2 C64.3666694,26.2 64.814665,26.0586681 65.156,25.776 C65.497335,25.4933319 65.7586658,25.1280022 65.94,24.68 L66.964,25.272 Z M69.444,23.368 C69.4973336,24.2746712 69.7293313,24.9759975 70.14,25.472 C70.5506687,25.9680025 71.1239963,26.216 71.86,26.216 C72.7880046,26.216 73.4866643,25.778671 73.956,24.904 L74.964,25.464 C74.6546651,25.9866693 74.2440026,26.4133317 73.732,26.744 C73.2199974,27.0746683 72.5746706,27.24 71.796,27.24 C71.1773302,27.24 70.6360023,27.1333344 70.172,26.92 C69.7079977,26.7066656 69.3213349,26.4133352 69.012,26.04 C68.7026651,25.6666648 68.4706674,25.2293358 68.316,24.728 C68.1613326,24.2266642 68.084,23.6880029 68.084,23.112 C68.084,22.5466638 68.1586659,22.0080026 68.308,21.496 C68.4573341,20.9839974 68.6839985,20.5360019 68.988,20.152 C69.2920015,19.7679981 69.6653311,19.4640011 70.108,19.24 C70.5506689,19.0159989 71.0706637,18.904 71.668,18.904 C72.2440029,18.904 72.7453312,19.0133322 73.172,19.232 C73.5986688,19.4506678 73.9533319,19.7439982 74.236,20.112 C74.5186681,20.4800018 74.7319993,20.9066642 74.876,21.392 C75.0200007,21.8773358 75.092,22.3919973 75.092,22.936 C75.092,23.0533339 75.0893334,23.1439997 75.084,23.208 C75.0786666,23.2720003 75.076,23.3253331 75.076,23.368 L69.444,23.368 Z M71.652,19.912 C70.9799966,19.912 70.4600018,20.1519976 70.092,20.632 C69.7239982,21.1120024 69.5133336,21.7573293 69.46,22.568 L73.732,22.568 C73.732,22.2373317 73.694667,21.9146682 73.62,21.6 C73.545333,21.2853318 73.4226675,21.0026679 73.252,20.752 C73.0813325,20.5013321 72.8653346,20.2986674 72.604,20.144 C72.3426654,19.9893326 72.0253352,19.912 71.652,19.912 Z M76.708,15.704 L78.036,15.704 L78.036,27 L76.708,27 L76.708,15.704 Z" id="Button-item" fill="#000000"></path>
                        </g>
                    </g>
                    <rect id="Rectangle-2-Copy-13" fill="#D8D8D8" x="24" y="137" width="155" height="6" rx="3"></rect>
                    <rect id="Rectangle-2-Copy-24" fill="#D8D8D8" x="24" y="110" width="303" height="6" rx="3"></rect>
                    <rect id="Rectangle-2-Copy-25" fill="#D8D8D8" x="24" y="82" width="303" height="6" rx="3"></rect>
                    <g id="X" transform="translate(319.000000, 16.000000)" fill="#4C5358">
                        <path d="M15.5636364,14.3272727 L14.4,15.4909091 C14.2545455,15.6363636 14.0363636,15.7818182 13.8181818,15.7818182 C13.6,15.7818182 13.3818182,15.7090909 13.2363636,15.4909091 L0.290909091,2.54545455 C0.145454545,2.4 0,2.18181818 0,1.96363636 C0,1.74545455 0.145454545,1.6 0.290909091,1.45454545 L1.45454545,0.290909091 C1.6,0.0727272727 1.81818182,0 2.03636364,0 C2.25454545,0 2.47272727,0.0727272727 2.61818182,0.290909091 L15.4909091,13.1636364 C15.6363636,13.3090909 15.7818182,13.5272727 15.7818182,13.7454545 C15.7818182,13.9636364 15.7090909,14.1818182 15.5636364,14.3272727" id="Fill-1"></path>
                        <path d="M14.4,0.218181818 L15.5636364,1.45454545 C15.7090909,1.6 15.8545455,1.81818182 15.8545455,2.03636364 C15.7818182,2.32727273 15.7090909,2.47272727 15.5636364,2.61818182 L2.61818182,15.4909091 C2.47272727,15.6363636 2.25454545,15.7818182 2.03636364,15.7818182 C1.81818182,15.7818182 1.6,15.7090909 1.45454545,15.4909091 L0.290909091,14.3272727 C0.145454545,14.1818182 0,13.9636364 0,13.7454545 C0,13.5272727 0.0727272727,13.3090909 0.290909091,13.1636364 L13.2363636,0.290909091 C13.3818182,0.145454545 13.6,0 13.8181818,0 C13.9636364,0.0727272727 14.2545455,0.0727272727 14.4,0.218181818" id="Fill-3"></path>
                    </g>
                    <g id="Buttons/Button-Container" transform="translate(216.000000, 188.000000)">
                        <g id="Button-default">
                            <g id="Bg">
                                <use fill="#C30000" fill-rule="evenodd" xlink:href="#path-4"></use>
                                <rect stroke="#C40000" stroke-width="1" x="0.5" y="0.5" width="110" height="43" rx="3"></rect>
                            </g>
                            <path d="M34.428,15.704 L37.836,15.704 C39.7880098,15.704 41.2226621,16.1759953 42.14,17.12 C43.0573379,18.0640047 43.516,19.4799906 43.516,21.368 C43.516,23.1920091 43.0573379,24.5866618 42.14,25.552 C41.2226621,26.5173382 39.8466758,27 38.012,27 L34.428,27 L34.428,15.704 Z M37.9,25.88 C38.6680038,25.88 39.3133307,25.7680011 39.836,25.544 C40.3586693,25.3199989 40.7799984,25.008002 41.1,24.608 C41.4200016,24.207998 41.646666,23.7280028 41.78,23.168 C41.913334,22.6079972 41.98,21.9973366 41.98,21.336 C41.98,20.6959968 41.913334,20.1013361 41.78,19.552 C41.646666,19.0026639 41.4200016,18.5253354 41.1,18.12 C40.7799984,17.7146646 40.3480027,17.3973345 39.804,17.168 C39.2599973,16.9386655 38.5773374,16.824 37.756,16.824 L35.868,16.824 L35.868,25.88 L37.9,25.88 Z M46.22,23.368 C46.2733336,24.2746712 46.5053313,24.9759975 46.916,25.472 C47.3266687,25.9680025 47.8999963,26.216 48.636,26.216 C49.5640046,26.216 50.2626643,25.778671 50.732,24.904 L51.74,25.464 C51.4306651,25.9866693 51.0200026,26.4133317 50.508,26.744 C49.9959974,27.0746683 49.3506706,27.24 48.572,27.24 C47.9533302,27.24 47.4120023,27.1333344 46.948,26.92 C46.4839977,26.7066656 46.0973349,26.4133352 45.788,26.04 C45.4786651,25.6666648 45.2466674,25.2293358 45.092,24.728 C44.9373326,24.2266642 44.86,23.6880029 44.86,23.112 C44.86,22.5466638 44.9346659,22.0080026 45.084,21.496 C45.2333341,20.9839974 45.4599985,20.5360019 45.764,20.152 C46.0680015,19.7679981 46.4413311,19.4640011 46.884,19.24 C47.3266689,19.0159989 47.8466637,18.904 48.444,18.904 C49.0200029,18.904 49.5213312,19.0133322 49.948,19.232 C50.3746688,19.4506678 50.7293319,19.7439982 51.012,20.112 C51.2946681,20.4800018 51.5079993,20.9066642 51.652,21.392 C51.7960007,21.8773358 51.868,22.3919973 51.868,22.936 C51.868,23.0533339 51.8653334,23.1439997 51.86,23.208 C51.8546666,23.2720003 51.852,23.3253331 51.852,23.368 L46.22,23.368 Z M48.428,19.912 C47.7559966,19.912 47.2360018,20.1519976 46.868,20.632 C46.4999982,21.1120024 46.2893336,21.7573293 46.236,22.568 L50.508,22.568 C50.508,22.2373317 50.470667,21.9146682 50.396,21.6 C50.321333,21.2853318 50.1986675,21.0026679 50.028,20.752 C49.8573325,20.5013321 49.6413346,20.2986674 49.38,20.144 C49.1186654,19.9893326 48.8013352,19.912 48.428,19.912 Z M53.484,15.704 L54.812,15.704 L54.812,27 L53.484,27 L53.484,15.704 Z M57.868,23.368 C57.9213336,24.2746712 58.1533313,24.9759975 58.564,25.472 C58.9746687,25.9680025 59.5479963,26.216 60.284,26.216 C61.2120046,26.216 61.9106643,25.778671 62.38,24.904 L63.388,25.464 C63.0786651,25.9866693 62.6680026,26.4133317 62.156,26.744 C61.6439974,27.0746683 60.9986706,27.24 60.22,27.24 C59.6013302,27.24 59.0600023,27.1333344 58.596,26.92 C58.1319977,26.7066656 57.7453349,26.4133352 57.436,26.04 C57.1266651,25.6666648 56.8946674,25.2293358 56.74,24.728 C56.5853326,24.2266642 56.508,23.6880029 56.508,23.112 C56.508,22.5466638 56.5826659,22.0080026 56.732,21.496 C56.8813341,20.9839974 57.1079985,20.5360019 57.412,20.152 C57.7160015,19.7679981 58.0893311,19.4640011 58.532,19.24 C58.9746689,19.0159989 59.4946637,18.904 60.092,18.904 C60.6680029,18.904 61.1693312,19.0133322 61.596,19.232 C62.0226688,19.4506678 62.3773319,19.7439982 62.66,20.112 C62.9426681,20.4800018 63.1559993,20.9066642 63.3,21.392 C63.4440007,21.8773358 63.516,22.3919973 63.516,22.936 C63.516,23.0533339 63.5133334,23.1439997 63.508,23.208 C63.5026666,23.2720003 63.5,23.3253331 63.5,23.368 L57.868,23.368 Z M60.076,19.912 C59.4039966,19.912 58.8840018,20.1519976 58.516,20.632 C58.1479982,21.1120024 57.9373336,21.7573293 57.884,22.568 L62.156,22.568 C62.156,22.2373317 62.118667,21.9146682 62.044,21.6 C61.969333,21.2853318 61.8466675,21.0026679 61.676,20.752 C61.5053325,20.5013321 61.2893346,20.2986674 61.028,20.144 C60.7666654,19.9893326 60.4493352,19.912 60.076,19.912 Z M65.82,20.04 L64.476,20.04 L64.476,19.128 L64.764,19.128 C65.0946683,19.128 65.3533324,19.0933337 65.54,19.024 C65.7266676,18.9546663 65.8679995,18.8480007 65.964,18.704 C66.0600005,18.5599993 66.1293331,18.3706678 66.172,18.136 C66.2146669,17.9013322 66.2519998,17.613335 66.284,17.272 L66.316,16.984 L67.148,16.984 L67.148,19.128 L68.844,19.128 L68.844,20.04 L67.148,20.04 L67.148,24.936 C67.148,25.3840022 67.214666,25.7066657 67.348,25.904 C67.481334,26.1013343 67.7293315,26.2 68.092,26.2 C68.3800014,26.2 68.6466654,26.1360006 68.892,26.008 L69.036,26.968 C68.6306646,27.1493342 68.1826691,27.24 67.692,27.24 C67.3079981,27.24 66.9960012,27.1866672 66.756,27.08 C66.5159988,26.9733328 66.3266674,26.8293342 66.188,26.648 C66.0493326,26.4666658 65.9533336,26.2480013 65.9,25.992 C65.8466664,25.7359987 65.82,25.4586682 65.82,25.16 L65.82,20.04 Z M71.452,23.368 C71.5053336,24.2746712 71.7373313,24.9759975 72.148,25.472 C72.5586687,25.9680025 73.1319963,26.216 73.868,26.216 C74.7960046,26.216 75.4946643,25.778671 75.964,24.904 L76.972,25.464 C76.6626651,25.9866693 76.2520026,26.4133317 75.74,26.744 C75.2279974,27.0746683 74.5826706,27.24 73.804,27.24 C73.1853302,27.24 72.6440023,27.1333344 72.18,26.92 C71.7159977,26.7066656 71.3293349,26.4133352 71.02,26.04 C70.7106651,25.6666648 70.4786674,25.2293358 70.324,24.728 C70.1693326,24.2266642 70.092,23.6880029 70.092,23.112 C70.092,22.5466638 70.1666659,22.0080026 70.316,21.496 C70.4653341,20.9839974 70.6919985,20.5360019 70.996,20.152 C71.3000015,19.7679981 71.6733311,19.4640011 72.116,19.24 C72.5586689,19.0159989 73.0786637,18.904 73.676,18.904 C74.2520029,18.904 74.7533312,19.0133322 75.18,19.232 C75.6066688,19.4506678 75.9613319,19.7439982 76.244,20.112 C76.5266681,20.4800018 76.7399993,20.9066642 76.884,21.392 C77.0280007,21.8773358 77.1,22.3919973 77.1,22.936 C77.1,23.0533339 77.0973334,23.1439997 77.092,23.208 C77.0866666,23.2720003 77.084,23.3253331 77.084,23.368 L71.452,23.368 Z M73.66,19.912 C72.9879966,19.912 72.4680018,20.1519976 72.1,20.632 C71.7319982,21.1120024 71.5213336,21.7573293 71.468,22.568 L75.74,22.568 C75.74,22.2373317 75.702667,21.9146682 75.628,21.6 C75.553333,21.2853318 75.4306675,21.0026679 75.26,20.752 C75.0893325,20.5013321 74.8733346,20.2986674 74.612,20.144 C74.3506654,19.9893326 74.0333352,19.912 73.66,19.912 Z" id="Button-item" fill="#FFFFFF"></path>
                        </g>
                    </g>
                </g>
            </g>
        </g>
    </g>
</svg>