<?xml version="1.0" encoding="UTF-8"?>
<svg width="371px" height="319px" viewBox="0 0 371 319" version="1.1" xmlns="http://www.w3.org/2000/svg" xmlns:xlink="http://www.w3.org/1999/xlink">
    <!-- Generator: Sketch 47.1 (45422) - http://www.bohemiancoding.com/sketch -->
    <title>Send message</title>
    <desc>Created with Sketch.</desc>
    <defs>
        <rect id="path-1" x="0" y="0" width="125" height="32" rx="3"></rect>
        <rect id="path-2" x="0" y="0" width="351" height="256"></rect>
        <filter x="-5.0%" y="-4.9%" width="110.0%" height="113.7%" filterUnits="objectBoundingBox" id="filter-3">
            <feOffset dx="0" dy="5" in="SourceAlpha" result="shadowOffsetOuter1"></feOffset>
            <feGaussianBlur stdDeviation="5" in="shadowOffsetOuter1" result="shadowBlurOuter1"></feGaussianBlur>
            <feColorMatrix values="0 0 0 0 0   0 0 0 0 0   0 0 0 0 0  0 0 0 0.3 0" type="matrix" in="shadowBlurOuter1"></feColorMatrix>
        </filter>
        <rect id="path-4" x="0" y="0" width="111" height="44" rx="3"></rect>
    </defs>
    <g id="Page-1" stroke="none" stroke-width="1" fill="none" fill-rule="evenodd">
        <g id="Buttons-Usage-extra-large-1200" transform="translate(-325.000000, -2987.000000)">
            <g id="Group-11" transform="translate(305.000000, 2971.000000)">
                <g id="do">
                    <g id="Send-message" transform="translate(30.000000, 16.000000)">
                        <g id="button-send-message" transform="translate(113.000000, 0.000000)">
                            <g id="Group-4-Copy-2">
                                <g id="Button-default-Copy">
                                    <g id="Bg">
                                        <use fill="#0D78AA" fill-rule="evenodd" xlink:href="#path-1"></use>
                                        <rect stroke="#0D78AA" stroke-width="1" x="0.5" y="0.5" width="124" height="31" rx="3"></rect>
                                    </g>
                                </g>
                            </g>
                            <path d="M14.82,18.392 C15.1506683,18.8826691 15.5986638,19.2799985 16.164,19.584 C16.7293362,19.8880015 17.3959962,20.04 18.164,20.04 C18.5266685,20.04 18.8653318,19.9920005 19.18,19.896 C19.4946682,19.7999995 19.7666655,19.6613342 19.996,19.48 C20.2253345,19.2986658 20.4039994,19.0773346 20.532,18.816 C20.6600006,18.5546654 20.724,18.2640016 20.724,17.944 C20.724,17.6133317 20.6466674,17.3360011 20.492,17.112 C20.3373326,16.8879989 20.126668,16.6986674 19.86,16.544 C19.593332,16.3893326 19.2760018,16.2533339 18.908,16.136 C18.5399982,16.0186661 18.1426688,15.9013339 17.716,15.784 C17.2359976,15.6453326 16.7906687,15.4906675 16.38,15.32 C15.9693313,15.1493325 15.6146682,14.9386679 15.316,14.688 C15.0173318,14.4373321 14.7826675,14.1440017 14.612,13.808 C14.4413325,13.4719983 14.356,13.0693357 14.356,12.6 C14.356,12.1199976 14.4493324,11.6880019 14.636,11.304 C14.8226676,10.9199981 15.086665,10.5920014 15.428,10.32 C15.769335,10.0479986 16.1719977,9.83733408 16.636,9.688 C17.1000023,9.53866592 17.6146638,9.464 18.18,9.464 C18.9586706,9.464 19.6786634,9.59466536 20.34,9.856 C21.0013366,10.1173346 21.5666643,10.5039974 22.036,11.016 L21.06,11.928 C20.718665,11.5546648 20.3000025,11.2506678 19.804,11.016 C19.3079975,10.7813322 18.7613363,10.664 18.164,10.664 C17.4813299,10.664 16.9240022,10.8106652 16.492,11.104 C16.0599978,11.3973348 15.844,11.8426637 15.844,12.44 C15.844,12.7386682 15.910666,12.9946656 16.044,13.208 C16.177334,13.4213344 16.3639988,13.6079992 16.604,13.768 C16.8440012,13.9280008 17.126665,14.0693327 17.452,14.192 C17.777335,14.3146673 18.1373314,14.4293328 18.532,14.536 C19.1186696,14.6960008 19.641331,14.8693324 20.1,15.056 C20.558669,15.2426676 20.9426651,15.4639987 21.252,15.72 C21.5613349,15.9760013 21.7959992,16.2719983 21.956,16.608 C22.1160008,16.9440017 22.196,17.3359978 22.196,17.784 C22.196,18.3280027 22.0893344,18.8159978 21.876,19.248 C21.6626656,19.6800022 21.3720018,20.0426652 21.004,20.336 C20.6359982,20.6293348 20.2040025,20.8533326 19.708,21.008 C19.2119975,21.1626674 18.6866694,21.24 18.132,21.24 C17.1079949,21.24 16.2440035,21.077335 15.54,20.752 C14.8359965,20.426665 14.2706688,19.960003 13.844,19.352 L14.82,18.392 Z M24.868,17.368 C24.9213336,18.2746712 25.1533313,18.9759975 25.564,19.472 C25.9746687,19.9680025 26.5479963,20.216 27.284,20.216 C28.2120046,20.216 28.9106643,19.778671 29.38,18.904 L30.388,19.464 C30.0786651,19.9866693 29.6680026,20.4133317 29.156,20.744 C28.6439974,21.0746683 27.9986706,21.24 27.22,21.24 C26.6013302,21.24 26.0600023,21.1333344 25.596,20.92 C25.1319977,20.7066656 24.7453349,20.4133352 24.436,20.04 C24.1266651,19.6666648 23.8946674,19.2293358 23.74,18.728 C23.5853326,18.2266642 23.508,17.6880029 23.508,17.112 C23.508,16.5466638 23.5826659,16.0080026 23.732,15.496 C23.8813341,14.9839974 24.1079985,14.5360019 24.412,14.152 C24.7160015,13.7679981 25.0893311,13.4640011 25.532,13.24 C25.9746689,13.0159989 26.4946637,12.904 27.092,12.904 C27.6680029,12.904 28.1693312,13.0133322 28.596,13.232 C29.0226688,13.4506678 29.3773319,13.7439982 29.66,14.112 C29.9426681,14.4800018 30.1559993,14.9066642 30.3,15.392 C30.4440007,15.8773358 30.516,16.3919973 30.516,16.936 C30.516,17.0533339 30.5133334,17.1439997 30.508,17.208 C30.5026666,17.2720003 30.5,17.3253331 30.5,17.368 L24.868,17.368 Z M27.076,13.912 C26.4039966,13.912 25.8840018,14.1519976 25.516,14.632 C25.1479982,15.1120024 24.9373336,15.7573293 24.884,16.568 L29.156,16.568 C29.156,16.2373317 29.118667,15.9146682 29.044,15.6 C28.969333,15.2853318 28.8466675,15.0026679 28.676,14.752 C28.5053325,14.5013321 28.2893346,14.2986674 28.028,14.144 C27.7666654,13.9893326 27.4493352,13.912 27.076,13.912 Z M32.132,13.128 L33.284,13.128 L33.428,14.696 C33.6306677,14.2159976 33.9533311,13.7973351 34.396,13.44 C34.8386689,13.0826649 35.3853301,12.904 36.036,12.904 C36.8573374,12.904 37.4626647,13.1653307 37.852,13.688 C38.2413353,14.2106693 38.436,14.9413286 38.436,15.88 L38.436,21 L37.108,21 L37.108,16.152 C37.108,15.4373298 36.9640014,14.9120017 36.676,14.576 C36.3879986,14.2399983 35.9986691,14.072 35.508,14.072 C34.9213304,14.072 34.4333353,14.3119976 34.044,14.792 C33.6546647,15.2720024 33.46,15.949329 33.46,16.824 L33.46,21 L32.132,21 L32.132,13.128 Z M45.748,19.464 C45.5346656,19.997336 45.2200021,20.4186651 44.804,20.728 C44.3879979,21.0373349 43.8706698,21.192 43.252,21.192 C42.7613309,21.192 42.3213353,21.0906677 41.932,20.888 C41.5426647,20.6853323 41.2120014,20.4026685 40.94,20.04 C40.6679986,19.6773315 40.4600007,19.2400026 40.316,18.728 C40.1719993,18.2159974 40.1,17.6506698 40.1,17.032 C40.1,16.3919968 40.1746659,15.8186692 40.324,15.312 C40.4733341,14.8053308 40.6866653,14.3760018 40.964,14.024 C41.2413347,13.6719982 41.5746647,13.400001 41.964,13.208 C42.3533353,13.015999 42.7826643,12.92 43.252,12.92 C43.8920032,12.92 44.4146646,13.0719985 44.82,13.376 C45.2253354,13.6800015 45.5133325,14.0453312 45.684,14.472 L45.684,9.704 L47.028,9.704 L47.028,21 L45.748,21 L45.748,19.464 Z M45.684,17.016 C45.684,16.6853317 45.6760001,16.4266676 45.66,16.24 C45.6439999,16.0533324 45.6253334,15.9013339 45.604,15.784 C45.5506664,15.5493322 45.4706672,15.3253344 45.364,15.112 C45.2573328,14.8986656 45.1213342,14.7093342 44.956,14.544 C44.7906658,14.3786658 44.5960011,14.2480005 44.372,14.152 C44.1479989,14.0559995 43.8920014,14.008 43.604,14.008 C43.2413315,14.008 42.9293346,14.0879992 42.668,14.248 C42.4066654,14.4080008 42.1880009,14.6239986 42.012,14.896 C41.8359991,15.1680014 41.7053338,15.4879982 41.62,15.856 C41.5346662,16.2240018 41.492,16.6159979 41.492,17.032 C41.492,17.4800022 41.5399995,17.8933314 41.636,18.272 C41.7320005,18.6506686 41.8706658,18.9759986 42.052,19.248 C42.2333342,19.5200014 42.457332,19.7333326 42.724,19.888 C42.990668,20.0426674 43.294665,20.12 43.636,20.12 C43.902668,20.12 44.1453322,20.0720005 44.364,19.976 C44.5826678,19.8799995 44.7746658,19.7466675 44.94,19.576 C45.1053342,19.4053325 45.2413328,19.2106678 45.348,18.992 C45.4546672,18.7733322 45.5346664,18.5413346 45.588,18.296 C45.6520003,17.9973318 45.684,17.5973358 45.684,17.096 L45.684,17.016 Z M52.66,13.128 L53.812,13.128 L53.956,14.664 C54.148001,14.1199973 54.4466646,13.6906682 54.852,13.376 C55.2573354,13.0613318 55.7533304,12.904 56.34,12.904 C56.9586698,12.904 57.4439982,13.0799982 57.796,13.432 C58.1480018,13.7840018 58.3719995,14.2106642 58.468,14.712 C58.5640005,14.4666654 58.6839993,14.2346678 58.828,14.016 C58.9720007,13.7973322 59.1453323,13.6053342 59.348,13.44 C59.5506677,13.2746658 59.785332,13.1440005 60.052,13.048 C60.318668,12.9519995 60.622665,12.904 60.964,12.904 C61.4120022,12.904 61.7826652,12.9813326 62.076,13.136 C62.3693348,13.2906674 62.6039991,13.501332 62.78,13.768 C62.9560009,14.034668 63.081333,14.3466649 63.156,14.704 C63.230667,15.0613351 63.268,15.4373314 63.268,15.832 L63.268,21 L61.94,21 L61.94,16.168 C61.94,15.4639965 61.8146679,14.9386684 61.564,14.592 C61.3133321,14.2453316 60.9480024,14.072 60.468,14.072 C59.9453307,14.072 59.5080018,14.3039977 59.156,14.768 C58.8039982,15.2320023 58.628,15.8959957 58.628,16.76 L58.628,21 L57.3,21 L57.3,16.232 C57.3,15.4959963 57.1720013,14.9520018 56.916,14.6 C56.6599987,14.2479982 56.302669,14.072 55.844,14.072 C55.3319974,14.072 54.8946685,14.309331 54.532,14.784 C54.1693315,15.258669 53.988,15.9439955 53.988,16.84 L53.988,21 L52.66,21 L52.66,13.128 Z M66.292,17.368 C66.3453336,18.2746712 66.5773313,18.9759975 66.988,19.472 C67.3986687,19.9680025 67.9719963,20.216 68.708,20.216 C69.6360046,20.216 70.3346643,19.778671 70.804,18.904 L71.812,19.464 C71.5026651,19.9866693 71.0920026,20.4133317 70.58,20.744 C70.0679974,21.0746683 69.4226706,21.24 68.644,21.24 C68.0253302,21.24 67.4840023,21.1333344 67.02,20.92 C66.5559977,20.7066656 66.1693349,20.4133352 65.86,20.04 C65.5506651,19.6666648 65.3186674,19.2293358 65.164,18.728 C65.0093326,18.2266642 64.932,17.6880029 64.932,17.112 C64.932,16.5466638 65.0066659,16.0080026 65.156,15.496 C65.3053341,14.9839974 65.5319985,14.5360019 65.836,14.152 C66.1400015,13.7679981 66.5133311,13.4640011 66.956,13.24 C67.3986689,13.0159989 67.9186637,12.904 68.516,12.904 C69.0920029,12.904 69.5933312,13.0133322 70.02,13.232 C70.4466688,13.4506678 70.8013319,13.7439982 71.084,14.112 C71.3666681,14.4800018 71.5799993,14.9066642 71.724,15.392 C71.8680007,15.8773358 71.94,16.3919973 71.94,16.936 C71.94,17.0533339 71.9373334,17.1439997 71.932,17.208 C71.9266666,17.2720003 71.924,17.3253331 71.924,17.368 L66.292,17.368 Z M68.5,13.912 C67.8279966,13.912 67.3080018,14.1519976 66.94,14.632 C66.5719982,15.1120024 66.3613336,15.7573293 66.308,16.568 L70.58,16.568 C70.58,16.2373317 70.542667,15.9146682 70.468,15.6 C70.393333,15.2853318 70.2706675,15.0026679 70.1,14.752 C69.9293325,14.5013321 69.7133346,14.2986674 69.452,14.144 C69.1906654,13.9893326 68.8733352,13.912 68.5,13.912 Z M73.7,19.064 C73.966668,19.405335 74.3106646,19.6879989 74.732,19.912 C75.1533354,20.1360011 75.6146642,20.248 76.116,20.248 C76.5640022,20.248 76.9533317,20.1413344 77.284,19.928 C77.6146683,19.7146656 77.78,19.3946688 77.78,18.968 C77.78,18.6373317 77.6706678,18.3786676 77.452,18.192 C77.2333322,18.0053324 76.961335,17.8480006 76.636,17.72 C76.310665,17.5919994 75.9560019,17.4746672 75.572,17.368 C75.1879981,17.2613328 74.833335,17.1226675 74.508,16.952 C74.182665,16.7813325 73.9106678,16.5573347 73.692,16.28 C73.4733322,16.0026653 73.364,15.6240024 73.364,15.144 C73.364,14.7493314 73.4439992,14.4106681 73.604,14.128 C73.7640008,13.8453319 73.9746654,13.6133342 74.236,13.432 C74.4973346,13.2506658 74.798665,13.1173338 75.14,13.032 C75.481335,12.9466662 75.8386648,12.904 76.212,12.904 C77.3213389,12.904 78.2439963,13.2239968 78.98,13.864 L78.308,14.76 C78.0733322,14.5146654 77.7613353,14.3093342 77.372,14.144 C76.9826647,13.9786658 76.5800021,13.896 76.164,13.896 C75.9826658,13.896 75.8040009,13.9173331 75.628,13.96 C75.4519991,14.0026669 75.297334,14.0693329 75.164,14.16 C75.030666,14.2506671 74.9240004,14.3653326 74.844,14.504 C74.7639996,14.6426674 74.724,14.8133323 74.724,15.016 C74.724,15.3253349 74.8333322,15.5653325 75.052,15.736 C75.2706678,15.9066675 75.542665,16.0533327 75.868,16.176 C76.193335,16.2986673 76.5453314,16.4159994 76.924,16.528 C77.3026686,16.6400006 77.654665,16.7839991 77.98,16.96 C78.305335,17.1360009 78.5773322,17.3679986 78.796,17.656 C79.0146678,17.9440014 79.124,18.3279976 79.124,18.808 C79.124,19.2133354 79.0413342,19.5679985 78.876,19.872 C78.7106658,20.1760015 78.4920014,20.4293323 78.22,20.632 C77.9479986,20.8346677 77.6333351,20.9866662 77.276,21.088 C76.9186649,21.1893338 76.5480019,21.24 76.164,21.24 C74.8413267,21.24 73.7906706,20.8133376 73.012,19.96 L73.7,19.064 Z M80.82,19.064 C81.086668,19.405335 81.4306646,19.6879989 81.852,19.912 C82.2733354,20.1360011 82.7346642,20.248 83.236,20.248 C83.6840022,20.248 84.0733317,20.1413344 84.404,19.928 C84.7346683,19.7146656 84.9,19.3946688 84.9,18.968 C84.9,18.6373317 84.7906678,18.3786676 84.572,18.192 C84.3533322,18.0053324 84.081335,17.8480006 83.756,17.72 C83.430665,17.5919994 83.0760019,17.4746672 82.692,17.368 C82.3079981,17.2613328 81.953335,17.1226675 81.628,16.952 C81.302665,16.7813325 81.0306678,16.5573347 80.812,16.28 C80.5933322,16.0026653 80.484,15.6240024 80.484,15.144 C80.484,14.7493314 80.5639992,14.4106681 80.724,14.128 C80.8840008,13.8453319 81.0946654,13.6133342 81.356,13.432 C81.6173346,13.2506658 81.918665,13.1173338 82.26,13.032 C82.601335,12.9466662 82.9586648,12.904 83.332,12.904 C84.4413389,12.904 85.3639963,13.2239968 86.1,13.864 L85.428,14.76 C85.1933322,14.5146654 84.8813353,14.3093342 84.492,14.144 C84.1026647,13.9786658 83.7000021,13.896 83.284,13.896 C83.1026658,13.896 82.9240009,13.9173331 82.748,13.96 C82.5719991,14.0026669 82.417334,14.0693329 82.284,14.16 C82.150666,14.2506671 82.0440004,14.3653326 81.964,14.504 C81.8839996,14.6426674 81.844,14.8133323 81.844,15.016 C81.844,15.3253349 81.9533322,15.5653325 82.172,15.736 C82.3906678,15.9066675 82.662665,16.0533327 82.988,16.176 C83.313335,16.2986673 83.6653314,16.4159994 84.044,16.528 C84.4226686,16.6400006 84.774665,16.7839991 85.1,16.96 C85.425335,17.1360009 85.6973322,17.3679986 85.916,17.656 C86.1346678,17.9440014 86.244,18.3279976 86.244,18.808 C86.244,19.2133354 86.1613342,19.5679985 85.996,19.872 C85.8306658,20.1760015 85.6120014,20.4293323 85.34,20.632 C85.0679986,20.8346677 84.7533351,20.9866662 84.396,21.088 C84.0386649,21.1893338 83.6680019,21.24 83.284,21.24 C81.9613267,21.24 80.9106706,20.8133376 80.132,19.96 L80.82,19.064 Z M92.74,21 C92.6226661,20.6159981 92.5533334,20.157336 92.532,19.624 C92.3186656,20.1146691 91.9906689,20.5066652 91.548,20.8 C91.1053311,21.0933348 90.580003,21.24 89.972,21.24 C89.2039962,21.24 88.5960022,21.0213355 88.148,20.584 C87.6999978,20.1466645 87.476,19.5600037 87.476,18.824 C87.476,18.4079979 87.5506659,18.0586681 87.7,17.776 C87.8493341,17.4933319 88.057332,17.2586676 88.324,17.072 C88.590668,16.8853324 88.9053315,16.7386672 89.268,16.632 C89.6306685,16.5253328 90.0253312,16.4400003 90.452,16.376 L92.468,16.072 L92.468,15.576 C92.468,15.2239982 92.4253338,14.9413344 92.34,14.728 C92.2546662,14.5146656 92.1373341,14.3493339 91.988,14.232 C91.8386659,14.1146661 91.668001,14.0373335 91.476,14 C91.283999,13.9626665 91.0813344,13.944 90.868,13.944 C90.259997,13.944 89.7586686,14.0559989 89.364,14.28 C88.9693314,14.5040011 88.638668,14.786665 88.372,15.128 L87.684,14.264 C87.9933349,13.8906648 88.4226639,13.570668 88.972,13.304 C89.5213361,13.037332 90.2013293,12.904 91.012,12.904 C91.9933382,12.904 92.7053311,13.1226645 93.148,13.56 C93.5906689,13.9973355 93.812,14.7013285 93.812,15.672 L93.812,18.856 C93.812,19.1120013 93.8146666,19.335999 93.82,19.528 C93.8253334,19.720001 93.8359999,19.8986658 93.852,20.064 C93.8680001,20.2293342 93.8919998,20.3866659 93.924,20.536 C93.9560002,20.6853341 93.9986664,20.8399992 94.052,21 L92.74,21 Z M92.468,16.952 L90.58,17.256 C89.9293301,17.3733339 89.4680014,17.5493322 89.196,17.784 C88.9239986,18.0186678 88.788,18.3439979 88.788,18.76 C88.788,19.1866688 88.9133321,19.5439986 89.164,19.832 C89.4146679,20.1200014 89.7853309,20.264 90.276,20.264 C90.5746682,20.264 90.857332,20.2053339 91.124,20.088 C91.390668,19.9706661 91.6226657,19.808001 91.82,19.6 C92.0173343,19.391999 92.1746661,19.1413348 92.292,18.848 C92.4093339,18.5546652 92.468,18.2320018 92.468,17.88 L92.468,16.952 Z M96.58,21.944 C96.8893349,22.2426682 97.2599978,22.4799991 97.692,22.656 C98.1240022,22.8320009 98.5853309,22.92 99.076,22.92 C99.4813354,22.92 99.8119987,22.8586673 100.068,22.736 C100.324001,22.6133327 100.526666,22.4453344 100.676,22.232 C100.825334,22.0186656 100.929333,21.7760014 100.988,21.504 C101.046667,21.2319986 101.076,20.9413349 101.076,20.632 L101.076,19.176 C100.873332,19.6560024 100.569335,20.0426652 100.164,20.336 C99.7586646,20.6293348 99.2360032,20.776 98.596,20.776 C98.137331,20.776 97.7213352,20.6880009 97.348,20.512 C96.9746648,20.3359991 96.654668,20.0826683 96.388,19.752 C96.121332,19.4213317 95.9160007,19.0160024 95.772,18.536 C95.6279993,18.0559976 95.556,17.5173363 95.556,16.92 C95.556,16.3333304 95.6279993,15.7946691 95.772,15.304 C95.9160007,14.8133309 96.1239986,14.3920018 96.396,14.04 C96.6680014,13.6879982 96.9986647,13.4133343 97.388,13.216 C97.7773353,13.0186657 98.2119976,12.92 98.692,12.92 C99.3213365,12.92 99.8439979,13.0773318 100.26,13.392 C100.676002,13.7066682 100.974666,14.1093309 101.156,14.6 L101.38,13.128 L102.404,13.128 L102.404,20.6 C102.404,21.0480022 102.350667,21.471998 102.244,21.872 C102.137333,22.272002 101.956001,22.6266651 101.7,22.936 C101.443999,23.2453349 101.102669,23.4906658 100.676,23.672 C100.249331,23.8533342 99.7160032,23.944 99.076,23.944 C98.3826632,23.944 97.7613361,23.8453343 97.212,23.648 C96.6626639,23.4506657 96.2013352,23.2026682 95.828,22.904 L96.58,21.944 Z M101.076,16.92 C101.076,16.7386658 101.073333,16.5653342 101.068,16.4 C101.062667,16.2346658 101.049333,16.1093338 101.028,16.024 C100.985333,15.7679987 100.916,15.5173346 100.82,15.272 C100.724,15.0266654 100.593334,14.8133342 100.428,14.632 C100.262666,14.4506658 100.060001,14.3040006 99.82,14.192 C99.5799988,14.0799994 99.3000016,14.024 98.98,14.024 C98.6279982,14.024 98.3240013,14.0986659 98.068,14.248 C97.8119987,14.3973341 97.6013342,14.5999987 97.436,14.856 C97.2706658,15.1120013 97.1480004,15.4159982 97.068,15.768 C96.9879996,16.1200018 96.948,16.4933314 96.948,16.888 C96.948,17.2400018 96.985333,17.5893316 97.06,17.936 C97.134667,18.2826684 97.2519992,18.589332 97.412,18.856 C97.5720008,19.122668 97.7826654,19.3386658 98.044,19.504 C98.3053346,19.6693342 98.6226648,19.752 98.996,19.752 C99.5186693,19.752 99.9399984,19.6053348 100.26,19.312 C100.580002,19.0186652 100.803999,18.6480022 100.932,18.2 C100.985334,18.0506659 101.022667,17.8640011 101.044,17.64 C101.065333,17.4159989 101.076,17.2026677 101.076,17 L101.076,16.92 Z M105.46,17.368 C105.513334,18.2746712 105.745331,18.9759975 106.156,19.472 C106.566669,19.9680025 107.139996,20.216 107.876,20.216 C108.804005,20.216 109.502664,19.778671 109.972,18.904 L110.98,19.464 C110.670665,19.9866693 110.260003,20.4133317 109.748,20.744 C109.235997,21.0746683 108.590671,21.24 107.812,21.24 C107.19333,21.24 106.652002,21.1333344 106.188,20.92 C105.723998,20.7066656 105.337335,20.4133352 105.028,20.04 C104.718665,19.6666648 104.486667,19.2293358 104.332,18.728 C104.177333,18.2266642 104.1,17.6880029 104.1,17.112 C104.1,16.5466638 104.174666,16.0080026 104.324,15.496 C104.473334,14.9839974 104.699998,14.5360019 105.004,14.152 C105.308002,13.7679981 105.681331,13.4640011 106.124,13.24 C106.566669,13.0159989 107.086664,12.904 107.684,12.904 C108.260003,12.904 108.761331,13.0133322 109.188,13.232 C109.614669,13.4506678 109.969332,13.7439982 110.252,14.112 C110.534668,14.4800018 110.747999,14.9066642 110.892,15.392 C111.036001,15.8773358 111.108,16.3919973 111.108,16.936 C111.108,17.0533339 111.105333,17.1439997 111.1,17.208 C111.094667,17.2720003 111.092,17.3253331 111.092,17.368 L105.46,17.368 Z M107.668,13.912 C106.995997,13.912 106.476002,14.1519976 106.108,14.632 C105.739998,15.1120024 105.529334,15.7573293 105.476,16.568 L109.748,16.568 C109.748,16.2373317 109.710667,15.9146682 109.636,15.6 C109.561333,15.2853318 109.438668,15.0026679 109.268,14.752 C109.097332,14.5013321 108.881335,14.2986674 108.62,14.144 C108.358665,13.9893326 108.041335,13.912 107.668,13.912 Z" id="Send-message" fill="#FFFFFF"></path>
                        </g>
                        <rect id="Path" fill-opacity="0.5" fill="#495C6A" x="113" y="0" width="125" height="32" rx="3"></rect>
                        <g id="Group-Copy-5" transform="translate(0.000000, 48.000000)">
                            <g id="Panel">
                                <use fill="black" fill-opacity="1" filter="url(#filter-3)" xlink:href="#path-2"></use>
                                <use fill="#FFFFFF" fill-rule="evenodd" xlink:href="#path-2"></use>
                            </g>
                            <g id="X" transform="translate(320.000000, 16.000000)" fill="#4C5358">
                                <path d="M14.7926267,13.6175115 L13.6866359,14.7235023 C13.5483871,14.8617512 13.3410138,15 13.1336406,15 C12.9262673,15 12.718894,14.9308756 12.5806452,14.7235023 L0.276497696,2.41935484 C0.138248848,2.28110599 0,2.07373272 0,1.86635945 C0,1.65898618 0.138248848,1.52073733 0.276497696,1.38248848 L1.38248848,0.276497696 C1.52073733,0.069124424 1.7281106,0 1.93548387,0 C2.14285714,0 2.35023041,0.069124424 2.48847926,0.276497696 L14.7235023,12.5115207 C14.8617512,12.6497696 15,12.8571429 15,13.0645161 C15,13.2718894 14.9308756,13.4792627 14.7926267,13.6175115" id="Fill-1"></path>
                                <path d="M13.6238532,0.207373272 L14.7247706,1.38248848 C14.8623853,1.52073733 15,1.7281106 15,1.93548387 C14.9311927,2.21198157 14.8623853,2.35023041 14.7247706,2.48847926 L2.47706422,14.7235023 C2.33944954,14.8617512 2.13302752,15 1.9266055,15 C1.72018349,15 1.51376147,14.9308756 1.37614679,14.7235023 L0.275229358,13.6175115 C0.137614679,13.4792627 0,13.2718894 0,13.0645161 C0,12.8571429 0.0688073394,12.6497696 0.275229358,12.5115207 L12.5229358,0.276497696 C12.6605505,0.138248848 12.8669725,0 13.0733945,0 C13.2110092,0.069124424 13.4862385,0.069124424 13.6238532,0.207373272" id="Fill-3"></path>
                            </g>
                        </g>
                        <g id="Buttons/Button-Container" transform="translate(216.000000, 236.000000)">
                            <g id="Button-default">
                                <g id="Bg">
                                    <use fill="#0D78AA" fill-rule="evenodd" xlink:href="#path-4"></use>
                                    <rect stroke="#0D78AA" stroke-width="1" x="0.5" y="0.5" width="110" height="43" rx="3"></rect>
                                </g>
                                <path d="M39.976,24.928 C40.3066683,25.4186691 40.7546638,25.8159985 41.32,26.12 C41.8853362,26.4240015 42.5519962,26.576 43.32,26.576 C43.6826685,26.576 44.0213318,26.5280005 44.336,26.432 C44.6506682,26.3359995 44.9226655,26.1973342 45.152,26.016 C45.3813345,25.8346658 45.5599994,25.6133346 45.688,25.352 C45.8160006,25.0906654 45.88,24.8000016 45.88,24.48 C45.88,24.1493317 45.8026674,23.8720011 45.648,23.648 C45.4933326,23.4239989 45.282668,23.2346674 45.016,23.08 C44.749332,22.9253326 44.4320018,22.7893339 44.064,22.672 C43.6959982,22.5546661 43.2986688,22.4373339 42.872,22.32 C42.3919976,22.1813326 41.9466687,22.0266675 41.536,21.856 C41.1253313,21.6853325 40.7706682,21.4746679 40.472,21.224 C40.1733318,20.9733321 39.9386675,20.6800017 39.768,20.344 C39.5973325,20.0079983 39.512,19.6053357 39.512,19.136 C39.512,18.6559976 39.6053324,18.2240019 39.792,17.84 C39.9786676,17.4559981 40.242665,17.1280014 40.584,16.856 C40.925335,16.5839986 41.3279977,16.3733341 41.792,16.224 C42.2560023,16.0746659 42.7706638,16 43.336,16 C44.1146706,16 44.8346634,16.1306654 45.496,16.392 C46.1573366,16.6533346 46.7226643,17.0399974 47.192,17.552 L46.216,18.464 C45.874665,18.0906648 45.4560025,17.7866678 44.96,17.552 C44.4639975,17.3173322 43.9173363,17.2 43.32,17.2 C42.6373299,17.2 42.0800022,17.3466652 41.648,17.64 C41.2159978,17.9333348 41,18.3786637 41,18.976 C41,19.2746682 41.066666,19.5306656 41.2,19.744 C41.333334,19.9573344 41.5199988,20.1439992 41.76,20.304 C42.0000012,20.4640008 42.282665,20.6053327 42.608,20.728 C42.933335,20.8506673 43.2933314,20.9653328 43.688,21.072 C44.2746696,21.2320008 44.797331,21.4053324 45.256,21.592 C45.714669,21.7786676 46.0986651,21.9999987 46.408,22.256 C46.7173349,22.5120013 46.9519992,22.8079983 47.112,23.144 C47.2720008,23.4800017 47.352,23.8719978 47.352,24.32 C47.352,24.8640027 47.2453344,25.3519978 47.032,25.784 C46.8186656,26.2160022 46.5280018,26.5786652 46.16,26.872 C45.7919982,27.1653348 45.3600025,27.3893326 44.864,27.544 C44.3679975,27.6986674 43.8426694,27.776 43.288,27.776 C42.2639949,27.776 41.4000035,27.613335 40.696,27.288 C39.9919965,26.962665 39.4266688,26.496003 39,25.888 L39.976,24.928 Z M50.024,23.904 C50.0773336,24.8106712 50.3093313,25.5119975 50.72,26.008 C51.1306687,26.5040025 51.7039963,26.752 52.44,26.752 C53.3680046,26.752 54.0666643,26.314671 54.536,25.44 L55.544,26 C55.2346651,26.5226693 54.8240026,26.9493317 54.312,27.28 C53.7999974,27.6106683 53.1546706,27.776 52.376,27.776 C51.7573302,27.776 51.2160023,27.6693344 50.752,27.456 C50.2879977,27.2426656 49.9013349,26.9493352 49.592,26.576 C49.2826651,26.2026648 49.0506674,25.7653358 48.896,25.264 C48.7413326,24.7626642 48.664,24.2240029 48.664,23.648 C48.664,23.0826638 48.7386659,22.5440026 48.888,22.032 C49.0373341,21.5199974 49.2639985,21.0720019 49.568,20.688 C49.8720015,20.3039981 50.2453311,20.0000011 50.688,19.776 C51.1306689,19.5519989 51.6506637,19.44 52.248,19.44 C52.8240029,19.44 53.3253312,19.5493322 53.752,19.768 C54.1786688,19.9866678 54.5333319,20.2799982 54.816,20.648 C55.0986681,21.0160018 55.3119993,21.4426642 55.456,21.928 C55.6000007,22.4133358 55.672,22.9279973 55.672,23.472 C55.672,23.5893339 55.6693334,23.6799997 55.664,23.744 C55.6586666,23.8080003 55.656,23.8613331 55.656,23.904 L50.024,23.904 Z M52.232,20.448 C51.5599966,20.448 51.0400018,20.6879976 50.672,21.168 C50.3039982,21.6480024 50.0933336,22.2933293 50.04,23.104 L54.312,23.104 C54.312,22.7733317 54.274667,22.4506682 54.2,22.136 C54.125333,21.8213318 54.0026675,21.5386679 53.832,21.288 C53.6613325,21.0373321 53.4453346,20.8346674 53.184,20.68 C52.9226654,20.5253326 52.6053352,20.448 52.232,20.448 Z M57.288,19.664 L58.44,19.664 L58.584,21.232 C58.7866677,20.7519976 59.1093311,20.3333351 59.552,19.976 C59.9946689,19.6186649 60.5413301,19.44 61.192,19.44 C62.0133374,19.44 62.6186647,19.7013307 63.008,20.224 C63.3973353,20.7466693 63.592,21.4773286 63.592,22.416 L63.592,27.536 L62.264,27.536 L62.264,22.688 C62.264,21.9733298 62.1200014,21.4480017 61.832,21.112 C61.5439986,20.7759983 61.1546691,20.608 60.664,20.608 C60.0773304,20.608 59.5893353,20.8479976 59.2,21.328 C58.8106647,21.8080024 58.616,22.485329 58.616,23.36 L58.616,27.536 L57.288,27.536 L57.288,19.664 Z M70.904,26 C70.6906656,26.533336 70.3760021,26.9546651 69.96,27.264 C69.5439979,27.5733349 69.0266698,27.728 68.408,27.728 C67.9173309,27.728 67.4773353,27.6266677 67.088,27.424 C66.6986647,27.2213323 66.3680014,26.9386685 66.096,26.576 C65.8239986,26.2133315 65.6160007,25.7760026 65.472,25.264 C65.3279993,24.7519974 65.256,24.1866698 65.256,23.568 C65.256,22.9279968 65.3306659,22.3546692 65.48,21.848 C65.6293341,21.3413308 65.8426653,20.9120018 66.12,20.56 C66.3973347,20.2079982 66.7306647,19.936001 67.12,19.744 C67.5093353,19.551999 67.9386643,19.456 68.408,19.456 C69.0480032,19.456 69.5706646,19.6079985 69.976,19.912 C70.3813354,20.2160015 70.6693325,20.5813312 70.84,21.008 L70.84,16.24 L72.184,16.24 L72.184,27.536 L70.904,27.536 L70.904,26 Z M70.84,23.552 C70.84,23.2213317 70.8320001,22.9626676 70.816,22.776 C70.7999999,22.5893324 70.7813334,22.4373339 70.76,22.32 C70.7066664,22.0853322 70.6266672,21.8613344 70.52,21.648 C70.4133328,21.4346656 70.2773342,21.2453342 70.112,21.08 C69.9466658,20.9146658 69.7520011,20.7840005 69.528,20.688 C69.3039989,20.5919995 69.0480014,20.544 68.76,20.544 C68.3973315,20.544 68.0853346,20.6239992 67.824,20.784 C67.5626654,20.9440008 67.3440009,21.1599986 67.168,21.432 C66.9919991,21.7040014 66.8613338,22.0239982 66.776,22.392 C66.6906662,22.7600018 66.648,23.1519979 66.648,23.568 C66.648,24.0160022 66.6959995,24.4293314 66.792,24.808 C66.8880005,25.1866686 67.0266658,25.5119986 67.208,25.784 C67.3893342,26.0560014 67.613332,26.2693326 67.88,26.424 C68.146668,26.5786674 68.450665,26.656 68.792,26.656 C69.058668,26.656 69.3013322,26.6080005 69.52,26.512 C69.7386678,26.4159995 69.9306658,26.2826675 70.096,26.112 C70.2613342,25.9413325 70.3973328,25.7466678 70.504,25.528 C70.6106672,25.3093322 70.6906664,25.0773346 70.744,24.832 C70.8080003,24.5333318 70.84,24.1333358 70.84,23.632 L70.84,23.552 Z" id="Send" fill="#FFFFFF"></path>
                            </g>
                        </g>
                        <path d="M26.09,84.414 C26.5446689,85.08867 27.1606628,85.6349979 27.938,86.053 C28.7153372,86.4710021 29.6319947,86.68 30.688,86.68 C31.1866692,86.68 31.6523312,86.6140007 32.085,86.482 C32.5176688,86.3499993 32.8916651,86.1593346 33.207,85.91 C33.5223349,85.6606654 33.7679991,85.3563351 33.944,84.997 C34.1200009,84.6376649 34.208,84.2380022 34.208,83.798 C34.208,83.3433311 34.1016677,82.9620015 33.889,82.654 C33.6763323,82.3459985 33.3866685,82.0856677 33.02,81.873 C32.6533315,81.6603323 32.2170025,81.4733341 31.711,81.312 C31.2049975,81.1506659 30.6586696,80.9893341 30.072,80.828 C29.4119967,80.6373324 28.7996695,80.4246678 28.235,80.19 C27.6703305,79.9553322 27.1826687,79.6656684 26.772,79.321 C26.3613313,78.9763316 26.0386678,78.5730023 25.804,78.111 C25.5693322,77.6489977 25.452,77.0953366 25.452,76.45 C25.452,75.7899967 25.580332,75.1960026 25.837,74.668 C26.093668,74.1399974 26.4566643,73.6890019 26.926,73.315 C27.3953357,72.9409981 27.9489968,72.6513344 28.587,72.446 C29.2250032,72.2406656 29.9326628,72.138 30.71,72.138 C31.780672,72.138 32.7706621,72.3176649 33.68,72.677 C34.5893379,73.0363351 35.3666634,73.5679965 36.012,74.272 L34.67,75.526 C34.2006643,75.0126641 33.6250034,74.5946683 32.943,74.272 C32.2609966,73.9493317 31.5093374,73.788 30.688,73.788 C29.7493286,73.788 28.983003,73.9896646 28.389,74.393 C27.794997,74.7963353 27.498,75.4086626 27.498,76.23 C27.498,76.6406687 27.5896657,76.9926652 27.773,77.286 C27.9563343,77.5793348 28.2129983,77.8359989 28.543,78.056 C28.8730016,78.2760011 29.2616644,78.4703325 29.709,78.639 C30.1563356,78.8076675 30.6513306,78.9653326 31.194,79.112 C32.0006707,79.3320011 32.7193302,79.570332 33.35,79.827 C33.9806698,80.0836679 34.5086645,80.3879982 34.934,80.74 C35.3593355,81.0920018 35.6819989,81.4989977 35.902,81.961 C36.1220011,82.4230023 36.232,82.9619969 36.232,83.578 C36.232,84.3260037 36.0853348,84.996997 35.792,85.591 C35.4986652,86.185003 35.0990025,86.6836646 34.593,87.087 C34.0869975,87.4903353 33.4930034,87.7983323 32.811,88.011 C32.1289966,88.2236677 31.4066705,88.33 30.644,88.33 C29.235993,88.33 28.0480048,88.1063356 27.08,87.659 C26.1119952,87.2116644 25.3346696,86.5700042 24.748,85.734 L26.09,84.414 Z M39.906,83.006 C39.9793337,84.2526729 40.2983305,85.2169966 40.863,85.899 C41.4276695,86.5810034 42.2159949,86.922 43.228,86.922 C44.5040064,86.922 45.4646634,86.3206727 46.11,85.118 L47.496,85.888 C47.0706645,86.6066703 46.5060035,87.1933311 45.802,87.648 C45.0979965,88.1026689 44.210672,88.33 43.14,88.33 C42.2893291,88.33 41.5450032,88.1833348 40.907,87.89 C40.2689968,87.5966652 39.7373355,87.1933359 39.312,86.68 C38.8866645,86.1666641 38.5676677,85.5653368 38.355,84.876 C38.1423323,84.1866632 38.036,83.446004 38.036,82.654 C38.036,81.8766628 38.1386656,81.1360035 38.344,80.432 C38.5493344,79.7279965 38.8609979,79.1120026 39.279,78.584 C39.6970021,78.0559974 40.2103303,77.6380015 40.819,77.33 C41.4276697,77.0219985 42.1426626,76.868 42.964,76.868 C43.756004,76.868 44.4453304,77.0183318 45.032,77.319 C45.6186696,77.6196682 46.1063314,78.0229975 46.495,78.529 C46.8836686,79.0350025 47.176999,79.6216633 47.375,80.289 C47.573001,80.9563367 47.672,81.6639963 47.672,82.412 C47.672,82.5733341 47.6683334,82.6979996 47.661,82.786 C47.6536666,82.8740004 47.65,82.947333 47.65,83.006 L39.906,83.006 Z M42.942,78.254 C42.0179954,78.254 41.3030025,78.5839967 40.797,79.244 C40.2909975,79.9040033 40.0013337,80.7913278 39.928,81.906 L45.802,81.906 C45.802,81.4513311 45.7506672,81.0076688 45.648,80.575 C45.5453328,80.1423312 45.3766678,79.7536684 45.142,79.409 C44.9073322,79.0643316 44.6103351,78.7856677 44.251,78.573 C43.8916649,78.3603323 43.4553359,78.254 42.942,78.254 Z M49.894,77.176 L51.478,77.176 L51.676,79.332 C51.9546681,78.6719967 52.3983303,78.0963358 53.007,77.605 C53.6156697,77.1136642 54.3673289,76.868 55.262,76.868 C56.391339,76.868 57.223664,77.2273297 57.759,77.946 C58.294336,78.6646703 58.562,79.6693269 58.562,80.96 L58.562,88 L56.736,88 L56.736,81.334 C56.736,80.3513284 56.538002,79.6290023 56.142,79.167 C55.745998,78.7049977 55.21067,78.474 54.536,78.474 C53.7293293,78.474 53.058336,78.8039967 52.523,79.464 C51.987664,80.1240033 51.72,81.0553273 51.72,82.258 L51.72,88 L49.894,88 L49.894,77.176 Z M68.616,85.888 C68.3226652,86.621337 67.8900029,87.2006645 67.318,87.626 C66.7459971,88.0513355 66.0346709,88.264 65.184,88.264 C64.50933,88.264 63.904336,88.1246681 63.369,87.846 C62.833664,87.5673319 62.3790019,87.1786692 62.005,86.68 C61.6309981,86.1813308 61.345001,85.5800035 61.147,84.876 C60.948999,84.1719965 60.85,83.3946709 60.85,82.544 C60.85,81.6639956 60.9526656,80.8756701 61.158,80.179 C61.3633344,79.4823298 61.6566648,78.8920024 62.038,78.408 C62.4193352,77.9239976 62.877664,77.5500013 63.413,77.286 C63.948336,77.0219987 64.5386634,76.89 65.184,76.89 C66.0640044,76.89 66.7826639,77.0989979 67.34,77.517 C67.8973361,77.9350021 68.2933322,78.4373304 68.528,79.024 L68.528,72.468 L70.376,72.468 L70.376,88 L68.616,88 L68.616,85.888 Z M68.528,82.522 C68.528,82.0673311 68.5170001,81.7116679 68.495,81.455 C68.4729999,81.198332 68.4473335,80.9893341 68.418,80.828 C68.3446663,80.5053317 68.2346674,80.1973348 68.088,79.904 C67.9413326,79.6106652 67.7543345,79.3503345 67.527,79.123 C67.2996655,78.8956655 67.0320015,78.7160007 66.724,78.584 C66.4159985,78.4519993 66.064002,78.386 65.668,78.386 C65.1693308,78.386 64.7403351,78.4959989 64.381,78.716 C64.0216649,78.9360011 63.7210012,79.2329981 63.479,79.607 C63.2369988,79.9810019 63.0573339,80.4209975 62.94,80.927 C62.8226661,81.4330025 62.764,81.9719971 62.764,82.544 C62.764,83.1600031 62.8299993,83.7283307 62.962,84.249 C63.0940007,84.7696693 63.2846654,85.2169981 63.534,85.591 C63.7833346,85.9650019 64.0913315,86.2583323 64.458,86.471 C64.8246685,86.6836677 65.2426643,86.79 65.712,86.79 C66.0786685,86.79 66.4123318,86.7240007 66.713,86.592 C67.0136682,86.4599993 67.2776655,86.2766678 67.505,86.042 C67.7323345,85.8073322 67.9193326,85.5396682 68.066,85.239 C68.2126674,84.9383318 68.3226663,84.619335 68.396,84.282 C68.4840004,83.8713313 68.528,83.3213368 68.528,82.632 L68.528,82.522 Z M78.12,77.176 L79.704,77.176 L79.902,79.288 C80.1660013,78.5399963 80.5766639,77.9496688 81.134,77.517 C81.6913361,77.0843312 82.3733293,76.868 83.18,76.868 C84.0306709,76.868 84.6979976,77.1099976 85.182,77.594 C85.6660024,78.0780024 85.9739993,78.6646632 86.106,79.354 C86.2380007,79.016665 86.402999,78.6976682 86.601,78.397 C86.799001,78.0963318 87.0373319,77.8323345 87.316,77.605 C87.5946681,77.3776655 87.9173315,77.1980007 88.284,77.066 C88.6506685,76.9339993 89.0686643,76.868 89.538,76.868 C90.1540031,76.868 90.6636647,76.9743323 91.067,77.187 C91.4703353,77.3996677 91.7929988,77.6893315 92.035,78.056 C92.2770012,78.4226685 92.4493328,78.8516642 92.552,79.343 C92.6546672,79.8343358 92.706,80.3513306 92.706,80.894 L92.706,88 L90.88,88 L90.88,81.356 C90.88,80.3879952 90.7076684,79.665669 90.363,79.189 C90.0183316,78.7123309 89.5160033,78.474 88.856,78.474 C88.1373297,78.474 87.5360024,78.7929968 87.052,79.431 C86.5679976,80.0690032 86.326,80.9819941 86.326,82.17 L86.326,88 L84.5,88 L84.5,81.444 C84.5,80.4319949 84.3240018,79.6840024 83.972,79.2 C83.6199982,78.7159976 83.1286698,78.474 82.498,78.474 C81.7939965,78.474 81.1926692,78.8003301 80.694,79.453 C80.1953308,80.1056699 79.946,81.0479938 79.946,82.28 L79.946,88 L78.12,88 L78.12,77.176 Z M96.864,83.006 C96.9373337,84.2526729 97.2563305,85.2169966 97.821,85.899 C98.3856695,86.5810034 99.1739949,86.922 100.186,86.922 C101.462006,86.922 102.422663,86.3206727 103.068,85.118 L104.454,85.888 C104.028665,86.6066703 103.464004,87.1933311 102.76,87.648 C102.055996,88.1026689 101.168672,88.33 100.098,88.33 C99.2473291,88.33 98.5030032,88.1833348 97.865,87.89 C97.2269968,87.5966652 96.6953355,87.1933359 96.27,86.68 C95.8446645,86.1666641 95.5256677,85.5653368 95.313,84.876 C95.1003323,84.1866632 94.994,83.446004 94.994,82.654 C94.994,81.8766628 95.0966656,81.1360035 95.302,80.432 C95.5073344,79.7279965 95.8189979,79.1120026 96.237,78.584 C96.6550021,78.0559974 97.1683303,77.6380015 97.777,77.33 C98.3856697,77.0219985 99.1006626,76.868 99.922,76.868 C100.714004,76.868 101.40333,77.0183318 101.99,77.319 C102.57667,77.6196682 103.064331,78.0229975 103.453,78.529 C103.841669,79.0350025 104.134999,79.6216633 104.333,80.289 C104.531001,80.9563367 104.63,81.6639963 104.63,82.412 C104.63,82.5733341 104.626333,82.6979996 104.619,82.786 C104.611667,82.8740004 104.608,82.947333 104.608,83.006 L96.864,83.006 Z M99.9,78.254 C98.9759954,78.254 98.2610025,78.5839967 97.755,79.244 C97.2489975,79.9040033 96.9593337,80.7913278 96.886,81.906 L102.76,81.906 C102.76,81.4513311 102.708667,81.0076688 102.606,80.575 C102.503333,80.1423312 102.334668,79.7536684 102.1,79.409 C101.865332,79.0643316 101.568335,78.7856677 101.209,78.573 C100.849665,78.3603323 100.413336,78.254 99.9,78.254 Z M107.05,85.338 C107.416668,85.8073357 107.889664,86.1959985 108.469,86.504 C109.048336,86.8120015 109.682663,86.966 110.372,86.966 C110.988003,86.966 111.523331,86.8193348 111.978,86.526 C112.432669,86.2326652 112.66,85.7926696 112.66,85.206 C112.66,84.7513311 112.509668,84.3956679 112.209,84.139 C111.908332,83.882332 111.534336,83.6660009 111.087,83.49 C110.639664,83.3139991 110.152003,83.1526674 109.624,83.006 C109.095997,82.8593326 108.608336,82.6686678 108.161,82.434 C107.713664,82.1993322 107.339668,81.8913352 107.039,81.51 C106.738332,81.1286648 106.588,80.6080033 106.588,79.948 C106.588,79.4053306 106.697999,78.9396686 106.918,78.551 C107.138001,78.1623314 107.427665,77.8433346 107.787,77.594 C108.146335,77.3446654 108.560664,77.1613339 109.03,77.044 C109.499336,76.9266661 109.990664,76.868 110.504,76.868 C112.029341,76.868 113.297995,77.3079956 114.31,78.188 L113.386,79.42 C113.063332,79.082665 112.634336,78.8003345 112.099,78.573 C111.563664,78.3456655 111.010003,78.232 110.438,78.232 C110.188665,78.232 109.943001,78.261333 109.701,78.32 C109.458999,78.378667 109.246334,78.4703327 109.063,78.595 C108.879666,78.7196673 108.733001,78.8773324 108.623,79.068 C108.512999,79.2586676 108.458,79.4933319 108.458,79.772 C108.458,80.1973355 108.608332,80.5273322 108.909,80.762 C109.209668,80.9966678 109.583664,81.1983325 110.031,81.367 C110.478336,81.5356675 110.962331,81.6969992 111.483,81.851 C112.003669,82.0050008 112.487664,82.2029988 112.935,82.445 C113.382336,82.6870012 113.756332,83.005998 114.057,83.402 C114.357668,83.798002 114.508,84.3259967 114.508,84.986 C114.508,85.5433361 114.394334,86.0309979 114.167,86.449 C113.939666,86.8670021 113.639002,87.2153319 113.265,87.494 C112.890998,87.7726681 112.458336,87.981666 111.967,88.121 C111.475664,88.260334 110.966003,88.33 110.438,88.33 C108.619324,88.33 107.174672,87.7433392 106.104,86.57 L107.05,85.338 Z M116.84,85.338 C117.206668,85.8073357 117.679664,86.1959985 118.259,86.504 C118.838336,86.8120015 119.472663,86.966 120.162,86.966 C120.778003,86.966 121.313331,86.8193348 121.768,86.526 C122.222669,86.2326652 122.45,85.7926696 122.45,85.206 C122.45,84.7513311 122.299668,84.3956679 121.999,84.139 C121.698332,83.882332 121.324336,83.6660009 120.877,83.49 C120.429664,83.3139991 119.942003,83.1526674 119.414,83.006 C118.885997,82.8593326 118.398336,82.6686678 117.951,82.434 C117.503664,82.1993322 117.129668,81.8913352 116.829,81.51 C116.528332,81.1286648 116.378,80.6080033 116.378,79.948 C116.378,79.4053306 116.487999,78.9396686 116.708,78.551 C116.928001,78.1623314 117.217665,77.8433346 117.577,77.594 C117.936335,77.3446654 118.350664,77.1613339 118.82,77.044 C119.289336,76.9266661 119.780664,76.868 120.294,76.868 C121.819341,76.868 123.087995,77.3079956 124.1,78.188 L123.176,79.42 C122.853332,79.082665 122.424336,78.8003345 121.889,78.573 C121.353664,78.3456655 120.800003,78.232 120.228,78.232 C119.978665,78.232 119.733001,78.261333 119.491,78.32 C119.248999,78.378667 119.036334,78.4703327 118.853,78.595 C118.669666,78.7196673 118.523001,78.8773324 118.413,79.068 C118.302999,79.2586676 118.248,79.4933319 118.248,79.772 C118.248,80.1973355 118.398332,80.5273322 118.699,80.762 C118.999668,80.9966678 119.373664,81.1983325 119.821,81.367 C120.268336,81.5356675 120.752331,81.6969992 121.273,81.851 C121.793669,82.0050008 122.277664,82.2029988 122.725,82.445 C123.172336,82.6870012 123.546332,83.005998 123.847,83.402 C124.147668,83.798002 124.298,84.3259967 124.298,84.986 C124.298,85.5433361 124.184334,86.0309979 123.957,86.449 C123.729666,86.8670021 123.429002,87.2153319 123.055,87.494 C122.680998,87.7726681 122.248336,87.981666 121.757,88.121 C121.265664,88.260334 120.756003,88.33 120.228,88.33 C118.409324,88.33 116.964672,87.7433392 115.894,86.57 L116.84,85.338 Z M133.23,88 C133.068666,87.4719974 132.973333,86.841337 132.944,86.108 C132.650665,86.78267 132.19967,87.3216646 131.591,87.725 C130.98233,88.1283353 130.260004,88.33 129.424,88.33 C128.367995,88.33 127.532003,88.0293363 126.916,87.428 C126.299997,86.8266637 125.992,86.0200051 125.992,85.008 C125.992,84.4359971 126.094666,83.9556686 126.3,83.567 C126.505334,83.1783314 126.791331,82.8556679 127.158,82.599 C127.524669,82.342332 127.957331,82.1406674 128.456,81.994 C128.954669,81.8473326 129.49733,81.7300004 130.084,81.642 L132.856,81.224 L132.856,80.542 C132.856,80.0579976 132.797334,79.6693348 132.68,79.376 C132.562666,79.0826652 132.401334,78.8553341 132.196,78.694 C131.990666,78.5326659 131.756001,78.4263336 131.492,78.375 C131.227999,78.3236664 130.949335,78.298 130.656,78.298 C129.819996,78.298 129.130669,78.4519985 128.588,78.76 C128.045331,79.0680015 127.590669,79.4566643 127.224,79.926 L126.278,78.738 C126.703335,78.2246641 127.293663,77.7846685 128.049,77.418 C128.804337,77.0513315 129.739328,76.868 130.854,76.868 C132.20334,76.868 133.18233,77.1686637 133.791,77.77 C134.39967,78.3713363 134.704,79.3393267 134.704,80.674 L134.704,85.052 C134.704,85.4040018 134.707667,85.7119987 134.715,85.976 C134.722333,86.2400013 134.737,86.4856655 134.759,86.713 C134.781,86.9403345 134.814,87.1566656 134.858,87.362 C134.902,87.5673344 134.960666,87.7799989 135.034,88 L133.23,88 Z M132.856,82.434 L130.26,82.852 C129.365329,83.0133341 128.731002,83.2553317 128.357,83.578 C127.982998,83.9006683 127.796,84.3479971 127.796,84.92 C127.796,85.5066696 127.968332,85.997998 128.313,86.394 C128.657668,86.790002 129.16733,86.988 129.842,86.988 C130.252669,86.988 130.641332,86.9073341 131.008,86.746 C131.374669,86.5846659 131.693665,86.3610014 131.965,86.075 C132.236335,85.7889986 132.452666,85.4443353 132.614,85.041 C132.775334,84.6376646 132.856,84.1940024 132.856,83.71 L132.856,82.434 Z M138.51,89.298 C138.935335,89.7086687 139.444997,90.0349988 140.039,90.277 C140.633003,90.5190012 141.26733,90.64 141.942,90.64 C142.499336,90.64 142.953998,90.5556675 143.306,90.387 C143.658002,90.2183325 143.936666,89.9873348 144.142,89.694 C144.347334,89.4006652 144.490333,89.0670019 144.571,88.693 C144.651667,88.3189981 144.692,87.9193355 144.692,87.494 L144.692,85.492 C144.413332,86.1520033 143.995336,86.6836646 143.438,87.087 C142.880664,87.4903353 142.162004,87.692 141.282,87.692 C140.65133,87.692 140.079336,87.5710012 139.566,87.329 C139.052664,87.0869988 138.612669,86.7386689 138.246,86.284 C137.879332,85.8293311 137.597001,85.2720033 137.399,84.612 C137.200999,83.9519967 137.102,83.2113374 137.102,82.39 C137.102,81.5833293 137.200999,80.84267 137.399,80.168 C137.597001,79.49333 137.882998,78.9140024 138.257,78.43 C138.631002,77.9459976 139.085664,77.5683347 139.621,77.297 C140.156336,77.0256653 140.753997,76.89 141.414,76.89 C142.279338,76.89 142.997997,77.1063312 143.57,77.539 C144.142003,77.9716688 144.552665,78.52533 144.802,79.2 L145.11,77.176 L146.518,77.176 L146.518,87.45 C146.518,88.0660031 146.444667,88.6489972 146.298,89.199 C146.151333,89.7490027 145.902002,90.2366645 145.55,90.662 C145.197998,91.0873355 144.72867,91.4246654 144.142,91.674 C143.55533,91.9233346 142.822004,92.048 141.942,92.048 C140.988662,92.048 140.134337,91.9123347 139.379,91.641 C138.623663,91.3696653 137.989336,91.0286687 137.476,90.618 L138.51,89.298 Z M144.692,82.39 C144.692,82.1406654 144.688333,81.9023345 144.681,81.675 C144.673667,81.4476655 144.655333,81.2753339 144.626,81.158 C144.567333,80.8059982 144.472001,80.461335 144.34,80.124 C144.207999,79.786665 144.028334,79.4933346 143.801,79.244 C143.573666,78.9946654 143.295002,78.7930008 142.965,78.639 C142.634998,78.4849992 142.250002,78.408 141.81,78.408 C141.325998,78.408 140.908002,78.5106656 140.556,78.716 C140.203998,78.9213344 139.914334,79.1999982 139.687,79.552 C139.459666,79.9040018 139.291001,80.3219976 139.181,80.806 C139.070999,81.2900024 139.016,81.8033306 139.016,82.346 C139.016,82.8300024 139.067333,83.3103309 139.17,83.787 C139.272667,84.263669 139.433999,84.6853315 139.654,85.052 C139.874001,85.4186685 140.163665,85.7156655 140.523,85.943 C140.882335,86.1703345 141.318664,86.284 141.832,86.284 C142.55067,86.284 143.129998,86.0823353 143.57,85.679 C144.010002,85.2756646 144.317999,84.7660031 144.494,84.15 C144.567334,83.9446656 144.618667,83.6880015 144.648,83.38 C144.677333,83.0719985 144.692,82.7786681 144.692,82.5 L144.692,82.39 Z M150.72,83.006 C150.793334,84.2526729 151.112331,85.2169966 151.677,85.899 C152.241669,86.5810034 153.029995,86.922 154.042,86.922 C155.318006,86.922 156.278663,86.3206727 156.924,85.118 L158.31,85.888 C157.884665,86.6066703 157.320004,87.1933311 156.616,87.648 C155.911996,88.1026689 155.024672,88.33 153.954,88.33 C153.103329,88.33 152.359003,88.1833348 151.721,87.89 C151.082997,87.5966652 150.551335,87.1933359 150.126,86.68 C149.700665,86.1666641 149.381668,85.5653368 149.169,84.876 C148.956332,84.1866632 148.85,83.446004 148.85,82.654 C148.85,81.8766628 148.952666,81.1360035 149.158,80.432 C149.363334,79.7279965 149.674998,79.1120026 150.093,78.584 C150.511002,78.0559974 151.02433,77.6380015 151.633,77.33 C152.24167,77.0219985 152.956663,76.868 153.778,76.868 C154.570004,76.868 155.25933,77.0183318 155.846,77.319 C156.43267,77.6196682 156.920331,78.0229975 157.309,78.529 C157.697669,79.0350025 157.990999,79.6216633 158.189,80.289 C158.387001,80.9563367 158.486,81.6639963 158.486,82.412 C158.486,82.5733341 158.482333,82.6979996 158.475,82.786 C158.467667,82.8740004 158.464,82.947333 158.464,83.006 L150.72,83.006 Z M153.756,78.254 C152.831995,78.254 152.117003,78.5839967 151.611,79.244 C151.104997,79.9040033 150.815334,80.7913278 150.742,81.906 L156.616,81.906 C156.616,81.4513311 156.564667,81.0076688 156.462,80.575 C156.359333,80.1423312 156.190668,79.7536684 155.956,79.409 C155.721332,79.0643316 155.424335,78.7856677 155.065,78.573 C154.705665,78.3603323 154.269336,78.254 153.756,78.254 Z" fill="#000000"></path>
                        <g id="Text-area" transform="translate(24.000000, 117.000000)">
                            <path d="M0.986885246,55.5 L301.400372,55.5" id="Line-Copy" stroke="#0D78AA" stroke-linecap="square"></path>
                            <rect id="Rectangle-2-Copy-9" fill="#D8D8D8" x="1" y="37" width="300" height="4" rx="2"></rect>
                            <rect id="Rectangle-2-Copy-29" fill="#D8D8D8" x="232.465574" y="68" width="69.5409836" height="4" rx="2"></rect>
                            <rect id="Rectangle-2-Copy-26" fill="#D8D8D8" x="1" y="18" width="300" height="4" rx="2"></rect>
                            <rect id="Rectangle-2-Copy-28" fill="#D8D8D8" x="1" y="0" width="300" height="4" rx="2"></rect>
                        </g>
                    </g>
                </g>
            </g>
        </g>
    </g>
</svg>