<?xml version="1.0" encoding="UTF-8"?>
<svg width="371px" height="276px" viewBox="0 0 371 276" version="1.1" xmlns="http://www.w3.org/2000/svg" xmlns:xlink="http://www.w3.org/1999/xlink">
    <!-- Generator: Sketch 47 (45396) - http://www.bohemiancoding.com/sketch -->
    <title>Uncluttered</title>
    <desc>Created with Sketch.</desc>
    <defs>
        <rect id="path-1" x="0" y="0" width="351" height="256"></rect>
        <filter x="-5.0%" y="-4.9%" width="110.0%" height="113.7%" filterUnits="objectBoundingBox" id="filter-2">
            <feOffset dx="0" dy="5" in="SourceAlpha" result="shadowOffsetOuter1"></feOffset>
            <feGaussianBlur stdDeviation="5" in="shadowOffsetOuter1" result="shadowBlurOuter1"></feGaussianBlur>
            <feColorMatrix values="0 0 0 0 0   0 0 0 0 0   0 0 0 0 0  0 0 0 0.3 0" type="matrix" in="shadowBlurOuter1"></feColorMatrix>
        </filter>
        <rect id="path-3" x="0" y="0" width="111" height="44" rx="3"></rect>
    </defs>
    <g id="Page-1" stroke="none" stroke-width="1" fill="none" fill-rule="evenodd">
        <g id="Buttons-Usage-extra-large-1200" transform="translate(-325.000000, -3516.000000)">
            <g id="Group-12" transform="translate(303.000000, 3475.000000)">
                <g id="Uncluttered" transform="translate(32.000000, 46.000000)">
                    <g id="Send-message">
                        <g id="Group-Copy-5">
                            <g id="Panel">
                                <use fill="black" fill-opacity="1" filter="url(#filter-2)" xlink:href="#path-1"></use>
                                <use fill="#FFFFFF" fill-rule="evenodd" xlink:href="#path-1"></use>
                            </g>
                            <rect id="Rectangle-2-Copy-39" fill="#4C5358" x="24" y="24" width="118" height="8" rx="4"></rect>
                            <g id="X" transform="translate(320.000000, 16.000000)" fill="#4C5358">
                                <path d="M14.7926267,13.6175115 L13.6866359,14.7235023 C13.5483871,14.8617512 13.3410138,15 13.1336406,15 C12.9262673,15 12.718894,14.9308756 12.5806452,14.7235023 L0.276497696,2.41935484 C0.138248848,2.28110599 0,2.07373272 0,1.86635945 C0,1.65898618 0.138248848,1.52073733 0.276497696,1.38248848 L1.38248848,0.276497696 C1.52073733,0.069124424 1.7281106,0 1.93548387,0 C2.14285714,0 2.35023041,0.069124424 2.48847926,0.276497696 L14.7235023,12.5115207 C14.8617512,12.6497696 15,12.8571429 15,13.0645161 C15,13.2718894 14.9308756,13.4792627 14.7926267,13.6175115" id="Fill-1"></path>
                                <path d="M13.6238532,0.207373272 L14.7247706,1.38248848 C14.8623853,1.52073733 15,1.7281106 15,1.93548387 C14.9311927,2.21198157 14.8623853,2.35023041 14.7247706,2.48847926 L2.47706422,14.7235023 C2.33944954,14.8617512 2.13302752,15 1.9266055,15 C1.72018349,15 1.51376147,14.9308756 1.37614679,14.7235023 L0.275229358,13.6175115 C0.137614679,13.4792627 0,13.2718894 0,13.0645161 C0,12.8571429 0.0688073394,12.6497696 0.275229358,12.5115207 L12.5229358,0.276497696 C12.6605505,0.138248848 12.8669725,0 13.0733945,0 C13.2110092,0.069124424 13.4862385,0.069124424 13.6238532,0.207373272" id="Fill-3"></path>
                            </g>
                        </g>
                        <g id="Buttons/Button-Container" transform="translate(216.000000, 188.000000)">
                            <g id="Button-default">
                                <g id="Bg">
                                    <use fill="#0D78AA" fill-rule="evenodd" xlink:href="#path-3"></use>
                                    <rect stroke="#0D78AA" stroke-width="1" x="0.5" y="0.5" width="110" height="43" rx="3"></rect>
                                </g>
                            </g>
                            <rect id="Rectangle-5" fill="#FFFFFF" x="15" y="19" width="82" height="6" rx="3"></rect>
                        </g>
                    </g>
                    <g id="Group-15" transform="translate(24.000000, 61.000000)">
                        <rect id="Rectangle-2-Copy-9" fill="#D8D8D8" x="40" y="7" width="148" height="4" rx="2"></rect>
                        <rect id="Rectangle-2-Copy-13" fill="#D8D8D8" x="40" y="50" width="196" height="4" rx="2"></rect>
                        <rect id="Rectangle-2-Copy-14" fill="#D8D8D8" x="40" y="90" width="148" height="4" rx="2"></rect>
                        <g id="Group">
                            <circle id="Oval" fill="#0D78AA" cx="12" cy="12" r="12"></circle>
                            <circle id="Oval" fill="#FFFFFF" cx="12" cy="12" r="6"></circle>
                        </g>
                        <circle id="Oval" stroke="#7C878E" cx="12" cy="52" r="12"></circle>
                        <circle id="Oval-Copy-4" stroke="#7C878E" cx="12" cy="92" r="12"></circle>
                    </g>
                </g>
            </g>
        </g>
    </g>
</svg>