<?xml version="1.0" encoding="UTF-8"?>
<svg width="371px" height="276px" viewBox="0 0 371 276" version="1.1" xmlns="http://www.w3.org/2000/svg" xmlns:xlink="http://www.w3.org/1999/xlink">
    <!-- Generator: Sketch 47 (45396) - http://www.bohemiancoding.com/sketch -->
    <title>SuccessErrors</title>
    <desc>Created with Sketch.</desc>
    <defs>
        <rect id="path-1" x="0" y="0" width="351" height="256"></rect>
        <filter x="-5.0%" y="-4.9%" width="110.0%" height="113.7%" filterUnits="objectBoundingBox" id="filter-2">
            <feOffset dx="0" dy="5" in="SourceAlpha" result="shadowOffsetOuter1"></feOffset>
            <feGaussianBlur stdDeviation="5" in="shadowOffsetOuter1" result="shadowBlurOuter1"></feGaussianBlur>
            <feColorMatrix values="0 0 0 0 0   0 0 0 0 0   0 0 0 0 0  0 0 0 0.3 0" type="matrix" in="shadowBlurOuter1"></feColorMatrix>
        </filter>
    </defs>
    <g id="Page-1" stroke="none" stroke-width="1" fill="none" fill-rule="evenodd">
        <g id="Buttons-Usage-extra-large-1200" transform="translate(-759.000000, -2014.000000)">
            <g id="Group-9" transform="translate(305.000000, 1988.000000)">
                <g id="SuccessErrors" transform="translate(464.000000, 31.000000)">
                    <g id="Group-Copy-2">
                        <g id="Panel">
                            <use fill="black" fill-opacity="1" filter="url(#filter-2)" xlink:href="#path-1"></use>
                            <use fill="#FFFFFF" fill-rule="evenodd" xlink:href="#path-1"></use>
                        </g>
                    </g>
                    <g id="X" transform="translate(319.000000, 16.000000)" fill="#4C5358">
                        <path d="M15.5636364,14.3272727 L14.4,15.4909091 C14.2545455,15.6363636 14.0363636,15.7818182 13.8181818,15.7818182 C13.6,15.7818182 13.3818182,15.7090909 13.2363636,15.4909091 L0.290909091,2.54545455 C0.145454545,2.4 0,2.18181818 0,1.96363636 C0,1.74545455 0.145454545,1.6 0.290909091,1.45454545 L1.45454545,0.290909091 C1.6,0.0727272727 1.81818182,0 2.03636364,0 C2.25454545,0 2.47272727,0.0727272727 2.61818182,0.290909091 L15.4909091,13.1636364 C15.6363636,13.3090909 15.7818182,13.5272727 15.7818182,13.7454545 C15.7818182,13.9636364 15.7090909,14.1818182 15.5636364,14.3272727" id="Fill-1"></path>
                        <path d="M14.4,0.218181818 L15.5636364,1.45454545 C15.7090909,1.6 15.8545455,1.81818182 15.8545455,2.03636364 C15.7818182,2.32727273 15.7090909,2.47272727 15.5636364,2.61818182 L2.61818182,15.4909091 C2.47272727,15.6363636 2.25454545,15.7818182 2.03636364,15.7818182 C1.81818182,15.7818182 1.6,15.7090909 1.45454545,15.4909091 L0.290909091,14.3272727 C0.145454545,14.1818182 0,13.9636364 0,13.7454545 C0,13.5272727 0.0727272727,13.3090909 0.290909091,13.1636364 L13.2363636,0.290909091 C13.3818182,0.145454545 13.6,0 13.8181818,0 C13.9636364,0.0727272727 14.2545455,0.0727272727 14.4,0.218181818" id="Fill-3"></path>
                    </g>
                    <rect id="Rectangle-2-Copy-7" fill="#4C5358" x="64" y="24" width="127" height="8" rx="4"></rect>
                    <path d="M44.0625,26.46875 C44.0625,26.1770819 43.9687509,25.9375009 43.78125,25.75 L42.359375,24.34375 C42.1614573,24.1458323 41.9270847,24.046875 41.65625,24.046875 C41.3854153,24.046875 41.1510427,24.1458323 40.953125,24.34375 L34.578125,30.703125 L31.046875,27.171875 C30.8489573,26.9739573 30.6145847,26.875 30.34375,26.875 C30.0729153,26.875 29.8385427,26.9739573 29.640625,27.171875 L28.21875,28.578125 C28.0312491,28.7656259 27.9375,29.0052069 27.9375,29.296875 C27.9375,29.5781264 28.0312491,29.8124991 28.21875,30 L33.875,35.65625 C34.0729177,35.8541677 34.3072903,35.953125 34.578125,35.953125 C34.8593764,35.953125 35.0989573,35.8541677 35.296875,35.65625 L43.78125,27.171875 C43.9687509,26.9843741 44.0625,26.7500014 44.0625,26.46875 Z M46.390625,22.984375 C47.463547,24.8177175 48,26.8229058 48,29 C48,31.1770942 47.463547,33.1848866 46.390625,35.0234375 C45.317703,36.8619884 43.8619884,38.317703 42.0234375,39.390625 C40.1848866,40.463547 38.1770942,41 36,41 C33.8229058,41 31.8151134,40.463547 29.9765625,39.390625 C28.1380116,38.317703 26.682297,36.8619884 25.609375,35.0234375 C24.536453,33.1848866 24,31.1770942 24,29 C24,26.8229058 24.536453,24.8151134 25.609375,22.9765625 C26.682297,21.1380116 28.1380116,19.682297 29.9765625,18.609375 C31.8151134,17.536453 33.8229058,17 36,17 C38.1770942,17 40.1848866,17.536453 42.0234375,18.609375 C43.8619884,19.682297 45.317703,21.1406158 46.390625,22.984375 Z" id="check-circle---FontAwesome" fill="#5D9834"></path>
                    <rect id="Rectangle-2-Copy-13" fill="#D8D8D8" x="24" y="137" width="303" height="6" rx="3"></rect>
                    <rect id="Rectangle-2-Copy-40" fill="#D8D8D8" x="24" y="164" width="303" height="6" rx="3"></rect>
                    <rect id="Rectangle-2-Copy-24" fill="#D8D8D8" x="24" y="110" width="303" height="6" rx="3"></rect>
                    <rect id="Rectangle-2-Copy-25" fill="#D8D8D8" x="24" y="82" width="303" height="6" rx="3"></rect>
                    <rect id="Rectangle-2-Copy-41" fill="#D8D8D8" x="24" y="191" width="219" height="6" rx="3"></rect>
                </g>
            </g>
        </g>
    </g>
</svg>