<?xml version="1.0" encoding="UTF-8"?>
<svg width="322px" height="300px" viewBox="0 0 322 300" version="1.1" xmlns="http://www.w3.org/2000/svg" xmlns:xlink="http://www.w3.org/1999/xlink">
    <!-- Generator: Sketch 47 (45396) - http://www.bohemiancoding.com/sketch -->
    <title>Multistep</title>
    <desc>Created with Sketch.</desc>
    <defs>
        <rect id="path-1" x="0" y="0" width="302" height="280"></rect>
        <filter x="-5.8%" y="-4.5%" width="111.6%" height="112.5%" filterUnits="objectBoundingBox" id="filter-2">
            <feOffset dx="0" dy="5" in="SourceAlpha" result="shadowOffsetOuter1"></feOffset>
            <feGaussianBlur stdDeviation="5" in="shadowOffsetOuter1" result="shadowBlurOuter1"></feGaussianBlur>
            <feColorMatrix values="0 0 0 0 0   0 0 0 0 0   0 0 0 0 0  0 0 0 0.3 0" type="matrix" in="shadowBlurOuter1"></feColorMatrix>
        </filter>
        <rect id="path-3" x="0" y="0" width="71" height="28" rx="3"></rect>
    </defs>
    <g id="Page-1" stroke="none" stroke-width="1" fill="none" fill-rule="evenodd">
        <g id="Buttons-Usage-extra-large-1200" transform="translate(-784.000000, -2515.000000)">
            <g id="Group-10" transform="translate(301.000000, 2483.000000)">
                <g id="Multistep" transform="translate(493.000000, 37.000000)">
                    <g id="Group-Copy-7">
                        <g id="Panel">
                            <use fill="black" fill-opacity="1" filter="url(#filter-2)" xlink:href="#path-1"></use>
                            <use fill="#FFFFFF" fill-rule="evenodd" xlink:href="#path-1"></use>
                        </g>
                        <g id="X" transform="translate(270.000000, 16.000000)" fill="#4C5358">
                            <path d="M15.5636364,14.3272727 L14.4,15.4909091 C14.2545455,15.6363636 14.0363636,15.7818182 13.8181818,15.7818182 C13.6,15.7818182 13.3818182,15.7090909 13.2363636,15.4909091 L0.290909091,2.54545455 C0.145454545,2.4 0,2.18181818 0,1.96363636 C0,1.74545455 0.145454545,1.6 0.290909091,1.45454545 L1.45454545,0.290909091 C1.6,0.0727272727 1.81818182,0 2.03636364,0 C2.25454545,0 2.47272727,0.0727272727 2.61818182,0.290909091 L15.4909091,13.1636364 C15.6363636,13.3090909 15.7818182,13.5272727 15.7818182,13.7454545 C15.7818182,13.9636364 15.7090909,14.1818182 15.5636364,14.3272727" id="Fill-1"></path>
                            <path d="M14.4,0.218181818 L15.5636364,1.45454545 C15.7090909,1.6 15.8545455,1.81818182 15.8545455,2.03636364 C15.7818182,2.32727273 15.7090909,2.47272727 15.5636364,2.61818182 L2.61818182,15.4909091 C2.47272727,15.6363636 2.25454545,15.7818182 2.03636364,15.7818182 C1.81818182,15.7818182 1.6,15.7090909 1.45454545,15.4909091 L0.290909091,14.3272727 C0.145454545,14.1818182 0,13.9636364 0,13.7454545 C0,13.5272727 0.0727272727,13.3090909 0.290909091,13.1636364 L13.2363636,0.290909091 C13.3818182,0.145454545 13.6,0 13.8181818,0 C13.9636364,0.0727272727 14.2545455,0.0727272727 14.4,0.218181818" id="Fill-3"></path>
                        </g>
                    </g>
                    <rect id="Rectangle-2-Copy-39" fill="#4C5358" x="24" y="24" width="118" height="8" rx="4"></rect>
                    <g id="Group-14" transform="translate(23.000000, 58.000000)">
                        <rect id="Rectangle-2-Copy-43" fill="#D8D8D8" x="40" y="58" width="77" height="4" rx="2"></rect>
                        <rect id="Rectangle-2-Copy-44" fill="#D8D8D8" x="40" y="105" width="87" height="4" rx="2"></rect>
                        <rect id="Rectangle-2-Copy-45" fill="#D8D8D8" x="40" y="152" width="59" height="4" rx="2"></rect>
                        <g id="Group-7" transform="translate(1.000000, 1.000000)">
                            <circle id="Oval-2" fill="#0D78AA" cx="11.5" cy="11.5" r="11.5"></circle>
                            <path d="M9.096,15.696 L11.112,15.696 L11.112,7.776 C10.8559987,8.02133456 10.5600017,8.20799936 10.224,8.336 C9.88799832,8.46400064 9.4800024,8.53866656 9,8.56 L9,7.536 C9.6400032,7.536 10.1519981,7.41066792 10.536,7.16 C10.9200019,6.90933208 11.2186656,6.52266928 11.432,6 L12.44,6 L12.44,15.696 L14.424,15.696 L14.424,16.736 L9.096,16.736 L9.096,15.696 Z" id="1" fill="#FFFFFF"></path>
                        </g>
                        <g id="Group-7-Copy" transform="translate(1.000000, 48.000000)">
                            <circle id="Oval-2" fill="#4C5358" cx="11.5" cy="11.5" r="11.5"></circle>
                            <path d="M8,15.968 C8.3200016,15.7546656 8.679998,15.4986682 9.08,15.2 C9.480002,14.9013318 9.88266464,14.5733351 10.288,14.216 C10.6933354,13.8586649 11.0853314,13.480002 11.464,13.08 C11.8426686,12.679998 12.1786652,12.2640022 12.472,11.832 C12.7653348,11.3999978 13.0026658,10.9600022 13.184,10.512 C13.3653342,10.0639978 13.456,9.61600224 13.456,9.168 C13.456,8.53866352 13.293335,8.01866872 12.968,7.608 C12.642665,7.19733128 12.1493366,6.992 11.488,6.992 C10.8906637,6.992 10.4133351,7.1786648 10.056,7.552 C9.69866488,7.9253352 9.46133392,8.38933056 9.344,8.944 L8.08,8.64 C8.35733472,7.77599568 8.78399712,7.12000224 9.36,6.672 C9.93600288,6.22399776 10.6933286,6 11.632,6 C12.0800022,6 12.503998,6.06399936 12.904,6.192 C13.304002,6.32000064 13.6533318,6.51199872 13.952,6.768 C14.2506682,7.02400128 14.4853325,7.34666472 14.656,7.736 C14.8266675,8.12533528 14.912,8.58133072 14.912,9.104 C14.912,9.80800352 14.7386684,10.4879967 14.392,11.144 C14.0453316,11.8000033 13.6160026,12.4186638 13.104,13 C12.5919974,13.5813362 12.0373363,14.1146642 11.44,14.6 C10.8426637,15.0853358 10.2933358,15.498665 9.792,15.84 L15.2,15.84 L15.2,16.944 L8,16.944 L8,15.968 Z" id="2" fill="#FFFFFF"></path>
                        </g>
                        <g id="Group-7-Copy-2" transform="translate(1.000000, 95.000000)">
                            <circle id="Oval-2" fill="#4C5358" cx="11.5" cy="11.5" r="11.5"></circle>
                            <path d="M9.232,14.4 C9.38133408,14.8693357 9.64799808,15.274665 10.032,15.616 C10.4160019,15.957335 10.9333301,16.128 11.584,16.128 C12.2560034,16.128 12.7839981,15.9333353 13.168,15.544 C13.5520019,15.1546647 13.744,14.6293366 13.744,13.968 C13.744,13.5733314 13.6693341,13.2373347 13.52,12.96 C13.3706659,12.6826653 13.1813345,12.4560009 12.952,12.28 C12.7226655,12.1039991 12.4666681,11.9733338 12.184,11.888 C11.9013319,11.8026662 11.6320013,11.76 11.376,11.76 L11.16,11.76 C11.0906663,11.76 11.0133338,11.7653333 10.928,11.776 L10.928,10.832 C11.0133338,10.8426667 11.085333,10.848 11.144,10.848 L11.312,10.848 C11.5680013,10.848 11.8239987,10.8080004 12.08,10.728 C12.3360013,10.6479996 12.5626657,10.5253342 12.76,10.36 C12.9573343,10.1946658 13.1199994,9.98933456 13.248,9.744 C13.3760006,9.49866544 13.44,9.21066832 13.44,8.88 C13.44,8.32533056 13.269335,7.87200176 12.928,7.52 C12.586665,7.16799824 12.0906699,6.992 11.44,6.992 C10.8746638,6.992 10.4080018,7.15733168 10.04,7.488 C9.67199816,7.81866832 9.42400064,8.25599728 9.296,8.8 L8.112,8.416 C8.34666784,7.64799616 8.75466376,7.05333544 9.336,6.632 C9.91733624,6.21066456 10.645329,6 11.52,6 C12.0000024,6 12.4426646,6.05866608 12.848,6.176 C13.2533354,6.29333392 13.6079985,6.46933216 13.912,6.704 C14.2160015,6.93866784 14.4533325,7.22399832 14.624,7.56 C14.7946675,7.89600168 14.88,8.2773312 14.88,8.704 C14.88,9.36533664 14.6826686,9.91199784 14.288,10.344 C13.8933314,10.7760022 13.3493368,11.0666659 12.656,11.216 C13.4026704,11.3333339 14.013331,11.629331 14.488,12.104 C14.962669,12.578669 15.2,13.2266626 15.2,14.048 C15.2,14.581336 15.0986677,15.0453314 14.896,15.44 C14.6933323,15.8346686 14.4266683,16.1599987 14.096,16.416 C13.7653317,16.6720013 13.3866688,16.8639994 12.96,16.992 C12.5333312,17.1200006 12.0960022,17.184 11.648,17.184 C10.6986619,17.184 9.92533632,16.9680022 9.328,16.536 C8.73066368,16.1039978 8.28800144,15.5466701 8,14.864 L9.232,14.4 Z" id="3" fill="#FFFFFF"></path>
                        </g>
                        <g id="Group-7-Copy-3" transform="translate(0.000000, 142.000000)">
                            <circle id="Oval-2" fill="#4C5358" cx="11.5" cy="11.5" r="11.5"></circle>
                            <path d="M8,12.784 L12.944,6 L14.352,6 L14.352,12.832 L15.728,12.832 L15.728,13.856 L14.352,13.856 L14.352,16.736 L13.008,16.736 L13.008,13.856 L8,13.856 L8,12.784 Z M13.008,12.832 L13.008,7.472 L9.136,12.832 L13.008,12.832 Z" id="4" fill="#FFFFFF"></path>
                        </g>
                        <rect id="Rectangle-2-Copy-11" fill="#0D78AA" transform="translate(66.500000, 2.000000) scale(1, -1) translate(-66.500000, -2.000000) " x="40" y="0" width="53" height="4" rx="2"></rect>
                        <path d="M41,24.5 L155,24.5" id="Line-Copy" stroke="#0D78AA" stroke-linecap="square"></path>
                    </g>
                    <g id="Buttons/Button-Container" transform="translate(207.000000, 228.000000)">
                        <g id="Button-default">
                            <g id="Bg">
                                <use fill="#0D78AA" fill-rule="evenodd" xlink:href="#path-3"></use>
                                <rect stroke="#0D78AA" stroke-width="1" x="0.5" y="0.5" width="70" height="27" rx="3"></rect>
                            </g>
                        </g>
                    </g>
                    <rect id="Path" fill="#FFFFFF" x="219" y="240" width="48" height="4" rx="2"></rect>
                </g>
            </g>
        </g>
    </g>
</svg>