<?xml version="1.0" encoding="UTF-8"?>
<svg width="371px" height="276px" viewBox="0 0 371 276" version="1.1" xmlns="http://www.w3.org/2000/svg" xmlns:xlink="http://www.w3.org/1999/xlink">
    <!-- Generator: Sketch 47.1 (45422) - http://www.bohemiancoding.com/sketch -->
    <title>Important Info</title>
    <desc>Created with Sketch.</desc>
    <defs>
        <rect id="path-1" x="0" y="0" width="351" height="256"></rect>
        <filter x="-5.0%" y="-4.9%" width="110.0%" height="113.7%" filterUnits="objectBoundingBox" id="filter-2">
            <feOffset dx="0" dy="5" in="SourceAlpha" result="shadowOffsetOuter1"></feOffset>
            <feGaussianBlur stdDeviation="5" in="shadowOffsetOuter1" result="shadowBlurOuter1"></feGaussianBlur>
            <feColorMatrix values="0 0 0 0 0   0 0 0 0 0   0 0 0 0 0  0 0 0 0.3 0" type="matrix" in="shadowBlurOuter1"></feColorMatrix>
        </filter>
        <rect id="path-3" x="0" y="0" width="111" height="44" rx="3"></rect>
    </defs>
    <g id="Page-1" stroke="none" stroke-width="1" fill="none" fill-rule="evenodd">
        <g id="Buttons-Usage-extra-large-1200" transform="translate(-325.000000, -2517.000000)">
            <g id="Group-10" transform="translate(301.000000, 2483.000000)">
                <g id="Important-Info" transform="translate(34.000000, 39.000000)">
                    <g id="modal-copy">
                        <g id="Panel">
                            <use fill="black" fill-opacity="1" filter="url(#filter-2)" xlink:href="#path-1"></use>
                            <use fill="#FFFFFF" fill-rule="evenodd" xlink:href="#path-1"></use>
                        </g>
                    </g>
                    <g id="X" transform="translate(319.000000, 16.000000)" fill="#4C5358">
                        <path d="M15.5636364,14.3272727 L14.4,15.4909091 C14.2545455,15.6363636 14.0363636,15.7818182 13.8181818,15.7818182 C13.6,15.7818182 13.3818182,15.7090909 13.2363636,15.4909091 L0.290909091,2.54545455 C0.145454545,2.4 0,2.18181818 0,1.96363636 C0,1.74545455 0.145454545,1.6 0.290909091,1.45454545 L1.45454545,0.290909091 C1.6,0.0727272727 1.81818182,0 2.03636364,0 C2.25454545,0 2.47272727,0.0727272727 2.61818182,0.290909091 L15.4909091,13.1636364 C15.6363636,13.3090909 15.7818182,13.5272727 15.7818182,13.7454545 C15.7818182,13.9636364 15.7090909,14.1818182 15.5636364,14.3272727" id="Fill-1"></path>
                        <path d="M14.4,0.218181818 L15.5636364,1.45454545 C15.7090909,1.6 15.8545455,1.81818182 15.8545455,2.03636364 C15.7818182,2.32727273 15.7090909,2.47272727 15.5636364,2.61818182 L2.61818182,15.4909091 C2.47272727,15.6363636 2.25454545,15.7818182 2.03636364,15.7818182 C1.81818182,15.7818182 1.6,15.7090909 1.45454545,15.4909091 L0.290909091,14.3272727 C0.145454545,14.1818182 0,13.9636364 0,13.7454545 C0,13.5272727 0.0727272727,13.3090909 0.290909091,13.1636364 L13.2363636,0.290909091 C13.3818182,0.145454545 13.6,0 13.8181818,0 C13.9636364,0.0727272727 14.2545455,0.0727272727 14.4,0.218181818" id="Fill-3"></path>
                    </g>
                    <path d="M25.68,47.056 L28.2,47.056 C29.6880074,49.6320129 31.1039933,52.0719885 32.448,54.376 C33.7920067,56.6800115 35.0719939,58.927989 36.288,61.12 C36.2239997,58.719988 36.196,56.3640116 36.204,54.052 C36.212,51.7399884 36.2080001,49.4080118 36.192,47.056 L38.232,47.056 L38.232,64 L35.736,64 C35.0479966,62.8159941 34.3480036,61.6080062 33.636,60.376 C32.9239964,59.1439938 32.2160035,57.924006 31.512,56.716 C30.8079965,55.507994 30.1280033,54.3280058 29.472,53.176 C28.8159967,52.0239942 28.2080028,50.944005 27.648,49.936 C27.6960002,52.3520121 27.72,54.7119885 27.72,57.016 C27.72,59.3200115 27.7279999,61.6479882 27.744,64 L25.68,64 L25.68,47.056 Z M42.984,58.552 C43.0640004,59.9120068 43.4119969,60.9639963 44.028,61.708 C44.6440031,62.4520037 45.5039945,62.824 46.608,62.824 C48.000007,62.824 49.0479965,62.1680066 49.752,60.856 L51.264,61.696 C50.7999977,62.4800039 50.1840038,63.1199975 49.416,63.616 C48.6479962,64.1120025 47.6800058,64.36 46.512,64.36 C45.5839954,64.36 44.7720035,64.2000016 44.076,63.88 C43.3799965,63.5599984 42.8000023,63.1200028 42.336,62.56 C41.8719977,61.9999972 41.5240012,61.3440038 41.292,60.592 C41.0599988,59.8399962 40.944,59.0320043 40.944,58.168 C40.944,57.3199958 41.0559989,56.5120038 41.28,55.744 C41.5040011,54.9759962 41.8439977,54.3040029 42.3,53.728 C42.7560023,53.1519971 43.3159967,52.6960017 43.98,52.36 C44.6440033,52.0239983 45.4239955,51.856 46.32,51.856 C47.1840043,51.856 47.9359968,52.0199984 48.576,52.348 C49.2160032,52.6760016 49.7479979,53.1159972 50.172,53.668 C50.5960021,54.2200028 50.9159989,54.8599964 51.132,55.588 C51.3480011,56.3160036 51.456,57.0879959 51.456,57.904 C51.456,58.0800009 51.452,58.2159995 51.444,58.312 C51.436,58.4080005 51.432,58.4879997 51.432,58.552 L42.984,58.552 Z M46.296,53.368 C45.287995,53.368 44.5080028,53.7279964 43.956,54.448 C43.4039972,55.1680036 43.0880004,56.1359939 43.008,57.352 L49.416,57.352 C49.416,56.8559975 49.3600006,56.3720024 49.248,55.9 C49.1359994,55.4279976 48.9520013,55.0040019 48.696,54.628 C48.4399987,54.2519981 48.116002,53.9480012 47.724,53.716 C47.331998,53.4839988 46.8560028,53.368 46.296,53.368 Z M53.016,52.192 L55.176,52.192 L57.576,62.08 L59.952,52.192 L62.16,52.192 L64.488,62.08 L66.912,52.192 L69.072,52.192 L65.592,64 L63.384,64 L61.032,54.904 L58.68,64 L56.472,64 L53.016,52.192 Z M86.64,61.408 C86.1599976,62.3680048 85.516004,63.0999975 84.708,63.604 C83.899996,64.1080025 82.9200058,64.36 81.768,64.36 C80.8239953,64.36 80.0040035,64.1960016 79.308,63.868 C78.6119965,63.5399984 78.0360023,63.0960028 77.58,62.536 C77.1239977,61.9759972 76.7880011,61.3160038 76.572,60.556 C76.3559989,59.7959962 76.248,58.9840043 76.248,58.12 C76.248,57.2399956 76.3639988,56.4200038 76.596,55.66 C76.8280012,54.8999962 77.1719977,54.2400028 77.628,53.68 C78.0840023,53.1199972 78.6559966,52.6760016 79.344,52.348 C80.0320034,52.0199984 80.8399954,51.856 81.768,51.856 C82.9360058,51.856 83.9079961,52.1159974 84.684,52.636 C85.4600039,53.1560026 86.0879976,53.8879953 86.568,54.832 L84.888,55.624 C84.279997,54.1519926 83.2560072,53.416 81.816,53.416 C81.207997,53.416 80.6840022,53.5359988 80.244,53.776 C79.8039978,54.0160012 79.4440014,54.3439979 79.164,54.76 C78.8839986,55.1760021 78.6760007,55.6599972 78.54,56.212 C78.4039993,56.7640028 78.336,57.3599968 78.336,58 C78.336,58.608003 78.3999994,59.1999971 78.528,59.776 C78.6560006,60.3520029 78.8639986,60.8639978 79.152,61.312 C79.4400014,61.7600022 79.8079978,62.1199986 80.256,62.392 C80.7040022,62.6640014 81.2559967,62.8 81.912,62.8 C82.7440042,62.8 83.4159974,62.5880021 83.928,62.164 C84.4400026,61.7399979 84.8319986,61.1920034 85.104,60.52 L86.64,61.408 Z M93.744,64.36 C92.8479955,64.36 92.0600034,64.1960016 91.38,63.868 C90.6999966,63.5399984 90.1320023,63.0920028 89.676,62.524 C89.2199977,61.9559972 88.8800011,61.2920038 88.656,60.532 C88.4319989,59.7719962 88.32,58.9520044 88.32,58.072 C88.32,57.1919956 88.4359988,56.3760038 88.668,55.624 C88.9000012,54.8719962 89.2439977,54.2160028 89.7,53.656 C90.1560023,53.0959972 90.7239966,52.6560016 91.404,52.336 C92.0840034,52.0159984 92.8639956,51.856 93.744,51.856 C94.6240044,51.856 95.4039966,52.0159984 96.084,52.336 C96.7640034,52.6560016 97.3359977,53.0919972 97.8,53.644 C98.2640023,54.1960028 98.6119988,54.8519962 98.844,55.612 C99.0760012,56.3720038 99.192,57.1919956 99.192,58.072 C99.192,58.9520044 99.0760012,59.7719962 98.844,60.532 C98.6119988,61.2920038 98.2640023,61.9559972 97.8,62.524 C97.3359977,63.0920028 96.7640034,63.5399984 96.084,63.868 C95.4039966,64.1960016 94.6240044,64.36 93.744,64.36 Z M93.792,62.8 C94.3360027,62.8 94.8159979,62.6800012 95.232,62.44 C95.6480021,62.1999988 95.9919986,61.8680021 96.264,61.444 C96.5360014,61.0199979 96.7439993,60.5200029 96.888,59.944 C97.0320007,59.3679971 97.104,58.7440034 97.104,58.072 C97.104,57.3999966 97.0320007,56.7800028 96.888,56.212 C96.7439993,55.6439972 96.5280014,55.1520021 96.24,54.736 C95.9519986,54.3199979 95.6000021,53.9960012 95.184,53.764 C94.7679979,53.5319988 94.2880027,53.416 93.744,53.416 C93.1839972,53.416 92.6960021,53.5319988 92.28,53.764 C91.8639979,53.9960012 91.5200014,54.3199979 91.248,54.736 C90.9759986,55.1520021 90.7680007,55.6439972 90.624,56.212 C90.4799993,56.7800028 90.408,57.3999966 90.408,58.072 C90.408,58.7440034 90.4799993,59.3679971 90.624,59.944 C90.7680007,60.5200029 90.9799986,61.0199979 91.26,61.444 C91.5400014,61.8680021 91.8919979,62.1999988 92.316,62.44 C92.7400021,62.6800012 93.2319972,62.8 93.792,62.8 Z M101.736,52.192 L103.464,52.192 L103.656,54.832 C103.992002,53.9679957 104.527996,53.2560028 105.264,52.696 C106.000004,52.1359972 106.871995,51.856 107.88,51.856 L107.88,53.968 C107.655999,53.9199998 107.408001,53.896 107.136,53.896 C106.735998,53.896 106.336002,53.9679993 105.936,54.112 C105.535998,54.2560007 105.172002,54.4879984 104.844,54.808 C104.515998,55.1280016 104.248001,55.5399975 104.04,56.044 C103.831999,56.5480025 103.728,57.1599964 103.728,57.88 L103.728,64 L101.736,64 L101.736,52.192 Z M109.848,52.192 L111.576,52.192 L111.768,54.832 C112.104002,53.9679957 112.639996,53.2560028 113.376,52.696 C114.112004,52.1359972 114.983995,51.856 115.992,51.856 L115.992,53.968 C115.767999,53.9199998 115.520001,53.896 115.248,53.896 C114.847998,53.896 114.448002,53.9679993 114.048,54.112 C113.647998,54.2560007 113.284002,54.4879984 112.956,54.808 C112.627998,55.1280016 112.360001,55.5399975 112.152,56.044 C111.943999,56.5480025 111.84,57.1599964 111.84,57.88 L111.84,64 L109.848,64 L109.848,52.192 Z M119.472,58.552 C119.552,59.9120068 119.899997,60.9639963 120.516,61.708 C121.132003,62.4520037 121.991994,62.824 123.096,62.824 C124.488007,62.824 125.535996,62.1680066 126.24,60.856 L127.752,61.696 C127.287998,62.4800039 126.672004,63.1199975 125.904,63.616 C125.135996,64.1120025 124.168006,64.36 123,64.36 C122.071995,64.36 121.260003,64.2000016 120.564,63.88 C119.867997,63.5599984 119.288002,63.1200028 118.824,62.56 C118.359998,61.9999972 118.012001,61.3440038 117.78,60.592 C117.547999,59.8399962 117.432,59.0320043 117.432,58.168 C117.432,57.3199958 117.543999,56.5120038 117.768,55.744 C117.992001,54.9759962 118.331998,54.3040029 118.788,53.728 C119.244002,53.1519971 119.803997,52.6960017 120.468,52.36 C121.132003,52.0239983 121.911996,51.856 122.808,51.856 C123.672004,51.856 124.423997,52.0199984 125.064,52.348 C125.704003,52.6760016 126.235998,53.1159972 126.66,53.668 C127.084002,54.2200028 127.403999,54.8599964 127.62,55.588 C127.836001,56.3160036 127.944,57.0879959 127.944,57.904 C127.944,58.0800009 127.94,58.2159995 127.932,58.312 C127.924,58.4080005 127.92,58.4879997 127.92,58.552 L119.472,58.552 Z M122.784,53.368 C121.775995,53.368 120.996003,53.7279964 120.444,54.448 C119.891997,55.1680036 119.576,56.1359939 119.496,57.352 L125.904,57.352 C125.904,56.8559975 125.848001,56.3720024 125.736,55.9 C125.623999,55.4279976 125.440001,55.0040019 125.184,54.628 C124.927999,54.2519981 124.604002,53.9480012 124.212,53.716 C123.819998,53.4839988 123.344003,53.368 122.784,53.368 Z M140.232,61.408 C139.751998,62.3680048 139.108004,63.0999975 138.3,63.604 C137.491996,64.1080025 136.512006,64.36 135.36,64.36 C134.415995,64.36 133.596003,64.1960016 132.9,63.868 C132.203997,63.5399984 131.628002,63.0960028 131.172,62.536 C130.715998,61.9759972 130.380001,61.3160038 130.164,60.556 C129.947999,59.7959962 129.84,58.9840043 129.84,58.12 C129.84,57.2399956 129.955999,56.4200038 130.188,55.66 C130.420001,54.8999962 130.763998,54.2400028 131.22,53.68 C131.676002,53.1199972 132.247997,52.6760016 132.936,52.348 C133.624003,52.0199984 134.431995,51.856 135.36,51.856 C136.528006,51.856 137.499996,52.1159974 138.276,52.636 C139.052004,53.1560026 139.679998,53.8879953 140.16,54.832 L138.48,55.624 C137.871997,54.1519926 136.848007,53.416 135.408,53.416 C134.799997,53.416 134.276002,53.5359988 133.836,53.776 C133.395998,54.0160012 133.036001,54.3439979 132.756,54.76 C132.475999,55.1760021 132.268001,55.6599972 132.132,56.212 C131.995999,56.7640028 131.928,57.3599968 131.928,58 C131.928,58.608003 131.991999,59.1999971 132.12,59.776 C132.248001,60.3520029 132.455999,60.8639978 132.744,61.312 C133.032001,61.7600022 133.399998,62.1199986 133.848,62.392 C134.296002,62.6640014 134.847997,62.8 135.504,62.8 C136.336004,62.8 137.007997,62.5880021 137.52,62.164 C138.032003,61.7399979 138.423999,61.1920034 138.696,60.52 L140.232,61.408 Z M143.472,53.56 L141.456,53.56 L141.456,52.192 L141.888,52.192 C142.384002,52.192 142.771999,52.1400005 143.052,52.036 C143.332001,51.9319995 143.543999,51.7720011 143.688,51.556 C143.832001,51.3399989 143.936,51.0560018 144,50.704 C144.064,50.3519982 144.12,49.9200026 144.168,49.408 L144.216,48.976 L145.464,48.976 L145.464,52.192 L148.008,52.192 L148.008,53.56 L145.464,53.56 L145.464,60.904 C145.464,61.5760034 145.563999,62.0599985 145.764,62.356 C145.964001,62.6520015 146.335997,62.8 146.88,62.8 C147.312002,62.8 147.711998,62.704001 148.08,62.512 L148.296,63.952 C147.687997,64.2240014 147.016004,64.36 146.28,64.36 C145.703997,64.36 145.236002,64.2800008 144.876,64.12 C144.515998,63.9599992 144.232001,63.7440014 144.024,63.472 C143.815999,63.1999986 143.672,62.8720019 143.592,62.488 C143.512,62.1039981 143.472,61.6880022 143.472,61.24 L143.472,53.56 Z M150.408,47.608 L152.4,47.608 L152.4,49.6 L150.408,49.6 L150.408,47.608 Z M150.408,52.192 L152.4,52.192 L152.4,64 L150.408,64 L150.408,52.192 Z M154.56,52.192 L156.816,52.192 L159.696,62.128 L162.552,52.192 L164.712,52.192 L160.824,64 L158.424,64 L154.56,52.192 Z M168.36,58.552 C168.44,59.9120068 168.787997,60.9639963 169.404,61.708 C170.020003,62.4520037 170.879994,62.824 171.984,62.824 C173.376007,62.824 174.423996,62.1680066 175.128,60.856 L176.64,61.696 C176.175998,62.4800039 175.560004,63.1199975 174.792,63.616 C174.023996,64.1120025 173.056006,64.36 171.888,64.36 C170.959995,64.36 170.148003,64.2000016 169.452,63.88 C168.755997,63.5599984 168.176002,63.1200028 167.712,62.56 C167.247998,61.9999972 166.900001,61.3440038 166.668,60.592 C166.435999,59.8399962 166.32,59.0320043 166.32,58.168 C166.32,57.3199958 166.431999,56.5120038 166.656,55.744 C166.880001,54.9759962 167.219998,54.3040029 167.676,53.728 C168.132002,53.1519971 168.691997,52.6960017 169.356,52.36 C170.020003,52.0239983 170.799996,51.856 171.696,51.856 C172.560004,51.856 173.311997,52.0199984 173.952,52.348 C174.592003,52.6760016 175.123998,53.1159972 175.548,53.668 C175.972002,54.2200028 176.291999,54.8599964 176.508,55.588 C176.724001,56.3160036 176.832,57.0879959 176.832,57.904 C176.832,58.0800009 176.828,58.2159995 176.82,58.312 C176.812,58.4080005 176.808,58.4879997 176.808,58.552 L168.36,58.552 Z M171.672,53.368 C170.663995,53.368 169.884003,53.7279964 169.332,54.448 C168.779997,55.1680036 168.464,56.1359939 168.384,57.352 L174.792,57.352 C174.792,56.8559975 174.736001,56.3720024 174.624,55.9 C174.511999,55.4279976 174.328001,55.0040019 174.072,54.628 C173.815999,54.2519981 173.492002,53.9480012 173.1,53.716 C172.707998,53.4839988 172.232003,53.368 171.672,53.368 Z M189.552,64.36 C188.655996,64.36 187.868003,64.1960016 187.188,63.868 C186.507997,63.5399984 185.940002,63.0920028 185.484,62.524 C185.027998,61.9559972 184.688001,61.2920038 184.464,60.532 C184.239999,59.7719962 184.128,58.9520044 184.128,58.072 C184.128,57.1919956 184.243999,56.3760038 184.476,55.624 C184.708001,54.8719962 185.051998,54.2160028 185.508,53.656 C185.964002,53.0959972 186.531997,52.6560016 187.212,52.336 C187.892003,52.0159984 188.671996,51.856 189.552,51.856 C190.432004,51.856 191.211997,52.0159984 191.892,52.336 C192.572003,52.6560016 193.143998,53.0919972 193.608,53.644 C194.072002,54.1960028 194.419999,54.8519962 194.652,55.612 C194.884001,56.3720038 195,57.1919956 195,58.072 C195,58.9520044 194.884001,59.7719962 194.652,60.532 C194.419999,61.2920038 194.072002,61.9559972 193.608,62.524 C193.143998,63.0920028 192.572003,63.5399984 191.892,63.868 C191.211997,64.1960016 190.432004,64.36 189.552,64.36 Z M189.6,62.8 C190.144003,62.8 190.623998,62.6800012 191.04,62.44 C191.456002,62.1999988 191.799999,61.8680021 192.072,61.444 C192.344001,61.0199979 192.551999,60.5200029 192.696,59.944 C192.840001,59.3679971 192.912,58.7440034 192.912,58.072 C192.912,57.3999966 192.840001,56.7800028 192.696,56.212 C192.551999,55.6439972 192.336001,55.1520021 192.048,54.736 C191.759999,54.3199979 191.408002,53.9960012 190.992,53.764 C190.575998,53.5319988 190.096003,53.416 189.552,53.416 C188.991997,53.416 188.504002,53.5319988 188.088,53.764 C187.671998,53.9960012 187.328001,54.3199979 187.056,54.736 C186.783999,55.1520021 186.576001,55.6439972 186.432,56.212 C186.287999,56.7800028 186.216,57.3999966 186.216,58.072 C186.216,58.7440034 186.287999,59.3679971 186.432,59.944 C186.576001,60.5200029 186.787999,61.0199979 187.068,61.444 C187.348001,61.8680021 187.699998,62.1999988 188.124,62.44 C188.548002,62.6800012 189.039997,62.8 189.6,62.8 Z M197.544,52.192 L199.272,52.192 L199.464,54.832 C199.800002,53.9679957 200.335996,53.2560028 201.072,52.696 C201.808004,52.1359972 202.679995,51.856 203.688,51.856 L203.688,53.968 C203.463999,53.9199998 203.216001,53.896 202.944,53.896 C202.543998,53.896 202.144002,53.9679993 201.744,54.112 C201.343998,54.2560007 200.980002,54.4879984 200.652,54.808 C200.323998,55.1280016 200.056001,55.5399975 199.848,56.044 C199.639999,56.5480025 199.536,57.1599964 199.536,57.88 L199.536,64 L197.544,64 L197.544,52.192 Z M213.6,61.696 C213.279998,62.496004 212.808003,63.1279977 212.184,63.592 C211.559997,64.0560023 210.784005,64.288 209.856,64.288 C209.119996,64.288 208.460003,64.1360015 207.876,63.832 C207.291997,63.5279985 206.796002,63.1040027 206.388,62.56 C205.979998,62.0159973 205.668001,61.3600038 205.452,60.592 C205.235999,59.8239962 205.128,58.9760046 205.128,58.048 C205.128,57.0879952 205.239999,56.2280038 205.464,55.468 C205.688001,54.7079962 206.007998,54.0640026 206.424,53.536 C206.840002,53.0079974 207.339997,52.6000014 207.924,52.312 C208.508003,52.0239986 209.151996,51.88 209.856,51.88 C210.816005,51.88 211.599997,52.1079977 212.208,52.564 C212.816003,53.0200023 213.247999,53.5679968 213.504,54.208 L213.504,47.056 L215.52,47.056 L215.52,64 L213.6,64 L213.6,61.696 Z M213.504,58.024 C213.504,57.5279975 213.492,57.1400014 213.468,56.86 C213.444,56.5799986 213.416,56.3520009 213.384,56.176 C213.304,55.8239982 213.184001,55.4880016 213.024,55.168 C212.863999,54.8479984 212.660001,54.5640012 212.412,54.316 C212.163999,54.0679988 211.872002,53.8720007 211.536,53.728 C211.199998,53.5839993 210.816002,53.512 210.384,53.512 C209.839997,53.512 209.372002,53.6319988 208.98,53.872 C208.587998,54.1120012 208.260001,54.435998 207.996,54.844 C207.731999,55.252002 207.536001,55.7319972 207.408,56.284 C207.279999,56.8360028 207.216,57.4239969 207.216,58.048 C207.216,58.7200034 207.287999,59.3399972 207.432,59.908 C207.576001,60.4760028 207.783999,60.963998 208.056,61.372 C208.328001,61.780002 208.663998,62.0999988 209.064,62.332 C209.464002,62.5640012 209.919997,62.68 210.432,62.68 C210.832002,62.68 211.195998,62.6080007 211.524,62.464 C211.852002,62.3199993 212.139999,62.1200013 212.388,61.864 C212.636001,61.6079987 212.839999,61.3160016 213,60.988 C213.160001,60.6599984 213.28,60.3120018 213.36,59.944 C213.456,59.4959978 213.504,58.8960038 213.504,58.144 L213.504,58.024 Z M220.08,58.552 C220.16,59.9120068 220.507997,60.9639963 221.124,61.708 C221.740003,62.4520037 222.599994,62.824 223.704,62.824 C225.096007,62.824 226.143996,62.1680066 226.848,60.856 L228.36,61.696 C227.895998,62.4800039 227.280004,63.1199975 226.512,63.616 C225.743996,64.1120025 224.776006,64.36 223.608,64.36 C222.679995,64.36 221.868003,64.2000016 221.172,63.88 C220.475997,63.5599984 219.896002,63.1200028 219.432,62.56 C218.967998,61.9999972 218.620001,61.3440038 218.388,60.592 C218.155999,59.8399962 218.04,59.0320043 218.04,58.168 C218.04,57.3199958 218.151999,56.5120038 218.376,55.744 C218.600001,54.9759962 218.939998,54.3040029 219.396,53.728 C219.852002,53.1519971 220.411997,52.6960017 221.076,52.36 C221.740003,52.0239983 222.519996,51.856 223.416,51.856 C224.280004,51.856 225.031997,52.0199984 225.672,52.348 C226.312003,52.6760016 226.843998,53.1159972 227.268,53.668 C227.692002,54.2200028 228.011999,54.8599964 228.228,55.588 C228.444001,56.3160036 228.552,57.0879959 228.552,57.904 C228.552,58.0800009 228.548,58.2159995 228.54,58.312 C228.532,58.4080005 228.528,58.4879997 228.528,58.552 L220.08,58.552 Z M223.392,53.368 C222.383995,53.368 221.604003,53.7279964 221.052,54.448 C220.499997,55.1680036 220.184,56.1359939 220.104,57.352 L226.512,57.352 C226.512,56.8559975 226.456001,56.3720024 226.344,55.9 C226.231999,55.4279976 226.048001,55.0040019 225.792,54.628 C225.535999,54.2519981 225.212002,53.9480012 224.82,53.716 C224.427998,53.4839988 223.952003,53.368 223.392,53.368 Z M230.976,52.192 L232.704,52.192 L232.896,54.832 C233.232002,53.9679957 233.767996,53.2560028 234.504,52.696 C235.240004,52.1359972 236.111995,51.856 237.12,51.856 L237.12,53.968 C236.895999,53.9199998 236.648001,53.896 236.376,53.896 C235.975998,53.896 235.576002,53.9679993 235.176,54.112 C234.775998,54.2560007 234.412002,54.4879984 234.084,54.808 C233.755998,55.1280016 233.488001,55.5399975 233.28,56.044 C233.071999,56.5480025 232.968,57.1599964 232.968,57.88 L232.968,64 L230.976,64 L230.976,52.192 Z" id="New-corrective-order" fill="#000000"></path>
                    <path d="M26.12,76.704 L29.912,76.704 C30.4773362,76.704 30.9999976,76.7679994 31.48,76.896 C31.9600024,77.0240006 32.3733316,77.221332 32.72,77.488 C33.0666684,77.754668 33.3386657,78.0933313 33.536,78.504 C33.7333343,78.9146687 33.832,79.4079971 33.832,79.984 C33.832,80.6240032 33.7333343,81.1679978 33.536,81.616 C33.3386657,82.0640022 33.0640018,82.4266653 32.712,82.704 C32.3599982,82.9813347 31.946669,83.1813327 31.472,83.304 C30.997331,83.4266673 30.4826694,83.488 29.928,83.488 L27.56,83.488 L27.56,88 L26.12,88 L26.12,76.704 Z M29.688,82.336 C30.5200042,82.336 31.165331,82.1573351 31.624,81.8 C32.082669,81.4426649 32.312,80.8373376 32.312,79.984 C32.312,79.5893314 32.245334,79.2533347 32.112,78.976 C31.978666,78.6986653 31.7973345,78.4746675 31.568,78.304 C31.3386655,78.1333325 31.0666682,78.010667 30.752,77.936 C30.4373318,77.861333 30.0986685,77.824 29.736,77.824 L27.56,77.824 L27.56,82.336 L29.688,82.336 Z M35.416,76.704 L36.744,76.704 L36.744,88 L35.416,88 L35.416,76.704 Z M39.8,84.368 C39.8533336,85.2746712 40.0853313,85.9759975 40.496,86.472 C40.9066687,86.9680025 41.4799963,87.216 42.216,87.216 C43.1440046,87.216 43.8426643,86.778671 44.312,85.904 L45.32,86.464 C45.0106651,86.9866693 44.6000026,87.4133317 44.088,87.744 C43.5759974,88.0746683 42.9306706,88.24 42.152,88.24 C41.5333302,88.24 40.9920023,88.1333344 40.528,87.92 C40.0639977,87.7066656 39.6773349,87.4133352 39.368,87.04 C39.0586651,86.6666648 38.8266674,86.2293358 38.672,85.728 C38.5173326,85.2266642 38.44,84.6880029 38.44,84.112 C38.44,83.5466638 38.5146659,83.0080026 38.664,82.496 C38.8133341,81.9839974 39.0399985,81.5360019 39.344,81.152 C39.6480015,80.7679981 40.0213311,80.4640011 40.464,80.24 C40.9066689,80.0159989 41.4266637,79.904 42.024,79.904 C42.6000029,79.904 43.1013312,80.0133322 43.528,80.232 C43.9546688,80.4506678 44.3093319,80.7439982 44.592,81.112 C44.8746681,81.4800018 45.0879993,81.9066642 45.232,82.392 C45.3760007,82.8773358 45.448,83.3919973 45.448,83.936 C45.448,84.0533339 45.4453334,84.1439997 45.44,84.208 C45.4346666,84.2720003 45.432,84.3253331 45.432,84.368 L39.8,84.368 Z M42.008,80.912 C41.3359966,80.912 40.8160018,81.1519976 40.448,81.632 C40.0799982,82.1120024 39.8693336,82.7573293 39.816,83.568 L44.088,83.568 C44.088,83.2373317 44.050667,82.9146682 43.976,82.6 C43.901333,82.2853318 43.7786675,82.0026679 43.608,81.752 C43.4373325,81.5013321 43.2213346,81.2986674 42.96,81.144 C42.6986654,80.9893326 42.3813352,80.912 42.008,80.912 Z M52.008,88 C51.8906661,87.6159981 51.8213334,87.157336 51.8,86.624 C51.5866656,87.1146691 51.2586689,87.5066652 50.816,87.8 C50.3733311,88.0933348 49.848003,88.24 49.24,88.24 C48.4719962,88.24 47.8640022,88.0213355 47.416,87.584 C46.9679978,87.1466645 46.744,86.5600037 46.744,85.824 C46.744,85.4079979 46.8186659,85.0586681 46.968,84.776 C47.1173341,84.4933319 47.325332,84.2586676 47.592,84.072 C47.858668,83.8853324 48.1733315,83.7386672 48.536,83.632 C48.8986685,83.5253328 49.2933312,83.4400003 49.72,83.376 L51.736,83.072 L51.736,82.576 C51.736,82.2239982 51.6933338,81.9413344 51.608,81.728 C51.5226662,81.5146656 51.4053341,81.3493339 51.256,81.232 C51.1066659,81.1146661 50.936001,81.0373335 50.744,81 C50.551999,80.9626665 50.3493344,80.944 50.136,80.944 C49.527997,80.944 49.0266686,81.0559989 48.632,81.28 C48.2373314,81.5040011 47.906668,81.786665 47.64,82.128 L46.952,81.264 C47.2613349,80.8906648 47.6906639,80.570668 48.24,80.304 C48.7893361,80.037332 49.4693293,79.904 50.28,79.904 C51.2613382,79.904 51.9733311,80.1226645 52.416,80.56 C52.8586689,80.9973355 53.08,81.7013285 53.08,82.672 L53.08,85.856 C53.08,86.1120013 53.0826666,86.335999 53.088,86.528 C53.0933334,86.720001 53.1039999,86.8986658 53.12,87.064 C53.1360001,87.2293342 53.1599998,87.3866659 53.192,87.536 C53.2240002,87.6853341 53.2666664,87.8399992 53.32,88 L52.008,88 Z M51.736,83.952 L49.848,84.256 C49.1973301,84.3733339 48.7360014,84.5493322 48.464,84.784 C48.1919986,85.0186678 48.056,85.3439979 48.056,85.76 C48.056,86.1866688 48.1813321,86.5439986 48.432,86.832 C48.6826679,87.1200014 49.0533309,87.264 49.544,87.264 C49.8426682,87.264 50.125332,87.2053339 50.392,87.088 C50.658668,86.9706661 50.8906657,86.808001 51.088,86.6 C51.2853343,86.391999 51.4426661,86.1413348 51.56,85.848 C51.6773339,85.5546652 51.736,85.2320018 51.736,84.88 L51.736,83.952 Z M55.352,86.064 C55.618668,86.405335 55.9626646,86.6879989 56.384,86.912 C56.8053354,87.1360011 57.2666642,87.248 57.768,87.248 C58.2160022,87.248 58.6053317,87.1413344 58.936,86.928 C59.2666683,86.7146656 59.432,86.3946688 59.432,85.968 C59.432,85.6373317 59.3226678,85.3786676 59.104,85.192 C58.8853322,85.0053324 58.613335,84.8480006 58.288,84.72 C57.962665,84.5919994 57.6080019,84.4746672 57.224,84.368 C56.8399981,84.2613328 56.485335,84.1226675 56.16,83.952 C55.834665,83.7813325 55.5626678,83.5573347 55.344,83.28 C55.1253322,83.0026653 55.016,82.6240024 55.016,82.144 C55.016,81.7493314 55.0959992,81.4106681 55.256,81.128 C55.4160008,80.8453319 55.6266654,80.6133342 55.888,80.432 C56.1493346,80.2506658 56.450665,80.1173338 56.792,80.032 C57.133335,79.9466662 57.4906648,79.904 57.864,79.904 C58.9733389,79.904 59.8959963,80.2239968 60.632,80.864 L59.96,81.76 C59.7253322,81.5146654 59.4133353,81.3093342 59.024,81.144 C58.6346647,80.9786658 58.2320021,80.896 57.816,80.896 C57.6346658,80.896 57.4560009,80.9173331 57.28,80.96 C57.1039991,81.0026669 56.949334,81.0693329 56.816,81.16 C56.682666,81.2506671 56.5760004,81.3653326 56.496,81.504 C56.4159996,81.6426674 56.376,81.8133323 56.376,82.016 C56.376,82.3253349 56.4853322,82.5653325 56.704,82.736 C56.9226678,82.9066675 57.194665,83.0533327 57.52,83.176 C57.845335,83.2986673 58.1973314,83.4159994 58.576,83.528 C58.9546686,83.6400006 59.306665,83.7839991 59.632,83.96 C59.957335,84.1360009 60.2293322,84.3679986 60.448,84.656 C60.6666678,84.9440014 60.776,85.3279976 60.776,85.808 C60.776,86.2133354 60.6933342,86.5679985 60.528,86.872 C60.3626658,87.1760015 60.1440014,87.4293323 59.872,87.632 C59.5999986,87.8346677 59.2853351,87.9866662 58.928,88.088 C58.5706649,88.1893338 58.2000019,88.24 57.816,88.24 C56.4933267,88.24 55.4426706,87.8133376 54.664,86.96 L55.352,86.064 Z M63.336,84.368 C63.3893336,85.2746712 63.6213313,85.9759975 64.032,86.472 C64.4426687,86.9680025 65.0159963,87.216 65.752,87.216 C66.6800046,87.216 67.3786643,86.778671 67.848,85.904 L68.856,86.464 C68.5466651,86.9866693 68.1360026,87.4133317 67.624,87.744 C67.1119974,88.0746683 66.4666706,88.24 65.688,88.24 C65.0693302,88.24 64.5280023,88.1333344 64.064,87.92 C63.5999977,87.7066656 63.2133349,87.4133352 62.904,87.04 C62.5946651,86.6666648 62.3626674,86.2293358 62.208,85.728 C62.0533326,85.2266642 61.976,84.6880029 61.976,84.112 C61.976,83.5466638 62.0506659,83.0080026 62.2,82.496 C62.3493341,81.9839974 62.5759985,81.5360019 62.88,81.152 C63.1840015,80.7679981 63.5573311,80.4640011 64,80.24 C64.4426689,80.0159989 64.9626637,79.904 65.56,79.904 C66.1360029,79.904 66.6373312,80.0133322 67.064,80.232 C67.4906688,80.4506678 67.8453319,80.7439982 68.128,81.112 C68.4106681,81.4800018 68.6239993,81.9066642 68.768,82.392 C68.9120007,82.8773358 68.984,83.3919973 68.984,83.936 C68.984,84.0533339 68.9813334,84.1439997 68.976,84.208 C68.9706666,84.2720003 68.968,84.3253331 68.968,84.368 L63.336,84.368 Z M65.544,80.912 C64.8719966,80.912 64.3520018,81.1519976 63.984,81.632 C63.6159982,82.1120024 63.4053336,82.7573293 63.352,83.568 L67.624,83.568 C67.624,83.2373317 67.586667,82.9146682 67.512,82.6 C67.437333,82.2853318 67.3146675,82.0026679 67.144,81.752 C66.9733325,81.5013321 66.7573346,81.2986674 66.496,81.144 C66.2346654,80.9893326 65.9173352,80.912 65.544,80.912 Z M74.344,86.064 C74.610668,86.405335 74.9546646,86.6879989 75.376,86.912 C75.7973354,87.1360011 76.2586642,87.248 76.76,87.248 C77.2080022,87.248 77.5973317,87.1413344 77.928,86.928 C78.2586683,86.7146656 78.424,86.3946688 78.424,85.968 C78.424,85.6373317 78.3146678,85.3786676 78.096,85.192 C77.8773322,85.0053324 77.605335,84.8480006 77.28,84.72 C76.954665,84.5919994 76.6000019,84.4746672 76.216,84.368 C75.8319981,84.2613328 75.477335,84.1226675 75.152,83.952 C74.826665,83.7813325 74.5546678,83.5573347 74.336,83.28 C74.1173322,83.0026653 74.008,82.6240024 74.008,82.144 C74.008,81.7493314 74.0879992,81.4106681 74.248,81.128 C74.4080008,80.8453319 74.6186654,80.6133342 74.88,80.432 C75.1413346,80.2506658 75.442665,80.1173338 75.784,80.032 C76.125335,79.9466662 76.4826648,79.904 76.856,79.904 C77.9653389,79.904 78.8879963,80.2239968 79.624,80.864 L78.952,81.76 C78.7173322,81.5146654 78.4053353,81.3093342 78.016,81.144 C77.6266647,80.9786658 77.2240021,80.896 76.808,80.896 C76.6266658,80.896 76.4480009,80.9173331 76.272,80.96 C76.0959991,81.0026669 75.941334,81.0693329 75.808,81.16 C75.674666,81.2506671 75.5680004,81.3653326 75.488,81.504 C75.4079996,81.6426674 75.368,81.8133323 75.368,82.016 C75.368,82.3253349 75.4773322,82.5653325 75.696,82.736 C75.9146678,82.9066675 76.186665,83.0533327 76.512,83.176 C76.837335,83.2986673 77.1893314,83.4159994 77.568,83.528 C77.9466686,83.6400006 78.298665,83.7839991 78.624,83.96 C78.949335,84.1360009 79.2213322,84.3679986 79.44,84.656 C79.6586678,84.9440014 79.768,85.3279976 79.768,85.808 C79.768,86.2133354 79.6853342,86.5679985 79.52,86.872 C79.3546658,87.1760015 79.1360014,87.4293323 78.864,87.632 C78.5919986,87.8346677 78.2773351,87.9866662 77.92,88.088 C77.5626649,88.1893338 77.1920019,88.24 76.808,88.24 C75.4853267,88.24 74.4346706,87.8133376 73.656,86.96 L74.344,86.064 Z M82.328,84.368 C82.3813336,85.2746712 82.6133313,85.9759975 83.024,86.472 C83.4346687,86.9680025 84.0079963,87.216 84.744,87.216 C85.6720046,87.216 86.3706643,86.778671 86.84,85.904 L87.848,86.464 C87.5386651,86.9866693 87.1280026,87.4133317 86.616,87.744 C86.1039974,88.0746683 85.4586706,88.24 84.68,88.24 C84.0613302,88.24 83.5200023,88.1333344 83.056,87.92 C82.5919977,87.7066656 82.2053349,87.4133352 81.896,87.04 C81.5866651,86.6666648 81.3546674,86.2293358 81.2,85.728 C81.0453326,85.2266642 80.968,84.6880029 80.968,84.112 C80.968,83.5466638 81.0426659,83.0080026 81.192,82.496 C81.3413341,81.9839974 81.5679985,81.5360019 81.872,81.152 C82.1760015,80.7679981 82.5493311,80.4640011 82.992,80.24 C83.4346689,80.0159989 83.9546637,79.904 84.552,79.904 C85.1280029,79.904 85.6293312,80.0133322 86.056,80.232 C86.4826688,80.4506678 86.8373319,80.7439982 87.12,81.112 C87.4026681,81.4800018 87.6159993,81.9066642 87.76,82.392 C87.9040007,82.8773358 87.976,83.3919973 87.976,83.936 C87.976,84.0533339 87.9733334,84.1439997 87.968,84.208 C87.9626666,84.2720003 87.96,84.3253331 87.96,84.368 L82.328,84.368 Z M84.536,80.912 C83.8639966,80.912 83.3440018,81.1519976 82.976,81.632 C82.6079982,82.1120024 82.3973336,82.7573293 82.344,83.568 L86.616,83.568 C86.616,83.2373317 86.578667,82.9146682 86.504,82.6 C86.429333,82.2853318 86.3066675,82.0026679 86.136,81.752 C85.9653325,81.5013321 85.7493346,81.2986674 85.488,81.144 C85.2266654,80.9893326 84.9093352,80.912 84.536,80.912 Z M89.592,76.704 L90.92,76.704 L90.92,88 L89.592,88 L89.592,76.704 Z M93.976,84.368 C94.0293336,85.2746712 94.2613313,85.9759975 94.672,86.472 C95.0826687,86.9680025 95.6559963,87.216 96.392,87.216 C97.3200046,87.216 98.0186643,86.778671 98.488,85.904 L99.496,86.464 C99.1866651,86.9866693 98.7760026,87.4133317 98.264,87.744 C97.7519974,88.0746683 97.1066706,88.24 96.328,88.24 C95.7093302,88.24 95.1680023,88.1333344 94.704,87.92 C94.2399977,87.7066656 93.8533349,87.4133352 93.544,87.04 C93.2346651,86.6666648 93.0026674,86.2293358 92.848,85.728 C92.6933326,85.2266642 92.616,84.6880029 92.616,84.112 C92.616,83.5466638 92.6906659,83.0080026 92.84,82.496 C92.9893341,81.9839974 93.2159985,81.5360019 93.52,81.152 C93.8240015,80.7679981 94.1973311,80.4640011 94.64,80.24 C95.0826689,80.0159989 95.6026637,79.904 96.2,79.904 C96.7760029,79.904 97.2773312,80.0133322 97.704,80.232 C98.1306688,80.4506678 98.4853319,80.7439982 98.768,81.112 C99.0506681,81.4800018 99.2639993,81.9066642 99.408,82.392 C99.5520007,82.8773358 99.624,83.3919973 99.624,83.936 C99.624,84.0533339 99.6213334,84.1439997 99.616,84.208 C99.6106666,84.2720003 99.608,84.3253331 99.608,84.368 L93.976,84.368 Z M96.184,80.912 C95.5119966,80.912 94.9920018,81.1519976 94.624,81.632 C94.2559982,82.1120024 94.0453336,82.7573293 93.992,83.568 L98.264,83.568 C98.264,83.2373317 98.226667,82.9146682 98.152,82.6 C98.077333,82.2853318 97.9546675,82.0026679 97.784,81.752 C97.6133325,81.5013321 97.3973346,81.2986674 97.136,81.144 C96.8746654,80.9893326 96.5573352,80.912 96.184,80.912 Z M107.816,86.272 C107.495998,86.9120032 107.066669,87.3999983 106.528,87.736 C105.989331,88.0720017 105.336004,88.24 104.568,88.24 C103.938664,88.24 103.392002,88.1306678 102.928,87.912 C102.463998,87.6933322 102.080002,87.3973352 101.776,87.024 C101.471998,86.6506648 101.248001,86.2106692 101.104,85.704 C100.959999,85.1973308 100.888,84.6560029 100.888,84.08 C100.888,83.4933304 100.965333,82.9466692 101.12,82.44 C101.274667,81.9333308 101.503998,81.4933352 101.808,81.12 C102.112002,80.7466648 102.493331,80.4506678 102.952,80.232 C103.410669,80.0133322 103.94933,79.904 104.568,79.904 C105.346671,79.904 105.994664,80.0773316 106.512,80.424 C107.029336,80.7706684 107.447998,81.2586635 107.768,81.888 L106.648,82.416 C106.242665,81.4346618 105.560005,80.944 104.6,80.944 C104.194665,80.944 103.845335,81.0239992 103.552,81.184 C103.258665,81.3440008 103.018668,81.5626653 102.832,81.84 C102.645332,82.1173347 102.506667,82.4399982 102.416,82.808 C102.325333,83.1760018 102.28,83.5733312 102.28,84 C102.28,84.4053354 102.322666,84.7999981 102.408,85.184 C102.493334,85.5680019 102.631999,85.9093318 102.824,86.208 C103.016001,86.5066682 103.261332,86.7466658 103.56,86.928 C103.858668,87.1093342 104.226664,87.2 104.664,87.2 C105.218669,87.2 105.666665,87.0586681 106.008,86.776 C106.349335,86.4933319 106.610666,86.1280022 106.792,85.68 L107.816,86.272 Z M109.976,81.04 L108.632,81.04 L108.632,80.128 L108.92,80.128 C109.250668,80.128 109.509332,80.0933337 109.696,80.024 C109.882668,79.9546663 110.024,79.8480007 110.12,79.704 C110.216,79.5599993 110.285333,79.3706678 110.328,79.136 C110.370667,78.9013322 110.408,78.613335 110.44,78.272 L110.472,77.984 L111.304,77.984 L111.304,80.128 L113,80.128 L113,81.04 L111.304,81.04 L111.304,85.936 C111.304,86.3840022 111.370666,86.7066657 111.504,86.904 C111.637334,87.1013343 111.885332,87.2 112.248,87.2 C112.536001,87.2 112.802665,87.1360006 113.048,87.008 L113.192,87.968 C112.786665,88.1493342 112.338669,88.24 111.848,88.24 C111.463998,88.24 111.152001,88.1866672 110.912,88.08 C110.671999,87.9733328 110.482667,87.8293342 110.344,87.648 C110.205333,87.4666658 110.109334,87.2480013 110.056,86.992 C110.002666,86.7359987 109.976,86.4586682 109.976,86.16 L109.976,81.04 Z M118.888,81.04 L117.544,81.04 L117.544,80.128 L117.832,80.128 C118.162668,80.128 118.421332,80.0933337 118.608,80.024 C118.794668,79.9546663 118.936,79.8480007 119.032,79.704 C119.128,79.5599993 119.197333,79.3706678 119.24,79.136 C119.282667,78.9013322 119.32,78.613335 119.352,78.272 L119.384,77.984 L120.216,77.984 L120.216,80.128 L121.912,80.128 L121.912,81.04 L120.216,81.04 L120.216,85.936 C120.216,86.3840022 120.282666,86.7066657 120.416,86.904 C120.549334,87.1013343 120.797332,87.2 121.16,87.2 C121.448001,87.2 121.714665,87.1360006 121.96,87.008 L122.104,87.968 C121.698665,88.1493342 121.250669,88.24 120.76,88.24 C120.375998,88.24 120.064001,88.1866672 119.824,88.08 C119.583999,87.9733328 119.394667,87.8293342 119.256,87.648 C119.117333,87.4666658 119.021334,87.2480013 118.968,86.992 C118.914666,86.7359987 118.888,86.4586682 118.888,86.16 L118.888,81.04 Z M123.512,76.704 L124.84,76.704 L124.84,81.68 C124.936,81.4453322 125.058666,81.2213344 125.208,81.008 C125.357334,80.7946656 125.538666,80.6053342 125.752,80.44 C125.965334,80.2746658 126.210665,80.1440005 126.488,80.048 C126.765335,79.9519995 127.074665,79.904 127.416,79.904 C128.237337,79.904 128.842665,80.1733306 129.232,80.712 C129.621335,81.2506694 129.816,81.9786621 129.816,82.896 L129.816,88 L128.488,88 L128.488,83.104 C128.488,82.4319966 128.349335,81.9280017 128.072,81.592 C127.794665,81.2559983 127.400003,81.088 126.888,81.088 C126.589332,81.088 126.314668,81.1519994 126.064,81.28 C125.813332,81.4080006 125.597334,81.5893322 125.416,81.824 C125.234666,82.0586678 125.093334,82.3413317 124.992,82.672 C124.890666,83.0026683 124.84,83.3653314 124.84,83.76 L124.84,88 L123.512,88 L123.512,76.704 Z M132.84,84.368 C132.893334,85.2746712 133.125331,85.9759975 133.536,86.472 C133.946669,86.9680025 134.519996,87.216 135.256,87.216 C136.184005,87.216 136.882664,86.778671 137.352,85.904 L138.36,86.464 C138.050665,86.9866693 137.640003,87.4133317 137.128,87.744 C136.615997,88.0746683 135.970671,88.24 135.192,88.24 C134.57333,88.24 134.032002,88.1333344 133.568,87.92 C133.103998,87.7066656 132.717335,87.4133352 132.408,87.04 C132.098665,86.6666648 131.866667,86.2293358 131.712,85.728 C131.557333,85.2266642 131.48,84.6880029 131.48,84.112 C131.48,83.5466638 131.554666,83.0080026 131.704,82.496 C131.853334,81.9839974 132.079998,81.5360019 132.384,81.152 C132.688002,80.7679981 133.061331,80.4640011 133.504,80.24 C133.946669,80.0159989 134.466664,79.904 135.064,79.904 C135.640003,79.904 136.141331,80.0133322 136.568,80.232 C136.994669,80.4506678 137.349332,80.7439982 137.632,81.112 C137.914668,81.4800018 138.127999,81.9066642 138.272,82.392 C138.416001,82.8773358 138.488,83.3919973 138.488,83.936 C138.488,84.0533339 138.485333,84.1439997 138.48,84.208 C138.474667,84.2720003 138.472,84.3253331 138.472,84.368 L132.84,84.368 Z M135.048,80.912 C134.375997,80.912 133.856002,81.1519976 133.488,81.632 C133.119998,82.1120024 132.909334,82.7573293 132.856,83.568 L137.128,83.568 C137.128,83.2373317 137.090667,82.9146682 137.016,82.6 C136.941333,82.2853318 136.818668,82.0026679 136.648,81.752 C136.477332,81.5013321 136.261335,81.2986674 136,81.144 C135.738665,80.9893326 135.421335,80.912 135.048,80.912 Z M144.392,81.04 L143.048,81.04 L143.048,80.128 L143.336,80.128 C143.666668,80.128 143.925332,80.0933337 144.112,80.024 C144.298668,79.9546663 144.44,79.8480007 144.536,79.704 C144.632,79.5599993 144.701333,79.3706678 144.744,79.136 C144.786667,78.9013322 144.824,78.613335 144.856,78.272 L144.888,77.984 L145.72,77.984 L145.72,80.128 L147.416,80.128 L147.416,81.04 L145.72,81.04 L145.72,85.936 C145.72,86.3840022 145.786666,86.7066657 145.92,86.904 C146.053334,87.1013343 146.301332,87.2 146.664,87.2 C146.952001,87.2 147.218665,87.1360006 147.464,87.008 L147.608,87.968 C147.202665,88.1493342 146.754669,88.24 146.264,88.24 C145.879998,88.24 145.568001,88.1866672 145.328,88.08 C145.087999,87.9733328 144.898667,87.8293342 144.76,87.648 C144.621333,87.4666658 144.525334,87.2480013 144.472,86.992 C144.418666,86.7359987 144.392,86.4586682 144.392,86.16 L144.392,81.04 Z M148.84,89.68 C148.957334,89.7226669 149.090666,89.7599998 149.24,89.792 C149.389334,89.8240002 149.543999,89.84 149.704,89.84 C149.874668,89.84 150.021333,89.8160002 150.144,89.768 C150.266667,89.7199998 150.378666,89.6320006 150.48,89.504 C150.581334,89.3759994 150.677333,89.2053344 150.768,88.992 C150.858667,88.7786656 150.957333,88.501335 151.064,88.16 L148.392,80.128 L149.832,80.128 L151.752,86.64 L153.656,80.128 L155.096,80.128 L152.68,87.376 C152.477332,87.9946698 152.293334,88.5226645 152.128,88.96 C151.962666,89.3973355 151.778668,89.7573319 151.576,90.04 C151.373332,90.3226681 151.125335,90.530666 150.832,90.664 C150.538665,90.797334 150.162669,90.864 149.704,90.864 C149.522666,90.864 149.328001,90.8560001 149.12,90.84 C148.911999,90.8239999 148.749334,90.7946669 148.632,90.752 L148.84,89.68 Z M156.536,80.128 L157.864,80.128 L157.864,81.648 C157.96,81.4239989 158.082666,81.2053344 158.232,80.992 C158.381334,80.7786656 158.559999,80.5920008 158.768,80.432 C158.976001,80.2719992 159.218665,80.1440005 159.496,80.048 C159.773335,79.9519995 160.087998,79.904 160.44,79.904 C160.952003,79.904 161.397331,80.0106656 161.776,80.224 C162.154669,80.4373344 162.466665,80.7306648 162.712,81.104 C162.957335,81.4773352 163.141333,81.9119975 163.264,82.408 C163.386667,82.9040025 163.448,83.4399971 163.448,84.016 C163.448,84.6986701 163.368001,85.3013307 163.208,85.824 C163.047999,86.3466693 162.824001,86.7839982 162.536,87.136 C162.247999,87.4880018 161.912002,87.7546658 161.528,87.936 C161.143998,88.1173342 160.728002,88.208 160.28,88.208 C159.69333,88.208 159.189335,88.0640014 158.768,87.776 C158.346665,87.4879986 158.045334,87.1306688 157.864,86.704 L157.864,90.768 L156.536,90.768 L156.536,80.128 Z M157.864,84.112 C157.864,84.3360011 157.872,84.5413324 157.888,84.728 C157.904,84.9146676 157.922667,85.0719994 157.944,85.2 C157.986667,85.4560013 158.066666,85.7013322 158.184,85.936 C158.301334,86.1706678 158.445332,86.3759991 158.616,86.552 C158.786668,86.7280009 158.986666,86.8693328 159.216,86.976 C159.445334,87.0826672 159.698665,87.136 159.976,87.136 C160.338668,87.136 160.650665,87.0506675 160.912,86.88 C161.173335,86.7093325 161.389332,86.4800014 161.56,86.192 C161.730668,85.9039986 161.856,85.5760018 161.936,85.208 C162.016,84.8399982 162.056,84.4586686 162.056,84.064 C162.056,83.6693314 162.018667,83.2880018 161.944,82.92 C161.869333,82.5519982 161.749334,82.2266681 161.584,81.944 C161.418666,81.6613319 161.202668,81.4346675 160.936,81.264 C160.669332,81.0933325 160.349335,81.008 159.976,81.008 C159.687999,81.008 159.424001,81.0613328 159.184,81.168 C158.943999,81.2746672 158.738668,81.4186658 158.568,81.6 C158.397332,81.7813342 158.256001,81.9893322 158.144,82.224 C158.031999,82.4586678 157.96,82.7039987 157.928,82.96 C157.906667,83.0666672 157.890667,83.2133324 157.88,83.4 C157.869333,83.5866676 157.864,83.8026654 157.864,84.048 L157.864,84.112 Z M166.152,84.368 C166.205334,85.2746712 166.437331,85.9759975 166.848,86.472 C167.258669,86.9680025 167.831996,87.216 168.568,87.216 C169.496005,87.216 170.194664,86.778671 170.664,85.904 L171.672,86.464 C171.362665,86.9866693 170.952003,87.4133317 170.44,87.744 C169.927997,88.0746683 169.282671,88.24 168.504,88.24 C167.88533,88.24 167.344002,88.1333344 166.88,87.92 C166.415998,87.7066656 166.029335,87.4133352 165.72,87.04 C165.410665,86.6666648 165.178667,86.2293358 165.024,85.728 C164.869333,85.2266642 164.792,84.6880029 164.792,84.112 C164.792,83.5466638 164.866666,83.0080026 165.016,82.496 C165.165334,81.9839974 165.391998,81.5360019 165.696,81.152 C166.000002,80.7679981 166.373331,80.4640011 166.816,80.24 C167.258669,80.0159989 167.778664,79.904 168.376,79.904 C168.952003,79.904 169.453331,80.0133322 169.88,80.232 C170.306669,80.4506678 170.661332,80.7439982 170.944,81.112 C171.226668,81.4800018 171.439999,81.9066642 171.584,82.392 C171.728001,82.8773358 171.8,83.3919973 171.8,83.936 C171.8,84.0533339 171.797333,84.1439997 171.792,84.208 C171.786667,84.2720003 171.784,84.3253331 171.784,84.368 L166.152,84.368 Z M168.36,80.912 C167.687997,80.912 167.168002,81.1519976 166.8,81.632 C166.431998,82.1120024 166.221334,82.7573293 166.168,83.568 L170.44,83.568 C170.44,83.2373317 170.402667,82.9146682 170.328,82.6 C170.253333,82.2853318 170.130668,82.0026679 169.96,81.752 C169.789332,81.5013321 169.573335,81.2986674 169.312,81.144 C169.050665,80.9893326 168.733335,80.912 168.36,80.912 Z M180.28,88.24 C179.682664,88.24 179.157336,88.1306678 178.704,87.912 C178.250664,87.6933322 177.872002,87.3946686 177.568,87.016 C177.263998,86.6373314 177.037334,86.1946692 176.888,85.688 C176.738666,85.1813308 176.664,84.6346696 176.664,84.048 C176.664,83.4613304 176.741333,82.9173358 176.896,82.416 C177.050667,81.9146642 177.279998,81.4773352 177.584,81.104 C177.888002,80.7306648 178.266664,80.4373344 178.72,80.224 C179.173336,80.0106656 179.69333,79.904 180.28,79.904 C180.86667,79.904 181.386664,80.0106656 181.84,80.224 C182.293336,80.4373344 182.674665,80.7279982 182.984,81.096 C183.293335,81.4640018 183.525333,81.9013308 183.68,82.408 C183.834667,82.9146692 183.912,83.4613304 183.912,84.048 C183.912,84.6346696 183.834667,85.1813308 183.68,85.688 C183.525333,86.1946692 183.293335,86.6373314 182.984,87.016 C182.674665,87.3946686 182.293336,87.6933322 181.84,87.912 C181.386664,88.1306678 180.86667,88.24 180.28,88.24 Z M180.312,87.2 C180.674668,87.2 180.994665,87.1200008 181.272,86.96 C181.549335,86.7999992 181.778666,86.5786681 181.96,86.296 C182.141334,86.0133319 182.28,85.6800019 182.376,85.296 C182.472,84.9119981 182.52,84.4960022 182.52,84.048 C182.52,83.5999978 182.472,83.1866686 182.376,82.808 C182.28,82.4293314 182.136001,82.1013347 181.944,81.824 C181.751999,81.5466653 181.517335,81.3306674 181.24,81.176 C180.962665,81.0213326 180.642668,80.944 180.28,80.944 C179.906665,80.944 179.581335,81.0213326 179.304,81.176 C179.026665,81.3306674 178.797334,81.5466653 178.616,81.824 C178.434666,82.1013347 178.296,82.4293314 178.2,82.808 C178.104,83.1866686 178.056,83.5999978 178.056,84.048 C178.056,84.4960022 178.104,84.9119981 178.2,85.296 C178.296,85.6800019 178.437332,86.0133319 178.624,86.296 C178.810668,86.5786681 179.045332,86.7999992 179.328,86.96 C179.610668,87.1200008 179.938665,87.2 180.312,87.2 Z M186.28,81.04 L184.92,81.04 L184.92,80.128 L186.216,80.128 C186.130666,79.8506653 186.058667,79.5546682 186,79.24 C185.941333,78.9253318 185.912,78.6293347 185.912,78.352 C185.912,78.0959987 185.941333,77.8533345 186,77.624 C186.058667,77.3946655 186.162666,77.1920009 186.312,77.016 C186.461334,76.8399991 186.663999,76.6986672 186.92,76.592 C187.176001,76.4853328 187.501331,76.432 187.896,76.432 C188.184001,76.432 188.442666,76.4506665 188.672,76.488 C188.901334,76.5253335 189.117332,76.5866662 189.32,76.672 L189.096,77.68 C188.978666,77.6266664 188.832001,77.5813335 188.656,77.544 C188.479999,77.5066665 188.317334,77.488 188.168,77.488 C187.559997,77.488 187.256,77.8399965 187.256,78.544 C187.256,78.8213347 187.290666,79.1093318 187.36,79.408 C187.429334,79.7066682 187.501333,79.9466658 187.576,80.128 L189.096,80.128 L189.096,81.04 L187.624,81.04 L187.624,88 L186.28,88 L186.28,81.04 Z M200.616,86.272 C200.295998,86.9120032 199.866669,87.3999983 199.328,87.736 C198.789331,88.0720017 198.136004,88.24 197.368,88.24 C196.738664,88.24 196.192002,88.1306678 195.728,87.912 C195.263998,87.6933322 194.880002,87.3973352 194.576,87.024 C194.271998,86.6506648 194.048001,86.2106692 193.904,85.704 C193.759999,85.1973308 193.688,84.6560029 193.688,84.08 C193.688,83.4933304 193.765333,82.9466692 193.92,82.44 C194.074667,81.9333308 194.303998,81.4933352 194.608,81.12 C194.912002,80.7466648 195.293331,80.4506678 195.752,80.232 C196.210669,80.0133322 196.74933,79.904 197.368,79.904 C198.146671,79.904 198.794664,80.0773316 199.312,80.424 C199.829336,80.7706684 200.247998,81.2586635 200.568,81.888 L199.448,82.416 C199.042665,81.4346618 198.360005,80.944 197.4,80.944 C196.994665,80.944 196.645335,81.0239992 196.352,81.184 C196.058665,81.3440008 195.818668,81.5626653 195.632,81.84 C195.445332,82.1173347 195.306667,82.4399982 195.216,82.808 C195.125333,83.1760018 195.08,83.5733312 195.08,84 C195.08,84.4053354 195.122666,84.7999981 195.208,85.184 C195.293334,85.5680019 195.431999,85.9093318 195.624,86.208 C195.816001,86.5066682 196.061332,86.7466658 196.36,86.928 C196.658668,87.1093342 197.026664,87.2 197.464,87.2 C198.018669,87.2 198.466665,87.0586681 198.808,86.776 C199.149335,86.4933319 199.410666,86.1280022 199.592,85.68 L200.616,86.272 Z M205.352,88.24 C204.754664,88.24 204.229336,88.1306678 203.776,87.912 C203.322664,87.6933322 202.944002,87.3946686 202.64,87.016 C202.335998,86.6373314 202.109334,86.1946692 201.96,85.688 C201.810666,85.1813308 201.736,84.6346696 201.736,84.048 C201.736,83.4613304 201.813333,82.9173358 201.968,82.416 C202.122667,81.9146642 202.351998,81.4773352 202.656,81.104 C202.960002,80.7306648 203.338664,80.4373344 203.792,80.224 C204.245336,80.0106656 204.76533,79.904 205.352,79.904 C205.93867,79.904 206.458664,80.0106656 206.912,80.224 C207.365336,80.4373344 207.746665,80.7279982 208.056,81.096 C208.365335,81.4640018 208.597333,81.9013308 208.752,82.408 C208.906667,82.9146692 208.984,83.4613304 208.984,84.048 C208.984,84.6346696 208.906667,85.1813308 208.752,85.688 C208.597333,86.1946692 208.365335,86.6373314 208.056,87.016 C207.746665,87.3946686 207.365336,87.6933322 206.912,87.912 C206.458664,88.1306678 205.93867,88.24 205.352,88.24 Z M205.384,87.2 C205.746668,87.2 206.066665,87.1200008 206.344,86.96 C206.621335,86.7999992 206.850666,86.5786681 207.032,86.296 C207.213334,86.0133319 207.352,85.6800019 207.448,85.296 C207.544,84.9119981 207.592,84.4960022 207.592,84.048 C207.592,83.5999978 207.544,83.1866686 207.448,82.808 C207.352,82.4293314 207.208001,82.1013347 207.016,81.824 C206.823999,81.5466653 206.589335,81.3306674 206.312,81.176 C206.034665,81.0213326 205.714668,80.944 205.352,80.944 C204.978665,80.944 204.653335,81.0213326 204.376,81.176 C204.098665,81.3306674 203.869334,81.5466653 203.688,81.824 C203.506666,82.1013347 203.368,82.4293314 203.272,82.808 C203.176,83.1866686 203.128,83.5999978 203.128,84.048 C203.128,84.4960022 203.176,84.9119981 203.272,85.296 C203.368,85.6800019 203.509332,86.0133319 203.696,86.296 C203.882668,86.5786681 204.117332,86.7999992 204.4,86.96 C204.682668,87.1200008 205.010665,87.2 205.384,87.2 Z M210.68,80.128 L211.832,80.128 L211.96,81.888 C212.184001,81.3119971 212.541331,80.8373352 213.032,80.464 C213.522669,80.0906648 214.103997,79.904 214.776,79.904 L214.776,81.312 C214.626666,81.2799998 214.461334,81.264 214.28,81.264 C214.013332,81.264 213.746668,81.3119995 213.48,81.408 C213.213332,81.5040005 212.970668,81.6586656 212.752,81.872 C212.533332,82.0853344 212.354667,82.3599983 212.216,82.696 C212.077333,83.0320017 212.008,83.4399976 212.008,83.92 L212.008,88 L210.68,88 L210.68,80.128 Z M216.088,80.128 L217.24,80.128 L217.368,81.888 C217.592001,81.3119971 217.949331,80.8373352 218.44,80.464 C218.930669,80.0906648 219.511997,79.904 220.184,79.904 L220.184,81.312 C220.034666,81.2799998 219.869334,81.264 219.688,81.264 C219.421332,81.264 219.154668,81.3119995 218.888,81.408 C218.621332,81.5040005 218.378668,81.6586656 218.16,81.872 C217.941332,82.0853344 217.762667,82.3599983 217.624,82.696 C217.485333,83.0320017 217.416,83.4399976 217.416,83.92 L217.416,88 L216.088,88 L216.088,80.128 Z M222.504,84.368 C222.557334,85.2746712 222.789331,85.9759975 223.2,86.472 C223.610669,86.9680025 224.183996,87.216 224.92,87.216 C225.848005,87.216 226.546664,86.778671 227.016,85.904 L228.024,86.464 C227.714665,86.9866693 227.304003,87.4133317 226.792,87.744 C226.279997,88.0746683 225.634671,88.24 224.856,88.24 C224.23733,88.24 223.696002,88.1333344 223.232,87.92 C222.767998,87.7066656 222.381335,87.4133352 222.072,87.04 C221.762665,86.6666648 221.530667,86.2293358 221.376,85.728 C221.221333,85.2266642 221.144,84.6880029 221.144,84.112 C221.144,83.5466638 221.218666,83.0080026 221.368,82.496 C221.517334,81.9839974 221.743998,81.5360019 222.048,81.152 C222.352002,80.7679981 222.725331,80.4640011 223.168,80.24 C223.610669,80.0159989 224.130664,79.904 224.728,79.904 C225.304003,79.904 225.805331,80.0133322 226.232,80.232 C226.658669,80.4506678 227.013332,80.7439982 227.296,81.112 C227.578668,81.4800018 227.791999,81.9066642 227.936,82.392 C228.080001,82.8773358 228.152,83.3919973 228.152,83.936 C228.152,84.0533339 228.149333,84.1439997 228.144,84.208 C228.138667,84.2720003 228.136,84.3253331 228.136,84.368 L222.504,84.368 Z M224.712,80.912 C224.039997,80.912 223.520002,81.1519976 223.152,81.632 C222.783998,82.1120024 222.573334,82.7573293 222.52,83.568 L226.792,83.568 C226.792,83.2373317 226.754667,82.9146682 226.68,82.6 C226.605333,82.2853318 226.482668,82.0026679 226.312,81.752 C226.141332,81.5013321 225.925335,81.2986674 225.664,81.144 C225.402665,80.9893326 225.085335,80.912 224.712,80.912 Z M236.344,86.272 C236.023998,86.9120032 235.594669,87.3999983 235.056,87.736 C234.517331,88.0720017 233.864004,88.24 233.096,88.24 C232.466664,88.24 231.920002,88.1306678 231.456,87.912 C230.991998,87.6933322 230.608002,87.3973352 230.304,87.024 C229.999998,86.6506648 229.776001,86.2106692 229.632,85.704 C229.487999,85.1973308 229.416,84.6560029 229.416,84.08 C229.416,83.4933304 229.493333,82.9466692 229.648,82.44 C229.802667,81.9333308 230.031998,81.4933352 230.336,81.12 C230.640002,80.7466648 231.021331,80.4506678 231.48,80.232 C231.938669,80.0133322 232.47733,79.904 233.096,79.904 C233.874671,79.904 234.522664,80.0773316 235.04,80.424 C235.557336,80.7706684 235.975998,81.2586635 236.296,81.888 L235.176,82.416 C234.770665,81.4346618 234.088005,80.944 233.128,80.944 C232.722665,80.944 232.373335,81.0239992 232.08,81.184 C231.786665,81.3440008 231.546668,81.5626653 231.36,81.84 C231.173332,82.1173347 231.034667,82.4399982 230.944,82.808 C230.853333,83.1760018 230.808,83.5733312 230.808,84 C230.808,84.4053354 230.850666,84.7999981 230.936,85.184 C231.021334,85.5680019 231.159999,85.9093318 231.352,86.208 C231.544001,86.5066682 231.789332,86.7466658 232.088,86.928 C232.386668,87.1093342 232.754664,87.2 233.192,87.2 C233.746669,87.2 234.194665,87.0586681 234.536,86.776 C234.877335,86.4933319 235.138666,86.1280022 235.32,85.68 L236.344,86.272 Z M238.504,81.04 L237.16,81.04 L237.16,80.128 L237.448,80.128 C237.778668,80.128 238.037332,80.0933337 238.224,80.024 C238.410668,79.9546663 238.552,79.8480007 238.648,79.704 C238.744,79.5599993 238.813333,79.3706678 238.856,79.136 C238.898667,78.9013322 238.936,78.613335 238.968,78.272 L239,77.984 L239.832,77.984 L239.832,80.128 L241.528,80.128 L241.528,81.04 L239.832,81.04 L239.832,85.936 C239.832,86.3840022 239.898666,86.7066657 240.032,86.904 C240.165334,87.1013343 240.413332,87.2 240.776,87.2 C241.064001,87.2 241.330665,87.1360006 241.576,87.008 L241.72,87.968 C241.314665,88.1493342 240.866669,88.24 240.376,88.24 C239.991998,88.24 239.680001,88.1866672 239.44,88.08 C239.199999,87.9733328 239.010667,87.8293342 238.872,87.648 C238.733333,87.4666658 238.637334,87.2480013 238.584,86.992 C238.530666,86.7359987 238.504,86.4586682 238.504,86.16 L238.504,81.04 Z M243.128,77.072 L244.456,77.072 L244.456,78.4 L243.128,78.4 L243.128,77.072 Z M243.128,80.128 L244.456,80.128 L244.456,88 L243.128,88 L243.128,80.128 Z M249.768,88.24 C249.170664,88.24 248.645336,88.1306678 248.192,87.912 C247.738664,87.6933322 247.360002,87.3946686 247.056,87.016 C246.751998,86.6373314 246.525334,86.1946692 246.376,85.688 C246.226666,85.1813308 246.152,84.6346696 246.152,84.048 C246.152,83.4613304 246.229333,82.9173358 246.384,82.416 C246.538667,81.9146642 246.767998,81.4773352 247.072,81.104 C247.376002,80.7306648 247.754664,80.4373344 248.208,80.224 C248.661336,80.0106656 249.18133,79.904 249.768,79.904 C250.35467,79.904 250.874664,80.0106656 251.328,80.224 C251.781336,80.4373344 252.162665,80.7279982 252.472,81.096 C252.781335,81.4640018 253.013333,81.9013308 253.168,82.408 C253.322667,82.9146692 253.4,83.4613304 253.4,84.048 C253.4,84.6346696 253.322667,85.1813308 253.168,85.688 C253.013333,86.1946692 252.781335,86.6373314 252.472,87.016 C252.162665,87.3946686 251.781336,87.6933322 251.328,87.912 C250.874664,88.1306678 250.35467,88.24 249.768,88.24 Z M249.8,87.2 C250.162668,87.2 250.482665,87.1200008 250.76,86.96 C251.037335,86.7999992 251.266666,86.5786681 251.448,86.296 C251.629334,86.0133319 251.768,85.6800019 251.864,85.296 C251.96,84.9119981 252.008,84.4960022 252.008,84.048 C252.008,83.5999978 251.96,83.1866686 251.864,82.808 C251.768,82.4293314 251.624001,82.1013347 251.432,81.824 C251.239999,81.5466653 251.005335,81.3306674 250.728,81.176 C250.450665,81.0213326 250.130668,80.944 249.768,80.944 C249.394665,80.944 249.069335,81.0213326 248.792,81.176 C248.514665,81.3306674 248.285334,81.5466653 248.104,81.824 C247.922666,82.1013347 247.784,82.4293314 247.688,82.808 C247.592,83.1866686 247.544,83.5999978 247.544,84.048 C247.544,84.4960022 247.592,84.9119981 247.688,85.296 C247.784,85.6800019 247.925332,86.0133319 248.112,86.296 C248.298668,86.5786681 248.533332,86.7999992 248.816,86.96 C249.098668,87.1200008 249.426665,87.2 249.8,87.2 Z M255.096,80.128 L256.248,80.128 L256.392,81.696 C256.594668,81.2159976 256.917331,80.7973351 257.36,80.44 C257.802669,80.0826649 258.34933,79.904 259,79.904 C259.821337,79.904 260.426665,80.1653307 260.816,80.688 C261.205335,81.2106693 261.4,81.9413286 261.4,82.88 L261.4,88 L260.072,88 L260.072,83.152 C260.072,82.4373298 259.928001,81.9120017 259.64,81.576 C259.351999,81.2399983 258.962669,81.072 258.472,81.072 C257.88533,81.072 257.397335,81.3119976 257.008,81.792 C256.618665,82.2720024 256.424,82.949329 256.424,83.824 L256.424,88 L255.096,88 L255.096,80.128 Z" id="Please-select-the-ty" fill="#4C5358"></path>
                    <path d="M27.864,27.116 L29.026,27.116 L32.512,37 L31.196,37 L30.314,34.34 L26.506,34.34 L25.624,37 L24.35,37 L27.864,27.116 Z M29.978,33.374 C29.7166654,32.5619959 29.4576679,31.7663372 29.201,30.987 C28.944332,30.2076628 28.6853346,29.388671 28.424,28.53 C28.1813321,29.3700042 27.924668,30.1843294 27.654,30.973 C27.383332,31.7616706 27.112668,32.5619959 26.842,33.374 L29.978,33.374 Z M33.758,27.438 L34.92,27.438 L34.92,28.6 L33.758,28.6 L33.758,27.438 Z M33.758,30.112 L34.92,30.112 L34.92,37 L33.758,37 L33.758,30.112 Z M36.712,30.112 L37.72,30.112 L37.832,31.652 C38.028001,31.1479975 38.3406645,30.7326683 38.77,30.406 C39.1993355,30.0793317 39.7079971,29.916 40.296,29.916 L40.296,31.148 C40.1653327,31.1199999 40.0206675,31.106 39.862,31.106 C39.6286655,31.106 39.3953345,31.1479996 39.162,31.232 C38.9286655,31.3160004 38.7163343,31.4513324 38.525,31.638 C38.3336657,31.8246676 38.1773339,32.0649985 38.056,32.359 C37.9346661,32.6530015 37.874,33.0099979 37.874,33.43 L37.874,37 L36.712,37 L36.712,30.112 Z M50.348,35.488 C50.0679986,36.0480028 49.6923357,36.4749985 49.221,36.769 C48.7496643,37.0630015 48.1780034,37.21 47.506,37.21 C46.9553306,37.21 46.477002,37.1143343 46.071,36.923 C45.664998,36.7316657 45.3290013,36.4726683 45.063,36.146 C44.7969987,35.8193317 44.6010006,35.4343355 44.475,34.991 C44.3489994,34.5476644 44.286,34.0740025 44.286,33.57 C44.286,33.0566641 44.353666,32.5783355 44.489,32.135 C44.624334,31.6916644 44.8249987,31.3066683 45.091,30.98 C45.3570013,30.6533317 45.6906647,30.3943343 46.092,30.203 C46.4933353,30.0116657 46.964664,29.916 47.506,29.916 C48.1873367,29.916 48.7543311,30.0676651 49.207,30.371 C49.6596689,30.6743348 50.0259986,31.1013306 50.306,31.652 L49.326,32.114 C48.9713316,31.255329 48.3740042,30.826 47.534,30.826 C47.1793316,30.826 46.8736679,30.8959993 46.617,31.036 C46.360332,31.1760007 46.1503341,31.3673321 45.987,31.61 C45.8236658,31.8526679 45.7023337,32.1349984 45.623,32.457 C45.5436663,32.7790016 45.504,33.1266648 45.504,33.5 C45.504,33.8546684 45.541333,34.1999983 45.616,34.536 C45.690667,34.8720017 45.8119992,35.1706654 45.98,35.432 C46.1480008,35.6933346 46.3626654,35.9033325 46.624,36.062 C46.8853346,36.2206675 47.2073314,36.3 47.59,36.3 C48.0753358,36.3 48.4673318,36.1763346 48.766,35.929 C49.0646682,35.6816654 49.2933325,35.362002 49.452,34.97 L50.348,35.488 Z M54.492,37.21 C53.9693307,37.21 53.5096686,37.1143343 53.113,36.923 C52.7163313,36.7316657 52.3850013,36.470335 52.119,36.139 C51.8529987,35.807665 51.6546673,35.4203355 51.524,34.977 C51.3933327,34.5336644 51.328,34.0553359 51.328,33.542 C51.328,33.0286641 51.395666,32.5526689 51.531,32.114 C51.666334,31.6753311 51.8669987,31.2926683 52.133,30.966 C52.3990013,30.6393317 52.7303313,30.3826676 53.127,30.196 C53.5236686,30.0093324 53.9786641,29.916 54.492,29.916 C55.0053359,29.916 55.4603313,30.0093324 55.857,30.196 C56.2536686,30.3826676 56.587332,30.6369984 56.858,30.959 C57.128668,31.2810016 57.331666,31.6636644 57.467,32.107 C57.602334,32.5503355 57.67,33.0286641 57.67,33.542 C57.67,34.0553359 57.602334,34.5336644 57.467,34.977 C57.331666,35.4203355 57.128668,35.807665 56.858,36.139 C56.587332,36.470335 56.2536686,36.7316657 55.857,36.923 C55.4603313,37.1143343 55.0053359,37.21 54.492,37.21 Z M54.52,36.3 C54.8373349,36.3 55.1173321,36.2300007 55.36,36.09 C55.6026679,35.9499993 55.8033325,35.7563346 55.962,35.509 C56.1206675,35.2616654 56.2419996,34.9700017 56.326,34.634 C56.4100004,34.2979983 56.452,33.934002 56.452,33.542 C56.452,33.149998 56.4100004,32.788335 56.326,32.457 C56.2419996,32.125665 56.1160008,31.8386679 55.948,31.596 C55.7799992,31.3533321 55.5746679,31.164334 55.332,31.029 C55.0893321,30.893666 54.8093349,30.826 54.492,30.826 C54.1653317,30.826 53.8806679,30.893666 53.638,31.029 C53.3953321,31.164334 53.1946675,31.3533321 53.036,31.596 C52.8773325,31.8386679 52.7560004,32.125665 52.672,32.457 C52.5879996,32.788335 52.546,33.149998 52.546,33.542 C52.546,33.934002 52.5879996,34.2979983 52.672,34.634 C52.7560004,34.9700017 52.8796658,35.2616654 53.043,35.509 C53.2063341,35.7563346 53.4116654,35.9499993 53.659,36.09 C53.9063346,36.2300007 54.1933317,36.3 54.52,36.3 Z M59.154,30.112 L60.162,30.112 L60.288,31.484 C60.4653342,31.0639979 60.7476647,30.6976682 61.135,30.385 C61.5223353,30.0723318 62.0006638,29.916 62.57,29.916 C63.2886703,29.916 63.8183316,30.1446644 64.159,30.602 C64.4996684,31.0593356 64.67,31.6986626 64.67,32.52 L64.67,37 L63.508,37 L63.508,32.758 C63.508,32.1326635 63.3820013,31.6730015 63.13,31.379 C62.8779987,31.0849985 62.5373355,30.938 62.108,30.938 C61.5946641,30.938 61.1676684,31.1479979 60.827,31.568 C60.4863316,31.9880021 60.316,32.5806628 60.316,33.346 L60.316,37 L59.154,37 L59.154,30.112 Z M71.068,35.656 C70.8813324,36.122669 70.6060018,36.491332 70.242,36.762 C69.8779982,37.032668 69.425336,37.168 68.884,37.168 C68.4546645,37.168 68.0696684,37.0793342 67.729,36.902 C67.3883316,36.7246658 67.0990012,36.4773349 66.861,36.16 C66.6229988,35.8426651 66.4410006,35.4600022 66.315,35.012 C66.1889994,34.5639978 66.126,34.069336 66.126,33.528 C66.126,32.9679972 66.1913327,32.4663355 66.322,32.023 C66.4526673,31.5796644 66.6393321,31.2040015 66.882,30.896 C67.1246679,30.5879985 67.4163316,30.3500008 67.757,30.182 C68.0976684,30.0139992 68.4733313,29.93 68.884,29.93 C69.4440028,29.93 69.9013316,30.0629987 70.256,30.329 C70.6106684,30.5950013 70.8626659,30.9146648 71.012,31.288 L71.012,27.116 L72.188,27.116 L72.188,37 L71.068,37 L71.068,35.656 Z M71.012,33.514 C71.012,33.2246652 71.0050001,32.9983341 70.991,32.835 C70.9769999,32.6716658 70.9606668,32.5386672 70.942,32.436 C70.8953331,32.2306656 70.8253338,32.0346676 70.732,31.848 C70.6386662,31.6613324 70.5196674,31.4956674 70.375,31.351 C70.2303326,31.2063326 70.060001,31.0920004 69.864,31.008 C69.667999,30.9239996 69.4440013,30.882 69.192,30.882 C68.8746651,30.882 68.6016678,30.9519993 68.373,31.092 C68.1443322,31.2320007 67.9530008,31.4209988 67.799,31.659 C67.6449992,31.8970012 67.530667,32.1769984 67.456,32.499 C67.381333,32.8210016 67.344,33.1639982 67.344,33.528 C67.344,33.920002 67.3859996,34.281665 67.47,34.613 C67.5540004,34.944335 67.6753325,35.2289988 67.834,35.467 C67.9926675,35.7050012 68.1886655,35.891666 68.422,36.027 C68.6553345,36.162334 68.9213318,36.23 69.22,36.23 C69.4533345,36.23 69.6656657,36.1880004 69.857,36.104 C70.0483343,36.0199996 70.2163326,35.9033341 70.361,35.754 C70.5056674,35.6046659 70.6246662,35.4343343 70.718,35.243 C70.8113338,35.0516657 70.8813331,34.8486677 70.928,34.634 C70.9840003,34.3726654 71.012,34.0226689 71.012,33.584 L71.012,33.514 Z M73.966,27.438 L75.128,27.438 L75.128,28.6 L73.966,28.6 L73.966,27.438 Z M73.966,30.112 L75.128,30.112 L75.128,37 L73.966,37 L73.966,30.112 Z M77.522,30.91 L76.346,30.91 L76.346,30.112 L76.598,30.112 C76.8873348,30.112 77.1136658,30.081667 77.277,30.021 C77.4403341,29.960333 77.5639996,29.8670006 77.648,29.741 C77.7320004,29.6149994 77.7926665,29.4493344 77.83,29.244 C77.8673335,29.0386656 77.8999999,28.7866682 77.928,28.488 L77.956,28.236 L78.684,28.236 L78.684,30.112 L80.168,30.112 L80.168,30.91 L78.684,30.91 L78.684,35.194 C78.684,35.586002 78.7423327,35.8683325 78.859,36.041 C78.9756672,36.2136675 79.1926651,36.3 79.51,36.3 C79.7620013,36.3 79.9953323,36.2440006 80.21,36.132 L80.336,36.972 C79.9813316,37.1306675 79.5893355,37.21 79.16,37.21 C78.8239983,37.21 78.551001,37.1633338 78.341,37.07 C78.1309989,36.9766662 77.9653339,36.8506675 77.844,36.692 C77.7226661,36.5333325 77.6386669,36.3420011 77.592,36.118 C77.5453331,35.8939989 77.522,35.6513346 77.522,35.39 L77.522,30.91 Z M81.568,27.438 L82.73,27.438 L82.73,28.6 L81.568,28.6 L81.568,27.438 Z M81.568,30.112 L82.73,30.112 L82.73,37 L81.568,37 L81.568,30.112 Z M87.378,37.21 C86.8553307,37.21 86.3956686,37.1143343 85.999,36.923 C85.6023313,36.7316657 85.2710013,36.470335 85.005,36.139 C84.7389987,35.807665 84.5406673,35.4203355 84.41,34.977 C84.2793327,34.5336644 84.214,34.0553359 84.214,33.542 C84.214,33.0286641 84.281666,32.5526689 84.417,32.114 C84.552334,31.6753311 84.7529987,31.2926683 85.019,30.966 C85.2850013,30.6393317 85.6163313,30.3826676 86.013,30.196 C86.4096686,30.0093324 86.8646641,29.916 87.378,29.916 C87.8913359,29.916 88.3463313,30.0093324 88.743,30.196 C89.1396686,30.3826676 89.473332,30.6369984 89.744,30.959 C90.014668,31.2810016 90.217666,31.6636644 90.353,32.107 C90.488334,32.5503355 90.556,33.0286641 90.556,33.542 C90.556,34.0553359 90.488334,34.5336644 90.353,34.977 C90.217666,35.4203355 90.014668,35.807665 89.744,36.139 C89.473332,36.470335 89.1396686,36.7316657 88.743,36.923 C88.3463313,37.1143343 87.8913359,37.21 87.378,37.21 Z M87.406,36.3 C87.7233349,36.3 88.0033321,36.2300007 88.246,36.09 C88.4886679,35.9499993 88.6893325,35.7563346 88.848,35.509 C89.0066675,35.2616654 89.1279996,34.9700017 89.212,34.634 C89.2960004,34.2979983 89.338,33.934002 89.338,33.542 C89.338,33.149998 89.2960004,32.788335 89.212,32.457 C89.1279996,32.125665 89.0020008,31.8386679 88.834,31.596 C88.6659992,31.3533321 88.4606679,31.164334 88.218,31.029 C87.9753321,30.893666 87.6953349,30.826 87.378,30.826 C87.0513317,30.826 86.7666679,30.893666 86.524,31.029 C86.2813321,31.164334 86.0806675,31.3533321 85.922,31.596 C85.7633325,31.8386679 85.6420004,32.125665 85.558,32.457 C85.4739996,32.788335 85.432,33.149998 85.432,33.542 C85.432,33.934002 85.4739996,34.2979983 85.558,34.634 C85.6420004,34.9700017 85.7656658,35.2616654 85.929,35.509 C86.0923341,35.7563346 86.2976654,35.9499993 86.545,36.09 C86.7923346,36.2300007 87.0793317,36.3 87.406,36.3 Z M92.04,30.112 L93.048,30.112 L93.174,31.484 C93.3513342,31.0639979 93.6336647,30.6976682 94.021,30.385 C94.4083353,30.0723318 94.8866638,29.916 95.456,29.916 C96.1746703,29.916 96.7043316,30.1446644 97.045,30.602 C97.3856684,31.0593356 97.556,31.6986626 97.556,32.52 L97.556,37 L96.394,37 L96.394,32.758 C96.394,32.1326635 96.2680013,31.6730015 96.016,31.379 C95.7639987,31.0849985 95.4233355,30.938 94.994,30.938 C94.4806641,30.938 94.0536684,31.1479979 93.713,31.568 C93.3723316,31.9880021 93.202,32.5806628 93.202,33.346 L93.202,37 L92.04,37 L92.04,30.112 Z M100.202,33.822 C100.248667,34.6153373 100.451665,35.2289978 100.811,35.663 C101.170335,36.0970022 101.671997,36.314 102.316,36.314 C103.128004,36.314 103.739331,35.9313372 104.15,35.166 L105.032,35.656 C104.761332,36.1133356 104.402002,36.4866652 103.954,36.776 C103.505998,37.0653348 102.941337,37.21 102.26,37.21 C101.718664,37.21 101.245002,37.1166676 100.839,36.93 C100.432998,36.7433324 100.094668,36.4866683 99.824,36.16 C99.553332,35.8333317 99.350334,35.4506689 99.215,35.012 C99.079666,34.5733311 99.012,34.1020025 99.012,33.598 C99.012,33.1033309 99.0773327,32.6320022 99.208,32.184 C99.3386673,31.7359978 99.5369987,31.3440017 99.803,31.008 C100.069001,30.6719983 100.395665,30.406001 100.783,30.21 C101.170335,30.013999 101.625331,29.916 102.148,29.916 C102.652003,29.916 103.090665,30.0116657 103.464,30.203 C103.837335,30.3943343 104.147665,30.6509984 104.395,30.973 C104.642335,31.2950016 104.828999,31.6683312 104.955,32.093 C105.081001,32.5176688 105.144,32.9679976 105.144,33.444 C105.144,33.5466672 105.141667,33.6259997 105.137,33.682 C105.132333,33.7380003 105.13,33.7846665 105.13,33.822 L100.202,33.822 Z M102.134,30.798 C101.545997,30.798 101.091002,31.0079979 100.769,31.428 C100.446998,31.8480021 100.262667,32.4126631 100.216,33.122 L103.954,33.122 C103.954,32.8326652 103.921334,32.5503347 103.856,32.275 C103.790666,31.9996653 103.683334,31.7523344 103.534,31.533 C103.384666,31.3136656 103.195668,31.136334 102.967,31.001 C102.738332,30.865666 102.460668,30.798 102.134,30.798 Z M106.558,30.112 L107.566,30.112 L107.678,31.652 C107.874001,31.1479975 108.186665,30.7326683 108.616,30.406 C109.045335,30.0793317 109.553997,29.916 110.142,29.916 L110.142,31.148 C110.011333,31.1199999 109.866667,31.106 109.708,31.106 C109.474665,31.106 109.241334,31.1479996 109.008,31.232 C108.774665,31.3160004 108.562334,31.4513324 108.371,31.638 C108.179666,31.8246676 108.023334,32.0649985 107.902,32.359 C107.780666,32.6530015 107.72,33.0099979 107.72,33.43 L107.72,37 L106.558,37 L106.558,30.112 Z" id="Air-conditioner" fill="#4C5358"></path>
                    <g id="Buttons/Button-Container" transform="translate(216.000000, 188.000000)">
                        <g id="Button-default">
                            <g id="Bg">
                                <use fill="#0D78AA" fill-rule="evenodd" xlink:href="#path-3"></use>
                                <rect stroke="#0D78AA" stroke-width="1" x="0.5" y="0.5" width="110" height="43" rx="3"></rect>
                            </g>
                            <path d="M42.636,24.616 C42.1666643,25.5120045 41.569337,26.1733312 40.844,26.6 C40.118663,27.0266688 39.222672,27.24 38.156,27.24 C37.3133291,27.24 36.5693366,27.0880015 35.924,26.784 C35.2786634,26.4799985 34.7400022,26.061336 34.308,25.528 C33.8759978,24.994664 33.5506678,24.365337 33.332,23.64 C33.1133322,22.914663 33.004,22.1360042 33.004,21.304 C33.004,20.4613291 33.1159989,19.6853369 33.34,18.976 C33.5640011,18.2666631 33.8946645,17.6506693 34.332,17.128 C34.7693355,16.6053307 35.3079968,16.1973348 35.948,15.904 C36.5880032,15.6106652 37.3239958,15.464 38.156,15.464 C39.1160048,15.464 39.9639963,15.6533314 40.7,16.032 C41.4360037,16.4106686 42.0493309,17.0053293 42.54,17.816 L41.18,18.504 C40.8706651,17.9386638 40.4600026,17.4986682 39.948,17.184 C39.4359974,16.8693318 38.8386701,16.712 38.156,16.712 C37.5586637,16.712 37.0333356,16.8319988 36.58,17.072 C36.1266644,17.3120012 35.7480015,17.6373313 35.444,18.048 C35.1399985,18.4586687 34.9106674,18.9439972 34.756,19.504 C34.6013326,20.0640028 34.524,20.6639968 34.524,21.304 C34.524,21.9440032 34.6039992,22.5493305 34.764,23.12 C34.9240008,23.6906695 35.1559985,24.1893312 35.46,24.616 C35.7640015,25.0426688 36.1426644,25.3786654 36.596,25.624 C37.0493356,25.8693346 37.5693304,25.992 38.156,25.992 C39.6386741,25.992 40.6786637,25.3040069 41.276,23.928 L42.636,24.616 Z M44.3,19.128 L45.452,19.128 L45.58,20.888 C45.8040011,20.3119971 46.1613309,19.8373352 46.652,19.464 C47.1426691,19.0906648 47.7239966,18.904 48.396,18.904 L48.396,20.312 C48.2466659,20.2799998 48.0813342,20.264 47.9,20.264 C47.633332,20.264 47.366668,20.3119995 47.1,20.408 C46.833332,20.5040005 46.5906678,20.6586656 46.372,20.872 C46.1533322,21.0853344 45.9746674,21.3599983 45.836,21.696 C45.6973326,22.0320017 45.628,22.4399976 45.628,22.92 L45.628,27 L44.3,27 L44.3,19.128 Z M50.716,23.368 C50.7693336,24.2746712 51.0013313,24.9759975 51.412,25.472 C51.8226687,25.9680025 52.3959963,26.216 53.132,26.216 C54.0600046,26.216 54.7586643,25.778671 55.228,24.904 L56.236,25.464 C55.9266651,25.9866693 55.5160026,26.4133317 55.004,26.744 C54.4919974,27.0746683 53.8466706,27.24 53.068,27.24 C52.4493302,27.24 51.9080023,27.1333344 51.444,26.92 C50.9799977,26.7066656 50.5933349,26.4133352 50.284,26.04 C49.9746651,25.6666648 49.7426674,25.2293358 49.588,24.728 C49.4333326,24.2266642 49.356,23.6880029 49.356,23.112 C49.356,22.5466638 49.4306659,22.0080026 49.58,21.496 C49.7293341,20.9839974 49.9559985,20.5360019 50.26,20.152 C50.5640015,19.7679981 50.9373311,19.4640011 51.38,19.24 C51.8226689,19.0159989 52.3426637,18.904 52.94,18.904 C53.5160029,18.904 54.0173312,19.0133322 54.444,19.232 C54.8706688,19.4506678 55.2253319,19.7439982 55.508,20.112 C55.7906681,20.4800018 56.0039993,20.9066642 56.148,21.392 C56.2920007,21.8773358 56.364,22.3919973 56.364,22.936 C56.364,23.0533339 56.3613334,23.1439997 56.356,23.208 C56.3506666,23.2720003 56.348,23.3253331 56.348,23.368 L50.716,23.368 Z M52.924,19.912 C52.2519966,19.912 51.7320018,20.1519976 51.364,20.632 C50.9959982,21.1120024 50.7853336,21.7573293 50.732,22.568 L55.004,22.568 C55.004,22.2373317 54.966667,21.9146682 54.892,21.6 C54.817333,21.2853318 54.6946675,21.0026679 54.524,20.752 C54.3533325,20.5013321 54.1373346,20.2986674 53.876,20.144 C53.6146654,19.9893326 53.2973352,19.912 52.924,19.912 Z M62.924,27 C62.8066661,26.6159981 62.7373334,26.157336 62.716,25.624 C62.5026656,26.1146691 62.1746689,26.5066652 61.732,26.8 C61.2893311,27.0933348 60.764003,27.24 60.156,27.24 C59.3879962,27.24 58.7800022,27.0213355 58.332,26.584 C57.8839978,26.1466645 57.66,25.5600037 57.66,24.824 C57.66,24.4079979 57.7346659,24.0586681 57.884,23.776 C58.0333341,23.4933319 58.241332,23.2586676 58.508,23.072 C58.774668,22.8853324 59.0893315,22.7386672 59.452,22.632 C59.8146685,22.5253328 60.2093312,22.4400003 60.636,22.376 L62.652,22.072 L62.652,21.576 C62.652,21.2239982 62.6093338,20.9413344 62.524,20.728 C62.4386662,20.5146656 62.3213341,20.3493339 62.172,20.232 C62.0226659,20.1146661 61.852001,20.0373335 61.66,20 C61.467999,19.9626665 61.2653344,19.944 61.052,19.944 C60.443997,19.944 59.9426686,20.0559989 59.548,20.28 C59.1533314,20.5040011 58.822668,20.786665 58.556,21.128 L57.868,20.264 C58.1773349,19.8906648 58.6066639,19.570668 59.156,19.304 C59.7053361,19.037332 60.3853293,18.904 61.196,18.904 C62.1773382,18.904 62.8893311,19.1226645 63.332,19.56 C63.7746689,19.9973355 63.996,20.7013285 63.996,21.672 L63.996,24.856 C63.996,25.1120013 63.9986666,25.335999 64.004,25.528 C64.0093334,25.720001 64.0199999,25.8986658 64.036,26.064 C64.0520001,26.2293342 64.0759998,26.3866659 64.108,26.536 C64.1400002,26.6853341 64.1826664,26.8399992 64.236,27 L62.924,27 Z M62.652,22.952 L60.764,23.256 C60.1133301,23.3733339 59.6520014,23.5493322 59.38,23.784 C59.1079986,24.0186678 58.972,24.3439979 58.972,24.76 C58.972,25.1866688 59.0973321,25.5439986 59.348,25.832 C59.5986679,26.1200014 59.9693309,26.264 60.46,26.264 C60.7586682,26.264 61.041332,26.2053339 61.308,26.088 C61.574668,25.9706661 61.8066657,25.808001 62.004,25.6 C62.2013343,25.391999 62.3586661,25.1413348 62.476,24.848 C62.5933339,24.5546652 62.652,24.2320018 62.652,23.88 L62.652,22.952 Z M66.812,20.04 L65.468,20.04 L65.468,19.128 L65.756,19.128 C66.0866683,19.128 66.3453324,19.0933337 66.532,19.024 C66.7186676,18.9546663 66.8599995,18.8480007 66.956,18.704 C67.0520005,18.5599993 67.1213331,18.3706678 67.164,18.136 C67.2066669,17.9013322 67.2439998,17.613335 67.276,17.272 L67.308,16.984 L68.14,16.984 L68.14,19.128 L69.836,19.128 L69.836,20.04 L68.14,20.04 L68.14,24.936 C68.14,25.3840022 68.206666,25.7066657 68.34,25.904 C68.473334,26.1013343 68.7213315,26.2 69.084,26.2 C69.3720014,26.2 69.6386654,26.1360006 69.884,26.008 L70.028,26.968 C69.6226646,27.1493342 69.1746691,27.24 68.684,27.24 C68.2999981,27.24 67.9880012,27.1866672 67.748,27.08 C67.5079988,26.9733328 67.3186674,26.8293342 67.18,26.648 C67.0413326,26.4666658 66.9453336,26.2480013 66.892,25.992 C66.8386664,25.7359987 66.812,25.4586682 66.812,25.16 L66.812,20.04 Z M72.444,23.368 C72.4973336,24.2746712 72.7293313,24.9759975 73.14,25.472 C73.5506687,25.9680025 74.1239963,26.216 74.86,26.216 C75.7880046,26.216 76.4866643,25.778671 76.956,24.904 L77.964,25.464 C77.6546651,25.9866693 77.2440026,26.4133317 76.732,26.744 C76.2199974,27.0746683 75.5746706,27.24 74.796,27.24 C74.1773302,27.24 73.6360023,27.1333344 73.172,26.92 C72.7079977,26.7066656 72.3213349,26.4133352 72.012,26.04 C71.7026651,25.6666648 71.4706674,25.2293358 71.316,24.728 C71.1613326,24.2266642 71.084,23.6880029 71.084,23.112 C71.084,22.5466638 71.1586659,22.0080026 71.308,21.496 C71.4573341,20.9839974 71.6839985,20.5360019 71.988,20.152 C72.2920015,19.7679981 72.6653311,19.4640011 73.108,19.24 C73.5506689,19.0159989 74.0706637,18.904 74.668,18.904 C75.2440029,18.904 75.7453312,19.0133322 76.172,19.232 C76.5986688,19.4506678 76.9533319,19.7439982 77.236,20.112 C77.5186681,20.4800018 77.7319993,20.9066642 77.876,21.392 C78.0200007,21.8773358 78.092,22.3919973 78.092,22.936 C78.092,23.0533339 78.0893334,23.1439997 78.084,23.208 C78.0786666,23.2720003 78.076,23.3253331 78.076,23.368 L72.444,23.368 Z M74.652,19.912 C73.9799966,19.912 73.4600018,20.1519976 73.092,20.632 C72.7239982,21.1120024 72.5133336,21.7573293 72.46,22.568 L76.732,22.568 C76.732,22.2373317 76.694667,21.9146682 76.62,21.6 C76.545333,21.2853318 76.4226675,21.0026679 76.252,20.752 C76.0813325,20.5013321 75.8653346,20.2986674 75.604,20.144 C75.3426654,19.9893326 75.0253352,19.912 74.652,19.912 Z" id="Create" fill="#FFFFFF"></path>
                        </g>
                    </g>
                    <g id="Group-6" transform="translate(25.000000, 112.000000)">
                        <g id="Group-2" transform="translate(0.000000, 22.466667)" stroke="#979797" stroke-linecap="square">
                            <path d="M0.5,1.37666667 L199.5,1.37666667" id="Line"></path>
                        </g>
                        <path d="M194.973214,7.16964286 C195.08631,7.28273866 195.142857,7.41666589 195.142857,7.57142857 C195.142857,7.72619125 195.08631,7.86011848 194.973214,7.97321429 L190.973214,11.9732143 C190.860118,12.0863101 190.726191,12.1428571 190.571429,12.1428571 C190.416666,12.1428571 190.282739,12.0863101 190.169643,11.9732143 L186.169643,7.97321429 C186.056547,7.86011848 186,7.72619125 186,7.57142857 C186,7.41666589 186.056547,7.28273866 186.169643,7.16964286 C186.282739,7.05654705 186.416666,7 186.571429,7 L194.571429,7 C194.726191,7 194.860118,7.05654705 194.973214,7.16964286 Z" id="" fill="#4C5358"></path>
                        <path d="M1.52,9.392 C1.85066832,9.88266912 2.29866384,10.2799985 2.864,10.584 C3.42933616,10.8880015 4.09599616,11.04 4.864,11.04 C5.22666848,11.04 5.56533176,10.9920005 5.88,10.896 C6.19466824,10.7999995 6.46666552,10.6613342 6.696,10.48 C6.92533448,10.2986658 7.10399936,10.0773346 7.232,9.816 C7.36000064,9.55466536 7.424,9.2640016 7.424,8.944 C7.424,8.61333168 7.34666744,8.33600112 7.192,8.112 C7.03733256,7.88799888 6.826668,7.69866744 6.56,7.544 C6.293332,7.38933256 5.97600184,7.25333392 5.608,7.136 C5.23999816,7.01866608 4.8426688,6.90133392 4.416,6.784 C3.9359976,6.64533264 3.49066872,6.49066752 3.08,6.32 C2.66933128,6.14933248 2.31466816,5.93866792 2.016,5.688 C1.71733184,5.43733208 1.48266752,5.14400168 1.312,4.808 C1.14133248,4.47199832 1.056,4.06933568 1.056,3.6 C1.056,3.1199976 1.1493324,2.68800192 1.336,2.304 C1.5226676,1.91999808 1.78666496,1.59200136 2.128,1.32 C2.46933504,1.04799864 2.87199768,0.83733408 3.336,0.688 C3.80000232,0.53866592 4.31466384,0.464 4.88,0.464 C5.65867056,0.464 6.37866336,0.59466536 7.04,0.856 C7.70133664,1.11733464 8.26666432,1.50399744 8.736,2.016 L7.76,2.928 C7.41866496,2.5546648 7.00000248,2.25066784 6.504,2.016 C6.00799752,1.78133216 5.46133632,1.664 4.864,1.664 C4.18132992,1.664 3.62400216,1.8106652 3.192,2.104 C2.75999784,2.3973348 2.544,2.84266368 2.544,3.44 C2.544,3.73866816 2.610666,3.9946656 2.744,4.208 C2.877334,4.4213344 3.0639988,4.6079992 3.304,4.768 C3.5440012,4.9280008 3.82666504,5.06933272 4.152,5.192 C4.47733496,5.31466728 4.83733136,5.4293328 5.232,5.536 C5.8186696,5.6960008 6.34133104,5.8693324 6.8,6.056 C7.25866896,6.2426676 7.64266512,6.46399872 7.952,6.72 C8.26133488,6.97600128 8.4959992,7.27199832 8.656,7.608 C8.8160008,7.94400168 8.896,8.33599776 8.896,8.784 C8.896,9.32800272 8.7893344,9.81599784 8.576,10.248 C8.3626656,10.6800022 8.07200184,11.0426652 7.704,11.336 C7.33599816,11.6293348 6.90400248,11.8533326 6.408,12.008 C5.91199752,12.1626674 5.38666944,12.24 4.832,12.24 C3.80799488,12.24 2.94400352,12.077335 2.24,11.752 C1.53599648,11.426665 0.9706688,10.960003 0.544,10.352 L1.52,9.392 Z M11.568,8.368 C11.6213336,9.2746712 11.8533313,9.97599752 12.264,10.472 C12.6746687,10.9680025 13.2479963,11.216 13.984,11.216 C14.9120046,11.216 15.6106643,10.778671 16.08,9.904 L17.088,10.464 C16.7786651,10.9866693 16.3680026,11.4133317 15.856,11.744 C15.3439974,12.0746683 14.6986706,12.24 13.92,12.24 C13.3013302,12.24 12.7600023,12.1333344 12.296,11.92 C11.8319977,11.7066656 11.4453349,11.4133352 11.136,11.04 C10.8266651,10.6666648 10.5946674,10.2293358 10.44,9.728 C10.2853326,9.22666416 10.208,8.68800288 10.208,8.112 C10.208,7.54666384 10.2826659,7.00800256 10.432,6.496 C10.5813341,5.98399744 10.8079985,5.53600192 11.112,5.152 C11.4160015,4.76799808 11.7893311,4.46400112 12.232,4.24 C12.6746689,4.01599888 13.1946637,3.904 13.792,3.904 C14.3680029,3.904 14.8693312,4.01333224 15.296,4.232 C15.7226688,4.45066776 16.0773319,4.74399816 16.36,5.112 C16.6426681,5.48000184 16.8559993,5.90666424 17,6.392 C17.1440007,6.87733576 17.216,7.39199728 17.216,7.936 C17.216,8.05333392 17.2133334,8.14399968 17.208,8.208 C17.2026666,8.27200032 17.2,8.32533312 17.2,8.368 L11.568,8.368 Z M13.776,4.912 C13.1039966,4.912 12.5840018,5.1519976 12.216,5.632 C11.8479982,6.1120024 11.6373336,6.75732928 11.584,7.568 L15.856,7.568 C15.856,7.23733168 15.818667,6.91466824 15.744,6.6 C15.669333,6.28533176 15.5466675,6.00266792 15.376,5.752 C15.2053325,5.50133208 14.9893346,5.29866744 14.728,5.144 C14.4666654,4.98933256 14.1493352,4.912 13.776,4.912 Z M18.832,0.704 L20.16,0.704 L20.16,12 L18.832,12 L18.832,0.704 Z M23.216,8.368 C23.2693336,9.2746712 23.5013313,9.97599752 23.912,10.472 C24.3226687,10.9680025 24.8959963,11.216 25.632,11.216 C26.5600046,11.216 27.2586643,10.778671 27.728,9.904 L28.736,10.464 C28.4266651,10.9866693 28.0160026,11.4133317 27.504,11.744 C26.9919974,12.0746683 26.3466706,12.24 25.568,12.24 C24.9493302,12.24 24.4080023,12.1333344 23.944,11.92 C23.4799977,11.7066656 23.0933349,11.4133352 22.784,11.04 C22.4746651,10.6666648 22.2426674,10.2293358 22.088,9.728 C21.9333326,9.22666416 21.856,8.68800288 21.856,8.112 C21.856,7.54666384 21.9306659,7.00800256 22.08,6.496 C22.2293341,5.98399744 22.4559985,5.53600192 22.76,5.152 C23.0640015,4.76799808 23.4373311,4.46400112 23.88,4.24 C24.3226689,4.01599888 24.8426637,3.904 25.44,3.904 C26.0160029,3.904 26.5173312,4.01333224 26.944,4.232 C27.3706688,4.45066776 27.7253319,4.74399816 28.008,5.112 C28.2906681,5.48000184 28.5039993,5.90666424 28.648,6.392 C28.7920007,6.87733576 28.864,7.39199728 28.864,7.936 C28.864,8.05333392 28.8613334,8.14399968 28.856,8.208 C28.8506666,8.27200032 28.848,8.32533312 28.848,8.368 L23.216,8.368 Z M25.424,4.912 C24.7519966,4.912 24.2320018,5.1519976 23.864,5.632 C23.4959982,6.1120024 23.2853336,6.75732928 23.232,7.568 L27.504,7.568 C27.504,7.23733168 27.466667,6.91466824 27.392,6.6 C27.317333,6.28533176 27.1946675,6.00266792 27.024,5.752 C26.8533325,5.50133208 26.6373346,5.29866744 26.376,5.144 C26.1146654,4.98933256 25.7973352,4.912 25.424,4.912 Z M37.056,10.272 C36.7359984,10.9120032 36.3066694,11.3999983 35.768,11.736 C35.2293306,12.0720017 34.5760038,12.24 33.808,12.24 C33.1786635,12.24 32.6320023,12.1306678 32.168,11.912 C31.7039977,11.6933322 31.3200015,11.3973352 31.016,11.024 C30.7119985,10.6506648 30.4880007,10.2106692 30.344,9.704 C30.1999993,9.1973308 30.128,8.65600288 30.128,8.08 C30.128,7.4933304 30.2053326,6.9466692 30.36,6.44 C30.5146674,5.9333308 30.7439985,5.4933352 31.048,5.12 C31.3520015,4.7466648 31.733331,4.45066776 32.192,4.232 C32.650669,4.01333224 33.1893302,3.904 33.808,3.904 C34.5866706,3.904 35.2346641,4.0773316 35.752,4.424 C36.2693359,4.7706684 36.6879984,5.25866352 37.008,5.888 L35.888,6.416 C35.4826646,5.43466176 34.8000048,4.944 33.84,4.944 C33.4346646,4.944 33.0853348,5.0239992 32.792,5.184 C32.4986652,5.3440008 32.2586676,5.56266528 32.072,5.84 C31.8853324,6.11733472 31.7466671,6.43999816 31.656,6.808 C31.5653329,7.17600184 31.52,7.5733312 31.52,8 C31.52,8.40533536 31.5626662,8.79999808 31.648,9.184 C31.7333338,9.56800192 31.871999,9.90933184 32.064,10.208 C32.256001,10.5066682 32.5013318,10.7466658 32.8,10.928 C33.0986682,11.1093342 33.4666645,11.2 33.904,11.2 C34.4586694,11.2 34.906665,11.0586681 35.248,10.776 C35.589335,10.4933319 35.8506658,10.1280022 36.032,9.68 L37.056,10.272 Z M39.216,5.04 L37.872,5.04 L37.872,4.128 L38.16,4.128 C38.4906683,4.128 38.7493324,4.09333368 38.936,4.024 C39.1226676,3.95466632 39.2639995,3.84800072 39.36,3.704 C39.4560005,3.55999928 39.5253331,3.37066784 39.568,3.136 C39.6106669,2.90133216 39.6479998,2.61333504 39.68,2.272 L39.712,1.984 L40.544,1.984 L40.544,4.128 L42.24,4.128 L42.24,5.04 L40.544,5.04 L40.544,9.936 C40.544,10.3840022 40.610666,10.7066657 40.744,10.904 C40.877334,11.1013343 41.1253315,11.2 41.488,11.2 C41.7760014,11.2 42.0426654,11.1360006 42.288,11.008 L42.432,11.968 C42.0266646,12.1493342 41.5786691,12.24 41.088,12.24 C40.7039981,12.24 40.3920012,12.1866672 40.152,12.08 C39.9119988,11.9733328 39.7226674,11.8293342 39.584,11.648 C39.4453326,11.4666658 39.3493336,11.2480013 39.296,10.992 C39.2426664,10.7359987 39.216,10.4586682 39.216,10.16 L39.216,5.04 Z M50.704,12.24 C50.1066637,12.24 49.5813356,12.1306678 49.128,11.912 C48.6746644,11.6933322 48.2960015,11.3946686 47.992,11.016 C47.6879985,10.6373314 47.4613341,10.1946692 47.312,9.688 C47.1626659,9.1813308 47.088,8.6346696 47.088,8.048 C47.088,7.4613304 47.1653326,6.91733584 47.32,6.416 C47.4746674,5.91466416 47.7039985,5.4773352 48.008,5.104 C48.3120015,4.7306648 48.6906644,4.4373344 49.144,4.224 C49.5973356,4.0106656 50.1173304,3.904 50.704,3.904 C51.2906696,3.904 51.8106644,4.0106656 52.264,4.224 C52.7173356,4.4373344 53.0986651,4.72799816 53.408,5.096 C53.7173349,5.46400184 53.9493326,5.9013308 54.104,6.408 C54.2586674,6.9146692 54.336,7.4613304 54.336,8.048 C54.336,8.6346696 54.2586674,9.1813308 54.104,9.688 C53.9493326,10.1946692 53.7173349,10.6373314 53.408,11.016 C53.0986651,11.3946686 52.7173356,11.6933322 52.264,11.912 C51.8106644,12.1306678 51.2906696,12.24 50.704,12.24 Z M50.736,11.2 C51.0986685,11.2 51.4186653,11.1200008 51.696,10.96 C51.9733347,10.7999992 52.2026658,10.5786681 52.384,10.296 C52.5653342,10.0133319 52.7039995,9.68000192 52.8,9.296 C52.8960005,8.91199808 52.944,8.49600224 52.944,8.048 C52.944,7.59999776 52.8960005,7.18666856 52.8,6.808 C52.7039995,6.42933144 52.560001,6.10133472 52.368,5.824 C52.175999,5.54666528 51.9413347,5.33066744 51.664,5.176 C51.3866653,5.02133256 51.0666685,4.944 50.704,4.944 C50.3306648,4.944 50.0053347,5.02133256 49.728,5.176 C49.4506653,5.33066744 49.2213342,5.54666528 49.04,5.824 C48.8586658,6.10133472 48.7200005,6.42933144 48.624,6.808 C48.5279995,7.18666856 48.48,7.59999776 48.48,8.048 C48.48,8.49600224 48.5279995,8.91199808 48.624,9.296 C48.7200005,9.68000192 48.8613324,10.0133319 49.048,10.296 C49.2346676,10.5786681 49.4693319,10.7999992 49.752,10.96 C50.0346681,11.1200008 50.3626648,11.2 50.736,11.2 Z M56.032,4.128 L57.36,4.128 L57.36,5.648 C57.4560005,5.42399888 57.5786659,5.2053344 57.728,4.992 C57.8773341,4.7786656 58.055999,4.5920008 58.264,4.432 C58.472001,4.2719992 58.7146653,4.14400048 58.992,4.048 C59.2693347,3.95199952 59.5839982,3.904 59.936,3.904 C60.4480026,3.904 60.8933314,4.0106656 61.272,4.224 C61.6506686,4.4373344 61.9626654,4.7306648 62.208,5.104 C62.4533346,5.4773352 62.6373327,5.91199752 62.76,6.408 C62.8826673,6.90400248 62.944,7.43999712 62.944,8.016 C62.944,8.69867008 62.8640008,9.30133072 62.704,9.824 C62.5439992,10.3466693 62.3200014,10.7839982 62.032,11.136 C61.7439986,11.4880018 61.4080019,11.7546658 61.024,11.936 C60.6399981,12.1173342 60.2240022,12.208 59.776,12.208 C59.1893304,12.208 58.6853354,12.0640014 58.264,11.776 C57.8426646,11.4879986 57.5413342,11.1306688 57.36,10.704 L57.36,14.768 L56.032,14.768 L56.032,4.128 Z M57.36,8.112 C57.36,8.33600112 57.3679999,8.5413324 57.384,8.728 C57.4000001,8.9146676 57.4186666,9.07199936 57.44,9.2 C57.4826669,9.45600128 57.5626661,9.70133216 57.68,9.936 C57.7973339,10.1706678 57.9413325,10.3759991 58.112,10.552 C58.2826675,10.7280009 58.4826655,10.8693328 58.712,10.976 C58.9413345,11.0826672 59.1946653,11.136 59.472,11.136 C59.8346685,11.136 60.1466654,11.0506675 60.408,10.88 C60.6693346,10.7093325 60.8853325,10.4800014 61.056,10.192 C61.2266675,9.90399856 61.3519996,9.57600184 61.432,9.208 C61.5120004,8.83999816 61.552,8.45866864 61.552,8.064 C61.552,7.66933136 61.514667,7.28800184 61.44,6.92 C61.365333,6.55199816 61.2453342,6.22666808 61.08,5.944 C60.9146658,5.66133192 60.698668,5.43466752 60.432,5.264 C60.165332,5.09333248 59.8453352,5.008 59.472,5.008 C59.1839986,5.008 58.9200012,5.0613328 58.68,5.168 C58.4399988,5.2746672 58.2346675,5.41866576 58.064,5.6 C57.8933325,5.78133424 57.7520006,5.98933216 57.64,6.224 C57.5279994,6.45866784 57.4560002,6.70399872 57.424,6.96 C57.4026666,7.0666672 57.3866667,7.2133324 57.376,7.4 C57.3653333,7.5866676 57.36,7.80266544 57.36,8.048 L57.36,8.112 Z M65.328,5.04 L63.984,5.04 L63.984,4.128 L64.272,4.128 C64.6026683,4.128 64.8613324,4.09333368 65.048,4.024 C65.2346676,3.95466632 65.3759995,3.84800072 65.472,3.704 C65.5680005,3.55999928 65.6373331,3.37066784 65.68,3.136 C65.7226669,2.90133216 65.7599998,2.61333504 65.792,2.272 L65.824,1.984 L66.656,1.984 L66.656,4.128 L68.352,4.128 L68.352,5.04 L66.656,5.04 L66.656,9.936 C66.656,10.3840022 66.722666,10.7066657 66.856,10.904 C66.989334,11.1013343 67.2373315,11.2 67.6,11.2 C67.8880014,11.2 68.1546654,11.1360006 68.4,11.008 L68.544,11.968 C68.1386646,12.1493342 67.6906691,12.24 67.2,12.24 C66.8159981,12.24 66.5040012,12.1866672 66.264,12.08 C66.0239988,11.9733328 65.8346674,11.8293342 65.696,11.648 C65.5573326,11.4666658 65.4613336,11.2480013 65.408,10.992 C65.3546664,10.7359987 65.328,10.4586682 65.328,10.16 L65.328,5.04 Z M69.952,1.072 L71.28,1.072 L71.28,2.4 L69.952,2.4 L69.952,1.072 Z M69.952,4.128 L71.28,4.128 L71.28,12 L69.952,12 L69.952,4.128 Z M76.592,12.24 C75.9946637,12.24 75.4693356,12.1306678 75.016,11.912 C74.5626644,11.6933322 74.1840015,11.3946686 73.88,11.016 C73.5759985,10.6373314 73.3493341,10.1946692 73.2,9.688 C73.0506659,9.1813308 72.976,8.6346696 72.976,8.048 C72.976,7.4613304 73.0533326,6.91733584 73.208,6.416 C73.3626674,5.91466416 73.5919985,5.4773352 73.896,5.104 C74.2000015,4.7306648 74.5786644,4.4373344 75.032,4.224 C75.4853356,4.0106656 76.0053304,3.904 76.592,3.904 C77.1786696,3.904 77.6986644,4.0106656 78.152,4.224 C78.6053356,4.4373344 78.9866651,4.72799816 79.296,5.096 C79.6053349,5.46400184 79.8373326,5.9013308 79.992,6.408 C80.1466674,6.9146692 80.224,7.4613304 80.224,8.048 C80.224,8.6346696 80.1466674,9.1813308 79.992,9.688 C79.8373326,10.1946692 79.6053349,10.6373314 79.296,11.016 C78.9866651,11.3946686 78.6053356,11.6933322 78.152,11.912 C77.6986644,12.1306678 77.1786696,12.24 76.592,12.24 Z M76.624,11.2 C76.9866685,11.2 77.3066653,11.1200008 77.584,10.96 C77.8613347,10.7999992 78.0906658,10.5786681 78.272,10.296 C78.4533342,10.0133319 78.5919995,9.68000192 78.688,9.296 C78.7840005,8.91199808 78.832,8.49600224 78.832,8.048 C78.832,7.59999776 78.7840005,7.18666856 78.688,6.808 C78.5919995,6.42933144 78.448001,6.10133472 78.256,5.824 C78.063999,5.54666528 77.8293347,5.33066744 77.552,5.176 C77.2746653,5.02133256 76.9546685,4.944 76.592,4.944 C76.2186648,4.944 75.8933347,5.02133256 75.616,5.176 C75.3386653,5.33066744 75.1093342,5.54666528 74.928,5.824 C74.7466658,6.10133472 74.6080005,6.42933144 74.512,6.808 C74.4159995,7.18666856 74.368,7.59999776 74.368,8.048 C74.368,8.49600224 74.4159995,8.91199808 74.512,9.296 C74.6080005,9.68000192 74.7493324,10.0133319 74.936,10.296 C75.1226676,10.5786681 75.3573319,10.7999992 75.64,10.96 C75.9226681,11.1200008 76.2506648,11.2 76.624,11.2 Z M81.92,4.128 L83.072,4.128 L83.216,5.696 C83.4186677,5.2159976 83.7413311,4.79733512 84.184,4.44 C84.6266689,4.08266488 85.1733301,3.904 85.824,3.904 C86.6453374,3.904 87.2506647,4.16533072 87.64,4.688 C88.0293353,5.21066928 88.224,5.94132864 88.224,6.88 L88.224,12 L86.896,12 L86.896,7.152 C86.896,6.43732976 86.7520014,5.91200168 86.464,5.576 C86.1759986,5.23999832 85.7866691,5.072 85.296,5.072 C84.7093304,5.072 84.2213353,5.3119976 83.832,5.792 C83.4426647,6.2720024 83.248,6.94932896 83.248,7.824 L83.248,12 L81.92,12 L81.92,4.128 Z" id="Select-option" fill="#000000"></path>
                    </g>
                </g>
            </g>
        </g>
    </g>
</svg>