<?xml version="1.0" encoding="UTF-8"?>
<svg width="359px" height="324px" viewBox="0 0 359 324" version="1.1" xmlns="http://www.w3.org/2000/svg" xmlns:xlink="http://www.w3.org/1999/xlink">
    <!-- Generator: Sketch 47.1 (45422) - http://www.bohemiancoding.com/sketch -->
    <title>Dont2</title>
    <desc>Created with Sketch.</desc>
    <defs>
        <rect id="path-1" x="0" y="0" width="351" height="316"></rect>
        <filter x="-2.0%" y="-1.6%" width="104.0%" height="104.4%" filterUnits="objectBoundingBox" id="filter-2">
            <feOffset dx="0" dy="2" in="SourceAlpha" result="shadowOffsetOuter1"></feOffset>
            <feGaussianBlur stdDeviation="2" in="shadowOffsetOuter1" result="shadowBlurOuter1"></feGaussianBlur>
            <feColorMatrix values="0 0 0 0 0   0 0 0 0 0   0 0 0 0 0  0 0 0 0.5 0" type="matrix" in="shadowBlurOuter1"></feColorMatrix>
        </filter>
        <ellipse id="path-3" cx="21.0939471" cy="21.4110787" rx="21.0939471" ry="21.4110787"></ellipse>
    </defs>
    <g id="Page-1" stroke="none" stroke-width="1" fill="none" fill-rule="evenodd">
        <g id="Buttons-Usage-extra-large-1200" transform="translate(-774.000000, -2063.000000)">
            <g id="Dont2" transform="translate(778.000000, 2065.000000)">
                <g id="bg-copy-2">
                    <use fill="black" fill-opacity="1" filter="url(#filter-2)" xlink:href="#path-1"></use>
                    <use fill="#FFFFFF" fill-rule="evenodd" xlink:href="#path-1"></use>
                </g>
                <polygon id="bg-copy" fill="#495C6A" points="0 0 179 0 179 61.3858848 179 316 0 316"></polygon>
                <rect id="Rectangle-3-Copy" fill="#FFFFFF" x="57" y="99" width="66" height="2" rx="1"></rect>
                <rect id="Rectangle-3-Copy-3" fill="#B7DC00" x="63" y="87" width="55" height="4" rx="2"></rect>
                <g id="Sidebar-top">
                    <rect id="Profile-bg-Copy-2" fill="#3E4F5B" x="0" y="0" width="179.157924" height="52.1516035"></rect>
                    <path d="M158.197545,11.8046875 C158.264509,11.8716521 158.297991,11.9486603 158.297991,12.0357143 C158.297991,12.1227683 158.264509,12.1997765 158.197545,12.2667411 L154.25,16.2142857 L158.197545,20.1618304 C158.264509,20.228795 158.297991,20.3058031 158.297991,20.3928571 C158.297991,20.4799111 158.264509,20.5569193 158.197545,20.6238839 L157.695312,21.1261161 C157.628348,21.1930807 157.55134,21.2265625 157.464286,21.2265625 C157.377232,21.2265625 157.300224,21.1930807 157.233259,21.1261161 L152.552455,16.4453125 C152.485491,16.3783479 152.452009,16.3013397 152.452009,16.2142857 C152.452009,16.1272317 152.485491,16.0502235 152.552455,15.9832589 L157.233259,11.3024554 C157.300224,11.2354907 157.377232,11.2020089 157.464286,11.2020089 C157.55134,11.2020089 157.628348,11.2354907 157.695312,11.3024554 L158.197545,11.8046875 Z" id="" fill="#D2D6D9"></path>
                </g>
                <g id="Group-8" transform="translate(59.000000, 17.000000)">
                    <g id="Group-2">
                        <ellipse id="Mask-Copy" fill="#3E4F5B" cx="30.4690347" cy="30.9271137" rx="30.4690347" ry="30.9271137"></ellipse>
                        <g id="person-profile-pic" transform="translate(9.920151, 10.069293)">
                            <mask id="mask-4" fill="white">
                                <use xlink:href="#path-3"></use>
                            </mask>
                            <use id="Mask" fill="#FFFFFF" xlink:href="#path-3"></use>
                            <path d="M25.9151751,26.2850681 C26.6880105,25.5479938 26.9579926,23.6839558 27.669131,23.0122189 C28.672982,22.0607695 29.7658993,20.8902477 30.0757756,19.4272021 C30.4890988,17.4837343 29.648072,17.2373311 29.648072,16.5651672 C29.648072,15.1593452 29.6341554,12.8469132 29.1814019,11.346288 C29.1535687,9.36780278 28.8232813,8.50517811 28.1139984,7.76383335 C27.4534237,7.07031729 25.8210061,7.23600955 24.9720933,6.7769395 C23.6527992,6.06804992 22.5682319,5.80029464 21.1867771,5.76485016 L21.1867771,5.75801749 C21.1450273,5.75801749 21.1037414,5.76143383 21.0647749,5.76271495 C20.998903,5.76143383 20.9321033,5.75801749 20.863448,5.75801749 L20.8666952,5.77040171 C17.4979494,5.8925357 13.9139601,7.94959659 12.6837323,11.2566092 C12.2258761,12.4835006 12.402617,15.1597722 12.402617,16.5655942 C12.402617,17.2373311 11.5611263,17.4841614 11.9716661,19.4276291 C12.2866453,20.8906747 13.3730681,22.0611966 14.3801663,23.012646 C15.0899131,23.6843829 15.3603591,25.5484208 16.1327306,26.2859222 C16.302977,27.3718898 16.3229242,27.0622844 16.3145742,28.0560109 C16.3145742,28.3912388 16.3257075,28.9118029 15.7732183,29.4255344 C14.7248342,30.3953465 12.3191173,32.4981009 10.3494541,33.3214377 C7.74751308,34.4031349 3.51872116,36.1296653 2.54734224,36.6177742 C1.57132444,37.1007586 -1,38.4215993 -1,39.2628718 L-1,43.2036146 L20.7836595,43.2036146 L21.2800183,43.2036146 L43.0692445,43.2036146 L43.0692445,39.2628718 C43.0692445,38.4215993 40.4923534,37.1007586 39.5209745,36.6164931 C38.5454205,36.1288113 34.3184842,34.4022808 31.7207182,33.3201566 C29.7992991,32.5215882 27.4691958,30.5029611 26.3790619,29.5024019 C26.013983,29.1650388 25.7514231,28.8093129 25.7504953,27.9505316 C25.7440009,26.9508265 25.7699785,27.333456 25.9332667,26.2850681" id="Fill-1" fill="#D2D6D9" mask="url(#mask-4)"></path>
                        </g>
                    </g>
                </g>
                <rect id="Rectangle" fill="#495C6A" x="0" y="154" width="155" height="23"></rect>
                <g id="Group-9" transform="translate(22.000000, 186.000000)">
                    <g id="Group-5" transform="translate(22.000000, 0.000000)" fill="#D2D6D9">
                        <path d="M2.079,3.276 L0.198,3.276 L0.198,2.646 L4.761,2.646 L4.761,3.276 L2.889,3.276 L2.889,9 L2.079,9 L2.079,3.276 Z M5.265,4.572 L5.913,4.572 L5.985,5.562 C6.11100063,5.23799838 6.31199862,4.97100105 6.588,4.761 C6.86400138,4.55099895 7.19099811,4.446 7.569,4.446 L7.569,5.238 C7.48499958,5.21999991 7.39200051,5.211 7.29,5.211 C7.13999925,5.211 6.99000075,5.23799973 6.84,5.292 C6.68999925,5.34600027 6.55350062,5.4329994 6.4305,5.553 C6.30749939,5.6730006 6.20700039,5.82749905 6.129,6.0165 C6.05099961,6.20550094 6.012,6.43499865 6.012,6.705 L6.012,9 L5.265,9 L5.265,4.572 Z M11.088,9 C11.0219997,8.78399892 10.9830001,8.5260015 10.971,8.226 C10.8509994,8.50200138 10.6665012,8.72249917 10.4175,8.8875 C10.1684988,9.05250082 9.87300171,9.135 9.531,9.135 C9.09899784,9.135 8.75700126,9.01200123 8.505,8.766 C8.25299874,8.51999877 8.127,8.19000207 8.127,7.776 C8.127,7.54199883 8.16899958,7.34550079 8.253,7.1865 C8.33700042,7.0274992 8.45399925,6.89550053 8.604,6.7905 C8.75400075,6.68549947 8.93099898,6.6030003 9.135,6.543 C9.33900102,6.4829997 9.5609988,6.43500018 9.801,6.399 L10.935,6.228 L10.935,5.949 C10.935,5.75099901 10.9110002,5.5920006 10.863,5.472 C10.8149998,5.3519994 10.7490004,5.25900033 10.665,5.193 C10.5809996,5.12699967 10.4850005,5.0835001 10.377,5.0625 C10.2689995,5.04149989 10.1550006,5.031 10.035,5.031 C9.69299829,5.031 9.41100111,5.09399937 9.189,5.22 C8.96699889,5.34600063 8.78100075,5.50499904 8.631,5.697 L8.244,5.211 C8.41800087,5.00099895 8.65949846,4.82100075 8.9685,4.671 C9.27750154,4.52099925 9.65999772,4.446 10.116,4.446 C10.6680028,4.446 11.0684988,4.56899877 11.3175,4.815 C11.5665012,5.06100123 11.691,5.45699727 11.691,6.003 L11.691,7.794 C11.691,7.93800072 11.6925,8.06399946 11.6955,8.172 C11.6985,8.28000054 11.7045,8.38049954 11.7135,8.4735 C11.7225,8.56650047 11.7359999,8.65499958 11.754,8.739 C11.7720001,8.82300042 11.7959999,8.90999955 11.826,9 L11.088,9 Z M10.935,6.723 L9.873,6.894 C9.50699817,6.96000033 9.24750076,7.05899934 9.0945,7.191 C8.94149924,7.32300066 8.865,7.50599883 8.865,7.74 C8.865,7.9800012 8.93549929,8.18099919 9.0765,8.343 C9.21750071,8.50500081 9.42599862,8.586 9.702,8.586 C9.87000084,8.586 10.0289993,8.55300033 10.179,8.487 C10.3290008,8.42099967 10.4594994,8.32950059 10.5705,8.2125 C10.6815006,8.09549941 10.7699997,7.95450083 10.836,7.7895 C10.9020003,7.62449918 10.935,7.44300099 10.935,7.245 L10.935,6.723 Z M12.546,4.572 L13.392,4.572 L14.472,8.298 L15.543,4.572 L16.353,4.572 L14.895,9 L13.995,9 L12.546,4.572 Z M17.721,6.957 C17.7510001,7.46700255 17.8814988,7.8614986 18.1125,8.1405 C18.3435012,8.4195014 18.6659979,8.559 19.08,8.559 C19.6020026,8.559 19.9949987,8.31300246 20.259,7.821 L20.826,8.136 C20.6519991,8.43000147 20.4210014,8.66999907 20.133,8.856 C19.8449986,9.04200093 19.4820022,9.135 19.044,9.135 C18.6959983,9.135 18.3915013,9.0750006 18.1305,8.955 C17.8694987,8.8349994 17.6520009,8.67000105 17.478,8.46 C17.3039991,8.24999895 17.1735004,8.00400141 17.0865,7.722 C16.9994996,7.43999859 16.956,7.13700162 16.956,6.813 C16.956,6.49499841 16.9979996,6.19200144 17.082,5.904 C17.1660004,5.61599856 17.2934991,5.36400108 17.4645,5.148 C17.6355009,4.93199892 17.8454988,4.76100063 18.0945,4.635 C18.3435012,4.50899937 18.6359983,4.446 18.972,4.446 C19.2960016,4.446 19.5779988,4.50749938 19.818,4.6305 C20.0580012,4.75350062 20.2574992,4.91849896 20.4165,5.1255 C20.5755008,5.33250103 20.6954996,5.57249864 20.7765,5.8455 C20.8575004,6.11850137 20.898,6.40799847 20.898,6.714 C20.898,6.78000033 20.8965,6.83099982 20.8935,6.867 C20.8905,6.90300018 20.889,6.93299988 20.889,6.957 L17.721,6.957 Z M18.963,5.013 C18.5849981,5.013 18.292501,5.14799865 18.0855,5.418 C17.878499,5.68800135 17.7600001,6.05099772 17.73,6.507 L20.133,6.507 C20.133,6.32099907 20.1120002,6.13950088 20.07,5.9625 C20.0279998,5.78549911 19.9590005,5.6265007 19.863,5.4855 C19.7669995,5.34449929 19.6455007,5.23050043 19.4985,5.1435 C19.3514993,5.05649956 19.173001,5.013 18.963,5.013 Z M21.807,2.646 L22.554,2.646 L22.554,9 L21.807,9 L21.807,2.646 Z M28.512,9 C28.4459997,8.78399892 28.4070001,8.5260015 28.395,8.226 C28.2749994,8.50200138 28.0905012,8.72249917 27.8415,8.8875 C27.5924988,9.05250082 27.2970017,9.135 26.955,9.135 C26.5229978,9.135 26.1810013,9.01200123 25.929,8.766 C25.6769987,8.51999877 25.551,8.19000207 25.551,7.776 C25.551,7.54199883 25.5929996,7.34550079 25.677,7.1865 C25.7610004,7.0274992 25.8779993,6.89550053 26.028,6.7905 C26.1780008,6.68549947 26.354999,6.6030003 26.559,6.543 C26.763001,6.4829997 26.9849988,6.43500018 27.225,6.399 L28.359,6.228 L28.359,5.949 C28.359,5.75099901 28.3350002,5.5920006 28.287,5.472 C28.2389998,5.3519994 28.1730004,5.25900033 28.089,5.193 C28.0049996,5.12699967 27.9090005,5.0835001 27.801,5.0625 C27.6929995,5.04149989 27.5790006,5.031 27.459,5.031 C27.1169983,5.031 26.8350011,5.09399937 26.613,5.22 C26.3909989,5.34600063 26.2050007,5.50499904 26.055,5.697 L25.668,5.211 C25.8420009,5.00099895 26.0834985,4.82100075 26.3925,4.671 C26.7015015,4.52099925 27.0839977,4.446 27.54,4.446 C28.0920028,4.446 28.4924988,4.56899877 28.7415,4.815 C28.9905012,5.06100123 29.115,5.45699727 29.115,6.003 L29.115,7.794 C29.115,7.93800072 29.1165,8.06399946 29.1195,8.172 C29.1225,8.28000054 29.1285,8.38049954 29.1375,8.4735 C29.1465,8.56650047 29.1599999,8.65499958 29.178,8.739 C29.1960001,8.82300042 29.2199999,8.90999955 29.25,9 L28.512,9 Z M28.359,6.723 L27.297,6.894 C26.9309982,6.96000033 26.6715008,7.05899934 26.5185,7.191 C26.3654992,7.32300066 26.289,7.50599883 26.289,7.74 C26.289,7.9800012 26.3594993,8.18099919 26.5005,8.343 C26.6415007,8.50500081 26.8499986,8.586 27.126,8.586 C27.2940008,8.586 27.4529992,8.55300033 27.603,8.487 C27.7530007,8.42099967 27.8834994,8.32950059 27.9945,8.2125 C28.1055006,8.09549941 28.1939997,7.95450083 28.26,7.7895 C28.3260003,7.62449918 28.359,7.44300099 28.359,7.245 L28.359,6.723 Z M30.312,4.572 L30.96,4.572 L31.041,5.454 C31.1550006,5.18399865 31.3364988,4.948501 31.5855,4.7475 C31.8345012,4.54649899 32.1419982,4.446 32.508,4.446 C32.9700023,4.446 33.3104989,4.59299853 33.5295,4.887 C33.7485011,5.18100147 33.858,5.59199736 33.858,6.12 L33.858,9 L33.111,9 L33.111,6.273 C33.111,5.87099799 33.0300008,5.57550094 32.868,5.3865 C32.7059992,5.19749905 32.4870014,5.103 32.211,5.103 C31.8809983,5.103 31.6065011,5.23799865 31.3875,5.508 C31.1684989,5.77800135 31.059,6.15899754 31.059,6.651 L31.059,9 L30.312,9 L30.312,4.572 Z M37.971,8.136 C37.8509994,8.4360015 37.6740012,8.67299913 37.44,8.847 C37.2059988,9.02100087 36.9150017,9.108 36.567,9.108 C36.2909986,9.108 36.0435011,9.05100057 35.8245,8.937 C35.6054989,8.82299943 35.4195008,8.66400102 35.2665,8.46 C35.1134992,8.25599898 34.9965004,8.01000144 34.9155,7.722 C34.8344996,7.43399856 34.794,7.11600174 34.794,6.768 C34.794,6.4079982 34.8359996,6.08550143 34.92,5.8005 C35.0040004,5.51549858 35.1239992,5.27400099 35.28,5.076 C35.4360008,4.87799901 35.6234989,4.72500054 35.8425,4.617 C36.0615011,4.50899946 36.3029987,4.455 36.567,4.455 C36.9270018,4.455 37.2209989,4.54049915 37.449,4.7115 C37.6770011,4.88250085 37.8389995,5.0879988 37.935,5.328 L37.935,2.646 L38.691,2.646 L38.691,9 L37.971,9 L37.971,8.136 Z M37.935,6.759 C37.935,6.57299907 37.9305,6.42750052 37.9215,6.3225 C37.9125,6.21749947 37.9020001,6.13200033 37.89,6.066 C37.8599998,5.93399934 37.8150003,5.8080006 37.755,5.688 C37.6949997,5.5679994 37.6185005,5.46150046 37.5255,5.3685 C37.4324995,5.27549953 37.3230006,5.20200027 37.197,5.148 C37.0709994,5.09399973 36.9270008,5.067 36.765,5.067 C36.560999,5.067 36.3855007,5.11199955 36.2385,5.202 C36.0914993,5.29200045 35.9685005,5.41349923 35.8695,5.5665 C35.7704995,5.71950076 35.6970002,5.89949896 35.649,6.1065 C35.6009998,6.31350103 35.577,6.53399883 35.577,6.768 C35.577,7.02000126 35.6039997,7.25249894 35.658,7.4655 C35.7120003,7.67850106 35.7899995,7.86149924 35.892,8.0145 C35.9940005,8.16750076 36.1199992,8.28749956 36.27,8.3745 C36.4200007,8.46150043 36.590999,8.505 36.783,8.505 C36.9330007,8.505 37.0694994,8.47800027 37.1925,8.424 C37.3155006,8.36999973 37.4234995,8.29500048 37.5165,8.199 C37.6095005,8.10299952 37.6859997,7.99350062 37.746,7.8705 C37.8060003,7.74749938 37.8509998,7.61700069 37.881,7.479 C37.9170002,7.31099916 37.935,7.08600141 37.935,6.804 L37.935,6.759 Z M42.426,6.957 C42.4560001,7.46700255 42.5864988,7.8614986 42.8175,8.1405 C43.0485012,8.4195014 43.3709979,8.559 43.785,8.559 C44.3070026,8.559 44.6999987,8.31300246 44.964,7.821 L45.531,8.136 C45.3569991,8.43000147 45.1260014,8.66999907 44.838,8.856 C44.5499986,9.04200093 44.1870022,9.135 43.749,9.135 C43.4009983,9.135 43.0965013,9.0750006 42.8355,8.955 C42.5744987,8.8349994 42.3570009,8.67000105 42.183,8.46 C42.0089991,8.24999895 41.8785004,8.00400141 41.7915,7.722 C41.7044996,7.43999859 41.661,7.13700162 41.661,6.813 C41.661,6.49499841 41.7029996,6.19200144 41.787,5.904 C41.8710004,5.61599856 41.9984991,5.36400108 42.1695,5.148 C42.3405009,4.93199892 42.5504988,4.76100063 42.7995,4.635 C43.0485012,4.50899937 43.3409983,4.446 43.677,4.446 C44.0010016,4.446 44.2829988,4.50749938 44.523,4.6305 C44.7630012,4.75350062 44.9624992,4.91849896 45.1215,5.1255 C45.2805008,5.33250103 45.4004996,5.57249864 45.4815,5.8455 C45.5625004,6.11850137 45.603,6.40799847 45.603,6.714 C45.603,6.78000033 45.6015,6.83099982 45.5985,6.867 C45.5955,6.90300018 45.594,6.93299988 45.594,6.957 L42.426,6.957 Z M43.668,5.013 C43.2899981,5.013 42.997501,5.14799865 42.7905,5.418 C42.583499,5.68800135 42.4650002,6.05099772 42.435,6.507 L44.838,6.507 C44.838,6.32099907 44.8170002,6.13950088 44.775,5.9625 C44.7329998,5.78549911 44.6640005,5.6265007 44.568,5.4855 C44.4719995,5.34449929 44.3505007,5.23050043 44.2035,5.1435 C44.0564993,5.05649956 43.8780011,5.013 43.668,5.013 Z M47.394,6.687 L46.071,4.572 L46.899,4.572 L47.925,6.255 L48.951,4.572 L49.77,4.572 L48.438,6.687 L49.941,9 L49.068,9 L47.925,7.128 L46.764,9 L45.9,9 L47.394,6.687 Z M50.733,4.572 L51.48,4.572 L51.48,5.427 C51.5340003,5.30099937 51.6029996,5.1780006 51.687,5.058 C51.7710004,4.9379994 51.8714994,4.83300045 51.9885,4.743 C52.1055006,4.65299955 52.2419992,4.58100027 52.398,4.527 C52.5540008,4.47299973 52.730999,4.446 52.929,4.446 C53.2170014,4.446 53.4674989,4.5059994 53.6805,4.626 C53.8935011,4.7460006 54.0689993,4.91099895 54.207,5.121 C54.3450007,5.33100105 54.4484997,5.5754986 54.5175,5.8545 C54.5865003,6.13350139 54.621,6.43499838 54.621,6.759 C54.621,7.14300192 54.5760004,7.48199853 54.486,7.776 C54.3959995,8.07000147 54.2700008,8.31599901 54.108,8.514 C53.9459992,8.71200099 53.7570011,8.86199949 53.541,8.964 C53.3249989,9.06600051 53.0910013,9.117 52.839,9.117 C52.5089983,9.117 52.2255012,9.03600081 51.9885,8.874 C51.7514988,8.71199919 51.5820005,8.5110012 51.48,8.271 L51.48,10.557 L50.733,10.557 L50.733,4.572 Z M51.48,6.813 C51.48,6.93900063 51.4845,7.05449948 51.4935,7.1595 C51.5025,7.26450052 51.5129999,7.35299964 51.525,7.425 C51.5490001,7.56900072 51.5939997,7.70699934 51.66,7.839 C51.7260003,7.97100066 51.8069995,8.0864995 51.903,8.1855 C51.9990005,8.28450049 52.1114994,8.3639997 52.2405,8.424 C52.3695006,8.4840003 52.5119992,8.514 52.668,8.514 C52.872001,8.514 53.0474993,8.46600048 53.1945,8.37 C53.3415007,8.27399952 53.4629995,8.14500081 53.559,7.983 C53.6550005,7.82099919 53.7254998,7.63650104 53.7705,7.4295 C53.8155002,7.22249896 53.838,7.00800111 53.838,6.786 C53.838,6.56399889 53.8170002,6.34950103 53.775,6.1425 C53.7329998,5.93549896 53.6655005,5.75250079 53.5725,5.5935 C53.4794995,5.4344992 53.3580007,5.30700048 53.208,5.211 C53.0579992,5.11499952 52.878001,5.067 52.668,5.067 C52.5059992,5.067 52.3575007,5.0969997 52.2225,5.157 C52.0874993,5.2170003 51.9720005,5.29799949 51.876,5.4 C51.7799995,5.50200051 51.7005003,5.61899934 51.6375,5.751 C51.5744997,5.88300066 51.5340001,6.02099928 51.516,6.165 C51.5039999,6.2250003 51.495,6.30749948 51.489,6.4125 C51.483,6.51750052 51.48,6.63899931 51.48,6.777 L51.48,6.813 Z M56.142,6.957 C56.1720002,7.46700255 56.3024988,7.8614986 56.5335,8.1405 C56.7645012,8.4195014 57.0869979,8.559 57.501,8.559 C58.0230026,8.559 58.4159987,8.31300246 58.68,7.821 L59.247,8.136 C59.0729991,8.43000147 58.8420014,8.66999907 58.554,8.856 C58.2659986,9.04200093 57.9030022,9.135 57.465,9.135 C57.1169983,9.135 56.8125013,9.0750006 56.5515,8.955 C56.2904987,8.8349994 56.0730009,8.67000105 55.899,8.46 C55.7249991,8.24999895 55.5945004,8.00400141 55.5075,7.722 C55.4204996,7.43999859 55.377,7.13700162 55.377,6.813 C55.377,6.49499841 55.4189996,6.19200144 55.503,5.904 C55.5870004,5.61599856 55.7144991,5.36400108 55.8855,5.148 C56.0565009,4.93199892 56.2664988,4.76100063 56.5155,4.635 C56.7645012,4.50899937 57.0569983,4.446 57.393,4.446 C57.7170016,4.446 57.9989988,4.50749938 58.239,4.6305 C58.4790012,4.75350062 58.6784992,4.91849896 58.8375,5.1255 C58.9965008,5.33250103 59.1164996,5.57249864 59.1975,5.8455 C59.2785004,6.11850137 59.319,6.40799847 59.319,6.714 C59.319,6.78000033 59.3175,6.83099982 59.3145,6.867 C59.3115,6.90300018 59.31,6.93299988 59.31,6.957 L56.142,6.957 Z M57.384,5.013 C57.0059981,5.013 56.713501,5.14799865 56.5065,5.418 C56.299499,5.68800135 56.1810002,6.05099772 56.151,6.507 L58.554,6.507 C58.554,6.32099907 58.5330002,6.13950088 58.491,5.9625 C58.4489998,5.78549911 58.3800005,5.6265007 58.284,5.4855 C58.1879995,5.34449929 58.0665007,5.23050043 57.9195,5.1435 C57.7724993,5.05649956 57.5940011,5.013 57.384,5.013 Z M60.228,4.572 L60.876,4.572 L60.957,5.454 C61.0710006,5.18399865 61.2524988,4.948501 61.5015,4.7475 C61.7505012,4.54649899 62.0579982,4.446 62.424,4.446 C62.8860023,4.446 63.2264989,4.59299853 63.4455,4.887 C63.6645011,5.18100147 63.774,5.59199736 63.774,6.12 L63.774,9 L63.027,9 L63.027,6.273 C63.027,5.87099799 62.9460008,5.57550094 62.784,5.3865 C62.6219992,5.19749905 62.4030014,5.103 62.127,5.103 C61.7969983,5.103 61.5225011,5.23799865 61.3035,5.508 C61.0844989,5.77800135 60.975,6.15899754 60.975,6.651 L60.975,9 L60.228,9 L60.228,4.572 Z M64.989,7.911 C65.1390008,8.10300096 65.3324988,8.26199937 65.5695,8.388 C65.8065012,8.51400063 66.0659986,8.577 66.348,8.577 C66.6000013,8.577 66.8189991,8.5170006 67.005,8.397 C67.1910009,8.2769994 67.284,8.0970012 67.284,7.857 C67.284,7.67099907 67.2225006,7.52550052 67.0995,7.4205 C66.9764994,7.31549948 66.8235009,7.22700036 66.6405,7.155 C66.4574991,7.08299964 66.2580011,7.0170003 66.042,6.957 C65.8259989,6.8969997 65.6265009,6.81900048 65.4435,6.723 C65.2604991,6.62699952 65.1075006,6.50100078 64.9845,6.345 C64.8614994,6.18899922 64.8,5.97600135 64.8,5.706 C64.8,5.48399889 64.8449996,5.29350079 64.935,5.1345 C65.0250005,4.97549921 65.1434993,4.84500051 65.2905,4.743 C65.4375007,4.64099949 65.606999,4.56600024 65.799,4.518 C65.991001,4.46999976 66.191999,4.446 66.402,4.446 C67.0260031,4.446 67.5449979,4.6259982 67.959,4.986 L67.581,5.49 C67.4489993,5.35199931 67.2735011,5.23650046 67.0545,5.1435 C66.8354989,5.05049954 66.6090012,5.004 66.375,5.004 C66.2729995,5.004 66.1725005,5.01599988 66.0735,5.04 C65.9744995,5.06400012 65.8875004,5.10149974 65.8125,5.1525 C65.7374996,5.20350025 65.6775002,5.26799961 65.6325,5.346 C65.5874998,5.42400039 65.565,5.51999943 65.565,5.634 C65.565,5.80800087 65.6264994,5.94299952 65.7495,6.039 C65.8725006,6.13500048 66.0254991,6.21749966 66.2085,6.2865 C66.3915009,6.35550034 66.5894989,6.42149968 66.8025,6.4845 C67.0155011,6.54750031 67.2134991,6.6284995 67.3965,6.7275 C67.5795009,6.82650049 67.7324994,6.95699919 67.8555,7.119 C67.9785006,7.28100081 68.04,7.49699865 68.04,7.767 C68.04,7.99500114 67.9935005,8.19449914 67.9005,8.3655 C67.8074995,8.53650085 67.6845008,8.67899943 67.5315,8.793 C67.3784992,8.90700057 67.201501,8.99249972 67.0005,9.0495 C66.799499,9.10650028 66.5910011,9.135 66.375,9.135 C65.6309963,9.135 65.0400022,8.8950024 64.602,8.415 L64.989,7.911 Z M69.48,6.957 C69.5100002,7.46700255 69.6404988,7.8614986 69.8715,8.1405 C70.1025012,8.4195014 70.4249979,8.559 70.839,8.559 C71.3610026,8.559 71.7539987,8.31300246 72.018,7.821 L72.585,8.136 C72.4109991,8.43000147 72.1800014,8.66999907 71.892,8.856 C71.6039986,9.04200093 71.2410022,9.135 70.803,9.135 C70.4549983,9.135 70.1505013,9.0750006 69.8895,8.955 C69.6284987,8.8349994 69.4110009,8.67000105 69.237,8.46 C69.0629991,8.24999895 68.9325004,8.00400141 68.8455,7.722 C68.7584996,7.43999859 68.715,7.13700162 68.715,6.813 C68.715,6.49499841 68.7569996,6.19200144 68.841,5.904 C68.9250004,5.61599856 69.0524991,5.36400108 69.2235,5.148 C69.3945009,4.93199892 69.6044988,4.76100063 69.8535,4.635 C70.1025012,4.50899937 70.3949983,4.446 70.731,4.446 C71.0550016,4.446 71.3369988,4.50749938 71.577,4.6305 C71.8170012,4.75350062 72.0164992,4.91849896 72.1755,5.1255 C72.3345008,5.33250103 72.4544996,5.57249864 72.5355,5.8455 C72.6165004,6.11850137 72.657,6.40799847 72.657,6.714 C72.657,6.78000033 72.6555,6.83099982 72.6525,6.867 C72.6495,6.90300018 72.648,6.93299988 72.648,6.957 L69.48,6.957 Z M70.722,5.013 C70.3439981,5.013 70.051501,5.14799865 69.8445,5.418 C69.637499,5.68800135 69.5190001,6.05099772 69.489,6.507 L71.892,6.507 C71.892,6.32099907 71.8710002,6.13950088 71.829,5.9625 C71.7869998,5.78549911 71.7180005,5.6265007 71.622,5.4855 C71.5259995,5.34449929 71.4045007,5.23050043 71.2575,5.1435 C71.1104993,5.05649956 70.932001,5.013 70.722,5.013 Z M73.647,7.911 C73.7970008,8.10300096 73.9904988,8.26199937 74.2275,8.388 C74.4645012,8.51400063 74.7239986,8.577 75.006,8.577 C75.2580013,8.577 75.4769991,8.5170006 75.663,8.397 C75.8490009,8.2769994 75.942,8.0970012 75.942,7.857 C75.942,7.67099907 75.8805006,7.52550052 75.7575,7.4205 C75.6344994,7.31549948 75.4815009,7.22700036 75.2985,7.155 C75.1154991,7.08299964 74.9160011,7.0170003 74.7,6.957 C74.4839989,6.8969997 74.2845009,6.81900048 74.1015,6.723 C73.9184991,6.62699952 73.7655006,6.50100078 73.6425,6.345 C73.5194994,6.18899922 73.458,5.97600135 73.458,5.706 C73.458,5.48399889 73.5029996,5.29350079 73.593,5.1345 C73.6830005,4.97549921 73.8014993,4.84500051 73.9485,4.743 C74.0955007,4.64099949 74.264999,4.56600024 74.457,4.518 C74.649001,4.46999976 74.8499989,4.446 75.06,4.446 C75.6840031,4.446 76.2029979,4.6259982 76.617,4.986 L76.239,5.49 C76.1069993,5.35199931 75.9315011,5.23650046 75.7125,5.1435 C75.4934989,5.05049954 75.2670012,5.004 75.033,5.004 C74.9309995,5.004 74.8305005,5.01599988 74.7315,5.04 C74.6324995,5.06400012 74.5455004,5.10149974 74.4705,5.1525 C74.3954996,5.20350025 74.3355002,5.26799961 74.2905,5.346 C74.2454998,5.42400039 74.223,5.51999943 74.223,5.634 C74.223,5.80800087 74.2844994,5.94299952 74.4075,6.039 C74.5305006,6.13500048 74.6834991,6.21749966 74.8665,6.2865 C75.0495009,6.35550034 75.2474989,6.42149968 75.4605,6.4845 C75.6735011,6.54750031 75.8714991,6.6284995 76.0545,6.7275 C76.2375009,6.82650049 76.3904994,6.95699919 76.5135,7.119 C76.6365006,7.28100081 76.698,7.49699865 76.698,7.767 C76.698,7.99500114 76.6515005,8.19449914 76.5585,8.3655 C76.4654995,8.53650085 76.3425008,8.67899943 76.1895,8.793 C76.0364992,8.90700057 75.859501,8.99249972 75.6585,9.0495 C75.457499,9.10650028 75.2490011,9.135 75.033,9.135 C74.2889963,9.135 73.6980022,8.8950024 73.26,8.415 L73.647,7.911 Z" id="Travel-and-expenses"></path>
                    </g>
                    <g id="pie-chart-copy" fill-rule="nonzero" fill="#D1D6D9">
                        <path d="M5.33307408,6.41838864 L9.12463543,10.3559265 C8.63387128,10.8752776 8.06092423,11.2791277 7.40579428,11.5674766 C6.75066433,11.8558255 6.0597576,12 5.33307408,12 C4.3655454,12 3.47319982,11.7524399 2.65603733,11.2573198 C1.83887485,10.7621996 1.19191134,10.0903278 0.715146801,9.24170425 C0.238382267,8.3930807 -9.21048332e-16,7.46637948 0,6.46160059 C9.21048332e-16,5.4568217 0.238382267,4.53012048 0.715146801,3.68149694 C1.19191134,2.83287339 1.83887485,2.16100155 2.65603733,1.6658814 C3.47319982,1.17076126 4.3655454,0.923201185 5.33307408,0.923201185 L5.33307408,6.41838864 Z M6.63192689,6.46160059 L12,6.46160059 C12,7.21653093 11.8611705,7.93403783 11.5835116,8.61412129 C11.3058526,9.29420475 10.9169745,9.88921047 10.4168773,10.3991385 L6.63192689,6.46160059 Z M11.5551235,5.53839941 L6.22204939,5.53839941 L6.22204939,0 C7.18957807,0 8.08192365,0.247560073 8.89908614,0.742680218 C9.71624862,1.23780036 10.3632121,1.90967221 10.8399767,2.75829575 C11.3167412,3.6069193 11.5551235,4.53362052 11.5551235,5.53839941 L11.5551235,5.53839941 Z" id="Shape"></path>
                    </g>
                </g>
                <g id="Group-10" transform="translate(23.000000, 156.000000)">
                    <g id="Group-4" transform="translate(21.000000, 1.000000)" fill="#D2D6D9">
                        <path d="M0.63,2.646 L2.763,2.646 C3.08100159,2.646 3.37499865,2.68199964 3.645,2.754 C3.91500135,2.82600036 4.14749903,2.93699925 4.3425,3.087 C4.53750098,3.23700075 4.69049945,3.42749884 4.8015,3.6585 C4.91250056,3.88950115 4.968,4.16699838 4.968,4.491 C4.968,4.8510018 4.91250056,5.15699874 4.8015,5.409 C4.69049945,5.66100126 4.53600099,5.86499922 4.338,6.021 C4.13999901,6.17700078 3.90750134,6.28949966 3.6405,6.3585 C3.37349867,6.42750035 3.08400156,6.462 2.772,6.462 L1.44,6.462 L1.44,9 L0.63,9 L0.63,2.646 Z M2.637,5.814 C3.10500234,5.814 3.46799871,5.713501 3.726,5.5125 C3.98400129,5.31149899 4.113,4.9710024 4.113,4.491 C4.113,4.26899889 4.07550037,4.08000078 4.0005,3.924 C3.92549962,3.76799922 3.82350064,3.64200048 3.6945,3.546 C3.56549935,3.44999952 3.41250089,3.38100021 3.2355,3.339 C3.05849912,3.29699979 2.86800102,3.276 2.664,3.276 L1.44,3.276 L1.44,5.814 L2.637,5.814 Z M5.859,4.572 L6.507,4.572 L6.579,5.562 C6.70500063,5.23799838 6.90599862,4.97100105 7.182,4.761 C7.45800138,4.55099895 7.78499811,4.446 8.163,4.446 L8.163,5.238 C8.07899958,5.21999991 7.98600051,5.211 7.884,5.211 C7.73399925,5.211 7.58400075,5.23799973 7.434,5.292 C7.28399925,5.34600027 7.14750061,5.4329994 7.0245,5.553 C6.90149939,5.6730006 6.80100039,5.82749905 6.723,6.0165 C6.64499961,6.20550094 6.606,6.43499865 6.606,6.705 L6.606,9 L5.859,9 L5.859,4.572 Z M10.737,9.135 C10.4009983,9.135 10.1055013,9.07350062 9.8505,8.9505 C9.59549873,8.82749938 9.38250086,8.65950107 9.2115,8.4465 C9.04049915,8.23349894 8.91300042,7.98450142 8.829,7.6995 C8.74499958,7.41449857 8.703,7.10700165 8.703,6.777 C8.703,6.44699835 8.74649957,6.14100141 8.8335,5.859 C8.92050044,5.57699859 9.04949915,5.33100105 9.2205,5.121 C9.39150086,4.91099895 9.60449873,4.7460006 9.8595,4.626 C10.1145013,4.5059994 10.4069984,4.446 10.737,4.446 C11.0670016,4.446 11.3594987,4.5059994 11.6145,4.626 C11.8695013,4.7460006 12.0839991,4.90949896 12.258,5.1165 C12.4320009,5.32350103 12.5624996,5.56949857 12.6495,5.8545 C12.7365004,6.13950142 12.78,6.44699835 12.78,6.777 C12.78,7.10700165 12.7365004,7.41449857 12.6495,7.6995 C12.5624996,7.98450142 12.4320009,8.23349894 12.258,8.4465 C12.0839991,8.65950107 11.8695013,8.82749938 11.6145,8.9505 C11.3594987,9.07350062 11.0670016,9.135 10.737,9.135 Z M10.755,8.55 C10.959001,8.55 11.1389992,8.50500045 11.295,8.415 C11.4510008,8.32499955 11.5799995,8.20050079 11.682,8.0415 C11.7840005,7.88249921 11.8619997,7.69500108 11.916,7.479 C11.9700003,7.26299892 11.997,7.02900126 11.997,6.777 C11.997,6.52499874 11.9700003,6.29250106 11.916,6.0795 C11.8619997,5.86649894 11.7810005,5.68200078 11.673,5.526 C11.5649995,5.36999922 11.4330008,5.24850044 11.277,5.1615 C11.1209992,5.07449957 10.941001,5.031 10.737,5.031 C10.5269989,5.031 10.3440008,5.07449957 10.188,5.1615 C10.0319992,5.24850044 9.90300051,5.36999922 9.801,5.526 C9.69899949,5.68200078 9.62100027,5.86649894 9.567,6.0795 C9.51299973,6.29250106 9.486,6.52499874 9.486,6.777 C9.486,7.02900126 9.51299973,7.26299892 9.567,7.479 C9.62100027,7.69500108 9.70049948,7.88249921 9.8055,8.0415 C9.91050052,8.20050079 10.0424992,8.32499955 10.2015,8.415 C10.3605008,8.50500045 10.5449989,8.55 10.755,8.55 Z M12.951,9.972 C12.9930002,9.98400006 13.0544996,9.99749992 13.1355,10.0125 C13.2165004,10.0275001 13.2899997,10.035 13.356,10.035 C13.5300009,10.035 13.6439997,9.98400051 13.698,9.882 C13.7520003,9.77999949 13.779,9.63600093 13.779,9.45 L13.779,4.572 L14.535,4.572 L14.535,9.504 C14.535,9.67800087 14.5185002,9.83399931 14.4855,9.972 C14.4524998,10.1100007 14.3970004,10.2254995 14.319,10.3185 C14.2409996,10.4115005 14.1345007,10.4834997 13.9995,10.5345 C13.8644993,10.5855003 13.698001,10.611 13.5,10.611 C13.3799994,10.611 13.2660005,10.6020001 13.158,10.584 C13.0499995,10.5659999 12.9570004,10.5390002 12.879,10.503 L12.951,9.972 Z M13.779,2.862 L14.535,2.862 L14.535,3.609 L13.779,3.609 L13.779,2.862 Z M16.254,6.957 C16.2840001,7.46700255 16.4144988,7.8614986 16.6455,8.1405 C16.8765012,8.4195014 17.1989979,8.559 17.613,8.559 C18.1350026,8.559 18.5279987,8.31300246 18.792,7.821 L19.359,8.136 C19.1849991,8.43000147 18.9540014,8.66999907 18.666,8.856 C18.3779986,9.04200093 18.0150022,9.135 17.577,9.135 C17.2289983,9.135 16.9245013,9.0750006 16.6635,8.955 C16.4024987,8.8349994 16.1850009,8.67000105 16.011,8.46 C15.8369991,8.24999895 15.7065004,8.00400141 15.6195,7.722 C15.5324996,7.43999859 15.489,7.13700162 15.489,6.813 C15.489,6.49499841 15.5309996,6.19200144 15.615,5.904 C15.6990004,5.61599856 15.8264991,5.36400108 15.9975,5.148 C16.1685009,4.93199892 16.3784988,4.76100063 16.6275,4.635 C16.8765012,4.50899937 17.1689983,4.446 17.505,4.446 C17.8290016,4.446 18.1109988,4.50749938 18.351,4.6305 C18.5910012,4.75350062 18.7904992,4.91849896 18.9495,5.1255 C19.1085008,5.33250103 19.2284996,5.57249864 19.3095,5.8455 C19.3905004,6.11850137 19.431,6.40799847 19.431,6.714 C19.431,6.78000033 19.4295,6.83099982 19.4265,6.867 C19.4235,6.90300018 19.422,6.93299988 19.422,6.957 L16.254,6.957 Z M17.496,5.013 C17.1179981,5.013 16.825501,5.14799865 16.6185,5.418 C16.411499,5.68800135 16.2930001,6.05099772 16.263,6.507 L18.666,6.507 C18.666,6.32099907 18.6450002,6.13950088 18.603,5.9625 C18.5609998,5.78549911 18.4920005,5.6265007 18.396,5.4855 C18.2999995,5.34449929 18.1785007,5.23050043 18.0315,5.1435 C17.8844993,5.05649956 17.7060011,5.013 17.496,5.013 Z M24.039,8.028 C23.8589991,8.3880018 23.6175015,8.66249905 23.3145,8.8515 C23.0114985,9.04050094 22.6440022,9.135 22.212,9.135 C21.8579982,9.135 21.5505013,9.07350062 21.2895,8.9505 C21.0284987,8.82749938 20.8125009,8.66100105 20.6415,8.451 C20.4704991,8.24099895 20.3445004,7.99350142 20.2635,7.7085 C20.1824996,7.42349857 20.142,7.11900162 20.142,6.795 C20.142,6.46499835 20.1854996,6.15750142 20.2725,5.8725 C20.3595004,5.58749857 20.4884991,5.34000105 20.6595,5.13 C20.8305009,4.91999895 21.0449987,4.75350062 21.303,4.6305 C21.5610013,4.50749938 21.8639983,4.446 22.212,4.446 C22.6500022,4.446 23.0144985,4.54349902 23.3055,4.7385 C23.5965015,4.93350097 23.8319991,5.20799823 24.012,5.562 L23.382,5.859 C23.1539989,5.30699724 22.7700027,5.031 22.23,5.031 C22.0019989,5.031 21.8055008,5.07599955 21.6405,5.166 C21.4754992,5.25600045 21.3405005,5.37899922 21.2355,5.535 C21.1304995,5.69100078 21.0525003,5.87249897 21.0015,6.0795 C20.9504997,6.28650103 20.925,6.5099988 20.925,6.75 C20.925,6.97800114 20.9489998,7.19999892 20.997,7.416 C21.0450002,7.63200108 21.1229995,7.82399916 21.231,7.992 C21.3390005,8.16000084 21.4769992,8.29499949 21.645,8.397 C21.8130008,8.49900051 22.0199988,8.55 22.266,8.55 C22.5780016,8.55 22.829999,8.47050079 23.022,8.3115 C23.214001,8.1524992 23.3609995,7.94700126 23.463,7.695 L24.039,8.028 Z M25.254,5.085 L24.498,5.085 L24.498,4.572 L24.66,4.572 C24.8460009,4.572 24.9914995,4.55250019 25.0965,4.5135 C25.2015005,4.4744998 25.2809997,4.4145004 25.335,4.3335 C25.3890003,4.25249959 25.4279999,4.14600066 25.452,4.014 C25.4760001,3.88199934 25.4969999,3.72000096 25.515,3.528 L25.533,3.366 L26.001,3.366 L26.001,4.572 L26.955,4.572 L26.955,5.085 L26.001,5.085 L26.001,7.839 C26.001,8.09100126 26.0384996,8.27249944 26.1135,8.3835 C26.1885004,8.49450055 26.327999,8.55 26.532,8.55 C26.6940008,8.55 26.8439993,8.51400036 26.982,8.442 L27.063,8.982 C26.8349989,9.08400051 26.5830014,9.135 26.307,9.135 C26.0909989,9.135 25.9155007,9.1050003 25.7805,9.045 C25.6454993,8.9849997 25.5390004,8.90400051 25.461,8.802 C25.3829996,8.69999949 25.3290002,8.57700072 25.299,8.433 C25.2689999,8.28899928 25.254,8.13300084 25.254,7.965 L25.254,5.085 Z M29.88,4.572 L30.528,4.572 L30.609,5.436 C30.7170005,5.12999847 30.8849989,4.88850088 31.113,4.7115 C31.3410011,4.53449911 31.6199983,4.446 31.95,4.446 C32.2980017,4.446 32.570999,4.54499901 32.769,4.743 C32.967001,4.94100099 33.0929997,5.18099859 33.147,5.463 C33.2010003,5.32499931 33.2684996,5.19450061 33.3495,5.0715 C33.4305004,4.94849938 33.5279994,4.84050046 33.642,4.7475 C33.7560006,4.65449953 33.8879993,4.58100027 34.038,4.527 C34.1880007,4.47299973 34.358999,4.446 34.551,4.446 C34.8030013,4.446 35.0114992,4.48949956 35.1765,4.5765 C35.3415008,4.66350043 35.4734995,4.78199925 35.5725,4.932 C35.6715005,5.08200075 35.7419998,5.25749899 35.784,5.4585 C35.8260002,5.659501 35.847,5.87099889 35.847,6.093 L35.847,9 L35.1,9 L35.1,6.282 C35.1,5.88599802 35.0295007,5.59050097 34.8885,5.3955 C34.7474993,5.20049902 34.5420013,5.103 34.272,5.103 C33.9779985,5.103 33.732001,5.23349869 33.534,5.4945 C33.335999,5.7555013 33.237,6.12899757 33.237,6.615 L33.237,9 L32.49,9 L32.49,6.318 C32.49,5.90399793 32.4180007,5.59800099 32.274,5.4 C32.1299993,5.20199901 31.9290013,5.103 31.671,5.103 C31.3829986,5.103 31.137001,5.23649866 30.933,5.5035 C30.728999,5.77050133 30.627,6.15599748 30.627,6.66 L30.627,9 L29.88,9 L29.88,4.572 Z M39.762,9 C39.6959997,8.78399892 39.6570001,8.5260015 39.645,8.226 C39.5249994,8.50200138 39.3405012,8.72249917 39.0915,8.8875 C38.8424988,9.05250082 38.5470017,9.135 38.205,9.135 C37.7729978,9.135 37.4310013,9.01200123 37.179,8.766 C36.9269987,8.51999877 36.801,8.19000207 36.801,7.776 C36.801,7.54199883 36.8429996,7.34550079 36.927,7.1865 C37.0110004,7.0274992 37.1279992,6.89550053 37.278,6.7905 C37.4280007,6.68549947 37.604999,6.6030003 37.809,6.543 C38.013001,6.4829997 38.2349988,6.43500018 38.475,6.399 L39.609,6.228 L39.609,5.949 C39.609,5.75099901 39.5850002,5.5920006 39.537,5.472 C39.4889998,5.3519994 39.4230004,5.25900033 39.339,5.193 C39.2549996,5.12699967 39.1590005,5.0835001 39.051,5.0625 C38.9429995,5.04149989 38.8290006,5.031 38.709,5.031 C38.3669983,5.031 38.0850011,5.09399937 37.863,5.22 C37.6409989,5.34600063 37.4550007,5.50499904 37.305,5.697 L36.918,5.211 C37.0920009,5.00099895 37.3334985,4.82100075 37.6425,4.671 C37.9515015,4.52099925 38.3339977,4.446 38.79,4.446 C39.3420028,4.446 39.7424988,4.56899877 39.9915,4.815 C40.2405012,5.06100123 40.365,5.45699727 40.365,6.003 L40.365,7.794 C40.365,7.93800072 40.3665,8.06399946 40.3695,8.172 C40.3725,8.28000054 40.3785,8.38049954 40.3875,8.4735 C40.3965,8.56650047 40.4099999,8.65499958 40.428,8.739 C40.4460001,8.82300042 40.4699998,8.90999955 40.5,9 L39.762,9 Z M39.609,6.723 L38.547,6.894 C38.1809982,6.96000033 37.9215008,7.05899934 37.7685,7.191 C37.6154992,7.32300066 37.539,7.50599883 37.539,7.74 C37.539,7.9800012 37.6094993,8.18099919 37.7505,8.343 C37.8915007,8.50500081 38.0999986,8.586 38.376,8.586 C38.5440008,8.586 38.7029992,8.55300033 38.853,8.487 C39.0030007,8.42099967 39.1334994,8.32950058 39.2445,8.2125 C39.3555006,8.09549941 39.4439997,7.95450083 39.51,7.7895 C39.5760003,7.62449917 39.609,7.44300099 39.609,7.245 L39.609,6.723 Z M41.562,4.572 L42.21,4.572 L42.291,5.454 C42.4050006,5.18399865 42.5864988,4.948501 42.8355,4.7475 C43.0845012,4.54649899 43.3919982,4.446 43.758,4.446 C44.2200023,4.446 44.5604989,4.59299853 44.7795,4.887 C44.9985011,5.18100147 45.108,5.59199736 45.108,6.12 L45.108,9 L44.361,9 L44.361,6.273 C44.361,5.87099799 44.2800008,5.57550094 44.118,5.3865 C43.9559992,5.19749905 43.7370014,5.103 43.461,5.103 C43.1309983,5.103 42.8565011,5.23799865 42.6375,5.508 C42.4184989,5.77800135 42.309,6.15899754 42.309,6.651 L42.309,9 L41.562,9 L41.562,4.572 Z M49.023,9 C48.9569997,8.78399892 48.9180001,8.5260015 48.906,8.226 C48.7859994,8.50200138 48.6015012,8.72249917 48.3525,8.8875 C48.1034988,9.05250082 47.8080017,9.135 47.466,9.135 C47.0339978,9.135 46.6920013,9.01200123 46.44,8.766 C46.1879987,8.51999877 46.062,8.19000207 46.062,7.776 C46.062,7.54199883 46.1039996,7.34550079 46.188,7.1865 C46.2720004,7.0274992 46.3889993,6.89550053 46.539,6.7905 C46.6890007,6.68549947 46.865999,6.6030003 47.07,6.543 C47.274001,6.4829997 47.4959988,6.43500018 47.736,6.399 L48.87,6.228 L48.87,5.949 C48.87,5.75099901 48.8460002,5.5920006 48.798,5.472 C48.7499998,5.3519994 48.6840004,5.25900033 48.6,5.193 C48.5159996,5.12699967 48.4200005,5.0835001 48.312,5.0625 C48.2039995,5.04149989 48.0900006,5.031 47.97,5.031 C47.6279983,5.031 47.3460011,5.09399937 47.124,5.22 C46.9019989,5.34600063 46.7160008,5.50499904 46.566,5.697 L46.179,5.211 C46.3530009,5.00099895 46.5944985,4.82100075 46.9035,4.671 C47.2125015,4.52099925 47.5949977,4.446 48.051,4.446 C48.6030028,4.446 49.0034988,4.56899877 49.2525,4.815 C49.5015012,5.06100123 49.626,5.45699727 49.626,6.003 L49.626,7.794 C49.626,7.93800072 49.6275,8.06399946 49.6305,8.172 C49.6335,8.28000054 49.6395,8.38049954 49.6485,8.4735 C49.6575,8.56650047 49.6709999,8.65499958 49.689,8.739 C49.7070001,8.82300042 49.7309999,8.90999955 49.761,9 L49.023,9 Z M48.87,6.723 L47.808,6.894 C47.4419982,6.96000033 47.1825008,7.05899934 47.0295,7.191 C46.8764992,7.32300066 46.8,7.50599883 46.8,7.74 C46.8,7.9800012 46.8704993,8.18099919 47.0115,8.343 C47.1525007,8.50500081 47.3609986,8.586 47.637,8.586 C47.8050008,8.586 47.9639993,8.55300033 48.114,8.487 C48.2640008,8.42099967 48.3944994,8.32950058 48.5055,8.2125 C48.6165006,8.09549941 48.7049997,7.95450083 48.771,7.7895 C48.8370003,7.62449917 48.87,7.44300099 48.87,7.245 L48.87,6.723 Z M51.183,9.531 C51.3570009,9.69900084 51.5654988,9.83249951 51.8085,9.9315 C52.0515012,10.0305005 52.3109986,10.08 52.587,10.08 C52.8150011,10.08 53.0009993,10.0455003 53.145,9.9765 C53.2890007,9.90749965 53.4029996,9.8130006 53.487,9.693 C53.5710004,9.5729994 53.6294998,9.43650076 53.6625,9.2835 C53.6955002,9.13049923 53.712,8.96700087 53.712,8.793 L53.712,7.974 C53.5979994,8.24400135 53.4270011,8.46149918 53.199,8.6265 C52.9709989,8.79150082 52.6770018,8.874 52.317,8.874 C52.0589987,8.874 51.825001,8.82450049 51.615,8.7255 C51.4049989,8.6264995 51.2250007,8.48400093 51.075,8.298 C50.9249993,8.11199907 50.8095004,7.88400135 50.7285,7.614 C50.6474996,7.34399865 50.607,7.04100168 50.607,6.705 C50.607,6.37499835 50.6474996,6.07200138 50.7285,5.796 C50.8095004,5.51999862 50.9264992,5.28300099 51.0795,5.085 C51.2325008,4.88699901 51.4184989,4.73250055 51.6375,4.6215 C51.8565011,4.51049944 52.1009987,4.455 52.371,4.455 C52.7250018,4.455 53.0189988,4.54349911 53.253,4.7205 C53.4870012,4.89750088 53.6549995,5.12399862 53.757,5.4 L53.883,4.572 L54.459,4.572 L54.459,8.775 C54.459,9.02700126 54.4290003,9.26549887 54.369,9.4905 C54.3089997,9.71550112 54.2070007,9.91499913 54.063,10.089 C53.9189993,10.2630009 53.7270012,10.4009995 53.487,10.503 C53.2469988,10.6050005 52.9470018,10.656 52.587,10.656 C52.196998,10.656 51.8475015,10.6005006 51.5385,10.4895 C51.2294985,10.3784994 50.9700011,10.2390008 50.76,10.071 L51.183,9.531 Z M53.712,6.705 C53.712,6.60299949 53.7105,6.50550046 53.7075,6.4125 C53.7045,6.31949954 53.6970001,6.24900024 53.685,6.201 C53.6609999,6.05699928 53.6220003,5.91600069 53.568,5.778 C53.5139997,5.63999931 53.4405005,5.52000051 53.3475,5.418 C53.2544995,5.31599949 53.1405007,5.23350031 53.0055,5.1705 C52.8704993,5.10749969 52.7130009,5.076 52.533,5.076 C52.334999,5.076 52.1640007,5.11799958 52.02,5.202 C51.8759993,5.28600042 51.7575005,5.39999928 51.6645,5.544 C51.5714995,5.68800072 51.5025002,5.85899901 51.4575,6.057 C51.4124998,6.25500099 51.39,6.46499889 51.39,6.687 C51.39,6.88500099 51.4109998,7.08149902 51.453,7.2765 C51.4950002,7.47150097 51.5609995,7.64399925 51.651,7.794 C51.7410004,7.94400075 51.8594993,8.06549954 52.0065,8.1585 C52.1535007,8.25150046 52.3319989,8.298 52.542,8.298 C52.8360015,8.298 53.0729991,8.21550082 53.253,8.0505 C53.4330009,7.88549917 53.5589996,7.67700126 53.631,7.425 C53.6610001,7.34099958 53.6819999,7.23600063 53.694,7.11 C53.7060001,6.98399937 53.712,6.86400057 53.712,6.75 L53.712,6.705 Z M56.178,6.957 C56.2080001,7.46700255 56.3384988,7.8614986 56.5695,8.1405 C56.8005012,8.4195014 57.1229979,8.559 57.537,8.559 C58.0590026,8.559 58.4519987,8.31300246 58.716,7.821 L59.283,8.136 C59.1089991,8.43000147 58.8780014,8.66999907 58.59,8.856 C58.3019986,9.04200093 57.9390022,9.135 57.501,9.135 C57.1529983,9.135 56.8485013,9.0750006 56.5875,8.955 C56.3264987,8.8349994 56.1090009,8.67000105 55.935,8.46 C55.7609991,8.24999895 55.6305004,8.00400141 55.5435,7.722 C55.4564996,7.43999859 55.413,7.13700162 55.413,6.813 C55.413,6.49499841 55.4549996,6.19200144 55.539,5.904 C55.6230004,5.61599856 55.7504991,5.36400108 55.9215,5.148 C56.0925009,4.93199892 56.3024988,4.76100063 56.5515,4.635 C56.8005012,4.50899937 57.0929983,4.446 57.429,4.446 C57.7530016,4.446 58.0349988,4.50749938 58.275,4.6305 C58.5150012,4.75350062 58.7144992,4.91849896 58.8735,5.1255 C59.0325008,5.33250103 59.1524996,5.57249864 59.2335,5.8455 C59.3145004,6.11850137 59.355,6.40799847 59.355,6.714 C59.355,6.78000033 59.3535,6.83099982 59.3505,6.867 C59.3475,6.90300018 59.346,6.93299988 59.346,6.957 L56.178,6.957 Z M57.42,5.013 C57.0419981,5.013 56.749501,5.14799865 56.5425,5.418 C56.335499,5.68800135 56.2170002,6.05099772 56.187,6.507 L58.59,6.507 C58.59,6.32099907 58.5690002,6.13950088 58.527,5.9625 C58.4849998,5.78549911 58.4160005,5.6265007 58.32,5.4855 C58.2239995,5.34449929 58.1025007,5.23050043 57.9555,5.1435 C57.8084993,5.05649956 57.630001,5.013 57.42,5.013 Z M60.264,4.572 L60.912,4.572 L60.993,5.436 C61.1010005,5.12999847 61.2689989,4.88850088 61.497,4.7115 C61.7250011,4.53449911 62.0039984,4.446 62.334,4.446 C62.6820017,4.446 62.954999,4.54499901 63.153,4.743 C63.351001,4.94100099 63.4769997,5.18099859 63.531,5.463 C63.5850003,5.32499931 63.6524996,5.19450061 63.7335,5.0715 C63.8145004,4.94849938 63.9119994,4.84050046 64.026,4.7475 C64.1400006,4.65449953 64.2719993,4.58100027 64.422,4.527 C64.5720008,4.47299973 64.742999,4.446 64.935,4.446 C65.1870013,4.446 65.3954992,4.48949956 65.5605,4.5765 C65.7255008,4.66350043 65.8574995,4.78199925 65.9565,4.932 C66.0555005,5.08200075 66.1259998,5.25749899 66.168,5.4585 C66.2100002,5.659501 66.231,5.87099889 66.231,6.093 L66.231,9 L65.484,9 L65.484,6.282 C65.484,5.88599802 65.4135007,5.59050097 65.2725,5.3955 C65.1314993,5.20049902 64.9260014,5.103 64.656,5.103 C64.3619985,5.103 64.116001,5.23349869 63.918,5.4945 C63.719999,5.7555013 63.621,6.12899757 63.621,6.615 L63.621,9 L62.874,9 L62.874,6.318 C62.874,5.90399793 62.8020007,5.59800099 62.658,5.4 C62.5139993,5.20199901 62.3130013,5.103 62.055,5.103 C61.7669986,5.103 61.521001,5.23649866 61.317,5.5035 C61.112999,5.77050133 61.011,6.15599748 61.011,6.66 L61.011,9 L60.264,9 L60.264,4.572 Z M67.932,6.957 C67.9620002,7.46700255 68.0924988,7.8614986 68.3235,8.1405 C68.5545012,8.4195014 68.8769979,8.559 69.291,8.559 C69.8130026,8.559 70.2059987,8.31300246 70.47,7.821 L71.037,8.136 C70.8629991,8.43000147 70.6320014,8.66999907 70.344,8.856 C70.0559986,9.04200093 69.6930022,9.135 69.255,9.135 C68.9069983,9.135 68.6025013,9.0750006 68.3415,8.955 C68.0804987,8.8349994 67.8630009,8.67000105 67.689,8.46 C67.5149991,8.24999895 67.3845004,8.00400141 67.2975,7.722 C67.2104996,7.43999859 67.167,7.13700162 67.167,6.813 C67.167,6.49499841 67.2089996,6.19200144 67.293,5.904 C67.3770004,5.61599856 67.5044991,5.36400108 67.6755,5.148 C67.8465009,4.93199892 68.0564988,4.76100063 68.3055,4.635 C68.5545012,4.50899937 68.8469983,4.446 69.183,4.446 C69.5070016,4.446 69.7889988,4.50749938 70.029,4.6305 C70.2690012,4.75350062 70.4684992,4.91849896 70.6275,5.1255 C70.7865008,5.33250103 70.9064996,5.57249864 70.9875,5.8455 C71.0685004,6.11850137 71.109,6.40799847 71.109,6.714 C71.109,6.78000033 71.1075,6.83099982 71.1045,6.867 C71.1015,6.90300018 71.1,6.93299988 71.1,6.957 L67.932,6.957 Z M69.174,5.013 C68.7959981,5.013 68.503501,5.14799865 68.2965,5.418 C68.089499,5.68800135 67.9710002,6.05099772 67.941,6.507 L70.344,6.507 C70.344,6.32099907 70.3230002,6.13950088 70.281,5.9625 C70.2389998,5.78549911 70.1700005,5.6265007 70.074,5.4855 C69.9779995,5.34449929 69.8565007,5.23050043 69.7095,5.1435 C69.5624993,5.05649956 69.3840011,5.013 69.174,5.013 Z M72.018,4.572 L72.666,4.572 L72.747,5.454 C72.8610006,5.18399865 73.0424988,4.948501 73.2915,4.7475 C73.5405012,4.54649899 73.8479982,4.446 74.214,4.446 C74.6760023,4.446 75.0164989,4.59299853 75.2355,4.887 C75.4545011,5.18100147 75.564,5.59199736 75.564,6.12 L75.564,9 L74.817,9 L74.817,6.273 C74.817,5.87099799 74.7360008,5.57550094 74.574,5.3865 C74.4119992,5.19749905 74.1930014,5.103 73.917,5.103 C73.5869984,5.103 73.3125011,5.23799865 73.0935,5.508 C72.8744989,5.77800135 72.765,6.15899754 72.765,6.651 L72.765,9 L72.018,9 L72.018,4.572 Z M77.085,5.085 L76.329,5.085 L76.329,4.572 L76.491,4.572 C76.6770009,4.572 76.8224995,4.55250019 76.9275,4.5135 C77.0325005,4.4744998 77.1119997,4.4145004 77.166,4.3335 C77.2200003,4.25249959 77.2589999,4.14600066 77.283,4.014 C77.3070001,3.88199934 77.3279999,3.72000096 77.346,3.528 L77.364,3.366 L77.832,3.366 L77.832,4.572 L78.786,4.572 L78.786,5.085 L77.832,5.085 L77.832,7.839 C77.832,8.09100126 77.8694996,8.27249944 77.9445,8.3835 C78.0195004,8.49450055 78.158999,8.55 78.363,8.55 C78.5250008,8.55 78.6749993,8.51400036 78.813,8.442 L78.894,8.982 C78.6659989,9.08400051 78.4140014,9.135 78.138,9.135 C77.9219989,9.135 77.7465007,9.1050003 77.6115,9.045 C77.4764993,8.9849997 77.3700004,8.90400051 77.292,8.802 C77.2139996,8.69999949 77.1600002,8.57700072 77.13,8.433 C77.0999999,8.28899928 77.085,8.13300084 77.085,7.965 L77.085,5.085 Z" id="Project-management"></path>
                    </g>
                    <g id="pie-chart-copy" fill-rule="nonzero" fill="#D1D6D9">
                        <path d="M5.33307408,6.41838864 L9.12463543,10.3559265 C8.63387128,10.8752776 8.06092423,11.2791277 7.40579428,11.5674766 C6.75066433,11.8558255 6.0597576,12 5.33307408,12 C4.3655454,12 3.47319982,11.7524399 2.65603733,11.2573198 C1.83887485,10.7621996 1.19191134,10.0903278 0.715146801,9.24170425 C0.238382267,8.3930807 -9.21048332e-16,7.46637948 0,6.46160059 C9.21048332e-16,5.4568217 0.238382267,4.53012048 0.715146801,3.68149694 C1.19191134,2.83287339 1.83887485,2.16100155 2.65603733,1.6658814 C3.47319982,1.17076126 4.3655454,0.923201185 5.33307408,0.923201185 L5.33307408,6.41838864 Z M6.63192689,6.46160059 L12,6.46160059 C12,7.21653093 11.8611705,7.93403783 11.5835116,8.61412129 C11.3058526,9.29420475 10.9169745,9.88921047 10.4168773,10.3991385 L6.63192689,6.46160059 Z M11.5551235,5.53839941 L6.22204939,5.53839941 L6.22204939,0 C7.18957807,0 8.08192365,0.247560073 8.89908614,0.742680218 C9.71624862,1.23780036 10.3632121,1.90967221 10.8399767,2.75829575 C11.3167412,3.6069193 11.5551235,4.53362052 11.5551235,5.53839941 L11.5551235,5.53839941 Z" id="Shape"></path>
                    </g>
                </g>
                <g id="Group-6" transform="translate(23.000000, 216.000000)">
                    <path d="M21.63,2.646 L22.638,2.646 C22.8000008,3.04800201 22.9664991,3.46649782 23.1375,3.9015 C23.3085009,4.33650217 23.4764992,4.76699787 23.6415,5.193 C23.8065008,5.61900213 23.9654992,6.02999802 24.1185,6.426 C24.2715008,6.82200198 24.4109994,7.18499835 24.537,7.515 C24.6630006,7.18499835 24.8009993,6.82200198 24.951,6.426 C25.1010008,6.02999802 25.2599992,5.61900213 25.428,5.193 C25.5960008,4.76699787 25.7654991,4.33800216 25.9365,3.906 C26.1075009,3.47399784 26.2739992,3.05400204 26.436,2.646 L27.399,2.646 L27.399,9 L26.634,9 L26.634,7.632 C26.634,7.16399766 26.6355,6.70200228 26.6385,6.246 C26.6415,5.78999772 26.6445,5.34750214 26.6475,4.9185 C26.6505,4.48949785 26.655,4.09200183 26.661,3.726 C26.5229993,4.09800186 26.3685009,4.49849786 26.1975,4.9275 C26.0264991,5.35650215 25.8495009,5.8004977 25.6665,6.2595 C25.4834991,6.7185023 25.2975009,7.18199766 25.1085,7.65 C24.9194991,8.11800234 24.7350009,8.57699775 24.555,9.027 L24.483,9.027 C24.3209992,8.61899796 24.141001,8.17200243 23.943,7.686 C23.744999,7.19999757 23.548501,6.71550241 23.3535,6.2325 C23.158499,5.74949758 22.9740009,5.28900219 22.8,4.851 C22.6259991,4.41299781 22.4820006,4.03800156 22.368,3.726 C22.374,4.09200183 22.38,4.48949785 22.386,4.9185 C22.392,5.34750214 22.395,5.7914977 22.395,6.2505 C22.395,6.7095023 22.3965,7.17299766 22.3995,7.641 C22.4025,8.10900234 22.404,8.56199781 22.404,9 L21.63,9 L21.63,2.646 Z M30.441,9.135 C30.1049983,9.135 29.8095013,9.07350062 29.5545,8.9505 C29.2994987,8.82749938 29.0865009,8.65950107 28.9155,8.4465 C28.7444991,8.23349894 28.6170004,7.98450142 28.533,7.6995 C28.4489996,7.41449857 28.407,7.10700165 28.407,6.777 C28.407,6.44699835 28.4504996,6.14100141 28.5375,5.859 C28.6245004,5.57699859 28.7534991,5.33100105 28.9245,5.121 C29.0955009,4.91099895 29.3084987,4.7460006 29.5635,4.626 C29.8185013,4.5059994 30.1109984,4.446 30.441,4.446 C30.7710017,4.446 31.0634987,4.5059994 31.3185,4.626 C31.5735013,4.7460006 31.7879991,4.90949896 31.962,5.1165 C32.1360009,5.32350103 32.2664996,5.56949857 32.3535,5.8545 C32.4405004,6.13950142 32.484,6.44699835 32.484,6.777 C32.484,7.10700165 32.4405004,7.41449857 32.3535,7.6995 C32.2664996,7.98450142 32.1360009,8.23349894 31.962,8.4465 C31.7879991,8.65950107 31.5735013,8.82749938 31.3185,8.9505 C31.0634987,9.07350062 30.7710017,9.135 30.441,9.135 Z M30.459,8.55 C30.663001,8.55 30.8429992,8.50500045 30.999,8.415 C31.1550008,8.32499955 31.2839995,8.20050079 31.386,8.0415 C31.4880005,7.88249921 31.5659997,7.69500108 31.62,7.479 C31.6740003,7.26299892 31.701,7.02900126 31.701,6.777 C31.701,6.52499874 31.6740003,6.29250106 31.62,6.0795 C31.5659997,5.86649893 31.4850005,5.68200078 31.377,5.526 C31.2689995,5.36999922 31.1370008,5.24850043 30.981,5.1615 C30.8249992,5.07449956 30.645001,5.031 30.441,5.031 C30.230999,5.031 30.0480008,5.07449956 29.892,5.1615 C29.7359992,5.24850043 29.6070005,5.36999922 29.505,5.526 C29.4029995,5.68200078 29.3250003,5.86649893 29.271,6.0795 C29.2169997,6.29250106 29.19,6.52499874 29.19,6.777 C29.19,7.02900126 29.2169997,7.26299892 29.271,7.479 C29.3250003,7.69500108 29.4044995,7.88249921 29.5095,8.0415 C29.6145005,8.20050079 29.7464992,8.32499955 29.9055,8.415 C30.0645008,8.50500045 30.248999,8.55 30.459,8.55 Z M33.438,4.572 L34.086,4.572 L34.167,5.454 C34.2810006,5.18399865 34.4624988,4.948501 34.7115,4.7475 C34.9605012,4.54649899 35.2679982,4.446 35.634,4.446 C36.0960023,4.446 36.4364989,4.59299853 36.6555,4.887 C36.8745011,5.18100147 36.984,5.59199736 36.984,6.12 L36.984,9 L36.237,9 L36.237,6.273 C36.237,5.87099799 36.1560008,5.57550094 35.994,5.3865 C35.8319992,5.19749905 35.6130014,5.103 35.337,5.103 C35.0069984,5.103 34.7325011,5.23799865 34.5135,5.508 C34.2944989,5.77800135 34.185,6.15899754 34.185,6.651 L34.185,9 L33.438,9 L33.438,4.572 Z M38.505,5.085 L37.749,5.085 L37.749,4.572 L37.911,4.572 C38.0970009,4.572 38.2424995,4.55250019 38.3475,4.5135 C38.4525005,4.4744998 38.5319997,4.4145004 38.586,4.3335 C38.6400003,4.25249959 38.6789999,4.14600066 38.703,4.014 C38.7270001,3.88199934 38.7479999,3.72000096 38.766,3.528 L38.784,3.366 L39.252,3.366 L39.252,4.572 L40.206,4.572 L40.206,5.085 L39.252,5.085 L39.252,7.839 C39.252,8.09100126 39.2894996,8.27249945 39.3645,8.3835 C39.4395004,8.49450056 39.578999,8.55 39.783,8.55 C39.9450008,8.55 40.0949993,8.51400036 40.233,8.442 L40.314,8.982 C40.0859989,9.08400051 39.8340014,9.135 39.558,9.135 C39.3419989,9.135 39.1665007,9.1050003 39.0315,9.045 C38.8964993,8.9849997 38.7900004,8.90400051 38.712,8.802 C38.6339996,8.69999949 38.5800002,8.57700072 38.55,8.433 C38.5199999,8.28899928 38.505,8.13300084 38.505,7.965 L38.505,5.085 Z M41.106,2.646 L41.853,2.646 L41.853,5.445 C41.9070003,5.31299934 41.9759996,5.1870006 42.06,5.067 C42.1440004,4.9469994 42.2459994,4.84050046 42.366,4.7475 C42.4860006,4.65449953 42.6239992,4.58100027 42.78,4.527 C42.9360008,4.47299973 43.109999,4.446 43.302,4.446 C43.7640023,4.446 44.1044989,4.59749848 44.3235,4.9005 C44.5425011,5.20350151 44.652,5.61299742 44.652,6.129 L44.652,9 L43.905,9 L43.905,6.246 C43.905,5.86799811 43.8270008,5.58450095 43.671,5.3955 C43.5149992,5.20649906 43.2930014,5.112 43.005,5.112 C42.8369992,5.112 42.6825007,5.14799964 42.5415,5.22 C42.4004993,5.29200036 42.2790005,5.39399934 42.177,5.526 C42.0749995,5.65800066 41.9955003,5.81699907 41.9385,6.003 C41.8814997,6.18900093 41.853,6.39299889 41.853,6.615 L41.853,9 L41.106,9 L41.106,2.646 Z M45.786,2.646 L46.533,2.646 L46.533,9 L45.786,9 L45.786,2.646 Z M47.586,9.945 C47.6520003,9.96900012 47.7269996,9.98999991 47.811,10.008 C47.8950004,10.0260001 47.9819995,10.035 48.072,10.035 C48.1680005,10.035 48.2504997,10.0215001 48.3195,9.9945 C48.3885003,9.96749986 48.4514997,9.91800036 48.5085,9.846 C48.5655003,9.77399964 48.6194997,9.6780006 48.6705,9.558 C48.7215003,9.4379994 48.7769997,9.28200096 48.837,9.09 L47.334,4.572 L48.144,4.572 L49.224,8.235 L50.295,4.572 L51.105,4.572 L49.746,8.649 C49.6319994,8.99700174 49.5285005,9.29399877 49.4355,9.54 C49.3424995,9.78600123 49.2390006,9.9884992 49.125,10.1475 C49.0109994,10.3065008 48.8715008,10.4234996 48.7065,10.4985 C48.5414992,10.5735004 48.3300013,10.611 48.072,10.611 C47.9699995,10.611 47.8605006,10.6065 47.7435,10.5975 C47.6264994,10.5885 47.5350003,10.5720001 47.469,10.548 L47.586,9.945 Z M53.94,4.572 L54.588,4.572 L54.66,5.562 C54.7860006,5.23799838 54.9869986,4.97100105 55.263,4.761 C55.5390014,4.55099895 55.8659981,4.446 56.244,4.446 L56.244,5.238 C56.1599996,5.21999991 56.0670005,5.211 55.965,5.211 C55.8149992,5.211 55.6650008,5.23799973 55.515,5.292 C55.3649992,5.34600027 55.2285006,5.4329994 55.1055,5.553 C54.9824994,5.6730006 54.8820004,5.82749905 54.804,6.0165 C54.7259996,6.20550094 54.687,6.43499865 54.687,6.705 L54.687,9 L53.94,9 L53.94,4.572 Z M57.549,6.957 C57.5790001,7.46700255 57.7094988,7.8614986 57.9405,8.1405 C58.1715012,8.4195014 58.4939979,8.559 58.908,8.559 C59.4300026,8.559 59.8229987,8.31300246 60.087,7.821 L60.654,8.136 C60.4799991,8.43000147 60.2490014,8.66999907 59.961,8.856 C59.6729986,9.04200093 59.3100022,9.135 58.872,9.135 C58.5239983,9.135 58.2195013,9.0750006 57.9585,8.955 C57.6974987,8.8349994 57.4800009,8.67000105 57.306,8.46 C57.1319991,8.24999895 57.0015004,8.00400141 56.9145,7.722 C56.8274996,7.43999859 56.784,7.13700162 56.784,6.813 C56.784,6.49499841 56.8259996,6.19200144 56.91,5.904 C56.9940004,5.61599856 57.1214991,5.36400108 57.2925,5.148 C57.4635009,4.93199892 57.6734988,4.76100063 57.9225,4.635 C58.1715012,4.50899937 58.4639983,4.446 58.8,4.446 C59.1240016,4.446 59.4059988,4.50749938 59.646,4.6305 C59.8860012,4.75350062 60.0854992,4.91849896 60.2445,5.1255 C60.4035008,5.33250103 60.5234996,5.57249864 60.6045,5.8455 C60.6855004,6.11850137 60.726,6.40799847 60.726,6.714 C60.726,6.78000033 60.7245,6.83099982 60.7215,6.867 C60.7185,6.90300018 60.717,6.93299988 60.717,6.957 L57.549,6.957 Z M58.791,5.013 C58.4129981,5.013 58.120501,5.14799865 57.9135,5.418 C57.706499,5.68800135 57.5880002,6.05099772 57.558,6.507 L59.961,6.507 C59.961,6.32099907 59.9400002,6.13950089 59.898,5.9625 C59.8559998,5.78549911 59.7870005,5.6265007 59.691,5.4855 C59.5949995,5.34449929 59.4735007,5.23050043 59.3265,5.1435 C59.1794993,5.05649956 59.001001,5.013 58.791,5.013 Z M61.635,4.572 L62.382,4.572 L62.382,5.427 C62.4360003,5.30099937 62.5049996,5.1780006 62.589,5.058 C62.6730004,4.9379994 62.7734994,4.83300045 62.8905,4.743 C63.0075006,4.65299955 63.1439992,4.58100027 63.3,4.527 C63.4560008,4.47299973 63.632999,4.446 63.831,4.446 C64.1190014,4.446 64.3694989,4.5059994 64.5825,4.626 C64.7955011,4.7460006 64.9709993,4.91099895 65.109,5.121 C65.2470007,5.33100105 65.3504997,5.5754986 65.4195,5.8545 C65.4885003,6.13350139 65.523,6.43499838 65.523,6.759 C65.523,7.14300192 65.4780005,7.48199853 65.388,7.776 C65.2979996,8.07000147 65.1720008,8.31599901 65.01,8.514 C64.8479992,8.71200099 64.6590011,8.86199949 64.443,8.964 C64.2269989,9.06600051 63.9930013,9.117 63.741,9.117 C63.4109984,9.117 63.1275012,9.03600081 62.8905,8.874 C62.6534988,8.71199919 62.4840005,8.5110012 62.382,8.271 L62.382,10.557 L61.635,10.557 L61.635,4.572 Z M62.382,6.813 C62.382,6.93900063 62.3865,7.05449948 62.3955,7.1595 C62.4045,7.26450052 62.4149999,7.35299964 62.427,7.425 C62.4510001,7.56900072 62.4959997,7.70699934 62.562,7.839 C62.6280003,7.97100066 62.7089995,8.0864995 62.805,8.1855 C62.9010005,8.28450049 63.0134994,8.3639997 63.1425,8.424 C63.2715006,8.4840003 63.4139992,8.514 63.57,8.514 C63.774001,8.514 63.9494993,8.46600048 64.0965,8.37 C64.2435007,8.27399952 64.3649995,8.14500081 64.461,7.983 C64.5570005,7.82099919 64.6274998,7.63650104 64.6725,7.4295 C64.7175002,7.22249896 64.74,7.00800111 64.74,6.786 C64.74,6.56399889 64.7190002,6.34950103 64.677,6.1425 C64.6349998,5.93549896 64.5675005,5.75250079 64.4745,5.5935 C64.3814995,5.4344992 64.2600008,5.30700048 64.11,5.211 C63.9599993,5.11499952 63.7800011,5.067 63.57,5.067 C63.4079992,5.067 63.2595007,5.0969997 63.1245,5.157 C62.9894993,5.2170003 62.8740005,5.29799949 62.778,5.4 C62.6819995,5.50200051 62.6025003,5.61899934 62.5395,5.751 C62.4764997,5.88300066 62.4360001,6.02099928 62.418,6.165 C62.4059999,6.2250003 62.397,6.30749948 62.391,6.4125 C62.385,6.51750052 62.382,6.63899931 62.382,6.777 L62.382,6.813 Z M68.313,9.135 C67.9769983,9.135 67.6815013,9.07350062 67.4265,8.9505 C67.1714987,8.82749938 66.9585009,8.65950107 66.7875,8.4465 C66.6164991,8.23349894 66.4890004,7.98450142 66.405,7.6995 C66.3209996,7.41449857 66.279,7.10700165 66.279,6.777 C66.279,6.44699835 66.3224996,6.14100141 66.4095,5.859 C66.4965004,5.57699859 66.6254991,5.33100105 66.7965,5.121 C66.9675009,4.91099895 67.1804987,4.7460006 67.4355,4.626 C67.6905013,4.5059994 67.9829984,4.446 68.313,4.446 C68.6430017,4.446 68.9354987,4.5059994 69.1905,4.626 C69.4455013,4.7460006 69.6599991,4.90949896 69.834,5.1165 C70.0080009,5.32350103 70.1384996,5.56949857 70.2255,5.8545 C70.3125004,6.13950142 70.356,6.44699835 70.356,6.777 C70.356,7.10700165 70.3125004,7.41449857 70.2255,7.6995 C70.1384996,7.98450142 70.0080009,8.23349894 69.834,8.4465 C69.6599991,8.65950107 69.4455013,8.82749938 69.1905,8.9505 C68.9354987,9.07350062 68.6430017,9.135 68.313,9.135 Z M68.331,8.55 C68.535001,8.55 68.7149992,8.50500045 68.871,8.415 C69.0270008,8.32499955 69.1559995,8.20050079 69.258,8.0415 C69.3600005,7.88249921 69.4379997,7.69500108 69.492,7.479 C69.5460003,7.26299892 69.573,7.02900126 69.573,6.777 C69.573,6.52499874 69.5460003,6.29250106 69.492,6.0795 C69.4379997,5.86649893 69.3570005,5.68200078 69.249,5.526 C69.1409995,5.36999922 69.0090008,5.24850043 68.853,5.1615 C68.6969992,5.07449956 68.517001,5.031 68.313,5.031 C68.102999,5.031 67.9200008,5.07449956 67.764,5.1615 C67.6079992,5.24850043 67.4790005,5.36999922 67.377,5.526 C67.2749995,5.68200078 67.1970003,5.86649893 67.143,6.0795 C67.0889997,6.29250106 67.062,6.52499874 67.062,6.777 C67.062,7.02900126 67.0889997,7.26299892 67.143,7.479 C67.1970003,7.69500108 67.2764995,7.88249921 67.3815,8.0415 C67.4865005,8.20050079 67.6184992,8.32499955 67.7775,8.415 C67.9365008,8.50500045 68.120999,8.55 68.331,8.55 Z M71.31,4.572 L71.958,4.572 L72.03,5.562 C72.1560006,5.23799838 72.3569986,4.97100105 72.633,4.761 C72.9090014,4.55099895 73.2359981,4.446 73.614,4.446 L73.614,5.238 C73.5299996,5.21999991 73.4370005,5.211 73.335,5.211 C73.1849993,5.211 73.0350008,5.23799973 72.885,5.292 C72.7349993,5.34600027 72.5985006,5.4329994 72.4755,5.553 C72.3524994,5.6730006 72.2520004,5.82749905 72.174,6.0165 C72.0959996,6.20550094 72.057,6.43499865 72.057,6.705 L72.057,9 L71.31,9 L71.31,4.572 Z M74.739,5.085 L73.983,5.085 L73.983,4.572 L74.145,4.572 C74.3310009,4.572 74.4764995,4.55250019 74.5815,4.5135 C74.6865005,4.4744998 74.7659997,4.4145004 74.82,4.3335 C74.8740003,4.25249959 74.9129999,4.14600066 74.937,4.014 C74.9610001,3.88199934 74.9819999,3.72000096 75,3.528 L75.018,3.366 L75.486,3.366 L75.486,4.572 L76.44,4.572 L76.44,5.085 L75.486,5.085 L75.486,7.839 C75.486,8.09100126 75.5234996,8.27249945 75.5985,8.3835 C75.6735004,8.49450056 75.812999,8.55 76.017,8.55 C76.1790008,8.55 76.3289993,8.51400036 76.467,8.442 L76.548,8.982 C76.3199989,9.08400051 76.0680014,9.135 75.792,9.135 C75.5759989,9.135 75.4005007,9.1050003 75.2655,9.045 C75.1304993,8.9849997 75.0240004,8.90400051 74.946,8.802 C74.8679996,8.69999949 74.8140002,8.57700072 74.784,8.433 C74.7539999,8.28899928 74.739,8.13300084 74.739,7.965 L74.739,5.085 Z M77.421,7.911 C77.5710008,8.10300096 77.7644988,8.26199937 78.0015,8.388 C78.2385012,8.51400063 78.4979986,8.577 78.78,8.577 C79.0320013,8.577 79.2509991,8.5170006 79.437,8.397 C79.6230009,8.2769994 79.716,8.0970012 79.716,7.857 C79.716,7.67099907 79.6545006,7.52550052 79.5315,7.4205 C79.4084994,7.31549948 79.2555009,7.22700036 79.0725,7.155 C78.8894991,7.08299964 78.6900011,7.0170003 78.474,6.957 C78.2579989,6.8969997 78.0585009,6.81900048 77.8755,6.723 C77.6924991,6.62699952 77.5395006,6.50100078 77.4165,6.345 C77.2934994,6.18899922 77.232,5.97600135 77.232,5.706 C77.232,5.48399889 77.2769996,5.29350079 77.367,5.1345 C77.4570005,4.97549921 77.5754993,4.84500051 77.7225,4.743 C77.8695007,4.64099949 78.038999,4.56600024 78.231,4.518 C78.423001,4.46999976 78.623999,4.446 78.834,4.446 C79.4580031,4.446 79.9769979,4.6259982 80.391,4.986 L80.013,5.49 C79.8809993,5.35199931 79.7055011,5.23650046 79.4865,5.1435 C79.2674989,5.05049954 79.0410012,5.004 78.807,5.004 C78.7049995,5.004 78.6045005,5.01599988 78.5055,5.04 C78.4064995,5.06400012 78.3195004,5.10149974 78.2445,5.1525 C78.1694996,5.20350025 78.1095002,5.26799961 78.0645,5.346 C78.0194998,5.42400039 77.997,5.51999943 77.997,5.634 C77.997,5.80800087 78.0584994,5.94299952 78.1815,6.039 C78.3045006,6.13500048 78.4574991,6.21749966 78.6405,6.2865 C78.8235009,6.35550034 79.0214989,6.42149968 79.2345,6.4845 C79.4475011,6.54750031 79.6454991,6.6284995 79.8285,6.7275 C80.0115009,6.82650049 80.1644994,6.95699919 80.2875,7.119 C80.4105006,7.28100081 80.472,7.49699865 80.472,7.767 C80.472,7.99500114 80.4255005,8.19449914 80.3325,8.3655 C80.2394995,8.53650085 80.1165008,8.67899943 79.9635,8.793 C79.8104992,8.90700057 79.633501,8.99249972 79.4325,9.0495 C79.231499,9.10650028 79.0230011,9.135 78.807,9.135 C78.0629963,9.135 77.4720022,8.8950024 77.034,8.415 L77.421,7.911 Z" id="Monthly-reports" fill="#D2D6D9"></path>
                    <g id="pie-chart" fill-rule="nonzero" fill="#D1D6D9">
                        <path d="M5.33307408,6.41838864 L9.12463543,10.3559265 C8.63387128,10.8752776 8.06092423,11.2791277 7.40579428,11.5674766 C6.75066433,11.8558255 6.0597576,12 5.33307408,12 C4.3655454,12 3.47319982,11.7524399 2.65603733,11.2573198 C1.83887485,10.7621996 1.19191134,10.0903278 0.715146801,9.24170425 C0.238382267,8.3930807 -9.21048332e-16,7.46637948 0,6.46160059 C9.21048332e-16,5.4568217 0.238382267,4.53012048 0.715146801,3.68149694 C1.19191134,2.83287339 1.83887485,2.16100155 2.65603733,1.6658814 C3.47319982,1.17076126 4.3655454,0.923201185 5.33307408,0.923201185 L5.33307408,6.41838864 Z M6.63192689,6.46160059 L12,6.46160059 C12,7.21653093 11.8611705,7.93403783 11.5835116,8.61412129 C11.3058526,9.29420475 10.9169745,9.88921047 10.4168773,10.3991385 L6.63192689,6.46160059 Z M11.5551235,5.53839941 L6.22204939,5.53839941 L6.22204939,0 C7.18957807,0 8.08192365,0.247560073 8.89908614,0.742680218 C9.71624862,1.23780036 10.3632121,1.90967221 10.8399767,2.75829575 C11.3167412,3.6069193 11.5551235,4.53362052 11.5551235,5.53839941 L11.5551235,5.53839941 Z" id="Shape"></path>
                    </g>
                </g>
                <g id="Group-3" transform="translate(23.000000, 127.000000)">
                    <path d="M21.63,2.646 L22.44,2.646 L22.44,5.391 L25.545,5.391 L25.545,2.646 L26.355,2.646 L26.355,9 L25.545,9 L25.545,6.066 L22.44,6.066 L22.44,9 L21.63,9 L21.63,2.646 Z M29.397,9.135 C29.0609983,9.135 28.7655013,9.07350062 28.5105,8.9505 C28.2554987,8.82749938 28.0425009,8.65950107 27.8715,8.4465 C27.7004991,8.23349894 27.5730004,7.98450142 27.489,7.6995 C27.4049996,7.41449857 27.363,7.10700165 27.363,6.777 C27.363,6.44699835 27.4064996,6.14100141 27.4935,5.859 C27.5805004,5.57699859 27.7094991,5.33100105 27.8805,5.121 C28.0515009,4.91099895 28.2644987,4.7460006 28.5195,4.626 C28.7745013,4.5059994 29.0669983,4.446 29.397,4.446 C29.7270017,4.446 30.0194987,4.5059994 30.2745,4.626 C30.5295013,4.7460006 30.7439991,4.90949896 30.918,5.1165 C31.0920009,5.32350103 31.2224996,5.56949857 31.3095,5.8545 C31.3965004,6.13950142 31.44,6.44699835 31.44,6.777 C31.44,7.10700165 31.3965004,7.41449857 31.3095,7.6995 C31.2224996,7.98450142 31.0920009,8.23349894 30.918,8.4465 C30.7439991,8.65950107 30.5295013,8.82749938 30.2745,8.9505 C30.0194987,9.07350062 29.7270017,9.135 29.397,9.135 Z M29.415,8.55 C29.619001,8.55 29.7989992,8.50500045 29.955,8.415 C30.1110008,8.32499955 30.2399995,8.20050079 30.342,8.0415 C30.4440005,7.88249921 30.5219997,7.69500108 30.576,7.479 C30.6300003,7.26299892 30.657,7.02900126 30.657,6.777 C30.657,6.52499874 30.6300003,6.29250106 30.576,6.0795 C30.5219997,5.86649893 30.4410005,5.68200078 30.333,5.526 C30.2249995,5.36999922 30.0930008,5.24850043 29.937,5.1615 C29.7809992,5.07449956 29.601001,5.031 29.397,5.031 C29.186999,5.031 29.0040008,5.07449956 28.848,5.1615 C28.6919992,5.24850043 28.5630005,5.36999922 28.461,5.526 C28.3589995,5.68200078 28.2810003,5.86649893 28.227,6.0795 C28.1729997,6.29250106 28.146,6.52499874 28.146,6.777 C28.146,7.02900126 28.1729997,7.26299892 28.227,7.479 C28.2810003,7.69500108 28.3604995,7.88249921 28.4655,8.0415 C28.5705005,8.20050079 28.7024992,8.32499955 28.8615,8.415 C29.0205008,8.50500045 29.204999,8.55 29.415,8.55 Z M32.394,4.572 L33.042,4.572 L33.123,5.436 C33.2310005,5.12999847 33.3989989,4.88850088 33.627,4.7115 C33.8550011,4.53449911 34.1339984,4.446 34.464,4.446 C34.8120017,4.446 35.084999,4.54499901 35.283,4.743 C35.481001,4.94100099 35.6069997,5.18099859 35.661,5.463 C35.7150003,5.32499931 35.7824996,5.19450061 35.8635,5.0715 C35.9445004,4.94849938 36.0419994,4.84050046 36.156,4.7475 C36.2700006,4.65449953 36.4019993,4.58100027 36.552,4.527 C36.7020008,4.47299973 36.872999,4.446 37.065,4.446 C37.3170013,4.446 37.5254992,4.48949956 37.6905,4.5765 C37.8555008,4.66350043 37.9874995,4.78199925 38.0865,4.932 C38.1855005,5.08200075 38.2559998,5.25749899 38.298,5.4585 C38.3400002,5.659501 38.361,5.87099889 38.361,6.093 L38.361,9 L37.614,9 L37.614,6.282 C37.614,5.88599802 37.5435007,5.59050097 37.4025,5.3955 C37.2614993,5.20049902 37.0560014,5.103 36.786,5.103 C36.4919985,5.103 36.246001,5.23349869 36.048,5.4945 C35.849999,5.7555013 35.751,6.12899757 35.751,6.615 L35.751,9 L35.004,9 L35.004,6.318 C35.004,5.90399793 34.9320007,5.59800099 34.788,5.4 C34.6439993,5.20199901 34.4430013,5.103 34.185,5.103 C33.8969986,5.103 33.651001,5.23649866 33.447,5.5035 C33.242999,5.77050133 33.141,6.15599748 33.141,6.66 L33.141,9 L32.394,9 L32.394,4.572 Z M40.062,6.957 C40.0920002,7.46700255 40.2224988,7.8614986 40.4535,8.1405 C40.6845012,8.4195014 41.0069979,8.559 41.421,8.559 C41.9430026,8.559 42.3359987,8.31300246 42.6,7.821 L43.167,8.136 C42.9929991,8.43000147 42.7620014,8.66999907 42.474,8.856 C42.1859986,9.04200093 41.8230022,9.135 41.385,9.135 C41.0369983,9.135 40.7325013,9.0750006 40.4715,8.955 C40.2104987,8.8349994 39.9930009,8.67000105 39.819,8.46 C39.6449991,8.24999895 39.5145004,8.00400141 39.4275,7.722 C39.3404996,7.43999859 39.297,7.13700162 39.297,6.813 C39.297,6.49499841 39.3389996,6.19200144 39.423,5.904 C39.5070004,5.61599856 39.6344991,5.36400108 39.8055,5.148 C39.9765009,4.93199892 40.1864988,4.76100063 40.4355,4.635 C40.6845012,4.50899937 40.9769983,4.446 41.313,4.446 C41.6370016,4.446 41.9189988,4.50749938 42.159,4.6305 C42.3990012,4.75350062 42.5984992,4.91849896 42.7575,5.1255 C42.9165008,5.33250103 43.0364996,5.57249864 43.1175,5.8455 C43.1985004,6.11850137 43.239,6.40799847 43.239,6.714 C43.239,6.78000033 43.2375,6.83099982 43.2345,6.867 C43.2315,6.90300018 43.23,6.93299988 43.23,6.957 L40.062,6.957 Z M41.304,5.013 C40.9259981,5.013 40.633501,5.14799865 40.4265,5.418 C40.219499,5.68800135 40.1010002,6.05099772 40.071,6.507 L42.474,6.507 C42.474,6.32099907 42.4530002,6.13950088 42.411,5.9625 C42.3689998,5.78549911 42.3000005,5.6265007 42.204,5.4855 C42.1079995,5.34449929 41.9865007,5.23050043 41.8395,5.1435 C41.6924993,5.05649956 41.5140011,5.013 41.304,5.013 Z" id="Home" fill="#D2D6D9"></path>
                    <g id="home-(1)" fill-rule="nonzero" fill="#D1D6D9">
                        <path d="M12.0019525,6.33592237 L12.0019525,10.451199 C12.0019525,10.5997222 11.9470026,10.7283996 11.8371027,10.8372313 C11.7272027,10.9460629 11.596879,11.0003187 11.4461313,10.9999986 L8.11168991,10.9999986 L8.11168991,7.70768125 L5.8888911,7.70768125 L5.8888911,10.9999986 L2.55444974,10.9999986 C2.40402625,10.9999986 2.27370246,10.9457428 2.16347835,10.8372313 C2.05325424,10.7287197 1.99830428,10.6000423 1.99862847,10.451199 L1.99862847,6.33592237 C1.99862847,6.33016069 2.00008732,6.32151818 2.00300501,6.30999483 C2.00592271,6.29847148 2.00738156,6.28982896 2.00738156,6.28406729 L7.00053365,2.22016558 L11.9936857,6.28406729 C11.9995211,6.29559064 12.0024388,6.31271562 12.0024388,6.33544223 L12.0019525,6.33592237 Z M13.9383308,5.74439036 L13.4000157,6.37865479 C13.3536567,6.43018978 13.2928714,6.4615589 13.2176596,6.47276216 L13.1914003,6.47276216 C13.1161886,6.47276216 13.0554033,6.45275634 13.0090443,6.41274471 L7.00004737,1.46538611 L0.991050447,6.41274471 C0.921674096,6.45851802 0.852135652,6.47852383 0.782435113,6.47276216 C0.707223369,6.46123881 0.646438015,6.42986968 0.600079052,6.37865479 L0.0617639601,5.74439036 C0.015404997,5.6870937 -0.00485678751,5.61987415 0.000978606439,5.54273172 C0.00681400039,5.46558929 0.0385844786,5.40413142 0.096290041,5.35835811 L6.33967528,0.222784782 C6.52478695,0.0742615939 6.74474888,0 6.99956108,0 C7.25437329,0 7.47433522,0.0742615939 7.65944688,0.222784782 L9.77818117,1.9719334 L9.77818117,0.30008726 C9.77818117,0.22006399 9.80427835,0.154284863 9.85647271,0.102749878 C9.90866706,0.0512148923 9.97528781,0.0254473996 10.0563349,0.0254473996 L11.7237988,0.0254473996 C11.8048459,0.0254473996 11.8714667,0.0512148923 11.923661,0.102749878 C11.9758554,0.154284863 12.0019525,0.22006399 12.0019525,0.30008726 L12.0019525,3.7983845 L13.9038047,5.35883825 C13.9618344,5.40461156 13.9936049,5.46606943 13.9991161,5.54321186 C14.0046273,5.62035429 13.9843655,5.68757384 13.9383308,5.7448705 L13.9383308,5.74439036 Z" id="Shape"></path>
                    </g>
                </g>
            </g>
        </g>
    </g>
</svg>