<?xml version="1.0" encoding="UTF-8"?>
<svg width="359px" height="324px" viewBox="0 0 359 324" version="1.1" xmlns="http://www.w3.org/2000/svg" xmlns:xlink="http://www.w3.org/1999/xlink">
    <!-- Generator: Sketch 47.1 (45422) - http://www.bohemiancoding.com/sketch -->
    <title>Do2</title>
    <desc>Created with Sketch.</desc>
    <defs>
        <rect id="path-1" x="0" y="0" width="351" height="316"></rect>
        <filter x="-2.0%" y="-1.6%" width="104.0%" height="104.4%" filterUnits="objectBoundingBox" id="filter-2">
            <feOffset dx="0" dy="2" in="SourceAlpha" result="shadowOffsetOuter1"></feOffset>
            <feGaussianBlur stdDeviation="2" in="shadowOffsetOuter1" result="shadowBlurOuter1"></feGaussianBlur>
            <feColorMatrix values="0 0 0 0 0   0 0 0 0 0   0 0 0 0 0  0 0 0 0.5 0" type="matrix" in="shadowBlurOuter1"></feColorMatrix>
        </filter>
        <ellipse id="path-3" cx="21.0939471" cy="21.4110787" rx="21.0939471" ry="21.4110787"></ellipse>
    </defs>
    <g id="Page-1" stroke="none" stroke-width="1" fill="none" fill-rule="evenodd">
        <g id="Buttons-Usage-extra-large-1200" transform="translate(-318.000000, -2063.000000)">
            <g id="Do2" transform="translate(322.000000, 2065.000000)">
                <g id="bg-copy-2">
                    <use fill="black" fill-opacity="1" filter="url(#filter-2)" xlink:href="#path-1"></use>
                    <use fill="#FFFFFF" fill-rule="evenodd" xlink:href="#path-1"></use>
                </g>
                <polygon id="bg-copy" fill="#495C6A" points="0 0 179 0 179 61.3858848 179 316 0 316"></polygon>
                <rect id="Rectangle-3-Copy" fill="#FFFFFF" x="57" y="99" width="66" height="2" rx="1"></rect>
                <rect id="Rectangle-3-Copy-3" fill="#B7DC00" x="63" y="87" width="55" height="4" rx="2"></rect>
                <g id="Sidebar-top">
                    <rect id="Profile-bg-Copy-2" fill="#3E4F5B" x="0" y="0" width="179.157924" height="52.1516035"></rect>
                    <path d="M158.197545,11.8046875 C158.264509,11.8716521 158.297991,11.9486603 158.297991,12.0357143 C158.297991,12.1227683 158.264509,12.1997765 158.197545,12.2667411 L154.25,16.2142857 L158.197545,20.1618304 C158.264509,20.228795 158.297991,20.3058031 158.297991,20.3928571 C158.297991,20.4799111 158.264509,20.5569193 158.197545,20.6238839 L157.695312,21.1261161 C157.628348,21.1930807 157.55134,21.2265625 157.464286,21.2265625 C157.377232,21.2265625 157.300224,21.1930807 157.233259,21.1261161 L152.552455,16.4453125 C152.485491,16.3783479 152.452009,16.3013397 152.452009,16.2142857 C152.452009,16.1272317 152.485491,16.0502235 152.552455,15.9832589 L157.233259,11.3024554 C157.300224,11.2354907 157.377232,11.2020089 157.464286,11.2020089 C157.55134,11.2020089 157.628348,11.2354907 157.695312,11.3024554 L158.197545,11.8046875 Z" id="" fill="#D2D6D9"></path>
                </g>
                <g id="Group-8" transform="translate(59.000000, 17.000000)">
                    <g id="Group-2">
                        <ellipse id="Mask-Copy" fill="#3E4F5B" cx="30.4690347" cy="30.9271137" rx="30.4690347" ry="30.9271137"></ellipse>
                        <g id="person-profile-pic" transform="translate(9.920151, 10.069293)">
                            <mask id="mask-4" fill="white">
                                <use xlink:href="#path-3"></use>
                            </mask>
                            <use id="Mask" fill="#FFFFFF" xlink:href="#path-3"></use>
                            <path d="M26.9151751,26.2850681 C27.6880105,25.5479938 27.9579926,23.6839558 28.669131,23.0122189 C29.672982,22.0607695 30.7658993,20.8902477 31.0757756,19.4272021 C31.4890988,17.4837343 30.648072,17.2373311 30.648072,16.5651672 C30.648072,15.1593452 30.6341554,12.8469132 30.1814019,11.346288 C30.1535687,9.36780278 29.8232813,8.50517811 29.1139984,7.76383335 C28.4534237,7.07031729 26.8210061,7.23600955 25.9720933,6.7769395 C24.6527992,6.06804992 23.5682319,5.80029464 22.1867771,5.76485016 L22.1867771,5.75801749 C22.1450273,5.75801749 22.1037414,5.76143383 22.0647749,5.76271495 C21.998903,5.76143383 21.9321033,5.75801749 21.863448,5.75801749 L21.8666952,5.77040171 C18.4979494,5.8925357 14.9139601,7.94959659 13.6837323,11.2566092 C13.2258761,12.4835006 13.402617,15.1597722 13.402617,16.5655942 C13.402617,17.2373311 12.5611263,17.4841614 12.9716661,19.4276291 C13.2866453,20.8906747 14.3730681,22.0611966 15.3801663,23.012646 C16.0899131,23.6843829 16.3603591,25.5484208 17.1327306,26.2859222 C17.302977,27.3718898 17.3229242,27.0622844 17.3145742,28.0560109 C17.3145742,28.3912388 17.3257075,28.9118029 16.7732183,29.4255344 C15.7248342,30.3953465 13.3191173,32.4981009 11.3494541,33.3214377 C8.74751308,34.4031349 4.51872116,36.1296653 3.54734224,36.6177742 C2.57132444,37.1007586 0,38.4215993 0,39.2628718 L0,43.2036146 L21.7836595,43.2036146 L22.2800183,43.2036146 L44.0692445,43.2036146 L44.0692445,39.2628718 C44.0692445,38.4215993 41.4923534,37.1007586 40.5209745,36.6164931 C39.5454205,36.1288113 35.3184842,34.4022808 32.7207182,33.3201566 C30.7992991,32.5215882 28.4691958,30.5029611 27.3790619,29.5024019 C27.013983,29.1650388 26.7514231,28.8093129 26.7504953,27.9505316 C26.7440009,26.9508265 26.7699785,27.333456 26.9332667,26.2850681" id="Fill-1" fill="#D2D6D9" mask="url(#mask-4)"></path>
                        </g>
                    </g>
                </g>
                <rect id="Rectangle" fill="#495C6A" x="0" y="154" width="155" height="23"></rect>
                <g id="Group-4" transform="translate(23.000000, 155.000000)">
                    <path d="M21.63,2.646 L23.763,2.646 C24.0810016,2.646 24.3749987,2.68199964 24.645,2.754 C24.9150014,2.82600036 25.147499,2.93699925 25.3425,3.087 C25.537501,3.23700075 25.6904994,3.42749884 25.8015,3.6585 C25.9125006,3.88950115 25.968,4.16699838 25.968,4.491 C25.968,4.8510018 25.9125006,5.15699874 25.8015,5.409 C25.6904994,5.66100126 25.536001,5.86499922 25.338,6.021 C25.139999,6.17700078 24.9075013,6.28949966 24.6405,6.3585 C24.3734987,6.42750035 24.0840016,6.462 23.772,6.462 L22.44,6.462 L22.44,9 L21.63,9 L21.63,2.646 Z M23.637,5.814 C24.1050023,5.814 24.4679987,5.713501 24.726,5.5125 C24.9840013,5.31149899 25.113,4.9710024 25.113,4.491 C25.113,4.26899889 25.0755004,4.08000078 25.0005,3.924 C24.9254996,3.76799922 24.8235006,3.64200048 24.6945,3.546 C24.5654994,3.44999952 24.4125009,3.38100021 24.2355,3.339 C24.0584991,3.29699979 23.868001,3.276 23.664,3.276 L22.44,3.276 L22.44,5.814 L23.637,5.814 Z M26.859,4.572 L27.507,4.572 L27.579,5.562 C27.7050006,5.23799838 27.9059986,4.97100105 28.182,4.761 C28.4580014,4.55099895 28.7849981,4.446 29.163,4.446 L29.163,5.238 C29.0789996,5.21999991 28.9860005,5.211 28.884,5.211 C28.7339993,5.211 28.5840008,5.23799973 28.434,5.292 C28.2839993,5.34600027 28.1475006,5.4329994 28.0245,5.553 C27.9014994,5.6730006 27.8010004,5.82749905 27.723,6.0165 C27.6449996,6.20550094 27.606,6.43499865 27.606,6.705 L27.606,9 L26.859,9 L26.859,4.572 Z M31.737,9.135 C31.4009983,9.135 31.1055013,9.07350062 30.8505,8.9505 C30.5954987,8.82749938 30.3825009,8.65950107 30.2115,8.4465 C30.0404991,8.23349894 29.9130004,7.98450142 29.829,7.6995 C29.7449996,7.41449857 29.703,7.10700165 29.703,6.777 C29.703,6.44699835 29.7464996,6.14100141 29.8335,5.859 C29.9205004,5.57699859 30.0494991,5.33100105 30.2205,5.121 C30.3915009,4.91099895 30.6044987,4.7460006 30.8595,4.626 C31.1145013,4.5059994 31.4069984,4.446 31.737,4.446 C32.0670017,4.446 32.3594987,4.5059994 32.6145,4.626 C32.8695013,4.7460006 33.0839991,4.90949896 33.258,5.1165 C33.4320009,5.32350103 33.5624996,5.56949857 33.6495,5.8545 C33.7365004,6.13950142 33.78,6.44699835 33.78,6.777 C33.78,7.10700165 33.7365004,7.41449857 33.6495,7.6995 C33.5624996,7.98450142 33.4320009,8.23349894 33.258,8.4465 C33.0839991,8.65950107 32.8695013,8.82749938 32.6145,8.9505 C32.3594987,9.07350062 32.0670017,9.135 31.737,9.135 Z M31.755,8.55 C31.959001,8.55 32.1389992,8.50500045 32.295,8.415 C32.4510008,8.32499955 32.5799995,8.20050079 32.682,8.0415 C32.7840005,7.88249921 32.8619997,7.69500108 32.916,7.479 C32.9700003,7.26299892 32.997,7.02900126 32.997,6.777 C32.997,6.52499874 32.9700003,6.29250106 32.916,6.0795 C32.8619997,5.86649894 32.7810005,5.68200078 32.673,5.526 C32.5649995,5.36999922 32.4330008,5.24850044 32.277,5.1615 C32.1209992,5.07449957 31.941001,5.031 31.737,5.031 C31.5269989,5.031 31.3440008,5.07449957 31.188,5.1615 C31.0319992,5.24850044 30.9030005,5.36999922 30.801,5.526 C30.6989995,5.68200078 30.6210003,5.86649894 30.567,6.0795 C30.5129997,6.29250106 30.486,6.52499874 30.486,6.777 C30.486,7.02900126 30.5129997,7.26299892 30.567,7.479 C30.6210003,7.69500108 30.7004995,7.88249921 30.8055,8.0415 C30.9105005,8.20050079 31.0424992,8.32499955 31.2015,8.415 C31.3605008,8.50500045 31.544999,8.55 31.755,8.55 Z M33.951,9.972 C33.9930002,9.98400006 34.0544996,9.99749992 34.1355,10.0125 C34.2165004,10.0275001 34.2899997,10.035 34.356,10.035 C34.5300009,10.035 34.6439997,9.98400051 34.698,9.882 C34.7520003,9.77999949 34.779,9.63600093 34.779,9.45 L34.779,4.572 L35.535,4.572 L35.535,9.504 C35.535,9.67800087 35.5185002,9.83399931 35.4855,9.972 C35.4524998,10.1100007 35.3970004,10.2254995 35.319,10.3185 C35.2409996,10.4115005 35.1345007,10.4834997 34.9995,10.5345 C34.8644993,10.5855003 34.698001,10.611 34.5,10.611 C34.3799994,10.611 34.2660005,10.6020001 34.158,10.584 C34.0499995,10.5659999 33.9570004,10.5390002 33.879,10.503 L33.951,9.972 Z M34.779,2.862 L35.535,2.862 L35.535,3.609 L34.779,3.609 L34.779,2.862 Z M37.254,6.957 C37.2840001,7.46700255 37.4144988,7.8614986 37.6455,8.1405 C37.8765012,8.4195014 38.1989979,8.559 38.613,8.559 C39.1350026,8.559 39.5279987,8.31300246 39.792,7.821 L40.359,8.136 C40.1849991,8.43000147 39.9540014,8.66999907 39.666,8.856 C39.3779986,9.04200093 39.0150022,9.135 38.577,9.135 C38.2289983,9.135 37.9245013,9.0750006 37.6635,8.955 C37.4024987,8.8349994 37.1850009,8.67000105 37.011,8.46 C36.8369991,8.24999895 36.7065004,8.00400141 36.6195,7.722 C36.5324996,7.43999859 36.489,7.13700162 36.489,6.813 C36.489,6.49499841 36.5309996,6.19200144 36.615,5.904 C36.6990004,5.61599856 36.8264991,5.36400108 36.9975,5.148 C37.1685009,4.93199892 37.3784988,4.76100063 37.6275,4.635 C37.8765012,4.50899937 38.1689983,4.446 38.505,4.446 C38.8290016,4.446 39.1109988,4.50749938 39.351,4.6305 C39.5910012,4.75350062 39.7904992,4.91849896 39.9495,5.1255 C40.1085008,5.33250103 40.2284996,5.57249864 40.3095,5.8455 C40.3905004,6.11850137 40.431,6.40799847 40.431,6.714 C40.431,6.78000033 40.4295,6.83099982 40.4265,6.867 C40.4235,6.90300018 40.422,6.93299988 40.422,6.957 L37.254,6.957 Z M38.496,5.013 C38.1179981,5.013 37.825501,5.14799865 37.6185,5.418 C37.411499,5.68800135 37.2930001,6.05099772 37.263,6.507 L39.666,6.507 C39.666,6.32099907 39.6450002,6.13950088 39.603,5.9625 C39.5609998,5.78549911 39.4920005,5.6265007 39.396,5.4855 C39.2999995,5.34449929 39.1785007,5.23050043 39.0315,5.1435 C38.8844993,5.05649956 38.706001,5.013 38.496,5.013 Z M45.039,8.028 C44.8589991,8.3880018 44.6175015,8.66249905 44.3145,8.8515 C44.0114985,9.04050094 43.6440022,9.135 43.212,9.135 C42.8579982,9.135 42.5505013,9.07350062 42.2895,8.9505 C42.0284987,8.82749938 41.8125009,8.66100105 41.6415,8.451 C41.4704991,8.24099895 41.3445004,7.99350142 41.2635,7.7085 C41.1824996,7.42349857 41.142,7.11900162 41.142,6.795 C41.142,6.46499835 41.1854996,6.15750142 41.2725,5.8725 C41.3595004,5.58749857 41.4884991,5.34000105 41.6595,5.13 C41.8305009,4.91999895 42.0449987,4.75350062 42.303,4.6305 C42.5610013,4.50749938 42.8639983,4.446 43.212,4.446 C43.6500022,4.446 44.0144985,4.54349902 44.3055,4.7385 C44.5965015,4.93350097 44.8319991,5.20799823 45.012,5.562 L44.382,5.859 C44.1539989,5.30699724 43.7700027,5.031 43.23,5.031 C43.0019989,5.031 42.8055008,5.07599955 42.6405,5.166 C42.4754992,5.25600045 42.3405005,5.37899922 42.2355,5.535 C42.1304995,5.69100078 42.0525003,5.87249897 42.0015,6.0795 C41.9504997,6.28650103 41.925,6.5099988 41.925,6.75 C41.925,6.97800114 41.9489998,7.19999892 41.997,7.416 C42.0450002,7.63200108 42.1229995,7.82399916 42.231,7.992 C42.3390005,8.16000084 42.4769992,8.29499949 42.645,8.397 C42.8130008,8.49900051 43.0199988,8.55 43.266,8.55 C43.5780016,8.55 43.829999,8.47050079 44.022,8.3115 C44.214001,8.1524992 44.3609995,7.94700126 44.463,7.695 L45.039,8.028 Z M46.254,5.085 L45.498,5.085 L45.498,4.572 L45.66,4.572 C45.8460009,4.572 45.9914995,4.55250019 46.0965,4.5135 C46.2015005,4.4744998 46.2809997,4.4145004 46.335,4.3335 C46.3890003,4.25249959 46.4279999,4.14600066 46.452,4.014 C46.4760001,3.88199934 46.4969999,3.72000096 46.515,3.528 L46.533,3.366 L47.001,3.366 L47.001,4.572 L47.955,4.572 L47.955,5.085 L47.001,5.085 L47.001,7.839 C47.001,8.09100126 47.0384996,8.27249944 47.1135,8.3835 C47.1885004,8.49450055 47.327999,8.55 47.532,8.55 C47.6940008,8.55 47.8439993,8.51400036 47.982,8.442 L48.063,8.982 C47.8349989,9.08400051 47.5830014,9.135 47.307,9.135 C47.0909989,9.135 46.9155007,9.1050003 46.7805,9.045 C46.6454993,8.9849997 46.5390004,8.90400051 46.461,8.802 C46.3829996,8.69999949 46.3290002,8.57700072 46.299,8.433 C46.2689999,8.28899928 46.254,8.13300084 46.254,7.965 L46.254,5.085 Z M50.88,4.572 L51.528,4.572 L51.609,5.436 C51.7170005,5.12999847 51.8849989,4.88850088 52.113,4.7115 C52.3410011,4.53449911 52.6199984,4.446 52.95,4.446 C53.2980017,4.446 53.570999,4.54499901 53.769,4.743 C53.967001,4.94100099 54.0929997,5.18099859 54.147,5.463 C54.2010003,5.32499931 54.2684996,5.19450061 54.3495,5.0715 C54.4305004,4.94849938 54.5279994,4.84050046 54.642,4.7475 C54.7560006,4.65449953 54.8879993,4.58100027 55.038,4.527 C55.1880008,4.47299973 55.358999,4.446 55.551,4.446 C55.8030013,4.446 56.0114992,4.48949956 56.1765,4.5765 C56.3415008,4.66350043 56.4734995,4.78199925 56.5725,4.932 C56.6715005,5.08200075 56.7419998,5.25749899 56.784,5.4585 C56.8260002,5.659501 56.847,5.87099889 56.847,6.093 L56.847,9 L56.1,9 L56.1,6.282 C56.1,5.88599802 56.0295007,5.59050097 55.8885,5.3955 C55.7474993,5.20049902 55.5420013,5.103 55.272,5.103 C54.9779985,5.103 54.732001,5.23349869 54.534,5.4945 C54.335999,5.7555013 54.237,6.12899757 54.237,6.615 L54.237,9 L53.49,9 L53.49,6.318 C53.49,5.90399793 53.4180007,5.59800099 53.274,5.4 C53.1299993,5.20199901 52.9290013,5.103 52.671,5.103 C52.3829986,5.103 52.137001,5.23649866 51.933,5.5035 C51.728999,5.77050133 51.627,6.15599748 51.627,6.66 L51.627,9 L50.88,9 L50.88,4.572 Z M60.762,9 C60.6959997,8.78399892 60.6570001,8.5260015 60.645,8.226 C60.5249994,8.50200138 60.3405012,8.72249917 60.0915,8.8875 C59.8424988,9.05250082 59.5470017,9.135 59.205,9.135 C58.7729978,9.135 58.4310013,9.01200123 58.179,8.766 C57.9269987,8.51999877 57.801,8.19000207 57.801,7.776 C57.801,7.54199883 57.8429996,7.34550079 57.927,7.1865 C58.0110004,7.0274992 58.1279993,6.89550053 58.278,6.7905 C58.4280007,6.68549947 58.604999,6.6030003 58.809,6.543 C59.013001,6.4829997 59.2349988,6.43500018 59.475,6.399 L60.609,6.228 L60.609,5.949 C60.609,5.75099901 60.5850002,5.5920006 60.537,5.472 C60.4889998,5.3519994 60.4230004,5.25900033 60.339,5.193 C60.2549996,5.12699967 60.1590005,5.0835001 60.051,5.0625 C59.9429995,5.04149989 59.8290006,5.031 59.709,5.031 C59.3669983,5.031 59.0850011,5.09399937 58.863,5.22 C58.6409989,5.34600063 58.4550007,5.50499904 58.305,5.697 L57.918,5.211 C58.0920009,5.00099895 58.3334985,4.82100075 58.6425,4.671 C58.9515015,4.52099925 59.3339977,4.446 59.79,4.446 C60.3420028,4.446 60.7424988,4.56899877 60.9915,4.815 C61.2405012,5.06100123 61.365,5.45699727 61.365,6.003 L61.365,7.794 C61.365,7.93800072 61.3665,8.06399946 61.3695,8.172 C61.3725,8.28000054 61.3785,8.38049954 61.3875,8.4735 C61.3965,8.56650047 61.4099999,8.65499958 61.428,8.739 C61.4460001,8.82300042 61.4699998,8.90999955 61.5,9 L60.762,9 Z M60.609,6.723 L59.547,6.894 C59.1809982,6.96000033 58.9215008,7.05899934 58.7685,7.191 C58.6154992,7.32300066 58.539,7.50599883 58.539,7.74 C58.539,7.9800012 58.6094993,8.18099919 58.7505,8.343 C58.8915007,8.50500081 59.0999986,8.586 59.376,8.586 C59.5440008,8.586 59.7029993,8.55300033 59.853,8.487 C60.0030008,8.42099967 60.1334994,8.32950058 60.2445,8.2125 C60.3555006,8.09549941 60.4439997,7.95450083 60.51,7.7895 C60.5760003,7.62449917 60.609,7.44300099 60.609,7.245 L60.609,6.723 Z M62.562,4.572 L63.21,4.572 L63.291,5.454 C63.4050006,5.18399865 63.5864988,4.948501 63.8355,4.7475 C64.0845012,4.54649899 64.3919982,4.446 64.758,4.446 C65.2200023,4.446 65.5604989,4.59299853 65.7795,4.887 C65.9985011,5.18100147 66.108,5.59199736 66.108,6.12 L66.108,9 L65.361,9 L65.361,6.273 C65.361,5.87099799 65.2800008,5.57550094 65.118,5.3865 C64.9559992,5.19749905 64.7370014,5.103 64.461,5.103 C64.1309983,5.103 63.8565011,5.23799865 63.6375,5.508 C63.4184989,5.77800135 63.309,6.15899754 63.309,6.651 L63.309,9 L62.562,9 L62.562,4.572 Z M70.023,9 C69.9569997,8.78399892 69.9180001,8.5260015 69.906,8.226 C69.7859994,8.50200138 69.6015012,8.72249917 69.3525,8.8875 C69.1034988,9.05250082 68.8080017,9.135 68.466,9.135 C68.0339978,9.135 67.6920013,9.01200123 67.44,8.766 C67.1879987,8.51999877 67.062,8.19000207 67.062,7.776 C67.062,7.54199883 67.1039996,7.34550079 67.188,7.1865 C67.2720004,7.0274992 67.3889993,6.89550053 67.539,6.7905 C67.6890008,6.68549947 67.865999,6.6030003 68.07,6.543 C68.274001,6.4829997 68.4959988,6.43500018 68.736,6.399 L69.87,6.228 L69.87,5.949 C69.87,5.75099901 69.8460002,5.5920006 69.798,5.472 C69.7499998,5.3519994 69.6840004,5.25900033 69.6,5.193 C69.5159996,5.12699967 69.4200005,5.0835001 69.312,5.0625 C69.2039995,5.04149989 69.0900006,5.031 68.97,5.031 C68.6279983,5.031 68.3460011,5.09399937 68.124,5.22 C67.9019989,5.34600063 67.7160008,5.50499904 67.566,5.697 L67.179,5.211 C67.3530009,5.00099895 67.5944985,4.82100075 67.9035,4.671 C68.2125015,4.52099925 68.5949977,4.446 69.051,4.446 C69.6030028,4.446 70.0034988,4.56899877 70.2525,4.815 C70.5015012,5.06100123 70.626,5.45699727 70.626,6.003 L70.626,7.794 C70.626,7.93800072 70.6275,8.06399946 70.6305,8.172 C70.6335,8.28000054 70.6395,8.38049954 70.6485,8.4735 C70.6575,8.56650047 70.6709999,8.65499958 70.689,8.739 C70.7070001,8.82300042 70.7309999,8.90999955 70.761,9 L70.023,9 Z M69.87,6.723 L68.808,6.894 C68.4419982,6.96000033 68.1825008,7.05899934 68.0295,7.191 C67.8764992,7.32300066 67.8,7.50599883 67.8,7.74 C67.8,7.9800012 67.8704993,8.18099919 68.0115,8.343 C68.1525007,8.50500081 68.3609986,8.586 68.637,8.586 C68.8050008,8.586 68.9639993,8.55300033 69.114,8.487 C69.2640008,8.42099967 69.3944994,8.32950058 69.5055,8.2125 C69.6165006,8.09549941 69.7049997,7.95450083 69.771,7.7895 C69.8370003,7.62449917 69.87,7.44300099 69.87,7.245 L69.87,6.723 Z M72.183,9.531 C72.3570009,9.69900084 72.5654988,9.83249951 72.8085,9.9315 C73.0515012,10.0305005 73.3109986,10.08 73.587,10.08 C73.8150011,10.08 74.0009993,10.0455003 74.145,9.9765 C74.2890007,9.90749965 74.4029996,9.8130006 74.487,9.693 C74.5710004,9.5729994 74.6294998,9.43650076 74.6625,9.2835 C74.6955002,9.13049923 74.712,8.96700087 74.712,8.793 L74.712,7.974 C74.5979994,8.24400135 74.4270011,8.46149918 74.199,8.6265 C73.9709989,8.79150082 73.6770018,8.874 73.317,8.874 C73.0589987,8.874 72.825001,8.82450049 72.615,8.7255 C72.404999,8.6264995 72.2250008,8.48400093 72.075,8.298 C71.9249993,8.11199907 71.8095004,7.88400135 71.7285,7.614 C71.6474996,7.34399865 71.607,7.04100168 71.607,6.705 C71.607,6.37499835 71.6474996,6.07200138 71.7285,5.796 C71.8095004,5.51999862 71.9264992,5.28300099 72.0795,5.085 C72.2325008,4.88699901 72.4184989,4.73250055 72.6375,4.6215 C72.8565011,4.51049944 73.1009987,4.455 73.371,4.455 C73.7250018,4.455 74.0189988,4.54349911 74.253,4.7205 C74.4870012,4.89750088 74.6549995,5.12399862 74.757,5.4 L74.883,4.572 L75.459,4.572 L75.459,8.775 C75.459,9.02700126 75.4290003,9.26549887 75.369,9.4905 C75.3089997,9.71550112 75.2070007,9.91499913 75.063,10.089 C74.9189993,10.2630009 74.7270012,10.4009995 74.487,10.503 C74.2469988,10.6050005 73.9470018,10.656 73.587,10.656 C73.1969981,10.656 72.8475015,10.6005006 72.5385,10.4895 C72.2294985,10.3784994 71.9700011,10.2390008 71.76,10.071 L72.183,9.531 Z M74.712,6.705 C74.712,6.60299949 74.7105,6.50550046 74.7075,6.4125 C74.7045,6.31949954 74.6970001,6.24900024 74.685,6.201 C74.6609999,6.05699928 74.6220003,5.91600069 74.568,5.778 C74.5139997,5.63999931 74.4405005,5.52000051 74.3475,5.418 C74.2544995,5.31599949 74.1405007,5.23350031 74.0055,5.1705 C73.8704993,5.10749969 73.7130009,5.076 73.533,5.076 C73.334999,5.076 73.1640007,5.11799958 73.02,5.202 C72.8759993,5.28600042 72.7575005,5.39999928 72.6645,5.544 C72.5714995,5.68800072 72.5025002,5.85899901 72.4575,6.057 C72.4124998,6.25500099 72.39,6.46499889 72.39,6.687 C72.39,6.88500099 72.4109998,7.08149902 72.453,7.2765 C72.4950002,7.47150097 72.5609996,7.64399925 72.651,7.794 C72.7410005,7.94400075 72.8594993,8.06549954 73.0065,8.1585 C73.1535007,8.25150046 73.3319989,8.298 73.542,8.298 C73.8360015,8.298 74.0729991,8.21550082 74.253,8.0505 C74.4330009,7.88549917 74.5589996,7.67700126 74.631,7.425 C74.6610002,7.34099958 74.6819999,7.23600063 74.694,7.11 C74.7060001,6.98399937 74.712,6.86400057 74.712,6.75 L74.712,6.705 Z M77.178,6.957 C77.2080002,7.46700255 77.3384988,7.8614986 77.5695,8.1405 C77.8005012,8.4195014 78.1229979,8.559 78.537,8.559 C79.0590026,8.559 79.4519987,8.31300246 79.716,7.821 L80.283,8.136 C80.1089991,8.43000147 79.8780014,8.66999907 79.59,8.856 C79.3019986,9.04200093 78.9390022,9.135 78.501,9.135 C78.1529983,9.135 77.8485013,9.0750006 77.5875,8.955 C77.3264987,8.8349994 77.1090009,8.67000105 76.935,8.46 C76.7609991,8.24999895 76.6305004,8.00400141 76.5435,7.722 C76.4564996,7.43999859 76.413,7.13700162 76.413,6.813 C76.413,6.49499841 76.4549996,6.19200144 76.539,5.904 C76.6230004,5.61599856 76.7504991,5.36400108 76.9215,5.148 C77.0925009,4.93199892 77.3024988,4.76100063 77.5515,4.635 C77.8005012,4.50899937 78.0929983,4.446 78.429,4.446 C78.7530016,4.446 79.0349988,4.50749938 79.275,4.6305 C79.5150012,4.75350062 79.7144992,4.91849896 79.8735,5.1255 C80.0325008,5.33250103 80.1524996,5.57249864 80.2335,5.8455 C80.3145004,6.11850137 80.355,6.40799847 80.355,6.714 C80.355,6.78000033 80.3535,6.83099982 80.3505,6.867 C80.3475,6.90300018 80.346,6.93299988 80.346,6.957 L77.178,6.957 Z M78.42,5.013 C78.0419981,5.013 77.749501,5.14799865 77.5425,5.418 C77.335499,5.68800135 77.2170002,6.05099772 77.187,6.507 L79.59,6.507 C79.59,6.32099907 79.5690002,6.13950088 79.527,5.9625 C79.4849998,5.78549911 79.4160005,5.6265007 79.32,5.4855 C79.2239995,5.34449929 79.1025007,5.23050043 78.9555,5.1435 C78.8084993,5.05649956 78.6300011,5.013 78.42,5.013 Z M81.264,4.572 L81.912,4.572 L81.993,5.436 C82.1010005,5.12999847 82.2689989,4.88850088 82.497,4.7115 C82.7250011,4.53449911 83.0039984,4.446 83.334,4.446 C83.6820017,4.446 83.954999,4.54499901 84.153,4.743 C84.351001,4.94100099 84.4769997,5.18099859 84.531,5.463 C84.5850003,5.32499931 84.6524996,5.19450061 84.7335,5.0715 C84.8145004,4.94849938 84.9119994,4.84050046 85.026,4.7475 C85.1400006,4.65449953 85.2719993,4.58100027 85.422,4.527 C85.5720008,4.47299973 85.742999,4.446 85.935,4.446 C86.1870013,4.446 86.3954992,4.48949956 86.5605,4.5765 C86.7255008,4.66350043 86.8574995,4.78199925 86.9565,4.932 C87.0555005,5.08200075 87.1259998,5.25749899 87.168,5.4585 C87.2100002,5.659501 87.231,5.87099889 87.231,6.093 L87.231,9 L86.484,9 L86.484,6.282 C86.484,5.88599802 86.4135007,5.59050097 86.2725,5.3955 C86.1314993,5.20049902 85.9260014,5.103 85.656,5.103 C85.3619985,5.103 85.116001,5.23349869 84.918,5.4945 C84.719999,5.7555013 84.621,6.12899757 84.621,6.615 L84.621,9 L83.874,9 L83.874,6.318 C83.874,5.90399793 83.8020007,5.59800099 83.658,5.4 C83.5139993,5.20199901 83.3130013,5.103 83.055,5.103 C82.7669986,5.103 82.521001,5.23649866 82.317,5.5035 C82.112999,5.77050133 82.011,6.15599748 82.011,6.66 L82.011,9 L81.264,9 L81.264,4.572 Z M88.932,6.957 C88.9620002,7.46700255 89.0924988,7.8614986 89.3235,8.1405 C89.5545012,8.4195014 89.8769979,8.559 90.291,8.559 C90.8130026,8.559 91.2059987,8.31300246 91.47,7.821 L92.037,8.136 C91.8629991,8.43000147 91.6320014,8.66999907 91.344,8.856 C91.0559986,9.04200093 90.6930022,9.135 90.255,9.135 C89.9069983,9.135 89.6025013,9.0750006 89.3415,8.955 C89.0804987,8.8349994 88.8630009,8.67000105 88.689,8.46 C88.5149991,8.24999895 88.3845004,8.00400141 88.2975,7.722 C88.2104996,7.43999859 88.167,7.13700162 88.167,6.813 C88.167,6.49499841 88.2089996,6.19200144 88.293,5.904 C88.3770004,5.61599856 88.5044991,5.36400108 88.6755,5.148 C88.8465009,4.93199892 89.0564988,4.76100063 89.3055,4.635 C89.5545012,4.50899937 89.8469983,4.446 90.183,4.446 C90.5070016,4.446 90.7889988,4.50749938 91.029,4.6305 C91.2690012,4.75350062 91.4684992,4.91849896 91.6275,5.1255 C91.7865008,5.33250103 91.9064996,5.57249864 91.9875,5.8455 C92.0685004,6.11850137 92.109,6.40799847 92.109,6.714 C92.109,6.78000033 92.1075,6.83099982 92.1045,6.867 C92.1015,6.90300018 92.1,6.93299988 92.1,6.957 L88.932,6.957 Z M90.174,5.013 C89.7959981,5.013 89.503501,5.14799865 89.2965,5.418 C89.089499,5.68800135 88.9710002,6.05099772 88.941,6.507 L91.344,6.507 C91.344,6.32099907 91.3230002,6.13950088 91.281,5.9625 C91.2389998,5.78549911 91.1700005,5.6265007 91.074,5.4855 C90.9779995,5.34449929 90.8565007,5.23050043 90.7095,5.1435 C90.5624993,5.05649956 90.3840011,5.013 90.174,5.013 Z M93.018,4.572 L93.666,4.572 L93.747,5.454 C93.8610006,5.18399865 94.0424988,4.948501 94.2915,4.7475 C94.5405012,4.54649899 94.8479982,4.446 95.214,4.446 C95.6760023,4.446 96.0164989,4.59299853 96.2355,4.887 C96.4545011,5.18100147 96.564,5.59199736 96.564,6.12 L96.564,9 L95.817,9 L95.817,6.273 C95.817,5.87099799 95.7360008,5.57550094 95.574,5.3865 C95.4119992,5.19749905 95.1930014,5.103 94.917,5.103 C94.5869984,5.103 94.3125011,5.23799865 94.0935,5.508 C93.8744989,5.77800135 93.765,6.15899754 93.765,6.651 L93.765,9 L93.018,9 L93.018,4.572 Z M98.085,5.085 L97.329,5.085 L97.329,4.572 L97.491,4.572 C97.6770009,4.572 97.8224995,4.55250019 97.9275,4.5135 C98.0325005,4.4744998 98.1119997,4.4145004 98.166,4.3335 C98.2200003,4.25249959 98.2589999,4.14600066 98.283,4.014 C98.3070001,3.88199934 98.3279999,3.72000096 98.346,3.528 L98.364,3.366 L98.832,3.366 L98.832,4.572 L99.786,4.572 L99.786,5.085 L98.832,5.085 L98.832,7.839 C98.832,8.09100126 98.8694996,8.27249944 98.9445,8.3835 C99.0195004,8.49450055 99.158999,8.55 99.363,8.55 C99.5250008,8.55 99.6749993,8.51400036 99.813,8.442 L99.894,8.982 C99.6659989,9.08400051 99.4140014,9.135 99.138,9.135 C98.9219989,9.135 98.7465007,9.1050003 98.6115,9.045 C98.4764993,8.9849997 98.3700004,8.90400051 98.292,8.802 C98.2139996,8.69999949 98.1600002,8.57700072 98.13,8.433 C98.0999999,8.28899928 98.085,8.13300084 98.085,7.965 L98.085,5.085 Z" id="Project-management" fill="#D2D6D9"></path>
                    <g id="group" fill-rule="nonzero" fill="#D1D6D9">
                        <path d="M4.01496238,6 C3.28368236,6.02225 2.68561512,6.308 2.22076066,6.85725 L1.31342239,6.85725 C0.943358805,6.85725 0.631939178,6.766875 0.379163507,6.586125 C0.126387836,6.405375 0,6.140875 0,5.792625 C0,4.216625 0.279822668,3.428625 0.839468004,3.428625 C0.866515001,3.428625 0.96471835,3.4755 1.13407805,3.56925 C1.30343775,3.663 1.52347897,3.757875 1.79420171,3.853875 C2.06492446,3.949875 2.33349861,3.997875 2.59992417,3.997875 C2.90224387,3.997875 3.20241498,3.9465 3.5004375,3.84375 C3.47794046,4.009 3.46669194,4.156375 3.46669194,4.285875 C3.46669194,4.906375 3.64944875,5.47775 4.01496238,6 L4.01496238,6 Z M11.2664644,10.265625 C11.2664644,10.801375 11.1016547,11.224375 10.7720352,11.534625 C10.4424158,11.844875 10.0046083,12 9.45861284,12 L3.54100799,12 C2.99475977,12 2.5569523,11.844875 2.2275856,11.534625 C1.8982189,11.224375 1.73340917,10.801375 1.73315639,10.265625 C1.73315639,10.029125 1.74111882,9.798125 1.75704369,9.572625 C1.77296856,9.347125 1.80456552,9.103875 1.85183457,8.842875 C1.89910362,8.581875 1.95888506,8.339625 2.03117891,8.116125 C2.10347275,7.892625 2.20053861,7.675 2.32237648,7.46325 C2.44421435,7.2515 2.58412569,7.07075 2.74211048,6.921 C2.90009528,6.77125 3.0930895,6.651875 3.32109316,6.562875 C3.54909681,6.473875 3.80073499,6.42925 4.0760077,6.429 C4.12125455,6.429 4.2183204,6.477 4.36720527,6.573 C4.51609014,6.669 4.68089988,6.776125 4.86163449,6.894375 C5.04236909,7.012625 5.28389625,7.11975 5.58621595,7.21575 C5.88853565,7.31175 6.19325672,7.35975 6.50037916,7.35975 C6.8075016,7.35975 7.11222268,7.31175 7.41454238,7.21575 C7.71686208,7.11975 7.95838924,7.012625 8.13912384,6.894375 C8.31985845,6.776125 8.48466818,6.669 8.63355305,6.573 C8.78243792,6.477 8.87950378,6.429 8.92475063,6.429 C9.20002333,6.429 9.45166151,6.473625 9.67966517,6.562875 C9.90766882,6.652125 10.1006631,6.7715 10.2586478,6.921 C10.4166326,7.0705 10.556544,7.25125 10.6783818,7.46325 C10.8002197,7.67525 10.8972856,7.892875 10.9695794,8.116125 C11.0418733,8.339375 11.1016547,8.581625 11.1489238,8.842875 C11.1961928,9.104125 11.2277898,9.347375 11.2437146,9.572625 C11.2596395,9.797875 11.2676019,10.028875 11.2676019,10.265625 L11.2664644,10.265625 Z M4.33345972,1.714125 C4.33345972,2.187375 4.16422641,2.591375 3.82575979,2.926125 C3.48729316,3.260875 3.07880768,3.42825 2.60030333,3.42825 C2.12179899,3.42825 1.7133135,3.260875 1.37484688,2.926125 C1.03638025,2.591375 0.86714694,2.187375 0.86714694,1.714125 C0.86714694,1.240875 1.03638025,0.836875 1.37484688,0.502125 C1.7133135,0.167375 2.12179899,0 2.60030333,0 C3.07880768,0 3.48729316,0.167375 3.82575979,0.502125 C4.16422641,0.836875 4.33345972,1.240875 4.33345972,1.714125 Z M9.09992417,4.285875 C9.09992417,4.995625 8.84601101,5.601625 8.33818468,6.103875 C7.83035836,6.606125 7.21763013,6.85725 6.5,6.85725 C5.78236987,6.85725 5.16964164,6.606125 4.66181532,6.103875 C4.15398899,5.601625 3.90007583,4.995625 3.90007583,4.285875 C3.90007583,3.576125 4.15398899,2.970125 4.66181532,2.467875 C5.16964164,1.965625 5.78236987,1.7145 6.5,1.7145 C7.21763013,1.7145 7.83035836,1.965625 8.33818468,2.467875 C8.84601101,2.970125 9.09992417,3.576125 9.09992417,4.285875 Z M13,5.79225 C13,6.1405 12.8736122,6.405 12.6208365,6.58575 C12.3680608,6.7665 12.0566412,6.856875 11.6865776,6.856875 L10.7792393,6.856875 C10.3143849,6.307875 9.71631764,6.022125 8.98503762,5.999625 C9.35055125,5.477375 9.53330806,4.906 9.53330806,4.2855 C9.53330806,4.156 9.52205954,4.008625 9.4995625,3.843375 C9.79758502,3.946125 10.0977561,3.9975 10.4000758,3.9975 C10.6665014,3.9975 10.9350755,3.9495 11.2057983,3.8535 C11.476521,3.7575 11.6965623,3.662625 11.865922,3.568875 C12.0352817,3.475125 12.133485,3.42825 12.160532,3.42825 C12.7201773,3.42825 13,4.21625 13,5.79225 Z M12.1332322,1.714125 C12.1332322,2.187375 11.9639989,2.591375 11.6255323,2.926125 C11.2870657,3.260875 10.8785802,3.42825 10.4000758,3.42825 C9.92157149,3.42825 9.513086,3.260875 9.17461938,2.926125 C8.83615275,2.591375 8.66691944,2.187375 8.66691944,1.714125 C8.66691944,1.240875 8.83615275,0.836875 9.17461938,0.502125 C9.513086,0.167375 9.92157149,-4.4408921e-16 10.4000758,0 C10.8785802,4.4408921e-16 11.2870657,0.167375 11.6255323,0.502125 C11.9639989,0.836875 12.1332322,1.240875 12.1332322,1.714125 Z" id="Shape"></path>
                    </g>
                </g>
                <g id="Group-5" transform="translate(23.000000, 185.000000)">
                    <path d="M23.079,5.276 L21.198,5.276 L21.198,4.646 L25.761,4.646 L25.761,5.276 L23.889,5.276 L23.889,11 L23.079,11 L23.079,5.276 Z M26.265,6.572 L26.913,6.572 L26.985,7.562 C27.1110006,7.23799838 27.3119986,6.97100105 27.588,6.761 C27.8640014,6.55099895 28.1909981,6.446 28.569,6.446 L28.569,7.238 C28.4849996,7.21999991 28.3920005,7.211 28.29,7.211 C28.1399993,7.211 27.9900008,7.23799973 27.84,7.292 C27.6899992,7.34600027 27.5535006,7.4329994 27.4305,7.553 C27.3074994,7.6730006 27.2070004,7.82749905 27.129,8.0165 C27.0509996,8.20550095 27.012,8.43499865 27.012,8.705 L27.012,11 L26.265,11 L26.265,6.572 Z M32.088,11 C32.0219997,10.7839989 31.9830001,10.5260015 31.971,10.226 C31.8509994,10.5020014 31.6665012,10.7224992 31.4175,10.8875 C31.1684988,11.0525008 30.8730017,11.135 30.531,11.135 C30.0989978,11.135 29.7570013,11.0120012 29.505,10.766 C29.2529987,10.5199988 29.127,10.1900021 29.127,9.776 C29.127,9.54199883 29.1689996,9.34550079 29.253,9.1865 C29.3370004,9.0274992 29.4539993,8.89550052 29.604,8.7905 C29.7540008,8.68549948 29.930999,8.6030003 30.135,8.543 C30.339001,8.4829997 30.5609988,8.43500018 30.801,8.399 L31.935,8.228 L31.935,7.949 C31.935,7.75099901 31.9110002,7.5920006 31.863,7.472 C31.8149998,7.3519994 31.7490004,7.25900033 31.665,7.193 C31.5809996,7.12699967 31.4850005,7.0835001 31.377,7.0625 C31.2689995,7.04149989 31.1550006,7.031 31.035,7.031 C30.6929983,7.031 30.4110011,7.09399937 30.189,7.22 C29.9669989,7.34600063 29.7810008,7.50499904 29.631,7.697 L29.244,7.211 C29.4180009,7.00099895 29.6594985,6.82100075 29.9685,6.671 C30.2775015,6.52099925 30.6599977,6.446 31.116,6.446 C31.6680028,6.446 32.0684988,6.56899877 32.3175,6.815 C32.5665012,7.06100123 32.691,7.45699727 32.691,8.003 L32.691,9.794 C32.691,9.93800072 32.6925,10.0639995 32.6955,10.172 C32.6985,10.2800005 32.7045,10.3804995 32.7135,10.4735 C32.7225,10.5665005 32.7359999,10.6549996 32.754,10.739 C32.7720001,10.8230004 32.7959999,10.9099996 32.826,11 L32.088,11 Z M31.935,8.723 L30.873,8.894 C30.5069982,8.96000033 30.2475008,9.05899934 30.0945,9.191 C29.9414992,9.32300066 29.865,9.50599883 29.865,9.74 C29.865,9.9800012 29.9354993,10.1809992 30.0765,10.343 C30.2175007,10.5050008 30.4259986,10.586 30.702,10.586 C30.8700008,10.586 31.0289993,10.5530003 31.179,10.487 C31.3290008,10.4209997 31.4594994,10.3295006 31.5705,10.2125 C31.6815006,10.0954994 31.7699997,9.95450083 31.836,9.7895 C31.9020003,9.62449918 31.935,9.44300099 31.935,9.245 L31.935,8.723 Z M33.546,6.572 L34.392,6.572 L35.472,10.298 L36.543,6.572 L37.353,6.572 L35.895,11 L34.995,11 L33.546,6.572 Z M38.721,8.957 C38.7510001,9.46700255 38.8814988,9.8614986 39.1125,10.1405 C39.3435012,10.4195014 39.6659979,10.559 40.08,10.559 C40.6020026,10.559 40.9949987,10.3130025 41.259,9.821 L41.826,10.136 C41.6519991,10.4300015 41.4210014,10.6699991 41.133,10.856 C40.8449986,11.0420009 40.4820022,11.135 40.044,11.135 C39.6959983,11.135 39.3915013,11.0750006 39.1305,10.955 C38.8694987,10.8349994 38.6520009,10.670001 38.478,10.46 C38.3039991,10.249999 38.1735004,10.0040014 38.0865,9.722 C37.9994996,9.43999859 37.956,9.13700162 37.956,8.813 C37.956,8.49499841 37.9979996,8.19200144 38.082,7.904 C38.1660004,7.61599856 38.2934991,7.36400108 38.4645,7.148 C38.6355009,6.93199892 38.8454988,6.76100063 39.0945,6.635 C39.3435012,6.50899937 39.6359983,6.446 39.972,6.446 C40.2960016,6.446 40.5779988,6.50749938 40.818,6.6305 C41.0580012,6.75350062 41.2574992,6.91849896 41.4165,7.1255 C41.5755008,7.33250103 41.6954996,7.57249864 41.7765,7.8455 C41.8575004,8.11850137 41.898,8.40799847 41.898,8.714 C41.898,8.78000033 41.8965,8.83099982 41.8935,8.867 C41.8905,8.90300018 41.889,8.93299988 41.889,8.957 L38.721,8.957 Z M39.963,7.013 C39.5849981,7.013 39.292501,7.14799865 39.0855,7.418 C38.878499,7.68800135 38.7600001,8.05099772 38.73,8.507 L41.133,8.507 C41.133,8.32099907 41.1120002,8.13950089 41.07,7.9625 C41.0279998,7.78549911 40.9590005,7.6265007 40.863,7.4855 C40.7669995,7.34449929 40.6455007,7.23050043 40.4985,7.1435 C40.3514993,7.05649956 40.173001,7.013 39.963,7.013 Z M42.807,4.646 L43.554,4.646 L43.554,11 L42.807,11 L42.807,4.646 Z M49.512,11 C49.4459997,10.7839989 49.4070001,10.5260015 49.395,10.226 C49.2749994,10.5020014 49.0905012,10.7224992 48.8415,10.8875 C48.5924988,11.0525008 48.2970017,11.135 47.955,11.135 C47.5229978,11.135 47.1810013,11.0120012 46.929,10.766 C46.6769987,10.5199988 46.551,10.1900021 46.551,9.776 C46.551,9.54199883 46.5929996,9.34550079 46.677,9.1865 C46.7610004,9.0274992 46.8779993,8.89550052 47.028,8.7905 C47.1780008,8.68549948 47.354999,8.6030003 47.559,8.543 C47.763001,8.4829997 47.9849988,8.43500018 48.225,8.399 L49.359,8.228 L49.359,7.949 C49.359,7.75099901 49.3350002,7.5920006 49.287,7.472 C49.2389998,7.3519994 49.1730004,7.25900033 49.089,7.193 C49.0049996,7.12699967 48.9090005,7.0835001 48.801,7.0625 C48.6929995,7.04149989 48.5790006,7.031 48.459,7.031 C48.1169983,7.031 47.8350011,7.09399937 47.613,7.22 C47.3909989,7.34600063 47.2050007,7.50499904 47.055,7.697 L46.668,7.211 C46.8420009,7.00099895 47.0834985,6.82100075 47.3925,6.671 C47.7015015,6.52099925 48.0839977,6.446 48.54,6.446 C49.0920028,6.446 49.4924988,6.56899877 49.7415,6.815 C49.9905012,7.06100123 50.115,7.45699727 50.115,8.003 L50.115,9.794 C50.115,9.93800072 50.1165,10.0639995 50.1195,10.172 C50.1225,10.2800005 50.1285,10.3804995 50.1375,10.4735 C50.1465,10.5665005 50.1599999,10.6549996 50.178,10.739 C50.1960001,10.8230004 50.2199999,10.9099996 50.25,11 L49.512,11 Z M49.359,8.723 L48.297,8.894 C47.9309982,8.96000033 47.6715008,9.05899934 47.5185,9.191 C47.3654992,9.32300066 47.289,9.50599883 47.289,9.74 C47.289,9.9800012 47.3594993,10.1809992 47.5005,10.343 C47.6415007,10.5050008 47.8499986,10.586 48.126,10.586 C48.2940008,10.586 48.4529993,10.5530003 48.603,10.487 C48.7530007,10.4209997 48.8834994,10.3295006 48.9945,10.2125 C49.1055006,10.0954994 49.1939997,9.95450083 49.26,9.7895 C49.3260003,9.62449918 49.359,9.44300099 49.359,9.245 L49.359,8.723 Z M51.312,6.572 L51.96,6.572 L52.041,7.454 C52.1550006,7.18399865 52.3364988,6.948501 52.5855,6.7475 C52.8345012,6.54649899 53.1419982,6.446 53.508,6.446 C53.9700023,6.446 54.3104989,6.59299853 54.5295,6.887 C54.7485011,7.18100147 54.858,7.59199736 54.858,8.12 L54.858,11 L54.111,11 L54.111,8.273 C54.111,7.87099799 54.0300008,7.57550094 53.868,7.3865 C53.7059992,7.19749905 53.4870014,7.103 53.211,7.103 C52.8809983,7.103 52.6065011,7.23799865 52.3875,7.508 C52.1684989,7.77800135 52.059,8.15899754 52.059,8.651 L52.059,11 L51.312,11 L51.312,6.572 Z M58.971,10.136 C58.8509994,10.4360015 58.6740012,10.6729991 58.44,10.847 C58.2059988,11.0210009 57.9150017,11.108 57.567,11.108 C57.2909986,11.108 57.0435011,11.0510006 56.8245,10.937 C56.6054989,10.8229994 56.4195008,10.664001 56.2665,10.46 C56.1134992,10.255999 55.9965004,10.0100014 55.9155,9.722 C55.8344996,9.43399856 55.794,9.11600174 55.794,8.768 C55.794,8.4079982 55.8359996,8.08550143 55.92,7.8005 C56.0040004,7.51549858 56.1239992,7.27400099 56.28,7.076 C56.4360008,6.87799901 56.6234989,6.72500054 56.8425,6.617 C57.0615011,6.50899946 57.3029987,6.455 57.567,6.455 C57.9270018,6.455 58.2209989,6.54049915 58.449,6.7115 C58.6770011,6.88250085 58.8389995,7.0879988 58.935,7.328 L58.935,4.646 L59.691,4.646 L59.691,11 L58.971,11 L58.971,10.136 Z M58.935,8.759 C58.935,8.57299907 58.9305,8.42750052 58.9215,8.3225 C58.9125,8.21749948 58.9020001,8.13200033 58.89,8.066 C58.8599999,7.93399934 58.8150003,7.8080006 58.755,7.688 C58.6949997,7.5679994 58.6185005,7.46150046 58.5255,7.3685 C58.4324995,7.27549953 58.3230006,7.20200027 58.197,7.148 C58.0709994,7.09399973 57.9270008,7.067 57.765,7.067 C57.560999,7.067 57.3855007,7.11199955 57.2385,7.202 C57.0914993,7.29200045 56.9685005,7.41349923 56.8695,7.5665 C56.7704995,7.71950076 56.6970002,7.89949896 56.649,8.1065 C56.6009998,8.31350103 56.577,8.53399883 56.577,8.768 C56.577,9.02000126 56.6039997,9.25249894 56.658,9.4655 C56.7120003,9.67850106 56.7899995,9.86149924 56.892,10.0145 C56.9940005,10.1675008 57.1199993,10.2874996 57.27,10.3745 C57.4200007,10.4615004 57.590999,10.505 57.783,10.505 C57.9330008,10.505 58.0694994,10.4780003 58.1925,10.424 C58.3155006,10.3699997 58.4234995,10.2950005 58.5165,10.199 C58.6095005,10.1029995 58.6859997,9.99350062 58.746,9.8705 C58.8060003,9.74749938 58.8509999,9.61700069 58.881,9.479 C58.9170002,9.31099916 58.935,9.08600141 58.935,8.804 L58.935,8.759 Z M63.426,8.957 C63.4560002,9.46700255 63.5864988,9.8614986 63.8175,10.1405 C64.0485012,10.4195014 64.3709979,10.559 64.785,10.559 C65.3070026,10.559 65.6999987,10.3130025 65.964,9.821 L66.531,10.136 C66.3569991,10.4300015 66.1260014,10.6699991 65.838,10.856 C65.5499986,11.0420009 65.1870022,11.135 64.749,11.135 C64.4009983,11.135 64.0965013,11.0750006 63.8355,10.955 C63.5744987,10.8349994 63.3570009,10.670001 63.183,10.46 C63.0089991,10.249999 62.8785004,10.0040014 62.7915,9.722 C62.7044996,9.43999859 62.661,9.13700162 62.661,8.813 C62.661,8.49499841 62.7029996,8.19200144 62.787,7.904 C62.8710004,7.61599856 62.9984991,7.36400108 63.1695,7.148 C63.3405009,6.93199892 63.5504988,6.76100063 63.7995,6.635 C64.0485012,6.50899937 64.3409983,6.446 64.677,6.446 C65.0010016,6.446 65.2829988,6.50749938 65.523,6.6305 C65.7630012,6.75350062 65.9624992,6.91849896 66.1215,7.1255 C66.2805008,7.33250103 66.4004996,7.57249864 66.4815,7.8455 C66.5625004,8.11850137 66.603,8.40799847 66.603,8.714 C66.603,8.78000033 66.6015,8.83099982 66.5985,8.867 C66.5955,8.90300018 66.594,8.93299988 66.594,8.957 L63.426,8.957 Z M64.668,7.013 C64.2899981,7.013 63.997501,7.14799865 63.7905,7.418 C63.583499,7.68800135 63.4650002,8.05099772 63.435,8.507 L65.838,8.507 C65.838,8.32099907 65.8170002,8.13950089 65.775,7.9625 C65.7329998,7.78549911 65.6640005,7.6265007 65.568,7.4855 C65.4719995,7.34449929 65.3505007,7.23050043 65.2035,7.1435 C65.0564993,7.05649956 64.878001,7.013 64.668,7.013 Z M68.394,8.687 L67.071,6.572 L67.899,6.572 L68.925,8.255 L69.951,6.572 L70.77,6.572 L69.438,8.687 L70.941,11 L70.068,11 L68.925,9.128 L67.764,11 L66.9,11 L68.394,8.687 Z M71.733,6.572 L72.48,6.572 L72.48,7.427 C72.5340003,7.30099937 72.6029996,7.1780006 72.687,7.058 C72.7710004,6.9379994 72.8714994,6.83300045 72.9885,6.743 C73.1055006,6.65299955 73.2419992,6.58100027 73.398,6.527 C73.5540008,6.47299973 73.730999,6.446 73.929,6.446 C74.2170014,6.446 74.4674989,6.5059994 74.6805,6.626 C74.8935011,6.7460006 75.0689993,6.91099895 75.207,7.121 C75.3450007,7.33100105 75.4484997,7.5754986 75.5175,7.8545 C75.5865003,8.13350139 75.621,8.43499838 75.621,8.759 C75.621,9.14300192 75.5760005,9.48199853 75.486,9.776 C75.3959995,10.0700015 75.2700008,10.315999 75.108,10.514 C74.9459992,10.712001 74.7570011,10.8619995 74.541,10.964 C74.3249989,11.0660005 74.0910013,11.117 73.839,11.117 C73.5089983,11.117 73.2255012,11.0360008 72.9885,10.874 C72.7514988,10.7119992 72.5820005,10.5110012 72.48,10.271 L72.48,12.557 L71.733,12.557 L71.733,6.572 Z M72.48,8.813 C72.48,8.93900063 72.4845,9.05449948 72.4935,9.1595 C72.5025,9.26450052 72.5129999,9.35299964 72.525,9.425 C72.5490001,9.56900072 72.5939997,9.70699934 72.66,9.839 C72.7260003,9.97100066 72.8069995,10.0864995 72.903,10.1855 C72.9990005,10.2845005 73.1114994,10.3639997 73.2405,10.424 C73.3695006,10.4840003 73.5119992,10.514 73.668,10.514 C73.872001,10.514 74.0474993,10.4660005 74.1945,10.37 C74.3415007,10.2739995 74.4629995,10.1450008 74.559,9.983 C74.6550005,9.82099919 74.7254998,9.63650104 74.7705,9.4295 C74.8155002,9.22249896 74.838,9.00800111 74.838,8.786 C74.838,8.56399889 74.8170002,8.34950103 74.775,8.1425 C74.7329998,7.93549896 74.6655005,7.75250079 74.5725,7.5935 C74.4794995,7.4344992 74.3580008,7.30700048 74.208,7.211 C74.0579992,7.11499952 73.878001,7.067 73.668,7.067 C73.5059992,7.067 73.3575007,7.0969997 73.2225,7.157 C73.0874993,7.2170003 72.9720005,7.29799949 72.876,7.4 C72.7799995,7.50200051 72.7005003,7.61899934 72.6375,7.751 C72.5744997,7.88300066 72.5340001,8.02099928 72.516,8.165 C72.5039999,8.2250003 72.495,8.30749948 72.489,8.4125 C72.483,8.51750052 72.48,8.63899931 72.48,8.777 L72.48,8.813 Z M77.142,8.957 C77.1720002,9.46700255 77.3024988,9.8614986 77.5335,10.1405 C77.7645012,10.4195014 78.0869979,10.559 78.501,10.559 C79.0230026,10.559 79.4159987,10.3130025 79.68,9.821 L80.247,10.136 C80.0729991,10.4300015 79.8420014,10.6699991 79.554,10.856 C79.2659986,11.0420009 78.9030022,11.135 78.465,11.135 C78.1169983,11.135 77.8125013,11.0750006 77.5515,10.955 C77.2904987,10.8349994 77.0730009,10.670001 76.899,10.46 C76.7249991,10.249999 76.5945004,10.0040014 76.5075,9.722 C76.4204996,9.43999859 76.377,9.13700162 76.377,8.813 C76.377,8.49499841 76.4189996,8.19200144 76.503,7.904 C76.5870004,7.61599856 76.7144991,7.36400108 76.8855,7.148 C77.0565009,6.93199892 77.2664988,6.76100063 77.5155,6.635 C77.7645012,6.50899937 78.0569983,6.446 78.393,6.446 C78.7170016,6.446 78.9989988,6.50749938 79.239,6.6305 C79.4790012,6.75350062 79.6784992,6.91849896 79.8375,7.1255 C79.9965008,7.33250103 80.1164996,7.57249864 80.1975,7.8455 C80.2785004,8.11850137 80.319,8.40799847 80.319,8.714 C80.319,8.78000033 80.3175,8.83099982 80.3145,8.867 C80.3115,8.90300018 80.31,8.93299988 80.31,8.957 L77.142,8.957 Z M78.384,7.013 C78.0059981,7.013 77.713501,7.14799865 77.5065,7.418 C77.299499,7.68800135 77.1810002,8.05099772 77.151,8.507 L79.554,8.507 C79.554,8.32099907 79.5330002,8.13950089 79.491,7.9625 C79.4489998,7.78549911 79.3800005,7.6265007 79.284,7.4855 C79.1879995,7.34449929 79.0665007,7.23050043 78.9195,7.1435 C78.7724993,7.05649956 78.5940011,7.013 78.384,7.013 Z M81.228,6.572 L81.876,6.572 L81.957,7.454 C82.0710006,7.18399865 82.2524988,6.948501 82.5015,6.7475 C82.7505012,6.54649899 83.0579982,6.446 83.424,6.446 C83.8860023,6.446 84.2264989,6.59299853 84.4455,6.887 C84.6645011,7.18100147 84.774,7.59199736 84.774,8.12 L84.774,11 L84.027,11 L84.027,8.273 C84.027,7.87099799 83.9460008,7.57550094 83.784,7.3865 C83.6219992,7.19749905 83.4030014,7.103 83.127,7.103 C82.7969983,7.103 82.5225011,7.23799865 82.3035,7.508 C82.0844989,7.77800135 81.975,8.15899754 81.975,8.651 L81.975,11 L81.228,11 L81.228,6.572 Z M85.989,9.911 C86.1390008,10.103001 86.3324988,10.2619994 86.5695,10.388 C86.8065012,10.5140006 87.0659986,10.577 87.348,10.577 C87.6000013,10.577 87.8189991,10.5170006 88.005,10.397 C88.1910009,10.2769994 88.284,10.0970012 88.284,9.857 C88.284,9.67099907 88.2225006,9.52550052 88.0995,9.4205 C87.9764994,9.31549947 87.8235009,9.22700036 87.6405,9.155 C87.4574991,9.08299964 87.2580011,9.0170003 87.042,8.957 C86.8259989,8.8969997 86.6265009,8.81900048 86.4435,8.723 C86.2604991,8.62699952 86.1075006,8.50100078 85.9845,8.345 C85.8614994,8.18899922 85.8,7.97600135 85.8,7.706 C85.8,7.48399889 85.8449996,7.29350079 85.935,7.1345 C86.0250005,6.97549921 86.1434993,6.84500051 86.2905,6.743 C86.4375007,6.64099949 86.606999,6.56600024 86.799,6.518 C86.991001,6.46999976 87.1919989,6.446 87.402,6.446 C88.0260031,6.446 88.5449979,6.6259982 88.959,6.986 L88.581,7.49 C88.4489993,7.35199931 88.2735011,7.23650046 88.0545,7.1435 C87.8354989,7.05049954 87.6090012,7.004 87.375,7.004 C87.2729995,7.004 87.1725005,7.01599988 87.0735,7.04 C86.9744995,7.06400012 86.8875004,7.10149974 86.8125,7.1525 C86.7374996,7.20350025 86.6775002,7.26799961 86.6325,7.346 C86.5874998,7.42400039 86.565,7.51999943 86.565,7.634 C86.565,7.80800087 86.6264994,7.94299952 86.7495,8.039 C86.8725006,8.13500048 87.0254991,8.21749966 87.2085,8.2865 C87.3915009,8.35550034 87.5894989,8.42149969 87.8025,8.4845 C88.0155011,8.54750032 88.2134991,8.62849951 88.3965,8.7275 C88.5795009,8.82650049 88.7324994,8.95699919 88.8555,9.119 C88.9785006,9.28100081 89.04,9.49699865 89.04,9.767 C89.04,9.99500114 88.9935005,10.1944991 88.9005,10.3655 C88.8074995,10.5365009 88.6845008,10.6789994 88.5315,10.793 C88.3784992,10.9070006 88.201501,10.9924997 88.0005,11.0495 C87.799499,11.1065003 87.5910011,11.135 87.375,11.135 C86.6309963,11.135 86.0400022,10.8950024 85.602,10.415 L85.989,9.911 Z M90.48,8.957 C90.5100002,9.46700255 90.6404988,9.8614986 90.8715,10.1405 C91.1025012,10.4195014 91.4249979,10.559 91.839,10.559 C92.3610026,10.559 92.7539987,10.3130025 93.018,9.821 L93.585,10.136 C93.4109991,10.4300015 93.1800014,10.6699991 92.892,10.856 C92.6039986,11.0420009 92.2410022,11.135 91.803,11.135 C91.4549983,11.135 91.1505013,11.0750006 90.8895,10.955 C90.6284987,10.8349994 90.4110009,10.670001 90.237,10.46 C90.0629991,10.249999 89.9325004,10.0040014 89.8455,9.722 C89.7584996,9.43999859 89.715,9.13700162 89.715,8.813 C89.715,8.49499841 89.7569996,8.19200144 89.841,7.904 C89.9250004,7.61599856 90.0524991,7.36400108 90.2235,7.148 C90.3945009,6.93199892 90.6044988,6.76100063 90.8535,6.635 C91.1025012,6.50899937 91.3949983,6.446 91.731,6.446 C92.0550016,6.446 92.3369988,6.50749938 92.577,6.6305 C92.8170012,6.75350062 93.0164992,6.91849896 93.1755,7.1255 C93.3345008,7.33250103 93.4544996,7.57249864 93.5355,7.8455 C93.6165004,8.11850137 93.657,8.40799847 93.657,8.714 C93.657,8.78000033 93.6555,8.83099982 93.6525,8.867 C93.6495,8.90300018 93.648,8.93299988 93.648,8.957 L90.48,8.957 Z M91.722,7.013 C91.3439981,7.013 91.051501,7.14799865 90.8445,7.418 C90.637499,7.68800135 90.5190002,8.05099772 90.489,8.507 L92.892,8.507 C92.892,8.32099907 92.8710002,8.13950089 92.829,7.9625 C92.7869998,7.78549911 92.7180005,7.6265007 92.622,7.4855 C92.5259995,7.34449929 92.4045007,7.23050043 92.2575,7.1435 C92.1104993,7.05649956 91.9320011,7.013 91.722,7.013 Z M94.647,9.911 C94.7970008,10.103001 94.9904988,10.2619994 95.2275,10.388 C95.4645012,10.5140006 95.7239986,10.577 96.006,10.577 C96.2580013,10.577 96.4769991,10.5170006 96.663,10.397 C96.8490009,10.2769994 96.942,10.0970012 96.942,9.857 C96.942,9.67099907 96.8805006,9.52550052 96.7575,9.4205 C96.6344994,9.31549947 96.4815009,9.22700036 96.2985,9.155 C96.1154991,9.08299964 95.9160011,9.0170003 95.7,8.957 C95.4839989,8.8969997 95.2845009,8.81900048 95.1015,8.723 C94.9184991,8.62699952 94.7655006,8.50100078 94.6425,8.345 C94.5194994,8.18899922 94.458,7.97600135 94.458,7.706 C94.458,7.48399889 94.5029996,7.29350079 94.593,7.1345 C94.6830005,6.97549921 94.8014993,6.84500051 94.9485,6.743 C95.0955007,6.64099949 95.264999,6.56600024 95.457,6.518 C95.649001,6.46999976 95.849999,6.446 96.06,6.446 C96.6840031,6.446 97.2029979,6.6259982 97.617,6.986 L97.239,7.49 C97.1069993,7.35199931 96.9315011,7.23650046 96.7125,7.1435 C96.4934989,7.05049954 96.2670012,7.004 96.033,7.004 C95.9309995,7.004 95.8305005,7.01599988 95.7315,7.04 C95.6324995,7.06400012 95.5455004,7.10149974 95.4705,7.1525 C95.3954996,7.20350025 95.3355002,7.26799961 95.2905,7.346 C95.2454998,7.42400039 95.223,7.51999943 95.223,7.634 C95.223,7.80800087 95.2844994,7.94299952 95.4075,8.039 C95.5305006,8.13500048 95.6834991,8.21749966 95.8665,8.2865 C96.0495009,8.35550034 96.2474989,8.42149969 96.4605,8.4845 C96.6735011,8.54750032 96.8714991,8.62849951 97.0545,8.7275 C97.2375009,8.82650049 97.3904994,8.95699919 97.5135,9.119 C97.6365006,9.28100081 97.698,9.49699865 97.698,9.767 C97.698,9.99500114 97.6515005,10.1944991 97.5585,10.3655 C97.4654995,10.5365009 97.3425008,10.6789994 97.1895,10.793 C97.0364992,10.9070006 96.859501,10.9924997 96.6585,11.0495 C96.457499,11.1065003 96.2490011,11.135 96.033,11.135 C95.2889963,11.135 94.6980022,10.8950024 94.26,10.415 L94.647,9.911 Z" id="Travel-and-expenses" fill="#D2D6D9"></path>
                    <g id="shopping-bag" fill-rule="nonzero" fill="#D1D6D9">
                        <path d="M12.743204,10.2143437 L12.9969947,12.484875 C13.0116131,12.6202917 12.9729015,12.7412187 12.8808601,12.8476562 C12.7890893,12.9492187 12.6730901,13 12.5328622,13 L0.467042259,13 C0.326814426,13 0.210815147,12.9492187 0.119044422,12.8476562 C0.0272736975,12.7412187 -0.0114378471,12.6202917 0.00290978831,12.484875 L0.256700509,10.2143437 L12.743204,10.2143437 Z M12.0687298,4.12790625 L12.6924458,9.75 L0.307458654,9.75 L0.93117473,4.12790625 C0.945793075,4.01171875 0.996551219,3.9138125 1.08344916,3.8341875 C1.17034711,3.7545625 1.27429978,3.71461458 1.3953072,3.71434375 L3.25143102,3.71434375 L3.25143102,4.64303125 C3.25143102,4.89923958 3.3421189,5.11807292 3.52349467,5.29953125 C3.70487044,5.48098958 3.9236042,5.57171875 4.17969596,5.57171875 C4.43578772,5.57171875 4.65452148,5.48098958 4.83589725,5.29953125 C5.01727302,5.11807292 5.1079609,4.89923958 5.1079609,4.64303125 L5.1079609,3.71434375 L7.89234966,3.71434375 L7.89234966,4.64303125 C7.89234966,4.89923958 7.98303754,5.11807292 8.16441331,5.29953125 C8.34578908,5.48098958 8.56452284,5.57171875 8.8206146,5.57171875 C9.07670636,5.57171875 9.29544012,5.48098958 9.47681589,5.29953125 C9.65819166,5.11807292 9.74887954,4.89923958 9.74887954,4.64303125 L9.74887954,3.71434375 L11.6050034,3.71434375 C11.7257401,3.71434375 11.8296927,3.75429167 11.9168614,3.8341875 C12.00403,3.91408333 12.0547882,4.01198958 12.0691358,4.12790625 L12.0687298,4.12790625 Z M9.28434101,2.78565625 L9.28434101,4.642625 C9.28434101,4.76829167 9.23845564,4.87716667 9.14668492,4.96925 C9.05491419,5.06133333 8.94608873,5.10723958 8.82020854,5.10696875 C8.69432834,5.10669792 8.58550288,5.06079167 8.49373215,4.96925 C8.40196143,4.87770833 8.35607606,4.76883333 8.35607606,4.642625 L8.35607606,2.78565625 C8.35607606,2.27296875 8.17483565,1.83530208 7.81235482,1.47265625 C7.449874,1.11001042 7.01240647,0.9286875 6.49995225,0.9286875 C5.98749802,0.9286875 5.5500305,1.11001042 5.18754967,1.47265625 C4.82506884,1.83530208 4.64382843,2.27296875 4.64382843,2.78565625 L4.64382843,4.642625 C4.64382843,4.76829167 4.59794307,4.87716667 4.50617234,4.96925 C4.41440162,5.06133333 4.30557616,5.10723958 4.17969596,5.10696875 C4.05381576,5.10669792 3.9449903,5.06079167 3.85321958,4.96925 C3.76144885,4.87770833 3.71556349,4.76883333 3.71556349,4.642625 L3.71556349,2.78565625 C3.71556349,2.01676042 3.98749179,1.36026042 4.53134838,0.81615625 C5.07520498,0.272052083 5.73140627,0 6.49995225,0 C7.26849823,0 7.92469952,0.272052083 8.46855611,0.81615625 C9.01241271,1.36026042 9.28434101,2.01676042 9.28434101,2.78565625 L9.28434101,2.78565625 Z" id="Shape"></path>
                    </g>
                </g>
                <g id="Group-6" transform="translate(23.000000, 216.000000)">
                    <path d="M21.63,2.646 L22.638,2.646 C22.8000008,3.04800201 22.9664991,3.46649782 23.1375,3.9015 C23.3085009,4.33650217 23.4764992,4.76699787 23.6415,5.193 C23.8065008,5.61900213 23.9654992,6.02999802 24.1185,6.426 C24.2715008,6.82200198 24.4109994,7.18499835 24.537,7.515 C24.6630006,7.18499835 24.8009993,6.82200198 24.951,6.426 C25.1010008,6.02999802 25.2599992,5.61900213 25.428,5.193 C25.5960008,4.76699787 25.7654991,4.33800216 25.9365,3.906 C26.1075009,3.47399784 26.2739992,3.05400204 26.436,2.646 L27.399,2.646 L27.399,9 L26.634,9 L26.634,7.632 C26.634,7.16399766 26.6355,6.70200228 26.6385,6.246 C26.6415,5.78999772 26.6445,5.34750214 26.6475,4.9185 C26.6505,4.48949785 26.655,4.09200183 26.661,3.726 C26.5229993,4.09800186 26.3685009,4.49849786 26.1975,4.9275 C26.0264991,5.35650215 25.8495009,5.8004977 25.6665,6.2595 C25.4834991,6.7185023 25.2975009,7.18199766 25.1085,7.65 C24.9194991,8.11800234 24.7350009,8.57699775 24.555,9.027 L24.483,9.027 C24.3209992,8.61899796 24.141001,8.17200243 23.943,7.686 C23.744999,7.19999757 23.548501,6.71550241 23.3535,6.2325 C23.158499,5.74949758 22.9740009,5.28900219 22.8,4.851 C22.6259991,4.41299781 22.4820006,4.03800156 22.368,3.726 C22.374,4.09200183 22.38,4.48949785 22.386,4.9185 C22.392,5.34750214 22.395,5.7914977 22.395,6.2505 C22.395,6.7095023 22.3965,7.17299766 22.3995,7.641 C22.4025,8.10900234 22.404,8.56199781 22.404,9 L21.63,9 L21.63,2.646 Z M30.441,9.135 C30.1049983,9.135 29.8095013,9.07350062 29.5545,8.9505 C29.2994987,8.82749938 29.0865009,8.65950107 28.9155,8.4465 C28.7444991,8.23349894 28.6170004,7.98450142 28.533,7.6995 C28.4489996,7.41449857 28.407,7.10700165 28.407,6.777 C28.407,6.44699835 28.4504996,6.14100141 28.5375,5.859 C28.6245004,5.57699859 28.7534991,5.33100105 28.9245,5.121 C29.0955009,4.91099895 29.3084987,4.7460006 29.5635,4.626 C29.8185013,4.5059994 30.1109984,4.446 30.441,4.446 C30.7710017,4.446 31.0634987,4.5059994 31.3185,4.626 C31.5735013,4.7460006 31.7879991,4.90949896 31.962,5.1165 C32.1360009,5.32350103 32.2664996,5.56949857 32.3535,5.8545 C32.4405004,6.13950142 32.484,6.44699835 32.484,6.777 C32.484,7.10700165 32.4405004,7.41449857 32.3535,7.6995 C32.2664996,7.98450142 32.1360009,8.23349894 31.962,8.4465 C31.7879991,8.65950107 31.5735013,8.82749938 31.3185,8.9505 C31.0634987,9.07350062 30.7710017,9.135 30.441,9.135 Z M30.459,8.55 C30.663001,8.55 30.8429992,8.50500045 30.999,8.415 C31.1550008,8.32499955 31.2839995,8.20050079 31.386,8.0415 C31.4880005,7.88249921 31.5659997,7.69500108 31.62,7.479 C31.6740003,7.26299892 31.701,7.02900126 31.701,6.777 C31.701,6.52499874 31.6740003,6.29250106 31.62,6.0795 C31.5659997,5.86649893 31.4850005,5.68200078 31.377,5.526 C31.2689995,5.36999922 31.1370008,5.24850043 30.981,5.1615 C30.8249992,5.07449956 30.645001,5.031 30.441,5.031 C30.230999,5.031 30.0480008,5.07449956 29.892,5.1615 C29.7359992,5.24850043 29.6070005,5.36999922 29.505,5.526 C29.4029995,5.68200078 29.3250003,5.86649893 29.271,6.0795 C29.2169997,6.29250106 29.19,6.52499874 29.19,6.777 C29.19,7.02900126 29.2169997,7.26299892 29.271,7.479 C29.3250003,7.69500108 29.4044995,7.88249921 29.5095,8.0415 C29.6145005,8.20050079 29.7464992,8.32499955 29.9055,8.415 C30.0645008,8.50500045 30.248999,8.55 30.459,8.55 Z M33.438,4.572 L34.086,4.572 L34.167,5.454 C34.2810006,5.18399865 34.4624988,4.948501 34.7115,4.7475 C34.9605012,4.54649899 35.2679982,4.446 35.634,4.446 C36.0960023,4.446 36.4364989,4.59299853 36.6555,4.887 C36.8745011,5.18100147 36.984,5.59199736 36.984,6.12 L36.984,9 L36.237,9 L36.237,6.273 C36.237,5.87099799 36.1560008,5.57550094 35.994,5.3865 C35.8319992,5.19749905 35.6130014,5.103 35.337,5.103 C35.0069984,5.103 34.7325011,5.23799865 34.5135,5.508 C34.2944989,5.77800135 34.185,6.15899754 34.185,6.651 L34.185,9 L33.438,9 L33.438,4.572 Z M38.505,5.085 L37.749,5.085 L37.749,4.572 L37.911,4.572 C38.0970009,4.572 38.2424995,4.55250019 38.3475,4.5135 C38.4525005,4.4744998 38.5319997,4.4145004 38.586,4.3335 C38.6400003,4.25249959 38.6789999,4.14600066 38.703,4.014 C38.7270001,3.88199934 38.7479999,3.72000096 38.766,3.528 L38.784,3.366 L39.252,3.366 L39.252,4.572 L40.206,4.572 L40.206,5.085 L39.252,5.085 L39.252,7.839 C39.252,8.09100126 39.2894996,8.27249945 39.3645,8.3835 C39.4395004,8.49450056 39.578999,8.55 39.783,8.55 C39.9450008,8.55 40.0949993,8.51400036 40.233,8.442 L40.314,8.982 C40.0859989,9.08400051 39.8340014,9.135 39.558,9.135 C39.3419989,9.135 39.1665007,9.1050003 39.0315,9.045 C38.8964993,8.9849997 38.7900004,8.90400051 38.712,8.802 C38.6339996,8.69999949 38.5800002,8.57700072 38.55,8.433 C38.5199999,8.28899928 38.505,8.13300084 38.505,7.965 L38.505,5.085 Z M41.106,2.646 L41.853,2.646 L41.853,5.445 C41.9070003,5.31299934 41.9759996,5.1870006 42.06,5.067 C42.1440004,4.9469994 42.2459994,4.84050046 42.366,4.7475 C42.4860006,4.65449953 42.6239992,4.58100027 42.78,4.527 C42.9360008,4.47299973 43.109999,4.446 43.302,4.446 C43.7640023,4.446 44.1044989,4.59749848 44.3235,4.9005 C44.5425011,5.20350151 44.652,5.61299742 44.652,6.129 L44.652,9 L43.905,9 L43.905,6.246 C43.905,5.86799811 43.8270008,5.58450095 43.671,5.3955 C43.5149992,5.20649906 43.2930014,5.112 43.005,5.112 C42.8369992,5.112 42.6825007,5.14799964 42.5415,5.22 C42.4004993,5.29200036 42.2790005,5.39399934 42.177,5.526 C42.0749995,5.65800066 41.9955003,5.81699907 41.9385,6.003 C41.8814997,6.18900093 41.853,6.39299889 41.853,6.615 L41.853,9 L41.106,9 L41.106,2.646 Z M45.786,2.646 L46.533,2.646 L46.533,9 L45.786,9 L45.786,2.646 Z M47.586,9.945 C47.6520003,9.96900012 47.7269996,9.98999991 47.811,10.008 C47.8950004,10.0260001 47.9819995,10.035 48.072,10.035 C48.1680005,10.035 48.2504997,10.0215001 48.3195,9.9945 C48.3885003,9.96749986 48.4514997,9.91800036 48.5085,9.846 C48.5655003,9.77399964 48.6194997,9.6780006 48.6705,9.558 C48.7215003,9.4379994 48.7769997,9.28200096 48.837,9.09 L47.334,4.572 L48.144,4.572 L49.224,8.235 L50.295,4.572 L51.105,4.572 L49.746,8.649 C49.6319994,8.99700174 49.5285005,9.29399877 49.4355,9.54 C49.3424995,9.78600123 49.2390006,9.9884992 49.125,10.1475 C49.0109994,10.3065008 48.8715008,10.4234996 48.7065,10.4985 C48.5414992,10.5735004 48.3300013,10.611 48.072,10.611 C47.9699995,10.611 47.8605006,10.6065 47.7435,10.5975 C47.6264994,10.5885 47.5350003,10.5720001 47.469,10.548 L47.586,9.945 Z M53.94,4.572 L54.588,4.572 L54.66,5.562 C54.7860006,5.23799838 54.9869986,4.97100105 55.263,4.761 C55.5390014,4.55099895 55.8659981,4.446 56.244,4.446 L56.244,5.238 C56.1599996,5.21999991 56.0670005,5.211 55.965,5.211 C55.8149992,5.211 55.6650008,5.23799973 55.515,5.292 C55.3649992,5.34600027 55.2285006,5.4329994 55.1055,5.553 C54.9824994,5.6730006 54.8820004,5.82749905 54.804,6.0165 C54.7259996,6.20550094 54.687,6.43499865 54.687,6.705 L54.687,9 L53.94,9 L53.94,4.572 Z M57.549,6.957 C57.5790001,7.46700255 57.7094988,7.8614986 57.9405,8.1405 C58.1715012,8.4195014 58.4939979,8.559 58.908,8.559 C59.4300026,8.559 59.8229987,8.31300246 60.087,7.821 L60.654,8.136 C60.4799991,8.43000147 60.2490014,8.66999907 59.961,8.856 C59.6729986,9.04200093 59.3100022,9.135 58.872,9.135 C58.5239983,9.135 58.2195013,9.0750006 57.9585,8.955 C57.6974987,8.8349994 57.4800009,8.67000105 57.306,8.46 C57.1319991,8.24999895 57.0015004,8.00400141 56.9145,7.722 C56.8274996,7.43999859 56.784,7.13700162 56.784,6.813 C56.784,6.49499841 56.8259996,6.19200144 56.91,5.904 C56.9940004,5.61599856 57.1214991,5.36400108 57.2925,5.148 C57.4635009,4.93199892 57.6734988,4.76100063 57.9225,4.635 C58.1715012,4.50899937 58.4639983,4.446 58.8,4.446 C59.1240016,4.446 59.4059988,4.50749938 59.646,4.6305 C59.8860012,4.75350062 60.0854992,4.91849896 60.2445,5.1255 C60.4035008,5.33250103 60.5234996,5.57249864 60.6045,5.8455 C60.6855004,6.11850137 60.726,6.40799847 60.726,6.714 C60.726,6.78000033 60.7245,6.83099982 60.7215,6.867 C60.7185,6.90300018 60.717,6.93299988 60.717,6.957 L57.549,6.957 Z M58.791,5.013 C58.4129981,5.013 58.120501,5.14799865 57.9135,5.418 C57.706499,5.68800135 57.5880002,6.05099772 57.558,6.507 L59.961,6.507 C59.961,6.32099907 59.9400002,6.13950089 59.898,5.9625 C59.8559998,5.78549911 59.7870005,5.6265007 59.691,5.4855 C59.5949995,5.34449929 59.4735007,5.23050043 59.3265,5.1435 C59.1794993,5.05649956 59.001001,5.013 58.791,5.013 Z M61.635,4.572 L62.382,4.572 L62.382,5.427 C62.4360003,5.30099937 62.5049996,5.1780006 62.589,5.058 C62.6730004,4.9379994 62.7734994,4.83300045 62.8905,4.743 C63.0075006,4.65299955 63.1439992,4.58100027 63.3,4.527 C63.4560008,4.47299973 63.632999,4.446 63.831,4.446 C64.1190014,4.446 64.3694989,4.5059994 64.5825,4.626 C64.7955011,4.7460006 64.9709993,4.91099895 65.109,5.121 C65.2470007,5.33100105 65.3504997,5.5754986 65.4195,5.8545 C65.4885003,6.13350139 65.523,6.43499838 65.523,6.759 C65.523,7.14300192 65.4780005,7.48199853 65.388,7.776 C65.2979996,8.07000147 65.1720008,8.31599901 65.01,8.514 C64.8479992,8.71200099 64.6590011,8.86199949 64.443,8.964 C64.2269989,9.06600051 63.9930013,9.117 63.741,9.117 C63.4109984,9.117 63.1275012,9.03600081 62.8905,8.874 C62.6534988,8.71199919 62.4840005,8.5110012 62.382,8.271 L62.382,10.557 L61.635,10.557 L61.635,4.572 Z M62.382,6.813 C62.382,6.93900063 62.3865,7.05449948 62.3955,7.1595 C62.4045,7.26450052 62.4149999,7.35299964 62.427,7.425 C62.4510001,7.56900072 62.4959997,7.70699934 62.562,7.839 C62.6280003,7.97100066 62.7089995,8.0864995 62.805,8.1855 C62.9010005,8.28450049 63.0134994,8.3639997 63.1425,8.424 C63.2715006,8.4840003 63.4139992,8.514 63.57,8.514 C63.774001,8.514 63.9494993,8.46600048 64.0965,8.37 C64.2435007,8.27399952 64.3649995,8.14500081 64.461,7.983 C64.5570005,7.82099919 64.6274998,7.63650104 64.6725,7.4295 C64.7175002,7.22249896 64.74,7.00800111 64.74,6.786 C64.74,6.56399889 64.7190002,6.34950103 64.677,6.1425 C64.6349998,5.93549896 64.5675005,5.75250079 64.4745,5.5935 C64.3814995,5.4344992 64.2600008,5.30700048 64.11,5.211 C63.9599993,5.11499952 63.7800011,5.067 63.57,5.067 C63.4079992,5.067 63.2595007,5.0969997 63.1245,5.157 C62.9894993,5.2170003 62.8740005,5.29799949 62.778,5.4 C62.6819995,5.50200051 62.6025003,5.61899934 62.5395,5.751 C62.4764997,5.88300066 62.4360001,6.02099928 62.418,6.165 C62.4059999,6.2250003 62.397,6.30749948 62.391,6.4125 C62.385,6.51750052 62.382,6.63899931 62.382,6.777 L62.382,6.813 Z M68.313,9.135 C67.9769983,9.135 67.6815013,9.07350062 67.4265,8.9505 C67.1714987,8.82749938 66.9585009,8.65950107 66.7875,8.4465 C66.6164991,8.23349894 66.4890004,7.98450142 66.405,7.6995 C66.3209996,7.41449857 66.279,7.10700165 66.279,6.777 C66.279,6.44699835 66.3224996,6.14100141 66.4095,5.859 C66.4965004,5.57699859 66.6254991,5.33100105 66.7965,5.121 C66.9675009,4.91099895 67.1804987,4.7460006 67.4355,4.626 C67.6905013,4.5059994 67.9829984,4.446 68.313,4.446 C68.6430017,4.446 68.9354987,4.5059994 69.1905,4.626 C69.4455013,4.7460006 69.6599991,4.90949896 69.834,5.1165 C70.0080009,5.32350103 70.1384996,5.56949857 70.2255,5.8545 C70.3125004,6.13950142 70.356,6.44699835 70.356,6.777 C70.356,7.10700165 70.3125004,7.41449857 70.2255,7.6995 C70.1384996,7.98450142 70.0080009,8.23349894 69.834,8.4465 C69.6599991,8.65950107 69.4455013,8.82749938 69.1905,8.9505 C68.9354987,9.07350062 68.6430017,9.135 68.313,9.135 Z M68.331,8.55 C68.535001,8.55 68.7149992,8.50500045 68.871,8.415 C69.0270008,8.32499955 69.1559995,8.20050079 69.258,8.0415 C69.3600005,7.88249921 69.4379997,7.69500108 69.492,7.479 C69.5460003,7.26299892 69.573,7.02900126 69.573,6.777 C69.573,6.52499874 69.5460003,6.29250106 69.492,6.0795 C69.4379997,5.86649893 69.3570005,5.68200078 69.249,5.526 C69.1409995,5.36999922 69.0090008,5.24850043 68.853,5.1615 C68.6969992,5.07449956 68.517001,5.031 68.313,5.031 C68.102999,5.031 67.9200008,5.07449956 67.764,5.1615 C67.6079992,5.24850043 67.4790005,5.36999922 67.377,5.526 C67.2749995,5.68200078 67.1970003,5.86649893 67.143,6.0795 C67.0889997,6.29250106 67.062,6.52499874 67.062,6.777 C67.062,7.02900126 67.0889997,7.26299892 67.143,7.479 C67.1970003,7.69500108 67.2764995,7.88249921 67.3815,8.0415 C67.4865005,8.20050079 67.6184992,8.32499955 67.7775,8.415 C67.9365008,8.50500045 68.120999,8.55 68.331,8.55 Z M71.31,4.572 L71.958,4.572 L72.03,5.562 C72.1560006,5.23799838 72.3569986,4.97100105 72.633,4.761 C72.9090014,4.55099895 73.2359981,4.446 73.614,4.446 L73.614,5.238 C73.5299996,5.21999991 73.4370005,5.211 73.335,5.211 C73.1849993,5.211 73.0350008,5.23799973 72.885,5.292 C72.7349993,5.34600027 72.5985006,5.4329994 72.4755,5.553 C72.3524994,5.6730006 72.2520004,5.82749905 72.174,6.0165 C72.0959996,6.20550094 72.057,6.43499865 72.057,6.705 L72.057,9 L71.31,9 L71.31,4.572 Z M74.739,5.085 L73.983,5.085 L73.983,4.572 L74.145,4.572 C74.3310009,4.572 74.4764995,4.55250019 74.5815,4.5135 C74.6865005,4.4744998 74.7659997,4.4145004 74.82,4.3335 C74.8740003,4.25249959 74.9129999,4.14600066 74.937,4.014 C74.9610001,3.88199934 74.9819999,3.72000096 75,3.528 L75.018,3.366 L75.486,3.366 L75.486,4.572 L76.44,4.572 L76.44,5.085 L75.486,5.085 L75.486,7.839 C75.486,8.09100126 75.5234996,8.27249945 75.5985,8.3835 C75.6735004,8.49450056 75.812999,8.55 76.017,8.55 C76.1790008,8.55 76.3289993,8.51400036 76.467,8.442 L76.548,8.982 C76.3199989,9.08400051 76.0680014,9.135 75.792,9.135 C75.5759989,9.135 75.4005007,9.1050003 75.2655,9.045 C75.1304993,8.9849997 75.0240004,8.90400051 74.946,8.802 C74.8679996,8.69999949 74.8140002,8.57700072 74.784,8.433 C74.7539999,8.28899928 74.739,8.13300084 74.739,7.965 L74.739,5.085 Z M77.421,7.911 C77.5710008,8.10300096 77.7644988,8.26199937 78.0015,8.388 C78.2385012,8.51400063 78.4979986,8.577 78.78,8.577 C79.0320013,8.577 79.2509991,8.5170006 79.437,8.397 C79.6230009,8.2769994 79.716,8.0970012 79.716,7.857 C79.716,7.67099907 79.6545006,7.52550052 79.5315,7.4205 C79.4084994,7.31549948 79.2555009,7.22700036 79.0725,7.155 C78.8894991,7.08299964 78.6900011,7.0170003 78.474,6.957 C78.2579989,6.8969997 78.0585009,6.81900048 77.8755,6.723 C77.6924991,6.62699952 77.5395006,6.50100078 77.4165,6.345 C77.2934994,6.18899922 77.232,5.97600135 77.232,5.706 C77.232,5.48399889 77.2769996,5.29350079 77.367,5.1345 C77.4570005,4.97549921 77.5754993,4.84500051 77.7225,4.743 C77.8695007,4.64099949 78.038999,4.56600024 78.231,4.518 C78.423001,4.46999976 78.623999,4.446 78.834,4.446 C79.4580031,4.446 79.9769979,4.6259982 80.391,4.986 L80.013,5.49 C79.8809993,5.35199931 79.7055011,5.23650046 79.4865,5.1435 C79.2674989,5.05049954 79.0410012,5.004 78.807,5.004 C78.7049995,5.004 78.6045005,5.01599988 78.5055,5.04 C78.4064995,5.06400012 78.3195004,5.10149974 78.2445,5.1525 C78.1694996,5.20350025 78.1095002,5.26799961 78.0645,5.346 C78.0194998,5.42400039 77.997,5.51999943 77.997,5.634 C77.997,5.80800087 78.0584994,5.94299952 78.1815,6.039 C78.3045006,6.13500048 78.4574991,6.21749966 78.6405,6.2865 C78.8235009,6.35550034 79.0214989,6.42149968 79.2345,6.4845 C79.4475011,6.54750031 79.6454991,6.6284995 79.8285,6.7275 C80.0115009,6.82650049 80.1644994,6.95699919 80.2875,7.119 C80.4105006,7.28100081 80.472,7.49699865 80.472,7.767 C80.472,7.99500114 80.4255005,8.19449914 80.3325,8.3655 C80.2394995,8.53650085 80.1165008,8.67899943 79.9635,8.793 C79.8104992,8.90700057 79.633501,8.99249972 79.4325,9.0495 C79.231499,9.10650028 79.0230011,9.135 78.807,9.135 C78.0629963,9.135 77.4720022,8.8950024 77.034,8.415 L77.421,7.911 Z" id="Monthly-reports" fill="#D2D6D9"></path>
                    <g id="pie-chart" fill-rule="nonzero" fill="#D1D6D9">
                        <path d="M5.33307408,6.41838864 L9.12463543,10.3559265 C8.63387128,10.8752776 8.06092423,11.2791277 7.40579428,11.5674766 C6.75066433,11.8558255 6.0597576,12 5.33307408,12 C4.3655454,12 3.47319982,11.7524399 2.65603733,11.2573198 C1.83887485,10.7621996 1.19191134,10.0903278 0.715146801,9.24170425 C0.238382267,8.3930807 -9.21048332e-16,7.46637948 0,6.46160059 C9.21048332e-16,5.4568217 0.238382267,4.53012048 0.715146801,3.68149694 C1.19191134,2.83287339 1.83887485,2.16100155 2.65603733,1.6658814 C3.47319982,1.17076126 4.3655454,0.923201185 5.33307408,0.923201185 L5.33307408,6.41838864 Z M6.63192689,6.46160059 L12,6.46160059 C12,7.21653093 11.8611705,7.93403783 11.5835116,8.61412129 C11.3058526,9.29420475 10.9169745,9.88921047 10.4168773,10.3991385 L6.63192689,6.46160059 Z M11.5551235,5.53839941 L6.22204939,5.53839941 L6.22204939,0 C7.18957807,0 8.08192365,0.247560073 8.89908614,0.742680218 C9.71624862,1.23780036 10.3632121,1.90967221 10.8399767,2.75829575 C11.3167412,3.6069193 11.5551235,4.53362052 11.5551235,5.53839941 L11.5551235,5.53839941 Z" id="Shape"></path>
                    </g>
                </g>
                <g id="Group-3" transform="translate(23.000000, 127.000000)">
                    <path d="M21.63,2.646 L22.44,2.646 L22.44,5.391 L25.545,5.391 L25.545,2.646 L26.355,2.646 L26.355,9 L25.545,9 L25.545,6.066 L22.44,6.066 L22.44,9 L21.63,9 L21.63,2.646 Z M29.397,9.135 C29.0609983,9.135 28.7655013,9.07350062 28.5105,8.9505 C28.2554987,8.82749938 28.0425009,8.65950107 27.8715,8.4465 C27.7004991,8.23349894 27.5730004,7.98450142 27.489,7.6995 C27.4049996,7.41449857 27.363,7.10700165 27.363,6.777 C27.363,6.44699835 27.4064996,6.14100141 27.4935,5.859 C27.5805004,5.57699859 27.7094991,5.33100105 27.8805,5.121 C28.0515009,4.91099895 28.2644987,4.7460006 28.5195,4.626 C28.7745013,4.5059994 29.0669983,4.446 29.397,4.446 C29.7270017,4.446 30.0194987,4.5059994 30.2745,4.626 C30.5295013,4.7460006 30.7439991,4.90949896 30.918,5.1165 C31.0920009,5.32350103 31.2224996,5.56949857 31.3095,5.8545 C31.3965004,6.13950142 31.44,6.44699835 31.44,6.777 C31.44,7.10700165 31.3965004,7.41449857 31.3095,7.6995 C31.2224996,7.98450142 31.0920009,8.23349894 30.918,8.4465 C30.7439991,8.65950107 30.5295013,8.82749938 30.2745,8.9505 C30.0194987,9.07350062 29.7270017,9.135 29.397,9.135 Z M29.415,8.55 C29.619001,8.55 29.7989992,8.50500045 29.955,8.415 C30.1110008,8.32499955 30.2399995,8.20050079 30.342,8.0415 C30.4440005,7.88249921 30.5219997,7.69500108 30.576,7.479 C30.6300003,7.26299892 30.657,7.02900126 30.657,6.777 C30.657,6.52499874 30.6300003,6.29250106 30.576,6.0795 C30.5219997,5.86649893 30.4410005,5.68200078 30.333,5.526 C30.2249995,5.36999922 30.0930008,5.24850043 29.937,5.1615 C29.7809992,5.07449956 29.601001,5.031 29.397,5.031 C29.186999,5.031 29.0040008,5.07449956 28.848,5.1615 C28.6919992,5.24850043 28.5630005,5.36999922 28.461,5.526 C28.3589995,5.68200078 28.2810003,5.86649893 28.227,6.0795 C28.1729997,6.29250106 28.146,6.52499874 28.146,6.777 C28.146,7.02900126 28.1729997,7.26299892 28.227,7.479 C28.2810003,7.69500108 28.3604995,7.88249921 28.4655,8.0415 C28.5705005,8.20050079 28.7024992,8.32499955 28.8615,8.415 C29.0205008,8.50500045 29.204999,8.55 29.415,8.55 Z M32.394,4.572 L33.042,4.572 L33.123,5.436 C33.2310005,5.12999847 33.3989989,4.88850088 33.627,4.7115 C33.8550011,4.53449911 34.1339984,4.446 34.464,4.446 C34.8120017,4.446 35.084999,4.54499901 35.283,4.743 C35.481001,4.94100099 35.6069997,5.18099859 35.661,5.463 C35.7150003,5.32499931 35.7824996,5.19450061 35.8635,5.0715 C35.9445004,4.94849938 36.0419994,4.84050046 36.156,4.7475 C36.2700006,4.65449953 36.4019993,4.58100027 36.552,4.527 C36.7020008,4.47299973 36.872999,4.446 37.065,4.446 C37.3170013,4.446 37.5254992,4.48949956 37.6905,4.5765 C37.8555008,4.66350043 37.9874995,4.78199925 38.0865,4.932 C38.1855005,5.08200075 38.2559998,5.25749899 38.298,5.4585 C38.3400002,5.659501 38.361,5.87099889 38.361,6.093 L38.361,9 L37.614,9 L37.614,6.282 C37.614,5.88599802 37.5435007,5.59050097 37.4025,5.3955 C37.2614993,5.20049902 37.0560014,5.103 36.786,5.103 C36.4919985,5.103 36.246001,5.23349869 36.048,5.4945 C35.849999,5.7555013 35.751,6.12899757 35.751,6.615 L35.751,9 L35.004,9 L35.004,6.318 C35.004,5.90399793 34.9320007,5.59800099 34.788,5.4 C34.6439993,5.20199901 34.4430013,5.103 34.185,5.103 C33.8969986,5.103 33.651001,5.23649866 33.447,5.5035 C33.242999,5.77050133 33.141,6.15599748 33.141,6.66 L33.141,9 L32.394,9 L32.394,4.572 Z M40.062,6.957 C40.0920002,7.46700255 40.2224988,7.8614986 40.4535,8.1405 C40.6845012,8.4195014 41.0069979,8.559 41.421,8.559 C41.9430026,8.559 42.3359987,8.31300246 42.6,7.821 L43.167,8.136 C42.9929991,8.43000147 42.7620014,8.66999907 42.474,8.856 C42.1859986,9.04200093 41.8230022,9.135 41.385,9.135 C41.0369983,9.135 40.7325013,9.0750006 40.4715,8.955 C40.2104987,8.8349994 39.9930009,8.67000105 39.819,8.46 C39.6449991,8.24999895 39.5145004,8.00400141 39.4275,7.722 C39.3404996,7.43999859 39.297,7.13700162 39.297,6.813 C39.297,6.49499841 39.3389996,6.19200144 39.423,5.904 C39.5070004,5.61599856 39.6344991,5.36400108 39.8055,5.148 C39.9765009,4.93199892 40.1864988,4.76100063 40.4355,4.635 C40.6845012,4.50899937 40.9769983,4.446 41.313,4.446 C41.6370016,4.446 41.9189988,4.50749938 42.159,4.6305 C42.3990012,4.75350062 42.5984992,4.91849896 42.7575,5.1255 C42.9165008,5.33250103 43.0364996,5.57249864 43.1175,5.8455 C43.1985004,6.11850137 43.239,6.40799847 43.239,6.714 C43.239,6.78000033 43.2375,6.83099982 43.2345,6.867 C43.2315,6.90300018 43.23,6.93299988 43.23,6.957 L40.062,6.957 Z M41.304,5.013 C40.9259981,5.013 40.633501,5.14799865 40.4265,5.418 C40.219499,5.68800135 40.1010002,6.05099772 40.071,6.507 L42.474,6.507 C42.474,6.32099907 42.4530002,6.13950088 42.411,5.9625 C42.3689998,5.78549911 42.3000005,5.6265007 42.204,5.4855 C42.1079995,5.34449929 41.9865007,5.23050043 41.8395,5.1435 C41.6924993,5.05649956 41.5140011,5.013 41.304,5.013 Z" id="Home" fill="#D2D6D9"></path>
                    <g id="home-(1)" fill-rule="nonzero" fill="#D1D6D9">
                        <path d="M12.0019525,6.33592237 L12.0019525,10.451199 C12.0019525,10.5997222 11.9470026,10.7283996 11.8371027,10.8372313 C11.7272027,10.9460629 11.596879,11.0003187 11.4461313,10.9999986 L8.11168991,10.9999986 L8.11168991,7.70768125 L5.8888911,7.70768125 L5.8888911,10.9999986 L2.55444974,10.9999986 C2.40402625,10.9999986 2.27370246,10.9457428 2.16347835,10.8372313 C2.05325424,10.7287197 1.99830428,10.6000423 1.99862847,10.451199 L1.99862847,6.33592237 C1.99862847,6.33016069 2.00008732,6.32151818 2.00300501,6.30999483 C2.00592271,6.29847148 2.00738156,6.28982896 2.00738156,6.28406729 L7.00053365,2.22016558 L11.9936857,6.28406729 C11.9995211,6.29559064 12.0024388,6.31271562 12.0024388,6.33544223 L12.0019525,6.33592237 Z M13.9383308,5.74439036 L13.4000157,6.37865479 C13.3536567,6.43018978 13.2928714,6.4615589 13.2176596,6.47276216 L13.1914003,6.47276216 C13.1161886,6.47276216 13.0554033,6.45275634 13.0090443,6.41274471 L7.00004737,1.46538611 L0.991050447,6.41274471 C0.921674096,6.45851802 0.852135652,6.47852383 0.782435113,6.47276216 C0.707223369,6.46123881 0.646438015,6.42986968 0.600079052,6.37865479 L0.0617639601,5.74439036 C0.015404997,5.6870937 -0.00485678751,5.61987415 0.000978606439,5.54273172 C0.00681400039,5.46558929 0.0385844786,5.40413142 0.096290041,5.35835811 L6.33967528,0.222784782 C6.52478695,0.0742615939 6.74474888,0 6.99956108,0 C7.25437329,0 7.47433522,0.0742615939 7.65944688,0.222784782 L9.77818117,1.9719334 L9.77818117,0.30008726 C9.77818117,0.22006399 9.80427835,0.154284863 9.85647271,0.102749878 C9.90866706,0.0512148923 9.97528781,0.0254473996 10.0563349,0.0254473996 L11.7237988,0.0254473996 C11.8048459,0.0254473996 11.8714667,0.0512148923 11.923661,0.102749878 C11.9758554,0.154284863 12.0019525,0.22006399 12.0019525,0.30008726 L12.0019525,3.7983845 L13.9038047,5.35883825 C13.9618344,5.40461156 13.9936049,5.46606943 13.9991161,5.54321186 C14.0046273,5.62035429 13.9843655,5.68757384 13.9383308,5.7448705 L13.9383308,5.74439036 Z" id="Shape"></path>
                    </g>
                </g>
            </g>
        </g>
    </g>
</svg>