<?xml version="1.0" encoding="UTF-8"?>
<svg width="338px" height="325px" viewBox="0 0 338 325" version="1.1" xmlns="http://www.w3.org/2000/svg" xmlns:xlink="http://www.w3.org/1999/xlink">
    <!-- Generator: Sketch 47 (45396) - http://www.bohemiancoding.com/sketch -->
    <title>Do3</title>
    <desc>Created with Sketch.</desc>
    <defs>
        <rect id="path-1" x="1" y="0" width="330" height="317"></rect>
        <filter x="-2.1%" y="-1.6%" width="104.2%" height="104.4%" filterUnits="objectBoundingBox" id="filter-2">
            <feOffset dx="0" dy="2" in="SourceAlpha" result="shadowOffsetOuter1"></feOffset>
            <feGaussianBlur stdDeviation="2" in="shadowOffsetOuter1" result="shadowBlurOuter1"></feGaussianBlur>
            <feColorMatrix values="0 0 0 0 0   0 0 0 0 0   0 0 0 0 0  0 0 0 0.5 0" type="matrix" in="shadowBlurOuter1"></feColorMatrix>
        </filter>
    </defs>
    <g id="Page-1" stroke="none" stroke-width="1" fill="none" fill-rule="evenodd">
        <g id="Buttons-Usage-extra-large-1200" transform="translate(-341.000000, -2561.000000)">
            <g id="Do3" transform="translate(344.000000, 2563.000000)">
                <g id="bg-copy-2">
                    <use fill="black" fill-opacity="1" filter="url(#filter-2)" xlink:href="#path-1"></use>
                    <use fill="#FFFFFF" fill-rule="evenodd" xlink:href="#path-1"></use>
                </g>
                <polygon id="bg-copy" fill="#495C6A" points="0 0 43.9325051 0 43.9325051 61.5678661 43.9325051 316.936797 0 316.936797"></polygon>
                <g id="Sidebar-top" fill="#3E4F5B">
                    <rect id="Profile-bg-Copy-2" x="0" y="0" width="44" height="35"></rect>
                </g>
                <path d="M25.0223214,11.7366071 C25.1041671,11.8184528 25.1450893,11.9125739 25.1450893,12.0189732 C25.1450893,12.1253726 25.1041671,12.2194936 25.0223214,12.3013393 L20.1975446,17.1261161 L25.0223214,21.9508929 C25.1041671,22.0327385 25.1450893,22.1268596 25.1450893,22.2332589 C25.1450893,22.3396583 25.1041671,22.4337794 25.0223214,22.515625 L24.4084821,23.1294643 C24.3266365,23.2113099 24.2325154,23.2522321 24.1261161,23.2522321 C24.0197167,23.2522321 23.9255956,23.2113099 23.84375,23.1294643 L18.1227679,17.4084821 C18.0409222,17.3266365 18,17.2325154 18,17.1261161 C18,17.0197167 18.0409222,16.9255956 18.1227679,16.84375 L23.84375,11.1227679 C23.9255956,11.0409222 24.0197167,11 24.1261161,11 C24.2325154,11 24.3266365,11.0409222 24.4084821,11.1227679 L25.0223214,11.7366071 Z" id="arrow" fill="#D2D6D9" transform="translate(21.572545, 17.126116) rotate(180.000000) translate(-21.572545, -17.126116) "></path>
                <g id="home-(1)" transform="translate(14.000000, 49.000000)" fill-rule="nonzero" fill="#D2D6D9">
                    <path d="M14.5737995,7.48790825 L14.5737995,12.351417 C14.5737995,12.5269444 14.5070746,12.6790177 14.3736247,12.8076369 C14.2401748,12.9362562 14.0819244,13.0003766 13.8988737,12.9999983 L9.84990918,12.9999983 L9.84990918,9.10907784 L7.15079634,9.10907784 L7.15079634,12.9999983 L3.10183183,12.9999983 C2.91917474,12.9999983 2.76092441,12.9358779 2.62708085,12.8076369 C2.49323729,12.679396 2.42651234,12.5273227 2.426906,12.351417 L2.426906,7.48790825 C2.426906,7.481099 2.42867746,7.47088512 2.43222037,7.45726661 C2.43576329,7.44364811 2.43753475,7.43343423 2.43753475,7.42662498 L8.500648,2.62383205 L14.5637613,7.42662498 C14.5708471,7.44024348 14.57439,7.46048209 14.57439,7.48734081 L14.5737995,7.48790825 Z M16.9251159,6.78882497 L16.2714476,7.53841021 C16.2151546,7.59931519 16.1413438,7.63638779 16.0500153,7.649628 L16.018129,7.649628 C15.9268004,7.649628 15.8529897,7.62598477 15.7966966,7.57869829 L8.50005752,1.73181994 L1.2034184,7.57869829 C1.11917569,7.63279402 1.03473615,7.65643726 0.95009978,7.649628 C0.858771233,7.6360095 0.784960447,7.5989369 0.72866742,7.53841021 L0.0749990944,6.78882497 C0.0187060678,6.72111074 -0.00589752769,6.64166945 0.00118830782,6.55050113 C0.00827414333,6.4593328 0.0468525811,6.38670077 0.116923621,6.33260504 L7.69817713,0.263291106 C7.92295558,0.0877637018 8.19005221,0 8.49946703,0 C8.80888185,0 9.07597848,0.0877637018 9.30075693,0.263291106 L11.8735057,2.33046675 L11.8735057,0.35464858 C11.8735057,0.260075625 11.9051951,0.182336656 11.968574,0.121431674 C12.0319529,0.0605266909 12.1128495,0.0300741996 12.2112639,0.0300741996 L14.2360414,0.0300741996 C14.3344557,0.0300741996 14.4153524,0.0605266909 14.4787312,0.121431674 C14.5421101,0.182336656 14.5737995,0.260075625 14.5737995,0.35464858 L14.5737995,4.48899986 L16.8831914,6.33317248 C16.9536561,6.38726821 16.9922345,6.45990024 16.9989267,6.55106856 C17.0056189,6.64223689 16.9810153,6.72167817 16.9251159,6.78939241 L16.9251159,6.78882497 Z" id="Shape"></path>
                </g>
                <g id="pie-chart" transform="translate(13.000000, 149.000000)" fill-rule="nonzero" fill="#D2D6D9">
                    <path d="M7.99961112,9.09271724 L13.6869531,14.6708959 C12.9508069,15.4066433 12.0913864,15.9787642 11.1086914,16.3872585 C10.1259965,16.7957528 9.0896364,17 7.99961112,17 C6.5483181,17 5.20979973,16.6492899 3.984056,15.9478697 C2.75831227,15.2464495 1.787867,14.294631 1.0727202,13.0924144 C0.357573401,11.8901977 -1.3815725e-15,10.5773709 0,9.15393417 C1.3815725e-15,7.73049741 0.357573401,6.41767068 1.0727202,5.21545399 C1.787867,4.01323731 2.75831227,3.06141886 3.984056,2.35999865 C5.20979973,1.65857845 6.5483181,1.30786834 7.99961112,1.30786834 L7.99961112,9.09271724 Z M9.94789034,9.15393417 L18,9.15393417 C18,10.2234188 17.7917558,11.2398869 17.3752674,12.2033385 C16.9587789,13.1667901 16.3754618,14.0097148 15.625316,14.7321128 L9.94789034,9.15393417 Z M17.3326852,7.84606583 L9.33307408,7.84606583 L9.33307408,0 C10.7843671,0 12.1228855,0.350710103 13.3486292,1.05213031 C14.5743729,1.75355051 15.5448182,2.70536896 16.259965,3.90758565 C16.9751118,5.10980234 17.3326852,6.42262906 17.3326852,7.84606583 L17.3326852,7.84606583 Z" id="Shape"></path>
                </g>
                <g id="shopping-bag" transform="translate(13.000000, 113.000000)" fill-rule="nonzero" fill="#D2D6D9">
                    <path d="M17.6444363,14.1429375 L17.9958388,17.28675 C18.0160796,17.47425 17.962479,17.6416875 17.835037,17.7890625 C17.7079699,17.9296875 17.5473555,18 17.3531939,18 L0.646673897,18 C0.452512282,18 0.291897896,17.9296875 0.164830739,17.7890625 C0.0377635812,17.6416875 -0.0158370191,17.47425 0.00402893766,17.28675 L0.355431474,14.1429375 L17.6444363,14.1429375 Z M16.7105489,5.7155625 L17.5741558,13.5 L0.425711982,13.5 L1.28931886,5.7155625 C1.30955964,5.5546875 1.37984015,5.419125 1.50016038,5.308875 C1.62048061,5.198625 1.76441509,5.1433125 1.93196382,5.1429375 L4.50198141,5.1429375 L4.50198141,6.4288125 C4.50198141,6.7835625 4.62754925,7.0865625 4.87868493,7.3378125 C5.12982061,7.5890625 5.43268274,7.7146875 5.78727133,7.7146875 C6.14185991,7.7146875 6.44472205,7.5890625 6.69585773,7.3378125 C6.94699341,7.0865625 7.07256125,6.7835625 7.07256125,6.4288125 L7.07256125,5.1429375 L10.9278688,5.1429375 L10.9278688,6.4288125 C10.9278688,6.7835625 11.0534366,7.0865625 11.3045723,7.3378125 C11.555708,7.5890625 11.8585701,7.7146875 12.2131587,7.7146875 C12.5677473,7.7146875 12.8706094,7.5890625 13.1217451,7.3378125 C13.3728808,7.0865625 13.4984486,6.7835625 13.4984486,6.4288125 L13.4984486,5.1429375 L16.0684662,5.1429375 C16.2356401,5.1429375 16.3795746,5.19825 16.5002696,5.308875 C16.6209647,5.4195 16.6912452,5.5550625 16.7111111,5.7155625 L16.7105489,5.7155625 Z M12.8552414,3.8570625 L12.8552414,6.42825 C12.8552414,6.60225 12.7917078,6.753 12.6646407,6.8805 C12.5375735,7.008 12.3868921,7.0715625 12.2125964,7.0711875 C12.0383008,7.0708125 11.8876194,7.00725 11.7605522,6.8805 C11.6334851,6.75375 11.5699515,6.603 11.5699515,6.42825 L11.5699515,3.8570625 C11.5699515,3.1471875 11.3190032,2.5411875 10.8171067,2.0390625 C10.3152101,1.5369375 9.70948588,1.285875 8.99993388,1.285875 C8.29038188,1.285875 7.68465761,1.5369375 7.18276108,2.0390625 C6.68086455,2.5411875 6.42991629,3.1471875 6.42991629,3.8570625 L6.42991629,6.42825 C6.42991629,6.60225 6.36638271,6.753 6.23931555,6.8805 C6.11224839,7.008 5.96156699,7.0715625 5.78727133,7.0711875 C5.61297567,7.0708125 5.46229426,7.00725 5.3352271,6.8805 C5.20815995,6.75375 5.14462637,6.603 5.14462637,6.42825 L5.14462637,3.8570625 C5.14462637,2.7924375 5.52114247,1.8834375 6.27417468,1.1300625 C7.02720689,0.3766875 7.93579329,0 8.99993388,0 C10.0640745,0 10.9726609,0.3766875 11.7256931,1.1300625 C12.4787253,1.8834375 12.8552414,2.7924375 12.8552414,3.8570625 L12.8552414,3.8570625 Z" id="Shape"></path>
                </g>
                <g id="group" transform="translate(13.000000, 80.000000)" fill-rule="nonzero" fill="#D2D6D9">
                    <path d="M5.55917867,8 C4.54663711,8.02966667 3.71854401,8.41066667 3.07489938,9.143 L1.81858485,9.143 C1.30618912,9.143 0.874992708,9.0225 0.524995625,8.7815 C0.174998542,8.5405 0,8.18783333 0,7.7235 C0,5.62216667 0.387446771,4.5715 1.16234031,4.5715 C1.19979,4.5715 1.33576387,4.634 1.57026191,4.759 C1.80475996,4.884 2.10943242,5.0105 2.4842793,5.1385 C2.85912617,5.2665 3.23099808,5.3305 3.599895,5.3305 C4.01849151,5.3305 4.43411305,5.262 4.84675961,5.125 C4.81560987,5.34533333 4.800035,5.54183333 4.800035,5.7145 C4.800035,6.54183333 5.05308289,7.30366667 5.55917867,8 L5.55917867,8 Z M15.59972,13.6875 C15.59972,14.4018333 15.3715219,14.9658333 14.9151257,15.3795 C14.4587295,15.7931667 13.8525346,16 13.0965409,16 L4.90293414,16 C4.14659045,16 3.5403955,15.7931667 3.0843493,15.3795 C2.6283031,14.9658333 2.400105,14.4018333 2.399755,13.6875 C2.399755,13.3721667 2.41077991,13.0641667 2.43282973,12.7635 C2.45487954,12.4628333 2.49862918,12.1385 2.56407863,11.7905 C2.62952809,11.4425 2.7123024,11.1195 2.81240156,10.8215 C2.91250073,10.5235 3.04689961,10.2333333 3.2155982,9.951 C3.3842968,9.66866667 3.57802018,9.42766667 3.79676836,9.228 C4.01551654,9.02833333 4.28273931,8.86916667 4.59843668,8.7505 C4.91413405,8.63183333 5.26255615,8.57233333 5.64370297,8.572 C5.70635245,8.572 5.84075133,8.636 6.04689961,8.764 C6.25304789,8.892 6.48124599,9.03483333 6.7314939,9.1925 C6.98174182,9.35016667 7.31616403,9.493 7.73476054,9.621 C8.15335706,9.749 8.57527854,9.813 9.000525,9.813 C9.42577145,9.813 9.84769294,9.749 10.2662894,9.621 C10.684886,9.493 11.0193082,9.35016667 11.2695561,9.1925 C11.519804,9.03483333 11.7480021,8.892 11.9541504,8.764 C12.1602987,8.636 12.2946975,8.572 12.357347,8.572 C12.7384938,8.572 13.0869159,8.6315 13.4026133,8.7505 C13.7183107,8.8695 13.9855335,9.02866667 14.2042816,9.228 C14.4230298,9.42733333 14.6167532,9.66833333 14.7854518,9.951 C14.9541504,10.2336667 15.0885493,10.5238333 15.1886484,10.8215 C15.2887476,11.1191667 15.3715219,11.4421667 15.4369714,11.7905 C15.5024208,12.1388333 15.5461704,12.4631667 15.5682203,12.7635 C15.5902701,13.0638333 15.601295,13.3718333 15.601295,13.6875 L15.59972,13.6875 Z M6.000175,2.2855 C6.000175,2.9165 5.76585195,3.45516667 5.29720586,3.9015 C4.82855976,4.34783333 4.26296448,4.571 3.60042,4.571 C2.93787552,4.571 2.37228023,4.34783333 1.90363414,3.9015 C1.43498804,3.45516667 1.20066499,2.9165 1.20066499,2.2855 C1.20066499,1.6545 1.43498804,1.11583333 1.90363414,0.6695 C2.37228023,0.223166667 2.93787552,0 3.60042,0 C4.26296448,0 4.82855976,0.223166667 5.29720586,0.6695 C5.76585195,1.11583333 6.000175,1.6545 6.000175,2.2855 Z M12.599895,5.7145 C12.599895,6.66083333 12.2483229,7.46883333 11.5451788,8.1385 C10.8420346,8.80816667 9.99364172,9.143 9,9.143 C8.00635828,9.143 7.15796535,8.80816667 6.45482121,8.1385 C5.75167707,7.46883333 5.400105,6.66083333 5.400105,5.7145 C5.400105,4.76816667 5.75167707,3.96016667 6.45482121,3.2905 C7.15796535,2.62083333 8.00635828,2.286 9,2.286 C9.99364172,2.286 10.8420346,2.62083333 11.5451788,3.2905 C12.2483229,3.96016667 12.599895,4.76816667 12.599895,5.7145 Z M18,7.723 C18,8.18733333 17.8250015,8.54 17.4750044,8.781 C17.1250073,9.022 16.6938109,9.1425 16.1814152,9.1425 L14.9251006,9.1425 C14.281456,8.4105 13.4533629,8.0295 12.4408213,7.9995 C12.9469171,7.30316667 13.199965,6.54133333 13.199965,5.714 C13.199965,5.54133333 13.1843901,5.34483333 13.1532404,5.1245 C13.565887,5.2615 13.9815085,5.33 14.400105,5.33 C14.7690019,5.33 15.1408738,5.266 15.5157207,5.138 C15.8905676,5.01 16.19524,4.8835 16.4297381,4.7585 C16.6642361,4.6335 16.80021,4.571 16.8376597,4.571 C17.6125532,4.571 18,5.62166667 18,7.723 Z M16.79986,2.2855 C16.79986,2.9165 16.565537,3.45516667 16.0968909,3.9015 C15.6282448,4.34783333 15.0626495,4.571 14.400105,4.571 C13.7375605,4.571 13.1719652,4.34783333 12.7033191,3.9015 C12.234673,3.45516667 12.00035,2.9165 12.00035,2.2855 C12.00035,1.6545 12.234673,1.11583333 12.7033191,0.6695 C13.1719652,0.223166667 13.7375605,-5.92118946e-16 14.400105,0 C15.0626495,5.92118946e-16 15.6282448,0.223166667 16.0968909,0.6695 C16.565537,1.11583333 16.79986,1.6545 16.79986,2.2855 Z" id="Shape"></path>
                </g>
            </g>
        </g>
    </g>
</svg>