<?xml version="1.0" encoding="UTF-8"?>
<svg width="352px" height="52px" viewBox="0 0 352 52" version="1.1" xmlns="http://www.w3.org/2000/svg" xmlns:xlink="http://www.w3.org/1999/xlink">
    <!-- Generator: Sketch 47 (45396) - http://www.bohemiancoding.com/sketch -->
    <title>Overuse</title>
    <desc>Created with Sketch.</desc>
    <defs>
        <rect id="path-1" x="0" y="0" width="52" height="52" rx="3"></rect>
        <rect id="path-2" x="0" y="0" width="52" height="52" rx="3"></rect>
        <rect id="path-3" x="0" y="0" width="52" height="52" rx="3"></rect>
        <rect id="path-4" x="0" y="0" width="52" height="52" rx="3"></rect>
        <rect id="path-5" x="0" y="0" width="52" height="52" rx="3"></rect>
        <rect id="path-6" x="0" y="0" width="52" height="52" rx="3"></rect>
    </defs>
    <g id="Page-1" stroke="none" stroke-width="1" fill="none" fill-rule="evenodd">
        <g id="Buttons-Usage-extra-large-1200" transform="translate(-764.000000, -1537.000000)">
            <g id="Overuse" transform="translate(764.000000, 1537.000000)">
                <g id="Button-icon-52-Copy-3" transform="translate(120.000000, 0.000000)">
                    <g id="Rectangle-Copy-2">
                        <use fill="#FFFFFF" fill-rule="evenodd" xlink:href="#path-1"></use>
                        <rect stroke="#A9B1B5" stroke-width="1" x="0.5" y="0.5" width="51" height="51" rx="3"></rect>
                    </g>
                    <path d="M18.4821429,36.7678571 L20.1071429,35.1428571 L15.9107143,30.9464286 L14.2857143,32.5714286 L14.2857143,34.4821429 L16.5714286,34.4821429 L16.5714286,36.7678571 L18.4821429,36.7678571 Z M27.8214286,20.1964286 C27.8214286,19.9345225 27.6904775,19.8035714 27.4285714,19.8035714 C27.3095232,19.8035714 27.2083338,19.8452377 27.125,19.9285714 L17.4464286,29.6071429 C17.3630948,29.6904766 17.3214286,29.7916661 17.3214286,29.9107143 C17.3214286,30.1726204 17.4523796,30.3035714 17.7142857,30.3035714 C17.8333339,30.3035714 17.9345234,30.2619052 18.0178571,30.1785714 L27.6964286,20.5 C27.7797623,20.4166663 27.8214286,20.3154768 27.8214286,20.1964286 Z M26.8571429,16.7678571 L34.2857143,24.1964286 L19.4285714,39.0535714 L12,39.0535714 L12,31.625 L26.8571429,16.7678571 Z M39.0535714,18.4821429 C39.0535714,19.1130984 38.8333355,19.6488073 38.3928571,20.0892857 L35.4285714,23.0535714 L28,15.625 L30.9642857,12.6785714 C31.3928593,12.2261882 31.9285682,12 32.5714286,12 C33.2023841,12 33.7440454,12.2261882 34.1964286,12.6785714 L38.3928571,16.8571429 C38.8333355,17.3214309 39.0535714,17.8630921 39.0535714,18.4821429 Z" id="-copy-2" fill="#4C5358"></path>
                </g>
                <g id="Button-icon-52-Copy-9" transform="translate(240.000000, 0.000000)">
                    <g id="Rectangle-Copy-2">
                        <use fill="#FFFFFF" fill-rule="evenodd" xlink:href="#path-2"></use>
                        <rect stroke="#A9B1B5" stroke-width="1" x="0.5" y="0.5" width="51" height="51" rx="3"></rect>
                    </g>
                    <path d="M40.7142857,20.9821429 C40.7142857,21.2440489 40.5595254,21.5297604 40.25,21.8392857 L33.7678571,28.1607143 L35.3035714,37.0892857 C35.3154762,37.1726195 35.3214286,37.2916659 35.3214286,37.4464286 C35.3214286,37.6964298 35.2589292,37.9077372 35.1339286,38.0803571 C35.0089279,38.2529771 34.8273821,38.3392857 34.5892857,38.3392857 C34.3630941,38.3392857 34.1250012,38.2678579 33.875,38.125 L25.8571429,33.9107143 L17.8392857,38.125 C17.5773796,38.2678579 17.3392868,38.3392857 17.125,38.3392857 C16.8749987,38.3392857 16.6875006,38.2529771 16.5625,38.0803571 C16.4374994,37.9077372 16.375,37.6964298 16.375,37.4464286 C16.375,37.3749996 16.3869046,37.2559532 16.4107143,37.0892857 L17.9464286,28.1607143 L11.4464286,21.8392857 C11.148808,21.5178555 11,21.2321441 11,20.9821429 C11,20.5416645 11.33333,20.2678577 12,20.1607143 L20.9642857,18.8571429 L24.9821429,10.7321429 C25.2083345,10.2440452 25.4999982,10 25.8571429,10 C26.2142875,10 26.5059513,10.2440452 26.7321429,10.7321429 L30.75,18.8571429 L39.7142857,20.1607143 C40.3809557,20.2678577 40.7142857,20.5416645 40.7142857,20.9821429 Z" id="Star---FontAwesome" fill="#4C5358"></path>
                </g>
                <g id="Button-icon-52-Copy-8">
                    <g id="Rectangle-Copy-2">
                        <use fill="#FFFFFF" fill-rule="evenodd" xlink:href="#path-3"></use>
                        <rect stroke="#A9B1B5" stroke-width="1" x="0.5" y="0.5" width="51" height="51" rx="3"></rect>
                    </g>
                    <path d="M32,26.2857143 C32,26.4285721 31.9404768,26.5714279 31.8214286,26.7142857 L26.125,32.4107143 C25.994047,32.5178577 25.8571436,32.5714286 25.7142857,32.5714286 C25.5714279,32.5714286 25.4345245,32.5178577 25.3035714,32.4107143 L19.5892857,26.6964286 C19.4107134,26.5059514 19.3690471,26.2976202 19.4642857,26.0714286 C19.5595243,25.8333321 19.7380939,25.7142857 20,25.7142857 L23.4285714,25.7142857 L23.4285714,19.4285714 C23.4285714,19.2619039 23.4821423,19.1250005 23.5892857,19.0178571 C23.6964291,18.9107137 23.8333325,18.8571429 24,18.8571429 L27.4285714,18.8571429 C27.5952389,18.8571429 27.7321423,18.9107137 27.8392857,19.0178571 C27.9464291,19.1250005 28,19.2619039 28,19.4285714 L28,25.7142857 L31.4285714,25.7142857 C31.5952389,25.7142857 31.7321423,25.7678566 31.8392857,25.875 C31.9464291,25.9821434 32,26.1190468 32,26.2857143 Z M30.5892857,17.3035714 C29.101183,16.4345195 27.4761993,16 25.7142857,16 C23.9523721,16 22.3273884,16.4345195 20.8392857,17.3035714 C19.351183,18.1726234 18.1726234,19.351183 17.3035714,20.8392857 C16.4345195,22.3273884 16,23.9523721 16,25.7142857 C16,27.4761993 16.4345195,29.101183 17.3035714,30.5892857 C18.1726234,32.0773884 19.351183,33.255948 20.8392857,34.125 C22.3273884,34.994052 23.9523721,35.4285714 25.7142857,35.4285714 C27.4761993,35.4285714 29.101183,34.994052 30.5892857,34.125 C32.0773884,33.255948 33.255948,32.0773884 34.125,30.5892857 C34.994052,29.101183 35.4285714,27.4761993 35.4285714,25.7142857 C35.4285714,23.9523721 34.994052,22.3273884 34.125,20.8392857 C33.255948,19.351183 32.0773884,18.1726234 30.5892857,17.3035714 Z M37.5892857,18.8392857 C38.8154823,20.9345343 39.4285714,23.226178 39.4285714,25.7142857 C39.4285714,28.2023934 38.8154823,30.4970133 37.5892857,32.5982143 C36.3630891,34.6994153 34.6994153,36.3630891 32.5982143,37.5892857 C30.4970133,38.8154823 28.2023934,39.4285714 25.7142857,39.4285714 C23.226178,39.4285714 20.9315581,38.8154823 18.8303571,37.5892857 C16.7291562,36.3630891 15.0654823,34.6994153 13.8392857,32.5982143 C12.6130891,30.4970133 12,28.2023934 12,25.7142857 C12,23.226178 12.6130891,20.9315581 13.8392857,18.8303571 C15.0654823,16.7291562 16.7291562,15.0654823 18.8303571,13.8392857 C20.9315581,12.6130891 23.226178,12 25.7142857,12 C28.2023934,12 30.4970133,12.6130891 32.5982143,13.8392857 C34.6994153,15.0654823 36.3630891,16.7321323 37.5892857,18.8392857 Z" id="Arrow-Circle-Outlined-Down---FontAwesome" fill="#4C5358"></path>
                </g>
                <g id="Button-icon-74-Copy" transform="translate(180.000000, 0.000000)">
                    <g id="Rectangle-Copy-3">
                        <use fill="#FFFFFF" fill-rule="evenodd" xlink:href="#path-4"></use>
                        <rect stroke="#A9B1B5" stroke-width="1" x="0.5" y="0.5" width="51" height="51" rx="3"></rect>
                    </g>
                    <path d="M13.8571429,38.1428571 L24.7142857,38.1428571 L24.7142857,17.5714286 L13.2857143,17.5714286 L13.2857143,37.5714286 C13.2857143,37.7261912 13.3422613,37.8601185 13.4553571,37.9732143 C13.5684529,38.0863101 13.7023802,38.1428571 13.8571429,38.1428571 Z M38.4285714,37.5714286 L38.4285714,17.5714286 L27,17.5714286 L27,38.1428571 L37.8571429,38.1428571 C38.0119055,38.1428571 38.1458328,38.0863101 38.2589286,37.9732143 C38.3720244,37.8601185 38.4285714,37.7261912 38.4285714,37.5714286 Z M40.7142857,15.8571429 L40.7142857,37.5714286 C40.7142857,38.3571468 40.4345266,39.0297591 39.875,39.5892857 C39.3154734,40.1488123 38.6428611,40.4285714 37.8571429,40.4285714 L13.8571429,40.4285714 C13.0714246,40.4285714 12.3988123,40.1488123 11.8392857,39.5892857 C11.2797591,39.0297591 11,38.3571468 11,37.5714286 L11,15.8571429 C11,15.0714246 11.2797591,14.3988123 11.8392857,13.8392857 C12.3988123,13.2797591 13.0714246,13 13.8571429,13 L37.8571429,13 C38.6428611,13 39.3154734,13.2797591 39.875,13.8392857 C40.4345266,14.3988123 40.7142857,15.0714246 40.7142857,15.8571429 Z" id="Columns---FontAwesome" fill="#4C5358"></path>
                </g>
                <g id="Button-icon-74-Copy-4" transform="translate(300.000000, 0.000000)">
                    <g id="Rectangle-Copy-3">
                        <use fill="#FFFFFF" fill-rule="evenodd" xlink:href="#path-5"></use>
                        <rect stroke="#A9B1B5" stroke-width="1" x="0.5" y="0.5" width="51" height="51" rx="3"></rect>
                    </g>
                    <path d="M41.1428571,35.8571429 C41.5357163,35.8571429 41.7857137,35.9672608 41.8928571,36.1875 C42.0000005,36.4077392 41.934525,36.6726175 41.6964286,36.9821429 L39.4464286,39.875 C39.2083321,40.1845254 38.9166684,40.3392857 38.5714286,40.3392857 C38.2261887,40.3392857 37.934525,40.1845254 37.6964286,39.875 L35.4464286,36.9821429 C35.2083321,36.6726175 35.1428566,36.4077392 35.25,36.1875 C35.3571434,35.9672608 35.6071409,35.8571429 36,35.8571429 L37.4285714,35.8571429 L37.4285714,17.5714286 L36,17.5714286 C35.6071409,17.5714286 35.3571434,17.4613106 35.25,17.2410714 C35.1428566,17.0208322 35.2083321,16.7559539 35.4464286,16.4464286 L37.6964286,13.5535714 C37.934525,13.2440461 38.2261887,13.0892857 38.5714286,13.0892857 C38.9166684,13.0892857 39.2083321,13.2440461 39.4464286,13.5535714 L41.6964286,16.4464286 C41.934525,16.7559539 42.0000005,17.0208322 41.8928571,17.2410714 C41.7857137,17.4613106 41.5357163,17.5714286 41.1428571,17.5714286 L39.7142857,17.5714286 L39.7142857,35.8571429 L41.1428571,35.8571429 Z M11.4464286,13.0178571 L12.4107143,13.5 C12.5535721,13.5595241 13.809512,13.5892857 16.1785714,13.5892857 C16.7023836,13.5892857 17.48809,13.5773811 18.5357143,13.5535714 C19.5833386,13.5297618 20.369045,13.5178571 20.8928571,13.5178571 C21.3214307,13.5178571 21.9613053,13.5208333 22.8125,13.5267857 C23.6636947,13.5327381 24.3035693,13.5357143 24.7321429,13.5357143 L29.9642857,13.5357143 C30.0357146,13.5357143 30.1607134,13.5386904 30.3392857,13.5446429 C30.517858,13.5505953 30.6398806,13.5505953 30.7053571,13.5446429 C30.7708337,13.5386904 30.8660708,13.5208335 30.9910714,13.4910714 C31.1160721,13.4613094 31.2202377,13.4077385 31.3035714,13.3303571 C31.3869052,13.2529758 31.47619,13.1488102 31.5714286,13.0178571 L32.3214286,13 C32.3690479,13 32.4523804,13.0029762 32.5714286,13.0089286 C32.6904768,13.014881 32.7738093,13.0178571 32.8214286,13.0178571 C32.8452382,14.3511971 32.8571429,16.3511771 32.8571429,19.0178571 C32.8571429,19.9702429 32.8273813,20.6190459 32.7678571,20.9642857 C32.3035691,21.1309532 31.8988112,21.238095 31.5535714,21.2857143 C31.2559509,20.7619021 30.9345255,20.000005 30.5892857,19 C30.5535712,18.8928566 30.4880957,18.6071452 30.3928571,18.1428571 C30.2976186,17.6785691 30.2113099,17.2410735 30.1339286,16.8303571 C30.0565472,16.4196408 30.0119048,16.2083334 30,16.1964286 C29.9285711,16.10119 29.8571432,16.026786 29.7857143,15.9732143 C29.7142854,15.9196426 29.6220244,15.8839287 29.5089286,15.8660714 C29.3958328,15.8482142 29.3184526,15.8333334 29.2767857,15.8214286 C29.2351188,15.8095238 29.1279771,15.8065476 28.9553571,15.8125 C28.7827372,15.8184524 28.6845239,15.8214286 28.6607143,15.8214286 C28.4583323,15.8214286 28.0625029,15.8184524 27.4732143,15.8125 C26.8839256,15.8065476 26.4404777,15.8035714 26.1428571,15.8035714 C25.8452366,15.8035714 25.464288,15.8154761 25,15.8392857 C24.535712,15.8630954 24.1130971,15.8988093 23.7321429,15.9464286 C23.6249995,16.9107191 23.5773809,17.7202348 23.5892857,18.375 C23.5892857,19.4940532 23.6011904,21.8035539 23.625,25.3035714 C23.6488096,28.8035889 23.6607143,31.5118952 23.6607143,33.4285714 C23.6607143,33.6190486 23.6458335,34.0446396 23.6160714,34.7053571 C23.5863094,35.3660747 23.5863094,35.9107121 23.6160714,36.3392857 C23.6458335,36.7678593 23.7202375,37.1785695 23.8392857,37.5714286 C24.3154786,37.8214298 25.0535664,38.0744035 26.0535714,38.3303571 C27.0535764,38.5863108 27.767855,38.8095229 28.1964286,39 C28.2559527,39.4761929 28.2857143,39.7738089 28.2857143,39.8928571 C28.2857143,40.0595246 28.2678573,40.232142 28.2321429,40.4107143 L27.625,40.4285714 C26.7202336,40.4523811 25.4226275,40.4047625 23.7321429,40.2857143 C22.0416582,40.1666661 20.8095277,40.1071429 20.0357143,40.1071429 C19.4404732,40.1071429 18.5416727,40.1607137 17.3392857,40.2678571 C16.1368988,40.3750005 15.2321459,40.4285714 14.625,40.4285714 C14.5892855,39.8214255 14.5714286,39.5119048 14.5714286,39.5 L14.5714286,39.3392857 C14.7738105,39.0178555 15.1398783,38.7619057 15.6696429,38.5714286 C16.1994074,38.3809514 16.7857111,38.2083341 17.4285714,38.0535714 C18.0714318,37.8988088 18.5357129,37.7380961 18.8214286,37.5714286 C19.0476202,37.0714261 19.1607143,34.791687 19.1607143,30.7321429 C19.1607143,29.5297559 19.1428573,27.7262025 19.1071429,25.3214286 C19.0714284,22.9166546 19.0535714,21.1131013 19.0535714,19.9107143 L19.0535714,17.8214286 C19.0535714,17.7976189 19.0565476,17.7053579 19.0625,17.5446429 C19.0684524,17.3839278 19.0714286,17.2351197 19.0714286,17.0982143 C19.0714286,16.9613088 19.0654762,16.8095246 19.0535714,16.6428571 C19.0416666,16.4761896 19.0238096,16.3333339 19,16.2142857 C18.9761904,16.0952375 18.9464287,16.011905 18.9107143,15.9642857 C18.7797612,15.8214279 17.8154852,15.75 16.0178571,15.75 C15.624998,15.75 15.0714321,15.8214279 14.3571429,15.9642857 C13.6428536,16.1071436 13.1666679,16.2619039 12.9285714,16.4285714 C12.7023798,16.5833341 12.5000009,17.0148774 12.3214286,17.7232143 C12.1428562,18.4315512 11.9553581,19.0922588 11.7589286,19.7053571 C11.562499,20.3184554 11.3095254,20.6369046 11,20.6607143 C10.4999975,20.3511889 10.1666675,20.0892868 10,19.875 L10,13.0357143 L11.4464286,13.0178571 Z" id="text-height---FontAwesome" fill="#4C5358"></path>
                </g>
                <g id="Button-icon-74-Copy-3" transform="translate(60.000000, 0.000000)">
                    <g id="Rectangle-Copy-3">
                        <use fill="#FFFFFF" fill-rule="evenodd" xlink:href="#path-6"></use>
                        <rect stroke="#A9B1B5" stroke-width="1" x="0.5" y="0.5" width="51" height="51" rx="3"></rect>
                    </g>
                    <path d="M19.4285714,18.5714286 C20.0952414,19.2380986 20.4285714,20.0476143 20.4285714,21 C20.4285714,21.9523857 20.0952414,22.7619014 19.4285714,23.4285714 C18.7619014,24.0952414 17.9523857,24.4285714 17,24.4285714 C16.0476143,24.4285714 15.2380986,24.0952414 14.5714286,23.4285714 C13.9047586,22.7619014 13.5714286,21.9523857 13.5714286,21 C13.5714286,20.0476143 13.9047586,19.2380986 14.5714286,18.5714286 C15.2380986,17.9047586 16.0476143,17.5714286 17,17.5714286 C17.9523857,17.5714286 18.7619014,17.9047586 19.4285714,18.5714286 Z M38.7142857,27.8571429 L38.7142857,35.8571429 L13.5714286,35.8571429 L13.5714286,32.4285714 L19.2857143,26.7142857 L22.1428571,29.5714286 L31.2857143,20.4285714 L38.7142857,27.8571429 Z M40.4285714,15.2857143 L11.8571429,15.2857143 C11.7023802,15.2857143 11.5684529,15.3422613 11.4553571,15.4553571 C11.3422613,15.5684529 11.2857143,15.7023802 11.2857143,15.8571429 L11.2857143,37.5714286 C11.2857143,37.7261912 11.3422613,37.8601185 11.4553571,37.9732143 C11.5684529,38.0863101 11.7023802,38.1428571 11.8571429,38.1428571 L40.4285714,38.1428571 C40.5833341,38.1428571 40.7172613,38.0863101 40.8303571,37.9732143 C40.9434529,37.8601185 41,37.7261912 41,37.5714286 L41,15.8571429 C41,15.7023802 40.9434529,15.5684529 40.8303571,15.4553571 C40.7172613,15.3422613 40.5833341,15.2857143 40.4285714,15.2857143 Z M43.2857143,15.8571429 L43.2857143,37.5714286 C43.2857143,38.3571468 43.0059552,39.0297591 42.4464286,39.5892857 C41.886902,40.1488123 41.2142896,40.4285714 40.4285714,40.4285714 L11.8571429,40.4285714 C11.0714246,40.4285714 10.3988123,40.1488123 9.83928571,39.5892857 C9.27975911,39.0297591 9,38.3571468 9,37.5714286 L9,15.8571429 C9,15.0714246 9.27975911,14.3988123 9.83928571,13.8392857 C10.3988123,13.2797591 11.0714246,13 11.8571429,13 L40.4285714,13 C41.2142896,13 41.886902,13.2797591 42.4464286,13.8392857 C43.0059552,14.3988123 43.2857143,15.0714246 43.2857143,15.8571429 Z" id="" fill="#4C5358"></path>
                </g>
            </g>
        </g>
    </g>
</svg>