<?xml version="1.0" encoding="UTF-8"?>
<svg width="103px" height="52px" viewBox="0 0 103 52" version="1.1" xmlns="http://www.w3.org/2000/svg" xmlns:xlink="http://www.w3.org/1999/xlink">
    <!-- Generator: Sketch 47 (45396) - http://www.bohemiancoding.com/sketch -->
    <title>Mixdifferent</title>
    <desc>Created with Sketch.</desc>
    <defs>
        <rect id="path-1" x="0" y="0" width="52" height="52" rx="3"></rect>
    </defs>
    <g id="Page-1" stroke="none" stroke-width="1" fill="none" fill-rule="evenodd">
        <g id="Buttons-Usage-extra-large-1200" transform="translate(-890.000000, -1307.000000)">
            <g id="Mixdifferent" transform="translate(890.000000, 1307.000000)">
                <g id="Button-icon-52">
                    <g id="Rectangle-Copy-2">
                        <use fill="#FFFFFF" fill-rule="evenodd" xlink:href="#path-1"></use>
                        <rect stroke="#A9B1B5" stroke-width="1" x="0.5" y="0.5" width="51" height="51" rx="3"></rect>
                    </g>
                    <path d="M19.4821429,37 L21.1071429,35.375 L16.9107143,31.1785714 L15.2857143,32.8035714 L15.2857143,34.7142857 L17.5714286,34.7142857 L17.5714286,37 L19.4821429,37 Z M28.8214286,20.4285714 C28.8214286,20.1666654 28.6904775,20.0357143 28.4285714,20.0357143 C28.3095232,20.0357143 28.2083338,20.0773805 28.125,20.1607143 L18.4464286,29.8392857 C18.3630948,29.9226195 18.3214286,30.0238089 18.3214286,30.1428571 C18.3214286,30.4047632 18.4523796,30.5357143 18.7142857,30.5357143 C18.8333339,30.5357143 18.9345234,30.494048 19.0178571,30.4107143 L28.6964286,20.7321429 C28.7797623,20.6488091 28.8214286,20.5476196 28.8214286,20.4285714 Z M27.8571429,17 L35.2857143,24.4285714 L20.4285714,39.2857143 L13,39.2857143 L13,31.8571429 L27.8571429,17 Z M40.0535714,18.7142857 C40.0535714,19.3452413 39.8333355,19.8809502 39.3928571,20.3214286 L36.4285714,23.2857143 L29,15.8571429 L31.9642857,12.9107143 C32.3928593,12.4583311 32.9285682,12.2321429 33.5714286,12.2321429 C34.2023841,12.2321429 34.7440454,12.4583311 35.1964286,12.9107143 L39.3928571,17.0892857 C39.8333355,17.5535738 40.0535714,18.095235 40.0535714,18.7142857 Z" id="-copy-2" fill="#4C5358"></path>
                </g>
                <path d="M78.4285714,18.4285714 C79.0952414,19.0952414 79.4285714,19.9047571 79.4285714,20.8571429 C79.4285714,21.8095286 79.0952414,22.6190443 78.4285714,23.2857143 C77.7619014,23.9523843 76.9523857,24.2857143 76,24.2857143 C75.0476143,24.2857143 74.2380986,23.9523843 73.5714286,23.2857143 C72.9047586,22.6190443 72.5714286,21.8095286 72.5714286,20.8571429 C72.5714286,19.9047571 72.9047586,19.0952414 73.5714286,18.4285714 C74.2380986,17.7619014 75.0476143,17.4285714 76,17.4285714 C76.9523857,17.4285714 77.7619014,17.7619014 78.4285714,18.4285714 Z M97.7142857,27.7142857 L97.7142857,35.7142857 L72.5714286,35.7142857 L72.5714286,32.2857143 L78.2857143,26.5714286 L81.1428571,29.4285714 L90.2857143,20.2857143 L97.7142857,27.7142857 Z M99.4285714,15.1428571 L70.8571429,15.1428571 C70.7023802,15.1428571 70.5684529,15.1994042 70.4553571,15.3125 C70.3422613,15.4255958 70.2857143,15.559523 70.2857143,15.7142857 L70.2857143,37.4285714 C70.2857143,37.5833341 70.3422613,37.7172613 70.4553571,37.8303571 C70.5684529,37.9434529 70.7023802,38 70.8571429,38 L99.4285714,38 C99.5833341,38 99.7172613,37.9434529 99.8303571,37.8303571 C99.9434529,37.7172613 100,37.5833341 100,37.4285714 L100,15.7142857 C100,15.559523 99.9434529,15.4255958 99.8303571,15.3125 C99.7172613,15.1994042 99.5833341,15.1428571 99.4285714,15.1428571 Z M102.285714,15.7142857 L102.285714,37.4285714 C102.285714,38.2142896 102.005955,38.886902 101.446429,39.4464286 C100.886902,40.0059552 100.21429,40.2857143 99.4285714,40.2857143 L70.8571429,40.2857143 C70.0714246,40.2857143 69.3988123,40.0059552 68.8392857,39.4464286 C68.2797591,38.886902 68,38.2142896 68,37.4285714 L68,15.7142857 C68,14.9285675 68.2797591,14.2559552 68.8392857,13.6964286 C69.3988123,13.136902 70.0714246,12.8571429 70.8571429,12.8571429 L99.4285714,12.8571429 C100.21429,12.8571429 100.886902,13.136902 101.446429,13.6964286 C102.005955,14.2559552 102.285714,14.9285675 102.285714,15.7142857 Z" id="" fill="#4C5358"></path>
            </g>
        </g>
    </g>
</svg>