<?xml version="1.0" encoding="UTF-8"?>
<svg width="264px" height="28px" viewBox="0 0 264 28" version="1.1" xmlns="http://www.w3.org/2000/svg" xmlns:xlink="http://www.w3.org/1999/xlink">
    <!-- Generator: Sketch 47 (45396) - http://www.bohemiancoding.com/sketch -->
    <title>Group</title>
    <desc>Created with Sketch.</desc>
    <defs></defs>
    <g id="Page-1" stroke="none" stroke-width="1" fill="none" fill-rule="evenodd">
        <g id="Buttons-Usage-extra-large-1200" transform="translate(-810.000000, -1947.000000)" fill="#4C5358">
            <g id="Group" transform="translate(810.000000, 1945.000000)">
                <g id="Button-icon-52-Copy-7">
                    <path d="M6.48214286,27 L8.10714286,25.375 L3.91071429,21.1785714 L2.28571429,22.8035714 L2.28571429,24.7142857 L4.57142857,24.7142857 L4.57142857,27 L6.48214286,27 Z M15.8214286,10.4285714 C15.8214286,10.1666654 15.6904775,10.0357143 15.4285714,10.0357143 C15.3095232,10.0357143 15.2083337,10.0773805 15.125,10.1607143 L5.44642857,19.8392857 C5.36309482,19.9226195 5.32142857,20.0238089 5.32142857,20.1428571 C5.32142857,20.4047632 5.45237964,20.5357143 5.71428571,20.5357143 C5.83333393,20.5357143 5.93452339,20.494048 6.01785714,20.4107143 L15.6964286,10.7321429 C15.7797623,10.6488091 15.8214286,10.5476196 15.8214286,10.4285714 Z M14.8571429,7 L22.2857143,14.4285714 L7.42857143,29.2857143 L0,29.2857143 L0,21.8571429 L14.8571429,7 Z M27.0535714,8.71428571 C27.0535714,9.34524125 26.8333355,9.88095018 26.3928571,10.3214286 L23.4285714,13.2857143 L16,5.85714286 L18.9642857,2.91071429 C19.3928593,2.45833107 19.9285682,2.23214286 20.5714286,2.23214286 C21.2023841,2.23214286 21.7440454,2.45833107 22.1964286,2.91071429 L26.3928571,7.08928571 C26.8333355,7.55357375 27.0535714,8.095235 27.0535714,8.71428571 Z" id="ï€-copy-2"></path>
                </g>
                <path d="M227,7 L237.08,7 L237.08,8.68 L229.16,8.68 L229.16,14.248 L235.328,14.248 L235.328,15.928 L229.16,15.928 L229.16,22.264 L237.416,22.264 L237.416,23.944 L227,23.944 L227,7 Z M247.904,21.64 C247.583998,22.440004 247.112003,23.0719977 246.488,23.536 C245.863997,24.0000023 245.088005,24.232 244.16,24.232 C243.423996,24.232 242.764003,24.0800015 242.18,23.776 C241.595997,23.4719985 241.100002,23.0480027 240.692,22.504 C240.283998,21.9599973 239.972001,21.3040038 239.756,20.536 C239.539999,19.7679962 239.432,18.9200046 239.432,17.992 C239.432,17.0319952 239.543999,16.1720038 239.768,15.412 C239.992001,14.6519962 240.311998,14.0080026 240.728,13.48 C241.144002,12.9519974 241.643997,12.5440014 242.228,12.256 C242.812003,11.9679986 243.455996,11.824 244.16,11.824 C245.120005,11.824 245.903997,12.0519977 246.512,12.508 C247.120003,12.9640023 247.551999,13.5119968 247.808,14.152 L247.808,7 L249.824,7 L249.824,23.944 L247.904,23.944 L247.904,21.64 Z M247.808,17.968 C247.808,17.4719975 247.796,17.0840014 247.772,16.804 C247.748,16.5239986 247.72,16.2960009 247.688,16.12 C247.608,15.7679982 247.488001,15.4320016 247.328,15.112 C247.167999,14.7919984 246.964001,14.5080012 246.716,14.26 C246.467999,14.0119988 246.176002,13.8160007 245.84,13.672 C245.503998,13.5279993 245.120002,13.456 244.688,13.456 C244.143997,13.456 243.676002,13.5759988 243.284,13.816 C242.891998,14.0560012 242.564001,14.379998 242.3,14.788 C242.035999,15.196002 241.840001,15.6759972 241.712,16.228 C241.583999,16.7800028 241.52,17.3679969 241.52,17.992 C241.52,18.6640034 241.591999,19.2839972 241.736,19.852 C241.880001,20.4200028 242.087999,20.907998 242.36,21.316 C242.632001,21.724002 242.967998,22.0439988 243.368,22.276 C243.768002,22.5080012 244.223997,22.624 244.736,22.624 C245.136002,22.624 245.499998,22.5520007 245.828,22.408 C246.156002,22.2639993 246.443999,22.0640013 246.692,21.808 C246.940001,21.5519987 247.143999,21.2600016 247.304,20.932 C247.464001,20.6039984 247.584,20.2560018 247.664,19.888 C247.76,19.4399978 247.808,18.8400038 247.808,18.088 L247.808,17.968 Z M252.872,7.552 L254.864,7.552 L254.864,9.544 L252.872,9.544 L252.872,7.552 Z M252.872,12.136 L254.864,12.136 L254.864,23.944 L252.872,23.944 L252.872,12.136 Z M258.968,13.504 L256.952,13.504 L256.952,12.136 L257.384,12.136 C257.880002,12.136 258.267999,12.0840005 258.548,11.98 C258.828001,11.8759995 259.039999,11.7160011 259.184,11.5 C259.328001,11.2839989 259.432,11.0000018 259.496,10.648 C259.56,10.2959982 259.616,9.86400256 259.664,9.352 L259.712,8.92 L260.96,8.92 L260.96,12.136 L263.504,12.136 L263.504,13.504 L260.96,13.504 L260.96,20.848 C260.96,21.5200034 261.059999,22.0039985 261.26,22.3 C261.460001,22.5960015 261.831997,22.744 262.376,22.744 C262.808002,22.744 263.207998,22.648001 263.576,22.456 L263.792,23.896 C263.183997,24.1680014 262.512004,24.304 261.776,24.304 C261.199997,24.304 260.732002,24.2240008 260.372,24.064 C260.011998,23.9039992 259.728001,23.6880014 259.52,23.416 C259.311999,23.1439986 259.168,22.8160019 259.088,22.432 C259.008,22.0479981 258.968,21.6320022 258.968,21.184 L258.968,13.504 Z" id="Edit"></path>
                <path d="M194.857143,21.8571429 L196.928571,19.7857143 L194.214286,17.0714286 L192.142857,19.1428571 L192.142857,20.1428571 L193.857143,20.1428571 L193.857143,21.8571429 L194.857143,21.8571429 Z M202.696429,9.58928571 C202.898811,9.38690375 202.904763,9.19047714 202.714286,9 C202.523809,8.80952286 202.327382,8.81547518 202.125,9.01785714 L195.875,15.2678571 C195.672618,15.4702391 195.666666,15.6666657 195.857143,15.8571429 C196.04762,16.04762 196.244047,16.0416677 196.446429,15.8392857 L202.696429,9.58928571 Z M204.142857,19.6071429 L204.142857,23 C204.142857,24.4166737 203.639886,25.6279712 202.633929,26.6339286 C201.627971,27.639886 200.416674,28.1428571 199,28.1428571 L184.142857,28.1428571 C182.726183,28.1428571 181.514886,27.639886 180.508929,26.6339286 C179.502971,25.6279712 179,24.4166737 179,23 L179,8.14285714 C179,6.72618339 179.502971,5.51488598 180.508929,4.50892857 C181.514886,3.50297116 182.726183,3 184.142857,3 L199,3 C199.750004,3 200.446425,3.14880804 201.089286,3.44642857 C201.267858,3.52976232 201.375,3.66666571 201.410714,3.85714286 C201.446429,4.05952482 201.392858,4.23214214 201.25,4.375 L200.375,5.25 C200.208332,5.4166675 200.017858,5.46428607 199.803571,5.39285714 C199.529761,5.32142821 199.261906,5.28571429 199,5.28571429 L184.142857,5.28571429 C183.357139,5.28571429 182.684527,5.56547339 182.125,6.125 C181.565473,6.68452661 181.285714,7.35713893 181.285714,8.14285714 L181.285714,23 C181.285714,23.7857182 181.565473,24.4583305 182.125,25.0178571 C182.684527,25.5773837 183.357139,25.8571429 184.142857,25.8571429 L199,25.8571429 C199.785718,25.8571429 200.458331,25.5773837 201.017857,25.0178571 C201.577384,24.4583305 201.857143,23.7857182 201.857143,23 L201.857143,20.75 C201.857143,20.5952373 201.910714,20.4642862 202.017857,20.3571429 L203.160714,19.2142857 C203.339287,19.0357134 203.547618,18.9940471 203.785714,19.0892857 C204.023811,19.1845243 204.142857,19.3571416 204.142857,19.6071429 Z M202.428571,6.42857143 L207.571429,11.5714286 L195.571429,23.5714286 L190.428571,23.5714286 L190.428571,18.4285714 L202.428571,6.42857143 Z M210.357143,8.78571429 L208.714286,10.4285714 L203.571429,5.28571429 L205.214286,3.64285714 C205.547621,3.30952214 205.952379,3.14285714 206.428571,3.14285714 C206.904764,3.14285714 207.309522,3.30952214 207.642857,3.64285714 L210.357143,6.35714286 C210.690478,6.69047786 210.857143,7.09523571 210.857143,7.57142857 C210.857143,8.04762143 210.690478,8.45237929 210.357143,8.78571429 Z" id="Pencil-Square-Outlined---FontAwesome"></path>
                <path d="M44,7 L54.08,7 L54.08,8.68 L46.16,8.68 L46.16,14.248 L52.328,14.248 L52.328,15.928 L46.16,15.928 L46.16,22.264 L54.416,22.264 L54.416,23.944 L44,23.944 L44,7 Z M64.904,21.64 C64.5839984,22.440004 64.1120031,23.0719977 63.488,23.536 C62.8639969,24.0000023 62.0880046,24.232 61.16,24.232 C60.4239963,24.232 59.7640029,24.0800015 59.18,23.776 C58.5959971,23.4719985 58.100002,23.0480027 57.692,22.504 C57.283998,21.9599973 56.9720011,21.3040038 56.756,20.536 C56.5399989,19.7679962 56.432,18.9200046 56.432,17.992 C56.432,17.0319952 56.5439989,16.1720038 56.768,15.412 C56.9920011,14.6519962 57.3119979,14.0080026 57.728,13.48 C58.1440021,12.9519974 58.6439971,12.5440014 59.228,12.256 C59.8120029,11.9679986 60.4559965,11.824 61.16,11.824 C62.1200048,11.824 62.903997,12.0519977 63.512,12.508 C64.120003,12.9640023 64.5519987,13.5119968 64.808,14.152 L64.808,7 L66.824,7 L66.824,23.944 L64.904,23.944 L64.904,21.64 Z M64.808,17.968 C64.808,17.4719975 64.7960001,17.0840014 64.772,16.804 C64.7479999,16.5239986 64.7200002,16.2960009 64.688,16.12 C64.6079996,15.7679982 64.4880008,15.4320016 64.328,15.112 C64.1679992,14.7919984 63.9640012,14.5080012 63.716,14.26 C63.4679988,14.0119988 63.1760017,13.8160007 62.84,13.672 C62.5039983,13.5279993 62.1200022,13.456 61.688,13.456 C61.1439973,13.456 60.676002,13.5759988 60.284,13.816 C59.891998,14.0560012 59.5640013,14.379998 59.3,14.788 C59.0359987,15.196002 58.8400006,15.6759972 58.712,16.228 C58.5839994,16.7800028 58.52,17.3679969 58.52,17.992 C58.52,18.6640034 58.5919993,19.2839972 58.736,19.852 C58.8800007,20.4200028 59.0879986,20.907998 59.36,21.316 C59.6320014,21.724002 59.967998,22.0439988 60.368,22.276 C60.768002,22.5080012 61.2239974,22.624 61.736,22.624 C62.136002,22.624 62.4999984,22.5520007 62.828,22.408 C63.1560016,22.2639993 63.4439988,22.0640013 63.692,21.808 C63.9400012,21.5519987 64.1439992,21.2600016 64.304,20.932 C64.4640008,20.6039984 64.5839996,20.2560018 64.664,19.888 C64.7600005,19.4399978 64.808,18.8400038 64.808,18.088 L64.808,17.968 Z M69.872,7.552 L71.864,7.552 L71.864,9.544 L69.872,9.544 L69.872,7.552 Z M69.872,12.136 L71.864,12.136 L71.864,23.944 L69.872,23.944 L69.872,12.136 Z M75.968,13.504 L73.952,13.504 L73.952,12.136 L74.384,12.136 C74.8800025,12.136 75.2679986,12.0840005 75.548,11.98 C75.8280014,11.8759995 76.0399993,11.7160011 76.184,11.5 C76.3280007,11.2839989 76.4319997,11.0000018 76.496,10.648 C76.5600003,10.2959982 76.6159998,9.86400256 76.664,9.352 L76.712,8.92 L77.96,8.92 L77.96,12.136 L80.504,12.136 L80.504,13.504 L77.96,13.504 L77.96,20.848 C77.96,21.5200034 78.059999,22.0039985 78.26,22.3 C78.460001,22.5960015 78.8319973,22.744 79.376,22.744 C79.8080022,22.744 80.2079982,22.648001 80.576,22.456 L80.792,23.896 C80.183997,24.1680014 79.5120037,24.304 78.776,24.304 C78.1999971,24.304 77.7320018,24.2240008 77.372,24.064 C77.0119982,23.9039992 76.728001,23.6880014 76.52,23.416 C76.311999,23.1439986 76.1680004,22.8160019 76.088,22.432 C76.0079996,22.0479981 75.968,21.6320022 75.968,21.184 L75.968,13.504 Z" id="Edit-Copy-3"></path>
            </g>
        </g>
    </g>
</svg>