<?xml version="1.0" encoding="UTF-8"?>
<svg width="252px" height="52px" viewBox="0 0 252 52" version="1.1" xmlns="http://www.w3.org/2000/svg" xmlns:xlink="http://www.w3.org/1999/xlink">
    <!-- Generator: Sketch 47 (45396) - http://www.bohemiancoding.com/sketch -->
    <title>MixSimilar</title>
    <desc>Created with Sketch.</desc>
    <defs>
        <rect id="path-1" x="0" y="0" width="52" height="52" rx="3"></rect>
        <rect id="path-2" x="0" y="0" width="52" height="52" rx="3"></rect>
    </defs>
    <g id="Page-1" stroke="none" stroke-width="1" fill="none" fill-rule="evenodd">
        <g id="Buttons-Usage-extra-large-1200" transform="translate(-363.000000, -1307.000000)">
            <g id="MixSimilar" transform="translate(363.000000, 1307.000000)">
                <g id="Button-icon-52-Copy">
                    <g id="Rectangle-Copy-2">
                        <use fill="#FFFFFF" fill-rule="evenodd" xlink:href="#path-1"></use>
                        <rect stroke="#A9B1B5" stroke-width="1" x="0.5" y="0.5" width="51" height="51" rx="3"></rect>
                    </g>
                    <path d="M19.4821429,37 L21.1071429,35.375 L16.9107143,31.1785714 L15.2857143,32.8035714 L15.2857143,34.7142857 L17.5714286,34.7142857 L17.5714286,37 L19.4821429,37 Z M28.8214286,20.4285714 C28.8214286,20.1666654 28.6904775,20.0357143 28.4285714,20.0357143 C28.3095232,20.0357143 28.2083338,20.0773805 28.125,20.1607143 L18.4464286,29.8392857 C18.3630948,29.9226195 18.3214286,30.0238089 18.3214286,30.1428571 C18.3214286,30.4047632 18.4523796,30.5357143 18.7142857,30.5357143 C18.8333339,30.5357143 18.9345234,30.494048 19.0178571,30.4107143 L28.6964286,20.7321429 C28.7797623,20.6488091 28.8214286,20.5476196 28.8214286,20.4285714 Z M27.8571429,17 L35.2857143,24.4285714 L20.4285714,39.2857143 L13,39.2857143 L13,31.8571429 L27.8571429,17 Z M40.0535714,18.7142857 C40.0535714,19.3452413 39.8333355,19.8809502 39.3928571,20.3214286 L36.4285714,23.2857143 L29,15.8571429 L31.9642857,12.9107143 C32.3928593,12.4583311 32.9285682,12.2321429 33.5714286,12.2321429 C34.2023841,12.2321429 34.7440454,12.4583311 35.1964286,12.9107143 L39.3928571,17.0892857 C39.8333355,17.5535738 40.0535714,18.095235 40.0535714,18.7142857 Z" id="ï€-copy-2" fill="#4C5358"></path>
                </g>
                <g id="Button-icon-74" transform="translate(68.000000, 0.000000)">
                    <g id="Rectangle-Copy-3">
                        <use fill="#FFFFFF" fill-rule="evenodd" xlink:href="#path-2"></use>
                        <rect stroke="#A9B1B5" stroke-width="1" x="0.5" y="0.5" width="51" height="51" rx="3"></rect>
                    </g>
                    <path d="M37.1428571,29.2321429 L37.1428571,33.8571429 C37.1428571,35.2738166 36.639886,36.485114 35.6339286,37.4910714 C34.6279712,38.4970288 33.4166738,39 32,39 L17.1428571,39 C15.7261834,39 14.514886,38.4970288 13.5089286,37.4910714 C12.5029712,36.485114 12,35.2738166 12,33.8571429 L12,19 C12,17.5833263 12.5029712,16.3720288 13.5089286,15.3660714 C14.514886,14.360114 15.7261834,13.8571429 17.1428571,13.8571429 L21.6964286,13.8571429 C21.8511912,13.8571429 21.9851185,13.9136899 22.0982143,14.0267857 C22.2113101,14.1398815 22.2678571,14.2738088 22.2678571,14.4285714 C22.2678571,14.7500016 22.1130968,14.9404759 21.8035714,15 C20.8869002,15.3095254 20.0952414,15.6666646 19.4285714,16.0714286 C19.3095232,16.1190479 19.2142861,16.1428571 19.1428571,16.1428571 L17.1428571,16.1428571 C16.3571389,16.1428571 15.6845266,16.4226163 15.125,16.9821429 C14.5654734,17.5416695 14.2857143,18.2142818 14.2857143,19 L14.2857143,33.8571429 C14.2857143,34.6428611 14.5654734,35.3154734 15.125,35.875 C15.6845266,36.4345266 16.3571389,36.7142857 17.1428571,36.7142857 L32,36.7142857 C32.7857182,36.7142857 33.4583305,36.4345266 34.0178571,35.875 C34.5773837,35.3154734 34.8571429,34.6428611 34.8571429,33.8571429 L34.8571429,30.0357143 C34.8571429,29.8095227 34.9642846,29.6369054 35.1785714,29.5178571 C35.5119064,29.3630945 35.8333318,29.1428586 36.1428571,28.8571429 C36.3333343,28.6666657 36.5416655,28.6190471 36.7678571,28.7142857 C37.0178584,28.8214291 37.1428571,28.9940464 37.1428571,29.2321429 Z M41.375,20.375 L34.5178571,27.2321429 C34.3035704,27.4583345 34.0357159,27.5714286 33.7142857,27.5714286 C33.5714279,27.5714286 33.4226198,27.541667 33.2678571,27.4821429 C32.8035691,27.2797609 32.5714286,26.9285739 32.5714286,26.4285714 L32.5714286,23 L29.7142857,23 C25.8690284,23 23.2619116,23.7797541 21.8928571,25.3392857 C20.4761834,26.9702462 20.0357116,29.7856943 20.5714286,33.7857143 C20.607143,34.0595252 20.4880966,34.2619041 20.2142857,34.3928571 C20.1190471,34.4166668 20.0476193,34.4285714 20,34.4285714 C19.8095229,34.4285714 19.6547625,34.3511912 19.5357143,34.1964286 C19.4166661,34.0297611 19.2916673,33.8452391 19.1607143,33.6428571 C19.0297612,33.4404752 18.7946446,33.0327412 18.4553571,32.4196429 C18.1160697,31.8065446 17.8214298,31.2142886 17.5714286,30.6428571 C17.3214273,30.0714257 17.0922629,29.3928611 16.8839286,28.6071429 C16.6755942,27.8214246 16.5714286,27.0952414 16.5714286,26.4285714 C16.5714286,25.8452352 16.5922617,25.3035739 16.6339286,24.8035714 C16.6755954,24.3035689 16.7589279,23.76786 16.8839286,23.1964286 C17.0089292,22.6249971 17.1755942,22.1011929 17.3839286,21.625 C17.5922629,21.1488071 17.8720221,20.6636929 18.2232143,20.1696429 C18.5744065,19.6755928 18.9821405,19.235121 19.4464286,18.8482143 C19.9107166,18.4613076 20.473211,18.0952398 21.1339286,17.75 C21.7946462,17.4047602 22.5357102,17.1160726 23.3571429,16.8839286 C24.1785755,16.6517846 25.1279708,16.4702388 26.2053571,16.3392857 C27.2827435,16.2083327 28.4523746,16.1428571 29.7142857,16.1428571 L32.5714286,16.1428571 L32.5714286,12.7142857 C32.5714286,12.2142832 32.8035691,11.8630963 33.2678571,11.6607143 C33.4226198,11.6011902 33.5714279,11.5714286 33.7142857,11.5714286 C34.0238111,11.5714286 34.2916655,11.6845227 34.5178571,11.9107143 L41.375,18.7678571 C41.6011916,18.9940487 41.7142857,19.2619032 41.7142857,19.5714286 C41.7142857,19.8809539 41.6011916,20.1488084 41.375,20.375 Z" id="Share-Square-Outlined---FontAwesome" fill="#4C5358"></path>
                </g>
                <g id="Button-icon-52-Copy-9" transform="translate(222.000000, 11.000000)" fill="#4C5358">
                    <path d="M18.2857143,12.8571429 L18.2857143,14 C18.2857143,14.1547627 18.2291672,14.2886899 18.1160714,14.4017857 C18.0029756,14.5148815 17.8690484,14.5714286 17.7142857,14.5714286 L7.42857143,14.5714286 C7.27380875,14.5714286 7.13988152,14.5148815 7.02678571,14.4017857 C6.91368991,14.2886899 6.85714286,14.1547627 6.85714286,14 L6.85714286,12.8571429 C6.85714286,12.7023802 6.91368991,12.5684529 7.02678571,12.4553571 C7.13988152,12.3422613 7.27380875,12.2857143 7.42857143,12.2857143 L17.7142857,12.2857143 C17.8690484,12.2857143 18.0029756,12.3422613 18.1160714,12.4553571 C18.2291672,12.5684529 18.2857143,12.7023802 18.2857143,12.8571429 Z M18.2142857,19.0892857 C19.7857221,17.5178493 20.5714286,15.6309634 20.5714286,13.4285714 C20.5714286,11.2261795 19.7886983,9.34226973 18.2232143,7.77678571 C16.6577303,6.2113017 14.7738205,5.42857143 12.5714286,5.42857143 C10.3690366,5.42857143 8.48512687,6.2113017 6.91964286,7.77678571 C5.35415884,9.34226973 4.57142857,11.2261795 4.57142857,13.4285714 C4.57142857,15.6309634 5.35415884,17.5148731 6.91964286,19.0803571 C8.48512687,20.6458412 10.3690366,21.4285714 12.5714286,21.4285714 C14.7738205,21.4285714 16.6547541,20.6488173 18.2142857,19.0892857 Z M29.0535714,26.6785714 C29.4940498,27.1190498 29.7142857,27.6547588 29.7142857,28.2857143 C29.7142857,28.9166698 29.4910737,29.4553549 29.0446429,29.9017857 C28.5982121,30.3482165 28.059527,30.5714286 27.4285714,30.5714286 C26.7857111,30.5714286 26.2500021,30.3452404 25.8214286,29.8928571 L19.6964286,23.7857143 C17.5654655,25.2619121 15.1904893,26 12.5714286,26 C10.8690391,26 9.2410792,25.6696462 7.6875,25.0089286 C6.1339208,24.348211 4.79464848,23.4553628 3.66964286,22.3303571 C2.54463723,21.2053515 1.65178902,19.8660792 0.991071429,18.3125 C0.330353839,16.7589208 0,15.1309609 0,13.4285714 C0,11.726182 0.330353839,10.0982221 0.991071429,8.54464286 C1.65178902,6.99106366 2.54463723,5.65179134 3.66964286,4.52678571 C4.79464848,3.40178009 6.1339208,2.50893188 7.6875,1.84821429 C9.2410792,1.1874967 10.8690391,0.857142857 12.5714286,0.857142857 C14.273818,0.857142857 15.9017779,1.1874967 17.4553571,1.84821429 C19.0089363,2.50893188 20.3482087,3.40178009 21.4732143,4.52678571 C22.5982199,5.65179134 23.4910681,6.99106366 24.1517857,8.54464286 C24.8125033,10.0982221 25.1428571,11.726182 25.1428571,13.4285714 C25.1428571,16.0476321 24.4047693,18.4226084 22.9285714,20.5535714 L29.0535714,26.6785714 Z" id="Search-Minus---FontAwesome"></path>
                </g>
                <g id="Button-icon-74-Copy" transform="translate(176.000000, 11.000000)" fill="#4C5358">
                    <path d="M18.2857143,12.8571429 L18.2857143,14 C18.2857143,14.1547627 18.2291672,14.2886899 18.1160714,14.4017857 C18.0029756,14.5148815 17.8690484,14.5714286 17.7142857,14.5714286 L13.7142857,14.5714286 L13.7142857,18.5714286 C13.7142857,18.7261913 13.6577387,18.8601185 13.5446429,18.9732143 C13.4315471,19.0863101 13.2976198,19.1428571 13.1428571,19.1428571 L12,19.1428571 C11.8452373,19.1428571 11.7113101,19.0863101 11.5982143,18.9732143 C11.4851185,18.8601185 11.4285714,18.7261913 11.4285714,18.5714286 L11.4285714,14.5714286 L7.42857143,14.5714286 C7.27380875,14.5714286 7.13988152,14.5148815 7.02678571,14.4017857 C6.91368991,14.2886899 6.85714286,14.1547627 6.85714286,14 L6.85714286,12.8571429 C6.85714286,12.7023802 6.91368991,12.5684529 7.02678571,12.4553571 C7.13988152,12.3422613 7.27380875,12.2857143 7.42857143,12.2857143 L11.4285714,12.2857143 L11.4285714,8.28571429 C11.4285714,8.13095161 11.4851185,7.99702438 11.5982143,7.88392857 C11.7113101,7.77083277 11.8452373,7.71428571 12,7.71428571 L13.1428571,7.71428571 C13.2976198,7.71428571 13.4315471,7.77083277 13.5446429,7.88392857 C13.6577387,7.99702438 13.7142857,8.13095161 13.7142857,8.28571429 L13.7142857,12.2857143 L17.7142857,12.2857143 C17.8690484,12.2857143 18.0029756,12.3422613 18.1160714,12.4553571 C18.2291672,12.5684529 18.2857143,12.7023802 18.2857143,12.8571429 Z M18.2142857,19.0892857 C19.7857221,17.5178493 20.5714286,15.6309634 20.5714286,13.4285714 C20.5714286,11.2261795 19.7886983,9.34226973 18.2232143,7.77678571 C16.6577303,6.2113017 14.7738205,5.42857143 12.5714286,5.42857143 C10.3690366,5.42857143 8.48512687,6.2113017 6.91964286,7.77678571 C5.35415884,9.34226973 4.57142857,11.2261795 4.57142857,13.4285714 C4.57142857,15.6309634 5.35415884,17.5148731 6.91964286,19.0803571 C8.48512687,20.6458412 10.3690366,21.4285714 12.5714286,21.4285714 C14.7738205,21.4285714 16.6547541,20.6488173 18.2142857,19.0892857 Z M29.0535714,26.6785714 C29.4940498,27.1190498 29.7142857,27.6547588 29.7142857,28.2857143 C29.7142857,28.9166698 29.4910737,29.4553549 29.0446429,29.9017857 C28.5982121,30.3482165 28.059527,30.5714286 27.4285714,30.5714286 C26.7857111,30.5714286 26.2500021,30.3452404 25.8214286,29.8928571 L19.6964286,23.7857143 C17.5654655,25.2619121 15.1904893,26 12.5714286,26 C10.8690391,26 9.2410792,25.6696462 7.6875,25.0089286 C6.1339208,24.348211 4.79464848,23.4553628 3.66964286,22.3303571 C2.54463723,21.2053515 1.65178902,19.8660792 0.991071429,18.3125 C0.330353839,16.7589208 0,15.1309609 0,13.4285714 C0,11.726182 0.330353839,10.0982221 0.991071429,8.54464286 C1.65178902,6.99106366 2.54463723,5.65179134 3.66964286,4.52678571 C4.79464848,3.40178009 6.1339208,2.50893188 7.6875,1.84821429 C9.2410792,1.1874967 10.8690391,0.857142857 12.5714286,0.857142857 C14.273818,0.857142857 15.9017779,1.1874967 17.4553571,1.84821429 C19.0089363,2.50893188 20.3482087,3.40178009 21.4732143,4.52678571 C22.5982199,5.65179134 23.4910681,6.99106366 24.1517857,8.54464286 C24.8125033,10.0982221 25.1428571,11.726182 25.1428571,13.4285714 C25.1428571,16.0476321 24.4047693,18.4226084 22.9285714,20.5535714 L29.0535714,26.6785714 Z" id="Search-Plus---FontAwesome"></path>
                </g>
            </g>
        </g>
    </g>
</svg>