<?xml version="1.0" encoding="UTF-8"?>
<svg width="367px" height="41px" viewBox="0 0 367 41" version="1.1" xmlns="http://www.w3.org/2000/svg" xmlns:xlink="http://www.w3.org/1999/xlink">
    <!-- Generator: Sketch 47 (45396) - http://www.bohemiancoding.com/sketch -->
    <title>WithLabels</title>
    <desc>Created with Sketch.</desc>
    <defs>
        <polygon id="path-1" points="0 15 63 15 63 0 0 0"></polygon>
    </defs>
    <g id="Page-1" stroke="none" stroke-width="1" fill="none" fill-rule="evenodd">
        <g id="Buttons-Usage-extra-large-1200" transform="translate(-323.000000, -1538.000000)">
            <g id="WithLabels" transform="translate(323.000000, 1538.000000)">
                <g id="Group-6">
                    <g id="Group-2-Copy">
                        <g id="Topbar-Large">
                            <rect id="Blue" fill="#4AC7ED" x="0" y="0" width="10.6930281" height="2.5625"></rect>
                            <rect id="Orange" fill="#F48C3B" x="10.6930281" y="0" width="23.6774194" height="2.5625"></rect>
                            <rect id="Grey" fill="#A9B1B5" x="34.3704475" y="0" width="32.4609781" height="2.5625"></rect>
                            <rect id="Green" fill="#ADC543" x="66.8314256" y="0" width="300.168574" height="2.5625"></rect>
                            <rect id="Bar" fill="#FFFFFF" x="0" y="2.5625" width="367" height="38.4375"></rect>
                        </g>
                        <g id="Page-1" transform="translate(12.000000, 13.000000)">
                            <path d="M10.0298926,0 L10.0298926,8.7976027 C10.0298926,10.9887403 8.71034899,12.2969855 6.50034899,12.2969855 C4.27586577,12.2969855 2.94812081,10.9887403 2.94812081,8.7976027 L2.94812081,0 L0,0 L0,8.46431167 C0,12.3734728 2.61238926,15 6.50034899,15 C10.3879597,15 13,12.3734728 13,8.46431167 L13,0 L10.0298926,0 Z" id="Fill-1" fill="#7C878E"></path>
                            <path d="M22.4997383,0 C18.611865,0 16,2.61406571 16,6.50476015 L16,15 L18.9707805,15 L18.9707805,6.1740184 C18.9707805,3.99215637 20.2900611,2.68968844 22.4999128,2.68968844 C24.7238977,2.68968844 26.0517281,3.99232863 26.0517281,6.1740184 L26.0517281,15 L29,15 L29,6.50476015 C28.9998255,2.61406571 26.3876116,0 22.4997383,0" id="Fill-3" fill="#7C878E"></path>
                            <mask id="mask-2" fill="white">
                                <use xlink:href="#path-1"></use>
                            </mask>
                            <g id="Clip-6"></g>
                            <polygon id="Fill-5" fill="#7C878E" mask="url(#mask-2)" points="33 15 36 15 36 0 33 0"></polygon>
                            <polygon id="Fill-7" fill="#7C878E" mask="url(#mask-2)" points="40 0 40 2.79278441 44.4984891 2.79278441 44.4984891 15 47.5013332 15 47.5013332 2.79278441 52 2.79278441 52 0"></polygon>
                            <path d="M63,0 L59.9914069,0 L53.2318234,10.0425371 C53.0351564,10.3414024 52.9601103,10.7036369 53.0201801,11.0627291 C53.0804145,11.4218214 53.2688527,11.7343032 53.5506049,11.9425662 C53.7671854,12.1033459 54.0217828,12.1883619 54.287242,12.1883619 L54.2875712,12.1883619 L59.4476515,12.1857434 L59.4476515,15 L62.0212733,15 L62.0293374,9.83898749 L56.5040655,9.83898749 L63,0 Z" id="Fill-8" fill="#AFC836" mask="url(#mask-2)"></path>
                        </g>
                    </g>
                </g>
                <path d="M302.52,24.392 C302.850668,24.8826691 303.298664,25.2799985 303.864,25.584 C304.429336,25.8880015 305.095996,26.04 305.864,26.04 C306.226668,26.04 306.565332,25.9920005 306.88,25.896 C307.194668,25.7999995 307.466666,25.6613342 307.696,25.48 C307.925334,25.2986658 308.103999,25.0773346 308.232,24.816 C308.360001,24.5546654 308.424,24.2640016 308.424,23.944 C308.424,23.6133317 308.346667,23.3360011 308.192,23.112 C308.037333,22.8879989 307.826668,22.6986674 307.56,22.544 C307.293332,22.3893326 306.976002,22.2533339 306.608,22.136 C306.239998,22.0186661 305.842669,21.9013339 305.416,21.784 C304.935998,21.6453326 304.490669,21.4906675 304.08,21.32 C303.669331,21.1493325 303.314668,20.9386679 303.016,20.688 C302.717332,20.4373321 302.482668,20.1440017 302.312,19.808 C302.141332,19.4719983 302.056,19.0693357 302.056,18.6 C302.056,18.1199976 302.149332,17.6880019 302.336,17.304 C302.522668,16.9199981 302.786665,16.5920014 303.128,16.32 C303.469335,16.0479986 303.871998,15.8373341 304.336,15.688 C304.800002,15.5386659 305.314664,15.464 305.88,15.464 C306.658671,15.464 307.378663,15.5946654 308.04,15.856 C308.701337,16.1173346 309.266664,16.5039974 309.736,17.016 L308.76,17.928 C308.418665,17.5546648 308.000002,17.2506678 307.504,17.016 C307.007998,16.7813322 306.461336,16.664 305.864,16.664 C305.18133,16.664 304.624002,16.8106652 304.192,17.104 C303.759998,17.3973348 303.544,17.8426637 303.544,18.44 C303.544,18.7386682 303.610666,18.9946656 303.744,19.208 C303.877334,19.4213344 304.063999,19.6079992 304.304,19.768 C304.544001,19.9280008 304.826665,20.0693327 305.152,20.192 C305.477335,20.3146673 305.837331,20.4293328 306.232,20.536 C306.81867,20.6960008 307.341331,20.8693324 307.8,21.056 C308.258669,21.2426676 308.642665,21.4639987 308.952,21.72 C309.261335,21.9760013 309.495999,22.2719983 309.656,22.608 C309.816001,22.9440017 309.896,23.3359978 309.896,23.784 C309.896,24.3280027 309.789334,24.8159978 309.576,25.248 C309.362666,25.6800022 309.072002,26.0426652 308.704,26.336 C308.335998,26.6293348 307.904002,26.8533326 307.408,27.008 C306.911998,27.1626674 306.386669,27.24 305.832,27.24 C304.807995,27.24 303.944004,27.077335 303.24,26.752 C302.535996,26.426665 301.970669,25.960003 301.544,25.352 L302.52,24.392 Z M312.568,23.368 C312.621334,24.2746712 312.853331,24.9759975 313.264,25.472 C313.674669,25.9680025 314.247996,26.216 314.984,26.216 C315.912005,26.216 316.610664,25.778671 317.08,24.904 L318.088,25.464 C317.778665,25.9866693 317.368003,26.4133317 316.856,26.744 C316.343997,27.0746683 315.698671,27.24 314.92,27.24 C314.30133,27.24 313.760002,27.1333344 313.296,26.92 C312.831998,26.7066656 312.445335,26.4133352 312.136,26.04 C311.826665,25.6666648 311.594667,25.2293358 311.44,24.728 C311.285333,24.2266642 311.208,23.6880029 311.208,23.112 C311.208,22.5466638 311.282666,22.0080026 311.432,21.496 C311.581334,20.9839974 311.807998,20.5360019 312.112,20.152 C312.416002,19.7679981 312.789331,19.4640011 313.232,19.24 C313.674669,19.0159989 314.194664,18.904 314.792,18.904 C315.368003,18.904 315.869331,19.0133322 316.296,19.232 C316.722669,19.4506678 317.077332,19.7439982 317.36,20.112 C317.642668,20.4800018 317.855999,20.9066642 318,21.392 C318.144001,21.8773358 318.216,22.3919973 318.216,22.936 C318.216,23.0533339 318.213333,23.1439997 318.208,23.208 C318.202667,23.2720003 318.2,23.3253331 318.2,23.368 L312.568,23.368 Z M314.776,19.912 C314.103997,19.912 313.584002,20.1519976 313.216,20.632 C312.847998,21.1120024 312.637334,21.7573293 312.584,22.568 L316.856,22.568 C316.856,22.2373317 316.818667,21.9146682 316.744,21.6 C316.669333,21.2853318 316.546668,21.0026679 316.376,20.752 C316.205332,20.5013321 315.989335,20.2986674 315.728,20.144 C315.466665,19.9893326 315.149335,19.912 314.776,19.912 Z M320.52,20.04 L319.176,20.04 L319.176,19.128 L319.464,19.128 C319.794668,19.128 320.053332,19.0933337 320.24,19.024 C320.426668,18.9546663 320.568,18.8480007 320.664,18.704 C320.76,18.5599993 320.829333,18.3706678 320.872,18.136 C320.914667,17.9013322 320.952,17.613335 320.984,17.272 L321.016,16.984 L321.848,16.984 L321.848,19.128 L323.544,19.128 L323.544,20.04 L321.848,20.04 L321.848,24.936 C321.848,25.3840022 321.914666,25.7066657 322.048,25.904 C322.181334,26.1013343 322.429332,26.2 322.792,26.2 C323.080001,26.2 323.346665,26.1360006 323.592,26.008 L323.736,26.968 C323.330665,27.1493342 322.882669,27.24 322.392,27.24 C322.007998,27.24 321.696001,27.1866672 321.456,27.08 C321.215999,26.9733328 321.026667,26.8293342 320.888,26.648 C320.749333,26.4666658 320.653334,26.2480013 320.6,25.992 C320.546666,25.7359987 320.52,25.4586682 320.52,25.16 L320.52,20.04 Z M325.832,20.04 L324.488,20.04 L324.488,19.128 L324.776,19.128 C325.106668,19.128 325.365332,19.0933337 325.552,19.024 C325.738668,18.9546663 325.88,18.8480007 325.976,18.704 C326.072,18.5599993 326.141333,18.3706678 326.184,18.136 C326.226667,17.9013322 326.264,17.613335 326.296,17.272 L326.328,16.984 L327.16,16.984 L327.16,19.128 L328.856,19.128 L328.856,20.04 L327.16,20.04 L327.16,24.936 C327.16,25.3840022 327.226666,25.7066657 327.36,25.904 C327.493334,26.1013343 327.741332,26.2 328.104,26.2 C328.392001,26.2 328.658665,26.1360006 328.904,26.008 L329.048,26.968 C328.642665,27.1493342 328.194669,27.24 327.704,27.24 C327.319998,27.24 327.008001,27.1866672 326.768,27.08 C326.527999,26.9733328 326.338667,26.8293342 326.2,26.648 C326.061333,26.4666658 325.965334,26.2480013 325.912,25.992 C325.858666,25.7359987 325.832,25.4586682 325.832,25.16 L325.832,20.04 Z M330.456,16.072 L331.784,16.072 L331.784,17.4 L330.456,17.4 L330.456,16.072 Z M330.456,19.128 L331.784,19.128 L331.784,27 L330.456,27 L330.456,19.128 Z M333.832,19.128 L334.984,19.128 L335.128,20.696 C335.330668,20.2159976 335.653331,19.7973351 336.096,19.44 C336.538669,19.0826649 337.08533,18.904 337.736,18.904 C338.557337,18.904 339.162665,19.1653307 339.552,19.688 C339.941335,20.2106693 340.136,20.9413286 340.136,21.88 L340.136,27 L338.808,27 L338.808,22.152 C338.808,21.4373298 338.664001,20.9120017 338.376,20.576 C338.087999,20.2399983 337.698669,20.072 337.208,20.072 C336.62133,20.072 336.133335,20.3119976 335.744,20.792 C335.354665,21.2720024 335.16,21.949329 335.16,22.824 L335.16,27 L333.832,27 L333.832,19.128 Z M342.792,27.944 C343.101335,28.2426682 343.471998,28.4799991 343.904,28.656 C344.336002,28.8320009 344.797331,28.92 345.288,28.92 C345.693335,28.92 346.023999,28.8586673 346.28,28.736 C346.536001,28.6133327 346.738666,28.4453344 346.888,28.232 C347.037334,28.0186656 347.141333,27.7760014 347.2,27.504 C347.258667,27.2319986 347.288,26.9413349 347.288,26.632 L347.288,25.176 C347.085332,25.6560024 346.781335,26.0426652 346.376,26.336 C345.970665,26.6293348 345.448003,26.776 344.808,26.776 C344.349331,26.776 343.933335,26.6880009 343.56,26.512 C343.186665,26.3359991 342.866668,26.0826683 342.6,25.752 C342.333332,25.4213317 342.128001,25.0160024 341.984,24.536 C341.839999,24.0559976 341.768,23.5173363 341.768,22.92 C341.768,22.3333304 341.839999,21.7946691 341.984,21.304 C342.128001,20.8133309 342.335999,20.3920018 342.608,20.04 C342.880001,19.6879982 343.210665,19.4133343 343.6,19.216 C343.989335,19.0186657 344.423998,18.92 344.904,18.92 C345.533336,18.92 346.055998,19.0773318 346.472,19.392 C346.888002,19.7066682 347.186666,20.1093309 347.368,20.6 L347.592,19.128 L348.616,19.128 L348.616,26.6 C348.616,27.0480022 348.562667,27.471998 348.456,27.872 C348.349333,28.272002 348.168001,28.6266651 347.912,28.936 C347.655999,29.2453349 347.314669,29.4906658 346.888,29.672 C346.461331,29.8533342 345.928003,29.944 345.288,29.944 C344.594663,29.944 343.973336,29.8453343 343.424,29.648 C342.874664,29.4506657 342.413335,29.2026682 342.04,28.904 L342.792,27.944 Z M347.288,22.92 C347.288,22.7386658 347.285333,22.5653342 347.28,22.4 C347.274667,22.2346658 347.261333,22.1093338 347.24,22.024 C347.197333,21.7679987 347.128,21.5173346 347.032,21.272 C346.936,21.0266654 346.805334,20.8133342 346.64,20.632 C346.474666,20.4506658 346.272001,20.3040006 346.032,20.192 C345.791999,20.0799994 345.512002,20.024 345.192,20.024 C344.839998,20.024 344.536001,20.0986659 344.28,20.248 C344.023999,20.3973341 343.813334,20.5999987 343.648,20.856 C343.482666,21.1120013 343.36,21.4159982 343.28,21.768 C343.2,22.1200018 343.16,22.4933314 343.16,22.888 C343.16,23.2400018 343.197333,23.5893316 343.272,23.936 C343.346667,24.2826684 343.463999,24.589332 343.624,24.856 C343.784001,25.122668 343.994665,25.3386658 344.256,25.504 C344.517335,25.6693342 344.834665,25.752 345.208,25.752 C345.730669,25.752 346.151998,25.6053348 346.472,25.312 C346.792002,25.0186652 347.015999,24.6480022 347.144,24.2 C347.197334,24.0506659 347.234667,23.8640011 347.256,23.64 C347.277333,23.4159989 347.288,23.2026677 347.288,23 L347.288,22.92 Z M350.808,25.064 C351.074668,25.405335 351.418665,25.6879989 351.84,25.912 C352.261335,26.1360011 352.722664,26.248 353.224,26.248 C353.672002,26.248 354.061332,26.1413344 354.392,25.928 C354.722668,25.7146656 354.888,25.3946688 354.888,24.968 C354.888,24.6373317 354.778668,24.3786676 354.56,24.192 C354.341332,24.0053324 354.069335,23.8480006 353.744,23.72 C353.418665,23.5919994 353.064002,23.4746672 352.68,23.368 C352.295998,23.2613328 351.941335,23.1226675 351.616,22.952 C351.290665,22.7813325 351.018668,22.5573347 350.8,22.28 C350.581332,22.0026653 350.472,21.6240024 350.472,21.144 C350.472,20.7493314 350.551999,20.4106681 350.712,20.128 C350.872001,19.8453319 351.082665,19.6133342 351.344,19.432 C351.605335,19.2506658 351.906665,19.1173338 352.248,19.032 C352.589335,18.9466662 352.946665,18.904 353.32,18.904 C354.429339,18.904 355.351996,19.2239968 356.088,19.864 L355.416,20.76 C355.181332,20.5146654 354.869335,20.3093342 354.48,20.144 C354.090665,19.9786658 353.688002,19.896 353.272,19.896 C353.090666,19.896 352.912001,19.9173331 352.736,19.96 C352.559999,20.0026669 352.405334,20.0693329 352.272,20.16 C352.138666,20.2506671 352.032,20.3653326 351.952,20.504 C351.872,20.6426674 351.832,20.8133323 351.832,21.016 C351.832,21.3253349 351.941332,21.5653325 352.16,21.736 C352.378668,21.9066675 352.650665,22.0533327 352.976,22.176 C353.301335,22.2986673 353.653331,22.4159994 354.032,22.528 C354.410669,22.6400006 354.762665,22.7839991 355.088,22.96 C355.413335,23.1360009 355.685332,23.3679986 355.904,23.656 C356.122668,23.9440014 356.232,24.3279976 356.232,24.808 C356.232,25.2133354 356.149334,25.5679985 355.984,25.872 C355.818666,26.1760015 355.600001,26.4293323 355.328,26.632 C355.055999,26.8346677 354.741335,26.9866662 354.384,27.088 C354.026665,27.1893338 353.656002,27.24 353.272,27.24 C351.949327,27.24 350.898671,26.8133376 350.12,25.96 L350.808,25.064 Z" id="Settings" fill="#4C5358"></path>
                <path d="M201.32,24.616 C200.850664,25.5120045 200.253337,26.1733312 199.528,26.6 C198.802663,27.0266688 197.906672,27.24 196.84,27.24 C195.997329,27.24 195.253337,27.0880015 194.608,26.784 C193.962663,26.4799985 193.424002,26.061336 192.992,25.528 C192.559998,24.994664 192.234668,24.365337 192.016,23.64 C191.797332,22.914663 191.688,22.1360042 191.688,21.304 C191.688,20.4613291 191.799999,19.6853369 192.024,18.976 C192.248001,18.2666631 192.578664,17.6506693 193.016,17.128 C193.453336,16.6053307 193.991997,16.1973348 194.632,15.904 C195.272003,15.6106652 196.007996,15.464 196.84,15.464 C197.800005,15.464 198.647996,15.6533314 199.384,16.032 C200.120004,16.4106686 200.733331,17.0053293 201.224,17.816 L199.864,18.504 C199.554665,17.9386638 199.144003,17.4986682 198.632,17.184 C198.119997,16.8693318 197.52267,16.712 196.84,16.712 C196.242664,16.712 195.717336,16.8319988 195.264,17.072 C194.810664,17.3120012 194.432002,17.6373313 194.128,18.048 C193.823998,18.4586687 193.594667,18.9439972 193.44,19.504 C193.285333,20.0640028 193.208,20.6639968 193.208,21.304 C193.208,21.9440032 193.287999,22.5493305 193.448,23.12 C193.608001,23.6906695 193.839998,24.1893312 194.144,24.616 C194.448002,25.0426688 194.826664,25.3786654 195.28,25.624 C195.733336,25.8693346 196.25333,25.992 196.84,25.992 C198.322674,25.992 199.362664,25.3040069 199.96,23.928 L201.32,24.616 Z M206.248,27.24 C205.650664,27.24 205.125336,27.1306678 204.672,26.912 C204.218664,26.6933322 203.840002,26.3946686 203.536,26.016 C203.231998,25.6373314 203.005334,25.1946692 202.856,24.688 C202.706666,24.1813308 202.632,23.6346696 202.632,23.048 C202.632,22.4613304 202.709333,21.9173358 202.864,21.416 C203.018667,20.9146642 203.247998,20.4773352 203.552,20.104 C203.856002,19.7306648 204.234664,19.4373344 204.688,19.224 C205.141336,19.0106656 205.66133,18.904 206.248,18.904 C206.83467,18.904 207.354664,19.0106656 207.808,19.224 C208.261336,19.4373344 208.642665,19.7279982 208.952,20.096 C209.261335,20.4640018 209.493333,20.9013308 209.648,21.408 C209.802667,21.9146692 209.88,22.4613304 209.88,23.048 C209.88,23.6346696 209.802667,24.1813308 209.648,24.688 C209.493333,25.1946692 209.261335,25.6373314 208.952,26.016 C208.642665,26.3946686 208.261336,26.6933322 207.808,26.912 C207.354664,27.1306678 206.83467,27.24 206.248,27.24 Z M206.28,26.2 C206.642668,26.2 206.962665,26.1200008 207.24,25.96 C207.517335,25.7999992 207.746666,25.5786681 207.928,25.296 C208.109334,25.0133319 208.248,24.6800019 208.344,24.296 C208.44,23.9119981 208.488,23.4960022 208.488,23.048 C208.488,22.5999978 208.44,22.1866686 208.344,21.808 C208.248,21.4293314 208.104001,21.1013347 207.912,20.824 C207.719999,20.5466653 207.485335,20.3306674 207.208,20.176 C206.930665,20.0213326 206.610668,19.944 206.248,19.944 C205.874665,19.944 205.549335,20.0213326 205.272,20.176 C204.994665,20.3306674 204.765334,20.5466653 204.584,20.824 C204.402666,21.1013347 204.264,21.4293314 204.168,21.808 C204.072,22.1866686 204.024,22.5999978 204.024,23.048 C204.024,23.4960022 204.072,23.9119981 204.168,24.296 C204.264,24.6800019 204.405332,25.0133319 204.592,25.296 C204.778668,25.5786681 205.013332,25.7999992 205.296,25.96 C205.578668,26.1200008 205.906665,26.2 206.28,26.2 Z M211.576,19.128 L212.728,19.128 L212.872,20.664 C213.064001,20.1199973 213.362665,19.6906682 213.768,19.376 C214.173335,19.0613318 214.66933,18.904 215.256,18.904 C215.87467,18.904 216.359998,19.0799982 216.712,19.432 C217.064002,19.7840018 217.288,20.2106642 217.384,20.712 C217.48,20.4666654 217.599999,20.2346678 217.744,20.016 C217.888001,19.7973322 218.061332,19.6053342 218.264,19.44 C218.466668,19.2746658 218.701332,19.1440005 218.968,19.048 C219.234668,18.9519995 219.538665,18.904 219.88,18.904 C220.328002,18.904 220.698665,18.9813326 220.992,19.136 C221.285335,19.2906674 221.519999,19.501332 221.696,19.768 C221.872001,20.034668 221.997333,20.3466649 222.072,20.704 C222.146667,21.0613351 222.184,21.4373314 222.184,21.832 L222.184,27 L220.856,27 L220.856,22.168 C220.856,21.4639965 220.730668,20.9386684 220.48,20.592 C220.229332,20.2453316 219.864002,20.072 219.384,20.072 C218.861331,20.072 218.424002,20.3039977 218.072,20.768 C217.719998,21.2320023 217.544,21.8959957 217.544,22.76 L217.544,27 L216.216,27 L216.216,22.232 C216.216,21.4959963 216.088001,20.9520018 215.832,20.6 C215.575999,20.2479982 215.218669,20.072 214.76,20.072 C214.247997,20.072 213.810668,20.309331 213.448,20.784 C213.085332,21.258669 212.904,21.9439955 212.904,22.84 L212.904,27 L211.576,27 L211.576,19.128 Z M224.2,19.128 L225.352,19.128 L225.496,20.664 C225.688001,20.1199973 225.986665,19.6906682 226.392,19.376 C226.797335,19.0613318 227.29333,18.904 227.88,18.904 C228.49867,18.904 228.983998,19.0799982 229.336,19.432 C229.688002,19.7840018 229.912,20.2106642 230.008,20.712 C230.104,20.4666654 230.223999,20.2346678 230.368,20.016 C230.512001,19.7973322 230.685332,19.6053342 230.888,19.44 C231.090668,19.2746658 231.325332,19.1440005 231.592,19.048 C231.858668,18.9519995 232.162665,18.904 232.504,18.904 C232.952002,18.904 233.322665,18.9813326 233.616,19.136 C233.909335,19.2906674 234.143999,19.501332 234.32,19.768 C234.496001,20.034668 234.621333,20.3466649 234.696,20.704 C234.770667,21.0613351 234.808,21.4373314 234.808,21.832 L234.808,27 L233.48,27 L233.48,22.168 C233.48,21.4639965 233.354668,20.9386684 233.104,20.592 C232.853332,20.2453316 232.488002,20.072 232.008,20.072 C231.485331,20.072 231.048002,20.3039977 230.696,20.768 C230.343998,21.2320023 230.168,21.8959957 230.168,22.76 L230.168,27 L228.84,27 L228.84,22.232 C228.84,21.4959963 228.712001,20.9520018 228.456,20.6 C228.199999,20.2479982 227.842669,20.072 227.384,20.072 C226.871997,20.072 226.434668,20.309331 226.072,20.784 C225.709332,21.258669 225.528,21.9439955 225.528,22.84 L225.528,27 L224.2,27 L224.2,19.128 Z M237.832,23.368 C237.885334,24.2746712 238.117331,24.9759975 238.528,25.472 C238.938669,25.9680025 239.511996,26.216 240.248,26.216 C241.176005,26.216 241.874664,25.778671 242.344,24.904 L243.352,25.464 C243.042665,25.9866693 242.632003,26.4133317 242.12,26.744 C241.607997,27.0746683 240.962671,27.24 240.184,27.24 C239.56533,27.24 239.024002,27.1333344 238.56,26.92 C238.095998,26.7066656 237.709335,26.4133352 237.4,26.04 C237.090665,25.6666648 236.858667,25.2293358 236.704,24.728 C236.549333,24.2266642 236.472,23.6880029 236.472,23.112 C236.472,22.5466638 236.546666,22.0080026 236.696,21.496 C236.845334,20.9839974 237.071998,20.5360019 237.376,20.152 C237.680002,19.7679981 238.053331,19.4640011 238.496,19.24 C238.938669,19.0159989 239.458664,18.904 240.056,18.904 C240.632003,18.904 241.133331,19.0133322 241.56,19.232 C241.986669,19.4506678 242.341332,19.7439982 242.624,20.112 C242.906668,20.4800018 243.119999,20.9066642 243.264,21.392 C243.408001,21.8773358 243.48,22.3919973 243.48,22.936 C243.48,23.0533339 243.477333,23.1439997 243.472,23.208 C243.466667,23.2720003 243.464,23.3253331 243.464,23.368 L237.832,23.368 Z M240.04,19.912 C239.367997,19.912 238.848002,20.1519976 238.48,20.632 C238.111998,21.1120024 237.901334,21.7573293 237.848,22.568 L242.12,22.568 C242.12,22.2373317 242.082667,21.9146682 242.008,21.6 C241.933333,21.2853318 241.810668,21.0026679 241.64,20.752 C241.469332,20.5013321 241.253335,20.2986674 240.992,20.144 C240.730665,19.9893326 240.413335,19.912 240.04,19.912 Z M245.096,19.128 L246.248,19.128 L246.392,20.696 C246.594668,20.2159976 246.917331,19.7973351 247.36,19.44 C247.802669,19.0826649 248.34933,18.904 249,18.904 C249.821337,18.904 250.426665,19.1653307 250.816,19.688 C251.205335,20.2106693 251.4,20.9413286 251.4,21.88 L251.4,27 L250.072,27 L250.072,22.152 C250.072,21.4373298 249.928001,20.9120017 249.64,20.576 C249.351999,20.2399983 248.962669,20.072 248.472,20.072 C247.88533,20.072 247.397335,20.3119976 247.008,20.792 C246.618665,21.2720024 246.424,21.949329 246.424,22.824 L246.424,27 L245.096,27 L245.096,19.128 Z M254.104,20.04 L252.76,20.04 L252.76,19.128 L253.048,19.128 C253.378668,19.128 253.637332,19.0933337 253.824,19.024 C254.010668,18.9546663 254.152,18.8480007 254.248,18.704 C254.344,18.5599993 254.413333,18.3706678 254.456,18.136 C254.498667,17.9013322 254.536,17.613335 254.568,17.272 L254.6,16.984 L255.432,16.984 L255.432,19.128 L257.128,19.128 L257.128,20.04 L255.432,20.04 L255.432,24.936 C255.432,25.3840022 255.498666,25.7066657 255.632,25.904 C255.765334,26.1013343 256.013332,26.2 256.376,26.2 C256.664001,26.2 256.930665,26.1360006 257.176,26.008 L257.32,26.968 C256.914665,27.1493342 256.466669,27.24 255.976,27.24 C255.591998,27.24 255.280001,27.1866672 255.04,27.08 C254.799999,26.9733328 254.610667,26.8293342 254.472,26.648 C254.333333,26.4666658 254.237334,26.2480013 254.184,25.992 C254.130666,25.7359987 254.104,25.4586682 254.104,25.16 L254.104,20.04 Z M258.872,25.064 C259.138668,25.405335 259.482665,25.6879989 259.904,25.912 C260.325335,26.1360011 260.786664,26.248 261.288,26.248 C261.736002,26.248 262.125332,26.1413344 262.456,25.928 C262.786668,25.7146656 262.952,25.3946688 262.952,24.968 C262.952,24.6373317 262.842668,24.3786676 262.624,24.192 C262.405332,24.0053324 262.133335,23.8480006 261.808,23.72 C261.482665,23.5919994 261.128002,23.4746672 260.744,23.368 C260.359998,23.2613328 260.005335,23.1226675 259.68,22.952 C259.354665,22.7813325 259.082668,22.5573347 258.864,22.28 C258.645332,22.0026653 258.536,21.6240024 258.536,21.144 C258.536,20.7493314 258.615999,20.4106681 258.776,20.128 C258.936001,19.8453319 259.146665,19.6133342 259.408,19.432 C259.669335,19.2506658 259.970665,19.1173338 260.312,19.032 C260.653335,18.9466662 261.010665,18.904 261.384,18.904 C262.493339,18.904 263.415996,19.2239968 264.152,19.864 L263.48,20.76 C263.245332,20.5146654 262.933335,20.3093342 262.544,20.144 C262.154665,19.9786658 261.752002,19.896 261.336,19.896 C261.154666,19.896 260.976001,19.9173331 260.8,19.96 C260.623999,20.0026669 260.469334,20.0693329 260.336,20.16 C260.202666,20.2506671 260.096,20.3653326 260.016,20.504 C259.936,20.6426674 259.896,20.8133323 259.896,21.016 C259.896,21.3253349 260.005332,21.5653325 260.224,21.736 C260.442668,21.9066675 260.714665,22.0533327 261.04,22.176 C261.365335,22.2986673 261.717331,22.4159994 262.096,22.528 C262.474669,22.6400006 262.826665,22.7839991 263.152,22.96 C263.477335,23.1360009 263.749332,23.3679986 263.968,23.656 C264.186668,23.9440014 264.296,24.3279976 264.296,24.808 C264.296,25.2133354 264.213334,25.5679985 264.048,25.872 C263.882666,26.1760015 263.664001,26.4293323 263.392,26.632 C263.119999,26.8346677 262.805335,26.9866662 262.448,27.088 C262.090665,27.1893338 261.720002,27.24 261.336,27.24 C260.013327,27.24 258.962671,26.8133376 258.184,25.96 L258.872,25.064 Z" id="Comments" fill="#4C5358"></path>
                <path d="M290.473214,22.9017857 C290.919645,22.4553549 291.142857,21.9166698 291.142857,21.2857143 C291.142857,20.6547587 290.919645,20.1160737 290.473214,19.6696429 C290.026783,19.2232121 289.488098,19 288.857143,19 C288.226187,19 287.687502,19.2232121 287.241071,19.6696429 C286.794641,20.1160737 286.571429,20.6547587 286.571429,21.2857143 C286.571429,21.9166698 286.794641,22.4553549 287.241071,22.9017857 C287.687502,23.3482165 288.226187,23.5714286 288.857143,23.5714286 C289.488098,23.5714286 290.026783,23.3482165 290.473214,22.9017857 Z M295.714286,20.3125 L295.714286,22.2946429 C295.714286,22.3660718 295.690476,22.4345235 295.642857,22.5 C295.595238,22.5654765 295.535715,22.6041666 295.464286,22.6160714 L293.8125,22.8660714 C293.699404,23.1875016 293.583334,23.4583322 293.464286,23.6785714 C293.67262,23.976192 293.991069,24.3869021 294.419643,24.9107143 C294.479167,24.9821432 294.508929,25.0565472 294.508929,25.1339286 C294.508929,25.2113099 294.482143,25.2797616 294.428571,25.3392857 C294.267856,25.5595249 293.973216,25.8809503 293.544643,26.3035714 C293.116069,26.7261926 292.83631,26.9375 292.705357,26.9375 C292.633928,26.9375 292.556548,26.9107146 292.473214,26.8571429 L291.241071,25.8928571 C290.979165,26.0297626 290.708335,26.1428567 290.428571,26.2321429 C290.333333,27.0416707 290.247024,27.5952366 290.169643,27.8928571 C290.127976,28.0595246 290.020834,28.1428571 289.848214,28.1428571 L287.866071,28.1428571 C287.782738,28.1428571 287.709822,28.1175598 287.647321,28.0669643 C287.584821,28.0163688 287.550595,27.9523813 287.544643,27.875 L287.294643,26.2321429 C287.002975,26.1369043 286.73512,26.0267863 286.491071,25.9017857 L285.232143,26.8571429 C285.172619,26.9107146 285.098215,26.9375 285.008929,26.9375 C284.925595,26.9375 284.851191,26.9047622 284.785714,26.8392857 C284.035711,26.1607109 283.544644,25.6607159 283.3125,25.3392857 C283.270833,25.2797616 283.25,25.2113099 283.25,25.1339286 C283.25,25.0624996 283.273809,24.9940479 283.321429,24.9285714 C283.410715,24.8035708 283.562499,24.6056561 283.776786,24.3348214 C283.991072,24.0639867 284.151785,23.8541674 284.258929,23.7053571 C284.098213,23.4077366 283.976191,23.1130967 283.892857,22.8214286 L282.258929,22.5803571 C282.181547,22.5684523 282.119048,22.5312503 282.071429,22.46875 C282.023809,22.4062497 282,22.3363099 282,22.2589286 L282,20.2767857 C282,20.2053568 282.023809,20.1369051 282.071429,20.0714286 C282.119048,20.0059521 282.175595,19.967262 282.241071,19.9553571 L283.901786,19.7053571 C283.985119,19.4315463 284.10119,19.1577395 284.25,18.8839286 C284.011904,18.5446412 283.693454,18.133931 283.294643,17.6517857 C283.235119,17.5803568 283.205357,17.5089289 283.205357,17.4375 C283.205357,17.3779759 283.232143,17.3095242 283.285714,17.2321429 C283.440477,17.0178561 283.733629,16.6979188 284.165179,16.2723214 C284.596728,15.8467241 284.877976,15.6339286 285.008929,15.6339286 C285.08631,15.6339286 285.16369,15.6636902 285.241071,15.7232143 L286.473214,16.6785714 C286.73512,16.541666 287.005951,16.4285719 287.285714,16.3392857 C287.380953,15.5297579 287.467262,14.976192 287.544643,14.6785714 C287.58631,14.5119039 287.693452,14.4285714 287.866071,14.4285714 L289.848214,14.4285714 C289.931548,14.4285714 290.004464,14.4538688 290.066964,14.5044643 C290.129465,14.5550598 290.16369,14.6190472 290.169643,14.6964286 L290.419643,16.3392857 C290.711311,16.4345243 290.979165,16.5446422 291.223214,16.6696429 L292.491071,15.7142857 C292.544643,15.660714 292.616071,15.6339286 292.705357,15.6339286 C292.782738,15.6339286 292.857143,15.6636902 292.928571,15.7232143 C293.696432,16.4315512 294.187499,16.9374985 294.401786,17.2410714 C294.443453,17.2886907 294.464286,17.3541662 294.464286,17.4375 C294.464286,17.5089289 294.440476,17.5773806 294.392857,17.6428571 C294.303571,17.7678578 294.151787,17.9657725 293.9375,18.2366071 C293.723213,18.5074418 293.562501,18.7172612 293.455357,18.8660714 C293.61012,19.163692 293.732142,19.4553557 293.821429,19.7410714 L295.455357,19.9910714 C295.532738,20.0029763 295.595238,20.0401783 295.642857,20.1026786 C295.690476,20.1651789 295.714286,20.2351187 295.714286,20.3125 Z" id="cog---FontAwesome" fill="#4C5358"></path>
                <path d="M181.928571,18.4196429 C182.642861,19.2946472 183,20.2499948 183,21.2857143 C183,22.3214338 182.642861,23.2782694 181.928571,24.15625 C181.214282,25.0342306 180.244054,25.727676 179.017857,26.2366071 C177.791661,26.7455383 176.452388,27 175,27 C174.583331,27 174.151788,26.9761907 173.705357,26.9285714 C172.52678,27.9702433 171.157746,28.6904742 169.598214,29.0892857 C169.306546,29.1726195 168.967264,29.238095 168.580357,29.2857143 C168.479166,29.2976191 168.388393,29.2708337 168.308036,29.2053571 C168.227678,29.1398806 168.175595,29.053572 168.151786,28.9464286 L168.151786,28.9375 C168.133928,28.9136904 168.13244,28.8779764 168.147321,28.8303571 C168.162202,28.7827379 168.168155,28.7529763 168.165179,28.7410714 C168.162202,28.7291666 168.175595,28.7008931 168.205357,28.65625 L168.258929,28.5758929 C168.264881,28.5669642 168.285714,28.5416669 168.321429,28.5 C168.357143,28.4583331 168.380952,28.4315477 168.392857,28.4196429 C168.434524,28.3720236 168.526785,28.269346 168.669643,28.1116071 C168.812501,27.9538683 168.915178,27.8407742 168.977679,27.7723214 C169.040179,27.7038687 169.13244,27.5863104 169.254464,27.4196429 C169.376489,27.2529754 169.473214,27.1011912 169.544643,26.9642857 C169.616072,26.8273803 169.696428,26.6517868 169.785714,26.4375 C169.875,26.2232132 169.952381,25.997025 170.017857,25.7589286 C169.083329,25.229164 168.346729,24.5744087 167.808036,23.7946429 C167.269343,23.0148771 167,22.1785759 167,21.2857143 C167,20.5119009 167.211307,19.772325 167.633929,19.0669643 C168.05655,18.3616036 168.624996,17.7529788 169.339286,17.2410714 C170.053575,16.7291641 170.904757,16.3229182 171.892857,16.0223214 C172.880957,15.7217247 173.916661,15.5714286 175,15.5714286 C176.452388,15.5714286 177.791661,15.8258903 179.017857,16.3348214 C180.244054,16.8437525 181.214282,17.5386861 181.928571,18.4196429 Z" id="comment---FontAwesome" fill="#4C5358"></path>
            </g>
        </g>
    </g>
</svg>