<?xml version="1.0" encoding="UTF-8"?>
<svg width="259px" height="28px" viewBox="0 0 259 28" version="1.1" xmlns="http://www.w3.org/2000/svg" xmlns:xlink="http://www.w3.org/1999/xlink">
    <!-- Generator: Sketch 47 (45396) - http://www.bohemiancoding.com/sketch -->
    <title>SameUsage</title>
    <desc>Created with Sketch.</desc>
    <defs></defs>
    <g id="Page-1" stroke="none" stroke-width="1" fill="none" fill-rule="evenodd">
        <g id="Buttons-Usage-extra-large-1200" transform="translate(-375.000000, -1947.000000)" fill="#4C5358">
            <g id="Button-icon-52-Copy-5" transform="translate(375.000000, 1947.000000)">
                <g id="SameUsage">
                    <path d="M184.482143,25 L186.107143,23.375 L181.910714,19.1785714 L180.285714,20.8035714 L180.285714,22.7142857 L182.571429,22.7142857 L182.571429,25 L184.482143,25 Z M193.821429,8.42857143 C193.821429,8.16666536 193.690477,8.03571429 193.428571,8.03571429 C193.309523,8.03571429 193.208334,8.07738054 193.125,8.16071429 L183.446429,17.8392857 C183.363095,17.9226195 183.321429,18.0238089 183.321429,18.1428571 C183.321429,18.4047632 183.45238,18.5357143 183.714286,18.5357143 C183.833334,18.5357143 183.934523,18.494048 184.017857,18.4107143 L193.696429,8.73214286 C193.779762,8.64880911 193.821429,8.54761964 193.821429,8.42857143 Z M192.857143,5 L200.285714,12.4285714 L185.428571,27.2857143 L178,27.2857143 L178,19.8571429 L192.857143,5 Z M205.053571,6.71428571 C205.053571,7.34524125 204.833336,7.88095018 204.392857,8.32142857 L201.428571,11.2857143 L194,3.85714286 L196.964286,0.910714286 C197.392859,0.458331071 197.928568,0.232142857 198.571429,0.232142857 C199.202384,0.232142857 199.744045,0.458331071 200.196429,0.910714286 L204.392857,5.08928571 C204.833336,5.55357375 205.053571,6.095235 205.053571,6.71428571 Z" id="-copy-2"></path>
                    <path d="M6.48214286,25 L8.10714286,23.375 L3.91071429,19.1785714 L2.28571429,20.8035714 L2.28571429,22.7142857 L4.57142857,22.7142857 L4.57142857,25 L6.48214286,25 Z M15.8214286,8.42857143 C15.8214286,8.16666536 15.6904775,8.03571429 15.4285714,8.03571429 C15.3095232,8.03571429 15.2083337,8.07738054 15.125,8.16071429 L5.44642857,17.8392857 C5.36309482,17.9226195 5.32142857,18.0238089 5.32142857,18.1428571 C5.32142857,18.4047632 5.45237964,18.5357143 5.71428571,18.5357143 C5.83333393,18.5357143 5.93452339,18.494048 6.01785714,18.4107143 L15.6964286,8.73214286 C15.7797623,8.64880911 15.8214286,8.54761964 15.8214286,8.42857143 Z M14.8571429,5 L22.2857143,12.4285714 L7.42857143,27.2857143 L0,27.2857143 L0,19.8571429 L14.8571429,5 Z M27.0535714,6.71428571 C27.0535714,7.34524125 26.8333355,7.88095018 26.3928571,8.32142857 L23.4285714,11.2857143 L16,3.85714286 L18.9642857,0.910714286 C19.3928593,0.458331071 19.9285682,0.232142857 20.5714286,0.232142857 C21.2023841,0.232142857 21.7440454,0.458331071 22.1964286,0.910714286 L26.3928571,5.08928571 C26.8333355,5.55357375 27.0535714,6.095235 27.0535714,6.71428571 Z" id="-copy-2"></path>
                    <path d="M44,6 L54.08,6 L54.08,7.68 L46.16,7.68 L46.16,13.248 L52.328,13.248 L52.328,14.928 L46.16,14.928 L46.16,21.264 L54.416,21.264 L54.416,22.944 L44,22.944 L44,6 Z M64.904,20.64 C64.5839984,21.440004 64.1120031,22.0719977 63.488,22.536 C62.8639969,23.0000023 62.0880046,23.232 61.16,23.232 C60.4239963,23.232 59.7640029,23.0800015 59.18,22.776 C58.5959971,22.4719985 58.100002,22.0480027 57.692,21.504 C57.283998,20.9599973 56.9720011,20.3040038 56.756,19.536 C56.5399989,18.7679962 56.432,17.9200046 56.432,16.992 C56.432,16.0319952 56.5439989,15.1720038 56.768,14.412 C56.9920011,13.6519962 57.3119979,13.0080026 57.728,12.48 C58.1440021,11.9519974 58.6439971,11.5440014 59.228,11.256 C59.8120029,10.9679986 60.4559965,10.824 61.16,10.824 C62.1200048,10.824 62.903997,11.0519977 63.512,11.508 C64.120003,11.9640023 64.5519987,12.5119968 64.808,13.152 L64.808,6 L66.824,6 L66.824,22.944 L64.904,22.944 L64.904,20.64 Z M64.808,16.968 C64.808,16.4719975 64.7960001,16.0840014 64.772,15.804 C64.7479999,15.5239986 64.7200002,15.2960009 64.688,15.12 C64.6079996,14.7679982 64.4880008,14.4320016 64.328,14.112 C64.1679992,13.7919984 63.9640012,13.5080012 63.716,13.26 C63.4679988,13.0119988 63.1760017,12.8160007 62.84,12.672 C62.5039983,12.5279993 62.1200022,12.456 61.688,12.456 C61.1439973,12.456 60.676002,12.5759988 60.284,12.816 C59.891998,13.0560012 59.5640013,13.379998 59.3,13.788 C59.0359987,14.196002 58.8400006,14.6759972 58.712,15.228 C58.5839994,15.7800028 58.52,16.3679969 58.52,16.992 C58.52,17.6640034 58.5919993,18.2839972 58.736,18.852 C58.8800007,19.4200028 59.0879986,19.907998 59.36,20.316 C59.6320014,20.724002 59.967998,21.0439988 60.368,21.276 C60.768002,21.5080012 61.2239974,21.624 61.736,21.624 C62.136002,21.624 62.4999984,21.5520007 62.828,21.408 C63.1560016,21.2639993 63.4439988,21.0640013 63.692,20.808 C63.9400012,20.5519987 64.1439992,20.2600016 64.304,19.932 C64.4640008,19.6039984 64.5839996,19.2560018 64.664,18.888 C64.7600005,18.4399978 64.808,17.8400038 64.808,17.088 L64.808,16.968 Z M69.872,6.552 L71.864,6.552 L71.864,8.544 L69.872,8.544 L69.872,6.552 Z M69.872,11.136 L71.864,11.136 L71.864,22.944 L69.872,22.944 L69.872,11.136 Z M75.968,12.504 L73.952,12.504 L73.952,11.136 L74.384,11.136 C74.8800025,11.136 75.2679986,11.0840005 75.548,10.98 C75.8280014,10.8759995 76.0399993,10.7160011 76.184,10.5 C76.3280007,10.2839989 76.4319997,10.0000018 76.496,9.648 C76.5600003,9.29599824 76.6159998,8.86400256 76.664,8.352 L76.712,7.92 L77.96,7.92 L77.96,11.136 L80.504,11.136 L80.504,12.504 L77.96,12.504 L77.96,19.848 C77.96,20.5200034 78.059999,21.0039985 78.26,21.3 C78.460001,21.5960015 78.8319973,21.744 79.376,21.744 C79.8080022,21.744 80.2079982,21.648001 80.576,21.456 L80.792,22.896 C80.183997,23.1680014 79.5120037,23.304 78.776,23.304 C78.1999971,23.304 77.7320018,23.2240008 77.372,23.064 C77.0119982,22.9039992 76.728001,22.6880014 76.52,22.416 C76.311999,22.1439986 76.1680004,21.8160019 76.088,21.432 C76.0079996,21.0479981 75.968,20.6320022 75.968,20.184 L75.968,12.504 Z" id="Edit-Copy"></path>
                    <path d="M222,6 L232.08,6 L232.08,7.68 L224.16,7.68 L224.16,13.248 L230.328,13.248 L230.328,14.928 L224.16,14.928 L224.16,21.264 L232.416,21.264 L232.416,22.944 L222,22.944 L222,6 Z M242.904,20.64 C242.583998,21.440004 242.112003,22.0719977 241.488,22.536 C240.863997,23.0000023 240.088005,23.232 239.16,23.232 C238.423996,23.232 237.764003,23.0800015 237.18,22.776 C236.595997,22.4719985 236.100002,22.0480027 235.692,21.504 C235.283998,20.9599973 234.972001,20.3040038 234.756,19.536 C234.539999,18.7679962 234.432,17.9200046 234.432,16.992 C234.432,16.0319952 234.543999,15.1720038 234.768,14.412 C234.992001,13.6519962 235.311998,13.0080026 235.728,12.48 C236.144002,11.9519974 236.643997,11.5440014 237.228,11.256 C237.812003,10.9679986 238.455996,10.824 239.16,10.824 C240.120005,10.824 240.903997,11.0519977 241.512,11.508 C242.120003,11.9640023 242.551999,12.5119968 242.808,13.152 L242.808,6 L244.824,6 L244.824,22.944 L242.904,22.944 L242.904,20.64 Z M242.808,16.968 C242.808,16.4719975 242.796,16.0840014 242.772,15.804 C242.748,15.5239986 242.72,15.2960009 242.688,15.12 C242.608,14.7679982 242.488001,14.4320016 242.328,14.112 C242.167999,13.7919984 241.964001,13.5080012 241.716,13.26 C241.467999,13.0119988 241.176002,12.8160007 240.84,12.672 C240.503998,12.5279993 240.120002,12.456 239.688,12.456 C239.143997,12.456 238.676002,12.5759988 238.284,12.816 C237.891998,13.0560012 237.564001,13.379998 237.3,13.788 C237.035999,14.196002 236.840001,14.6759972 236.712,15.228 C236.583999,15.7800028 236.52,16.3679969 236.52,16.992 C236.52,17.6640034 236.591999,18.2839972 236.736,18.852 C236.880001,19.4200028 237.087999,19.907998 237.36,20.316 C237.632001,20.724002 237.967998,21.0439988 238.368,21.276 C238.768002,21.5080012 239.223997,21.624 239.736,21.624 C240.136002,21.624 240.499998,21.5520007 240.828,21.408 C241.156002,21.2639993 241.443999,21.0640013 241.692,20.808 C241.940001,20.5519987 242.143999,20.2600016 242.304,19.932 C242.464001,19.6039984 242.584,19.2560018 242.664,18.888 C242.76,18.4399978 242.808,17.8400038 242.808,17.088 L242.808,16.968 Z M247.872,6.552 L249.864,6.552 L249.864,8.544 L247.872,8.544 L247.872,6.552 Z M247.872,11.136 L249.864,11.136 L249.864,22.944 L247.872,22.944 L247.872,11.136 Z M253.968,12.504 L251.952,12.504 L251.952,11.136 L252.384,11.136 C252.880002,11.136 253.267999,11.0840005 253.548,10.98 C253.828001,10.8759995 254.039999,10.7160011 254.184,10.5 C254.328001,10.2839989 254.432,10.0000018 254.496,9.648 C254.56,9.29599824 254.616,8.86400256 254.664,8.352 L254.712,7.92 L255.96,7.92 L255.96,11.136 L258.504,11.136 L258.504,12.504 L255.96,12.504 L255.96,19.848 C255.96,20.5200034 256.059999,21.0039985 256.26,21.3 C256.460001,21.5960015 256.831997,21.744 257.376,21.744 C257.808002,21.744 258.207998,21.648001 258.576,21.456 L258.792,22.896 C258.183997,23.1680014 257.512004,23.304 256.776,23.304 C256.199997,23.304 255.732002,23.2240008 255.372,23.064 C255.011998,22.9039992 254.728001,22.6880014 254.52,22.416 C254.311999,22.1439986 254.168,21.8160019 254.088,21.432 C254.008,21.0479981 253.968,20.6320022 253.968,20.184 L253.968,12.504 Z" id="Edit-Copy-2"></path>
                </g>
            </g>
        </g>
    </g>
</svg>