<?xml version="1.0" encoding="UTF-8"?>
<svg width="120px" height="52px" viewBox="0 0 120 52" version="1.1" xmlns="http://www.w3.org/2000/svg" xmlns:xlink="http://www.w3.org/1999/xlink">
    <!-- Generator: Sketch 47 (45396) - http://www.bohemiancoding.com/sketch -->
    <title>StandOutButtons</title>
    <desc>Created with Sketch.</desc>
    <defs>
        <rect id="path-1" x="0" y="0" width="52" height="52" rx="3"></rect>
        <rect id="path-2" x="0" y="0" width="52" height="52" rx="3"></rect>
    </defs>
    <g id="Page-1" stroke="none" stroke-width="1" fill="none" fill-rule="evenodd">
        <g id="Buttons-Usage-extra-large-1200" transform="translate(-447.000000, -1742.000000)">
            <g id="StandOutButtons" transform="translate(447.000000, 1742.000000)">
                <g id="Button-icon-52-Copy-3">
                    <g id="Rectangle-Copy-2">
                        <use fill="#FFFFFF" fill-rule="evenodd" xlink:href="#path-1"></use>
                        <rect stroke="#A9B1B5" stroke-width="1" x="0.5" y="0.5" width="51" height="51" rx="3"></rect>
                    </g>
                    <path d="M18.4821429,36.7678571 L20.1071429,35.1428571 L15.9107143,30.9464286 L14.2857143,32.5714286 L14.2857143,34.4821429 L16.5714286,34.4821429 L16.5714286,36.7678571 L18.4821429,36.7678571 Z M27.8214286,20.1964286 C27.8214286,19.9345225 27.6904775,19.8035714 27.4285714,19.8035714 C27.3095232,19.8035714 27.2083338,19.8452377 27.125,19.9285714 L17.4464286,29.6071429 C17.3630948,29.6904766 17.3214286,29.7916661 17.3214286,29.9107143 C17.3214286,30.1726204 17.4523796,30.3035714 17.7142857,30.3035714 C17.8333339,30.3035714 17.9345234,30.2619052 18.0178571,30.1785714 L27.6964286,20.5 C27.7797623,20.4166663 27.8214286,20.3154768 27.8214286,20.1964286 Z M26.8571429,16.7678571 L34.2857143,24.1964286 L19.4285714,39.0535714 L12,39.0535714 L12,31.625 L26.8571429,16.7678571 Z M39.0535714,18.4821429 C39.0535714,19.1130984 38.8333355,19.6488073 38.3928571,20.0892857 L35.4285714,23.0535714 L28,15.625 L30.9642857,12.6785714 C31.3928593,12.2261882 31.9285682,12 32.5714286,12 C33.2023841,12 33.7440454,12.2261882 34.1964286,12.6785714 L38.3928571,16.8571429 C38.8333355,17.3214309 39.0535714,17.8630921 39.0535714,18.4821429 Z" id="-copy-2" fill="#4C5358"></path>
                </g>
                <g id="Button-icon-74-Copy" transform="translate(68.000000, 0.000000)">
                    <g id="Rectangle-Copy-3">
                        <use fill="#FFFFFF" fill-rule="evenodd" xlink:href="#path-2"></use>
                        <rect stroke="#A9B1B5" stroke-width="1" x="0.5" y="0.5" width="51" height="51" rx="3"></rect>
                    </g>
                    <path d="M19.4285714,17.5714286 C20.0952414,18.2380986 20.4285714,19.0476143 20.4285714,20 C20.4285714,20.9523857 20.0952414,21.7619014 19.4285714,22.4285714 C18.7619014,23.0952414 17.9523857,23.4285714 17,23.4285714 C16.0476143,23.4285714 15.2380986,23.0952414 14.5714286,22.4285714 C13.9047586,21.7619014 13.5714286,20.9523857 13.5714286,20 C13.5714286,19.0476143 13.9047586,18.2380986 14.5714286,17.5714286 C15.2380986,16.9047586 16.0476143,16.5714286 17,16.5714286 C17.9523857,16.5714286 18.7619014,16.9047586 19.4285714,17.5714286 Z M38.7142857,26.8571429 L38.7142857,34.8571429 L13.5714286,34.8571429 L13.5714286,31.4285714 L19.2857143,25.7142857 L22.1428571,28.5714286 L31.2857143,19.4285714 L38.7142857,26.8571429 Z M40.4285714,14.2857143 L11.8571429,14.2857143 C11.7023802,14.2857143 11.5684529,14.3422613 11.4553571,14.4553571 C11.3422613,14.5684529 11.2857143,14.7023802 11.2857143,14.8571429 L11.2857143,36.5714286 C11.2857143,36.7261912 11.3422613,36.8601185 11.4553571,36.9732143 C11.5684529,37.0863101 11.7023802,37.1428571 11.8571429,37.1428571 L40.4285714,37.1428571 C40.5833341,37.1428571 40.7172613,37.0863101 40.8303571,36.9732143 C40.9434529,36.8601185 41,36.7261912 41,36.5714286 L41,14.8571429 C41,14.7023802 40.9434529,14.5684529 40.8303571,14.4553571 C40.7172613,14.3422613 40.5833341,14.2857143 40.4285714,14.2857143 Z M43.2857143,14.8571429 L43.2857143,36.5714286 C43.2857143,37.3571468 43.0059552,38.0297591 42.4464286,38.5892857 C41.886902,39.1488123 41.2142896,39.4285714 40.4285714,39.4285714 L11.8571429,39.4285714 C11.0714246,39.4285714 10.3988123,39.1488123 9.83928571,38.5892857 C9.27975911,38.0297591 9,37.3571468 9,36.5714286 L9,14.8571429 C9,14.0714246 9.27975911,13.3988123 9.83928571,12.8392857 C10.3988123,12.2797591 11.0714246,12 11.8571429,12 L40.4285714,12 C41.2142896,12 41.886902,12.2797591 42.4464286,12.8392857 C43.0059552,13.3988123 43.2857143,14.0714246 43.2857143,14.8571429 Z" id="" fill="#4C5358"></path>
                </g>
            </g>
        </g>
    </g>
</svg>