<?xml version="1.0" encoding="UTF-8"?>
<svg width="321px" height="70px" viewBox="0 0 321 70" version="1.1" xmlns="http://www.w3.org/2000/svg" xmlns:xlink="http://www.w3.org/1999/xlink">
    <!-- Generator: Sketch 47 (45396) - http://www.bohemiancoding.com/sketch -->
    <title>FixedTabs</title>
    <desc>Created with Sketch.</desc>
    <defs>
        <rect id="path-1" x="0" y="0" width="30" height="30" rx="3"></rect>
    </defs>
    <g id="Page-1" stroke="none" stroke-width="1" fill="none" fill-rule="evenodd">
        <g id="Buttons-Usage-extra-large-1200" transform="translate(-337.000000, -2117.000000)">
            <g id="FixedTabs" transform="translate(337.000000, 2117.000000)">
                <g id="Group-2-Copy">
                    <rect id="bg-copy" fill="#3E4F5B" x="0" y="0" width="321" height="70"></rect>
                    <path d="M99,41 L99,57" id="Line-Copy" stroke="#D2D6D9" stroke-linecap="square"></path>
                    <path d="M210,41 L210,57" id="Line-Copy-2" stroke="#D2D6D9" stroke-linecap="square"></path>
                    <path d="M33.696,43.824 L30.352,43.824 L30.352,42.704 L38.464,42.704 L38.464,43.824 L35.136,43.824 L35.136,54 L33.696,54 L33.696,43.824 Z M39.84,43.072 L41.168,43.072 L41.168,44.4 L39.84,44.4 L39.84,43.072 Z M39.84,46.128 L41.168,46.128 L41.168,54 L39.84,54 L39.84,46.128 Z M43.216,46.128 L44.368,46.128 L44.512,47.664 C44.704001,47.1199973 45.0026646,46.6906682 45.408,46.376 C45.8133354,46.0613318 46.3093304,45.904 46.896,45.904 C47.5146698,45.904 47.9999982,46.0799982 48.352,46.432 C48.7040018,46.7840018 48.9279995,47.2106642 49.024,47.712 C49.1200005,47.4666654 49.2399993,47.2346678 49.384,47.016 C49.5280007,46.7973322 49.7013323,46.6053342 49.904,46.44 C50.1066677,46.2746658 50.341332,46.1440005 50.608,46.048 C50.874668,45.9519995 51.178665,45.904 51.52,45.904 C51.9680022,45.904 52.3386652,45.9813326 52.632,46.136 C52.9253348,46.2906674 53.1599991,46.501332 53.336,46.768 C53.5120009,47.034668 53.637333,47.3466649 53.712,47.704 C53.786667,48.0613351 53.824,48.4373314 53.824,48.832 L53.824,54 L52.496,54 L52.496,49.168 C52.496,48.4639965 52.3706679,47.9386684 52.12,47.592 C51.8693321,47.2453316 51.5040024,47.072 51.024,47.072 C50.5013307,47.072 50.0640018,47.3039977 49.712,47.768 C49.3599982,48.2320023 49.184,48.8959957 49.184,49.76 L49.184,54 L47.856,54 L47.856,49.232 C47.856,48.4959963 47.7280013,47.9520018 47.472,47.6 C47.2159987,47.2479982 46.858669,47.072 46.4,47.072 C45.8879974,47.072 45.4506685,47.309331 45.088,47.784 C44.7253315,48.258669 44.544,48.9439955 44.544,49.84 L44.544,54 L43.216,54 L43.216,46.128 Z M56.848,50.368 C56.9013336,51.2746712 57.1333313,51.9759975 57.544,52.472 C57.9546687,52.9680025 58.5279963,53.216 59.264,53.216 C60.1920046,53.216 60.8906643,52.778671 61.36,51.904 L62.368,52.464 C62.0586651,52.9866693 61.6480026,53.4133317 61.136,53.744 C60.6239974,54.0746683 59.9786706,54.24 59.2,54.24 C58.5813302,54.24 58.0400023,54.1333344 57.576,53.92 C57.1119977,53.7066656 56.7253349,53.4133352 56.416,53.04 C56.1066651,52.6666648 55.8746674,52.2293358 55.72,51.728 C55.5653326,51.2266642 55.488,50.6880029 55.488,50.112 C55.488,49.5466638 55.5626659,49.0080026 55.712,48.496 C55.8613341,47.9839974 56.0879985,47.5360019 56.392,47.152 C56.6960015,46.7679981 57.0693311,46.4640011 57.512,46.24 C57.9546689,46.0159989 58.4746637,45.904 59.072,45.904 C59.6480029,45.904 60.1493312,46.0133322 60.576,46.232 C61.0026688,46.4506678 61.3573319,46.7439982 61.64,47.112 C61.9226681,47.4800018 62.1359993,47.9066642 62.28,48.392 C62.4240007,48.8773358 62.496,49.3919973 62.496,49.936 C62.496,50.0533339 62.4933334,50.1439997 62.488,50.208 C62.4826666,50.2720003 62.48,50.3253331 62.48,50.368 L56.848,50.368 Z M59.056,46.912 C58.3839966,46.912 57.8640018,47.1519976 57.496,47.632 C57.1279982,48.1120024 56.9173336,48.7573293 56.864,49.568 L61.136,49.568 C61.136,49.2373317 61.098667,48.9146682 61.024,48.6 C60.949333,48.2853318 60.8266675,48.0026679 60.656,47.752 C60.4853325,47.5013321 60.2693346,47.2986674 60.008,47.144 C59.7466654,46.9893326 59.4293352,46.912 59.056,46.912 Z" id="Time" fill="#D2D6D9"></path>
                    <path d="M252.12,42.704 L258.84,42.704 L258.84,43.824 L253.56,43.824 L253.56,47.536 L257.672,47.536 L257.672,48.656 L253.56,48.656 L253.56,52.88 L259.064,52.88 L259.064,54 L252.12,54 L252.12,42.704 Z M266.056,52.464 C265.842666,52.997336 265.528002,53.4186651 265.112,53.728 C264.695998,54.0373349 264.17867,54.192 263.56,54.192 C263.069331,54.192 262.629335,54.0906677 262.24,53.888 C261.850665,53.6853323 261.520001,53.4026685 261.248,53.04 C260.975999,52.6773315 260.768001,52.2400026 260.624,51.728 C260.479999,51.2159974 260.408,50.6506698 260.408,50.032 C260.408,49.3919968 260.482666,48.8186692 260.632,48.312 C260.781334,47.8053308 260.994665,47.3760018 261.272,47.024 C261.549335,46.6719982 261.882665,46.400001 262.272,46.208 C262.661335,46.015999 263.090664,45.92 263.56,45.92 C264.200003,45.92 264.722665,46.0719985 265.128,46.376 C265.533335,46.6800015 265.821332,47.0453312 265.992,47.472 L265.992,42.704 L267.336,42.704 L267.336,54 L266.056,54 L266.056,52.464 Z M265.992,50.016 C265.992,49.6853317 265.984,49.4266676 265.968,49.24 C265.952,49.0533324 265.933333,48.9013339 265.912,48.784 C265.858666,48.5493322 265.778667,48.3253344 265.672,48.112 C265.565333,47.8986656 265.429334,47.7093342 265.264,47.544 C265.098666,47.3786658 264.904001,47.2480005 264.68,47.152 C264.455999,47.0559995 264.200001,47.008 263.912,47.008 C263.549332,47.008 263.237335,47.0879992 262.976,47.248 C262.714665,47.4080008 262.496001,47.6239986 262.32,47.896 C262.143999,48.1680014 262.013334,48.4879982 261.928,48.856 C261.842666,49.2240018 261.8,49.6159979 261.8,50.032 C261.8,50.4800022 261.848,50.8933314 261.944,51.272 C262.04,51.6506686 262.178666,51.9759986 262.36,52.248 C262.541334,52.5200014 262.765332,52.7333326 263.032,52.888 C263.298668,53.0426674 263.602665,53.12 263.944,53.12 C264.210668,53.12 264.453332,53.0720005 264.672,52.976 C264.890668,52.8799995 265.082666,52.7466675 265.248,52.576 C265.413334,52.4053325 265.549333,52.2106678 265.656,51.992 C265.762667,51.7733322 265.842666,51.5413346 265.896,51.296 C265.96,50.9973318 265.992,50.5973358 265.992,50.096 L265.992,50.016 Z M269.368,43.072 L270.696,43.072 L270.696,44.4 L269.368,44.4 L269.368,43.072 Z M269.368,46.128 L270.696,46.128 L270.696,54 L269.368,54 L269.368,46.128 Z M273.432,47.04 L272.088,47.04 L272.088,46.128 L272.376,46.128 C272.706668,46.128 272.965332,46.0933337 273.152,46.024 C273.338668,45.9546663 273.48,45.8480007 273.576,45.704 C273.672,45.5599993 273.741333,45.3706678 273.784,45.136 C273.826667,44.9013322 273.864,44.613335 273.896,44.272 L273.928,43.984 L274.76,43.984 L274.76,46.128 L276.456,46.128 L276.456,47.04 L274.76,47.04 L274.76,51.936 C274.76,52.3840022 274.826666,52.7066657 274.96,52.904 C275.093334,53.1013343 275.341332,53.2 275.704,53.2 C275.992001,53.2 276.258665,53.1360006 276.504,53.008 L276.648,53.968 C276.242665,54.1493342 275.794669,54.24 275.304,54.24 C274.919998,54.24 274.608001,54.1866672 274.368,54.08 C274.127999,53.9733328 273.938667,53.8293342 273.8,53.648 C273.661333,53.4666658 273.565334,53.2480013 273.512,52.992 C273.458666,52.7359987 273.432,52.4586682 273.432,52.16 L273.432,47.04 Z" id="H5-Regular-16--Copy" fill="#FFFFFF"></path>
                    <path d="M118.12,42.704 L121.528,42.704 C123.48001,42.704 124.914662,43.1759953 125.832,44.12 C126.749338,45.0640047 127.208,46.4799906 127.208,48.368 C127.208,50.1920091 126.749338,51.5866618 125.832,52.552 C124.914662,53.5173382 123.538676,54 121.704,54 L118.12,54 L118.12,42.704 Z M121.592,52.88 C122.360004,52.88 123.005331,52.7680011 123.528,52.544 C124.050669,52.3199989 124.471998,52.008002 124.792,51.608 C125.112002,51.207998 125.338666,50.7280028 125.472,50.168 C125.605334,49.6079972 125.672,48.9973366 125.672,48.336 C125.672,47.6959968 125.605334,47.1013361 125.472,46.552 C125.338666,46.0026639 125.112002,45.5253354 124.792,45.12 C124.471998,44.7146646 124.040003,44.3973345 123.496,44.168 C122.951997,43.9386655 122.269337,43.824 121.448,43.824 L119.56,43.824 L119.56,52.88 L121.592,52.88 Z M129.912,50.368 C129.965334,51.2746712 130.197331,51.9759975 130.608,52.472 C131.018669,52.9680025 131.591996,53.216 132.328,53.216 C133.256005,53.216 133.954664,52.778671 134.424,51.904 L135.432,52.464 C135.122665,52.9866693 134.712003,53.4133317 134.2,53.744 C133.687997,54.0746683 133.042671,54.24 132.264,54.24 C131.64533,54.24 131.104002,54.1333344 130.64,53.92 C130.175998,53.7066656 129.789335,53.4133352 129.48,53.04 C129.170665,52.6666648 128.938667,52.2293358 128.784,51.728 C128.629333,51.2266642 128.552,50.6880029 128.552,50.112 C128.552,49.5466638 128.626666,49.0080026 128.776,48.496 C128.925334,47.9839974 129.151998,47.5360019 129.456,47.152 C129.760002,46.7679981 130.133331,46.4640011 130.576,46.24 C131.018669,46.0159989 131.538664,45.904 132.136,45.904 C132.712003,45.904 133.213331,46.0133322 133.64,46.232 C134.066669,46.4506678 134.421332,46.7439982 134.704,47.112 C134.986668,47.4800018 135.199999,47.9066642 135.344,48.392 C135.488001,48.8773358 135.56,49.3919973 135.56,49.936 C135.56,50.0533339 135.557333,50.1439997 135.552,50.208 C135.546667,50.2720003 135.544,50.3253331 135.544,50.368 L129.912,50.368 Z M132.12,46.912 C131.447997,46.912 130.928002,47.1519976 130.56,47.632 C130.191998,48.1120024 129.981334,48.7573293 129.928,49.568 L134.2,49.568 C134.2,49.2373317 134.162667,48.9146682 134.088,48.6 C134.013333,48.2853318 133.890668,48.0026679 133.72,47.752 C133.549332,47.5013321 133.333335,47.2986674 133.072,47.144 C132.810665,46.9893326 132.493335,46.912 132.12,46.912 Z M137.176,46.128 L138.504,46.128 L138.504,47.648 C138.6,47.4239989 138.722666,47.2053344 138.872,46.992 C139.021334,46.7786656 139.199999,46.5920008 139.408,46.432 C139.616001,46.2719992 139.858665,46.1440005 140.136,46.048 C140.413335,45.9519995 140.727998,45.904 141.08,45.904 C141.592003,45.904 142.037331,46.0106656 142.416,46.224 C142.794669,46.4373344 143.106665,46.7306648 143.352,47.104 C143.597335,47.4773352 143.781333,47.9119975 143.904,48.408 C144.026667,48.9040025 144.088,49.4399971 144.088,50.016 C144.088,50.6986701 144.008001,51.3013307 143.848,51.824 C143.687999,52.3466693 143.464001,52.7839982 143.176,53.136 C142.887999,53.4880018 142.552002,53.7546658 142.168,53.936 C141.783998,54.1173342 141.368002,54.208 140.92,54.208 C140.33333,54.208 139.829335,54.0640014 139.408,53.776 C138.986665,53.4879986 138.685334,53.1306688 138.504,52.704 L138.504,56.768 L137.176,56.768 L137.176,46.128 Z M138.504,50.112 C138.504,50.3360011 138.512,50.5413324 138.528,50.728 C138.544,50.9146676 138.562667,51.0719994 138.584,51.2 C138.626667,51.4560013 138.706666,51.7013322 138.824,51.936 C138.941334,52.1706678 139.085332,52.3759991 139.256,52.552 C139.426668,52.7280009 139.626666,52.8693328 139.856,52.976 C140.085334,53.0826672 140.338665,53.136 140.616,53.136 C140.978668,53.136 141.290665,53.0506675 141.552,52.88 C141.813335,52.7093325 142.029332,52.4800014 142.2,52.192 C142.370668,51.9039986 142.496,51.5760018 142.576,51.208 C142.656,50.8399982 142.696,50.4586686 142.696,50.064 C142.696,49.6693314 142.658667,49.2880018 142.584,48.92 C142.509333,48.5519982 142.389334,48.2266681 142.224,47.944 C142.058666,47.6613319 141.842668,47.4346675 141.576,47.264 C141.309332,47.0933325 140.989335,47.008 140.616,47.008 C140.327999,47.008 140.064001,47.0613328 139.824,47.168 C139.583999,47.2746672 139.378668,47.4186658 139.208,47.6 C139.037332,47.7813342 138.896001,47.9893322 138.784,48.224 C138.671999,48.4586678 138.6,48.7039987 138.568,48.96 C138.546667,49.0666672 138.530667,49.2133324 138.52,49.4 C138.509333,49.5866676 138.504,49.8026654 138.504,50.048 L138.504,50.112 Z M150.728,54 C150.610666,53.6159981 150.541333,53.157336 150.52,52.624 C150.306666,53.1146691 149.978669,53.5066652 149.536,53.8 C149.093331,54.0933348 148.568003,54.24 147.96,54.24 C147.191996,54.24 146.584002,54.0213355 146.136,53.584 C145.687998,53.1466645 145.464,52.5600037 145.464,51.824 C145.464,51.4079979 145.538666,51.0586681 145.688,50.776 C145.837334,50.4933319 146.045332,50.2586676 146.312,50.072 C146.578668,49.8853324 146.893332,49.7386672 147.256,49.632 C147.618668,49.5253328 148.013331,49.4400003 148.44,49.376 L150.456,49.072 L150.456,48.576 C150.456,48.2239982 150.413334,47.9413344 150.328,47.728 C150.242666,47.5146656 150.125334,47.3493339 149.976,47.232 C149.826666,47.1146661 149.656001,47.0373335 149.464,47 C149.271999,46.9626665 149.069334,46.944 148.856,46.944 C148.247997,46.944 147.746669,47.0559989 147.352,47.28 C146.957331,47.5040011 146.626668,47.786665 146.36,48.128 L145.672,47.264 C145.981335,46.8906648 146.410664,46.570668 146.96,46.304 C147.509336,46.037332 148.189329,45.904 149,45.904 C149.981338,45.904 150.693331,46.1226645 151.136,46.56 C151.578669,46.9973355 151.8,47.7013285 151.8,48.672 L151.8,51.856 C151.8,52.1120013 151.802667,52.335999 151.808,52.528 C151.813333,52.720001 151.824,52.8986658 151.84,53.064 C151.856,53.2293342 151.88,53.3866659 151.912,53.536 C151.944,53.6853341 151.986666,53.8399992 152.04,54 L150.728,54 Z M150.456,49.952 L148.568,50.256 C147.91733,50.3733339 147.456001,50.5493322 147.184,50.784 C146.911999,51.0186678 146.776,51.3439979 146.776,51.76 C146.776,52.1866688 146.901332,52.5439986 147.152,52.832 C147.402668,53.1200014 147.773331,53.264 148.264,53.264 C148.562668,53.264 148.845332,53.2053339 149.112,53.088 C149.378668,52.9706661 149.610666,52.808001 149.808,52.6 C150.005334,52.391999 150.162666,52.1413348 150.28,51.848 C150.397334,51.5546652 150.456,51.2320018 150.456,50.88 L150.456,49.952 Z M153.928,46.128 L155.08,46.128 L155.208,47.888 C155.432001,47.3119971 155.789331,46.8373352 156.28,46.464 C156.770669,46.0906648 157.351997,45.904 158.024,45.904 L158.024,47.312 C157.874666,47.2799998 157.709334,47.264 157.528,47.264 C157.261332,47.264 156.994668,47.3119995 156.728,47.408 C156.461332,47.5040005 156.218668,47.6586656 156,47.872 C155.781332,48.0853344 155.602667,48.3599983 155.464,48.696 C155.325333,49.0320017 155.256,49.4399976 155.256,49.92 L155.256,54 L153.928,54 L153.928,46.128 Z M160.024,47.04 L158.68,47.04 L158.68,46.128 L158.968,46.128 C159.298668,46.128 159.557332,46.0933337 159.744,46.024 C159.930668,45.9546663 160.072,45.8480007 160.168,45.704 C160.264,45.5599993 160.333333,45.3706678 160.376,45.136 C160.418667,44.9013322 160.456,44.613335 160.488,44.272 L160.52,43.984 L161.352,43.984 L161.352,46.128 L163.048,46.128 L163.048,47.04 L161.352,47.04 L161.352,51.936 C161.352,52.3840022 161.418666,52.7066657 161.552,52.904 C161.685334,53.1013343 161.933332,53.2 162.296,53.2 C162.584001,53.2 162.850665,53.1360006 163.096,53.008 L163.24,53.968 C162.834665,54.1493342 162.386669,54.24 161.896,54.24 C161.511998,54.24 161.200001,54.1866672 160.96,54.08 C160.719999,53.9733328 160.530667,53.8293342 160.392,53.648 C160.253333,53.4666658 160.157334,53.2480013 160.104,52.992 C160.050666,52.7359987 160.024,52.4586682 160.024,52.16 L160.024,47.04 Z M164.616,46.128 L165.96,46.128 L165.96,50.896 C165.96,51.6426704 166.098665,52.1893316 166.376,52.536 C166.653335,52.8826684 167.042664,53.056 167.544,53.056 C168.184003,53.056 168.682665,52.8026692 169.04,52.296 C169.397335,51.7893308 169.576,51.1146709 169.576,50.272 L169.576,46.128 L170.904,46.128 L170.904,54 L169.656,54 L169.656,52.4 C169.56,52.6453346 169.442667,52.8773322 169.304,53.096 C169.165333,53.3146678 168.994668,53.5066658 168.792,53.672 C168.589332,53.8373342 168.354668,53.9679995 168.088,54.064 C167.821332,54.1600005 167.506668,54.208 167.144,54.208 C166.290662,54.208 165.656002,53.9493359 165.24,53.432 C164.823998,52.9146641 164.616,52.1813381 164.616,51.232 L164.616,46.128 Z M172.952,46.128 L174.104,46.128 L174.232,47.888 C174.456001,47.3119971 174.813331,46.8373352 175.304,46.464 C175.794669,46.0906648 176.375997,45.904 177.048,45.904 L177.048,47.312 C176.898666,47.2799998 176.733334,47.264 176.552,47.264 C176.285332,47.264 176.018668,47.3119995 175.752,47.408 C175.485332,47.5040005 175.242668,47.6586656 175.024,47.872 C174.805332,48.0853344 174.626667,48.3599983 174.488,48.696 C174.349333,49.0320017 174.28,49.4399976 174.28,49.92 L174.28,54 L172.952,54 L172.952,46.128 Z M179.368,50.368 C179.421334,51.2746712 179.653331,51.9759975 180.064,52.472 C180.474669,52.9680025 181.047996,53.216 181.784,53.216 C182.712005,53.216 183.410664,52.778671 183.88,51.904 L184.888,52.464 C184.578665,52.9866693 184.168003,53.4133317 183.656,53.744 C183.143997,54.0746683 182.498671,54.24 181.72,54.24 C181.10133,54.24 180.560002,54.1333344 180.096,53.92 C179.631998,53.7066656 179.245335,53.4133352 178.936,53.04 C178.626665,52.6666648 178.394667,52.2293358 178.24,51.728 C178.085333,51.2266642 178.008,50.6880029 178.008,50.112 C178.008,49.5466638 178.082666,49.0080026 178.232,48.496 C178.381334,47.9839974 178.607998,47.5360019 178.912,47.152 C179.216002,46.7679981 179.589331,46.4640011 180.032,46.24 C180.474669,46.0159989 180.994664,45.904 181.592,45.904 C182.168003,45.904 182.669331,46.0133322 183.096,46.232 C183.522669,46.4506678 183.877332,46.7439982 184.16,47.112 C184.442668,47.4800018 184.655999,47.9066642 184.8,48.392 C184.944001,48.8773358 185.016,49.3919973 185.016,49.936 C185.016,50.0533339 185.013333,50.1439997 185.008,50.208 C185.002667,50.2720003 185,50.3253331 185,50.368 L179.368,50.368 Z M181.576,46.912 C180.903997,46.912 180.384002,47.1519976 180.016,47.632 C179.647998,48.1120024 179.437334,48.7573293 179.384,49.568 L183.656,49.568 C183.656,49.2373317 183.618667,48.9146682 183.544,48.6 C183.469333,48.2853318 183.346668,48.0026679 183.176,47.752 C183.005332,47.5013321 182.789335,47.2986674 182.528,47.144 C182.266665,46.9893326 181.949335,46.912 181.576,46.912 Z M186.776,52.064 C187.042668,52.405335 187.386665,52.6879989 187.808,52.912 C188.229335,53.1360011 188.690664,53.248 189.192,53.248 C189.640002,53.248 190.029332,53.1413344 190.36,52.928 C190.690668,52.7146656 190.856,52.3946688 190.856,51.968 C190.856,51.6373317 190.746668,51.3786676 190.528,51.192 C190.309332,51.0053324 190.037335,50.8480006 189.712,50.72 C189.386665,50.5919994 189.032002,50.4746672 188.648,50.368 C188.263998,50.2613328 187.909335,50.1226675 187.584,49.952 C187.258665,49.7813325 186.986668,49.5573347 186.768,49.28 C186.549332,49.0026653 186.44,48.6240024 186.44,48.144 C186.44,47.7493314 186.519999,47.4106681 186.68,47.128 C186.840001,46.8453319 187.050665,46.6133342 187.312,46.432 C187.573335,46.2506658 187.874665,46.1173338 188.216,46.032 C188.557335,45.9466662 188.914665,45.904 189.288,45.904 C190.397339,45.904 191.319996,46.2239968 192.056,46.864 L191.384,47.76 C191.149332,47.5146654 190.837335,47.3093342 190.448,47.144 C190.058665,46.9786658 189.656002,46.896 189.24,46.896 C189.058666,46.896 188.880001,46.9173331 188.704,46.96 C188.527999,47.0026669 188.373334,47.0693329 188.24,47.16 C188.106666,47.2506671 188,47.3653326 187.92,47.504 C187.84,47.6426674 187.8,47.8133323 187.8,48.016 C187.8,48.3253349 187.909332,48.5653325 188.128,48.736 C188.346668,48.9066675 188.618665,49.0533327 188.944,49.176 C189.269335,49.2986673 189.621331,49.4159994 190,49.528 C190.378669,49.6400006 190.730665,49.7839991 191.056,49.96 C191.381335,50.1360009 191.653332,50.3679986 191.872,50.656 C192.090668,50.9440014 192.2,51.3279976 192.2,51.808 C192.2,52.2133354 192.117334,52.5679985 191.952,52.872 C191.786666,53.1760015 191.568001,53.4293323 191.296,53.632 C191.023999,53.8346677 190.709335,53.9866662 190.352,54.088 C189.994665,54.1893338 189.624002,54.24 189.24,54.24 C187.917327,54.24 186.866671,53.8133376 186.088,52.96 L186.776,52.064 Z" id="H5-Regular-16--Copy-2" fill="#D2D6D9"></path>
                    <path d="M49,15.7142857 L49,21.7142857 C49,21.8392863 48.9598218,21.9419639 48.8794643,22.0223214 C48.7991067,22.102679 48.6964292,22.1428571 48.5714286,22.1428571 L44.2857143,22.1428571 C44.1607137,22.1428571 44.0580361,22.102679 43.9776786,22.0223214 C43.897321,21.9419639 43.8571429,21.8392863 43.8571429,21.7142857 L43.8571429,20.8571429 C43.8571429,20.7321422 43.897321,20.6294647 43.9776786,20.5491071 C44.0580361,20.4687496 44.1607137,20.4285714 44.2857143,20.4285714 L47.2857143,20.4285714 L47.2857143,15.7142857 C47.2857143,15.5892851 47.3258925,15.4866075 47.40625,15.40625 C47.4866075,15.3258925 47.5892851,15.2857143 47.7142857,15.2857143 L48.5714286,15.2857143 C48.6964292,15.2857143 48.7991067,15.3258925 48.8794643,15.40625 C48.9598218,15.4866075 49,15.5892851 49,15.7142857 Z M53.59375,24.0848214 C54.245539,22.9687444 54.5714286,21.7500066 54.5714286,20.4285714 C54.5714286,19.1071362 54.245539,17.8883984 53.59375,16.7723214 C52.941961,15.6562444 52.0580413,14.7723247 50.9419643,14.1205357 C49.8258873,13.4687467 48.6071495,13.1428571 47.2857143,13.1428571 C45.9642791,13.1428571 44.7455413,13.4687467 43.6294643,14.1205357 C42.5133873,14.7723247 41.6294675,15.6562444 40.9776786,16.7723214 C40.3258896,17.8883984 40,19.1071362 40,20.4285714 C40,21.7500066 40.3258896,22.9687444 40.9776786,24.0848214 C41.6294675,25.2008984 42.5133873,26.0848182 43.6294643,26.7366071 C44.7455413,27.3883961 45.9642791,27.7142857 47.2857143,27.7142857 C48.6071495,27.7142857 49.8258873,27.3883961 50.9419643,26.7366071 C52.0580413,26.0848182 52.941961,25.2008984 53.59375,24.0848214 Z M56.1919643,15.2723214 C57.1116117,16.8437579 57.5714286,18.5624907 57.5714286,20.4285714 C57.5714286,22.2946522 57.1116117,24.0156171 56.1919643,25.5915179 C55.2723168,27.1674186 54.0245615,28.415174 52.4486607,29.3348214 C50.87276,30.2544689 49.151795,30.7142857 47.2857143,30.7142857 C45.4196335,30.7142857 43.6986686,30.2544689 42.1227679,29.3348214 C40.5468671,28.415174 39.2991117,27.1674186 38.3794643,25.5915179 C37.4598168,24.0156171 37,22.2946522 37,20.4285714 C37,18.5624907 37.4598168,16.8415257 38.3794643,15.265625 C39.2991117,13.6897243 40.5468671,12.4419689 42.1227679,11.5223214 C43.6986686,10.602674 45.4196335,10.1428571 47.2857143,10.1428571 C49.151795,10.1428571 50.87276,10.602674 52.4486607,11.5223214 C54.0245615,12.4419689 55.2723168,13.6919564 56.1919643,15.2723214 Z" id="Clock-Outlined---FontAwesome" fill="#D2D6D9"></path>
                    <path d="M163.65625,10.2779018 C163.926341,10.4743313 164.036831,10.7362335 163.987723,11.0636161 L160.844866,29.9207589 C160.803943,30.1581113 160.672992,30.3422612 160.452009,30.4732143 C160.337425,30.5386908 160.210566,30.5714286 160.071429,30.5714286 C159.981398,30.5714286 159.883185,30.5509675 159.776786,30.5100446 L154.215402,28.2388393 L151.24442,31.8604911 C151.097097,32.0487361 150.896579,32.1428571 150.642857,32.1428571 C150.536458,32.1428571 150.446429,32.1264883 150.372768,32.09375 C150.217261,32.036458 150.092448,31.9402909 149.998326,31.8052455 C149.904203,31.6702002 149.857143,31.5208342 149.857143,31.3571429 L149.857143,27.0725446 L160.464286,14.0714286 L147.340402,25.4274554 L142.491071,23.4386161 C142.188243,23.3240322 142.024554,23.09896 142,22.7633929 C141.983631,22.4360103 142.114582,22.1945692 142.392857,22.0390625 L162.821429,10.2533482 C162.944197,10.1796871 163.075148,10.1428571 163.214286,10.1428571 C163.377977,10.1428571 163.525297,10.1878716 163.65625,10.2779018 Z" id="paper-plane---FontAwesome" fill="#D2D6D9"></path>
                </g>
                <path d="M99.5,68.5 L208.5,68.5" id="Active-line-Copy-2" stroke="#BFDC24" stroke-width="3" stroke-linecap="square"></path>
                <g id="Button-icon-52-Copy-5" transform="translate(250.000000, 5.000000)">
                    <g id="Rectangle-Copy-2">
                        <use fill="#FFFFFF" fill-rule="evenodd" xlink:href="#path-1"></use>
                        <rect stroke="#A9B1B5" stroke-width="1" x="0.5" y="0.5" width="29" height="29" rx="3"></rect>
                    </g>
                    <path d="M10.8164062,21.9375 L11.8828125,20.8710938 L9.12890625,18.1171875 L8.0625,19.1835938 L8.0625,20.4375 L9.5625,20.4375 L9.5625,21.9375 L10.8164062,21.9375 Z M16.9453125,11.0625 C16.9453125,10.8906241 16.8593759,10.8046875 16.6875,10.8046875 C16.6093746,10.8046875 16.542969,10.832031 16.4882812,10.8867188 L10.1367188,17.2382812 C10.082031,17.292969 10.0546875,17.3593746 10.0546875,17.4375 C10.0546875,17.6093759 10.1406241,17.6953125 10.3125,17.6953125 C10.3906254,17.6953125 10.457031,17.667969 10.5117188,17.6132812 L16.8632812,11.2617188 C16.917969,11.207031 16.9453125,11.1406254 16.9453125,11.0625 Z M16.3125,8.8125 L21.1875,13.6875 L11.4375,23.4375 L6.5625,23.4375 L6.5625,18.5625 L16.3125,8.8125 Z M24.3164062,9.9375 C24.3164062,10.3515646 24.1718764,10.7031236 23.8828125,10.9921875 L21.9375,12.9375 L17.0625,8.0625 L19.0078125,6.12890625 C19.2890639,5.83202977 19.6406229,5.68359375 20.0625,5.68359375 C20.4765646,5.68359375 20.8320298,5.83202977 21.1289062,6.12890625 L23.8828125,8.87109375 C24.1718764,9.17578277 24.3164062,9.53124797 24.3164062,9.9375 Z" id="ï€-copy-2" fill="#334652"></path>
                </g>
            </g>
        </g>
    </g>
</svg>