<?xml version="1.0" encoding="UTF-8"?>
<svg width="272px" height="217px" viewBox="0 0 272 217" version="1.1" xmlns="http://www.w3.org/2000/svg" xmlns:xlink="http://www.w3.org/1999/xlink">
    <!-- Generator: Sketch 47 (45396) - http://www.bohemiancoding.com/sketch -->
    <title>ExtraNoise</title>
    <desc>Created with Sketch.</desc>
    <defs>
        <rect id="path-1" x="0" y="48" width="272" height="25"></rect>
        <rect id="path-2" x="0" y="72" width="272" height="25"></rect>
        <rect id="path-3" x="0" y="96" width="272" height="25"></rect>
        <rect id="path-4" x="0" y="24" width="272" height="25"></rect>
        <rect id="path-5" x="0" y="0" width="272" height="25"></rect>
        <rect id="path-6" x="0" y="120" width="272" height="25"></rect>
        <rect id="path-7" x="0" y="144" width="272" height="25"></rect>
        <rect id="path-8" x="0" y="168" width="272" height="25"></rect>
        <rect id="path-9" x="0" y="192" width="272" height="25"></rect>
    </defs>
    <g id="Page-1" stroke="none" stroke-width="1" fill="none" fill-rule="evenodd">
        <g id="Buttons-Usage-extra-large-1200" transform="translate(-805.000000, -2379.000000)">
            <g id="Group-6" transform="translate(296.000000, 2331.000000)">
                <g id="ExtraNoise" transform="translate(509.000000, 48.000000)">
                    <g id="Rectangle-Copy-3">
                        <use fill="#FFFFFF" fill-rule="evenodd" xlink:href="#path-1"></use>
                        <rect stroke="#D2D6D9" stroke-width="1" x="0.5" y="48.5" width="271" height="24"></rect>
                    </g>
                    <g id="Rectangle-Copy-6">
                        <use fill="#FFFFFF" fill-rule="evenodd" xlink:href="#path-2"></use>
                        <rect stroke="#D2D6D9" stroke-width="1" x="0.5" y="72.5" width="271" height="24"></rect>
                    </g>
                    <g id="Rectangle-Copy-7">
                        <use fill="#FFFFFF" fill-rule="evenodd" xlink:href="#path-3"></use>
                        <rect stroke="#D2D6D9" stroke-width="1" x="0.5" y="96.5" width="271" height="24"></rect>
                    </g>
                    <g id="Rectangle-Copy-4">
                        <use fill="#FFFFFF" fill-rule="evenodd" xlink:href="#path-4"></use>
                        <rect stroke="#D2D6D9" stroke-width="1" x="0.5" y="24.5" width="271" height="24"></rect>
                    </g>
                    <g id="Rectangle-Copy-5">
                        <use fill="#EFF1F1" fill-rule="evenodd" xlink:href="#path-5"></use>
                        <rect stroke="#D2D6D9" stroke-width="1" x="0.5" y="0.5" width="271" height="24"></rect>
                    </g>
                    <rect id="Rectangle-3" fill="#AAB1B6" x="10" y="11" width="32" height="3" rx="1.5"></rect>
                    <rect id="Rectangle-3-Copy-5" fill="#AAB1B6" x="85" y="11" width="32" height="3" rx="1.5"></rect>
                    <rect id="Rectangle-3-Copy-8" fill="#AAB1B6" x="143" y="11" width="21" height="3" rx="1.5"></rect>
                    <rect id="Rectangle-3-Copy-11" fill="#AAB1B6" x="190" y="11" width="21" height="3" rx="1.5"></rect>
                    <rect id="Rectangle-3-Copy-41" fill="#AAB1B6" x="233" y="11" width="21" height="3" rx="1.5"></rect>
                    <rect id="Rectangle-3-Copy-3" fill="#D2D6D9" x="10" y="35" width="32" height="3" rx="1.5"></rect>
                    <rect id="Rectangle-3-Copy-6" fill="#D2D6D9" x="85" y="35" width="21" height="3" rx="1.5"></rect>
                    <rect id="Rectangle-3-Copy-9" fill="#D2D6D9" x="143" y="35" width="14" height="3" rx="1.5"></rect>
                    <rect id="Rectangle-3-Copy-12" fill="#D2D6D9" x="190" y="35" width="14" height="3" rx="1.5"></rect>
                    <rect id="Rectangle-3-Copy-42" fill="#D2D6D9" x="233" y="35" width="14" height="3" rx="1.5"></rect>
                    <g id="Rectangle-Copy-22">
                        <use fill="#FFFFFF" fill-rule="evenodd" xlink:href="#path-6"></use>
                        <rect stroke="#D2D6D9" stroke-width="1" x="0.5" y="120.5" width="271" height="24"></rect>
                    </g>
                    <rect id="Rectangle-3-Copy-73" fill="#D2D6D9" x="10" y="131" width="32" height="3" rx="1.5"></rect>
                    <rect id="Rectangle-3-Copy-74" fill="#D2D6D9" x="85" y="131" width="23" height="3" rx="1.5"></rect>
                    <rect id="Rectangle-3-Copy-75" fill="#D2D6D9" x="143" y="131" width="14" height="3" rx="1.5"></rect>
                    <rect id="Rectangle-3-Copy-76" fill="#D2D6D9" x="190" y="131" width="14" height="3" rx="1.5"></rect>
                    <rect id="Rectangle-3-Copy-77" fill="#D2D6D9" x="233" y="131" width="14" height="3" rx="1.5"></rect>
                    <g id="Rectangle-Copy-23">
                        <use fill="#FFFFFF" fill-rule="evenodd" xlink:href="#path-7"></use>
                        <rect stroke="#D2D6D9" stroke-width="1" x="0.5" y="144.5" width="271" height="24"></rect>
                    </g>
                    <rect id="Rectangle-3-Copy-78" fill="#D2D6D9" x="10" y="155" width="32" height="3" rx="1.5"></rect>
                    <rect id="Rectangle-3-Copy-79" fill="#D2D6D9" x="85" y="155" width="26" height="3" rx="1.5"></rect>
                    <rect id="Rectangle-3-Copy-80" fill="#D2D6D9" x="143" y="155" width="14" height="3" rx="1.5"></rect>
                    <rect id="Rectangle-3-Copy-81" fill="#D2D6D9" x="190" y="155" width="14" height="3" rx="1.5"></rect>
                    <rect id="Rectangle-3-Copy-82" fill="#D2D6D9" x="233" y="155" width="14" height="3" rx="1.5"></rect>
                    <g id="Rectangle-Copy-24">
                        <use fill="#FFFFFF" fill-rule="evenodd" xlink:href="#path-8"></use>
                        <rect stroke="#D2D6D9" stroke-width="1" x="0.5" y="168.5" width="271" height="24"></rect>
                    </g>
                    <rect id="Rectangle-3-Copy-83" fill="#D2D6D9" x="10" y="179" width="32" height="3" rx="1.5"></rect>
                    <rect id="Rectangle-3-Copy-84" fill="#D2D6D9" x="85" y="179" width="27" height="3" rx="1.5"></rect>
                    <rect id="Rectangle-3-Copy-85" fill="#D2D6D9" x="143" y="179" width="14" height="3" rx="1.5"></rect>
                    <rect id="Rectangle-3-Copy-86" fill="#D2D6D9" x="190" y="179" width="14" height="3" rx="1.5"></rect>
                    <rect id="Rectangle-3-Copy-87" fill="#D2D6D9" x="233" y="179" width="14" height="3" rx="1.5"></rect>
                    <g id="Rectangle-Copy-25">
                        <use fill="#FFFFFF" fill-rule="evenodd" xlink:href="#path-9"></use>
                        <rect stroke="#D2D6D9" stroke-width="1" x="0.5" y="192.5" width="271" height="24"></rect>
                    </g>
                    <rect id="Rectangle-3-Copy-88" fill="#D2D6D9" x="10" y="203" width="32" height="3" rx="1.5"></rect>
                    <rect id="Rectangle-3-Copy-89" fill="#D2D6D9" x="85" y="203" width="24" height="3" rx="1.5"></rect>
                    <path d="M114.249043,35.3334546 C114.249043,34.8733409 114.078184,34.480555 113.736465,34.1550969 C113.394746,33.8296387 112.982336,33.6669097 112.499234,33.6669097 C112.016133,33.6669097 111.603722,33.8296387 111.262004,34.1550969 C110.920285,34.480555 110.749426,34.8733409 110.749426,35.3334546 C110.749426,35.7935683 110.920285,36.1863542 111.262004,36.5118123 C111.603722,36.8372705 112.016133,36.9999995 112.499234,36.9999995 C112.982336,36.9999995 113.394746,36.8372705 113.736465,36.5118123 C114.078184,36.1863542 114.249043,35.7935683 114.249043,35.3334546 L114.249043,35.3334546 Z M115.999234,35.3334546 C115.999234,35.8064505 115.924077,36.1948613 115.773761,36.4986871 L113.285519,41.5376977 C113.212531,41.6808604 113.104324,41.793762 112.960899,41.8764026 C112.817474,41.9590432 112.663714,42.000242 112.499617,41.9999989 C112.335521,41.9997559 112.18176,41.9585571 112.038335,41.8764026 C111.89491,41.7942481 111.789001,41.6813465 111.720606,41.5376977 L109.225473,36.4986871 C109.075158,36.1948613 109,35.8064505 109,35.3334546 C109,34.4132272 109.341846,33.6276554 110.025539,32.9767391 C110.709231,32.3258229 111.534052,32.0002432 112.5,32.0000001 C113.465948,31.9997571 114.290769,32.3253367 114.974461,32.9767391 C115.658154,33.6281415 116,34.4137133 116,35.3334546 L115.999234,35.3334546 Z" id="Shape" fill="#4C5358" fill-rule="nonzero"></path>
                    <path d="M114.249043,59.3334546 C114.249043,58.8733409 114.078184,58.480555 113.736465,58.1550969 C113.394746,57.8296387 112.982336,57.6669097 112.499234,57.6669097 C112.016133,57.6669097 111.603722,57.8296387 111.262004,58.1550969 C110.920285,58.480555 110.749426,58.8733409 110.749426,59.3334546 C110.749426,59.7935683 110.920285,60.1863542 111.262004,60.5118123 C111.603722,60.8372705 112.016133,60.9999995 112.499234,60.9999995 C112.982336,60.9999995 113.394746,60.8372705 113.736465,60.5118123 C114.078184,60.1863542 114.249043,59.7935683 114.249043,59.3334546 L114.249043,59.3334546 Z M115.999234,59.3334546 C115.999234,59.8064505 115.924077,60.1948613 115.773761,60.4986871 L113.285519,65.5376977 C113.212531,65.6808604 113.104324,65.793762 112.960899,65.8764026 C112.817474,65.9590432 112.663714,66.000242 112.499617,65.9999989 C112.335521,65.9997559 112.18176,65.9585571 112.038335,65.8764026 C111.89491,65.7942481 111.789001,65.6813465 111.720606,65.5376977 L109.225473,60.4986871 C109.075158,60.1948613 109,59.8064505 109,59.3334546 C109,58.4132272 109.341846,57.6276554 110.025539,56.9767391 C110.709231,56.3258229 111.534052,56.0002432 112.5,56.0000001 C113.465948,55.9997571 114.290769,56.3253367 114.974461,56.9767391 C115.658154,57.6281415 116,58.4137133 116,59.3334546 L115.999234,59.3334546 Z" id="Shape" fill="#4C5358" fill-rule="nonzero"></path>
                    <path d="M107.249043,83.3334546 C107.249043,82.8733409 107.078184,82.480555 106.736465,82.1550969 C106.394746,81.8296387 105.982336,81.6669097 105.499234,81.6669097 C105.016133,81.6669097 104.603722,81.8296387 104.262004,82.1550969 C103.920285,82.480555 103.749426,82.8733409 103.749426,83.3334546 C103.749426,83.7935683 103.920285,84.1863542 104.262004,84.5118123 C104.603722,84.8372705 105.016133,84.9999995 105.499234,84.9999995 C105.982336,84.9999995 106.394746,84.8372705 106.736465,84.5118123 C107.078184,84.1863542 107.249043,83.7935683 107.249043,83.3334546 L107.249043,83.3334546 Z M108.999234,83.3334546 C108.999234,83.8064505 108.924077,84.1948613 108.773761,84.4986871 L106.285519,89.5376977 C106.212531,89.6808604 106.104324,89.793762 105.960899,89.8764026 C105.817474,89.9590432 105.663714,90.000242 105.499617,89.9999989 C105.335521,89.9997559 105.18176,89.9585571 105.038335,89.8764026 C104.89491,89.7942481 104.789001,89.6813465 104.720606,89.5376977 L102.225473,84.4986871 C102.075158,84.1948613 102,83.8064505 102,83.3334546 C102,82.4132272 102.341846,81.6276554 103.025539,80.9767391 C103.709231,80.3258229 104.534052,80.0002432 105.5,80.0000001 C106.465948,79.9997571 107.290769,80.3253367 107.974461,80.9767391 C108.658154,81.6281415 109,82.4137133 109,83.3334546 L108.999234,83.3334546 Z" id="Shape" fill="#4C5358" fill-rule="nonzero"></path>
                    <path d="M114.249043,107.333455 C114.249043,106.873341 114.078184,106.480555 113.736465,106.155097 C113.394746,105.829639 112.982336,105.66691 112.499234,105.66691 C112.016133,105.66691 111.603722,105.829639 111.262004,106.155097 C110.920285,106.480555 110.749426,106.873341 110.749426,107.333455 C110.749426,107.793568 110.920285,108.186354 111.262004,108.511812 C111.603722,108.83727 112.016133,109 112.499234,109 C112.982336,109 113.394746,108.83727 113.736465,108.511812 C114.078184,108.186354 114.249043,107.793568 114.249043,107.333455 L114.249043,107.333455 Z M115.999234,107.333455 C115.999234,107.806451 115.924077,108.194861 115.773761,108.498687 L113.285519,113.537698 C113.212531,113.68086 113.104324,113.793762 112.960899,113.876403 C112.817474,113.959043 112.663714,114.000242 112.499617,113.999999 C112.335521,113.999756 112.18176,113.958557 112.038335,113.876403 C111.89491,113.794248 111.789001,113.681346 111.720606,113.537698 L109.225473,108.498687 C109.075158,108.194861 109,107.806451 109,107.333455 C109,106.413227 109.341846,105.627655 110.025539,104.976739 C110.709231,104.325823 111.534052,104.000243 112.5,104 C113.465948,103.999757 114.290769,104.325337 114.974461,104.976739 C115.658154,105.628141 116,106.413713 116,107.333455 L115.999234,107.333455 Z" id="Shape" fill="#4C5358" fill-rule="nonzero"></path>
                    <path d="M116.249043,131.333455 C116.249043,130.873341 116.078184,130.480555 115.736465,130.155097 C115.394746,129.829639 114.982336,129.66691 114.499234,129.66691 C114.016133,129.66691 113.603722,129.829639 113.262004,130.155097 C112.920285,130.480555 112.749426,130.873341 112.749426,131.333455 C112.749426,131.793568 112.920285,132.186354 113.262004,132.511812 C113.603722,132.83727 114.016133,133 114.499234,133 C114.982336,133 115.394746,132.83727 115.736465,132.511812 C116.078184,132.186354 116.249043,131.793568 116.249043,131.333455 L116.249043,131.333455 Z M117.999234,131.333455 C117.999234,131.806451 117.924077,132.194861 117.773761,132.498687 L115.285519,137.537698 C115.212531,137.68086 115.104324,137.793762 114.960899,137.876403 C114.817474,137.959043 114.663714,138.000242 114.499617,137.999999 C114.335521,137.999756 114.18176,137.958557 114.038335,137.876403 C113.89491,137.794248 113.789001,137.681346 113.720606,137.537698 L111.225473,132.498687 C111.075158,132.194861 111,131.806451 111,131.333455 C111,130.413227 111.341846,129.627655 112.025539,128.976739 C112.709231,128.325823 113.534052,128.000243 114.5,128 C115.465948,127.999757 116.290769,128.325337 116.974461,128.976739 C117.658154,129.628141 118,130.413713 118,131.333455 L117.999234,131.333455 Z" id="Shape" fill="#4C5358" fill-rule="nonzero"></path>
                    <path d="M118.249043,155.333455 C118.249043,154.873341 118.078184,154.480555 117.736465,154.155097 C117.394746,153.829639 116.982336,153.66691 116.499234,153.66691 C116.016133,153.66691 115.603722,153.829639 115.262004,154.155097 C114.920285,154.480555 114.749426,154.873341 114.749426,155.333455 C114.749426,155.793568 114.920285,156.186354 115.262004,156.511812 C115.603722,156.83727 116.016133,157 116.499234,157 C116.982336,157 117.394746,156.83727 117.736465,156.511812 C118.078184,156.186354 118.249043,155.793568 118.249043,155.333455 L118.249043,155.333455 Z M119.999234,155.333455 C119.999234,155.806451 119.924077,156.194861 119.773761,156.498687 L117.285519,161.537698 C117.212531,161.68086 117.104324,161.793762 116.960899,161.876403 C116.817474,161.959043 116.663714,162.000242 116.499617,161.999999 C116.335521,161.999756 116.18176,161.958557 116.038335,161.876403 C115.89491,161.794248 115.789001,161.681346 115.720606,161.537698 L113.225473,156.498687 C113.075158,156.194861 113,155.806451 113,155.333455 C113,154.413227 113.341846,153.627655 114.025539,152.976739 C114.709231,152.325823 115.534052,152.000243 116.5,152 C117.465948,151.999757 118.290769,152.325337 118.974461,152.976739 C119.658154,153.628141 120,154.413713 120,155.333455 L119.999234,155.333455 Z" id="Shape" fill="#4C5358" fill-rule="nonzero"></path>
                    <path d="M119.249043,179.333455 C119.249043,178.873341 119.078184,178.480555 118.736465,178.155097 C118.394746,177.829639 117.982336,177.66691 117.499234,177.66691 C117.016133,177.66691 116.603722,177.829639 116.262004,178.155097 C115.920285,178.480555 115.749426,178.873341 115.749426,179.333455 C115.749426,179.793568 115.920285,180.186354 116.262004,180.511812 C116.603722,180.83727 117.016133,181 117.499234,181 C117.982336,181 118.394746,180.83727 118.736465,180.511812 C119.078184,180.186354 119.249043,179.793568 119.249043,179.333455 L119.249043,179.333455 Z M120.999234,179.333455 C120.999234,179.806451 120.924077,180.194861 120.773761,180.498687 L118.285519,185.537698 C118.212531,185.68086 118.104324,185.793762 117.960899,185.876403 C117.817474,185.959043 117.663714,186.000242 117.499617,185.999999 C117.335521,185.999756 117.18176,185.958557 117.038335,185.876403 C116.89491,185.794248 116.789001,185.681346 116.720606,185.537698 L114.225473,180.498687 C114.075158,180.194861 114,179.806451 114,179.333455 C114,178.413227 114.341846,177.627655 115.025539,176.976739 C115.709231,176.325823 116.534052,176.000243 117.5,176 C118.465948,175.999757 119.290769,176.325337 119.974461,176.976739 C120.658154,177.628141 121,178.413713 121,179.333455 L120.999234,179.333455 Z" id="Shape" fill="#4C5358" fill-rule="nonzero"></path>
                    <path d="M118.249043,203.333455 C118.249043,202.873341 118.078184,202.480555 117.736465,202.155097 C117.394746,201.829639 116.982336,201.66691 116.499234,201.66691 C116.016133,201.66691 115.603722,201.829639 115.262004,202.155097 C114.920285,202.480555 114.749426,202.873341 114.749426,203.333455 C114.749426,203.793568 114.920285,204.186354 115.262004,204.511812 C115.603722,204.83727 116.016133,205 116.499234,205 C116.982336,205 117.394746,204.83727 117.736465,204.511812 C118.078184,204.186354 118.249043,203.793568 118.249043,203.333455 L118.249043,203.333455 Z M119.999234,203.333455 C119.999234,203.806451 119.924077,204.194861 119.773761,204.498687 L117.285519,209.537698 C117.212531,209.68086 117.104324,209.793762 116.960899,209.876403 C116.817474,209.959043 116.663714,210.000242 116.499617,209.999999 C116.335521,209.999756 116.18176,209.958557 116.038335,209.876403 C115.89491,209.794248 115.789001,209.681346 115.720606,209.537698 L113.225473,204.498687 C113.075158,204.194861 113,203.806451 113,203.333455 C113,202.413227 113.341846,201.627655 114.025539,200.976739 C114.709231,200.325823 115.534052,200.000243 116.5,200 C117.465948,199.999757 118.290769,200.325337 118.974461,200.976739 C119.658154,201.628141 120,202.413713 120,203.333455 L119.999234,203.333455 Z" id="Shape" fill="#4C5358" fill-rule="nonzero"></path>
                    <rect id="Rectangle-3-Copy-90" fill="#D2D6D9" x="143" y="203" width="14" height="3" rx="1.5"></rect>
                    <rect id="Rectangle-3-Copy-91" fill="#D2D6D9" x="190" y="203" width="14" height="3" rx="1.5"></rect>
                    <rect id="Rectangle-3-Copy-92" fill="#D2D6D9" x="233" y="203" width="14" height="3" rx="1.5"></rect>
                    <rect id="Rectangle-3-Copy-4" fill="#D2D6D9" x="10" y="59" width="32" height="3" rx="1.5"></rect>
                    <rect id="Rectangle-3-Copy-14" fill="#D2D6D9" x="10" y="83" width="32" height="3" rx="1.5"></rect>
                    <rect id="Rectangle-3-Copy-18" fill="#D2D6D9" x="10" y="107" width="32" height="3" rx="1.5"></rect>
                    <rect id="Rectangle-3-Copy-7" fill="#D2D6D9" x="85" y="59" width="21" height="3" rx="1.5"></rect>
                    <rect id="Rectangle-3-Copy-15" fill="#D2D6D9" x="85" y="83" width="14" height="3" rx="1.5"></rect>
                    <rect id="Rectangle-3-Copy-19" fill="#D2D6D9" x="85" y="107" width="21" height="3" rx="1.5"></rect>
                    <rect id="Rectangle-3-Copy-10" fill="#D2D6D9" x="143" y="59" width="16" height="3" rx="1.5"></rect>
                    <rect id="Rectangle-3-Copy-16" fill="#D2D6D9" x="143" y="83" width="16" height="3" rx="1.5"></rect>
                    <rect id="Rectangle-3-Copy-20" fill="#D2D6D9" x="143" y="107" width="16" height="3" rx="1.5"></rect>
                    <rect id="Rectangle-3-Copy-13" fill="#D2D6D9" x="190" y="59" width="16" height="3" rx="1.5"></rect>
                    <rect id="Rectangle-3-Copy-43" fill="#D2D6D9" x="233" y="59" width="16" height="3" rx="1.5"></rect>
                    <rect id="Rectangle-3-Copy-17" fill="#D2D6D9" x="190" y="83" width="16" height="3" rx="1.5"></rect>
                    <rect id="Rectangle-3-Copy-44" fill="#D2D6D9" x="233" y="83" width="16" height="3" rx="1.5"></rect>
                    <rect id="Rectangle-3-Copy-21" fill="#D2D6D9" x="190" y="107" width="16" height="3" rx="1.5"></rect>
                    <rect id="Rectangle-3-Copy-45" fill="#D2D6D9" x="233" y="107" width="16" height="3" rx="1.5"></rect>
                    <path d="M74.5,0.509389671 L74.5,216.493013" id="Line" stroke="#D2D6D9" stroke-linecap="square"></path>
                    <path d="M132.5,0.509389671 L132.5,216.493013" id="Line-Copy" stroke="#D2D6D9" stroke-linecap="square"></path>
                    <path d="M179.5,0.509389671 L179.5,216.493013" id="Line-Copy-2" stroke="#D2D6D9" stroke-linecap="square"></path>
                    <path d="M222.5,0.509389671 L222.5,216.493013" id="Line-Copy-3" stroke="#D2D6D9" stroke-linecap="square"></path>
                    <path d="M55.6235963,156.459676 L52.8760391,159.207233 C52.7936415,159.289631 52.6959312,159.33083 52.582908,159.33083 C52.4698848,159.33083 52.3721744,159.289631 52.2897769,159.207233 L50.3756745,157.293131 C50.2932769,157.210734 50.2520782,157.113023 50.2520782,157 C50.2520782,156.886977 50.2932769,156.789266 50.3756745,156.706869 L51.0395946,156.042949 C51.1219921,155.960551 51.2197025,155.919352 51.3327257,155.919352 C51.4457489,155.919352 51.5434592,155.960551 51.6258568,156.042949 L52.582908,157 L54.373414,155.209494 C54.4558116,155.127096 54.5535219,155.085898 54.6665451,155.085898 C54.7795683,155.085898 54.8772787,155.127096 54.9596762,155.209494 L55.6235963,155.873414 C55.7059939,155.955812 55.7471926,156.053522 55.7471926,156.166545 C55.7471926,156.279568 55.7059939,156.377279 55.6235963,156.459676 L55.6235963,156.459676 Z M56.5416363,157 C56.5416363,156.357591 56.3831608,155.765131 56.0662097,155.222619 C55.7492587,154.680108 55.3195275,154.250377 54.7770162,153.933426 C54.2345049,153.616475 53.6420446,153.457999 52.9996354,153.457999 C52.3572262,153.457999 51.7647659,153.616475 51.2222546,153.933426 C50.6797433,154.250377 50.2500122,154.680108 49.9330611,155.222619 C49.6161101,155.765131 49.4576345,156.357591 49.4576345,157 C49.4576345,157.642409 49.6161101,158.234869 49.9330611,158.777381 C50.2500122,159.319892 50.6797433,159.749623 51.2222546,160.066574 C51.7647659,160.383525 52.3572262,160.542001 52.9996354,160.542001 C53.6420446,160.542001 54.2345049,160.383525 54.7770162,160.066574 C55.3195275,159.749623 55.7492587,159.319892 56.0662097,158.777381 C56.3831608,158.234869 56.5416363,157.642409 56.5416363,157 Z M58,157 C58,157.907102 57.7765058,158.743717 57.3295173,159.509844 C56.8825288,160.275971 56.275971,160.882529 55.509844,161.329517 C54.7437169,161.776506 53.9071022,162 53,162 C52.0928978,162 51.2562831,161.776506 50.490156,161.329517 C49.724029,160.882529 49.1174712,160.275971 48.6704827,159.509844 C48.2234942,158.743717 48,157.907102 48,157 C48,156.092898 48.2234942,155.256283 48.6704827,154.490156 C49.1174712,153.724029 49.724029,153.117471 50.490156,152.670483 C51.2562831,152.223494 52.0928978,152 53,152 C53.9071022,152 54.7437169,152.223494 55.509844,152.670483 C56.275971,153.117471 56.8825288,153.724029 57.3295173,154.490156 C57.7765058,155.256283 58,156.092898 58,157 Z" id="Shape" fill="#4C5358" fill-rule="nonzero"></path>
                    <path d="M55.6235963,108.459676 L52.8760391,111.207233 C52.7936415,111.289631 52.6959312,111.33083 52.582908,111.33083 C52.4698848,111.33083 52.3721744,111.289631 52.2897769,111.207233 L50.3756745,109.293131 C50.2932769,109.210734 50.2520782,109.113023 50.2520782,109 C50.2520782,108.886977 50.2932769,108.789266 50.3756745,108.706869 L51.0395946,108.042949 C51.1219921,107.960551 51.2197025,107.919352 51.3327257,107.919352 C51.4457489,107.919352 51.5434592,107.960551 51.6258568,108.042949 L52.582908,109 L54.373414,107.209494 C54.4558116,107.127096 54.5535219,107.085898 54.6665451,107.085898 C54.7795683,107.085898 54.8772787,107.127096 54.9596762,107.209494 L55.6235963,107.873414 C55.7059939,107.955812 55.7471926,108.053522 55.7471926,108.166545 C55.7471926,108.279568 55.7059939,108.377279 55.6235963,108.459676 L55.6235963,108.459676 Z M56.5416363,109 C56.5416363,108.357591 56.3831608,107.765131 56.0662097,107.222619 C55.7492587,106.680108 55.3195275,106.250377 54.7770162,105.933426 C54.2345049,105.616475 53.6420446,105.457999 52.9996354,105.457999 C52.3572262,105.457999 51.7647659,105.616475 51.2222546,105.933426 C50.6797433,106.250377 50.2500122,106.680108 49.9330611,107.222619 C49.6161101,107.765131 49.4576345,108.357591 49.4576345,109 C49.4576345,109.642409 49.6161101,110.234869 49.9330611,110.777381 C50.2500122,111.319892 50.6797433,111.749623 51.2222546,112.066574 C51.7647659,112.383525 52.3572262,112.542001 52.9996354,112.542001 C53.6420446,112.542001 54.2345049,112.383525 54.7770162,112.066574 C55.3195275,111.749623 55.7492587,111.319892 56.0662097,110.777381 C56.3831608,110.234869 56.5416363,109.642409 56.5416363,109 Z M58,109 C58,109.907102 57.7765058,110.743717 57.3295173,111.509844 C56.8825288,112.275971 56.275971,112.882529 55.509844,113.329517 C54.7437169,113.776506 53.9071022,114 53,114 C52.0928978,114 51.2562831,113.776506 50.490156,113.329517 C49.724029,112.882529 49.1174712,112.275971 48.6704827,111.509844 C48.2234942,110.743717 48,109.907102 48,109 C48,108.092898 48.2234942,107.256283 48.6704827,106.490156 C49.1174712,105.724029 49.724029,105.117471 50.490156,104.670483 C51.2562831,104.223494 52.0928978,104 53,104 C53.9071022,104 54.7437169,104.223494 55.509844,104.670483 C56.275971,105.117471 56.8825288,105.724029 57.3295173,106.490156 C57.7765058,107.256283 58,108.092898 58,109 Z" id="Shape" fill="#4C5358" fill-rule="nonzero"></path>
                    <path d="M55.6235963,60.4596762 L52.8760391,63.2072335 C52.7936415,63.289631 52.6959312,63.3308298 52.582908,63.3308298 C52.4698848,63.3308298 52.3721744,63.289631 52.2897769,63.2072335 L50.3756745,61.2931311 C50.2932769,61.2107336 50.2520782,61.1130232 50.2520782,61 C50.2520782,60.8869768 50.2932769,60.7892664 50.3756745,60.7068689 L51.0395946,60.0429488 C51.1219921,59.9605513 51.2197025,59.9193525 51.3327257,59.9193525 C51.4457489,59.9193525 51.5434592,59.9605513 51.6258568,60.0429488 L52.582908,61 L54.373414,59.2094939 C54.4558116,59.1270964 54.5535219,59.0858976 54.6665451,59.0858976 C54.7795683,59.0858976 54.8772787,59.1270964 54.9596762,59.2094939 L55.6235963,59.873414 C55.7059939,59.9558116 55.7471926,60.0535219 55.7471926,60.1665451 C55.7471926,60.2795683 55.7059939,60.3772787 55.6235963,60.4596762 L55.6235963,60.4596762 Z M56.5416363,61 C56.5416363,60.3575908 56.3831608,59.7651305 56.0662097,59.2226192 C55.7492587,58.6801079 55.3195275,58.2503767 54.7770162,57.9334257 C54.2345049,57.6164746 53.6420446,57.4579991 52.9996354,57.4579991 C52.3572262,57.4579991 51.7647659,57.6164746 51.2222546,57.9334257 C50.6797433,58.2503767 50.2500122,58.6801079 49.9330611,59.2226192 C49.6161101,59.7651305 49.4576345,60.3575908 49.4576345,61 C49.4576345,61.6424092 49.6161101,62.2348695 49.9330611,62.7773808 C50.2500122,63.3198921 50.6797433,63.7496233 51.2222546,64.0665743 C51.7647659,64.3835254 52.3572262,64.5420009 52.9996354,64.5420009 C53.6420446,64.5420009 54.2345049,64.3835254 54.7770162,64.0665743 C55.3195275,63.7496233 55.7492587,63.3198921 56.0662097,62.7773808 C56.3831608,62.2348695 56.5416363,61.6424092 56.5416363,61 Z M58,61 C58,61.9071022 57.7765058,62.7437169 57.3295173,63.509844 C56.8825288,64.275971 56.275971,64.8825288 55.509844,65.3295173 C54.7437169,65.7765058 53.9071022,66 53,66 C52.0928978,66 51.2562831,65.7765058 50.490156,65.3295173 C49.724029,64.8825288 49.1174712,64.275971 48.6704827,63.509844 C48.2234942,62.7437169 48,61.9071022 48,61 C48,60.0928978 48.2234942,59.2562831 48.6704827,58.490156 C49.1174712,57.724029 49.724029,57.1174712 50.490156,56.6704827 C51.2562831,56.2234942 52.0928978,56 53,56 C53.9071022,56 54.7437169,56.2234942 55.509844,56.6704827 C56.275971,57.1174712 56.8825288,57.724029 57.3295173,58.490156 C57.7765058,59.2562831 58,60.0928978 58,61 Z" id="Shape" fill="#4C5358" fill-rule="nonzero"></path>
                    <path d="M55.6235963,204.459676 L52.8760391,207.207233 C52.7936415,207.289631 52.6959312,207.33083 52.582908,207.33083 C52.4698848,207.33083 52.3721744,207.289631 52.2897769,207.207233 L50.3756745,205.293131 C50.2932769,205.210734 50.2520782,205.113023 50.2520782,205 C50.2520782,204.886977 50.2932769,204.789266 50.3756745,204.706869 L51.0395946,204.042949 C51.1219921,203.960551 51.2197025,203.919352 51.3327257,203.919352 C51.4457489,203.919352 51.5434592,203.960551 51.6258568,204.042949 L52.582908,205 L54.373414,203.209494 C54.4558116,203.127096 54.5535219,203.085898 54.6665451,203.085898 C54.7795683,203.085898 54.8772787,203.127096 54.9596762,203.209494 L55.6235963,203.873414 C55.7059939,203.955812 55.7471926,204.053522 55.7471926,204.166545 C55.7471926,204.279568 55.7059939,204.377279 55.6235963,204.459676 L55.6235963,204.459676 Z M56.5416363,205 C56.5416363,204.357591 56.3831608,203.765131 56.0662097,203.222619 C55.7492587,202.680108 55.3195275,202.250377 54.7770162,201.933426 C54.2345049,201.616475 53.6420446,201.457999 52.9996354,201.457999 C52.3572262,201.457999 51.7647659,201.616475 51.2222546,201.933426 C50.6797433,202.250377 50.2500122,202.680108 49.9330611,203.222619 C49.6161101,203.765131 49.4576345,204.357591 49.4576345,205 C49.4576345,205.642409 49.6161101,206.234869 49.9330611,206.777381 C50.2500122,207.319892 50.6797433,207.749623 51.2222546,208.066574 C51.7647659,208.383525 52.3572262,208.542001 52.9996354,208.542001 C53.6420446,208.542001 54.2345049,208.383525 54.7770162,208.066574 C55.3195275,207.749623 55.7492587,207.319892 56.0662097,206.777381 C56.3831608,206.234869 56.5416363,205.642409 56.5416363,205 Z M58,205 C58,205.907102 57.7765058,206.743717 57.3295173,207.509844 C56.8825288,208.275971 56.275971,208.882529 55.509844,209.329517 C54.7437169,209.776506 53.9071022,210 53,210 C52.0928978,210 51.2562831,209.776506 50.490156,209.329517 C49.724029,208.882529 49.1174712,208.275971 48.6704827,207.509844 C48.2234942,206.743717 48,205.907102 48,205 C48,204.092898 48.2234942,203.256283 48.6704827,202.490156 C49.1174712,201.724029 49.724029,201.117471 50.490156,200.670483 C51.2562831,200.223494 52.0928978,200 53,200 C53.9071022,200 54.7437169,200.223494 55.509844,200.670483 C56.275971,201.117471 56.8825288,201.724029 57.3295173,202.490156 C57.7765058,203.256283 58,204.092898 58,205 Z" id="Shape" fill="#4C5358" fill-rule="nonzero"></path>
                    <path d="M58,179.750087 C58,180.429496 57.7767778,181.057189 57.3303334,181.633167 C56.883889,182.209145 56.2775538,182.664088 55.5113278,182.997998 C54.7451017,183.331908 53.9080445,183.498862 53.0001562,183.498862 C52.7397477,183.498862 52.4700686,183.483227 52.191119,183.451958 C51.4544754,184.135302 50.5988771,184.60774 49.6243242,184.869269 C49.4420383,184.923937 49.2299616,184.966906 48.9880941,184.998176 C48.9247628,185.006048 48.8679937,184.988445 48.8177869,184.945367 C48.7675802,184.902289 48.734977,184.845653 48.7199775,184.77546 L48.7199775,184.769556 C48.7087279,184.75403 48.7077904,184.730632 48.7171651,184.699363 C48.7265398,184.668093 48.7302897,184.648522 48.7284147,184.64065 C48.7265398,184.632777 48.7348729,184.61419 48.753414,184.584889 L48.7868504,184.53208 L48.8259117,184.482223 L48.8705978,184.429414 C48.8966386,184.398144 48.9543452,184.330794 49.0437174,184.227363 C49.1330896,184.123932 49.1972543,184.049693 49.2362114,184.004647 C49.2751685,183.959601 49.332875,183.882519 49.409331,183.773403 C49.4857869,183.664286 49.5462017,183.564682 49.5905753,183.47459 C49.6349489,183.384498 49.6851557,183.269259 49.7411956,183.128872 C49.7972355,182.988486 49.8455673,182.840118 49.8861911,182.683769 C49.3020426,182.336301 48.8416404,181.906724 48.5049842,181.395035 C48.1683281,180.883346 48,180.334703 48,179.749103 C48,179.241569 48.1320792,178.75634 48.3962376,178.293415 C48.660396,177.83049 49.0156974,177.431198 49.4621418,177.095539 C49.9085862,176.75988 50.4405487,176.493321 51.0580294,176.295861 C51.6755101,176.098402 52.3227816,175.999782 52.9998438,176 C53.9075237,176 54.7445809,176.166955 55.5110153,176.500865 C56.2774497,176.834774 56.8837849,177.289718 57.3300209,177.865696 C57.776257,178.441673 57.9994792,179.069367 57.9996875,179.748775 L58,179.750087 Z" id="Shape" fill="#4C5358" fill-rule="nonzero"></path>
                    <path d="M58,131.750087 C58,132.429496 57.7767778,133.057189 57.3303334,133.633167 C56.883889,134.209145 56.2775538,134.664088 55.5113278,134.997998 C54.7451017,135.331908 53.9080445,135.498862 53.0001562,135.498862 C52.7397477,135.498862 52.4700686,135.483227 52.191119,135.451958 C51.4544754,136.135302 50.5988771,136.60774 49.6243242,136.869269 C49.4420383,136.923937 49.2299616,136.966906 48.9880941,136.998176 C48.9247628,137.006048 48.8679937,136.988445 48.8177869,136.945367 C48.7675802,136.902289 48.734977,136.845653 48.7199775,136.77546 L48.7199775,136.769556 C48.7087279,136.75403 48.7077904,136.730632 48.7171651,136.699363 C48.7265398,136.668093 48.7302897,136.648522 48.7284147,136.64065 C48.7265398,136.632777 48.7348729,136.61419 48.753414,136.584889 L48.7868504,136.53208 L48.8259117,136.482223 L48.8705978,136.429414 C48.8966386,136.398144 48.9543452,136.330794 49.0437174,136.227363 C49.1330896,136.123932 49.1972543,136.049693 49.2362114,136.004647 C49.2751685,135.959601 49.332875,135.882519 49.409331,135.773403 C49.4857869,135.664286 49.5462017,135.564682 49.5905753,135.47459 C49.6349489,135.384498 49.6851557,135.269259 49.7411956,135.128872 C49.7972355,134.988486 49.8455673,134.840118 49.8861911,134.683769 C49.3020426,134.336301 48.8416404,133.906724 48.5049842,133.395035 C48.1683281,132.883346 48,132.334703 48,131.749103 C48,131.241569 48.1320792,130.75634 48.3962376,130.293415 C48.660396,129.83049 49.0156974,129.431198 49.4621418,129.095539 C49.9085862,128.75988 50.4405487,128.493321 51.0580294,128.295861 C51.6755101,128.098402 52.3227816,127.999782 52.9998438,128 C53.9075237,128 54.7445809,128.166955 55.5110153,128.500865 C56.2774497,128.834774 56.8837849,129.289718 57.3300209,129.865696 C57.776257,130.441673 57.9994792,131.069367 57.9996875,131.748775 L58,131.750087 Z" id="Shape" fill="#4C5358" fill-rule="nonzero"></path>
                    <path d="M58,83.7500874 C58,84.4294961 57.7767778,85.0571893 57.3303334,85.633167 C56.883889,86.2091447 56.2775538,86.6640883 55.5113278,86.9979979 C54.7451017,87.3319076 53.9080445,87.4988624 53.0001562,87.4988624 C52.7397477,87.4988624 52.4700686,87.4832274 52.191119,87.4519576 C51.4544754,88.1353024 50.5988771,88.6077397 49.6243242,88.8692694 C49.4420383,88.923937 49.2299616,88.9669057 48.9880941,88.9981756 C48.9247628,89.0060477 48.8679937,88.9884447 48.8177869,88.9453667 C48.7675802,88.9022886 48.734977,88.845653 48.7199775,88.7754598 L48.7199775,88.7695557 C48.7087279,88.7540301 48.7077904,88.7306324 48.7171651,88.6993625 C48.7265398,88.6680927 48.7302897,88.6485217 48.7284147,88.6406495 C48.7265398,88.6327774 48.7348729,88.6141904 48.753414,88.5848886 L48.7868504,88.5320797 L48.8259117,88.4822229 L48.8705978,88.429414 C48.8966386,88.3981441 48.9543452,88.3307937 49.0437174,88.2273626 C49.1330896,88.1239315 49.1972543,88.049693 49.2362114,88.0046469 C49.2751685,87.9596008 49.332875,87.8825195 49.409331,87.773403 C49.4857869,87.6642865 49.5462017,87.5646821 49.5905753,87.47459 C49.6349489,87.3844978 49.6851557,87.2692585 49.7411956,87.1288721 C49.7972355,86.9884858 49.8455673,86.840118 49.8861911,86.6837687 C49.3020426,86.3363015 48.8416404,85.9067236 48.5049842,85.395035 C48.1683281,84.8833464 48,84.3347025 48,83.7491034 C48,83.2415695 48.1320792,82.75634 48.3962376,82.2934149 C48.660396,81.8304898 49.0156974,81.4311977 49.4621418,81.0955388 C49.9085862,80.7598798 50.4405487,80.4933207 51.0580294,80.2958613 C51.6755101,80.098402 52.3227816,79.9997817 52.9998438,80.0000004 C53.9075237,80.0000004 54.7445809,80.1669552 55.5110153,80.5008648 C56.2774497,80.8347744 56.8837849,81.289718 57.3300209,81.8656957 C57.776257,82.4416734 57.9994792,83.0693666 57.9996875,83.7487754 L58,83.7500874 Z" id="Shape" fill="#4C5358" fill-rule="nonzero"></path>
                    <path d="M58,35.7500874 C58,36.4294961 57.7767778,37.0571893 57.3303334,37.633167 C56.883889,38.2091447 56.2775538,38.6640883 55.5113278,38.9979979 C54.7451017,39.3319076 53.9080445,39.4988624 53.0001562,39.4988624 C52.7397477,39.4988624 52.4700686,39.4832274 52.191119,39.4519576 C51.4544754,40.1353024 50.5988771,40.6077397 49.6243242,40.8692694 C49.4420383,40.923937 49.2299616,40.9669057 48.9880941,40.9981756 C48.9247628,41.0060477 48.8679937,40.9884447 48.8177869,40.9453667 C48.7675802,40.9022886 48.734977,40.845653 48.7199775,40.7754598 L48.7199775,40.7695557 C48.7087279,40.7540301 48.7077904,40.7306324 48.7171651,40.6993625 C48.7265398,40.6680927 48.7302897,40.6485217 48.7284147,40.6406495 C48.7265398,40.6327774 48.7348729,40.6141904 48.753414,40.5848886 L48.7868504,40.5320797 L48.8259117,40.4822229 L48.8705978,40.429414 C48.8966386,40.3981441 48.9543452,40.3307937 49.0437174,40.2273626 C49.1330896,40.1239315 49.1972543,40.049693 49.2362114,40.0046469 C49.2751685,39.9596008 49.332875,39.8825195 49.409331,39.773403 C49.4857869,39.6642865 49.5462017,39.5646821 49.5905753,39.47459 C49.6349489,39.3844978 49.6851557,39.2692585 49.7411956,39.1288721 C49.7972355,38.9884858 49.8455673,38.840118 49.8861911,38.6837687 C49.3020426,38.3363015 48.8416404,37.9067236 48.5049842,37.395035 C48.1683281,36.8833464 48,36.3347025 48,35.7491034 C48,35.2415695 48.1320792,34.75634 48.3962376,34.2934149 C48.660396,33.8304898 49.0156974,33.4311977 49.4621418,33.0955388 C49.9085862,32.7598798 50.4405487,32.4933207 51.0580294,32.2958613 C51.6755101,32.098402 52.3227816,31.9997817 52.9998438,32.0000004 C53.9075237,32.0000004 54.7445809,32.1669552 55.5110153,32.5008648 C56.2774497,32.8347744 56.8837849,33.289718 57.3300209,33.8656957 C57.776257,34.4416734 57.9994792,35.0693666 57.9996875,35.7487754 L58,35.7500874 Z" id="Shape" fill="#4C5358" fill-rule="nonzero"></path>
                    <path d="M161.538751,39.4999375 L162.750294,39.4999375 L162.750294,38.3749062 L161.538751,38.3749062 L161.538751,39.4999375 Z M163.019317,39.4999375 L164.365371,39.4999375 L164.365371,38.3749062 L163.019317,38.3749062 L163.019317,39.4999375 Z M161.538751,38.1250937 L162.750294,38.1250937 L162.750294,36.8751563 L161.538751,36.8751563 L161.538751,38.1250937 L161.538751,38.1250937 Z M163.019317,38.1250937 L164.365371,38.1250937 L164.365371,36.8751563 L163.019317,36.8751563 L163.019317,38.1250937 L163.019317,38.1250937 Z M161.538751,36.6249062 L162.750294,36.6249062 L162.750294,35.499875 L161.538751,35.499875 L161.538751,36.6249062 Z M164.634865,39.4999375 L165.980919,39.4999375 L165.980919,38.3749062 L164.634865,38.3749062 L164.634865,39.4999375 Z M163.019317,36.6249063 L164.365371,36.6249063 L164.365371,35.499875 L163.019317,35.499875 L163.019317,36.6249063 Z M166.250177,39.4999375 L167.46172,39.4999375 L167.46172,38.3749062 L166.250177,38.3749062 L166.250177,39.4999375 Z M164.634865,38.1250938 L165.980919,38.1250938 L165.980919,36.8751563 L164.634865,36.8751563 L164.634865,38.1250938 L164.634865,38.1250938 Z M163.154064,34.75 L163.154064,33.6249688 C163.154064,33.5911354 163.140715,33.5618229 163.114016,33.5370312 C163.087318,33.5122396 163.055752,33.4998437 163.019317,33.4998437 L162.750059,33.4998437 C162.713624,33.4998437 162.682057,33.5122396 162.655359,33.5370312 C162.628661,33.5618229 162.615312,33.5911354 162.615312,33.6249688 L162.615312,34.75 C162.615312,34.7838333 162.628661,34.8131458 162.655359,34.8379375 C162.682057,34.8627292 162.713624,34.875125 162.750059,34.875125 L163.019317,34.875125 C163.055752,34.875125 163.087318,34.8627292 163.114016,34.8379375 C163.140715,34.8131458 163.154064,34.7838333 163.154064,34.75 Z M166.250177,38.1250938 L167.46172,38.1250938 L167.46172,36.8751563 L166.250177,36.8751563 L166.250177,38.1250938 Z M164.634865,36.6249063 L165.980919,36.6249063 L165.980919,35.499875 L164.634865,35.499875 L164.634865,36.6249063 L164.634865,36.6249063 Z M166.250177,36.6249063 L167.46172,36.6249063 L167.46172,35.499875 L166.250177,35.499875 L166.250177,36.6249063 Z M166.384688,34.75 L166.384688,33.6249688 C166.384688,33.5911354 166.371339,33.5618229 166.344641,33.5370312 C166.317943,33.5122396 166.286376,33.4998437 166.249941,33.4998437 L165.980683,33.4998437 C165.944248,33.4998437 165.912682,33.5122396 165.885984,33.5370312 C165.859285,33.5618229 165.845936,33.5911354 165.845936,33.6249688 L165.845936,34.75 C165.845936,34.7838333 165.859285,34.8131458 165.885984,34.8379375 C165.912682,34.8627292 165.944248,34.875125 165.980683,34.875125 L166.249941,34.875125 C166.286376,34.875125 166.317943,34.8627292 166.344641,34.8379375 C166.371339,34.8131458 166.384688,34.7838333 166.384688,34.75 Z M168,34.4999688 L168,39.4999375 C168,39.6354167 167.946682,39.7525937 167.840047,39.8514687 C167.733412,39.9503437 167.607224,39.9998542 167.461484,40 L161.538516,40 C161.392619,40 161.266431,39.9504896 161.159953,39.8514687 C161.053475,39.7524479 161.000157,39.6352708 161,39.4999375 L161,34.4999688 C161,34.3644896 161.053318,34.2473125 161.159953,34.1484375 C161.266588,34.0495625 161.392776,34.0000521 161.538516,33.9999063 L162.077032,33.9999063 L162.077032,33.6249688 C162.077032,33.4530313 162.142913,33.3058854 162.274676,33.1835313 C162.406439,33.0611771 162.5649,33 162.750059,33 L163.019317,33 C163.204476,33 163.362937,33.0611771 163.4947,33.1835313 C163.626463,33.3058854 163.692344,33.4530313 163.692344,33.6249688 L163.692344,33.9999063 L165.307656,33.9999063 L165.307656,33.6249688 C165.307656,33.4530313 165.373537,33.3058854 165.5053,33.1835313 C165.637063,33.0611771 165.795524,33 165.980683,33 L166.249941,33 C166.4351,33 166.593561,33.0611771 166.725324,33.1835313 C166.857087,33.3058854 166.922968,33.4530313 166.922968,33.6249688 L166.922968,33.9999063 L167.461484,33.9999063 C167.607381,33.9999063 167.733569,34.0494167 167.840047,34.1484375 C167.946525,34.2474583 167.999843,34.3646354 168,34.4999688 Z" id="Shape" fill="#4C5358" fill-rule="nonzero"></path>
                    <path d="M162.538751,87.4999375 L163.750294,87.4999375 L163.750294,86.3749062 L162.538751,86.3749062 L162.538751,87.4999375 Z M164.019317,87.4999375 L165.365371,87.4999375 L165.365371,86.3749062 L164.019317,86.3749062 L164.019317,87.4999375 Z M162.538751,86.1250937 L163.750294,86.1250937 L163.750294,84.8751563 L162.538751,84.8751563 L162.538751,86.1250937 L162.538751,86.1250937 Z M164.019317,86.1250937 L165.365371,86.1250937 L165.365371,84.8751563 L164.019317,84.8751563 L164.019317,86.1250937 L164.019317,86.1250937 Z M162.538751,84.6249062 L163.750294,84.6249062 L163.750294,83.499875 L162.538751,83.499875 L162.538751,84.6249062 Z M165.634865,87.4999375 L166.980919,87.4999375 L166.980919,86.3749062 L165.634865,86.3749062 L165.634865,87.4999375 Z M164.019317,84.6249062 L165.365371,84.6249062 L165.365371,83.499875 L164.019317,83.499875 L164.019317,84.6249062 Z M167.250177,87.4999375 L168.46172,87.4999375 L168.46172,86.3749062 L167.250177,86.3749062 L167.250177,87.4999375 Z M165.634865,86.1250938 L166.980919,86.1250938 L166.980919,84.8751563 L165.634865,84.8751563 L165.634865,86.1250938 L165.634865,86.1250938 Z M164.154064,82.75 L164.154064,81.6249687 C164.154064,81.5911354 164.140715,81.5618229 164.114016,81.5370312 C164.087318,81.5122396 164.055752,81.4998437 164.019317,81.4998437 L163.750059,81.4998437 C163.713624,81.4998437 163.682057,81.5122396 163.655359,81.5370312 C163.628661,81.5618229 163.615312,81.5911354 163.615312,81.6249687 L163.615312,82.75 C163.615312,82.7838333 163.628661,82.8131458 163.655359,82.8379375 C163.682057,82.8627292 163.713624,82.875125 163.750059,82.875125 L164.019317,82.875125 C164.055752,82.875125 164.087318,82.8627292 164.114016,82.8379375 C164.140715,82.8131458 164.154064,82.7838333 164.154064,82.75 Z M167.250177,86.1250938 L168.46172,86.1250938 L168.46172,84.8751563 L167.250177,84.8751563 L167.250177,86.1250938 Z M165.634865,84.6249062 L166.980919,84.6249062 L166.980919,83.499875 L165.634865,83.499875 L165.634865,84.6249062 L165.634865,84.6249062 Z M167.250177,84.6249062 L168.46172,84.6249062 L168.46172,83.499875 L167.250177,83.499875 L167.250177,84.6249062 Z M167.384688,82.75 L167.384688,81.6249687 C167.384688,81.5911354 167.371339,81.5618229 167.344641,81.5370312 C167.317943,81.5122396 167.286376,81.4998437 167.249941,81.4998437 L166.980683,81.4998437 C166.944248,81.4998437 166.912682,81.5122396 166.885984,81.5370312 C166.859285,81.5618229 166.845936,81.5911354 166.845936,81.6249687 L166.845936,82.75 C166.845936,82.7838333 166.859285,82.8131458 166.885984,82.8379375 C166.912682,82.8627292 166.944248,82.875125 166.980683,82.875125 L167.249941,82.875125 C167.286376,82.875125 167.317943,82.8627292 167.344641,82.8379375 C167.371339,82.8131458 167.384688,82.7838333 167.384688,82.75 Z M169,82.4999687 L169,87.4999375 C169,87.6354167 168.946682,87.7525938 168.840047,87.8514687 C168.733412,87.9503438 168.607224,87.9998542 168.461484,88 L162.538516,88 C162.392619,88 162.266431,87.9504896 162.159953,87.8514687 C162.053475,87.7524479 162.000157,87.6352708 162,87.4999375 L162,82.4999687 C162,82.3644896 162.053318,82.2473125 162.159953,82.1484375 C162.266588,82.0495625 162.392776,82.0000521 162.538516,81.9999062 L163.077032,81.9999062 L163.077032,81.6249687 C163.077032,81.4530312 163.142913,81.3058854 163.274676,81.1835313 C163.406439,81.0611771 163.5649,81 163.750059,81 L164.019317,81 C164.204476,81 164.362937,81.0611771 164.4947,81.1835313 C164.626463,81.3058854 164.692344,81.4530312 164.692344,81.6249687 L164.692344,81.9999062 L166.307656,81.9999062 L166.307656,81.6249687 C166.307656,81.4530312 166.373537,81.3058854 166.5053,81.1835313 C166.637063,81.0611771 166.795524,81 166.980683,81 L167.249941,81 C167.4351,81 167.593561,81.0611771 167.725324,81.1835313 C167.857087,81.3058854 167.922968,81.4530312 167.922968,81.6249687 L167.922968,81.9999062 L168.461484,81.9999062 C168.607381,81.9999062 168.733569,82.0494167 168.840047,82.1484375 C168.946525,82.2474583 168.999843,82.3646354 169,82.4999687 Z" id="Shape" fill="#4C5358" fill-rule="nonzero"></path>
                    <path d="M162.538751,135.499937 L163.750294,135.499937 L163.750294,134.374906 L162.538751,134.374906 L162.538751,135.499937 Z M164.019317,135.499937 L165.365371,135.499937 L165.365371,134.374906 L164.019317,134.374906 L164.019317,135.499937 Z M162.538751,134.125094 L163.750294,134.125094 L163.750294,132.875156 L162.538751,132.875156 L162.538751,134.125094 L162.538751,134.125094 Z M164.019317,134.125094 L165.365371,134.125094 L165.365371,132.875156 L164.019317,132.875156 L164.019317,134.125094 L164.019317,134.125094 Z M162.538751,132.624906 L163.750294,132.624906 L163.750294,131.499875 L162.538751,131.499875 L162.538751,132.624906 Z M165.634865,135.499937 L166.980919,135.499937 L166.980919,134.374906 L165.634865,134.374906 L165.634865,135.499937 Z M164.019317,132.624906 L165.365371,132.624906 L165.365371,131.499875 L164.019317,131.499875 L164.019317,132.624906 Z M167.250177,135.499937 L168.46172,135.499937 L168.46172,134.374906 L167.250177,134.374906 L167.250177,135.499937 Z M165.634865,134.125094 L166.980919,134.125094 L166.980919,132.875156 L165.634865,132.875156 L165.634865,134.125094 L165.634865,134.125094 Z M164.154064,130.75 L164.154064,129.624969 C164.154064,129.591135 164.140715,129.561823 164.114016,129.537031 C164.087318,129.51224 164.055752,129.499844 164.019317,129.499844 L163.750059,129.499844 C163.713624,129.499844 163.682057,129.51224 163.655359,129.537031 C163.628661,129.561823 163.615312,129.591135 163.615312,129.624969 L163.615312,130.75 C163.615312,130.783833 163.628661,130.813146 163.655359,130.837938 C163.682057,130.862729 163.713624,130.875125 163.750059,130.875125 L164.019317,130.875125 C164.055752,130.875125 164.087318,130.862729 164.114016,130.837938 C164.140715,130.813146 164.154064,130.783833 164.154064,130.75 Z M167.250177,134.125094 L168.46172,134.125094 L168.46172,132.875156 L167.250177,132.875156 L167.250177,134.125094 Z M165.634865,132.624906 L166.980919,132.624906 L166.980919,131.499875 L165.634865,131.499875 L165.634865,132.624906 L165.634865,132.624906 Z M167.250177,132.624906 L168.46172,132.624906 L168.46172,131.499875 L167.250177,131.499875 L167.250177,132.624906 Z M167.384688,130.75 L167.384688,129.624969 C167.384688,129.591135 167.371339,129.561823 167.344641,129.537031 C167.317943,129.51224 167.286376,129.499844 167.249941,129.499844 L166.980683,129.499844 C166.944248,129.499844 166.912682,129.51224 166.885984,129.537031 C166.859285,129.561823 166.845936,129.591135 166.845936,129.624969 L166.845936,130.75 C166.845936,130.783833 166.859285,130.813146 166.885984,130.837938 C166.912682,130.862729 166.944248,130.875125 166.980683,130.875125 L167.249941,130.875125 C167.286376,130.875125 167.317943,130.862729 167.344641,130.837938 C167.371339,130.813146 167.384688,130.783833 167.384688,130.75 Z M169,130.499969 L169,135.499937 C169,135.635417 168.946682,135.752594 168.840047,135.851469 C168.733412,135.950344 168.607224,135.999854 168.461484,136 L162.538516,136 C162.392619,136 162.266431,135.95049 162.159953,135.851469 C162.053475,135.752448 162.000157,135.635271 162,135.499937 L162,130.499969 C162,130.36449 162.053318,130.247312 162.159953,130.148438 C162.266588,130.049563 162.392776,130.000052 162.538516,129.999906 L163.077032,129.999906 L163.077032,129.624969 C163.077032,129.453031 163.142913,129.305885 163.274676,129.183531 C163.406439,129.061177 163.5649,129 163.750059,129 L164.019317,129 C164.204476,129 164.362937,129.061177 164.4947,129.183531 C164.626463,129.305885 164.692344,129.453031 164.692344,129.624969 L164.692344,129.999906 L166.307656,129.999906 L166.307656,129.624969 C166.307656,129.453031 166.373537,129.305885 166.5053,129.183531 C166.637063,129.061177 166.795524,129 166.980683,129 L167.249941,129 C167.4351,129 167.593561,129.061177 167.725324,129.183531 C167.857087,129.305885 167.922968,129.453031 167.922968,129.624969 L167.922968,129.999906 L168.461484,129.999906 C168.607381,129.999906 168.733569,130.049417 168.840047,130.148438 C168.946525,130.247458 168.999843,130.364635 169,130.499969 Z" id="Shape" fill="#4C5358" fill-rule="nonzero"></path>
                    <path d="M162.538751,159.499937 L163.750294,159.499937 L163.750294,158.374906 L162.538751,158.374906 L162.538751,159.499937 Z M164.019317,159.499937 L165.365371,159.499937 L165.365371,158.374906 L164.019317,158.374906 L164.019317,159.499937 Z M162.538751,158.125094 L163.750294,158.125094 L163.750294,156.875156 L162.538751,156.875156 L162.538751,158.125094 L162.538751,158.125094 Z M164.019317,158.125094 L165.365371,158.125094 L165.365371,156.875156 L164.019317,156.875156 L164.019317,158.125094 L164.019317,158.125094 Z M162.538751,156.624906 L163.750294,156.624906 L163.750294,155.499875 L162.538751,155.499875 L162.538751,156.624906 Z M165.634865,159.499937 L166.980919,159.499937 L166.980919,158.374906 L165.634865,158.374906 L165.634865,159.499937 Z M164.019317,156.624906 L165.365371,156.624906 L165.365371,155.499875 L164.019317,155.499875 L164.019317,156.624906 Z M167.250177,159.499937 L168.46172,159.499937 L168.46172,158.374906 L167.250177,158.374906 L167.250177,159.499937 Z M165.634865,158.125094 L166.980919,158.125094 L166.980919,156.875156 L165.634865,156.875156 L165.634865,158.125094 L165.634865,158.125094 Z M164.154064,154.75 L164.154064,153.624969 C164.154064,153.591135 164.140715,153.561823 164.114016,153.537031 C164.087318,153.51224 164.055752,153.499844 164.019317,153.499844 L163.750059,153.499844 C163.713624,153.499844 163.682057,153.51224 163.655359,153.537031 C163.628661,153.561823 163.615312,153.591135 163.615312,153.624969 L163.615312,154.75 C163.615312,154.783833 163.628661,154.813146 163.655359,154.837938 C163.682057,154.862729 163.713624,154.875125 163.750059,154.875125 L164.019317,154.875125 C164.055752,154.875125 164.087318,154.862729 164.114016,154.837938 C164.140715,154.813146 164.154064,154.783833 164.154064,154.75 Z M167.250177,158.125094 L168.46172,158.125094 L168.46172,156.875156 L167.250177,156.875156 L167.250177,158.125094 Z M165.634865,156.624906 L166.980919,156.624906 L166.980919,155.499875 L165.634865,155.499875 L165.634865,156.624906 L165.634865,156.624906 Z M167.250177,156.624906 L168.46172,156.624906 L168.46172,155.499875 L167.250177,155.499875 L167.250177,156.624906 Z M167.384688,154.75 L167.384688,153.624969 C167.384688,153.591135 167.371339,153.561823 167.344641,153.537031 C167.317943,153.51224 167.286376,153.499844 167.249941,153.499844 L166.980683,153.499844 C166.944248,153.499844 166.912682,153.51224 166.885984,153.537031 C166.859285,153.561823 166.845936,153.591135 166.845936,153.624969 L166.845936,154.75 C166.845936,154.783833 166.859285,154.813146 166.885984,154.837938 C166.912682,154.862729 166.944248,154.875125 166.980683,154.875125 L167.249941,154.875125 C167.286376,154.875125 167.317943,154.862729 167.344641,154.837938 C167.371339,154.813146 167.384688,154.783833 167.384688,154.75 Z M169,154.499969 L169,159.499937 C169,159.635417 168.946682,159.752594 168.840047,159.851469 C168.733412,159.950344 168.607224,159.999854 168.461484,160 L162.538516,160 C162.392619,160 162.266431,159.95049 162.159953,159.851469 C162.053475,159.752448 162.000157,159.635271 162,159.499937 L162,154.499969 C162,154.36449 162.053318,154.247312 162.159953,154.148438 C162.266588,154.049563 162.392776,154.000052 162.538516,153.999906 L163.077032,153.999906 L163.077032,153.624969 C163.077032,153.453031 163.142913,153.305885 163.274676,153.183531 C163.406439,153.061177 163.5649,153 163.750059,153 L164.019317,153 C164.204476,153 164.362937,153.061177 164.4947,153.183531 C164.626463,153.305885 164.692344,153.453031 164.692344,153.624969 L164.692344,153.999906 L166.307656,153.999906 L166.307656,153.624969 C166.307656,153.453031 166.373537,153.305885 166.5053,153.183531 C166.637063,153.061177 166.795524,153 166.980683,153 L167.249941,153 C167.4351,153 167.593561,153.061177 167.725324,153.183531 C167.857087,153.305885 167.922968,153.453031 167.922968,153.624969 L167.922968,153.999906 L168.461484,153.999906 C168.607381,153.999906 168.733569,154.049417 168.840047,154.148438 C168.946525,154.247458 168.999843,154.364635 169,154.499969 Z" id="Shape" fill="#4C5358" fill-rule="nonzero"></path>
                    <path d="M162.538751,183.499937 L163.750294,183.499937 L163.750294,182.374906 L162.538751,182.374906 L162.538751,183.499937 Z M164.019317,183.499937 L165.365371,183.499937 L165.365371,182.374906 L164.019317,182.374906 L164.019317,183.499937 Z M162.538751,182.125094 L163.750294,182.125094 L163.750294,180.875156 L162.538751,180.875156 L162.538751,182.125094 L162.538751,182.125094 Z M164.019317,182.125094 L165.365371,182.125094 L165.365371,180.875156 L164.019317,180.875156 L164.019317,182.125094 L164.019317,182.125094 Z M162.538751,180.624906 L163.750294,180.624906 L163.750294,179.499875 L162.538751,179.499875 L162.538751,180.624906 Z M165.634865,183.499937 L166.980919,183.499937 L166.980919,182.374906 L165.634865,182.374906 L165.634865,183.499937 Z M164.019317,180.624906 L165.365371,180.624906 L165.365371,179.499875 L164.019317,179.499875 L164.019317,180.624906 Z M167.250177,183.499937 L168.46172,183.499937 L168.46172,182.374906 L167.250177,182.374906 L167.250177,183.499937 Z M165.634865,182.125094 L166.980919,182.125094 L166.980919,180.875156 L165.634865,180.875156 L165.634865,182.125094 L165.634865,182.125094 Z M164.154064,178.75 L164.154064,177.624969 C164.154064,177.591135 164.140715,177.561823 164.114016,177.537031 C164.087318,177.51224 164.055752,177.499844 164.019317,177.499844 L163.750059,177.499844 C163.713624,177.499844 163.682057,177.51224 163.655359,177.537031 C163.628661,177.561823 163.615312,177.591135 163.615312,177.624969 L163.615312,178.75 C163.615312,178.783833 163.628661,178.813146 163.655359,178.837938 C163.682057,178.862729 163.713624,178.875125 163.750059,178.875125 L164.019317,178.875125 C164.055752,178.875125 164.087318,178.862729 164.114016,178.837938 C164.140715,178.813146 164.154064,178.783833 164.154064,178.75 Z M167.250177,182.125094 L168.46172,182.125094 L168.46172,180.875156 L167.250177,180.875156 L167.250177,182.125094 Z M165.634865,180.624906 L166.980919,180.624906 L166.980919,179.499875 L165.634865,179.499875 L165.634865,180.624906 L165.634865,180.624906 Z M167.250177,180.624906 L168.46172,180.624906 L168.46172,179.499875 L167.250177,179.499875 L167.250177,180.624906 Z M167.384688,178.75 L167.384688,177.624969 C167.384688,177.591135 167.371339,177.561823 167.344641,177.537031 C167.317943,177.51224 167.286376,177.499844 167.249941,177.499844 L166.980683,177.499844 C166.944248,177.499844 166.912682,177.51224 166.885984,177.537031 C166.859285,177.561823 166.845936,177.591135 166.845936,177.624969 L166.845936,178.75 C166.845936,178.783833 166.859285,178.813146 166.885984,178.837938 C166.912682,178.862729 166.944248,178.875125 166.980683,178.875125 L167.249941,178.875125 C167.286376,178.875125 167.317943,178.862729 167.344641,178.837938 C167.371339,178.813146 167.384688,178.783833 167.384688,178.75 Z M169,178.499969 L169,183.499937 C169,183.635417 168.946682,183.752594 168.840047,183.851469 C168.733412,183.950344 168.607224,183.999854 168.461484,184 L162.538516,184 C162.392619,184 162.266431,183.95049 162.159953,183.851469 C162.053475,183.752448 162.000157,183.635271 162,183.499937 L162,178.499969 C162,178.36449 162.053318,178.247312 162.159953,178.148438 C162.266588,178.049563 162.392776,178.000052 162.538516,177.999906 L163.077032,177.999906 L163.077032,177.624969 C163.077032,177.453031 163.142913,177.305885 163.274676,177.183531 C163.406439,177.061177 163.5649,177 163.750059,177 L164.019317,177 C164.204476,177 164.362937,177.061177 164.4947,177.183531 C164.626463,177.305885 164.692344,177.453031 164.692344,177.624969 L164.692344,177.999906 L166.307656,177.999906 L166.307656,177.624969 C166.307656,177.453031 166.373537,177.305885 166.5053,177.183531 C166.637063,177.061177 166.795524,177 166.980683,177 L167.249941,177 C167.4351,177 167.593561,177.061177 167.725324,177.183531 C167.857087,177.305885 167.922968,177.453031 167.922968,177.624969 L167.922968,177.999906 L168.461484,177.999906 C168.607381,177.999906 168.733569,178.049417 168.840047,178.148438 C168.946525,178.247458 168.999843,178.364635 169,178.499969 Z" id="Shape" fill="#4C5358" fill-rule="nonzero"></path>
                    <path d="M162.538751,207.499937 L163.750294,207.499937 L163.750294,206.374906 L162.538751,206.374906 L162.538751,207.499937 Z M164.019317,207.499937 L165.365371,207.499937 L165.365371,206.374906 L164.019317,206.374906 L164.019317,207.499937 Z M162.538751,206.125094 L163.750294,206.125094 L163.750294,204.875156 L162.538751,204.875156 L162.538751,206.125094 L162.538751,206.125094 Z M164.019317,206.125094 L165.365371,206.125094 L165.365371,204.875156 L164.019317,204.875156 L164.019317,206.125094 L164.019317,206.125094 Z M162.538751,204.624906 L163.750294,204.624906 L163.750294,203.499875 L162.538751,203.499875 L162.538751,204.624906 Z M165.634865,207.499937 L166.980919,207.499937 L166.980919,206.374906 L165.634865,206.374906 L165.634865,207.499937 Z M164.019317,204.624906 L165.365371,204.624906 L165.365371,203.499875 L164.019317,203.499875 L164.019317,204.624906 Z M167.250177,207.499937 L168.46172,207.499937 L168.46172,206.374906 L167.250177,206.374906 L167.250177,207.499937 Z M165.634865,206.125094 L166.980919,206.125094 L166.980919,204.875156 L165.634865,204.875156 L165.634865,206.125094 L165.634865,206.125094 Z M164.154064,202.75 L164.154064,201.624969 C164.154064,201.591135 164.140715,201.561823 164.114016,201.537031 C164.087318,201.51224 164.055752,201.499844 164.019317,201.499844 L163.750059,201.499844 C163.713624,201.499844 163.682057,201.51224 163.655359,201.537031 C163.628661,201.561823 163.615312,201.591135 163.615312,201.624969 L163.615312,202.75 C163.615312,202.783833 163.628661,202.813146 163.655359,202.837938 C163.682057,202.862729 163.713624,202.875125 163.750059,202.875125 L164.019317,202.875125 C164.055752,202.875125 164.087318,202.862729 164.114016,202.837938 C164.140715,202.813146 164.154064,202.783833 164.154064,202.75 Z M167.250177,206.125094 L168.46172,206.125094 L168.46172,204.875156 L167.250177,204.875156 L167.250177,206.125094 Z M165.634865,204.624906 L166.980919,204.624906 L166.980919,203.499875 L165.634865,203.499875 L165.634865,204.624906 L165.634865,204.624906 Z M167.250177,204.624906 L168.46172,204.624906 L168.46172,203.499875 L167.250177,203.499875 L167.250177,204.624906 Z M167.384688,202.75 L167.384688,201.624969 C167.384688,201.591135 167.371339,201.561823 167.344641,201.537031 C167.317943,201.51224 167.286376,201.499844 167.249941,201.499844 L166.980683,201.499844 C166.944248,201.499844 166.912682,201.51224 166.885984,201.537031 C166.859285,201.561823 166.845936,201.591135 166.845936,201.624969 L166.845936,202.75 C166.845936,202.783833 166.859285,202.813146 166.885984,202.837938 C166.912682,202.862729 166.944248,202.875125 166.980683,202.875125 L167.249941,202.875125 C167.286376,202.875125 167.317943,202.862729 167.344641,202.837938 C167.371339,202.813146 167.384688,202.783833 167.384688,202.75 Z M169,202.499969 L169,207.499937 C169,207.635417 168.946682,207.752594 168.840047,207.851469 C168.733412,207.950344 168.607224,207.999854 168.461484,208 L162.538516,208 C162.392619,208 162.266431,207.95049 162.159953,207.851469 C162.053475,207.752448 162.000157,207.635271 162,207.499937 L162,202.499969 C162,202.36449 162.053318,202.247312 162.159953,202.148438 C162.266588,202.049563 162.392776,202.000052 162.538516,201.999906 L163.077032,201.999906 L163.077032,201.624969 C163.077032,201.453031 163.142913,201.305885 163.274676,201.183531 C163.406439,201.061177 163.5649,201 163.750059,201 L164.019317,201 C164.204476,201 164.362937,201.061177 164.4947,201.183531 C164.626463,201.305885 164.692344,201.453031 164.692344,201.624969 L164.692344,201.999906 L166.307656,201.999906 L166.307656,201.624969 C166.307656,201.453031 166.373537,201.305885 166.5053,201.183531 C166.637063,201.061177 166.795524,201 166.980683,201 L167.249941,201 C167.4351,201 167.593561,201.061177 167.725324,201.183531 C167.857087,201.305885 167.922968,201.453031 167.922968,201.624969 L167.922968,201.999906 L168.461484,201.999906 C168.607381,201.999906 168.733569,202.049417 168.840047,202.148438 C168.946525,202.247458 168.999843,202.364635 169,202.499969 Z" id="Shape" fill="#4C5358" fill-rule="nonzero"></path>
                    <path d="M211.11096,84.74406 L213.322704,87.0409571 C213.036425,87.343912 212.702206,87.5794911 212.320047,87.7476947 C211.937888,87.9158982 211.534859,88 211.11096,88 C210.546568,88 210.026033,87.85559 209.549355,87.5667699 C209.072677,87.2779498 208.695282,86.8860245 208.417169,86.3909941 C208.139056,85.8959637 208,85.355388 208,84.769267 C208,84.183146 208.139056,83.6425703 208.417169,83.1475399 C208.695282,82.6525095 209.072677,82.2605842 209.549355,81.9717642 C210.026033,81.6829441 210.546568,81.538534 211.11096,81.538534 L211.11096,84.74406 Z M211.868624,84.769267 L215,84.769267 C215,85.209643 214.919016,85.6281887 214.757048,86.0249041 C214.595081,86.4216194 214.368235,86.7687061 214.076512,87.0661641 L211.868624,84.769267 Z M214.740489,84.230733 L211.629529,84.230733 L211.629529,81 C212.193921,81 212.714455,81.14441 213.191134,81.4332301 C213.667812,81.7220502 214.045207,82.1139755 214.32332,82.6090059 C214.601432,83.1040363 214.740489,83.644612 214.740489,84.230733 L214.740489,84.230733 Z" id="Shape" fill="#4C5358" fill-rule="nonzero"></path>
                    <path d="M211.11096,108.74406 L213.322704,111.040957 C213.036425,111.343912 212.702206,111.579491 212.320047,111.747695 C211.937888,111.915898 211.534859,112 211.11096,112 C210.546568,112 210.026033,111.85559 209.549355,111.56677 C209.072677,111.27795 208.695282,110.886025 208.417169,110.390994 C208.139056,109.895964 208,109.355388 208,108.769267 C208,108.183146 208.139056,107.64257 208.417169,107.14754 C208.695282,106.652509 209.072677,106.260584 209.549355,105.971764 C210.026033,105.682944 210.546568,105.538534 211.11096,105.538534 L211.11096,108.74406 Z M211.868624,108.769267 L215,108.769267 C215,109.209643 214.919016,109.628189 214.757048,110.024904 C214.595081,110.421619 214.368235,110.768706 214.076512,111.066164 L211.868624,108.769267 Z M214.740489,108.230733 L211.629529,108.230733 L211.629529,105 C212.193921,105 212.714455,105.14441 213.191134,105.43323 C213.667812,105.72205 214.045207,106.113975 214.32332,106.609006 C214.601432,107.104036 214.740489,107.644612 214.740489,108.230733 L214.740489,108.230733 Z" id="Shape" fill="#4C5358" fill-rule="nonzero"></path>
                    <path d="M211.11096,132.74406 L213.322704,135.040957 C213.036425,135.343912 212.702206,135.579491 212.320047,135.747695 C211.937888,135.915898 211.534859,136 211.11096,136 C210.546568,136 210.026033,135.85559 209.549355,135.56677 C209.072677,135.27795 208.695282,134.886025 208.417169,134.390994 C208.139056,133.895964 208,133.355388 208,132.769267 C208,132.183146 208.139056,131.64257 208.417169,131.14754 C208.695282,130.652509 209.072677,130.260584 209.549355,129.971764 C210.026033,129.682944 210.546568,129.538534 211.11096,129.538534 L211.11096,132.74406 Z M211.868624,132.769267 L215,132.769267 C215,133.209643 214.919016,133.628189 214.757048,134.024904 C214.595081,134.421619 214.368235,134.768706 214.076512,135.066164 L211.868624,132.769267 Z M214.740489,132.230733 L211.629529,132.230733 L211.629529,129 C212.193921,129 212.714455,129.14441 213.191134,129.43323 C213.667812,129.72205 214.045207,130.113975 214.32332,130.609006 C214.601432,131.104036 214.740489,131.644612 214.740489,132.230733 L214.740489,132.230733 Z" id="Shape" fill="#4C5358" fill-rule="nonzero"></path>
                    <path d="M211.11096,156.74406 L213.322704,159.040957 C213.036425,159.343912 212.702206,159.579491 212.320047,159.747695 C211.937888,159.915898 211.534859,160 211.11096,160 C210.546568,160 210.026033,159.85559 209.549355,159.56677 C209.072677,159.27795 208.695282,158.886025 208.417169,158.390994 C208.139056,157.895964 208,157.355388 208,156.769267 C208,156.183146 208.139056,155.64257 208.417169,155.14754 C208.695282,154.652509 209.072677,154.260584 209.549355,153.971764 C210.026033,153.682944 210.546568,153.538534 211.11096,153.538534 L211.11096,156.74406 Z M211.868624,156.769267 L215,156.769267 C215,157.209643 214.919016,157.628189 214.757048,158.024904 C214.595081,158.421619 214.368235,158.768706 214.076512,159.066164 L211.868624,156.769267 Z M214.740489,156.230733 L211.629529,156.230733 L211.629529,153 C212.193921,153 212.714455,153.14441 213.191134,153.43323 C213.667812,153.72205 214.045207,154.113975 214.32332,154.609006 C214.601432,155.104036 214.740489,155.644612 214.740489,156.230733 L214.740489,156.230733 Z" id="Shape" fill="#4C5358" fill-rule="nonzero"></path>
                    <path d="M211.11096,180.74406 L213.322704,183.040957 C213.036425,183.343912 212.702206,183.579491 212.320047,183.747695 C211.937888,183.915898 211.534859,184 211.11096,184 C210.546568,184 210.026033,183.85559 209.549355,183.56677 C209.072677,183.27795 208.695282,182.886025 208.417169,182.390994 C208.139056,181.895964 208,181.355388 208,180.769267 C208,180.183146 208.139056,179.64257 208.417169,179.14754 C208.695282,178.652509 209.072677,178.260584 209.549355,177.971764 C210.026033,177.682944 210.546568,177.538534 211.11096,177.538534 L211.11096,180.74406 Z M211.868624,180.769267 L215,180.769267 C215,181.209643 214.919016,181.628189 214.757048,182.024904 C214.595081,182.421619 214.368235,182.768706 214.076512,183.066164 L211.868624,180.769267 Z M214.740489,180.230733 L211.629529,180.230733 L211.629529,177 C212.193921,177 212.714455,177.14441 213.191134,177.43323 C213.667812,177.72205 214.045207,178.113975 214.32332,178.609006 C214.601432,179.104036 214.740489,179.644612 214.740489,180.230733 L214.740489,180.230733 Z" id="Shape" fill="#4C5358" fill-rule="nonzero"></path>
                    <path d="M211.11096,204.74406 L213.322704,207.040957 C213.036425,207.343912 212.702206,207.579491 212.320047,207.747695 C211.937888,207.915898 211.534859,208 211.11096,208 C210.546568,208 210.026033,207.85559 209.549355,207.56677 C209.072677,207.27795 208.695282,206.886025 208.417169,206.390994 C208.139056,205.895964 208,205.355388 208,204.769267 C208,204.183146 208.139056,203.64257 208.417169,203.14754 C208.695282,202.652509 209.072677,202.260584 209.549355,201.971764 C210.026033,201.682944 210.546568,201.538534 211.11096,201.538534 L211.11096,204.74406 Z M211.868624,204.769267 L215,204.769267 C215,205.209643 214.919016,205.628189 214.757048,206.024904 C214.595081,206.421619 214.368235,206.768706 214.076512,207.066164 L211.868624,204.769267 Z M214.740489,204.230733 L211.629529,204.230733 L211.629529,201 C212.193921,201 212.714455,201.14441 213.191134,201.43323 C213.667812,201.72205 214.045207,202.113975 214.32332,202.609006 C214.601432,203.104036 214.740489,203.644612 214.740489,204.230733 L214.740489,204.230733 Z" id="Shape" fill="#4C5358" fill-rule="nonzero"></path>
                    <path d="M211.11096,60.74406 L213.322704,63.0409571 C213.036425,63.343912 212.702206,63.5794911 212.320047,63.7476947 C211.937888,63.9158982 211.534859,64 211.11096,64 C210.546568,64 210.026033,63.85559 209.549355,63.5667699 C209.072677,63.2779498 208.695282,62.8860245 208.417169,62.3909941 C208.139056,61.8959637 208,61.355388 208,60.769267 C208,60.183146 208.139056,59.6425703 208.417169,59.1475399 C208.695282,58.6525095 209.072677,58.2605842 209.549355,57.9717642 C210.026033,57.6829441 210.546568,57.538534 211.11096,57.538534 L211.11096,60.74406 Z M211.868624,60.769267 L215,60.769267 C215,61.209643 214.919016,61.6281887 214.757048,62.0249041 C214.595081,62.4216194 214.368235,62.7687061 214.076512,63.0661641 L211.868624,60.769267 Z M214.740489,60.230733 L211.629529,60.230733 L211.629529,57 C212.193921,57 212.714455,57.14441 213.191134,57.4332301 C213.667812,57.7220502 214.045207,58.1139755 214.32332,58.6090059 C214.601432,59.1040363 214.740489,59.644612 214.740489,60.230733 L214.740489,60.230733 Z" id="Shape" fill="#4C5358" fill-rule="nonzero"></path>
                    <path d="M211.11096,36.74406 L213.322704,39.0409571 C213.036425,39.343912 212.702206,39.5794911 212.320047,39.7476947 C211.937888,39.9158982 211.534859,40 211.11096,40 C210.546568,40 210.026033,39.85559 209.549355,39.5667699 C209.072677,39.2779498 208.695282,38.8860245 208.417169,38.3909941 C208.139056,37.8959637 208,37.355388 208,36.769267 C208,36.183146 208.139056,35.6425703 208.417169,35.1475399 C208.695282,34.6525095 209.072677,34.2605842 209.549355,33.9717642 C210.026033,33.6829441 210.546568,33.538534 211.11096,33.538534 L211.11096,36.74406 Z M211.868624,36.769267 L215,36.769267 C215,37.209643 214.919016,37.6281887 214.757048,38.0249041 C214.595081,38.4216194 214.368235,38.7687061 214.076512,39.0661641 L211.868624,36.769267 Z M214.740489,36.230733 L211.629529,36.230733 L211.629529,33 C212.193921,33 212.714455,33.14441 213.191134,33.4332301 C213.667812,33.7220502 214.045207,34.1139755 214.32332,34.6090059 C214.601432,35.1040363 214.740489,35.644612 214.740489,36.230733 L214.740489,36.230733 Z" id="Shape" fill="#4C5358" fill-rule="nonzero"></path>
                    <path d="M260,36.5002805 C260,36.5436677 259.982779,36.582099 259.948336,36.6155745 L257.546662,38.9497868 C257.512219,38.9832623 257.472677,39 257.428035,39 C257.383394,39 257.343852,38.9832623 257.309409,38.9497868 L257.051664,38.6992819 C257.017221,38.6658064 257,38.6273751 257,38.5839879 C257,38.5406007 257.017221,38.5021694 257.051664,38.4686939 L259.077256,36.5 L257.051664,34.5313061 C257.017221,34.4978306 257,34.4593993 257,34.4160121 C257,34.3726249 257.017221,34.3341936 257.051664,34.3007181 L257.309409,34.0502132 C257.343852,34.0167377 257.383394,34 257.428035,34 C257.472677,34 257.512219,34.0167377 257.546662,34.0502132 L259.948336,36.3844255 C259.982779,36.417901 260,36.4563323 260,36.4997195 L260,36.5002805 Z" id="Shape" fill="#7C878E" fill-rule="nonzero" opacity="0.699999988"></path>
                    <path d="M260,60.5002805 C260,60.5436677 259.982779,60.582099 259.948336,60.6155745 L257.546662,62.9497868 C257.512219,62.9832623 257.472677,63 257.428035,63 C257.383394,63 257.343852,62.9832623 257.309409,62.9497868 L257.051664,62.6992819 C257.017221,62.6658064 257,62.6273751 257,62.5839879 C257,62.5406007 257.017221,62.5021694 257.051664,62.4686939 L259.077256,60.5 L257.051664,58.5313061 C257.017221,58.4978306 257,58.4593993 257,58.4160121 C257,58.3726249 257.017221,58.3341936 257.051664,58.3007181 L257.309409,58.0502132 C257.343852,58.0167377 257.383394,58 257.428035,58 C257.472677,58 257.512219,58.0167377 257.546662,58.0502132 L259.948336,60.3844255 C259.982779,60.417901 260,60.4563323 260,60.4997195 L260,60.5002805 Z" id="Shape" fill="#7C878E" fill-rule="nonzero" opacity="0.699999988"></path>
                    <path d="M260,84.5002805 C260,84.5436677 259.982779,84.582099 259.948336,84.6155745 L257.546662,86.9497868 C257.512219,86.9832623 257.472677,87 257.428035,87 C257.383394,87 257.343852,86.9832623 257.309409,86.9497868 L257.051664,86.6992819 C257.017221,86.6658064 257,86.6273751 257,86.5839879 C257,86.5406007 257.017221,86.5021694 257.051664,86.4686939 L259.077256,84.5 L257.051664,82.5313061 C257.017221,82.4978306 257,82.4593993 257,82.4160121 C257,82.3726249 257.017221,82.3341936 257.051664,82.3007181 L257.309409,82.0502132 C257.343852,82.0167377 257.383394,82 257.428035,82 C257.472677,82 257.512219,82.0167377 257.546662,82.0502132 L259.948336,84.3844255 C259.982779,84.417901 260,84.4563323 260,84.4997195 L260,84.5002805 Z" id="Shape" fill="#7C878E" fill-rule="nonzero" opacity="0.699999988"></path>
                    <path d="M260,108.500281 C260,108.543668 259.982779,108.582099 259.948336,108.615575 L257.546662,110.949787 C257.512219,110.983262 257.472677,111 257.428035,111 C257.383394,111 257.343852,110.983262 257.309409,110.949787 L257.051664,110.699282 C257.017221,110.665806 257,110.627375 257,110.583988 C257,110.540601 257.017221,110.502169 257.051664,110.468694 L259.077256,108.5 L257.051664,106.531306 C257.017221,106.497831 257,106.459399 257,106.416012 C257,106.372625 257.017221,106.334194 257.051664,106.300718 L257.309409,106.050213 C257.343852,106.016738 257.383394,106 257.428035,106 C257.472677,106 257.512219,106.016738 257.546662,106.050213 L259.948336,108.384425 C259.982779,108.417901 260,108.456332 260,108.499719 L260,108.500281 Z" id="Shape" fill="#7C878E" fill-rule="nonzero" opacity="0.699999988"></path>
                    <path d="M260,132.500281 C260,132.543668 259.982779,132.582099 259.948336,132.615575 L257.546662,134.949787 C257.512219,134.983262 257.472677,135 257.428035,135 C257.383394,135 257.343852,134.983262 257.309409,134.949787 L257.051664,134.699282 C257.017221,134.665806 257,134.627375 257,134.583988 C257,134.540601 257.017221,134.502169 257.051664,134.468694 L259.077256,132.5 L257.051664,130.531306 C257.017221,130.497831 257,130.459399 257,130.416012 C257,130.372625 257.017221,130.334194 257.051664,130.300718 L257.309409,130.050213 C257.343852,130.016738 257.383394,130 257.428035,130 C257.472677,130 257.512219,130.016738 257.546662,130.050213 L259.948336,132.384425 C259.982779,132.417901 260,132.456332 260,132.499719 L260,132.500281 Z" id="Shape" fill="#7C878E" fill-rule="nonzero" opacity="0.699999988"></path>
                    <path d="M260,156.500281 C260,156.543668 259.982779,156.582099 259.948336,156.615575 L257.546662,158.949787 C257.512219,158.983262 257.472677,159 257.428035,159 C257.383394,159 257.343852,158.983262 257.309409,158.949787 L257.051664,158.699282 C257.017221,158.665806 257,158.627375 257,158.583988 C257,158.540601 257.017221,158.502169 257.051664,158.468694 L259.077256,156.5 L257.051664,154.531306 C257.017221,154.497831 257,154.459399 257,154.416012 C257,154.372625 257.017221,154.334194 257.051664,154.300718 L257.309409,154.050213 C257.343852,154.016738 257.383394,154 257.428035,154 C257.472677,154 257.512219,154.016738 257.546662,154.050213 L259.948336,156.384425 C259.982779,156.417901 260,156.456332 260,156.499719 L260,156.500281 Z" id="Shape" fill="#7C878E" fill-rule="nonzero" opacity="0.699999988"></path>
                    <path d="M260,180.500281 C260,180.543668 259.982779,180.582099 259.948336,180.615575 L257.546662,182.949787 C257.512219,182.983262 257.472677,183 257.428035,183 C257.383394,183 257.343852,182.983262 257.309409,182.949787 L257.051664,182.699282 C257.017221,182.665806 257,182.627375 257,182.583988 C257,182.540601 257.017221,182.502169 257.051664,182.468694 L259.077256,180.5 L257.051664,178.531306 C257.017221,178.497831 257,178.459399 257,178.416012 C257,178.372625 257.017221,178.334194 257.051664,178.300718 L257.309409,178.050213 C257.343852,178.016738 257.383394,178 257.428035,178 C257.472677,178 257.512219,178.016738 257.546662,178.050213 L259.948336,180.384425 C259.982779,180.417901 260,180.456332 260,180.499719 L260,180.500281 Z" id="Shape" fill="#7C878E" fill-rule="nonzero" opacity="0.699999988"></path>
                    <path d="M260,204.500281 C260,204.543668 259.982779,204.582099 259.948336,204.615575 L257.546662,206.949787 C257.512219,206.983262 257.472677,207 257.428035,207 C257.383394,207 257.343852,206.983262 257.309409,206.949787 L257.051664,206.699282 C257.017221,206.665806 257,206.627375 257,206.583988 C257,206.540601 257.017221,206.502169 257.051664,206.468694 L259.077256,204.5 L257.051664,202.531306 C257.017221,202.497831 257,202.459399 257,202.416012 C257,202.372625 257.017221,202.334194 257.051664,202.300718 L257.309409,202.050213 C257.343852,202.016738 257.383394,202 257.428035,202 C257.472677,202 257.512219,202.016738 257.546662,202.050213 L259.948336,204.384425 C259.982779,204.417901 260,204.456332 260,204.499719 L260,204.500281 Z" id="Shape" fill="#7C878E" fill-rule="nonzero" opacity="0.699999988"></path>
                </g>
            </g>
        </g>
    </g>
</svg>