<?xml version="1.0" encoding="UTF-8"?>
<svg width="305px" height="101px" viewBox="0 0 305 101" version="1.1" xmlns="http://www.w3.org/2000/svg" xmlns:xlink="http://www.w3.org/1999/xlink">
    <!-- Generator: Sketch 47 (45396) - http://www.bohemiancoding.com/sketch -->
    <title>AlternateColors</title>
    <desc>Created with Sketch.</desc>
    <defs>
        <rect id="path-1" x="0" y="40" width="305" height="21"></rect>
        <rect id="path-2" x="0" y="60" width="305" height="21"></rect>
        <rect id="path-3" x="0" y="80" width="305" height="21"></rect>
        <rect id="path-4" x="0" y="20" width="305" height="21"></rect>
        <rect id="path-5" x="0" y="0" width="305" height="21"></rect>
    </defs>
    <g id="Page-1" stroke="none" stroke-width="1" fill="none" fill-rule="evenodd">
        <g id="Buttons-Usage-extra-large-1200" transform="translate(-349.000000, -4169.000000)">
            <g id="AlternateColors" transform="translate(349.000000, 4169.000000)">
                <g id="Rectangle-Copy-3">
                    <use fill="#EFF1F1" fill-rule="evenodd" xlink:href="#path-1"></use>
                    <rect stroke="#D2D6D9" stroke-width="1" x="0.5" y="40.5" width="304" height="20"></rect>
                </g>
                <g id="Rectangle-Copy-6">
                    <use fill="#FFFFFF" fill-rule="evenodd" xlink:href="#path-2"></use>
                    <rect stroke="#D2D6D9" stroke-width="1" x="0.5" y="60.5" width="304" height="20"></rect>
                </g>
                <g id="Rectangle-Copy-7">
                    <use fill="#EFF1F1" fill-rule="evenodd" xlink:href="#path-3"></use>
                    <rect stroke="#D2D6D9" stroke-width="1" x="0.5" y="80.5" width="304" height="20"></rect>
                </g>
                <g id="Rectangle-Copy-4">
                    <use fill="#FFFFFF" fill-rule="evenodd" xlink:href="#path-4"></use>
                    <rect stroke="#D2D6D9" stroke-width="1" x="0.5" y="20.5" width="304" height="20"></rect>
                </g>
                <g id="Rectangle-Copy-5">
                    <use fill="#EFF1F1" fill-rule="evenodd" xlink:href="#path-5"></use>
                    <rect stroke="#D2D6D9" stroke-width="1" x="0.5" y="0.5" width="304" height="20"></rect>
                </g>
                <rect id="Rectangle-3" fill="#AAB1B6" x="15.9593023" y="9" width="35.4651163" height="4" rx="2"></rect>
                <rect id="Rectangle-3-Copy-5" fill="#AAB1B6" x="93.0959302" y="9" width="52.3110465" height="4" rx="2"></rect>
                <rect id="Rectangle-3-Copy-8" fill="#AAB1B6" x="172.005814" y="9" width="23.0523256" height="4" rx="2"></rect>
                <rect id="Rectangle-3-Copy-11" fill="#AAB1B6" x="223.430233" y="8" width="23.0523256" height="4" rx="2"></rect>
                <rect id="Rectangle-3-Copy-41" fill="#AAB1B6" x="269.534884" y="8" width="23.0523256" height="4" rx="2"></rect>
                <rect id="Rectangle-3-Copy-3" fill="#D2D6D9" x="16.8459302" y="29" width="35.4651163" height="4" rx="2"></rect>
                <rect id="Rectangle-3-Copy-6" fill="#D2D6D9" x="93.0959302" y="29" width="52.3110465" height="4" rx="2"></rect>
                <rect id="Rectangle-3-Copy-9" fill="#D2D6D9" x="172.005814" y="29" width="16.8459302" height="4" rx="2"></rect>
                <rect id="Rectangle-3-Copy-12" fill="#D2D6D9" x="223.430233" y="28" width="16.8459302" height="4" rx="2"></rect>
                <rect id="Rectangle-3-Copy-42" fill="#D2D6D9" x="269.534884" y="28" width="16.8459302" height="4" rx="2"></rect>
                <rect id="Rectangle-3-Copy-4" fill="#D2D6D9" x="15.9593023" y="49" width="35.4651163" height="4" rx="2"></rect>
                <rect id="Rectangle-3-Copy-14" fill="#D2D6D9" x="15.9593023" y="69" width="35.4651163" height="4" rx="2"></rect>
                <rect id="Rectangle-3-Copy-18" fill="#D2D6D9" x="15.9593023" y="88" width="35.4651163" height="4" rx="2"></rect>
                <rect id="Rectangle-3-Copy-7" fill="#D2D6D9" x="93.0959302" y="49" width="52.3110465" height="4" rx="2"></rect>
                <rect id="Rectangle-3-Copy-15" fill="#D2D6D9" x="93.0959302" y="69" width="52.3110465" height="4" rx="2"></rect>
                <rect id="Rectangle-3-Copy-19" fill="#D2D6D9" x="93.0959302" y="88" width="52.3110465" height="4" rx="2"></rect>
                <rect id="Rectangle-3-Copy-10" fill="#D2D6D9" x="172.005814" y="49" width="17.7325581" height="4" rx="2"></rect>
                <rect id="Rectangle-3-Copy-16" fill="#D2D6D9" x="172.005814" y="69" width="17.7325581" height="4" rx="2"></rect>
                <rect id="Rectangle-3-Copy-20" fill="#D2D6D9" x="172.005814" y="88" width="17.7325581" height="4" rx="2"></rect>
                <rect id="Rectangle-3-Copy-13" fill="#D2D6D9" x="223.430233" y="48" width="17.7325581" height="4" rx="2"></rect>
                <rect id="Rectangle-3-Copy-43" fill="#D2D6D9" x="269.534884" y="48" width="17.7325581" height="4" rx="2"></rect>
                <rect id="Rectangle-3-Copy-17" fill="#D2D6D9" x="223.430233" y="68" width="17.7325581" height="4" rx="2"></rect>
                <rect id="Rectangle-3-Copy-44" fill="#D2D6D9" x="269.534884" y="68" width="17.7325581" height="4" rx="2"></rect>
                <rect id="Rectangle-3-Copy-21" fill="#D2D6D9" x="223.430233" y="88" width="17.7325581" height="4" rx="2"></rect>
                <rect id="Rectangle-3-Copy-45" fill="#D2D6D9" x="269.534884" y="88" width="17.7325581" height="4" rx="2"></rect>
            </g>
        </g>
    </g>
</svg>