<?xml version="1.0" encoding="UTF-8"?>
<svg width="305px" height="136px" viewBox="0 0 305 136" version="1.1" xmlns="http://www.w3.org/2000/svg" xmlns:xlink="http://www.w3.org/1999/xlink">
    <!-- Generator: Sketch 47 (45396) - http://www.bohemiancoding.com/sketch -->
    <title>EachChangeFeedback</title>
    <desc>Created with Sketch.</desc>
    <defs>
        <rect id="path-1" x="0" y="54" width="305" height="28"></rect>
        <rect id="path-2" x="0" y="27" width="305" height="28"></rect>
        <rect id="path-3" x="0" y="81" width="305" height="28"></rect>
        <rect id="path-4" x="0" y="108" width="305" height="28"></rect>
        <rect id="path-5" x="146" y="54" width="72" height="28"></rect>
        <rect id="path-6" x="0" y="0" width="305" height="28"></rect>
    </defs>
    <g id="Page-1" stroke="none" stroke-width="1" fill="none" fill-rule="evenodd">
        <g id="Buttons-Usage-extra-large-1200" transform="translate(-792.000000, -3309.000000)">
            <g id="EachChangeFeedback" transform="translate(792.000000, 3309.000000)">
                <g id="Rectangle-Copy-3">
                    <use fill="#FFFFFF" fill-rule="evenodd" xlink:href="#path-1"></use>
                    <rect stroke="#D2D6D9" stroke-width="1" x="0.5" y="54.5" width="304" height="27"></rect>
                </g>
                <g id="Rectangle-Copy-4">
                    <use fill="#FFFFFF" fill-rule="evenodd" xlink:href="#path-2"></use>
                    <rect stroke="#D2D6D9" stroke-width="1" x="0.5" y="27.5" width="304" height="27"></rect>
                </g>
                <g id="Rectangle-Copy-6">
                    <use fill="#FFFFFF" fill-rule="evenodd" xlink:href="#path-3"></use>
                    <rect stroke="#D2D6D9" stroke-width="1" x="0.5" y="81.5" width="304" height="27"></rect>
                </g>
                <g id="Rectangle-Copy-7">
                    <use fill="#FFFFFF" fill-rule="evenodd" xlink:href="#path-4"></use>
                    <rect stroke="#D2D6D9" stroke-width="1" x="0.5" y="108.5" width="304" height="27"></rect>
                </g>
                <g id="Rectangle-Copy-4">
                    <use fill="#DDEDBC" fill-rule="evenodd" xlink:href="#path-5"></use>
                    <rect stroke="#5D9834" stroke-width="1" x="146.5" y="54.5" width="71" height="27"></rect>
                </g>
                <g id="Rectangle-Copy-5">
                    <use fill="#EFF1F1" fill-rule="evenodd" xlink:href="#path-6"></use>
                    <rect stroke="#D2D6D9" stroke-width="1" x="0.5" y="0.5" width="304" height="27"></rect>
                </g>
                <rect id="Rectangle-3" fill="#AAB1B6" x="22" y="12" width="52" height="4" rx="2"></rect>
                <rect id="Rectangle-3-Copy-5" fill="#AAB1B6" x="156" y="12" width="52" height="4" rx="2"></rect>
                <rect id="Rectangle-3-Copy-8" fill="#AAB1B6" x="249" y="12" width="33" height="4" rx="2"></rect>
                <rect id="Rectangle-3-Copy-3" fill="#D2D6D9" x="24" y="39" width="52" height="4" rx="2"></rect>
                <rect id="Rectangle-3-Copy-6" fill="#D2D6D9" x="156" y="39" width="52" height="4" rx="2"></rect>
                <rect id="Rectangle-3-Copy-9" fill="#D2D6D9" x="249" y="39" width="24" height="4" rx="2"></rect>
                <rect id="Rectangle-3-Copy-4" fill="#D2D6D9" x="22" y="66" width="52" height="4" rx="2"></rect>
                <rect id="Rectangle-3-Copy-14" fill="#D2D6D9" x="22" y="93" width="52" height="4" rx="2"></rect>
                <rect id="Rectangle-3-Copy-18" fill="#D2D6D9" x="22" y="120" width="52" height="4" rx="2"></rect>
                <rect id="Rectangle-3-Copy-7" fill="#AAB1B6" x="156" y="66" width="52" height="4" rx="2"></rect>
                <rect id="Rectangle-3-Copy-15" fill="#D2D6D9" x="156" y="93" width="52" height="4" rx="2"></rect>
                <rect id="Rectangle-3-Copy-19" fill="#D2D6D9" x="156" y="120" width="52" height="4" rx="2"></rect>
                <rect id="Rectangle-3-Copy-10" fill="#D2D6D9" x="249" y="66" width="26" height="4" rx="2"></rect>
                <rect id="Rectangle-3-Copy-16" fill="#D2D6D9" x="249" y="93" width="26" height="4" rx="2"></rect>
                <rect id="Rectangle-3-Copy-20" fill="#D2D6D9" x="249" y="120" width="26" height="4" rx="2"></rect>
            </g>
        </g>
    </g>
</svg>