<?xml version="1.0" encoding="UTF-8"?>
<svg width="110px" height="79px" viewBox="0 0 110 79" version="1.1" xmlns="http://www.w3.org/2000/svg" xmlns:xlink="http://www.w3.org/1999/xlink">
    <!-- Generator: Sketch 47.1 (45422) - http://www.bohemiancoding.com/sketch -->
    <title>Stripped</title>
    <desc>Created with Sketch.</desc>
    <defs>
        <rect id="path-1" x="0" y="0" width="110" height="79"></rect>
        <rect id="path-3" x="0" y="26" width="110" height="14"></rect>
        <rect id="path-4" x="0" y="39" width="110" height="14"></rect>
        <rect id="path-5" x="0" y="52" width="110" height="14"></rect>
        <rect id="path-6" x="0" y="65" width="110" height="14"></rect>
        <rect id="path-7" x="0" y="13" width="110" height="14"></rect>
        <rect id="path-8" x="0" y="0" width="110" height="14"></rect>
    </defs>
    <g id="Page-1" stroke="none" stroke-width="1" fill="none" fill-rule="evenodd">
        <g id="Buttons-Usage-extra-large-1200" transform="translate(-688.000000, -1345.000000)">
            <g id="Stripped" transform="translate(688.000000, 1345.000000)">
                <mask id="mask-2" fill="white">
                    <use xlink:href="#path-1"></use>
                </mask>
                <g id="Path">
                    <use fill="#FFFFFF" fill-rule="evenodd" xlink:href="#path-1"></use>
                    <rect stroke="#D2D6D9" stroke-width="1" x="0.5" y="0.5" width="109" height="78"></rect>
                </g>
                <g id="Rectangle-Copy-8" mask="url(#mask-2)">
                    <use fill="#EFF1F1" fill-rule="evenodd" xlink:href="#path-3"></use>
                    <rect stroke="#D2D6D9" stroke-width="1" x="0.5" y="26.5" width="109" height="13"></rect>
                </g>
                <g id="Rectangle-Copy-9" mask="url(#mask-2)">
                    <use fill="#FFFFFF" fill-rule="evenodd" xlink:href="#path-4"></use>
                    <rect stroke="#D2D6D9" stroke-width="1" x="0.5" y="39.5" width="109" height="13"></rect>
                </g>
                <g id="Rectangle-Copy-10" mask="url(#mask-2)">
                    <use fill="#EFF1F1" fill-rule="evenodd" xlink:href="#path-5"></use>
                    <rect stroke="#D2D6D9" stroke-width="1" x="0.5" y="52.5" width="109" height="13"></rect>
                </g>
                <g id="Rectangle-Copy-14" mask="url(#mask-2)">
                    <use fill="#FFFFFF" fill-rule="evenodd" xlink:href="#path-6"></use>
                    <rect stroke="#D2D6D9" stroke-width="1" x="0.5" y="65.5" width="109" height="13"></rect>
                </g>
                <g id="Rectangle-Copy-12" mask="url(#mask-2)">
                    <use fill="#FFFFFF" fill-rule="evenodd" xlink:href="#path-7"></use>
                    <rect stroke="#D2D6D9" stroke-width="1" x="0.5" y="13.5" width="109" height="13"></rect>
                </g>
                <g id="Rectangle-Copy-13" mask="url(#mask-2)">
                    <use fill="#EFF1F1" fill-rule="evenodd" xlink:href="#path-8"></use>
                    <rect stroke="#D2D6D9" stroke-width="1" x="0.5" y="0.5" width="109" height="13"></rect>
                </g>
                <rect id="Rectangle-3-Copy" fill="#7C878E" opacity="0.699999988" mask="url(#mask-2)" x="9" y="6" width="37" height="2" rx="1"></rect>
                <rect id="Rectangle-3-Copy-22" fill="#7C878E" opacity="0.699999988" mask="url(#mask-2)" x="69" y="6" width="20" height="2" rx="1"></rect>
                <rect id="Rectangle-3-Copy-25" fill="#D2D6D9" mask="url(#mask-2)" x="9" y="19" width="37" height="2" rx="1"></rect>
                <rect id="Rectangle-3-Copy-26" fill="#D2D6D9" mask="url(#mask-2)" x="69" y="19" width="20" height="2" rx="1"></rect>
                <rect id="Rectangle-3-Copy-29" fill="#D2D6D9" mask="url(#mask-2)" x="9" y="32" width="37" height="2" rx="1"></rect>
                <rect id="Rectangle-3-Copy-30" fill="#D2D6D9" mask="url(#mask-2)" x="9" y="45" width="37" height="2" rx="1"></rect>
                <rect id="Rectangle-3-Copy-31" fill="#D2D6D9" mask="url(#mask-2)" x="9" y="58" width="37" height="2" rx="1"></rect>
                <rect id="Rectangle-3-Copy-35" fill="#D2D6D9" mask="url(#mask-2)" x="9" y="71" width="37" height="2" rx="1"></rect>
                <rect id="Rectangle-3-Copy-32" fill="#D2D6D9" mask="url(#mask-2)" x="69" y="32" width="20" height="2" rx="1"></rect>
                <rect id="Rectangle-3-Copy-33" fill="#D2D6D9" mask="url(#mask-2)" x="69" y="45" width="20" height="2" rx="1"></rect>
                <rect id="Rectangle-3-Copy-34" fill="#D2D6D9" mask="url(#mask-2)" x="69" y="58" width="20" height="2" rx="1"></rect>
                <rect id="Rectangle-3-Copy-36" fill="#D2D6D9" mask="url(#mask-2)" x="69" y="71" width="20" height="2" rx="1"></rect>
            </g>
        </g>
    </g>
</svg>