<?xml version="1.0" encoding="UTF-8"?>
<svg width="319px" height="48px" viewBox="0 0 319 48" version="1.1" xmlns="http://www.w3.org/2000/svg" xmlns:xlink="http://www.w3.org/1999/xlink">
    <!-- Generator: Sketch 47.1 (45422) - http://www.bohemiancoding.com/sketch -->
    <title>Error</title>
    <desc>Created with Sketch.</desc>
    <defs>
        <rect id="path-1" x="0" y="0" width="204" height="48"></rect>
        <rect id="path-2" x="0" y="0" width="99" height="36" rx="3"></rect>
    </defs>
    <g id="Page-1" stroke="none" stroke-width="1" fill="none" fill-rule="evenodd">
        <g id="Buttons-Usage-extra-large-1200" transform="translate(-780.000000, -1837.000000)">
            <g id="Group-5-Copy-2" transform="translate(736.000000, 1779.000000)">
                <g id="Error" transform="translate(44.000000, 58.000000)">
                    <g id="Group-2" transform="translate(115.000000, 0.000000)">
                        <g id="Rectangle-4">
                            <use fill="#FFFFFF" fill-rule="evenodd" xlink:href="#path-1"></use>
                            <rect stroke="#F39390" stroke-width="1" x="0.5" y="0.5" width="203" height="47"></rect>
                        </g>
                        <g id="exclamation-circle" transform="translate(8.000000, 12.000000)" fill-rule="nonzero" fill="#D0021B">
                            <path d="M11.7548571,0.245142857 C13.8874286,0.245142857 15.8542857,0.770571429 17.6554286,1.82142857 C19.4565714,2.87228571 20.8825714,4.29828571 21.9334286,6.09942857 C22.9842857,7.90057143 23.5097143,9.86742857 23.5097143,12 C23.5097143,14.1325714 22.9842857,16.0994286 21.9334286,17.9005714 C20.8825714,19.7017143 19.4565714,21.1277143 17.6554286,22.1785714 C15.8542857,23.2294286 13.8874286,23.7548571 11.7548571,23.7548571 C9.62228571,23.7548571 7.65542857,23.2294286 5.85428571,22.1785714 C4.05314286,21.1277143 2.62714286,19.7017143 1.57628571,17.9005714 C0.525428571,16.0994286 2.0301221e-15,14.1325714 0,12 C-2.0301221e-15,9.86742857 0.525428571,7.90057143 1.57628571,6.09942857 C2.62714286,4.29828571 4.05314286,2.87228571 5.85428571,1.82142857 C7.65542857,0.770571429 9.62228571,0.245142857 11.7548571,0.245142857 Z M13.7142857,19.332 L13.7142857,16.4237143 C13.7142857,16.2808571 13.6682857,16.1608571 13.5762857,16.0637143 C13.4842857,15.9665714 13.372,15.918 13.2394286,15.918 L10.3002857,15.918 C10.1677143,15.918 10.0502857,15.9691429 9.948,16.0714286 C9.84571429,16.1737143 9.79457143,16.2911429 9.79457143,16.4237143 L9.79457143,19.332 C9.79457143,19.4645714 9.84571429,19.582 9.948,19.6842857 C10.0502857,19.7865714 10.1677143,19.8377143 10.3002857,19.8377143 L13.2394286,19.8377143 C13.372,19.8377143 13.4842857,19.7891429 13.5762857,19.692 C13.6682857,19.5948571 13.7142857,19.4748571 13.7142857,19.332 L13.7142857,19.332 Z M13.6834286,14.0665714 L13.9585714,4.56171429 C13.9585714,4.43942857 13.9074286,4.34771429 13.8051429,4.28657143 C13.7028571,4.20485714 13.5802857,4.164 13.4374286,4.164 L10.0697143,4.164 C9.92685714,4.164 9.80428571,4.20485714 9.702,4.28657143 C9.59971429,4.34771429 9.54857143,4.43942857 9.54857143,4.56171429 L9.80914286,14.0665714 C9.80914286,14.1688571 9.86028571,14.2582857 9.96257143,14.3348571 C10.0648571,14.4114286 10.1874286,14.4497143 10.3302857,14.4497143 L13.1622857,14.4497143 C13.3051429,14.4497143 13.4251429,14.4114286 13.5222857,14.3348571 C13.6194286,14.2582857 13.6731429,14.1688571 13.6834286,14.0665714 L13.6834286,14.0665714 Z" id="Shape"></path>
                        </g>
                        <g transform="translate(44.000000, 7.000000)" id="Unable-to-upload-the" fill="#D0021B">
                            <path d="M0.98,3.116 L2.24,3.116 L2.24,9.486 C2.24,10.3913379 2.4499979,11.0563312 2.87,11.481 C3.2900021,11.9056688 3.8733296,12.118 4.62,12.118 C5.37600378,12.118 5.9639979,11.9056688 6.384,11.481 C6.8040021,11.0563312 7.014,10.4053377 7.014,9.528 L7.014,3.116 L8.274,3.116 L8.274,9.612 C8.274,10.078669 8.21800056,10.5266645 8.106,10.956 C7.99399944,11.3853355 7.7980014,11.7679983 7.518,12.104 C7.2379986,12.4400017 6.864669,12.7083323 6.398,12.909 C5.931331,13.1096677 5.34333688,13.21 4.634,13.21 C3.91532974,13.21 3.32033569,13.1096677 2.849,12.909 C2.37766431,12.7083323 2.00433471,12.4400017 1.729,12.104 C1.45366529,11.7679983 1.26000056,11.3830022 1.148,10.949 C1.03599944,10.5149978 0.98,10.064669 0.98,9.598 L0.98,3.116 Z M10.15,6.112 L11.158,6.112 L11.284,7.484 C11.4613342,7.0639979 11.7436647,6.69766823 12.131,6.385 C12.5183353,6.07233177 12.9966638,5.916 13.566,5.916 C14.2846703,5.916 14.8143316,6.14466438 15.155,6.602 C15.4956684,7.05933562 15.666,7.69866256 15.666,8.52 L15.666,13 L14.504,13 L14.504,8.758 C14.504,8.13266354 14.3780013,7.67300147 14.126,7.379 C13.8739987,7.08499853 13.5333355,6.938 13.104,6.938 C12.5906641,6.938 12.1636684,7.1479979 11.823,7.568 C11.4823316,7.9880021 11.312,8.58066284 11.312,9.346 L11.312,13 L10.15,13 L10.15,6.112 Z M21.756,13 C21.6533328,12.6639983 21.5926668,12.262669 21.574,11.796 C21.3873324,12.2253355 21.1003353,12.5683321 20.713,12.825 C20.3256647,13.0816679 19.8660027,13.21 19.334,13.21 C18.6619966,13.21 18.130002,13.0186686 17.738,12.636 C17.345998,12.2533314 17.15,11.7400032 17.15,11.096 C17.15,10.7319982 17.2153327,10.4263346 17.346,10.179 C17.4766673,9.93166543 17.6586655,9.72633415 17.892,9.563 C18.1253345,9.39966585 18.4006651,9.2713338 18.718,9.178 C19.0353349,9.0846662 19.3806648,9.01000028 19.754,8.954 L21.518,8.688 L21.518,8.254 C21.518,7.94599846 21.480667,7.6986676 21.406,7.512 C21.331333,7.3253324 21.2286673,7.18066718 21.098,7.078 C20.9673327,6.97533282 20.8180008,6.90766683 20.65,6.875 C20.4819992,6.84233317 20.3046676,6.826 20.118,6.826 C19.5859973,6.826 19.1473351,6.92399902 18.802,7.12 C18.4566649,7.31600098 18.1673345,7.56333184 17.934,7.862 L17.332,7.106 C17.602668,6.7793317 17.9783309,6.4993345 18.459,6.266 C18.9396691,6.0326655 19.5346631,5.916 20.244,5.916 C21.102671,5.916 21.7256647,6.10733142 22.113,6.49 C22.5003353,6.87266858 22.694,7.48866242 22.694,8.338 L22.694,11.124 C22.694,11.3480011 22.6963333,11.5439992 22.701,11.712 C22.7056667,11.8800008 22.7149999,12.0363326 22.729,12.181 C22.7430001,12.3256674 22.7639999,12.4633327 22.792,12.594 C22.8200001,12.7246673 22.8573331,12.8599993 22.904,13 L21.756,13 Z M21.518,9.458 L19.866,9.724 C19.2966638,9.82666718 18.8930012,9.98066564 18.655,10.186 C18.4169988,10.3913344 18.298,10.6759982 18.298,11.04 C18.298,11.4133352 18.4076656,11.7259987 18.627,11.978 C18.8463344,12.2300013 19.1706645,12.356 19.6,12.356 C19.8613346,12.356 20.1086655,12.3046672 20.342,12.202 C20.5753345,12.0993328 20.7783325,11.9570009 20.951,11.775 C21.1236675,11.5929991 21.2613328,11.3736679 21.364,11.117 C21.4666672,10.860332 21.518,10.5780015 21.518,10.27 L21.518,9.458 Z M24.556,3.116 L25.718,3.116 L25.718,7.33 C25.9046676,6.93799804 26.1823315,6.60433471 26.551,6.329 C26.9196685,6.05366529 27.3793306,5.916 27.93,5.916 C28.3313353,5.916 28.697665,5.99999916 29.029,6.168 C29.360335,6.33600084 29.6426655,6.57633177 29.876,6.889 C30.1093345,7.20166823 30.2889994,7.57733114 30.415,8.016 C30.5410006,8.45466886 30.604,8.94466396 30.604,9.486 C30.604,10.0180027 30.5410006,10.5103311 30.415,10.963 C30.2889994,11.4156689 30.1093345,11.8053317 29.876,12.132 C29.6426655,12.4586683 29.3556684,12.7153324 29.015,12.902 C28.6743316,13.0886676 28.2893355,13.182 27.86,13.182 C27.3559975,13.182 26.908002,13.0536679 26.516,12.797 C26.123998,12.540332 25.830001,12.1740024 25.634,11.698 L25.494,13 L24.556,13 L24.556,3.116 Z M25.718,9.584 C25.718,9.78933436 25.7249999,9.97366585 25.739,10.137 C25.7530001,10.3003342 25.7693332,10.4379994 25.788,10.55 C25.8253335,10.7740011 25.8953328,10.9886656 25.998,11.194 C26.1006672,11.3993344 26.2266659,11.5789992 26.376,11.733 C26.5253341,11.8870008 26.7003323,12.0106662 26.901,12.104 C27.1016677,12.1973338 27.3233321,12.244 27.566,12.244 C27.8833349,12.244 28.1563322,12.1670008 28.385,12.013 C28.6136678,11.8589992 28.8026659,11.6560013 28.952,11.404 C29.1013341,11.1519987 29.2109996,10.8650016 29.281,10.543 C29.3510003,10.2209984 29.386,9.89200168 29.386,9.556 C29.386,9.21066494 29.348667,8.87700161 29.274,8.555 C29.199333,8.23299839 29.0873341,7.94833457 28.938,7.701 C28.7886659,7.45366543 28.5973345,7.25533408 28.364,7.106 C28.1306655,6.95666592 27.8553349,6.882 27.538,6.882 C27.2859987,6.882 27.0596677,6.92633289 26.859,7.015 C26.6583323,7.10366711 26.4833341,7.22499923 26.334,7.379 C26.1846659,7.53300077 26.0633338,7.71266564 25.97,7.918 C25.8766662,8.12333436 25.8113335,8.3426655 25.774,8.576 C25.7553332,8.6693338 25.7413334,8.78833261 25.732,8.933 C25.7226666,9.07766739 25.718,9.28066536 25.718,9.542 L25.718,9.584 Z M32.088,3.116 L33.25,3.116 L33.25,13 L32.088,13 L32.088,3.116 Z M35.924,9.822 C35.9706669,10.6153373 36.1736649,11.2289978 36.533,11.663 C36.8923351,12.0970022 37.3939968,12.314 38.038,12.314 C38.8500041,12.314 39.4613313,11.9313372 39.872,11.166 L40.754,11.656 C40.483332,12.1133356 40.1240022,12.4866652 39.676,12.776 C39.2279978,13.0653348 38.6633367,13.21 37.982,13.21 C37.440664,13.21 36.967002,13.1166676 36.561,12.93 C36.154998,12.7433324 35.816668,12.4866683 35.546,12.16 C35.275332,11.8333317 35.072334,11.4506689 34.937,11.012 C34.801666,10.5733311 34.734,10.1020025 34.734,9.598 C34.734,9.10333086 34.7993327,8.63200224 34.93,8.184 C35.0606673,7.73599776 35.2589987,7.34400168 35.525,7.008 C35.7910013,6.67199832 36.1176647,6.40600098 36.505,6.21 C36.8923353,6.01399902 37.3473307,5.916 37.87,5.916 C38.3740025,5.916 38.8126648,6.01166571 39.186,6.203 C39.5593352,6.39433429 39.8696654,6.65099839 40.117,6.973 C40.3643346,7.29500161 40.5509994,7.66833121 40.677,8.093 C40.8030006,8.51766879 40.866,8.96799762 40.866,9.444 C40.866,9.54666718 40.8636667,9.62599972 40.859,9.682 C40.8543333,9.73800028 40.852,9.78466648 40.852,9.822 L35.924,9.822 Z M37.856,6.798 C37.2679971,6.798 36.8130016,7.0079979 36.491,7.428 C36.1689984,7.8480021 35.9846669,8.41266312 35.938,9.122 L39.676,9.122 C39.676,8.83266522 39.6433337,8.55033471 39.578,8.275 C39.5126663,7.99966529 39.4053341,7.75233443 39.256,7.533 C39.1066659,7.31366557 38.9176678,7.13633401 38.689,7.001 C38.4603322,6.86566599 38.1826683,6.798 37.856,6.798 Z M46.032,6.91 L44.856,6.91 L44.856,6.112 L45.108,6.112 C45.3973348,6.112 45.6236658,6.08166697 45.787,6.021 C45.9503341,5.96033303 46.0739996,5.86700063 46.158,5.741 C46.2420004,5.61499937 46.3026665,5.44933436 46.34,5.244 C46.3773335,5.03866564 46.4099999,4.78666816 46.438,4.488 L46.466,4.236 L47.194,4.236 L47.194,6.112 L48.678,6.112 L48.678,6.91 L47.194,6.91 L47.194,11.194 C47.194,11.586002 47.2523327,11.8683325 47.369,12.041 C47.4856672,12.2136675 47.7026651,12.3 48.02,12.3 C48.2720013,12.3 48.5053323,12.2440006 48.72,12.132 L48.846,12.972 C48.4913316,13.1306675 48.0993355,13.21 47.67,13.21 C47.3339983,13.21 47.061001,13.1633338 46.851,13.07 C46.6409989,12.9766662 46.4753339,12.8506675 46.354,12.692 C46.2326661,12.5333325 46.1486669,12.3420011 46.102,12.118 C46.0553331,11.8939989 46.032,11.6513346 46.032,11.39 L46.032,6.91 Z M52.934,13.21 C52.4113307,13.21 51.9516687,13.1143343 51.555,12.923 C51.1583314,12.7316657 50.8270013,12.470335 50.561,12.139 C50.2949987,11.807665 50.0966673,11.4203355 49.966,10.977 C49.8353327,10.5336645 49.77,10.0553359 49.77,9.542 C49.77,9.0286641 49.837666,8.55266886 49.973,8.114 C50.108334,7.67533114 50.3089987,7.2926683 50.575,6.966 C50.8410013,6.6393317 51.1723314,6.3826676 51.569,6.196 C51.9656687,6.0093324 52.4206641,5.916 52.934,5.916 C53.4473359,5.916 53.9023313,6.0093324 54.299,6.196 C54.6956687,6.3826676 55.029332,6.63699839 55.3,6.959 C55.570668,7.28100161 55.773666,7.66366445 55.909,8.107 C56.044334,8.55033555 56.112,9.0286641 56.112,9.542 C56.112,10.0553359 56.044334,10.5336645 55.909,10.977 C55.773666,11.4203355 55.570668,11.807665 55.3,12.139 C55.029332,12.470335 54.6956687,12.7316657 54.299,12.923 C53.9023313,13.1143343 53.4473359,13.21 52.934,13.21 Z M52.962,12.3 C53.2793349,12.3 53.5593321,12.2300007 53.802,12.09 C54.0446679,11.9499993 54.2453325,11.7563346 54.404,11.509 C54.5626675,11.2616654 54.6839996,10.9700017 54.768,10.634 C54.8520004,10.2979983 54.894,9.93400196 54.894,9.542 C54.894,9.14999804 54.8520004,8.78833499 54.768,8.457 C54.6839996,8.12566501 54.5580008,7.83866788 54.39,7.596 C54.2219992,7.35333212 54.0166679,7.16433401 53.774,7.029 C53.5313321,6.89366599 53.2513349,6.826 52.934,6.826 C52.6073317,6.826 52.3226679,6.89366599 52.08,7.029 C51.8373321,7.16433401 51.6366675,7.35333212 51.478,7.596 C51.3193325,7.83866788 51.1980004,8.12566501 51.114,8.457 C51.0299996,8.78833499 50.988,9.14999804 50.988,9.542 C50.988,9.93400196 51.0299996,10.2979983 51.114,10.634 C51.1980004,10.9700017 51.3216658,11.2616654 51.485,11.509 C51.6483341,11.7563346 51.8536654,11.9499993 52.101,12.09 C52.3483346,12.2300007 52.6353317,12.3 52.962,12.3 Z M60.718,6.112 L61.894,6.112 L61.894,10.284 C61.894,10.9373366 62.0153321,11.4156652 62.258,11.719 C62.5006679,12.0223349 62.8413311,12.174 63.28,12.174 C63.8400028,12.174 64.2763318,11.9523356 64.589,11.509 C64.9016682,11.0656644 65.058,10.475337 65.058,9.738 L65.058,6.112 L66.22,6.112 L66.22,13 L65.128,13 L65.128,11.6 C65.0439996,11.8146677 64.9413339,12.0176657 64.82,12.209 C64.6986661,12.4003343 64.5493342,12.5683326 64.372,12.713 C64.1946658,12.8576674 63.9893345,12.9719996 63.756,13.056 C63.5226655,13.1400004 63.2473349,13.182 62.93,13.182 C62.1833296,13.182 61.6280018,12.9556689 61.264,12.503 C60.8999982,12.0503311 60.718,11.4086708 60.718,10.578 L60.718,6.112 Z M68.012,6.112 L69.174,6.112 L69.174,7.442 C69.2580004,7.24599902 69.3653327,7.0546676 69.496,6.868 C69.6266673,6.6813324 69.7829991,6.5180007 69.965,6.378 C70.1470009,6.2379993 70.3593321,6.12600042 70.602,6.042 C70.8446679,5.95799958 71.1199985,5.916 71.428,5.916 C71.8760022,5.916 72.265665,6.0093324 72.597,6.196 C72.928335,6.3826676 73.2013323,6.6393317 73.416,6.966 C73.6306677,7.2926683 73.7916661,7.67299783 73.899,8.107 C74.0063339,8.54100217 74.06,9.00999748 74.06,9.514 C74.06,10.1113363 73.9900007,10.6386644 73.85,11.096 C73.7099993,11.5533356 73.5140013,11.9359985 73.262,12.244 C73.0099987,12.5520015 72.7160017,12.7853325 72.38,12.944 C72.0439983,13.1026675 71.680002,13.182 71.288,13.182 C70.7746641,13.182 70.3336685,13.0560013 69.965,12.804 C69.5963315,12.5519987 69.3326675,12.2393352 69.174,11.866 L69.174,15.422 L68.012,15.422 L68.012,6.112 Z M69.174,9.598 C69.174,9.79400098 69.1809999,9.97366585 69.195,10.137 C69.2090001,10.3003342 69.2253332,10.4379994 69.244,10.55 C69.2813335,10.7740011 69.3513328,10.9886656 69.454,11.194 C69.5566672,11.3993344 69.6826659,11.5789992 69.832,11.733 C69.9813341,11.8870008 70.1563323,12.0106662 70.357,12.104 C70.5576677,12.1973338 70.7793321,12.244 71.022,12.244 C71.3393349,12.244 71.6123322,12.1693341 71.841,12.02 C72.0696678,11.8706659 72.2586659,11.6700013 72.408,11.418 C72.5573341,11.1659987 72.6669997,10.8790016 72.737,10.557 C72.8070003,10.2349984 72.842,9.90133506 72.842,9.556 C72.842,9.21066494 72.8093337,8.87700161 72.744,8.555 C72.6786663,8.23299839 72.5736674,7.94833457 72.429,7.701 C72.2843326,7.45366543 72.0953345,7.25533408 71.862,7.106 C71.6286655,6.95666592 71.3486683,6.882 71.022,6.882 C70.7699987,6.882 70.539001,6.9286662 70.329,7.022 C70.1189989,7.1153338 69.9393341,7.24133254 69.79,7.4 C69.6406659,7.55866746 69.5170005,7.74066564 69.419,7.946 C69.3209995,8.15133436 69.2580001,8.36599888 69.23,8.59 C69.2113332,8.6833338 69.1973334,8.81166585 69.188,8.975 C69.1786666,9.13833415 69.174,9.32733226 69.174,9.542 L69.174,9.598 Z M75.544,3.116 L76.706,3.116 L76.706,13 L75.544,13 L75.544,3.116 Z M81.354,13.21 C80.8313307,13.21 80.3716686,13.1143343 79.975,12.923 C79.5783313,12.7316657 79.2470013,12.470335 78.981,12.139 C78.7149987,11.807665 78.5166673,11.4203355 78.386,10.977 C78.2553327,10.5336645 78.19,10.0553359 78.19,9.542 C78.19,9.0286641 78.257666,8.55266886 78.393,8.114 C78.528334,7.67533114 78.7289987,7.2926683 78.995,6.966 C79.2610013,6.6393317 79.5923313,6.3826676 79.989,6.196 C80.3856686,6.0093324 80.8406641,5.916 81.354,5.916 C81.8673359,5.916 82.3223313,6.0093324 82.719,6.196 C83.1156686,6.3826676 83.449332,6.63699839 83.72,6.959 C83.990668,7.28100161 84.193666,7.66366445 84.329,8.107 C84.464334,8.55033555 84.532,9.0286641 84.532,9.542 C84.532,10.0553359 84.464334,10.5336645 84.329,10.977 C84.193666,11.4203355 83.990668,11.807665 83.72,12.139 C83.449332,12.470335 83.1156686,12.7316657 82.719,12.923 C82.3223313,13.1143343 81.8673359,13.21 81.354,13.21 Z M81.382,12.3 C81.6993349,12.3 81.9793321,12.2300007 82.222,12.09 C82.4646679,11.9499993 82.6653325,11.7563346 82.824,11.509 C82.9826675,11.2616654 83.1039996,10.9700017 83.188,10.634 C83.2720004,10.2979983 83.314,9.93400196 83.314,9.542 C83.314,9.14999804 83.2720004,8.78833499 83.188,8.457 C83.1039996,8.12566501 82.9780008,7.83866788 82.81,7.596 C82.6419992,7.35333212 82.4366679,7.16433401 82.194,7.029 C81.9513321,6.89366599 81.6713349,6.826 81.354,6.826 C81.0273317,6.826 80.7426679,6.89366599 80.5,7.029 C80.2573321,7.16433401 80.0566675,7.35333212 79.898,7.596 C79.7393325,7.83866788 79.6180004,8.12566501 79.534,8.457 C79.4499996,8.78833499 79.408,9.14999804 79.408,9.542 C79.408,9.93400196 79.4499996,10.2979983 79.534,10.634 C79.6180004,10.9700017 79.7416658,11.2616654 79.905,11.509 C80.0683341,11.7563346 80.2736654,11.9499993 80.521,12.09 C80.7683346,12.2300007 81.0553317,12.3 81.382,12.3 Z M90.342,13 C90.2393328,12.6639983 90.1786668,12.262669 90.16,11.796 C89.9733324,12.2253355 89.6863353,12.5683321 89.299,12.825 C88.9116647,13.0816679 88.4520027,13.21 87.92,13.21 C87.2479966,13.21 86.716002,13.0186686 86.324,12.636 C85.931998,12.2533314 85.736,11.7400032 85.736,11.096 C85.736,10.7319982 85.8013327,10.4263346 85.932,10.179 C86.0626673,9.93166543 86.2446655,9.72633415 86.478,9.563 C86.7113345,9.39966585 86.9866651,9.2713338 87.304,9.178 C87.6213349,9.0846662 87.9666648,9.01000028 88.34,8.954 L90.104,8.688 L90.104,8.254 C90.104,7.94599846 90.066667,7.6986676 89.992,7.512 C89.917333,7.3253324 89.8146673,7.18066718 89.684,7.078 C89.5533327,6.97533282 89.4040008,6.90766683 89.236,6.875 C89.0679992,6.84233317 88.8906676,6.826 88.704,6.826 C88.1719973,6.826 87.7333351,6.92399902 87.388,7.12 C87.0426649,7.31600098 86.7533345,7.56333184 86.52,7.862 L85.918,7.106 C86.188668,6.7793317 86.5643309,6.4993345 87.045,6.266 C87.5256691,6.0326655 88.1206631,5.916 88.83,5.916 C89.688671,5.916 90.3116647,6.10733142 90.699,6.49 C91.0863353,6.87266858 91.28,7.48866242 91.28,8.338 L91.28,11.124 C91.28,11.3480011 91.2823333,11.5439992 91.287,11.712 C91.2916667,11.8800008 91.3009999,12.0363326 91.315,12.181 C91.3290001,12.3256674 91.3499999,12.4633327 91.378,12.594 C91.4060001,12.7246673 91.4433331,12.8599993 91.49,13 L90.342,13 Z M90.104,9.458 L88.452,9.724 C87.8826638,9.82666718 87.4790012,9.98066564 87.241,10.186 C87.0029988,10.3913344 86.884,10.6759982 86.884,11.04 C86.884,11.4133352 86.9936656,11.7259987 87.213,11.978 C87.4323344,12.2300013 87.7566645,12.356 88.186,12.356 C88.4473346,12.356 88.6946655,12.3046672 88.928,12.202 C89.1613345,12.0993328 89.3643325,11.9570009 89.537,11.775 C89.7096675,11.5929991 89.8473328,11.3736679 89.95,11.117 C90.0526672,10.860332 90.104,10.5780015 90.104,10.27 L90.104,9.458 Z M97.776,11.656 C97.5893324,12.122669 97.3140018,12.491332 96.95,12.762 C96.5859982,13.032668 96.133336,13.168 95.592,13.168 C95.1626645,13.168 94.7776684,13.0793342 94.437,12.902 C94.0963316,12.7246658 93.8070012,12.4773349 93.569,12.16 C93.3309988,11.8426651 93.1490006,11.4600022 93.023,11.012 C92.8969994,10.5639978 92.834,10.069336 92.834,9.528 C92.834,8.9679972 92.8993327,8.46633555 93.03,8.023 C93.1606673,7.57966445 93.3473321,7.20400154 93.59,6.896 C93.8326679,6.58799846 94.1243316,6.35000084 94.465,6.182 C94.8056684,6.01399916 95.1813313,5.93 95.592,5.93 C96.1520028,5.93 96.6093316,6.06299867 96.964,6.329 C97.3186684,6.59500133 97.5706659,6.9146648 97.72,7.288 L97.72,3.116 L98.896,3.116 L98.896,13 L97.776,13 L97.776,11.656 Z M97.72,9.514 C97.72,9.22466522 97.7130001,8.99833415 97.699,8.835 C97.6849999,8.67166585 97.6686668,8.53866718 97.65,8.436 C97.6033331,8.23066564 97.5333338,8.0346676 97.44,7.848 C97.3466662,7.6613324 97.2276674,7.49566739 97.083,7.351 C96.9383326,7.20633261 96.768001,7.09200042 96.572,7.008 C96.375999,6.92399958 96.1520013,6.882 95.9,6.882 C95.5826651,6.882 95.3096678,6.9519993 95.081,7.092 C94.8523322,7.2320007 94.6610008,7.42099881 94.507,7.659 C94.3529992,7.89700119 94.238667,8.17699839 94.164,8.499 C94.089333,8.82100161 94.052,9.16399818 94.052,9.528 C94.052,9.92000196 94.0939996,10.281665 94.178,10.613 C94.2620004,10.944335 94.3833325,11.2289988 94.542,11.467 C94.7006675,11.7050012 94.8966655,11.891666 95.13,12.027 C95.3633345,12.162334 95.6293318,12.23 95.928,12.23 C96.1613345,12.23 96.3736657,12.1880004 96.565,12.104 C96.7563343,12.0199996 96.9243326,11.9033341 97.069,11.754 C97.2136674,11.6046659 97.3326662,11.4343343 97.426,11.243 C97.5193338,11.0516657 97.5893331,10.8486677 97.636,10.634 C97.6920003,10.3726654 97.72,10.0226689 97.72,9.584 L97.72,9.514 Z M104.426,6.91 L103.25,6.91 L103.25,6.112 L103.502,6.112 C103.791335,6.112 104.017666,6.08166697 104.181,6.021 C104.344334,5.96033303 104.468,5.86700063 104.552,5.741 C104.636,5.61499937 104.696666,5.44933436 104.734,5.244 C104.771334,5.03866564 104.804,4.78666816 104.832,4.488 L104.86,4.236 L105.588,4.236 L105.588,6.112 L107.072,6.112 L107.072,6.91 L105.588,6.91 L105.588,11.194 C105.588,11.586002 105.646333,11.8683325 105.763,12.041 C105.879667,12.2136675 106.096665,12.3 106.414,12.3 C106.666001,12.3 106.899332,12.2440006 107.114,12.132 L107.24,12.972 C106.885332,13.1306675 106.493335,13.21 106.064,13.21 C105.727998,13.21 105.455001,13.1633338 105.245,13.07 C105.034999,12.9766662 104.869334,12.8506675 104.748,12.692 C104.626666,12.5333325 104.542667,12.3420011 104.496,12.118 C104.449333,11.8939989 104.426,11.6513346 104.426,11.39 L104.426,6.91 Z M108.472,3.116 L109.634,3.116 L109.634,7.47 C109.718,7.26466564 109.825333,7.0686676 109.956,6.882 C110.086667,6.6953324 110.245332,6.52966739 110.432,6.385 C110.618668,6.24033261 110.833332,6.12600042 111.076,6.042 C111.318668,5.95799958 111.589332,5.916 111.888,5.916 C112.60667,5.916 113.136332,6.15166431 113.477,6.623 C113.817668,7.09433569 113.988,7.73132932 113.988,8.534 L113.988,13 L112.826,13 L112.826,8.716 C112.826,8.12799706 112.704668,7.68700147 112.462,7.393 C112.219332,7.09899853 111.874002,6.952 111.426,6.952 C111.164665,6.952 110.924334,7.00799944 110.705,7.12 C110.485666,7.23200056 110.296667,7.39066564 110.138,7.596 C109.979333,7.80133436 109.855667,8.04866522 109.767,8.338 C109.678333,8.62733478 109.634,8.94466494 109.634,9.29 L109.634,13 L108.472,13 L108.472,3.116 Z M116.634,9.822 C116.680667,10.6153373 116.883665,11.2289978 117.243,11.663 C117.602335,12.0970022 118.103997,12.314 118.748,12.314 C119.560004,12.314 120.171331,11.9313372 120.582,11.166 L121.464,11.656 C121.193332,12.1133356 120.834002,12.4866652 120.386,12.776 C119.937998,13.0653348 119.373337,13.21 118.692,13.21 C118.150664,13.21 117.677002,13.1166676 117.271,12.93 C116.864998,12.7433324 116.526668,12.4866683 116.256,12.16 C115.985332,11.8333317 115.782334,11.4506689 115.647,11.012 C115.511666,10.5733311 115.444,10.1020025 115.444,9.598 C115.444,9.10333086 115.509333,8.63200224 115.64,8.184 C115.770667,7.73599776 115.968999,7.34400168 116.235,7.008 C116.501001,6.67199832 116.827665,6.40600098 117.215,6.21 C117.602335,6.01399902 118.057331,5.916 118.58,5.916 C119.084003,5.916 119.522665,6.01166571 119.896,6.203 C120.269335,6.39433429 120.579665,6.65099839 120.827,6.973 C121.074335,7.29500161 121.260999,7.66833121 121.387,8.093 C121.513001,8.51766879 121.576,8.96799762 121.576,9.444 C121.576,9.54666718 121.573667,9.62599972 121.569,9.682 C121.564333,9.73800028 121.562,9.78466648 121.562,9.822 L116.634,9.822 Z M118.566,6.798 C117.977997,6.798 117.523002,7.0079979 117.201,7.428 C116.878998,7.8480021 116.694667,8.41266312 116.648,9.122 L120.386,9.122 C120.386,8.83266522 120.353334,8.55033471 120.288,8.275 C120.222666,7.99966529 120.115334,7.75233443 119.966,7.533 C119.816666,7.31366557 119.627668,7.13633401 119.399,7.001 C119.170332,6.86566599 118.892668,6.798 118.566,6.798 Z M126.728,6.91 L125.538,6.91 L125.538,6.112 L126.672,6.112 C126.597333,5.86933212 126.534334,5.61033471 126.483,5.335 C126.431666,5.05966529 126.406,4.80066788 126.406,4.558 C126.406,4.33399888 126.431666,4.12166767 126.483,3.921 C126.534334,3.72033233 126.625333,3.54300077 126.756,3.389 C126.886667,3.23499923 127.063999,3.1113338 127.288,3.018 C127.512001,2.9246662 127.796665,2.878 128.142,2.878 C128.394001,2.878 128.620332,2.89433317 128.821,2.927 C129.021668,2.95966683 129.210666,3.01333296 129.388,3.088 L129.192,3.97 C129.089333,3.9233331 128.961001,3.88366683 128.807,3.851 C128.652999,3.81833317 128.510667,3.802 128.38,3.802 C127.847997,3.802 127.582,4.10999692 127.582,4.726 C127.582,4.96866788 127.612333,5.22066536 127.673,5.482 C127.733667,5.74333464 127.796666,5.95333254 127.862,6.112 L129.192,6.112 L129.192,6.91 L127.904,6.91 L127.904,13 L126.728,13 L126.728,6.91 Z M130.508,3.438 L131.67,3.438 L131.67,4.6 L130.508,4.6 L130.508,3.438 Z M130.508,6.112 L131.67,6.112 L131.67,13 L130.508,13 L130.508,6.112 Z M133.462,3.116 L134.624,3.116 L134.624,13 L133.462,13 L133.462,3.116 Z M137.298,9.822 C137.344667,10.6153373 137.547665,11.2289978 137.907,11.663 C138.266335,12.0970022 138.767997,12.314 139.412,12.314 C140.224004,12.314 140.835331,11.9313372 141.246,11.166 L142.128,11.656 C141.857332,12.1133356 141.498002,12.4866652 141.05,12.776 C140.601998,13.0653348 140.037337,13.21 139.356,13.21 C138.814664,13.21 138.341002,13.1166676 137.935,12.93 C137.528998,12.7433324 137.190668,12.4866683 136.92,12.16 C136.649332,11.8333317 136.446334,11.4506689 136.311,11.012 C136.175666,10.5733311 136.108,10.1020025 136.108,9.598 C136.108,9.10333086 136.173333,8.63200224 136.304,8.184 C136.434667,7.73599776 136.632999,7.34400168 136.899,7.008 C137.165001,6.67199832 137.491665,6.40600098 137.879,6.21 C138.266335,6.01399902 138.721331,5.916 139.244,5.916 C139.748003,5.916 140.186665,6.01166571 140.56,6.203 C140.933335,6.39433429 141.243665,6.65099839 141.491,6.973 C141.738335,7.29500161 141.924999,7.66833121 142.051,8.093 C142.177001,8.51766879 142.24,8.96799762 142.24,9.444 C142.24,9.54666718 142.237667,9.62599972 142.233,9.682 C142.228333,9.73800028 142.226,9.78466648 142.226,9.822 L137.298,9.822 Z M139.23,6.798 C138.641997,6.798 138.187002,7.0079979 137.865,7.428 C137.542998,7.8480021 137.358667,8.41266312 137.312,9.122 L141.05,9.122 C141.05,8.83266522 141.017334,8.55033471 140.952,8.275 C140.886666,7.99966529 140.779334,7.75233443 140.63,7.533 C140.480666,7.31366557 140.291668,7.13633401 140.063,7.001 C139.834332,6.86566599 139.556668,6.798 139.23,6.798 Z M143.542,11.628 L144.844,11.628 L144.844,13 L143.542,13 L143.542,11.628 Z M1.106,21.116 L2.366,21.116 L2.366,31 L1.106,31 L1.106,21.116 Z M4.97,24.91 L3.794,24.91 L3.794,24.112 L4.046,24.112 C4.33533478,24.112 4.56166585,24.081667 4.725,24.021 C4.88833415,23.960333 5.01199958,23.8670006 5.096,23.741 C5.18000042,23.6149994 5.24066648,23.4493344 5.278,23.244 C5.31533352,23.0386656 5.34799986,22.7866682 5.376,22.488 L5.404,22.236 L6.132,22.236 L6.132,24.112 L7.616,24.112 L7.616,24.91 L6.132,24.91 L6.132,29.194 C6.132,29.586002 6.19033275,29.8683325 6.307,30.041 C6.42366725,30.2136675 6.64066508,30.3 6.958,30.3 C7.21000126,30.3 7.44333226,30.2440006 7.658,30.132 L7.784,30.972 C7.42933156,31.1306675 7.03733548,31.21 6.608,31.21 C6.27199832,31.21 5.99900105,31.1633338 5.789,31.07 C5.57899895,30.9766662 5.41333394,30.8506675 5.292,30.692 C5.17066606,30.5333325 5.0866669,30.3420011 5.04,30.118 C4.9933331,29.8939989 4.97,29.6513346 4.97,29.39 L4.97,24.91 Z M13.048,27.822 C13.0946669,28.6153373 13.2976649,29.2289978 13.657,29.663 C14.0163351,30.0970022 14.5179968,30.314 15.162,30.314 C15.9740041,30.314 16.5853313,29.9313372 16.996,29.166 L17.878,29.656 C17.607332,30.1133356 17.2480022,30.4866652 16.8,30.776 C16.3519978,31.0653348 15.7873367,31.21 15.106,31.21 C14.564664,31.21 14.091002,31.1166676 13.685,30.93 C13.278998,30.7433324 12.940668,30.4866683 12.67,30.16 C12.399332,29.8333317 12.196334,29.4506689 12.061,29.012 C11.925666,28.5733311 11.858,28.1020025 11.858,27.598 C11.858,27.1033309 11.9233327,26.6320022 12.054,26.184 C12.1846673,25.7359978 12.3829987,25.3440017 12.649,25.008 C12.9150013,24.6719983 13.2416647,24.406001 13.629,24.21 C14.0163353,24.013999 14.4713307,23.916 14.994,23.916 C15.4980025,23.916 15.9366648,24.0116657 16.31,24.203 C16.6833352,24.3943343 16.9936654,24.6509984 17.241,24.973 C17.4883346,25.2950016 17.6749994,25.6683312 17.801,26.093 C17.9270006,26.5176688 17.99,26.9679976 17.99,27.444 C17.99,27.5466672 17.9876667,27.6259997 17.983,27.682 C17.9783333,27.7380003 17.976,27.7846665 17.976,27.822 L13.048,27.822 Z M14.98,24.798 C14.3919971,24.798 13.9370016,25.0079979 13.615,25.428 C13.2929984,25.8480021 13.1086669,26.4126631 13.062,27.122 L16.8,27.122 C16.8,26.8326652 16.7673337,26.5503347 16.702,26.275 C16.6366663,25.9996653 16.5293341,25.7523344 16.38,25.533 C16.2306659,25.3136656 16.0416678,25.136334 15.813,25.001 C15.5843322,24.865666 15.3066683,24.798 14.98,24.798 Z M20.776,27.402 L18.718,24.112 L20.006,24.112 L21.602,26.73 L23.198,24.112 L24.472,24.112 L22.4,27.402 L24.738,31 L23.38,31 L21.602,28.088 L19.796,31 L18.452,31 L20.776,27.402 Z M31.304,29.488 C31.0239986,30.0480028 30.6483357,30.4749985 30.177,30.769 C29.7056643,31.0630015 29.1340034,31.21 28.462,31.21 C27.9113306,31.21 27.433002,31.1143343 27.027,30.923 C26.620998,30.7316657 26.2850013,30.4726683 26.019,30.146 C25.7529987,29.8193317 25.5570006,29.4343356 25.431,28.991 C25.3049994,28.5476645 25.242,28.0740025 25.242,27.57 C25.242,27.0566641 25.309666,26.5783356 25.445,26.135 C25.580334,25.6916645 25.7809987,25.3066683 26.047,24.98 C26.3130013,24.6533317 26.6466647,24.3943343 27.048,24.203 C27.4493353,24.0116657 27.920664,23.916 28.462,23.916 C29.1433367,23.916 29.7103311,24.0676652 30.163,24.371 C30.6156689,24.6743349 30.9819986,25.1013306 31.262,25.652 L30.282,26.114 C29.9273316,25.255329 29.3300042,24.826 28.49,24.826 C28.1353316,24.826 27.8296679,24.8959993 27.573,25.036 C27.316332,25.1760007 27.1063342,25.3673321 26.943,25.61 C26.7796659,25.8526679 26.6583337,26.1349984 26.579,26.457 C26.4996663,26.7790016 26.46,27.1266648 26.46,27.5 C26.46,27.8546684 26.497333,28.1999983 26.572,28.536 C26.646667,28.8720017 26.7679992,29.1706654 26.936,29.432 C27.1040008,29.6933346 27.3186654,29.9033325 27.58,30.062 C27.8413346,30.2206675 28.1633314,30.3 28.546,30.3 C29.0313358,30.3 29.4233318,30.1763346 29.722,29.929 C30.0206682,29.6816654 30.2493325,29.362002 30.408,28.97 L31.304,29.488 Z M33.474,27.822 C33.5206669,28.6153373 33.7236649,29.2289978 34.083,29.663 C34.4423351,30.0970022 34.9439968,30.314 35.588,30.314 C36.4000041,30.314 37.0113313,29.9313372 37.422,29.166 L38.304,29.656 C38.033332,30.1133356 37.6740022,30.4866652 37.226,30.776 C36.7779978,31.0653348 36.2133367,31.21 35.532,31.21 C34.990664,31.21 34.517002,31.1166676 34.111,30.93 C33.704998,30.7433324 33.366668,30.4866683 33.096,30.16 C32.825332,29.8333317 32.622334,29.4506689 32.487,29.012 C32.351666,28.5733311 32.284,28.1020025 32.284,27.598 C32.284,27.1033309 32.3493327,26.6320022 32.48,26.184 C32.6106673,25.7359978 32.8089987,25.3440017 33.075,25.008 C33.3410013,24.6719983 33.6676647,24.406001 34.055,24.21 C34.4423353,24.013999 34.8973307,23.916 35.42,23.916 C35.9240025,23.916 36.3626648,24.0116657 36.736,24.203 C37.1093352,24.3943343 37.4196654,24.6509984 37.667,24.973 C37.9143346,25.2950016 38.1009994,25.6683312 38.227,26.093 C38.3530006,26.5176688 38.416,26.9679976 38.416,27.444 C38.416,27.5466672 38.4136667,27.6259997 38.409,27.682 C38.4043333,27.7380003 38.402,27.7846665 38.402,27.822 L33.474,27.822 Z M35.406,24.798 C34.8179971,24.798 34.3630016,25.0079979 34.041,25.428 C33.7189984,25.8480021 33.5346669,26.4126631 33.488,27.122 L37.226,27.122 C37.226,26.8326652 37.1933337,26.5503347 37.128,26.275 C37.0626663,25.9996653 36.9553341,25.7523344 36.806,25.533 C36.6566659,25.3136656 36.4676678,25.136334 36.239,25.001 C36.0103322,24.865666 35.7326683,24.798 35.406,24.798 Z M40.712,27.822 C40.7586669,28.6153373 40.9616649,29.2289978 41.321,29.663 C41.6803351,30.0970022 42.1819968,30.314 42.826,30.314 C43.6380041,30.314 44.2493313,29.9313372 44.66,29.166 L45.542,29.656 C45.271332,30.1133356 44.9120022,30.4866652 44.464,30.776 C44.0159978,31.0653348 43.4513367,31.21 42.77,31.21 C42.228664,31.21 41.755002,31.1166676 41.349,30.93 C40.942998,30.7433324 40.604668,30.4866683 40.334,30.16 C40.063332,29.8333317 39.860334,29.4506689 39.725,29.012 C39.589666,28.5733311 39.522,28.1020025 39.522,27.598 C39.522,27.1033309 39.5873327,26.6320022 39.718,26.184 C39.8486673,25.7359978 40.0469987,25.3440017 40.313,25.008 C40.5790013,24.6719983 40.9056647,24.406001 41.293,24.21 C41.6803353,24.013999 42.1353307,23.916 42.658,23.916 C43.1620025,23.916 43.6006648,24.0116657 43.974,24.203 C44.3473352,24.3943343 44.6576654,24.6509984 44.905,24.973 C45.1523346,25.2950016 45.3389994,25.6683312 45.465,26.093 C45.5910006,26.5176688 45.654,26.9679976 45.654,27.444 C45.654,27.5466672 45.6516667,27.6259997 45.647,27.682 C45.6423333,27.7380003 45.64,27.7846665 45.64,27.822 L40.712,27.822 Z M42.644,24.798 C42.0559971,24.798 41.6010016,25.0079979 41.279,25.428 C40.9569984,25.8480021 40.7726669,26.4126631 40.726,27.122 L44.464,27.122 C44.464,26.8326652 44.4313337,26.5503347 44.366,26.275 C44.3006663,25.9996653 44.1933341,25.7523344 44.044,25.533 C43.8946659,25.3136656 43.7056678,25.136334 43.477,25.001 C43.2483322,24.865666 42.9706683,24.798 42.644,24.798 Z M51.702,29.656 C51.5153324,30.122669 51.2400018,30.491332 50.876,30.762 C50.5119982,31.032668 50.059336,31.168 49.518,31.168 C49.0886645,31.168 48.7036684,31.0793342 48.363,30.902 C48.0223316,30.7246658 47.7330012,30.4773349 47.495,30.16 C47.2569988,29.8426651 47.0750006,29.4600022 46.949,29.012 C46.8229994,28.5639978 46.76,28.069336 46.76,27.528 C46.76,26.9679972 46.8253327,26.4663355 46.956,26.023 C47.0866673,25.5796644 47.2733321,25.2040015 47.516,24.896 C47.7586679,24.5879985 48.0503316,24.3500008 48.391,24.182 C48.7316684,24.0139992 49.1073313,23.93 49.518,23.93 C50.0780028,23.93 50.5353316,24.0629987 50.89,24.329 C51.2446684,24.5950013 51.4966659,24.9146648 51.646,25.288 L51.646,21.116 L52.822,21.116 L52.822,31 L51.702,31 L51.702,29.656 Z M51.646,27.514 C51.646,27.2246652 51.6390001,26.9983342 51.625,26.835 C51.6109999,26.6716659 51.5946668,26.5386672 51.576,26.436 C51.5293331,26.2306656 51.4593338,26.0346676 51.366,25.848 C51.2726662,25.6613324 51.1536674,25.4956674 51.009,25.351 C50.8643326,25.2063326 50.694001,25.0920004 50.498,25.008 C50.301999,24.9239996 50.0780013,24.882 49.826,24.882 C49.5086651,24.882 49.2356678,24.9519993 49.007,25.092 C48.7783322,25.2320007 48.5870008,25.4209988 48.433,25.659 C48.2789992,25.8970012 48.164667,26.1769984 48.09,26.499 C48.015333,26.8210016 47.978,27.1639982 47.978,27.528 C47.978,27.920002 48.0199996,28.281665 48.104,28.613 C48.1880004,28.944335 48.3093325,29.2289988 48.468,29.467 C48.6266675,29.7050012 48.8226655,29.891666 49.056,30.027 C49.2893345,30.162334 49.5553318,30.23 49.854,30.23 C50.0873345,30.23 50.2996657,30.1880004 50.491,30.104 C50.6823343,30.0199996 50.8503326,29.9033341 50.995,29.754 C51.1396674,29.6046659 51.2586662,29.4343343 51.352,29.243 C51.4453338,29.0516657 51.5153331,28.8486677 51.562,28.634 C51.6180003,28.3726654 51.646,28.0226689 51.646,27.584 L51.646,27.514 Z M54.726,29.306 C54.9593345,29.6046682 55.2603315,29.851999 55.629,30.048 C55.9976685,30.244001 56.4013311,30.342 56.84,30.342 C57.232002,30.342 57.5726652,30.2486676 57.862,30.062 C58.1513348,29.8753324 58.296,29.5953352 58.296,29.222 C58.296,28.9326652 58.2003343,28.7063342 58.009,28.543 C57.8176657,28.3796659 57.5796681,28.2420006 57.295,28.13 C57.0103319,28.0179994 56.7000017,27.9153338 56.364,27.822 C56.0279983,27.7286662 55.7176681,27.6073341 55.433,27.458 C55.1483319,27.3086659 54.9103343,27.1126679 54.719,26.87 C54.5276657,26.6273321 54.432,26.2960021 54.432,25.876 C54.432,25.5306649 54.5019993,25.2343346 54.642,24.987 C54.7820007,24.7396654 54.9663322,24.5366675 55.195,24.378 C55.4236678,24.2193325 55.6873318,24.102667 55.986,24.028 C56.2846682,23.953333 56.5973317,23.916 56.924,23.916 C57.8946715,23.916 58.7019968,24.1959972 59.346,24.756 L58.758,25.54 C58.5526656,25.3253323 58.2796684,25.1456674 57.939,25.001 C57.5983316,24.8563326 57.2460018,24.784 56.882,24.784 C56.7233325,24.784 56.5670008,24.8026665 56.413,24.84 C56.2589992,24.8773335 56.1236672,24.9356663 56.007,25.015 C55.8903327,25.0943337 55.7970003,25.1946661 55.727,25.316 C55.6569996,25.4373339 55.622,25.5866658 55.622,25.764 C55.622,26.034668 55.7176657,26.2446659 55.909,26.394 C56.1003343,26.5433341 56.3383319,26.6716661 56.623,26.779 C56.9076681,26.8863339 57.215665,26.9889995 57.547,27.087 C57.878335,27.1850005 58.1863319,27.3109992 58.471,27.465 C58.7556681,27.6190008 58.9936657,27.8219987 59.185,28.074 C59.3763343,28.3260013 59.472,28.6619979 59.472,29.082 C59.472,29.4366684 59.3996674,29.7469987 59.255,30.013 C59.1103326,30.2790013 58.9190012,30.5006658 58.681,30.678 C58.4429988,30.8553342 58.1676682,30.9883329 57.855,31.077 C57.5423318,31.1656671 57.2180017,31.21 56.882,31.21 C55.7246609,31.21 54.8053367,30.8366704 54.124,30.09 L54.726,29.306 Z M64.862,30.09 L66.626,30.09 L66.626,23.16 C66.4019989,23.3746677 66.1430015,23.5379994 65.849,23.65 C65.5549985,23.7620006 65.1980021,23.8273332 64.778,23.846 L64.778,22.95 C65.3380028,22.95 65.7859983,22.8403344 66.122,22.621 C66.4580017,22.4016656 66.7193324,22.0633356 66.906,21.606 L67.788,21.606 L67.788,30.09 L69.524,30.09 L69.524,31 L64.862,31 L64.862,30.09 Z M71.904,30.146 C72.1840014,29.9593324 72.4989982,29.7353346 72.849,29.474 C73.1990017,29.2126654 73.5513316,28.9256682 73.906,28.613 C74.2606684,28.3003318 74.603665,27.9690018 74.935,27.619 C75.266335,27.2689982 75.560332,26.9050019 75.817,26.527 C76.0736679,26.1489981 76.2813325,25.764002 76.44,25.372 C76.5986675,24.979998 76.678,24.588002 76.678,24.196 C76.678,23.6453306 76.5356681,23.1903351 76.251,22.831 C75.9663319,22.4716649 75.5346696,22.292 74.956,22.292 C74.4333307,22.292 74.0156682,22.4553317 73.703,22.782 C73.3903318,23.1086683 73.1826672,23.5146642 73.08,24 L71.974,23.734 C72.2166679,22.9779962 72.5899975,22.404002 73.094,22.012 C73.5980025,21.619998 74.2606626,21.424 75.082,21.424 C75.474002,21.424 75.8449982,21.4799994 76.195,21.592 C76.5450017,21.7040006 76.8506654,21.8719989 77.112,22.096 C77.3733346,22.3200011 77.5786659,22.6023316 77.728,22.943 C77.8773341,23.2836684 77.952,23.6826644 77.952,24.14 C77.952,24.7560031 77.8003348,25.3509971 77.497,25.925 C77.1936651,26.4990029 76.8180022,27.0403308 76.37,27.549 C75.9219978,28.0576692 75.4366693,28.5243312 74.914,28.949 C74.3913307,29.3736688 73.9106689,29.7353318 73.472,30.034 L78.204,30.034 L78.204,31 L71.904,31 L71.904,30.146 Z M83.02,30.216 C83.4493355,30.216 83.8016653,30.0830013 84.077,29.817 C84.3523347,29.5509987 84.5669992,29.2196686 84.721,28.823 C84.8750008,28.4263313 84.982333,28.0016689 85.043,27.549 C85.103667,27.0963311 85.134,26.6833352 85.134,26.31 C85.134,25.9459982 85.103667,25.5353356 85.043,25.078 C84.982333,24.6206644 84.8750008,24.1936686 84.721,23.797 C84.5669992,23.4003314 84.3523347,23.066668 84.077,22.796 C83.8016653,22.525332 83.4493355,22.39 83.02,22.39 C82.5999979,22.39 82.254668,22.5183321 81.984,22.775 C81.713332,23.0316679 81.4963341,23.3489981 81.333,23.727 C81.1696658,24.1050019 81.057667,24.5133311 80.997,24.952 C80.936333,25.3906689 80.906,25.7966648 80.906,26.17 C80.906,26.5526686 80.9316664,26.977331 80.983,27.444 C81.0343336,27.910669 81.1369992,28.3493313 81.291,28.76 C81.4450008,29.1706687 81.6596653,29.5159986 81.935,29.796 C82.2103347,30.0760014 82.5719978,30.216 83.02,30.216 Z M83.02,31.21 C82.4039969,31.2006666 81.8766689,31.0466682 81.438,30.748 C80.9993311,30.4493318 80.644668,30.066669 80.374,29.6 C80.103332,29.133331 79.9050006,28.6106696 79.779,28.032 C79.6529994,27.4533304 79.59,26.8793362 79.59,26.31 C79.59,25.7406638 79.6529994,25.1643363 79.779,24.581 C79.9050006,23.9976638 80.1056653,23.472669 80.381,23.006 C80.6563347,22.539331 81.0133311,22.1566682 81.452,21.858 C81.8906689,21.5593318 82.4273302,21.41 83.062,21.41 C83.6873365,21.41 84.2169978,21.5593318 84.651,21.858 C85.0850022,22.1566682 85.4349987,22.539331 85.701,23.006 C85.9670013,23.472669 86.1583327,23.9953304 86.275,24.574 C86.3916672,25.1526696 86.45,25.7266638 86.45,26.296 C86.45,26.8560028 86.3916672,27.4253304 86.275,28.004 C86.1583327,28.5826696 85.9670013,29.1076643 85.701,29.579 C85.4349987,30.0503357 85.0826689,30.4376652 84.644,30.741 C84.2053311,31.0443349 83.6640032,31.2006666 83.02,31.21 Z M89.712,27.402 L87.654,24.112 L88.942,24.112 L90.538,26.73 L92.134,24.112 L93.408,24.112 L91.336,27.402 L93.674,31 L92.316,31 L90.538,28.088 L88.732,31 L87.388,31 L89.712,27.402 Z M95.788,30.09 L97.552,30.09 L97.552,23.16 C97.3279989,23.3746677 97.0690015,23.5379994 96.775,23.65 C96.4809985,23.7620006 96.1240021,23.8273332 95.704,23.846 L95.704,22.95 C96.2640028,22.95 96.7119983,22.8403344 97.048,22.621 C97.3840017,22.4016656 97.6453324,22.0633356 97.832,21.606 L98.714,21.606 L98.714,30.09 L100.45,30.09 L100.45,31 L95.788,31 L95.788,30.09 Z M102.83,30.146 C103.110001,29.9593324 103.424998,29.7353346 103.775,29.474 C104.125002,29.2126654 104.477332,28.9256682 104.832,28.613 C105.186668,28.3003318 105.529665,27.9690018 105.861,27.619 C106.192335,27.2689982 106.486332,26.9050019 106.743,26.527 C106.999668,26.1489981 107.207333,25.764002 107.366,25.372 C107.524667,24.979998 107.604,24.588002 107.604,24.196 C107.604,23.6453306 107.461668,23.1903351 107.177,22.831 C106.892332,22.4716649 106.46067,22.292 105.882,22.292 C105.359331,22.292 104.941668,22.4553317 104.629,22.782 C104.316332,23.1086683 104.108667,23.5146642 104.006,24 L102.9,23.734 C103.142668,22.9779962 103.515997,22.404002 104.02,22.012 C104.524003,21.619998 105.186663,21.424 106.008,21.424 C106.400002,21.424 106.770998,21.4799994 107.121,21.592 C107.471002,21.7040006 107.776665,21.8719989 108.038,22.096 C108.299335,22.3200011 108.504666,22.6023316 108.654,22.943 C108.803334,23.2836684 108.878,23.6826644 108.878,24.14 C108.878,24.7560031 108.726335,25.3509971 108.423,25.925 C108.119665,26.4990029 107.744002,27.0403308 107.296,27.549 C106.847998,28.0576692 106.362669,28.5243312 105.84,28.949 C105.317331,29.3736688 104.836669,29.7353318 104.398,30.034 L109.13,30.034 L109.13,31 L102.83,31 L102.83,30.146 Z M113.946,30.216 C114.375335,30.216 114.727665,30.0830013 115.003,29.817 C115.278335,29.5509987 115.492999,29.2196686 115.647,28.823 C115.801001,28.4263313 115.908333,28.0016689 115.969,27.549 C116.029667,27.0963311 116.06,26.6833352 116.06,26.31 C116.06,25.9459982 116.029667,25.5353356 115.969,25.078 C115.908333,24.6206644 115.801001,24.1936686 115.647,23.797 C115.492999,23.4003314 115.278335,23.066668 115.003,22.796 C114.727665,22.525332 114.375335,22.39 113.946,22.39 C113.525998,22.39 113.180668,22.5183321 112.91,22.775 C112.639332,23.0316679 112.422334,23.3489981 112.259,23.727 C112.095666,24.1050019 111.983667,24.5133311 111.923,24.952 C111.862333,25.3906689 111.832,25.7966648 111.832,26.17 C111.832,26.5526686 111.857666,26.977331 111.909,27.444 C111.960334,27.910669 112.062999,28.3493313 112.217,28.76 C112.371001,29.1706687 112.585665,29.5159986 112.861,29.796 C113.136335,30.0760014 113.497998,30.216 113.946,30.216 Z M113.946,31.21 C113.329997,31.2006666 112.802669,31.0466682 112.364,30.748 C111.925331,30.4493318 111.570668,30.066669 111.3,29.6 C111.029332,29.133331 110.831001,28.6106696 110.705,28.032 C110.578999,27.4533304 110.516,26.8793362 110.516,26.31 C110.516,25.7406638 110.578999,25.1643363 110.705,24.581 C110.831001,23.9976638 111.031665,23.472669 111.307,23.006 C111.582335,22.539331 111.939331,22.1566682 112.378,21.858 C112.816669,21.5593318 113.35333,21.41 113.988,21.41 C114.613336,21.41 115.142998,21.5593318 115.577,21.858 C116.011002,22.1566682 116.360999,22.539331 116.627,23.006 C116.893001,23.472669 117.084333,23.9953304 117.201,24.574 C117.317667,25.1526696 117.376,25.7266638 117.376,26.296 C117.376,26.8560028 117.317667,27.4253304 117.201,28.004 C117.084333,28.5826696 116.893001,29.1076643 116.627,29.579 C116.360999,30.0503357 116.008669,30.4376652 115.57,30.741 C115.131331,31.0443349 114.590003,31.2006666 113.946,31.21 Z M121.996,24.112 L123.158,24.112 L123.158,25.442 C123.242,25.245999 123.349333,25.0546676 123.48,24.868 C123.610667,24.6813324 123.766999,24.5180007 123.949,24.378 C124.131001,24.2379993 124.343332,24.1260004 124.586,24.042 C124.828668,23.9579996 125.103998,23.916 125.412,23.916 C125.860002,23.916 126.249665,24.0093324 126.581,24.196 C126.912335,24.3826676 127.185332,24.6393317 127.4,24.966 C127.614668,25.2926683 127.775666,25.6729978 127.883,26.107 C127.990334,26.5410022 128.044,27.0099975 128.044,27.514 C128.044,28.1113363 127.974001,28.6386644 127.834,29.096 C127.693999,29.5533356 127.498001,29.9359985 127.246,30.244 C126.993999,30.5520015 126.700002,30.7853325 126.364,30.944 C126.027998,31.1026675 125.664002,31.182 125.272,31.182 C124.758664,31.182 124.317669,31.0560013 123.949,30.804 C123.580331,30.5519987 123.316667,30.2393352 123.158,29.866 L123.158,33.422 L121.996,33.422 L121.996,24.112 Z M123.158,27.598 C123.158,27.794001 123.165,27.9736658 123.179,28.137 C123.193,28.3003342 123.209333,28.4379994 123.228,28.55 C123.265334,28.7740011 123.335333,28.9886656 123.438,29.194 C123.540667,29.3993344 123.666666,29.5789992 123.816,29.733 C123.965334,29.8870008 124.140332,30.0106662 124.341,30.104 C124.541668,30.1973338 124.763332,30.244 125.006,30.244 C125.323335,30.244 125.596332,30.1693341 125.825,30.02 C126.053668,29.8706659 126.242666,29.6700013 126.392,29.418 C126.541334,29.1659987 126.651,28.8790016 126.721,28.557 C126.791,28.2349984 126.826,27.9013351 126.826,27.556 C126.826,27.2106649 126.793334,26.8770016 126.728,26.555 C126.662666,26.2329984 126.557667,25.9483346 126.413,25.701 C126.268333,25.4536654 126.079335,25.2553341 125.846,25.106 C125.612666,24.9566659 125.332668,24.882 125.006,24.882 C124.753999,24.882 124.523001,24.9286662 124.313,25.022 C124.102999,25.1153338 123.923334,25.2413325 123.774,25.4 C123.624666,25.5586675 123.501,25.7406656 123.403,25.946 C123.305,26.1513344 123.242,26.3659989 123.214,26.59 C123.195333,26.6833338 123.181333,26.8116659 123.172,26.975 C123.162667,27.1383341 123.158,27.3273323 123.158,27.542 L123.158,27.598 Z M130.9,27.402 L128.842,24.112 L130.13,24.112 L131.726,26.73 L133.322,24.112 L134.596,24.112 L132.524,27.402 L134.862,31 L133.504,31 L131.726,28.088 L129.92,31 L128.576,31 L130.9,27.402 Z"></path>
                        </g>
                    </g>
                    <g id="Button-default" transform="translate(0.000000, 6.000000)">
                        <g id="Bg">
                            <use fill="#F5F5F6" fill-rule="evenodd" xlink:href="#path-2"></use>
                            <rect stroke="#A9B1B5" stroke-width="1" x="0.5" y="0.5" width="98" height="35" rx="3"></rect>
                        </g>
                        <path d="M21.92,13.116 L23.082,13.116 L26.568,23 L25.252,23 L24.37,20.34 L20.562,20.34 L19.68,23 L18.406,23 L21.92,13.116 Z M24.034,19.374 C23.7726654,18.5619959 23.513668,17.7663372 23.257,16.987 C23.0003321,16.2076628 22.7413346,15.388671 22.48,14.53 C22.2373321,15.3700042 21.980668,16.1843294 21.71,16.973 C21.439332,17.7616706 21.168668,18.5619959 20.898,19.374 L24.034,19.374 Z M32.448,21.656 C32.2613324,22.122669 31.9860018,22.491332 31.622,22.762 C31.2579982,23.032668 30.805336,23.168 30.264,23.168 C29.8346645,23.168 29.4496684,23.0793342 29.109,22.902 C28.7683316,22.7246658 28.4790012,22.4773349 28.241,22.16 C28.0029988,21.8426651 27.8210006,21.4600022 27.695,21.012 C27.5689994,20.5639978 27.506,20.069336 27.506,19.528 C27.506,18.9679972 27.5713327,18.4663355 27.702,18.023 C27.8326673,17.5796644 28.0193321,17.2040015 28.262,16.896 C28.5046679,16.5879985 28.7963316,16.3500008 29.137,16.182 C29.4776684,16.0139992 29.8533313,15.93 30.264,15.93 C30.8240028,15.93 31.2813316,16.0629987 31.636,16.329 C31.9906684,16.5950013 32.2426659,16.9146648 32.392,17.288 L32.392,13.116 L33.568,13.116 L33.568,23 L32.448,23 L32.448,21.656 Z M32.392,19.514 C32.392,19.2246652 32.3850001,18.9983342 32.371,18.835 C32.3569999,18.6716659 32.3406668,18.5386672 32.322,18.436 C32.2753331,18.2306656 32.2053338,18.0346676 32.112,17.848 C32.0186662,17.6613324 31.8996674,17.4956674 31.755,17.351 C31.6103326,17.2063326 31.440001,17.0920004 31.244,17.008 C31.047999,16.9239996 30.8240013,16.882 30.572,16.882 C30.2546651,16.882 29.9816678,16.9519993 29.753,17.092 C29.5243322,17.2320007 29.3330008,17.4209988 29.179,17.659 C29.0249992,17.8970012 28.910667,18.1769984 28.836,18.499 C28.761333,18.8210016 28.724,19.1639982 28.724,19.528 C28.724,19.920002 28.7659996,20.281665 28.85,20.613 C28.9340004,20.944335 29.0553325,21.2289988 29.214,21.467 C29.3726675,21.7050012 29.5686655,21.891666 29.802,22.027 C30.0353345,22.162334 30.3013318,22.23 30.6,22.23 C30.8333345,22.23 31.0456657,22.1880004 31.237,22.104 C31.4283343,22.0199996 31.5963326,21.9033341 31.741,21.754 C31.8856674,21.6046659 32.0046662,21.4343343 32.098,21.243 C32.1913338,21.0516657 32.2613331,20.8486677 32.308,20.634 C32.3640003,20.3726654 32.392,20.0226689 32.392,19.584 L32.392,19.514 Z M39.98,21.656 C39.7933324,22.122669 39.5180018,22.491332 39.154,22.762 C38.7899982,23.032668 38.337336,23.168 37.796,23.168 C37.3666645,23.168 36.9816684,23.0793342 36.641,22.902 C36.3003316,22.7246658 36.0110012,22.4773349 35.773,22.16 C35.5349988,21.8426651 35.3530006,21.4600022 35.227,21.012 C35.1009994,20.5639978 35.038,20.069336 35.038,19.528 C35.038,18.9679972 35.1033327,18.4663355 35.234,18.023 C35.3646673,17.5796644 35.5513321,17.2040015 35.794,16.896 C36.0366679,16.5879985 36.3283316,16.3500008 36.669,16.182 C37.0096684,16.0139992 37.3853313,15.93 37.796,15.93 C38.3560028,15.93 38.8133316,16.0629987 39.168,16.329 C39.5226684,16.5950013 39.7746659,16.9146648 39.924,17.288 L39.924,13.116 L41.1,13.116 L41.1,23 L39.98,23 L39.98,21.656 Z M39.924,19.514 C39.924,19.2246652 39.9170001,18.9983342 39.903,18.835 C39.8889999,18.6716659 39.8726668,18.5386672 39.854,18.436 C39.8073331,18.2306656 39.7373338,18.0346676 39.644,17.848 C39.5506662,17.6613324 39.4316674,17.4956674 39.287,17.351 C39.1423326,17.2063326 38.972001,17.0920004 38.776,17.008 C38.579999,16.9239996 38.3560013,16.882 38.104,16.882 C37.7866651,16.882 37.5136678,16.9519993 37.285,17.092 C37.0563322,17.2320007 36.8650008,17.4209988 36.711,17.659 C36.5569992,17.8970012 36.442667,18.1769984 36.368,18.499 C36.293333,18.8210016 36.256,19.1639982 36.256,19.528 C36.256,19.920002 36.2979996,20.281665 36.382,20.613 C36.4660004,20.944335 36.5873325,21.2289988 36.746,21.467 C36.9046675,21.7050012 37.1006655,21.891666 37.334,22.027 C37.5673345,22.162334 37.8333318,22.23 38.132,22.23 C38.3653345,22.23 38.5776657,22.1880004 38.769,22.104 C38.9603343,22.0199996 39.1283326,21.9033341 39.273,21.754 C39.4176674,21.6046659 39.5366662,21.4343343 39.63,21.243 C39.7233338,21.0516657 39.7933331,20.8486677 39.84,20.634 C39.8960003,20.3726654 39.924,20.0226689 39.924,19.584 L39.924,19.514 Z M46.028,13.438 L47.19,13.438 L47.19,14.6 L46.028,14.6 L46.028,13.438 Z M46.028,16.112 L47.19,16.112 L47.19,23 L46.028,23 L46.028,16.112 Z M48.982,16.112 L49.99,16.112 L50.116,17.456 C50.2840008,16.9799976 50.5453316,16.6043347 50.9,16.329 C51.2546684,16.0536653 51.6886641,15.916 52.202,15.916 C52.743336,15.916 53.1679985,16.0699985 53.476,16.378 C53.7840015,16.6860015 53.9799996,17.0593311 54.064,17.498 C54.1480004,17.2833323 54.2529994,17.0803343 54.379,16.889 C54.5050006,16.6976657 54.6566658,16.5296674 54.834,16.385 C55.0113342,16.2403326 55.2166655,16.1260004 55.45,16.042 C55.6833345,15.9579996 55.9493318,15.916 56.248,15.916 C56.640002,15.916 56.964332,15.983666 57.221,16.119 C57.4776679,16.254334 57.6829992,16.4386655 57.837,16.672 C57.9910008,16.9053345 58.1006663,17.1783318 58.166,17.491 C58.2313337,17.8036682 58.264,18.1326649 58.264,18.478 L58.264,23 L57.102,23 L57.102,18.772 C57.102,18.1559969 56.9923344,17.6963348 56.773,17.393 C56.5536656,17.0896652 56.2340021,16.938 55.814,16.938 C55.3566644,16.938 54.9740015,17.140998 54.666,17.547 C54.3579985,17.953002 54.204,18.5339962 54.204,19.29 L54.204,23 L53.042,23 L53.042,18.828 C53.042,18.1839968 52.9300011,17.7080015 52.706,17.4 C52.4819989,17.0919985 52.1693353,16.938 51.768,16.938 C51.3199978,16.938 50.9373349,17.1456646 50.62,17.561 C50.3026651,17.9763354 50.144,18.5759961 50.144,19.36 L50.144,23 L48.982,23 L48.982,16.112 Z M64.354,23 C64.2513328,22.6639983 64.1906668,22.262669 64.172,21.796 C63.9853324,22.2253355 63.6983353,22.568332 63.311,22.825 C62.9236647,23.0816679 62.4640027,23.21 61.932,23.21 C61.2599966,23.21 60.728002,23.0186686 60.336,22.636 C59.943998,22.2533314 59.748,21.7400032 59.748,21.096 C59.748,20.7319982 59.8133327,20.4263346 59.944,20.179 C60.0746673,19.9316654 60.2566655,19.7263341 60.49,19.563 C60.7233345,19.3996658 60.9986651,19.2713338 61.316,19.178 C61.6333349,19.0846662 61.9786648,19.0100003 62.352,18.954 L64.116,18.688 L64.116,18.254 C64.116,17.9459985 64.078667,17.6986676 64.004,17.512 C63.929333,17.3253324 63.8266673,17.1806672 63.696,17.078 C63.5653327,16.9753328 63.4160008,16.9076668 63.248,16.875 C63.0799992,16.8423332 62.9026676,16.826 62.716,16.826 C62.1839973,16.826 61.7453351,16.923999 61.4,17.12 C61.0546649,17.316001 60.7653345,17.5633318 60.532,17.862 L59.93,17.106 C60.200668,16.7793317 60.5763309,16.4993345 61.057,16.266 C61.5376691,16.0326655 62.1326631,15.916 62.842,15.916 C63.700671,15.916 64.3236647,16.1073314 64.711,16.49 C65.0983353,16.8726686 65.292,17.4886624 65.292,18.338 L65.292,21.124 C65.292,21.3480011 65.2943333,21.5439992 65.299,21.712 C65.3036667,21.8800008 65.3129999,22.0363326 65.327,22.181 C65.3410001,22.3256674 65.3619999,22.4633327 65.39,22.594 C65.4180001,22.7246673 65.4553331,22.8599993 65.502,23 L64.354,23 Z M64.116,19.458 L62.464,19.724 C61.8946638,19.8266672 61.4910012,19.9806656 61.253,20.186 C61.0149988,20.3913344 60.896,20.6759982 60.896,21.04 C60.896,21.4133352 61.0056656,21.7259987 61.225,21.978 C61.4443344,22.2300013 61.7686645,22.356 62.198,22.356 C62.4593346,22.356 62.7066655,22.3046672 62.94,22.202 C63.1733345,22.0993328 63.3763325,21.9570009 63.549,21.775 C63.7216675,21.5929991 63.8593328,21.3736679 63.962,21.117 C64.0646672,20.8603321 64.116,20.5780015 64.116,20.27 L64.116,19.458 Z M67.714,23.826 C67.984668,24.0873346 68.3089981,24.2949992 68.687,24.449 C69.0650019,24.6030008 69.4686645,24.68 69.898,24.68 C70.2526684,24.68 70.5419989,24.6263339 70.766,24.519 C70.9900011,24.4116661 71.1673327,24.2646676 71.298,24.078 C71.4286673,23.8913324 71.5196664,23.6790012 71.571,23.441 C71.6223336,23.2029988 71.648,22.948668 71.648,22.678 L71.648,21.404 C71.4706658,21.8240021 71.2046684,22.162332 70.85,22.419 C70.4953316,22.675668 70.0380028,22.804 69.478,22.804 C69.0766647,22.804 68.7126683,22.7270008 68.386,22.573 C68.0593317,22.4189992 67.7793345,22.1973348 67.546,21.908 C67.3126655,21.6186652 67.1330006,21.2640021 67.007,20.844 C66.8809994,20.4239979 66.818,19.9526693 66.818,19.43 C66.818,18.9166641 66.8809994,18.4453355 67.007,18.016 C67.1330006,17.5866645 67.3149988,17.2180015 67.553,16.91 C67.7910012,16.6019985 68.0803316,16.3616675 68.421,16.189 C68.7616684,16.0163325 69.1419979,15.93 69.562,15.93 C70.1126694,15.93 70.5699982,16.0676653 70.934,16.343 C71.2980018,16.6183347 71.5593325,16.9706645 71.718,17.4 L71.914,16.112 L72.81,16.112 L72.81,22.65 C72.81,23.042002 72.7633338,23.4129983 72.67,23.763 C72.5766662,24.1130018 72.4180011,24.423332 72.194,24.694 C71.9699989,24.964668 71.6713352,25.1793325 71.298,25.338 C70.9246648,25.4966675 70.4580028,25.576 69.898,25.576 C69.2913303,25.576 68.7476691,25.4896675 68.267,25.317 C67.7863309,25.1443325 67.3826683,24.9273346 67.056,24.666 L67.714,23.826 Z M71.648,19.43 C71.648,19.2713325 71.6456667,19.1196674 71.641,18.975 C71.6363333,18.8303326 71.6246668,18.720667 71.606,18.646 C71.5686665,18.4219989 71.5080004,18.2026677 71.424,17.988 C71.3399996,17.7733323 71.2256674,17.5866675 71.081,17.428 C70.9363326,17.2693325 70.759001,17.1410005 70.549,17.043 C70.3389989,16.9449995 70.0940014,16.896 69.814,16.896 C69.5059985,16.896 69.2400011,16.9613327 69.016,17.092 C68.7919989,17.2226673 68.6076674,17.3999989 68.463,17.624 C68.3183326,17.8480011 68.2110004,18.1139985 68.141,18.422 C68.0709997,18.7300015 68.036,19.0566649 68.036,19.402 C68.036,19.7100015 68.0686663,20.0156652 68.134,20.319 C68.1993337,20.6223349 68.3019993,20.8906655 68.442,21.124 C68.5820007,21.3573345 68.7663322,21.5463326 68.995,21.691 C69.2236678,21.8356674 69.5013317,21.908 69.828,21.908 C70.2853356,21.908 70.6539986,21.779668 70.934,21.523 C71.2140014,21.2663321 71.4099994,20.942002 71.522,20.55 C71.5686669,20.4193327 71.6013332,20.256001 71.62,20.06 C71.6386668,19.863999 71.648,19.6773342 71.648,19.5 L71.648,19.43 Z M75.484,19.822 C75.5306669,20.6153373 75.7336649,21.2289978 76.093,21.663 C76.4523351,22.0970022 76.9539968,22.314 77.598,22.314 C78.4100041,22.314 79.0213313,21.9313372 79.432,21.166 L80.314,21.656 C80.043332,22.1133356 79.6840022,22.4866652 79.236,22.776 C78.7879978,23.0653348 78.2233367,23.21 77.542,23.21 C77.000664,23.21 76.527002,23.1166676 76.121,22.93 C75.714998,22.7433324 75.376668,22.4866683 75.106,22.16 C74.835332,21.8333317 74.632334,21.4506689 74.497,21.012 C74.361666,20.5733311 74.294,20.1020025 74.294,19.598 C74.294,19.1033309 74.3593327,18.6320022 74.49,18.184 C74.6206673,17.7359978 74.8189987,17.3440017 75.085,17.008 C75.3510013,16.6719983 75.6776647,16.406001 76.065,16.21 C76.4523353,16.013999 76.9073307,15.916 77.43,15.916 C77.9340025,15.916 78.3726648,16.0116657 78.746,16.203 C79.1193352,16.3943343 79.4296654,16.6509984 79.677,16.973 C79.9243346,17.2950016 80.1109994,17.6683312 80.237,18.093 C80.3630006,18.5176688 80.426,18.9679976 80.426,19.444 C80.426,19.5466672 80.4236667,19.6259997 80.419,19.682 C80.4143333,19.7380003 80.412,19.7846665 80.412,19.822 L75.484,19.822 Z M77.416,16.798 C76.8279971,16.798 76.3730016,17.0079979 76.051,17.428 C75.7289984,17.8480021 75.5446669,18.4126631 75.498,19.122 L79.236,19.122 C79.236,18.8326652 79.2033337,18.5503347 79.138,18.275 C79.0726663,17.9996653 78.9653341,17.7523344 78.816,17.533 C78.6666659,17.3136656 78.4776678,17.136334 78.249,17.001 C78.0203322,16.865666 77.7426683,16.798 77.416,16.798 Z" id="Button-item" fill="#000000"></path>
                    </g>
                </g>
            </g>
        </g>
    </g>
</svg>