<?xml version="1.0" encoding="UTF-8"?>
<svg width="294px" height="48px" viewBox="0 0 294 48" version="1.1" xmlns="http://www.w3.org/2000/svg" xmlns:xlink="http://www.w3.org/1999/xlink">
    <!-- Generator: Sketch 47 (45396) - http://www.bohemiancoding.com/sketch -->
    <title>Ellipsis</title>
    <desc>Created with Sketch.</desc>
    <defs>
        <rect id="path-1" x="0" y="0" width="99" height="36" rx="3"></rect>
        <rect id="path-2" x="0" y="0" width="179" height="48"></rect>
    </defs>
    <g id="Page-1" stroke="none" stroke-width="1" fill="none" fill-rule="evenodd">
        <g id="Buttons-Usage-extra-large-1200" transform="translate(-353.000000, -1832.000000)">
            <g id="Group-5-Copy" transform="translate(300.000000, 1779.000000)">
                <g id="Ellipsis" transform="translate(53.000000, 53.000000)">
                    <g id="Button-default" transform="translate(0.000000, 6.000000)">
                        <g id="Bg">
                            <use fill="#F5F5F6" fill-rule="evenodd" xlink:href="#path-1"></use>
                            <rect stroke="#A9B1B5" stroke-width="1" x="0.5" y="0.5" width="98" height="35" rx="3"></rect>
                        </g>
                        <path d="M21.92,13.116 L23.082,13.116 L26.568,23 L25.252,23 L24.37,20.34 L20.562,20.34 L19.68,23 L18.406,23 L21.92,13.116 Z M24.034,19.374 C23.7726654,18.5619959 23.513668,17.7663372 23.257,16.987 C23.0003321,16.2076628 22.7413346,15.388671 22.48,14.53 C22.2373321,15.3700042 21.980668,16.1843294 21.71,16.973 C21.439332,17.7616706 21.168668,18.5619959 20.898,19.374 L24.034,19.374 Z M32.448,21.656 C32.2613324,22.122669 31.9860018,22.491332 31.622,22.762 C31.2579982,23.032668 30.805336,23.168 30.264,23.168 C29.8346645,23.168 29.4496684,23.0793342 29.109,22.902 C28.7683316,22.7246658 28.4790012,22.4773349 28.241,22.16 C28.0029988,21.8426651 27.8210006,21.4600022 27.695,21.012 C27.5689994,20.5639978 27.506,20.069336 27.506,19.528 C27.506,18.9679972 27.5713327,18.4663355 27.702,18.023 C27.8326673,17.5796644 28.0193321,17.2040015 28.262,16.896 C28.5046679,16.5879985 28.7963316,16.3500008 29.137,16.182 C29.4776684,16.0139992 29.8533313,15.93 30.264,15.93 C30.8240028,15.93 31.2813316,16.0629987 31.636,16.329 C31.9906684,16.5950013 32.2426659,16.9146648 32.392,17.288 L32.392,13.116 L33.568,13.116 L33.568,23 L32.448,23 L32.448,21.656 Z M32.392,19.514 C32.392,19.2246652 32.3850001,18.9983342 32.371,18.835 C32.3569999,18.6716659 32.3406668,18.5386672 32.322,18.436 C32.2753331,18.2306656 32.2053338,18.0346676 32.112,17.848 C32.0186662,17.6613324 31.8996674,17.4956674 31.755,17.351 C31.6103326,17.2063326 31.440001,17.0920004 31.244,17.008 C31.047999,16.9239996 30.8240013,16.882 30.572,16.882 C30.2546651,16.882 29.9816678,16.9519993 29.753,17.092 C29.5243322,17.2320007 29.3330008,17.4209988 29.179,17.659 C29.0249992,17.8970012 28.910667,18.1769984 28.836,18.499 C28.761333,18.8210016 28.724,19.1639982 28.724,19.528 C28.724,19.920002 28.7659996,20.281665 28.85,20.613 C28.9340004,20.944335 29.0553325,21.2289988 29.214,21.467 C29.3726675,21.7050012 29.5686655,21.891666 29.802,22.027 C30.0353345,22.162334 30.3013318,22.23 30.6,22.23 C30.8333345,22.23 31.0456657,22.1880004 31.237,22.104 C31.4283343,22.0199996 31.5963326,21.9033341 31.741,21.754 C31.8856674,21.6046659 32.0046662,21.4343343 32.098,21.243 C32.1913338,21.0516657 32.2613331,20.8486677 32.308,20.634 C32.3640003,20.3726654 32.392,20.0226689 32.392,19.584 L32.392,19.514 Z M39.98,21.656 C39.7933324,22.122669 39.5180018,22.491332 39.154,22.762 C38.7899982,23.032668 38.337336,23.168 37.796,23.168 C37.3666645,23.168 36.9816684,23.0793342 36.641,22.902 C36.3003316,22.7246658 36.0110012,22.4773349 35.773,22.16 C35.5349988,21.8426651 35.3530006,21.4600022 35.227,21.012 C35.1009994,20.5639978 35.038,20.069336 35.038,19.528 C35.038,18.9679972 35.1033327,18.4663355 35.234,18.023 C35.3646673,17.5796644 35.5513321,17.2040015 35.794,16.896 C36.0366679,16.5879985 36.3283316,16.3500008 36.669,16.182 C37.0096684,16.0139992 37.3853313,15.93 37.796,15.93 C38.3560028,15.93 38.8133316,16.0629987 39.168,16.329 C39.5226684,16.5950013 39.7746659,16.9146648 39.924,17.288 L39.924,13.116 L41.1,13.116 L41.1,23 L39.98,23 L39.98,21.656 Z M39.924,19.514 C39.924,19.2246652 39.9170001,18.9983342 39.903,18.835 C39.8889999,18.6716659 39.8726668,18.5386672 39.854,18.436 C39.8073331,18.2306656 39.7373338,18.0346676 39.644,17.848 C39.5506662,17.6613324 39.4316674,17.4956674 39.287,17.351 C39.1423326,17.2063326 38.972001,17.0920004 38.776,17.008 C38.579999,16.9239996 38.3560013,16.882 38.104,16.882 C37.7866651,16.882 37.5136678,16.9519993 37.285,17.092 C37.0563322,17.2320007 36.8650008,17.4209988 36.711,17.659 C36.5569992,17.8970012 36.442667,18.1769984 36.368,18.499 C36.293333,18.8210016 36.256,19.1639982 36.256,19.528 C36.256,19.920002 36.2979996,20.281665 36.382,20.613 C36.4660004,20.944335 36.5873325,21.2289988 36.746,21.467 C36.9046675,21.7050012 37.1006655,21.891666 37.334,22.027 C37.5673345,22.162334 37.8333318,22.23 38.132,22.23 C38.3653345,22.23 38.5776657,22.1880004 38.769,22.104 C38.9603343,22.0199996 39.1283326,21.9033341 39.273,21.754 C39.4176674,21.6046659 39.5366662,21.4343343 39.63,21.243 C39.7233338,21.0516657 39.7933331,20.8486677 39.84,20.634 C39.8960003,20.3726654 39.924,20.0226689 39.924,19.584 L39.924,19.514 Z M46.028,13.438 L47.19,13.438 L47.19,14.6 L46.028,14.6 L46.028,13.438 Z M46.028,16.112 L47.19,16.112 L47.19,23 L46.028,23 L46.028,16.112 Z M48.982,16.112 L49.99,16.112 L50.116,17.456 C50.2840008,16.9799976 50.5453316,16.6043347 50.9,16.329 C51.2546684,16.0536653 51.6886641,15.916 52.202,15.916 C52.743336,15.916 53.1679985,16.0699985 53.476,16.378 C53.7840015,16.6860015 53.9799996,17.0593311 54.064,17.498 C54.1480004,17.2833323 54.2529994,17.0803343 54.379,16.889 C54.5050006,16.6976657 54.6566658,16.5296674 54.834,16.385 C55.0113342,16.2403326 55.2166655,16.1260004 55.45,16.042 C55.6833345,15.9579996 55.9493318,15.916 56.248,15.916 C56.640002,15.916 56.964332,15.983666 57.221,16.119 C57.4776679,16.254334 57.6829992,16.4386655 57.837,16.672 C57.9910008,16.9053345 58.1006663,17.1783318 58.166,17.491 C58.2313337,17.8036682 58.264,18.1326649 58.264,18.478 L58.264,23 L57.102,23 L57.102,18.772 C57.102,18.1559969 56.9923344,17.6963348 56.773,17.393 C56.5536656,17.0896652 56.2340021,16.938 55.814,16.938 C55.3566644,16.938 54.9740015,17.140998 54.666,17.547 C54.3579985,17.953002 54.204,18.5339962 54.204,19.29 L54.204,23 L53.042,23 L53.042,18.828 C53.042,18.1839968 52.9300011,17.7080015 52.706,17.4 C52.4819989,17.0919985 52.1693353,16.938 51.768,16.938 C51.3199978,16.938 50.9373349,17.1456646 50.62,17.561 C50.3026651,17.9763354 50.144,18.5759961 50.144,19.36 L50.144,23 L48.982,23 L48.982,16.112 Z M64.354,23 C64.2513328,22.6639983 64.1906668,22.262669 64.172,21.796 C63.9853324,22.2253355 63.6983353,22.568332 63.311,22.825 C62.9236647,23.0816679 62.4640027,23.21 61.932,23.21 C61.2599966,23.21 60.728002,23.0186686 60.336,22.636 C59.943998,22.2533314 59.748,21.7400032 59.748,21.096 C59.748,20.7319982 59.8133327,20.4263346 59.944,20.179 C60.0746673,19.9316654 60.2566655,19.7263341 60.49,19.563 C60.7233345,19.3996658 60.9986651,19.2713338 61.316,19.178 C61.6333349,19.0846662 61.9786648,19.0100003 62.352,18.954 L64.116,18.688 L64.116,18.254 C64.116,17.9459985 64.078667,17.6986676 64.004,17.512 C63.929333,17.3253324 63.8266673,17.1806672 63.696,17.078 C63.5653327,16.9753328 63.4160008,16.9076668 63.248,16.875 C63.0799992,16.8423332 62.9026676,16.826 62.716,16.826 C62.1839973,16.826 61.7453351,16.923999 61.4,17.12 C61.0546649,17.316001 60.7653345,17.5633318 60.532,17.862 L59.93,17.106 C60.200668,16.7793317 60.5763309,16.4993345 61.057,16.266 C61.5376691,16.0326655 62.1326631,15.916 62.842,15.916 C63.700671,15.916 64.3236647,16.1073314 64.711,16.49 C65.0983353,16.8726686 65.292,17.4886624 65.292,18.338 L65.292,21.124 C65.292,21.3480011 65.2943333,21.5439992 65.299,21.712 C65.3036667,21.8800008 65.3129999,22.0363326 65.327,22.181 C65.3410001,22.3256674 65.3619999,22.4633327 65.39,22.594 C65.4180001,22.7246673 65.4553331,22.8599993 65.502,23 L64.354,23 Z M64.116,19.458 L62.464,19.724 C61.8946638,19.8266672 61.4910012,19.9806656 61.253,20.186 C61.0149988,20.3913344 60.896,20.6759982 60.896,21.04 C60.896,21.4133352 61.0056656,21.7259987 61.225,21.978 C61.4443344,22.2300013 61.7686645,22.356 62.198,22.356 C62.4593346,22.356 62.7066655,22.3046672 62.94,22.202 C63.1733345,22.0993328 63.3763325,21.9570009 63.549,21.775 C63.7216675,21.5929991 63.8593328,21.3736679 63.962,21.117 C64.0646672,20.8603321 64.116,20.5780015 64.116,20.27 L64.116,19.458 Z M67.714,23.826 C67.984668,24.0873346 68.3089981,24.2949992 68.687,24.449 C69.0650019,24.6030008 69.4686645,24.68 69.898,24.68 C70.2526684,24.68 70.5419989,24.6263339 70.766,24.519 C70.9900011,24.4116661 71.1673327,24.2646676 71.298,24.078 C71.4286673,23.8913324 71.5196664,23.6790012 71.571,23.441 C71.6223336,23.2029988 71.648,22.948668 71.648,22.678 L71.648,21.404 C71.4706658,21.8240021 71.2046684,22.162332 70.85,22.419 C70.4953316,22.675668 70.0380028,22.804 69.478,22.804 C69.0766647,22.804 68.7126683,22.7270008 68.386,22.573 C68.0593317,22.4189992 67.7793345,22.1973348 67.546,21.908 C67.3126655,21.6186652 67.1330006,21.2640021 67.007,20.844 C66.8809994,20.4239979 66.818,19.9526693 66.818,19.43 C66.818,18.9166641 66.8809994,18.4453355 67.007,18.016 C67.1330006,17.5866645 67.3149988,17.2180015 67.553,16.91 C67.7910012,16.6019985 68.0803316,16.3616675 68.421,16.189 C68.7616684,16.0163325 69.1419979,15.93 69.562,15.93 C70.1126694,15.93 70.5699982,16.0676653 70.934,16.343 C71.2980018,16.6183347 71.5593325,16.9706645 71.718,17.4 L71.914,16.112 L72.81,16.112 L72.81,22.65 C72.81,23.042002 72.7633338,23.4129983 72.67,23.763 C72.5766662,24.1130018 72.4180011,24.423332 72.194,24.694 C71.9699989,24.964668 71.6713352,25.1793325 71.298,25.338 C70.9246648,25.4966675 70.4580028,25.576 69.898,25.576 C69.2913303,25.576 68.7476691,25.4896675 68.267,25.317 C67.7863309,25.1443325 67.3826683,24.9273346 67.056,24.666 L67.714,23.826 Z M71.648,19.43 C71.648,19.2713325 71.6456667,19.1196674 71.641,18.975 C71.6363333,18.8303326 71.6246668,18.720667 71.606,18.646 C71.5686665,18.4219989 71.5080004,18.2026677 71.424,17.988 C71.3399996,17.7733323 71.2256674,17.5866675 71.081,17.428 C70.9363326,17.2693325 70.759001,17.1410005 70.549,17.043 C70.3389989,16.9449995 70.0940014,16.896 69.814,16.896 C69.5059985,16.896 69.2400011,16.9613327 69.016,17.092 C68.7919989,17.2226673 68.6076674,17.3999989 68.463,17.624 C68.3183326,17.8480011 68.2110004,18.1139985 68.141,18.422 C68.0709997,18.7300015 68.036,19.0566649 68.036,19.402 C68.036,19.7100015 68.0686663,20.0156652 68.134,20.319 C68.1993337,20.6223349 68.3019993,20.8906655 68.442,21.124 C68.5820007,21.3573345 68.7663322,21.5463326 68.995,21.691 C69.2236678,21.8356674 69.5013317,21.908 69.828,21.908 C70.2853356,21.908 70.6539986,21.779668 70.934,21.523 C71.2140014,21.2663321 71.4099994,20.942002 71.522,20.55 C71.5686669,20.4193327 71.6013332,20.256001 71.62,20.06 C71.6386668,19.863999 71.648,19.6773342 71.648,19.5 L71.648,19.43 Z M75.484,19.822 C75.5306669,20.6153373 75.7336649,21.2289978 76.093,21.663 C76.4523351,22.0970022 76.9539968,22.314 77.598,22.314 C78.4100041,22.314 79.0213313,21.9313372 79.432,21.166 L80.314,21.656 C80.043332,22.1133356 79.6840022,22.4866652 79.236,22.776 C78.7879978,23.0653348 78.2233367,23.21 77.542,23.21 C77.000664,23.21 76.527002,23.1166676 76.121,22.93 C75.714998,22.7433324 75.376668,22.4866683 75.106,22.16 C74.835332,21.8333317 74.632334,21.4506689 74.497,21.012 C74.361666,20.5733311 74.294,20.1020025 74.294,19.598 C74.294,19.1033309 74.3593327,18.6320022 74.49,18.184 C74.6206673,17.7359978 74.8189987,17.3440017 75.085,17.008 C75.3510013,16.6719983 75.6776647,16.406001 76.065,16.21 C76.4523353,16.013999 76.9073307,15.916 77.43,15.916 C77.9340025,15.916 78.3726648,16.0116657 78.746,16.203 C79.1193352,16.3943343 79.4296654,16.6509984 79.677,16.973 C79.9243346,17.2950016 80.1109994,17.6683312 80.237,18.093 C80.3630006,18.5176688 80.426,18.9679976 80.426,19.444 C80.426,19.5466672 80.4236667,19.6259997 80.419,19.682 C80.4143333,19.7380003 80.412,19.7846665 80.412,19.822 L75.484,19.822 Z M77.416,16.798 C76.8279971,16.798 76.3730016,17.0079979 76.051,17.428 C75.7289984,17.8480021 75.5446669,18.4126631 75.498,19.122 L79.236,19.122 C79.236,18.8326652 79.2033337,18.5503347 79.138,18.275 C79.0726663,17.9996653 78.9653341,17.7523344 78.816,17.533 C78.6666659,17.3136656 78.4776678,17.136334 78.249,17.001 C78.0203322,16.865666 77.7426683,16.798 77.416,16.798 Z" id="Button-item" fill="#000000"></path>
                    </g>
                    <g id="Group-2" transform="translate(115.000000, 0.000000)">
                        <g id="Rectangle-4">
                            <use fill="#FFFFFF" fill-rule="evenodd" xlink:href="#path-2"></use>
                            <rect stroke="#E0E5E8" stroke-width="1" x="0.5" y="0.5" width="178" height="47"></rect>
                        </g>
                        <g id="Group-7" transform="translate(43.000000, 18.000000)" fill="#000000">
                            <path d="M0,0 L5.936,0 L5.936,0.98 L1.26,0.98 L1.26,4.424 L4.858,4.424 L4.858,5.39 L1.26,5.39 L1.26,9.884 L0,9.884 L0,0 Z M7.238,0.322 L8.4,0.322 L8.4,1.484 L7.238,1.484 L7.238,0.322 Z M7.238,2.996 L8.4,2.996 L8.4,9.884 L7.238,9.884 L7.238,2.996 Z M10.192,0 L11.354,0 L11.354,9.884 L10.192,9.884 L10.192,0 Z M14.028,6.706 C14.0746669,7.4993373 14.2776649,8.11299783 14.637,8.547 C14.9963351,8.98100217 15.4979968,9.198 16.142,9.198 C16.9540041,9.198 17.5653313,8.81533716 17.976,8.05 L18.858,8.54 C18.587332,8.99733562 18.2280022,9.37066522 17.78,9.66 C17.3319978,9.94933478 16.7673367,10.094 16.086,10.094 C15.544664,10.094 15.071002,10.0006676 14.665,9.814 C14.258998,9.6273324 13.920668,9.3706683 13.65,9.044 C13.379332,8.7173317 13.176334,8.33466886 13.041,7.896 C12.905666,7.45733114 12.838,6.98600252 12.838,6.482 C12.838,5.98733086 12.9033327,5.51600224 13.034,5.068 C13.1646673,4.61999776 13.3629987,4.22800168 13.629,3.892 C13.8950013,3.55599832 14.2216647,3.29000098 14.609,3.094 C14.9963353,2.89799902 15.4513307,2.8 15.974,2.8 C16.4780025,2.8 16.9166648,2.89566571 17.29,3.087 C17.6633352,3.27833429 17.9736654,3.53499839 18.221,3.857 C18.4683346,4.17900161 18.6549994,4.55233121 18.781,4.977 C18.9070006,5.40166879 18.97,5.85199762 18.97,6.328 C18.97,6.43066718 18.9676667,6.50999972 18.963,6.566 C18.9583333,6.62200028 18.956,6.66866648 18.956,6.706 L14.028,6.706 Z M15.96,3.682 C15.3719971,3.682 14.9170016,3.8919979 14.595,4.312 C14.2729984,4.7320021 14.0886669,5.29666312 14.042,6.006 L17.78,6.006 C17.78,5.71666522 17.7473337,5.43433471 17.682,5.159 C17.6166663,4.88366529 17.5093341,4.63633443 17.36,4.417 C17.2106659,4.19766557 17.0216678,4.02033401 16.793,3.885 C16.5643322,3.74966599 16.2866683,3.682 15.96,3.682 Z M23.534,2.996 L24.542,2.996 L24.668,4.368 C24.8453342,3.9479979 25.1276647,3.58166823 25.515,3.269 C25.9023353,2.95633177 26.3806638,2.8 26.95,2.8 C27.6686703,2.8 28.1983316,3.02866438 28.539,3.486 C28.8796684,3.94333562 29.05,4.58266256 29.05,5.404 L29.05,9.884 L27.888,9.884 L27.888,5.642 C27.888,5.01666354 27.7620013,4.55700147 27.51,4.263 C27.2579987,3.96899853 26.9173355,3.822 26.488,3.822 C25.9746641,3.822 25.5476684,4.0319979 25.207,4.452 C24.8663316,4.8720021 24.696,5.46466284 24.696,6.23 L24.696,9.884 L23.534,9.884 L23.534,2.996 Z M35.14,9.884 C35.0373328,9.54799832 34.9766668,9.146669 34.958,8.68 C34.7713324,9.10933548 34.4843353,9.45233205 34.097,9.709 C33.7096647,9.96566795 33.2500027,10.094 32.718,10.094 C32.0459966,10.094 31.514002,9.90266858 31.122,9.52 C30.729998,9.13733142 30.534,8.62400322 30.534,7.98 C30.534,7.61599818 30.5993327,7.31033457 30.73,7.063 C30.8606673,6.81566543 31.0426655,6.61033415 31.276,6.447 C31.5093345,6.28366585 31.7846651,6.1553338 32.102,6.062 C32.4193349,5.9686662 32.7646648,5.89400028 33.138,5.838 L34.902,5.572 L34.902,5.138 C34.902,4.82999846 34.864667,4.5826676 34.79,4.396 C34.715333,4.2093324 34.6126673,4.06466718 34.482,3.962 C34.3513327,3.85933282 34.2020008,3.79166683 34.034,3.759 C33.8659992,3.72633317 33.6886676,3.71 33.502,3.71 C32.9699973,3.71 32.5313351,3.80799902 32.186,4.004 C31.8406649,4.20000098 31.5513345,4.44733184 31.318,4.746 L30.716,3.99 C30.986668,3.6633317 31.3623309,3.3833345 31.843,3.15 C32.3236691,2.9166655 32.9186631,2.8 33.628,2.8 C34.486671,2.8 35.1096647,2.99133142 35.497,3.374 C35.8843353,3.75666858 36.078,4.37266242 36.078,5.222 L36.078,8.008 C36.078,8.23200112 36.0803333,8.42799916 36.085,8.596 C36.0896667,8.76400084 36.0989999,8.92033261 36.113,9.065 C36.1270001,9.20966739 36.1479999,9.34733268 36.176,9.478 C36.2040001,9.60866732 36.2413331,9.7439993 36.288,9.884 L35.14,9.884 Z M34.902,6.342 L33.25,6.608 C32.6806638,6.71066718 32.2770012,6.86466564 32.039,7.07 C31.8009988,7.27533436 31.682,7.55999818 31.682,7.924 C31.682,8.2973352 31.7916656,8.60999874 32.011,8.862 C32.2303344,9.11400126 32.5546645,9.24 32.984,9.24 C33.2453346,9.24 33.4926655,9.18866718 33.726,9.086 C33.9593345,8.98333282 34.1623325,8.84100091 34.335,8.659 C34.5076675,8.47699909 34.6453328,8.25766795 34.748,8.001 C34.8506672,7.74433205 34.902,7.46200154 34.902,7.154 L34.902,6.342 Z M37.94,2.996 L38.948,2.996 L39.074,4.34 C39.2420008,3.86399762 39.5033316,3.48833471 39.858,3.213 C40.2126684,2.93766529 40.6466641,2.8 41.16,2.8 C41.701336,2.8 42.1259985,2.95399846 42.434,3.262 C42.7420015,3.57000154 42.9379996,3.94333114 43.022,4.382 C43.1060004,4.16733226 43.2109994,3.96433429 43.337,3.773 C43.4630006,3.58166571 43.6146658,3.41366739 43.792,3.269 C43.9693342,3.12433261 44.1746655,3.01000042 44.408,2.926 C44.6413345,2.84199958 44.9073318,2.8 45.206,2.8 C45.598002,2.8 45.9223321,2.86766599 46.179,3.003 C46.435668,3.13833401 46.6409992,3.3226655 46.795,3.556 C46.9490008,3.7893345 47.0586663,4.06233177 47.124,4.375 C47.1893337,4.68766823 47.222,5.01666494 47.222,5.362 L47.222,9.884 L46.06,9.884 L46.06,5.656 C46.06,5.03999692 45.9503344,4.58033485 45.731,4.277 C45.5116656,3.97366515 45.1920021,3.822 44.772,3.822 C44.3146644,3.822 43.9320015,4.02499797 43.624,4.431 C43.3159985,4.83700203 43.162,5.41799622 43.162,6.174 L43.162,9.884 L42,9.884 L42,5.712 C42,5.06799678 41.8880011,4.59200154 41.664,4.284 C41.4399989,3.97599846 41.1273353,3.822 40.726,3.822 C40.2779978,3.822 39.8953349,4.02966459 39.578,4.445 C39.2606651,4.86033541 39.102,5.45999608 39.102,6.244 L39.102,9.884 L37.94,9.884 L37.94,2.996 Z M49.868,6.706 C49.9146669,7.4993373 50.1176649,8.11299783 50.477,8.547 C50.8363351,8.98100217 51.3379968,9.198 51.982,9.198 C52.7940041,9.198 53.4053313,8.81533716 53.816,8.05 L54.698,8.54 C54.427332,8.99733562 54.0680022,9.37066522 53.62,9.66 C53.1719978,9.94933478 52.6073367,10.094 51.926,10.094 C51.384664,10.094 50.911002,10.0006676 50.505,9.814 C50.098998,9.6273324 49.760668,9.3706683 49.49,9.044 C49.219332,8.7173317 49.016334,8.33466886 48.881,7.896 C48.745666,7.45733114 48.678,6.98600252 48.678,6.482 C48.678,5.98733086 48.7433327,5.51600224 48.874,5.068 C49.0046673,4.61999776 49.2029987,4.22800168 49.469,3.892 C49.7350013,3.55599832 50.0616647,3.29000098 50.449,3.094 C50.8363353,2.89799902 51.2913307,2.8 51.814,2.8 C52.3180025,2.8 52.7566648,2.89566571 53.13,3.087 C53.5033352,3.27833429 53.8136654,3.53499839 54.061,3.857 C54.3083346,4.17900161 54.4949994,4.55233121 54.621,4.977 C54.7470006,5.40166879 54.81,5.85199762 54.81,6.328 C54.81,6.43066718 54.8076667,6.50999972 54.803,6.566 C54.7983333,6.62200028 54.796,6.66866648 54.796,6.706 L49.868,6.706 Z M51.8,3.682 C51.2119971,3.682 50.7570016,3.8919979 50.435,4.312 C50.1129984,4.7320021 49.9286669,5.29666312 49.882,6.006 L53.62,6.006 C53.62,5.71666522 53.5873337,5.43433471 53.522,5.159 C53.4566663,4.88366529 53.3493341,4.63633443 53.2,4.417 C53.0506659,4.19766557 52.8616678,4.02033401 52.633,3.885 C52.4043322,3.74966599 52.1266683,3.682 51.8,3.682 Z M57.106,6.706 C57.1526669,7.4993373 57.3556649,8.11299783 57.715,8.547 C58.0743351,8.98100217 58.5759968,9.198 59.22,9.198 C60.0320041,9.198 60.6433313,8.81533716 61.054,8.05 L61.936,8.54 C61.665332,8.99733562 61.3060022,9.37066522 60.858,9.66 C60.4099978,9.94933478 59.8453367,10.094 59.164,10.094 C58.622664,10.094 58.149002,10.0006676 57.743,9.814 C57.336998,9.6273324 56.998668,9.3706683 56.728,9.044 C56.457332,8.7173317 56.254334,8.33466886 56.119,7.896 C55.983666,7.45733114 55.916,6.98600252 55.916,6.482 C55.916,5.98733086 55.9813327,5.51600224 56.112,5.068 C56.2426673,4.61999776 56.4409987,4.22800168 56.707,3.892 C56.9730013,3.55599832 57.2996647,3.29000098 57.687,3.094 C58.0743353,2.89799902 58.5293307,2.8 59.052,2.8 C59.5560025,2.8 59.9946648,2.89566571 60.368,3.087 C60.7413352,3.27833429 61.0516654,3.53499839 61.299,3.857 C61.5463346,4.17900161 61.7329994,4.55233121 61.859,4.977 C61.9850006,5.40166879 62.048,5.85199762 62.048,6.328 C62.048,6.43066718 62.0456667,6.50999972 62.041,6.566 C62.0363333,6.62200028 62.034,6.66866648 62.034,6.706 L57.106,6.706 Z M59.038,3.682 C58.4499971,3.682 57.9950016,3.8919979 57.673,4.312 C57.3509984,4.7320021 57.1666669,5.29666312 57.12,6.006 L60.858,6.006 C60.858,5.71666522 60.8253337,5.43433471 60.76,5.159 C60.6946663,4.88366529 60.5873341,4.63633443 60.438,4.417 C60.2886659,4.19766557 60.0996678,4.02033401 59.871,3.885 C59.6423322,3.74966599 59.3646683,3.682 59.038,3.682 Z M64.344,6.706 C64.3906669,7.4993373 64.5936649,8.11299783 64.953,8.547 C65.3123351,8.98100217 65.8139968,9.198 66.458,9.198 C67.2700041,9.198 67.8813313,8.81533716 68.292,8.05 L69.174,8.54 C68.903332,8.99733562 68.5440022,9.37066522 68.096,9.66 C67.6479978,9.94933478 67.0833367,10.094 66.402,10.094 C65.860664,10.094 65.387002,10.0006676 64.981,9.814 C64.574998,9.6273324 64.236668,9.3706683 63.966,9.044 C63.695332,8.7173317 63.492334,8.33466886 63.357,7.896 C63.221666,7.45733114 63.154,6.98600252 63.154,6.482 C63.154,5.98733086 63.2193327,5.51600224 63.35,5.068 C63.4806673,4.61999776 63.6789987,4.22800168 63.945,3.892 C64.2110013,3.55599832 64.5376647,3.29000098 64.925,3.094 C65.3123353,2.89799902 65.7673307,2.8 66.29,2.8 C66.7940025,2.8 67.2326648,2.89566571 67.606,3.087 C67.9793352,3.27833429 68.2896654,3.53499839 68.537,3.857 C68.7843346,4.17900161 68.9709994,4.55233121 69.097,4.977 C69.2230006,5.40166879 69.286,5.85199762 69.286,6.328 C69.286,6.43066718 69.2836667,6.50999972 69.279,6.566 C69.2743333,6.62200028 69.272,6.66866648 69.272,6.706 L64.344,6.706 Z M66.276,3.682 C65.6879971,3.682 65.2330016,3.8919979 64.911,4.312 C64.5889984,4.7320021 64.4046669,5.29666312 64.358,6.006 L68.096,6.006 C68.096,5.71666522 68.0633337,5.43433471 67.998,5.159 C67.9326663,4.88366529 67.8253341,4.63633443 67.676,4.417 C67.5266659,4.19766557 67.3376678,4.02033401 67.109,3.885 C66.8803322,3.74966599 66.6026683,3.682 66.276,3.682 Z M70.588,8.512 L71.89,8.512 L71.89,9.884 L70.588,9.884 L70.588,8.512 Z M73.458,8.512 L74.774,8.512 L74.774,9.884 L73.458,9.884 L73.458,8.512 Z M76.328,8.512 L77.644,8.512 L77.644,9.884 L76.328,9.884 L76.328,8.512 Z M78.092,11.396 C78.1573337,11.4146668 78.2529994,11.4356666 78.379,11.459 C78.5050006,11.4823335 78.6193328,11.494 78.722,11.494 C78.992668,11.494 79.1699996,11.4146675 79.254,11.256 C79.3380004,11.0973325 79.38,10.8733348 79.38,10.584 L79.38,2.996 L80.556,2.996 L80.556,10.668 C80.556,10.938668 80.5303336,11.1813323 80.479,11.396 C80.4276664,11.6106677 80.3413339,11.7903326 80.22,11.935 C80.0986661,12.0796674 79.9330011,12.1916663 79.723,12.271 C79.512999,12.3503337 79.2540015,12.39 78.946,12.39 C78.7593324,12.39 78.5820008,12.3760001 78.414,12.348 C78.2459992,12.3199999 78.1013339,12.2780003 77.98,12.222 L78.092,11.396 Z M79.38,0.336 L80.556,0.336 L80.556,1.498 L79.38,1.498 L79.38,0.336 Z M82.348,2.996 L83.51,2.996 L83.51,4.326 C83.5940004,4.12999902 83.7013327,3.9386676 83.832,3.752 C83.9626673,3.5653324 84.1189991,3.4020007 84.301,3.262 C84.4830009,3.1219993 84.6953321,3.01000042 84.938,2.926 C85.1806679,2.84199958 85.4559985,2.8 85.764,2.8 C86.2120022,2.8 86.601665,2.8933324 86.933,3.08 C87.264335,3.2666676 87.5373323,3.5233317 87.752,3.85 C87.9666677,4.1766683 88.1276661,4.55699783 88.235,4.991 C88.3423339,5.42500217 88.396,5.89399748 88.396,6.398 C88.396,6.99533632 88.3260007,7.52266438 88.186,7.98 C88.0459993,8.43733562 87.8500013,8.81999846 87.598,9.128 C87.3459987,9.43600154 87.0520017,9.66933254 86.716,9.828 C86.3799983,9.98666746 86.016002,10.066 85.624,10.066 C85.1106641,10.066 84.6696685,9.94000126 84.301,9.688 C83.9323315,9.43599874 83.6686675,9.1233352 83.51,8.75 L83.51,12.306 L82.348,12.306 L82.348,2.996 Z M83.51,6.482 C83.51,6.67800098 83.5169999,6.85766585 83.531,7.021 C83.5450001,7.18433415 83.5613332,7.32199944 83.58,7.434 C83.6173335,7.65800112 83.6873328,7.87266564 83.79,8.078 C83.8926672,8.28333436 84.0186659,8.46299923 84.168,8.617 C84.3173341,8.77100077 84.4923323,8.8946662 84.693,8.988 C84.8936677,9.0813338 85.1153321,9.128 85.358,9.128 C85.6753349,9.128 85.9483322,9.05333408 86.177,8.904 C86.4056678,8.75466592 86.5946659,8.55400126 86.744,8.302 C86.8933341,8.04999874 87.0029997,7.76300161 87.073,7.441 C87.1430004,7.11899839 87.178,6.78533506 87.178,6.44 C87.178,6.09466494 87.1453337,5.76100161 87.08,5.439 C87.0146663,5.11699839 86.9096674,4.83233457 86.765,4.585 C86.6203326,4.33766543 86.4313345,4.13933408 86.198,3.99 C85.9646655,3.84066592 85.6846683,3.766 85.358,3.766 C85.1059987,3.766 84.8750011,3.8126662 84.665,3.906 C84.454999,3.9993338 84.2753341,4.12533254 84.126,4.284 C83.9766659,4.44266746 83.8530005,4.62466564 83.755,4.83 C83.6569995,5.03533436 83.5940001,5.24999888 83.566,5.474 C83.5473332,5.5673338 83.5333334,5.69566585 83.524,5.859 C83.5146666,6.02233415 83.51,6.21133226 83.51,6.426 L83.51,6.482 Z M90.44,10.71 C90.710668,10.9713346 91.0349981,11.1789992 91.413,11.333 C91.7910019,11.4870008 92.1946645,11.564 92.624,11.564 C92.9786684,11.564 93.2679989,11.5103339 93.492,11.403 C93.7160011,11.2956661 93.8933327,11.1486676 94.024,10.962 C94.1546673,10.7753324 94.2456664,10.5630012 94.297,10.325 C94.3483336,10.0869988 94.374,9.83266802 94.374,9.562 L94.374,8.288 C94.1966658,8.7080021 93.9306684,9.04633205 93.576,9.303 C93.2213316,9.55966795 92.7640028,9.688 92.204,9.688 C91.8026647,9.688 91.4386683,9.61100077 91.112,9.457 C90.7853317,9.30299923 90.5053345,9.08133478 90.272,8.792 C90.0386655,8.50266522 89.8590006,8.1480021 89.733,7.728 C89.6069994,7.3079979 89.544,6.83666928 89.544,6.314 C89.544,5.8006641 89.6069994,5.32933548 89.733,4.9 C89.8590006,4.47066452 90.0409988,4.10200154 90.279,3.794 C90.5170012,3.48599846 90.8063316,3.24566753 91.147,3.073 C91.4876684,2.90033247 91.8679979,2.814 92.288,2.814 C92.8386694,2.814 93.2959982,2.95166529 93.66,3.227 C94.0240018,3.50233471 94.2853325,3.85466452 94.444,4.284 L94.64,2.996 L95.536,2.996 L95.536,9.534 C95.536,9.92600196 95.4893338,10.2969983 95.396,10.647 C95.3026662,10.9970018 95.1440011,11.307332 94.92,11.578 C94.6959989,11.848668 94.3973352,12.0633325 94.024,12.222 C93.6506648,12.3806675 93.1840028,12.46 92.624,12.46 C92.0173303,12.46 91.4736691,12.3736675 90.993,12.201 C90.5123309,12.0283325 90.1086683,11.8113346 89.782,11.55 L90.44,10.71 Z M94.374,6.314 C94.374,6.15533254 94.3716667,6.00366739 94.367,5.859 C94.3623333,5.71433261 94.3506668,5.60466704 94.332,5.53 C94.2946665,5.30599888 94.2340004,5.08666774 94.15,4.872 C94.0659996,4.65733226 93.9516674,4.47066746 93.807,4.312 C93.6623326,4.15333254 93.4850011,4.02500049 93.275,3.927 C93.064999,3.82899951 92.8200014,3.78 92.54,3.78 C92.2319985,3.78 91.9660011,3.84533268 91.742,3.976 C91.5179989,4.10666732 91.3336674,4.28399888 91.189,4.508 C91.0443326,4.73200112 90.9370004,4.99799846 90.867,5.306 C90.7969997,5.61400154 90.762,5.94066494 90.762,6.286 C90.762,6.59400154 90.7946663,6.89966515 90.86,7.203 C90.9253337,7.50633485 91.0279993,7.7746655 91.168,8.008 C91.3080007,8.2413345 91.4923322,8.43033261 91.721,8.575 C91.9496678,8.71966739 92.2273317,8.792 92.554,8.792 C93.0113356,8.792 93.3799986,8.66366795 93.66,8.407 C93.9400014,8.15033205 94.1359994,7.82600196 94.248,7.434 C94.2946669,7.30333268 94.3273332,7.14000098 94.346,6.944 C94.3646668,6.74799902 94.374,6.56133422 94.374,6.384 L94.374,6.314 Z" id="File-nameee…jpg"></path>
                        </g>
                        <g id="X" transform="translate(151.000000, 18.000000)" fill="#4C5358">
                            <path d="M11.8341014,10.8940092 L10.9493088,11.7788018 C10.8387097,11.8894009 10.6728111,12 10.5069124,12 C10.3410138,12 10.1751152,11.9447005 10.0645161,11.7788018 L0.221198157,1.93548387 C0.110599078,1.82488479 0,1.65898618 0,1.49308756 C0,1.32718894 0.110599078,1.21658986 0.221198157,1.10599078 L1.10599078,0.221198157 C1.21658986,0.0552995392 1.38248848,0 1.5483871,0 C1.71428571,0 1.88018433,0.0552995392 1.99078341,0.221198157 L11.7788018,10.0092166 C11.8894009,10.1198157 12,10.2857143 12,10.4516129 C12,10.6175115 11.9447005,10.7834101 11.8341014,10.8940092" id="Fill-1"></path>
                            <path d="M10.8990826,0.165898618 L11.7798165,1.10599078 C11.8899083,1.21658986 12,1.38248848 12,1.5483871 C11.9449541,1.76958525 11.8899083,1.88018433 11.7798165,1.99078341 L1.98165138,11.7788018 C1.87155963,11.8894009 1.70642202,12 1.5412844,12 C1.37614679,12 1.21100917,11.9447005 1.10091743,11.7788018 L0.220183486,10.8940092 C0.110091743,10.7834101 0,10.6175115 0,10.4516129 C0,10.2857143 0.0550458716,10.1198157 0.220183486,10.0092166 L10.0183486,0.221198157 C10.1284404,0.110599078 10.293578,0 10.4587156,0 C10.5688073,0.0552995392 10.7889908,0.0552995392 10.8990826,0.165898618" id="Fill-3"></path>
                        </g>
                        <g id="Placeholder-image-color-(1)" transform="translate(11.000000, 13.000000)" fill-rule="nonzero" fill="#F1F1F1">
                            <polyline id="Shape" points="20.3333333 17.3258536 16.202506 8 12.9578195 13.5796108 11.1048773 10.3929635 8.59512852 14.7087748 7.22699221 12.3568114 4.33333333 17.3333333"></polyline>
                            <circle id="Oval" cx="6.66666667" cy="9.33333333" r="1.33333333"></circle>
                            <path d="M22.290119,0 L1.71071752,0 C0.766892616,0 0,0.791406595 0,1.77213235 L0,20.8974514 C0,21.8738015 0.766892616,22.6666667 1.71071752,22.6666667 L9.53257569,22.6666667 L14.4674236,22.6666667 L22.2890027,22.6666667 C23.2328276,22.6666667 23.9999993,21.8735098 23.9999993,20.8974514 L23.9999993,12.7818145 L23.9999993,10.5146519 L23.9999993,1.77213235 C24.0008365,0.791406595 23.234223,0 22.290119,0 Z M2.09416383,20.2696936 L2.09416383,2.39026378 L21.9052773,2.39026378 L21.9052773,20.2696936 L2.09416383,20.2696936 Z" id="Shape"></path>
                        </g>
                    </g>
                </g>
            </g>
        </g>
    </g>
</svg>