<?xml version="1.0" encoding="UTF-8"?>
<svg width="270px" height="36px" viewBox="0 0 270 36" version="1.1" xmlns="http://www.w3.org/2000/svg" xmlns:xlink="http://www.w3.org/1999/xlink">
    <!-- Generator: Sketch 47 (45396) - http://www.bohemiancoding.com/sketch -->
    <title>Empty state</title>
    <desc>Created with Sketch.</desc>
    <defs>
        <rect id="path-1" x="0" y="0" width="99" height="36" rx="3"></rect>
    </defs>
    <g id="Page-1" stroke="none" stroke-width="1" fill="none" fill-rule="evenodd">
        <g id="Buttons-Usage-extra-large-1200" transform="translate(-361.000000, -1327.000000)">
            <g id="Group-4" transform="translate(299.000000, 1263.000000)">
                <g id="Empty-state" transform="translate(62.000000, 64.000000)">
                    <path d="M116.12,11.704 L117.8,11.704 C118.792005,13.4213419 119.735996,15.0479923 120.632,16.584 C121.528004,18.1200077 122.381329,19.6186594 123.192,21.08 C123.149333,19.479992 123.130667,17.909341 123.136,16.368 C123.141333,14.826659 123.138667,13.2720078 123.128,11.704 L124.488,11.704 L124.488,23 L122.824,23 C122.365331,22.2106627 121.898669,21.4053374 121.424,20.584 C120.949331,19.7626626 120.477336,18.9493374 120.008,18.144 C119.538664,17.3386626 119.085336,16.5520038 118.648,15.784 C118.210664,15.0159962 117.805335,14.2960034 117.432,13.624 C117.464,15.2346747 117.48,16.8079923 117.48,18.344 C117.48,19.8800077 117.485333,21.4319922 117.496,23 L116.12,23 L116.12,11.704 Z M129.912,23.24 C129.314664,23.24 128.789336,23.1306678 128.336,22.912 C127.882664,22.6933322 127.504002,22.3946686 127.2,22.016 C126.895998,21.6373314 126.669334,21.1946692 126.52,20.688 C126.370666,20.1813308 126.296,19.6346696 126.296,19.048 C126.296,18.4613304 126.373333,17.9173358 126.528,17.416 C126.682667,16.9146642 126.911998,16.4773352 127.216,16.104 C127.520002,15.7306648 127.898664,15.4373344 128.352,15.224 C128.805336,15.0106656 129.32533,14.904 129.912,14.904 C130.49867,14.904 131.018664,15.0106656 131.472,15.224 C131.925336,15.4373344 132.306665,15.7279982 132.616,16.096 C132.925335,16.4640018 133.157333,16.9013308 133.312,17.408 C133.466667,17.9146692 133.544,18.4613304 133.544,19.048 C133.544,19.6346696 133.466667,20.1813308 133.312,20.688 C133.157333,21.1946692 132.925335,21.6373314 132.616,22.016 C132.306665,22.3946686 131.925336,22.6933322 131.472,22.912 C131.018664,23.1306678 130.49867,23.24 129.912,23.24 Z M129.944,22.2 C130.306668,22.2 130.626665,22.1200008 130.904,21.96 C131.181335,21.7999992 131.410666,21.5786681 131.592,21.296 C131.773334,21.0133319 131.912,20.6800019 132.008,20.296 C132.104,19.9119981 132.152,19.4960022 132.152,19.048 C132.152,18.5999978 132.104,18.1866686 132.008,17.808 C131.912,17.4293314 131.768001,17.1013347 131.576,16.824 C131.383999,16.5466653 131.149335,16.3306674 130.872,16.176 C130.594665,16.0213326 130.274668,15.944 129.912,15.944 C129.538665,15.944 129.213335,16.0213326 128.936,16.176 C128.658665,16.3306674 128.429334,16.5466653 128.248,16.824 C128.066666,17.1013347 127.928,17.4293314 127.832,17.808 C127.736,18.1866686 127.688,18.5999978 127.688,19.048 C127.688,19.4960022 127.736,19.9119981 127.832,20.296 C127.928,20.6800019 128.069332,21.0133319 128.256,21.296 C128.442668,21.5786681 128.677332,21.7999992 128.96,21.96 C129.242668,22.1200008 129.570665,22.2 129.944,22.2 Z M138.84,12.072 L140.168,12.072 L140.168,13.4 L138.84,13.4 L138.84,12.072 Z M138.84,15.128 L140.168,15.128 L140.168,23 L138.84,23 L138.84,15.128 Z M142.216,15.128 L143.368,15.128 L143.512,16.664 C143.704001,16.1199973 144.002665,15.6906682 144.408,15.376 C144.813335,15.0613318 145.30933,14.904 145.896,14.904 C146.51467,14.904 146.999998,15.0799982 147.352,15.432 C147.704002,15.7840018 147.928,16.2106642 148.024,16.712 C148.12,16.4666654 148.239999,16.2346678 148.384,16.016 C148.528001,15.7973322 148.701332,15.6053342 148.904,15.44 C149.106668,15.2746658 149.341332,15.1440005 149.608,15.048 C149.874668,14.9519995 150.178665,14.904 150.52,14.904 C150.968002,14.904 151.338665,14.9813326 151.632,15.136 C151.925335,15.2906674 152.159999,15.501332 152.336,15.768 C152.512001,16.034668 152.637333,16.3466649 152.712,16.704 C152.786667,17.0613351 152.824,17.4373314 152.824,17.832 L152.824,23 L151.496,23 L151.496,18.168 C151.496,17.4639965 151.370668,16.9386684 151.12,16.592 C150.869332,16.2453316 150.504002,16.072 150.024,16.072 C149.501331,16.072 149.064002,16.3039977 148.712,16.768 C148.359998,17.2320023 148.184,17.8959957 148.184,18.76 L148.184,23 L146.856,23 L146.856,18.232 C146.856,17.4959963 146.728001,16.9520018 146.472,16.6 C146.215999,16.2479982 145.858669,16.072 145.4,16.072 C144.887997,16.072 144.450668,16.309331 144.088,16.784 C143.725332,17.258669 143.544,17.9439955 143.544,18.84 L143.544,23 L142.216,23 L142.216,15.128 Z M159.784,23 C159.666666,22.6159981 159.597333,22.157336 159.576,21.624 C159.362666,22.1146691 159.034669,22.5066652 158.592,22.8 C158.149331,23.0933348 157.624003,23.24 157.016,23.24 C156.247996,23.24 155.640002,23.0213355 155.192,22.584 C154.743998,22.1466645 154.52,21.5600037 154.52,20.824 C154.52,20.4079979 154.594666,20.0586681 154.744,19.776 C154.893334,19.4933319 155.101332,19.2586676 155.368,19.072 C155.634668,18.8853324 155.949332,18.7386672 156.312,18.632 C156.674668,18.5253328 157.069331,18.4400003 157.496,18.376 L159.512,18.072 L159.512,17.576 C159.512,17.2239982 159.469334,16.9413344 159.384,16.728 C159.298666,16.5146656 159.181334,16.3493339 159.032,16.232 C158.882666,16.1146661 158.712001,16.0373335 158.52,16 C158.327999,15.9626665 158.125334,15.944 157.912,15.944 C157.303997,15.944 156.802669,16.0559989 156.408,16.28 C156.013331,16.5040011 155.682668,16.786665 155.416,17.128 L154.728,16.264 C155.037335,15.8906648 155.466664,15.570668 156.016,15.304 C156.565336,15.037332 157.245329,14.904 158.056,14.904 C159.037338,14.904 159.749331,15.1226645 160.192,15.56 C160.634669,15.9973355 160.856,16.7013285 160.856,17.672 L160.856,20.856 C160.856,21.1120013 160.858667,21.335999 160.864,21.528 C160.869333,21.720001 160.88,21.8986658 160.896,22.064 C160.912,22.2293342 160.936,22.3866659 160.968,22.536 C161,22.6853341 161.042666,22.8399992 161.096,23 L159.784,23 Z M159.512,18.952 L157.624,19.256 C156.97333,19.3733339 156.512001,19.5493322 156.24,19.784 C155.967999,20.0186678 155.832,20.3439979 155.832,20.76 C155.832,21.1866688 155.957332,21.5439986 156.208,21.832 C156.458668,22.1200014 156.829331,22.264 157.32,22.264 C157.618668,22.264 157.901332,22.2053339 158.168,22.088 C158.434668,21.9706661 158.666666,21.808001 158.864,21.6 C159.061334,21.391999 159.218666,21.1413348 159.336,20.848 C159.453334,20.5546652 159.512,20.2320018 159.512,19.88 L159.512,18.952 Z M163.624,23.944 C163.933335,24.2426682 164.303998,24.4799991 164.736,24.656 C165.168002,24.8320009 165.629331,24.92 166.12,24.92 C166.525335,24.92 166.855999,24.8586673 167.112,24.736 C167.368001,24.6133327 167.570666,24.4453344 167.72,24.232 C167.869334,24.0186656 167.973333,23.7760014 168.032,23.504 C168.090667,23.2319986 168.12,22.9413349 168.12,22.632 L168.12,21.176 C167.917332,21.6560024 167.613335,22.0426652 167.208,22.336 C166.802665,22.6293348 166.280003,22.776 165.64,22.776 C165.181331,22.776 164.765335,22.6880009 164.392,22.512 C164.018665,22.3359991 163.698668,22.0826683 163.432,21.752 C163.165332,21.4213317 162.960001,21.0160024 162.816,20.536 C162.671999,20.0559976 162.6,19.5173363 162.6,18.92 C162.6,18.3333304 162.671999,17.7946691 162.816,17.304 C162.960001,16.8133309 163.167999,16.3920018 163.44,16.04 C163.712001,15.6879982 164.042665,15.4133343 164.432,15.216 C164.821335,15.0186657 165.255998,14.92 165.736,14.92 C166.365336,14.92 166.887998,15.0773318 167.304,15.392 C167.720002,15.7066682 168.018666,16.1093309 168.2,16.6 L168.424,15.128 L169.448,15.128 L169.448,22.6 C169.448,23.0480022 169.394667,23.471998 169.288,23.872 C169.181333,24.272002 169.000001,24.6266651 168.744,24.936 C168.487999,25.2453349 168.146669,25.4906658 167.72,25.672 C167.293331,25.8533342 166.760003,25.944 166.12,25.944 C165.426663,25.944 164.805336,25.8453343 164.256,25.648 C163.706664,25.4506657 163.245335,25.2026682 162.872,24.904 L163.624,23.944 Z M168.12,18.92 C168.12,18.7386658 168.117333,18.5653342 168.112,18.4 C168.106667,18.2346658 168.093333,18.1093338 168.072,18.024 C168.029333,17.7679987 167.96,17.5173346 167.864,17.272 C167.768,17.0266654 167.637334,16.8133342 167.472,16.632 C167.306666,16.4506658 167.104001,16.3040006 166.864,16.192 C166.623999,16.0799994 166.344002,16.024 166.024,16.024 C165.671998,16.024 165.368001,16.0986659 165.112,16.248 C164.855999,16.3973341 164.645334,16.5999987 164.48,16.856 C164.314666,17.1120013 164.192,17.4159982 164.112,17.768 C164.032,18.1200018 163.992,18.4933314 163.992,18.888 C163.992,19.2400018 164.029333,19.5893316 164.104,19.936 C164.178667,20.2826684 164.295999,20.589332 164.456,20.856 C164.616001,21.122668 164.826665,21.3386658 165.088,21.504 C165.349335,21.6693342 165.666665,21.752 166.04,21.752 C166.562669,21.752 166.983998,21.6053348 167.304,21.312 C167.624002,21.0186652 167.847999,20.6480022 167.976,20.2 C168.029334,20.0506659 168.066667,19.8640011 168.088,19.64 C168.109333,19.4159989 168.12,19.2026677 168.12,19 L168.12,18.92 Z M172.504,19.368 C172.557334,20.2746712 172.789331,20.9759975 173.2,21.472 C173.610669,21.9680025 174.183996,22.216 174.92,22.216 C175.848005,22.216 176.546664,21.778671 177.016,20.904 L178.024,21.464 C177.714665,21.9866693 177.304003,22.4133317 176.792,22.744 C176.279997,23.0746683 175.634671,23.24 174.856,23.24 C174.23733,23.24 173.696002,23.1333344 173.232,22.92 C172.767998,22.7066656 172.381335,22.4133352 172.072,22.04 C171.762665,21.6666648 171.530667,21.2293358 171.376,20.728 C171.221333,20.2266642 171.144,19.6880029 171.144,19.112 C171.144,18.5466638 171.218666,18.0080026 171.368,17.496 C171.517334,16.9839974 171.743998,16.5360019 172.048,16.152 C172.352002,15.7679981 172.725331,15.4640011 173.168,15.24 C173.610669,15.0159989 174.130664,14.904 174.728,14.904 C175.304003,14.904 175.805331,15.0133322 176.232,15.232 C176.658669,15.4506678 177.013332,15.7439982 177.296,16.112 C177.578668,16.4800018 177.791999,16.9066642 177.936,17.392 C178.080001,17.8773358 178.152,18.3919973 178.152,18.936 C178.152,19.0533339 178.149333,19.1439997 178.144,19.208 C178.138667,19.2720003 178.136,19.3253331 178.136,19.368 L172.504,19.368 Z M174.712,15.912 C174.039997,15.912 173.520002,16.1519976 173.152,16.632 C172.783998,17.1120024 172.573334,17.7573293 172.52,18.568 L176.792,18.568 C176.792,18.2373317 176.754667,17.9146682 176.68,17.6 C176.605333,17.2853318 176.482668,17.0026679 176.312,16.752 C176.141332,16.5013321 175.925335,16.2986674 175.664,16.144 C175.402665,15.9893326 175.085335,15.912 174.712,15.912 Z M183.336,15.128 L184.68,15.128 L184.68,19.896 C184.68,20.6426704 184.818665,21.1893316 185.096,21.536 C185.373335,21.8826684 185.762664,22.056 186.264,22.056 C186.904003,22.056 187.402665,21.8026692 187.76,21.296 C188.117335,20.7893308 188.296,20.1146709 188.296,19.272 L188.296,15.128 L189.624,15.128 L189.624,23 L188.376,23 L188.376,21.4 C188.28,21.6453346 188.162667,21.8773322 188.024,22.096 C187.885333,22.3146678 187.714668,22.5066658 187.512,22.672 C187.309332,22.8373342 187.074668,22.9679995 186.808,23.064 C186.541332,23.1600005 186.226668,23.208 185.864,23.208 C185.010662,23.208 184.376002,22.9493359 183.96,22.432 C183.543998,21.9146641 183.336,21.1813381 183.336,20.232 L183.336,15.128 Z M191.672,15.128 L193,15.128 L193,16.648 C193.096,16.4239989 193.218666,16.2053344 193.368,15.992 C193.517334,15.7786656 193.695999,15.5920008 193.904,15.432 C194.112001,15.2719992 194.354665,15.1440005 194.632,15.048 C194.909335,14.9519995 195.223998,14.904 195.576,14.904 C196.088003,14.904 196.533331,15.0106656 196.912,15.224 C197.290669,15.4373344 197.602665,15.7306648 197.848,16.104 C198.093335,16.4773352 198.277333,16.9119975 198.4,17.408 C198.522667,17.9040025 198.584,18.4399971 198.584,19.016 C198.584,19.6986701 198.504001,20.3013307 198.344,20.824 C198.183999,21.3466693 197.960001,21.7839982 197.672,22.136 C197.383999,22.4880018 197.048002,22.7546658 196.664,22.936 C196.279998,23.1173342 195.864002,23.208 195.416,23.208 C194.82933,23.208 194.325335,23.0640014 193.904,22.776 C193.482665,22.4879986 193.181334,22.1306688 193,21.704 L193,25.768 L191.672,25.768 L191.672,15.128 Z M193,19.112 C193,19.3360011 193.008,19.5413324 193.024,19.728 C193.04,19.9146676 193.058667,20.0719994 193.08,20.2 C193.122667,20.4560013 193.202666,20.7013322 193.32,20.936 C193.437334,21.1706678 193.581332,21.3759991 193.752,21.552 C193.922668,21.7280009 194.122666,21.8693328 194.352,21.976 C194.581334,22.0826672 194.834665,22.136 195.112,22.136 C195.474668,22.136 195.786665,22.0506675 196.048,21.88 C196.309335,21.7093325 196.525332,21.4800014 196.696,21.192 C196.866668,20.9039986 196.992,20.5760018 197.072,20.208 C197.152,19.8399982 197.192,19.4586686 197.192,19.064 C197.192,18.6693314 197.154667,18.2880018 197.08,17.92 C197.005333,17.5519982 196.885334,17.2266681 196.72,16.944 C196.554666,16.6613319 196.338668,16.4346675 196.072,16.264 C195.805332,16.0933325 195.485335,16.008 195.112,16.008 C194.823999,16.008 194.560001,16.0613328 194.32,16.168 C194.079999,16.2746672 193.874668,16.4186658 193.704,16.6 C193.533332,16.7813342 193.392001,16.9893322 193.28,17.224 C193.167999,17.4586678 193.096,17.7039987 193.064,17.96 C193.042667,18.0666672 193.026667,18.2133324 193.016,18.4 C193.005333,18.5866676 193,18.8026654 193,19.048 L193,19.112 Z M200.28,11.704 L201.608,11.704 L201.608,23 L200.28,23 L200.28,11.704 Z M206.92,23.24 C206.322664,23.24 205.797336,23.1306678 205.344,22.912 C204.890664,22.6933322 204.512002,22.3946686 204.208,22.016 C203.903998,21.6373314 203.677334,21.1946692 203.528,20.688 C203.378666,20.1813308 203.304,19.6346696 203.304,19.048 C203.304,18.4613304 203.381333,17.9173358 203.536,17.416 C203.690667,16.9146642 203.919998,16.4773352 204.224,16.104 C204.528002,15.7306648 204.906664,15.4373344 205.36,15.224 C205.813336,15.0106656 206.33333,14.904 206.92,14.904 C207.50667,14.904 208.026664,15.0106656 208.48,15.224 C208.933336,15.4373344 209.314665,15.7279982 209.624,16.096 C209.933335,16.4640018 210.165333,16.9013308 210.32,17.408 C210.474667,17.9146692 210.552,18.4613304 210.552,19.048 C210.552,19.6346696 210.474667,20.1813308 210.32,20.688 C210.165333,21.1946692 209.933335,21.6373314 209.624,22.016 C209.314665,22.3946686 208.933336,22.6933322 208.48,22.912 C208.026664,23.1306678 207.50667,23.24 206.92,23.24 Z M206.952,22.2 C207.314668,22.2 207.634665,22.1200008 207.912,21.96 C208.189335,21.7999992 208.418666,21.5786681 208.6,21.296 C208.781334,21.0133319 208.92,20.6800019 209.016,20.296 C209.112,19.9119981 209.16,19.4960022 209.16,19.048 C209.16,18.5999978 209.112,18.1866686 209.016,17.808 C208.92,17.4293314 208.776001,17.1013347 208.584,16.824 C208.391999,16.5466653 208.157335,16.3306674 207.88,16.176 C207.602665,16.0213326 207.282668,15.944 206.92,15.944 C206.546665,15.944 206.221335,16.0213326 205.944,16.176 C205.666665,16.3306674 205.437334,16.5466653 205.256,16.824 C205.074666,17.1013347 204.936,17.4293314 204.84,17.808 C204.744,18.1866686 204.696,18.5999978 204.696,19.048 C204.696,19.4960022 204.744,19.9119981 204.84,20.296 C204.936,20.6800019 205.077332,21.0133319 205.264,21.296 C205.450668,21.5786681 205.685332,21.7999992 205.968,21.96 C206.250668,22.1200008 206.578665,22.2 206.952,22.2 Z M217.192,23 C217.074666,22.6159981 217.005333,22.157336 216.984,21.624 C216.770666,22.1146691 216.442669,22.5066652 216,22.8 C215.557331,23.0933348 215.032003,23.24 214.424,23.24 C213.655996,23.24 213.048002,23.0213355 212.6,22.584 C212.151998,22.1466645 211.928,21.5600037 211.928,20.824 C211.928,20.4079979 212.002666,20.0586681 212.152,19.776 C212.301334,19.4933319 212.509332,19.2586676 212.776,19.072 C213.042668,18.8853324 213.357332,18.7386672 213.72,18.632 C214.082668,18.5253328 214.477331,18.4400003 214.904,18.376 L216.92,18.072 L216.92,17.576 C216.92,17.2239982 216.877334,16.9413344 216.792,16.728 C216.706666,16.5146656 216.589334,16.3493339 216.44,16.232 C216.290666,16.1146661 216.120001,16.0373335 215.928,16 C215.735999,15.9626665 215.533334,15.944 215.32,15.944 C214.711997,15.944 214.210669,16.0559989 213.816,16.28 C213.421331,16.5040011 213.090668,16.786665 212.824,17.128 L212.136,16.264 C212.445335,15.8906648 212.874664,15.570668 213.424,15.304 C213.973336,15.037332 214.653329,14.904 215.464,14.904 C216.445338,14.904 217.157331,15.1226645 217.6,15.56 C218.042669,15.9973355 218.264,16.7013285 218.264,17.672 L218.264,20.856 C218.264,21.1120013 218.266667,21.335999 218.272,21.528 C218.277333,21.720001 218.288,21.8986658 218.304,22.064 C218.32,22.2293342 218.344,22.3866659 218.376,22.536 C218.408,22.6853341 218.450666,22.8399992 218.504,23 L217.192,23 Z M216.92,18.952 L215.032,19.256 C214.38133,19.3733339 213.920001,19.5493322 213.648,19.784 C213.375999,20.0186678 213.24,20.3439979 213.24,20.76 C213.24,21.1866688 213.365332,21.5439986 213.616,21.832 C213.866668,22.1200014 214.237331,22.264 214.728,22.264 C215.026668,22.264 215.309332,22.2053339 215.576,22.088 C215.842668,21.9706661 216.074666,21.808001 216.272,21.6 C216.469334,21.391999 216.626666,21.1413348 216.744,20.848 C216.861334,20.5546652 216.92,20.2320018 216.92,19.88 L216.92,18.952 Z M225.688,21.464 C225.474666,21.997336 225.160002,22.4186651 224.744,22.728 C224.327998,23.0373349 223.81067,23.192 223.192,23.192 C222.701331,23.192 222.261335,23.0906677 221.872,22.888 C221.482665,22.6853323 221.152001,22.4026685 220.88,22.04 C220.607999,21.6773315 220.400001,21.2400026 220.256,20.728 C220.111999,20.2159974 220.04,19.6506698 220.04,19.032 C220.04,18.3919968 220.114666,17.8186692 220.264,17.312 C220.413334,16.8053308 220.626665,16.3760018 220.904,16.024 C221.181335,15.6719982 221.514665,15.400001 221.904,15.208 C222.293335,15.015999 222.722664,14.92 223.192,14.92 C223.832003,14.92 224.354665,15.0719985 224.76,15.376 C225.165335,15.6800015 225.453332,16.0453312 225.624,16.472 L225.624,11.704 L226.968,11.704 L226.968,23 L225.688,23 L225.688,21.464 Z M225.624,19.016 C225.624,18.6853317 225.616,18.4266676 225.6,18.24 C225.584,18.0533324 225.565333,17.9013339 225.544,17.784 C225.490666,17.5493322 225.410667,17.3253344 225.304,17.112 C225.197333,16.8986656 225.061334,16.7093342 224.896,16.544 C224.730666,16.3786658 224.536001,16.2480005 224.312,16.152 C224.087999,16.0559995 223.832001,16.008 223.544,16.008 C223.181332,16.008 222.869335,16.0879992 222.608,16.248 C222.346665,16.4080008 222.128001,16.6239986 221.952,16.896 C221.775999,17.1680014 221.645334,17.4879982 221.56,17.856 C221.474666,18.2240018 221.432,18.6159979 221.432,19.032 C221.432,19.4800022 221.48,19.8933314 221.576,20.272 C221.672,20.6506686 221.810666,20.9759986 221.992,21.248 C222.173334,21.5200014 222.397332,21.7333326 222.664,21.888 C222.930668,22.0426674 223.234665,22.12 223.576,22.12 C223.842668,22.12 224.085332,22.0720005 224.304,21.976 C224.522668,21.8799995 224.714666,21.7466675 224.88,21.576 C225.045334,21.4053325 225.181333,21.2106678 225.288,20.992 C225.394667,20.7733322 225.474666,20.5413346 225.528,20.296 C225.592,19.9973318 225.624,19.5973358 225.624,19.096 L225.624,19.016 Z M230.008,19.368 C230.061334,20.2746712 230.293331,20.9759975 230.704,21.472 C231.114669,21.9680025 231.687996,22.216 232.424,22.216 C233.352005,22.216 234.050664,21.778671 234.52,20.904 L235.528,21.464 C235.218665,21.9866693 234.808003,22.4133317 234.296,22.744 C233.783997,23.0746683 233.138671,23.24 232.36,23.24 C231.74133,23.24 231.200002,23.1333344 230.736,22.92 C230.271998,22.7066656 229.885335,22.4133352 229.576,22.04 C229.266665,21.6666648 229.034667,21.2293358 228.88,20.728 C228.725333,20.2266642 228.648,19.6880029 228.648,19.112 C228.648,18.5466638 228.722666,18.0080026 228.872,17.496 C229.021334,16.9839974 229.247998,16.5360019 229.552,16.152 C229.856002,15.7679981 230.229331,15.4640011 230.672,15.24 C231.114669,15.0159989 231.634664,14.904 232.232,14.904 C232.808003,14.904 233.309331,15.0133322 233.736,15.232 C234.162669,15.4506678 234.517332,15.7439982 234.8,16.112 C235.082668,16.4800018 235.295999,16.9066642 235.44,17.392 C235.584001,17.8773358 235.656,18.3919973 235.656,18.936 C235.656,19.0533339 235.653333,19.1439997 235.648,19.208 C235.642667,19.2720003 235.64,19.3253331 235.64,19.368 L230.008,19.368 Z M232.216,15.912 C231.543997,15.912 231.024002,16.1519976 230.656,16.632 C230.287998,17.1120024 230.077334,17.7573293 230.024,18.568 L234.296,18.568 C234.296,18.2373317 234.258667,17.9146682 234.184,17.6 C234.109333,17.2853318 233.986668,17.0026679 233.816,16.752 C233.645332,16.5013321 233.429335,16.2986674 233.168,16.144 C232.906665,15.9893326 232.589335,15.912 232.216,15.912 Z M242.568,21.464 C242.354666,21.997336 242.040002,22.4186651 241.624,22.728 C241.207998,23.0373349 240.69067,23.192 240.072,23.192 C239.581331,23.192 239.141335,23.0906677 238.752,22.888 C238.362665,22.6853323 238.032001,22.4026685 237.76,22.04 C237.487999,21.6773315 237.280001,21.2400026 237.136,20.728 C236.991999,20.2159974 236.92,19.6506698 236.92,19.032 C236.92,18.3919968 236.994666,17.8186692 237.144,17.312 C237.293334,16.8053308 237.506665,16.3760018 237.784,16.024 C238.061335,15.6719982 238.394665,15.400001 238.784,15.208 C239.173335,15.015999 239.602664,14.92 240.072,14.92 C240.712003,14.92 241.234665,15.0719985 241.64,15.376 C242.045335,15.6800015 242.333332,16.0453312 242.504,16.472 L242.504,11.704 L243.848,11.704 L243.848,23 L242.568,23 L242.568,21.464 Z M242.504,19.016 C242.504,18.6853317 242.496,18.4266676 242.48,18.24 C242.464,18.0533324 242.445333,17.9013339 242.424,17.784 C242.370666,17.5493322 242.290667,17.3253344 242.184,17.112 C242.077333,16.8986656 241.941334,16.7093342 241.776,16.544 C241.610666,16.3786658 241.416001,16.2480005 241.192,16.152 C240.967999,16.0559995 240.712001,16.008 240.424,16.008 C240.061332,16.008 239.749335,16.0879992 239.488,16.248 C239.226665,16.4080008 239.008001,16.6239986 238.832,16.896 C238.655999,17.1680014 238.525334,17.4879982 238.44,17.856 C238.354666,18.2240018 238.312,18.6159979 238.312,19.032 C238.312,19.4800022 238.36,19.8933314 238.456,20.272 C238.552,20.6506686 238.690666,20.9759986 238.872,21.248 C239.053334,21.5200014 239.277332,21.7333326 239.544,21.888 C239.810668,22.0426674 240.114665,22.12 240.456,22.12 C240.722668,22.12 240.965332,22.0720005 241.184,21.976 C241.402668,21.8799995 241.594666,21.7466675 241.76,21.576 C241.925334,21.4053325 242.061333,21.2106678 242.168,20.992 C242.274667,20.7733322 242.354666,20.5413346 242.408,20.296 C242.472,19.9973318 242.504,19.5973358 242.504,19.096 L242.504,19.016 Z M249.304,24.68 C249.421334,24.7226669 249.554666,24.7599998 249.704,24.792 C249.853334,24.8240002 250.007999,24.84 250.168,24.84 C250.338668,24.84 250.485333,24.8160002 250.608,24.768 C250.730667,24.7199998 250.842666,24.6320006 250.944,24.504 C251.045334,24.3759994 251.141333,24.2053344 251.232,23.992 C251.322667,23.7786656 251.421333,23.501335 251.528,23.16 L248.856,15.128 L250.296,15.128 L252.216,21.64 L254.12,15.128 L255.56,15.128 L253.144,22.376 C252.941332,22.9946698 252.757334,23.5226645 252.592,23.96 C252.426666,24.3973355 252.242668,24.7573319 252.04,25.04 C251.837332,25.3226681 251.589335,25.530666 251.296,25.664 C251.002665,25.797334 250.626669,25.864 250.168,25.864 C249.986666,25.864 249.792001,25.8560001 249.584,25.84 C249.375999,25.8239999 249.213334,25.7946669 249.096,25.752 L249.304,24.68 Z M258.008,19.368 C258.061334,20.2746712 258.293331,20.9759975 258.704,21.472 C259.114669,21.9680025 259.687996,22.216 260.424,22.216 C261.352005,22.216 262.050664,21.778671 262.52,20.904 L263.528,21.464 C263.218665,21.9866693 262.808003,22.4133317 262.296,22.744 C261.783997,23.0746683 261.138671,23.24 260.36,23.24 C259.74133,23.24 259.200002,23.1333344 258.736,22.92 C258.271998,22.7066656 257.885335,22.4133352 257.576,22.04 C257.266665,21.6666648 257.034667,21.2293358 256.88,20.728 C256.725333,20.2266642 256.648,19.6880029 256.648,19.112 C256.648,18.5466638 256.722666,18.0080026 256.872,17.496 C257.021334,16.9839974 257.247998,16.5360019 257.552,16.152 C257.856002,15.7679981 258.229331,15.4640011 258.672,15.24 C259.114669,15.0159989 259.634664,14.904 260.232,14.904 C260.808003,14.904 261.309331,15.0133322 261.736,15.232 C262.162669,15.4506678 262.517332,15.7439982 262.8,16.112 C263.082668,16.4800018 263.295999,16.9066642 263.44,17.392 C263.584001,17.8773358 263.656,18.3919973 263.656,18.936 C263.656,19.0533339 263.653333,19.1439997 263.648,19.208 C263.642667,19.2720003 263.64,19.3253331 263.64,19.368 L258.008,19.368 Z M260.216,15.912 C259.543997,15.912 259.024002,16.1519976 258.656,16.632 C258.287998,17.1120024 258.077334,17.7573293 258.024,18.568 L262.296,18.568 C262.296,18.2373317 262.258667,17.9146682 262.184,17.6 C262.109333,17.2853318 261.986668,17.0026679 261.816,16.752 C261.645332,16.5013321 261.429335,16.2986674 261.168,16.144 C260.906665,15.9893326 260.589335,15.912 260.216,15.912 Z M265.96,16.04 L264.616,16.04 L264.616,15.128 L264.904,15.128 C265.234668,15.128 265.493332,15.0933337 265.68,15.024 C265.866668,14.9546663 266.008,14.8480007 266.104,14.704 C266.2,14.5599993 266.269333,14.3706678 266.312,14.136 C266.354667,13.9013322 266.392,13.613335 266.424,13.272 L266.456,12.984 L267.288,12.984 L267.288,15.128 L268.984,15.128 L268.984,16.04 L267.288,16.04 L267.288,20.936 C267.288,21.3840022 267.354666,21.7066657 267.488,21.904 C267.621334,22.1013343 267.869332,22.2 268.232,22.2 C268.520001,22.2 268.786665,22.1360006 269.032,22.008 L269.176,22.968 C268.770665,23.1493342 268.322669,23.24 267.832,23.24 C267.447998,23.24 267.136001,23.1866672 266.896,23.08 C266.655999,22.9733328 266.466667,22.8293342 266.328,22.648 C266.189333,22.4666658 266.093334,22.2480013 266.04,21.992 C265.986666,21.7359987 265.96,21.4586682 265.96,21.16 L265.96,16.04 Z" id="No-file-selected" fill="#000000"></path>
                    <g id="Button-default">
                        <g id="Bg">
                            <use fill="#F5F5F6" fill-rule="evenodd" xlink:href="#path-1"></use>
                            <rect stroke="#A9B1B5" stroke-width="1" x="0.5" y="0.5" width="98" height="35" rx="3"></rect>
                        </g>
                        <path d="M21.92,13.116 L23.082,13.116 L26.568,23 L25.252,23 L24.37,20.34 L20.562,20.34 L19.68,23 L18.406,23 L21.92,13.116 Z M24.034,19.374 C23.7726654,18.5619959 23.513668,17.7663372 23.257,16.987 C23.0003321,16.2076628 22.7413346,15.388671 22.48,14.53 C22.2373321,15.3700042 21.980668,16.1843294 21.71,16.973 C21.439332,17.7616706 21.168668,18.5619959 20.898,19.374 L24.034,19.374 Z M32.448,21.656 C32.2613324,22.122669 31.9860018,22.491332 31.622,22.762 C31.2579982,23.032668 30.805336,23.168 30.264,23.168 C29.8346645,23.168 29.4496684,23.0793342 29.109,22.902 C28.7683316,22.7246658 28.4790012,22.4773349 28.241,22.16 C28.0029988,21.8426651 27.8210006,21.4600022 27.695,21.012 C27.5689994,20.5639978 27.506,20.069336 27.506,19.528 C27.506,18.9679972 27.5713327,18.4663355 27.702,18.023 C27.8326673,17.5796644 28.0193321,17.2040015 28.262,16.896 C28.5046679,16.5879985 28.7963316,16.3500008 29.137,16.182 C29.4776684,16.0139992 29.8533313,15.93 30.264,15.93 C30.8240028,15.93 31.2813316,16.0629987 31.636,16.329 C31.9906684,16.5950013 32.2426659,16.9146648 32.392,17.288 L32.392,13.116 L33.568,13.116 L33.568,23 L32.448,23 L32.448,21.656 Z M32.392,19.514 C32.392,19.2246652 32.3850001,18.9983342 32.371,18.835 C32.3569999,18.6716659 32.3406668,18.5386672 32.322,18.436 C32.2753331,18.2306656 32.2053338,18.0346676 32.112,17.848 C32.0186662,17.6613324 31.8996674,17.4956674 31.755,17.351 C31.6103326,17.2063326 31.440001,17.0920004 31.244,17.008 C31.047999,16.9239996 30.8240013,16.882 30.572,16.882 C30.2546651,16.882 29.9816678,16.9519993 29.753,17.092 C29.5243322,17.2320007 29.3330008,17.4209988 29.179,17.659 C29.0249992,17.8970012 28.910667,18.1769984 28.836,18.499 C28.761333,18.8210016 28.724,19.1639982 28.724,19.528 C28.724,19.920002 28.7659996,20.281665 28.85,20.613 C28.9340004,20.944335 29.0553325,21.2289988 29.214,21.467 C29.3726675,21.7050012 29.5686655,21.891666 29.802,22.027 C30.0353345,22.162334 30.3013318,22.23 30.6,22.23 C30.8333345,22.23 31.0456657,22.1880004 31.237,22.104 C31.4283343,22.0199996 31.5963326,21.9033341 31.741,21.754 C31.8856674,21.6046659 32.0046662,21.4343343 32.098,21.243 C32.1913338,21.0516657 32.2613331,20.8486677 32.308,20.634 C32.3640003,20.3726654 32.392,20.0226689 32.392,19.584 L32.392,19.514 Z M39.98,21.656 C39.7933324,22.122669 39.5180018,22.491332 39.154,22.762 C38.7899982,23.032668 38.337336,23.168 37.796,23.168 C37.3666645,23.168 36.9816684,23.0793342 36.641,22.902 C36.3003316,22.7246658 36.0110012,22.4773349 35.773,22.16 C35.5349988,21.8426651 35.3530006,21.4600022 35.227,21.012 C35.1009994,20.5639978 35.038,20.069336 35.038,19.528 C35.038,18.9679972 35.1033327,18.4663355 35.234,18.023 C35.3646673,17.5796644 35.5513321,17.2040015 35.794,16.896 C36.0366679,16.5879985 36.3283316,16.3500008 36.669,16.182 C37.0096684,16.0139992 37.3853313,15.93 37.796,15.93 C38.3560028,15.93 38.8133316,16.0629987 39.168,16.329 C39.5226684,16.5950013 39.7746659,16.9146648 39.924,17.288 L39.924,13.116 L41.1,13.116 L41.1,23 L39.98,23 L39.98,21.656 Z M39.924,19.514 C39.924,19.2246652 39.9170001,18.9983342 39.903,18.835 C39.8889999,18.6716659 39.8726668,18.5386672 39.854,18.436 C39.8073331,18.2306656 39.7373338,18.0346676 39.644,17.848 C39.5506662,17.6613324 39.4316674,17.4956674 39.287,17.351 C39.1423326,17.2063326 38.972001,17.0920004 38.776,17.008 C38.579999,16.9239996 38.3560013,16.882 38.104,16.882 C37.7866651,16.882 37.5136678,16.9519993 37.285,17.092 C37.0563322,17.2320007 36.8650008,17.4209988 36.711,17.659 C36.5569992,17.8970012 36.442667,18.1769984 36.368,18.499 C36.293333,18.8210016 36.256,19.1639982 36.256,19.528 C36.256,19.920002 36.2979996,20.281665 36.382,20.613 C36.4660004,20.944335 36.5873325,21.2289988 36.746,21.467 C36.9046675,21.7050012 37.1006655,21.891666 37.334,22.027 C37.5673345,22.162334 37.8333318,22.23 38.132,22.23 C38.3653345,22.23 38.5776657,22.1880004 38.769,22.104 C38.9603343,22.0199996 39.1283326,21.9033341 39.273,21.754 C39.4176674,21.6046659 39.5366662,21.4343343 39.63,21.243 C39.7233338,21.0516657 39.7933331,20.8486677 39.84,20.634 C39.8960003,20.3726654 39.924,20.0226689 39.924,19.584 L39.924,19.514 Z M46.028,13.438 L47.19,13.438 L47.19,14.6 L46.028,14.6 L46.028,13.438 Z M46.028,16.112 L47.19,16.112 L47.19,23 L46.028,23 L46.028,16.112 Z M48.982,16.112 L49.99,16.112 L50.116,17.456 C50.2840008,16.9799976 50.5453316,16.6043347 50.9,16.329 C51.2546684,16.0536653 51.6886641,15.916 52.202,15.916 C52.743336,15.916 53.1679985,16.0699985 53.476,16.378 C53.7840015,16.6860015 53.9799996,17.0593311 54.064,17.498 C54.1480004,17.2833323 54.2529994,17.0803343 54.379,16.889 C54.5050006,16.6976657 54.6566658,16.5296674 54.834,16.385 C55.0113342,16.2403326 55.2166655,16.1260004 55.45,16.042 C55.6833345,15.9579996 55.9493318,15.916 56.248,15.916 C56.640002,15.916 56.964332,15.983666 57.221,16.119 C57.4776679,16.254334 57.6829992,16.4386655 57.837,16.672 C57.9910008,16.9053345 58.1006663,17.1783318 58.166,17.491 C58.2313337,17.8036682 58.264,18.1326649 58.264,18.478 L58.264,23 L57.102,23 L57.102,18.772 C57.102,18.1559969 56.9923344,17.6963348 56.773,17.393 C56.5536656,17.0896652 56.2340021,16.938 55.814,16.938 C55.3566644,16.938 54.9740015,17.140998 54.666,17.547 C54.3579985,17.953002 54.204,18.5339962 54.204,19.29 L54.204,23 L53.042,23 L53.042,18.828 C53.042,18.1839968 52.9300011,17.7080015 52.706,17.4 C52.4819989,17.0919985 52.1693353,16.938 51.768,16.938 C51.3199978,16.938 50.9373349,17.1456646 50.62,17.561 C50.3026651,17.9763354 50.144,18.5759961 50.144,19.36 L50.144,23 L48.982,23 L48.982,16.112 Z M64.354,23 C64.2513328,22.6639983 64.1906668,22.262669 64.172,21.796 C63.9853324,22.2253355 63.6983353,22.568332 63.311,22.825 C62.9236647,23.0816679 62.4640027,23.21 61.932,23.21 C61.2599966,23.21 60.728002,23.0186686 60.336,22.636 C59.943998,22.2533314 59.748,21.7400032 59.748,21.096 C59.748,20.7319982 59.8133327,20.4263346 59.944,20.179 C60.0746673,19.9316654 60.2566655,19.7263341 60.49,19.563 C60.7233345,19.3996658 60.9986651,19.2713338 61.316,19.178 C61.6333349,19.0846662 61.9786648,19.0100003 62.352,18.954 L64.116,18.688 L64.116,18.254 C64.116,17.9459985 64.078667,17.6986676 64.004,17.512 C63.929333,17.3253324 63.8266673,17.1806672 63.696,17.078 C63.5653327,16.9753328 63.4160008,16.9076668 63.248,16.875 C63.0799992,16.8423332 62.9026676,16.826 62.716,16.826 C62.1839973,16.826 61.7453351,16.923999 61.4,17.12 C61.0546649,17.316001 60.7653345,17.5633318 60.532,17.862 L59.93,17.106 C60.200668,16.7793317 60.5763309,16.4993345 61.057,16.266 C61.5376691,16.0326655 62.1326631,15.916 62.842,15.916 C63.700671,15.916 64.3236647,16.1073314 64.711,16.49 C65.0983353,16.8726686 65.292,17.4886624 65.292,18.338 L65.292,21.124 C65.292,21.3480011 65.2943333,21.5439992 65.299,21.712 C65.3036667,21.8800008 65.3129999,22.0363326 65.327,22.181 C65.3410001,22.3256674 65.3619999,22.4633327 65.39,22.594 C65.4180001,22.7246673 65.4553331,22.8599993 65.502,23 L64.354,23 Z M64.116,19.458 L62.464,19.724 C61.8946638,19.8266672 61.4910012,19.9806656 61.253,20.186 C61.0149988,20.3913344 60.896,20.6759982 60.896,21.04 C60.896,21.4133352 61.0056656,21.7259987 61.225,21.978 C61.4443344,22.2300013 61.7686645,22.356 62.198,22.356 C62.4593346,22.356 62.7066655,22.3046672 62.94,22.202 C63.1733345,22.0993328 63.3763325,21.9570009 63.549,21.775 C63.7216675,21.5929991 63.8593328,21.3736679 63.962,21.117 C64.0646672,20.8603321 64.116,20.5780015 64.116,20.27 L64.116,19.458 Z M67.714,23.826 C67.984668,24.0873346 68.3089981,24.2949992 68.687,24.449 C69.0650019,24.6030008 69.4686645,24.68 69.898,24.68 C70.2526684,24.68 70.5419989,24.6263339 70.766,24.519 C70.9900011,24.4116661 71.1673327,24.2646676 71.298,24.078 C71.4286673,23.8913324 71.5196664,23.6790012 71.571,23.441 C71.6223336,23.2029988 71.648,22.948668 71.648,22.678 L71.648,21.404 C71.4706658,21.8240021 71.2046684,22.162332 70.85,22.419 C70.4953316,22.675668 70.0380028,22.804 69.478,22.804 C69.0766647,22.804 68.7126683,22.7270008 68.386,22.573 C68.0593317,22.4189992 67.7793345,22.1973348 67.546,21.908 C67.3126655,21.6186652 67.1330006,21.2640021 67.007,20.844 C66.8809994,20.4239979 66.818,19.9526693 66.818,19.43 C66.818,18.9166641 66.8809994,18.4453355 67.007,18.016 C67.1330006,17.5866645 67.3149988,17.2180015 67.553,16.91 C67.7910012,16.6019985 68.0803316,16.3616675 68.421,16.189 C68.7616684,16.0163325 69.1419979,15.93 69.562,15.93 C70.1126694,15.93 70.5699982,16.0676653 70.934,16.343 C71.2980018,16.6183347 71.5593325,16.9706645 71.718,17.4 L71.914,16.112 L72.81,16.112 L72.81,22.65 C72.81,23.042002 72.7633338,23.4129983 72.67,23.763 C72.5766662,24.1130018 72.4180011,24.423332 72.194,24.694 C71.9699989,24.964668 71.6713352,25.1793325 71.298,25.338 C70.9246648,25.4966675 70.4580028,25.576 69.898,25.576 C69.2913303,25.576 68.7476691,25.4896675 68.267,25.317 C67.7863309,25.1443325 67.3826683,24.9273346 67.056,24.666 L67.714,23.826 Z M71.648,19.43 C71.648,19.2713325 71.6456667,19.1196674 71.641,18.975 C71.6363333,18.8303326 71.6246668,18.720667 71.606,18.646 C71.5686665,18.4219989 71.5080004,18.2026677 71.424,17.988 C71.3399996,17.7733323 71.2256674,17.5866675 71.081,17.428 C70.9363326,17.2693325 70.759001,17.1410005 70.549,17.043 C70.3389989,16.9449995 70.0940014,16.896 69.814,16.896 C69.5059985,16.896 69.2400011,16.9613327 69.016,17.092 C68.7919989,17.2226673 68.6076674,17.3999989 68.463,17.624 C68.3183326,17.8480011 68.2110004,18.1139985 68.141,18.422 C68.0709997,18.7300015 68.036,19.0566649 68.036,19.402 C68.036,19.7100015 68.0686663,20.0156652 68.134,20.319 C68.1993337,20.6223349 68.3019993,20.8906655 68.442,21.124 C68.5820007,21.3573345 68.7663322,21.5463326 68.995,21.691 C69.2236678,21.8356674 69.5013317,21.908 69.828,21.908 C70.2853356,21.908 70.6539986,21.779668 70.934,21.523 C71.2140014,21.2663321 71.4099994,20.942002 71.522,20.55 C71.5686669,20.4193327 71.6013332,20.256001 71.62,20.06 C71.6386668,19.863999 71.648,19.6773342 71.648,19.5 L71.648,19.43 Z M75.484,19.822 C75.5306669,20.6153373 75.7336649,21.2289978 76.093,21.663 C76.4523351,22.0970022 76.9539968,22.314 77.598,22.314 C78.4100041,22.314 79.0213313,21.9313372 79.432,21.166 L80.314,21.656 C80.043332,22.1133356 79.6840022,22.4866652 79.236,22.776 C78.7879978,23.0653348 78.2233367,23.21 77.542,23.21 C77.000664,23.21 76.527002,23.1166676 76.121,22.93 C75.714998,22.7433324 75.376668,22.4866683 75.106,22.16 C74.835332,21.8333317 74.632334,21.4506689 74.497,21.012 C74.361666,20.5733311 74.294,20.1020025 74.294,19.598 C74.294,19.1033309 74.3593327,18.6320022 74.49,18.184 C74.6206673,17.7359978 74.8189987,17.3440017 75.085,17.008 C75.3510013,16.6719983 75.6776647,16.406001 76.065,16.21 C76.4523353,16.013999 76.9073307,15.916 77.43,15.916 C77.9340025,15.916 78.3726648,16.0116657 78.746,16.203 C79.1193352,16.3943343 79.4296654,16.6509984 79.677,16.973 C79.9243346,17.2950016 80.1109994,17.6683312 80.237,18.093 C80.3630006,18.5176688 80.426,18.9679976 80.426,19.444 C80.426,19.5466672 80.4236667,19.6259997 80.419,19.682 C80.4143333,19.7380003 80.412,19.7846665 80.412,19.822 L75.484,19.822 Z M77.416,16.798 C76.8279971,16.798 76.3730016,17.0079979 76.051,17.428 C75.7289984,17.8480021 75.5446669,18.4126631 75.498,19.122 L79.236,19.122 C79.236,18.8326652 79.2033337,18.5503347 79.138,18.275 C79.0726663,17.9996653 78.9653341,17.7523344 78.816,17.533 C78.6666659,17.3136656 78.4776678,17.136334 78.249,17.001 C78.0203322,16.865666 77.7426683,16.798 77.416,16.798 Z" id="Button-item" fill="#000000"></path>
                    </g>
                </g>
            </g>
        </g>
    </g>
</svg>