<?xml version="1.0" encoding="UTF-8"?>
<svg width="99px" height="36px" viewBox="0 0 99 36" version="1.1" xmlns="http://www.w3.org/2000/svg" xmlns:xlink="http://www.w3.org/1999/xlink">
    <!-- Generator: Sketch 47 (45396) - http://www.bohemiancoding.com/sketch -->
    <title>HideInput</title>
    <desc>Created with Sketch.</desc>
    <defs>
        <rect id="path-1" x="0" y="0" width="99" height="36" rx="3"></rect>
    </defs>
    <g id="Page-1" stroke="none" stroke-width="1" fill="none" fill-rule="evenodd">
        <g id="Buttons-Usage-extra-large-1200" transform="translate(-853.000000, -1579.000000)">
            <g id="HideInput" transform="translate(853.000000, 1579.000000)">
                <g id="Bg">
                    <use fill="#F5F5F6" fill-rule="evenodd" xlink:href="#path-1"></use>
                    <rect stroke="#A9B1B5" stroke-width="1" x="0.5" y="0.5" width="98" height="35" rx="3"></rect>
                </g>
                <path d="M21.92,13.116 L23.082,13.116 L26.568,23 L25.252,23 L24.37,20.34 L20.562,20.34 L19.68,23 L18.406,23 L21.92,13.116 Z M24.034,19.374 C23.7726654,18.5619959 23.513668,17.7663372 23.257,16.987 C23.0003321,16.2076628 22.7413346,15.388671 22.48,14.53 C22.2373321,15.3700042 21.980668,16.1843294 21.71,16.973 C21.439332,17.7616706 21.168668,18.5619959 20.898,19.374 L24.034,19.374 Z M32.448,21.656 C32.2613324,22.122669 31.9860018,22.491332 31.622,22.762 C31.2579982,23.032668 30.805336,23.168 30.264,23.168 C29.8346645,23.168 29.4496684,23.0793342 29.109,22.902 C28.7683316,22.7246658 28.4790012,22.4773349 28.241,22.16 C28.0029988,21.8426651 27.8210006,21.4600022 27.695,21.012 C27.5689994,20.5639978 27.506,20.069336 27.506,19.528 C27.506,18.9679972 27.5713327,18.4663355 27.702,18.023 C27.8326673,17.5796644 28.0193321,17.2040015 28.262,16.896 C28.5046679,16.5879985 28.7963316,16.3500008 29.137,16.182 C29.4776684,16.0139992 29.8533313,15.93 30.264,15.93 C30.8240028,15.93 31.2813316,16.0629987 31.636,16.329 C31.9906684,16.5950013 32.2426659,16.9146648 32.392,17.288 L32.392,13.116 L33.568,13.116 L33.568,23 L32.448,23 L32.448,21.656 Z M32.392,19.514 C32.392,19.2246652 32.3850001,18.9983342 32.371,18.835 C32.3569999,18.6716659 32.3406668,18.5386672 32.322,18.436 C32.2753331,18.2306656 32.2053338,18.0346676 32.112,17.848 C32.0186662,17.6613324 31.8996674,17.4956674 31.755,17.351 C31.6103326,17.2063326 31.440001,17.0920004 31.244,17.008 C31.047999,16.9239996 30.8240013,16.882 30.572,16.882 C30.2546651,16.882 29.9816678,16.9519993 29.753,17.092 C29.5243322,17.2320007 29.3330008,17.4209988 29.179,17.659 C29.0249992,17.8970012 28.910667,18.1769984 28.836,18.499 C28.761333,18.8210016 28.724,19.1639982 28.724,19.528 C28.724,19.920002 28.7659996,20.281665 28.85,20.613 C28.9340004,20.944335 29.0553325,21.2289988 29.214,21.467 C29.3726675,21.7050012 29.5686655,21.891666 29.802,22.027 C30.0353345,22.162334 30.3013318,22.23 30.6,22.23 C30.8333345,22.23 31.0456657,22.1880004 31.237,22.104 C31.4283343,22.0199996 31.5963326,21.9033341 31.741,21.754 C31.8856674,21.6046659 32.0046662,21.4343343 32.098,21.243 C32.1913338,21.0516657 32.2613331,20.8486677 32.308,20.634 C32.3640003,20.3726654 32.392,20.0226689 32.392,19.584 L32.392,19.514 Z M39.98,21.656 C39.7933324,22.122669 39.5180018,22.491332 39.154,22.762 C38.7899982,23.032668 38.337336,23.168 37.796,23.168 C37.3666645,23.168 36.9816684,23.0793342 36.641,22.902 C36.3003316,22.7246658 36.0110012,22.4773349 35.773,22.16 C35.5349988,21.8426651 35.3530006,21.4600022 35.227,21.012 C35.1009994,20.5639978 35.038,20.069336 35.038,19.528 C35.038,18.9679972 35.1033327,18.4663355 35.234,18.023 C35.3646673,17.5796644 35.5513321,17.2040015 35.794,16.896 C36.0366679,16.5879985 36.3283316,16.3500008 36.669,16.182 C37.0096684,16.0139992 37.3853313,15.93 37.796,15.93 C38.3560028,15.93 38.8133316,16.0629987 39.168,16.329 C39.5226684,16.5950013 39.7746659,16.9146648 39.924,17.288 L39.924,13.116 L41.1,13.116 L41.1,23 L39.98,23 L39.98,21.656 Z M39.924,19.514 C39.924,19.2246652 39.9170001,18.9983342 39.903,18.835 C39.8889999,18.6716659 39.8726668,18.5386672 39.854,18.436 C39.8073331,18.2306656 39.7373338,18.0346676 39.644,17.848 C39.5506662,17.6613324 39.4316674,17.4956674 39.287,17.351 C39.1423326,17.2063326 38.972001,17.0920004 38.776,17.008 C38.579999,16.9239996 38.3560013,16.882 38.104,16.882 C37.7866651,16.882 37.5136678,16.9519993 37.285,17.092 C37.0563322,17.2320007 36.8650008,17.4209988 36.711,17.659 C36.5569992,17.8970012 36.442667,18.1769984 36.368,18.499 C36.293333,18.8210016 36.256,19.1639982 36.256,19.528 C36.256,19.920002 36.2979996,20.281665 36.382,20.613 C36.4660004,20.944335 36.5873325,21.2289988 36.746,21.467 C36.9046675,21.7050012 37.1006655,21.891666 37.334,22.027 C37.5673345,22.162334 37.8333318,22.23 38.132,22.23 C38.3653345,22.23 38.5776657,22.1880004 38.769,22.104 C38.9603343,22.0199996 39.1283326,21.9033341 39.273,21.754 C39.4176674,21.6046659 39.5366662,21.4343343 39.63,21.243 C39.7233338,21.0516657 39.7933331,20.8486677 39.84,20.634 C39.8960003,20.3726654 39.924,20.0226689 39.924,19.584 L39.924,19.514 Z M46.028,13.438 L47.19,13.438 L47.19,14.6 L46.028,14.6 L46.028,13.438 Z M46.028,16.112 L47.19,16.112 L47.19,23 L46.028,23 L46.028,16.112 Z M48.982,16.112 L49.99,16.112 L50.116,17.456 C50.2840008,16.9799976 50.5453316,16.6043347 50.9,16.329 C51.2546684,16.0536653 51.6886641,15.916 52.202,15.916 C52.743336,15.916 53.1679985,16.0699985 53.476,16.378 C53.7840015,16.6860015 53.9799996,17.0593311 54.064,17.498 C54.1480004,17.2833323 54.2529994,17.0803343 54.379,16.889 C54.5050006,16.6976657 54.6566658,16.5296674 54.834,16.385 C55.0113342,16.2403326 55.2166655,16.1260004 55.45,16.042 C55.6833345,15.9579996 55.9493318,15.916 56.248,15.916 C56.640002,15.916 56.964332,15.983666 57.221,16.119 C57.4776679,16.254334 57.6829992,16.4386655 57.837,16.672 C57.9910008,16.9053345 58.1006663,17.1783318 58.166,17.491 C58.2313337,17.8036682 58.264,18.1326649 58.264,18.478 L58.264,23 L57.102,23 L57.102,18.772 C57.102,18.1559969 56.9923344,17.6963348 56.773,17.393 C56.5536656,17.0896652 56.2340021,16.938 55.814,16.938 C55.3566644,16.938 54.9740015,17.140998 54.666,17.547 C54.3579985,17.953002 54.204,18.5339962 54.204,19.29 L54.204,23 L53.042,23 L53.042,18.828 C53.042,18.1839968 52.9300011,17.7080015 52.706,17.4 C52.4819989,17.0919985 52.1693353,16.938 51.768,16.938 C51.3199978,16.938 50.9373349,17.1456646 50.62,17.561 C50.3026651,17.9763354 50.144,18.5759961 50.144,19.36 L50.144,23 L48.982,23 L48.982,16.112 Z M64.354,23 C64.2513328,22.6639983 64.1906668,22.262669 64.172,21.796 C63.9853324,22.2253355 63.6983353,22.568332 63.311,22.825 C62.9236647,23.0816679 62.4640027,23.21 61.932,23.21 C61.2599966,23.21 60.728002,23.0186686 60.336,22.636 C59.943998,22.2533314 59.748,21.7400032 59.748,21.096 C59.748,20.7319982 59.8133327,20.4263346 59.944,20.179 C60.0746673,19.9316654 60.2566655,19.7263341 60.49,19.563 C60.7233345,19.3996658 60.9986651,19.2713338 61.316,19.178 C61.6333349,19.0846662 61.9786648,19.0100003 62.352,18.954 L64.116,18.688 L64.116,18.254 C64.116,17.9459985 64.078667,17.6986676 64.004,17.512 C63.929333,17.3253324 63.8266673,17.1806672 63.696,17.078 C63.5653327,16.9753328 63.4160008,16.9076668 63.248,16.875 C63.0799992,16.8423332 62.9026676,16.826 62.716,16.826 C62.1839973,16.826 61.7453351,16.923999 61.4,17.12 C61.0546649,17.316001 60.7653345,17.5633318 60.532,17.862 L59.93,17.106 C60.200668,16.7793317 60.5763309,16.4993345 61.057,16.266 C61.5376691,16.0326655 62.1326631,15.916 62.842,15.916 C63.700671,15.916 64.3236647,16.1073314 64.711,16.49 C65.0983353,16.8726686 65.292,17.4886624 65.292,18.338 L65.292,21.124 C65.292,21.3480011 65.2943333,21.5439992 65.299,21.712 C65.3036667,21.8800008 65.3129999,22.0363326 65.327,22.181 C65.3410001,22.3256674 65.3619999,22.4633327 65.39,22.594 C65.4180001,22.7246673 65.4553331,22.8599993 65.502,23 L64.354,23 Z M64.116,19.458 L62.464,19.724 C61.8946638,19.8266672 61.4910012,19.9806656 61.253,20.186 C61.0149988,20.3913344 60.896,20.6759982 60.896,21.04 C60.896,21.4133352 61.0056656,21.7259987 61.225,21.978 C61.4443344,22.2300013 61.7686645,22.356 62.198,22.356 C62.4593346,22.356 62.7066655,22.3046672 62.94,22.202 C63.1733345,22.0993328 63.3763325,21.9570009 63.549,21.775 C63.7216675,21.5929991 63.8593328,21.3736679 63.962,21.117 C64.0646672,20.8603321 64.116,20.5780015 64.116,20.27 L64.116,19.458 Z M67.714,23.826 C67.984668,24.0873346 68.3089981,24.2949992 68.687,24.449 C69.0650019,24.6030008 69.4686645,24.68 69.898,24.68 C70.2526684,24.68 70.5419989,24.6263339 70.766,24.519 C70.9900011,24.4116661 71.1673327,24.2646676 71.298,24.078 C71.4286673,23.8913324 71.5196664,23.6790012 71.571,23.441 C71.6223336,23.2029988 71.648,22.948668 71.648,22.678 L71.648,21.404 C71.4706658,21.8240021 71.2046684,22.162332 70.85,22.419 C70.4953316,22.675668 70.0380028,22.804 69.478,22.804 C69.0766647,22.804 68.7126683,22.7270008 68.386,22.573 C68.0593317,22.4189992 67.7793345,22.1973348 67.546,21.908 C67.3126655,21.6186652 67.1330006,21.2640021 67.007,20.844 C66.8809994,20.4239979 66.818,19.9526693 66.818,19.43 C66.818,18.9166641 66.8809994,18.4453355 67.007,18.016 C67.1330006,17.5866645 67.3149988,17.2180015 67.553,16.91 C67.7910012,16.6019985 68.0803316,16.3616675 68.421,16.189 C68.7616684,16.0163325 69.1419979,15.93 69.562,15.93 C70.1126694,15.93 70.5699982,16.0676653 70.934,16.343 C71.2980018,16.6183347 71.5593325,16.9706645 71.718,17.4 L71.914,16.112 L72.81,16.112 L72.81,22.65 C72.81,23.042002 72.7633338,23.4129983 72.67,23.763 C72.5766662,24.1130018 72.4180011,24.423332 72.194,24.694 C71.9699989,24.964668 71.6713352,25.1793325 71.298,25.338 C70.9246648,25.4966675 70.4580028,25.576 69.898,25.576 C69.2913303,25.576 68.7476691,25.4896675 68.267,25.317 C67.7863309,25.1443325 67.3826683,24.9273346 67.056,24.666 L67.714,23.826 Z M71.648,19.43 C71.648,19.2713325 71.6456667,19.1196674 71.641,18.975 C71.6363333,18.8303326 71.6246668,18.720667 71.606,18.646 C71.5686665,18.4219989 71.5080004,18.2026677 71.424,17.988 C71.3399996,17.7733323 71.2256674,17.5866675 71.081,17.428 C70.9363326,17.2693325 70.759001,17.1410005 70.549,17.043 C70.3389989,16.9449995 70.0940014,16.896 69.814,16.896 C69.5059985,16.896 69.2400011,16.9613327 69.016,17.092 C68.7919989,17.2226673 68.6076674,17.3999989 68.463,17.624 C68.3183326,17.8480011 68.2110004,18.1139985 68.141,18.422 C68.0709997,18.7300015 68.036,19.0566649 68.036,19.402 C68.036,19.7100015 68.0686663,20.0156652 68.134,20.319 C68.1993337,20.6223349 68.3019993,20.8906655 68.442,21.124 C68.5820007,21.3573345 68.7663322,21.5463326 68.995,21.691 C69.2236678,21.8356674 69.5013317,21.908 69.828,21.908 C70.2853356,21.908 70.6539986,21.779668 70.934,21.523 C71.2140014,21.2663321 71.4099994,20.942002 71.522,20.55 C71.5686669,20.4193327 71.6013332,20.256001 71.62,20.06 C71.6386668,19.863999 71.648,19.6773342 71.648,19.5 L71.648,19.43 Z M75.484,19.822 C75.5306669,20.6153373 75.7336649,21.2289978 76.093,21.663 C76.4523351,22.0970022 76.9539968,22.314 77.598,22.314 C78.4100041,22.314 79.0213313,21.9313372 79.432,21.166 L80.314,21.656 C80.043332,22.1133356 79.6840022,22.4866652 79.236,22.776 C78.7879978,23.0653348 78.2233367,23.21 77.542,23.21 C77.000664,23.21 76.527002,23.1166676 76.121,22.93 C75.714998,22.7433324 75.376668,22.4866683 75.106,22.16 C74.835332,21.8333317 74.632334,21.4506689 74.497,21.012 C74.361666,20.5733311 74.294,20.1020025 74.294,19.598 C74.294,19.1033309 74.3593327,18.6320022 74.49,18.184 C74.6206673,17.7359978 74.8189987,17.3440017 75.085,17.008 C75.3510013,16.6719983 75.6776647,16.406001 76.065,16.21 C76.4523353,16.013999 76.9073307,15.916 77.43,15.916 C77.9340025,15.916 78.3726648,16.0116657 78.746,16.203 C79.1193352,16.3943343 79.4296654,16.6509984 79.677,16.973 C79.9243346,17.2950016 80.1109994,17.6683312 80.237,18.093 C80.3630006,18.5176688 80.426,18.9679976 80.426,19.444 C80.426,19.5466672 80.4236667,19.6259997 80.419,19.682 C80.4143333,19.7380003 80.412,19.7846665 80.412,19.822 L75.484,19.822 Z M77.416,16.798 C76.8279971,16.798 76.3730016,17.0079979 76.051,17.428 C75.7289984,17.8480021 75.5446669,18.4126631 75.498,19.122 L79.236,19.122 C79.236,18.8326652 79.2033337,18.5503347 79.138,18.275 C79.0726663,17.9996653 78.9653341,17.7523344 78.816,17.533 C78.6666659,17.3136656 78.4776678,17.136334 78.249,17.001 C78.0203322,16.865666 77.7426683,16.798 77.416,16.798 Z" id="Button-item" fill="#000000"></path>
            </g>
        </g>
    </g>
</svg>