<?xml version="1.0" encoding="UTF-8"?>
<svg width="294px" height="48px" viewBox="0 0 294 48" version="1.1" xmlns="http://www.w3.org/2000/svg" xmlns:xlink="http://www.w3.org/1999/xlink">
    <!-- Generator: Sketch 47 (45396) - http://www.bohemiancoding.com/sketch -->
    <title>Preview image</title>
    <desc>Created with Sketch.</desc>
    <defs>
        <rect id="path-1" x="0" y="0" width="99" height="36" rx="3"></rect>
        <rect id="path-2" x="0" y="0" width="179" height="48"></rect>
    </defs>
    <g id="Page-1" stroke="none" stroke-width="1" fill="none" fill-rule="evenodd">
        <g id="Buttons-Usage-extra-large-1200" transform="translate(-797.000000, -1317.000000)">
            <g id="Group-5" transform="translate(735.000000, 1262.000000)">
                <g id="Preview-image" transform="translate(62.000000, 55.000000)">
                    <g id="Button-default" transform="translate(0.000000, 6.000000)">
                        <g id="Bg">
                            <use fill="#F5F5F6" fill-rule="evenodd" xlink:href="#path-1"></use>
                            <rect stroke="#A9B1B5" stroke-width="1" x="0.5" y="0.5" width="98" height="35" rx="3"></rect>
                        </g>
                        <path d="M21.92,13.116 L23.082,13.116 L26.568,23 L25.252,23 L24.37,20.34 L20.562,20.34 L19.68,23 L18.406,23 L21.92,13.116 Z M24.034,19.374 C23.7726654,18.5619959 23.513668,17.7663372 23.257,16.987 C23.0003321,16.2076628 22.7413346,15.388671 22.48,14.53 C22.2373321,15.3700042 21.980668,16.1843294 21.71,16.973 C21.439332,17.7616706 21.168668,18.5619959 20.898,19.374 L24.034,19.374 Z M32.448,21.656 C32.2613324,22.122669 31.9860018,22.491332 31.622,22.762 C31.2579982,23.032668 30.805336,23.168 30.264,23.168 C29.8346645,23.168 29.4496684,23.0793342 29.109,22.902 C28.7683316,22.7246658 28.4790012,22.4773349 28.241,22.16 C28.0029988,21.8426651 27.8210006,21.4600022 27.695,21.012 C27.5689994,20.5639978 27.506,20.069336 27.506,19.528 C27.506,18.9679972 27.5713327,18.4663355 27.702,18.023 C27.8326673,17.5796644 28.0193321,17.2040015 28.262,16.896 C28.5046679,16.5879985 28.7963316,16.3500008 29.137,16.182 C29.4776684,16.0139992 29.8533313,15.93 30.264,15.93 C30.8240028,15.93 31.2813316,16.0629987 31.636,16.329 C31.9906684,16.5950013 32.2426659,16.9146648 32.392,17.288 L32.392,13.116 L33.568,13.116 L33.568,23 L32.448,23 L32.448,21.656 Z M32.392,19.514 C32.392,19.2246652 32.3850001,18.9983342 32.371,18.835 C32.3569999,18.6716659 32.3406668,18.5386672 32.322,18.436 C32.2753331,18.2306656 32.2053338,18.0346676 32.112,17.848 C32.0186662,17.6613324 31.8996674,17.4956674 31.755,17.351 C31.6103326,17.2063326 31.440001,17.0920004 31.244,17.008 C31.047999,16.9239996 30.8240013,16.882 30.572,16.882 C30.2546651,16.882 29.9816678,16.9519993 29.753,17.092 C29.5243322,17.2320007 29.3330008,17.4209988 29.179,17.659 C29.0249992,17.8970012 28.910667,18.1769984 28.836,18.499 C28.761333,18.8210016 28.724,19.1639982 28.724,19.528 C28.724,19.920002 28.7659996,20.281665 28.85,20.613 C28.9340004,20.944335 29.0553325,21.2289988 29.214,21.467 C29.3726675,21.7050012 29.5686655,21.891666 29.802,22.027 C30.0353345,22.162334 30.3013318,22.23 30.6,22.23 C30.8333345,22.23 31.0456657,22.1880004 31.237,22.104 C31.4283343,22.0199996 31.5963326,21.9033341 31.741,21.754 C31.8856674,21.6046659 32.0046662,21.4343343 32.098,21.243 C32.1913338,21.0516657 32.2613331,20.8486677 32.308,20.634 C32.3640003,20.3726654 32.392,20.0226689 32.392,19.584 L32.392,19.514 Z M39.98,21.656 C39.7933324,22.122669 39.5180018,22.491332 39.154,22.762 C38.7899982,23.032668 38.337336,23.168 37.796,23.168 C37.3666645,23.168 36.9816684,23.0793342 36.641,22.902 C36.3003316,22.7246658 36.0110012,22.4773349 35.773,22.16 C35.5349988,21.8426651 35.3530006,21.4600022 35.227,21.012 C35.1009994,20.5639978 35.038,20.069336 35.038,19.528 C35.038,18.9679972 35.1033327,18.4663355 35.234,18.023 C35.3646673,17.5796644 35.5513321,17.2040015 35.794,16.896 C36.0366679,16.5879985 36.3283316,16.3500008 36.669,16.182 C37.0096684,16.0139992 37.3853313,15.93 37.796,15.93 C38.3560028,15.93 38.8133316,16.0629987 39.168,16.329 C39.5226684,16.5950013 39.7746659,16.9146648 39.924,17.288 L39.924,13.116 L41.1,13.116 L41.1,23 L39.98,23 L39.98,21.656 Z M39.924,19.514 C39.924,19.2246652 39.9170001,18.9983342 39.903,18.835 C39.8889999,18.6716659 39.8726668,18.5386672 39.854,18.436 C39.8073331,18.2306656 39.7373338,18.0346676 39.644,17.848 C39.5506662,17.6613324 39.4316674,17.4956674 39.287,17.351 C39.1423326,17.2063326 38.972001,17.0920004 38.776,17.008 C38.579999,16.9239996 38.3560013,16.882 38.104,16.882 C37.7866651,16.882 37.5136678,16.9519993 37.285,17.092 C37.0563322,17.2320007 36.8650008,17.4209988 36.711,17.659 C36.5569992,17.8970012 36.442667,18.1769984 36.368,18.499 C36.293333,18.8210016 36.256,19.1639982 36.256,19.528 C36.256,19.920002 36.2979996,20.281665 36.382,20.613 C36.4660004,20.944335 36.5873325,21.2289988 36.746,21.467 C36.9046675,21.7050012 37.1006655,21.891666 37.334,22.027 C37.5673345,22.162334 37.8333318,22.23 38.132,22.23 C38.3653345,22.23 38.5776657,22.1880004 38.769,22.104 C38.9603343,22.0199996 39.1283326,21.9033341 39.273,21.754 C39.4176674,21.6046659 39.5366662,21.4343343 39.63,21.243 C39.7233338,21.0516657 39.7933331,20.8486677 39.84,20.634 C39.8960003,20.3726654 39.924,20.0226689 39.924,19.584 L39.924,19.514 Z M46.028,13.438 L47.19,13.438 L47.19,14.6 L46.028,14.6 L46.028,13.438 Z M46.028,16.112 L47.19,16.112 L47.19,23 L46.028,23 L46.028,16.112 Z M48.982,16.112 L49.99,16.112 L50.116,17.456 C50.2840008,16.9799976 50.5453316,16.6043347 50.9,16.329 C51.2546684,16.0536653 51.6886641,15.916 52.202,15.916 C52.743336,15.916 53.1679985,16.0699985 53.476,16.378 C53.7840015,16.6860015 53.9799996,17.0593311 54.064,17.498 C54.1480004,17.2833323 54.2529994,17.0803343 54.379,16.889 C54.5050006,16.6976657 54.6566658,16.5296674 54.834,16.385 C55.0113342,16.2403326 55.2166655,16.1260004 55.45,16.042 C55.6833345,15.9579996 55.9493318,15.916 56.248,15.916 C56.640002,15.916 56.964332,15.983666 57.221,16.119 C57.4776679,16.254334 57.6829992,16.4386655 57.837,16.672 C57.9910008,16.9053345 58.1006663,17.1783318 58.166,17.491 C58.2313337,17.8036682 58.264,18.1326649 58.264,18.478 L58.264,23 L57.102,23 L57.102,18.772 C57.102,18.1559969 56.9923344,17.6963348 56.773,17.393 C56.5536656,17.0896652 56.2340021,16.938 55.814,16.938 C55.3566644,16.938 54.9740015,17.140998 54.666,17.547 C54.3579985,17.953002 54.204,18.5339962 54.204,19.29 L54.204,23 L53.042,23 L53.042,18.828 C53.042,18.1839968 52.9300011,17.7080015 52.706,17.4 C52.4819989,17.0919985 52.1693353,16.938 51.768,16.938 C51.3199978,16.938 50.9373349,17.1456646 50.62,17.561 C50.3026651,17.9763354 50.144,18.5759961 50.144,19.36 L50.144,23 L48.982,23 L48.982,16.112 Z M64.354,23 C64.2513328,22.6639983 64.1906668,22.262669 64.172,21.796 C63.9853324,22.2253355 63.6983353,22.568332 63.311,22.825 C62.9236647,23.0816679 62.4640027,23.21 61.932,23.21 C61.2599966,23.21 60.728002,23.0186686 60.336,22.636 C59.943998,22.2533314 59.748,21.7400032 59.748,21.096 C59.748,20.7319982 59.8133327,20.4263346 59.944,20.179 C60.0746673,19.9316654 60.2566655,19.7263341 60.49,19.563 C60.7233345,19.3996658 60.9986651,19.2713338 61.316,19.178 C61.6333349,19.0846662 61.9786648,19.0100003 62.352,18.954 L64.116,18.688 L64.116,18.254 C64.116,17.9459985 64.078667,17.6986676 64.004,17.512 C63.929333,17.3253324 63.8266673,17.1806672 63.696,17.078 C63.5653327,16.9753328 63.4160008,16.9076668 63.248,16.875 C63.0799992,16.8423332 62.9026676,16.826 62.716,16.826 C62.1839973,16.826 61.7453351,16.923999 61.4,17.12 C61.0546649,17.316001 60.7653345,17.5633318 60.532,17.862 L59.93,17.106 C60.200668,16.7793317 60.5763309,16.4993345 61.057,16.266 C61.5376691,16.0326655 62.1326631,15.916 62.842,15.916 C63.700671,15.916 64.3236647,16.1073314 64.711,16.49 C65.0983353,16.8726686 65.292,17.4886624 65.292,18.338 L65.292,21.124 C65.292,21.3480011 65.2943333,21.5439992 65.299,21.712 C65.3036667,21.8800008 65.3129999,22.0363326 65.327,22.181 C65.3410001,22.3256674 65.3619999,22.4633327 65.39,22.594 C65.4180001,22.7246673 65.4553331,22.8599993 65.502,23 L64.354,23 Z M64.116,19.458 L62.464,19.724 C61.8946638,19.8266672 61.4910012,19.9806656 61.253,20.186 C61.0149988,20.3913344 60.896,20.6759982 60.896,21.04 C60.896,21.4133352 61.0056656,21.7259987 61.225,21.978 C61.4443344,22.2300013 61.7686645,22.356 62.198,22.356 C62.4593346,22.356 62.7066655,22.3046672 62.94,22.202 C63.1733345,22.0993328 63.3763325,21.9570009 63.549,21.775 C63.7216675,21.5929991 63.8593328,21.3736679 63.962,21.117 C64.0646672,20.8603321 64.116,20.5780015 64.116,20.27 L64.116,19.458 Z M67.714,23.826 C67.984668,24.0873346 68.3089981,24.2949992 68.687,24.449 C69.0650019,24.6030008 69.4686645,24.68 69.898,24.68 C70.2526684,24.68 70.5419989,24.6263339 70.766,24.519 C70.9900011,24.4116661 71.1673327,24.2646676 71.298,24.078 C71.4286673,23.8913324 71.5196664,23.6790012 71.571,23.441 C71.6223336,23.2029988 71.648,22.948668 71.648,22.678 L71.648,21.404 C71.4706658,21.8240021 71.2046684,22.162332 70.85,22.419 C70.4953316,22.675668 70.0380028,22.804 69.478,22.804 C69.0766647,22.804 68.7126683,22.7270008 68.386,22.573 C68.0593317,22.4189992 67.7793345,22.1973348 67.546,21.908 C67.3126655,21.6186652 67.1330006,21.2640021 67.007,20.844 C66.8809994,20.4239979 66.818,19.9526693 66.818,19.43 C66.818,18.9166641 66.8809994,18.4453355 67.007,18.016 C67.1330006,17.5866645 67.3149988,17.2180015 67.553,16.91 C67.7910012,16.6019985 68.0803316,16.3616675 68.421,16.189 C68.7616684,16.0163325 69.1419979,15.93 69.562,15.93 C70.1126694,15.93 70.5699982,16.0676653 70.934,16.343 C71.2980018,16.6183347 71.5593325,16.9706645 71.718,17.4 L71.914,16.112 L72.81,16.112 L72.81,22.65 C72.81,23.042002 72.7633338,23.4129983 72.67,23.763 C72.5766662,24.1130018 72.4180011,24.423332 72.194,24.694 C71.9699989,24.964668 71.6713352,25.1793325 71.298,25.338 C70.9246648,25.4966675 70.4580028,25.576 69.898,25.576 C69.2913303,25.576 68.7476691,25.4896675 68.267,25.317 C67.7863309,25.1443325 67.3826683,24.9273346 67.056,24.666 L67.714,23.826 Z M71.648,19.43 C71.648,19.2713325 71.6456667,19.1196674 71.641,18.975 C71.6363333,18.8303326 71.6246668,18.720667 71.606,18.646 C71.5686665,18.4219989 71.5080004,18.2026677 71.424,17.988 C71.3399996,17.7733323 71.2256674,17.5866675 71.081,17.428 C70.9363326,17.2693325 70.759001,17.1410005 70.549,17.043 C70.3389989,16.9449995 70.0940014,16.896 69.814,16.896 C69.5059985,16.896 69.2400011,16.9613327 69.016,17.092 C68.7919989,17.2226673 68.6076674,17.3999989 68.463,17.624 C68.3183326,17.8480011 68.2110004,18.1139985 68.141,18.422 C68.0709997,18.7300015 68.036,19.0566649 68.036,19.402 C68.036,19.7100015 68.0686663,20.0156652 68.134,20.319 C68.1993337,20.6223349 68.3019993,20.8906655 68.442,21.124 C68.5820007,21.3573345 68.7663322,21.5463326 68.995,21.691 C69.2236678,21.8356674 69.5013317,21.908 69.828,21.908 C70.2853356,21.908 70.6539986,21.779668 70.934,21.523 C71.2140014,21.2663321 71.4099994,20.942002 71.522,20.55 C71.5686669,20.4193327 71.6013332,20.256001 71.62,20.06 C71.6386668,19.863999 71.648,19.6773342 71.648,19.5 L71.648,19.43 Z M75.484,19.822 C75.5306669,20.6153373 75.7336649,21.2289978 76.093,21.663 C76.4523351,22.0970022 76.9539968,22.314 77.598,22.314 C78.4100041,22.314 79.0213313,21.9313372 79.432,21.166 L80.314,21.656 C80.043332,22.1133356 79.6840022,22.4866652 79.236,22.776 C78.7879978,23.0653348 78.2233367,23.21 77.542,23.21 C77.000664,23.21 76.527002,23.1166676 76.121,22.93 C75.714998,22.7433324 75.376668,22.4866683 75.106,22.16 C74.835332,21.8333317 74.632334,21.4506689 74.497,21.012 C74.361666,20.5733311 74.294,20.1020025 74.294,19.598 C74.294,19.1033309 74.3593327,18.6320022 74.49,18.184 C74.6206673,17.7359978 74.8189987,17.3440017 75.085,17.008 C75.3510013,16.6719983 75.6776647,16.406001 76.065,16.21 C76.4523353,16.013999 76.9073307,15.916 77.43,15.916 C77.9340025,15.916 78.3726648,16.0116657 78.746,16.203 C79.1193352,16.3943343 79.4296654,16.6509984 79.677,16.973 C79.9243346,17.2950016 80.1109994,17.6683312 80.237,18.093 C80.3630006,18.5176688 80.426,18.9679976 80.426,19.444 C80.426,19.5466672 80.4236667,19.6259997 80.419,19.682 C80.4143333,19.7380003 80.412,19.7846665 80.412,19.822 L75.484,19.822 Z M77.416,16.798 C76.8279971,16.798 76.3730016,17.0079979 76.051,17.428 C75.7289984,17.8480021 75.5446669,18.4126631 75.498,19.122 L79.236,19.122 C79.236,18.8326652 79.2033337,18.5503347 79.138,18.275 C79.0726663,17.9996653 78.9653341,17.7523344 78.816,17.533 C78.6666659,17.3136656 78.4776678,17.136334 78.249,17.001 C78.0203322,16.865666 77.7426683,16.798 77.416,16.798 Z" id="Button-item" fill="#000000"></path>
                    </g>
                    <g id="Group-2" transform="translate(115.000000, 0.000000)">
                        <g id="Rectangle-4">
                            <use fill="#FFFFFF" fill-rule="evenodd" xlink:href="#path-2"></use>
                            <rect stroke="#E0E5E8" stroke-width="1" x="0.5" y="0.5" width="178" height="47"></rect>
                        </g>
                        <g id="Group-7" transform="translate(42.000000, 15.000000)">
                            <rect id="Rectangle-5" fill="#FEF5DA" x="0" y="0" width="57" height="19"></rect>
                            <path d="M0,4 L5.936,4 L5.936,4.98 L1.26,4.98 L1.26,8.424 L4.858,8.424 L4.858,9.39 L1.26,9.39 L1.26,13.884 L0,13.884 L0,4 Z M7.238,4.322 L8.4,4.322 L8.4,5.484 L7.238,5.484 L7.238,4.322 Z M7.238,6.996 L8.4,6.996 L8.4,13.884 L7.238,13.884 L7.238,6.996 Z M10.192,4 L11.354,4 L11.354,13.884 L10.192,13.884 L10.192,4 Z M14.028,10.706 C14.0746669,11.4993373 14.2776649,12.1129978 14.637,12.547 C14.9963351,12.9810022 15.4979968,13.198 16.142,13.198 C16.9540041,13.198 17.5653313,12.8153372 17.976,12.05 L18.858,12.54 C18.587332,12.9973356 18.2280022,13.3706652 17.78,13.66 C17.3319978,13.9493348 16.7673367,14.094 16.086,14.094 C15.544664,14.094 15.071002,14.0006676 14.665,13.814 C14.258998,13.6273324 13.920668,13.3706683 13.65,13.044 C13.379332,12.7173317 13.176334,12.3346689 13.041,11.896 C12.905666,11.4573311 12.838,10.9860025 12.838,10.482 C12.838,9.98733086 12.9033327,9.51600224 13.034,9.068 C13.1646673,8.61999776 13.3629987,8.22800168 13.629,7.892 C13.8950013,7.55599832 14.2216647,7.29000098 14.609,7.094 C14.9963353,6.89799902 15.4513307,6.8 15.974,6.8 C16.4780025,6.8 16.9166648,6.89566571 17.29,7.087 C17.6633352,7.27833429 17.9736654,7.53499839 18.221,7.857 C18.4683346,8.17900161 18.6549994,8.55233121 18.781,8.977 C18.9070006,9.40166879 18.97,9.85199762 18.97,10.328 C18.97,10.4306672 18.9676667,10.5099997 18.963,10.566 C18.9583333,10.6220003 18.956,10.6686665 18.956,10.706 L14.028,10.706 Z M15.96,7.682 C15.3719971,7.682 14.9170016,7.8919979 14.595,8.312 C14.2729984,8.7320021 14.0886669,9.29666312 14.042,10.006 L17.78,10.006 C17.78,9.71666522 17.7473337,9.43433471 17.682,9.159 C17.6166663,8.88366529 17.5093341,8.63633443 17.36,8.417 C17.2106659,8.19766557 17.0216678,8.02033401 16.793,7.885 C16.5643322,7.74966599 16.2866683,7.682 15.96,7.682 Z M23.534,6.996 L24.542,6.996 L24.668,8.368 C24.8453342,7.9479979 25.1276647,7.58166823 25.515,7.269 C25.9023353,6.95633177 26.3806638,6.8 26.95,6.8 C27.6686703,6.8 28.1983316,7.02866438 28.539,7.486 C28.8796684,7.94333562 29.05,8.58266256 29.05,9.404 L29.05,13.884 L27.888,13.884 L27.888,9.642 C27.888,9.01666354 27.7620013,8.55700147 27.51,8.263 C27.2579987,7.96899853 26.9173355,7.822 26.488,7.822 C25.9746641,7.822 25.5476684,8.0319979 25.207,8.452 C24.8663316,8.8720021 24.696,9.46466284 24.696,10.23 L24.696,13.884 L23.534,13.884 L23.534,6.996 Z M35.14,13.884 C35.0373328,13.5479983 34.9766668,13.146669 34.958,12.68 C34.7713324,13.1093355 34.4843353,13.452332 34.097,13.709 C33.7096647,13.965668 33.2500027,14.094 32.718,14.094 C32.0459966,14.094 31.514002,13.9026686 31.122,13.52 C30.729998,13.1373314 30.534,12.6240032 30.534,11.98 C30.534,11.6159982 30.5993327,11.3103346 30.73,11.063 C30.8606673,10.8156654 31.0426655,10.6103341 31.276,10.447 C31.5093345,10.2836658 31.7846651,10.1553338 32.102,10.062 C32.4193349,9.9686662 32.7646648,9.89400028 33.138,9.838 L34.902,9.572 L34.902,9.138 C34.902,8.82999846 34.864667,8.5826676 34.79,8.396 C34.715333,8.2093324 34.6126673,8.06466718 34.482,7.962 C34.3513327,7.85933282 34.2020008,7.79166683 34.034,7.759 C33.8659992,7.72633317 33.6886676,7.71 33.502,7.71 C32.9699973,7.71 32.5313351,7.80799902 32.186,8.004 C31.8406649,8.20000098 31.5513345,8.44733184 31.318,8.746 L30.716,7.99 C30.986668,7.6633317 31.3623309,7.3833345 31.843,7.15 C32.3236691,6.9166655 32.9186631,6.8 33.628,6.8 C34.486671,6.8 35.1096647,6.99133142 35.497,7.374 C35.8843353,7.75666858 36.078,8.37266242 36.078,9.222 L36.078,12.008 C36.078,12.2320011 36.0803333,12.4279992 36.085,12.596 C36.0896667,12.7640008 36.0989999,12.9203326 36.113,13.065 C36.1270001,13.2096674 36.1479999,13.3473327 36.176,13.478 C36.2040001,13.6086673 36.2413331,13.7439993 36.288,13.884 L35.14,13.884 Z M34.902,10.342 L33.25,10.608 C32.6806638,10.7106672 32.2770012,10.8646656 32.039,11.07 C31.8009988,11.2753344 31.682,11.5599982 31.682,11.924 C31.682,12.2973352 31.7916656,12.6099987 32.011,12.862 C32.2303344,13.1140013 32.5546645,13.24 32.984,13.24 C33.2453346,13.24 33.4926655,13.1886672 33.726,13.086 C33.9593345,12.9833328 34.1623325,12.8410009 34.335,12.659 C34.5076675,12.4769991 34.6453328,12.2576679 34.748,12.001 C34.8506672,11.7443321 34.902,11.4620015 34.902,11.154 L34.902,10.342 Z M37.94,6.996 L38.948,6.996 L39.074,8.34 C39.2420008,7.86399762 39.5033316,7.48833471 39.858,7.213 C40.2126684,6.93766529 40.6466641,6.8 41.16,6.8 C41.701336,6.8 42.1259985,6.95399846 42.434,7.262 C42.7420015,7.57000154 42.9379996,7.94333114 43.022,8.382 C43.1060004,8.16733226 43.2109994,7.96433429 43.337,7.773 C43.4630006,7.58166571 43.6146658,7.41366739 43.792,7.269 C43.9693342,7.12433261 44.1746655,7.01000042 44.408,6.926 C44.6413345,6.84199958 44.9073318,6.8 45.206,6.8 C45.598002,6.8 45.9223321,6.86766599 46.179,7.003 C46.435668,7.13833401 46.6409992,7.3226655 46.795,7.556 C46.9490008,7.7893345 47.0586663,8.06233177 47.124,8.375 C47.1893337,8.68766823 47.222,9.01666494 47.222,9.362 L47.222,13.884 L46.06,13.884 L46.06,9.656 C46.06,9.03999692 45.9503344,8.58033485 45.731,8.277 C45.5116656,7.97366515 45.1920021,7.822 44.772,7.822 C44.3146644,7.822 43.9320015,8.02499797 43.624,8.431 C43.3159985,8.83700203 43.162,9.41799622 43.162,10.174 L43.162,13.884 L42,13.884 L42,9.712 C42,9.06799678 41.8880011,8.59200154 41.664,8.284 C41.4399989,7.97599846 41.1273353,7.822 40.726,7.822 C40.2779978,7.822 39.8953349,8.02966459 39.578,8.445 C39.2606651,8.86033541 39.102,9.45999608 39.102,10.244 L39.102,13.884 L37.94,13.884 L37.94,6.996 Z M49.868,10.706 C49.9146669,11.4993373 50.1176649,12.1129978 50.477,12.547 C50.8363351,12.9810022 51.3379968,13.198 51.982,13.198 C52.7940041,13.198 53.4053313,12.8153372 53.816,12.05 L54.698,12.54 C54.427332,12.9973356 54.0680022,13.3706652 53.62,13.66 C53.1719978,13.9493348 52.6073367,14.094 51.926,14.094 C51.384664,14.094 50.911002,14.0006676 50.505,13.814 C50.098998,13.6273324 49.760668,13.3706683 49.49,13.044 C49.219332,12.7173317 49.016334,12.3346689 48.881,11.896 C48.745666,11.4573311 48.678,10.9860025 48.678,10.482 C48.678,9.98733086 48.7433327,9.51600224 48.874,9.068 C49.0046673,8.61999776 49.2029987,8.22800168 49.469,7.892 C49.7350013,7.55599832 50.0616647,7.29000098 50.449,7.094 C50.8363353,6.89799902 51.2913307,6.8 51.814,6.8 C52.3180025,6.8 52.7566648,6.89566571 53.13,7.087 C53.5033352,7.27833429 53.8136654,7.53499839 54.061,7.857 C54.3083346,8.17900161 54.4949994,8.55233121 54.621,8.977 C54.7470006,9.40166879 54.81,9.85199762 54.81,10.328 C54.81,10.4306672 54.8076667,10.5099997 54.803,10.566 C54.7983333,10.6220003 54.796,10.6686665 54.796,10.706 L49.868,10.706 Z M51.8,7.682 C51.2119971,7.682 50.7570016,7.8919979 50.435,8.312 C50.1129984,8.7320021 49.9286669,9.29666312 49.882,10.006 L53.62,10.006 C53.62,9.71666522 53.5873337,9.43433471 53.522,9.159 C53.4566663,8.88366529 53.3493341,8.63633443 53.2,8.417 C53.0506659,8.19766557 52.8616678,8.02033401 52.633,7.885 C52.4043322,7.74966599 52.1266683,7.682 51.8,7.682 Z M56.112,12.512 L57.414,12.512 L57.414,13.884 L56.112,13.884 L56.112,12.512 Z M57.876,15.396 C57.9413337,15.4146668 58.0369994,15.4356666 58.163,15.459 C58.2890006,15.4823335 58.4033328,15.494 58.506,15.494 C58.776668,15.494 58.9539996,15.4146675 59.038,15.256 C59.1220004,15.0973325 59.164,14.8733348 59.164,14.584 L59.164,6.996 L60.34,6.996 L60.34,14.668 C60.34,14.938668 60.3143336,15.1813323 60.263,15.396 C60.2116664,15.6106677 60.1253339,15.7903326 60.004,15.935 C59.8826661,16.0796674 59.7170011,16.1916663 59.507,16.271 C59.2969989,16.3503337 59.0380015,16.39 58.73,16.39 C58.5433324,16.39 58.3660008,16.3760001 58.198,16.348 C58.0299992,16.3199999 57.8853339,16.2780003 57.764,16.222 L57.876,15.396 Z M59.164,4.336 L60.34,4.336 L60.34,5.498 L59.164,5.498 L59.164,4.336 Z M62.132,6.996 L63.294,6.996 L63.294,8.326 C63.3780004,8.12999902 63.4853327,7.9386676 63.616,7.752 C63.7466673,7.5653324 63.9029991,7.4020007 64.085,7.262 C64.2670009,7.1219993 64.4793321,7.01000042 64.722,6.926 C64.9646679,6.84199958 65.2399985,6.8 65.548,6.8 C65.9960022,6.8 66.385665,6.8933324 66.717,7.08 C67.048335,7.2666676 67.3213323,7.5233317 67.536,7.85 C67.7506677,8.1766683 67.9116661,8.55699783 68.019,8.991 C68.1263339,9.42500217 68.18,9.89399748 68.18,10.398 C68.18,10.9953363 68.1100007,11.5226644 67.97,11.98 C67.8299993,12.4373356 67.6340013,12.8199985 67.382,13.128 C67.1299987,13.4360015 66.8360017,13.6693325 66.5,13.828 C66.1639983,13.9866675 65.800002,14.066 65.408,14.066 C64.8946641,14.066 64.4536685,13.9400013 64.085,13.688 C63.7163315,13.4359987 63.4526675,13.1233352 63.294,12.75 L63.294,16.306 L62.132,16.306 L62.132,6.996 Z M63.294,10.482 C63.294,10.678001 63.3009999,10.8576659 63.315,11.021 C63.3290001,11.1843342 63.3453332,11.3219994 63.364,11.434 C63.4013335,11.6580011 63.4713328,11.8726656 63.574,12.078 C63.6766672,12.2833344 63.8026659,12.4629992 63.952,12.617 C64.1013341,12.7710008 64.2763323,12.8946662 64.477,12.988 C64.6776677,13.0813338 64.8993321,13.128 65.142,13.128 C65.4593349,13.128 65.7323322,13.0533341 65.961,12.904 C66.1896678,12.7546659 66.3786659,12.5540013 66.528,12.302 C66.6773341,12.0499987 66.7869997,11.7630016 66.857,11.441 C66.9270003,11.1189984 66.962,10.7853351 66.962,10.44 C66.962,10.0946649 66.9293337,9.76100161 66.864,9.439 C66.7986663,9.11699839 66.6936674,8.83233457 66.549,8.585 C66.4043326,8.33766543 66.2153345,8.13933408 65.982,7.99 C65.7486655,7.84066592 65.4686683,7.766 65.142,7.766 C64.8899987,7.766 64.6590011,7.8126662 64.449,7.906 C64.2389989,7.9993338 64.0593341,8.12533254 63.91,8.284 C63.7606659,8.44266746 63.6370005,8.62466564 63.539,8.83 C63.4409995,9.03533436 63.3780001,9.24999888 63.35,9.474 C63.3313332,9.5673338 63.3173334,9.69566585 63.308,9.859 C63.2986666,10.0223341 63.294,10.2113323 63.294,10.426 L63.294,10.482 Z M70.224,14.71 C70.494668,14.9713346 70.8189981,15.1789992 71.197,15.333 C71.5750019,15.4870008 71.9786645,15.564 72.408,15.564 C72.7626684,15.564 73.0519989,15.5103339 73.276,15.403 C73.5000011,15.2956661 73.6773327,15.1486676 73.808,14.962 C73.9386673,14.7753324 74.0296664,14.5630012 74.081,14.325 C74.1323336,14.0869988 74.158,13.832668 74.158,13.562 L74.158,12.288 C73.9806658,12.7080021 73.7146684,13.0463321 73.36,13.303 C73.0053316,13.559668 72.5480028,13.688 71.988,13.688 C71.5866647,13.688 71.2226683,13.6110008 70.896,13.457 C70.5693317,13.3029992 70.2893345,13.0813348 70.056,12.792 C69.8226655,12.5026652 69.6430006,12.1480021 69.517,11.728 C69.3909994,11.3079979 69.328,10.8366693 69.328,10.314 C69.328,9.8006641 69.3909994,9.32933548 69.517,8.9 C69.6430006,8.47066452 69.8249988,8.10200154 70.063,7.794 C70.3010012,7.48599846 70.5903316,7.24566753 70.931,7.073 C71.2716684,6.90033247 71.6519979,6.814 72.072,6.814 C72.6226694,6.814 73.0799982,6.95166529 73.444,7.227 C73.8080018,7.50233471 74.0693325,7.85466452 74.228,8.284 L74.424,6.996 L75.32,6.996 L75.32,13.534 C75.32,13.926002 75.2733338,14.2969983 75.18,14.647 C75.0866662,14.9970018 74.9280011,15.307332 74.704,15.578 C74.4799989,15.848668 74.1813352,16.0633325 73.808,16.222 C73.4346648,16.3806675 72.9680028,16.46 72.408,16.46 C71.8013303,16.46 71.2576691,16.3736675 70.777,16.201 C70.2963309,16.0283325 69.8926683,15.8113346 69.566,15.55 L70.224,14.71 Z M74.158,10.314 C74.158,10.1553325 74.1556667,10.0036674 74.151,9.859 C74.1463333,9.71433261 74.1346668,9.60466704 74.116,9.53 C74.0786665,9.30599888 74.0180004,9.08666774 73.934,8.872 C73.8499996,8.65733226 73.7356674,8.47066746 73.591,8.312 C73.4463326,8.15333254 73.269001,8.02500049 73.059,7.927 C72.8489989,7.82899951 72.6040014,7.78 72.324,7.78 C72.0159985,7.78 71.7500011,7.84533268 71.526,7.976 C71.3019989,8.10666732 71.1176674,8.28399888 70.973,8.508 C70.8283326,8.73200112 70.7210003,8.99799846 70.651,9.306 C70.5809996,9.61400154 70.546,9.94066494 70.546,10.286 C70.546,10.5940015 70.5786663,10.8996652 70.644,11.203 C70.7093337,11.5063349 70.8119993,11.7746655 70.952,12.008 C71.0920007,12.2413345 71.2763322,12.4303326 71.505,12.575 C71.7336678,12.7196674 72.0113317,12.792 72.338,12.792 C72.7953356,12.792 73.1639986,12.663668 73.444,12.407 C73.7240014,12.1503321 73.9199994,11.826002 74.032,11.434 C74.0786669,11.3033327 74.1113332,11.140001 74.13,10.944 C74.1486668,10.747999 74.158,10.5613342 74.158,10.384 L74.158,10.314 Z" id="File-name.jpg" fill="#000000"></path>
                        </g>
                        <g id="X" transform="translate(151.000000, 18.000000)" fill="#4C5358">
                            <path d="M11.8341014,10.8940092 L10.9493088,11.7788018 C10.8387097,11.8894009 10.6728111,12 10.5069124,12 C10.3410138,12 10.1751152,11.9447005 10.0645161,11.7788018 L0.221198157,1.93548387 C0.110599078,1.82488479 0,1.65898618 0,1.49308756 C0,1.32718894 0.110599078,1.21658986 0.221198157,1.10599078 L1.10599078,0.221198157 C1.21658986,0.0552995392 1.38248848,0 1.5483871,0 C1.71428571,0 1.88018433,0.0552995392 1.99078341,0.221198157 L11.7788018,10.0092166 C11.8894009,10.1198157 12,10.2857143 12,10.4516129 C12,10.6175115 11.9447005,10.7834101 11.8341014,10.8940092" id="Fill-1"></path>
                            <path d="M10.8990826,0.165898618 L11.7798165,1.10599078 C11.8899083,1.21658986 12,1.38248848 12,1.5483871 C11.9449541,1.76958525 11.8899083,1.88018433 11.7798165,1.99078341 L1.98165138,11.7788018 C1.87155963,11.8894009 1.70642202,12 1.5412844,12 C1.37614679,12 1.21100917,11.9447005 1.10091743,11.7788018 L0.220183486,10.8940092 C0.110091743,10.7834101 0,10.6175115 0,10.4516129 C0,10.2857143 0.0550458716,10.1198157 0.220183486,10.0092166 L10.0183486,0.221198157 C10.1284404,0.110599078 10.293578,0 10.4587156,0 C10.5688073,0.0552995392 10.7889908,0.0552995392 10.8990826,0.165898618" id="Fill-3"></path>
                        </g>
                        <g id="Placeholder-image-color-(1)" transform="translate(11.000000, 13.000000)" fill-rule="nonzero" fill="#F1F1F1">
                            <polyline id="Shape" points="20.3333333 17.3258536 16.202506 8 12.9578195 13.5796108 11.1048773 10.3929635 8.59512852 14.7087748 7.22699221 12.3568114 4.33333333 17.3333333"></polyline>
                            <circle id="Oval" cx="6.66666667" cy="9.33333333" r="1.33333333"></circle>
                            <path d="M22.290119,0 L1.71071752,0 C0.766892616,0 0,0.791406595 0,1.77213235 L0,20.8974514 C0,21.8738015 0.766892616,22.6666667 1.71071752,22.6666667 L9.53257569,22.6666667 L14.4674236,22.6666667 L22.2890027,22.6666667 C23.2328276,22.6666667 23.9999993,21.8735098 23.9999993,20.8974514 L23.9999993,12.7818145 L23.9999993,10.5146519 L23.9999993,1.77213235 C24.0008365,0.791406595 23.234223,0 22.290119,0 Z M2.09416383,20.2696936 L2.09416383,2.39026378 L21.9052773,2.39026378 L21.9052773,20.2696936 L2.09416383,20.2696936 Z" id="Shape"></path>
                        </g>
                    </g>
                </g>
            </g>
        </g>
    </g>
</svg>