<?xml version="1.0" encoding="UTF-8"?>
<svg width="200px" height="43px" viewBox="0 0 200 43" version="1.1" xmlns="http://www.w3.org/2000/svg" xmlns:xlink="http://www.w3.org/1999/xlink">
    <!-- Generator: Sketch 47.1 (45422) - http://www.bohemiancoding.com/sketch -->
    <title>Your Age</title>
    <desc>Created with Sketch.</desc>
    <defs></defs>
    <g id="Page-1" stroke="none" stroke-width="1" fill="none" fill-rule="evenodd">
        <g id="Buttons-Usage-extra-large-1200" transform="translate(-851.000000, -1471.000000)">
            <g id="Group-5" transform="translate(301.000000, 1429.000000)">
                <g id="Your-Age" transform="translate(550.000000, 39.000000)">
                    <g id="Group">
                        <g id="Group-2">
                            <path d="M3.654,8.534 L0.308,3.116 L1.75,3.116 L4.298,7.554 L6.916,3.116 L8.344,3.116 L4.914,8.534 L4.914,13 L3.654,13 L3.654,8.534 Z M11.284,13.21 C10.7613307,13.21 10.3016686,13.1143343 9.905,12.923 C9.50833135,12.7316657 9.17700133,12.470335 8.911,12.139 C8.64499867,11.807665 8.44666732,11.4203355 8.316,10.977 C8.18533268,10.5336644 8.12,10.0553359 8.12,9.542 C8.12,9.0286641 8.18766599,8.55266886 8.323,8.114 C8.45833401,7.67533114 8.65899867,7.2926683 8.925,6.966 C9.19100133,6.6393317 9.52233135,6.3826676 9.919,6.196 C10.3156687,6.0093324 10.7706641,5.916 11.284,5.916 C11.7973359,5.916 12.2523314,6.0093324 12.649,6.196 C13.0456686,6.3826676 13.379332,6.63699839 13.65,6.959 C13.920668,7.28100161 14.123666,7.66366445 14.259,8.107 C14.394334,8.55033555 14.462,9.0286641 14.462,9.542 C14.462,10.0553359 14.394334,10.5336644 14.259,10.977 C14.123666,11.4203355 13.920668,11.807665 13.65,12.139 C13.379332,12.470335 13.0456686,12.7316657 12.649,12.923 C12.2523314,13.1143343 11.7973359,13.21 11.284,13.21 Z M11.312,12.3 C11.6293349,12.3 11.9093321,12.2300007 12.152,12.09 C12.3946679,11.9499993 12.5953325,11.7563346 12.754,11.509 C12.9126675,11.2616654 13.0339996,10.9700017 13.118,10.634 C13.2020004,10.2979983 13.244,9.93400196 13.244,9.542 C13.244,9.14999804 13.2020004,8.78833499 13.118,8.457 C13.0339996,8.12566501 12.9080008,7.83866788 12.74,7.596 C12.5719992,7.35333212 12.3666679,7.16433401 12.124,7.029 C11.8813321,6.89366599 11.6013349,6.826 11.284,6.826 C10.9573317,6.826 10.6726679,6.89366599 10.43,7.029 C10.1873321,7.16433401 9.98666746,7.35333212 9.828,7.596 C9.66933254,7.83866788 9.54800042,8.12566501 9.464,8.457 C9.37999958,8.78833499 9.338,9.14999804 9.338,9.542 C9.338,9.93400196 9.37999958,10.2979983 9.464,10.634 C9.54800042,10.9700017 9.67166585,11.2616654 9.835,11.509 C9.99833415,11.7563346 10.2036654,11.9499993 10.451,12.09 C10.6983346,12.2300007 10.9853317,12.3 11.312,12.3 Z M15.918,6.112 L17.094,6.112 L17.094,10.284 C17.094,10.9373366 17.2153321,11.4156652 17.458,11.719 C17.7006679,12.0223349 18.0413311,12.174 18.48,12.174 C19.0400028,12.174 19.4763318,11.9523355 19.789,11.509 C20.1016682,11.0656644 20.258,10.475337 20.258,9.738 L20.258,6.112 L21.42,6.112 L21.42,13 L20.328,13 L20.328,11.6 C20.2439996,11.8146677 20.1413339,12.0176657 20.02,12.209 C19.8986661,12.4003343 19.7493342,12.5683326 19.572,12.713 C19.3946658,12.8576674 19.1893345,12.9719996 18.956,13.056 C18.7226655,13.1400004 18.4473349,13.182 18.13,13.182 C17.3833296,13.182 16.8280018,12.9556689 16.464,12.503 C16.0999982,12.0503311 15.918,11.4086708 15.918,10.578 L15.918,6.112 Z M23.212,6.112 L24.22,6.112 L24.332,7.652 C24.528001,7.14799748 24.8406645,6.7326683 25.27,6.406 C25.6993355,6.0793317 26.2079971,5.916 26.796,5.916 L26.796,7.148 C26.6653327,7.11999986 26.5206675,7.106 26.362,7.106 C26.1286655,7.106 25.8953345,7.14799958 25.662,7.232 C25.4286655,7.31600042 25.2163343,7.4513324 25.025,7.638 C24.8336657,7.8246676 24.6773339,8.06499853 24.556,8.359 C24.4346661,8.65300147 24.374,9.0099979 24.374,9.43 L24.374,13 L23.212,13 L23.212,6.112 Z M35.42,13 C35.3173328,12.6639983 35.2566668,12.262669 35.238,11.796 C35.0513324,12.2253355 34.7643353,12.568332 34.377,12.825 C33.9896647,13.0816679 33.5300027,13.21 32.998,13.21 C32.3259966,13.21 31.794002,13.0186686 31.402,12.636 C31.009998,12.2533314 30.814,11.7400032 30.814,11.096 C30.814,10.7319982 30.8793327,10.4263346 31.01,10.179 C31.1406673,9.93166543 31.3226655,9.72633415 31.556,9.563 C31.7893345,9.39966585 32.0646651,9.2713338 32.382,9.178 C32.6993349,9.0846662 33.0446648,9.01000028 33.418,8.954 L35.182,8.688 L35.182,8.254 C35.182,7.94599846 35.144667,7.6986676 35.07,7.512 C34.995333,7.3253324 34.8926673,7.18066718 34.762,7.078 C34.6313327,6.97533282 34.4820008,6.90766683 34.314,6.875 C34.1459992,6.84233317 33.9686676,6.826 33.782,6.826 C33.2499973,6.826 32.8113351,6.92399902 32.466,7.12 C32.1206649,7.31600098 31.8313345,7.56333184 31.598,7.862 L30.996,7.106 C31.266668,6.7793317 31.6423309,6.4993345 32.123,6.266 C32.6036691,6.0326655 33.1986631,5.916 33.908,5.916 C34.766671,5.916 35.3896647,6.10733142 35.777,6.49 C36.1643353,6.87266858 36.358,7.48866242 36.358,8.338 L36.358,11.124 C36.358,11.3480011 36.3603333,11.5439992 36.365,11.712 C36.3696667,11.8800008 36.3789999,12.0363326 36.393,12.181 C36.4070001,12.3256674 36.4279999,12.4633327 36.456,12.594 C36.4840001,12.7246673 36.5213331,12.8599993 36.568,13 L35.42,13 Z M35.182,9.458 L33.53,9.724 C32.9606638,9.82666718 32.5570012,9.98066564 32.319,10.186 C32.0809988,10.3913344 31.962,10.6759982 31.962,11.04 C31.962,11.4133352 32.0716656,11.7259987 32.291,11.978 C32.5103344,12.2300013 32.8346645,12.356 33.264,12.356 C33.5253346,12.356 33.7726655,12.3046672 34.006,12.202 C34.2393345,12.0993328 34.4423325,11.9570009 34.615,11.775 C34.7876675,11.5929991 34.9253328,11.373668 35.028,11.117 C35.1306672,10.8603321 35.182,10.5780015 35.182,10.27 L35.182,9.458 Z M38.78,13.826 C39.050668,14.0873346 39.3749981,14.2949992 39.753,14.449 C40.1310019,14.6030008 40.5346645,14.68 40.964,14.68 C41.3186684,14.68 41.6079989,14.6263339 41.832,14.519 C42.0560011,14.4116661 42.2333327,14.2646676 42.364,14.078 C42.4946673,13.8913324 42.5856664,13.6790012 42.637,13.441 C42.6883336,13.2029988 42.714,12.948668 42.714,12.678 L42.714,11.404 C42.5366658,11.8240021 42.2706684,12.162332 41.916,12.419 C41.5613316,12.675668 41.1040028,12.804 40.544,12.804 C40.1426647,12.804 39.7786683,12.7270008 39.452,12.573 C39.1253317,12.4189992 38.8453345,12.1973348 38.612,11.908 C38.3786655,11.6186652 38.1990006,11.2640021 38.073,10.844 C37.9469994,10.4239979 37.884,9.95266928 37.884,9.43 C37.884,8.9166641 37.9469994,8.44533548 38.073,8.016 C38.1990006,7.58666452 38.3809988,7.21800154 38.619,6.91 C38.8570012,6.60199846 39.1463316,6.36166753 39.487,6.189 C39.8276684,6.01633247 40.2079979,5.93 40.628,5.93 C41.1786694,5.93 41.6359982,6.06766529 42,6.343 C42.3640018,6.61833471 42.6253325,6.97066452 42.784,7.4 L42.98,6.112 L43.876,6.112 L43.876,12.65 C43.876,13.042002 43.8293338,13.4129983 43.736,13.763 C43.6426662,14.1130018 43.4840011,14.423332 43.26,14.694 C43.0359989,14.964668 42.7373352,15.1793325 42.364,15.338 C41.9906648,15.4966675 41.5240028,15.576 40.964,15.576 C40.3573303,15.576 39.8136691,15.4896675 39.333,15.317 C38.8523309,15.1443325 38.4486683,14.9273346 38.122,14.666 L38.78,13.826 Z M42.714,9.43 C42.714,9.27133254 42.7116667,9.11966739 42.707,8.975 C42.7023333,8.83033261 42.6906668,8.72066704 42.672,8.646 C42.6346665,8.42199888 42.5740004,8.20266774 42.49,7.988 C42.4059996,7.77333226 42.2916674,7.58666746 42.147,7.428 C42.0023326,7.26933254 41.825001,7.14100049 41.615,7.043 C41.4049989,6.94499951 41.1600014,6.896 40.88,6.896 C40.5719985,6.896 40.3060011,6.96133268 40.082,7.092 C39.8579989,7.22266732 39.6736674,7.39999888 39.529,7.624 C39.3843326,7.84800112 39.2770003,8.11399846 39.207,8.422 C39.1369996,8.73000154 39.102,9.05666494 39.102,9.402 C39.102,9.71000154 39.1346663,10.0156652 39.2,10.319 C39.2653337,10.6223348 39.3679993,10.8906655 39.508,11.124 C39.6480007,11.3573345 39.8323322,11.5463326 40.061,11.691 C40.2896678,11.8356674 40.5673317,11.908 40.894,11.908 C41.3513356,11.908 41.7199986,11.779668 42,11.523 C42.2800014,11.2663321 42.4759994,10.942002 42.588,10.55 C42.6346669,10.4193327 42.6673332,10.256001 42.686,10.06 C42.7046668,9.86399902 42.714,9.67733422 42.714,9.5 L42.714,9.43 Z M46.55,9.822 C46.5966669,10.6153373 46.7996649,11.2289978 47.159,11.663 C47.5183351,12.0970022 48.0199968,12.314 48.664,12.314 C49.4760041,12.314 50.0873313,11.9313372 50.498,11.166 L51.38,11.656 C51.109332,12.1133356 50.7500022,12.4866652 50.302,12.776 C49.8539978,13.0653348 49.2893367,13.21 48.608,13.21 C48.066664,13.21 47.593002,13.1166676 47.187,12.93 C46.780998,12.7433324 46.442668,12.4866683 46.172,12.16 C45.901332,11.8333317 45.698334,11.4506689 45.563,11.012 C45.427666,10.5733311 45.36,10.1020025 45.36,9.598 C45.36,9.10333086 45.4253327,8.63200224 45.556,8.184 C45.6866673,7.73599776 45.8849987,7.34400168 46.151,7.008 C46.4170013,6.67199832 46.7436647,6.40600098 47.131,6.21 C47.5183353,6.01399902 47.9733307,5.916 48.496,5.916 C49.0000025,5.916 49.4386648,6.01166571 49.812,6.203 C50.1853352,6.39433429 50.4956654,6.65099839 50.743,6.973 C50.9903346,7.29500161 51.1769994,7.66833121 51.303,8.093 C51.4290006,8.51766879 51.492,8.96799762 51.492,9.444 C51.492,9.54666718 51.4896667,9.62599972 51.485,9.682 C51.4803333,9.73800028 51.478,9.78466648 51.478,9.822 L46.55,9.822 Z M48.482,6.798 C47.8939971,6.798 47.4390016,7.0079979 47.117,7.428 C46.7949984,7.8480021 46.6106669,8.41266312 46.564,9.122 L50.302,9.122 C50.302,8.83266522 50.2693337,8.55033471 50.204,8.275 C50.1386663,7.99966529 50.0313341,7.75233443 49.882,7.533 C49.7326659,7.31366557 49.5436678,7.13633401 49.315,7.001 C49.0863322,6.86566599 48.8086683,6.798 48.482,6.798 Z" id="Your-age" fill="#4C5358"></path>
                            <path d="M0.5,45.5 L199.5,45.5" id="Line" stroke="#979797" stroke-linecap="square"></path>
                        </g>
                        <path d="M1.52,34.392 C1.85066832,34.8826691 2.29866384,35.2799985 2.864,35.584 C3.42933616,35.8880015 4.09599616,36.04 4.864,36.04 C5.22666848,36.04 5.56533176,35.9920005 5.88,35.896 C6.19466824,35.7999995 6.46666552,35.6613342 6.696,35.48 C6.92533448,35.2986658 7.10399936,35.0773346 7.232,34.816 C7.36000064,34.5546654 7.424,34.2640016 7.424,33.944 C7.424,33.6133317 7.34666744,33.3360011 7.192,33.112 C7.03733256,32.8879989 6.826668,32.6986674 6.56,32.544 C6.293332,32.3893326 5.97600184,32.2533339 5.608,32.136 C5.23999816,32.0186661 4.8426688,31.9013339 4.416,31.784 C3.9359976,31.6453326 3.49066872,31.4906675 3.08,31.32 C2.66933128,31.1493325 2.31466816,30.9386679 2.016,30.688 C1.71733184,30.4373321 1.48266752,30.1440017 1.312,29.808 C1.14133248,29.4719983 1.056,29.0693357 1.056,28.6 C1.056,28.1199976 1.1493324,27.6880019 1.336,27.304 C1.5226676,26.9199981 1.78666496,26.5920014 2.128,26.32 C2.46933504,26.0479986 2.87199768,25.8373341 3.336,25.688 C3.80000232,25.5386659 4.31466384,25.464 4.88,25.464 C5.65867056,25.464 6.37866336,25.5946654 7.04,25.856 C7.70133664,26.1173346 8.26666432,26.5039974 8.736,27.016 L7.76,27.928 C7.41866496,27.5546648 7.00000248,27.2506678 6.504,27.016 C6.00799752,26.7813322 5.46133632,26.664 4.864,26.664 C4.18132992,26.664 3.62400216,26.8106652 3.192,27.104 C2.75999784,27.3973348 2.544,27.8426637 2.544,28.44 C2.544,28.7386682 2.610666,28.9946656 2.744,29.208 C2.877334,29.4213344 3.0639988,29.6079992 3.304,29.768 C3.5440012,29.9280008 3.82666504,30.0693327 4.152,30.192 C4.47733496,30.3146673 4.83733136,30.4293328 5.232,30.536 C5.8186696,30.6960008 6.34133104,30.8693324 6.8,31.056 C7.25866896,31.2426676 7.64266512,31.4639987 7.952,31.72 C8.26133488,31.9760013 8.4959992,32.2719983 8.656,32.608 C8.8160008,32.9440017 8.896,33.3359978 8.896,33.784 C8.896,34.3280027 8.7893344,34.8159978 8.576,35.248 C8.3626656,35.6800022 8.07200184,36.0426652 7.704,36.336 C7.33599816,36.6293348 6.90400248,36.8533326 6.408,37.008 C5.91199752,37.1626674 5.38666944,37.24 4.832,37.24 C3.80799488,37.24 2.94400352,37.077335 2.24,36.752 C1.53599648,36.426665 0.9706688,35.960003 0.544,35.352 L1.52,34.392 Z M11.568,33.368 C11.6213336,34.2746712 11.8533313,34.9759975 12.264,35.472 C12.6746687,35.9680025 13.2479963,36.216 13.984,36.216 C14.9120046,36.216 15.6106643,35.778671 16.08,34.904 L17.088,35.464 C16.7786651,35.9866693 16.3680026,36.4133317 15.856,36.744 C15.3439974,37.0746683 14.6986706,37.24 13.92,37.24 C13.3013302,37.24 12.7600023,37.1333344 12.296,36.92 C11.8319977,36.7066656 11.4453349,36.4133352 11.136,36.04 C10.8266651,35.6666648 10.5946674,35.2293358 10.44,34.728 C10.2853326,34.2266642 10.208,33.6880029 10.208,33.112 C10.208,32.5466638 10.2826659,32.0080026 10.432,31.496 C10.5813341,30.9839974 10.8079985,30.5360019 11.112,30.152 C11.4160015,29.7679981 11.7893311,29.4640011 12.232,29.24 C12.6746689,29.0159989 13.1946637,28.904 13.792,28.904 C14.3680029,28.904 14.8693312,29.0133322 15.296,29.232 C15.7226688,29.4506678 16.0773319,29.7439982 16.36,30.112 C16.6426681,30.4800018 16.8559993,30.9066642 17,31.392 C17.1440007,31.8773358 17.216,32.3919973 17.216,32.936 C17.216,33.0533339 17.2133334,33.1439997 17.208,33.208 C17.2026666,33.2720003 17.2,33.3253331 17.2,33.368 L11.568,33.368 Z M13.776,29.912 C13.1039966,29.912 12.5840018,30.1519976 12.216,30.632 C11.8479982,31.1120024 11.6373336,31.7573293 11.584,32.568 L15.856,32.568 C15.856,32.2373317 15.818667,31.9146682 15.744,31.6 C15.669333,31.2853318 15.5466675,31.0026679 15.376,30.752 C15.2053325,30.5013321 14.9893346,30.2986674 14.728,30.144 C14.4666654,29.9893326 14.1493352,29.912 13.776,29.912 Z M18.832,25.704 L20.16,25.704 L20.16,37 L18.832,37 L18.832,25.704 Z M23.216,33.368 C23.2693336,34.2746712 23.5013313,34.9759975 23.912,35.472 C24.3226687,35.9680025 24.8959963,36.216 25.632,36.216 C26.5600046,36.216 27.2586643,35.778671 27.728,34.904 L28.736,35.464 C28.4266651,35.9866693 28.0160026,36.4133317 27.504,36.744 C26.9919974,37.0746683 26.3466706,37.24 25.568,37.24 C24.9493302,37.24 24.4080023,37.1333344 23.944,36.92 C23.4799977,36.7066656 23.0933349,36.4133352 22.784,36.04 C22.4746651,35.6666648 22.2426674,35.2293358 22.088,34.728 C21.9333326,34.2266642 21.856,33.6880029 21.856,33.112 C21.856,32.5466638 21.9306659,32.0080026 22.08,31.496 C22.2293341,30.9839974 22.4559985,30.5360019 22.76,30.152 C23.0640015,29.7679981 23.4373311,29.4640011 23.88,29.24 C24.3226689,29.0159989 24.8426637,28.904 25.44,28.904 C26.0160029,28.904 26.5173312,29.0133322 26.944,29.232 C27.3706688,29.4506678 27.7253319,29.7439982 28.008,30.112 C28.2906681,30.4800018 28.5039993,30.9066642 28.648,31.392 C28.7920007,31.8773358 28.864,32.3919973 28.864,32.936 C28.864,33.0533339 28.8613334,33.1439997 28.856,33.208 C28.8506666,33.2720003 28.848,33.3253331 28.848,33.368 L23.216,33.368 Z M25.424,29.912 C24.7519966,29.912 24.2320018,30.1519976 23.864,30.632 C23.4959982,31.1120024 23.2853336,31.7573293 23.232,32.568 L27.504,32.568 C27.504,32.2373317 27.466667,31.9146682 27.392,31.6 C27.317333,31.2853318 27.1946675,31.0026679 27.024,30.752 C26.8533325,30.5013321 26.6373346,30.2986674 26.376,30.144 C26.1146654,29.9893326 25.7973352,29.912 25.424,29.912 Z M37.056,35.272 C36.7359984,35.9120032 36.3066694,36.3999983 35.768,36.736 C35.2293306,37.0720017 34.5760038,37.24 33.808,37.24 C33.1786635,37.24 32.6320023,37.1306678 32.168,36.912 C31.7039977,36.6933322 31.3200015,36.3973352 31.016,36.024 C30.7119985,35.6506648 30.4880007,35.2106692 30.344,34.704 C30.1999993,34.1973308 30.128,33.6560029 30.128,33.08 C30.128,32.4933304 30.2053326,31.9466692 30.36,31.44 C30.5146674,30.9333308 30.7439985,30.4933352 31.048,30.12 C31.3520015,29.7466648 31.733331,29.4506678 32.192,29.232 C32.650669,29.0133322 33.1893302,28.904 33.808,28.904 C34.5866706,28.904 35.2346641,29.0773316 35.752,29.424 C36.2693359,29.7706684 36.6879984,30.2586635 37.008,30.888 L35.888,31.416 C35.4826646,30.4346618 34.8000048,29.944 33.84,29.944 C33.4346646,29.944 33.0853348,30.0239992 32.792,30.184 C32.4986652,30.3440008 32.2586676,30.5626653 32.072,30.84 C31.8853324,31.1173347 31.7466671,31.4399982 31.656,31.808 C31.5653329,32.1760018 31.52,32.5733312 31.52,33 C31.52,33.4053354 31.5626662,33.7999981 31.648,34.184 C31.7333338,34.5680019 31.871999,34.9093318 32.064,35.208 C32.256001,35.5066682 32.5013318,35.7466658 32.8,35.928 C33.0986682,36.1093342 33.4666645,36.2 33.904,36.2 C34.4586694,36.2 34.906665,36.0586681 35.248,35.776 C35.589335,35.4933319 35.8506658,35.1280022 36.032,34.68 L37.056,35.272 Z M39.216,30.04 L37.872,30.04 L37.872,29.128 L38.16,29.128 C38.4906683,29.128 38.7493324,29.0933337 38.936,29.024 C39.1226676,28.9546663 39.2639995,28.8480007 39.36,28.704 C39.4560005,28.5599993 39.5253331,28.3706678 39.568,28.136 C39.6106669,27.9013322 39.6479998,27.613335 39.68,27.272 L39.712,26.984 L40.544,26.984 L40.544,29.128 L42.24,29.128 L42.24,30.04 L40.544,30.04 L40.544,34.936 C40.544,35.3840022 40.610666,35.7066657 40.744,35.904 C40.877334,36.1013343 41.1253315,36.2 41.488,36.2 C41.7760014,36.2 42.0426654,36.1360006 42.288,36.008 L42.432,36.968 C42.0266646,37.1493342 41.5786691,37.24 41.088,37.24 C40.7039981,37.24 40.3920012,37.1866672 40.152,37.08 C39.9119988,36.9733328 39.7226674,36.8293342 39.584,36.648 C39.4453326,36.4666658 39.3493336,36.2480013 39.296,35.992 C39.2426664,35.7359987 39.216,35.4586682 39.216,35.16 L39.216,30.04 Z M47.44,29.128 L48.592,29.128 L48.736,30.696 C48.9386677,30.2159976 49.2613311,29.7973351 49.704,29.44 C50.1466689,29.0826649 50.6933301,28.904 51.344,28.904 C52.1653374,28.904 52.7706647,29.1653307 53.16,29.688 C53.5493353,30.2106693 53.744,30.9413286 53.744,31.88 L53.744,37 L52.416,37 L52.416,32.152 C52.416,31.4373298 52.2720014,30.9120017 51.984,30.576 C51.6959986,30.2399983 51.3066691,30.072 50.816,30.072 C50.2293304,30.072 49.7413353,30.3119976 49.352,30.792 C48.9626647,31.2720024 48.768,31.949329 48.768,32.824 L48.768,37 L47.44,37 L47.44,29.128 Z M55.728,29.128 L57.072,29.128 L57.072,33.896 C57.072,34.6426704 57.2106653,35.1893316 57.488,35.536 C57.7653347,35.8826684 58.1546642,36.056 58.656,36.056 C59.2960032,36.056 59.7946649,35.8026692 60.152,35.296 C60.5093351,34.7893308 60.688,34.1146709 60.688,33.272 L60.688,29.128 L62.016,29.128 L62.016,37 L60.768,37 L60.768,35.4 C60.6719995,35.6453346 60.5546674,35.8773322 60.416,36.096 C60.2773326,36.3146678 60.1066677,36.5066658 59.904,36.672 C59.7013323,36.8373342 59.466668,36.9679995 59.2,37.064 C58.933332,37.1600005 58.6186685,37.208 58.256,37.208 C57.4026624,37.208 56.7680021,36.9493359 56.352,36.432 C55.9359979,35.9146641 55.728,35.1813381 55.728,34.232 L55.728,29.128 Z M64.064,29.128 L65.216,29.128 L65.36,30.664 C65.552001,30.1199973 65.8506646,29.6906682 66.256,29.376 C66.6613354,29.0613318 67.1573304,28.904 67.744,28.904 C68.3626698,28.904 68.8479982,29.0799982 69.2,29.432 C69.5520018,29.7840018 69.7759995,30.2106642 69.872,30.712 C69.9680005,30.4666654 70.0879993,30.2346678 70.232,30.016 C70.3760007,29.7973322 70.5493323,29.6053342 70.752,29.44 C70.9546677,29.2746658 71.189332,29.1440005 71.456,29.048 C71.722668,28.9519995 72.026665,28.904 72.368,28.904 C72.8160022,28.904 73.1866652,28.9813326 73.48,29.136 C73.7733348,29.2906674 74.0079991,29.501332 74.184,29.768 C74.3600009,30.034668 74.485333,30.3466649 74.56,30.704 C74.634667,31.0613351 74.672,31.4373314 74.672,31.832 L74.672,37 L73.344,37 L73.344,32.168 C73.344,31.4639965 73.2186679,30.9386684 72.968,30.592 C72.7173321,30.2453316 72.3520024,30.072 71.872,30.072 C71.3493307,30.072 70.9120018,30.3039977 70.56,30.768 C70.2079982,31.2320023 70.032,31.8959957 70.032,32.76 L70.032,37 L68.704,37 L68.704,32.232 C68.704,31.4959963 68.5760013,30.9520018 68.32,30.6 C68.0639987,30.2479982 67.706669,30.072 67.248,30.072 C66.7359974,30.072 66.2986685,30.309331 65.936,30.784 C65.5733315,31.258669 65.392,31.9439955 65.392,32.84 L65.392,37 L64.064,37 L64.064,29.128 Z M76.688,25.704 L78.016,25.704 L78.016,30.52 C78.2293344,30.0719978 78.5466646,29.6906682 78.968,29.376 C79.3893354,29.0613318 79.9146635,28.904 80.544,28.904 C81.002669,28.904 81.4213314,28.999999 81.8,29.192 C82.1786686,29.384001 82.501332,29.6586649 82.768,30.016 C83.034668,30.3733351 83.2399993,30.8026642 83.384,31.304 C83.5280007,31.8053358 83.6,32.3653302 83.6,32.984 C83.6,33.592003 83.5280007,34.1546641 83.384,34.672 C83.2399993,35.1893359 83.034668,35.6346648 82.768,36.008 C82.501332,36.3813352 82.1733353,36.6746656 81.784,36.888 C81.3946647,37.1013344 80.9546691,37.208 80.464,37.208 C79.8879971,37.208 79.3760022,37.0613348 78.928,36.768 C78.4799978,36.4746652 78.1440011,36.0560027 77.92,35.512 L77.76,37 L76.688,37 L76.688,25.704 Z M78.016,33.096 C78.016,33.3306678 78.0239999,33.5413324 78.04,33.728 C78.0560001,33.9146676 78.0746666,34.0719994 78.096,34.2 C78.1386669,34.4560013 78.2186661,34.7013322 78.336,34.936 C78.4533339,35.1706678 78.5973325,35.3759991 78.768,35.552 C78.9386675,35.7280009 79.1386655,35.8693328 79.368,35.976 C79.5973345,36.0826672 79.8506653,36.136 80.128,36.136 C80.4906685,36.136 80.8026654,36.0480009 81.064,35.872 C81.3253346,35.6959991 81.5413325,35.4640014 81.712,35.176 C81.8826675,34.8879986 82.0079996,34.5600018 82.088,34.192 C82.1680004,33.8239982 82.208,33.4480019 82.208,33.064 C82.208,32.6693314 82.1653338,32.2880018 82.08,31.92 C81.9946662,31.5519982 81.8666675,31.2266681 81.696,30.944 C81.5253325,30.6613319 81.306668,30.4346675 81.04,30.264 C80.773332,30.0933325 80.4586685,30.008 80.096,30.008 C79.8079986,30.008 79.5493345,30.0586662 79.32,30.16 C79.0906655,30.2613338 78.8906675,30.3999991 78.72,30.576 C78.5493325,30.7520009 78.4106672,30.9573322 78.304,31.192 C78.1973328,31.4266678 78.1226669,31.677332 78.08,31.944 C78.0586666,32.0506672 78.0426667,32.1866658 78.032,32.352 C78.0213333,32.5173342 78.016,32.7493318 78.016,33.048 L78.016,33.096 Z M86.304,33.368 C86.3573336,34.2746712 86.5893313,34.9759975 87,35.472 C87.4106687,35.9680025 87.9839963,36.216 88.72,36.216 C89.6480046,36.216 90.3466643,35.778671 90.816,34.904 L91.824,35.464 C91.5146651,35.9866693 91.1040026,36.4133317 90.592,36.744 C90.0799974,37.0746683 89.4346706,37.24 88.656,37.24 C88.0373302,37.24 87.4960023,37.1333344 87.032,36.92 C86.5679977,36.7066656 86.1813349,36.4133352 85.872,36.04 C85.5626651,35.6666648 85.3306674,35.2293358 85.176,34.728 C85.0213326,34.2266642 84.944,33.6880029 84.944,33.112 C84.944,32.5466638 85.0186659,32.0080026 85.168,31.496 C85.3173341,30.9839974 85.5439985,30.5360019 85.848,30.152 C86.1520015,29.7679981 86.5253311,29.4640011 86.968,29.24 C87.4106689,29.0159989 87.9306637,28.904 88.528,28.904 C89.1040029,28.904 89.6053312,29.0133322 90.032,29.232 C90.4586688,29.4506678 90.8133319,29.7439982 91.096,30.112 C91.3786681,30.4800018 91.5919993,30.9066642 91.736,31.392 C91.8800007,31.8773358 91.952,32.3919973 91.952,32.936 C91.952,33.0533339 91.9493334,33.1439997 91.944,33.208 C91.9386666,33.2720003 91.936,33.3253331 91.936,33.368 L86.304,33.368 Z M88.512,29.912 C87.8399966,29.912 87.3200018,30.1519976 86.952,30.632 C86.5839982,31.1120024 86.3733336,31.7573293 86.32,32.568 L90.592,32.568 C90.592,32.2373317 90.554667,31.9146682 90.48,31.6 C90.405333,31.2853318 90.2826675,31.0026679 90.112,30.752 C89.9413325,30.5013321 89.7253346,30.2986674 89.464,30.144 C89.2026654,29.9893326 88.8853352,29.912 88.512,29.912 Z M93.568,29.128 L94.72,29.128 L94.848,30.888 C95.0720011,30.3119971 95.4293309,29.8373352 95.92,29.464 C96.4106691,29.0906648 96.9919966,28.904 97.664,28.904 L97.664,30.312 C97.5146659,30.2799998 97.3493342,30.264 97.168,30.264 C96.901332,30.264 96.634668,30.3119995 96.368,30.408 C96.101332,30.5040005 95.8586678,30.6586656 95.64,30.872 C95.4213322,31.0853344 95.2426674,31.3599983 95.104,31.696 C94.9653326,32.0320017 94.896,32.4399976 94.896,32.92 L94.896,37 L93.568,37 L93.568,29.128 Z" id="Select-number" fill="#000000"></path>
                        <path d="M193.973214,31.1696429 C194.08631,31.2827387 194.142857,31.4166659 194.142857,31.5714286 C194.142857,31.7261912 194.08631,31.8601185 193.973214,31.9732143 L189.973214,35.9732143 C189.860118,36.0863101 189.726191,36.1428571 189.571429,36.1428571 C189.416666,36.1428571 189.282739,36.0863101 189.169643,35.9732143 L185.169643,31.9732143 C185.056547,31.8601185 185,31.7261912 185,31.5714286 C185,31.4166659 185.056547,31.2827387 185.169643,31.1696429 C185.282739,31.0565471 185.416666,31 185.571429,31 L193.571429,31 C193.726191,31 193.860118,31.0565471 193.973214,31.1696429 Z" id="" fill="#4C5358"></path>
                    </g>
                </g>
            </g>
        </g>
    </g>
</svg>