<?xml version="1.0" encoding="UTF-8"?>
<svg width="233px" height="26px" viewBox="0 0 233 26" version="1.1" xmlns="http://www.w3.org/2000/svg" xmlns:xlink="http://www.w3.org/1999/xlink">
    <!-- Generator: Sketch 47 (45396) - http://www.bohemiancoding.com/sketch -->
    <title>DescriptiveLabes</title>
    <desc>Created with Sketch.</desc>
    <defs></defs>
    <g id="Page-1" stroke="none" stroke-width="1" fill="none" fill-rule="evenodd">
        <g id="Buttons-Usage-extra-large-1200" transform="translate(-382.000000, -1994.000000)">
            <g id="DescriptiveLabes" transform="translate(382.000000, 1995.000000)">
                <g id="Form-Radiobutton-Copy-4" transform="translate(148.000000, 0.000000)">
                    <g id="Radiobutton">
                        <circle id="Oval" stroke="#7C878E" fill="#FFFFFF" cx="12" cy="12" r="12"></circle>
                        <path d="M34.12,6.704 L37.8,6.704 C38.3866696,6.704 38.9253309,6.76533272 39.416,6.888 C39.9066691,7.01066728 40.3279982,7.20266536 40.68,7.464 C41.0320018,7.72533464 41.3066657,8.05866464 41.504,8.464 C41.7013343,8.86933536 41.8,9.34933056 41.8,9.904 C41.8,10.3733357 41.7200008,10.7813316 41.56,11.128 C41.3999992,11.4746684 41.1840014,11.7679988 40.912,12.008 C40.6399986,12.2480012 40.3280018,12.434666 39.976,12.568 C39.6239982,12.701334 39.2506686,12.7839998 38.856,12.816 C39.1333347,12.890667 39.3813322,13.0213324 39.6,13.208 C39.8186678,13.3946676 40.0346656,13.6693315 40.248,14.032 L42.488,18 L40.792,18 L39.016,14.688 C38.7706654,14.229331 38.4986682,13.8746679 38.2,13.624 C37.9013318,13.3733321 37.485336,13.248 36.952,13.248 L35.56,13.248 L35.56,18 L34.12,18 L34.12,6.704 Z M37.832,12.096 C38.5680037,12.096 39.1573311,11.925335 39.6,11.584 C40.0426689,11.242665 40.264,10.6933371 40.264,9.936 C40.264,9.2426632 40.0426689,8.71733512 39.6,8.36 C39.1573311,8.00266488 38.5573371,7.824 37.8,7.824 L35.56,7.824 L35.56,12.096 L37.832,12.096 Z M44.472,14.368 C44.5253336,15.2746712 44.7573313,15.9759975 45.168,16.472 C45.5786687,16.9680025 46.1519963,17.216 46.888,17.216 C47.8160046,17.216 48.5146643,16.778671 48.984,15.904 L49.992,16.464 C49.6826651,16.9866693 49.2720026,17.4133317 48.76,17.744 C48.2479974,18.0746683 47.6026706,18.24 46.824,18.24 C46.2053302,18.24 45.6640023,18.1333344 45.2,17.92 C44.7359977,17.7066656 44.3493349,17.4133352 44.04,17.04 C43.7306651,16.6666648 43.4986674,16.2293358 43.344,15.728 C43.1893326,15.2266642 43.112,14.6880029 43.112,14.112 C43.112,13.5466638 43.1866659,13.0080026 43.336,12.496 C43.4853341,11.9839974 43.7119985,11.5360019 44.016,11.152 C44.3200015,10.7679981 44.6933311,10.4640011 45.136,10.24 C45.5786689,10.0159989 46.0986637,9.904 46.696,9.904 C47.2720029,9.904 47.7733312,10.0133322 48.2,10.232 C48.6266688,10.4506678 48.9813319,10.7439982 49.264,11.112 C49.5466681,11.4800018 49.7599993,11.9066642 49.904,12.392 C50.0480007,12.8773358 50.12,13.3919973 50.12,13.936 C50.12,14.0533339 50.1173334,14.1439997 50.112,14.208 C50.1066666,14.2720003 50.104,14.3253331 50.104,14.368 L44.472,14.368 Z M46.68,10.912 C46.0079966,10.912 45.4880018,11.1519976 45.12,11.632 C44.7519982,12.1120024 44.5413336,12.7573293 44.488,13.568 L48.76,13.568 C48.76,13.2373317 48.722667,12.9146682 48.648,12.6 C48.573333,12.2853318 48.4506675,12.0026679 48.28,11.752 C48.1093325,11.5013321 47.8933346,11.2986674 47.632,11.144 C47.3706654,10.9893326 47.0533352,10.912 46.68,10.912 Z M51.736,10.128 L52.888,10.128 L53.032,11.664 C53.224001,11.1199973 53.5226646,10.6906682 53.928,10.376 C54.3333354,10.0613318 54.8293304,9.904 55.416,9.904 C56.0346698,9.904 56.5199982,10.0799982 56.872,10.432 C57.2240018,10.7840018 57.4479995,11.2106642 57.544,11.712 C57.6400005,11.4666654 57.7599993,11.2346678 57.904,11.016 C58.0480007,10.7973322 58.2213323,10.6053342 58.424,10.44 C58.6266677,10.2746658 58.861332,10.1440005 59.128,10.048 C59.394668,9.95199952 59.698665,9.904 60.04,9.904 C60.4880022,9.904 60.8586652,9.98133256 61.152,10.136 C61.4453348,10.2906674 61.6799991,10.501332 61.856,10.768 C62.0320009,11.034668 62.157333,11.3466649 62.232,11.704 C62.306667,12.0613351 62.344,12.4373314 62.344,12.832 L62.344,18 L61.016,18 L61.016,13.168 C61.016,12.4639965 60.8906679,11.9386684 60.64,11.592 C60.3893321,11.2453316 60.0240024,11.072 59.544,11.072 C59.0213307,11.072 58.5840018,11.3039977 58.232,11.768 C57.8799982,12.2320023 57.704,12.8959957 57.704,13.76 L57.704,18 L56.376,18 L56.376,13.232 C56.376,12.4959963 56.2480013,11.9520018 55.992,11.6 C55.7359987,11.2479982 55.378669,11.072 54.92,11.072 C54.4079974,11.072 53.9706685,11.309331 53.608,11.784 C53.2453315,12.258669 53.064,12.9439955 53.064,13.84 L53.064,18 L51.736,18 L51.736,10.128 Z M67.624,18.24 C67.0266637,18.24 66.5013356,18.1306678 66.048,17.912 C65.5946644,17.6933322 65.2160015,17.3946686 64.912,17.016 C64.6079985,16.6373314 64.3813341,16.1946692 64.232,15.688 C64.0826659,15.1813308 64.008,14.6346696 64.008,14.048 C64.008,13.4613304 64.0853326,12.9173358 64.24,12.416 C64.3946674,11.9146642 64.6239985,11.4773352 64.928,11.104 C65.2320015,10.7306648 65.6106644,10.4373344 66.064,10.224 C66.5173356,10.0106656 67.0373304,9.904 67.624,9.904 C68.2106696,9.904 68.7306644,10.0106656 69.184,10.224 C69.6373356,10.4373344 70.0186651,10.7279982 70.328,11.096 C70.6373349,11.4640018 70.8693326,11.9013308 71.024,12.408 C71.1786674,12.9146692 71.256,13.4613304 71.256,14.048 C71.256,14.6346696 71.1786674,15.1813308 71.024,15.688 C70.8693326,16.1946692 70.6373349,16.6373314 70.328,17.016 C70.0186651,17.3946686 69.6373356,17.6933322 69.184,17.912 C68.7306644,18.1306678 68.2106696,18.24 67.624,18.24 Z M67.656,17.2 C68.0186685,17.2 68.3386653,17.1200008 68.616,16.96 C68.8933347,16.7999992 69.1226658,16.5786681 69.304,16.296 C69.4853342,16.0133319 69.6239995,15.6800019 69.72,15.296 C69.8160005,14.9119981 69.864,14.4960022 69.864,14.048 C69.864,13.5999978 69.8160005,13.1866686 69.72,12.808 C69.6239995,12.4293314 69.480001,12.1013347 69.288,11.824 C69.095999,11.5466653 68.8613347,11.3306674 68.584,11.176 C68.3066653,11.0213326 67.9866685,10.944 67.624,10.944 C67.2506648,10.944 66.9253347,11.0213326 66.648,11.176 C66.3706653,11.3306674 66.1413342,11.5466653 65.96,11.824 C65.7786658,12.1013347 65.6400005,12.4293314 65.544,12.808 C65.4479995,13.1866686 65.4,13.5999978 65.4,14.048 C65.4,14.4960022 65.4479995,14.9119981 65.544,15.296 C65.6400005,15.6800019 65.7813324,16.0133319 65.968,16.296 C66.1546676,16.5786681 66.3893319,16.7999992 66.672,16.96 C66.9546681,17.1200008 67.2826648,17.2 67.656,17.2 Z M73.64,11.04 L72.296,11.04 L72.296,10.128 L72.584,10.128 C72.9146683,10.128 73.1733324,10.0933337 73.36,10.024 C73.5466676,9.95466632 73.6879995,9.84800072 73.784,9.704 C73.8800005,9.55999928 73.9493331,9.37066784 73.992,9.136 C74.0346669,8.90133216 74.0719998,8.61333504 74.104,8.272 L74.136,7.984 L74.968,7.984 L74.968,10.128 L76.664,10.128 L76.664,11.04 L74.968,11.04 L74.968,15.936 C74.968,16.3840022 75.034666,16.7066657 75.168,16.904 C75.301334,17.1013343 75.5493315,17.2 75.912,17.2 C76.2000014,17.2 76.4666654,17.1360006 76.712,17.008 L76.856,17.968 C76.4506646,18.1493342 76.0026691,18.24 75.512,18.24 C75.1279981,18.24 74.8160012,18.1866672 74.576,18.08 C74.3359988,17.9733328 74.1466674,17.8293342 74.008,17.648 C73.8693326,17.4666658 73.7733336,17.2480013 73.72,16.992 C73.6666664,16.7359987 73.64,16.4586682 73.64,16.16 L73.64,11.04 Z M79.272,14.368 C79.3253336,15.2746712 79.5573313,15.9759975 79.968,16.472 C80.3786687,16.9680025 80.9519963,17.216 81.688,17.216 C82.6160046,17.216 83.3146643,16.778671 83.784,15.904 L84.792,16.464 C84.4826651,16.9866693 84.0720026,17.4133317 83.56,17.744 C83.0479974,18.0746683 82.4026706,18.24 81.624,18.24 C81.0053302,18.24 80.4640023,18.1333344 80,17.92 C79.5359977,17.7066656 79.1493349,17.4133352 78.84,17.04 C78.5306651,16.6666648 78.2986674,16.2293358 78.144,15.728 C77.9893326,15.2266642 77.912,14.6880029 77.912,14.112 C77.912,13.5466638 77.9866659,13.0080026 78.136,12.496 C78.2853341,11.9839974 78.5119985,11.5360019 78.816,11.152 C79.1200015,10.7679981 79.4933311,10.4640011 79.936,10.24 C80.3786689,10.0159989 80.8986637,9.904 81.496,9.904 C82.0720029,9.904 82.5733312,10.0133322 83,10.232 C83.4266688,10.4506678 83.7813319,10.7439982 84.064,11.112 C84.3466681,11.4800018 84.5599993,11.9066642 84.704,12.392 C84.8480007,12.8773358 84.92,13.3919973 84.92,13.936 C84.92,14.0533339 84.9173334,14.1439997 84.912,14.208 C84.9066666,14.2720003 84.904,14.3253331 84.904,14.368 L79.272,14.368 Z M81.48,10.912 C80.8079966,10.912 80.2880018,11.1519976 79.92,11.632 C79.5519982,12.1120024 79.3413336,12.7573293 79.288,13.568 L83.56,13.568 C83.56,13.2373317 83.522667,12.9146682 83.448,12.6 C83.373333,12.2853318 83.2506675,12.0026679 83.08,11.752 C82.9093325,11.5013321 82.6933346,11.2986674 82.432,11.144 C82.1706654,10.9893326 81.8533352,10.912 81.48,10.912 Z" id="Remote" fill="#000000"></path>
                    </g>
                </g>
                <g id="Form-Radiobutton-Copy-7">
                    <g id="Radiobutton">
                        <g id="Group">
                            <circle id="Oval" fill="#0D78AA" cx="12" cy="12" r="12"></circle>
                            <circle id="Oval" fill="#FFFFFF" cx="12" cy="12" r="5"></circle>
                        </g>
                        <path d="M37.416,6.704 L38.744,6.704 L42.728,18 L41.224,18 L40.216,14.96 L35.864,14.96 L34.856,18 L33.4,18 L37.416,6.704 Z M39.832,13.856 C39.5333318,12.9279954 39.2373348,12.0186711 38.944,11.128 C38.6506652,10.2373289 38.3546682,9.30133824 38.056,8.32 C37.7786653,9.2800048 37.4853349,10.2106622 37.176,11.112 C36.8666651,12.0133378 36.5573349,12.9279954 36.248,13.856 L39.832,13.856 Z M44.84,11.04 L43.496,11.04 L43.496,10.128 L43.784,10.128 C44.1146683,10.128 44.3733324,10.0933337 44.56,10.024 C44.7466676,9.95466632 44.8879995,9.84800072 44.984,9.704 C45.0800005,9.55999928 45.1493331,9.37066784 45.192,9.136 C45.2346669,8.90133216 45.2719998,8.61333504 45.304,8.272 L45.336,7.984 L46.168,7.984 L46.168,10.128 L47.864,10.128 L47.864,11.04 L46.168,11.04 L46.168,15.936 C46.168,16.3840022 46.234666,16.7066657 46.368,16.904 C46.501334,17.1013343 46.7493315,17.2 47.112,17.2 C47.4000014,17.2 47.6666654,17.1360006 47.912,17.008 L48.056,17.968 C47.6506646,18.1493342 47.2026691,18.24 46.712,18.24 C46.3279981,18.24 46.0160012,18.1866672 45.776,18.08 C45.5359988,17.9733328 45.3466674,17.8293342 45.208,17.648 C45.0693326,17.4666658 44.9733336,17.2480013 44.92,16.992 C44.8666664,16.7359987 44.84,16.4586682 44.84,16.16 L44.84,11.04 Z M53.752,11.04 L52.408,11.04 L52.408,10.128 L52.696,10.128 C53.0266683,10.128 53.2853324,10.0933337 53.472,10.024 C53.6586676,9.95466632 53.7999995,9.84800072 53.896,9.704 C53.9920005,9.55999928 54.0613331,9.37066784 54.104,9.136 C54.1466669,8.90133216 54.1839998,8.61333504 54.216,8.272 L54.248,7.984 L55.08,7.984 L55.08,10.128 L56.776,10.128 L56.776,11.04 L55.08,11.04 L55.08,15.936 C55.08,16.3840022 55.146666,16.7066657 55.28,16.904 C55.413334,17.1013343 55.6613315,17.2 56.024,17.2 C56.3120014,17.2 56.5786654,17.1360006 56.824,17.008 L56.968,17.968 C56.5626646,18.1493342 56.1146691,18.24 55.624,18.24 C55.2399981,18.24 54.9280012,18.1866672 54.688,18.08 C54.4479988,17.9733328 54.2586674,17.8293342 54.12,17.648 C53.9813326,17.4666658 53.8853336,17.2480013 53.832,16.992 C53.7786664,16.7359987 53.752,16.4586682 53.752,16.16 L53.752,11.04 Z M58.376,6.704 L59.704,6.704 L59.704,11.68 C59.8000005,11.4453322 59.9226659,11.2213344 60.072,11.008 C60.2213341,10.7946656 60.4026656,10.6053342 60.616,10.44 C60.8293344,10.2746658 61.0746653,10.1440005 61.352,10.048 C61.6293347,9.95199952 61.938665,9.904 62.28,9.904 C63.1013374,9.904 63.7066647,10.1733306 64.096,10.712 C64.4853353,11.2506694 64.68,11.9786621 64.68,12.896 L64.68,18 L63.352,18 L63.352,13.104 C63.352,12.4319966 63.2133347,11.9280017 62.936,11.592 C62.6586653,11.2559983 62.2640026,11.088 61.752,11.088 C61.4533318,11.088 61.1786679,11.1519994 60.928,11.28 C60.6773321,11.4080006 60.4613342,11.5893322 60.28,11.824 C60.0986658,12.0586678 59.9573338,12.3413317 59.856,12.672 C59.7546662,13.0026683 59.704,13.3653314 59.704,13.76 L59.704,18 L58.376,18 L58.376,6.704 Z M67.704,14.368 C67.7573336,15.2746712 67.9893313,15.9759975 68.4,16.472 C68.8106687,16.9680025 69.3839963,17.216 70.12,17.216 C71.0480046,17.216 71.7466643,16.778671 72.216,15.904 L73.224,16.464 C72.9146651,16.9866693 72.5040026,17.4133317 71.992,17.744 C71.4799974,18.0746683 70.8346706,18.24 70.056,18.24 C69.4373302,18.24 68.8960023,18.1333344 68.432,17.92 C67.9679977,17.7066656 67.5813349,17.4133352 67.272,17.04 C66.9626651,16.6666648 66.7306674,16.2293358 66.576,15.728 C66.4213326,15.2266642 66.344,14.6880029 66.344,14.112 C66.344,13.5466638 66.4186659,13.0080026 66.568,12.496 C66.7173341,11.9839974 66.9439985,11.5360019 67.248,11.152 C67.5520015,10.7679981 67.9253311,10.4640011 68.368,10.24 C68.8106689,10.0159989 69.3306637,9.904 69.928,9.904 C70.5040029,9.904 71.0053312,10.0133322 71.432,10.232 C71.8586688,10.4506678 72.2133319,10.7439982 72.496,11.112 C72.7786681,11.4800018 72.9919993,11.9066642 73.136,12.392 C73.2800007,12.8773358 73.352,13.3919973 73.352,13.936 C73.352,14.0533339 73.3493334,14.1439997 73.344,14.208 C73.3386666,14.2720003 73.336,14.3253331 73.336,14.368 L67.704,14.368 Z M69.912,10.912 C69.2399966,10.912 68.7200018,11.1519976 68.352,11.632 C67.9839982,12.1120024 67.7733336,12.7573293 67.72,13.568 L71.992,13.568 C71.992,13.2373317 71.954667,12.9146682 71.88,12.6 C71.805333,12.2853318 71.6826675,12.0026679 71.512,11.752 C71.3413325,11.5013321 71.1253346,11.2986674 70.864,11.144 C70.6026654,10.9893326 70.2853352,10.912 69.912,10.912 Z M81.832,18.24 C81.2346637,18.24 80.7093356,18.1306678 80.256,17.912 C79.8026644,17.6933322 79.4240015,17.3946686 79.12,17.016 C78.8159985,16.6373314 78.5893341,16.1946692 78.44,15.688 C78.2906659,15.1813308 78.216,14.6346696 78.216,14.048 C78.216,13.4613304 78.2933326,12.9173358 78.448,12.416 C78.6026674,11.9146642 78.8319985,11.4773352 79.136,11.104 C79.4400015,10.7306648 79.8186644,10.4373344 80.272,10.224 C80.7253356,10.0106656 81.2453304,9.904 81.832,9.904 C82.4186696,9.904 82.9386644,10.0106656 83.392,10.224 C83.8453356,10.4373344 84.2266651,10.7279982 84.536,11.096 C84.8453349,11.4640018 85.0773326,11.9013308 85.232,12.408 C85.3866674,12.9146692 85.464,13.4613304 85.464,14.048 C85.464,14.6346696 85.3866674,15.1813308 85.232,15.688 C85.0773326,16.1946692 84.8453349,16.6373314 84.536,17.016 C84.2266651,17.3946686 83.8453356,17.6933322 83.392,17.912 C82.9386644,18.1306678 82.4186696,18.24 81.832,18.24 Z M81.864,17.2 C82.2266685,17.2 82.5466653,17.1200008 82.824,16.96 C83.1013347,16.7999992 83.3306658,16.5786681 83.512,16.296 C83.6933342,16.0133319 83.8319995,15.6800019 83.928,15.296 C84.0240005,14.9119981 84.072,14.4960022 84.072,14.048 C84.072,13.5999978 84.0240005,13.1866686 83.928,12.808 C83.8319995,12.4293314 83.688001,12.1013347 83.496,11.824 C83.303999,11.5466653 83.0693347,11.3306674 82.792,11.176 C82.5146653,11.0213326 82.1946685,10.944 81.832,10.944 C81.4586648,10.944 81.1333347,11.0213326 80.856,11.176 C80.5786653,11.3306674 80.3493342,11.5466653 80.168,11.824 C79.9866658,12.1013347 79.8480005,12.4293314 79.752,12.808 C79.6559995,13.1866686 79.608,13.5999978 79.608,14.048 C79.608,14.4960022 79.6559995,14.9119981 79.752,15.296 C79.8480005,15.6800019 79.9893324,16.0133319 80.176,16.296 C80.3626676,16.5786681 80.5973319,16.7999992 80.88,16.96 C81.1626681,17.1200008 81.4906648,17.2 81.864,17.2 Z M87.832,11.04 L86.472,11.04 L86.472,10.128 L87.768,10.128 C87.6826662,9.85066528 87.610667,9.55466824 87.552,9.24 C87.493333,8.92533176 87.464,8.62933472 87.464,8.352 C87.464,8.09599872 87.493333,7.85333448 87.552,7.624 C87.610667,7.39466552 87.7146659,7.19200088 87.864,7.016 C88.0133341,6.83999912 88.2159987,6.6986672 88.472,6.592 C88.7280013,6.4853328 89.0533314,6.432 89.448,6.432 C89.7360014,6.432 89.9946655,6.45066648 90.224,6.488 C90.4533345,6.52533352 90.6693323,6.58666624 90.872,6.672 L90.648,7.68 C90.5306661,7.6266664 90.3840009,7.58133352 90.208,7.544 C90.0319991,7.50666648 89.8693341,7.488 89.72,7.488 C89.111997,7.488 88.808,7.83999648 88.808,8.544 C88.808,8.82133472 88.8426663,9.10933184 88.912,9.408 C88.9813337,9.70666816 89.053333,9.94666576 89.128,10.128 L90.648,10.128 L90.648,11.04 L89.176,11.04 L89.176,18 L87.832,18 L87.832,11.04 Z M92.664,11.04 L91.304,11.04 L91.304,10.128 L92.6,10.128 C92.5146662,9.85066528 92.442667,9.55466824 92.384,9.24 C92.325333,8.92533176 92.296,8.62933472 92.296,8.352 C92.296,8.09599872 92.325333,7.85333448 92.384,7.624 C92.442667,7.39466552 92.5466659,7.19200088 92.696,7.016 C92.8453341,6.83999912 93.0479987,6.6986672 93.304,6.592 C93.5600013,6.4853328 93.8853314,6.432 94.28,6.432 C94.5680014,6.432 94.8266655,6.45066648 95.056,6.488 C95.2853345,6.52533352 95.5013323,6.58666624 95.704,6.672 L95.48,7.68 C95.3626661,7.6266664 95.2160009,7.58133352 95.04,7.544 C94.8639991,7.50666648 94.7013341,7.488 94.552,7.488 C93.943997,7.488 93.64,7.83999648 93.64,8.544 C93.64,8.82133472 93.6746663,9.10933184 93.744,9.408 C93.8133337,9.70666816 93.885333,9.94666576 93.96,10.128 L95.48,10.128 L95.48,11.04 L94.008,11.04 L94.008,18 L92.664,18 L92.664,11.04 Z M96.984,7.072 L98.312,7.072 L98.312,8.4 L96.984,8.4 L96.984,7.072 Z M96.984,10.128 L98.312,10.128 L98.312,18 L96.984,18 L96.984,10.128 Z M106.936,16.272 C106.615998,16.9120032 106.186669,17.3999983 105.648,17.736 C105.109331,18.0720017 104.456004,18.24 103.688,18.24 C103.058664,18.24 102.512002,18.1306678 102.048,17.912 C101.583998,17.6933322 101.200002,17.3973352 100.896,17.024 C100.591998,16.6506648 100.368001,16.2106692 100.224,15.704 C100.079999,15.1973308 100.008,14.6560029 100.008,14.08 C100.008,13.4933304 100.085333,12.9466692 100.24,12.44 C100.394667,11.9333308 100.623998,11.4933352 100.928,11.12 C101.232002,10.7466648 101.613331,10.4506678 102.072,10.232 C102.530669,10.0133322 103.06933,9.904 103.688,9.904 C104.466671,9.904 105.114664,10.0773316 105.632,10.424 C106.149336,10.7706684 106.567998,11.2586635 106.888,11.888 L105.768,12.416 C105.362665,11.4346618 104.680005,10.944 103.72,10.944 C103.314665,10.944 102.965335,11.0239992 102.672,11.184 C102.378665,11.3440008 102.138668,11.5626653 101.952,11.84 C101.765332,12.1173347 101.626667,12.4399982 101.536,12.808 C101.445333,13.1760018 101.4,13.5733312 101.4,14 C101.4,14.4053354 101.442666,14.7999981 101.528,15.184 C101.613334,15.5680019 101.751999,15.9093318 101.944,16.208 C102.136001,16.5066682 102.381332,16.7466658 102.68,16.928 C102.978668,17.1093342 103.346664,17.2 103.784,17.2 C104.338669,17.2 104.786665,17.0586681 105.128,16.776 C105.469335,16.4933319 105.730666,16.1280022 105.912,15.68 L106.936,16.272 Z M109.416,14.368 C109.469334,15.2746712 109.701331,15.9759975 110.112,16.472 C110.522669,16.9680025 111.095996,17.216 111.832,17.216 C112.760005,17.216 113.458664,16.778671 113.928,15.904 L114.936,16.464 C114.626665,16.9866693 114.216003,17.4133317 113.704,17.744 C113.191997,18.0746683 112.546671,18.24 111.768,18.24 C111.14933,18.24 110.608002,18.1333344 110.144,17.92 C109.679998,17.7066656 109.293335,17.4133352 108.984,17.04 C108.674665,16.6666648 108.442667,16.2293358 108.288,15.728 C108.133333,15.2266642 108.056,14.6880029 108.056,14.112 C108.056,13.5466638 108.130666,13.0080026 108.28,12.496 C108.429334,11.9839974 108.655998,11.5360019 108.96,11.152 C109.264002,10.7679981 109.637331,10.4640011 110.08,10.24 C110.522669,10.0159989 111.042664,9.904 111.64,9.904 C112.216003,9.904 112.717331,10.0133322 113.144,10.232 C113.570669,10.4506678 113.925332,10.7439982 114.208,11.112 C114.490668,11.4800018 114.703999,11.9066642 114.848,12.392 C114.992001,12.8773358 115.064,13.3919973 115.064,13.936 C115.064,14.0533339 115.061333,14.1439997 115.056,14.208 C115.050667,14.2720003 115.048,14.3253331 115.048,14.368 L109.416,14.368 Z M111.624,10.912 C110.951997,10.912 110.432002,11.1519976 110.064,11.632 C109.695998,12.1120024 109.485334,12.7573293 109.432,13.568 L113.704,13.568 C113.704,13.2373317 113.666667,12.9146682 113.592,12.6 C113.517333,12.2853318 113.394668,12.0026679 113.224,11.752 C113.053332,11.5013321 112.837335,11.2986674 112.576,11.144 C112.314665,10.9893326 111.997335,10.912 111.624,10.912 Z" id="At-the-office" fill="#000000"></path>
                    </g>
                </g>
            </g>
        </g>
    </g>
</svg>