<?xml version="1.0" encoding="UTF-8"?>
<svg width="161px" height="24px" viewBox="0 0 161 24" version="1.1" xmlns="http://www.w3.org/2000/svg" xmlns:xlink="http://www.w3.org/1999/xlink">
    <!-- Generator: Sketch 47 (45396) - http://www.bohemiancoding.com/sketch -->
    <title>MoreThanOneChoice</title>
    <desc>Created with Sketch.</desc>
    <defs></defs>
    <g id="Page-1" stroke="none" stroke-width="1" fill="none" fill-rule="evenodd">
        <g id="Buttons-Usage-extra-large-1200" transform="translate(-866.000000, -1759.000000)">
            <g id="MoreThanOneChoice" transform="translate(866.000000, 1759.000000)">
                <g id="Form-Radiobutton-Copy-5">
                    <g id="Radiobutton">
                        <g id="Group">
                            <circle id="Oval" fill="#0D78AA" cx="12" cy="12" r="12"></circle>
                            <circle id="Oval" fill="#FFFFFF" cx="12" cy="12" r="5"></circle>
                        </g>
                        <path d="M34.12,6.704 L37.528,6.704 C39.4800098,6.704 40.9146621,7.17599528 41.832,8.12 C42.7493379,9.06400472 43.208,10.4799906 43.208,12.368 C43.208,14.1920091 42.7493379,15.5866618 41.832,16.552 C40.9146621,17.5173382 39.5386758,18 37.704,18 L34.12,18 L34.12,6.704 Z M37.592,16.88 C38.3600038,16.88 39.0053307,16.7680011 39.528,16.544 C40.0506693,16.3199989 40.4719984,16.008002 40.792,15.608 C41.1120016,15.207998 41.338666,14.7280028 41.472,14.168 C41.605334,13.6079972 41.672,12.9973366 41.672,12.336 C41.672,11.6959968 41.605334,11.1013361 41.472,10.552 C41.338666,10.0026639 41.1120016,9.52533536 40.792,9.12 C40.4719984,8.71466464 40.0400027,8.39733448 39.496,8.168 C38.9519973,7.93866552 38.2693374,7.824 37.448,7.824 L35.56,7.824 L35.56,16.88 L37.592,16.88 Z M49.848,18 C49.7306661,17.6159981 49.6613334,17.157336 49.64,16.624 C49.4266656,17.1146691 49.0986689,17.5066652 48.656,17.8 C48.2133311,18.0933348 47.688003,18.24 47.08,18.24 C46.3119962,18.24 45.7040022,18.0213355 45.256,17.584 C44.8079978,17.1466645 44.584,16.5600037 44.584,15.824 C44.584,15.4079979 44.6586659,15.0586681 44.808,14.776 C44.9573341,14.4933319 45.165332,14.2586676 45.432,14.072 C45.698668,13.8853324 46.0133315,13.7386672 46.376,13.632 C46.7386685,13.5253328 47.1333312,13.4400003 47.56,13.376 L49.576,13.072 L49.576,12.576 C49.576,12.2239982 49.5333338,11.9413344 49.448,11.728 C49.3626662,11.5146656 49.2453341,11.3493339 49.096,11.232 C48.9466659,11.1146661 48.776001,11.0373335 48.584,11 C48.391999,10.9626665 48.1893344,10.944 47.976,10.944 C47.367997,10.944 46.8666686,11.0559989 46.472,11.28 C46.0773314,11.5040011 45.746668,11.786665 45.48,12.128 L44.792,11.264 C45.1013349,10.8906648 45.5306639,10.570668 46.08,10.304 C46.6293361,10.037332 47.3093293,9.904 48.12,9.904 C49.1013382,9.904 49.8133311,10.1226645 50.256,10.56 C50.6986689,10.9973355 50.92,11.7013285 50.92,12.672 L50.92,15.856 C50.92,16.1120013 50.9226666,16.335999 50.928,16.528 C50.9333334,16.720001 50.9439999,16.8986658 50.96,17.064 C50.9760001,17.2293342 50.9999998,17.3866659 51.032,17.536 C51.0640002,17.6853341 51.1066664,17.8399992 51.16,18 L49.848,18 Z M49.576,13.952 L47.688,14.256 C47.0373301,14.3733339 46.5760014,14.5493322 46.304,14.784 C46.0319986,15.0186678 45.896,15.3439979 45.896,15.76 C45.896,16.1866688 46.0213321,16.5439986 46.272,16.832 C46.5226679,17.1200014 46.8933309,17.264 47.384,17.264 C47.6826682,17.264 47.965332,17.2053339 48.232,17.088 C48.498668,16.9706661 48.7306657,16.808001 48.928,16.6 C49.1253343,16.391999 49.2826661,16.1413348 49.4,15.848 C49.5173339,15.5546652 49.576,15.2320018 49.576,14.88 L49.576,13.952 Z M52.872,19.68 C52.9893339,19.7226669 53.1226659,19.7599998 53.272,19.792 C53.4213341,19.8240002 53.5759992,19.84 53.736,19.84 C53.9066675,19.84 54.0533327,19.8160002 54.176,19.768 C54.2986673,19.7199998 54.4106662,19.6320006 54.512,19.504 C54.6133338,19.3759994 54.7093329,19.2053344 54.8,18.992 C54.8906671,18.7786656 54.9893328,18.501335 55.096,18.16 L52.424,10.128 L53.864,10.128 L55.784,16.64 L57.688,10.128 L59.128,10.128 L56.712,17.376 C56.5093323,17.9946698 56.3253342,18.5226645 56.16,18.96 C55.9946658,19.3973355 55.8106677,19.7573319 55.608,20.04 C55.4053323,20.3226681 55.1573348,20.530666 54.864,20.664 C54.5706652,20.797334 54.194669,20.864 53.736,20.864 C53.5546658,20.864 53.360001,20.8560001 53.152,20.84 C52.943999,20.8239999 52.7813339,20.7946669 52.664,20.752 L52.872,19.68 Z" id="Day" fill="#000000"></path>
                    </g>
                </g>
                <g id="Form-Radiobutton-Copy-6" transform="translate(92.000000, 0.000000)">
                    <g id="Radiobutton">
                        <g id="Group">
                            <circle id="Oval" fill="#0D78AA" cx="12" cy="12" r="12"></circle>
                            <circle id="Oval" fill="#FFFFFF" cx="12" cy="12" r="5"></circle>
                        </g>
                        <path d="M34.12,6.704 L35.8,6.704 C36.792005,8.42134192 37.7359955,10.0479923 38.632,11.584 C39.5280045,13.1200077 40.3813293,14.6186594 41.192,16.08 C41.1493331,14.479992 41.1306666,12.909341 41.136,11.368 C41.1413334,9.82665896 41.1386667,8.27200784 41.128,6.704 L42.488,6.704 L42.488,18 L40.824,18 C40.365331,17.2106627 39.898669,16.4053374 39.424,15.584 C38.949331,14.7626626 38.4773357,13.9493374 38.008,13.144 C37.5386643,12.3386626 37.0853355,11.5520038 36.648,10.784 C36.2106645,10.0159962 35.8053352,9.29600336 35.432,8.624 C35.4640002,10.2346747 35.48,11.8079923 35.48,13.344 C35.48,14.8800077 35.4853333,16.4319922 35.496,18 L34.12,18 L34.12,6.704 Z M44.648,7.072 L45.976,7.072 L45.976,8.4 L44.648,8.4 L44.648,7.072 Z M44.648,10.128 L45.976,10.128 L45.976,18 L44.648,18 L44.648,10.128 Z M48.664,18.944 C48.9733349,19.2426682 49.3439978,19.4799991 49.776,19.656 C50.2080022,19.8320009 50.6693309,19.92 51.16,19.92 C51.5653354,19.92 51.8959987,19.8586673 52.152,19.736 C52.4080013,19.6133327 52.6106659,19.4453344 52.76,19.232 C52.9093341,19.0186656 53.013333,18.7760014 53.072,18.504 C53.130667,18.2319986 53.16,17.9413349 53.16,17.632 L53.16,16.176 C52.9573323,16.6560024 52.6533354,17.0426652 52.248,17.336 C51.8426646,17.6293348 51.3200032,17.776 50.68,17.776 C50.221331,17.776 49.8053352,17.6880009 49.432,17.512 C49.0586648,17.3359991 48.738668,17.0826683 48.472,16.752 C48.205332,16.4213317 48.0000007,16.0160024 47.856,15.536 C47.7119993,15.0559976 47.64,14.5173363 47.64,13.92 C47.64,13.3333304 47.7119993,12.7946691 47.856,12.304 C48.0000007,11.8133309 48.2079986,11.3920018 48.48,11.04 C48.7520014,10.6879982 49.0826647,10.4133343 49.472,10.216 C49.8613353,10.0186657 50.2959976,9.92 50.776,9.92 C51.4053365,9.92 51.9279979,10.0773318 52.344,10.392 C52.7600021,10.7066682 53.0586658,11.1093309 53.24,11.6 L53.464,10.128 L54.488,10.128 L54.488,17.6 C54.488,18.0480022 54.4346672,18.471998 54.328,18.872 C54.2213328,19.272002 54.0400013,19.6266651 53.784,19.936 C53.5279987,20.2453349 53.1866688,20.4906658 52.76,20.672 C52.3333312,20.8533342 51.8000032,20.944 51.16,20.944 C50.4666632,20.944 49.8453361,20.8453343 49.296,20.648 C48.7466639,20.4506657 48.2853352,20.2026682 47.912,19.904 L48.664,18.944 Z M53.16,13.92 C53.16,13.7386658 53.1573334,13.5653342 53.152,13.4 C53.1466666,13.2346658 53.1333334,13.1093338 53.112,13.024 C53.0693331,12.7679987 53.0000005,12.5173346 52.904,12.272 C52.8079995,12.0266654 52.6773342,11.8133342 52.512,11.632 C52.3466658,11.4506658 52.1440012,11.3040006 51.904,11.192 C51.6639988,11.0799994 51.3840016,11.024 51.064,11.024 C50.7119982,11.024 50.4080013,11.0986659 50.152,11.248 C49.8959987,11.3973341 49.6853342,11.5999987 49.52,11.856 C49.3546658,12.1120013 49.2320004,12.4159982 49.152,12.768 C49.0719996,13.1200018 49.032,13.4933314 49.032,13.888 C49.032,14.2400018 49.069333,14.5893316 49.144,14.936 C49.218667,15.2826684 49.3359992,15.589332 49.496,15.856 C49.6560008,16.122668 49.8666654,16.3386658 50.128,16.504 C50.3893346,16.6693342 50.7066648,16.752 51.08,16.752 C51.6026693,16.752 52.0239984,16.6053348 52.344,16.312 C52.6640016,16.0186652 52.8879994,15.6480022 53.016,15.2 C53.0693336,15.0506659 53.1066666,14.8640011 53.128,14.64 C53.1493334,14.4159989 53.16,14.2026677 53.16,14 L53.16,13.92 Z M56.536,6.704 L57.864,6.704 L57.864,11.68 C57.9600005,11.4453322 58.0826659,11.2213344 58.232,11.008 C58.3813341,10.7946656 58.5626656,10.6053342 58.776,10.44 C58.9893344,10.2746658 59.2346653,10.1440005 59.512,10.048 C59.7893347,9.95199952 60.098665,9.904 60.44,9.904 C61.2613374,9.904 61.8666647,10.1733306 62.256,10.712 C62.6453353,11.2506694 62.84,11.9786621 62.84,12.896 L62.84,18 L61.512,18 L61.512,13.104 C61.512,12.4319966 61.3733347,11.9280017 61.096,11.592 C60.8186653,11.2559983 60.4240026,11.088 59.912,11.088 C59.6133318,11.088 59.3386679,11.1519994 59.088,11.28 C58.8373321,11.4080006 58.6213342,11.5893322 58.44,11.824 C58.2586658,12.0586678 58.1173338,12.3413317 58.016,12.672 C57.9146662,13.0026683 57.864,13.3653314 57.864,13.76 L57.864,18 L56.536,18 L56.536,6.704 Z M65.544,11.04 L64.2,11.04 L64.2,10.128 L64.488,10.128 C64.8186683,10.128 65.0773324,10.0933337 65.264,10.024 C65.4506676,9.95466632 65.5919995,9.84800072 65.688,9.704 C65.7840005,9.55999928 65.8533331,9.37066784 65.896,9.136 C65.9386669,8.90133216 65.9759998,8.61333504 66.008,8.272 L66.04,7.984 L66.872,7.984 L66.872,10.128 L68.568,10.128 L68.568,11.04 L66.872,11.04 L66.872,15.936 C66.872,16.3840022 66.938666,16.7066657 67.072,16.904 C67.205334,17.1013343 67.4533315,17.2 67.816,17.2 C68.1040014,17.2 68.3706654,17.1360006 68.616,17.008 L68.76,17.968 C68.3546646,18.1493342 67.9066691,18.24 67.416,18.24 C67.0319981,18.24 66.7200012,18.1866672 66.48,18.08 C66.2399988,17.9733328 66.0506674,17.8293342 65.912,17.648 C65.7733326,17.4666658 65.6773336,17.2480013 65.624,16.992 C65.5706664,16.7359987 65.544,16.4586682 65.544,16.16 L65.544,11.04 Z" id="Night" fill="#000000"></path>
                    </g>
                </g>
            </g>
        </g>
    </g>
</svg>