<?xml version="1.0" encoding="UTF-8"?>
<svg width="109px" height="105px" viewBox="0 0 109 105" version="1.1" xmlns="http://www.w3.org/2000/svg" xmlns:xlink="http://www.w3.org/1999/xlink">
    <!-- Generator: Sketch 47 (45396) - http://www.bohemiancoding.com/sketch -->
    <title>ListVertically</title>
    <desc>Created with Sketch.</desc>
    <defs></defs>
    <g id="Page-1" stroke="none" stroke-width="1" fill="none" fill-rule="evenodd">
        <g id="Buttons-Usage-extra-large-1200" transform="translate(-433.000000, -2615.000000)">
            <g id="ListVertically" transform="translate(434.000000, 2615.000000)">
                <g id="Forms/Radiobutton/Active/Default">
                    <g id="Group">
                        <circle id="Oval" fill="#0D78AA" cx="12" cy="12" r="12"></circle>
                        <circle id="Oval" fill="#FFFFFF" cx="12" cy="12" r="5"></circle>
                    </g>
                    <path d="M42.312,16.032 C42.0026651,16.7040034 41.5493363,17.239998 40.952,17.64 C40.3546637,18.040002 39.6400042,18.24 38.808,18.24 C37.9759958,18.24 37.2400032,18.0933348 36.6,17.8 C35.9599968,17.5066652 35.4240022,17.0960026 34.992,16.568 C34.5599978,16.0399974 34.2346678,15.413337 34.016,14.688 C33.7973322,13.962663 33.688,13.1680043 33.688,12.304 C33.688,11.4613291 33.7999989,10.6853369 34.024,9.976 C34.2480011,9.26666312 34.5759978,8.65066928 35.008,8.128 C35.4400022,7.60533072 35.9759968,7.1973348 36.616,6.904 C37.2560032,6.6106652 37.9866626,6.464 38.808,6.464 C39.800005,6.464 40.6773295,6.66666464 41.44,7.072 C42.2026705,7.47733536 42.8079978,8.06399616 43.256,8.832 L41.88,9.504 C41.6346654,8.92799712 41.2373361,8.48533488 40.688,8.176 C40.1386639,7.86666512 39.5120035,7.712 38.808,7.712 C38.2106637,7.712 37.6853356,7.8319988 37.232,8.072 C36.7786644,8.3120012 36.4026682,8.63733128 36.104,9.048 C35.8053318,9.45866872 35.5813341,9.9439972 35.432,10.504 C35.2826659,11.0640028 35.208,11.6639968 35.208,12.304 C35.208,12.9440032 35.2853326,13.5466638 35.44,14.112 C35.5946674,14.6773362 35.8239985,15.1733312 36.128,15.6 C36.4320015,16.0266688 36.813331,16.3653321 37.272,16.616 C37.730669,16.8666679 38.2586637,16.992 38.856,16.992 C39.3680026,16.992 39.8213314,16.896001 40.216,16.704 C40.6106686,16.511999 40.9439986,16.2640015 41.216,15.96 C41.4880014,15.6559985 41.6959993,15.3226685 41.84,14.96 C41.9840007,14.5973315 42.056,14.2400018 42.056,13.888 L42.056,13.264 L39.288,13.264 L39.288,12.16 L43.416,12.16 L43.416,18 L42.52,18 L42.312,16.032 Z M46.504,14.368 C46.5573336,15.2746712 46.7893313,15.9759975 47.2,16.472 C47.6106687,16.9680025 48.1839963,17.216 48.92,17.216 C49.8480046,17.216 50.5466643,16.778671 51.016,15.904 L52.024,16.464 C51.7146651,16.9866693 51.3040026,17.4133317 50.792,17.744 C50.2799974,18.0746683 49.6346706,18.24 48.856,18.24 C48.2373302,18.24 47.6960023,18.1333344 47.232,17.92 C46.7679977,17.7066656 46.3813349,17.4133352 46.072,17.04 C45.7626651,16.6666648 45.5306674,16.2293358 45.376,15.728 C45.2213326,15.2266642 45.144,14.6880029 45.144,14.112 C45.144,13.5466638 45.2186659,13.0080026 45.368,12.496 C45.5173341,11.9839974 45.7439985,11.5360019 46.048,11.152 C46.3520015,10.7679981 46.7253311,10.4640011 47.168,10.24 C47.6106689,10.0159989 48.1306637,9.904 48.728,9.904 C49.3040029,9.904 49.8053312,10.0133322 50.232,10.232 C50.6586688,10.4506678 51.0133319,10.7439982 51.296,11.112 C51.5786681,11.4800018 51.7919993,11.9066642 51.936,12.392 C52.0800007,12.8773358 52.152,13.3919973 52.152,13.936 C52.152,14.0533339 52.1493334,14.1439997 52.144,14.208 C52.1386666,14.2720003 52.136,14.3253331 52.136,14.368 L46.504,14.368 Z M48.712,10.912 C48.0399966,10.912 47.5200018,11.1519976 47.152,11.632 C46.7839982,12.1120024 46.5733336,12.7573293 46.52,13.568 L50.792,13.568 C50.792,13.2373317 50.754667,12.9146682 50.68,12.6 C50.605333,12.2853318 50.4826675,12.0026679 50.312,11.752 C50.1413325,11.5013321 49.9253346,11.2986674 49.664,11.144 C49.4026654,10.9893326 49.0853352,10.912 48.712,10.912 Z M57.032,18.24 C56.4346637,18.24 55.9093356,18.1306678 55.456,17.912 C55.0026644,17.6933322 54.6240015,17.3946686 54.32,17.016 C54.0159985,16.6373314 53.7893341,16.1946692 53.64,15.688 C53.4906659,15.1813308 53.416,14.6346696 53.416,14.048 C53.416,13.4613304 53.4933326,12.9173358 53.648,12.416 C53.8026674,11.9146642 54.0319985,11.4773352 54.336,11.104 C54.6400015,10.7306648 55.0186644,10.4373344 55.472,10.224 C55.9253356,10.0106656 56.4453304,9.904 57.032,9.904 C57.6186696,9.904 58.1386644,10.0106656 58.592,10.224 C59.0453356,10.4373344 59.4266651,10.7279982 59.736,11.096 C60.0453349,11.4640018 60.2773326,11.9013308 60.432,12.408 C60.5866674,12.9146692 60.664,13.4613304 60.664,14.048 C60.664,14.6346696 60.5866674,15.1813308 60.432,15.688 C60.2773326,16.1946692 60.0453349,16.6373314 59.736,17.016 C59.4266651,17.3946686 59.0453356,17.6933322 58.592,17.912 C58.1386644,18.1306678 57.6186696,18.24 57.032,18.24 Z M57.064,17.2 C57.4266685,17.2 57.7466653,17.1200008 58.024,16.96 C58.3013347,16.7999992 58.5306658,16.5786681 58.712,16.296 C58.8933342,16.0133319 59.0319995,15.6800019 59.128,15.296 C59.2240005,14.9119981 59.272,14.4960022 59.272,14.048 C59.272,13.5999978 59.2240005,13.1866686 59.128,12.808 C59.0319995,12.4293314 58.888001,12.1013347 58.696,11.824 C58.503999,11.5466653 58.2693347,11.3306674 57.992,11.176 C57.7146653,11.0213326 57.3946685,10.944 57.032,10.944 C56.6586648,10.944 56.3333347,11.0213326 56.056,11.176 C55.7786653,11.3306674 55.5493342,11.5466653 55.368,11.824 C55.1866658,12.1013347 55.0480005,12.4293314 54.952,12.808 C54.8559995,13.1866686 54.808,13.5999978 54.808,14.048 C54.808,14.4960022 54.8559995,14.9119981 54.952,15.296 C55.0480005,15.6800019 55.1893324,16.0133319 55.376,16.296 C55.5626676,16.5786681 55.7973319,16.7999992 56.08,16.96 C56.3626681,17.1200008 56.6906648,17.2 57.064,17.2 Z M63,18.944 C63.3093349,19.2426682 63.6799978,19.4799991 64.112,19.656 C64.5440022,19.8320009 65.0053309,19.92 65.496,19.92 C65.9013354,19.92 66.2319987,19.8586673 66.488,19.736 C66.7440013,19.6133327 66.9466659,19.4453344 67.096,19.232 C67.2453341,19.0186656 67.349333,18.7760014 67.408,18.504 C67.466667,18.2319986 67.496,17.9413349 67.496,17.632 L67.496,16.176 C67.2933323,16.6560024 66.9893354,17.0426652 66.584,17.336 C66.1786646,17.6293348 65.6560032,17.776 65.016,17.776 C64.557331,17.776 64.1413352,17.6880009 63.768,17.512 C63.3946648,17.3359991 63.074668,17.0826683 62.808,16.752 C62.541332,16.4213317 62.3360007,16.0160024 62.192,15.536 C62.0479993,15.0559976 61.976,14.5173363 61.976,13.92 C61.976,13.3333304 62.0479993,12.7946691 62.192,12.304 C62.3360007,11.8133309 62.5439986,11.3920018 62.816,11.04 C63.0880014,10.6879982 63.4186647,10.4133343 63.808,10.216 C64.1973353,10.0186657 64.6319976,9.92 65.112,9.92 C65.7413365,9.92 66.2639979,10.0773318 66.68,10.392 C67.0960021,10.7066682 67.3946658,11.1093309 67.576,11.6 L67.8,10.128 L68.824,10.128 L68.824,17.6 C68.824,18.0480022 68.7706672,18.471998 68.664,18.872 C68.5573328,19.272002 68.3760013,19.6266651 68.12,19.936 C67.8639987,20.2453349 67.5226688,20.4906658 67.096,20.672 C66.6693312,20.8533342 66.1360032,20.944 65.496,20.944 C64.8026632,20.944 64.1813361,20.8453343 63.632,20.648 C63.0826639,20.4506657 62.6213352,20.2026682 62.248,19.904 L63,18.944 Z M67.496,13.92 C67.496,13.7386658 67.4933334,13.5653342 67.488,13.4 C67.4826666,13.2346658 67.4693334,13.1093338 67.448,13.024 C67.4053331,12.7679987 67.3360005,12.5173346 67.24,12.272 C67.1439995,12.0266654 67.0133342,11.8133342 66.848,11.632 C66.6826658,11.4506658 66.4800012,11.3040006 66.24,11.192 C65.9999988,11.0799994 65.7200016,11.024 65.4,11.024 C65.0479982,11.024 64.7440013,11.0986659 64.488,11.248 C64.2319987,11.3973341 64.0213342,11.5999987 63.856,11.856 C63.6906658,12.1120013 63.5680004,12.4159982 63.488,12.768 C63.4079996,13.1200018 63.368,13.4933314 63.368,13.888 C63.368,14.2400018 63.405333,14.5893316 63.48,14.936 C63.554667,15.2826684 63.6719992,15.589332 63.832,15.856 C63.9920008,16.122668 64.2026654,16.3386658 64.464,16.504 C64.7253346,16.6693342 65.0426648,16.752 65.416,16.752 C65.9386693,16.752 66.3599984,16.6053348 66.68,16.312 C67.0000016,16.0186652 67.2239994,15.6480022 67.352,15.2 C67.4053336,15.0506659 67.4426666,14.8640011 67.464,14.64 C67.4853334,14.4159989 67.496,14.2026677 67.496,14 L67.496,13.92 Z M70.872,10.128 L72.024,10.128 L72.152,11.888 C72.3760011,11.3119971 72.7333309,10.8373352 73.224,10.464 C73.7146691,10.0906648 74.2959966,9.904 74.968,9.904 L74.968,11.312 C74.8186659,11.2799998 74.6533342,11.264 74.472,11.264 C74.205332,11.264 73.938668,11.3119995 73.672,11.408 C73.405332,11.5040005 73.1626678,11.6586656 72.944,11.872 C72.7253322,12.0853344 72.5466674,12.3599983 72.408,12.696 C72.2693326,13.0320017 72.2,13.4399976 72.2,13.92 L72.2,18 L70.872,18 L70.872,10.128 Z M81.224,18 C81.1066661,17.6159981 81.0373334,17.157336 81.016,16.624 C80.8026656,17.1146691 80.4746689,17.5066652 80.032,17.8 C79.5893311,18.0933348 79.064003,18.24 78.456,18.24 C77.6879962,18.24 77.0800022,18.0213355 76.632,17.584 C76.1839978,17.1466645 75.96,16.5600037 75.96,15.824 C75.96,15.4079979 76.0346659,15.0586681 76.184,14.776 C76.3333341,14.4933319 76.541332,14.2586676 76.808,14.072 C77.074668,13.8853324 77.3893315,13.7386672 77.752,13.632 C78.1146685,13.5253328 78.5093312,13.4400003 78.936,13.376 L80.952,13.072 L80.952,12.576 C80.952,12.2239982 80.9093338,11.9413344 80.824,11.728 C80.7386662,11.5146656 80.6213341,11.3493339 80.472,11.232 C80.3226659,11.1146661 80.152001,11.0373335 79.96,11 C79.767999,10.9626665 79.5653344,10.944 79.352,10.944 C78.743997,10.944 78.2426686,11.0559989 77.848,11.28 C77.4533314,11.5040011 77.122668,11.786665 76.856,12.128 L76.168,11.264 C76.4773349,10.8906648 76.9066639,10.570668 77.456,10.304 C78.0053361,10.037332 78.6853293,9.904 79.496,9.904 C80.4773382,9.904 81.1893311,10.1226645 81.632,10.56 C82.0746689,10.9973355 82.296,11.7013285 82.296,12.672 L82.296,15.856 C82.296,16.1120013 82.2986666,16.335999 82.304,16.528 C82.3093334,16.720001 82.3199999,16.8986658 82.336,17.064 C82.3520001,17.2293342 82.3759998,17.3866659 82.408,17.536 C82.4400002,17.6853341 82.4826664,17.8399992 82.536,18 L81.224,18 Z M80.952,13.952 L79.064,14.256 C78.4133301,14.3733339 77.9520014,14.5493322 77.68,14.784 C77.4079986,15.0186678 77.272,15.3439979 77.272,15.76 C77.272,16.1866688 77.3973321,16.5439986 77.648,16.832 C77.8986679,17.1200014 78.2693309,17.264 78.76,17.264 C79.0586682,17.264 79.341332,17.2053339 79.608,17.088 C79.874668,16.9706661 80.1066657,16.808001 80.304,16.6 C80.5013343,16.391999 80.6586661,16.1413348 80.776,15.848 C80.8933339,15.5546652 80.952,15.2320018 80.952,14.88 L80.952,13.952 Z M84.424,10.128 L85.752,10.128 L85.752,11.648 C85.8480005,11.4239989 85.9706659,11.2053344 86.12,10.992 C86.2693341,10.7786656 86.447999,10.5920008 86.656,10.432 C86.864001,10.2719992 87.1066653,10.1440005 87.384,10.048 C87.6613347,9.95199952 87.9759982,9.904 88.328,9.904 C88.8400026,9.904 89.2853314,10.0106656 89.664,10.224 C90.0426686,10.4373344 90.3546654,10.7306648 90.6,11.104 C90.8453346,11.4773352 91.0293327,11.9119975 91.152,12.408 C91.2746673,12.9040025 91.336,13.4399971 91.336,14.016 C91.336,14.6986701 91.2560008,15.3013307 91.096,15.824 C90.9359992,16.3466693 90.7120014,16.7839982 90.424,17.136 C90.1359986,17.4880018 89.8000019,17.7546658 89.416,17.936 C89.0319981,18.1173342 88.6160022,18.208 88.168,18.208 C87.5813304,18.208 87.0773354,18.0640014 86.656,17.776 C86.2346646,17.4879986 85.9333342,17.1306688 85.752,16.704 L85.752,20.768 L84.424,20.768 L84.424,10.128 Z M85.752,14.112 C85.752,14.3360011 85.7599999,14.5413324 85.776,14.728 C85.7920001,14.9146676 85.8106666,15.0719994 85.832,15.2 C85.8746669,15.4560013 85.9546661,15.7013322 86.072,15.936 C86.1893339,16.1706678 86.3333325,16.3759991 86.504,16.552 C86.6746675,16.7280009 86.8746655,16.8693328 87.104,16.976 C87.3333345,17.0826672 87.5866653,17.136 87.864,17.136 C88.2266685,17.136 88.5386654,17.0506675 88.8,16.88 C89.0613346,16.7093325 89.2773325,16.4800014 89.448,16.192 C89.6186675,15.9039986 89.7439996,15.5760018 89.824,15.208 C89.9040004,14.8399982 89.944,14.4586686 89.944,14.064 C89.944,13.6693314 89.906667,13.2880018 89.832,12.92 C89.757333,12.5519982 89.6373342,12.2266681 89.472,11.944 C89.3066658,11.6613319 89.090668,11.4346675 88.824,11.264 C88.557332,11.0933325 88.2373352,11.008 87.864,11.008 C87.5759986,11.008 87.3120012,11.0613328 87.072,11.168 C86.8319988,11.2746672 86.6266675,11.4186658 86.456,11.6 C86.2853325,11.7813342 86.1440006,11.9893322 86.032,12.224 C85.9199994,12.4586678 85.8480002,12.7039987 85.816,12.96 C85.7946666,13.0666672 85.7786667,13.2133324 85.768,13.4 C85.7573333,13.5866676 85.752,13.8026654 85.752,14.048 L85.752,14.112 Z M93.032,6.704 L94.36,6.704 L94.36,11.68 C94.4560005,11.4453322 94.5786659,11.2213344 94.728,11.008 C94.8773341,10.7946656 95.0586656,10.6053342 95.272,10.44 C95.4853344,10.2746658 95.7306653,10.1440005 96.008,10.048 C96.2853347,9.95199952 96.594665,9.904 96.936,9.904 C97.7573374,9.904 98.3626647,10.1733306 98.752,10.712 C99.1413353,11.2506694 99.336,11.9786621 99.336,12.896 L99.336,18 L98.008,18 L98.008,13.104 C98.008,12.4319966 97.8693347,11.9280017 97.592,11.592 C97.3146653,11.2559983 96.9200026,11.088 96.408,11.088 C96.1093318,11.088 95.8346679,11.1519994 95.584,11.28 C95.3333321,11.4080006 95.1173342,11.5893322 94.936,11.824 C94.7546658,12.0586678 94.6133338,12.3413317 94.512,12.672 C94.4106662,13.0026683 94.36,13.3653314 94.36,13.76 L94.36,18 L93.032,18 L93.032,6.704 Z M101.176,19.68 C101.293334,19.7226669 101.426666,19.7599998 101.576,19.792 C101.725334,19.8240002 101.879999,19.84 102.04,19.84 C102.210668,19.84 102.357333,19.8160002 102.48,19.768 C102.602667,19.7199998 102.714666,19.6320006 102.816,19.504 C102.917334,19.3759994 103.013333,19.2053344 103.104,18.992 C103.194667,18.7786656 103.293333,18.501335 103.4,18.16 L100.728,10.128 L102.168,10.128 L104.088,16.64 L105.992,10.128 L107.432,10.128 L105.016,17.376 C104.813332,17.9946698 104.629334,18.5226645 104.464,18.96 C104.298666,19.3973355 104.114668,19.7573319 103.912,20.04 C103.709332,20.3226681 103.461335,20.530666 103.168,20.664 C102.874665,20.797334 102.498669,20.864 102.04,20.864 C101.858666,20.864 101.664001,20.8560001 101.456,20.84 C101.247999,20.8239999 101.085334,20.7946669 100.968,20.752 L101.176,19.68 Z" id="Label-text" fill="#000000"></path>
                </g>
                <g id="Forms/Radiobutton/Active/Default-Copy" transform="translate(0.000000, 40.000000)">
                    <circle id="Oval" stroke="#7C878E" fill="#FFFFFF" cx="12" cy="12" r="12"></circle>
                    <path d="M34.12,6.704 L37.928,6.704 C38.386669,6.704 38.8373311,6.74933288 39.28,6.84 C39.7226689,6.93066712 40.114665,7.08533224 40.456,7.304 C40.797335,7.52266776 41.071999,7.81333152 41.28,8.176 C41.488001,8.53866848 41.592,8.986664 41.592,9.52 C41.592,10.2133368 41.3866687,10.7839978 40.976,11.232 C40.5653313,11.6800022 39.997337,11.9626661 39.272,12.08 C39.6453352,12.1333336 39.994665,12.2293326 40.32,12.368 C40.645335,12.5066674 40.9279988,12.6933322 41.168,12.928 C41.4080012,13.1626678 41.594666,13.442665 41.728,13.768 C41.861334,14.093335 41.928,14.4693312 41.928,14.896 C41.928,15.4720029 41.8293343,15.959998 41.632,16.36 C41.4346657,16.760002 41.165335,17.0799988 40.824,17.32 C40.482665,17.5600012 40.0773357,17.7333328 39.608,17.84 C39.1386643,17.9466672 38.6266694,18 38.072,18 L34.12,18 L34.12,6.704 Z M37.416,11.552 C37.7253349,11.552 38.0373318,11.5333335 38.352,11.496 C38.6666682,11.4586665 38.9519987,11.3706674 39.208,11.232 C39.4640013,11.0933326 39.6719992,10.8960013 39.832,10.64 C39.9920008,10.3839987 40.072,10.0373355 40.072,9.6 C40.072,9.24799824 40.0080006,8.95733448 39.88,8.728 C39.7519994,8.49866552 39.5760011,8.317334 39.352,8.184 C39.1279989,8.050666 38.8720014,7.9573336 38.584,7.904 C38.2959986,7.8506664 37.9920016,7.824 37.672,7.824 L35.56,7.824 L35.56,11.552 L37.416,11.552 Z M37.848,16.88 C38.1680016,16.88 38.4799985,16.8480003 38.784,16.784 C39.0880015,16.7199997 39.3599988,16.6080008 39.6,16.448 C39.8400012,16.2879992 40.0319993,16.0693347 40.176,15.792 C40.3200007,15.5146653 40.392,15.1626688 40.392,14.736 C40.392,14.3413314 40.3146674,14.010668 40.16,13.744 C40.0053326,13.477332 39.8000013,13.2640008 39.544,13.104 C39.2879987,12.9439992 38.997335,12.8293337 38.672,12.76 C38.346665,12.6906663 38.013335,12.656 37.672,12.656 L35.56,12.656 L35.56,16.88 L37.848,16.88 Z M43.64,7.072 L44.968,7.072 L44.968,8.4 L43.64,8.4 L43.64,7.072 Z M43.64,10.128 L44.968,10.128 L44.968,18 L43.64,18 L43.64,10.128 Z M50.28,18.24 C49.6826637,18.24 49.1573356,18.1306678 48.704,17.912 C48.2506644,17.6933322 47.8720015,17.3946686 47.568,17.016 C47.2639985,16.6373314 47.0373341,16.1946692 46.888,15.688 C46.7386659,15.1813308 46.664,14.6346696 46.664,14.048 C46.664,13.4613304 46.7413326,12.9173358 46.896,12.416 C47.0506674,11.9146642 47.2799985,11.4773352 47.584,11.104 C47.8880015,10.7306648 48.2666644,10.4373344 48.72,10.224 C49.1733356,10.0106656 49.6933304,9.904 50.28,9.904 C50.8666696,9.904 51.3866644,10.0106656 51.84,10.224 C52.2933356,10.4373344 52.6746651,10.7279982 52.984,11.096 C53.2933349,11.4640018 53.5253326,11.9013308 53.68,12.408 C53.8346674,12.9146692 53.912,13.4613304 53.912,14.048 C53.912,14.6346696 53.8346674,15.1813308 53.68,15.688 C53.5253326,16.1946692 53.2933349,16.6373314 52.984,17.016 C52.6746651,17.3946686 52.2933356,17.6933322 51.84,17.912 C51.3866644,18.1306678 50.8666696,18.24 50.28,18.24 Z M50.312,17.2 C50.6746685,17.2 50.9946653,17.1200008 51.272,16.96 C51.5493347,16.7999992 51.7786658,16.5786681 51.96,16.296 C52.1413342,16.0133319 52.2799995,15.6800019 52.376,15.296 C52.4720005,14.9119981 52.52,14.4960022 52.52,14.048 C52.52,13.5999978 52.4720005,13.1866686 52.376,12.808 C52.2799995,12.4293314 52.136001,12.1013347 51.944,11.824 C51.751999,11.5466653 51.5173347,11.3306674 51.24,11.176 C50.9626653,11.0213326 50.6426685,10.944 50.28,10.944 C49.9066648,10.944 49.5813347,11.0213326 49.304,11.176 C49.0266653,11.3306674 48.7973342,11.5466653 48.616,11.824 C48.4346658,12.1013347 48.2960005,12.4293314 48.2,12.808 C48.1039995,13.1866686 48.056,13.5999978 48.056,14.048 C48.056,14.4960022 48.1039995,14.9119981 48.2,15.296 C48.2960005,15.6800019 48.4373324,16.0133319 48.624,16.296 C48.8106676,16.5786681 49.0453319,16.7999992 49.328,16.96 C49.6106681,17.1200008 49.9386648,17.2 50.312,17.2 Z M55.608,6.704 L56.936,6.704 L56.936,18 L55.608,18 L55.608,6.704 Z M62.248,18.24 C61.6506637,18.24 61.1253356,18.1306678 60.672,17.912 C60.2186644,17.6933322 59.8400015,17.3946686 59.536,17.016 C59.2319985,16.6373314 59.0053341,16.1946692 58.856,15.688 C58.7066659,15.1813308 58.632,14.6346696 58.632,14.048 C58.632,13.4613304 58.7093326,12.9173358 58.864,12.416 C59.0186674,11.9146642 59.2479985,11.4773352 59.552,11.104 C59.8560015,10.7306648 60.2346644,10.4373344 60.688,10.224 C61.1413356,10.0106656 61.6613304,9.904 62.248,9.904 C62.8346696,9.904 63.3546644,10.0106656 63.808,10.224 C64.2613356,10.4373344 64.6426651,10.7279982 64.952,11.096 C65.2613349,11.4640018 65.4933326,11.9013308 65.648,12.408 C65.8026674,12.9146692 65.88,13.4613304 65.88,14.048 C65.88,14.6346696 65.8026674,15.1813308 65.648,15.688 C65.4933326,16.1946692 65.2613349,16.6373314 64.952,17.016 C64.6426651,17.3946686 64.2613356,17.6933322 63.808,17.912 C63.3546644,18.1306678 62.8346696,18.24 62.248,18.24 Z M62.28,17.2 C62.6426685,17.2 62.9626653,17.1200008 63.24,16.96 C63.5173347,16.7999992 63.7466658,16.5786681 63.928,16.296 C64.1093342,16.0133319 64.2479995,15.6800019 64.344,15.296 C64.4400005,14.9119981 64.488,14.4960022 64.488,14.048 C64.488,13.5999978 64.4400005,13.1866686 64.344,12.808 C64.2479995,12.4293314 64.104001,12.1013347 63.912,11.824 C63.719999,11.5466653 63.4853347,11.3306674 63.208,11.176 C62.9306653,11.0213326 62.6106685,10.944 62.248,10.944 C61.8746648,10.944 61.5493347,11.0213326 61.272,11.176 C60.9946653,11.3306674 60.7653342,11.5466653 60.584,11.824 C60.4026658,12.1013347 60.2640005,12.4293314 60.168,12.808 C60.0719995,13.1866686 60.024,13.5999978 60.024,14.048 C60.024,14.4960022 60.0719995,14.9119981 60.168,15.296 C60.2640005,15.6800019 60.4053324,16.0133319 60.592,16.296 C60.7786676,16.5786681 61.0133319,16.7999992 61.296,16.96 C61.5786681,17.1200008 61.9066648,17.2 62.28,17.2 Z M68.216,18.944 C68.5253349,19.2426682 68.8959978,19.4799991 69.328,19.656 C69.7600022,19.8320009 70.2213309,19.92 70.712,19.92 C71.1173354,19.92 71.4479987,19.8586673 71.704,19.736 C71.9600013,19.6133327 72.1626659,19.4453344 72.312,19.232 C72.4613341,19.0186656 72.565333,18.7760014 72.624,18.504 C72.682667,18.2319986 72.712,17.9413349 72.712,17.632 L72.712,16.176 C72.5093323,16.6560024 72.2053354,17.0426652 71.8,17.336 C71.3946646,17.6293348 70.8720032,17.776 70.232,17.776 C69.773331,17.776 69.3573352,17.6880009 68.984,17.512 C68.6106648,17.3359991 68.290668,17.0826683 68.024,16.752 C67.757332,16.4213317 67.5520007,16.0160024 67.408,15.536 C67.2639993,15.0559976 67.192,14.5173363 67.192,13.92 C67.192,13.3333304 67.2639993,12.7946691 67.408,12.304 C67.5520007,11.8133309 67.7599986,11.3920018 68.032,11.04 C68.3040014,10.6879982 68.6346647,10.4133343 69.024,10.216 C69.4133353,10.0186657 69.8479976,9.92 70.328,9.92 C70.9573365,9.92 71.4799979,10.0773318 71.896,10.392 C72.3120021,10.7066682 72.6106658,11.1093309 72.792,11.6 L73.016,10.128 L74.04,10.128 L74.04,17.6 C74.04,18.0480022 73.9866672,18.471998 73.88,18.872 C73.7733328,19.272002 73.5920013,19.6266651 73.336,19.936 C73.0799987,20.2453349 72.7386688,20.4906658 72.312,20.672 C71.8853312,20.8533342 71.3520032,20.944 70.712,20.944 C70.0186632,20.944 69.3973361,20.8453343 68.848,20.648 C68.2986639,20.4506657 67.8373352,20.2026682 67.464,19.904 L68.216,18.944 Z M72.712,13.92 C72.712,13.7386658 72.7093334,13.5653342 72.704,13.4 C72.6986666,13.2346658 72.6853334,13.1093338 72.664,13.024 C72.6213331,12.7679987 72.5520005,12.5173346 72.456,12.272 C72.3599995,12.0266654 72.2293342,11.8133342 72.064,11.632 C71.8986658,11.4506658 71.6960012,11.3040006 71.456,11.192 C71.2159988,11.0799994 70.9360016,11.024 70.616,11.024 C70.2639982,11.024 69.9600013,11.0986659 69.704,11.248 C69.4479987,11.3973341 69.2373342,11.5999987 69.072,11.856 C68.9066658,12.1120013 68.7840004,12.4159982 68.704,12.768 C68.6239996,13.1200018 68.584,13.4933314 68.584,13.888 C68.584,14.2400018 68.621333,14.5893316 68.696,14.936 C68.770667,15.2826684 68.8879992,15.589332 69.048,15.856 C69.2080008,16.122668 69.4186654,16.3386658 69.68,16.504 C69.9413346,16.6693342 70.2586648,16.752 70.632,16.752 C71.1546693,16.752 71.5759984,16.6053348 71.896,16.312 C72.2160016,16.0186652 72.4399994,15.6480022 72.568,15.2 C72.6213336,15.0506659 72.6586666,14.8640011 72.68,14.64 C72.7013334,14.4159989 72.712,14.2026677 72.712,14 L72.712,13.92 Z M75.912,19.68 C76.0293339,19.7226669 76.1626659,19.7599998 76.312,19.792 C76.4613341,19.8240002 76.6159992,19.84 76.776,19.84 C76.9466675,19.84 77.0933327,19.8160002 77.216,19.768 C77.3386673,19.7199998 77.4506662,19.6320006 77.552,19.504 C77.6533338,19.3759994 77.7493329,19.2053344 77.84,18.992 C77.9306671,18.7786656 78.0293328,18.501335 78.136,18.16 L75.464,10.128 L76.904,10.128 L78.824,16.64 L80.728,10.128 L82.168,10.128 L79.752,17.376 C79.5493323,17.9946698 79.3653342,18.5226645 79.2,18.96 C79.0346658,19.3973355 78.8506677,19.7573319 78.648,20.04 C78.4453323,20.3226681 78.1973348,20.530666 77.904,20.664 C77.6106652,20.797334 77.234669,20.864 76.776,20.864 C76.5946658,20.864 76.400001,20.8560001 76.192,20.84 C75.983999,20.8239999 75.8213339,20.7946669 75.704,20.752 L75.912,19.68 Z" id="Label-text" fill="#000000"></path>
                </g>
                <g id="Forms/Radiobutton/Active/Default-Copy-2" transform="translate(0.000000, 80.000000)">
                    <circle id="Oval" stroke="#7C878E" fill="#FFFFFF" cx="12" cy="12" r="12"></circle>
                    <path d="M34.12,6.704 L35.56,6.704 L35.56,16.88 L40.952,16.88 L40.952,18 L34.12,18 L34.12,6.704 Z M47.464,18 C47.3466661,17.6159981 47.2773334,17.157336 47.256,16.624 C47.0426656,17.1146691 46.7146689,17.5066652 46.272,17.8 C45.8293311,18.0933348 45.304003,18.24 44.696,18.24 C43.9279962,18.24 43.3200022,18.0213355 42.872,17.584 C42.4239978,17.1466645 42.2,16.5600037 42.2,15.824 C42.2,15.4079979 42.2746659,15.0586681 42.424,14.776 C42.5733341,14.4933319 42.781332,14.2586676 43.048,14.072 C43.314668,13.8853324 43.6293315,13.7386672 43.992,13.632 C44.3546685,13.5253328 44.7493312,13.4400003 45.176,13.376 L47.192,13.072 L47.192,12.576 C47.192,12.2239982 47.1493338,11.9413344 47.064,11.728 C46.9786662,11.5146656 46.8613341,11.3493339 46.712,11.232 C46.5626659,11.1146661 46.392001,11.0373335 46.2,11 C46.007999,10.9626665 45.8053344,10.944 45.592,10.944 C44.983997,10.944 44.4826686,11.0559989 44.088,11.28 C43.6933314,11.5040011 43.362668,11.786665 43.096,12.128 L42.408,11.264 C42.7173349,10.8906648 43.1466639,10.570668 43.696,10.304 C44.2453361,10.037332 44.9253293,9.904 45.736,9.904 C46.7173382,9.904 47.4293311,10.1226645 47.872,10.56 C48.3146689,10.9973355 48.536,11.7013285 48.536,12.672 L48.536,15.856 C48.536,16.1120013 48.5386666,16.335999 48.544,16.528 C48.5493334,16.720001 48.5599999,16.8986658 48.576,17.064 C48.5920001,17.2293342 48.6159998,17.3866659 48.648,17.536 C48.6800002,17.6853341 48.7226664,17.8399992 48.776,18 L47.464,18 Z M47.192,13.952 L45.304,14.256 C44.6533301,14.3733339 44.1920014,14.5493322 43.92,14.784 C43.6479986,15.0186678 43.512,15.3439979 43.512,15.76 C43.512,16.1866688 43.6373321,16.5439986 43.888,16.832 C44.1386679,17.1200014 44.5093309,17.264 45,17.264 C45.2986682,17.264 45.581332,17.2053339 45.848,17.088 C46.114668,16.9706661 46.3466657,16.808001 46.544,16.6 C46.7413343,16.391999 46.8986661,16.1413348 47.016,15.848 C47.1333339,15.5546652 47.192,15.2320018 47.192,14.88 L47.192,13.952 Z M50.664,10.128 L51.816,10.128 L51.96,11.696 C52.1626677,11.2159976 52.4853311,10.7973351 52.928,10.44 C53.3706689,10.0826649 53.9173301,9.904 54.568,9.904 C55.3893374,9.904 55.9946647,10.1653307 56.384,10.688 C56.7733353,11.2106693 56.968,11.9413286 56.968,12.88 L56.968,18 L55.64,18 L55.64,13.152 C55.64,12.4373298 55.4960014,11.9120017 55.208,11.576 C54.9199986,11.2399983 54.5306691,11.072 54.04,11.072 C53.4533304,11.072 52.9653353,11.3119976 52.576,11.792 C52.1866647,12.2720024 51.992,12.949329 51.992,13.824 L51.992,18 L50.664,18 L50.664,10.128 Z M59.624,18.944 C59.9333349,19.2426682 60.3039978,19.4799991 60.736,19.656 C61.1680022,19.8320009 61.6293309,19.92 62.12,19.92 C62.5253354,19.92 62.8559987,19.8586673 63.112,19.736 C63.3680013,19.6133327 63.5706659,19.4453344 63.72,19.232 C63.8693341,19.0186656 63.973333,18.7760014 64.032,18.504 C64.090667,18.2319986 64.12,17.9413349 64.12,17.632 L64.12,16.176 C63.9173323,16.6560024 63.6133354,17.0426652 63.208,17.336 C62.8026646,17.6293348 62.2800032,17.776 61.64,17.776 C61.181331,17.776 60.7653352,17.6880009 60.392,17.512 C60.0186648,17.3359991 59.698668,17.0826683 59.432,16.752 C59.165332,16.4213317 58.9600007,16.0160024 58.816,15.536 C58.6719993,15.0559976 58.6,14.5173363 58.6,13.92 C58.6,13.3333304 58.6719993,12.7946691 58.816,12.304 C58.9600007,11.8133309 59.1679986,11.3920018 59.44,11.04 C59.7120014,10.6879982 60.0426647,10.4133343 60.432,10.216 C60.8213353,10.0186657 61.2559976,9.92 61.736,9.92 C62.3653365,9.92 62.8879979,10.0773318 63.304,10.392 C63.7200021,10.7066682 64.0186658,11.1093309 64.2,11.6 L64.424,10.128 L65.448,10.128 L65.448,17.6 C65.448,18.0480022 65.3946672,18.471998 65.288,18.872 C65.1813328,19.272002 65.0000013,19.6266651 64.744,19.936 C64.4879987,20.2453349 64.1466688,20.4906658 63.72,20.672 C63.2933312,20.8533342 62.7600032,20.944 62.12,20.944 C61.4266632,20.944 60.8053361,20.8453343 60.256,20.648 C59.7066639,20.4506657 59.2453352,20.2026682 58.872,19.904 L59.624,18.944 Z M64.12,13.92 C64.12,13.7386658 64.1173334,13.5653342 64.112,13.4 C64.1066666,13.2346658 64.0933334,13.1093338 64.072,13.024 C64.0293331,12.7679987 63.9600005,12.5173346 63.864,12.272 C63.7679995,12.0266654 63.6373342,11.8133342 63.472,11.632 C63.3066658,11.4506658 63.1040012,11.3040006 62.864,11.192 C62.6239988,11.0799994 62.3440016,11.024 62.024,11.024 C61.6719982,11.024 61.3680013,11.0986659 61.112,11.248 C60.8559987,11.3973341 60.6453342,11.5999987 60.48,11.856 C60.3146658,12.1120013 60.1920004,12.4159982 60.112,12.768 C60.0319996,13.1200018 59.992,13.4933314 59.992,13.888 C59.992,14.2400018 60.029333,14.5893316 60.104,14.936 C60.178667,15.2826684 60.2959992,15.589332 60.456,15.856 C60.6160008,16.122668 60.8266654,16.3386658 61.088,16.504 C61.3493346,16.6693342 61.6666648,16.752 62.04,16.752 C62.5626693,16.752 62.9839984,16.6053348 63.304,16.312 C63.6240016,16.0186652 63.8479994,15.6480022 63.976,15.2 C64.0293336,15.0506659 64.0666666,14.8640011 64.088,14.64 C64.1093334,14.4159989 64.12,14.2026677 64.12,14 L64.12,13.92 Z M67.464,10.128 L68.808,10.128 L68.808,14.896 C68.808,15.6426704 68.9466653,16.1893316 69.224,16.536 C69.5013347,16.8826684 69.8906642,17.056 70.392,17.056 C71.0320032,17.056 71.5306649,16.8026692 71.888,16.296 C72.2453351,15.7893308 72.424,15.1146709 72.424,14.272 L72.424,10.128 L73.752,10.128 L73.752,18 L72.504,18 L72.504,16.4 C72.4079995,16.6453346 72.2906674,16.8773322 72.152,17.096 C72.0133326,17.3146678 71.8426677,17.5066658 71.64,17.672 C71.4373323,17.8373342 71.202668,17.9679995 70.936,18.064 C70.669332,18.1600005 70.3546685,18.208 69.992,18.208 C69.1386624,18.208 68.5040021,17.9493359 68.088,17.432 C67.6719979,16.9146641 67.464,16.1813381 67.464,15.232 L67.464,10.128 Z M80.744,18 C80.6266661,17.6159981 80.5573334,17.157336 80.536,16.624 C80.3226656,17.1146691 79.9946689,17.5066652 79.552,17.8 C79.1093311,18.0933348 78.584003,18.24 77.976,18.24 C77.2079962,18.24 76.6000022,18.0213355 76.152,17.584 C75.7039978,17.1466645 75.48,16.5600037 75.48,15.824 C75.48,15.4079979 75.5546659,15.0586681 75.704,14.776 C75.8533341,14.4933319 76.061332,14.2586676 76.328,14.072 C76.594668,13.8853324 76.9093315,13.7386672 77.272,13.632 C77.6346685,13.5253328 78.0293312,13.4400003 78.456,13.376 L80.472,13.072 L80.472,12.576 C80.472,12.2239982 80.4293338,11.9413344 80.344,11.728 C80.2586662,11.5146656 80.1413341,11.3493339 79.992,11.232 C79.8426659,11.1146661 79.672001,11.0373335 79.48,11 C79.287999,10.9626665 79.0853344,10.944 78.872,10.944 C78.263997,10.944 77.7626686,11.0559989 77.368,11.28 C76.9733314,11.5040011 76.642668,11.786665 76.376,12.128 L75.688,11.264 C75.9973349,10.8906648 76.4266639,10.570668 76.976,10.304 C77.5253361,10.037332 78.2053293,9.904 79.016,9.904 C79.9973382,9.904 80.7093311,10.1226645 81.152,10.56 C81.5946689,10.9973355 81.816,11.7013285 81.816,12.672 L81.816,15.856 C81.816,16.1120013 81.8186666,16.335999 81.824,16.528 C81.8293334,16.720001 81.8399999,16.8986658 81.856,17.064 C81.8720001,17.2293342 81.8959998,17.3866659 81.928,17.536 C81.9600002,17.6853341 82.0026664,17.8399992 82.056,18 L80.744,18 Z M80.472,13.952 L78.584,14.256 C77.9333301,14.3733339 77.4720014,14.5493322 77.2,14.784 C76.9279986,15.0186678 76.792,15.3439979 76.792,15.76 C76.792,16.1866688 76.9173321,16.5439986 77.168,16.832 C77.4186679,17.1200014 77.7893309,17.264 78.28,17.264 C78.5786682,17.264 78.861332,17.2053339 79.128,17.088 C79.394668,16.9706661 79.6266657,16.808001 79.824,16.6 C80.0213343,16.391999 80.1786661,16.1413348 80.296,15.848 C80.4133339,15.5546652 80.472,15.2320018 80.472,14.88 L80.472,13.952 Z M84.584,18.944 C84.8933349,19.2426682 85.2639978,19.4799991 85.696,19.656 C86.1280022,19.8320009 86.5893309,19.92 87.08,19.92 C87.4853354,19.92 87.8159987,19.8586673 88.072,19.736 C88.3280013,19.6133327 88.5306659,19.4453344 88.68,19.232 C88.8293341,19.0186656 88.933333,18.7760014 88.992,18.504 C89.050667,18.2319986 89.08,17.9413349 89.08,17.632 L89.08,16.176 C88.8773323,16.6560024 88.5733354,17.0426652 88.168,17.336 C87.7626646,17.6293348 87.2400032,17.776 86.6,17.776 C86.141331,17.776 85.7253352,17.6880009 85.352,17.512 C84.9786648,17.3359991 84.658668,17.0826683 84.392,16.752 C84.125332,16.4213317 83.9200007,16.0160024 83.776,15.536 C83.6319993,15.0559976 83.56,14.5173363 83.56,13.92 C83.56,13.3333304 83.6319993,12.7946691 83.776,12.304 C83.9200007,11.8133309 84.1279986,11.3920018 84.4,11.04 C84.6720014,10.6879982 85.0026647,10.4133343 85.392,10.216 C85.7813353,10.0186657 86.2159976,9.92 86.696,9.92 C87.3253365,9.92 87.8479979,10.0773318 88.264,10.392 C88.6800021,10.7066682 88.9786658,11.1093309 89.16,11.6 L89.384,10.128 L90.408,10.128 L90.408,17.6 C90.408,18.0480022 90.3546672,18.471998 90.248,18.872 C90.1413328,19.272002 89.9600013,19.6266651 89.704,19.936 C89.4479987,20.2453349 89.1066688,20.4906658 88.68,20.672 C88.2533312,20.8533342 87.7200032,20.944 87.08,20.944 C86.3866632,20.944 85.7653361,20.8453343 85.216,20.648 C84.6666639,20.4506657 84.2053352,20.2026682 83.832,19.904 L84.584,18.944 Z M89.08,13.92 C89.08,13.7386658 89.0773334,13.5653342 89.072,13.4 C89.0666666,13.2346658 89.0533334,13.1093338 89.032,13.024 C88.9893331,12.7679987 88.9200005,12.5173346 88.824,12.272 C88.7279995,12.0266654 88.5973342,11.8133342 88.432,11.632 C88.2666658,11.4506658 88.0640012,11.3040006 87.824,11.192 C87.5839988,11.0799994 87.3040016,11.024 86.984,11.024 C86.6319982,11.024 86.3280013,11.0986659 86.072,11.248 C85.8159987,11.3973341 85.6053342,11.5999987 85.44,11.856 C85.2746658,12.1120013 85.1520004,12.4159982 85.072,12.768 C84.9919996,13.1200018 84.952,13.4933314 84.952,13.888 C84.952,14.2400018 84.989333,14.5893316 85.064,14.936 C85.138667,15.2826684 85.2559992,15.589332 85.416,15.856 C85.5760008,16.122668 85.7866654,16.3386658 86.048,16.504 C86.3093346,16.6693342 86.6266648,16.752 87,16.752 C87.5226693,16.752 87.9439984,16.6053348 88.264,16.312 C88.5840016,16.0186652 88.8079994,15.6480022 88.936,15.2 C88.9893336,15.0506659 89.0266666,14.8640011 89.048,14.64 C89.0693334,14.4159989 89.08,14.2026677 89.08,14 L89.08,13.92 Z M93.464,14.368 C93.5173336,15.2746712 93.7493313,15.9759975 94.16,16.472 C94.5706687,16.9680025 95.1439963,17.216 95.88,17.216 C96.8080046,17.216 97.5066643,16.778671 97.976,15.904 L98.984,16.464 C98.6746651,16.9866693 98.2640026,17.4133317 97.752,17.744 C97.2399974,18.0746683 96.5946706,18.24 95.816,18.24 C95.1973302,18.24 94.6560023,18.1333344 94.192,17.92 C93.7279977,17.7066656 93.3413349,17.4133352 93.032,17.04 C92.7226651,16.6666648 92.4906674,16.2293358 92.336,15.728 C92.1813326,15.2266642 92.104,14.6880029 92.104,14.112 C92.104,13.5466638 92.1786659,13.0080026 92.328,12.496 C92.4773341,11.9839974 92.7039985,11.5360019 93.008,11.152 C93.3120015,10.7679981 93.6853311,10.4640011 94.128,10.24 C94.5706689,10.0159989 95.0906637,9.904 95.688,9.904 C96.2640029,9.904 96.7653312,10.0133322 97.192,10.232 C97.6186688,10.4506678 97.9733319,10.7439982 98.256,11.112 C98.5386681,11.4800018 98.7519993,11.9066642 98.896,12.392 C99.0400007,12.8773358 99.112,13.3919973 99.112,13.936 C99.112,14.0533339 99.1093334,14.1439997 99.104,14.208 C99.0986666,14.2720003 99.096,14.3253331 99.096,14.368 L93.464,14.368 Z M95.672,10.912 C94.9999966,10.912 94.4800018,11.1519976 94.112,11.632 C93.7439982,12.1120024 93.5333336,12.7573293 93.48,13.568 L97.752,13.568 C97.752,13.2373317 97.714667,12.9146682 97.64,12.6 C97.565333,12.2853318 97.4426675,12.0026679 97.272,11.752 C97.1013325,11.5013321 96.8853346,11.2986674 96.624,11.144 C96.3626654,10.9893326 96.0453352,10.912 95.672,10.912 Z" id="Label-text" fill="#000000"></path>
                </g>
            </g>
        </g>
    </g>
</svg>