<?xml version="1.0" encoding="UTF-8"?>
<svg width="221px" height="26px" viewBox="0 0 221 26" version="1.1" xmlns="http://www.w3.org/2000/svg" xmlns:xlink="http://www.w3.org/1999/xlink">
    <!-- Generator: Sketch 47 (45396) - http://www.bohemiancoding.com/sketch -->
    <title>Unchecked</title>
    <desc>Created with Sketch.</desc>
    <defs></defs>
    <g id="Page-1" stroke="none" stroke-width="1" fill="none" fill-rule="evenodd">
        <g id="Buttons-Usage-extra-large-1200" transform="translate(-832.000000, -2965.000000)">
            <g id="Unchecked" transform="translate(833.000000, 2966.000000)">
                <g id="Forms/Radiobutton/Active/Default">
                    <circle id="Oval" stroke="#7C878E" fill="#FFFFFF" cx="12" cy="12" r="12"></circle>
                    <path d="M34.12,6.704 L40.904,6.704 L40.904,7.824 L35.56,7.824 L35.56,11.76 L39.672,11.76 L39.672,12.864 L35.56,12.864 L35.56,18 L34.12,18 L34.12,6.704 Z M41.912,10.128 L43.064,10.128 L43.192,11.888 C43.4160011,11.3119971 43.7733309,10.8373352 44.264,10.464 C44.7546691,10.0906648 45.3359966,9.904 46.008,9.904 L46.008,11.312 C45.8586659,11.2799998 45.6933342,11.264 45.512,11.264 C45.245332,11.264 44.978668,11.3119995 44.712,11.408 C44.445332,11.5040005 44.2026678,11.6586656 43.984,11.872 C43.7653322,12.0853344 43.5866674,12.3599983 43.448,12.696 C43.3093326,13.0320017 43.24,13.4399976 43.24,13.92 L43.24,18 L41.912,18 L41.912,10.128 Z M48.328,14.368 C48.3813336,15.2746712 48.6133313,15.9759975 49.024,16.472 C49.4346687,16.9680025 50.0079963,17.216 50.744,17.216 C51.6720046,17.216 52.3706643,16.778671 52.84,15.904 L53.848,16.464 C53.5386651,16.9866693 53.1280026,17.4133317 52.616,17.744 C52.1039974,18.0746683 51.4586706,18.24 50.68,18.24 C50.0613302,18.24 49.5200023,18.1333344 49.056,17.92 C48.5919977,17.7066656 48.2053349,17.4133352 47.896,17.04 C47.5866651,16.6666648 47.3546674,16.2293358 47.2,15.728 C47.0453326,15.2266642 46.968,14.6880029 46.968,14.112 C46.968,13.5466638 47.0426659,13.0080026 47.192,12.496 C47.3413341,11.9839974 47.5679985,11.5360019 47.872,11.152 C48.1760015,10.7679981 48.5493311,10.4640011 48.992,10.24 C49.4346689,10.0159989 49.9546637,9.904 50.552,9.904 C51.1280029,9.904 51.6293312,10.0133322 52.056,10.232 C52.4826688,10.4506678 52.8373319,10.7439982 53.12,11.112 C53.4026681,11.4800018 53.6159993,11.9066642 53.76,12.392 C53.9040007,12.8773358 53.976,13.3919973 53.976,13.936 C53.976,14.0533339 53.9733334,14.1439997 53.968,14.208 C53.9626666,14.2720003 53.96,14.3253331 53.96,14.368 L48.328,14.368 Z M50.536,10.912 C49.8639966,10.912 49.3440018,11.1519976 48.976,11.632 C48.6079982,12.1120024 48.3973336,12.7573293 48.344,13.568 L52.616,13.568 C52.616,13.2373317 52.578667,12.9146682 52.504,12.6 C52.429333,12.2853318 52.3066675,12.0026679 52.136,11.752 C51.9653325,11.5013321 51.7493346,11.2986674 51.488,11.144 C51.2266654,10.9893326 50.9093352,10.912 50.536,10.912 Z M56.6,14.368 C56.6533336,15.2746712 56.8853313,15.9759975 57.296,16.472 C57.7066687,16.9680025 58.2799963,17.216 59.016,17.216 C59.9440046,17.216 60.6426643,16.778671 61.112,15.904 L62.12,16.464 C61.8106651,16.9866693 61.4000026,17.4133317 60.888,17.744 C60.3759974,18.0746683 59.7306706,18.24 58.952,18.24 C58.3333302,18.24 57.7920023,18.1333344 57.328,17.92 C56.8639977,17.7066656 56.4773349,17.4133352 56.168,17.04 C55.8586651,16.6666648 55.6266674,16.2293358 55.472,15.728 C55.3173326,15.2266642 55.24,14.6880029 55.24,14.112 C55.24,13.5466638 55.3146659,13.0080026 55.464,12.496 C55.6133341,11.9839974 55.8399985,11.5360019 56.144,11.152 C56.4480015,10.7679981 56.8213311,10.4640011 57.264,10.24 C57.7066689,10.0159989 58.2266637,9.904 58.824,9.904 C59.4000029,9.904 59.9013312,10.0133322 60.328,10.232 C60.7546688,10.4506678 61.1093319,10.7439982 61.392,11.112 C61.6746681,11.4800018 61.8879993,11.9066642 62.032,12.392 C62.1760007,12.8773358 62.248,13.3919973 62.248,13.936 C62.248,14.0533339 62.2453334,14.1439997 62.24,14.208 C62.2346666,14.2720003 62.232,14.3253331 62.232,14.368 L56.6,14.368 Z M58.808,10.912 C58.1359966,10.912 57.6160018,11.1519976 57.248,11.632 C56.8799982,12.1120024 56.6693336,12.7573293 56.616,13.568 L60.888,13.568 C60.888,13.2373317 60.850667,12.9146682 60.776,12.6 C60.701333,12.2853318 60.5786675,12.0026679 60.408,11.752 C60.2373325,11.5013321 60.0213346,11.2986674 59.76,11.144 C59.4986654,10.9893326 59.1813352,10.912 58.808,10.912 Z" id="Label-text" fill="#000000"></path>
                </g>
                <g id="Forms/Radiobutton/Active/Default-Copy-3" transform="translate(87.000000, 0.000000)">
                    <circle id="Oval" stroke="#7C878E" fill="#FFFFFF" cx="12" cy="12" r="12"></circle>
                    <path d="M34.12,6.704 L37.912,6.704 C38.4773362,6.704 38.9999976,6.76799936 39.48,6.896 C39.9600024,7.02400064 40.3733316,7.221332 40.72,7.488 C41.0666684,7.754668 41.3386657,8.09333128 41.536,8.504 C41.7333343,8.91466872 41.832,9.40799712 41.832,9.984 C41.832,10.6240032 41.7333343,11.1679978 41.536,11.616 C41.3386657,12.0640022 41.0640018,12.4266653 40.712,12.704 C40.3599982,12.9813347 39.946669,13.1813327 39.472,13.304 C38.997331,13.4266673 38.4826694,13.488 37.928,13.488 L35.56,13.488 L35.56,18 L34.12,18 L34.12,6.704 Z M37.688,12.336 C38.5200042,12.336 39.165331,12.1573351 39.624,11.8 C40.082669,11.4426649 40.312,10.8373376 40.312,9.984 C40.312,9.58933136 40.245334,9.25333472 40.112,8.976 C39.978666,8.69866528 39.7973345,8.47466752 39.568,8.304 C39.3386655,8.13333248 39.0666682,8.01066704 38.752,7.936 C38.4373318,7.86133296 38.0986685,7.824 37.736,7.824 L35.56,7.824 L35.56,12.336 L37.688,12.336 Z M43.416,10.128 L44.568,10.128 L44.696,11.888 C44.9200011,11.3119971 45.2773309,10.8373352 45.768,10.464 C46.2586691,10.0906648 46.8399966,9.904 47.512,9.904 L47.512,11.312 C47.3626659,11.2799998 47.1973342,11.264 47.016,11.264 C46.749332,11.264 46.482668,11.3119995 46.216,11.408 C45.949332,11.5040005 45.7066678,11.6586656 45.488,11.872 C45.2693322,12.0853344 45.0906674,12.3599983 44.952,12.696 C44.8133326,13.0320017 44.744,13.4399976 44.744,13.92 L44.744,18 L43.416,18 L43.416,10.128 Z M49.832,14.368 C49.8853336,15.2746712 50.1173313,15.9759975 50.528,16.472 C50.9386687,16.9680025 51.5119963,17.216 52.248,17.216 C53.1760046,17.216 53.8746643,16.778671 54.344,15.904 L55.352,16.464 C55.0426651,16.9866693 54.6320026,17.4133317 54.12,17.744 C53.6079974,18.0746683 52.9626706,18.24 52.184,18.24 C51.5653302,18.24 51.0240023,18.1333344 50.56,17.92 C50.0959977,17.7066656 49.7093349,17.4133352 49.4,17.04 C49.0906651,16.6666648 48.8586674,16.2293358 48.704,15.728 C48.5493326,15.2266642 48.472,14.6880029 48.472,14.112 C48.472,13.5466638 48.5466659,13.0080026 48.696,12.496 C48.8453341,11.9839974 49.0719985,11.5360019 49.376,11.152 C49.6800015,10.7679981 50.0533311,10.4640011 50.496,10.24 C50.9386689,10.0159989 51.4586637,9.904 52.056,9.904 C52.6320029,9.904 53.1333312,10.0133322 53.56,10.232 C53.9866688,10.4506678 54.3413319,10.7439982 54.624,11.112 C54.9066681,11.4800018 55.1199993,11.9066642 55.264,12.392 C55.4080007,12.8773358 55.48,13.3919973 55.48,13.936 C55.48,14.0533339 55.4773334,14.1439997 55.472,14.208 C55.4666666,14.2720003 55.464,14.3253331 55.464,14.368 L49.832,14.368 Z M52.04,10.912 C51.3679966,10.912 50.8480018,11.1519976 50.48,11.632 C50.1119982,12.1120024 49.9013336,12.7573293 49.848,13.568 L54.12,13.568 C54.12,13.2373317 54.082667,12.9146682 54.008,12.6 C53.933333,12.2853318 53.8106675,12.0026679 53.64,11.752 C53.4693325,11.5013321 53.2533346,11.2986674 52.992,11.144 C52.7306654,10.9893326 52.4133352,10.912 52.04,10.912 Z M57.096,10.128 L58.248,10.128 L58.392,11.664 C58.584001,11.1199973 58.8826646,10.6906682 59.288,10.376 C59.6933354,10.0613318 60.1893304,9.904 60.776,9.904 C61.3946698,9.904 61.8799982,10.0799982 62.232,10.432 C62.5840018,10.7840018 62.8079995,11.2106642 62.904,11.712 C63.0000005,11.4666654 63.1199993,11.2346678 63.264,11.016 C63.4080007,10.7973322 63.5813323,10.6053342 63.784,10.44 C63.9866677,10.2746658 64.221332,10.1440005 64.488,10.048 C64.754668,9.95199952 65.058665,9.904 65.4,9.904 C65.8480022,9.904 66.2186652,9.98133256 66.512,10.136 C66.8053348,10.2906674 67.0399991,10.501332 67.216,10.768 C67.3920009,11.034668 67.517333,11.3466649 67.592,11.704 C67.666667,12.0613351 67.704,12.4373314 67.704,12.832 L67.704,18 L66.376,18 L66.376,13.168 C66.376,12.4639965 66.2506679,11.9386684 66,11.592 C65.7493321,11.2453316 65.3840024,11.072 64.904,11.072 C64.3813307,11.072 63.9440018,11.3039977 63.592,11.768 C63.2399982,12.2320023 63.064,12.8959957 63.064,13.76 L63.064,18 L61.736,18 L61.736,13.232 C61.736,12.4959963 61.6080013,11.9520018 61.352,11.6 C61.0959987,11.2479982 60.738669,11.072 60.28,11.072 C59.7679974,11.072 59.3306685,11.309331 58.968,11.784 C58.6053315,12.258669 58.424,12.9439955 58.424,13.84 L58.424,18 L57.096,18 L57.096,10.128 Z M69.72,7.072 L71.048,7.072 L71.048,8.4 L69.72,8.4 L69.72,7.072 Z M69.72,10.128 L71.048,10.128 L71.048,18 L69.72,18 L69.72,10.128 Z M73.064,10.128 L74.408,10.128 L74.408,14.896 C74.408,15.6426704 74.5466653,16.1893316 74.824,16.536 C75.1013347,16.8826684 75.4906642,17.056 75.992,17.056 C76.6320032,17.056 77.1306649,16.8026692 77.488,16.296 C77.8453351,15.7893308 78.024,15.1146709 78.024,14.272 L78.024,10.128 L79.352,10.128 L79.352,18 L78.104,18 L78.104,16.4 C78.0079995,16.6453346 77.8906674,16.8773322 77.752,17.096 C77.6133326,17.3146678 77.4426677,17.5066658 77.24,17.672 C77.0373323,17.8373342 76.802668,17.9679995 76.536,18.064 C76.269332,18.1600005 75.9546685,18.208 75.592,18.208 C74.7386624,18.208 74.1040021,17.9493359 73.688,17.432 C73.2719979,16.9146641 73.064,16.1813381 73.064,15.232 L73.064,10.128 Z M81.4,10.128 L82.552,10.128 L82.696,11.664 C82.888001,11.1199973 83.1866646,10.6906682 83.592,10.376 C83.9973354,10.0613318 84.4933304,9.904 85.08,9.904 C85.6986698,9.904 86.1839982,10.0799982 86.536,10.432 C86.8880018,10.7840018 87.1119995,11.2106642 87.208,11.712 C87.3040005,11.4666654 87.4239993,11.2346678 87.568,11.016 C87.7120007,10.7973322 87.8853323,10.6053342 88.088,10.44 C88.2906677,10.2746658 88.525332,10.1440005 88.792,10.048 C89.058668,9.95199952 89.362665,9.904 89.704,9.904 C90.1520022,9.904 90.5226652,9.98133256 90.816,10.136 C91.1093348,10.2906674 91.3439991,10.501332 91.52,10.768 C91.6960009,11.034668 91.821333,11.3466649 91.896,11.704 C91.970667,12.0613351 92.008,12.4373314 92.008,12.832 L92.008,18 L90.68,18 L90.68,13.168 C90.68,12.4639965 90.5546679,11.9386684 90.304,11.592 C90.0533321,11.2453316 89.6880024,11.072 89.208,11.072 C88.6853307,11.072 88.2480018,11.3039977 87.896,11.768 C87.5439982,12.2320023 87.368,12.8959957 87.368,13.76 L87.368,18 L86.04,18 L86.04,13.232 C86.04,12.4959963 85.9120013,11.9520018 85.656,11.6 C85.3999987,11.2479982 85.042669,11.072 84.584,11.072 C84.0719974,11.072 83.6346685,11.309331 83.272,11.784 C82.9093315,12.258669 82.728,12.9439955 82.728,13.84 L82.728,18 L81.4,18 L81.4,10.128 Z M97.448,12.672 L101.688,12.672 L101.688,13.84 L97.448,13.84 L97.448,12.672 Z M108.232,15.536 C108.445334,16.0800027 108.746665,16.4906653 109.136,16.768 C109.525335,17.0453347 109.986664,17.184 110.52,17.184 C110.893335,17.184 111.226665,17.1120007 111.52,16.968 C111.813335,16.8239993 112.058666,16.6293346 112.256,16.384 C112.453334,16.1386654 112.602666,15.853335 112.704,15.528 C112.805334,15.202665 112.856,14.8586685 112.856,14.496 C112.856,14.1333315 112.805334,13.789335 112.704,13.464 C112.602666,13.138665 112.456001,12.8586678 112.264,12.624 C112.071999,12.3893322 111.837335,12.2026674 111.56,12.064 C111.282665,11.9253326 110.968002,11.856 110.616,11.856 C110.093331,11.856 109.661335,11.9866654 109.32,12.248 C108.978665,12.5093346 108.712001,12.8159982 108.52,13.168 L107.4,13.024 L108.024,7.264 L113.8,7.264 L113.8,8.4 L108.952,8.4 L108.584,12.032 C108.850668,11.6586648 109.186665,11.368001 109.592,11.16 C109.997335,10.951999 110.477331,10.848 111.032,10.848 C111.554669,10.848 112.023998,10.943999 112.44,11.136 C112.856002,11.328001 113.202665,11.5839984 113.48,11.904 C113.757335,12.2240016 113.970666,12.5999978 114.12,13.032 C114.269334,13.4640022 114.344,13.9199976 114.344,14.4 C114.344,14.9866696 114.250668,15.5146643 114.064,15.984 C113.877332,16.4533357 113.621335,16.8533317 113.296,17.184 C112.970665,17.5146683 112.581336,17.7706658 112.128,17.952 C111.674664,18.1333342 111.181336,18.224 110.648,18.224 C110.242665,18.224 109.856002,18.1840004 109.488,18.104 C109.119998,18.0239996 108.781335,17.8960009 108.472,17.72 C108.162665,17.5439991 107.882668,17.3120014 107.632,17.024 C107.381332,16.7359986 107.170668,16.3893354 107,15.984 L108.232,15.536 Z M119.816,17.104 C120.306669,17.104 120.709332,16.9520015 121.024,16.648 C121.338668,16.3439985 121.583999,15.9653356 121.76,15.512 C121.936001,15.0586644 122.058666,14.5733359 122.128,14.056 C122.197334,13.5386641 122.232,13.0666688 122.232,12.64 C122.232,12.2239979 122.197334,11.7546693 122.128,11.232 C122.058666,10.7093307 121.936001,10.2213356 121.76,9.768 C121.583999,9.3146644 121.338668,8.93333488 121.024,8.624 C120.709332,8.31466512 120.306669,8.16 119.816,8.16 C119.335998,8.16 118.941335,8.3066652 118.632,8.6 C118.322665,8.8933348 118.074668,9.25599784 117.888,9.688 C117.701332,10.1200022 117.573334,10.5866642 117.504,11.088 C117.434666,11.5893358 117.4,12.0533312 117.4,12.48 C117.4,12.9173355 117.429333,13.402664 117.488,13.936 C117.546667,14.469336 117.663999,14.9706643 117.84,15.44 C118.016001,15.9093357 118.261332,16.3039984 118.576,16.624 C118.890668,16.9440016 119.303997,17.104 119.816,17.104 Z M119.816,18.24 C119.111996,18.2293333 118.509336,18.053335 118.008,17.712 C117.506664,17.370665 117.101335,16.933336 116.792,16.4 C116.482665,15.866664 116.256001,15.2693366 116.112,14.608 C115.967999,13.9466634 115.896,13.2906699 115.896,12.64 C115.896,11.9893301 115.967999,11.33067 116.112,10.664 C116.256001,9.99733 116.485332,9.397336 116.8,8.864 C117.114668,8.330664 117.522664,7.89333504 118.024,7.552 C118.525336,7.21066496 119.138663,7.04 119.864,7.04 C120.57867,7.04 121.183998,7.21066496 121.68,7.552 C122.176002,7.89333504 122.575998,8.330664 122.88,8.864 C123.184002,9.397336 123.402666,9.99466336 123.536,10.656 C123.669334,11.3173366 123.736,11.9733301 123.736,12.624 C123.736,13.2640032 123.669334,13.9146634 123.536,14.576 C123.402666,15.2373366 123.184002,15.8373306 122.88,16.376 C122.575998,16.9146694 122.173336,17.3573316 121.672,17.704 C121.170664,18.0506684 120.552004,18.2293333 119.816,18.24 Z M128.808,19.6 L128.808,18.208 C127.890662,18.1759998 127.12267,18.0106682 126.504,17.712 C125.88533,17.4133318 125.373335,16.9920027 124.968,16.448 L125.912,15.52 C126.189335,15.9573355 126.578664,16.3146653 127.08,16.592 C127.581336,16.8693347 128.15733,17.0346664 128.808,17.088 L128.808,13.056 C128.359998,12.9386661 127.930669,12.8053341 127.52,12.656 C127.109331,12.5066659 126.746668,12.3173345 126.432,12.088 C126.117332,11.8586655 125.864001,11.573335 125.672,11.232 C125.479999,10.890665 125.384,10.4640026 125.384,9.952 C125.384,9.5253312 125.469332,9.1386684 125.64,8.792 C125.810668,8.4453316 126.047998,8.14666792 126.352,7.896 C126.656002,7.64533208 127.015998,7.44800072 127.432,7.304 C127.848002,7.15999928 128.306664,7.07733344 128.808,7.056 L128.808,5.584 L129.544,5.584 L129.544,7.056 C130.25867,7.1093336 130.893331,7.26666536 131.448,7.528 C132.002669,7.78933464 132.466665,8.12266464 132.84,8.528 L131.928,9.392 C131.639999,9.08266512 131.298669,8.82400104 130.904,8.616 C130.509331,8.40799896 130.056003,8.2773336 129.544,8.224 L129.544,11.84 C130.077336,11.9893341 130.557331,12.1546658 130.984,12.336 C131.410669,12.5173342 131.773332,12.7333321 132.072,12.984 C132.370668,13.2346679 132.599999,13.5199984 132.76,13.84 C132.920001,14.1600016 133,14.5333312 133,14.96 C133,15.4506691 132.912001,15.8879981 132.736,16.272 C132.559999,16.6560019 132.317335,16.9866653 132.008,17.264 C131.698665,17.5413347 131.333335,17.7599992 130.912,17.92 C130.490665,18.0800008 130.034669,18.1759998 129.544,18.208 L129.544,19.6 L128.808,19.6 Z M131.592,15.088 C131.592,14.5759974 131.410668,14.1920013 131.048,13.936 C130.685332,13.6799987 130.184003,13.456001 129.544,13.264 L129.544,17.072 C130.16267,17.0079997 130.658665,16.8026684 131.032,16.456 C131.405335,16.1093316 131.592,15.6533362 131.592,15.088 Z M126.792,9.904 C126.792,10.3840024 126.975998,10.7466654 127.344,10.992 C127.712002,11.2373346 128.199997,11.4506658 128.808,11.632 L128.808,8.208 C128.530665,8.22933344 128.269335,8.27466632 128.024,8.344 C127.778665,8.41333368 127.565334,8.51733264 127.384,8.656 C127.202666,8.79466736 127.058667,8.96799896 126.952,9.176 C126.845333,9.38400104 126.792,9.62666528 126.792,9.904 Z" id="Label-text" fill="#000000"></path>
                </g>
            </g>
        </g>
    </g>
</svg>