<?xml version="1.0" encoding="UTF-8"?>
<svg width="269px" height="26px" viewBox="0 0 269 26" version="1.1" xmlns="http://www.w3.org/2000/svg" xmlns:xlink="http://www.w3.org/1999/xlink">
    <!-- Generator: Sketch 47.1 (45422) - http://www.bohemiancoding.com/sketch -->
    <title>IndividualChoice</title>
    <desc>Created with Sketch.</desc>
    <defs></defs>
    <g id="Page-1" stroke="none" stroke-width="1" fill="none" fill-rule="evenodd">
        <g id="Buttons-Usage-extra-large-1200" transform="translate(-368.000000, -3181.000000)">
            <g id="IndividualChoice" transform="translate(368.000000, 3182.000000)">
                <g id="Forms/Radiobutton-Active">
                    <g id="Group">
                        <circle id="Oval" fill="#0D78AA" cx="12" cy="12" r="12"></circle>
                        <circle id="Oval" fill="#FFFFFF" cx="12" cy="12" r="5"></circle>
                    </g>
                    <path d="M34.12,6.704 L37.928,6.704 C38.386669,6.704 38.8373311,6.74933288 39.28,6.84 C39.7226689,6.93066712 40.114665,7.08533224 40.456,7.304 C40.797335,7.52266776 41.071999,7.81333152 41.28,8.176 C41.488001,8.53866848 41.592,8.986664 41.592,9.52 C41.592,10.2133368 41.3866687,10.7839978 40.976,11.232 C40.5653313,11.6800022 39.997337,11.9626661 39.272,12.08 C39.6453352,12.1333336 39.994665,12.2293326 40.32,12.368 C40.645335,12.5066674 40.9279988,12.6933322 41.168,12.928 C41.4080012,13.1626678 41.594666,13.442665 41.728,13.768 C41.861334,14.093335 41.928,14.4693312 41.928,14.896 C41.928,15.4720029 41.8293343,15.959998 41.632,16.36 C41.4346657,16.760002 41.165335,17.0799988 40.824,17.32 C40.482665,17.5600012 40.0773357,17.7333328 39.608,17.84 C39.1386643,17.9466672 38.6266694,18 38.072,18 L34.12,18 L34.12,6.704 Z M37.416,11.552 C37.7253349,11.552 38.0373318,11.5333335 38.352,11.496 C38.6666682,11.4586665 38.9519987,11.3706674 39.208,11.232 C39.4640013,11.0933326 39.6719992,10.8960013 39.832,10.64 C39.9920008,10.3839987 40.072,10.0373355 40.072,9.6 C40.072,9.24799824 40.0080006,8.95733448 39.88,8.728 C39.7519994,8.49866552 39.5760011,8.317334 39.352,8.184 C39.1279989,8.050666 38.8720014,7.9573336 38.584,7.904 C38.2959986,7.8506664 37.9920016,7.824 37.672,7.824 L35.56,7.824 L35.56,11.552 L37.416,11.552 Z M37.848,16.88 C38.1680016,16.88 38.4799985,16.8480003 38.784,16.784 C39.0880015,16.7199997 39.3599988,16.6080008 39.6,16.448 C39.8400012,16.2879992 40.0319993,16.0693347 40.176,15.792 C40.3200007,15.5146653 40.392,15.1626688 40.392,14.736 C40.392,14.3413314 40.3146674,14.010668 40.16,13.744 C40.0053326,13.477332 39.8000013,13.2640008 39.544,13.104 C39.2879987,12.9439992 38.997335,12.8293337 38.672,12.76 C38.346665,12.6906663 38.013335,12.656 37.672,12.656 L35.56,12.656 L35.56,16.88 L37.848,16.88 Z M43.64,6.704 L44.968,6.704 L44.968,18 L43.64,18 L43.64,6.704 Z M46.984,10.128 L48.328,10.128 L48.328,14.896 C48.328,15.6426704 48.4666653,16.1893316 48.744,16.536 C49.0213347,16.8826684 49.4106642,17.056 49.912,17.056 C50.5520032,17.056 51.0506649,16.8026692 51.408,16.296 C51.7653351,15.7893308 51.944,15.1146709 51.944,14.272 L51.944,10.128 L53.272,10.128 L53.272,18 L52.024,18 L52.024,16.4 C51.9279995,16.6453346 51.8106674,16.8773322 51.672,17.096 C51.5333326,17.3146678 51.3626677,17.5066658 51.16,17.672 C50.9573323,17.8373342 50.722668,17.9679995 50.456,18.064 C50.189332,18.1600005 49.8746685,18.208 49.512,18.208 C48.6586624,18.208 48.0240021,17.9493359 47.608,17.432 C47.1919979,16.9146641 46.984,16.1813381 46.984,15.232 L46.984,10.128 Z M56.328,14.368 C56.3813336,15.2746712 56.6133313,15.9759975 57.024,16.472 C57.4346687,16.9680025 58.0079963,17.216 58.744,17.216 C59.6720046,17.216 60.3706643,16.778671 60.84,15.904 L61.848,16.464 C61.5386651,16.9866693 61.1280026,17.4133317 60.616,17.744 C60.1039974,18.0746683 59.4586706,18.24 58.68,18.24 C58.0613302,18.24 57.5200023,18.1333344 57.056,17.92 C56.5919977,17.7066656 56.2053349,17.4133352 55.896,17.04 C55.5866651,16.6666648 55.3546674,16.2293358 55.2,15.728 C55.0453326,15.2266642 54.968,14.6880029 54.968,14.112 C54.968,13.5466638 55.0426659,13.0080026 55.192,12.496 C55.3413341,11.9839974 55.5679985,11.5360019 55.872,11.152 C56.1760015,10.7679981 56.5493311,10.4640011 56.992,10.24 C57.4346689,10.0159989 57.9546637,9.904 58.552,9.904 C59.1280029,9.904 59.6293312,10.0133322 60.056,10.232 C60.4826688,10.4506678 60.8373319,10.7439982 61.12,11.112 C61.4026681,11.4800018 61.6159993,11.9066642 61.76,12.392 C61.9040007,12.8773358 61.976,13.3919973 61.976,13.936 C61.976,14.0533339 61.9733334,14.1439997 61.968,14.208 C61.9626666,14.2720003 61.96,14.3253331 61.96,14.368 L56.328,14.368 Z M58.536,10.912 C57.8639966,10.912 57.3440018,11.1519976 56.976,11.632 C56.6079982,12.1120024 56.3973336,12.7573293 56.344,13.568 L60.616,13.568 C60.616,13.2373317 60.578667,12.9146682 60.504,12.6 C60.429333,12.2853318 60.3066675,12.0026679 60.136,11.752 C59.9653325,11.5013321 59.7493346,11.2986674 59.488,11.144 C59.2266654,10.9893326 58.9093352,10.912 58.536,10.912 Z" id="Label-text" fill="#000000"></path>
                </g>
                <g id="Forms/Radiobutton-Active-Copy" transform="translate(87.000000, 0.000000)">
                    <g id="Radiobutton">
                        <circle id="Oval" stroke="#7C878E" fill="#FFFFFF" cx="12" cy="12" r="12"></circle>
                        <path d="M37.176,12.896 L33.352,6.704 L35,6.704 L37.912,11.776 L40.904,6.704 L42.536,6.704 L38.616,12.896 L38.616,18 L37.176,18 L37.176,12.896 Z M43.64,14.368 C43.6933336,15.2746712 43.9253313,15.9759975 44.336,16.472 C44.7466687,16.9680025 45.3199963,17.216 46.056,17.216 C46.9840046,17.216 47.6826643,16.778671 48.152,15.904 L49.16,16.464 C48.8506651,16.9866693 48.4400026,17.4133317 47.928,17.744 C47.4159974,18.0746683 46.7706706,18.24 45.992,18.24 C45.3733302,18.24 44.8320023,18.1333344 44.368,17.92 C43.9039977,17.7066656 43.5173349,17.4133352 43.208,17.04 C42.8986651,16.6666648 42.6666674,16.2293358 42.512,15.728 C42.3573326,15.2266642 42.28,14.6880029 42.28,14.112 C42.28,13.5466638 42.3546659,13.0080026 42.504,12.496 C42.6533341,11.9839974 42.8799985,11.5360019 43.184,11.152 C43.4880015,10.7679981 43.8613311,10.4640011 44.304,10.24 C44.7466689,10.0159989 45.2666637,9.904 45.864,9.904 C46.4400029,9.904 46.9413312,10.0133322 47.368,10.232 C47.7946688,10.4506678 48.1493319,10.7439982 48.432,11.112 C48.7146681,11.4800018 48.9279993,11.9066642 49.072,12.392 C49.2160007,12.8773358 49.288,13.3919973 49.288,13.936 C49.288,14.0533339 49.2853334,14.1439997 49.28,14.208 C49.2746666,14.2720003 49.272,14.3253331 49.272,14.368 L43.64,14.368 Z M45.848,10.912 C45.1759966,10.912 44.6560018,11.1519976 44.288,11.632 C43.9199982,12.1120024 43.7093336,12.7573293 43.656,13.568 L47.928,13.568 C47.928,13.2373317 47.890667,12.9146682 47.816,12.6 C47.741333,12.2853318 47.6186675,12.0026679 47.448,11.752 C47.2773325,11.5013321 47.0613346,11.2986674 46.8,11.144 C46.5386654,10.9893326 46.2213352,10.912 45.848,10.912 Z M50.904,6.704 L52.232,6.704 L52.232,18 L50.904,18 L50.904,6.704 Z M54.28,6.704 L55.608,6.704 L55.608,18 L54.28,18 L54.28,6.704 Z M60.92,18.24 C60.3226637,18.24 59.7973356,18.1306678 59.344,17.912 C58.8906644,17.6933322 58.5120015,17.3946686 58.208,17.016 C57.9039985,16.6373314 57.6773341,16.1946692 57.528,15.688 C57.3786659,15.1813308 57.304,14.6346696 57.304,14.048 C57.304,13.4613304 57.3813326,12.9173358 57.536,12.416 C57.6906674,11.9146642 57.9199985,11.4773352 58.224,11.104 C58.5280015,10.7306648 58.9066644,10.4373344 59.36,10.224 C59.8133356,10.0106656 60.3333304,9.904 60.92,9.904 C61.5066696,9.904 62.0266644,10.0106656 62.48,10.224 C62.9333356,10.4373344 63.3146651,10.7279982 63.624,11.096 C63.9333349,11.4640018 64.1653326,11.9013308 64.32,12.408 C64.4746674,12.9146692 64.552,13.4613304 64.552,14.048 C64.552,14.6346696 64.4746674,15.1813308 64.32,15.688 C64.1653326,16.1946692 63.9333349,16.6373314 63.624,17.016 C63.3146651,17.3946686 62.9333356,17.6933322 62.48,17.912 C62.0266644,18.1306678 61.5066696,18.24 60.92,18.24 Z M60.952,17.2 C61.3146685,17.2 61.6346653,17.1200008 61.912,16.96 C62.1893347,16.7999992 62.4186658,16.5786681 62.6,16.296 C62.7813342,16.0133319 62.9199995,15.6800019 63.016,15.296 C63.1120005,14.9119981 63.16,14.4960022 63.16,14.048 C63.16,13.5999978 63.1120005,13.1866686 63.016,12.808 C62.9199995,12.4293314 62.776001,12.1013347 62.584,11.824 C62.391999,11.5466653 62.1573347,11.3306674 61.88,11.176 C61.6026653,11.0213326 61.2826685,10.944 60.92,10.944 C60.5466648,10.944 60.2213347,11.0213326 59.944,11.176 C59.6666653,11.3306674 59.4373342,11.5466653 59.256,11.824 C59.0746658,12.1013347 58.9360005,12.4293314 58.84,12.808 C58.7439995,13.1866686 58.696,13.5999978 58.696,14.048 C58.696,14.4960022 58.7439995,14.9119981 58.84,15.296 C58.9360005,15.6800019 59.0773324,16.0133319 59.264,16.296 C59.4506676,16.5786681 59.6853319,16.7999992 59.968,16.96 C60.2506681,17.1200008 60.5786648,17.2 60.952,17.2 Z M65.672,10.128 L67.112,10.128 L68.712,16.72 L70.296,10.128 L71.768,10.128 L73.32,16.72 L74.936,10.128 L76.376,10.128 L74.056,18 L72.584,18 L71.016,11.936 L69.448,18 L67.976,18 L65.672,10.128 Z" id="Label-text" fill="#000000"></path>
                    </g>
                </g>
                <g id="Forms/Radiobutton-Active-Copy-2" transform="translate(188.000000, 0.000000)">
                    <g id="Radiobutton">
                        <circle id="Oval" stroke="#7C878E" fill="#FFFFFF" cx="12" cy="12" r="12"></circle>
                        <path d="M38.824,18.24 C38.0559962,18.24 37.3573365,18.1013347 36.728,17.824 C36.0986635,17.5466653 35.5573356,17.1493359 35.104,16.632 C34.6506644,16.1146641 34.2986679,15.4906703 34.048,14.76 C33.7973321,14.0293297 33.672,13.2160045 33.672,12.32 C33.672,11.4133288 33.7973321,10.6000036 34.048,9.88 C34.2986679,9.1599964 34.6506644,8.5466692 35.104,8.04 C35.5573356,7.5333308 36.0986635,7.14400136 36.728,6.872 C37.3573365,6.59999864 38.0559962,6.464 38.824,6.464 C39.5920038,6.464 40.2933302,6.59999864 40.928,6.872 C41.5626698,7.14400136 42.1066644,7.5333308 42.56,8.04 C43.0133356,8.5466692 43.3679987,9.1599964 43.624,9.88 C43.8800013,10.6000036 44.008,11.4133288 44.008,12.32 C44.008,13.2160045 43.8800013,14.0293297 43.624,14.76 C43.3679987,15.4906703 43.0080023,16.1146641 42.544,16.632 C42.0799977,17.1493359 41.5306698,17.5466653 40.896,17.824 C40.2613302,18.1013347 39.5706704,18.24 38.824,18.24 Z M38.824,16.992 C39.3893362,16.992 39.8959978,16.8800011 40.344,16.656 C40.7920022,16.4319989 41.1733318,16.1146687 41.488,15.704 C41.8026682,15.2933313 42.0426658,14.8000029 42.208,14.224 C42.3733342,13.6479971 42.456,13.0133368 42.456,12.32 C42.456,11.6479966 42.3733342,11.0293362 42.208,10.464 C42.0426658,9.89866384 41.8053349,9.41333536 41.496,9.008 C41.1866651,8.60266464 40.802669,8.28533448 40.344,8.056 C39.885331,7.82666552 39.3680029,7.712 38.792,7.712 C38.2159971,7.712 37.7066689,7.82666552 37.264,8.056 C36.8213311,8.28533448 36.4480015,8.60266464 36.144,9.008 C35.8399985,9.41333536 35.6080008,9.89866384 35.448,10.464 C35.2879992,11.0293362 35.208,11.6479966 35.208,12.32 C35.208,13.0133368 35.2933325,13.6479971 35.464,14.224 C35.6346675,14.8000029 35.8799984,15.2933313 36.2,15.704 C36.5200016,16.1146687 36.9013311,16.4319989 37.344,16.656 C37.7866689,16.8800011 38.2799973,16.992 38.824,16.992 Z M46.392,11.04 L45.048,11.04 L45.048,10.128 L45.336,10.128 C45.6666683,10.128 45.9253324,10.0933337 46.112,10.024 C46.2986676,9.95466632 46.4399995,9.84800072 46.536,9.704 C46.6320005,9.55999928 46.7013331,9.37066784 46.744,9.136 C46.7866669,8.90133216 46.8239998,8.61333504 46.856,8.272 L46.888,7.984 L47.72,7.984 L47.72,10.128 L49.416,10.128 L49.416,11.04 L47.72,11.04 L47.72,15.936 C47.72,16.3840022 47.786666,16.7066657 47.92,16.904 C48.053334,17.1013343 48.3013315,17.2 48.664,17.2 C48.9520014,17.2 49.2186654,17.1360006 49.464,17.008 L49.608,17.968 C49.2026646,18.1493342 48.7546691,18.24 48.264,18.24 C47.8799981,18.24 47.5680012,18.1866672 47.328,18.08 C47.0879988,17.9733328 46.8986674,17.8293342 46.76,17.648 C46.6213326,17.4666658 46.5253336,17.2480013 46.472,16.992 C46.4186664,16.7359987 46.392,16.4586682 46.392,16.16 L46.392,11.04 Z M51.016,6.704 L52.344,6.704 L52.344,11.68 C52.4400005,11.4453322 52.5626659,11.2213344 52.712,11.008 C52.8613341,10.7946656 53.0426656,10.6053342 53.256,10.44 C53.4693344,10.2746658 53.7146653,10.1440005 53.992,10.048 C54.2693347,9.95199952 54.578665,9.904 54.92,9.904 C55.7413374,9.904 56.3466647,10.1733306 56.736,10.712 C57.1253353,11.2506694 57.32,11.9786621 57.32,12.896 L57.32,18 L55.992,18 L55.992,13.104 C55.992,12.4319966 55.8533347,11.9280017 55.576,11.592 C55.2986653,11.2559983 54.9040026,11.088 54.392,11.088 C54.0933318,11.088 53.8186679,11.1519994 53.568,11.28 C53.3173321,11.4080006 53.1013342,11.5893322 52.92,11.824 C52.7386658,12.0586678 52.5973338,12.3413317 52.496,12.672 C52.3946662,13.0026683 52.344,13.3653314 52.344,13.76 L52.344,18 L51.016,18 L51.016,6.704 Z M60.344,14.368 C60.3973336,15.2746712 60.6293313,15.9759975 61.04,16.472 C61.4506687,16.9680025 62.0239963,17.216 62.76,17.216 C63.6880046,17.216 64.3866643,16.778671 64.856,15.904 L65.864,16.464 C65.5546651,16.9866693 65.1440026,17.4133317 64.632,17.744 C64.1199974,18.0746683 63.4746706,18.24 62.696,18.24 C62.0773302,18.24 61.5360023,18.1333344 61.072,17.92 C60.6079977,17.7066656 60.2213349,17.4133352 59.912,17.04 C59.6026651,16.6666648 59.3706674,16.2293358 59.216,15.728 C59.0613326,15.2266642 58.984,14.6880029 58.984,14.112 C58.984,13.5466638 59.0586659,13.0080026 59.208,12.496 C59.3573341,11.9839974 59.5839985,11.5360019 59.888,11.152 C60.1920015,10.7679981 60.5653311,10.4640011 61.008,10.24 C61.4506689,10.0159989 61.9706637,9.904 62.568,9.904 C63.1440029,9.904 63.6453312,10.0133322 64.072,10.232 C64.4986688,10.4506678 64.8533319,10.7439982 65.136,11.112 C65.4186681,11.4800018 65.6319993,11.9066642 65.776,12.392 C65.9200007,12.8773358 65.992,13.3919973 65.992,13.936 C65.992,14.0533339 65.9893334,14.1439997 65.984,14.208 C65.9786666,14.2720003 65.976,14.3253331 65.976,14.368 L60.344,14.368 Z M62.552,10.912 C61.8799966,10.912 61.3600018,11.1519976 60.992,11.632 C60.6239982,12.1120024 60.4133336,12.7573293 60.36,13.568 L64.632,13.568 C64.632,13.2373317 64.594667,12.9146682 64.52,12.6 C64.445333,12.2853318 64.3226675,12.0026679 64.152,11.752 C63.9813325,11.5013321 63.7653346,11.2986674 63.504,11.144 C63.2426654,10.9893326 62.9253352,10.912 62.552,10.912 Z M67.608,10.128 L68.76,10.128 L68.888,11.888 C69.1120011,11.3119971 69.4693309,10.8373352 69.96,10.464 C70.4506691,10.0906648 71.0319966,9.904 71.704,9.904 L71.704,11.312 C71.5546659,11.2799998 71.3893342,11.264 71.208,11.264 C70.941332,11.264 70.674668,11.3119995 70.408,11.408 C70.141332,11.5040005 69.8986678,11.6586656 69.68,11.872 C69.4613322,12.0853344 69.2826674,12.3599983 69.144,12.696 C69.0053326,13.0320017 68.936,13.4399976 68.936,13.92 L68.936,18 L67.608,18 L67.608,10.128 Z M72.408,16.432 L73.896,16.432 L73.896,18 L72.408,18 L72.408,16.432 Z M75.688,16.432 L77.176,16.432 L77.176,18 L75.688,18 L75.688,16.432 Z M78.968,16.432 L80.456,16.432 L80.456,18 L78.968,18 L78.968,16.432 Z" id="Label-text" fill="#0D78AA"></path>
                    </g>
                </g>
            </g>
        </g>
    </g>
</svg>