<?xml version="1.0" encoding="UTF-8"?>
<svg width="374px" height="272px" viewBox="0 0 374 272" version="1.1" xmlns="http://www.w3.org/2000/svg" xmlns:xlink="http://www.w3.org/1999/xlink">
    <!-- Generator: Sketch 47 (45396) - http://www.bohemiancoding.com/sketch -->
    <title>ConfirmationMissed</title>
    <desc>Created with Sketch.</desc>
    <defs>
        <rect id="path-1" x="0" y="0" width="354" height="252"></rect>
        <filter x="-4.9%" y="-5.0%" width="109.9%" height="113.9%" filterUnits="objectBoundingBox" id="filter-2">
            <feOffset dx="0" dy="5" in="SourceAlpha" result="shadowOffsetOuter1"></feOffset>
            <feGaussianBlur stdDeviation="5" in="shadowOffsetOuter1" result="shadowBlurOuter1"></feGaussianBlur>
            <feComposite in="shadowBlurOuter1" in2="SourceAlpha" operator="out" result="shadowBlurOuter1"></feComposite>
            <feColorMatrix values="0 0 0 0 0.298039216   0 0 0 0 0.325490196   0 0 0 0 0.345098039  0 0 0 0.4 0" type="matrix" in="shadowBlurOuter1"></feColorMatrix>
        </filter>
        <rect id="path-3" x="0" y="0" width="68" height="50" rx="2"></rect>
        <rect id="path-4" x="0" y="0" width="68" height="50" rx="2"></rect>
    </defs>
    <g id="Page-1" stroke="none" stroke-width="1" fill="none" fill-rule="evenodd">
        <g id="Buttons-Usage-extra-large-1200" transform="translate(-765.000000, -2169.000000)">
            <g id="ConfirmationMissed" transform="translate(775.000000, 2174.000000)">
                <g id="Rectangle-2">
                    <use fill="black" fill-opacity="1" filter="url(#filter-2)" xlink:href="#path-1"></use>
                    <use fill="#FFFFFF" fill-rule="evenodd" xlink:href="#path-1"></use>
                    <rect stroke="#FFFFFF" stroke-width="1" x="0.5" y="0.5" width="353" height="251"></rect>
                </g>
                <g id="Button-default" fill="#FBFBFB">
                    <g id="Group-6">
                        <rect id="Rectangle-5" x="0" y="0" width="104" height="252"></rect>
                    </g>
                </g>
                <g id="Group-11" transform="translate(52.000000, 86.000000)" fill="#817D82">
                    <rect id="Rectangle-4-Copy-4" x="0" y="0" width="30" height="3" rx="1.5"></rect>
                </g>
                <g id="Group-10" transform="translate(52.000000, 119.000000)" fill="#817D82">
                    <rect id="Rectangle-4-Copy-5" x="0" y="0" width="35" height="3" rx="1.5"></rect>
                </g>
                <g id="Group-12" transform="translate(51.000000, 51.000000)" fill="#817D82">
                    <rect id="Rectangle-4-Copy-8" x="0" y="0" width="20" height="3" rx="1.5"></rect>
                </g>
                <g id="Group-9" transform="translate(52.000000, 154.000000)" fill="#817D82">
                    <rect id="Rectangle-4-Copy-6" x="0" y="0" width="32" height="3" rx="1.5"></rect>
                </g>
                <g id="Group-8" transform="translate(146.000000, 19.000000)">
                    <g id="Group-13" transform="translate(0.000000, 19.000000)">
                        <g id="Rectangle-2">
                            <use fill="#FFFFFF" fill-rule="evenodd" xlink:href="#path-3"></use>
                            <rect stroke="#D3D2D3" stroke-width="2" x="1" y="1" width="66" height="48" rx="2"></rect>
                        </g>
                        <path d="M23.1190818,37 L16.4313725,26.6363636 L2,49 L23.9607843,49 L41.5294118,49 L66,49 L48.4313725,8 L40.6550948,26.147541 L34.627451,14.2121212 L23.1190818,37 Z" id="Combined-Shape" fill="#D8D8D8"></path>
                        <circle id="Oval" fill="#D8D8D8" cx="16.5" cy="12.5" r="4.5"></circle>
                        <rect id="Rectangle-4" fill="#D8D8D8" x="85" y="11" width="99" height="4" rx="2"></rect>
                        <rect id="Rectangle-4-Copy" fill="#D8D8D8" x="85" y="22" width="99" height="4" rx="2"></rect>
                        <rect id="Rectangle-4-Copy-2" fill="#D8D8D8" x="85" y="32" width="65" height="4" rx="2"></rect>
                    </g>
                    <g id="Group-13-Copy" transform="translate(0.000000, 86.000000)">
                        <g id="Rectangle-2">
                            <use fill="#FFFFFF" fill-rule="evenodd" xlink:href="#path-4"></use>
                            <rect stroke="#D3D2D3" stroke-width="2" x="1" y="1" width="66" height="48" rx="2"></rect>
                        </g>
                        <path d="M23.1190818,37 L16.4313725,26.6363636 L2,49 L23.9607843,49 L41.5294118,49 L66,49 L48.4313725,8 L40.6550948,26.147541 L34.627451,14.2121212 L23.1190818,37 Z" id="Combined-Shape" fill="#D8D8D8"></path>
                        <circle id="Oval" fill="#D8D8D8" cx="16.5" cy="12.5" r="4.5"></circle>
                        <rect id="Rectangle-4" fill="#D8D8D8" x="85" y="11" width="99" height="4" rx="2"></rect>
                        <rect id="Rectangle-4-Copy" fill="#D8D8D8" x="85" y="22" width="99" height="4" rx="2"></rect>
                        <rect id="Rectangle-4-Copy-2" fill="#D8D8D8" x="85" y="32" width="65" height="4" rx="2"></rect>
                    </g>
                    <rect id="Rectangle-4-Copy-2" fill="#817D82" x="0" y="0" width="40" height="2" rx="1"></rect>
                </g>
                <circle id="Oval" stroke="#7C878E" fill="#FFFFFF" cx="32" cy="51" r="8"></circle>
                <circle id="Oval-Copy-4" stroke="#7C878E" fill="#FFFFFF" cx="32" cy="121" r="8"></circle>
                <circle id="Oval-Copy-5" stroke="#7C878E" fill="#FFFFFF" cx="32" cy="156" r="8"></circle>
                <g id="Group" transform="translate(24.000000, 78.000000)">
                    <circle id="Oval" stroke="#0D78AA" fill="#0D78AA" cx="8" cy="8" r="8"></circle>
                    <circle id="Oval" fill="#FFFFFF" cx="8" cy="8" r="4"></circle>
                </g>
            </g>
        </g>
    </g>
</svg>