<?xml version="1.0" encoding="UTF-8"?>
<svg width="87px" height="24px" viewBox="0 0 87 24" version="1.1" xmlns="http://www.w3.org/2000/svg" xmlns:xlink="http://www.w3.org/1999/xlink">
    <!-- Generator: Sketch 47 (45396) - http://www.bohemiancoding.com/sketch -->
    <title>Single</title>
    <desc>Created with Sketch.</desc>
    <defs></defs>
    <g id="Page-1" stroke="none" stroke-width="1" fill="none" fill-rule="evenodd">
        <g id="Buttons-Usage-extra-large-1200" transform="translate(-904.000000, -1995.000000)">
            <g id="Single" transform="translate(904.000000, 1995.000000)">
                <g id="Radiobutton">
                    <g id="Group">
                        <circle id="Oval" fill="#0D78AA" cx="12" cy="12" r="12"></circle>
                        <circle id="Oval" fill="#FFFFFF" cx="12" cy="12" r="5"></circle>
                    </g>
                    <path d="M34.12,6.704 L35.912,6.704 C36.2000014,7.41867024 36.4959985,8.1626628 36.8,8.936 C37.1040015,9.7093372 37.4026652,10.4746629 37.696,11.232 C37.9893348,11.9893371 38.2719986,12.7199965 38.544,13.424 C38.8160014,14.1280035 39.0639989,14.7733304 39.288,15.36 C39.5120011,14.7733304 39.757332,14.1280035 40.024,13.424 C40.290668,12.7199965 40.5733318,11.9893371 40.872,11.232 C41.1706682,10.4746629 41.4719985,9.71200384 41.776,8.944 C42.0800015,8.17599616 42.3759986,7.42933696 42.664,6.704 L44.376,6.704 L44.376,18 L43.016,18 L43.016,15.568 C43.016,14.7359958 43.0186666,13.9146707 43.024,13.104 C43.0293334,12.2933293 43.0346666,11.5066705 43.04,10.744 C43.0453334,9.98132952 43.0533333,9.27466992 43.064,8.624 C42.8186654,9.28533664 42.5440015,9.99732952 42.24,10.76 C41.9359985,11.5226705 41.621335,12.3119959 41.296,13.128 C40.970665,13.9440041 40.6400017,14.7679958 40.304,15.6 C39.9679983,16.4320042 39.6400016,17.247996 39.32,18.048 L39.192,18.048 C38.9039986,17.322663 38.5840018,16.5280043 38.232,15.664 C37.8799982,14.7999957 37.5306684,13.938671 37.184,13.08 C36.8373316,12.221329 36.5093349,11.4026706 36.2,10.624 C35.8906651,9.84532944 35.6346677,9.17866944 35.432,8.624 C35.4426667,9.27466992 35.4533333,9.98132952 35.464,10.744 C35.4746667,11.5066705 35.48,12.2959959 35.48,13.112 C35.48,13.9280041 35.4826666,14.7519958 35.488,15.584 C35.4933334,16.4160042 35.496,17.2213294 35.496,18 L34.12,18 L34.12,6.704 Z M49.784,18.24 C49.1866637,18.24 48.6613356,18.1306678 48.208,17.912 C47.7546644,17.6933322 47.3760015,17.3946686 47.072,17.016 C46.7679985,16.6373314 46.5413341,16.1946692 46.392,15.688 C46.2426659,15.1813308 46.168,14.6346696 46.168,14.048 C46.168,13.4613304 46.2453326,12.9173358 46.4,12.416 C46.5546674,11.9146642 46.7839985,11.4773352 47.088,11.104 C47.3920015,10.7306648 47.7706644,10.4373344 48.224,10.224 C48.6773356,10.0106656 49.1973304,9.904 49.784,9.904 C50.3706696,9.904 50.8906644,10.0106656 51.344,10.224 C51.7973356,10.4373344 52.1786651,10.7279982 52.488,11.096 C52.7973349,11.4640018 53.0293326,11.9013308 53.184,12.408 C53.3386674,12.9146692 53.416,13.4613304 53.416,14.048 C53.416,14.6346696 53.3386674,15.1813308 53.184,15.688 C53.0293326,16.1946692 52.7973349,16.6373314 52.488,17.016 C52.1786651,17.3946686 51.7973356,17.6933322 51.344,17.912 C50.8906644,18.1306678 50.3706696,18.24 49.784,18.24 Z M49.816,17.2 C50.1786685,17.2 50.4986653,17.1200008 50.776,16.96 C51.0533347,16.7999992 51.2826658,16.5786681 51.464,16.296 C51.6453342,16.0133319 51.7839995,15.6800019 51.88,15.296 C51.9760005,14.9119981 52.024,14.4960022 52.024,14.048 C52.024,13.5999978 51.9760005,13.1866686 51.88,12.808 C51.7839995,12.4293314 51.640001,12.1013347 51.448,11.824 C51.255999,11.5466653 51.0213347,11.3306674 50.744,11.176 C50.4666653,11.0213326 50.1466685,10.944 49.784,10.944 C49.4106648,10.944 49.0853347,11.0213326 48.808,11.176 C48.5306653,11.3306674 48.3013342,11.5466653 48.12,11.824 C47.9386658,12.1013347 47.8000005,12.4293314 47.704,12.808 C47.6079995,13.1866686 47.56,13.5999978 47.56,14.048 C47.56,14.4960022 47.6079995,14.9119981 47.704,15.296 C47.8000005,15.6800019 47.9413324,16.0133319 48.128,16.296 C48.3146676,16.5786681 48.5493319,16.7999992 48.832,16.96 C49.1146681,17.1200008 49.4426648,17.2 49.816,17.2 Z M55.112,10.128 L56.264,10.128 L56.408,11.696 C56.6106677,11.2159976 56.9333311,10.7973351 57.376,10.44 C57.8186689,10.0826649 58.3653301,9.904 59.016,9.904 C59.8373374,9.904 60.4426647,10.1653307 60.832,10.688 C61.2213353,11.2106693 61.416,11.9413286 61.416,12.88 L61.416,18 L60.088,18 L60.088,13.152 C60.088,12.4373298 59.9440014,11.9120017 59.656,11.576 C59.3679986,11.2399983 58.9786691,11.072 58.488,11.072 C57.9013304,11.072 57.4133353,11.3119976 57.024,11.792 C56.6346647,12.2720024 56.44,12.949329 56.44,13.824 L56.44,18 L55.112,18 L55.112,10.128 Z M68.728,16.464 C68.5146656,16.997336 68.2000021,17.4186651 67.784,17.728 C67.3679979,18.0373349 66.8506698,18.192 66.232,18.192 C65.7413309,18.192 65.3013353,18.0906677 64.912,17.888 C64.5226647,17.6853323 64.1920014,17.4026685 63.92,17.04 C63.6479986,16.6773315 63.4400007,16.2400026 63.296,15.728 C63.1519993,15.2159974 63.08,14.6506698 63.08,14.032 C63.08,13.3919968 63.1546659,12.8186692 63.304,12.312 C63.4533341,11.8053308 63.6666653,11.3760018 63.944,11.024 C64.2213347,10.6719982 64.5546647,10.400001 64.944,10.208 C65.3333353,10.015999 65.7626643,9.92 66.232,9.92 C66.8720032,9.92 67.3946646,10.0719985 67.8,10.376 C68.2053354,10.6800015 68.4933325,11.0453312 68.664,11.472 L68.664,6.704 L70.008,6.704 L70.008,18 L68.728,18 L68.728,16.464 Z M68.664,14.016 C68.664,13.6853317 68.6560001,13.4266676 68.64,13.24 C68.6239999,13.0533324 68.6053334,12.9013339 68.584,12.784 C68.5306664,12.5493322 68.4506672,12.3253344 68.344,12.112 C68.2373328,11.8986656 68.1013342,11.7093342 67.936,11.544 C67.7706658,11.3786658 67.5760011,11.2480005 67.352,11.152 C67.1279989,11.0559995 66.8720014,11.008 66.584,11.008 C66.2213315,11.008 65.9093346,11.0879992 65.648,11.248 C65.3866654,11.4080008 65.1680009,11.6239986 64.992,11.896 C64.8159991,12.1680014 64.6853338,12.4879982 64.6,12.856 C64.5146662,13.2240018 64.472,13.6159979 64.472,14.032 C64.472,14.4800022 64.5199995,14.8933314 64.616,15.272 C64.7120005,15.6506686 64.8506658,15.9759986 65.032,16.248 C65.2133342,16.5200014 65.437332,16.7333326 65.704,16.888 C65.970668,17.0426674 66.274665,17.12 66.616,17.12 C66.882668,17.12 67.1253322,17.0720005 67.344,16.976 C67.5626678,16.8799995 67.7546658,16.7466675 67.92,16.576 C68.0853342,16.4053325 68.2213328,16.2106678 68.328,15.992 C68.4346672,15.7733322 68.5146664,15.5413346 68.568,15.296 C68.6320003,14.9973318 68.664,14.5973358 68.664,14.096 L68.664,14.016 Z M76.984,18 C76.8666661,17.6159981 76.7973334,17.157336 76.776,16.624 C76.5626656,17.1146691 76.2346689,17.5066652 75.792,17.8 C75.3493311,18.0933348 74.824003,18.24 74.216,18.24 C73.4479962,18.24 72.8400022,18.0213355 72.392,17.584 C71.9439978,17.1466645 71.72,16.5600037 71.72,15.824 C71.72,15.4079979 71.7946659,15.0586681 71.944,14.776 C72.0933341,14.4933319 72.301332,14.2586676 72.568,14.072 C72.834668,13.8853324 73.1493315,13.7386672 73.512,13.632 C73.8746685,13.5253328 74.2693312,13.4400003 74.696,13.376 L76.712,13.072 L76.712,12.576 C76.712,12.2239982 76.6693338,11.9413344 76.584,11.728 C76.4986662,11.5146656 76.3813341,11.3493339 76.232,11.232 C76.0826659,11.1146661 75.912001,11.0373335 75.72,11 C75.527999,10.9626665 75.3253344,10.944 75.112,10.944 C74.503997,10.944 74.0026686,11.0559989 73.608,11.28 C73.2133314,11.5040011 72.882668,11.786665 72.616,12.128 L71.928,11.264 C72.2373349,10.8906648 72.6666639,10.570668 73.216,10.304 C73.7653361,10.037332 74.4453293,9.904 75.256,9.904 C76.2373382,9.904 76.9493311,10.1226645 77.392,10.56 C77.8346689,10.9973355 78.056,11.7013285 78.056,12.672 L78.056,15.856 C78.056,16.1120013 78.0586666,16.335999 78.064,16.528 C78.0693334,16.720001 78.0799999,16.8986658 78.096,17.064 C78.1120001,17.2293342 78.1359998,17.3866659 78.168,17.536 C78.2000002,17.6853341 78.2426664,17.8399992 78.296,18 L76.984,18 Z M76.712,13.952 L74.824,14.256 C74.1733301,14.3733339 73.7120014,14.5493322 73.44,14.784 C73.1679986,15.0186678 73.032,15.3439979 73.032,15.76 C73.032,16.1866688 73.1573321,16.5439986 73.408,16.832 C73.6586679,17.1200014 74.0293309,17.264 74.52,17.264 C74.8186682,17.264 75.101332,17.2053339 75.368,17.088 C75.634668,16.9706661 75.8666657,16.808001 76.064,16.6 C76.2613343,16.391999 76.4186661,16.1413348 76.536,15.848 C76.6533339,15.5546652 76.712,15.2320018 76.712,14.88 L76.712,13.952 Z M80.008,19.68 C80.1253339,19.7226669 80.2586659,19.7599998 80.408,19.792 C80.5573341,19.8240002 80.7119992,19.84 80.872,19.84 C81.0426675,19.84 81.1893327,19.8160002 81.312,19.768 C81.4346673,19.7199998 81.5466662,19.6320006 81.648,19.504 C81.7493338,19.3759994 81.8453329,19.2053344 81.936,18.992 C82.0266671,18.7786656 82.1253328,18.501335 82.232,18.16 L79.56,10.128 L81,10.128 L82.92,16.64 L84.824,10.128 L86.264,10.128 L83.848,17.376 C83.6453323,17.9946698 83.4613342,18.5226645 83.296,18.96 C83.1306658,19.3973355 82.9466677,19.7573319 82.744,20.04 C82.5413323,20.3226681 82.2933348,20.530666 82,20.664 C81.7066652,20.797334 81.330669,20.864 80.872,20.864 C80.6906658,20.864 80.496001,20.8560001 80.288,20.84 C80.079999,20.8239999 79.9173339,20.7946669 79.8,20.752 L80.008,19.68 Z" id="Monday" fill="#000000"></path>
                </g>
            </g>
        </g>
    </g>
</svg>