<?xml version="1.0" encoding="UTF-8"?>
<svg width="374px" height="292px" viewBox="0 0 374 292" version="1.1" xmlns="http://www.w3.org/2000/svg" xmlns:xlink="http://www.w3.org/1999/xlink">
    <!-- Generator: Sketch 47 (45396) - http://www.bohemiancoding.com/sketch -->
    <title>OrganisedContent</title>
    <desc>Created with Sketch.</desc>
    <defs>
        <rect id="path-1" x="0" y="0" width="374" height="292"></rect>
        <rect id="path-2" x="0" y="0" width="90" height="36" rx="3"></rect>
        <rect id="path-3" x="0" y="0" width="90" height="36" rx="3"></rect>
        <rect id="path-4" x="360" y="61" width="4" height="220" rx="2"></rect>
        <rect id="path-5" x="360" y="50" width="4" height="80" rx="2"></rect>
    </defs>
    <g id="Page-1" stroke="none" stroke-width="1" fill="none" fill-rule="evenodd">
        <g id="Buttons-Usage-extra-large-1200" transform="translate(-322.000000, -2157.000000)">
            <g id="OrganisedContent" transform="translate(322.000000, 2157.000000)">
                <g id="PanelHeaderFooter">
                    <g id="Panel-">
                        <use fill="#FFFFFF" fill-rule="evenodd" xlink:href="#path-1"></use>
                        <rect stroke="#D2D6D9" stroke-width="1" x="0.5" y="0.5" width="373" height="291"></rect>
                    </g>
                    <rect id="Header-bg-" fill="#F5F6F6" x="1" y="1" width="372" height="44"></rect>
                    <path d="M23.552,27.27 C22.6879957,27.27 21.9020035,27.1140016 21.194,26.802 C20.4859965,26.4899984 19.8770026,26.0430029 19.367,25.461 C18.8569975,24.8789971 18.4610014,24.1770041 18.179,23.355 C17.8969986,22.5329959 17.756,21.618005 17.756,20.61 C17.756,19.5899949 17.8969986,18.675004 18.179,17.865 C18.4610014,17.0549959 18.8569975,16.3650028 19.367,15.795 C19.8770026,15.2249972 20.4859965,14.7870015 21.194,14.481 C21.9020035,14.1749985 22.6879957,14.022 23.552,14.022 C24.4160043,14.022 25.2049964,14.1749985 25.919,14.481 C26.6330036,14.7870015 27.2449974,15.2249972 27.755,15.795 C28.2650026,16.3650028 28.6639986,17.0549959 28.952,17.865 C29.2400014,18.675004 29.384,19.5899949 29.384,20.61 C29.384,21.618005 29.2400014,22.5329959 28.952,23.355 C28.6639986,24.1770041 28.2590026,24.8789971 27.737,25.461 C27.2149974,26.0430029 26.5970036,26.4899984 25.883,26.802 C25.1689964,27.1140016 24.3920042,27.27 23.552,27.27 Z M23.552,25.866 C24.1880032,25.866 24.7579975,25.7400013 25.262,25.488 C25.7660025,25.2359987 26.1949982,24.8790023 26.549,24.417 C26.9030018,23.9549977 27.1729991,23.4000032 27.359,22.752 C27.5450009,22.1039968 27.638,21.3900039 27.638,20.61 C27.638,19.8539962 27.5450009,19.1580032 27.359,18.522 C27.1729991,17.8859968 26.9060017,17.3400023 26.558,16.884 C26.2099983,16.4279977 25.7780026,16.0710013 25.262,15.813 C24.7459974,15.5549987 24.1640032,15.426 23.516,15.426 C22.8679968,15.426 22.2950025,15.5549987 21.797,15.813 C21.2989975,16.0710013 20.8790017,16.4279977 20.537,16.884 C20.1949983,17.3400023 19.9340009,17.8859968 19.754,18.522 C19.5739991,19.1580032 19.484,19.8539962 19.484,20.61 C19.484,21.3900039 19.579999,22.1039968 19.772,22.752 C19.964001,23.4000032 20.2399982,23.9549977 20.6,24.417 C20.9600018,24.8790023 21.3889975,25.2359987 21.887,25.488 C22.3850025,25.7400013 22.9399969,25.866 23.552,25.866 Z M31.292,18.144 L32.588,18.144 L32.732,20.124 C32.9840013,19.4759968 33.3859972,18.9420021 33.938,18.522 C34.4900028,18.1019979 35.1439962,17.892 35.9,17.892 L35.9,19.476 C35.7319992,19.4399998 35.546001,19.422 35.342,19.422 C35.0419985,19.422 34.7420015,19.4759995 34.442,19.584 C34.1419985,19.6920005 33.8690012,19.8659988 33.623,20.106 C33.3769988,20.3460012 33.1760008,20.6549981 33.02,21.033 C32.8639992,21.4110019 32.786,21.8699973 32.786,22.41 L32.786,27 L31.292,27 L31.292,18.144 Z M38.096,28.062 C38.4440017,28.3980017 38.8609976,28.664999 39.347,28.863 C39.8330024,29.061001 40.3519972,29.16 40.904,29.16 C41.3600023,29.16 41.7319986,29.0910007 42.02,28.953 C42.3080014,28.8149993 42.5359992,28.6260012 42.704,28.386 C42.8720008,28.1459988 42.9889997,27.8730015 43.055,27.567 C43.1210003,27.2609985 43.154,26.9340017 43.154,26.586 L43.154,24.948 C42.9259989,25.4880027 42.5840023,25.9229984 42.128,26.253 C41.6719977,26.5830016 41.0840036,26.748 40.364,26.748 C39.8479974,26.748 39.3800021,26.649001 38.96,26.451 C38.5399979,26.252999 38.1800015,25.9680019 37.88,25.596 C37.5799985,25.2239981 37.3490008,24.7680027 37.187,24.228 C37.0249992,23.6879973 36.944,23.0820034 36.944,22.41 C36.944,21.7499967 37.0249992,21.1440028 37.187,20.592 C37.3490008,20.0399972 37.5829985,19.566002 37.889,19.17 C38.1950015,18.773998 38.5669978,18.4650011 39.005,18.243 C39.4430022,18.0209989 39.9319973,17.91 40.472,17.91 C41.1800035,17.91 41.7679977,18.0869982 42.236,18.441 C42.7040023,18.7950018 43.039999,19.2479972 43.244,19.8 L43.496,18.144 L44.648,18.144 L44.648,26.55 C44.648,27.0540025 44.5880006,27.5309978 44.468,27.981 C44.3479994,28.4310022 44.1440014,28.8299983 43.856,29.178 C43.5679986,29.5260017 43.1840024,29.801999 42.704,30.006 C42.2239976,30.210001 41.6240036,30.312 40.904,30.312 C40.1239961,30.312 39.4250031,30.2010011 38.807,29.979 C38.1889969,29.7569989 37.6700021,29.4780017 37.25,29.142 L38.096,28.062 Z M43.154,22.41 C43.154,22.205999 43.151,22.0110009 43.145,21.825 C43.139,21.6389991 43.1240001,21.4980005 43.1,21.402 C43.0519998,21.1139986 42.9740005,20.8320014 42.866,20.556 C42.7579995,20.2799986 42.6110009,20.040001 42.425,19.836 C42.2389991,19.631999 42.0110014,19.4670006 41.741,19.341 C41.4709987,19.2149994 41.1560018,19.152 40.796,19.152 C40.399998,19.152 40.0580014,19.2359992 39.77,19.404 C39.4819986,19.5720008 39.2450009,19.7999986 39.059,20.088 C38.8729991,20.3760014 38.7350005,20.717998 38.645,21.114 C38.5549996,21.510002 38.51,21.9299978 38.51,22.374 C38.51,22.770002 38.5519996,23.162998 38.636,23.553 C38.7200004,23.9430019 38.8519991,24.2879985 39.032,24.588 C39.2120009,24.8880015 39.4489985,25.1309991 39.743,25.317 C40.0370015,25.5030009 40.3939979,25.596 40.814,25.596 C41.4020029,25.596 41.8759982,25.4310016 42.236,25.101 C42.5960018,24.7709983 42.8479993,24.3540025 42.992,23.85 C43.0520003,23.6819992 43.0939999,23.4720013 43.118,23.22 C43.1420001,22.9679987 43.154,22.7280011 43.154,22.5 L43.154,22.41 Z M52.514,27 C52.3819993,26.5679978 52.3040001,26.052003 52.28,25.452 C52.0399988,26.0040028 51.6710025,26.4449983 51.173,26.775 C50.6749975,27.1050016 50.0840034,27.27 49.4,27.27 C48.5359957,27.27 47.8520025,27.0240025 47.348,26.532 C46.8439975,26.0399975 46.592,25.3800041 46.592,24.552 C46.592,24.0839977 46.6759992,23.6910016 46.844,23.373 C47.0120008,23.0549984 47.2459985,22.791001 47.546,22.581 C47.8460015,22.370999 48.199998,22.2060006 48.608,22.086 C49.016002,21.9659994 49.4599976,21.8700004 49.94,21.798 L52.208,21.456 L52.208,20.898 C52.208,20.501998 52.1600005,20.1840012 52.064,19.944 C51.9679995,19.7039988 51.8360008,19.5180007 51.668,19.386 C51.4999992,19.2539993 51.3080011,19.1670002 51.092,19.125 C50.8759989,19.0829998 50.6480012,19.062 50.408,19.062 C49.7239966,19.062 49.1600022,19.1879987 48.716,19.44 C48.2719978,19.6920013 47.9000015,20.0099981 47.6,20.394 L46.826,19.422 C47.1740017,19.0019979 47.6569969,18.6420015 48.275,18.342 C48.8930031,18.0419985 49.6579954,17.892 50.57,17.892 C51.6740055,17.892 52.4749975,18.1379975 52.973,18.63 C53.4710025,19.1220025 53.72,19.9139945 53.72,21.006 L53.72,24.588 C53.72,24.8760014 53.723,25.1279989 53.729,25.344 C53.735,25.5600011 53.7469999,25.7609991 53.765,25.947 C53.7830001,26.1330009 53.8099998,26.3099992 53.846,26.478 C53.8820002,26.6460008 53.9299997,26.8199991 53.99,27 L52.514,27 Z M52.208,22.446 L50.084,22.788 C49.3519963,22.9200007 48.8330015,23.1179987 48.527,23.382 C48.2209985,23.6460013 48.068,24.0119977 48.068,24.48 C48.068,24.9600024 48.2089986,25.3619984 48.491,25.686 C48.7730014,26.0100016 49.1899972,26.172 49.742,26.172 C50.0780017,26.172 50.3959985,26.1060007 50.696,25.974 C50.9960015,25.8419993 51.2569989,25.6590012 51.479,25.425 C51.7010011,25.1909988 51.8779993,24.9090017 52.01,24.579 C52.1420007,24.2489984 52.208,23.886002 52.208,23.49 L52.208,22.446 Z M56.114,18.144 L57.41,18.144 L57.572,19.908 C57.8000011,19.3679973 58.1629975,18.897002 58.661,18.495 C59.1590025,18.092998 59.7739963,17.892 60.506,17.892 C61.4300046,17.892 62.1109978,18.1859971 62.549,18.774 C62.9870022,19.3620029 63.206,20.1839947 63.206,21.24 L63.206,27 L61.712,27 L61.712,21.546 C61.712,20.741996 61.5500016,20.1510019 61.226,19.773 C60.9019984,19.3949981 60.4640028,19.206 59.912,19.206 C59.2519967,19.206 58.7030022,19.4759973 58.265,20.016 C57.8269978,20.5560027 57.608,21.3179951 57.608,22.302 L57.608,27 L56.114,27 L56.114,18.144 Z M65.474,14.706 L66.968,14.706 L66.968,16.2 L65.474,16.2 L65.474,14.706 Z M65.474,18.144 L66.968,18.144 L66.968,27 L65.474,27 L65.474,18.144 Z M69.434,24.822 C69.7340015,25.2060019 70.1209976,25.5239987 70.595,25.776 C71.0690024,26.0280013 71.5879972,26.154 72.152,26.154 C72.6560025,26.154 73.0939981,26.0340012 73.466,25.794 C73.8380019,25.5539988 74.024,25.1940024 74.024,24.714 C74.024,24.3419981 73.9010012,24.051001 73.655,23.841 C73.4089988,23.6309989 73.1030018,23.4540007 72.737,23.31 C72.3709982,23.1659993 71.9720022,23.0340006 71.54,22.914 C71.1079978,22.7939994 70.7090018,22.638001 70.343,22.446 C69.9769982,22.253999 69.6710012,22.0020016 69.425,21.69 C69.1789988,21.3779984 69.056,20.9520027 69.056,20.412 C69.056,19.9679978 69.1459991,19.5870016 69.326,19.269 C69.5060009,18.9509984 69.7429985,18.690001 70.037,18.486 C70.3310015,18.281999 70.6699981,18.1320005 71.054,18.036 C71.4380019,17.9399995 71.8399979,17.892 72.26,17.892 C73.5080062,17.892 74.5459959,18.2519964 75.374,18.972 L74.618,19.98 C74.3539987,19.7039986 74.0030022,19.4730009 73.565,19.287 C73.1269978,19.1009991 72.6740023,19.008 72.206,19.008 C72.001999,19.008 71.801001,19.0319998 71.603,19.08 C71.404999,19.1280002 71.2310008,19.2029995 71.081,19.305 C70.9309993,19.4070005 70.8110004,19.5359992 70.721,19.692 C70.6309996,19.8480008 70.586,20.0399989 70.586,20.268 C70.586,20.6160017 70.7089988,20.885999 70.955,21.078 C71.2010012,21.270001 71.5069982,21.4349993 71.873,21.573 C72.2390018,21.7110007 72.6349979,21.8429994 73.061,21.969 C73.4870021,22.0950006 73.8829982,22.256999 74.249,22.455 C74.6150018,22.653001 74.9209988,22.9139984 75.167,23.238 C75.4130012,23.5620016 75.536,23.9939973 75.536,24.534 C75.536,24.9900023 75.4430009,25.3889983 75.257,25.731 C75.0709991,26.0730017 74.8250015,26.3579989 74.519,26.586 C74.2129985,26.8140011 73.859002,26.9849994 73.457,27.099 C73.054998,27.2130006 72.6380022,27.27 72.206,27.27 C70.7179926,27.27 69.5360044,26.7900048 68.66,25.83 L69.434,24.822 Z M78.416,22.914 C78.4760003,23.9340051 78.7369977,24.7229972 79.199,25.281 C79.6610023,25.8390028 80.3059959,26.118 81.134,26.118 C82.1780052,26.118 82.9639974,25.6260049 83.492,24.642 L84.626,25.272 C84.2779983,25.8600029 83.8160029,26.3399981 83.24,26.712 C82.6639971,27.0840019 81.9380044,27.27 81.062,27.27 C80.3659965,27.27 79.7570026,27.1500012 79.235,26.91 C78.7129974,26.6699988 78.2780017,26.3400021 77.93,25.92 C77.5819983,25.4999979 77.3210009,25.0080028 77.147,24.444 C76.9729991,23.8799972 76.886,23.2740032 76.886,22.626 C76.886,21.9899968 76.9699992,21.3840029 77.138,20.808 C77.3060008,20.2319971 77.5609983,19.7280022 77.903,19.296 C78.2450017,18.8639978 78.6649975,18.5220013 79.163,18.27 C79.6610025,18.0179987 80.2459966,17.892 80.918,17.892 C81.5660032,17.892 82.1299976,18.0149988 82.61,18.261 C83.0900024,18.5070012 83.4889984,18.8369979 83.807,19.251 C84.1250016,19.6650021 84.3649992,20.1449973 84.527,20.691 C84.6890008,21.2370027 84.77,21.8159969 84.77,22.428 C84.77,22.5600007 84.767,22.6619996 84.761,22.734 C84.755,22.8060004 84.752,22.8659998 84.752,22.914 L78.416,22.914 Z M80.9,19.026 C80.1439962,19.026 79.5590021,19.2959973 79.145,19.836 C78.7309979,20.3760027 78.4940003,21.1019954 78.434,22.014 L83.24,22.014 C83.24,21.6419981 83.1980004,21.2790018 83.114,20.925 C83.0299996,20.5709982 82.892001,20.2530014 82.7,19.971 C82.507999,19.6889986 82.2650015,19.4610009 81.971,19.287 C81.6769985,19.1129991 81.3200021,19.026 80.9,19.026 Z M92.546,25.272 C92.3059988,25.872003 91.9520023,26.3459983 91.484,26.694 C91.0159977,27.0420017 90.4340035,27.216 89.738,27.216 C89.1859972,27.216 88.6910022,27.1020011 88.253,26.874 C87.8149978,26.6459989 87.4430015,26.328002 87.137,25.92 C86.8309985,25.511998 86.5970008,25.0200029 86.435,24.444 C86.2729992,23.8679971 86.192,23.2320035 86.192,22.536 C86.192,21.8159964 86.2759992,21.1710029 86.444,20.601 C86.6120008,20.0309971 86.8519984,19.548002 87.164,19.152 C87.4760016,18.755998 87.8509978,18.4500011 88.289,18.234 C88.7270022,18.0179989 89.2099974,17.91 89.738,17.91 C90.4580036,17.91 91.0459977,18.0809983 91.502,18.423 C91.9580023,18.7650017 92.281999,19.1759976 92.474,19.656 L92.474,14.292 L93.986,14.292 L93.986,27 L92.546,27 L92.546,25.272 Z M92.474,22.518 C92.474,22.1459981 92.4650001,21.855001 92.447,21.645 C92.4289999,21.434999 92.4080001,21.2640007 92.384,21.132 C92.3239997,20.8679987 92.2340006,20.6160012 92.114,20.376 C91.9939994,20.1359988 91.8410009,19.9230009 91.655,19.737 C91.4689991,19.5509991 91.2500013,19.4040005 90.998,19.296 C90.7459987,19.1879995 90.4580016,19.134 90.134,19.134 C89.725998,19.134 89.3750015,19.2239991 89.081,19.404 C88.7869985,19.5840009 88.541001,19.8269985 88.343,20.133 C88.144999,20.4390015 87.9980005,20.7989979 87.902,21.213 C87.8059995,21.6270021 87.758,22.0679977 87.758,22.536 C87.758,23.0400025 87.8119995,23.5049979 87.92,23.931 C88.0280005,24.3570021 88.183999,24.7229985 88.388,25.029 C88.592001,25.3350015 88.8439985,25.5749991 89.144,25.749 C89.4440015,25.9230009 89.7859981,26.01 90.17,26.01 C90.4700015,26.01 90.7429988,25.9560005 90.989,25.848 C91.2350012,25.7399995 91.4509991,25.590001 91.637,25.398 C91.8230009,25.205999 91.9759994,24.9870012 92.096,24.741 C92.2160006,24.4949988 92.3059997,24.2340014 92.366,23.958 C92.4380004,23.6219983 92.474,23.1720028 92.474,22.608 L92.474,22.518 Z M100.322,14.706 L101.816,14.706 L101.816,16.2 L100.322,16.2 L100.322,14.706 Z M100.322,18.144 L101.816,18.144 L101.816,27 L100.322,27 L100.322,18.144 Z M104.12,18.144 L105.416,18.144 L105.578,19.908 C105.806001,19.3679973 106.168998,18.897002 106.667,18.495 C107.165002,18.092998 107.779996,17.892 108.512,17.892 C109.436005,17.892 110.116998,18.1859971 110.555,18.774 C110.993002,19.3620029 111.212,20.1839947 111.212,21.24 L111.212,27 L109.718,27 L109.718,21.546 C109.718,20.741996 109.556002,20.1510019 109.232,19.773 C108.907998,19.3949981 108.470003,19.206 107.918,19.206 C107.257997,19.206 106.709002,19.4759973 106.271,20.016 C105.832998,20.5560027 105.614,21.3179951 105.614,22.302 L105.614,27 L104.12,27 L104.12,18.144 Z M114.236,19.17 L112.706,19.17 L112.706,18.144 L114.164,18.144 C114.068,17.8319984 113.987,17.4990018 113.921,17.145 C113.855,16.7909982 113.822,16.4580016 113.822,16.146 C113.822,15.8579986 113.855,15.5850013 113.921,15.327 C113.987,15.0689987 114.103999,14.841001 114.272,14.643 C114.440001,14.444999 114.667999,14.2860006 114.956,14.166 C115.244001,14.0459994 115.609998,13.986 116.054,13.986 C116.378002,13.986 116.668999,14.0069998 116.927,14.049 C117.185001,14.0910002 117.427999,14.1599995 117.656,14.256 L117.404,15.39 C117.271999,15.3299997 117.107001,15.2790002 116.909,15.237 C116.710999,15.1949998 116.528001,15.174 116.36,15.174 C115.675997,15.174 115.334,15.569996 115.334,16.362 C115.334,16.6740016 115.373,16.9979983 115.451,17.334 C115.529,17.6700017 115.61,17.939999 115.694,18.144 L117.404,18.144 L117.404,19.17 L115.748,19.17 L115.748,27 L114.236,27 L114.236,19.17 Z M122.588,27.27 C121.915997,27.27 121.325003,27.1470012 120.815,26.901 C120.304997,26.6549988 119.879002,26.3190021 119.537,25.893 C119.194998,25.4669979 118.940001,24.9690028 118.772,24.399 C118.603999,23.8289971 118.52,23.2140033 118.52,22.554 C118.52,21.8939967 118.606999,21.2820028 118.781,20.718 C118.955001,20.1539972 119.212998,19.6620021 119.555,19.242 C119.897002,18.8219979 120.322997,18.4920012 120.833,18.252 C121.343003,18.0119988 121.927997,17.892 122.588,17.892 C123.248003,17.892 123.832997,18.0119988 124.343,18.252 C124.853003,18.4920012 125.281998,18.8189979 125.63,19.233 C125.978002,19.6470021 126.238999,20.1389972 126.413,20.709 C126.587001,21.2790028 126.674,21.8939967 126.674,22.554 C126.674,23.2140033 126.587001,23.8289971 126.413,24.399 C126.238999,24.9690028 125.978002,25.4669979 125.63,25.893 C125.281998,26.3190021 124.853003,26.6549988 124.343,26.901 C123.832997,27.1470012 123.248003,27.27 122.588,27.27 Z M122.624,26.1 C123.032002,26.1 123.391998,26.0100009 123.704,25.83 C124.016002,25.6499991 124.273999,25.4010016 124.478,25.083 C124.682001,24.7649984 124.837999,24.3900022 124.946,23.958 C125.054001,23.5259978 125.108,23.0580025 125.108,22.554 C125.108,22.0499975 125.054001,21.5850021 124.946,21.159 C124.837999,20.7329979 124.676001,20.3640016 124.46,20.052 C124.243999,19.7399984 123.980002,19.4970009 123.668,19.323 C123.355998,19.1489991 122.996002,19.062 122.588,19.062 C122.167998,19.062 121.802002,19.1489991 121.49,19.323 C121.177998,19.4970009 120.920001,19.7399984 120.716,20.052 C120.511999,20.3640016 120.356001,20.7329979 120.248,21.159 C120.139999,21.5850021 120.086,22.0499975 120.086,22.554 C120.086,23.0580025 120.139999,23.5259978 120.248,23.958 C120.356001,24.3900022 120.514999,24.7649984 120.725,25.083 C120.935001,25.4010016 121.198998,25.6499991 121.517,25.83 C121.835002,26.0100009 122.203998,26.1 122.624,26.1 Z M128.582,18.144 L129.878,18.144 L130.022,20.124 C130.274001,19.4759968 130.675997,18.9420021 131.228,18.522 C131.780003,18.1019979 132.433996,17.892 133.19,17.892 L133.19,19.476 C133.021999,19.4399998 132.836001,19.422 132.632,19.422 C132.331998,19.422 132.032002,19.4759995 131.732,19.584 C131.431999,19.6920005 131.159001,19.8659988 130.913,20.106 C130.666999,20.3460012 130.466001,20.6549981 130.31,21.033 C130.153999,21.4110019 130.076,21.8699973 130.076,22.41 L130.076,27 L128.582,27 L128.582,18.144 Z M134.666,18.144 L135.962,18.144 L136.124,19.872 C136.340001,19.2599969 136.675998,18.7770018 137.132,18.423 C137.588002,18.0689982 138.145997,17.892 138.806,17.892 C139.502003,17.892 140.047998,18.089998 140.444,18.486 C140.840002,18.882002 141.091999,19.3619972 141.2,19.926 C141.308001,19.6499986 141.442999,19.3890012 141.605,19.143 C141.767001,18.8969988 141.961999,18.6810009 142.19,18.495 C142.418001,18.3089991 142.681999,18.1620005 142.982,18.054 C143.282001,17.9459995 143.623998,17.892 144.008,17.892 C144.512003,17.892 144.928998,17.9789991 145.259,18.153 C145.589002,18.3270009 145.852999,18.5639985 146.051,18.864 C146.249001,19.1640015 146.39,19.514998 146.474,19.917 C146.558,20.319002 146.6,20.7419978 146.6,21.186 L146.6,27 L145.106,27 L145.106,21.564 C145.106,20.771996 144.965001,20.181002 144.683,19.791 C144.400999,19.400998 143.990003,19.206 143.45,19.206 C142.861997,19.206 142.370002,19.4669974 141.974,19.989 C141.577998,20.5110026 141.38,21.2579951 141.38,22.23 L141.38,27 L139.886,27 L139.886,21.636 C139.886,20.8079959 139.742001,20.196002 139.454,19.8 C139.165999,19.403998 138.764003,19.206 138.248,19.206 C137.671997,19.206 137.180002,19.4729973 136.772,20.007 C136.363998,20.5410027 136.16,21.311995 136.16,22.32 L136.16,27 L134.666,27 L134.666,18.144 Z M154.43,27 C154.297999,26.5679978 154.22,26.052003 154.196,25.452 C153.955999,26.0040028 153.587002,26.4449983 153.089,26.775 C152.590998,27.1050016 152.000003,27.27 151.316,27.27 C150.451996,27.27 149.768003,27.0240025 149.264,26.532 C148.759997,26.0399975 148.508,25.3800041 148.508,24.552 C148.508,24.0839977 148.591999,23.6910016 148.76,23.373 C148.928001,23.0549984 149.161999,22.791001 149.462,22.581 C149.762001,22.370999 150.115998,22.2060006 150.524,22.086 C150.932002,21.9659994 151.375998,21.8700004 151.856,21.798 L154.124,21.456 L154.124,20.898 C154.124,20.501998 154.076,20.1840012 153.98,19.944 C153.884,19.7039988 153.752001,19.5180007 153.584,19.386 C153.415999,19.2539993 153.224001,19.1670002 153.008,19.125 C152.791999,19.0829998 152.564001,19.062 152.324,19.062 C151.639997,19.062 151.076002,19.1879987 150.632,19.44 C150.187998,19.6920013 149.816001,20.0099981 149.516,20.394 L148.742,19.422 C149.090002,19.0019979 149.572997,18.6420015 150.191,18.342 C150.809003,18.0419985 151.573995,17.892 152.486,17.892 C153.590006,17.892 154.390998,18.1379975 154.889,18.63 C155.387002,19.1220025 155.636,19.9139945 155.636,21.006 L155.636,24.588 C155.636,24.8760014 155.639,25.1279989 155.645,25.344 C155.651,25.5600011 155.663,25.7609991 155.681,25.947 C155.699,26.1330009 155.726,26.3099992 155.762,26.478 C155.798,26.6460008 155.846,26.8199991 155.906,27 L154.43,27 Z M154.124,22.446 L152,22.788 C151.267996,22.9200007 150.749002,23.1179987 150.443,23.382 C150.136998,23.6460013 149.984,24.0119977 149.984,24.48 C149.984,24.9600024 150.124999,25.3619984 150.407,25.686 C150.689001,26.0100016 151.105997,26.172 151.658,26.172 C151.994002,26.172 152.311999,26.1060007 152.612,25.974 C152.912002,25.8419993 153.172999,25.6590012 153.395,25.425 C153.617001,25.1909988 153.793999,24.9090017 153.926,24.579 C154.058001,24.2489984 154.124,23.886002 154.124,23.49 L154.124,22.446 Z M158.804,19.17 L157.292,19.17 L157.292,18.144 L157.616,18.144 C157.988002,18.144 158.278999,18.1050004 158.489,18.027 C158.699001,17.9489996 158.857999,17.8290008 158.966,17.667 C159.074001,17.5049992 159.152,17.2920013 159.2,17.028 C159.248,16.7639987 159.29,16.4400019 159.326,16.056 L159.362,15.732 L160.298,15.732 L160.298,18.144 L162.206,18.144 L162.206,19.17 L160.298,19.17 L160.298,24.678 C160.298,25.1820025 160.372999,25.5449989 160.523,25.767 C160.673001,25.9890011 160.951998,26.1 161.36,26.1 C161.684002,26.1 161.983999,26.0280007 162.26,25.884 L162.422,26.964 C161.965998,27.168001 161.462003,27.27 160.91,27.27 C160.477998,27.27 160.127001,27.2100006 159.857,27.09 C159.586999,26.9699994 159.374001,26.808001 159.218,26.604 C159.061999,26.399999 158.954,26.1540014 158.894,25.866 C158.834,25.5779986 158.804,25.2660017 158.804,24.93 L158.804,19.17 Z M164.006,14.706 L165.5,14.706 L165.5,16.2 L164.006,16.2 L164.006,14.706 Z M164.006,18.144 L165.5,18.144 L165.5,27 L164.006,27 L164.006,18.144 Z M171.476,27.27 C170.803997,27.27 170.213003,27.1470012 169.703,26.901 C169.192997,26.6549988 168.767002,26.3190021 168.425,25.893 C168.082998,25.4669979 167.828001,24.9690028 167.66,24.399 C167.491999,23.8289971 167.408,23.2140033 167.408,22.554 C167.408,21.8939967 167.494999,21.2820028 167.669,20.718 C167.843001,20.1539972 168.100998,19.6620021 168.443,19.242 C168.785002,18.8219979 169.210997,18.4920012 169.721,18.252 C170.231003,18.0119988 170.815997,17.892 171.476,17.892 C172.136003,17.892 172.720997,18.0119988 173.231,18.252 C173.741003,18.4920012 174.169998,18.8189979 174.518,19.233 C174.866002,19.6470021 175.126999,20.1389972 175.301,20.709 C175.475001,21.2790028 175.562,21.8939967 175.562,22.554 C175.562,23.2140033 175.475001,23.8289971 175.301,24.399 C175.126999,24.9690028 174.866002,25.4669979 174.518,25.893 C174.169998,26.3190021 173.741003,26.6549988 173.231,26.901 C172.720997,27.1470012 172.136003,27.27 171.476,27.27 Z M171.512,26.1 C171.920002,26.1 172.279998,26.0100009 172.592,25.83 C172.904002,25.6499991 173.161999,25.4010016 173.366,25.083 C173.570001,24.7649984 173.725999,24.3900022 173.834,23.958 C173.942001,23.5259978 173.996,23.0580025 173.996,22.554 C173.996,22.0499975 173.942001,21.5850021 173.834,21.159 C173.725999,20.7329979 173.564001,20.3640016 173.348,20.052 C173.131999,19.7399984 172.868002,19.4970009 172.556,19.323 C172.243998,19.1489991 171.884002,19.062 171.476,19.062 C171.055998,19.062 170.690002,19.1489991 170.378,19.323 C170.065998,19.4970009 169.808001,19.7399984 169.604,20.052 C169.399999,20.3640016 169.244001,20.7329979 169.136,21.159 C169.027999,21.5850021 168.974,22.0499975 168.974,22.554 C168.974,23.0580025 169.027999,23.5259978 169.136,23.958 C169.244001,24.3900022 169.402999,24.7649984 169.613,25.083 C169.823001,25.4010016 170.086998,25.6499991 170.405,25.83 C170.723002,26.0100009 171.091998,26.1 171.512,26.1 Z M177.47,18.144 L178.766,18.144 L178.928,19.908 C179.156001,19.3679973 179.518998,18.897002 180.017,18.495 C180.515002,18.092998 181.129996,17.892 181.862,17.892 C182.786005,17.892 183.466998,18.1859971 183.905,18.774 C184.343002,19.3620029 184.562,20.1839947 184.562,21.24 L184.562,27 L183.068,27 L183.068,21.546 C183.068,20.741996 182.906002,20.1510019 182.582,19.773 C182.257998,19.3949981 181.820003,19.206 181.268,19.206 C180.607997,19.206 180.059002,19.4759973 179.621,20.016 C179.182998,20.5560027 178.964,21.3179951 178.964,22.302 L178.964,27 L177.47,27 L177.47,18.144 Z" id="H4-Regular-18-" fill="#000000"></path>
                </g>
                <path d="M20.5,250.5 L351.5,250.5" id="Line-Copy" stroke="#E7E9EB" stroke-linecap="square"></path>
                <g id="Group-4" transform="translate(256.000000, 79.000000)">
                    <g id="Bg">
                        <use fill="#F5F5F6" fill-rule="evenodd" xlink:href="#path-2"></use>
                        <rect stroke="#A9B1B5" stroke-width="1" x="0.5" y="0.5" width="89" height="35" rx="3"></rect>
                    </g>
                </g>
                <g id="Group-4-Copy" transform="translate(255.000000, 182.000000)">
                    <g id="Bg">
                        <use fill="#F5F5F6" fill-rule="evenodd" xlink:href="#path-3"></use>
                        <rect stroke="#A9B1B5" stroke-width="1" x="0.5" y="0.5" width="89" height="35" rx="3"></rect>
                    </g>
                </g>
                <rect id="Rectangle-2-Copy-2" fill="#000000" x="273" y="95" width="57" height="4" rx="2"></rect>
                <rect id="Rectangle-2-Copy-9" fill="#000000" x="272" y="198" width="57" height="4" rx="2"></rect>
                <rect id="Rectangle-2-Copy" fill="#AAB1B6" x="21" y="109" width="177" height="6" rx="3"></rect>
                <rect id="Rectangle-2-Copy-10" fill="#AAB1B6" x="20" y="212" width="177" height="6" rx="3"></rect>
                <rect id="Rectangle-2-Copy-4" fill="#4C5358" x="20" y="79" width="57" height="8" rx="4"></rect>
                <rect id="Rectangle-2-Copy-11" fill="#4C5358" x="19" y="182" width="57" height="8" rx="4"></rect>
                <g id="Rectangle-2" opacity="0.2">
                    <use fill="#9B9B9B" fill-rule="evenodd" xlink:href="#path-4"></use>
                    <rect stroke="#979797" stroke-width="1" x="360.5" y="61.5" width="3" height="219" rx="1.5"></rect>
                </g>
                <g id="Rectangle-2" opacity="0.7">
                    <use fill="#9B9B9B" fill-rule="evenodd" xlink:href="#path-5"></use>
                    <rect stroke="#979797" stroke-width="1" x="360.5" y="50.5" width="3" height="79" rx="1.5"></rect>
                </g>
                <path d="M21.5,147.5 L352.5,147.5" id="Line" stroke="#E7E9EB" stroke-linecap="square"></path>
            </g>
        </g>
    </g>
</svg>