<?xml version="1.0" encoding="UTF-8"?>
<svg width="335px" height="311px" viewBox="0 0 335 311" version="1.1" xmlns="http://www.w3.org/2000/svg" xmlns:xlink="http://www.w3.org/1999/xlink">
    <!-- Generator: Sketch 47 (45396) - http://www.bohemiancoding.com/sketch -->
    <title>Sub-panels</title>
    <desc>Created with Sketch.</desc>
    <defs>
        <rect id="path-1" x="0" y="0" width="335" height="311"></rect>
        <rect id="path-2" x="0" y="0" width="303" height="109"></rect>
        <rect id="path-3" x="0" y="0" width="303" height="109"></rect>
    </defs>
    <g id="Page-1" stroke="none" stroke-width="1" fill="none" fill-rule="evenodd">
        <g id="Buttons-Usage-extra-large-1200" transform="translate(-776.000000, -2157.000000)">
            <g id="Sub-panels" transform="translate(776.000000, 2157.000000)">
                <g id="PanelHeaderFooter-Copy-3">
                    <g id="Panel-">
                        <use fill="#FFFFFF" fill-rule="evenodd" xlink:href="#path-1"></use>
                        <rect stroke="#D2D6D9" stroke-width="1" x="0.5" y="0.5" width="334" height="310"></rect>
                    </g>
                    <rect id="Header-bg-" fill="#F5F6F6" x="1" y="1" width="333" height="44"></rect>
                    <path d="M28.61,24.318 C28.0819974,25.326005 27.4100041,26.0699976 26.594,26.55 C25.7779959,27.0300024 24.770006,27.27 23.57,27.27 C22.6219953,27.27 21.7850036,27.0990017 21.059,26.757 C20.3329964,26.4149983 19.7270024,25.944003 19.241,25.344 C18.7549976,24.743997 18.3890012,24.0360041 18.143,23.22 C17.8969988,22.4039959 17.774,21.5280047 17.774,20.592 C17.774,19.6439953 17.8999987,18.771004 18.152,17.973 C18.4040013,17.174996 18.7759975,16.4820029 19.268,15.894 C19.7600025,15.3059971 20.3659964,14.8470016 21.086,14.517 C21.8060036,14.1869983 22.6339953,14.022 23.57,14.022 C24.6500054,14.022 25.6039959,14.2349979 26.432,14.661 C27.2600041,15.0870021 27.9499972,15.7559954 28.502,16.668 L26.972,17.442 C26.6239983,16.8059968 26.1620029,16.3110018 25.586,15.957 C25.0099971,15.6029982 24.3380038,15.426 23.57,15.426 C22.8979966,15.426 22.3070025,15.5609986 21.797,15.831 C21.2869975,16.1010013 20.8610017,16.4669977 20.519,16.929 C20.1769983,17.3910023 19.9190009,17.9369968 19.745,18.567 C19.5709991,19.1970031 19.484,19.8719964 19.484,20.592 C19.484,21.3120036 19.5739991,21.9929968 19.754,22.635 C19.9340009,23.2770032 20.1949983,23.8379976 20.537,24.318 C20.8790017,24.7980024 21.3049975,25.1759986 21.815,25.452 C22.3250026,25.7280014 22.9099967,25.866 23.57,25.866 C25.2380083,25.866 26.4079966,25.0920077 27.08,23.544 L28.61,24.318 Z M30.482,14.292 L31.976,14.292 L31.976,27 L30.482,27 L30.482,14.292 Z M34.244,18.144 L35.756,18.144 L35.756,23.508 C35.756,24.3480042 35.9119984,24.962998 36.224,25.353 C36.5360016,25.743002 36.9739972,25.938 37.538,25.938 C38.2580036,25.938 38.818998,25.6530029 39.221,25.083 C39.623002,24.5129972 39.824,23.7540047 39.824,22.806 L39.824,18.144 L41.318,18.144 L41.318,27 L39.914,27 L39.914,25.2 C39.8059995,25.4760014 39.6740008,25.7369988 39.518,25.983 C39.3619992,26.2290012 39.1700011,26.4449991 38.942,26.631 C38.7139989,26.8170009 38.4500015,26.9639995 38.15,27.072 C37.8499985,27.1800005 37.496002,27.234 37.088,27.234 C36.1279952,27.234 35.4140023,26.9430029 34.946,26.361 C34.4779977,25.7789971 34.244,24.9540053 34.244,23.886 L34.244,18.144 Z M44.396,19.17 L42.884,19.17 L42.884,18.144 L43.208,18.144 C43.5800019,18.144 43.870999,18.1050004 44.081,18.027 C44.2910011,17.9489996 44.4499995,17.8290008 44.558,17.667 C44.6660005,17.5049992 44.7439998,17.2920013 44.792,17.028 C44.8400002,16.7639987 44.8819998,16.4400019 44.918,16.056 L44.954,15.732 L45.89,15.732 L45.89,18.144 L47.798,18.144 L47.798,19.17 L45.89,19.17 L45.89,24.678 C45.89,25.1820025 45.9649993,25.5449989 46.115,25.767 C46.2650007,25.9890011 46.543998,26.1 46.952,26.1 C47.2760016,26.1 47.5759986,26.0280007 47.852,25.884 L48.014,26.964 C47.5579977,27.168001 47.0540028,27.27 46.502,27.27 C46.0699978,27.27 45.7190013,27.2100006 45.449,27.09 C45.1789987,26.9699994 44.9660008,26.808001 44.81,26.604 C44.6539992,26.399999 44.5460003,26.1540014 44.486,25.866 C44.4259997,25.5779986 44.396,25.2660017 44.396,24.93 L44.396,19.17 Z M50.372,19.17 L48.86,19.17 L48.86,18.144 L49.184,18.144 C49.5560019,18.144 49.8469989,18.1050004 50.057,18.027 C50.2670011,17.9489996 50.4259995,17.8290008 50.534,17.667 C50.6420005,17.5049992 50.7199998,17.2920013 50.768,17.028 C50.8160002,16.7639987 50.8579998,16.4400019 50.894,16.056 L50.93,15.732 L51.866,15.732 L51.866,18.144 L53.774,18.144 L53.774,19.17 L51.866,19.17 L51.866,24.678 C51.866,25.1820025 51.9409993,25.5449989 52.091,25.767 C52.2410008,25.9890011 52.519998,26.1 52.928,26.1 C53.2520016,26.1 53.5519986,26.0280007 53.828,25.884 L53.99,26.964 C53.5339977,27.168001 53.0300028,27.27 52.478,27.27 C52.0459978,27.27 51.6950014,27.2100006 51.425,27.09 C51.1549987,26.9699994 50.9420008,26.808001 50.786,26.604 C50.6299992,26.399999 50.5220003,26.1540014 50.462,25.866 C50.4019997,25.5779986 50.372,25.2660017 50.372,24.93 L50.372,19.17 Z M56.708,22.914 C56.7680003,23.9340051 57.0289977,24.7229972 57.491,25.281 C57.9530023,25.8390028 58.5979959,26.118 59.426,26.118 C60.4700052,26.118 61.2559974,25.6260049 61.784,24.642 L62.918,25.272 C62.5699983,25.8600029 62.1080029,26.3399981 61.532,26.712 C60.9559971,27.0840019 60.2300044,27.27 59.354,27.27 C58.6579965,27.27 58.0490026,27.1500012 57.527,26.91 C57.0049974,26.6699988 56.5700017,26.3400021 56.222,25.92 C55.8739983,25.4999979 55.6130009,25.0080028 55.439,24.444 C55.2649991,23.8799972 55.178,23.2740032 55.178,22.626 C55.178,21.9899968 55.2619992,21.3840029 55.43,20.808 C55.5980008,20.2319971 55.8529983,19.7280022 56.195,19.296 C56.5370017,18.8639978 56.9569975,18.5220013 57.455,18.27 C57.9530025,18.0179987 58.5379966,17.892 59.21,17.892 C59.8580032,17.892 60.4219976,18.0149988 60.902,18.261 C61.3820024,18.5070012 61.7809984,18.8369979 62.099,19.251 C62.4170016,19.6650021 62.6569992,20.1449973 62.819,20.691 C62.9810008,21.2370027 63.062,21.8159969 63.062,22.428 C63.062,22.5600007 63.059,22.6619996 63.053,22.734 C63.047,22.8060004 63.044,22.8659998 63.044,22.914 L56.708,22.914 Z M59.192,19.026 C58.4359962,19.026 57.8510021,19.2959973 57.437,19.836 C57.0229979,20.3760027 56.7860003,21.1019954 56.726,22.014 L61.532,22.014 C61.532,21.6419981 61.4900004,21.2790018 61.406,20.925 C61.3219996,20.5709982 61.184001,20.2530014 60.992,19.971 C60.799999,19.6889986 60.5570015,19.4610009 60.263,19.287 C59.9689985,19.1129991 59.6120021,19.026 59.192,19.026 Z M64.88,18.144 L66.176,18.144 L66.32,20.124 C66.5720013,19.4759968 66.9739972,18.9420021 67.526,18.522 C68.0780028,18.1019979 68.7319962,17.892 69.488,17.892 L69.488,19.476 C69.3199992,19.4399998 69.134001,19.422 68.93,19.422 C68.6299985,19.422 68.3300015,19.4759995 68.03,19.584 C67.7299985,19.6920005 67.4570012,19.8659988 67.211,20.106 C66.9649988,20.3460012 66.7640008,20.6549981 66.608,21.033 C66.4519992,21.4110019 66.374,21.8699973 66.374,22.41 L66.374,27 L64.88,27 L64.88,18.144 Z M72.098,22.914 C72.1580003,23.9340051 72.4189977,24.7229972 72.881,25.281 C73.3430023,25.8390028 73.9879959,26.118 74.816,26.118 C75.8600052,26.118 76.6459974,25.6260049 77.174,24.642 L78.308,25.272 C77.9599983,25.8600029 77.4980029,26.3399981 76.922,26.712 C76.3459971,27.0840019 75.6200044,27.27 74.744,27.27 C74.0479965,27.27 73.4390026,27.1500012 72.917,26.91 C72.3949974,26.6699988 71.9600017,26.3400021 71.612,25.92 C71.2639983,25.4999979 71.0030009,25.0080028 70.829,24.444 C70.6549991,23.8799972 70.568,23.2740032 70.568,22.626 C70.568,21.9899968 70.6519992,21.3840029 70.82,20.808 C70.9880008,20.2319971 71.2429983,19.7280022 71.585,19.296 C71.9270017,18.8639978 72.3469975,18.5220013 72.845,18.27 C73.3430025,18.0179987 73.9279966,17.892 74.6,17.892 C75.2480032,17.892 75.8119976,18.0149988 76.292,18.261 C76.7720024,18.5070012 77.1709984,18.8369979 77.489,19.251 C77.8070016,19.6650021 78.0469992,20.1449973 78.209,20.691 C78.3710008,21.2370027 78.452,21.8159969 78.452,22.428 C78.452,22.5600007 78.449,22.6619996 78.443,22.734 C78.437,22.8060004 78.434,22.8659998 78.434,22.914 L72.098,22.914 Z M74.582,19.026 C73.8259962,19.026 73.2410021,19.2959973 72.827,19.836 C72.4129979,20.3760027 72.1760003,21.1019954 72.116,22.014 L76.922,22.014 C76.922,21.6419981 76.8800004,21.2790018 76.796,20.925 C76.7119996,20.5709982 76.574001,20.2530014 76.382,19.971 C76.189999,19.6889986 75.9470015,19.4610009 75.653,19.287 C75.3589985,19.1129991 75.0020021,19.026 74.582,19.026 Z M86.228,25.272 C85.9879988,25.872003 85.6340023,26.3459983 85.166,26.694 C84.6979977,27.0420017 84.1160035,27.216 83.42,27.216 C82.8679972,27.216 82.3730022,27.1020011 81.935,26.874 C81.4969978,26.6459989 81.1250015,26.328002 80.819,25.92 C80.5129985,25.511998 80.2790008,25.0200029 80.117,24.444 C79.9549992,23.8679971 79.874,23.2320035 79.874,22.536 C79.874,21.8159964 79.9579992,21.1710029 80.126,20.601 C80.2940008,20.0309971 80.5339984,19.548002 80.846,19.152 C81.1580016,18.755998 81.5329978,18.4500011 81.971,18.234 C82.4090022,18.0179989 82.8919974,17.91 83.42,17.91 C84.1400036,17.91 84.7279977,18.0809983 85.184,18.423 C85.6400023,18.7650017 85.963999,19.1759976 86.156,19.656 L86.156,14.292 L87.668,14.292 L87.668,27 L86.228,27 L86.228,25.272 Z M86.156,22.518 C86.156,22.1459981 86.1470001,21.855001 86.129,21.645 C86.1109999,21.434999 86.0900001,21.2640007 86.066,21.132 C86.0059997,20.8679987 85.9160006,20.6160012 85.796,20.376 C85.6759994,20.1359988 85.5230009,19.9230009 85.337,19.737 C85.1509991,19.5509991 84.9320013,19.4040005 84.68,19.296 C84.4279987,19.1879995 84.1400016,19.134 83.816,19.134 C83.407998,19.134 83.0570015,19.2239991 82.763,19.404 C82.4689985,19.5840009 82.223001,19.8269985 82.025,20.133 C81.826999,20.4390015 81.6800005,20.7989979 81.584,21.213 C81.4879995,21.6270021 81.44,22.0679977 81.44,22.536 C81.44,23.0400025 81.4939995,23.5049979 81.602,23.931 C81.7100005,24.3570021 81.865999,24.7229985 82.07,25.029 C82.274001,25.3350015 82.5259985,25.5749991 82.826,25.749 C83.1260015,25.9230009 83.4679981,26.01 83.852,26.01 C84.1520015,26.01 84.4249988,25.9560005 84.671,25.848 C84.9170012,25.7399995 85.1329991,25.590001 85.319,25.398 C85.5050009,25.205999 85.6579994,24.9870012 85.778,24.741 C85.8980006,24.4949988 85.9879997,24.2340014 86.048,23.958 C86.1200004,23.6219983 86.156,23.1720028 86.156,22.608 L86.156,22.518 Z M101.402,25.056 C101.041998,25.7760036 100.559003,26.3249981 99.953,26.703 C99.346997,27.0810019 98.6120043,27.27 97.748,27.27 C97.0399965,27.27 96.4250026,27.1470012 95.903,26.901 C95.3809974,26.6549988 94.9490017,26.3220021 94.607,25.902 C94.2649983,25.4819979 94.0130008,24.9870028 93.851,24.417 C93.6889992,23.8469971 93.608,23.2380032 93.608,22.59 C93.608,21.9299967 93.6949991,21.3150028 93.869,20.745 C94.0430009,20.1749971 94.3009983,19.6800021 94.643,19.26 C94.9850017,18.8399979 95.4139974,18.5070012 95.93,18.261 C96.4460026,18.0149988 97.0519965,17.892 97.748,17.892 C98.6240044,17.892 99.3529971,18.086998 99.935,18.477 C100.517003,18.8670019 100.987998,19.4159965 101.348,20.124 L100.088,20.718 C99.6319977,19.6139945 98.8640054,19.062 97.784,19.062 C97.3279977,19.062 96.9350017,19.1519991 96.605,19.332 C96.2749984,19.5120009 96.0050011,19.7579984 95.795,20.07 C95.5849989,20.3820016 95.4290005,20.7449979 95.327,21.159 C95.2249995,21.5730021 95.174,22.0199976 95.174,22.5 C95.174,22.9560023 95.2219995,23.3999978 95.318,23.832 C95.4140005,24.2640022 95.5699989,24.6479983 95.786,24.984 C96.0020011,25.3200017 96.2779983,25.589999 96.614,25.794 C96.9500017,25.998001 97.3639975,26.1 97.856,26.1 C98.4800031,26.1 98.9839981,25.9410016 99.368,25.623 C99.7520019,25.3049984 100.045999,24.8940025 100.25,24.39 L101.402,25.056 Z M106.73,27.27 C106.057997,27.27 105.467003,27.1470012 104.957,26.901 C104.446997,26.6549988 104.021002,26.3190021 103.679,25.893 C103.336998,25.4669979 103.082001,24.9690028 102.914,24.399 C102.745999,23.8289971 102.662,23.2140033 102.662,22.554 C102.662,21.8939967 102.748999,21.2820028 102.923,20.718 C103.097001,20.1539972 103.354998,19.6620021 103.697,19.242 C104.039002,18.8219979 104.464997,18.4920012 104.975,18.252 C105.485003,18.0119988 106.069997,17.892 106.73,17.892 C107.390003,17.892 107.974997,18.0119988 108.485,18.252 C108.995003,18.4920012 109.423998,18.8189979 109.772,19.233 C110.120002,19.6470021 110.380999,20.1389972 110.555,20.709 C110.729001,21.2790028 110.816,21.8939967 110.816,22.554 C110.816,23.2140033 110.729001,23.8289971 110.555,24.399 C110.380999,24.9690028 110.120002,25.4669979 109.772,25.893 C109.423998,26.3190021 108.995003,26.6549988 108.485,26.901 C107.974997,27.1470012 107.390003,27.27 106.73,27.27 Z M106.766,26.1 C107.174002,26.1 107.533998,26.0100009 107.846,25.83 C108.158002,25.6499991 108.415999,25.4010016 108.62,25.083 C108.824001,24.7649984 108.979999,24.3900022 109.088,23.958 C109.196001,23.5259978 109.25,23.0580025 109.25,22.554 C109.25,22.0499975 109.196001,21.5850021 109.088,21.159 C108.979999,20.7329979 108.818001,20.3640016 108.602,20.052 C108.385999,19.7399984 108.122002,19.4970009 107.81,19.323 C107.497998,19.1489991 107.138002,19.062 106.73,19.062 C106.309998,19.062 105.944002,19.1489991 105.632,19.323 C105.319998,19.4970009 105.062001,19.7399984 104.858,20.052 C104.653999,20.3640016 104.498001,20.7329979 104.39,21.159 C104.281999,21.5850021 104.228,22.0499975 104.228,22.554 C104.228,23.0580025 104.281999,23.5259978 104.39,23.958 C104.498001,24.3900022 104.656999,24.7649984 104.867,25.083 C105.077001,25.4010016 105.340998,25.6499991 105.659,25.83 C105.977002,26.0100009 106.345998,26.1 106.766,26.1 Z M112.724,18.144 L114.02,18.144 L114.182,19.908 C114.410001,19.3679973 114.772998,18.897002 115.271,18.495 C115.769002,18.092998 116.383996,17.892 117.116,17.892 C118.040005,17.892 118.720998,18.1859971 119.159,18.774 C119.597002,19.3620029 119.816,20.1839947 119.816,21.24 L119.816,27 L118.322,27 L118.322,21.546 C118.322,20.741996 118.160002,20.1510019 117.836,19.773 C117.511998,19.3949981 117.074003,19.206 116.522,19.206 C115.861997,19.206 115.313002,19.4759973 114.875,20.016 C114.436998,20.5560027 114.218,21.3179951 114.218,22.302 L114.218,27 L112.724,27 L112.724,18.144 Z M122.858,19.17 L121.346,19.17 L121.346,18.144 L121.67,18.144 C122.042002,18.144 122.332999,18.1050004 122.543,18.027 C122.753001,17.9489996 122.911999,17.8290008 123.02,17.667 C123.128001,17.5049992 123.206,17.2920013 123.254,17.028 C123.302,16.7639987 123.344,16.4400019 123.38,16.056 L123.416,15.732 L124.352,15.732 L124.352,18.144 L126.26,18.144 L126.26,19.17 L124.352,19.17 L124.352,24.678 C124.352,25.1820025 124.426999,25.5449989 124.577,25.767 C124.727001,25.9890011 125.005998,26.1 125.414,26.1 C125.738002,26.1 126.037999,26.0280007 126.314,25.884 L126.476,26.964 C126.019998,27.168001 125.516003,27.27 124.964,27.27 C124.531998,27.27 124.181001,27.2100006 123.911,27.09 C123.640999,26.9699994 123.428001,26.808001 123.272,26.604 C123.115999,26.399999 123.008,26.1540014 122.948,25.866 C122.888,25.5779986 122.858,25.2660017 122.858,24.93 L122.858,19.17 Z M129.194,22.914 C129.254,23.9340051 129.514998,24.7229972 129.977,25.281 C130.439002,25.8390028 131.083996,26.118 131.912,26.118 C132.956005,26.118 133.741997,25.6260049 134.27,24.642 L135.404,25.272 C135.055998,25.8600029 134.594003,26.3399981 134.018,26.712 C133.441997,27.0840019 132.716004,27.27 131.84,27.27 C131.143997,27.27 130.535003,27.1500012 130.013,26.91 C129.490997,26.6699988 129.056002,26.3400021 128.708,25.92 C128.359998,25.4999979 128.099001,25.0080028 127.925,24.444 C127.750999,23.8799972 127.664,23.2740032 127.664,22.626 C127.664,21.9899968 127.747999,21.3840029 127.916,20.808 C128.084001,20.2319971 128.338998,19.7280022 128.681,19.296 C129.023002,18.8639978 129.442998,18.5220013 129.941,18.27 C130.439002,18.0179987 131.023997,17.892 131.696,17.892 C132.344003,17.892 132.907998,18.0149988 133.388,18.261 C133.868002,18.5070012 134.266998,18.8369979 134.585,19.251 C134.903002,19.6650021 135.142999,20.1449973 135.305,20.691 C135.467001,21.2370027 135.548,21.8159969 135.548,22.428 C135.548,22.5600007 135.545,22.6619996 135.539,22.734 C135.533,22.8060004 135.53,22.8659998 135.53,22.914 L129.194,22.914 Z M131.678,19.026 C130.921996,19.026 130.337002,19.2959973 129.923,19.836 C129.508998,20.3760027 129.272,21.1019954 129.212,22.014 L134.018,22.014 C134.018,21.6419981 133.976,21.2790018 133.892,20.925 C133.808,20.5709982 133.670001,20.2530014 133.478,19.971 C133.285999,19.6889986 133.043001,19.4610009 132.749,19.287 C132.454999,19.1129991 132.098002,19.026 131.678,19.026 Z M137.366,18.144 L138.662,18.144 L138.824,19.908 C139.052001,19.3679973 139.414998,18.897002 139.913,18.495 C140.411002,18.092998 141.025996,17.892 141.758,17.892 C142.682005,17.892 143.362998,18.1859971 143.801,18.774 C144.239002,19.3620029 144.458,20.1839947 144.458,21.24 L144.458,27 L142.964,27 L142.964,21.546 C142.964,20.741996 142.802002,20.1510019 142.478,19.773 C142.153998,19.3949981 141.716003,19.206 141.164,19.206 C140.503997,19.206 139.955002,19.4759973 139.517,20.016 C139.078998,20.5560027 138.86,21.3179951 138.86,22.302 L138.86,27 L137.366,27 L137.366,18.144 Z M147.5,19.17 L145.988,19.17 L145.988,18.144 L146.312,18.144 C146.684002,18.144 146.974999,18.1050004 147.185,18.027 C147.395001,17.9489996 147.553999,17.8290008 147.662,17.667 C147.770001,17.5049992 147.848,17.2920013 147.896,17.028 C147.944,16.7639987 147.986,16.4400019 148.022,16.056 L148.058,15.732 L148.994,15.732 L148.994,18.144 L150.902,18.144 L150.902,19.17 L148.994,19.17 L148.994,24.678 C148.994,25.1820025 149.068999,25.5449989 149.219,25.767 C149.369001,25.9890011 149.647998,26.1 150.056,26.1 C150.380002,26.1 150.679999,26.0280007 150.956,25.884 L151.118,26.964 C150.661998,27.168001 150.158003,27.27 149.606,27.27 C149.173998,27.27 148.823001,27.2100006 148.553,27.09 C148.282999,26.9699994 148.070001,26.808001 147.914,26.604 C147.757999,26.399999 147.65,26.1540014 147.59,25.866 C147.53,25.5779986 147.5,25.2660017 147.5,24.93 L147.5,19.17 Z M152.864,24.822 C153.164002,25.2060019 153.550998,25.5239987 154.025,25.776 C154.499002,26.0280013 155.017997,26.154 155.582,26.154 C156.086003,26.154 156.523998,26.0340012 156.896,25.794 C157.268002,25.5539988 157.454,25.1940024 157.454,24.714 C157.454,24.3419981 157.331001,24.051001 157.085,23.841 C156.838999,23.6309989 156.533002,23.4540007 156.167,23.31 C155.800998,23.1659993 155.402002,23.0340006 154.97,22.914 C154.537998,22.7939994 154.139002,22.638001 153.773,22.446 C153.406998,22.253999 153.101001,22.0020016 152.855,21.69 C152.608999,21.3779984 152.486,20.9520027 152.486,20.412 C152.486,19.9679978 152.575999,19.5870016 152.756,19.269 C152.936001,18.9509984 153.172999,18.690001 153.467,18.486 C153.761001,18.281999 154.099998,18.1320005 154.484,18.036 C154.868002,17.9399995 155.269998,17.892 155.69,17.892 C156.938006,17.892 157.975996,18.2519964 158.804,18.972 L158.048,19.98 C157.783999,19.7039986 157.433002,19.4730009 156.995,19.287 C156.556998,19.1009991 156.104002,19.008 155.636,19.008 C155.431999,19.008 155.231001,19.0319998 155.033,19.08 C154.834999,19.1280002 154.661001,19.2029995 154.511,19.305 C154.360999,19.4070005 154.241,19.5359992 154.151,19.692 C154.061,19.8480008 154.016,20.0399989 154.016,20.268 C154.016,20.6160017 154.138999,20.885999 154.385,21.078 C154.631001,21.270001 154.936998,21.4349993 155.303,21.573 C155.669002,21.7110007 156.064998,21.8429994 156.491,21.969 C156.917002,22.0950006 157.312998,22.256999 157.679,22.455 C158.045002,22.653001 158.350999,22.9139984 158.597,23.238 C158.843001,23.5620016 158.966,23.9939973 158.966,24.534 C158.966,24.9900023 158.873001,25.3889983 158.687,25.731 C158.500999,26.0730017 158.255002,26.3579989 157.949,26.586 C157.642998,26.8140011 157.289002,26.9849994 156.887,27.099 C156.484998,27.2130006 156.068002,27.27 155.636,27.27 C154.147993,27.27 152.966004,26.7900048 152.09,25.83 L152.864,24.822 Z" id="H4-Regular-18-" fill="#000000"></path>
                    <g id="PanelHeaderFooter-Copy-4" transform="translate(16.000000, 61.000000)">
                        <g id="Panel-">
                            <use fill="#FFFFFF" fill-rule="evenodd" xlink:href="#path-2"></use>
                            <rect stroke="#D2D6D9" stroke-width="1" x="0.5" y="0.5" width="302" height="108"></rect>
                        </g>
                        <rect id="Header-bg-" fill="#F5F6F6" x="1" y="1" width="301" height="44"></rect>
                        <path d="M21.71,25.066 C22.0820019,25.6180028 22.5859968,26.0649983 23.222,26.407 C23.8580032,26.7490017 24.6079957,26.92 25.472,26.92 C25.880002,26.92 26.2609982,26.8660005 26.615,26.758 C26.9690018,26.6499995 27.2749987,26.494001 27.533,26.29 C27.7910013,26.085999 27.9919993,25.8370015 28.136,25.543 C28.2800007,25.2489985 28.352,24.9220018 28.352,24.562 C28.352,24.1899981 28.2650009,23.8780013 28.091,23.626 C27.9169991,23.3739987 27.6800015,23.1610009 27.38,22.987 C27.0799985,22.8129991 26.7230021,22.6600007 26.309,22.528 C25.8949979,22.3959993 25.4480024,22.2640007 24.968,22.132 C24.4279973,21.9759992 23.9270023,21.802001 23.465,21.61 C23.0029977,21.417999 22.6040017,21.1810014 22.268,20.899 C21.9319983,20.6169986 21.668001,20.2870019 21.476,19.909 C21.283999,19.5309981 21.188,19.0780026 21.188,18.55 C21.188,18.0099973 21.292999,17.5240022 21.503,17.092 C21.713001,16.6599978 22.0099981,16.2910015 22.394,15.985 C22.7780019,15.6789985 23.2309974,15.4420008 23.753,15.274 C24.2750026,15.1059992 24.8539968,15.022 25.49,15.022 C26.3660044,15.022 27.1759963,15.1689985 27.92,15.463 C28.6640037,15.7570015 29.2999974,16.1919971 29.828,16.768 L28.73,17.794 C28.3459981,17.3739979 27.8750028,17.0320013 27.317,16.768 C26.7589972,16.5039987 26.1440034,16.372 25.472,16.372 C24.7039962,16.372 24.0770024,16.5369983 23.591,16.867 C23.1049976,17.1970016 22.862,17.6979966 22.862,18.37 C22.862,18.7060017 22.9369992,18.9939988 23.087,19.234 C23.2370007,19.4740012 23.4469987,19.6839991 23.717,19.864 C23.9870013,20.0440009 24.3049982,20.2029993 24.671,20.341 C25.0370018,20.4790007 25.4419978,20.6079994 25.886,20.728 C26.5460033,20.9080009 27.1339974,21.1029989 27.65,21.313 C28.1660026,21.5230011 28.5979983,21.7719986 28.946,22.06 C29.2940017,22.3480014 29.5579991,22.6809981 29.738,23.059 C29.9180009,23.4370019 30.008,23.8779975 30.008,24.382 C30.008,24.9940031 29.8880012,25.5429976 29.648,26.029 C29.4079988,26.5150024 29.0810021,26.9229984 28.667,27.253 C28.2529979,27.5830016 27.7670028,27.8349991 27.209,28.009 C26.6509972,28.1830009 26.0600031,28.27 25.436,28.27 C24.2839942,28.27 23.312004,28.0870018 22.52,27.721 C21.727996,27.3549982 21.0920024,26.8300034 20.612,26.146 L21.71,25.066 Z M31.844,19.144 L33.356,19.144 L33.356,24.508 C33.356,25.3480042 33.5119984,25.962998 33.824,26.353 C34.1360016,26.743002 34.5739972,26.938 35.138,26.938 C35.8580036,26.938 36.418998,26.6530029 36.821,26.083 C37.223002,25.5129972 37.424,24.7540047 37.424,23.806 L37.424,19.144 L38.918,19.144 L38.918,28 L37.514,28 L37.514,26.2 C37.4059995,26.4760014 37.2740008,26.7369988 37.118,26.983 C36.9619992,27.2290012 36.7700011,27.4449991 36.542,27.631 C36.3139989,27.8170009 36.0500015,27.9639995 35.75,28.072 C35.4499985,28.1800005 35.096002,28.234 34.688,28.234 C33.7279952,28.234 33.0140023,27.9430029 32.546,27.361 C32.0779977,26.7789971 31.844,25.9540053 31.844,24.886 L31.844,19.144 Z M41.222,15.292 L42.716,15.292 L42.716,20.71 C42.9560012,20.2059975 43.3129976,19.7770018 43.787,19.423 C44.2610024,19.0689982 44.8519965,18.892 45.56,18.892 C46.0760026,18.892 46.5469979,18.9999989 46.973,19.216 C47.3990021,19.4320011 47.7619985,19.740998 48.062,20.143 C48.3620015,20.545002 48.5929992,21.0279972 48.755,21.592 C48.9170008,22.1560028 48.998,22.7859965 48.998,23.482 C48.998,24.1660034 48.9170008,24.7989971 48.755,25.381 C48.5929992,25.9630029 48.3620015,26.4639979 48.062,26.884 C47.7619985,27.3040021 47.3930022,27.6339988 46.955,27.874 C46.5169978,28.1140012 46.0220028,28.234 45.47,28.234 C44.8219968,28.234 44.2460025,28.0690017 43.742,27.739 C43.2379975,27.4089983 42.8600013,26.9380031 42.608,26.326 L42.428,28 L41.222,28 L41.222,15.292 Z M42.716,23.608 C42.716,23.8720013 42.7249999,24.108999 42.743,24.319 C42.7610001,24.529001 42.7819999,24.7059993 42.806,24.85 C42.8540002,25.1380014 42.9439993,25.4139987 43.076,25.678 C43.2080007,25.9420013 43.369999,26.172999 43.562,26.371 C43.754001,26.569001 43.9789987,26.7279994 44.237,26.848 C44.4950013,26.9680006 44.7799984,27.028 45.092,27.028 C45.500002,27.028 45.8509985,26.929001 46.145,26.731 C46.4390015,26.532999 46.681999,26.2720016 46.874,25.948 C47.066001,25.6239984 47.2069995,25.2550021 47.297,24.841 C47.3870005,24.4269979 47.432,24.0040022 47.432,23.572 C47.432,23.1279978 47.3840005,22.6990021 47.288,22.285 C47.1919995,21.8709979 47.048001,21.5050016 46.856,21.187 C46.663999,20.8689984 46.4180015,20.614001 46.118,20.422 C45.8179985,20.229999 45.464002,20.134 45.056,20.134 C44.7319984,20.134 44.4410013,20.1909994 44.183,20.305 C43.9249987,20.4190006 43.700001,20.574999 43.508,20.773 C43.315999,20.971001 43.1600006,21.2019987 43.04,21.466 C42.9199994,21.7300013 42.8360002,22.0119985 42.788,22.312 C42.7639999,22.4320006 42.7460001,22.5849991 42.734,22.771 C42.7219999,22.9570009 42.716,23.2179983 42.716,23.554 L42.716,23.608 Z M51.626,29.062 C51.9740017,29.3980017 52.3909976,29.664999 52.877,29.863 C53.3630024,30.061001 53.8819972,30.16 54.434,30.16 C54.8900023,30.16 55.2619986,30.0910007 55.55,29.953 C55.8380014,29.8149993 56.0659992,29.6260012 56.234,29.386 C56.4020008,29.1459988 56.5189997,28.8730015 56.585,28.567 C56.6510003,28.2609985 56.684,27.9340017 56.684,27.586 L56.684,25.948 C56.4559989,26.4880027 56.1140023,26.9229984 55.658,27.253 C55.2019977,27.5830016 54.6140036,27.748 53.894,27.748 C53.3779974,27.748 52.9100021,27.649001 52.49,27.451 C52.0699979,27.252999 51.7100015,26.9680019 51.41,26.596 C51.1099985,26.2239981 50.8790008,25.7680027 50.717,25.228 C50.5549992,24.6879973 50.474,24.0820034 50.474,23.41 C50.474,22.7499967 50.5549992,22.1440028 50.717,21.592 C50.8790008,21.0399972 51.1129985,20.566002 51.419,20.17 C51.7250015,19.773998 52.0969978,19.4650011 52.535,19.243 C52.9730022,19.0209989 53.4619973,18.91 54.002,18.91 C54.7100035,18.91 55.2979977,19.0869982 55.766,19.441 C56.2340023,19.7950018 56.569999,20.2479972 56.774,20.8 L57.026,19.144 L58.178,19.144 L58.178,27.55 C58.178,28.0540025 58.1180006,28.5309978 57.998,28.981 C57.8779994,29.4310022 57.6740014,29.8299983 57.386,30.178 C57.0979986,30.5260017 56.7140024,30.801999 56.234,31.006 C55.7539976,31.210001 55.1540036,31.312 54.434,31.312 C53.6539961,31.312 52.9550031,31.2010011 52.337,30.979 C51.7189969,30.7569989 51.2000021,30.4780017 50.78,30.142 L51.626,29.062 Z M56.684,23.41 C56.684,23.205999 56.681,23.0110009 56.675,22.825 C56.669,22.6389991 56.6540001,22.4980005 56.63,22.402 C56.5819998,22.1139986 56.5040005,21.8320014 56.396,21.556 C56.2879995,21.2799986 56.1410009,21.040001 55.955,20.836 C55.7689991,20.631999 55.5410014,20.4670006 55.271,20.341 C55.0009986,20.2149994 54.6860018,20.152 54.326,20.152 C53.929998,20.152 53.5880014,20.2359992 53.3,20.404 C53.0119986,20.5720008 52.7750009,20.7999986 52.589,21.088 C52.4029991,21.3760014 52.2650005,21.717998 52.175,22.114 C52.0849996,22.510002 52.04,22.9299978 52.04,23.374 C52.04,23.770002 52.0819996,24.162998 52.166,24.553 C52.2500004,24.9430019 52.3819991,25.2879985 52.562,25.588 C52.7420009,25.8880015 52.9789985,26.1309991 53.273,26.317 C53.5670015,26.5030009 53.9239979,26.596 54.344,26.596 C54.9320029,26.596 55.4059982,26.4310016 55.766,26.101 C56.1260018,25.7709983 56.3779993,25.3540025 56.522,24.85 C56.5820003,24.6819992 56.6239999,24.4720013 56.648,24.22 C56.6720001,23.9679987 56.684,23.7280011 56.684,23.5 L56.684,23.41 Z M60.482,19.144 L61.778,19.144 L61.922,21.124 C62.1740013,20.4759968 62.5759972,19.9420021 63.128,19.522 C63.6800028,19.1019979 64.3339962,18.892 65.09,18.892 L65.09,20.476 C64.9219992,20.4399998 64.736001,20.422 64.532,20.422 C64.2319985,20.422 63.9320015,20.4759995 63.632,20.584 C63.3319985,20.6920005 63.0590012,20.8659988 62.813,21.106 C62.5669988,21.3460012 62.3660008,21.6549981 62.21,22.033 C62.0539992,22.4110019 61.976,22.8699973 61.976,23.41 L61.976,28 L60.482,28 L60.482,19.144 Z M70.238,28.27 C69.5659966,28.27 68.9750025,28.1470012 68.465,27.901 C67.9549975,27.6549988 67.5290017,27.3190021 67.187,26.893 C66.8449983,26.4669979 66.5900008,25.9690028 66.422,25.399 C66.2539992,24.8289971 66.17,24.2140033 66.17,23.554 C66.17,22.8939967 66.2569991,22.2820028 66.431,21.718 C66.6050009,21.1539972 66.8629983,20.6620021 67.205,20.242 C67.5470017,19.8219979 67.9729975,19.4920012 68.483,19.252 C68.9930025,19.0119988 69.5779967,18.892 70.238,18.892 C70.8980033,18.892 71.4829974,19.0119988 71.993,19.252 C72.5030026,19.4920012 72.9319983,19.8189979 73.28,20.233 C73.6280017,20.6470021 73.8889991,21.1389972 74.063,21.709 C74.2370009,22.2790028 74.324,22.8939967 74.324,23.554 C74.324,24.2140033 74.2370009,24.8289971 74.063,25.399 C73.8889991,25.9690028 73.6280017,26.4669979 73.28,26.893 C72.9319983,27.3190021 72.5030026,27.6549988 71.993,27.901 C71.4829974,28.1470012 70.8980033,28.27 70.238,28.27 Z M70.274,27.1 C70.682002,27.1 71.0419984,27.0100009 71.354,26.83 C71.6660016,26.6499991 71.923999,26.4010016 72.128,26.083 C72.332001,25.7649984 72.4879995,25.3900022 72.596,24.958 C72.7040005,24.5259978 72.758,24.0580025 72.758,23.554 C72.758,23.0499975 72.7040005,22.5850021 72.596,22.159 C72.4879995,21.7329979 72.3260011,21.3640016 72.11,21.052 C71.8939989,20.7399984 71.6300016,20.4970009 71.318,20.323 C71.0059984,20.1489991 70.646002,20.062 70.238,20.062 C69.8179979,20.062 69.4520016,20.1489991 69.14,20.323 C68.8279984,20.4970009 68.570001,20.7399984 68.366,21.052 C68.161999,21.3640016 68.0060005,21.7329979 67.898,22.159 C67.7899995,22.5850021 67.736,23.0499975 67.736,23.554 C67.736,24.0580025 67.7899995,24.5259978 67.898,24.958 C68.0060005,25.3900022 68.164999,25.7649984 68.375,26.083 C68.5850011,26.4010016 68.8489984,26.6499991 69.167,26.83 C69.4850016,27.0100009 69.8539979,27.1 70.274,27.1 Z M76.196,19.144 L77.708,19.144 L77.708,24.508 C77.708,25.3480042 77.8639984,25.962998 78.176,26.353 C78.4880016,26.743002 78.9259972,26.938 79.49,26.938 C80.2100036,26.938 80.770998,26.6530029 81.173,26.083 C81.575002,25.5129972 81.776,24.7540047 81.776,23.806 L81.776,19.144 L83.27,19.144 L83.27,28 L81.866,28 L81.866,26.2 C81.7579995,26.4760014 81.6260008,26.7369988 81.47,26.983 C81.3139992,27.2290012 81.1220011,27.4449991 80.894,27.631 C80.6659989,27.8170009 80.4020015,27.9639995 80.102,28.072 C79.8019985,28.1800005 79.448002,28.234 79.04,28.234 C78.0799952,28.234 77.3660023,27.9430029 76.898,27.361 C76.4299977,26.7789971 76.196,25.9540053 76.196,24.886 L76.196,19.144 Z M85.574,19.144 L87.068,19.144 L87.068,20.854 C87.1760005,20.6019987 87.3139992,20.3560012 87.482,20.116 C87.6500008,19.8759988 87.8509988,19.6660009 88.085,19.486 C88.3190012,19.3059991 88.5919984,19.1620005 88.904,19.054 C89.2160016,18.9459995 89.569998,18.892 89.966,18.892 C90.5420029,18.892 91.0429979,19.0119988 91.469,19.252 C91.8950021,19.4920012 92.2459986,19.8219979 92.522,20.242 C92.7980014,20.6620021 93.0049993,21.1509972 93.143,21.709 C93.2810007,22.2670028 93.35,22.8699968 93.35,23.518 C93.35,24.2860038 93.2600009,24.9639971 93.08,25.552 C92.8999991,26.1400029 92.6480016,26.631998 92.324,27.028 C91.9999984,27.424002 91.6220022,27.723999 91.19,27.928 C90.7579978,28.132001 90.2900025,28.234 89.786,28.234 C89.1259967,28.234 88.5590024,28.0720016 88.085,27.748 C87.6109976,27.4239984 87.272001,27.0220024 87.068,26.542 L87.068,31.114 L85.574,31.114 L85.574,19.144 Z M87.068,23.626 C87.068,23.8780013 87.0769999,24.108999 87.095,24.319 C87.1130001,24.529001 87.1339999,24.7059993 87.158,24.85 C87.2060002,25.1380014 87.2959993,25.4139987 87.428,25.678 C87.5600007,25.9420013 87.721999,26.172999 87.914,26.371 C88.106001,26.569001 88.3309987,26.7279994 88.589,26.848 C88.8470013,26.9680006 89.1319984,27.028 89.444,27.028 C89.852002,27.028 90.2029985,26.932001 90.497,26.74 C90.7910015,26.547999 91.033999,26.2900016 91.226,25.966 C91.418001,25.6419984 91.5589995,25.2730021 91.649,24.859 C91.7390004,24.4449979 91.784,24.0160022 91.784,23.572 C91.784,23.1279978 91.7420004,22.6990021 91.658,22.285 C91.5739996,21.8709979 91.4390009,21.5050016 91.253,21.187 C91.0669991,20.8689984 90.8240015,20.614001 90.524,20.422 C90.2239985,20.229999 89.8640021,20.134 89.444,20.134 C89.1199984,20.134 88.8230013,20.1939994 88.553,20.314 C88.2829986,20.4340006 88.052001,20.595999 87.86,20.8 C87.667999,21.004001 87.5090006,21.2379987 87.383,21.502 C87.2569994,21.7660013 87.1760002,22.0419986 87.14,22.33 C87.1159999,22.4500006 87.0980001,22.614999 87.086,22.825 C87.0739999,23.035001 87.068,23.2779986 87.068,23.554 L87.068,23.626 Z M100.442,26.83 L102.71,26.83 L102.71,17.92 C102.421999,18.1960014 102.089002,18.4059993 101.711,18.55 C101.332998,18.6940007 100.874003,18.7779999 100.334,18.802 L100.334,17.65 C101.054004,17.65 101.629998,17.5090014 102.062,17.227 C102.494002,16.9449986 102.829999,16.5100029 103.07,15.922 L104.204,15.922 L104.204,26.83 L106.436,26.83 L106.436,28 L100.442,28 L100.442,26.83 Z" id="H4-Regular-18-" fill="#000000"></path>
                        <rect id="Rectangle-2-Copy" fill="#AAB1B6" x="21" y="76" width="177" height="6" rx="3"></rect>
                        <rect id="Rectangle-2-Copy-4" fill="#4C5358" x="21" y="58" width="57" height="8" rx="4"></rect>
                    </g>
                    <g id="PanelHeaderFooter-Copy-5" transform="translate(16.000000, 186.000000)">
                        <g id="Panel-">
                            <use fill="#FFFFFF" fill-rule="evenodd" xlink:href="#path-3"></use>
                            <rect stroke="#D2D6D9" stroke-width="1" x="0.5" y="0.5" width="302" height="108"></rect>
                        </g>
                        <rect id="Header-bg-" fill="#F5F6F6" x="1" y="1" width="301" height="44"></rect>
                        <path d="M21.71,25.066 C22.0820019,25.6180028 22.5859968,26.0649983 23.222,26.407 C23.8580032,26.7490017 24.6079957,26.92 25.472,26.92 C25.880002,26.92 26.2609982,26.8660005 26.615,26.758 C26.9690018,26.6499995 27.2749987,26.494001 27.533,26.29 C27.7910013,26.085999 27.9919993,25.8370015 28.136,25.543 C28.2800007,25.2489985 28.352,24.9220018 28.352,24.562 C28.352,24.1899981 28.2650009,23.8780013 28.091,23.626 C27.9169991,23.3739987 27.6800015,23.1610009 27.38,22.987 C27.0799985,22.8129991 26.7230021,22.6600007 26.309,22.528 C25.8949979,22.3959993 25.4480024,22.2640007 24.968,22.132 C24.4279973,21.9759992 23.9270023,21.802001 23.465,21.61 C23.0029977,21.417999 22.6040017,21.1810014 22.268,20.899 C21.9319983,20.6169986 21.668001,20.2870019 21.476,19.909 C21.283999,19.5309981 21.188,19.0780026 21.188,18.55 C21.188,18.0099973 21.292999,17.5240022 21.503,17.092 C21.713001,16.6599978 22.0099981,16.2910015 22.394,15.985 C22.7780019,15.6789985 23.2309974,15.4420008 23.753,15.274 C24.2750026,15.1059992 24.8539968,15.022 25.49,15.022 C26.3660044,15.022 27.1759963,15.1689985 27.92,15.463 C28.6640037,15.7570015 29.2999974,16.1919971 29.828,16.768 L28.73,17.794 C28.3459981,17.3739979 27.8750028,17.0320013 27.317,16.768 C26.7589972,16.5039987 26.1440034,16.372 25.472,16.372 C24.7039962,16.372 24.0770024,16.5369983 23.591,16.867 C23.1049976,17.1970016 22.862,17.6979966 22.862,18.37 C22.862,18.7060017 22.9369992,18.9939988 23.087,19.234 C23.2370007,19.4740012 23.4469987,19.6839991 23.717,19.864 C23.9870013,20.0440009 24.3049982,20.2029993 24.671,20.341 C25.0370018,20.4790007 25.4419978,20.6079994 25.886,20.728 C26.5460033,20.9080009 27.1339974,21.1029989 27.65,21.313 C28.1660026,21.5230011 28.5979983,21.7719986 28.946,22.06 C29.2940017,22.3480014 29.5579991,22.6809981 29.738,23.059 C29.9180009,23.4370019 30.008,23.8779975 30.008,24.382 C30.008,24.9940031 29.8880012,25.5429976 29.648,26.029 C29.4079988,26.5150024 29.0810021,26.9229984 28.667,27.253 C28.2529979,27.5830016 27.7670028,27.8349991 27.209,28.009 C26.6509972,28.1830009 26.0600031,28.27 25.436,28.27 C24.2839942,28.27 23.312004,28.0870018 22.52,27.721 C21.727996,27.3549982 21.0920024,26.8300034 20.612,26.146 L21.71,25.066 Z M31.844,19.144 L33.356,19.144 L33.356,24.508 C33.356,25.3480042 33.5119984,25.962998 33.824,26.353 C34.1360016,26.743002 34.5739972,26.938 35.138,26.938 C35.8580036,26.938 36.418998,26.6530029 36.821,26.083 C37.223002,25.5129972 37.424,24.7540047 37.424,23.806 L37.424,19.144 L38.918,19.144 L38.918,28 L37.514,28 L37.514,26.2 C37.4059995,26.4760014 37.2740008,26.7369988 37.118,26.983 C36.9619992,27.2290012 36.7700011,27.4449991 36.542,27.631 C36.3139989,27.8170009 36.0500015,27.9639995 35.75,28.072 C35.4499985,28.1800005 35.096002,28.234 34.688,28.234 C33.7279952,28.234 33.0140023,27.9430029 32.546,27.361 C32.0779977,26.7789971 31.844,25.9540053 31.844,24.886 L31.844,19.144 Z M41.222,15.292 L42.716,15.292 L42.716,20.71 C42.9560012,20.2059975 43.3129976,19.7770018 43.787,19.423 C44.2610024,19.0689982 44.8519965,18.892 45.56,18.892 C46.0760026,18.892 46.5469979,18.9999989 46.973,19.216 C47.3990021,19.4320011 47.7619985,19.740998 48.062,20.143 C48.3620015,20.545002 48.5929992,21.0279972 48.755,21.592 C48.9170008,22.1560028 48.998,22.7859965 48.998,23.482 C48.998,24.1660034 48.9170008,24.7989971 48.755,25.381 C48.5929992,25.9630029 48.3620015,26.4639979 48.062,26.884 C47.7619985,27.3040021 47.3930022,27.6339988 46.955,27.874 C46.5169978,28.1140012 46.0220028,28.234 45.47,28.234 C44.8219968,28.234 44.2460025,28.0690017 43.742,27.739 C43.2379975,27.4089983 42.8600013,26.9380031 42.608,26.326 L42.428,28 L41.222,28 L41.222,15.292 Z M42.716,23.608 C42.716,23.8720013 42.7249999,24.108999 42.743,24.319 C42.7610001,24.529001 42.7819999,24.7059993 42.806,24.85 C42.8540002,25.1380014 42.9439993,25.4139987 43.076,25.678 C43.2080007,25.9420013 43.369999,26.172999 43.562,26.371 C43.754001,26.569001 43.9789987,26.7279994 44.237,26.848 C44.4950013,26.9680006 44.7799984,27.028 45.092,27.028 C45.500002,27.028 45.8509985,26.929001 46.145,26.731 C46.4390015,26.532999 46.681999,26.2720016 46.874,25.948 C47.066001,25.6239984 47.2069995,25.2550021 47.297,24.841 C47.3870005,24.4269979 47.432,24.0040022 47.432,23.572 C47.432,23.1279978 47.3840005,22.6990021 47.288,22.285 C47.1919995,21.8709979 47.048001,21.5050016 46.856,21.187 C46.663999,20.8689984 46.4180015,20.614001 46.118,20.422 C45.8179985,20.229999 45.464002,20.134 45.056,20.134 C44.7319984,20.134 44.4410013,20.1909994 44.183,20.305 C43.9249987,20.4190006 43.700001,20.574999 43.508,20.773 C43.315999,20.971001 43.1600006,21.2019987 43.04,21.466 C42.9199994,21.7300013 42.8360002,22.0119985 42.788,22.312 C42.7639999,22.4320006 42.7460001,22.5849991 42.734,22.771 C42.7219999,22.9570009 42.716,23.2179983 42.716,23.554 L42.716,23.608 Z M51.626,29.062 C51.9740017,29.3980017 52.3909976,29.664999 52.877,29.863 C53.3630024,30.061001 53.8819972,30.16 54.434,30.16 C54.8900023,30.16 55.2619986,30.0910007 55.55,29.953 C55.8380014,29.8149993 56.0659992,29.6260012 56.234,29.386 C56.4020008,29.1459988 56.5189997,28.8730015 56.585,28.567 C56.6510003,28.2609985 56.684,27.9340017 56.684,27.586 L56.684,25.948 C56.4559989,26.4880027 56.1140023,26.9229984 55.658,27.253 C55.2019977,27.5830016 54.6140036,27.748 53.894,27.748 C53.3779974,27.748 52.9100021,27.649001 52.49,27.451 C52.0699979,27.252999 51.7100015,26.9680019 51.41,26.596 C51.1099985,26.2239981 50.8790008,25.7680027 50.717,25.228 C50.5549992,24.6879973 50.474,24.0820034 50.474,23.41 C50.474,22.7499967 50.5549992,22.1440028 50.717,21.592 C50.8790008,21.0399972 51.1129985,20.566002 51.419,20.17 C51.7250015,19.773998 52.0969978,19.4650011 52.535,19.243 C52.9730022,19.0209989 53.4619973,18.91 54.002,18.91 C54.7100035,18.91 55.2979977,19.0869982 55.766,19.441 C56.2340023,19.7950018 56.569999,20.2479972 56.774,20.8 L57.026,19.144 L58.178,19.144 L58.178,27.55 C58.178,28.0540025 58.1180006,28.5309978 57.998,28.981 C57.8779994,29.4310022 57.6740014,29.8299983 57.386,30.178 C57.0979986,30.5260017 56.7140024,30.801999 56.234,31.006 C55.7539976,31.210001 55.1540036,31.312 54.434,31.312 C53.6539961,31.312 52.9550031,31.2010011 52.337,30.979 C51.7189969,30.7569989 51.2000021,30.4780017 50.78,30.142 L51.626,29.062 Z M56.684,23.41 C56.684,23.205999 56.681,23.0110009 56.675,22.825 C56.669,22.6389991 56.6540001,22.4980005 56.63,22.402 C56.5819998,22.1139986 56.5040005,21.8320014 56.396,21.556 C56.2879995,21.2799986 56.1410009,21.040001 55.955,20.836 C55.7689991,20.631999 55.5410014,20.4670006 55.271,20.341 C55.0009986,20.2149994 54.6860018,20.152 54.326,20.152 C53.929998,20.152 53.5880014,20.2359992 53.3,20.404 C53.0119986,20.5720008 52.7750009,20.7999986 52.589,21.088 C52.4029991,21.3760014 52.2650005,21.717998 52.175,22.114 C52.0849996,22.510002 52.04,22.9299978 52.04,23.374 C52.04,23.770002 52.0819996,24.162998 52.166,24.553 C52.2500004,24.9430019 52.3819991,25.2879985 52.562,25.588 C52.7420009,25.8880015 52.9789985,26.1309991 53.273,26.317 C53.5670015,26.5030009 53.9239979,26.596 54.344,26.596 C54.9320029,26.596 55.4059982,26.4310016 55.766,26.101 C56.1260018,25.7709983 56.3779993,25.3540025 56.522,24.85 C56.5820003,24.6819992 56.6239999,24.4720013 56.648,24.22 C56.6720001,23.9679987 56.684,23.7280011 56.684,23.5 L56.684,23.41 Z M60.482,19.144 L61.778,19.144 L61.922,21.124 C62.1740013,20.4759968 62.5759972,19.9420021 63.128,19.522 C63.6800028,19.1019979 64.3339962,18.892 65.09,18.892 L65.09,20.476 C64.9219992,20.4399998 64.736001,20.422 64.532,20.422 C64.2319985,20.422 63.9320015,20.4759995 63.632,20.584 C63.3319985,20.6920005 63.0590012,20.8659988 62.813,21.106 C62.5669988,21.3460012 62.3660008,21.6549981 62.21,22.033 C62.0539992,22.4110019 61.976,22.8699973 61.976,23.41 L61.976,28 L60.482,28 L60.482,19.144 Z M70.238,28.27 C69.5659966,28.27 68.9750025,28.1470012 68.465,27.901 C67.9549975,27.6549988 67.5290017,27.3190021 67.187,26.893 C66.8449983,26.4669979 66.5900008,25.9690028 66.422,25.399 C66.2539992,24.8289971 66.17,24.2140033 66.17,23.554 C66.17,22.8939967 66.2569991,22.2820028 66.431,21.718 C66.6050009,21.1539972 66.8629983,20.6620021 67.205,20.242 C67.5470017,19.8219979 67.9729975,19.4920012 68.483,19.252 C68.9930025,19.0119988 69.5779967,18.892 70.238,18.892 C70.8980033,18.892 71.4829974,19.0119988 71.993,19.252 C72.5030026,19.4920012 72.9319983,19.8189979 73.28,20.233 C73.6280017,20.6470021 73.8889991,21.1389972 74.063,21.709 C74.2370009,22.2790028 74.324,22.8939967 74.324,23.554 C74.324,24.2140033 74.2370009,24.8289971 74.063,25.399 C73.8889991,25.9690028 73.6280017,26.4669979 73.28,26.893 C72.9319983,27.3190021 72.5030026,27.6549988 71.993,27.901 C71.4829974,28.1470012 70.8980033,28.27 70.238,28.27 Z M70.274,27.1 C70.682002,27.1 71.0419984,27.0100009 71.354,26.83 C71.6660016,26.6499991 71.923999,26.4010016 72.128,26.083 C72.332001,25.7649984 72.4879995,25.3900022 72.596,24.958 C72.7040005,24.5259978 72.758,24.0580025 72.758,23.554 C72.758,23.0499975 72.7040005,22.5850021 72.596,22.159 C72.4879995,21.7329979 72.3260011,21.3640016 72.11,21.052 C71.8939989,20.7399984 71.6300016,20.4970009 71.318,20.323 C71.0059984,20.1489991 70.646002,20.062 70.238,20.062 C69.8179979,20.062 69.4520016,20.1489991 69.14,20.323 C68.8279984,20.4970009 68.570001,20.7399984 68.366,21.052 C68.161999,21.3640016 68.0060005,21.7329979 67.898,22.159 C67.7899995,22.5850021 67.736,23.0499975 67.736,23.554 C67.736,24.0580025 67.7899995,24.5259978 67.898,24.958 C68.0060005,25.3900022 68.164999,25.7649984 68.375,26.083 C68.5850011,26.4010016 68.8489984,26.6499991 69.167,26.83 C69.4850016,27.0100009 69.8539979,27.1 70.274,27.1 Z M76.196,19.144 L77.708,19.144 L77.708,24.508 C77.708,25.3480042 77.8639984,25.962998 78.176,26.353 C78.4880016,26.743002 78.9259972,26.938 79.49,26.938 C80.2100036,26.938 80.770998,26.6530029 81.173,26.083 C81.575002,25.5129972 81.776,24.7540047 81.776,23.806 L81.776,19.144 L83.27,19.144 L83.27,28 L81.866,28 L81.866,26.2 C81.7579995,26.4760014 81.6260008,26.7369988 81.47,26.983 C81.3139992,27.2290012 81.1220011,27.4449991 80.894,27.631 C80.6659989,27.8170009 80.4020015,27.9639995 80.102,28.072 C79.8019985,28.1800005 79.448002,28.234 79.04,28.234 C78.0799952,28.234 77.3660023,27.9430029 76.898,27.361 C76.4299977,26.7789971 76.196,25.9540053 76.196,24.886 L76.196,19.144 Z M85.574,19.144 L87.068,19.144 L87.068,20.854 C87.1760005,20.6019987 87.3139992,20.3560012 87.482,20.116 C87.6500008,19.8759988 87.8509988,19.6660009 88.085,19.486 C88.3190012,19.3059991 88.5919984,19.1620005 88.904,19.054 C89.2160016,18.9459995 89.569998,18.892 89.966,18.892 C90.5420029,18.892 91.0429979,19.0119988 91.469,19.252 C91.8950021,19.4920012 92.2459986,19.8219979 92.522,20.242 C92.7980014,20.6620021 93.0049993,21.1509972 93.143,21.709 C93.2810007,22.2670028 93.35,22.8699968 93.35,23.518 C93.35,24.2860038 93.2600009,24.9639971 93.08,25.552 C92.8999991,26.1400029 92.6480016,26.631998 92.324,27.028 C91.9999984,27.424002 91.6220022,27.723999 91.19,27.928 C90.7579978,28.132001 90.2900025,28.234 89.786,28.234 C89.1259967,28.234 88.5590024,28.0720016 88.085,27.748 C87.6109976,27.4239984 87.272001,27.0220024 87.068,26.542 L87.068,31.114 L85.574,31.114 L85.574,19.144 Z M87.068,23.626 C87.068,23.8780013 87.0769999,24.108999 87.095,24.319 C87.1130001,24.529001 87.1339999,24.7059993 87.158,24.85 C87.2060002,25.1380014 87.2959993,25.4139987 87.428,25.678 C87.5600007,25.9420013 87.721999,26.172999 87.914,26.371 C88.106001,26.569001 88.3309987,26.7279994 88.589,26.848 C88.8470013,26.9680006 89.1319984,27.028 89.444,27.028 C89.852002,27.028 90.2029985,26.932001 90.497,26.74 C90.7910015,26.547999 91.033999,26.2900016 91.226,25.966 C91.418001,25.6419984 91.5589995,25.2730021 91.649,24.859 C91.7390004,24.4449979 91.784,24.0160022 91.784,23.572 C91.784,23.1279978 91.7420004,22.6990021 91.658,22.285 C91.5739996,21.8709979 91.4390009,21.5050016 91.253,21.187 C91.0669991,20.8689984 90.8240015,20.614001 90.524,20.422 C90.2239985,20.229999 89.8640021,20.134 89.444,20.134 C89.1199984,20.134 88.8230013,20.1939994 88.553,20.314 C88.2829986,20.4340006 88.052001,20.595999 87.86,20.8 C87.667999,21.004001 87.5090006,21.2379987 87.383,21.502 C87.2569994,21.7660013 87.1760002,22.0419986 87.14,22.33 C87.1159999,22.4500006 87.0980001,22.614999 87.086,22.825 C87.0739999,23.035001 87.068,23.2779986 87.068,23.554 L87.068,23.626 Z M99.236,26.902 C99.5960018,26.6619988 100.000998,26.3740017 100.451,26.038 C100.901002,25.7019983 101.353998,25.333002 101.81,24.931 C102.266002,24.528998 102.706998,24.1030022 103.133,23.653 C103.559002,23.2029977 103.936998,22.7350024 104.267,22.249 C104.597002,21.7629976 104.863999,21.2680025 105.068,20.764 C105.272001,20.2599975 105.374,19.7560025 105.374,19.252 C105.374,18.5439965 105.191002,17.9590023 104.825,17.497 C104.458998,17.0349977 103.904004,16.804 103.16,16.804 C102.487997,16.804 101.951002,17.0139979 101.549,17.434 C101.146998,17.8540021 100.880001,18.3759969 100.748,19 L99.326,18.658 C99.6380016,17.6859951 100.117997,16.9480025 100.766,16.444 C101.414003,15.9399975 102.265995,15.688 103.322,15.688 C103.826003,15.688 104.302998,15.7599993 104.753,15.904 C105.203002,16.0480007 105.595998,16.2639986 105.932,16.552 C106.268002,16.8400014 106.531999,17.2029978 106.724,17.641 C106.916001,18.0790022 107.012,18.5919971 107.012,19.18 C107.012,19.972004 106.817002,20.7369963 106.427,21.475 C106.036998,22.2130037 105.554003,22.9089967 104.978,23.563 C104.401997,24.2170033 103.778003,24.8169973 103.106,25.363 C102.433997,25.9090027 101.816003,26.3739981 101.252,26.758 L107.336,26.758 L107.336,28 L99.236,28 L99.236,26.902 Z" id="H4-Regular-18-" fill="#000000"></path>
                        <rect id="Rectangle-2-Copy-12" fill="#AAB1B6" x="21" y="84" width="177" height="6" rx="3"></rect>
                        <rect id="Rectangle-2-Copy-13" fill="#4C5358" x="21" y="66" width="57" height="8" rx="4"></rect>
                    </g>
                </g>
            </g>
        </g>
    </g>
</svg>