<?xml version="1.0" encoding="UTF-8"?>
<svg width="374px" height="292px" viewBox="0 0 374 292" version="1.1" xmlns="http://www.w3.org/2000/svg" xmlns:xlink="http://www.w3.org/1999/xlink">
    <!-- Generator: Sketch 47 (45396) - http://www.bohemiancoding.com/sketch -->
    <title>GroupingInfo</title>
    <desc>Created with Sketch.</desc>
    <defs>
        <rect id="path-1" x="0" y="0" width="374" height="292"></rect>
        <path d="M48.0550901,68.9298148 C59.6635375,68.9298148 69.0740425,59.539512 69.0740425,47.9559852 C69.0740425,36.3724583 59.6635375,26.9821555 48.0550901,26.9821555 C36.4466427,26.9821555 27.0361378,36.3724583 27.0361378,47.9559852 C27.0361378,59.539512 36.4466427,68.9298148 48.0550901,68.9298148 Z M47.9733043,95.2083095 C74.1713568,95.2083095 95.4090723,74.0161865 95.4090723,47.8743749 C95.4090723,21.7325634 74.1713568,0.540440314 47.9733043,0.540440314 C21.7752518,0.540440314 0.537536344,21.7325634 0.537536344,47.8743749 C0.537536344,74.0161865 21.7752518,95.2083095 47.9733043,95.2083095 Z" id="path-2"></path>
    </defs>
    <g id="Page-1" stroke="none" stroke-width="1" fill="none" fill-rule="evenodd">
        <g id="Buttons-Usage-extra-large-1200" transform="translate(-323.000000, -1691.000000)">
            <g id="GroupingInfo" transform="translate(323.000000, 1691.000000)">
                <g id="PanelHeaderFooter">
                    <g id="Panel-">
                        <use fill="#FFFFFF" fill-rule="evenodd" xlink:href="#path-1"></use>
                        <rect stroke="#D2D6D9" stroke-width="1" x="0.5" y="0.5" width="373" height="291"></rect>
                    </g>
                    <rect id="Header-bg-" fill="#F5F6F6" x="1" y="1" width="372" height="44"></rect>
                    <path d="M21.158,15.552 L17.396,15.552 L17.396,14.292 L26.522,14.292 L26.522,15.552 L22.778,15.552 L22.778,27 L21.158,27 L21.158,15.552 Z M28.07,14.706 L29.564,14.706 L29.564,16.2 L28.07,16.2 L28.07,14.706 Z M28.07,18.144 L29.564,18.144 L29.564,27 L28.07,27 L28.07,18.144 Z M31.868,18.144 L33.164,18.144 L33.326,19.872 C33.5420011,19.2599969 33.8779977,18.7770018 34.334,18.423 C34.7900023,18.0689982 35.3479967,17.892 36.008,17.892 C36.7040035,17.892 37.249998,18.089998 37.646,18.486 C38.042002,18.882002 38.2939995,19.3619972 38.402,19.926 C38.5100005,19.6499986 38.6449992,19.3890012 38.807,19.143 C38.9690008,18.8969988 39.1639989,18.6810009 39.392,18.495 C39.6200011,18.3089991 39.8839985,18.1620005 40.184,18.054 C40.4840015,17.9459995 40.8259981,17.892 41.21,17.892 C41.7140025,17.892 42.1309983,17.9789991 42.461,18.153 C42.7910017,18.3270009 43.054999,18.5639985 43.253,18.864 C43.451001,19.1640015 43.5919996,19.514998 43.676,19.917 C43.7600004,20.319002 43.802,20.7419978 43.802,21.186 L43.802,27 L42.308,27 L42.308,21.564 C42.308,20.771996 42.1670014,20.1810019 41.885,19.791 C41.6029986,19.400998 41.1920027,19.206 40.652,19.206 C40.0639971,19.206 39.572002,19.4669974 39.176,19.989 C38.779998,20.5110026 38.582,21.2579951 38.582,22.23 L38.582,27 L37.088,27 L37.088,21.636 C37.088,20.8079959 36.9440014,20.196002 36.656,19.8 C36.3679986,19.403998 35.9660026,19.206 35.45,19.206 C34.8739971,19.206 34.382002,19.4729973 33.974,20.007 C33.565998,20.5410027 33.362,21.311995 33.362,22.32 L33.362,27 L31.868,27 L31.868,18.144 Z M47.204,22.914 C47.2640003,23.9340051 47.5249977,24.7229972 47.987,25.281 C48.4490023,25.8390028 49.0939959,26.118 49.922,26.118 C50.9660052,26.118 51.7519974,25.6260049 52.28,24.642 L53.414,25.272 C53.0659983,25.8600029 52.6040029,26.3399981 52.028,26.712 C51.4519971,27.0840019 50.7260044,27.27 49.85,27.27 C49.1539965,27.27 48.5450026,27.1500012 48.023,26.91 C47.5009974,26.6699988 47.0660017,26.3400021 46.718,25.92 C46.3699983,25.4999979 46.1090009,25.0080028 45.935,24.444 C45.7609991,23.8799972 45.674,23.2740032 45.674,22.626 C45.674,21.9899968 45.7579992,21.3840029 45.926,20.808 C46.0940008,20.2319971 46.3489983,19.7280022 46.691,19.296 C47.0330017,18.8639978 47.4529975,18.5220013 47.951,18.27 C48.4490025,18.0179987 49.0339966,17.892 49.706,17.892 C50.3540032,17.892 50.9179976,18.0149988 51.398,18.261 C51.8780024,18.5070012 52.2769984,18.8369979 52.595,19.251 C52.9130016,19.6650021 53.1529992,20.1449973 53.315,20.691 C53.4770008,21.2370027 53.558,21.8159969 53.558,22.428 C53.558,22.5600007 53.555,22.6619996 53.549,22.734 C53.543,22.8060004 53.54,22.8659998 53.54,22.914 L47.204,22.914 Z M49.688,19.026 C48.9319962,19.026 48.3470021,19.2959973 47.933,19.836 C47.5189979,20.3760027 47.2820003,21.1019954 47.222,22.014 L52.028,22.014 C52.028,21.6419981 51.9860004,21.2790018 51.902,20.925 C51.8179996,20.5709982 51.680001,20.2530014 51.488,19.971 C51.295999,19.6889986 51.0530015,19.4610009 50.759,19.287 C50.4649985,19.1129991 50.1080021,19.026 49.688,19.026 Z M55.538,24.822 C55.8380015,25.2060019 56.2249976,25.5239987 56.699,25.776 C57.1730024,26.0280013 57.6919972,26.154 58.256,26.154 C58.7600025,26.154 59.1979981,26.0340012 59.57,25.794 C59.9420019,25.5539988 60.128,25.1940024 60.128,24.714 C60.128,24.3419981 60.0050012,24.051001 59.759,23.841 C59.5129988,23.6309989 59.2070018,23.4540007 58.841,23.31 C58.4749982,23.1659993 58.0760022,23.0340006 57.644,22.914 C57.2119978,22.7939994 56.8130018,22.638001 56.447,22.446 C56.0809982,22.253999 55.7750012,22.0020016 55.529,21.69 C55.2829988,21.3779984 55.16,20.9520027 55.16,20.412 C55.16,19.9679978 55.2499991,19.5870016 55.43,19.269 C55.6100009,18.9509984 55.8469985,18.690001 56.141,18.486 C56.4350015,18.281999 56.7739981,18.1320005 57.158,18.036 C57.5420019,17.9399995 57.9439979,17.892 58.364,17.892 C59.6120062,17.892 60.6499959,18.2519964 61.478,18.972 L60.722,19.98 C60.4579987,19.7039986 60.1070022,19.4730009 59.669,19.287 C59.2309978,19.1009991 58.7780023,19.008 58.31,19.008 C58.105999,19.008 57.905001,19.0319998 57.707,19.08 C57.508999,19.1280002 57.3350007,19.2029995 57.185,19.305 C57.0349992,19.4070005 56.9150004,19.5359992 56.825,19.692 C56.7349995,19.8480008 56.69,20.0399989 56.69,20.268 C56.69,20.6160017 56.8129988,20.885999 57.059,21.078 C57.3050012,21.270001 57.6109982,21.4349993 57.977,21.573 C58.3430018,21.7110007 58.7389979,21.8429994 59.165,21.969 C59.5910021,22.0950006 59.9869982,22.256999 60.353,22.455 C60.7190018,22.653001 61.0249988,22.9139984 61.271,23.238 C61.5170012,23.5620016 61.64,23.9939973 61.64,24.534 C61.64,24.9900023 61.5470009,25.3889983 61.361,25.731 C61.1749991,26.0730017 60.9290015,26.3579989 60.623,26.586 C60.3169985,26.8140011 59.963002,26.9849994 59.561,27.099 C59.158998,27.2130006 58.7420022,27.27 58.31,27.27 C56.8219926,27.27 55.6400044,26.7900048 54.764,25.83 L55.538,24.822 Z M63.386,14.292 L64.88,14.292 L64.88,19.89 C64.9880005,19.6259987 65.1259992,19.3740012 65.294,19.134 C65.4620008,18.8939988 65.6659988,18.6810009 65.906,18.495 C66.1460012,18.3089991 66.4219984,18.1620005 66.734,18.054 C67.0460016,17.9459995 67.3939981,17.892 67.778,17.892 C68.7020046,17.892 69.3829978,18.194997 69.821,18.801 C70.2590022,19.407003 70.478,20.2259948 70.478,21.258 L70.478,27 L68.984,27 L68.984,21.492 C68.984,20.7359962 68.8280016,20.1690019 68.516,19.791 C68.2039984,19.4129981 67.7600029,19.224 67.184,19.224 C66.8479983,19.224 66.5390014,19.2959993 66.257,19.44 C65.9749986,19.5840007 65.732001,19.7879987 65.528,20.052 C65.323999,20.3160013 65.1650006,20.6339981 65.051,21.006 C64.9369994,21.3780019 64.88,21.7859978 64.88,22.23 L64.88,27 L63.386,27 L63.386,14.292 Z M73.88,22.914 C73.9400003,23.9340051 74.2009977,24.7229972 74.663,25.281 C75.1250023,25.8390028 75.7699959,26.118 76.598,26.118 C77.6420052,26.118 78.4279974,25.6260049 78.956,24.642 L80.09,25.272 C79.7419983,25.8600029 79.2800029,26.3399981 78.704,26.712 C78.1279971,27.0840019 77.4020044,27.27 76.526,27.27 C75.8299965,27.27 75.2210026,27.1500012 74.699,26.91 C74.1769974,26.6699988 73.7420017,26.3400021 73.394,25.92 C73.0459983,25.4999979 72.7850009,25.0080028 72.611,24.444 C72.4369991,23.8799972 72.35,23.2740032 72.35,22.626 C72.35,21.9899968 72.4339992,21.3840029 72.602,20.808 C72.7700008,20.2319971 73.0249983,19.7280022 73.367,19.296 C73.7090017,18.8639978 74.1289975,18.5220013 74.627,18.27 C75.1250025,18.0179987 75.7099966,17.892 76.382,17.892 C77.0300032,17.892 77.5939976,18.0149988 78.074,18.261 C78.5540024,18.5070012 78.9529984,18.8369979 79.271,19.251 C79.5890016,19.6650021 79.8289992,20.1449973 79.991,20.691 C80.1530008,21.2370027 80.234,21.8159969 80.234,22.428 C80.234,22.5600007 80.231,22.6619996 80.225,22.734 C80.219,22.8060004 80.216,22.8659998 80.216,22.914 L73.88,22.914 Z M76.364,19.026 C75.6079962,19.026 75.0230021,19.2959973 74.609,19.836 C74.1949979,20.3760027 73.9580003,21.1019954 73.898,22.014 L78.704,22.014 C78.704,21.6419981 78.6620004,21.2790018 78.578,20.925 C78.4939996,20.5709982 78.356001,20.2530014 78.164,19.971 C77.971999,19.6889986 77.7290015,19.4610009 77.435,19.287 C77.1409985,19.1129991 76.7840021,19.026 76.364,19.026 Z M83.186,22.914 C83.2460003,23.9340051 83.5069977,24.7229972 83.969,25.281 C84.4310023,25.8390028 85.0759959,26.118 85.904,26.118 C86.9480052,26.118 87.7339974,25.6260049 88.262,24.642 L89.396,25.272 C89.0479983,25.8600029 88.5860029,26.3399981 88.01,26.712 C87.4339971,27.0840019 86.7080044,27.27 85.832,27.27 C85.1359965,27.27 84.5270026,27.1500012 84.005,26.91 C83.4829974,26.6699988 83.0480017,26.3400021 82.7,25.92 C82.3519983,25.4999979 82.0910009,25.0080028 81.917,24.444 C81.7429991,23.8799972 81.656,23.2740032 81.656,22.626 C81.656,21.9899968 81.7399992,21.3840029 81.908,20.808 C82.0760008,20.2319971 82.3309983,19.7280022 82.673,19.296 C83.0150017,18.8639978 83.4349975,18.5220013 83.933,18.27 C84.4310025,18.0179987 85.0159966,17.892 85.688,17.892 C86.3360032,17.892 86.8999976,18.0149988 87.38,18.261 C87.8600024,18.5070012 88.2589984,18.8369979 88.577,19.251 C88.8950016,19.6650021 89.1349992,20.1449973 89.297,20.691 C89.4590008,21.2370027 89.54,21.8159969 89.54,22.428 C89.54,22.5600007 89.537,22.6619996 89.531,22.734 C89.525,22.8060004 89.522,22.8659998 89.522,22.914 L83.186,22.914 Z M85.67,19.026 C84.9139962,19.026 84.3290021,19.2959973 83.915,19.836 C83.5009979,20.3760027 83.2640003,21.1019954 83.204,22.014 L88.01,22.014 C88.01,21.6419981 87.9680004,21.2790018 87.884,20.925 C87.7999996,20.5709982 87.662001,20.2530014 87.47,19.971 C87.277999,19.6889986 87.0350015,19.4610009 86.741,19.287 C86.4469985,19.1129991 86.0900021,19.026 85.67,19.026 Z M92.132,19.17 L90.62,19.17 L90.62,18.144 L90.944,18.144 C91.3160019,18.144 91.606999,18.1050004 91.817,18.027 C92.0270011,17.9489996 92.1859995,17.8290008 92.294,17.667 C92.4020005,17.5049992 92.4799998,17.2920013 92.528,17.028 C92.5760002,16.7639987 92.6179998,16.4400019 92.654,16.056 L92.69,15.732 L93.626,15.732 L93.626,18.144 L95.534,18.144 L95.534,19.17 L93.626,19.17 L93.626,24.678 C93.626,25.1820025 93.7009993,25.5449989 93.851,25.767 C94.0010008,25.9890011 94.279998,26.1 94.688,26.1 C95.0120016,26.1 95.3119986,26.0280007 95.588,25.884 L95.75,26.964 C95.2939977,27.168001 94.7900028,27.27 94.238,27.27 C93.8059978,27.27 93.4550014,27.2100006 93.185,27.09 C92.9149987,26.9699994 92.7020008,26.808001 92.546,26.604 C92.3899992,26.399999 92.2820003,26.1540014 92.222,25.866 C92.1619997,25.5779986 92.132,25.2660017 92.132,24.93 L92.132,19.17 Z M97.496,24.822 C97.7960015,25.2060019 98.1829976,25.5239987 98.657,25.776 C99.1310024,26.0280013 99.6499972,26.154 100.214,26.154 C100.718003,26.154 101.155998,26.0340012 101.528,25.794 C101.900002,25.5539988 102.086,25.1940024 102.086,24.714 C102.086,24.3419981 101.963001,24.051001 101.717,23.841 C101.470999,23.6309989 101.165002,23.4540007 100.799,23.31 C100.432998,23.1659993 100.034002,23.0340006 99.602,22.914 C99.1699978,22.7939994 98.7710018,22.638001 98.405,22.446 C98.0389982,22.253999 97.7330012,22.0020016 97.487,21.69 C97.2409988,21.3779984 97.118,20.9520027 97.118,20.412 C97.118,19.9679978 97.2079991,19.5870016 97.388,19.269 C97.5680009,18.9509984 97.8049985,18.690001 98.099,18.486 C98.3930015,18.281999 98.7319981,18.1320005 99.116,18.036 C99.5000019,17.9399995 99.9019979,17.892 100.322,17.892 C101.570006,17.892 102.607996,18.2519964 103.436,18.972 L102.68,19.98 C102.415999,19.7039986 102.065002,19.4730009 101.627,19.287 C101.188998,19.1009991 100.736002,19.008 100.268,19.008 C100.063999,19.008 99.863001,19.0319998 99.665,19.08 C99.466999,19.1280002 99.2930008,19.2029995 99.143,19.305 C98.9929993,19.4070005 98.8730005,19.5359992 98.783,19.692 C98.6929996,19.8480008 98.648,20.0399989 98.648,20.268 C98.648,20.6160017 98.7709988,20.885999 99.017,21.078 C99.2630012,21.270001 99.5689982,21.4349993 99.935,21.573 C100.301002,21.7110007 100.696998,21.8429994 101.123,21.969 C101.549002,22.0950006 101.944998,22.256999 102.311,22.455 C102.677002,22.653001 102.982999,22.9139984 103.229,23.238 C103.475001,23.5620016 103.598,23.9939973 103.598,24.534 C103.598,24.9900023 103.505001,25.3889983 103.319,25.731 C103.132999,26.0730017 102.887002,26.3579989 102.581,26.586 C102.274998,26.8140011 101.921002,26.9849994 101.519,27.099 C101.116998,27.2130006 100.700002,27.27 100.268,27.27 C98.7799926,27.27 97.5980044,26.7900048 96.722,25.83 L97.496,24.822 Z" id="H4-Regular-18-" fill="#000000"></path>
                </g>
                <rect id="Rectangle-2-Copy-5" fill="#AAB1B6" x="27" y="256" width="177" height="6" rx="3"></rect>
                <path d="M153.696,109.824 L150.352,109.824 L150.352,108.704 L158.464,108.704 L158.464,109.824 L155.136,109.824 L155.136,120 L153.696,120 L153.696,109.824 Z M159.84,108.704 L161.168,108.704 L161.168,113.68 C161.264,113.445332 161.386666,113.221334 161.536,113.008 C161.685334,112.794666 161.866666,112.605334 162.08,112.44 C162.293334,112.274666 162.538665,112.144 162.816,112.048 C163.093335,111.952 163.402665,111.904 163.744,111.904 C164.565337,111.904 165.170665,112.173331 165.56,112.712 C165.949335,113.250669 166.144,113.978662 166.144,114.896 L166.144,120 L164.816,120 L164.816,115.104 C164.816,114.431997 164.677335,113.928002 164.4,113.592 C164.122665,113.255998 163.728003,113.088 163.216,113.088 C162.917332,113.088 162.642668,113.151999 162.392,113.28 C162.141332,113.408001 161.925334,113.589332 161.744,113.824 C161.562666,114.058668 161.421334,114.341332 161.32,114.672 C161.218666,115.002668 161.168,115.365331 161.168,115.76 L161.168,120 L159.84,120 L159.84,108.704 Z M168.16,109.072 L169.488,109.072 L169.488,110.4 L168.16,110.4 L168.16,109.072 Z M168.16,112.128 L169.488,112.128 L169.488,120 L168.16,120 L168.16,112.128 Z M171.68,118.064 C171.946668,118.405335 172.290665,118.687999 172.712,118.912 C173.133335,119.136001 173.594664,119.248 174.096,119.248 C174.544002,119.248 174.933332,119.141334 175.264,118.928 C175.594668,118.714666 175.76,118.394669 175.76,117.968 C175.76,117.637332 175.650668,117.378668 175.432,117.192 C175.213332,117.005332 174.941335,116.848001 174.616,116.72 C174.290665,116.591999 173.936002,116.474667 173.552,116.368 C173.167998,116.261333 172.813335,116.122668 172.488,115.952 C172.162665,115.781332 171.890668,115.557335 171.672,115.28 C171.453332,115.002665 171.344,114.624002 171.344,114.144 C171.344,113.749331 171.423999,113.410668 171.584,113.128 C171.744001,112.845332 171.954665,112.613334 172.216,112.432 C172.477335,112.250666 172.778665,112.117334 173.12,112.032 C173.461335,111.946666 173.818665,111.904 174.192,111.904 C175.301339,111.904 176.223996,112.223997 176.96,112.864 L176.288,113.76 C176.053332,113.514665 175.741335,113.309334 175.352,113.144 C174.962665,112.978666 174.560002,112.896 174.144,112.896 C173.962666,112.896 173.784001,112.917333 173.608,112.96 C173.431999,113.002667 173.277334,113.069333 173.144,113.16 C173.010666,113.250667 172.904,113.365333 172.824,113.504 C172.744,113.642667 172.704,113.813332 172.704,114.016 C172.704,114.325335 172.813332,114.565332 173.032,114.736 C173.250668,114.906668 173.522665,115.053333 173.848,115.176 C174.173335,115.298667 174.525331,115.415999 174.904,115.528 C175.282669,115.640001 175.634665,115.783999 175.96,115.96 C176.285335,116.136001 176.557332,116.367999 176.776,116.656 C176.994668,116.944001 177.104,117.327998 177.104,117.808 C177.104,118.213335 177.021334,118.567998 176.856,118.872 C176.690666,119.176002 176.472001,119.429332 176.2,119.632 C175.927999,119.834668 175.613335,119.986666 175.256,120.088 C174.898665,120.189334 174.528002,120.24 174.144,120.24 C172.821327,120.24 171.770671,119.813338 170.992,118.96 L171.68,118.064 Z M181.68,112.128 L183.12,112.128 L184.72,118.72 L186.304,112.128 L187.776,112.128 L189.328,118.72 L190.944,112.128 L192.384,112.128 L190.064,120 L188.592,120 L187.024,113.936 L185.456,120 L183.984,120 L181.68,112.128 Z M194.928,116.368 C194.981334,117.274671 195.213331,117.975998 195.624,118.472 C196.034669,118.968002 196.607996,119.216 197.344,119.216 C198.272005,119.216 198.970664,118.778671 199.44,117.904 L200.448,118.464 C200.138665,118.986669 199.728003,119.413332 199.216,119.744 C198.703997,120.074668 198.058671,120.24 197.28,120.24 C196.66133,120.24 196.120002,120.133334 195.656,119.92 C195.191998,119.706666 194.805335,119.413335 194.496,119.04 C194.186665,118.666665 193.954667,118.229336 193.8,117.728 C193.645333,117.226664 193.568,116.688003 193.568,116.112 C193.568,115.546664 193.642666,115.008003 193.792,114.496 C193.941334,113.983997 194.167998,113.536002 194.472,113.152 C194.776002,112.767998 195.149331,112.464001 195.592,112.24 C196.034669,112.015999 196.554664,111.904 197.152,111.904 C197.728003,111.904 198.229331,112.013332 198.656,112.232 C199.082669,112.450668 199.437332,112.743998 199.72,113.112 C200.002668,113.480002 200.215999,113.906664 200.36,114.392 C200.504001,114.877336 200.576,115.391997 200.576,115.936 C200.576,116.053334 200.573333,116.144 200.568,116.208 C200.562667,116.272 200.56,116.325333 200.56,116.368 L194.928,116.368 Z M197.136,112.912 C196.463997,112.912 195.944002,113.151998 195.576,113.632 C195.207998,114.112002 194.997334,114.757329 194.944,115.568 L199.216,115.568 C199.216,115.237332 199.178667,114.914668 199.104,114.6 C199.029333,114.285332 198.906668,114.002668 198.736,113.752 C198.565332,113.501332 198.349335,113.298667 198.088,113.144 C197.826665,112.989333 197.509335,112.912 197.136,112.912 Z M203.2,116.368 C203.253334,117.274671 203.485331,117.975998 203.896,118.472 C204.306669,118.968002 204.879996,119.216 205.616,119.216 C206.544005,119.216 207.242664,118.778671 207.712,117.904 L208.72,118.464 C208.410665,118.986669 208.000003,119.413332 207.488,119.744 C206.975997,120.074668 206.330671,120.24 205.552,120.24 C204.93333,120.24 204.392002,120.133334 203.928,119.92 C203.463998,119.706666 203.077335,119.413335 202.768,119.04 C202.458665,118.666665 202.226667,118.229336 202.072,117.728 C201.917333,117.226664 201.84,116.688003 201.84,116.112 C201.84,115.546664 201.914666,115.008003 202.064,114.496 C202.213334,113.983997 202.439998,113.536002 202.744,113.152 C203.048002,112.767998 203.421331,112.464001 203.864,112.24 C204.306669,112.015999 204.826664,111.904 205.424,111.904 C206.000003,111.904 206.501331,112.013332 206.928,112.232 C207.354669,112.450668 207.709332,112.743998 207.992,113.112 C208.274668,113.480002 208.487999,113.906664 208.632,114.392 C208.776001,114.877336 208.848,115.391997 208.848,115.936 C208.848,116.053334 208.845333,116.144 208.84,116.208 C208.834667,116.272 208.832,116.325333 208.832,116.368 L203.2,116.368 Z M205.408,112.912 C204.735997,112.912 204.216002,113.151998 203.848,113.632 C203.479998,114.112002 203.269334,114.757329 203.216,115.568 L207.488,115.568 C207.488,115.237332 207.450667,114.914668 207.376,114.6 C207.301333,114.285332 207.178668,114.002668 207.008,113.752 C206.837332,113.501332 206.621335,113.298667 206.36,113.144 C206.098665,112.989333 205.781335,112.912 205.408,112.912 Z M210.464,108.704 L211.792,108.704 L211.792,115.808 L215.36,112.128 L217.024,112.128 L213.936,115.136 L217.424,120 L215.872,120 L213.072,115.968 L211.792,117.2 L211.792,120 L210.464,120 L210.464,108.704 Z" id="This-week" fill="#4C5358"></path>
                <path d="M28.12,228.704 L29.56,228.704 L29.56,238.88 L34.952,238.88 L34.952,240 L28.12,240 L28.12,228.704 Z M41.464,240 C41.3466661,239.615998 41.2773334,239.157336 41.256,238.624 C41.0426656,239.114669 40.7146689,239.506665 40.272,239.8 C39.8293311,240.093335 39.304003,240.24 38.696,240.24 C37.9279962,240.24 37.3200022,240.021336 36.872,239.584 C36.4239978,239.146664 36.2,238.560004 36.2,237.824 C36.2,237.407998 36.2746659,237.058668 36.424,236.776 C36.5733341,236.493332 36.781332,236.258668 37.048,236.072 C37.314668,235.885332 37.6293315,235.738667 37.992,235.632 C38.3546685,235.525333 38.7493312,235.44 39.176,235.376 L41.192,235.072 L41.192,234.576 C41.192,234.223998 41.1493338,233.941334 41.064,233.728 C40.9786662,233.514666 40.8613341,233.349334 40.712,233.232 C40.5626659,233.114666 40.392001,233.037334 40.2,233 C40.007999,232.962666 39.8053344,232.944 39.592,232.944 C38.983997,232.944 38.4826686,233.055999 38.088,233.28 C37.6933314,233.504001 37.362668,233.786665 37.096,234.128 L36.408,233.264 C36.7173349,232.890665 37.1466639,232.570668 37.696,232.304 C38.2453361,232.037332 38.9253293,231.904 39.736,231.904 C40.7173382,231.904 41.4293311,232.122664 41.872,232.56 C42.3146689,232.997336 42.536,233.701328 42.536,234.672 L42.536,237.856 C42.536,238.112001 42.5386666,238.335999 42.544,238.528 C42.5493334,238.720001 42.5599999,238.898666 42.576,239.064 C42.5920001,239.229334 42.6159998,239.386666 42.648,239.536 C42.6800002,239.685334 42.7226664,239.839999 42.776,240 L41.464,240 Z M41.192,235.952 L39.304,236.256 C38.6533301,236.373334 38.1920014,236.549332 37.92,236.784 C37.6479986,237.018668 37.512,237.343998 37.512,237.76 C37.512,238.186669 37.6373321,238.543999 37.888,238.832 C38.1386679,239.120001 38.5093309,239.264 39,239.264 C39.2986682,239.264 39.581332,239.205334 39.848,239.088 C40.114668,238.970666 40.3466657,238.808001 40.544,238.6 C40.7413343,238.391999 40.8986661,238.141335 41.016,237.848 C41.1333339,237.554665 41.192,237.232002 41.192,236.88 L41.192,235.952 Z M44.808,238.064 C45.074668,238.405335 45.4186646,238.687999 45.84,238.912 C46.2613354,239.136001 46.7226642,239.248 47.224,239.248 C47.6720022,239.248 48.0613317,239.141334 48.392,238.928 C48.7226683,238.714666 48.888,238.394669 48.888,237.968 C48.888,237.637332 48.7786678,237.378668 48.56,237.192 C48.3413322,237.005332 48.069335,236.848001 47.744,236.72 C47.418665,236.591999 47.0640019,236.474667 46.68,236.368 C46.2959981,236.261333 45.941335,236.122668 45.616,235.952 C45.290665,235.781332 45.0186678,235.557335 44.8,235.28 C44.5813322,235.002665 44.472,234.624002 44.472,234.144 C44.472,233.749331 44.5519992,233.410668 44.712,233.128 C44.8720008,232.845332 45.0826654,232.613334 45.344,232.432 C45.6053346,232.250666 45.906665,232.117334 46.248,232.032 C46.589335,231.946666 46.9466648,231.904 47.32,231.904 C48.4293389,231.904 49.3519963,232.223997 50.088,232.864 L49.416,233.76 C49.1813322,233.514665 48.8693353,233.309334 48.48,233.144 C48.0906647,232.978666 47.6880021,232.896 47.272,232.896 C47.0906658,232.896 46.9120009,232.917333 46.736,232.96 C46.5599991,233.002667 46.405334,233.069333 46.272,233.16 C46.138666,233.250667 46.0320004,233.365333 45.952,233.504 C45.8719996,233.642667 45.832,233.813332 45.832,234.016 C45.832,234.325335 45.9413322,234.565332 46.16,234.736 C46.3786678,234.906668 46.650665,235.053333 46.976,235.176 C47.301335,235.298667 47.6533314,235.415999 48.032,235.528 C48.4106686,235.640001 48.762665,235.783999 49.088,235.96 C49.413335,236.136001 49.6853322,236.367999 49.904,236.656 C50.1226678,236.944001 50.232,237.327998 50.232,237.808 C50.232,238.213335 50.1493342,238.567998 49.984,238.872 C49.8186658,239.176002 49.6000014,239.429332 49.328,239.632 C49.0559986,239.834668 48.7413351,239.986666 48.384,240.088 C48.0266649,240.189334 47.6560019,240.24 47.272,240.24 C45.9493267,240.24 44.8986706,239.813338 44.12,238.96 L44.808,238.064 Z M52.472,233.04 L51.128,233.04 L51.128,232.128 L51.416,232.128 C51.7466683,232.128 52.0053324,232.093334 52.192,232.024 C52.3786676,231.954666 52.5199995,231.848001 52.616,231.704 C52.7120005,231.559999 52.7813331,231.370668 52.824,231.136 C52.8666669,230.901332 52.9039998,230.613335 52.936,230.272 L52.968,229.984 L53.8,229.984 L53.8,232.128 L55.496,232.128 L55.496,233.04 L53.8,233.04 L53.8,237.936 C53.8,238.384002 53.866666,238.706666 54,238.904 C54.133334,239.101334 54.3813315,239.2 54.744,239.2 C55.0320014,239.2 55.2986654,239.136001 55.544,239.008 L55.688,239.968 C55.2826646,240.149334 54.8346691,240.24 54.344,240.24 C53.9599981,240.24 53.6480012,240.186667 53.408,240.08 C53.1679988,239.973333 52.9786674,239.829334 52.84,239.648 C52.7013326,239.466666 52.6053336,239.248001 52.552,238.992 C52.4986664,238.735999 52.472,238.458668 52.472,238.16 L52.472,233.04 Z M60.12,232.128 L61.56,232.128 L63.16,238.72 L64.744,232.128 L66.216,232.128 L67.768,238.72 L69.384,232.128 L70.824,232.128 L68.504,240 L67.032,240 L65.464,233.936 L63.896,240 L62.424,240 L60.12,232.128 Z M73.368,236.368 C73.4213336,237.274671 73.6533313,237.975998 74.064,238.472 C74.4746687,238.968002 75.0479963,239.216 75.784,239.216 C76.7120046,239.216 77.4106643,238.778671 77.88,237.904 L78.888,238.464 C78.5786651,238.986669 78.1680026,239.413332 77.656,239.744 C77.1439974,240.074668 76.4986706,240.24 75.72,240.24 C75.1013302,240.24 74.5600023,240.133334 74.096,239.92 C73.6319977,239.706666 73.2453349,239.413335 72.936,239.04 C72.6266651,238.666665 72.3946674,238.229336 72.24,237.728 C72.0853326,237.226664 72.008,236.688003 72.008,236.112 C72.008,235.546664 72.0826659,235.008003 72.232,234.496 C72.3813341,233.983997 72.6079985,233.536002 72.912,233.152 C73.2160015,232.767998 73.5893311,232.464001 74.032,232.24 C74.4746689,232.015999 74.9946637,231.904 75.592,231.904 C76.1680029,231.904 76.6693312,232.013332 77.096,232.232 C77.5226688,232.450668 77.8773319,232.743998 78.16,233.112 C78.4426681,233.480002 78.6559993,233.906664 78.8,234.392 C78.9440007,234.877336 79.016,235.391997 79.016,235.936 C79.016,236.053334 79.0133334,236.144 79.008,236.208 C79.0026666,236.272 79,236.325333 79,236.368 L73.368,236.368 Z M75.576,232.912 C74.9039966,232.912 74.3840018,233.151998 74.016,233.632 C73.6479982,234.112002 73.4373336,234.757329 73.384,235.568 L77.656,235.568 C77.656,235.237332 77.618667,234.914668 77.544,234.6 C77.469333,234.285332 77.3466675,234.002668 77.176,233.752 C77.0053325,233.501332 76.7893346,233.298667 76.528,233.144 C76.2666654,232.989333 75.9493352,232.912 75.576,232.912 Z M81.64,236.368 C81.6933336,237.274671 81.9253313,237.975998 82.336,238.472 C82.7466687,238.968002 83.3199963,239.216 84.056,239.216 C84.9840046,239.216 85.6826643,238.778671 86.152,237.904 L87.16,238.464 C86.8506651,238.986669 86.4400026,239.413332 85.928,239.744 C85.4159974,240.074668 84.7706706,240.24 83.992,240.24 C83.3733302,240.24 82.8320023,240.133334 82.368,239.92 C81.9039977,239.706666 81.5173349,239.413335 81.208,239.04 C80.8986651,238.666665 80.6666674,238.229336 80.512,237.728 C80.3573326,237.226664 80.28,236.688003 80.28,236.112 C80.28,235.546664 80.3546659,235.008003 80.504,234.496 C80.6533341,233.983997 80.8799985,233.536002 81.184,233.152 C81.4880015,232.767998 81.8613311,232.464001 82.304,232.24 C82.7466689,232.015999 83.2666637,231.904 83.864,231.904 C84.4400029,231.904 84.9413312,232.013332 85.368,232.232 C85.7946688,232.450668 86.1493319,232.743998 86.432,233.112 C86.7146681,233.480002 86.9279993,233.906664 87.072,234.392 C87.2160007,234.877336 87.288,235.391997 87.288,235.936 C87.288,236.053334 87.2853334,236.144 87.28,236.208 C87.2746666,236.272 87.272,236.325333 87.272,236.368 L81.64,236.368 Z M83.848,232.912 C83.1759966,232.912 82.6560018,233.151998 82.288,233.632 C81.9199982,234.112002 81.7093336,234.757329 81.656,235.568 L85.928,235.568 C85.928,235.237332 85.890667,234.914668 85.816,234.6 C85.741333,234.285332 85.6186675,234.002668 85.448,233.752 C85.2773325,233.501332 85.0613346,233.298667 84.8,233.144 C84.5386654,232.989333 84.2213352,232.912 83.848,232.912 Z M88.904,228.704 L90.232,228.704 L90.232,235.808 L93.8,232.128 L95.464,232.128 L92.376,235.136 L95.864,240 L94.312,240 L91.512,235.968 L90.232,237.2 L90.232,240 L88.904,240 L88.904,228.704 Z" id="Last-week" fill="#4C5358"></path>
                <path d="M20.5,199.5 L351.5,199.5" id="Line" stroke="#E7E9EB" stroke-linecap="square"></path>
                <g id="Group-2" transform="translate(20.000000, 70.000000)">
                    <g id="Group">
                        <g id="Doughnut-1-Copy" transform="translate(0.000000, 0.000000)">
                            <mask id="mask-3" fill="white">
                                <use xlink:href="#path-2"></use>
                            </mask>
                            <use id="Oval-Mask" fill="#FFFFFF" xlink:href="#path-2"></use>
                            <polygon id="Path-1" fill="#EA7D00" mask="url(#mask-3)" points="47.1977297 50.1525934 47.1977297 -4.52626213 88.0556955 4.37494691 91.0349222 20.0580295"></polygon>
                            <polygon id="Path-2" fill="#EA7D00" mask="url(#mask-3)" points="47.1977297 47.5377418 84.6229149 15.7405476 108.864228 53.8971807 98.2320732 83.1505993"></polygon>
                            <polygon id="Path-3" fill="#EA7D00" mask="url(#mask-3)" points="47.4565515 47.8296631 88.7093124 73.6994091 79.7783023 96.1764016 16.8359454 97.4486842 7.9049353 80.0608221"></polygon>
                            <polygon id="Path-4" fill="#EA7D00" mask="url(#mask-3)" points="47.4692368 47.9226934 10.894624 80.6447203 -14.1972616 55.9969598 -3.13982049 33.4740062"></polygon>
                            <polygon id="Path-5" fill="#D2D6D9" mask="url(#mask-3)" points="47.4670113 47.6123741 -16.6530612 43.7992662 38.9742865 -12.1263158"></polygon>
                            <polygon id="Path-6" fill="#EA7D00" mask="url(#mask-3)" points="47.5523204 48.0874235 37.3745311 -1.13986849 47.5523204 -2.83736131 60.274557 0.981997548"></polygon>
                        </g>
                        <ellipse id="Oval-2" fill="#FFFFFF" cx="48.2505359" cy="48" rx="38.2505359" ry="37"></ellipse>
                        <g id="Group-6" transform="translate(26.314815, 19.285714)">
                            <path d="M9.056,24.856 C9.35466816,25.8160048 9.83466336,26.6053302 10.496,27.224 C11.1573366,27.8426698 12.0319946,28.152 13.12,28.152 C14.1653386,28.152 14.9706638,27.8373365 15.536,27.208 C16.1013362,26.5786635 16.384,25.7200054 16.384,24.632 C16.384,23.565328 16.0373368,22.7120032 15.344,22.072 C14.6506632,21.4319968 13.7493389,21.112 12.64,21.112 L12.256,21.112 C12.1066659,21.112 11.936001,21.1226666 11.744,21.144 L11.744,18.296 L12.704,18.296 C13.6640048,18.296 14.4319971,18.0186694 15.008,17.464 C15.5840029,16.9093306 15.872,16.1840045 15.872,15.288 C15.872,14.4346624 15.6213358,13.7146696 15.12,13.128 C14.6186642,12.5413304 13.8453386,12.248 12.8,12.248 C11.7973283,12.248 10.9760032,12.551997 10.336,13.16 C9.6959968,13.768003 9.24800128,14.605328 8.992,15.672 L5.28,14.424 C6.4533392,10.8613155 9.05597984,9.08 13.088,9.08 C14.0693382,9.08 15.0079955,9.19733216 15.904,9.432 C16.8000045,9.66666784 17.5946632,10.013331 18.288,10.472 C18.9813368,10.930669 19.5306646,11.5066632 19.936,12.2 C20.3413354,12.8933368 20.544,13.6986621 20.544,14.616 C20.544,15.9600067 20.1386707,17.031996 19.328,17.832 C18.5173293,18.632004 17.482673,19.1599987 16.224,19.416 C16.9066701,19.5226672 17.5466637,19.7146653 18.144,19.992 C18.7413363,20.2693347 19.2639978,20.637331 19.712,21.096 C20.1600022,21.554669 20.517332,22.1039968 20.784,22.744 C21.050668,23.3840032 21.184,24.1093293 21.184,24.92 C21.184,26.1360061 20.9386691,27.1599958 20.448,27.992 C19.9573309,28.8240042 19.3280038,29.4959974 18.56,30.008 C17.7919962,30.5200026 16.9493379,30.8879989 16.032,31.112 C15.1146621,31.3360011 14.2293376,31.448 13.376,31.448 C11.2639894,31.448 9.53600672,31.0160043 8.192,30.152 C6.84799328,29.2879957 5.8026704,28.0346749 5.056,26.392 L9.056,24.856 Z M31.456,28.312 C32.4586717,28.312 33.226664,27.9280038 33.76,27.16 C34.293336,26.3919962 34.56,25.4426723 34.56,24.312 C34.56,23.7573306 34.4906674,23.2346691 34.352,22.744 C34.2133326,22.2533309 34.010668,21.8213352 33.744,21.448 C33.477332,21.0746648 33.1520019,20.7813344 32.768,20.568 C32.3839981,20.3546656 31.9466691,20.248 31.456,20.248 C30.9653309,20.248 30.5333352,20.3546656 30.16,20.568 C29.7866648,20.7813344 29.4613347,21.0746648 29.184,21.448 C28.9066653,21.8213352 28.6986674,22.2533309 28.56,22.744 C28.4213326,23.2346691 28.352,23.7573306 28.352,24.312 C28.352,25.4426723 28.6346638,26.3919962 29.2,27.16 C29.7653362,27.9280038 30.5173286,28.312 31.456,28.312 Z M34.848,14.776 C34.5919987,14.050663 34.1813362,13.4746688 33.616,13.048 C33.0506638,12.6213312 32.4266701,12.408 31.744,12.408 C30.5493274,12.408 29.5840037,12.9519946 28.848,14.04 C28.1119963,15.1280054 27.744,16.8239885 27.744,19.128 L27.744,19.416 C27.744,19.5440006 27.7546666,19.6933325 27.776,19.864 C28.2026688,19.0746627 28.8266626,18.413336 29.648,17.88 C30.4693374,17.346664 31.5306602,17.08 32.832,17.08 C33.8560051,17.08 34.7733293,17.2559982 35.584,17.608 C36.3946707,17.9600018 37.0826638,18.4506635 37.648,19.08 C38.2133362,19.7093365 38.6506651,20.461329 38.96,21.336 C39.2693349,22.210671 39.424,23.181328 39.424,24.248 C39.424,25.122671 39.2586683,25.997329 38.928,26.872 C38.5973317,27.746671 38.1120032,28.5253299 37.472,29.208 C36.8319968,29.8906701 36.0320048,30.4453312 35.072,30.872 C34.1119952,31.2986688 33.002673,31.512 31.744,31.512 C30.5279939,31.512 29.4026718,31.2773357 28.368,30.808 C27.3333282,30.3386643 26.4373371,29.6613378 25.68,28.776 C24.9226629,27.8906622 24.3306688,26.8133397 23.904,25.544 C23.4773312,24.2746603 23.264,22.840008 23.264,21.24 C23.264,19.1706563 23.4986643,17.373341 23.968,15.848 C24.4373357,14.322659 25.0613294,13.0586717 25.84,12.056 C26.6186706,11.0533283 27.5199949,10.3066691 28.544,9.816 C29.5680051,9.32533088 30.6346611,9.08 31.744,9.08 C32.6400045,9.08 33.4559963,9.19199888 34.192,9.416 C34.9280037,9.64000112 35.5839971,9.93333152 36.16,10.296 C36.7360029,10.6586685 37.2266646,11.0799976 37.632,11.56 C38.0373354,12.0400024 38.3573322,12.546664 38.592,13.08 L34.848,14.776 Z" id="36" fill="#495C6A"></path>
                            <path d="M6.70661338,36.116 L7.86861338,36.116 L7.86861338,40.47 C7.9526138,40.2646656 8.05994606,40.0686676 8.19061338,39.882 C8.3212807,39.6953324 8.47994578,39.5296674 8.66661338,39.385 C8.85328098,39.2403326 9.0679455,39.1260004 9.31061338,39.042 C9.55328126,38.9579996 9.82394522,38.916 10.1226134,38.916 C10.8412836,38.916 11.370945,39.1516643 11.7116134,39.623 C12.0522818,40.0943357 12.2226134,40.7313293 12.2226134,41.534 L12.2226134,46 L11.0606134,46 L11.0606134,41.716 C11.0606134,41.1279971 10.9392813,40.6870015 10.6966134,40.393 C10.4539455,40.0989985 10.1086156,39.952 9.66061338,39.952 C9.39927874,39.952 9.15894781,40.0079994 8.93961338,40.12 C8.72027895,40.2320006 8.53128084,40.3906656 8.37261338,40.596 C8.21394592,40.8013344 8.09028049,41.0486652 8.00161338,41.338 C7.91294627,41.6273348 7.86861338,41.9446649 7.86861338,42.29 L7.86861338,46 L6.70661338,46 L6.70661338,36.116 Z M16.8426134,46.21 C16.3199441,46.21 15.860282,46.1143343 15.4636134,45.923 C15.0669447,45.7316657 14.7356147,45.470335 14.4696134,45.139 C14.2036121,44.807665 14.0052807,44.4203355 13.8746134,43.977 C13.7439461,43.5336644 13.6786134,43.0553359 13.6786134,42.542 C13.6786134,42.0286641 13.7462794,41.5526689 13.8816134,41.114 C14.0169474,40.6753311 14.2176121,40.2926683 14.4836134,39.966 C14.7496147,39.6393317 15.0809447,39.3826676 15.4776134,39.196 C15.874282,39.0093324 16.3292775,38.916 16.8426134,38.916 C17.3559493,38.916 17.8109447,39.0093324 18.2076134,39.196 C18.604282,39.3826676 18.9379454,39.6369984 19.2086134,39.959 C19.4792814,40.2810016 19.6822794,40.6636644 19.8176134,41.107 C19.9529474,41.5503355 20.0206134,42.0286641 20.0206134,42.542 C20.0206134,43.0553359 19.9529474,43.5336644 19.8176134,43.977 C19.6822794,44.4203355 19.4792814,44.807665 19.2086134,45.139 C18.9379454,45.470335 18.604282,45.7316657 18.2076134,45.923 C17.8109447,46.1143343 17.3559493,46.21 16.8426134,46.21 Z M16.8706134,45.3 C17.1879483,45.3 17.4679455,45.2300007 17.7106134,45.09 C17.9532813,44.9499993 18.1539459,44.7563346 18.3126134,44.509 C18.4712808,44.2616654 18.592613,43.9700017 18.6766134,43.634 C18.7606138,43.2979983 18.8026134,42.934002 18.8026134,42.542 C18.8026134,42.149998 18.7606138,41.788335 18.6766134,41.457 C18.592613,41.125665 18.4666142,40.8386679 18.2986134,40.596 C18.1306125,40.3533321 17.9252813,40.164334 17.6826134,40.029 C17.4399455,39.893666 17.1599483,39.826 16.8426134,39.826 C16.5159451,39.826 16.2312813,39.893666 15.9886134,40.029 C15.7459455,40.164334 15.5452808,40.3533321 15.3866134,40.596 C15.2279459,40.8386679 15.1066138,41.125665 15.0226134,41.457 C14.938613,41.788335 14.8966134,42.149998 14.8966134,42.542 C14.8966134,42.934002 14.938613,43.2979983 15.0226134,43.634 C15.1066138,43.9700017 15.2302792,44.2616654 15.3936134,44.509 C15.5569475,44.7563346 15.7622788,44.9499993 16.0096134,45.09 C16.256948,45.2300007 16.5439451,45.3 16.8706134,45.3 Z M21.4766134,39.112 L22.6526134,39.112 L22.6526134,43.284 C22.6526134,43.9373366 22.7739455,44.4156651 23.0166134,44.719 C23.2592813,45.0223348 23.5999445,45.174 24.0386134,45.174 C24.5986162,45.174 25.0349452,44.9523355 25.3476134,44.509 C25.6602816,44.0656644 25.8166134,43.475337 25.8166134,42.738 L25.8166134,39.112 L26.9786134,39.112 L26.9786134,46 L25.8866134,46 L25.8866134,44.6 C25.802613,44.8146677 25.6999473,45.0176657 25.5786134,45.209 C25.4572794,45.4003343 25.3079476,45.5683326 25.1306134,45.713 C24.9532792,45.8576674 24.7479479,45.9719996 24.5146134,46.056 C24.2812789,46.1400004 24.0059483,46.182 23.6886134,46.182 C22.941943,46.182 22.3866152,45.9556689 22.0226134,45.503 C21.6586116,45.0503311 21.4766134,44.4086708 21.4766134,43.578 L21.4766134,39.112 Z M28.7706134,39.112 L29.7786134,39.112 L29.8906134,40.652 C30.0866144,40.1479975 30.3992779,39.7326683 30.8286134,39.406 C31.2579489,39.0793317 31.7666104,38.916 32.3546134,38.916 L32.3546134,40.148 C32.2239461,40.1199999 32.0792808,40.106 31.9206134,40.106 C31.6872789,40.106 31.4539479,40.1479996 31.2206134,40.232 C30.9872789,40.3160004 30.7749477,40.4513324 30.5836134,40.638 C30.3922791,40.8246676 30.2359473,41.0649985 30.1146134,41.359 C29.9932794,41.6530015 29.9326134,42.0099979 29.9326134,42.43 L29.9326134,46 L28.7706134,46 L28.7706134,39.112 Z M33.6286134,44.306 C33.8619479,44.6046682 34.1629449,44.851999 34.5316134,45.048 C34.9002819,45.244001 35.3039445,45.342 35.7426134,45.342 C36.1346153,45.342 36.4752786,45.2486676 36.7646134,45.062 C37.0539482,44.8753324 37.1986134,44.5953352 37.1986134,44.222 C37.1986134,43.9326652 37.1029477,43.7063341 36.9116134,43.543 C36.7202791,43.3796658 36.4822815,43.2420006 36.1976134,43.13 C35.9129453,43.0179994 35.6026151,42.9153338 35.2666134,42.822 C34.9306117,42.7286662 34.6202815,42.6073341 34.3356134,42.458 C34.0509453,42.3086659 33.8129477,42.1126679 33.6216134,41.87 C33.4302791,41.6273321 33.3346134,41.2960021 33.3346134,40.876 C33.3346134,40.5306649 33.4046127,40.2343346 33.5446134,39.987 C33.6846141,39.7396654 33.8689456,39.5366675 34.0976134,39.378 C34.3262812,39.2193325 34.5899452,39.102667 34.8886134,39.028 C35.1872815,38.953333 35.4999451,38.916 35.8266134,38.916 C36.7972849,38.916 37.6046102,39.1959972 38.2486134,39.756 L37.6606134,40.54 C37.455279,40.3253323 37.1822818,40.1456674 36.8416134,40.001 C36.500945,39.8563326 36.1486152,39.784 35.7846134,39.784 C35.6259459,39.784 35.4696142,39.8026665 35.3156134,39.84 C35.1616126,39.8773335 35.0262806,39.9356663 34.9096134,40.015 C34.7929461,40.0943337 34.6996137,40.1946661 34.6296134,40.316 C34.559613,40.4373339 34.5246134,40.5866658 34.5246134,40.764 C34.5246134,41.034668 34.6202791,41.2446659 34.8116134,41.394 C35.0029477,41.5433341 35.2409453,41.6716661 35.5256134,41.779 C35.8102815,41.8863339 36.1182784,41.9889995 36.4496134,42.087 C36.7809484,42.1850005 37.0889453,42.3109992 37.3736134,42.465 C37.6582815,42.6190008 37.8962791,42.8219987 38.0876134,43.074 C38.2789477,43.3260013 38.3746134,43.6619979 38.3746134,44.082 C38.3746134,44.4366684 38.3022808,44.7469987 38.1576134,45.013 C38.012946,45.2790013 37.8216146,45.5006658 37.5836134,45.678 C37.3456122,45.8553342 37.0702816,45.9883329 36.7576134,46.077 C36.4449452,46.1656671 36.1206151,46.21 35.7846134,46.21 C34.6272743,46.21 33.7079501,45.8366704 33.0266134,45.09 L33.6286134,44.306 Z" id="hours" fill="#4C5358"></path>
                        </g>
                    </g>
                </g>
                <rect id="Rectangle-2-Copy" fill="#AAB1B6" x="150" y="137" width="194" height="6" rx="3"></rect>
            </g>
        </g>
    </g>
</svg>