<?xml version="1.0" encoding="UTF-8"?>
<svg width="337px" height="294px" viewBox="0 0 337 294" version="1.1" xmlns="http://www.w3.org/2000/svg" xmlns:xlink="http://www.w3.org/1999/xlink">
    <!-- Generator: Sketch 47 (45396) - http://www.bohemiancoding.com/sketch -->
    <title>FewContent</title>
    <desc>Created with Sketch.</desc>
    <defs>
        <rect id="path-1" x="0" y="0" width="336" height="139"></rect>
        <rect id="path-2" x="0" y="0" width="337" height="139"></rect>
    </defs>
    <g id="Page-1" stroke="none" stroke-width="1" fill="none" fill-rule="evenodd">
        <g id="Buttons-Usage-extra-large-1200" transform="translate(-775.000000, -1691.000000)">
            <g id="FewContent" transform="translate(775.000000, 1691.000000)">
                <g id="Group-3">
                    <g id="PanelHeaderFooter-Copy">
                        <g id="Panel-">
                            <use fill="#FFFFFF" fill-rule="evenodd" xlink:href="#path-1"></use>
                            <rect stroke="#D2D6D9" stroke-width="1" x="0.5" y="0.5" width="335" height="138"></rect>
                        </g>
                        <rect id="Header-bg-" fill="#F5F6F6" x="1" y="1" width="334" height="44"></rect>
                        <path d="M21.71,25.066 C22.0820019,25.6180028 22.5859968,26.0649983 23.222,26.407 C23.8580032,26.7490017 24.6079957,26.92 25.472,26.92 C25.880002,26.92 26.2609982,26.8660005 26.615,26.758 C26.9690018,26.6499995 27.2749987,26.494001 27.533,26.29 C27.7910013,26.085999 27.9919993,25.8370015 28.136,25.543 C28.2800007,25.2489985 28.352,24.9220018 28.352,24.562 C28.352,24.1899981 28.2650009,23.8780013 28.091,23.626 C27.9169991,23.3739987 27.6800015,23.1610009 27.38,22.987 C27.0799985,22.8129991 26.7230021,22.6600007 26.309,22.528 C25.8949979,22.3959993 25.4480024,22.2640007 24.968,22.132 C24.4279973,21.9759992 23.9270023,21.802001 23.465,21.61 C23.0029977,21.417999 22.6040017,21.1810014 22.268,20.899 C21.9319983,20.6169986 21.668001,20.2870019 21.476,19.909 C21.283999,19.5309981 21.188,19.0780026 21.188,18.55 C21.188,18.0099973 21.292999,17.5240022 21.503,17.092 C21.713001,16.6599978 22.0099981,16.2910015 22.394,15.985 C22.7780019,15.6789985 23.2309974,15.4420008 23.753,15.274 C24.2750026,15.1059992 24.8539968,15.022 25.49,15.022 C26.3660044,15.022 27.1759963,15.1689985 27.92,15.463 C28.6640037,15.7570015 29.2999974,16.1919971 29.828,16.768 L28.73,17.794 C28.3459981,17.3739979 27.8750028,17.0320013 27.317,16.768 C26.7589972,16.5039987 26.1440034,16.372 25.472,16.372 C24.7039962,16.372 24.0770024,16.5369983 23.591,16.867 C23.1049976,17.1970016 22.862,17.6979966 22.862,18.37 C22.862,18.7060017 22.9369992,18.9939988 23.087,19.234 C23.2370007,19.4740012 23.4469987,19.6839991 23.717,19.864 C23.9870013,20.0440009 24.3049982,20.2029993 24.671,20.341 C25.0370018,20.4790007 25.4419978,20.6079994 25.886,20.728 C26.5460033,20.9080009 27.1339974,21.1029989 27.65,21.313 C28.1660026,21.5230011 28.5979983,21.7719986 28.946,22.06 C29.2940017,22.3480014 29.5579991,22.6809981 29.738,23.059 C29.9180009,23.4370019 30.008,23.8779975 30.008,24.382 C30.008,24.9940031 29.8880012,25.5429976 29.648,26.029 C29.4079988,26.5150024 29.0810021,26.9229984 28.667,27.253 C28.2529979,27.5830016 27.7670028,27.8349991 27.209,28.009 C26.6509972,28.1830009 26.0600031,28.27 25.436,28.27 C24.2839942,28.27 23.312004,28.0870018 22.52,27.721 C21.727996,27.3549982 21.0920024,26.8300034 20.612,26.146 L21.71,25.066 Z M31.88,19.144 L33.176,19.144 L33.338,20.872 C33.5540011,20.2599969 33.8899977,19.7770018 34.346,19.423 C34.8020023,19.0689982 35.3599967,18.892 36.02,18.892 C36.7160035,18.892 37.261998,19.089998 37.658,19.486 C38.054002,19.882002 38.3059995,20.3619972 38.414,20.926 C38.5220005,20.6499986 38.6569992,20.3890012 38.819,20.143 C38.9810008,19.8969988 39.1759989,19.6810009 39.404,19.495 C39.6320011,19.3089991 39.8959985,19.1620005 40.196,19.054 C40.4960015,18.9459995 40.8379981,18.892 41.222,18.892 C41.7260025,18.892 42.1429983,18.9789991 42.473,19.153 C42.8030016,19.3270009 43.066999,19.5639985 43.265,19.864 C43.463001,20.1640015 43.6039996,20.514998 43.688,20.917 C43.7720004,21.319002 43.814,21.7419978 43.814,22.186 L43.814,28 L42.32,28 L42.32,22.564 C42.32,21.771996 42.1790014,21.1810019 41.897,20.791 C41.6149986,20.400998 41.2040027,20.206 40.664,20.206 C40.0759971,20.206 39.584002,20.4669974 39.188,20.989 C38.791998,21.5110026 38.594,22.2579951 38.594,23.23 L38.594,28 L37.1,28 L37.1,22.636 C37.1,21.8079959 36.9560014,21.196002 36.668,20.8 C36.3799986,20.403998 35.9780026,20.206 35.462,20.206 C34.8859971,20.206 34.394002,20.4729973 33.986,21.007 C33.577998,21.5410027 33.374,22.311995 33.374,23.32 L33.374,28 L31.88,28 L31.88,19.144 Z M51.644,28 C51.5119993,27.5679978 51.4340001,27.052003 51.41,26.452 C51.1699988,27.0040028 50.8010025,27.4449983 50.303,27.775 C49.8049975,28.1050016 49.2140034,28.27 48.53,28.27 C47.6659957,28.27 46.9820025,28.0240025 46.478,27.532 C45.9739975,27.0399975 45.722,26.3800041 45.722,25.552 C45.722,25.0839977 45.8059992,24.6910016 45.974,24.373 C46.1420008,24.0549984 46.3759985,23.791001 46.676,23.581 C46.9760015,23.370999 47.329998,23.2060006 47.738,23.086 C48.146002,22.9659994 48.5899976,22.8700004 49.07,22.798 L51.338,22.456 L51.338,21.898 C51.338,21.501998 51.2900005,21.1840012 51.194,20.944 C51.0979995,20.7039988 50.9660008,20.5180007 50.798,20.386 C50.6299992,20.2539993 50.4380011,20.1670002 50.222,20.125 C50.0059989,20.0829998 49.7780012,20.062 49.538,20.062 C48.8539966,20.062 48.2900022,20.1879987 47.846,20.44 C47.4019978,20.6920013 47.0300015,21.0099981 46.73,21.394 L45.956,20.422 C46.3040017,20.0019979 46.7869969,19.6420015 47.405,19.342 C48.0230031,19.0419985 48.7879954,18.892 49.7,18.892 C50.8040055,18.892 51.6049975,19.1379975 52.103,19.63 C52.6010025,20.1220025 52.85,20.9139945 52.85,22.006 L52.85,25.588 C52.85,25.8760014 52.853,26.1279989 52.859,26.344 C52.865,26.5600011 52.8769999,26.7609991 52.895,26.947 C52.9130001,27.1330009 52.9399998,27.3099992 52.976,27.478 C53.0120002,27.6460008 53.0599997,27.8199991 53.12,28 L51.644,28 Z M51.338,23.446 L49.214,23.788 C48.4819963,23.9200007 47.9630015,24.1179987 47.657,24.382 C47.3509985,24.6460013 47.198,25.0119977 47.198,25.48 C47.198,25.9600024 47.3389986,26.3619984 47.621,26.686 C47.9030014,27.0100016 48.3199972,27.172 48.872,27.172 C49.2080017,27.172 49.5259985,27.1060007 49.826,26.974 C50.1260015,26.8419993 50.3869989,26.6590012 50.609,26.425 C50.8310011,26.1909988 51.0079993,25.9090017 51.14,25.579 C51.2720007,25.2489984 51.338,24.886002 51.338,24.49 L51.338,23.446 Z M55.244,15.292 L56.738,15.292 L56.738,28 L55.244,28 L55.244,15.292 Z M59.042,15.292 L60.536,15.292 L60.536,28 L59.042,28 L59.042,15.292 Z M72.848,26.272 C72.6079988,26.872003 72.2540023,27.3459983 71.786,27.694 C71.3179977,28.0420017 70.7360035,28.216 70.04,28.216 C69.4879972,28.216 68.9930022,28.1020011 68.555,27.874 C68.1169978,27.6459989 67.7450015,27.328002 67.439,26.92 C67.1329985,26.511998 66.8990008,26.0200029 66.737,25.444 C66.5749992,24.8679971 66.494,24.2320035 66.494,23.536 C66.494,22.8159964 66.5779992,22.1710029 66.746,21.601 C66.9140008,21.0309971 67.1539984,20.548002 67.466,20.152 C67.7780016,19.755998 68.1529978,19.4500011 68.591,19.234 C69.0290022,19.0179989 69.5119974,18.91 70.04,18.91 C70.7600036,18.91 71.3479977,19.0809983 71.804,19.423 C72.2600023,19.7650017 72.583999,20.1759976 72.776,20.656 L72.776,15.292 L74.288,15.292 L74.288,28 L72.848,28 L72.848,26.272 Z M72.776,23.518 C72.776,23.1459981 72.7670001,22.855001 72.749,22.645 C72.7309999,22.434999 72.7100001,22.2640007 72.686,22.132 C72.6259997,21.8679987 72.5360006,21.6160012 72.416,21.376 C72.2959994,21.1359988 72.1430009,20.9230009 71.957,20.737 C71.7709991,20.5509991 71.5520013,20.4040005 71.3,20.296 C71.0479987,20.1879995 70.7600016,20.134 70.436,20.134 C70.027998,20.134 69.6770015,20.2239991 69.383,20.404 C69.0889985,20.5840009 68.843001,20.8269985 68.645,21.133 C68.446999,21.4390015 68.3000005,21.7989979 68.204,22.213 C68.1079995,22.6270021 68.06,23.0679977 68.06,23.536 C68.06,24.0400025 68.1139995,24.5049979 68.222,24.931 C68.3300005,25.3570021 68.485999,25.7229985 68.69,26.029 C68.894001,26.3350015 69.1459985,26.5749991 69.446,26.749 C69.7460015,26.9230009 70.0879981,27.01 70.472,27.01 C70.7720015,27.01 71.0449988,26.9560005 71.291,26.848 C71.5370012,26.7399995 71.7529991,26.590001 71.939,26.398 C72.1250009,26.205999 72.2779994,25.9870012 72.398,25.741 C72.5180006,25.4949988 72.6079997,25.2340014 72.668,24.958 C72.7400004,24.6219983 72.776,24.1720028 72.776,23.608 L72.776,23.518 Z M77.708,23.914 C77.7680003,24.9340051 78.0289977,25.7229972 78.491,26.281 C78.9530023,26.8390028 79.5979959,27.118 80.426,27.118 C81.4700052,27.118 82.2559974,26.6260049 82.784,25.642 L83.918,26.272 C83.5699983,26.8600029 83.1080029,27.3399981 82.532,27.712 C81.9559971,28.0840019 81.2300044,28.27 80.354,28.27 C79.6579965,28.27 79.0490026,28.1500012 78.527,27.91 C78.0049974,27.6699988 77.5700017,27.3400021 77.222,26.92 C76.8739983,26.4999979 76.6130009,26.0080028 76.439,25.444 C76.2649991,24.8799972 76.178,24.2740032 76.178,23.626 C76.178,22.9899968 76.2619992,22.3840029 76.43,21.808 C76.5980008,21.2319971 76.8529983,20.7280022 77.195,20.296 C77.5370017,19.8639978 77.9569975,19.5220013 78.455,19.27 C78.9530025,19.0179987 79.5379966,18.892 80.21,18.892 C80.8580032,18.892 81.4219976,19.0149988 81.902,19.261 C82.3820024,19.5070012 82.7809984,19.8369979 83.099,20.251 C83.4170016,20.6650021 83.6569992,21.1449973 83.819,21.691 C83.9810008,22.2370027 84.062,22.8159969 84.062,23.428 C84.062,23.5600007 84.059,23.6619996 84.053,23.734 C84.047,23.8060004 84.044,23.8659998 84.044,23.914 L77.708,23.914 Z M80.192,20.026 C79.4359962,20.026 78.8510021,20.2959973 78.437,20.836 C78.0229979,21.3760027 77.7860003,22.1019954 77.726,23.014 L82.532,23.014 C82.532,22.6419981 82.4900004,22.2790018 82.406,21.925 C82.3219996,21.5709982 82.184001,21.2530014 81.992,20.971 C81.799999,20.6889986 81.5570015,20.4610009 81.263,20.287 C80.9689985,20.1129991 80.6120021,20.026 80.192,20.026 Z M86.042,25.822 C86.3420015,26.2060019 86.7289976,26.5239987 87.203,26.776 C87.6770024,27.0280013 88.1959972,27.154 88.76,27.154 C89.2640025,27.154 89.7019981,27.0340012 90.074,26.794 C90.4460019,26.5539988 90.632,26.1940024 90.632,25.714 C90.632,25.3419981 90.5090012,25.051001 90.263,24.841 C90.0169988,24.6309989 89.7110018,24.4540007 89.345,24.31 C88.9789982,24.1659993 88.5800022,24.0340006 88.148,23.914 C87.7159978,23.7939994 87.3170018,23.638001 86.951,23.446 C86.5849982,23.253999 86.2790012,23.0020016 86.033,22.69 C85.7869988,22.3779984 85.664,21.9520027 85.664,21.412 C85.664,20.9679978 85.7539991,20.5870016 85.934,20.269 C86.1140009,19.9509984 86.3509985,19.690001 86.645,19.486 C86.9390015,19.281999 87.2779981,19.1320005 87.662,19.036 C88.0460019,18.9399995 88.4479979,18.892 88.868,18.892 C90.1160062,18.892 91.1539959,19.2519964 91.982,19.972 L91.226,20.98 C90.9619987,20.7039986 90.6110022,20.4730009 90.173,20.287 C89.7349978,20.1009991 89.2820023,20.008 88.814,20.008 C88.609999,20.008 88.409001,20.0319998 88.211,20.08 C88.012999,20.1280002 87.8390008,20.2029995 87.689,20.305 C87.5389993,20.4070005 87.4190005,20.5359992 87.329,20.692 C87.2389996,20.8480008 87.194,21.0399989 87.194,21.268 C87.194,21.6160017 87.3169988,21.885999 87.563,22.078 C87.8090012,22.270001 88.1149982,22.4349993 88.481,22.573 C88.8470018,22.7110007 89.2429979,22.8429994 89.669,22.969 C90.0950021,23.0950006 90.4909982,23.256999 90.857,23.455 C91.2230018,23.653001 91.5289988,23.9139984 91.775,24.238 C92.0210012,24.5620016 92.144,24.9939973 92.144,25.534 C92.144,25.9900023 92.0510009,26.3889983 91.865,26.731 C91.6789991,27.0730017 91.4330015,27.3579989 91.127,27.586 C90.8209985,27.8140011 90.467002,27.9849994 90.065,28.099 C89.662998,28.2130006 89.2460022,28.27 88.814,28.27 C87.3259926,28.27 86.1440044,27.7900048 85.268,26.83 L86.042,25.822 Z M101.288,26.056 C100.927998,26.7760036 100.445003,27.3249981 99.839,27.703 C99.232997,28.0810019 98.4980043,28.27 97.634,28.27 C96.9259965,28.27 96.3110026,28.1470012 95.789,27.901 C95.2669974,27.6549988 94.8350017,27.3220021 94.493,26.902 C94.1509983,26.4819979 93.8990008,25.9870028 93.737,25.417 C93.5749992,24.8469971 93.494,24.2380032 93.494,23.59 C93.494,22.9299967 93.5809991,22.3150028 93.755,21.745 C93.9290009,21.1749971 94.1869983,20.6800021 94.529,20.26 C94.8710017,19.8399979 95.2999974,19.5070012 95.816,19.261 C96.3320026,19.0149988 96.9379965,18.892 97.634,18.892 C98.5100044,18.892 99.2389971,19.086998 99.821,19.477 C100.403003,19.8670019 100.873998,20.4159965 101.234,21.124 L99.974,21.718 C99.5179977,20.6139945 98.7500054,20.062 97.67,20.062 C97.2139977,20.062 96.8210017,20.1519991 96.491,20.332 C96.1609983,20.5120009 95.891001,20.7579984 95.681,21.07 C95.470999,21.3820016 95.3150005,21.7449979 95.213,22.159 C95.1109995,22.5730021 95.06,23.0199976 95.06,23.5 C95.06,23.9560023 95.1079995,24.3999978 95.204,24.832 C95.3000005,25.2640022 95.4559989,25.6479983 95.672,25.984 C95.8880011,26.3200017 96.1639983,26.589999 96.5,26.794 C96.8360017,26.998001 97.2499975,27.1 97.742,27.1 C98.3660031,27.1 98.8699981,26.9410016 99.254,26.623 C99.6380019,26.3049984 99.931999,25.8940025 100.136,25.39 L101.288,26.056 Z M102.944,19.144 L104.24,19.144 L104.384,21.124 C104.636001,20.4759968 105.037997,19.9420021 105.59,19.522 C106.142003,19.1019979 106.795996,18.892 107.552,18.892 L107.552,20.476 C107.383999,20.4399998 107.198001,20.422 106.994,20.422 C106.693999,20.422 106.394002,20.4759995 106.094,20.584 C105.793999,20.6920005 105.521001,20.8659988 105.275,21.106 C105.028999,21.3460012 104.828001,21.6549981 104.672,22.033 C104.515999,22.4110019 104.438,22.8699973 104.438,23.41 L104.438,28 L102.944,28 L102.944,19.144 Z M109.028,15.706 L110.522,15.706 L110.522,17.2 L109.028,17.2 L109.028,15.706 Z M109.028,19.144 L110.522,19.144 L110.522,28 L109.028,28 L109.028,19.144 Z M112.826,19.144 L114.32,19.144 L114.32,20.854 C114.428001,20.6019987 114.565999,20.3560012 114.734,20.116 C114.902001,19.8759988 115.102999,19.6660009 115.337,19.486 C115.571001,19.3059991 115.843998,19.1620005 116.156,19.054 C116.468002,18.9459995 116.821998,18.892 117.218,18.892 C117.794003,18.892 118.294998,19.0119988 118.721,19.252 C119.147002,19.4920012 119.497999,19.8219979 119.774,20.242 C120.050001,20.6620021 120.256999,21.1509972 120.395,21.709 C120.533001,22.2670028 120.602,22.8699968 120.602,23.518 C120.602,24.2860038 120.512001,24.9639971 120.332,25.552 C120.151999,26.1400029 119.900002,26.631998 119.576,27.028 C119.251998,27.424002 118.874002,27.723999 118.442,27.928 C118.009998,28.132001 117.542003,28.234 117.038,28.234 C116.377997,28.234 115.811002,28.0720016 115.337,27.748 C114.862998,27.4239984 114.524001,27.0220024 114.32,26.542 L114.32,31.114 L112.826,31.114 L112.826,19.144 Z M114.32,23.626 C114.32,23.8780013 114.329,24.108999 114.347,24.319 C114.365,24.529001 114.386,24.7059993 114.41,24.85 C114.458,25.1380014 114.547999,25.4139987 114.68,25.678 C114.812001,25.9420013 114.973999,26.172999 115.166,26.371 C115.358001,26.569001 115.582999,26.7279994 115.841,26.848 C116.099001,26.9680006 116.383998,27.028 116.696,27.028 C117.104002,27.028 117.454999,26.932001 117.749,26.74 C118.043001,26.547999 118.285999,26.2900016 118.478,25.966 C118.670001,25.6419984 118.811,25.2730021 118.901,24.859 C118.991,24.4449979 119.036,24.0160022 119.036,23.572 C119.036,23.1279978 118.994,22.6990021 118.91,22.285 C118.826,21.8709979 118.691001,21.5050016 118.505,21.187 C118.318999,20.8689984 118.076002,20.614001 117.776,20.422 C117.475999,20.229999 117.116002,20.134 116.696,20.134 C116.371998,20.134 116.075001,20.1939994 115.805,20.314 C115.534999,20.4340006 115.304001,20.595999 115.112,20.8 C114.919999,21.004001 114.761001,21.2379987 114.635,21.502 C114.508999,21.7660013 114.428,22.0419986 114.392,22.33 C114.368,22.4500006 114.35,22.614999 114.338,22.825 C114.326,23.035001 114.32,23.2779986 114.32,23.554 L114.32,23.626 Z M123.284,20.17 L121.772,20.17 L121.772,19.144 L122.096,19.144 C122.468002,19.144 122.758999,19.1050004 122.969,19.027 C123.179001,18.9489996 123.337999,18.8290008 123.446,18.667 C123.554001,18.5049992 123.632,18.2920013 123.68,18.028 C123.728,17.7639987 123.77,17.4400019 123.806,17.056 L123.842,16.732 L124.778,16.732 L124.778,19.144 L126.686,19.144 L126.686,20.17 L124.778,20.17 L124.778,25.678 C124.778,26.1820025 124.852999,26.5449989 125.003,26.767 C125.153001,26.9890011 125.431998,27.1 125.84,27.1 C126.164002,27.1 126.463999,27.0280007 126.74,26.884 L126.902,27.964 C126.445998,28.168001 125.942003,28.27 125.39,28.27 C124.957998,28.27 124.607001,28.2100006 124.337,28.09 C124.066999,27.9699994 123.854001,27.808001 123.698,27.604 C123.541999,27.399999 123.434,27.1540014 123.374,26.866 C123.314,26.5779986 123.284,26.2660017 123.284,25.93 L123.284,20.17 Z M128.486,15.706 L129.98,15.706 L129.98,17.2 L128.486,17.2 L128.486,15.706 Z M128.486,19.144 L129.98,19.144 L129.98,28 L128.486,28 L128.486,19.144 Z M135.956,28.27 C135.283997,28.27 134.693003,28.1470012 134.183,27.901 C133.672997,27.6549988 133.247002,27.3190021 132.905,26.893 C132.562998,26.4669979 132.308001,25.9690028 132.14,25.399 C131.971999,24.8289971 131.888,24.2140033 131.888,23.554 C131.888,22.8939967 131.974999,22.2820028 132.149,21.718 C132.323001,21.1539972 132.580998,20.6620021 132.923,20.242 C133.265002,19.8219979 133.690997,19.4920012 134.201,19.252 C134.711003,19.0119988 135.295997,18.892 135.956,18.892 C136.616003,18.892 137.200997,19.0119988 137.711,19.252 C138.221003,19.4920012 138.649998,19.8189979 138.998,20.233 C139.346002,20.6470021 139.606999,21.1389972 139.781,21.709 C139.955001,22.2790028 140.042,22.8939967 140.042,23.554 C140.042,24.2140033 139.955001,24.8289971 139.781,25.399 C139.606999,25.9690028 139.346002,26.4669979 138.998,26.893 C138.649998,27.3190021 138.221003,27.6549988 137.711,27.901 C137.200997,28.1470012 136.616003,28.27 135.956,28.27 Z M135.992,27.1 C136.400002,27.1 136.759998,27.0100009 137.072,26.83 C137.384002,26.6499991 137.641999,26.4010016 137.846,26.083 C138.050001,25.7649984 138.205999,25.3900022 138.314,24.958 C138.422001,24.5259978 138.476,24.0580025 138.476,23.554 C138.476,23.0499975 138.422001,22.5850021 138.314,22.159 C138.205999,21.7329979 138.044001,21.3640016 137.828,21.052 C137.611999,20.7399984 137.348002,20.4970009 137.036,20.323 C136.723998,20.1489991 136.364002,20.062 135.956,20.062 C135.535998,20.062 135.170002,20.1489991 134.858,20.323 C134.545998,20.4970009 134.288001,20.7399984 134.084,21.052 C133.879999,21.3640016 133.724001,21.7329979 133.616,22.159 C133.507999,22.5850021 133.454,23.0499975 133.454,23.554 C133.454,24.0580025 133.507999,24.5259978 133.616,24.958 C133.724001,25.3900022 133.882999,25.7649984 134.093,26.083 C134.303001,26.4010016 134.566998,26.6499991 134.885,26.83 C135.203002,27.0100009 135.571998,27.1 135.992,27.1 Z M141.95,19.144 L143.246,19.144 L143.408,20.908 C143.636001,20.3679973 143.998998,19.897002 144.497,19.495 C144.995002,19.092998 145.609996,18.892 146.342,18.892 C147.266005,18.892 147.946998,19.1859971 148.385,19.774 C148.823002,20.3620029 149.042,21.1839947 149.042,22.24 L149.042,28 L147.548,28 L147.548,22.546 C147.548,21.741996 147.386002,21.1510019 147.062,20.773 C146.737998,20.3949981 146.300003,20.206 145.748,20.206 C145.087997,20.206 144.539002,20.4759973 144.101,21.016 C143.662998,21.5560027 143.444,22.3179951 143.444,23.302 L143.444,28 L141.95,28 L141.95,19.144 Z" id="H4-Regular-18-" fill="#000000"></path>
                    </g>
                    <rect id="Rectangle-2-Copy-5" fill="#AAB1B6" x="33" y="75" width="272" height="6" rx="3"></rect>
                    <rect id="Rectangle-2-Copy-6" fill="#AAB1B6" x="33" y="95" width="177" height="6" rx="3"></rect>
                </g>
                <g id="Group-7" transform="translate(0.000000, 155.000000)">
                    <g id="PanelHeaderFooter-Copy-2">
                        <g id="Panel-">
                            <use fill="#FFFFFF" fill-rule="evenodd" xlink:href="#path-2"></use>
                            <rect stroke="#D2D6D9" stroke-width="1" x="0.5" y="0.5" width="336" height="138"></rect>
                        </g>
                        <rect id="Header-bg-" fill="#F5F6F6" x="1" y="1" width="335" height="44"></rect>
                        <path d="M21.71,25.066 C22.0820019,25.6180028 22.5859968,26.0649983 23.222,26.407 C23.8580032,26.7490017 24.6079957,26.92 25.472,26.92 C25.880002,26.92 26.2609982,26.8660005 26.615,26.758 C26.9690018,26.6499995 27.2749987,26.494001 27.533,26.29 C27.7910013,26.085999 27.9919993,25.8370015 28.136,25.543 C28.2800007,25.2489985 28.352,24.9220018 28.352,24.562 C28.352,24.1899981 28.2650009,23.8780013 28.091,23.626 C27.9169991,23.3739987 27.6800015,23.1610009 27.38,22.987 C27.0799985,22.8129991 26.7230021,22.6600007 26.309,22.528 C25.8949979,22.3959993 25.4480024,22.2640007 24.968,22.132 C24.4279973,21.9759992 23.9270023,21.802001 23.465,21.61 C23.0029977,21.417999 22.6040017,21.1810014 22.268,20.899 C21.9319983,20.6169986 21.668001,20.2870019 21.476,19.909 C21.283999,19.5309981 21.188,19.0780026 21.188,18.55 C21.188,18.0099973 21.292999,17.5240022 21.503,17.092 C21.713001,16.6599978 22.0099981,16.2910015 22.394,15.985 C22.7780019,15.6789985 23.2309974,15.4420008 23.753,15.274 C24.2750026,15.1059992 24.8539968,15.022 25.49,15.022 C26.3660044,15.022 27.1759963,15.1689985 27.92,15.463 C28.6640037,15.7570015 29.2999974,16.1919971 29.828,16.768 L28.73,17.794 C28.3459981,17.3739979 27.8750028,17.0320013 27.317,16.768 C26.7589972,16.5039987 26.1440034,16.372 25.472,16.372 C24.7039962,16.372 24.0770024,16.5369983 23.591,16.867 C23.1049976,17.1970016 22.862,17.6979966 22.862,18.37 C22.862,18.7060017 22.9369992,18.9939988 23.087,19.234 C23.2370007,19.4740012 23.4469987,19.6839991 23.717,19.864 C23.9870013,20.0440009 24.3049982,20.2029993 24.671,20.341 C25.0370018,20.4790007 25.4419978,20.6079994 25.886,20.728 C26.5460033,20.9080009 27.1339974,21.1029989 27.65,21.313 C28.1660026,21.5230011 28.5979983,21.7719986 28.946,22.06 C29.2940017,22.3480014 29.5579991,22.6809981 29.738,23.059 C29.9180009,23.4370019 30.008,23.8779975 30.008,24.382 C30.008,24.9940031 29.8880012,25.5429976 29.648,26.029 C29.4079988,26.5150024 29.0810021,26.9229984 28.667,27.253 C28.2529979,27.5830016 27.7670028,27.8349991 27.209,28.009 C26.6509972,28.1830009 26.0600031,28.27 25.436,28.27 C24.2839942,28.27 23.312004,28.0870018 22.52,27.721 C21.727996,27.3549982 21.0920024,26.8300034 20.612,26.146 L21.71,25.066 Z M31.88,19.144 L33.176,19.144 L33.338,20.872 C33.5540011,20.2599969 33.8899977,19.7770018 34.346,19.423 C34.8020023,19.0689982 35.3599967,18.892 36.02,18.892 C36.7160035,18.892 37.261998,19.089998 37.658,19.486 C38.054002,19.882002 38.3059995,20.3619972 38.414,20.926 C38.5220005,20.6499986 38.6569992,20.3890012 38.819,20.143 C38.9810008,19.8969988 39.1759989,19.6810009 39.404,19.495 C39.6320011,19.3089991 39.8959985,19.1620005 40.196,19.054 C40.4960015,18.9459995 40.8379981,18.892 41.222,18.892 C41.7260025,18.892 42.1429983,18.9789991 42.473,19.153 C42.8030016,19.3270009 43.066999,19.5639985 43.265,19.864 C43.463001,20.1640015 43.6039996,20.514998 43.688,20.917 C43.7720004,21.319002 43.814,21.7419978 43.814,22.186 L43.814,28 L42.32,28 L42.32,22.564 C42.32,21.771996 42.1790014,21.1810019 41.897,20.791 C41.6149986,20.400998 41.2040027,20.206 40.664,20.206 C40.0759971,20.206 39.584002,20.4669974 39.188,20.989 C38.791998,21.5110026 38.594,22.2579951 38.594,23.23 L38.594,28 L37.1,28 L37.1,22.636 C37.1,21.8079959 36.9560014,21.196002 36.668,20.8 C36.3799986,20.403998 35.9780026,20.206 35.462,20.206 C34.8859971,20.206 34.394002,20.4729973 33.986,21.007 C33.577998,21.5410027 33.374,22.311995 33.374,23.32 L33.374,28 L31.88,28 L31.88,19.144 Z M51.644,28 C51.5119993,27.5679978 51.4340001,27.052003 51.41,26.452 C51.1699988,27.0040028 50.8010025,27.4449983 50.303,27.775 C49.8049975,28.1050016 49.2140034,28.27 48.53,28.27 C47.6659957,28.27 46.9820025,28.0240025 46.478,27.532 C45.9739975,27.0399975 45.722,26.3800041 45.722,25.552 C45.722,25.0839977 45.8059992,24.6910016 45.974,24.373 C46.1420008,24.0549984 46.3759985,23.791001 46.676,23.581 C46.9760015,23.370999 47.329998,23.2060006 47.738,23.086 C48.146002,22.9659994 48.5899976,22.8700004 49.07,22.798 L51.338,22.456 L51.338,21.898 C51.338,21.501998 51.2900005,21.1840012 51.194,20.944 C51.0979995,20.7039988 50.9660008,20.5180007 50.798,20.386 C50.6299992,20.2539993 50.4380011,20.1670002 50.222,20.125 C50.0059989,20.0829998 49.7780012,20.062 49.538,20.062 C48.8539966,20.062 48.2900022,20.1879987 47.846,20.44 C47.4019978,20.6920013 47.0300015,21.0099981 46.73,21.394 L45.956,20.422 C46.3040017,20.0019979 46.7869969,19.6420015 47.405,19.342 C48.0230031,19.0419985 48.7879954,18.892 49.7,18.892 C50.8040055,18.892 51.6049975,19.1379975 52.103,19.63 C52.6010025,20.1220025 52.85,20.9139945 52.85,22.006 L52.85,25.588 C52.85,25.8760014 52.853,26.1279989 52.859,26.344 C52.865,26.5600011 52.8769999,26.7609991 52.895,26.947 C52.9130001,27.1330009 52.9399998,27.3099992 52.976,27.478 C53.0120002,27.6460008 53.0599997,27.8199991 53.12,28 L51.644,28 Z M51.338,23.446 L49.214,23.788 C48.4819963,23.9200007 47.9630015,24.1179987 47.657,24.382 C47.3509985,24.6460013 47.198,25.0119977 47.198,25.48 C47.198,25.9600024 47.3389986,26.3619984 47.621,26.686 C47.9030014,27.0100016 48.3199972,27.172 48.872,27.172 C49.2080017,27.172 49.5259985,27.1060007 49.826,26.974 C50.1260015,26.8419993 50.3869989,26.6590012 50.609,26.425 C50.8310011,26.1909988 51.0079993,25.9090017 51.14,25.579 C51.2720007,25.2489984 51.338,24.886002 51.338,24.49 L51.338,23.446 Z M55.244,15.292 L56.738,15.292 L56.738,28 L55.244,28 L55.244,15.292 Z M59.042,15.292 L60.536,15.292 L60.536,28 L59.042,28 L59.042,15.292 Z M72.848,26.272 C72.6079988,26.872003 72.2540023,27.3459983 71.786,27.694 C71.3179977,28.0420017 70.7360035,28.216 70.04,28.216 C69.4879972,28.216 68.9930022,28.1020011 68.555,27.874 C68.1169978,27.6459989 67.7450015,27.328002 67.439,26.92 C67.1329985,26.511998 66.8990008,26.0200029 66.737,25.444 C66.5749992,24.8679971 66.494,24.2320035 66.494,23.536 C66.494,22.8159964 66.5779992,22.1710029 66.746,21.601 C66.9140008,21.0309971 67.1539984,20.548002 67.466,20.152 C67.7780016,19.755998 68.1529978,19.4500011 68.591,19.234 C69.0290022,19.0179989 69.5119974,18.91 70.04,18.91 C70.7600036,18.91 71.3479977,19.0809983 71.804,19.423 C72.2600023,19.7650017 72.583999,20.1759976 72.776,20.656 L72.776,15.292 L74.288,15.292 L74.288,28 L72.848,28 L72.848,26.272 Z M72.776,23.518 C72.776,23.1459981 72.7670001,22.855001 72.749,22.645 C72.7309999,22.434999 72.7100001,22.2640007 72.686,22.132 C72.6259997,21.8679987 72.5360006,21.6160012 72.416,21.376 C72.2959994,21.1359988 72.1430009,20.9230009 71.957,20.737 C71.7709991,20.5509991 71.5520013,20.4040005 71.3,20.296 C71.0479987,20.1879995 70.7600016,20.134 70.436,20.134 C70.027998,20.134 69.6770015,20.2239991 69.383,20.404 C69.0889985,20.5840009 68.843001,20.8269985 68.645,21.133 C68.446999,21.4390015 68.3000005,21.7989979 68.204,22.213 C68.1079995,22.6270021 68.06,23.0679977 68.06,23.536 C68.06,24.0400025 68.1139995,24.5049979 68.222,24.931 C68.3300005,25.3570021 68.485999,25.7229985 68.69,26.029 C68.894001,26.3350015 69.1459985,26.5749991 69.446,26.749 C69.7460015,26.9230009 70.0879981,27.01 70.472,27.01 C70.7720015,27.01 71.0449988,26.9560005 71.291,26.848 C71.5370012,26.7399995 71.7529991,26.590001 71.939,26.398 C72.1250009,26.205999 72.2779994,25.9870012 72.398,25.741 C72.5180006,25.4949988 72.6079997,25.2340014 72.668,24.958 C72.7400004,24.6219983 72.776,24.1720028 72.776,23.608 L72.776,23.518 Z M77.708,23.914 C77.7680003,24.9340051 78.0289977,25.7229972 78.491,26.281 C78.9530023,26.8390028 79.5979959,27.118 80.426,27.118 C81.4700052,27.118 82.2559974,26.6260049 82.784,25.642 L83.918,26.272 C83.5699983,26.8600029 83.1080029,27.3399981 82.532,27.712 C81.9559971,28.0840019 81.2300044,28.27 80.354,28.27 C79.6579965,28.27 79.0490026,28.1500012 78.527,27.91 C78.0049974,27.6699988 77.5700017,27.3400021 77.222,26.92 C76.8739983,26.4999979 76.6130009,26.0080028 76.439,25.444 C76.2649991,24.8799972 76.178,24.2740032 76.178,23.626 C76.178,22.9899968 76.2619992,22.3840029 76.43,21.808 C76.5980008,21.2319971 76.8529983,20.7280022 77.195,20.296 C77.5370017,19.8639978 77.9569975,19.5220013 78.455,19.27 C78.9530025,19.0179987 79.5379966,18.892 80.21,18.892 C80.8580032,18.892 81.4219976,19.0149988 81.902,19.261 C82.3820024,19.5070012 82.7809984,19.8369979 83.099,20.251 C83.4170016,20.6650021 83.6569992,21.1449973 83.819,21.691 C83.9810008,22.2370027 84.062,22.8159969 84.062,23.428 C84.062,23.5600007 84.059,23.6619996 84.053,23.734 C84.047,23.8060004 84.044,23.8659998 84.044,23.914 L77.708,23.914 Z M80.192,20.026 C79.4359962,20.026 78.8510021,20.2959973 78.437,20.836 C78.0229979,21.3760027 77.7860003,22.1019954 77.726,23.014 L82.532,23.014 C82.532,22.6419981 82.4900004,22.2790018 82.406,21.925 C82.3219996,21.5709982 82.184001,21.2530014 81.992,20.971 C81.799999,20.6889986 81.5570015,20.4610009 81.263,20.287 C80.9689985,20.1129991 80.6120021,20.026 80.192,20.026 Z M86.042,25.822 C86.3420015,26.2060019 86.7289976,26.5239987 87.203,26.776 C87.6770024,27.0280013 88.1959972,27.154 88.76,27.154 C89.2640025,27.154 89.7019981,27.0340012 90.074,26.794 C90.4460019,26.5539988 90.632,26.1940024 90.632,25.714 C90.632,25.3419981 90.5090012,25.051001 90.263,24.841 C90.0169988,24.6309989 89.7110018,24.4540007 89.345,24.31 C88.9789982,24.1659993 88.5800022,24.0340006 88.148,23.914 C87.7159978,23.7939994 87.3170018,23.638001 86.951,23.446 C86.5849982,23.253999 86.2790012,23.0020016 86.033,22.69 C85.7869988,22.3779984 85.664,21.9520027 85.664,21.412 C85.664,20.9679978 85.7539991,20.5870016 85.934,20.269 C86.1140009,19.9509984 86.3509985,19.690001 86.645,19.486 C86.9390015,19.281999 87.2779981,19.1320005 87.662,19.036 C88.0460019,18.9399995 88.4479979,18.892 88.868,18.892 C90.1160062,18.892 91.1539959,19.2519964 91.982,19.972 L91.226,20.98 C90.9619987,20.7039986 90.6110022,20.4730009 90.173,20.287 C89.7349978,20.1009991 89.2820023,20.008 88.814,20.008 C88.609999,20.008 88.409001,20.0319998 88.211,20.08 C88.012999,20.1280002 87.8390008,20.2029995 87.689,20.305 C87.5389993,20.4070005 87.4190005,20.5359992 87.329,20.692 C87.2389996,20.8480008 87.194,21.0399989 87.194,21.268 C87.194,21.6160017 87.3169988,21.885999 87.563,22.078 C87.8090012,22.270001 88.1149982,22.4349993 88.481,22.573 C88.8470018,22.7110007 89.2429979,22.8429994 89.669,22.969 C90.0950021,23.0950006 90.4909982,23.256999 90.857,23.455 C91.2230018,23.653001 91.5289988,23.9139984 91.775,24.238 C92.0210012,24.5620016 92.144,24.9939973 92.144,25.534 C92.144,25.9900023 92.0510009,26.3889983 91.865,26.731 C91.6789991,27.0730017 91.4330015,27.3579989 91.127,27.586 C90.8209985,27.8140011 90.467002,27.9849994 90.065,28.099 C89.662998,28.2130006 89.2460022,28.27 88.814,28.27 C87.3259926,28.27 86.1440044,27.7900048 85.268,26.83 L86.042,25.822 Z M101.288,26.056 C100.927998,26.7760036 100.445003,27.3249981 99.839,27.703 C99.232997,28.0810019 98.4980043,28.27 97.634,28.27 C96.9259965,28.27 96.3110026,28.1470012 95.789,27.901 C95.2669974,27.6549988 94.8350017,27.3220021 94.493,26.902 C94.1509983,26.4819979 93.8990008,25.9870028 93.737,25.417 C93.5749992,24.8469971 93.494,24.2380032 93.494,23.59 C93.494,22.9299967 93.5809991,22.3150028 93.755,21.745 C93.9290009,21.1749971 94.1869983,20.6800021 94.529,20.26 C94.8710017,19.8399979 95.2999974,19.5070012 95.816,19.261 C96.3320026,19.0149988 96.9379965,18.892 97.634,18.892 C98.5100044,18.892 99.2389971,19.086998 99.821,19.477 C100.403003,19.8670019 100.873998,20.4159965 101.234,21.124 L99.974,21.718 C99.5179977,20.6139945 98.7500054,20.062 97.67,20.062 C97.2139977,20.062 96.8210017,20.1519991 96.491,20.332 C96.1609983,20.5120009 95.891001,20.7579984 95.681,21.07 C95.470999,21.3820016 95.3150005,21.7449979 95.213,22.159 C95.1109995,22.5730021 95.06,23.0199976 95.06,23.5 C95.06,23.9560023 95.1079995,24.3999978 95.204,24.832 C95.3000005,25.2640022 95.4559989,25.6479983 95.672,25.984 C95.8880011,26.3200017 96.1639983,26.589999 96.5,26.794 C96.8360017,26.998001 97.2499975,27.1 97.742,27.1 C98.3660031,27.1 98.8699981,26.9410016 99.254,26.623 C99.6380019,26.3049984 99.931999,25.8940025 100.136,25.39 L101.288,26.056 Z M102.944,19.144 L104.24,19.144 L104.384,21.124 C104.636001,20.4759968 105.037997,19.9420021 105.59,19.522 C106.142003,19.1019979 106.795996,18.892 107.552,18.892 L107.552,20.476 C107.383999,20.4399998 107.198001,20.422 106.994,20.422 C106.693999,20.422 106.394002,20.4759995 106.094,20.584 C105.793999,20.6920005 105.521001,20.8659988 105.275,21.106 C105.028999,21.3460012 104.828001,21.6549981 104.672,22.033 C104.515999,22.4110019 104.438,22.8699973 104.438,23.41 L104.438,28 L102.944,28 L102.944,19.144 Z M109.028,15.706 L110.522,15.706 L110.522,17.2 L109.028,17.2 L109.028,15.706 Z M109.028,19.144 L110.522,19.144 L110.522,28 L109.028,28 L109.028,19.144 Z M112.826,19.144 L114.32,19.144 L114.32,20.854 C114.428001,20.6019987 114.565999,20.3560012 114.734,20.116 C114.902001,19.8759988 115.102999,19.6660009 115.337,19.486 C115.571001,19.3059991 115.843998,19.1620005 116.156,19.054 C116.468002,18.9459995 116.821998,18.892 117.218,18.892 C117.794003,18.892 118.294998,19.0119988 118.721,19.252 C119.147002,19.4920012 119.497999,19.8219979 119.774,20.242 C120.050001,20.6620021 120.256999,21.1509972 120.395,21.709 C120.533001,22.2670028 120.602,22.8699968 120.602,23.518 C120.602,24.2860038 120.512001,24.9639971 120.332,25.552 C120.151999,26.1400029 119.900002,26.631998 119.576,27.028 C119.251998,27.424002 118.874002,27.723999 118.442,27.928 C118.009998,28.132001 117.542003,28.234 117.038,28.234 C116.377997,28.234 115.811002,28.0720016 115.337,27.748 C114.862998,27.4239984 114.524001,27.0220024 114.32,26.542 L114.32,31.114 L112.826,31.114 L112.826,19.144 Z M114.32,23.626 C114.32,23.8780013 114.329,24.108999 114.347,24.319 C114.365,24.529001 114.386,24.7059993 114.41,24.85 C114.458,25.1380014 114.547999,25.4139987 114.68,25.678 C114.812001,25.9420013 114.973999,26.172999 115.166,26.371 C115.358001,26.569001 115.582999,26.7279994 115.841,26.848 C116.099001,26.9680006 116.383998,27.028 116.696,27.028 C117.104002,27.028 117.454999,26.932001 117.749,26.74 C118.043001,26.547999 118.285999,26.2900016 118.478,25.966 C118.670001,25.6419984 118.811,25.2730021 118.901,24.859 C118.991,24.4449979 119.036,24.0160022 119.036,23.572 C119.036,23.1279978 118.994,22.6990021 118.91,22.285 C118.826,21.8709979 118.691001,21.5050016 118.505,21.187 C118.318999,20.8689984 118.076002,20.614001 117.776,20.422 C117.475999,20.229999 117.116002,20.134 116.696,20.134 C116.371998,20.134 116.075001,20.1939994 115.805,20.314 C115.534999,20.4340006 115.304001,20.595999 115.112,20.8 C114.919999,21.004001 114.761001,21.2379987 114.635,21.502 C114.508999,21.7660013 114.428,22.0419986 114.392,22.33 C114.368,22.4500006 114.35,22.614999 114.338,22.825 C114.326,23.035001 114.32,23.2779986 114.32,23.554 L114.32,23.626 Z M123.284,20.17 L121.772,20.17 L121.772,19.144 L122.096,19.144 C122.468002,19.144 122.758999,19.1050004 122.969,19.027 C123.179001,18.9489996 123.337999,18.8290008 123.446,18.667 C123.554001,18.5049992 123.632,18.2920013 123.68,18.028 C123.728,17.7639987 123.77,17.4400019 123.806,17.056 L123.842,16.732 L124.778,16.732 L124.778,19.144 L126.686,19.144 L126.686,20.17 L124.778,20.17 L124.778,25.678 C124.778,26.1820025 124.852999,26.5449989 125.003,26.767 C125.153001,26.9890011 125.431998,27.1 125.84,27.1 C126.164002,27.1 126.463999,27.0280007 126.74,26.884 L126.902,27.964 C126.445998,28.168001 125.942003,28.27 125.39,28.27 C124.957998,28.27 124.607001,28.2100006 124.337,28.09 C124.066999,27.9699994 123.854001,27.808001 123.698,27.604 C123.541999,27.399999 123.434,27.1540014 123.374,26.866 C123.314,26.5779986 123.284,26.2660017 123.284,25.93 L123.284,20.17 Z M128.486,15.706 L129.98,15.706 L129.98,17.2 L128.486,17.2 L128.486,15.706 Z M128.486,19.144 L129.98,19.144 L129.98,28 L128.486,28 L128.486,19.144 Z M135.956,28.27 C135.283997,28.27 134.693003,28.1470012 134.183,27.901 C133.672997,27.6549988 133.247002,27.3190021 132.905,26.893 C132.562998,26.4669979 132.308001,25.9690028 132.14,25.399 C131.971999,24.8289971 131.888,24.2140033 131.888,23.554 C131.888,22.8939967 131.974999,22.2820028 132.149,21.718 C132.323001,21.1539972 132.580998,20.6620021 132.923,20.242 C133.265002,19.8219979 133.690997,19.4920012 134.201,19.252 C134.711003,19.0119988 135.295997,18.892 135.956,18.892 C136.616003,18.892 137.200997,19.0119988 137.711,19.252 C138.221003,19.4920012 138.649998,19.8189979 138.998,20.233 C139.346002,20.6470021 139.606999,21.1389972 139.781,21.709 C139.955001,22.2790028 140.042,22.8939967 140.042,23.554 C140.042,24.2140033 139.955001,24.8289971 139.781,25.399 C139.606999,25.9690028 139.346002,26.4669979 138.998,26.893 C138.649998,27.3190021 138.221003,27.6549988 137.711,27.901 C137.200997,28.1470012 136.616003,28.27 135.956,28.27 Z M135.992,27.1 C136.400002,27.1 136.759998,27.0100009 137.072,26.83 C137.384002,26.6499991 137.641999,26.4010016 137.846,26.083 C138.050001,25.7649984 138.205999,25.3900022 138.314,24.958 C138.422001,24.5259978 138.476,24.0580025 138.476,23.554 C138.476,23.0499975 138.422001,22.5850021 138.314,22.159 C138.205999,21.7329979 138.044001,21.3640016 137.828,21.052 C137.611999,20.7399984 137.348002,20.4970009 137.036,20.323 C136.723998,20.1489991 136.364002,20.062 135.956,20.062 C135.535998,20.062 135.170002,20.1489991 134.858,20.323 C134.545998,20.4970009 134.288001,20.7399984 134.084,21.052 C133.879999,21.3640016 133.724001,21.7329979 133.616,22.159 C133.507999,22.5850021 133.454,23.0499975 133.454,23.554 C133.454,24.0580025 133.507999,24.5259978 133.616,24.958 C133.724001,25.3900022 133.882999,25.7649984 134.093,26.083 C134.303001,26.4010016 134.566998,26.6499991 134.885,26.83 C135.203002,27.0100009 135.571998,27.1 135.992,27.1 Z M141.95,19.144 L143.246,19.144 L143.408,20.908 C143.636001,20.3679973 143.998998,19.897002 144.497,19.495 C144.995002,19.092998 145.609996,18.892 146.342,18.892 C147.266005,18.892 147.946998,19.1859971 148.385,19.774 C148.823002,20.3620029 149.042,21.1839947 149.042,22.24 L149.042,28 L147.548,28 L147.548,22.546 C147.548,21.741996 147.386002,21.1510019 147.062,20.773 C146.737998,20.3949981 146.300003,20.206 145.748,20.206 C145.087997,20.206 144.539002,20.4759973 144.101,21.016 C143.662998,21.5560027 143.444,22.3179951 143.444,23.302 L143.444,28 L141.95,28 L141.95,19.144 Z" id="H4-Regular-18-" fill="#000000"></path>
                    </g>
                    <rect id="Rectangle-2-Copy-7" fill="#AAB1B6" x="33" y="75" width="272" height="6" rx="3"></rect>
                    <rect id="Rectangle-2-Copy-8" fill="#AAB1B6" x="33" y="95" width="177" height="6" rx="3"></rect>
                </g>
            </g>
        </g>
    </g>
</svg>