<?xml version="1.0" encoding="UTF-8"?>
<svg width="321px" height="64px" viewBox="0 0 321 64" version="1.1" xmlns="http://www.w3.org/2000/svg" xmlns:xlink="http://www.w3.org/1999/xlink">
    <!-- Generator: Sketch 47 (45396) - http://www.bohemiancoding.com/sketch -->
    <title>CrowdWithActionLinks</title>
    <desc>Created with Sketch.</desc>
    <defs></defs>
    <g id="Page-1" stroke="none" stroke-width="1" fill="none" fill-rule="evenodd">
        <g id="Buttons-Usage-extra-large-1200" transform="translate(-775.000000, -2330.000000)">
            <g id="CrowdWithActionLinks" transform="translate(775.000000, 2330.000000)">
                <rect id="Blue" fill="#4AC7ED" x="0" y="0" width="20" height="4"></rect>
                <rect id="Orange" fill="#F48C3B" x="20" y="0" width="52" height="4"></rect>
                <rect id="Grey" fill="#A9B1B5" x="72" y="0" width="103" height="4"></rect>
                <rect id="Green" fill="#ADC543" x="175" y="0" width="146" height="4"></rect>
                <rect id="Bar" fill="#495C6A" x="0" y="4" width="321" height="60"></rect>
                <path d="M126,26 L130.266,26 C130.902003,26 131.489997,26.0719993 132.03,26.216 C132.570003,26.3600007 133.034998,26.5819985 133.425,26.882 C133.815002,27.1820015 134.120999,27.5629977 134.343,28.025 C134.565001,28.4870023 134.676,29.0419968 134.676,29.69 C134.676,30.4100036 134.565001,31.0219975 134.343,31.526 C134.120999,32.0300025 133.812002,32.4379984 133.416,32.75 C133.019998,33.0620016 132.555003,33.2869993 132.021,33.425 C131.486997,33.5630007 130.908003,33.632 130.284,33.632 L127.62,33.632 L127.62,38.708 L126,38.708 L126,26 Z M130.014,32.336 C130.950005,32.336 131.675997,32.135002 132.192,31.733 C132.708003,31.330998 132.966,30.6500048 132.966,29.69 C132.966,29.2459978 132.891001,28.8680016 132.741,28.556 C132.590999,28.2439984 132.387001,27.992001 132.129,27.8 C131.870999,27.607999 131.565002,27.4700004 131.211,27.386 C130.856998,27.3019996 130.476002,27.26 130.068,27.26 L127.62,27.26 L127.62,32.336 L130.014,32.336 Z M141.48,38.708 C141.347999,38.2759978 141.27,37.760003 141.246,37.16 C141.005999,37.7120028 140.637002,38.1529984 140.139,38.483 C139.640998,38.8130017 139.050003,38.978 138.366,38.978 C137.501996,38.978 136.818003,38.7320025 136.314,38.24 C135.809997,37.7479975 135.558,37.0880041 135.558,36.26 C135.558,35.7919977 135.641999,35.3990016 135.81,35.081 C135.978001,34.7629984 136.211998,34.4990011 136.512,34.289 C136.812002,34.0789989 137.165998,33.9140006 137.574,33.794 C137.982002,33.6739994 138.425998,33.5780004 138.906,33.506 L141.174,33.164 L141.174,32.606 C141.174,32.209998 141.126,31.8920012 141.03,31.652 C140.934,31.4119988 140.802001,31.2260007 140.634,31.094 C140.465999,30.9619993 140.274001,30.8750002 140.058,30.833 C139.841999,30.7909998 139.614001,30.77 139.374,30.77 C138.689997,30.77 138.126002,30.8959987 137.682,31.148 C137.237998,31.4000013 136.866002,31.7179981 136.566,32.102 L135.792,31.13 C136.140002,30.7099979 136.622997,30.3500015 137.241,30.05 C137.859003,29.7499985 138.623995,29.6 139.536,29.6 C140.640006,29.6 141.440998,29.8459975 141.939,30.338 C142.437002,30.8300025 142.686,31.6219945 142.686,32.714 L142.686,36.296 C142.686,36.5840014 142.689,36.8359989 142.695,37.052 C142.701,37.2680011 142.713,37.4689991 142.731,37.655 C142.749,37.8410009 142.776,38.0179992 142.812,38.186 C142.848,38.3540008 142.896,38.5279991 142.956,38.708 L141.48,38.708 Z M141.174,34.154 L139.05,34.496 C138.317996,34.6280007 137.799002,34.8259987 137.493,35.09 C137.186998,35.3540013 137.034,35.7199977 137.034,36.188 C137.034,36.6680024 137.174999,37.0699984 137.457,37.394 C137.739001,37.7180016 138.155997,37.88 138.708,37.88 C139.044002,37.88 139.361998,37.8140007 139.662,37.682 C139.962001,37.5499993 140.222999,37.3670012 140.445,37.133 C140.667001,36.8989988 140.843999,36.6170017 140.976,36.287 C141.108001,35.9569984 141.174,35.594002 141.174,35.198 L141.174,34.154 Z M145.8,39.77 C146.148002,40.1060017 146.564998,40.372999 147.051,40.571 C147.537002,40.769001 148.055997,40.868 148.608,40.868 C149.064002,40.868 149.435999,40.7990007 149.724,40.661 C150.012001,40.5229993 150.239999,40.3340012 150.408,40.094 C150.576001,39.8539988 150.693,39.5810015 150.759,39.275 C150.825,38.9689985 150.858,38.6420017 150.858,38.294 L150.858,36.656 C150.629999,37.1960027 150.288002,37.6309983 149.832,37.961 C149.375998,38.2910016 148.788004,38.456 148.068,38.456 C147.551997,38.456 147.084002,38.357001 146.664,38.159 C146.243998,37.960999 145.884001,37.6760019 145.584,37.304 C145.283998,36.9319981 145.053001,36.4760027 144.891,35.936 C144.728999,35.3959973 144.648,34.7900034 144.648,34.118 C144.648,33.4579967 144.728999,32.8520028 144.891,32.3 C145.053001,31.7479972 145.286998,31.274002 145.593,30.878 C145.899002,30.481998 146.270998,30.1730011 146.709,29.951 C147.147002,29.7289989 147.635997,29.618 148.176,29.618 C148.884004,29.618 149.471998,29.7949982 149.94,30.149 C150.408002,30.5030018 150.743999,30.9559972 150.948,31.508 L151.2,29.852 L152.352,29.852 L152.352,38.258 C152.352,38.7620025 152.292001,39.2389977 152.172,39.689 C152.051999,40.1390023 151.848001,40.5379983 151.56,40.886 C151.271999,41.2340017 150.888002,41.509999 150.408,41.714 C149.927998,41.918001 149.328004,42.02 148.608,42.02 C147.827996,42.02 147.129003,41.9090011 146.511,41.687 C145.892997,41.4649989 145.374002,41.1860017 144.954,40.85 L145.8,39.77 Z M150.858,34.118 C150.858,33.913999 150.855,33.7190009 150.849,33.533 C150.843,33.3469991 150.828,33.2060005 150.804,33.11 C150.756,32.8219986 150.678001,32.5400014 150.57,32.264 C150.461999,31.9879986 150.315001,31.748001 150.129,31.544 C149.942999,31.339999 149.715001,31.1750006 149.445,31.049 C149.174999,30.9229994 148.860002,30.86 148.5,30.86 C148.103998,30.86 147.762001,30.9439992 147.474,31.112 C147.185999,31.2800008 146.949001,31.5079986 146.763,31.796 C146.576999,32.0840014 146.439,32.425998 146.349,32.822 C146.259,33.218002 146.214,33.6379978 146.214,34.082 C146.214,34.478002 146.256,34.870998 146.34,35.261 C146.424,35.6510019 146.555999,35.9959985 146.736,36.296 C146.916001,36.5960015 147.152999,36.8389991 147.447,37.025 C147.741001,37.2110009 148.097998,37.304 148.518,37.304 C149.106003,37.304 149.579998,37.1390016 149.94,36.809 C150.300002,36.4789983 150.551999,36.0620025 150.696,35.558 C150.756,35.3899992 150.798,35.1800013 150.822,34.928 C150.846,34.6759987 150.858,34.4360011 150.858,34.208 L150.858,34.118 Z M155.79,34.622 C155.85,35.6420051 156.110998,36.4309972 156.573,36.989 C157.035002,37.5470028 157.679996,37.826 158.508,37.826 C159.552005,37.826 160.337997,37.3340049 160.866,36.35 L162,36.98 C161.651998,37.5680029 161.190003,38.0479981 160.614,38.42 C160.037997,38.7920019 159.312004,38.978 158.436,38.978 C157.739997,38.978 157.131003,38.8580012 156.609,38.618 C156.086997,38.3779988 155.652002,38.0480021 155.304,37.628 C154.955998,37.2079979 154.695001,36.7160028 154.521,36.152 C154.346999,35.5879972 154.26,34.9820032 154.26,34.334 C154.26,33.6979968 154.343999,33.0920029 154.512,32.516 C154.680001,31.9399971 154.934998,31.4360022 155.277,31.004 C155.619002,30.5719978 156.038998,30.2300013 156.537,29.978 C157.035002,29.7259987 157.619997,29.6 158.292,29.6 C158.940003,29.6 159.503998,29.7229988 159.984,29.969 C160.464002,30.2150012 160.862998,30.5449979 161.181,30.959 C161.499002,31.3730021 161.738999,31.8529973 161.901,32.399 C162.063001,32.9450027 162.144,33.5239969 162.144,34.136 C162.144,34.2680007 162.141,34.3699996 162.135,34.442 C162.129,34.5140004 162.126,34.5739998 162.126,34.622 L155.79,34.622 Z M158.274,30.734 C157.517996,30.734 156.933002,31.0039973 156.519,31.544 C156.104998,32.0840027 155.868,32.8099954 155.808,33.722 L160.614,33.722 C160.614,33.3499981 160.572,32.9870018 160.488,32.633 C160.404,32.2789982 160.266001,31.9610014 160.074,31.679 C159.881999,31.3969986 159.639001,31.1690009 159.345,30.995 C159.050999,30.8209991 158.694002,30.734 158.274,30.734 Z M168.786,30.878 L167.274,30.878 L167.274,29.852 L167.598,29.852 C167.970002,29.852 168.260999,29.8130004 168.471,29.735 C168.681001,29.6569996 168.839999,29.5370008 168.948,29.375 C169.056001,29.2129992 169.134,29.0000013 169.182,28.736 C169.23,28.4719987 169.272,28.1480019 169.308,27.764 L169.344,27.44 L170.28,27.44 L170.28,29.852 L172.188,29.852 L172.188,30.878 L170.28,30.878 L170.28,36.386 C170.28,36.8900025 170.354999,37.2529989 170.505,37.475 C170.655001,37.6970011 170.933998,37.808 171.342,37.808 C171.666002,37.808 171.965999,37.7360007 172.242,37.592 L172.404,38.672 C171.947998,38.876001 171.444003,38.978 170.892,38.978 C170.459998,38.978 170.109001,38.9180006 169.839,38.798 C169.568999,38.6779994 169.356001,38.516001 169.2,38.312 C169.043999,38.107999 168.936,37.8620014 168.876,37.574 C168.816,37.2859986 168.786,36.9740017 168.786,36.638 L168.786,30.878 Z M173.988,26.414 L175.482,26.414 L175.482,27.908 L173.988,27.908 L173.988,26.414 Z M173.988,29.852 L175.482,29.852 L175.482,38.708 L173.988,38.708 L173.988,29.852 Z M178.56,30.878 L177.048,30.878 L177.048,29.852 L177.372,29.852 C177.744002,29.852 178.034999,29.8130004 178.245,29.735 C178.455001,29.6569996 178.613999,29.5370008 178.722,29.375 C178.830001,29.2129992 178.908,29.0000013 178.956,28.736 C179.004,28.4719987 179.046,28.1480019 179.082,27.764 L179.118,27.44 L180.054,27.44 L180.054,29.852 L181.962,29.852 L181.962,30.878 L180.054,30.878 L180.054,36.386 C180.054,36.8900025 180.128999,37.2529989 180.279,37.475 C180.429001,37.6970011 180.707998,37.808 181.116,37.808 C181.440002,37.808 181.739999,37.7360007 182.016,37.592 L182.178,38.672 C181.721998,38.876001 181.218003,38.978 180.666,38.978 C180.233998,38.978 179.883001,38.9180006 179.613,38.798 C179.342999,38.6779994 179.130001,38.516001 178.974,38.312 C178.817999,38.107999 178.71,37.8620014 178.65,37.574 C178.59,37.2859986 178.56,36.9740017 178.56,36.638 L178.56,30.878 Z M183.762,26 L185.256,26 L185.256,38.708 L183.762,38.708 L183.762,26 Z M188.694,34.622 C188.754,35.6420051 189.014998,36.4309972 189.477,36.989 C189.939002,37.5470028 190.583996,37.826 191.412,37.826 C192.456005,37.826 193.241997,37.3340049 193.77,36.35 L194.904,36.98 C194.555998,37.5680029 194.094003,38.0479981 193.518,38.42 C192.941997,38.7920019 192.216004,38.978 191.34,38.978 C190.643997,38.978 190.035003,38.8580012 189.513,38.618 C188.990997,38.3779988 188.556002,38.0480021 188.208,37.628 C187.859998,37.2079979 187.599001,36.7160028 187.425,36.152 C187.250999,35.5879972 187.164,34.9820032 187.164,34.334 C187.164,33.6979968 187.247999,33.0920029 187.416,32.516 C187.584001,31.9399971 187.838998,31.4360022 188.181,31.004 C188.523002,30.5719978 188.942998,30.2300013 189.441,29.978 C189.939002,29.7259987 190.523997,29.6 191.196,29.6 C191.844003,29.6 192.407998,29.7229988 192.888,29.969 C193.368002,30.2150012 193.766998,30.5449979 194.085,30.959 C194.403002,31.3730021 194.642999,31.8529973 194.805,32.399 C194.967001,32.9450027 195.048,33.5239969 195.048,34.136 C195.048,34.2680007 195.045,34.3699996 195.039,34.442 C195.033,34.5140004 195.03,34.5739998 195.03,34.622 L188.694,34.622 Z M191.178,30.734 C190.421996,30.734 189.837002,31.0039973 189.423,31.544 C189.008998,32.0840027 188.772,32.8099954 188.712,33.722 L193.518,33.722 C193.518,33.3499981 193.476,32.9870018 193.392,32.633 C193.308,32.2789982 193.170001,31.9610014 192.978,31.679 C192.785999,31.3969986 192.543001,31.1690009 192.249,30.995 C191.954999,30.8209991 191.598002,30.734 191.178,30.734 Z" id="Page-title" fill="#FFFFFF"></path>
                <path d="M26.2142857,26.0714286 C26.3333339,26.1904768 26.3928571,26.3273802 26.3928571,26.4821429 C26.3928571,26.6369055 26.3333339,26.7738089 26.2142857,26.8928571 L19.1964286,33.9107143 L26.2142857,40.9285714 C26.3333339,41.0476196 26.3928571,41.184523 26.3928571,41.3392857 C26.3928571,41.4940484 26.3333339,41.6309518 26.2142857,41.75 L25.3214286,42.6428571 C25.2023804,42.7619054 25.065477,42.8214286 24.9107143,42.8214286 C24.7559516,42.8214286 24.6190482,42.7619054 24.5,42.6428571 L16.1785714,34.3214286 C16.0595232,34.2023804 16,34.065477 16,33.9107143 C16,33.7559516 16.0595232,33.6190482 16.1785714,33.5 L24.5,25.1785714 C24.6190482,25.0595232 24.7559516,25 24.9107143,25 C25.065477,25 25.2023804,25.0595232 25.3214286,25.1785714 L26.2142857,26.0714286 Z" id="angle-left---FontAwesome-Copy" fill="#FFFFFF"></path>
                <g id="check" transform="translate(286.000000, 27.000000)" fill-rule="nonzero" fill="#FFFFFF">
                    <path d="M19,2.92943339 C19,3.26600358 18.885589,3.55213538 18.6567671,3.78782879 L8.11471205,14.6464599 C7.88589012,14.8821533 7.6081003,15 7.28134258,15 C6.95458487,15 6.67679505,14.8821533 6.44797312,14.6464599 L0.343232893,8.3583954 C0.114410964,8.12270199 0,7.83657019 0,7.5 C0,7.16342981 0.114410964,6.87729801 0.343232893,6.6416046 L2.01065828,4.92410672 C2.23948021,4.68841331 2.51727003,4.57056661 2.84402775,4.57056661 C3.17078546,4.57056661 3.44857528,4.68841331 3.67739721,4.92410672 L7.28134258,8.64900537 L15.3226028,0.353540115 C15.5514247,0.117846705 15.8292145,0 16.1559723,0 C16.48273,0 16.7605198,0.117846705 16.9893417,0.353540115 L18.6567671,2.07103799 C18.885589,2.3067314 19,2.5928632 19,2.92943339 Z" id="Shape"></path>
                </g>
                <g id="bell-(1)" transform="translate(227.000000, 25.000000)" fill-rule="nonzero" fill="#FFFFFF">
                    <path d="M8.66362657,17.0358449 C8.66362657,16.9285915 8.60908438,16.8749648 8.5,16.8749648 C8.09798972,16.8749648 7.752238,16.7326479 7.46274483,16.448014 C7.17325167,16.1633801 7.02850508,15.823432 7.02850508,15.4281696 C7.02850508,15.3209163 6.97396289,15.2672896 6.86487851,15.2672896 C6.75579413,15.2672896 6.70125194,15.3209163 6.70125194,15.4281696 C6.70125194,15.9171849 6.87670234,16.3340104 7.22760315,16.6786462 C7.57850396,17.023282 8.00244554,17.1957874 8.49942788,17.1961624 C8.60851226,17.1961624 8.66305445,17.1425357 8.66305445,17.0352824 L8.66362657,17.0358449 Z M17,14.142817 C17,14.4912029 16.87051,14.7925248 16.6115299,15.0467827 C16.3525499,15.3010407 16.0460838,15.4283571 15.6921317,15.4287321 L11.1151646,15.4287321 C11.1151646,16.1386293 10.8598079,16.7446483 10.3490947,17.246789 C9.83838146,17.7489297 9.22201656,18 8.5,18 C7.77798344,18 7.16161854,17.7489297 6.6509053,17.246789 C6.14019205,16.7446483 5.88483543,16.1386293 5.88483543,15.4287321 L1.30786834,15.4287321 C0.95353481,15.4287321 0.647068722,15.3014157 0.388470081,15.0467827 C0.129871441,14.7921498 0.000381413924,14.4908278 0,14.142817 C0.340602634,13.8615582 0.650501447,13.5669865 0.929696439,13.2591018 C1.20889143,12.9512172 1.4983846,12.5510797 1.79817594,12.0586893 C2.09796729,11.5662989 2.35160755,11.0356574 2.55909672,10.4667646 C2.7665859,9.89787181 2.93688721,9.20803775 3.07000067,8.39726241 C3.20311413,7.58648708 3.26948016,6.71589737 3.26909874,5.7854933 C3.26909874,4.76771149 3.66748558,3.82174443 4.46425927,2.94759211 C5.26103296,2.07343979 6.30648852,1.54279821 7.60062597,1.35566736 C7.54608378,1.22853839 7.51881268,1.09803431 7.51881268,0.96415513 C7.51881268,0.696396762 7.61416616,0.468764649 7.80487312,0.281258789 C7.99558009,0.0937529298 8.22709834,0 8.49942788,0 C8.77175742,0 9.00327567,0.0937529298 9.19398263,0.281258789 C9.3846896,0.468764649 9.48004308,0.696396762 9.48004308,0.96415513 C9.48004308,1.09803431 9.45277198,1.22853839 9.39822979,1.35566736 C10.6923672,1.54317322 11.7378228,2.07381481 12.5345965,2.94759211 C13.3313702,3.82136942 13.729757,4.76733648 13.729757,5.7854933 C13.729757,6.71627238 13.796123,7.58686209 13.9288551,8.39726241 C14.0615871,9.20766274 14.2318884,9.8974968 14.439759,10.4667646 C14.6476296,11.0360324 14.9012699,11.566674 15.2006798,12.0586893 C15.5000897,12.5507047 15.7895829,12.9508422 16.0691593,13.2591018 C16.3487357,13.5673615 16.6586345,13.8619332 16.9988558,14.142817 L17,14.142817 Z" id="Shape"></path>
                </g>
                <g id="comment" transform="translate(254.000000, 25.000000)" fill-rule="nonzero" fill="#FFFFFF">
                    <path d="M22,7.91685112 C22,9.35115848 21.5089112,10.6762886 20.5267335,11.8922415 C19.5445559,13.1081944 18.2106184,14.0686309 16.5249211,14.7735512 C14.8392238,15.4784715 12.997698,15.8309317 11.0003437,15.8309317 C10.427445,15.8309317 9.83415102,15.7979246 9.22046186,15.7319104 C7.59984584,17.1745273 5.71752966,18.1718948 3.57351333,18.7240132 C3.17248419,18.8394225 2.70591544,18.9301343 2.17380707,18.9961484 C2.03447809,19.0127673 1.90958616,18.9756055 1.79913128,18.884663 C1.6886764,18.7937204 1.61694947,18.6741563 1.5839505,18.5259707 L1.5839505,18.5135065 C1.55920127,18.4807303 1.55713884,18.4313351 1.57776319,18.3653209 C1.59838755,18.2993068 1.60663729,18.2579902 1.60251242,18.2413713 C1.59838755,18.2247523 1.61672031,18.1855131 1.6575107,18.1236537 L1.7310709,18.0121683 L1.81700572,17.906915 L1.91531515,17.7954296 C1.97260502,17.7294154 2.09955939,17.5872311 2.29617824,17.3688766 C2.4927971,17.1505221 2.63395936,16.9937962 2.71966501,16.8986989 C2.80537067,16.8036016 2.93232503,16.6408745 3.10052811,16.4105174 C3.26873119,16.1801603 3.4016437,15.9698845 3.49926565,15.7796899 C3.5968876,15.5894953 3.70734248,15.3462124 3.83063029,15.0498412 C3.95391811,14.75347 4.06024812,14.440249 4.14962032,14.1101783 C2.86449382,13.3766365 1.8516088,12.4697498 1.11096528,11.3895184 C0.370321761,10.3092869 0,9.15103868 0,7.91477376 C0,6.84331338 0.290574253,5.81894002 0.871722759,4.84165367 C1.45287126,3.86436733 2.23453434,3.02141746 3.21671198,2.31280407 C4.19888962,1.60419068 5.36920721,1.04145471 6.72766476,0.62459615 C8.08612231,0.20773759 9.51011948,-0.000460871395 10.9996563,7.65991239e-07 C12.9965522,7.65991239e-07 14.838078,0.352460911 16.5242336,1.0573812 C18.2103893,1.76230149 19.5443267,2.72273807 20.5260461,3.93869095 C21.5077654,5.15464382 21.9988542,6.47977394 21.9993125,7.9140813 L22,7.91685112 Z" id="Shape"></path>
                </g>
            </g>
        </g>
    </g>
</svg>