<?xml version="1.0" encoding="UTF-8"?>
<svg width="321px" height="152px" viewBox="0 0 321 152" version="1.1" xmlns="http://www.w3.org/2000/svg" xmlns:xlink="http://www.w3.org/1999/xlink">
    <!-- Generator: Sketch 47 (45396) - http://www.bohemiancoding.com/sketch -->
    <title>Consistency</title>
    <desc>Created with Sketch.</desc>
    <defs></defs>
    <g id="Page-1" stroke="none" stroke-width="1" fill="none" fill-rule="evenodd">
        <g id="Buttons-Usage-extra-large-1200" transform="translate(-343.000000, -2593.000000)">
            <g id="Consistency" transform="translate(343.000000, 2593.000000)">
                <g id="topbar">
                    <rect id="Blue" fill="#4AC7ED" x="0" y="0" width="20" height="4"></rect>
                    <rect id="Orange" fill="#F48C3B" x="20" y="0" width="52" height="4"></rect>
                    <rect id="Grey" fill="#A9B1B5" x="72" y="0" width="103" height="4"></rect>
                    <rect id="Green" fill="#ADC543" x="175" y="0" width="146" height="4"></rect>
                    <rect id="Bar" fill="#495C6A" x="0" y="4" width="321" height="60"></rect>
                    <path d="M139,28 L140.62,28 L140.62,33.49 L146.83,33.49 L146.83,28 L148.45,28 L148.45,40.708 L146.83,40.708 L146.83,34.84 L140.62,34.84 L140.62,40.708 L139,40.708 L139,28 Z M154.534,40.978 C153.861997,40.978 153.271003,40.8550012 152.761,40.609 C152.250997,40.3629988 151.825002,40.0270021 151.483,39.601 C151.140998,39.1749979 150.886001,38.6770028 150.718,38.107 C150.549999,37.5369972 150.466,36.9220033 150.466,36.262 C150.466,35.6019967 150.552999,34.9900028 150.727,34.426 C150.901001,33.8619972 151.158998,33.3700021 151.501,32.95 C151.843002,32.5299979 152.268997,32.2000012 152.779,31.96 C153.289003,31.7199988 153.873997,31.6 154.534,31.6 C155.194003,31.6 155.778997,31.7199988 156.289,31.96 C156.799003,32.2000012 157.227998,32.5269979 157.576,32.941 C157.924002,33.3550021 158.184999,33.8469972 158.359,34.417 C158.533001,34.9870028 158.62,35.6019967 158.62,36.262 C158.62,36.9220033 158.533001,37.5369972 158.359,38.107 C158.184999,38.6770028 157.924002,39.1749979 157.576,39.601 C157.227998,40.0270021 156.799003,40.3629988 156.289,40.609 C155.778997,40.8550012 155.194003,40.978 154.534,40.978 Z M154.57,39.808 C154.978002,39.808 155.337998,39.7180009 155.65,39.538 C155.962002,39.3579991 156.219999,39.1090016 156.424,38.791 C156.628001,38.4729984 156.783999,38.0980022 156.892,37.666 C157.000001,37.2339978 157.054,36.7660025 157.054,36.262 C157.054,35.7579975 157.000001,35.2930021 156.892,34.867 C156.783999,34.4409979 156.622001,34.0720016 156.406,33.76 C156.189999,33.4479984 155.926002,33.2050009 155.614,33.031 C155.301998,32.8569991 154.942002,32.77 154.534,32.77 C154.113998,32.77 153.748002,32.8569991 153.436,33.031 C153.123998,33.2050009 152.866001,33.4479984 152.662,33.76 C152.457999,34.0720016 152.302001,34.4409979 152.194,34.867 C152.085999,35.2930021 152.032,35.7579975 152.032,36.262 C152.032,36.7660025 152.085999,37.2339978 152.194,37.666 C152.302001,38.0980022 152.460999,38.4729984 152.671,38.791 C152.881001,39.1090016 153.144998,39.3579991 153.463,39.538 C153.781002,39.7180009 154.149998,39.808 154.57,39.808 Z M160.528,31.852 L161.824,31.852 L161.986,33.58 C162.202001,32.9679969 162.537998,32.4850018 162.994,32.131 C163.450002,31.7769982 164.007997,31.6 164.668,31.6 C165.364003,31.6 165.909998,31.797998 166.306,32.194 C166.702002,32.590002 166.953999,33.0699972 167.062,33.634 C167.170001,33.3579986 167.304999,33.0970012 167.467,32.851 C167.629001,32.6049988 167.823999,32.3890009 168.052,32.203 C168.280001,32.0169991 168.543999,31.8700005 168.844,31.762 C169.144002,31.6539995 169.485998,31.6 169.87,31.6 C170.374003,31.6 170.790998,31.6869991 171.121,31.861 C171.451002,32.0350009 171.714999,32.2719985 171.913,32.572 C172.111001,32.8720015 172.252,33.222998 172.336,33.625 C172.42,34.027002 172.462,34.4499978 172.462,34.894 L172.462,40.708 L170.968,40.708 L170.968,35.272 C170.968,34.479996 170.827001,33.889002 170.545,33.499 C170.262999,33.108998 169.852003,32.914 169.312,32.914 C168.723997,32.914 168.232002,33.1749974 167.836,33.697 C167.439998,34.2190026 167.242,34.9659951 167.242,35.938 L167.242,40.708 L165.748,40.708 L165.748,35.344 C165.748,34.5159959 165.604001,33.904002 165.316,33.508 C165.027999,33.111998 164.626003,32.914 164.11,32.914 C163.533997,32.914 163.042002,33.1809973 162.634,33.715 C162.225998,34.2490027 162.022,35.019995 162.022,36.028 L162.022,40.708 L160.528,40.708 L160.528,31.852 Z M175.864,36.622 C175.924,37.6420051 176.184998,38.4309972 176.647,38.989 C177.109002,39.5470028 177.753996,39.826 178.582,39.826 C179.626005,39.826 180.411997,39.3340049 180.94,38.35 L182.074,38.98 C181.725998,39.5680029 181.264003,40.0479981 180.688,40.42 C180.111997,40.7920019 179.386004,40.978 178.51,40.978 C177.813997,40.978 177.205003,40.8580012 176.683,40.618 C176.160997,40.3779988 175.726002,40.0480021 175.378,39.628 C175.029998,39.2079979 174.769001,38.7160028 174.595,38.152 C174.420999,37.5879972 174.334,36.9820032 174.334,36.334 C174.334,35.6979968 174.417999,35.0920029 174.586,34.516 C174.754001,33.9399971 175.008998,33.4360022 175.351,33.004 C175.693002,32.5719978 176.112998,32.2300013 176.611,31.978 C177.109002,31.7259987 177.693997,31.6 178.366,31.6 C179.014003,31.6 179.577998,31.7229988 180.058,31.969 C180.538002,32.2150012 180.936998,32.5449979 181.255,32.959 C181.573002,33.3730021 181.812999,33.8529973 181.975,34.399 C182.137001,34.9450027 182.218,35.5239969 182.218,36.136 C182.218,36.2680007 182.215,36.3699996 182.209,36.442 C182.203,36.5140004 182.2,36.5739998 182.2,36.622 L175.864,36.622 Z M178.348,32.734 C177.591996,32.734 177.007002,33.0039973 176.593,33.544 C176.178998,34.0840027 175.942,34.8099954 175.882,35.722 L180.688,35.722 C180.688,35.3499981 180.646,34.9870018 180.562,34.633 C180.478,34.2789982 180.340001,33.9610014 180.148,33.679 C179.955999,33.3969986 179.713001,33.1690009 179.419,32.995 C179.124999,32.8209991 178.768002,32.734 178.348,32.734 Z" id="Home" fill="#FFFFFF"></path>
                    <g id="navicon" transform="translate(20.000000, 25.000000)" fill-rule="nonzero" fill="#FFFFFF">
                        <path d="M21.8851528,16.2640543 L21.8851528,18.0880165 C21.8851528,18.3348286 21.794992,18.5486614 21.6146702,18.7295151 C21.4343485,18.9103687 21.2205157,19.0005296 20.9731717,18.9999977 L0.911980535,18.9999977 C0.665168495,18.9999977 0.451335649,18.9098368 0.270481999,18.7295151 C0.0896283487,18.5491933 -0.000532515217,18.3353605 -5.92716022e-07,18.0880165 L-5.92716022e-07,16.2640543 C-5.92716022e-07,16.0172422 0.0901602712,15.8034094 0.270481999,15.6225557 C0.450803727,15.4417021 0.664636572,15.3515412 0.911980535,15.3520731 L20.9731717,15.3520731 C21.2199837,15.3520731 21.4338166,15.442234 21.6146702,15.6225557 C21.7955239,15.8028775 21.8856847,16.0167103 21.8851528,16.2640543 Z M21.8851528,8.96900314 L21.8851528,10.7929654 C21.8851528,11.0397774 21.794992,11.2536103 21.6146702,11.4344639 C21.4343485,11.6153176 21.2205157,11.7054784 20.9731717,11.7049465 L0.911980535,11.7049465 C0.665168495,11.7049465 0.451335649,11.6147857 0.270481999,11.4344639 C0.0896283487,11.2541422 -0.000532515217,11.0403094 -5.92716022e-07,10.7929654 L-5.92716022e-07,8.96900314 C-5.92716022e-07,8.7221911 0.0901602712,8.50835825 0.270481999,8.3275046 C0.450803727,8.14665095 0.664636572,8.05649009 0.911980535,8.05702201 L20.9731717,8.05702201 C21.2199837,8.05702201 21.4338166,8.14718287 21.6146702,8.3275046 C21.7955239,8.50782633 21.8856847,8.72165918 21.8851528,8.96900314 L21.8851528,8.96900314 Z M21.8851528,1.673952 L21.8851528,3.49791425 C21.8851528,3.7447263 21.794992,3.95855914 21.6146702,4.13941279 C21.4343485,4.32026644 21.2205157,4.41042731 20.9731717,4.40989538 L0.911980535,4.40989538 C0.665168495,4.40989538 0.451335649,4.31973452 0.270481999,4.13941279 C0.0896283487,3.95909106 -0.000532515217,3.74525822 -5.92716022e-07,3.49791425 L-5.92716022e-07,1.673952 C-5.92716022e-07,1.42713996 0.0901602712,1.21330711 0.270481999,1.03245346 C0.450803727,0.851599813 0.664636572,0.761438949 0.911980535,0.761970872 L20.9731717,0.761970872 C21.2199837,0.761970872 21.4338166,0.852131735 21.6146702,1.03245346 C21.7955239,1.21277519 21.8856847,1.42660804 21.8851528,1.673952 L21.8851528,1.673952 Z" id="Shape"></path>
                    </g>
                </g>
                <g id="topbar-copy" transform="translate(0.000000, 88.000000)">
                    <rect id="Blue" fill="#4AC7ED" x="0" y="0" width="20" height="4"></rect>
                    <rect id="Orange" fill="#F48C3B" x="20" y="0" width="52" height="4"></rect>
                    <rect id="Grey" fill="#A9B1B5" x="72" y="0" width="103" height="4"></rect>
                    <rect id="Green" fill="#ADC543" x="175" y="0" width="146" height="4"></rect>
                    <rect id="Bar" fill="#495C6A" x="0" y="4" width="321" height="60"></rect>
                    <path d="M111.098,36.08 C111.470002,36.6320028 111.973997,37.0789983 112.61,37.421 C113.246003,37.7630017 113.995996,37.934 114.86,37.934 C115.268002,37.934 115.648998,37.8800005 116.003,37.772 C116.357002,37.6639995 116.662999,37.508001 116.921,37.304 C117.179001,37.099999 117.379999,36.8510015 117.524,36.557 C117.668001,36.2629985 117.74,35.9360018 117.74,35.576 C117.74,35.2039981 117.653001,34.8920013 117.479,34.64 C117.304999,34.3879987 117.068002,34.1750009 116.768,34.001 C116.467999,33.8269991 116.111002,33.6740007 115.697,33.542 C115.282998,33.4099993 114.836002,33.2780007 114.356,33.146 C113.815997,32.9899992 113.315002,32.816001 112.853,32.624 C112.390998,32.431999 111.992002,32.1950014 111.656,31.913 C111.319998,31.6309986 111.056001,31.3010019 110.864,30.923 C110.671999,30.5449981 110.576,30.0920026 110.576,29.564 C110.576,29.0239973 110.680999,28.5380022 110.891,28.106 C111.101001,27.6739978 111.397998,27.3050015 111.782,26.999 C112.166002,26.6929985 112.618997,26.4560008 113.141,26.288 C113.663003,26.1199992 114.241997,26.036 114.878,26.036 C115.754004,26.036 116.563996,26.1829985 117.308,26.477 C118.052004,26.7710015 118.687997,27.2059971 119.216,27.782 L118.118,28.808 C117.733998,28.3879979 117.263003,28.0460013 116.705,27.782 C116.146997,27.5179987 115.532003,27.386 114.86,27.386 C114.091996,27.386 113.465002,27.5509984 112.979,27.881 C112.492998,28.2110017 112.25,28.7119966 112.25,29.384 C112.25,29.7200017 112.324999,30.0079988 112.475,30.248 C112.625001,30.4880012 112.834999,30.6979991 113.105,30.878 C113.375001,31.0580009 113.692998,31.2169993 114.059,31.355 C114.425002,31.4930007 114.829998,31.6219994 115.274,31.742 C115.934003,31.9220009 116.521997,32.116999 117.038,32.327 C117.554003,32.5370011 117.985998,32.7859986 118.334,33.074 C118.682002,33.3620014 118.945999,33.6949981 119.126,34.073 C119.306001,34.4510019 119.396,34.8919975 119.396,35.396 C119.396,36.0080031 119.276001,36.5569976 119.036,37.043 C118.795999,37.5290024 118.469002,37.9369984 118.055,38.267 C117.640998,38.5970017 117.155003,38.8489991 116.597,39.023 C116.038997,39.1970009 115.448003,39.284 114.824,39.284 C113.671994,39.284 112.700004,39.1010018 111.908,38.735 C111.115996,38.3689982 110.480002,37.8440034 110,37.16 L111.098,36.08 Z M121.268,30.158 L122.762,30.158 L122.762,31.868 C122.870001,31.6159987 123.007999,31.3700012 123.176,31.13 C123.344001,30.8899988 123.544999,30.6800009 123.779,30.5 C124.013001,30.3199991 124.285998,30.1760005 124.598,30.068 C124.910002,29.9599995 125.263998,29.906 125.66,29.906 C126.236003,29.906 126.736998,30.0259988 127.163,30.266 C127.589002,30.5060012 127.939999,30.8359979 128.216,31.256 C128.492001,31.6760021 128.698999,32.1649972 128.837,32.723 C128.975001,33.2810028 129.044,33.8839968 129.044,34.532 C129.044,35.3000038 128.954001,35.9779971 128.774,36.566 C128.593999,37.1540029 128.342002,37.645998 128.018,38.042 C127.693998,38.438002 127.316002,38.737999 126.884,38.942 C126.451998,39.146001 125.984003,39.248 125.48,39.248 C124.819997,39.248 124.253002,39.0860016 123.779,38.762 C123.304998,38.4379984 122.966001,38.0360024 122.762,37.556 L122.762,42.128 L121.268,42.128 L121.268,30.158 Z M122.762,34.64 C122.762,34.8920013 122.771,35.122999 122.789,35.333 C122.807,35.5430011 122.828,35.7199993 122.852,35.864 C122.9,36.1520014 122.989999,36.4279987 123.122,36.692 C123.254001,36.9560013 123.415999,37.186999 123.608,37.385 C123.800001,37.583001 124.024999,37.7419994 124.283,37.862 C124.541001,37.9820006 124.825998,38.042 125.138,38.042 C125.546002,38.042 125.896999,37.946001 126.191,37.754 C126.485001,37.561999 126.727999,37.3040016 126.92,36.98 C127.112001,36.6559984 127.253,36.2870021 127.343,35.873 C127.433,35.4589979 127.478,35.0300022 127.478,34.586 C127.478,34.1419978 127.436,33.7130021 127.352,33.299 C127.268,32.8849979 127.133001,32.5190016 126.947,32.201 C126.760999,31.8829984 126.518002,31.628001 126.218,31.436 C125.917999,31.243999 125.558002,31.148 125.138,31.148 C124.813998,31.148 124.517001,31.2079994 124.247,31.328 C123.976999,31.4480006 123.746001,31.609999 123.554,31.814 C123.361999,32.018001 123.203001,32.2519987 123.077,32.516 C122.950999,32.7800013 122.87,33.0559986 122.834,33.344 C122.81,33.4640006 122.792,33.628999 122.78,33.839 C122.768,34.0490011 122.762,34.2919986 122.762,34.568 L122.762,34.64 Z M132.086,34.928 C132.146,35.9480051 132.406998,36.7369972 132.869,37.295 C133.331002,37.8530028 133.975996,38.132 134.804,38.132 C135.848005,38.132 136.633997,37.6400049 137.162,36.656 L138.296,37.286 C137.947998,37.8740029 137.486003,38.3539981 136.91,38.726 C136.333997,39.0980019 135.608004,39.284 134.732,39.284 C134.035997,39.284 133.427003,39.1640012 132.905,38.924 C132.382997,38.6839988 131.948002,38.3540021 131.6,37.934 C131.251998,37.5139979 130.991001,37.0220028 130.817,36.458 C130.642999,35.8939972 130.556,35.2880032 130.556,34.64 C130.556,34.0039968 130.639999,33.3980029 130.808,32.822 C130.976001,32.2459971 131.230998,31.7420022 131.573,31.31 C131.915002,30.8779978 132.334998,30.5360013 132.833,30.284 C133.331002,30.0319987 133.915997,29.906 134.588,29.906 C135.236003,29.906 135.799998,30.0289988 136.28,30.275 C136.760002,30.5210012 137.158998,30.8509979 137.477,31.265 C137.795002,31.6790021 138.034999,32.1589973 138.197,32.705 C138.359001,33.2510027 138.44,33.8299969 138.44,34.442 C138.44,34.5740007 138.437,34.6759996 138.431,34.748 C138.425,34.8200004 138.422,34.8799998 138.422,34.928 L132.086,34.928 Z M134.57,31.04 C133.813996,31.04 133.229002,31.3099973 132.815,31.85 C132.400998,32.3900027 132.164,33.1159954 132.104,34.028 L136.91,34.028 C136.91,33.6559981 136.868,33.2930018 136.784,32.939 C136.7,32.5849982 136.562001,32.2670014 136.37,31.985 C136.177999,31.7029986 135.935001,31.4750009 135.641,31.301 C135.346999,31.1269991 134.990002,31.04 134.57,31.04 Z M147.656,37.07 C147.295998,37.7900036 146.813003,38.3389981 146.207,38.717 C145.600997,39.0950019 144.866004,39.284 144.002,39.284 C143.293996,39.284 142.679003,39.1610012 142.157,38.915 C141.634997,38.6689988 141.203002,38.3360021 140.861,37.916 C140.518998,37.4959979 140.267001,37.0010029 140.105,36.431 C139.942999,35.8609972 139.862,35.2520032 139.862,34.604 C139.862,33.9439967 139.948999,33.3290029 140.123,32.759 C140.297001,32.1889972 140.554998,31.6940021 140.897,31.274 C141.239002,30.8539979 141.667997,30.5210012 142.184,30.275 C142.700003,30.0289988 143.305997,29.906 144.002,29.906 C144.878004,29.906 145.606997,30.1009981 146.189,30.491 C146.771003,30.881002 147.241998,31.4299965 147.602,32.138 L146.342,32.732 C145.885998,31.6279945 145.118005,31.076 144.038,31.076 C143.581998,31.076 143.189002,31.1659991 142.859,31.346 C142.528998,31.5260009 142.259001,31.7719984 142.049,32.084 C141.838999,32.3960016 141.683001,32.7589979 141.581,33.173 C141.478999,33.5870021 141.428,34.0339976 141.428,34.514 C141.428,34.9700023 141.476,35.4139978 141.572,35.846 C141.668,36.2780022 141.823999,36.6619983 142.04,36.998 C142.256001,37.3340017 142.531998,37.603999 142.868,37.808 C143.204002,38.012001 143.617998,38.114 144.11,38.114 C144.734003,38.114 145.237998,37.9550016 145.622,37.637 C146.006002,37.3189984 146.299999,36.9080025 146.504,36.404 L147.656,37.07 Z M149.312,26.72 L150.806,26.72 L150.806,28.214 L149.312,28.214 L149.312,26.72 Z M149.312,30.158 L150.806,30.158 L150.806,39.014 L149.312,39.014 L149.312,30.158 Z M153.866,31.184 L152.336,31.184 L152.336,30.158 L153.794,30.158 C153.698,29.8459984 153.617,29.5130018 153.551,29.159 C153.485,28.8049982 153.452,28.4720016 153.452,28.16 C153.452,27.8719986 153.485,27.5990013 153.551,27.341 C153.617,27.0829987 153.733999,26.855001 153.902,26.657 C154.070001,26.458999 154.297999,26.3000006 154.586,26.18 C154.874001,26.0599994 155.239998,26 155.684,26 C156.008002,26 156.298999,26.0209998 156.557,26.063 C156.815001,26.1050002 157.057999,26.1739995 157.286,26.27 L157.034,27.404 C156.901999,27.3439997 156.737001,27.2930002 156.539,27.251 C156.340999,27.2089998 156.158001,27.188 155.99,27.188 C155.305997,27.188 154.964,27.583996 154.964,28.376 C154.964,28.6880016 155.003,29.0119983 155.081,29.348 C155.159,29.6840017 155.24,29.953999 155.324,30.158 L157.034,30.158 L157.034,31.184 L155.378,31.184 L155.378,39.014 L153.866,39.014 L153.866,31.184 Z M158.726,26.72 L160.22,26.72 L160.22,28.214 L158.726,28.214 L158.726,26.72 Z M158.726,30.158 L160.22,30.158 L160.22,39.014 L158.726,39.014 L158.726,30.158 Z M169.922,37.07 C169.561998,37.7900036 169.079003,38.3389981 168.473,38.717 C167.866997,39.0950019 167.132004,39.284 166.268,39.284 C165.559996,39.284 164.945003,39.1610012 164.423,38.915 C163.900997,38.6689988 163.469002,38.3360021 163.127,37.916 C162.784998,37.4959979 162.533001,37.0010029 162.371,36.431 C162.208999,35.8609972 162.128,35.2520032 162.128,34.604 C162.128,33.9439967 162.214999,33.3290029 162.389,32.759 C162.563001,32.1889972 162.820998,31.6940021 163.163,31.274 C163.505002,30.8539979 163.933997,30.5210012 164.45,30.275 C164.966003,30.0289988 165.571997,29.906 166.268,29.906 C167.144004,29.906 167.872997,30.1009981 168.455,30.491 C169.037003,30.881002 169.507998,31.4299965 169.868,32.138 L168.608,32.732 C168.151998,31.6279945 167.384005,31.076 166.304,31.076 C165.847998,31.076 165.455002,31.1659991 165.125,31.346 C164.794998,31.5260009 164.525001,31.7719984 164.315,32.084 C164.104999,32.3960016 163.949001,32.7589979 163.847,33.173 C163.744999,33.5870021 163.694,34.0339976 163.694,34.514 C163.694,34.9700023 163.742,35.4139978 163.838,35.846 C163.934,36.2780022 164.089999,36.6619983 164.306,36.998 C164.522001,37.3340017 164.797998,37.603999 165.134,37.808 C165.470002,38.012001 165.883998,38.114 166.376,38.114 C167.000003,38.114 167.503998,37.9550016 167.888,37.637 C168.272002,37.3189984 168.565999,36.9080025 168.77,36.404 L169.922,37.07 Z M175.628,30.158 L177.122,30.158 L177.122,31.868 C177.230001,31.6159987 177.367999,31.3700012 177.536,31.13 C177.704001,30.8899988 177.904999,30.6800009 178.139,30.5 C178.373001,30.3199991 178.645998,30.1760005 178.958,30.068 C179.270002,29.9599995 179.623998,29.906 180.02,29.906 C180.596003,29.906 181.096998,30.0259988 181.523,30.266 C181.949002,30.5060012 182.299999,30.8359979 182.576,31.256 C182.852001,31.6760021 183.058999,32.1649972 183.197,32.723 C183.335001,33.2810028 183.404,33.8839968 183.404,34.532 C183.404,35.3000038 183.314001,35.9779971 183.134,36.566 C182.953999,37.1540029 182.702002,37.645998 182.378,38.042 C182.053998,38.438002 181.676002,38.737999 181.244,38.942 C180.811998,39.146001 180.344003,39.248 179.84,39.248 C179.179997,39.248 178.613002,39.0860016 178.139,38.762 C177.664998,38.4379984 177.326001,38.0360024 177.122,37.556 L177.122,42.128 L175.628,42.128 L175.628,30.158 Z M177.122,34.64 C177.122,34.8920013 177.131,35.122999 177.149,35.333 C177.167,35.5430011 177.188,35.7199993 177.212,35.864 C177.26,36.1520014 177.349999,36.4279987 177.482,36.692 C177.614001,36.9560013 177.775999,37.186999 177.968,37.385 C178.160001,37.583001 178.384999,37.7419994 178.643,37.862 C178.901001,37.9820006 179.185998,38.042 179.498,38.042 C179.906002,38.042 180.256999,37.946001 180.551,37.754 C180.845001,37.561999 181.087999,37.3040016 181.28,36.98 C181.472001,36.6559984 181.613,36.2870021 181.703,35.873 C181.793,35.4589979 181.838,35.0300022 181.838,34.586 C181.838,34.1419978 181.796,33.7130021 181.712,33.299 C181.628,32.8849979 181.493001,32.5190016 181.307,32.201 C181.120999,31.8829984 180.878002,31.628001 180.578,31.436 C180.277999,31.243999 179.918002,31.148 179.498,31.148 C179.173998,31.148 178.877001,31.2079994 178.607,31.328 C178.336999,31.4480006 178.106001,31.609999 177.914,31.814 C177.721999,32.018001 177.563001,32.2519987 177.437,32.516 C177.310999,32.7800013 177.23,33.0559986 177.194,33.344 C177.17,33.4640006 177.152,33.628999 177.14,33.839 C177.128,34.0490011 177.122,34.2919986 177.122,34.568 L177.122,34.64 Z M190.874,39.014 C190.741999,38.5819978 190.664,38.066003 190.64,37.466 C190.399999,38.0180028 190.031002,38.4589984 189.533,38.789 C189.034998,39.1190017 188.444003,39.284 187.76,39.284 C186.895996,39.284 186.212003,39.0380025 185.708,38.546 C185.203997,38.0539975 184.952,37.3940041 184.952,36.566 C184.952,36.0979977 185.035999,35.7050016 185.204,35.387 C185.372001,35.0689984 185.605998,34.8050011 185.906,34.595 C186.206002,34.384999 186.559998,34.2200006 186.968,34.1 C187.376002,33.9799994 187.819998,33.8840004 188.3,33.812 L190.568,33.47 L190.568,32.912 C190.568,32.515998 190.52,32.1980012 190.424,31.958 C190.328,31.7179988 190.196001,31.5320007 190.028,31.4 C189.859999,31.2679993 189.668001,31.1810002 189.452,31.139 C189.235999,31.0969998 189.008001,31.076 188.768,31.076 C188.083997,31.076 187.520002,31.2019987 187.076,31.454 C186.631998,31.7060013 186.260001,32.0239981 185.96,32.408 L185.186,31.436 C185.534002,31.0159979 186.016997,30.6560015 186.635,30.356 C187.253003,30.0559985 188.017995,29.906 188.93,29.906 C190.034006,29.906 190.834998,30.1519975 191.333,30.644 C191.831002,31.1360025 192.08,31.9279945 192.08,33.02 L192.08,36.602 C192.08,36.8900014 192.083,37.1419989 192.089,37.358 C192.095,37.5740011 192.107,37.7749991 192.125,37.961 C192.143,38.1470009 192.17,38.3239992 192.206,38.492 C192.242,38.6600008 192.29,38.8339991 192.35,39.014 L190.874,39.014 Z M190.568,34.46 L188.444,34.802 C187.711996,34.9340007 187.193002,35.1319987 186.887,35.396 C186.580998,35.6600013 186.428,36.0259977 186.428,36.494 C186.428,36.9740024 186.568999,37.3759984 186.851,37.7 C187.133001,38.0240016 187.549997,38.186 188.102,38.186 C188.438002,38.186 188.755998,38.1200007 189.056,37.988 C189.356001,37.8559993 189.616999,37.6730012 189.839,37.439 C190.061001,37.2049988 190.237999,36.9230017 190.37,36.593 C190.502001,36.2629984 190.568,35.900002 190.568,35.504 L190.568,34.46 Z M195.194,40.076 C195.542002,40.4120017 195.958998,40.678999 196.445,40.877 C196.931002,41.075001 197.449997,41.174 198.002,41.174 C198.458002,41.174 198.829999,41.1050007 199.118,40.967 C199.406001,40.8289993 199.633999,40.6400012 199.802,40.4 C199.970001,40.1599988 200.087,39.8870015 200.153,39.581 C200.219,39.2749985 200.252,38.9480017 200.252,38.6 L200.252,36.962 C200.023999,37.5020027 199.682002,37.9369984 199.226,38.267 C198.769998,38.5970017 198.182004,38.762 197.462,38.762 C196.945997,38.762 196.478002,38.663001 196.058,38.465 C195.637998,38.266999 195.278002,37.9820019 194.978,37.61 C194.677999,37.2379981 194.447001,36.7820027 194.285,36.242 C194.122999,35.7019973 194.042,35.0960034 194.042,34.424 C194.042,33.7639967 194.122999,33.1580028 194.285,32.606 C194.447001,32.0539972 194.680998,31.580002 194.987,31.184 C195.293002,30.787998 195.664998,30.4790011 196.103,30.257 C196.541002,30.0349989 197.029997,29.924 197.57,29.924 C198.278004,29.924 198.865998,30.1009982 199.334,30.455 C199.802002,30.8090018 200.137999,31.2619972 200.342,31.814 L200.594,30.158 L201.746,30.158 L201.746,38.564 C201.746,39.0680025 201.686001,39.5449978 201.566,39.995 C201.445999,40.4450023 201.242001,40.8439983 200.954,41.192 C200.665999,41.5400017 200.282002,41.815999 199.802,42.02 C199.321998,42.224001 198.722004,42.326 198.002,42.326 C197.221996,42.326 196.523003,42.2150011 195.905,41.993 C195.286997,41.7709989 194.768002,41.4920017 194.348,41.156 L195.194,40.076 Z M200.252,34.424 C200.252,34.219999 200.249,34.0250009 200.243,33.839 C200.237,33.6529991 200.222,33.5120005 200.198,33.416 C200.15,33.1279986 200.072001,32.8460014 199.964,32.57 C199.855999,32.2939986 199.709001,32.054001 199.523,31.85 C199.336999,31.645999 199.109001,31.4810006 198.839,31.355 C198.568999,31.2289994 198.254002,31.166 197.894,31.166 C197.497998,31.166 197.156001,31.2499992 196.868,31.418 C196.579999,31.5860008 196.343001,31.8139986 196.157,32.102 C195.970999,32.3900014 195.833,32.731998 195.743,33.128 C195.653,33.524002 195.608,33.9439978 195.608,34.388 C195.608,34.784002 195.65,35.1769981 195.734,35.567 C195.818,35.9570019 195.949999,36.3019985 196.13,36.602 C196.310001,36.9020015 196.546999,37.1449991 196.841,37.331 C197.135001,37.5170009 197.491998,37.61 197.912,37.61 C198.500003,37.61 198.973998,37.4450017 199.334,37.115 C199.694002,36.7849984 199.945999,36.3680025 200.09,35.864 C200.15,35.6959992 200.192,35.4860013 200.216,35.234 C200.24,34.9819987 200.252,34.7420011 200.252,34.514 L200.252,34.424 Z M205.184,34.928 C205.244,35.9480051 205.504998,36.7369972 205.967,37.295 C206.429002,37.8530028 207.073996,38.132 207.902,38.132 C208.946005,38.132 209.731997,37.6400049 210.26,36.656 L211.394,37.286 C211.045998,37.8740029 210.584003,38.3539981 210.008,38.726 C209.431997,39.0980019 208.706004,39.284 207.83,39.284 C207.133997,39.284 206.525003,39.1640012 206.003,38.924 C205.480997,38.6839988 205.046002,38.3540021 204.698,37.934 C204.349998,37.5139979 204.089001,37.0220028 203.915,36.458 C203.740999,35.8939972 203.654,35.2880032 203.654,34.64 C203.654,34.0039968 203.737999,33.3980029 203.906,32.822 C204.074001,32.2459971 204.328998,31.7420022 204.671,31.31 C205.013002,30.8779978 205.432998,30.5360013 205.931,30.284 C206.429002,30.0319987 207.013997,29.906 207.686,29.906 C208.334003,29.906 208.897998,30.0289988 209.378,30.275 C209.858002,30.5210012 210.256998,30.8509979 210.575,31.265 C210.893002,31.6790021 211.132999,32.1589973 211.295,32.705 C211.457001,33.2510027 211.538,33.8299969 211.538,34.442 C211.538,34.5740007 211.535,34.6759996 211.529,34.748 C211.523,34.8200004 211.52,34.8799998 211.52,34.928 L205.184,34.928 Z M207.668,31.04 C206.911996,31.04 206.327002,31.3099973 205.913,31.85 C205.498998,32.3900027 205.262,33.1159954 205.202,34.028 L210.008,34.028 C210.008,33.6559981 209.966,33.2930018 209.882,32.939 C209.798,32.5849982 209.660001,32.2670014 209.468,31.985 C209.275999,31.7029986 209.033001,31.4750009 208.739,31.301 C208.444999,31.1269991 208.088002,31.04 207.668,31.04 Z" id="Specific-page" fill="#FFFFFF"></path>
                    <path d="M29.2142857,26.0714286 C29.3333339,26.1904768 29.3928571,26.3273802 29.3928571,26.4821429 C29.3928571,26.6369055 29.3333339,26.7738089 29.2142857,26.8928571 L22.1964286,33.9107143 L29.2142857,40.9285714 C29.3333339,41.0476196 29.3928571,41.184523 29.3928571,41.3392857 C29.3928571,41.4940484 29.3333339,41.6309518 29.2142857,41.75 L28.3214286,42.6428571 C28.2023804,42.7619054 28.065477,42.8214286 27.9107143,42.8214286 C27.7559516,42.8214286 27.6190482,42.7619054 27.5,42.6428571 L19.1785714,34.3214286 C19.0595232,34.2023804 19,34.065477 19,33.9107143 C19,33.7559516 19.0595232,33.6190482 19.1785714,33.5 L27.5,25.1785714 C27.6190482,25.0595232 27.7559516,25 27.9107143,25 C28.065477,25 28.2023804,25.0595232 28.3214286,25.1785714 L29.2142857,26.0714286 Z" id="angle-left---FontAwesome-Copy" fill="#FFFFFF"></path>
                </g>
            </g>
        </g>
    </g>
</svg>