<?xml version="1.0" encoding="UTF-8"?>
<svg width="385px" height="41px" viewBox="0 0 385 41" version="1.1" xmlns="http://www.w3.org/2000/svg" xmlns:xlink="http://www.w3.org/1999/xlink">
    <!-- Generator: Sketch 47 (45396) - http://www.bohemiancoding.com/sketch -->
    <title>Organized&amp;KeepToolsInTheRight</title>
    <desc>Created with Sketch.</desc>
    <defs>
        <polygon id="path-1" points="0 15 63 15 63 0 0 0"></polygon>
        <rect id="path-3" x="25" y="4" width="26" height="7" rx="3.5"></rect>
        <rect id="path-4" x="21" y="4" width="26" height="7" rx="3.5"></rect>
        <rect id="path-5" x="21" y="5" width="26" height="7" rx="3.5"></rect>
    </defs>
    <g id="Page-1" stroke="none" stroke-width="1" fill="none" fill-rule="evenodd">
        <g id="Buttons-Usage-extra-large-1200" transform="translate(-321.000000, -2942.000000)">
            <g id="Organized&amp;KeepToolsInTheRight" transform="translate(321.000000, 2942.000000)">
                <g id="Group-2">
                    <g id="Topbar-Large">
                        <rect id="Blue" fill="#4AC7ED" x="0" y="0" width="11.2174818" height="2.5625"></rect>
                        <rect id="Orange" fill="#F48C3B" x="11.2174818" y="0" width="24.8387097" height="2.5625"></rect>
                        <rect id="Grey" fill="#A9B1B5" x="36.0561915" y="0" width="34.0530697" height="2.5625"></rect>
                        <rect id="Green" fill="#ADC543" x="70.1092612" y="0" width="314.890739" height="2.5625"></rect>
                        <rect id="Bar" fill="#FFFFFF" x="0" y="2.5625" width="385" height="38.4375"></rect>
                    </g>
                    <g id="Page-1" transform="translate(12.000000, 13.000000)">
                        <path d="M10.0298926,0 L10.0298926,8.7976027 C10.0298926,10.9887403 8.71034899,12.2969855 6.50034899,12.2969855 C4.27586577,12.2969855 2.94812081,10.9887403 2.94812081,8.7976027 L2.94812081,0 L0,0 L0,8.46431167 C0,12.3734728 2.61238926,15 6.50034899,15 C10.3879597,15 13,12.3734728 13,8.46431167 L13,0 L10.0298926,0 Z" id="Fill-1" fill="#7C878E"></path>
                        <path d="M22.4997383,0 C18.611865,0 16,2.61406571 16,6.50476015 L16,15 L18.9707805,15 L18.9707805,6.1740184 C18.9707805,3.99215637 20.2900611,2.68968844 22.4999128,2.68968844 C24.7238977,2.68968844 26.0517281,3.99232863 26.0517281,6.1740184 L26.0517281,15 L29,15 L29,6.50476015 C28.9998255,2.61406571 26.3876116,0 22.4997383,0" id="Fill-3" fill="#7C878E"></path>
                        <mask id="mask-2" fill="white">
                            <use xlink:href="#path-1"></use>
                        </mask>
                        <g id="Clip-6"></g>
                        <polygon id="Fill-5" fill="#7C878E" mask="url(#mask-2)" points="33 15 36 15 36 0 33 0"></polygon>
                        <polygon id="Fill-7" fill="#7C878E" mask="url(#mask-2)" points="40 0 40 2.79278441 44.4984891 2.79278441 44.4984891 15 47.5013332 15 47.5013332 2.79278441 52 2.79278441 52 0"></polygon>
                        <path d="M63,0 L59.9914069,0 L53.2318234,10.0425371 C53.0351564,10.3414024 52.9601103,10.7036369 53.0201801,11.0627291 C53.0804145,11.4218214 53.2688527,11.7343032 53.5506049,11.9425662 C53.7671854,12.1033459 54.0217828,12.1883619 54.287242,12.1883619 L54.2875712,12.1883619 L59.4476515,12.1857434 L59.4476515,15 L62.0212733,15 L62.0293374,9.83898749 L56.5040655,9.83898749 L63,0 Z" id="Fill-8" fill="#AFC836" mask="url(#mask-2)"></path>
                    </g>
                </g>
                <g id="Group-4" transform="translate(253.000000, 13.000000)">
                    <g id="Rectangle-2">
                        <use fill="#9B9B9B" fill-rule="evenodd" xlink:href="#path-3"></use>
                        <rect stroke="#979797" stroke-width="1" x="25.5" y="4.5" width="25" height="6" rx="3"></rect>
                    </g>
                    <g id="comment" fill-rule="nonzero" fill="#4C5358">
                        <path d="M18,6.666822 C18,7.87465978 17.5982001,8.99055882 16.7946002,10.0145191 C15.9910003,11.0384795 14.8995969,11.8472682 13.52039,12.4408852 C12.1411831,13.0345023 10.6344802,13.3313109 9.00028124,13.3313109 C8.53154589,13.3313109 8.04612356,13.3035154 7.54401425,13.2479246 C6.21805569,14.4627598 4.67797881,15.3026483 2.92378363,15.76759 C2.59566889,15.8647768 2.21393081,15.9411657 1.77856942,15.9967565 C1.66457298,16.0107514 1.56238868,15.9794573 1.4720165,15.9028741 C1.38164432,15.8262909 1.32295866,15.7256053 1.2959595,15.6008174 L1.2959595,15.5903213 C1.27571013,15.5627202 1.27402269,15.5211243 1.29089716,15.4655334 C1.30777163,15.4099425 1.31452142,15.3751497 1.31114653,15.3611548 C1.30777163,15.3471599 1.32277116,15.3141163 1.35614512,15.2620242 L1.41633074,15.1681417 L1.48664104,15.0795074 L1.56707603,14.9856249 C1.61394956,14.930034 1.71782132,14.8102999 1.87869129,14.6264224 C2.03956126,14.4425449 2.15505765,14.3105653 2.22518046,14.2304833 C2.29530327,14.1504014 2.39917503,14.013368 2.53679573,13.8193831 C2.67441642,13.6253982 2.78316303,13.4483238 2.86303553,13.2881599 C2.94290803,13.127996 3.03328021,12.9231262 3.13415206,12.6735505 C3.23502391,12.4239747 3.32202119,12.1602097 3.3951439,11.8822554 C2.34367676,11.264536 1.51495266,10.500842 0.908971595,9.59117336 C0.302990532,8.68150474 0,7.70613783 0,6.66507264 C0,5.76279022 0.237742571,4.90016002 0.713227712,4.07718204 C1.18871285,3.25420407 1.82825537,2.54435155 2.63185525,1.94762448 C3.43545514,1.35089742 4.39298772,0.877014492 5.50445299,0.525975705 C6.61591825,0.174936918 7.78100684,-0.000388102228 8.99971876,6.45045254e-07 C10.6335427,6.45045254e-07 12.1402456,0.296809188 13.5198275,0.890426273 C14.8994094,1.48404336 15.9908128,2.29283206 16.7940377,3.31679238 C17.5972626,4.34075269 17.9990625,5.45665174 17.9994375,6.66448952 L18,6.666822 Z" id="Shape"></path>
                    </g>
                </g>
                <g id="Group-5" transform="translate(320.000000, 12.000000)">
                    <g id="Rectangle-2-Copy">
                        <use fill="#9B9B9B" fill-rule="evenodd" xlink:href="#path-4"></use>
                        <rect stroke="#979797" stroke-width="1" x="21.5" y="4.5" width="25" height="6" rx="3"></rect>
                    </g>
                    <g id="info-circle" fill-rule="nonzero" fill="#4C5358">
                        <path d="M10.6664722,12.9998542 L10.6664722,11.3332361 C10.6664722,11.2360119 10.635166,11.1560935 10.5725536,11.0934811 C10.5099412,11.0308687 10.4300228,10.9995625 10.3327986,10.9995625 L9.33294444,10.9995625 L9.33294444,5.66603471 C9.33294444,5.56881046 9.30163823,5.48889213 9.23902581,5.42627971 C9.1764134,5.3636673 9.09649507,5.33236109 8.99927082,5.33236109 L5.66603471,5.33236109 C5.56881046,5.33236109 5.48889213,5.3636673 5.42627971,5.42627971 C5.3636673,5.48889213 5.33236109,5.56881046 5.33236109,5.66603471 L5.33236109,7.33265276 C5.33236109,7.42987701 5.3636673,7.50979534 5.42627971,7.57240776 C5.48889213,7.63502017 5.56881046,7.66632638 5.66603471,7.66632638 L6.66588887,7.66632638 L6.66588887,10.9995625 L5.66603471,10.9995625 C5.56881046,10.9995625 5.48889213,11.0308687 5.42627971,11.0934811 C5.3636673,11.1560935 5.33236109,11.2360119 5.33236109,11.3332361 L5.33236109,12.9998542 C5.33236109,13.0970784 5.3636673,13.1769967 5.42627971,13.2396092 C5.48889213,13.3022216 5.56881046,13.3335278 5.66603471,13.3335278 L10.3327986,13.3335278 C10.4300228,13.3335278 10.5099412,13.3022216 10.5725536,13.2396092 C10.635166,13.1769967 10.6664722,13.0970784 10.6664722,12.9998542 L10.6664722,12.9998542 Z M9.33294444,3.66632638 L9.33294444,1.99970833 C9.33294444,1.90248408 9.30163823,1.82256575 9.23902581,1.75995333 C9.1764134,1.69734092 9.09649507,1.66603471 8.99927082,1.66603471 L6.99897915,1.66603471 C6.9017549,1.66603471 6.82183657,1.69734092 6.75922415,1.75995333 C6.69661173,1.82256575 6.66530553,1.90248408 6.66530553,1.99970833 L6.66530553,3.66632638 C6.66530553,3.76355063 6.69661173,3.84346896 6.75922415,3.90608138 C6.82183657,3.96869379 6.9017549,4 6.99897915,4 L8.99927082,4 C9.09649507,4 9.1764134,3.96869379 9.23902581,3.90608138 C9.30163823,3.84346896 9.33294444,3.76355063 9.33294444,3.66632638 Z M16,8 C16,9.45136357 15.6424092,10.789947 14.9272277,12.0157503 C14.2120461,13.2415536 13.2415536,14.2120461 12.0157503,14.9272277 C10.789947,15.6424092 9.45136357,16 8,16 C6.54863643,16 5.21005299,15.6424092 3.98424967,14.9272277 C2.75844636,14.2120461 1.78795392,13.2415536 1.07277235,12.0157503 C0.357590783,10.789947 4.75233783e-16,9.45136357 0,8 C-4.75233783e-16,6.54863643 0.357590783,5.21005299 1.07277235,3.98424967 C1.78795392,2.75844636 2.75844636,1.78795392 3.98424967,1.07277235 C5.21005299,0.357590783 6.54863643,5.18114872e-16 8,0 C9.45136357,-5.18114872e-16 10.789947,0.357590783 12.0157503,1.07277235 C13.2415536,1.78795392 14.2120461,2.75844636 14.9272277,3.98424967 C15.6424092,5.21005299 16,6.54863643 16,8 Z" id="Shape"></path>
                    </g>
                </g>
                <g id="Group-3" transform="translate(188.000000, 12.000000)">
                    <g id="Rectangle-2-Copy-2">
                        <use fill="#9B9B9B" fill-rule="evenodd" xlink:href="#path-5"></use>
                        <rect stroke="#979797" stroke-width="1" x="21.5" y="5.5" width="25" height="6" rx="3"></rect>
                    </g>
                    <g id="bell-(1)" fill-rule="nonzero" fill="#4C5358">
                        <path d="M8,14.8337708 C8,14.7225625 7.94441205,14.6669583 7.83323615,14.6669583 C7.42351798,14.6669583 7.07113703,14.5193934 6.77609329,14.2242636 C6.48104956,13.9291339 6.3335277,13.5766501 6.3335277,13.1668125 C6.3335277,13.0556042 6.27793975,13 6.16676385,13 C6.05558795,13 6,13.0556042 6,13.1668125 C6,13.6738602 6.17881438,14.1060562 6.53644315,14.4634004 C6.89407191,14.8207446 7.32614189,14.9996112 7.83265306,15 C7.94382896,15 7.99941691,14.9443958 7.99941691,14.8331875 L8,14.8337708 Z M15,12.5713929 C15,12.8810692 14.8857441,13.1489109 14.6572323,13.374918 C14.4287205,13.600925 14.1583092,13.7140952 13.8459985,13.7144286 L9.80749815,13.7144286 C9.80749815,14.3454483 9.58218348,14.8841318 9.13155415,15.3304791 C8.68092482,15.7768264 8.13707343,16 7.5,16 C6.86292657,16 6.31907518,15.7768264 5.86844585,15.3304791 C5.41781652,14.8841318 5.19250185,14.3454483 5.19250185,13.7144286 L1.15400148,13.7144286 C0.841354244,13.7144286 0.57094299,13.6012584 0.342767719,13.374918 C0.114592448,13.1485776 0.000336541698,12.8807359 0,12.5713929 C0.300531736,12.321385 0.573971865,12.0595435 0.820320388,11.7858683 C1.06666891,11.5121931 1.32210406,11.1565153 1.58662583,10.718835 C1.85114761,10.2811546 2.07494784,9.80947321 2.25802652,9.30379074 C2.4411052,8.79810827 2.59137107,8.18492245 2.70882412,7.46423326 C2.82627718,6.74354407 2.88483543,5.96968655 2.88449889,5.14266071 C2.88449889,4.23796577 3.23601669,3.39710616 3.9390523,2.62008188 C4.6420879,1.8430576 5.5645487,1.37137619 6.70643468,1.20503766 C6.65830921,1.09203413 6.63424648,0.976030501 6.63424648,0.857026782 C6.63424648,0.619019344 6.71838191,0.416679688 6.88665276,0.250007813 C7.05492361,0.0833359376 7.25920442,0 7.49949519,0 C7.73978596,0 7.94406677,0.0833359376 8.11233762,0.250007813 C8.28060847,0.416679688 8.36474389,0.619019344 8.36474389,0.857026782 C8.36474389,0.976030501 8.34068116,1.09203413 8.2925557,1.20503766 C9.43444168,1.37170953 10.3569025,1.84339094 11.0599381,2.62008188 C11.7629737,3.39677282 12.1144915,4.23763243 12.1144915,5.14266071 C12.1144915,5.9700199 12.1730497,6.74387741 12.2901663,7.46423326 C12.4072828,8.1845891 12.5575486,8.79777493 12.7409639,9.30379074 C12.9243791,9.80980656 13.1481793,10.281488 13.4123645,10.718835 C13.6765498,11.156182 13.9319849,11.5118597 14.17867,11.7858683 C14.4253551,12.0598769 14.6987952,12.3217184 14.9989904,12.5713929 L15,12.5713929 Z" id="Shape"></path>
                    </g>
                </g>
            </g>
        </g>
    </g>
</svg>