<?xml version="1.0" encoding="UTF-8"?>
<svg width="300px" height="25px" viewBox="0 0 300 25" version="1.1" xmlns="http://www.w3.org/2000/svg" xmlns:xlink="http://www.w3.org/1999/xlink">
    <!-- Generator: Sketch 47 (45396) - http://www.bohemiancoding.com/sketch -->
    <title>OtherOption</title>
    <desc>Created with Sketch.</desc>
    <defs>
        <rect id="path-1" x="106" y="1" width="24" height="24"></rect>
        <rect id="path-2" x="219" y="0" width="24" height="24"></rect>
    </defs>
    <g id="Page-1" stroke="none" stroke-width="1" fill="none" fill-rule="evenodd">
        <g id="Buttons-Usage-extra-large-1200" transform="translate(-806.000000, -2900.000000)">
            <g id="Group-3-Copy-6" transform="translate(806.000000, 2900.000000)">
                <g id="OtherOption">
                    <path d="M34.12,6.704 L37.928,6.704 C38.386669,6.704 38.8373311,6.74933288 39.28,6.84 C39.7226689,6.93066712 40.114665,7.08533224 40.456,7.304 C40.797335,7.52266776 41.071999,7.81333152 41.28,8.176 C41.488001,8.53866848 41.592,8.986664 41.592,9.52 C41.592,10.2133368 41.3866687,10.7839978 40.976,11.232 C40.5653313,11.6800022 39.997337,11.9626661 39.272,12.08 C39.6453352,12.1333336 39.994665,12.2293326 40.32,12.368 C40.645335,12.5066674 40.9279988,12.6933322 41.168,12.928 C41.4080012,13.1626678 41.594666,13.442665 41.728,13.768 C41.861334,14.093335 41.928,14.4693312 41.928,14.896 C41.928,15.4720029 41.8293343,15.959998 41.632,16.36 C41.4346657,16.760002 41.165335,17.0799988 40.824,17.32 C40.482665,17.5600012 40.0773357,17.7333328 39.608,17.84 C39.1386643,17.9466672 38.6266694,18 38.072,18 L34.12,18 L34.12,6.704 Z M37.416,11.552 C37.7253349,11.552 38.0373318,11.5333335 38.352,11.496 C38.6666682,11.4586665 38.9519987,11.3706674 39.208,11.232 C39.4640013,11.0933326 39.6719992,10.8960013 39.832,10.64 C39.9920008,10.3839987 40.072,10.0373355 40.072,9.6 C40.072,9.24799824 40.0080006,8.95733448 39.88,8.728 C39.7519994,8.49866552 39.5760011,8.317334 39.352,8.184 C39.1279989,8.050666 38.8720014,7.9573336 38.584,7.904 C38.2959986,7.8506664 37.9920016,7.824 37.672,7.824 L35.56,7.824 L35.56,11.552 L37.416,11.552 Z M37.848,16.88 C38.1680016,16.88 38.4799985,16.8480003 38.784,16.784 C39.0880015,16.7199997 39.3599988,16.6080008 39.6,16.448 C39.8400012,16.2879992 40.0319993,16.0693347 40.176,15.792 C40.3200007,15.5146653 40.392,15.1626688 40.392,14.736 C40.392,14.3413314 40.3146674,14.010668 40.16,13.744 C40.0053326,13.477332 39.8000013,13.2640008 39.544,13.104 C39.2879987,12.9439992 38.997335,12.8293337 38.672,12.76 C38.346665,12.6906663 38.013335,12.656 37.672,12.656 L35.56,12.656 L35.56,16.88 L37.848,16.88 Z M43.64,6.704 L44.968,6.704 L44.968,18 L43.64,18 L43.64,6.704 Z M46.984,10.128 L48.328,10.128 L48.328,14.896 C48.328,15.6426704 48.4666653,16.1893316 48.744,16.536 C49.0213347,16.8826684 49.4106642,17.056 49.912,17.056 C50.5520032,17.056 51.0506649,16.8026692 51.408,16.296 C51.7653351,15.7893308 51.944,15.1146709 51.944,14.272 L51.944,10.128 L53.272,10.128 L53.272,18 L52.024,18 L52.024,16.4 C51.9279995,16.6453346 51.8106674,16.8773322 51.672,17.096 C51.5333326,17.3146678 51.3626677,17.5066658 51.16,17.672 C50.9573323,17.8373342 50.722668,17.9679995 50.456,18.064 C50.189332,18.1600005 49.8746685,18.208 49.512,18.208 C48.6586624,18.208 48.0240021,17.9493359 47.608,17.432 C47.1919979,16.9146641 46.984,16.1813381 46.984,15.232 L46.984,10.128 Z M56.328,14.368 C56.3813336,15.2746712 56.6133313,15.9759975 57.024,16.472 C57.4346687,16.9680025 58.0079963,17.216 58.744,17.216 C59.6720046,17.216 60.3706643,16.778671 60.84,15.904 L61.848,16.464 C61.5386651,16.9866693 61.1280026,17.4133317 60.616,17.744 C60.1039974,18.0746683 59.4586706,18.24 58.68,18.24 C58.0613302,18.24 57.5200023,18.1333344 57.056,17.92 C56.5919977,17.7066656 56.2053349,17.4133352 55.896,17.04 C55.5866651,16.6666648 55.3546674,16.2293358 55.2,15.728 C55.0453326,15.2266642 54.968,14.6880029 54.968,14.112 C54.968,13.5466638 55.0426659,13.0080026 55.192,12.496 C55.3413341,11.9839974 55.5679985,11.5360019 55.872,11.152 C56.1760015,10.7679981 56.5493311,10.4640011 56.992,10.24 C57.4346689,10.0159989 57.9546637,9.904 58.552,9.904 C59.1280029,9.904 59.6293312,10.0133322 60.056,10.232 C60.4826688,10.4506678 60.8373319,10.7439982 61.12,11.112 C61.4026681,11.4800018 61.6159993,11.9066642 61.76,12.392 C61.9040007,12.8773358 61.976,13.3919973 61.976,13.936 C61.976,14.0533339 61.9733334,14.1439997 61.968,14.208 C61.9626666,14.2720003 61.96,14.3253331 61.96,14.368 L56.328,14.368 Z M58.536,10.912 C57.8639966,10.912 57.3440018,11.1519976 56.976,11.632 C56.6079982,12.1120024 56.3973336,12.7573293 56.344,13.568 L60.616,13.568 C60.616,13.2373317 60.578667,12.9146682 60.504,12.6 C60.429333,12.2853318 60.3066675,12.0026679 60.136,11.752 C59.9653325,11.5013321 59.7493346,11.2986674 59.488,11.144 C59.2266654,10.9893326 58.9093352,10.912 58.536,10.912 Z" id="Blue" fill="#000000"></path>
                    <rect id="Rectangle-Copy" fill="#0D78AA" x="0" y="1" width="24" height="24"></rect>
                    <path d="M10.7854917,19.8088478 L6.29149167,14.3622209 C5.828325,13.8024299 5.92749167,12.9862507 6.51510278,12.5438925 C7.10271389,12.1004896 7.95438056,12.1964 8.41910278,12.7572358 L10.6977972,15.5200418 L17.5504083,6.53392239 C17.9904361,5.95637015 18.8393806,5.82577313 19.4431306,6.24848955 C20.0486306,6.67037015 20.1796861,7.48111642 19.7400472,8.05950448 L10.7854917,19.8088478 Z" id="Fill-1" fill="#FFFFFF"></path>
                    <path d="M143.176,12.896 L139.352,6.704 L141,6.704 L143.912,11.776 L146.904,6.704 L148.536,6.704 L144.616,12.896 L144.616,18 L143.176,18 L143.176,12.896 Z M149.64,14.368 C149.693334,15.2746712 149.925331,15.9759975 150.336,16.472 C150.746669,16.9680025 151.319996,17.216 152.056,17.216 C152.984005,17.216 153.682664,16.778671 154.152,15.904 L155.16,16.464 C154.850665,16.9866693 154.440003,17.4133317 153.928,17.744 C153.415997,18.0746683 152.770671,18.24 151.992,18.24 C151.37333,18.24 150.832002,18.1333344 150.368,17.92 C149.903998,17.7066656 149.517335,17.4133352 149.208,17.04 C148.898665,16.6666648 148.666667,16.2293358 148.512,15.728 C148.357333,15.2266642 148.28,14.6880029 148.28,14.112 C148.28,13.5466638 148.354666,13.0080026 148.504,12.496 C148.653334,11.9839974 148.879998,11.5360019 149.184,11.152 C149.488002,10.7679981 149.861331,10.4640011 150.304,10.24 C150.746669,10.0159989 151.266664,9.904 151.864,9.904 C152.440003,9.904 152.941331,10.0133322 153.368,10.232 C153.794669,10.4506678 154.149332,10.7439982 154.432,11.112 C154.714668,11.4800018 154.927999,11.9066642 155.072,12.392 C155.216001,12.8773358 155.288,13.3919973 155.288,13.936 C155.288,14.0533339 155.285333,14.1439997 155.28,14.208 C155.274667,14.2720003 155.272,14.3253331 155.272,14.368 L149.64,14.368 Z M151.848,10.912 C151.175997,10.912 150.656002,11.1519976 150.288,11.632 C149.919998,12.1120024 149.709334,12.7573293 149.656,13.568 L153.928,13.568 C153.928,13.2373317 153.890667,12.9146682 153.816,12.6 C153.741333,12.2853318 153.618668,12.0026679 153.448,11.752 C153.277332,11.5013321 153.061335,11.2986674 152.8,11.144 C152.538665,10.9893326 152.221335,10.912 151.848,10.912 Z M156.904,6.704 L158.232,6.704 L158.232,18 L156.904,18 L156.904,6.704 Z M160.28,6.704 L161.608,6.704 L161.608,18 L160.28,18 L160.28,6.704 Z M166.92,18.24 C166.322664,18.24 165.797336,18.1306678 165.344,17.912 C164.890664,17.6933322 164.512002,17.3946686 164.208,17.016 C163.903998,16.6373314 163.677334,16.1946692 163.528,15.688 C163.378666,15.1813308 163.304,14.6346696 163.304,14.048 C163.304,13.4613304 163.381333,12.9173358 163.536,12.416 C163.690667,11.9146642 163.919998,11.4773352 164.224,11.104 C164.528002,10.7306648 164.906664,10.4373344 165.36,10.224 C165.813336,10.0106656 166.33333,9.904 166.92,9.904 C167.50667,9.904 168.026664,10.0106656 168.48,10.224 C168.933336,10.4373344 169.314665,10.7279982 169.624,11.096 C169.933335,11.4640018 170.165333,11.9013308 170.32,12.408 C170.474667,12.9146692 170.552,13.4613304 170.552,14.048 C170.552,14.6346696 170.474667,15.1813308 170.32,15.688 C170.165333,16.1946692 169.933335,16.6373314 169.624,17.016 C169.314665,17.3946686 168.933336,17.6933322 168.48,17.912 C168.026664,18.1306678 167.50667,18.24 166.92,18.24 Z M166.952,17.2 C167.314668,17.2 167.634665,17.1200008 167.912,16.96 C168.189335,16.7999992 168.418666,16.5786681 168.6,16.296 C168.781334,16.0133319 168.92,15.6800019 169.016,15.296 C169.112,14.9119981 169.16,14.4960022 169.16,14.048 C169.16,13.5999978 169.112,13.1866686 169.016,12.808 C168.92,12.4293314 168.776001,12.1013347 168.584,11.824 C168.391999,11.5466653 168.157335,11.3306674 167.88,11.176 C167.602665,11.0213326 167.282668,10.944 166.92,10.944 C166.546665,10.944 166.221335,11.0213326 165.944,11.176 C165.666665,11.3306674 165.437334,11.5466653 165.256,11.824 C165.074666,12.1013347 164.936,12.4293314 164.84,12.808 C164.744,13.1866686 164.696,13.5999978 164.696,14.048 C164.696,14.4960022 164.744,14.9119981 164.84,15.296 C164.936,15.6800019 165.077332,16.0133319 165.264,16.296 C165.450668,16.5786681 165.685332,16.7999992 165.968,16.96 C166.250668,17.1200008 166.578665,17.2 166.952,17.2 Z M171.672,10.128 L173.112,10.128 L174.712,16.72 L176.296,10.128 L177.768,10.128 L179.32,16.72 L180.936,10.128 L182.376,10.128 L180.056,18 L178.584,18 L177.016,11.936 L175.448,18 L173.976,18 L171.672,10.128 Z" id="Yellow" fill="#000000"></path>
                    <path d="M257.824,17.24 C257.055996,17.24 256.357336,17.1013347 255.728,16.824 C255.098664,16.5466653 254.557336,16.1493359 254.104,15.632 C253.650664,15.1146641 253.298668,14.4906703 253.048,13.76 C252.797332,13.0293297 252.672,12.2160045 252.672,11.32 C252.672,10.4133288 252.797332,9.6000036 253.048,8.88 C253.298668,8.1599964 253.650664,7.5466692 254.104,7.04 C254.557336,6.5333308 255.098664,6.14400136 255.728,5.872 C256.357336,5.59999864 257.055996,5.464 257.824,5.464 C258.592004,5.464 259.29333,5.59999864 259.928,5.872 C260.56267,6.14400136 261.106664,6.5333308 261.56,7.04 C262.013336,7.5466692 262.367999,8.1599964 262.624,8.88 C262.880001,9.6000036 263.008,10.4133288 263.008,11.32 C263.008,12.2160045 262.880001,13.0293297 262.624,13.76 C262.367999,14.4906703 262.008002,15.1146641 261.544,15.632 C261.079998,16.1493359 260.53067,16.5466653 259.896,16.824 C259.26133,17.1013347 258.57067,17.24 257.824,17.24 Z M257.824,15.992 C258.389336,15.992 258.895998,15.8800011 259.344,15.656 C259.792002,15.4319989 260.173332,15.1146687 260.488,14.704 C260.802668,14.2933313 261.042666,13.8000029 261.208,13.224 C261.373334,12.6479971 261.456,12.0133368 261.456,11.32 C261.456,10.6479966 261.373334,10.0293362 261.208,9.464 C261.042666,8.89866384 260.805335,8.41333536 260.496,8.008 C260.186665,7.60266464 259.802669,7.28533448 259.344,7.056 C258.885331,6.82666552 258.368003,6.712 257.792,6.712 C257.215997,6.712 256.706669,6.82666552 256.264,7.056 C255.821331,7.28533448 255.448002,7.60266464 255.144,8.008 C254.839998,8.41333536 254.608001,8.89866384 254.448,9.464 C254.287999,10.0293362 254.208,10.6479966 254.208,11.32 C254.208,12.0133368 254.293332,12.6479971 254.464,13.224 C254.634668,13.8000029 254.879998,14.2933313 255.2,14.704 C255.520002,15.1146687 255.901331,15.4319989 256.344,15.656 C256.786669,15.8800011 257.279997,15.992 257.824,15.992 Z M265.392,10.04 L264.048,10.04 L264.048,9.128 L264.336,9.128 C264.666668,9.128 264.925332,9.09333368 265.112,9.024 C265.298668,8.95466632 265.44,8.84800072 265.536,8.704 C265.632,8.55999928 265.701333,8.37066784 265.744,8.136 C265.786667,7.90133216 265.824,7.61333504 265.856,7.272 L265.888,6.984 L266.72,6.984 L266.72,9.128 L268.416,9.128 L268.416,10.04 L266.72,10.04 L266.72,14.936 C266.72,15.3840022 266.786666,15.7066657 266.92,15.904 C267.053334,16.1013343 267.301332,16.2 267.664,16.2 C267.952001,16.2 268.218665,16.1360006 268.464,16.008 L268.608,16.968 C268.202665,17.1493342 267.754669,17.24 267.264,17.24 C266.879998,17.24 266.568001,17.1866672 266.328,17.08 C266.087999,16.9733328 265.898667,16.8293342 265.76,16.648 C265.621333,16.4666658 265.525334,16.2480013 265.472,15.992 C265.418666,15.7359987 265.392,15.4586682 265.392,15.16 L265.392,10.04 Z M270.016,5.704 L271.344,5.704 L271.344,10.68 C271.44,10.4453322 271.562666,10.2213344 271.712,10.008 C271.861334,9.7946656 272.042666,9.60533416 272.256,9.44 C272.469334,9.27466584 272.714665,9.14400048 272.992,9.048 C273.269335,8.95199952 273.578665,8.904 273.92,8.904 C274.741337,8.904 275.346665,9.17333064 275.736,9.712 C276.125335,10.2506694 276.32,10.9786621 276.32,11.896 L276.32,17 L274.992,17 L274.992,12.104 C274.992,11.4319966 274.853335,10.9280017 274.576,10.592 C274.298665,10.2559983 273.904003,10.088 273.392,10.088 C273.093332,10.088 272.818668,10.1519994 272.568,10.28 C272.317332,10.4080006 272.101334,10.5893322 271.92,10.824 C271.738666,11.0586678 271.597334,11.3413317 271.496,11.672 C271.394666,12.0026683 271.344,12.3653314 271.344,12.76 L271.344,17 L270.016,17 L270.016,5.704 Z M279.344,13.368 C279.397334,14.2746712 279.629331,14.9759975 280.04,15.472 C280.450669,15.9680025 281.023996,16.216 281.76,16.216 C282.688005,16.216 283.386664,15.778671 283.856,14.904 L284.864,15.464 C284.554665,15.9866693 284.144003,16.4133317 283.632,16.744 C283.119997,17.0746683 282.474671,17.24 281.696,17.24 C281.07733,17.24 280.536002,17.1333344 280.072,16.92 C279.607998,16.7066656 279.221335,16.4133352 278.912,16.04 C278.602665,15.6666648 278.370667,15.2293358 278.216,14.728 C278.061333,14.2266642 277.984,13.6880029 277.984,13.112 C277.984,12.5466638 278.058666,12.0080026 278.208,11.496 C278.357334,10.9839974 278.583998,10.5360019 278.888,10.152 C279.192002,9.76799808 279.565331,9.46400112 280.008,9.24 C280.450669,9.01599888 280.970664,8.904 281.568,8.904 C282.144003,8.904 282.645331,9.01333224 283.072,9.232 C283.498669,9.45066776 283.853332,9.74399816 284.136,10.112 C284.418668,10.4800018 284.631999,10.9066642 284.776,11.392 C284.920001,11.8773358 284.992,12.3919973 284.992,12.936 C284.992,13.0533339 284.989333,13.1439997 284.984,13.208 C284.978667,13.2720003 284.976,13.3253331 284.976,13.368 L279.344,13.368 Z M281.552,9.912 C280.879997,9.912 280.360002,10.1519976 279.992,10.632 C279.623998,11.1120024 279.413334,11.7573293 279.36,12.568 L283.632,12.568 C283.632,12.2373317 283.594667,11.9146682 283.52,11.6 C283.445333,11.2853318 283.322668,11.0026679 283.152,10.752 C282.981332,10.5013321 282.765335,10.2986674 282.504,10.144 C282.242665,9.98933256 281.925335,9.912 281.552,9.912 Z M286.608,9.128 L287.76,9.128 L287.888,10.888 C288.112001,10.3119971 288.469331,9.8373352 288.96,9.464 C289.450669,9.0906648 290.031997,8.904 290.704,8.904 L290.704,10.312 C290.554666,10.2799998 290.389334,10.264 290.208,10.264 C289.941332,10.264 289.674668,10.3119995 289.408,10.408 C289.141332,10.5040005 288.898668,10.6586656 288.68,10.872 C288.461332,11.0853344 288.282667,11.3599983 288.144,11.696 C288.005333,12.0320017 287.936,12.4399976 287.936,12.92 L287.936,17 L286.608,17 L286.608,9.128 Z M291.408,15.432 L292.896,15.432 L292.896,17 L291.408,17 L291.408,15.432 Z M294.688,15.432 L296.192,15.432 L296.192,17 L294.688,17 L294.688,15.432 Z M297.968,15.432 L299.472,15.432 L299.472,17 L297.968,17 L297.968,15.432 Z" id="Other…" fill="#0D78AA"></path>
                    <g id="Rectangle">
                        <use fill="#FFFFFF" fill-rule="evenodd" xlink:href="#path-1"></use>
                        <rect stroke="#979797" stroke-width="1" x="106.5" y="1.5" width="23" height="23"></rect>
                    </g>
                    <g id="Rectangle-Copy-3">
                        <use fill="#FFFFFF" fill-rule="evenodd" xlink:href="#path-2"></use>
                        <rect stroke="#979797" stroke-width="1" x="219.5" y="0.5" width="23" height="23"></rect>
                    </g>
                </g>
            </g>
        </g>
    </g>
</svg>