<?xml version="1.0" encoding="UTF-8"?>
<svg width="186px" height="24px" viewBox="0 0 186 24" version="1.1" xmlns="http://www.w3.org/2000/svg" xmlns:xlink="http://www.w3.org/1999/xlink">
    <!-- Generator: Sketch 47 (45396) - http://www.bohemiancoding.com/sketch -->
    <title>RadioButtonsBetter</title>
    <desc>Created with Sketch.</desc>
    <defs>
        <rect id="path-1" x="0" y="0" width="24" height="24"></rect>
    </defs>
    <g id="Page-1" stroke="none" stroke-width="1" fill="none" fill-rule="evenodd">
        <g id="Buttons-Usage-extra-large-1200" transform="translate(-850.000000, -1696.000000)">
            <g id="RadioButtonsBetter" transform="translate(850.000000, 1696.000000)">
                <g id="Group-3" transform="translate(121.000000, 0.000000)">
                    <path d="M34.12,5.704 L35.912,5.704 C36.2000014,6.41867024 36.4959985,7.1626628 36.8,7.936 C37.1040015,8.7093372 37.4026652,9.47466288 37.696,10.232 C37.9893348,10.9893371 38.2719986,11.7199965 38.544,12.424 C38.8160014,13.1280035 39.0639989,13.7733304 39.288,14.36 C39.5120011,13.7733304 39.757332,13.1280035 40.024,12.424 C40.290668,11.7199965 40.5733318,10.9893371 40.872,10.232 C41.1706682,9.47466288 41.4719985,8.71200384 41.776,7.944 C42.0800015,7.17599616 42.3759986,6.42933696 42.664,5.704 L44.376,5.704 L44.376,17 L43.016,17 L43.016,14.568 C43.016,13.7359958 43.0186666,12.9146707 43.024,12.104 C43.0293334,11.2933293 43.0346666,10.5066705 43.04,9.744 C43.0453334,8.98132952 43.0533333,8.27466992 43.064,7.624 C42.8186654,8.28533664 42.5440015,8.99732952 42.24,9.76 C41.9359985,10.5226705 41.621335,11.3119959 41.296,12.128 C40.970665,12.9440041 40.6400017,13.7679958 40.304,14.6 C39.9679983,15.4320042 39.6400016,16.247996 39.32,17.048 L39.192,17.048 C38.9039986,16.322663 38.5840018,15.5280043 38.232,14.664 C37.8799982,13.7999957 37.5306684,12.938671 37.184,12.08 C36.8373316,11.221329 36.5093349,10.4026706 36.2,9.624 C35.8906651,8.84532944 35.6346677,8.17866944 35.432,7.624 C35.4426667,8.27466992 35.4533333,8.98132952 35.464,9.744 C35.4746667,10.5066705 35.48,11.2959959 35.48,12.112 C35.48,12.9280041 35.4826666,13.7519958 35.488,14.584 C35.4933334,15.4160042 35.496,16.2213294 35.496,17 L34.12,17 L34.12,5.704 Z M51.464,17 C51.3466661,16.6159981 51.2773334,16.157336 51.256,15.624 C51.0426656,16.1146691 50.7146689,16.5066652 50.272,16.8 C49.8293311,17.0933348 49.304003,17.24 48.696,17.24 C47.9279962,17.24 47.3200022,17.0213355 46.872,16.584 C46.4239978,16.1466645 46.2,15.5600037 46.2,14.824 C46.2,14.4079979 46.2746659,14.0586681 46.424,13.776 C46.5733341,13.4933319 46.781332,13.2586676 47.048,13.072 C47.314668,12.8853324 47.6293315,12.7386672 47.992,12.632 C48.3546685,12.5253328 48.7493312,12.4400003 49.176,12.376 L51.192,12.072 L51.192,11.576 C51.192,11.2239982 51.1493338,10.9413344 51.064,10.728 C50.9786662,10.5146656 50.8613341,10.3493339 50.712,10.232 C50.5626659,10.1146661 50.392001,10.0373335 50.2,10 C50.007999,9.96266648 49.8053344,9.944 49.592,9.944 C48.983997,9.944 48.4826686,10.0559989 48.088,10.28 C47.6933314,10.5040011 47.362668,10.786665 47.096,11.128 L46.408,10.264 C46.7173349,9.8906648 47.1466639,9.570668 47.696,9.304 C48.2453361,9.037332 48.9253293,8.904 49.736,8.904 C50.7173382,8.904 51.4293311,9.12266448 51.872,9.56 C52.3146689,9.99733552 52.536,10.7013285 52.536,11.672 L52.536,14.856 C52.536,15.1120013 52.5386666,15.335999 52.544,15.528 C52.5493334,15.720001 52.5599999,15.8986658 52.576,16.064 C52.5920001,16.2293342 52.6159998,16.3866659 52.648,16.536 C52.6800002,16.6853341 52.7226664,16.8399992 52.776,17 L51.464,17 Z M51.192,12.952 L49.304,13.256 C48.6533301,13.3733339 48.1920014,13.5493322 47.92,13.784 C47.6479986,14.0186678 47.512,14.3439979 47.512,14.76 C47.512,15.1866688 47.6373321,15.5439986 47.888,15.832 C48.1386679,16.1200014 48.5093309,16.264 49,16.264 C49.2986682,16.264 49.581332,16.2053339 49.848,16.088 C50.114668,15.9706661 50.3466657,15.808001 50.544,15.6 C50.7413343,15.391999 50.8986661,15.1413348 51.016,14.848 C51.1333339,14.5546652 51.192,14.2320018 51.192,13.88 L51.192,12.952 Z M54.664,5.704 L55.992,5.704 L55.992,17 L54.664,17 L54.664,5.704 Z M59.048,13.368 C59.1013336,14.2746712 59.3333313,14.9759975 59.744,15.472 C60.1546687,15.9680025 60.7279963,16.216 61.464,16.216 C62.3920046,16.216 63.0906643,15.778671 63.56,14.904 L64.568,15.464 C64.2586651,15.9866693 63.8480026,16.4133317 63.336,16.744 C62.8239974,17.0746683 62.1786706,17.24 61.4,17.24 C60.7813302,17.24 60.2400023,17.1333344 59.776,16.92 C59.3119977,16.7066656 58.9253349,16.4133352 58.616,16.04 C58.3066651,15.6666648 58.0746674,15.2293358 57.92,14.728 C57.7653326,14.2266642 57.688,13.6880029 57.688,13.112 C57.688,12.5466638 57.7626659,12.0080026 57.912,11.496 C58.0613341,10.9839974 58.2879985,10.5360019 58.592,10.152 C58.8960015,9.76799808 59.2693311,9.46400112 59.712,9.24 C60.1546689,9.01599888 60.6746637,8.904 61.272,8.904 C61.8480029,8.904 62.3493312,9.01333224 62.776,9.232 C63.2026688,9.45066776 63.5573319,9.74399816 63.84,10.112 C64.1226681,10.4800018 64.3359993,10.9066642 64.48,11.392 C64.6240007,11.8773358 64.696,12.3919973 64.696,12.936 C64.696,13.0533339 64.6933334,13.1439997 64.688,13.208 C64.6826666,13.2720003 64.68,13.3253331 64.68,13.368 L59.048,13.368 Z M61.256,9.912 C60.5839966,9.912 60.0640018,10.1519976 59.696,10.632 C59.3279982,11.1120024 59.1173336,11.7573293 59.064,12.568 L63.336,12.568 C63.336,12.2373317 63.298667,11.9146682 63.224,11.6 C63.149333,11.2853318 63.0266675,11.0026679 62.856,10.752 C62.6853325,10.5013321 62.4693346,10.2986674 62.208,10.144 C61.9466654,9.98933256 61.6293352,9.912 61.256,9.912 Z" id="Male" fill="#000000"></path>
                    <rect id="Rectangle-Copy" fill="#0D78AA" x="0" y="0" width="24" height="24"></rect>
                    <path d="M10.7854917,18.8088478 L6.29149167,13.3622209 C5.828325,12.8024299 5.92749167,11.9862507 6.51510278,11.5438925 C7.10271389,11.1004896 7.95438056,11.1964 8.41910278,11.7572358 L10.6977972,14.5200418 L17.5504083,5.53392239 C17.9904361,4.95637015 18.8393806,4.82577313 19.4431306,5.24848955 C20.0486306,5.67037015 20.1796861,6.48111642 19.7400472,7.05950448 L10.7854917,18.8088478 Z" id="Fill-1" fill="#FFFFFF"></path>
                </g>
                <g id="Group-4">
                    <path d="M34.12,5.704 L40.904,5.704 L40.904,6.824 L35.56,6.824 L35.56,10.76 L39.672,10.76 L39.672,11.864 L35.56,11.864 L35.56,17 L34.12,17 L34.12,5.704 Z M42.6,13.368 C42.6533336,14.2746712 42.8853313,14.9759975 43.296,15.472 C43.7066687,15.9680025 44.2799963,16.216 45.016,16.216 C45.9440046,16.216 46.6426643,15.778671 47.112,14.904 L48.12,15.464 C47.8106651,15.9866693 47.4000026,16.4133317 46.888,16.744 C46.3759974,17.0746683 45.7306706,17.24 44.952,17.24 C44.3333302,17.24 43.7920023,17.1333344 43.328,16.92 C42.8639977,16.7066656 42.4773349,16.4133352 42.168,16.04 C41.8586651,15.6666648 41.6266674,15.2293358 41.472,14.728 C41.3173326,14.2266642 41.24,13.6880029 41.24,13.112 C41.24,12.5466638 41.3146659,12.0080026 41.464,11.496 C41.6133341,10.9839974 41.8399985,10.5360019 42.144,10.152 C42.4480015,9.76799808 42.8213311,9.46400112 43.264,9.24 C43.7066689,9.01599888 44.2266637,8.904 44.824,8.904 C45.4000029,8.904 45.9013312,9.01333224 46.328,9.232 C46.7546688,9.45066776 47.1093319,9.74399816 47.392,10.112 C47.6746681,10.4800018 47.8879993,10.9066642 48.032,11.392 C48.1760007,11.8773358 48.248,12.3919973 48.248,12.936 C48.248,13.0533339 48.2453334,13.1439997 48.24,13.208 C48.2346666,13.2720003 48.232,13.3253331 48.232,13.368 L42.6,13.368 Z M44.808,9.912 C44.1359966,9.912 43.6160018,10.1519976 43.248,10.632 C42.8799982,11.1120024 42.6693336,11.7573293 42.616,12.568 L46.888,12.568 C46.888,12.2373317 46.850667,11.9146682 46.776,11.6 C46.701333,11.2853318 46.5786675,11.0026679 46.408,10.752 C46.2373325,10.5013321 46.0213346,10.2986674 45.76,10.144 C45.4986654,9.98933256 45.1813352,9.912 44.808,9.912 Z M49.864,9.128 L51.016,9.128 L51.16,10.664 C51.352001,10.1199973 51.6506646,9.69066824 52.056,9.376 C52.4613354,9.06133176 52.9573304,8.904 53.544,8.904 C54.1626698,8.904 54.6479982,9.07999824 55,9.432 C55.3520018,9.78400176 55.5759995,10.2106642 55.672,10.712 C55.7680005,10.4666654 55.8879993,10.2346678 56.032,10.016 C56.1760007,9.79733224 56.3493323,9.60533416 56.552,9.44 C56.7546677,9.27466584 56.989332,9.14400048 57.256,9.048 C57.522668,8.95199952 57.826665,8.904 58.168,8.904 C58.6160022,8.904 58.9866652,8.98133256 59.28,9.136 C59.5733348,9.29066744 59.8079991,9.501332 59.984,9.768 C60.1600009,10.034668 60.285333,10.3466649 60.36,10.704 C60.434667,11.0613351 60.472,11.4373314 60.472,11.832 L60.472,17 L59.144,17 L59.144,12.168 C59.144,11.4639965 59.0186679,10.9386684 58.768,10.592 C58.5173321,10.2453316 58.1520024,10.072 57.672,10.072 C57.1493307,10.072 56.7120018,10.3039977 56.36,10.768 C56.0079982,11.2320023 55.832,11.8959957 55.832,12.76 L55.832,17 L54.504,17 L54.504,12.232 C54.504,11.4959963 54.3760013,10.9520018 54.12,10.6 C53.8639987,10.2479982 53.506669,10.072 53.048,10.072 C52.5359974,10.072 52.0986685,10.309331 51.736,10.784 C51.3733315,11.258669 51.192,11.9439955 51.192,12.84 L51.192,17 L49.864,17 L49.864,9.128 Z M67.432,17 C67.3146661,16.6159981 67.2453334,16.157336 67.224,15.624 C67.0106656,16.1146691 66.6826689,16.5066652 66.24,16.8 C65.7973311,17.0933348 65.272003,17.24 64.664,17.24 C63.8959962,17.24 63.2880022,17.0213355 62.84,16.584 C62.3919978,16.1466645 62.168,15.5600037 62.168,14.824 C62.168,14.4079979 62.2426659,14.0586681 62.392,13.776 C62.5413341,13.4933319 62.749332,13.2586676 63.016,13.072 C63.282668,12.8853324 63.5973315,12.7386672 63.96,12.632 C64.3226685,12.5253328 64.7173312,12.4400003 65.144,12.376 L67.16,12.072 L67.16,11.576 C67.16,11.2239982 67.1173338,10.9413344 67.032,10.728 C66.9466662,10.5146656 66.8293341,10.3493339 66.68,10.232 C66.5306659,10.1146661 66.360001,10.0373335 66.168,10 C65.975999,9.96266648 65.7733344,9.944 65.56,9.944 C64.951997,9.944 64.4506686,10.0559989 64.056,10.28 C63.6613314,10.5040011 63.330668,10.786665 63.064,11.128 L62.376,10.264 C62.6853349,9.8906648 63.1146639,9.570668 63.664,9.304 C64.2133361,9.037332 64.8933293,8.904 65.704,8.904 C66.6853382,8.904 67.3973311,9.12266448 67.84,9.56 C68.2826689,9.99733552 68.504,10.7013285 68.504,11.672 L68.504,14.856 C68.504,15.1120013 68.5066666,15.335999 68.512,15.528 C68.5173334,15.720001 68.5279999,15.8986658 68.544,16.064 C68.5600001,16.2293342 68.5839998,16.3866659 68.616,16.536 C68.6480002,16.6853341 68.6906664,16.8399992 68.744,17 L67.432,17 Z M67.16,12.952 L65.272,13.256 C64.6213301,13.3733339 64.1600014,13.5493322 63.888,13.784 C63.6159986,14.0186678 63.48,14.3439979 63.48,14.76 C63.48,15.1866688 63.6053321,15.5439986 63.856,15.832 C64.1066679,16.1200014 64.4773309,16.264 64.968,16.264 C65.2666682,16.264 65.549332,16.2053339 65.816,16.088 C66.082668,15.9706661 66.3146657,15.808001 66.512,15.6 C66.7093343,15.391999 66.8666661,15.1413348 66.984,14.848 C67.1013339,14.5546652 67.16,14.2320018 67.16,13.88 L67.16,12.952 Z M70.632,5.704 L71.96,5.704 L71.96,17 L70.632,17 L70.632,5.704 Z M75.016,13.368 C75.0693336,14.2746712 75.3013313,14.9759975 75.712,15.472 C76.1226687,15.9680025 76.6959963,16.216 77.432,16.216 C78.3600046,16.216 79.0586643,15.778671 79.528,14.904 L80.536,15.464 C80.2266651,15.9866693 79.8160026,16.4133317 79.304,16.744 C78.7919974,17.0746683 78.1466706,17.24 77.368,17.24 C76.7493302,17.24 76.2080023,17.1333344 75.744,16.92 C75.2799977,16.7066656 74.8933349,16.4133352 74.584,16.04 C74.2746651,15.6666648 74.0426674,15.2293358 73.888,14.728 C73.7333326,14.2266642 73.656,13.6880029 73.656,13.112 C73.656,12.5466638 73.7306659,12.0080026 73.88,11.496 C74.0293341,10.9839974 74.2559985,10.5360019 74.56,10.152 C74.8640015,9.76799808 75.2373311,9.46400112 75.68,9.24 C76.1226689,9.01599888 76.6426637,8.904 77.24,8.904 C77.8160029,8.904 78.3173312,9.01333224 78.744,9.232 C79.1706688,9.45066776 79.5253319,9.74399816 79.808,10.112 C80.0906681,10.4800018 80.3039993,10.9066642 80.448,11.392 C80.5920007,11.8773358 80.664,12.3919973 80.664,12.936 C80.664,13.0533339 80.6613334,13.1439997 80.656,13.208 C80.6506666,13.2720003 80.648,13.3253331 80.648,13.368 L75.016,13.368 Z M77.224,9.912 C76.5519966,9.912 76.0320018,10.1519976 75.664,10.632 C75.2959982,11.1120024 75.0853336,11.7573293 75.032,12.568 L79.304,12.568 C79.304,12.2373317 79.266667,11.9146682 79.192,11.6 C79.117333,11.2853318 78.9946675,11.0026679 78.824,10.752 C78.6533325,10.5013321 78.4373346,10.2986674 78.176,10.144 C77.9146654,9.98933256 77.5973352,9.912 77.224,9.912 Z" id="Female" fill="#000000"></path>
                    <g id="Rectangle">
                        <use fill="#FFFFFF" fill-rule="evenodd" xlink:href="#path-1"></use>
                        <rect stroke="#979797" stroke-width="1" x="0.5" y="0.5" width="23" height="23"></rect>
                    </g>
                </g>
            </g>
        </g>
    </g>
</svg>