<?xml version="1.0" encoding="UTF-8"?>
<svg width="297px" height="24px" viewBox="0 0 297 24" version="1.1" xmlns="http://www.w3.org/2000/svg" xmlns:xlink="http://www.w3.org/1999/xlink">
    <!-- Generator: Sketch 47 (45396) - http://www.bohemiancoding.com/sketch -->
    <title>NegativeLabels</title>
    <desc>Created with Sketch.</desc>
    <defs>
        <rect id="path-1" x="0" y="0" width="24" height="24"></rect>
    </defs>
    <g id="Page-1" stroke="none" stroke-width="1" fill="none" fill-rule="evenodd">
        <g id="Buttons-Usage-extra-large-1200" transform="translate(-797.000000, -1932.000000)">
            <g id="NegativeLabels" transform="translate(797.000000, 1932.000000)">
                <g id="Group-3-Copy-4">
                    <path d="M34.12,5.704 L35.8,5.704 C36.792005,7.42134192 37.7359955,9.04799232 38.632,10.584 C39.5280045,12.1200077 40.3813293,13.6186594 41.192,15.08 C41.1493331,13.479992 41.1306666,11.909341 41.136,10.368 C41.1413334,8.82665896 41.1386667,7.27200784 41.128,5.704 L42.488,5.704 L42.488,17 L40.824,17 C40.365331,16.2106627 39.898669,15.4053374 39.424,14.584 C38.949331,13.7626626 38.4773357,12.9493374 38.008,12.144 C37.5386643,11.3386626 37.0853355,10.5520038 36.648,9.784 C36.2106645,9.01599616 35.8053352,8.29600336 35.432,7.624 C35.4640002,9.23467472 35.48,10.8079923 35.48,12.344 C35.48,13.8800077 35.4853333,15.4319922 35.496,17 L34.12,17 L34.12,5.704 Z M47.912,17.24 C47.3146637,17.24 46.7893356,17.1306678 46.336,16.912 C45.8826644,16.6933322 45.5040015,16.3946686 45.2,16.016 C44.8959985,15.6373314 44.6693341,15.1946692 44.52,14.688 C44.3706659,14.1813308 44.296,13.6346696 44.296,13.048 C44.296,12.4613304 44.3733326,11.9173358 44.528,11.416 C44.6826674,10.9146642 44.9119985,10.4773352 45.216,10.104 C45.5200015,9.7306648 45.8986644,9.4373344 46.352,9.224 C46.8053356,9.0106656 47.3253304,8.904 47.912,8.904 C48.4986696,8.904 49.0186644,9.0106656 49.472,9.224 C49.9253356,9.4373344 50.3066651,9.72799816 50.616,10.096 C50.9253349,10.4640018 51.1573326,10.9013308 51.312,11.408 C51.4666674,11.9146692 51.544,12.4613304 51.544,13.048 C51.544,13.6346696 51.4666674,14.1813308 51.312,14.688 C51.1573326,15.1946692 50.9253349,15.6373314 50.616,16.016 C50.3066651,16.3946686 49.9253356,16.6933322 49.472,16.912 C49.0186644,17.1306678 48.4986696,17.24 47.912,17.24 Z M47.944,16.2 C48.3066685,16.2 48.6266653,16.1200008 48.904,15.96 C49.1813347,15.7999992 49.4106658,15.5786681 49.592,15.296 C49.7733342,15.0133319 49.9119995,14.6800019 50.008,14.296 C50.1040005,13.9119981 50.152,13.4960022 50.152,13.048 C50.152,12.5999978 50.1040005,12.1866686 50.008,11.808 C49.9119995,11.4293314 49.768001,11.1013347 49.576,10.824 C49.383999,10.5466653 49.1493347,10.3306674 48.872,10.176 C48.5946653,10.0213326 48.2746685,9.944 47.912,9.944 C47.5386648,9.944 47.2133347,10.0213326 46.936,10.176 C46.6586653,10.3306674 46.4293342,10.5466653 46.248,10.824 C46.0666658,11.1013347 45.9280005,11.4293314 45.832,11.808 C45.7359995,12.1866686 45.688,12.5999978 45.688,13.048 C45.688,13.4960022 45.7359995,13.9119981 45.832,14.296 C45.9280005,14.6800019 46.0693324,15.0133319 46.256,15.296 C46.4426676,15.5786681 46.6773319,15.7999992 46.96,15.96 C47.2426681,16.1200008 47.5706648,16.2 47.944,16.2 Z M53.928,10.04 L52.584,10.04 L52.584,9.128 L52.872,9.128 C53.2026683,9.128 53.4613324,9.09333368 53.648,9.024 C53.8346676,8.95466632 53.9759995,8.84800072 54.072,8.704 C54.1680005,8.55999928 54.2373331,8.37066784 54.28,8.136 C54.3226669,7.90133216 54.3599998,7.61333504 54.392,7.272 L54.424,6.984 L55.256,6.984 L55.256,9.128 L56.952,9.128 L56.952,10.04 L55.256,10.04 L55.256,14.936 C55.256,15.3840022 55.322666,15.7066657 55.456,15.904 C55.589334,16.1013343 55.8373315,16.2 56.2,16.2 C56.4880014,16.2 56.7546654,16.1360006 57,16.008 L57.144,16.968 C56.7386646,17.1493342 56.2906691,17.24 55.8,17.24 C55.4159981,17.24 55.1040012,17.1866672 54.864,17.08 C54.6239988,16.9733328 54.4346674,16.8293342 54.296,16.648 C54.1573326,16.4666658 54.0613336,16.2480013 54.008,15.992 C53.9546664,15.7359987 53.928,15.4586682 53.928,15.16 L53.928,10.04 Z M67.096,17 C66.9786661,16.6159981 66.9093334,16.157336 66.888,15.624 C66.6746656,16.1146691 66.3466689,16.5066652 65.904,16.8 C65.4613311,17.0933348 64.936003,17.24 64.328,17.24 C63.5599962,17.24 62.9520022,17.0213355 62.504,16.584 C62.0559978,16.1466645 61.832,15.5600037 61.832,14.824 C61.832,14.4079979 61.9066659,14.0586681 62.056,13.776 C62.2053341,13.4933319 62.413332,13.2586676 62.68,13.072 C62.946668,12.8853324 63.2613315,12.7386672 63.624,12.632 C63.9866685,12.5253328 64.3813312,12.4400003 64.808,12.376 L66.824,12.072 L66.824,11.576 C66.824,11.2239982 66.7813338,10.9413344 66.696,10.728 C66.6106662,10.5146656 66.4933341,10.3493339 66.344,10.232 C66.1946659,10.1146661 66.024001,10.0373335 65.832,10 C65.639999,9.96266648 65.4373344,9.944 65.224,9.944 C64.615997,9.944 64.1146686,10.0559989 63.72,10.28 C63.3253314,10.5040011 62.994668,10.786665 62.728,11.128 L62.04,10.264 C62.3493349,9.8906648 62.7786639,9.570668 63.328,9.304 C63.8773361,9.037332 64.5573293,8.904 65.368,8.904 C66.3493382,8.904 67.0613311,9.12266448 67.504,9.56 C67.9466689,9.99733552 68.168,10.7013285 68.168,11.672 L68.168,14.856 C68.168,15.1120013 68.1706666,15.335999 68.176,15.528 C68.1813334,15.720001 68.1919999,15.8986658 68.208,16.064 C68.2240001,16.2293342 68.2479998,16.3866659 68.28,16.536 C68.3120002,16.6853341 68.3546664,16.8399992 68.408,17 L67.096,17 Z M66.824,12.952 L64.936,13.256 C64.2853301,13.3733339 63.8240014,13.5493322 63.552,13.784 C63.2799986,14.0186678 63.144,14.3439979 63.144,14.76 C63.144,15.1866688 63.2693321,15.5439986 63.52,15.832 C63.7706679,16.1200014 64.1413309,16.264 64.632,16.264 C64.9306682,16.264 65.213332,16.2053339 65.48,16.088 C65.746668,15.9706661 65.9786657,15.808001 66.176,15.6 C66.3733343,15.391999 66.5306661,15.1413348 66.648,14.848 C66.7653339,14.5546652 66.824,14.2320018 66.824,13.88 L66.824,12.952 Z M70.296,9.128 L71.448,9.128 L71.576,10.888 C71.8000011,10.3119971 72.1573309,9.8373352 72.648,9.464 C73.1386691,9.0906648 73.7199966,8.904 74.392,8.904 L74.392,10.312 C74.2426659,10.2799998 74.0773342,10.264 73.896,10.264 C73.629332,10.264 73.362668,10.3119995 73.096,10.408 C72.829332,10.5040005 72.5866678,10.6586656 72.368,10.872 C72.1493322,11.0853344 71.9706674,11.3599983 71.832,11.696 C71.6933326,12.0320017 71.624,12.4399976 71.624,12.92 L71.624,17 L70.296,17 L70.296,9.128 Z M75.704,9.128 L76.856,9.128 L76.984,10.888 C77.2080011,10.3119971 77.5653309,9.8373352 78.056,9.464 C78.5466691,9.0906648 79.1279966,8.904 79.8,8.904 L79.8,10.312 C79.6506659,10.2799998 79.4853342,10.264 79.304,10.264 C79.037332,10.264 78.770668,10.3119995 78.504,10.408 C78.237332,10.5040005 77.9946678,10.6586656 77.776,10.872 C77.5573322,11.0853344 77.3786674,11.3599983 77.24,11.696 C77.1013326,12.0320017 77.032,12.4399976 77.032,12.92 L77.032,17 L75.704,17 L75.704,9.128 Z M81.112,6.072 L82.44,6.072 L82.44,7.4 L81.112,7.4 L81.112,6.072 Z M81.112,9.128 L82.44,9.128 L82.44,17 L81.112,17 L81.112,9.128 Z M83.88,9.128 L85.384,9.128 L87.304,15.752 L89.208,9.128 L90.648,9.128 L88.056,17 L86.456,17 L83.88,9.128 Z M93.08,13.368 C93.1333336,14.2746712 93.3653313,14.9759975 93.776,15.472 C94.1866687,15.9680025 94.7599963,16.216 95.496,16.216 C96.4240046,16.216 97.1226643,15.778671 97.592,14.904 L98.6,15.464 C98.2906651,15.9866693 97.8800026,16.4133317 97.368,16.744 C96.8559974,17.0746683 96.2106706,17.24 95.432,17.24 C94.8133302,17.24 94.2720023,17.1333344 93.808,16.92 C93.3439977,16.7066656 92.9573349,16.4133352 92.648,16.04 C92.3386651,15.6666648 92.1066674,15.2293358 91.952,14.728 C91.7973326,14.2266642 91.72,13.6880029 91.72,13.112 C91.72,12.5466638 91.7946659,12.0080026 91.944,11.496 C92.0933341,10.9839974 92.3199985,10.5360019 92.624,10.152 C92.9280015,9.76799808 93.3013311,9.46400112 93.744,9.24 C94.1866689,9.01599888 94.7066637,8.904 95.304,8.904 C95.8800029,8.904 96.3813312,9.01333224 96.808,9.232 C97.2346688,9.45066776 97.5893319,9.74399816 97.872,10.112 C98.1546681,10.4800018 98.3679993,10.9066642 98.512,11.392 C98.6560007,11.8773358 98.728,12.3919973 98.728,12.936 C98.728,13.0533339 98.7253334,13.1439997 98.72,13.208 C98.7146666,13.2720003 98.712,13.3253331 98.712,13.368 L93.08,13.368 Z M95.288,9.912 C94.6159966,9.912 94.0960018,10.1519976 93.728,10.632 C93.3599982,11.1120024 93.1493336,11.7573293 93.096,12.568 L97.368,12.568 C97.368,12.2373317 97.330667,11.9146682 97.256,11.6 C97.181333,11.2853318 97.0586675,11.0026679 96.888,10.752 C96.7173325,10.5013321 96.5013346,10.2986674 96.24,10.144 C95.9786654,9.98933256 95.6613352,9.912 95.288,9.912 Z M103.944,5.704 L105.272,5.704 L105.272,17 L103.944,17 L103.944,5.704 Z M112.264,17 C112.146666,16.6159981 112.077333,16.157336 112.056,15.624 C111.842666,16.1146691 111.514669,16.5066652 111.072,16.8 C110.629331,17.0933348 110.104003,17.24 109.496,17.24 C108.727996,17.24 108.120002,17.0213355 107.672,16.584 C107.223998,16.1466645 107,15.5600037 107,14.824 C107,14.4079979 107.074666,14.0586681 107.224,13.776 C107.373334,13.4933319 107.581332,13.2586676 107.848,13.072 C108.114668,12.8853324 108.429332,12.7386672 108.792,12.632 C109.154668,12.5253328 109.549331,12.4400003 109.976,12.376 L111.992,12.072 L111.992,11.576 C111.992,11.2239982 111.949334,10.9413344 111.864,10.728 C111.778666,10.5146656 111.661334,10.3493339 111.512,10.232 C111.362666,10.1146661 111.192001,10.0373335 111,10 C110.807999,9.96266648 110.605334,9.944 110.392,9.944 C109.783997,9.944 109.282669,10.0559989 108.888,10.28 C108.493331,10.5040011 108.162668,10.786665 107.896,11.128 L107.208,10.264 C107.517335,9.8906648 107.946664,9.570668 108.496,9.304 C109.045336,9.037332 109.725329,8.904 110.536,8.904 C111.517338,8.904 112.229331,9.12266448 112.672,9.56 C113.114669,9.99733552 113.336,10.7013285 113.336,11.672 L113.336,14.856 C113.336,15.1120013 113.338667,15.335999 113.344,15.528 C113.349333,15.720001 113.36,15.8986658 113.376,16.064 C113.392,16.2293342 113.416,16.3866659 113.448,16.536 C113.48,16.6853341 113.522666,16.8399992 113.576,17 L112.264,17 Z M111.992,12.952 L110.104,13.256 C109.45333,13.3733339 108.992001,13.5493322 108.72,13.784 C108.447999,14.0186678 108.312,14.3439979 108.312,14.76 C108.312,15.1866688 108.437332,15.5439986 108.688,15.832 C108.938668,16.1200014 109.309331,16.264 109.8,16.264 C110.098668,16.264 110.381332,16.2053339 110.648,16.088 C110.914668,15.9706661 111.146666,15.808001 111.344,15.6 C111.541334,15.391999 111.698666,15.1413348 111.816,14.848 C111.933334,14.5546652 111.992,14.2320018 111.992,13.88 L111.992,12.952 Z M116.152,10.04 L114.808,10.04 L114.808,9.128 L115.096,9.128 C115.426668,9.128 115.685332,9.09333368 115.872,9.024 C116.058668,8.95466632 116.2,8.84800072 116.296,8.704 C116.392,8.55999928 116.461333,8.37066784 116.504,8.136 C116.546667,7.90133216 116.584,7.61333504 116.616,7.272 L116.648,6.984 L117.48,6.984 L117.48,9.128 L119.176,9.128 L119.176,10.04 L117.48,10.04 L117.48,14.936 C117.48,15.3840022 117.546666,15.7066657 117.68,15.904 C117.813334,16.1013343 118.061332,16.2 118.424,16.2 C118.712001,16.2 118.978665,16.1360006 119.224,16.008 L119.368,16.968 C118.962665,17.1493342 118.514669,17.24 118.024,17.24 C117.639998,17.24 117.328001,17.1866672 117.088,17.08 C116.847999,16.9733328 116.658667,16.8293342 116.52,16.648 C116.381333,16.4666658 116.285334,16.2480013 116.232,15.992 C116.178666,15.7359987 116.152,15.4586682 116.152,15.16 L116.152,10.04 Z M121.784,13.368 C121.837334,14.2746712 122.069331,14.9759975 122.48,15.472 C122.890669,15.9680025 123.463996,16.216 124.2,16.216 C125.128005,16.216 125.826664,15.778671 126.296,14.904 L127.304,15.464 C126.994665,15.9866693 126.584003,16.4133317 126.072,16.744 C125.559997,17.0746683 124.914671,17.24 124.136,17.24 C123.51733,17.24 122.976002,17.1333344 122.512,16.92 C122.047998,16.7066656 121.661335,16.4133352 121.352,16.04 C121.042665,15.6666648 120.810667,15.2293358 120.656,14.728 C120.501333,14.2266642 120.424,13.6880029 120.424,13.112 C120.424,12.5466638 120.498666,12.0080026 120.648,11.496 C120.797334,10.9839974 121.023998,10.5360019 121.328,10.152 C121.632002,9.76799808 122.005331,9.46400112 122.448,9.24 C122.890669,9.01599888 123.410664,8.904 124.008,8.904 C124.584003,8.904 125.085331,9.01333224 125.512,9.232 C125.938669,9.45066776 126.293332,9.74399816 126.576,10.112 C126.858668,10.4800018 127.071999,10.9066642 127.216,11.392 C127.360001,11.8773358 127.432,12.3919973 127.432,12.936 C127.432,13.0533339 127.429333,13.1439997 127.424,13.208 C127.418667,13.2720003 127.416,13.3253331 127.416,13.368 L121.784,13.368 Z M123.992,9.912 C123.319997,9.912 122.800002,10.1519976 122.432,10.632 C122.063998,11.1120024 121.853334,11.7573293 121.8,12.568 L126.072,12.568 C126.072,12.2373317 126.034667,11.9146682 125.96,11.6 C125.885333,11.2853318 125.762668,11.0026679 125.592,10.752 C125.421332,10.5013321 125.205335,10.2986674 124.944,10.144 C124.682665,9.98933256 124.365335,9.912 123.992,9.912 Z" id="Not-arrive-late" fill="#000000"></path>
                    <rect id="Rectangle-Copy" fill="#0D78AA" x="0" y="0" width="24" height="24"></rect>
                    <path d="M10.7854917,18.8088478 L6.29149167,13.3622209 C5.828325,12.8024299 5.92749167,11.9862507 6.51510278,11.5438925 C7.10271389,11.1004896 7.95438056,11.1964 8.41910278,11.7572358 L10.6977972,14.5200418 L17.5504083,5.53392239 C17.9904361,4.95637015 18.8393806,4.82577313 19.4431306,5.24848955 C20.0486306,5.67037015 20.1796861,6.48111642 19.7400472,7.05950448 L10.7854917,18.8088478 Z" id="Fill-1" fill="#FFFFFF"></path>
                </g>
                <g id="Group-4-Copy" transform="translate(180.000000, 0.000000)">
                    <path d="M37.416,5.704 L38.744,5.704 L42.728,17 L41.224,17 L40.216,13.96 L35.864,13.96 L34.856,17 L33.4,17 L37.416,5.704 Z M39.832,12.856 C39.5333318,11.9279954 39.2373348,11.0186711 38.944,10.128 C38.6506652,9.23732888 38.3546682,8.30133824 38.056,7.32 C37.7786653,8.2800048 37.4853349,9.21066216 37.176,10.112 C36.8666651,11.0133378 36.5573349,11.9279954 36.248,12.856 L39.832,12.856 Z M42.904,9.128 L44.408,9.128 L46.328,15.752 L48.232,9.128 L49.672,9.128 L47.08,17 L45.48,17 L42.904,9.128 Z M54.36,17.24 C53.7626637,17.24 53.2373356,17.1306678 52.784,16.912 C52.3306644,16.6933322 51.9520015,16.3946686 51.648,16.016 C51.3439985,15.6373314 51.1173341,15.1946692 50.968,14.688 C50.8186659,14.1813308 50.744,13.6346696 50.744,13.048 C50.744,12.4613304 50.8213326,11.9173358 50.976,11.416 C51.1306674,10.9146642 51.3599985,10.4773352 51.664,10.104 C51.9680015,9.7306648 52.3466644,9.4373344 52.8,9.224 C53.2533356,9.0106656 53.7733304,8.904 54.36,8.904 C54.9466696,8.904 55.4666644,9.0106656 55.92,9.224 C56.3733356,9.4373344 56.7546651,9.72799816 57.064,10.096 C57.3733349,10.4640018 57.6053326,10.9013308 57.76,11.408 C57.9146674,11.9146692 57.992,12.4613304 57.992,13.048 C57.992,13.6346696 57.9146674,14.1813308 57.76,14.688 C57.6053326,15.1946692 57.3733349,15.6373314 57.064,16.016 C56.7546651,16.3946686 56.3733356,16.6933322 55.92,16.912 C55.4666644,17.1306678 54.9466696,17.24 54.36,17.24 Z M54.392,16.2 C54.7546685,16.2 55.0746653,16.1200008 55.352,15.96 C55.6293347,15.7999992 55.8586658,15.5786681 56.04,15.296 C56.2213342,15.0133319 56.3599995,14.6800019 56.456,14.296 C56.5520005,13.9119981 56.6,13.4960022 56.6,13.048 C56.6,12.5999978 56.5520005,12.1866686 56.456,11.808 C56.3599995,11.4293314 56.216001,11.1013347 56.024,10.824 C55.831999,10.5466653 55.5973347,10.3306674 55.32,10.176 C55.0426653,10.0213326 54.7226685,9.944 54.36,9.944 C53.9866648,9.944 53.6613347,10.0213326 53.384,10.176 C53.1066653,10.3306674 52.8773342,10.5466653 52.696,10.824 C52.5146658,11.1013347 52.3760005,11.4293314 52.28,11.808 C52.1839995,12.1866686 52.136,12.5999978 52.136,13.048 C52.136,13.4960022 52.1839995,13.9119981 52.28,14.296 C52.3760005,14.6800019 52.5173324,15.0133319 52.704,15.296 C52.8906676,15.5786681 53.1253319,15.7999992 53.408,15.96 C53.6906681,16.1200008 54.0186648,16.2 54.392,16.2 Z M59.688,6.072 L61.016,6.072 L61.016,7.4 L59.688,7.4 L59.688,6.072 Z M59.688,9.128 L61.016,9.128 L61.016,17 L59.688,17 L59.688,9.128 Z M68.36,15.464 C68.1466656,15.997336 67.8320021,16.4186651 67.416,16.728 C66.9999979,17.0373349 66.4826698,17.192 65.864,17.192 C65.3733309,17.192 64.9333353,17.0906677 64.544,16.888 C64.1546647,16.6853323 63.8240014,16.4026685 63.552,16.04 C63.2799986,15.6773315 63.0720007,15.2400026 62.928,14.728 C62.7839993,14.2159974 62.712,13.6506698 62.712,13.032 C62.712,12.3919968 62.7866659,11.8186692 62.936,11.312 C63.0853341,10.8053308 63.2986653,10.3760018 63.576,10.024 C63.8533347,9.67199824 64.1866647,9.40000096 64.576,9.208 C64.9653353,9.01599904 65.3946643,8.92 65.864,8.92 C66.5040032,8.92 67.0266646,9.07199848 67.432,9.376 C67.8373354,9.68000152 68.1253325,10.0453312 68.296,10.472 L68.296,5.704 L69.64,5.704 L69.64,17 L68.36,17 L68.36,15.464 Z M68.296,13.016 C68.296,12.6853317 68.2880001,12.4266676 68.272,12.24 C68.2559999,12.0533324 68.2373334,11.9013339 68.216,11.784 C68.1626664,11.5493322 68.0826672,11.3253344 67.976,11.112 C67.8693328,10.8986656 67.7333342,10.7093342 67.568,10.544 C67.4026658,10.3786658 67.2080011,10.2480005 66.984,10.152 C66.7599989,10.0559995 66.5040014,10.008 66.216,10.008 C65.8533315,10.008 65.5413346,10.0879992 65.28,10.248 C65.0186654,10.4080008 64.8000009,10.6239986 64.624,10.896 C64.4479991,11.1680014 64.3173338,11.4879982 64.232,11.856 C64.1466662,12.2240018 64.104,12.6159979 64.104,13.032 C64.104,13.4800022 64.1519995,13.8933314 64.248,14.272 C64.3440005,14.6506686 64.4826658,14.9759986 64.664,15.248 C64.8453342,15.5200014 65.069332,15.7333326 65.336,15.888 C65.602668,16.0426674 65.906665,16.12 66.248,16.12 C66.514668,16.12 66.7573322,16.0720005 66.976,15.976 C67.1946678,15.8799995 67.3866658,15.7466675 67.552,15.576 C67.7173342,15.4053325 67.8533328,15.2106678 67.96,14.992 C68.0666672,14.7733322 68.1466664,14.5413346 68.2,14.296 C68.2640003,13.9973318 68.296,13.5973358 68.296,13.096 L68.296,13.016 Z M80.568,15.464 C80.3546656,15.997336 80.0400021,16.4186651 79.624,16.728 C79.2079979,17.0373349 78.6906698,17.192 78.072,17.192 C77.5813309,17.192 77.1413353,17.0906677 76.752,16.888 C76.3626647,16.6853323 76.0320014,16.4026685 75.76,16.04 C75.4879986,15.6773315 75.2800007,15.2400026 75.136,14.728 C74.9919993,14.2159974 74.92,13.6506698 74.92,13.032 C74.92,12.3919968 74.9946659,11.8186692 75.144,11.312 C75.2933341,10.8053308 75.5066653,10.3760018 75.784,10.024 C76.0613347,9.67199824 76.3946647,9.40000096 76.784,9.208 C77.1733353,9.01599904 77.6026643,8.92 78.072,8.92 C78.7120032,8.92 79.2346646,9.07199848 79.64,9.376 C80.0453354,9.68000152 80.3333325,10.0453312 80.504,10.472 L80.504,5.704 L81.848,5.704 L81.848,17 L80.568,17 L80.568,15.464 Z M80.504,13.016 C80.504,12.6853317 80.4960001,12.4266676 80.48,12.24 C80.4639999,12.0533324 80.4453334,11.9013339 80.424,11.784 C80.3706664,11.5493322 80.2906672,11.3253344 80.184,11.112 C80.0773328,10.8986656 79.9413342,10.7093342 79.776,10.544 C79.6106658,10.3786658 79.4160011,10.2480005 79.192,10.152 C78.9679989,10.0559995 78.7120014,10.008 78.424,10.008 C78.0613315,10.008 77.7493346,10.0879992 77.488,10.248 C77.2266654,10.4080008 77.0080009,10.6239986 76.832,10.896 C76.6559991,11.1680014 76.5253338,11.4879982 76.44,11.856 C76.3546662,12.2240018 76.312,12.6159979 76.312,13.032 C76.312,13.4800022 76.3599995,13.8933314 76.456,14.272 C76.5520005,14.6506686 76.6906658,14.9759986 76.872,15.248 C77.0533342,15.5200014 77.277332,15.7333326 77.544,15.888 C77.810668,16.0426674 78.114665,16.12 78.456,16.12 C78.722668,16.12 78.9653322,16.0720005 79.184,15.976 C79.4026678,15.8799995 79.5946658,15.7466675 79.76,15.576 C79.9253342,15.4053325 80.0613328,15.2106678 80.168,14.992 C80.2746672,14.7733322 80.3546664,14.5413346 80.408,14.296 C80.4720003,13.9973318 80.504,13.5973358 80.504,13.096 L80.504,13.016 Z M83.88,6.072 L85.208,6.072 L85.208,7.4 L83.88,7.4 L83.88,6.072 Z M83.88,9.128 L85.208,9.128 L85.208,17 L83.88,17 L83.88,9.128 Z M87.256,9.128 L88.408,9.128 L88.552,10.696 C88.7546677,10.2159976 89.0773311,9.79733512 89.52,9.44 C89.9626689,9.08266488 90.5093301,8.904 91.16,8.904 C91.9813374,8.904 92.5866647,9.16533072 92.976,9.688 C93.3653353,10.2106693 93.56,10.9413286 93.56,11.88 L93.56,17 L92.232,17 L92.232,12.152 C92.232,11.4373298 92.0880014,10.9120017 91.8,10.576 C91.5119986,10.2399983 91.1226691,10.072 90.632,10.072 C90.0453304,10.072 89.5573353,10.3119976 89.168,10.792 C88.7786647,11.2720024 88.584,11.949329 88.584,12.824 L88.584,17 L87.256,17 L87.256,9.128 Z M95.576,9.128 L96.728,9.128 L96.872,10.696 C97.0746677,10.2159976 97.3973311,9.79733512 97.84,9.44 C98.2826689,9.08266488 98.8293301,8.904 99.48,8.904 C100.301337,8.904 100.906665,9.16533072 101.296,9.688 C101.685335,10.2106693 101.88,10.9413286 101.88,11.88 L101.88,17 L100.552,17 L100.552,12.152 C100.552,11.4373298 100.408001,10.9120017 100.12,10.576 C99.8319986,10.2399983 99.4426691,10.072 98.952,10.072 C98.3653304,10.072 97.8773353,10.3119976 97.488,10.792 C97.0986647,11.2720024 96.904,11.949329 96.904,12.824 L96.904,17 L95.576,17 L95.576,9.128 Z M104.904,13.368 C104.957334,14.2746712 105.189331,14.9759975 105.6,15.472 C106.010669,15.9680025 106.583996,16.216 107.32,16.216 C108.248005,16.216 108.946664,15.778671 109.416,14.904 L110.424,15.464 C110.114665,15.9866693 109.704003,16.4133317 109.192,16.744 C108.679997,17.0746683 108.034671,17.24 107.256,17.24 C106.63733,17.24 106.096002,17.1333344 105.632,16.92 C105.167998,16.7066656 104.781335,16.4133352 104.472,16.04 C104.162665,15.6666648 103.930667,15.2293358 103.776,14.728 C103.621333,14.2266642 103.544,13.6880029 103.544,13.112 C103.544,12.5466638 103.618666,12.0080026 103.768,11.496 C103.917334,10.9839974 104.143998,10.5360019 104.448,10.152 C104.752002,9.76799808 105.125331,9.46400112 105.568,9.24 C106.010669,9.01599888 106.530664,8.904 107.128,8.904 C107.704003,8.904 108.205331,9.01333224 108.632,9.232 C109.058669,9.45066776 109.413332,9.74399816 109.696,10.112 C109.978668,10.4800018 110.191999,10.9066642 110.336,11.392 C110.480001,11.8773358 110.552,12.3919973 110.552,12.936 C110.552,13.0533339 110.549333,13.1439997 110.544,13.208 C110.538667,13.2720003 110.536,13.3253331 110.536,13.368 L104.904,13.368 Z M107.112,9.912 C106.439997,9.912 105.920002,10.1519976 105.552,10.632 C105.183998,11.1120024 104.973334,11.7573293 104.92,12.568 L109.192,12.568 C109.192,12.2373317 109.154667,11.9146682 109.08,11.6 C109.005333,11.2853318 108.882668,11.0026679 108.712,10.752 C108.541332,10.5013321 108.325335,10.2986674 108.064,10.144 C107.802665,9.98933256 107.485335,9.912 107.112,9.912 Z M112.168,9.128 L113.32,9.128 L113.448,10.888 C113.672001,10.3119971 114.029331,9.8373352 114.52,9.464 C115.010669,9.0906648 115.591997,8.904 116.264,8.904 L116.264,10.312 C116.114666,10.2799998 115.949334,10.264 115.768,10.264 C115.501332,10.264 115.234668,10.3119995 114.968,10.408 C114.701332,10.5040005 114.458668,10.6586656 114.24,10.872 C114.021332,11.0853344 113.842667,11.3599983 113.704,11.696 C113.565333,12.0320017 113.496,12.4399976 113.496,12.92 L113.496,17 L112.168,17 L112.168,9.128 Z" id="Avoid-dinner" fill="#000000"></path>
                    <g id="Rectangle">
                        <use fill="#FFFFFF" fill-rule="evenodd" xlink:href="#path-1"></use>
                        <rect stroke="#979797" stroke-width="1" x="0.5" y="0.5" width="23" height="23"></rect>
                    </g>
                </g>
            </g>
        </g>
    </g>
</svg>