<?xml version="1.0" encoding="UTF-8"?>
<svg width="99px" height="114px" viewBox="0 0 99 114" version="1.1" xmlns="http://www.w3.org/2000/svg" xmlns:xlink="http://www.w3.org/1999/xlink">
    <!-- Generator: Sketch 47 (45396) - http://www.bohemiancoding.com/sketch -->
    <title>ListVertically</title>
    <desc>Created with Sketch.</desc>
    <defs>
        <rect id="path-1" x="0" y="0" width="24" height="24"></rect>
    </defs>
    <g id="Page-1" stroke="none" stroke-width="1" fill="none" fill-rule="evenodd">
        <g id="Buttons-Usage-extra-large-1200" transform="translate(-442.000000, -2546.000000)">
            <g id="ListVertically" transform="translate(442.000000, 2546.000000)">
                <g id="Group-3-Copy-3" transform="translate(0.000000, 45.000000)">
                    <path d="M34.12,5.704 L35.912,5.704 C36.2000014,6.41867024 36.4959985,7.1626628 36.8,7.936 C37.1040015,8.7093372 37.4026652,9.47466288 37.696,10.232 C37.9893348,10.9893371 38.2719986,11.7199965 38.544,12.424 C38.8160014,13.1280035 39.0639989,13.7733304 39.288,14.36 C39.5120011,13.7733304 39.757332,13.1280035 40.024,12.424 C40.290668,11.7199965 40.5733318,10.9893371 40.872,10.232 C41.1706682,9.47466288 41.4719985,8.71200384 41.776,7.944 C42.0800015,7.17599616 42.3759986,6.42933696 42.664,5.704 L44.376,5.704 L44.376,17 L43.016,17 L43.016,14.568 C43.016,13.7359958 43.0186666,12.9146707 43.024,12.104 C43.0293334,11.2933293 43.0346666,10.5066705 43.04,9.744 C43.0453334,8.98132952 43.0533333,8.27466992 43.064,7.624 C42.8186654,8.28533664 42.5440015,8.99732952 42.24,9.76 C41.9359985,10.5226705 41.621335,11.3119959 41.296,12.128 C40.970665,12.9440041 40.6400017,13.7679958 40.304,14.6 C39.9679983,15.4320042 39.6400016,16.247996 39.32,17.048 L39.192,17.048 C38.9039986,16.322663 38.5840018,15.5280043 38.232,14.664 C37.8799982,13.7999957 37.5306684,12.938671 37.184,12.08 C36.8373316,11.221329 36.5093349,10.4026706 36.2,9.624 C35.8906651,8.84532944 35.6346677,8.17866944 35.432,7.624 C35.4426667,8.27466992 35.4533333,8.98132952 35.464,9.744 C35.4746667,10.5066705 35.48,11.2959959 35.48,12.112 C35.48,12.9280041 35.4826666,13.7519958 35.488,14.584 C35.4933334,15.4160042 35.496,16.2213294 35.496,17 L34.12,17 L34.12,5.704 Z M46.488,9.128 L47.832,9.128 L47.832,13.896 C47.832,14.6426704 47.9706653,15.1893316 48.248,15.536 C48.5253347,15.8826684 48.9146642,16.056 49.416,16.056 C50.0560032,16.056 50.5546649,15.8026692 50.912,15.296 C51.2693351,14.7893308 51.448,14.1146709 51.448,13.272 L51.448,9.128 L52.776,9.128 L52.776,17 L51.528,17 L51.528,15.4 C51.4319995,15.6453346 51.3146674,15.8773322 51.176,16.096 C51.0373326,16.3146678 50.8666677,16.5066658 50.664,16.672 C50.4613323,16.8373342 50.226668,16.9679995 49.96,17.064 C49.693332,17.1600005 49.3786685,17.208 49.016,17.208 C48.1626624,17.208 47.5280021,16.9493359 47.112,16.432 C46.6959979,15.9146641 46.488,15.1813381 46.488,14.232 L46.488,9.128 Z M54.968,15.064 C55.234668,15.405335 55.5786646,15.6879989 56,15.912 C56.4213354,16.1360011 56.8826642,16.248 57.384,16.248 C57.8320022,16.248 58.2213317,16.1413344 58.552,15.928 C58.8826683,15.7146656 59.048,15.3946688 59.048,14.968 C59.048,14.6373317 58.9386678,14.3786676 58.72,14.192 C58.5013322,14.0053324 58.229335,13.8480006 57.904,13.72 C57.578665,13.5919994 57.2240019,13.4746672 56.84,13.368 C56.4559981,13.2613328 56.101335,13.1226675 55.776,12.952 C55.450665,12.7813325 55.1786678,12.5573347 54.96,12.28 C54.7413322,12.0026653 54.632,11.6240024 54.632,11.144 C54.632,10.7493314 54.7119992,10.4106681 54.872,10.128 C55.0320008,9.84533192 55.2426654,9.61333424 55.504,9.432 C55.7653346,9.25066576 56.066665,9.11733376 56.408,9.032 C56.749335,8.94666624 57.1066648,8.904 57.48,8.904 C58.5893389,8.904 59.5119963,9.2239968 60.248,9.864 L59.576,10.76 C59.3413322,10.5146654 59.0293353,10.3093342 58.64,10.144 C58.2506647,9.97866584 57.8480021,9.896 57.432,9.896 C57.2506658,9.896 57.0720009,9.91733312 56.896,9.96 C56.7199991,10.0026669 56.565334,10.0693329 56.432,10.16 C56.298666,10.2506671 56.1920004,10.3653326 56.112,10.504 C56.0319996,10.6426674 55.992,10.8133323 55.992,11.016 C55.992,11.3253349 56.1013322,11.5653325 56.32,11.736 C56.5386678,11.9066675 56.810665,12.0533327 57.136,12.176 C57.461335,12.2986673 57.8133314,12.4159994 58.192,12.528 C58.5706686,12.6400006 58.922665,12.7839991 59.248,12.96 C59.573335,13.1360009 59.8453322,13.3679986 60.064,13.656 C60.2826678,13.9440014 60.392,14.3279976 60.392,14.808 C60.392,15.2133354 60.3093342,15.5679985 60.144,15.872 C59.9786658,16.1760015 59.7600014,16.4293323 59.488,16.632 C59.2159986,16.8346677 58.9013351,16.9866662 58.544,17.088 C58.1866649,17.1893338 57.8160019,17.24 57.432,17.24 C56.1093267,17.24 55.0586706,16.8133376 54.28,15.96 L54.968,15.064 Z M61.944,6.072 L63.272,6.072 L63.272,7.4 L61.944,7.4 L61.944,6.072 Z M61.944,9.128 L63.272,9.128 L63.272,17 L61.944,17 L61.944,9.128 Z M71.896,15.272 C71.5759984,15.9120032 71.1466694,16.3999983 70.608,16.736 C70.0693306,17.0720017 69.4160038,17.24 68.648,17.24 C68.0186635,17.24 67.4720023,17.1306678 67.008,16.912 C66.5439977,16.6933322 66.1600015,16.3973352 65.856,16.024 C65.5519985,15.6506648 65.3280007,15.2106692 65.184,14.704 C65.0399993,14.1973308 64.968,13.6560029 64.968,13.08 C64.968,12.4933304 65.0453326,11.9466692 65.2,11.44 C65.3546674,10.9333308 65.5839985,10.4933352 65.888,10.12 C66.1920015,9.7466648 66.573331,9.45066776 67.032,9.232 C67.490669,9.01333224 68.0293302,8.904 68.648,8.904 C69.4266706,8.904 70.0746641,9.0773316 70.592,9.424 C71.1093359,9.7706684 71.5279984,10.2586635 71.848,10.888 L70.728,11.416 C70.3226646,10.4346618 69.6400048,9.944 68.68,9.944 C68.2746646,9.944 67.9253348,10.0239992 67.632,10.184 C67.3386652,10.3440008 67.0986676,10.5626653 66.912,10.84 C66.7253324,11.1173347 66.5866671,11.4399982 66.496,11.808 C66.4053329,12.1760018 66.36,12.5733312 66.36,13 C66.36,13.4053354 66.4026662,13.7999981 66.488,14.184 C66.5733338,14.5680019 66.711999,14.9093318 66.904,15.208 C67.096001,15.5066682 67.3413318,15.7466658 67.64,15.928 C67.9386682,16.1093342 68.3066645,16.2 68.744,16.2 C69.2986694,16.2 69.746665,16.0586681 70.088,15.776 C70.429335,15.4933319 70.6906658,15.1280022 70.872,14.68 L71.896,15.272 Z" id="Music" fill="#000000"></path>
                    <rect id="Rectangle-Copy" fill="#0D78AA" x="0" y="0" width="24" height="24"></rect>
                    <path d="M10.7855494,19 L6.29150142,13.4779766 C5.82832981,12.9104364 5.92749753,12.0829591 6.51511492,11.6344774 C7.10273231,11.1849365 7.95440807,11.2821746 8.41913526,11.850774 L10.697854,14.6518249 L17.5505384,5.54131248 C17.9905708,4.9557653 18.8395244,4.82336045 19.4432808,5.25192845 C20.0487873,5.67964906 20.1798442,6.50161832 19.7402006,7.08801289 L10.7855494,19 Z" id="Fill-1" fill="#FFFFFF"></path>
                </g>
                <g id="Group-3-Copy-5">
                    <path d="M34.12,5.704 L35.56,5.704 L35.56,15.88 L40.952,15.88 L40.952,17 L34.12,17 L34.12,5.704 Z M42.52,6.072 L43.848,6.072 L43.848,7.4 L42.52,7.4 L42.52,6.072 Z M42.52,9.128 L43.848,9.128 L43.848,17 L42.52,17 L42.52,9.128 Z M46.584,10.04 L45.24,10.04 L45.24,9.128 L45.528,9.128 C45.8586683,9.128 46.1173324,9.09333368 46.304,9.024 C46.4906676,8.95466632 46.6319995,8.84800072 46.728,8.704 C46.8240005,8.55999928 46.8933331,8.37066784 46.936,8.136 C46.9786669,7.90133216 47.0159998,7.61333504 47.048,7.272 L47.08,6.984 L47.912,6.984 L47.912,9.128 L49.608,9.128 L49.608,10.04 L47.912,10.04 L47.912,14.936 C47.912,15.3840022 47.978666,15.7066657 48.112,15.904 C48.245334,16.1013343 48.4933315,16.2 48.856,16.2 C49.1440014,16.2 49.4106654,16.1360006 49.656,16.008 L49.8,16.968 C49.3946646,17.1493342 48.9466691,17.24 48.456,17.24 C48.0719981,17.24 47.7600012,17.1866672 47.52,17.08 C47.2799988,16.9733328 47.0906674,16.8293342 46.952,16.648 C46.8133326,16.4666658 46.7173336,16.2480013 46.664,15.992 C46.6106664,15.7359987 46.584,15.4586682 46.584,15.16 L46.584,10.04 Z M52.216,13.368 C52.2693336,14.2746712 52.5013313,14.9759975 52.912,15.472 C53.3226687,15.9680025 53.8959963,16.216 54.632,16.216 C55.5600046,16.216 56.2586643,15.778671 56.728,14.904 L57.736,15.464 C57.4266651,15.9866693 57.0160026,16.4133317 56.504,16.744 C55.9919974,17.0746683 55.3466706,17.24 54.568,17.24 C53.9493302,17.24 53.4080023,17.1333344 52.944,16.92 C52.4799977,16.7066656 52.0933349,16.4133352 51.784,16.04 C51.4746651,15.6666648 51.2426674,15.2293358 51.088,14.728 C50.9333326,14.2266642 50.856,13.6880029 50.856,13.112 C50.856,12.5466638 50.9306659,12.0080026 51.08,11.496 C51.2293341,10.9839974 51.4559985,10.5360019 51.76,10.152 C52.0640015,9.76799808 52.4373311,9.46400112 52.88,9.24 C53.3226689,9.01599888 53.8426637,8.904 54.44,8.904 C55.0160029,8.904 55.5173312,9.01333224 55.944,9.232 C56.3706688,9.45066776 56.7253319,9.74399816 57.008,10.112 C57.2906681,10.4800018 57.5039993,10.9066642 57.648,11.392 C57.7920007,11.8773358 57.864,12.3919973 57.864,12.936 C57.864,13.0533339 57.8613334,13.1439997 57.856,13.208 C57.8506666,13.2720003 57.848,13.3253331 57.848,13.368 L52.216,13.368 Z M54.424,9.912 C53.7519966,9.912 53.2320018,10.1519976 52.864,10.632 C52.4959982,11.1120024 52.2853336,11.7573293 52.232,12.568 L56.504,12.568 C56.504,12.2373317 56.466667,11.9146682 56.392,11.6 C56.317333,11.2853318 56.1946675,11.0026679 56.024,10.752 C55.8533325,10.5013321 55.6373346,10.2986674 55.376,10.144 C55.1146654,9.98933256 54.7973352,9.912 54.424,9.912 Z M59.48,9.128 L60.632,9.128 L60.76,10.888 C60.9840011,10.3119971 61.3413309,9.8373352 61.832,9.464 C62.3226691,9.0906648 62.9039966,8.904 63.576,8.904 L63.576,10.312 C63.4266659,10.2799998 63.2613342,10.264 63.08,10.264 C62.813332,10.264 62.546668,10.3119995 62.28,10.408 C62.013332,10.5040005 61.7706678,10.6586656 61.552,10.872 C61.3333322,11.0853344 61.1546674,11.3599983 61.016,11.696 C60.8773326,12.0320017 60.808,12.4399976 60.808,12.92 L60.808,17 L59.48,17 L59.48,9.128 Z M69.832,17 C69.7146661,16.6159981 69.6453334,16.157336 69.624,15.624 C69.4106656,16.1146691 69.0826689,16.5066652 68.64,16.8 C68.1973311,17.0933348 67.672003,17.24 67.064,17.24 C66.2959962,17.24 65.6880022,17.0213355 65.24,16.584 C64.7919978,16.1466645 64.568,15.5600037 64.568,14.824 C64.568,14.4079979 64.6426659,14.0586681 64.792,13.776 C64.9413341,13.4933319 65.149332,13.2586676 65.416,13.072 C65.682668,12.8853324 65.9973315,12.7386672 66.36,12.632 C66.7226685,12.5253328 67.1173312,12.4400003 67.544,12.376 L69.56,12.072 L69.56,11.576 C69.56,11.2239982 69.5173338,10.9413344 69.432,10.728 C69.3466662,10.5146656 69.2293341,10.3493339 69.08,10.232 C68.9306659,10.1146661 68.760001,10.0373335 68.568,10 C68.375999,9.96266648 68.1733344,9.944 67.96,9.944 C67.351997,9.944 66.8506686,10.0559989 66.456,10.28 C66.0613314,10.5040011 65.730668,10.786665 65.464,11.128 L64.776,10.264 C65.0853349,9.8906648 65.5146639,9.570668 66.064,9.304 C66.6133361,9.037332 67.2933293,8.904 68.104,8.904 C69.0853382,8.904 69.7973311,9.12266448 70.24,9.56 C70.6826689,9.99733552 70.904,10.7013285 70.904,11.672 L70.904,14.856 C70.904,15.1120013 70.9066666,15.335999 70.912,15.528 C70.9173334,15.720001 70.9279999,15.8986658 70.944,16.064 C70.9600001,16.2293342 70.9839998,16.3866659 71.016,16.536 C71.0480002,16.6853341 71.0906664,16.8399992 71.144,17 L69.832,17 Z M69.56,12.952 L67.672,13.256 C67.0213301,13.3733339 66.5600014,13.5493322 66.288,13.784 C66.0159986,14.0186678 65.88,14.3439979 65.88,14.76 C65.88,15.1866688 66.0053321,15.5439986 66.256,15.832 C66.5066679,16.1200014 66.8773309,16.264 67.368,16.264 C67.6666682,16.264 67.949332,16.2053339 68.216,16.088 C68.482668,15.9706661 68.7146657,15.808001 68.912,15.6 C69.1093343,15.391999 69.2666661,15.1413348 69.384,14.848 C69.5013339,14.5546652 69.56,14.2320018 69.56,13.88 L69.56,12.952 Z M73.72,10.04 L72.376,10.04 L72.376,9.128 L72.664,9.128 C72.9946683,9.128 73.2533324,9.09333368 73.44,9.024 C73.6266676,8.95466632 73.7679995,8.84800072 73.864,8.704 C73.9600005,8.55999928 74.0293331,8.37066784 74.072,8.136 C74.1146669,7.90133216 74.1519998,7.61333504 74.184,7.272 L74.216,6.984 L75.048,6.984 L75.048,9.128 L76.744,9.128 L76.744,10.04 L75.048,10.04 L75.048,14.936 C75.048,15.3840022 75.114666,15.7066657 75.248,15.904 C75.381334,16.1013343 75.6293315,16.2 75.992,16.2 C76.2800014,16.2 76.5466654,16.1360006 76.792,16.008 L76.936,16.968 C76.5306646,17.1493342 76.0826691,17.24 75.592,17.24 C75.2079981,17.24 74.8960012,17.1866672 74.656,17.08 C74.4159988,16.9733328 74.2266674,16.8293342 74.088,16.648 C73.9493326,16.4666658 73.8533336,16.2480013 73.8,15.992 C73.7466664,15.7359987 73.72,15.4586682 73.72,15.16 L73.72,10.04 Z M78.312,9.128 L79.656,9.128 L79.656,13.896 C79.656,14.6426704 79.7946653,15.1893316 80.072,15.536 C80.3493347,15.8826684 80.7386642,16.056 81.24,16.056 C81.8800032,16.056 82.3786649,15.8026692 82.736,15.296 C83.0933351,14.7893308 83.272,14.1146709 83.272,13.272 L83.272,9.128 L84.6,9.128 L84.6,17 L83.352,17 L83.352,15.4 C83.2559995,15.6453346 83.1386674,15.8773322 83,16.096 C82.8613326,16.3146678 82.6906677,16.5066658 82.488,16.672 C82.2853323,16.8373342 82.050668,16.9679995 81.784,17.064 C81.517332,17.1600005 81.2026685,17.208 80.84,17.208 C79.9866624,17.208 79.3520021,16.9493359 78.936,16.432 C78.5199979,15.9146641 78.312,15.1813381 78.312,14.232 L78.312,9.128 Z M86.648,9.128 L87.8,9.128 L87.928,10.888 C88.1520011,10.3119971 88.5093309,9.8373352 89,9.464 C89.4906691,9.0906648 90.0719966,8.904 90.744,8.904 L90.744,10.312 C90.5946659,10.2799998 90.4293342,10.264 90.248,10.264 C89.981332,10.264 89.714668,10.3119995 89.448,10.408 C89.181332,10.5040005 88.9386678,10.6586656 88.72,10.872 C88.5013322,11.0853344 88.3226674,11.3599983 88.184,11.696 C88.0453326,12.0320017 87.976,12.4399976 87.976,12.92 L87.976,17 L86.648,17 L86.648,9.128 Z M93.064,13.368 C93.1173336,14.2746712 93.3493313,14.9759975 93.76,15.472 C94.1706687,15.9680025 94.7439963,16.216 95.48,16.216 C96.4080046,16.216 97.1066643,15.778671 97.576,14.904 L98.584,15.464 C98.2746651,15.9866693 97.8640026,16.4133317 97.352,16.744 C96.8399974,17.0746683 96.1946706,17.24 95.416,17.24 C94.7973302,17.24 94.2560023,17.1333344 93.792,16.92 C93.3279977,16.7066656 92.9413349,16.4133352 92.632,16.04 C92.3226651,15.6666648 92.0906674,15.2293358 91.936,14.728 C91.7813326,14.2266642 91.704,13.6880029 91.704,13.112 C91.704,12.5466638 91.7786659,12.0080026 91.928,11.496 C92.0773341,10.9839974 92.3039985,10.5360019 92.608,10.152 C92.9120015,9.76799808 93.2853311,9.46400112 93.728,9.24 C94.1706689,9.01599888 94.6906637,8.904 95.288,8.904 C95.8640029,8.904 96.3653312,9.01333224 96.792,9.232 C97.2186688,9.45066776 97.5733319,9.74399816 97.856,10.112 C98.1386681,10.4800018 98.3519993,10.9066642 98.496,11.392 C98.6400007,11.8773358 98.712,12.3919973 98.712,12.936 C98.712,13.0533339 98.7093334,13.1439997 98.704,13.208 C98.6986666,13.2720003 98.696,13.3253331 98.696,13.368 L93.064,13.368 Z M95.272,9.912 C94.5999966,9.912 94.0800018,10.1519976 93.712,10.632 C93.3439982,11.1120024 93.1333336,11.7573293 93.08,12.568 L97.352,12.568 C97.352,12.2373317 97.314667,11.9146682 97.24,11.6 C97.165333,11.2853318 97.0426675,11.0026679 96.872,10.752 C96.7013325,10.5013321 96.4853346,10.2986674 96.224,10.144 C95.9626654,9.98933256 95.6453352,9.912 95.272,9.912 Z" id="Literature" fill="#000000"></path>
                    <rect id="Rectangle-Copy" fill="#0D78AA" x="0" y="0" width="24" height="24"></rect>
                    <path d="M10.7855494,19 L6.29150142,13.4779766 C5.82832981,12.9104364 5.92749753,12.0829591 6.51511492,11.6344774 C7.10273231,11.1849365 7.95440807,11.2821746 8.41913526,11.850774 L10.697854,14.6518249 L17.5505384,5.54131248 C17.9905708,4.9557653 18.8395244,4.82336045 19.4432808,5.25192845 C20.0487873,5.67964906 20.1798442,6.50161832 19.7402006,7.08801289 L10.7855494,19 Z" id="Fill-1" fill="#FFFFFF"></path>
                </g>
                <g id="Group-4" transform="translate(0.000000, 90.000000)">
                    <g id="Group-14">
                        <path d="M43.32,14.616 C42.8506643,15.5120045 42.253337,16.1733312 41.528,16.6 C40.802663,17.0266688 39.906672,17.24 38.84,17.24 C37.9973291,17.24 37.2533366,17.0880015 36.608,16.784 C35.9626634,16.4799985 35.4240022,16.061336 34.992,15.528 C34.5599978,14.994664 34.2346678,14.365337 34.016,13.64 C33.7973322,12.914663 33.688,12.1360042 33.688,11.304 C33.688,10.4613291 33.7999989,9.68533688 34.024,8.976 C34.2480011,8.26666312 34.5786645,7.65066928 35.016,7.128 C35.4533355,6.60533072 35.9919968,6.1973348 36.632,5.904 C37.2720032,5.6106652 38.0079958,5.464 38.84,5.464 C39.8000048,5.464 40.6479963,5.65333144 41.384,6.032 C42.1200037,6.41066856 42.7333309,7.00532928 43.224,7.816 L41.864,8.504 C41.5546651,7.93866384 41.1440026,7.49866824 40.632,7.184 C40.1199974,6.86933176 39.5226701,6.712 38.84,6.712 C38.2426637,6.712 37.7173356,6.8319988 37.264,7.072 C36.8106644,7.3120012 36.4320015,7.63733128 36.128,8.048 C35.8239985,8.45866872 35.5946674,8.9439972 35.44,9.504 C35.2853326,10.0640028 35.208,10.6639968 35.208,11.304 C35.208,11.9440032 35.2879992,12.5493305 35.448,13.12 C35.6080008,13.6906695 35.8399985,14.1893312 36.144,14.616 C36.4480015,15.0426688 36.8266644,15.3786654 37.28,15.624 C37.7333356,15.8693346 38.2533304,15.992 38.84,15.992 C40.3226741,15.992 41.3626637,15.3040069 41.96,13.928 L43.32,14.616 Z M44.984,6.072 L46.312,6.072 L46.312,7.4 L44.984,7.4 L44.984,6.072 Z M44.984,9.128 L46.312,9.128 L46.312,17 L44.984,17 L44.984,9.128 Z M48.36,9.128 L49.512,9.128 L49.656,10.696 C49.8586677,10.2159976 50.1813311,9.79733512 50.624,9.44 C51.0666689,9.08266488 51.6133301,8.904 52.264,8.904 C53.0853374,8.904 53.6906647,9.16533072 54.08,9.688 C54.4693353,10.2106693 54.664,10.9413286 54.664,11.88 L54.664,17 L53.336,17 L53.336,12.152 C53.336,11.4373298 53.1920014,10.9120017 52.904,10.576 C52.6159986,10.2399983 52.2266691,10.072 51.736,10.072 C51.1493304,10.072 50.6613353,10.3119976 50.272,10.792 C49.8826647,11.2720024 49.688,11.949329 49.688,12.824 L49.688,17 L48.36,17 L48.36,9.128 Z M57.688,13.368 C57.7413336,14.2746712 57.9733313,14.9759975 58.384,15.472 C58.7946687,15.9680025 59.3679963,16.216 60.104,16.216 C61.0320046,16.216 61.7306643,15.778671 62.2,14.904 L63.208,15.464 C62.8986651,15.9866693 62.4880026,16.4133317 61.976,16.744 C61.4639974,17.0746683 60.8186706,17.24 60.04,17.24 C59.4213302,17.24 58.8800023,17.1333344 58.416,16.92 C57.9519977,16.7066656 57.5653349,16.4133352 57.256,16.04 C56.9466651,15.6666648 56.7146674,15.2293358 56.56,14.728 C56.4053326,14.2266642 56.328,13.6880029 56.328,13.112 C56.328,12.5466638 56.4026659,12.0080026 56.552,11.496 C56.7013341,10.9839974 56.9279985,10.5360019 57.232,10.152 C57.5360015,9.76799808 57.9093311,9.46400112 58.352,9.24 C58.7946689,9.01599888 59.3146637,8.904 59.912,8.904 C60.4880029,8.904 60.9893312,9.01333224 61.416,9.232 C61.8426688,9.45066776 62.1973319,9.74399816 62.48,10.112 C62.7626681,10.4800018 62.9759993,10.9066642 63.12,11.392 C63.2640007,11.8773358 63.336,12.3919973 63.336,12.936 C63.336,13.0533339 63.3333334,13.1439997 63.328,13.208 C63.3226666,13.2720003 63.32,13.3253331 63.32,13.368 L57.688,13.368 Z M59.896,9.912 C59.2239966,9.912 58.7040018,10.1519976 58.336,10.632 C57.9679982,11.1120024 57.7573336,11.7573293 57.704,12.568 L61.976,12.568 C61.976,12.2373317 61.938667,11.9146682 61.864,11.6 C61.789333,11.2853318 61.6666675,11.0026679 61.496,10.752 C61.3253325,10.5013321 61.1093346,10.2986674 60.848,10.144 C60.5866654,9.98933256 60.2693352,9.912 59.896,9.912 Z M64.952,9.128 L66.104,9.128 L66.248,10.664 C66.440001,10.1199973 66.7386646,9.69066824 67.144,9.376 C67.5493354,9.06133176 68.0453304,8.904 68.632,8.904 C69.2506698,8.904 69.7359982,9.07999824 70.088,9.432 C70.4400018,9.78400176 70.6639995,10.2106642 70.76,10.712 C70.8560005,10.4666654 70.9759993,10.2346678 71.12,10.016 C71.2640007,9.79733224 71.4373323,9.60533416 71.64,9.44 C71.8426677,9.27466584 72.077332,9.14400048 72.344,9.048 C72.610668,8.95199952 72.914665,8.904 73.256,8.904 C73.7040022,8.904 74.0746652,8.98133256 74.368,9.136 C74.6613348,9.29066744 74.8959991,9.501332 75.072,9.768 C75.2480009,10.034668 75.373333,10.3466649 75.448,10.704 C75.522667,11.0613351 75.56,11.4373314 75.56,11.832 L75.56,17 L74.232,17 L74.232,12.168 C74.232,11.4639965 74.1066679,10.9386684 73.856,10.592 C73.6053321,10.2453316 73.2400024,10.072 72.76,10.072 C72.2373307,10.072 71.8000018,10.3039977 71.448,10.768 C71.0959982,11.2320023 70.92,11.8959957 70.92,12.76 L70.92,17 L69.592,17 L69.592,12.232 C69.592,11.4959963 69.4640013,10.9520018 69.208,10.6 C68.9519987,10.2479982 68.594669,10.072 68.136,10.072 C67.6239974,10.072 67.1866685,10.309331 66.824,10.784 C66.4613315,11.258669 66.28,11.9439955 66.28,12.84 L66.28,17 L64.952,17 L64.952,9.128 Z M82.52,17 C82.4026661,16.6159981 82.3333334,16.157336 82.312,15.624 C82.0986656,16.1146691 81.7706689,16.5066652 81.328,16.8 C80.8853311,17.0933348 80.360003,17.24 79.752,17.24 C78.9839962,17.24 78.3760022,17.0213355 77.928,16.584 C77.4799978,16.1466645 77.256,15.5600037 77.256,14.824 C77.256,14.4079979 77.3306659,14.0586681 77.48,13.776 C77.6293341,13.4933319 77.837332,13.2586676 78.104,13.072 C78.370668,12.8853324 78.6853315,12.7386672 79.048,12.632 C79.4106685,12.5253328 79.8053312,12.4400003 80.232,12.376 L82.248,12.072 L82.248,11.576 C82.248,11.2239982 82.2053338,10.9413344 82.12,10.728 C82.0346662,10.5146656 81.9173341,10.3493339 81.768,10.232 C81.6186659,10.1146661 81.448001,10.0373335 81.256,10 C81.063999,9.96266648 80.8613344,9.944 80.648,9.944 C80.039997,9.944 79.5386686,10.0559989 79.144,10.28 C78.7493314,10.5040011 78.418668,10.786665 78.152,11.128 L77.464,10.264 C77.7733349,9.8906648 78.2026639,9.570668 78.752,9.304 C79.3013361,9.037332 79.9813293,8.904 80.792,8.904 C81.7733382,8.904 82.4853311,9.12266448 82.928,9.56 C83.3706689,9.99733552 83.592,10.7013285 83.592,11.672 L83.592,14.856 C83.592,15.1120013 83.5946666,15.335999 83.6,15.528 C83.6053334,15.720001 83.6159999,15.8986658 83.632,16.064 C83.6480001,16.2293342 83.6719998,16.3866659 83.704,16.536 C83.7360002,16.6853341 83.7786664,16.8399992 83.832,17 L82.52,17 Z M82.248,12.952 L80.36,13.256 C79.7093301,13.3733339 79.2480014,13.5493322 78.976,13.784 C78.7039986,14.0186678 78.568,14.3439979 78.568,14.76 C78.568,15.1866688 78.6933321,15.5439986 78.944,15.832 C79.1946679,16.1200014 79.5653309,16.264 80.056,16.264 C80.3546682,16.264 80.637332,16.2053339 80.904,16.088 C81.170668,15.9706661 81.4026657,15.808001 81.6,15.6 C81.7973343,15.391999 81.9546661,15.1413348 82.072,14.848 C82.1893339,14.5546652 82.248,14.2320018 82.248,13.88 L82.248,12.952 Z" id="Cinema" fill="#000000"></path>
                        <g id="Rectangle">
                            <use fill="#FFFFFF" fill-rule="evenodd" xlink:href="#path-1"></use>
                            <rect stroke="#979797" stroke-width="1" x="0.5" y="0.5" width="23" height="23"></rect>
                        </g>
                    </g>
                </g>
            </g>
        </g>
    </g>
</svg>