<?xml version="1.0" encoding="UTF-8"?>
<svg width="307px" height="24px" viewBox="0 0 307 24" version="1.1" xmlns="http://www.w3.org/2000/svg" xmlns:xlink="http://www.w3.org/1999/xlink">
    <!-- Generator: Sketch 47 (45396) - http://www.bohemiancoding.com/sketch -->
    <title>BlankByDefault</title>
    <desc>Created with Sketch.</desc>
    <defs>
        <rect id="path-1" x="224" y="0" width="24" height="24"></rect>
        <rect id="path-2" x="105" y="0" width="24" height="24"></rect>
        <rect id="path-3" x="0" y="0" width="24" height="24"></rect>
    </defs>
    <g id="Page-1" stroke="none" stroke-width="1" fill="none" fill-rule="evenodd">
        <g id="Buttons-Usage-extra-large-1200" transform="translate(-341.000000, -2901.000000)">
            <g id="Group-4-Copy-2" transform="translate(341.000000, 2901.000000)">
                <g id="BlankByDefault">
                    <path d="M262.824,17.24 C262.055996,17.24 261.357336,17.1013347 260.728,16.824 C260.098664,16.5466653 259.557336,16.1493359 259.104,15.632 C258.650664,15.1146641 258.298668,14.4906703 258.048,13.76 C257.797332,13.0293297 257.672,12.2160045 257.672,11.32 C257.672,10.4133288 257.797332,9.6000036 258.048,8.88 C258.298668,8.1599964 258.650664,7.5466692 259.104,7.04 C259.557336,6.5333308 260.098664,6.14400136 260.728,5.872 C261.357336,5.59999864 262.055996,5.464 262.824,5.464 C263.592004,5.464 264.29333,5.59999864 264.928,5.872 C265.56267,6.14400136 266.106664,6.5333308 266.56,7.04 C267.013336,7.5466692 267.367999,8.1599964 267.624,8.88 C267.880001,9.6000036 268.008,10.4133288 268.008,11.32 C268.008,12.2160045 267.880001,13.0293297 267.624,13.76 C267.367999,14.4906703 267.008002,15.1146641 266.544,15.632 C266.079998,16.1493359 265.53067,16.5466653 264.896,16.824 C264.26133,17.1013347 263.57067,17.24 262.824,17.24 Z M262.824,15.992 C263.389336,15.992 263.895998,15.8800011 264.344,15.656 C264.792002,15.4319989 265.173332,15.1146687 265.488,14.704 C265.802668,14.2933313 266.042666,13.8000029 266.208,13.224 C266.373334,12.6479971 266.456,12.0133368 266.456,11.32 C266.456,10.6479966 266.373334,10.0293362 266.208,9.464 C266.042666,8.89866384 265.805335,8.41333536 265.496,8.008 C265.186665,7.60266464 264.802669,7.28533448 264.344,7.056 C263.885331,6.82666552 263.368003,6.712 262.792,6.712 C262.215997,6.712 261.706669,6.82666552 261.264,7.056 C260.821331,7.28533448 260.448002,7.60266464 260.144,8.008 C259.839998,8.41333536 259.608001,8.89866384 259.448,9.464 C259.287999,10.0293362 259.208,10.6479966 259.208,11.32 C259.208,12.0133368 259.293332,12.6479971 259.464,13.224 C259.634668,13.8000029 259.879998,14.2933313 260.2,14.704 C260.520002,15.1146687 260.901331,15.4319989 261.344,15.656 C261.786669,15.8800011 262.279997,15.992 262.824,15.992 Z M269.704,9.128 L270.856,9.128 L270.984,10.888 C271.208001,10.3119971 271.565331,9.8373352 272.056,9.464 C272.546669,9.0906648 273.127997,8.904 273.8,8.904 L273.8,10.312 C273.650666,10.2799998 273.485334,10.264 273.304,10.264 C273.037332,10.264 272.770668,10.3119995 272.504,10.408 C272.237332,10.5040005 271.994668,10.6586656 271.776,10.872 C271.557332,11.0853344 271.378667,11.3599983 271.24,11.696 C271.101333,12.0320017 271.032,12.4399976 271.032,12.92 L271.032,17 L269.704,17 L269.704,9.128 Z M280.056,17 C279.938666,16.6159981 279.869333,16.157336 279.848,15.624 C279.634666,16.1146691 279.306669,16.5066652 278.864,16.8 C278.421331,17.0933348 277.896003,17.24 277.288,17.24 C276.519996,17.24 275.912002,17.0213355 275.464,16.584 C275.015998,16.1466645 274.792,15.5600037 274.792,14.824 C274.792,14.4079979 274.866666,14.0586681 275.016,13.776 C275.165334,13.4933319 275.373332,13.2586676 275.64,13.072 C275.906668,12.8853324 276.221332,12.7386672 276.584,12.632 C276.946668,12.5253328 277.341331,12.4400003 277.768,12.376 L279.784,12.072 L279.784,11.576 C279.784,11.2239982 279.741334,10.9413344 279.656,10.728 C279.570666,10.5146656 279.453334,10.3493339 279.304,10.232 C279.154666,10.1146661 278.984001,10.0373335 278.792,10 C278.599999,9.96266648 278.397334,9.944 278.184,9.944 C277.575997,9.944 277.074669,10.0559989 276.68,10.28 C276.285331,10.5040011 275.954668,10.786665 275.688,11.128 L275,10.264 C275.309335,9.8906648 275.738664,9.570668 276.288,9.304 C276.837336,9.037332 277.517329,8.904 278.328,8.904 C279.309338,8.904 280.021331,9.12266448 280.464,9.56 C280.906669,9.99733552 281.128,10.7013285 281.128,11.672 L281.128,14.856 C281.128,15.1120013 281.130667,15.335999 281.136,15.528 C281.141333,15.720001 281.152,15.8986658 281.168,16.064 C281.184,16.2293342 281.208,16.3866659 281.24,16.536 C281.272,16.6853341 281.314666,16.8399992 281.368,17 L280.056,17 Z M279.784,12.952 L277.896,13.256 C277.24533,13.3733339 276.784001,13.5493322 276.512,13.784 C276.239999,14.0186678 276.104,14.3439979 276.104,14.76 C276.104,15.1866688 276.229332,15.5439986 276.48,15.832 C276.730668,16.1200014 277.101331,16.264 277.592,16.264 C277.890668,16.264 278.173332,16.2053339 278.44,16.088 C278.706668,15.9706661 278.938666,15.808001 279.136,15.6 C279.333334,15.391999 279.490666,15.1413348 279.608,14.848 C279.725334,14.5546652 279.784,14.2320018 279.784,13.88 L279.784,12.952 Z M283.256,9.128 L284.408,9.128 L284.552,10.696 C284.754668,10.2159976 285.077331,9.79733512 285.52,9.44 C285.962669,9.08266488 286.50933,8.904 287.16,8.904 C287.981337,8.904 288.586665,9.16533072 288.976,9.688 C289.365335,10.2106693 289.56,10.9413286 289.56,11.88 L289.56,17 L288.232,17 L288.232,12.152 C288.232,11.4373298 288.088001,10.9120017 287.8,10.576 C287.511999,10.2399983 287.122669,10.072 286.632,10.072 C286.04533,10.072 285.557335,10.3119976 285.168,10.792 C284.778665,11.2720024 284.584,11.949329 284.584,12.824 L284.584,17 L283.256,17 L283.256,9.128 Z M292.216,17.944 C292.525335,18.2426682 292.895998,18.4799991 293.328,18.656 C293.760002,18.8320009 294.221331,18.92 294.712,18.92 C295.117335,18.92 295.447999,18.8586673 295.704,18.736 C295.960001,18.6133327 296.162666,18.4453344 296.312,18.232 C296.461334,18.0186656 296.565333,17.7760014 296.624,17.504 C296.682667,17.2319986 296.712,16.9413349 296.712,16.632 L296.712,15.176 C296.509332,15.6560024 296.205335,16.0426652 295.8,16.336 C295.394665,16.6293348 294.872003,16.776 294.232,16.776 C293.773331,16.776 293.357335,16.6880009 292.984,16.512 C292.610665,16.3359991 292.290668,16.0826683 292.024,15.752 C291.757332,15.4213317 291.552001,15.0160024 291.408,14.536 C291.263999,14.0559976 291.192,13.5173363 291.192,12.92 C291.192,12.3333304 291.263999,11.7946691 291.408,11.304 C291.552001,10.8133309 291.759999,10.3920018 292.032,10.04 C292.304001,9.68799824 292.634665,9.41333432 293.024,9.216 C293.413335,9.01866568 293.847998,8.92 294.328,8.92 C294.957336,8.92 295.479998,9.07733176 295.896,9.392 C296.312002,9.70666824 296.610666,10.1093309 296.792,10.6 L297.016,9.128 L298.04,9.128 L298.04,16.6 C298.04,17.0480022 297.986667,17.471998 297.88,17.872 C297.773333,18.272002 297.592001,18.6266651 297.336,18.936 C297.079999,19.2453349 296.738669,19.4906658 296.312,19.672 C295.885331,19.8533342 295.352003,19.944 294.712,19.944 C294.018663,19.944 293.397336,19.8453343 292.848,19.648 C292.298664,19.4506657 291.837335,19.2026682 291.464,18.904 L292.216,17.944 Z M296.712,12.92 C296.712,12.7386658 296.709333,12.5653342 296.704,12.4 C296.698667,12.2346658 296.685333,12.1093338 296.664,12.024 C296.621333,11.7679987 296.552,11.5173346 296.456,11.272 C296.36,11.0266654 296.229334,10.8133342 296.064,10.632 C295.898666,10.4506658 295.696001,10.3040006 295.456,10.192 C295.215999,10.0799994 294.936002,10.024 294.616,10.024 C294.263998,10.024 293.960001,10.0986659 293.704,10.248 C293.447999,10.3973341 293.237334,10.5999987 293.072,10.856 C292.906666,11.1120013 292.784,11.4159982 292.704,11.768 C292.624,12.1200018 292.584,12.4933314 292.584,12.888 C292.584,13.2400018 292.621333,13.5893316 292.696,13.936 C292.770667,14.2826684 292.887999,14.589332 293.048,14.856 C293.208001,15.122668 293.418665,15.3386658 293.68,15.504 C293.941335,15.6693342 294.258665,15.752 294.632,15.752 C295.154669,15.752 295.575998,15.6053348 295.896,15.312 C296.216002,15.0186652 296.439999,14.6480022 296.568,14.2 C296.621334,14.0506659 296.658667,13.8640011 296.68,13.64 C296.701333,13.4159989 296.712,13.2026677 296.712,13 L296.712,12.92 Z M301.096,13.368 C301.149334,14.2746712 301.381331,14.9759975 301.792,15.472 C302.202669,15.9680025 302.775996,16.216 303.512,16.216 C304.440005,16.216 305.138664,15.778671 305.608,14.904 L306.616,15.464 C306.306665,15.9866693 305.896003,16.4133317 305.384,16.744 C304.871997,17.0746683 304.226671,17.24 303.448,17.24 C302.82933,17.24 302.288002,17.1333344 301.824,16.92 C301.359998,16.7066656 300.973335,16.4133352 300.664,16.04 C300.354665,15.6666648 300.122667,15.2293358 299.968,14.728 C299.813333,14.2266642 299.736,13.6880029 299.736,13.112 C299.736,12.5466638 299.810666,12.0080026 299.96,11.496 C300.109334,10.9839974 300.335998,10.5360019 300.64,10.152 C300.944002,9.76799808 301.317331,9.46400112 301.76,9.24 C302.202669,9.01599888 302.722664,8.904 303.32,8.904 C303.896003,8.904 304.397331,9.01333224 304.824,9.232 C305.250669,9.45066776 305.605332,9.74399816 305.888,10.112 C306.170668,10.4800018 306.383999,10.9066642 306.528,11.392 C306.672001,11.8773358 306.744,12.3919973 306.744,12.936 C306.744,13.0533339 306.741333,13.1439997 306.736,13.208 C306.730667,13.2720003 306.728,13.3253331 306.728,13.368 L301.096,13.368 Z M303.304,9.912 C302.631997,9.912 302.112002,10.1519976 301.744,10.632 C301.375998,11.1120024 301.165334,11.7573293 301.112,12.568 L305.384,12.568 C305.384,12.2373317 305.346667,11.9146682 305.272,11.6 C305.197333,11.2853318 305.074668,11.0026679 304.904,10.752 C304.733332,10.5013321 304.517335,10.2986674 304.256,10.144 C303.994665,9.98933256 303.677335,9.912 303.304,9.912 Z" id="Orange" fill="#000000"></path>
                    <g id="Rectangle">
                        <use fill="#FFFFFF" fill-rule="evenodd" xlink:href="#path-1"></use>
                        <rect stroke="#979797" stroke-width="1" x="224.5" y="0.5" width="23" height="23"></rect>
                    </g>
                    <path d="M142.176,11.896 L138.352,5.704 L140,5.704 L142.912,10.776 L145.904,5.704 L147.536,5.704 L143.616,11.896 L143.616,17 L142.176,17 L142.176,11.896 Z M148.64,13.368 C148.693334,14.2746712 148.925331,14.9759975 149.336,15.472 C149.746669,15.9680025 150.319996,16.216 151.056,16.216 C151.984005,16.216 152.682664,15.778671 153.152,14.904 L154.16,15.464 C153.850665,15.9866693 153.440003,16.4133317 152.928,16.744 C152.415997,17.0746683 151.770671,17.24 150.992,17.24 C150.37333,17.24 149.832002,17.1333344 149.368,16.92 C148.903998,16.7066656 148.517335,16.4133352 148.208,16.04 C147.898665,15.6666648 147.666667,15.2293358 147.512,14.728 C147.357333,14.2266642 147.28,13.6880029 147.28,13.112 C147.28,12.5466638 147.354666,12.0080026 147.504,11.496 C147.653334,10.9839974 147.879998,10.5360019 148.184,10.152 C148.488002,9.76799808 148.861331,9.46400112 149.304,9.24 C149.746669,9.01599888 150.266664,8.904 150.864,8.904 C151.440003,8.904 151.941331,9.01333224 152.368,9.232 C152.794669,9.45066776 153.149332,9.74399816 153.432,10.112 C153.714668,10.4800018 153.927999,10.9066642 154.072,11.392 C154.216001,11.8773358 154.288,12.3919973 154.288,12.936 C154.288,13.0533339 154.285333,13.1439997 154.28,13.208 C154.274667,13.2720003 154.272,13.3253331 154.272,13.368 L148.64,13.368 Z M150.848,9.912 C150.175997,9.912 149.656002,10.1519976 149.288,10.632 C148.919998,11.1120024 148.709334,11.7573293 148.656,12.568 L152.928,12.568 C152.928,12.2373317 152.890667,11.9146682 152.816,11.6 C152.741333,11.2853318 152.618668,11.0026679 152.448,10.752 C152.277332,10.5013321 152.061335,10.2986674 151.8,10.144 C151.538665,9.98933256 151.221335,9.912 150.848,9.912 Z M155.904,5.704 L157.232,5.704 L157.232,17 L155.904,17 L155.904,5.704 Z M159.28,5.704 L160.608,5.704 L160.608,17 L159.28,17 L159.28,5.704 Z M165.92,17.24 C165.322664,17.24 164.797336,17.1306678 164.344,16.912 C163.890664,16.6933322 163.512002,16.3946686 163.208,16.016 C162.903998,15.6373314 162.677334,15.1946692 162.528,14.688 C162.378666,14.1813308 162.304,13.6346696 162.304,13.048 C162.304,12.4613304 162.381333,11.9173358 162.536,11.416 C162.690667,10.9146642 162.919998,10.4773352 163.224,10.104 C163.528002,9.7306648 163.906664,9.4373344 164.36,9.224 C164.813336,9.0106656 165.33333,8.904 165.92,8.904 C166.50667,8.904 167.026664,9.0106656 167.48,9.224 C167.933336,9.4373344 168.314665,9.72799816 168.624,10.096 C168.933335,10.4640018 169.165333,10.9013308 169.32,11.408 C169.474667,11.9146692 169.552,12.4613304 169.552,13.048 C169.552,13.6346696 169.474667,14.1813308 169.32,14.688 C169.165333,15.1946692 168.933335,15.6373314 168.624,16.016 C168.314665,16.3946686 167.933336,16.6933322 167.48,16.912 C167.026664,17.1306678 166.50667,17.24 165.92,17.24 Z M165.952,16.2 C166.314668,16.2 166.634665,16.1200008 166.912,15.96 C167.189335,15.7999992 167.418666,15.5786681 167.6,15.296 C167.781334,15.0133319 167.92,14.6800019 168.016,14.296 C168.112,13.9119981 168.16,13.4960022 168.16,13.048 C168.16,12.5999978 168.112,12.1866686 168.016,11.808 C167.92,11.4293314 167.776001,11.1013347 167.584,10.824 C167.391999,10.5466653 167.157335,10.3306674 166.88,10.176 C166.602665,10.0213326 166.282668,9.944 165.92,9.944 C165.546665,9.944 165.221335,10.0213326 164.944,10.176 C164.666665,10.3306674 164.437334,10.5466653 164.256,10.824 C164.074666,11.1013347 163.936,11.4293314 163.84,11.808 C163.744,12.1866686 163.696,12.5999978 163.696,13.048 C163.696,13.4960022 163.744,13.9119981 163.84,14.296 C163.936,14.6800019 164.077332,15.0133319 164.264,15.296 C164.450668,15.5786681 164.685332,15.7999992 164.968,15.96 C165.250668,16.1200008 165.578665,16.2 165.952,16.2 Z M170.672,9.128 L172.112,9.128 L173.712,15.72 L175.296,9.128 L176.768,9.128 L178.32,15.72 L179.936,9.128 L181.376,9.128 L179.056,17 L177.584,17 L176.016,10.936 L174.448,17 L172.976,17 L170.672,9.128 Z" id="Yellow" fill="#000000"></path>
                    <g id="Rectangle">
                        <use fill="#FFFFFF" fill-rule="evenodd" xlink:href="#path-2"></use>
                        <rect stroke="#979797" stroke-width="1" x="105.5" y="0.5" width="23" height="23"></rect>
                    </g>
                    <path d="M34.12,5.704 L37.928,5.704 C38.386669,5.704 38.8373311,5.74933288 39.28,5.84 C39.7226689,5.93066712 40.114665,6.08533224 40.456,6.304 C40.797335,6.52266776 41.071999,6.81333152 41.28,7.176 C41.488001,7.53866848 41.592,7.986664 41.592,8.52 C41.592,9.2133368 41.3866687,9.78399776 40.976,10.232 C40.5653313,10.6800022 39.997337,10.9626661 39.272,11.08 C39.6453352,11.1333336 39.994665,11.2293326 40.32,11.368 C40.645335,11.5066674 40.9279988,11.6933322 41.168,11.928 C41.4080012,12.1626678 41.594666,12.442665 41.728,12.768 C41.861334,13.093335 41.928,13.4693312 41.928,13.896 C41.928,14.4720029 41.8293343,14.959998 41.632,15.36 C41.4346657,15.760002 41.165335,16.0799988 40.824,16.32 C40.482665,16.5600012 40.0773357,16.7333328 39.608,16.84 C39.1386643,16.9466672 38.6266694,17 38.072,17 L34.12,17 L34.12,5.704 Z M37.416,10.552 C37.7253349,10.552 38.0373318,10.5333335 38.352,10.496 C38.6666682,10.4586665 38.9519987,10.3706674 39.208,10.232 C39.4640013,10.0933326 39.6719992,9.89600128 39.832,9.64 C39.9920008,9.38399872 40.072,9.03733552 40.072,8.6 C40.072,8.24799824 40.0080006,7.95733448 39.88,7.728 C39.7519994,7.49866552 39.5760011,7.317334 39.352,7.184 C39.1279989,7.050666 38.8720014,6.9573336 38.584,6.904 C38.2959986,6.8506664 37.9920016,6.824 37.672,6.824 L35.56,6.824 L35.56,10.552 L37.416,10.552 Z M37.848,15.88 C38.1680016,15.88 38.4799985,15.8480003 38.784,15.784 C39.0880015,15.7199997 39.3599988,15.6080008 39.6,15.448 C39.8400012,15.2879992 40.0319993,15.0693347 40.176,14.792 C40.3200007,14.5146653 40.392,14.1626688 40.392,13.736 C40.392,13.3413314 40.3146674,13.010668 40.16,12.744 C40.0053326,12.477332 39.8000013,12.2640008 39.544,12.104 C39.2879987,11.9439992 38.997335,11.8293337 38.672,11.76 C38.346665,11.6906663 38.013335,11.656 37.672,11.656 L35.56,11.656 L35.56,15.88 L37.848,15.88 Z M43.64,5.704 L44.968,5.704 L44.968,17 L43.64,17 L43.64,5.704 Z M46.984,9.128 L48.328,9.128 L48.328,13.896 C48.328,14.6426704 48.4666653,15.1893316 48.744,15.536 C49.0213347,15.8826684 49.4106642,16.056 49.912,16.056 C50.5520032,16.056 51.0506649,15.8026692 51.408,15.296 C51.7653351,14.7893308 51.944,14.1146709 51.944,13.272 L51.944,9.128 L53.272,9.128 L53.272,17 L52.024,17 L52.024,15.4 C51.9279995,15.6453346 51.8106674,15.8773322 51.672,16.096 C51.5333326,16.3146678 51.3626677,16.5066658 51.16,16.672 C50.9573323,16.8373342 50.722668,16.9679995 50.456,17.064 C50.189332,17.1600005 49.8746685,17.208 49.512,17.208 C48.6586624,17.208 48.0240021,16.9493359 47.608,16.432 C47.1919979,15.9146641 46.984,15.1813381 46.984,14.232 L46.984,9.128 Z M56.328,13.368 C56.3813336,14.2746712 56.6133313,14.9759975 57.024,15.472 C57.4346687,15.9680025 58.0079963,16.216 58.744,16.216 C59.6720046,16.216 60.3706643,15.778671 60.84,14.904 L61.848,15.464 C61.5386651,15.9866693 61.1280026,16.4133317 60.616,16.744 C60.1039974,17.0746683 59.4586706,17.24 58.68,17.24 C58.0613302,17.24 57.5200023,17.1333344 57.056,16.92 C56.5919977,16.7066656 56.2053349,16.4133352 55.896,16.04 C55.5866651,15.6666648 55.3546674,15.2293358 55.2,14.728 C55.0453326,14.2266642 54.968,13.6880029 54.968,13.112 C54.968,12.5466638 55.0426659,12.0080026 55.192,11.496 C55.3413341,10.9839974 55.5679985,10.5360019 55.872,10.152 C56.1760015,9.76799808 56.5493311,9.46400112 56.992,9.24 C57.4346689,9.01599888 57.9546637,8.904 58.552,8.904 C59.1280029,8.904 59.6293312,9.01333224 60.056,9.232 C60.4826688,9.45066776 60.8373319,9.74399816 61.12,10.112 C61.4026681,10.4800018 61.6159993,10.9066642 61.76,11.392 C61.9040007,11.8773358 61.976,12.3919973 61.976,12.936 C61.976,13.0533339 61.9733334,13.1439997 61.968,13.208 C61.9626666,13.2720003 61.96,13.3253331 61.96,13.368 L56.328,13.368 Z M58.536,9.912 C57.8639966,9.912 57.3440018,10.1519976 56.976,10.632 C56.6079982,11.1120024 56.3973336,11.7573293 56.344,12.568 L60.616,12.568 C60.616,12.2373317 60.578667,11.9146682 60.504,11.6 C60.429333,11.2853318 60.3066675,11.0026679 60.136,10.752 C59.9653325,10.5013321 59.7493346,10.2986674 59.488,10.144 C59.2266654,9.98933256 58.9093352,9.912 58.536,9.912 Z" id="Blue" fill="#000000"></path>
                    <g id="Rectangle">
                        <use fill="#FFFFFF" fill-rule="evenodd" xlink:href="#path-3"></use>
                        <rect stroke="#979797" stroke-width="1" x="0.5" y="0.5" width="23" height="23"></rect>
                    </g>
                </g>
            </g>
        </g>
    </g>
</svg>