<?xml version="1.0" encoding="UTF-8"?>
<svg width="314px" height="24px" viewBox="0 0 314 24" version="1.1" xmlns="http://www.w3.org/2000/svg" xmlns:xlink="http://www.w3.org/1999/xlink">
    <!-- Generator: Sketch 47 (45396) - http://www.bohemiancoding.com/sketch -->
    <title>InGroups</title>
    <desc>Created with Sketch.</desc>
    <defs></defs>
    <g id="Page-1" stroke="none" stroke-width="1" fill="none" fill-rule="evenodd">
        <g id="Buttons-Usage-extra-large-1200" transform="translate(-341.000000, -1696.000000)">
            <g id="InGroups" transform="translate(341.000000, 1696.000000)">
                <g id="Group-3" transform="translate(117.000000, 0.000000)">
                    <path d="M34.12,5.704 L37.912,5.704 C38.4773362,5.704 38.9999976,5.76799936 39.48,5.896 C39.9600024,6.02400064 40.3733316,6.221332 40.72,6.488 C41.0666684,6.754668 41.3386657,7.09333128 41.536,7.504 C41.7333343,7.91466872 41.832,8.40799712 41.832,8.984 C41.832,9.6240032 41.7333343,10.1679978 41.536,10.616 C41.3386657,11.0640022 41.0640018,11.4266653 40.712,11.704 C40.3599982,11.9813347 39.946669,12.1813327 39.472,12.304 C38.997331,12.4266673 38.4826694,12.488 37.928,12.488 L35.56,12.488 L35.56,17 L34.12,17 L34.12,5.704 Z M37.688,11.336 C38.5200042,11.336 39.165331,11.1573351 39.624,10.8 C40.082669,10.4426649 40.312,9.8373376 40.312,8.984 C40.312,8.58933136 40.245334,8.25333472 40.112,7.976 C39.978666,7.69866528 39.7973345,7.47466752 39.568,7.304 C39.3386655,7.13333248 39.0666682,7.01066704 38.752,6.936 C38.4373318,6.86133296 38.0986685,6.824 37.736,6.824 L35.56,6.824 L35.56,11.336 L37.688,11.336 Z M46.2,17.24 C45.6026637,17.24 45.0773356,17.1306678 44.624,16.912 C44.1706644,16.6933322 43.7920015,16.3946686 43.488,16.016 C43.1839985,15.6373314 42.9573341,15.1946692 42.808,14.688 C42.6586659,14.1813308 42.584,13.6346696 42.584,13.048 C42.584,12.4613304 42.6613326,11.9173358 42.816,11.416 C42.9706674,10.9146642 43.1999985,10.4773352 43.504,10.104 C43.8080015,9.7306648 44.1866644,9.4373344 44.64,9.224 C45.0933356,9.0106656 45.6133304,8.904 46.2,8.904 C46.7866696,8.904 47.3066644,9.0106656 47.76,9.224 C48.2133356,9.4373344 48.5946651,9.72799816 48.904,10.096 C49.2133349,10.4640018 49.4453326,10.9013308 49.6,11.408 C49.7546674,11.9146692 49.832,12.4613304 49.832,13.048 C49.832,13.6346696 49.7546674,14.1813308 49.6,14.688 C49.4453326,15.1946692 49.2133349,15.6373314 48.904,16.016 C48.5946651,16.3946686 48.2133356,16.6933322 47.76,16.912 C47.3066644,17.1306678 46.7866696,17.24 46.2,17.24 Z M46.232,16.2 C46.5946685,16.2 46.9146653,16.1200008 47.192,15.96 C47.4693347,15.7999992 47.6986658,15.5786681 47.88,15.296 C48.0613342,15.0133319 48.1999995,14.6800019 48.296,14.296 C48.3920005,13.9119981 48.44,13.4960022 48.44,13.048 C48.44,12.5999978 48.3920005,12.1866686 48.296,11.808 C48.1999995,11.4293314 48.056001,11.1013347 47.864,10.824 C47.671999,10.5466653 47.4373347,10.3306674 47.16,10.176 C46.8826653,10.0213326 46.5626685,9.944 46.2,9.944 C45.8266648,9.944 45.5013347,10.0213326 45.224,10.176 C44.9466653,10.3306674 44.7173342,10.5466653 44.536,10.824 C44.3546658,11.1013347 44.2160005,11.4293314 44.12,11.808 C44.0239995,12.1866686 43.976,12.5999978 43.976,13.048 C43.976,13.4960022 44.0239995,13.9119981 44.12,14.296 C44.2160005,14.6800019 44.3573324,15.0133319 44.544,15.296 C44.7306676,15.5786681 44.9653319,15.7999992 45.248,15.96 C45.5306681,16.1200008 45.8586648,16.2 46.232,16.2 Z M51.528,9.128 L52.68,9.128 L52.808,10.888 C53.0320011,10.3119971 53.3893309,9.8373352 53.88,9.464 C54.3706691,9.0906648 54.9519966,8.904 55.624,8.904 L55.624,10.312 C55.4746659,10.2799998 55.3093342,10.264 55.128,10.264 C54.861332,10.264 54.594668,10.3119995 54.328,10.408 C54.061332,10.5040005 53.8186678,10.6586656 53.6,10.872 C53.3813322,11.0853344 53.2026674,11.3599983 53.064,11.696 C52.9253326,12.0320017 52.856,12.4399976 52.856,12.92 L52.856,17 L51.528,17 L51.528,9.128 Z M57.624,10.04 L56.28,10.04 L56.28,9.128 L56.568,9.128 C56.8986683,9.128 57.1573324,9.09333368 57.344,9.024 C57.5306676,8.95466632 57.6719995,8.84800072 57.768,8.704 C57.8640005,8.55999928 57.9333331,8.37066784 57.976,8.136 C58.0186669,7.90133216 58.0559998,7.61333504 58.088,7.272 L58.12,6.984 L58.952,6.984 L58.952,9.128 L60.648,9.128 L60.648,10.04 L58.952,10.04 L58.952,14.936 C58.952,15.3840022 59.018666,15.7066657 59.152,15.904 C59.285334,16.1013343 59.5333315,16.2 59.896,16.2 C60.1840014,16.2 60.4506654,16.1360006 60.696,16.008 L60.84,16.968 C60.4346646,17.1493342 59.9866691,17.24 59.496,17.24 C59.1119981,17.24 58.8000012,17.1866672 58.56,17.08 C58.3199988,16.9733328 58.1306674,16.8293342 57.992,16.648 C57.8533326,16.4666658 57.7573336,16.2480013 57.704,15.992 C57.6506664,15.7359987 57.624,15.4586682 57.624,15.16 L57.624,10.04 Z M62.216,9.128 L63.56,9.128 L63.56,13.896 C63.56,14.6426704 63.6986653,15.1893316 63.976,15.536 C64.2533347,15.8826684 64.6426642,16.056 65.144,16.056 C65.7840032,16.056 66.2826649,15.8026692 66.64,15.296 C66.9973351,14.7893308 67.176,14.1146709 67.176,13.272 L67.176,9.128 L68.504,9.128 L68.504,17 L67.256,17 L67.256,15.4 C67.1599995,15.6453346 67.0426674,15.8773322 66.904,16.096 C66.7653326,16.3146678 66.5946677,16.5066658 66.392,16.672 C66.1893323,16.8373342 65.954668,16.9679995 65.688,17.064 C65.421332,17.1600005 65.1066685,17.208 64.744,17.208 C63.8906624,17.208 63.2560021,16.9493359 62.84,16.432 C62.4239979,15.9146641 62.216,15.1813381 62.216,14.232 L62.216,9.128 Z M71.192,17.944 C71.5013349,18.2426682 71.8719978,18.4799991 72.304,18.656 C72.7360022,18.8320009 73.1973309,18.92 73.688,18.92 C74.0933354,18.92 74.4239987,18.8586673 74.68,18.736 C74.9360013,18.6133327 75.1386659,18.4453344 75.288,18.232 C75.4373341,18.0186656 75.541333,17.7760014 75.6,17.504 C75.658667,17.2319986 75.688,16.9413349 75.688,16.632 L75.688,15.176 C75.4853323,15.6560024 75.1813354,16.0426652 74.776,16.336 C74.3706646,16.6293348 73.8480032,16.776 73.208,16.776 C72.749331,16.776 72.3333352,16.6880009 71.96,16.512 C71.5866648,16.3359991 71.266668,16.0826683 71,15.752 C70.733332,15.4213317 70.5280007,15.0160024 70.384,14.536 C70.2399993,14.0559976 70.168,13.5173363 70.168,12.92 C70.168,12.3333304 70.2399993,11.7946691 70.384,11.304 C70.5280007,10.8133309 70.7359986,10.3920018 71.008,10.04 C71.2800014,9.68799824 71.6106647,9.41333432 72,9.216 C72.3893353,9.01866568 72.8239976,8.92 73.304,8.92 C73.9333365,8.92 74.4559979,9.07733176 74.872,9.392 C75.2880021,9.70666824 75.5866658,10.1093309 75.768,10.6 L75.992,9.128 L77.016,9.128 L77.016,16.6 C77.016,17.0480022 76.9626672,17.471998 76.856,17.872 C76.7493328,18.272002 76.5680013,18.6266651 76.312,18.936 C76.0559987,19.2453349 75.7146688,19.4906658 75.288,19.672 C74.8613312,19.8533342 74.3280032,19.944 73.688,19.944 C72.9946632,19.944 72.3733361,19.8453343 71.824,19.648 C71.2746639,19.4506657 70.8133352,19.2026682 70.44,18.904 L71.192,17.944 Z M75.688,12.92 C75.688,12.7386658 75.6853334,12.5653342 75.68,12.4 C75.6746666,12.2346658 75.6613334,12.1093338 75.64,12.024 C75.5973331,11.7679987 75.5280005,11.5173346 75.432,11.272 C75.3359995,11.0266654 75.2053342,10.8133342 75.04,10.632 C74.8746658,10.4506658 74.6720012,10.3040006 74.432,10.192 C74.1919988,10.0799994 73.9120016,10.024 73.592,10.024 C73.2399982,10.024 72.9360013,10.0986659 72.68,10.248 C72.4239987,10.3973341 72.2133342,10.5999987 72.048,10.856 C71.8826658,11.1120013 71.7600004,11.4159982 71.68,11.768 C71.5999996,12.1200018 71.56,12.4933314 71.56,12.888 C71.56,13.2400018 71.597333,13.5893316 71.672,13.936 C71.746667,14.2826684 71.8639992,14.589332 72.024,14.856 C72.1840008,15.122668 72.3946654,15.3386658 72.656,15.504 C72.9173346,15.6693342 73.2346648,15.752 73.608,15.752 C74.1306693,15.752 74.5519984,15.6053348 74.872,15.312 C75.1920016,15.0186652 75.4159994,14.6480022 75.544,14.2 C75.5973336,14.0506659 75.6346666,13.8640011 75.656,13.64 C75.6773334,13.4159989 75.688,13.2026677 75.688,13 L75.688,12.92 Z M84.008,17 C83.8906661,16.6159981 83.8213334,16.157336 83.8,15.624 C83.5866656,16.1146691 83.2586689,16.5066652 82.816,16.8 C82.3733311,17.0933348 81.848003,17.24 81.24,17.24 C80.4719962,17.24 79.8640022,17.0213355 79.416,16.584 C78.9679978,16.1466645 78.744,15.5600037 78.744,14.824 C78.744,14.4079979 78.8186659,14.0586681 78.968,13.776 C79.1173341,13.4933319 79.325332,13.2586676 79.592,13.072 C79.858668,12.8853324 80.1733315,12.7386672 80.536,12.632 C80.8986685,12.5253328 81.2933312,12.4400003 81.72,12.376 L83.736,12.072 L83.736,11.576 C83.736,11.2239982 83.6933338,10.9413344 83.608,10.728 C83.5226662,10.5146656 83.4053341,10.3493339 83.256,10.232 C83.1066659,10.1146661 82.936001,10.0373335 82.744,10 C82.551999,9.96266648 82.3493344,9.944 82.136,9.944 C81.527997,9.944 81.0266686,10.0559989 80.632,10.28 C80.2373314,10.5040011 79.906668,10.786665 79.64,11.128 L78.952,10.264 C79.2613349,9.8906648 79.6906639,9.570668 80.24,9.304 C80.7893361,9.037332 81.4693293,8.904 82.28,8.904 C83.2613382,8.904 83.9733311,9.12266448 84.416,9.56 C84.8586689,9.99733552 85.08,10.7013285 85.08,11.672 L85.08,14.856 C85.08,15.1120013 85.0826666,15.335999 85.088,15.528 C85.0933334,15.720001 85.1039999,15.8986658 85.12,16.064 C85.1360001,16.2293342 85.1599998,16.3866659 85.192,16.536 C85.2240002,16.6853341 85.2666664,16.8399992 85.32,17 L84.008,17 Z M83.736,12.952 L81.848,13.256 C81.1973301,13.3733339 80.7360014,13.5493322 80.464,13.784 C80.1919986,14.0186678 80.056,14.3439979 80.056,14.76 C80.056,15.1866688 80.1813321,15.5439986 80.432,15.832 C80.6826679,16.1200014 81.0533309,16.264 81.544,16.264 C81.8426682,16.264 82.125332,16.2053339 82.392,16.088 C82.658668,15.9706661 82.8906657,15.808001 83.088,15.6 C83.2853343,15.391999 83.4426661,15.1413348 83.56,14.848 C83.6773339,14.5546652 83.736,14.2320018 83.736,13.88 L83.736,12.952 Z M87.208,5.704 L88.536,5.704 L88.536,17 L87.208,17 L87.208,5.704 Z" id="Portugal" fill="#000000"></path>
                    <rect id="Rectangle-Copy" fill="#0D78AA" x="0" y="0" width="24" height="24"></rect>
                    <path d="M10.7854917,18.8088478 L6.29149167,13.3622209 C5.828325,12.8024299 5.92749167,11.9862507 6.51510278,11.5438925 C7.10271389,11.1004896 7.95438056,11.1964 8.41910278,11.7572358 L10.6977972,14.5200418 L17.5504083,5.53392239 C17.9904361,4.95637015 18.8393806,4.82577313 19.4431306,5.24848955 C20.0486306,5.67037015 20.1796861,6.48111642 19.7400472,7.05950448 L10.7854917,18.8088478 Z" id="Fill-1" fill="#FFFFFF"></path>
                </g>
                <g id="Group-3-Copy-2" transform="translate(253.000000, 0.000000)">
                    <path d="M34.264,5.704 L35.704,5.704 L35.704,17 L34.264,17 L34.264,5.704 Z M38.68,10.04 L37.336,10.04 L37.336,9.128 L37.624,9.128 C37.9546683,9.128 38.2133324,9.09333368 38.4,9.024 C38.5866676,8.95466632 38.7279995,8.84800072 38.824,8.704 C38.9200005,8.55999928 38.9893331,8.37066784 39.032,8.136 C39.0746669,7.90133216 39.1119998,7.61333504 39.144,7.272 L39.176,6.984 L40.008,6.984 L40.008,9.128 L41.704,9.128 L41.704,10.04 L40.008,10.04 L40.008,14.936 C40.008,15.3840022 40.074666,15.7066657 40.208,15.904 C40.341334,16.1013343 40.5893315,16.2 40.952,16.2 C41.2400014,16.2 41.5066654,16.1360006 41.752,16.008 L41.896,16.968 C41.4906646,17.1493342 41.0426691,17.24 40.552,17.24 C40.1679981,17.24 39.8560012,17.1866672 39.616,17.08 C39.3759988,16.9733328 39.1866674,16.8293342 39.048,16.648 C38.9093326,16.4666658 38.8133336,16.2480013 38.76,15.992 C38.7066664,15.7359987 38.68,15.4586682 38.68,15.16 L38.68,10.04 Z M48.248,17 C48.1306661,16.6159981 48.0613334,16.157336 48.04,15.624 C47.8266656,16.1146691 47.4986689,16.5066652 47.056,16.8 C46.6133311,17.0933348 46.088003,17.24 45.48,17.24 C44.7119962,17.24 44.1040022,17.0213355 43.656,16.584 C43.2079978,16.1466645 42.984,15.5600037 42.984,14.824 C42.984,14.4079979 43.0586659,14.0586681 43.208,13.776 C43.3573341,13.4933319 43.565332,13.2586676 43.832,13.072 C44.098668,12.8853324 44.4133315,12.7386672 44.776,12.632 C45.1386685,12.5253328 45.5333312,12.4400003 45.96,12.376 L47.976,12.072 L47.976,11.576 C47.976,11.2239982 47.9333338,10.9413344 47.848,10.728 C47.7626662,10.5146656 47.6453341,10.3493339 47.496,10.232 C47.3466659,10.1146661 47.176001,10.0373335 46.984,10 C46.791999,9.96266648 46.5893344,9.944 46.376,9.944 C45.767997,9.944 45.2666686,10.0559989 44.872,10.28 C44.4773314,10.5040011 44.146668,10.786665 43.88,11.128 L43.192,10.264 C43.5013349,9.8906648 43.9306639,9.570668 44.48,9.304 C45.0293361,9.037332 45.7093293,8.904 46.52,8.904 C47.5013382,8.904 48.2133311,9.12266448 48.656,9.56 C49.0986689,9.99733552 49.32,10.7013285 49.32,11.672 L49.32,14.856 C49.32,15.1120013 49.3226666,15.335999 49.328,15.528 C49.3333334,15.720001 49.3439999,15.8986658 49.36,16.064 C49.3760001,16.2293342 49.3999998,16.3866659 49.432,16.536 C49.4640002,16.6853341 49.5066664,16.8399992 49.56,17 L48.248,17 Z M47.976,12.952 L46.088,13.256 C45.4373301,13.3733339 44.9760014,13.5493322 44.704,13.784 C44.4319986,14.0186678 44.296,14.3439979 44.296,14.76 C44.296,15.1866688 44.4213321,15.5439986 44.672,15.832 C44.9226679,16.1200014 45.2933309,16.264 45.784,16.264 C46.0826682,16.264 46.365332,16.2053339 46.632,16.088 C46.898668,15.9706661 47.1306657,15.808001 47.328,15.6 C47.5253343,15.391999 47.6826661,15.1413348 47.8,14.848 C47.9173339,14.5546652 47.976,14.2320018 47.976,13.88 L47.976,12.952 Z M51.448,5.704 L52.776,5.704 L52.776,17 L51.448,17 L51.448,5.704 Z M54.648,18.68 C54.7653339,18.7226669 54.8986659,18.7599998 55.048,18.792 C55.1973341,18.8240002 55.3519992,18.84 55.512,18.84 C55.6826675,18.84 55.8293327,18.8160002 55.952,18.768 C56.0746673,18.7199998 56.1866662,18.6320006 56.288,18.504 C56.3893338,18.3759994 56.4853329,18.2053344 56.576,17.992 C56.6666671,17.7786656 56.7653328,17.501335 56.872,17.16 L54.2,9.128 L55.64,9.128 L57.56,15.64 L59.464,9.128 L60.904,9.128 L58.488,16.376 C58.2853323,16.9946698 58.1013342,17.5226645 57.936,17.96 C57.7706658,18.3973355 57.5866677,18.7573319 57.384,19.04 C57.1813323,19.3226681 56.9333348,19.530666 56.64,19.664 C56.3466652,19.797334 55.970669,19.864 55.512,19.864 C55.3306658,19.864 55.136001,19.8560001 54.928,19.84 C54.719999,19.8239999 54.5573339,19.7946669 54.44,19.752 L54.648,18.68 Z" id="Italy" fill="#000000"></path>
                    <rect id="Rectangle-Copy" fill="#0D78AA" x="0" y="0" width="24" height="24"></rect>
                    <path d="M10.7854917,18.8088478 L6.29149167,13.3622209 C5.828325,12.8024299 5.92749167,11.9862507 6.51510278,11.5438925 C7.10271389,11.1004896 7.95438056,11.1964 8.41910278,11.7572358 L10.6977972,14.5200418 L17.5504083,5.53392239 C17.9904361,4.95637015 18.8393806,4.82577313 19.4431306,5.24848955 C20.0486306,5.67037015 20.1796861,6.48111642 19.7400472,7.05950448 L10.7854917,18.8088478 Z" id="Fill-1" fill="#FFFFFF"></path>
                </g>
                <g id="Group-3-Copy-3">
                    <path d="M34.52,14.392 C34.8506683,14.8826691 35.2986638,15.2799985 35.864,15.584 C36.4293362,15.8880015 37.0959962,16.04 37.864,16.04 C38.2266685,16.04 38.5653318,15.9920005 38.88,15.896 C39.1946682,15.7999995 39.4666655,15.6613342 39.696,15.48 C39.9253345,15.2986658 40.1039994,15.0773346 40.232,14.816 C40.3600006,14.5546654 40.424,14.2640016 40.424,13.944 C40.424,13.6133317 40.3466674,13.3360011 40.192,13.112 C40.0373326,12.8879989 39.826668,12.6986674 39.56,12.544 C39.293332,12.3893326 38.9760018,12.2533339 38.608,12.136 C38.2399982,12.0186661 37.8426688,11.9013339 37.416,11.784 C36.9359976,11.6453326 36.4906687,11.4906675 36.08,11.32 C35.6693313,11.1493325 35.3146682,10.9386679 35.016,10.688 C34.7173318,10.4373321 34.4826675,10.1440017 34.312,9.808 C34.1413325,9.47199832 34.056,9.06933568 34.056,8.6 C34.056,8.1199976 34.1493324,7.68800192 34.336,7.304 C34.5226676,6.91999808 34.786665,6.59200136 35.128,6.32 C35.469335,6.04799864 35.8719977,5.83733408 36.336,5.688 C36.8000023,5.53866592 37.3146638,5.464 37.88,5.464 C38.6586706,5.464 39.3786634,5.59466536 40.04,5.856 C40.7013366,6.11733464 41.2666643,6.50399744 41.736,7.016 L40.76,7.928 C40.418665,7.5546648 40.0000025,7.25066784 39.504,7.016 C39.0079975,6.78133216 38.4613363,6.664 37.864,6.664 C37.1813299,6.664 36.6240022,6.8106652 36.192,7.104 C35.7599978,7.3973348 35.544,7.84266368 35.544,8.44 C35.544,8.73866816 35.610666,8.9946656 35.744,9.208 C35.877334,9.4213344 36.0639988,9.6079992 36.304,9.768 C36.5440012,9.9280008 36.826665,10.0693327 37.152,10.192 C37.477335,10.3146673 37.8373314,10.4293328 38.232,10.536 C38.8186696,10.6960008 39.341331,10.8693324 39.8,11.056 C40.258669,11.2426676 40.6426651,11.4639987 40.952,11.72 C41.2613349,11.9760013 41.4959992,12.2719983 41.656,12.608 C41.8160008,12.9440017 41.896,13.3359978 41.896,13.784 C41.896,14.3280027 41.7893344,14.8159978 41.576,15.248 C41.3626656,15.6800022 41.0720018,16.0426652 40.704,16.336 C40.3359982,16.6293348 39.9040025,16.8533326 39.408,17.008 C38.9119975,17.1626674 38.3866694,17.24 37.832,17.24 C36.8079949,17.24 35.9440035,17.077335 35.24,16.752 C34.5359965,16.426665 33.9706688,15.960003 33.544,15.352 L34.52,14.392 Z M43.56,9.128 L44.888,9.128 L44.888,10.648 C44.9840005,10.4239989 45.1066659,10.2053344 45.256,9.992 C45.4053341,9.7786656 45.583999,9.5920008 45.792,9.432 C46.000001,9.2719992 46.2426653,9.14400048 46.52,9.048 C46.7973347,8.95199952 47.1119982,8.904 47.464,8.904 C47.9760026,8.904 48.4213314,9.0106656 48.8,9.224 C49.1786686,9.4373344 49.4906654,9.7306648 49.736,10.104 C49.9813346,10.4773352 50.1653327,10.9119975 50.288,11.408 C50.4106673,11.9040025 50.472,12.4399971 50.472,13.016 C50.472,13.6986701 50.3920008,14.3013307 50.232,14.824 C50.0719992,15.3466693 49.8480014,15.7839982 49.56,16.136 C49.2719986,16.4880018 48.9360019,16.7546658 48.552,16.936 C48.1679981,17.1173342 47.7520022,17.208 47.304,17.208 C46.7173304,17.208 46.2133354,17.0640014 45.792,16.776 C45.3706646,16.4879986 45.0693342,16.1306688 44.888,15.704 L44.888,19.768 L43.56,19.768 L43.56,9.128 Z M44.888,13.112 C44.888,13.3360011 44.8959999,13.5413324 44.912,13.728 C44.9280001,13.9146676 44.9466666,14.0719994 44.968,14.2 C45.0106669,14.4560013 45.0906661,14.7013322 45.208,14.936 C45.3253339,15.1706678 45.4693325,15.3759991 45.64,15.552 C45.8106675,15.7280009 46.0106655,15.8693328 46.24,15.976 C46.4693345,16.0826672 46.7226653,16.136 47,16.136 C47.3626685,16.136 47.6746654,16.0506675 47.936,15.88 C48.1973346,15.7093325 48.4133325,15.4800014 48.584,15.192 C48.7546675,14.9039986 48.8799996,14.5760018 48.96,14.208 C49.0400004,13.8399982 49.08,13.4586686 49.08,13.064 C49.08,12.6693314 49.042667,12.2880018 48.968,11.92 C48.893333,11.5519982 48.7733342,11.2266681 48.608,10.944 C48.4426658,10.6613319 48.226668,10.4346675 47.96,10.264 C47.693332,10.0933325 47.3733352,10.008 47,10.008 C46.7119986,10.008 46.4480012,10.0613328 46.208,10.168 C45.9679988,10.2746672 45.7626675,10.4186658 45.592,10.6 C45.4213325,10.7813342 45.2800006,10.9893322 45.168,11.224 C45.0559994,11.4586678 44.9840002,11.7039987 44.952,11.96 C44.9306666,12.0666672 44.9146667,12.2133324 44.904,12.4 C44.8933333,12.5866676 44.888,12.8026654 44.888,13.048 L44.888,13.112 Z M57.112,17 C56.9946661,16.6159981 56.9253334,16.157336 56.904,15.624 C56.6906656,16.1146691 56.3626689,16.5066652 55.92,16.8 C55.4773311,17.0933348 54.952003,17.24 54.344,17.24 C53.5759962,17.24 52.9680022,17.0213355 52.52,16.584 C52.0719978,16.1466645 51.848,15.5600037 51.848,14.824 C51.848,14.4079979 51.9226659,14.0586681 52.072,13.776 C52.2213341,13.4933319 52.429332,13.2586676 52.696,13.072 C52.962668,12.8853324 53.2773315,12.7386672 53.64,12.632 C54.0026685,12.5253328 54.3973312,12.4400003 54.824,12.376 L56.84,12.072 L56.84,11.576 C56.84,11.2239982 56.7973338,10.9413344 56.712,10.728 C56.6266662,10.5146656 56.5093341,10.3493339 56.36,10.232 C56.2106659,10.1146661 56.040001,10.0373335 55.848,10 C55.655999,9.96266648 55.4533344,9.944 55.24,9.944 C54.631997,9.944 54.1306686,10.0559989 53.736,10.28 C53.3413314,10.5040011 53.010668,10.786665 52.744,11.128 L52.056,10.264 C52.3653349,9.8906648 52.7946639,9.570668 53.344,9.304 C53.8933361,9.037332 54.5733293,8.904 55.384,8.904 C56.3653382,8.904 57.0773311,9.12266448 57.52,9.56 C57.9626689,9.99733552 58.184,10.7013285 58.184,11.672 L58.184,14.856 C58.184,15.1120013 58.1866666,15.335999 58.192,15.528 C58.1973334,15.720001 58.2079999,15.8986658 58.224,16.064 C58.2400001,16.2293342 58.2639998,16.3866659 58.296,16.536 C58.3280002,16.6853341 58.3706664,16.8399992 58.424,17 L57.112,17 Z M56.84,12.952 L54.952,13.256 C54.3013301,13.3733339 53.8400014,13.5493322 53.568,13.784 C53.2959986,14.0186678 53.16,14.3439979 53.16,14.76 C53.16,15.1866688 53.2853321,15.5439986 53.536,15.832 C53.7866679,16.1200014 54.1573309,16.264 54.648,16.264 C54.9466682,16.264 55.229332,16.2053339 55.496,16.088 C55.762668,15.9706661 55.9946657,15.808001 56.192,15.6 C56.3893343,15.391999 56.5466661,15.1413348 56.664,14.848 C56.7813339,14.5546652 56.84,14.2320018 56.84,13.88 L56.84,12.952 Z M60.312,6.072 L61.64,6.072 L61.64,7.4 L60.312,7.4 L60.312,6.072 Z M60.312,9.128 L61.64,9.128 L61.64,17 L60.312,17 L60.312,9.128 Z M63.688,9.128 L64.84,9.128 L64.984,10.696 C65.1866677,10.2159976 65.5093311,9.79733512 65.952,9.44 C66.3946689,9.08266488 66.9413301,8.904 67.592,8.904 C68.4133374,8.904 69.0186647,9.16533072 69.408,9.688 C69.7973353,10.2106693 69.992,10.9413286 69.992,11.88 L69.992,17 L68.664,17 L68.664,12.152 C68.664,11.4373298 68.5200014,10.9120017 68.232,10.576 C67.9439986,10.2399983 67.5546691,10.072 67.064,10.072 C66.4773304,10.072 65.9893353,10.3119976 65.6,10.792 C65.2106647,11.2720024 65.016,11.949329 65.016,12.824 L65.016,17 L63.688,17 L63.688,9.128 Z" id="Spain" fill="#000000"></path>
                    <rect id="Rectangle-Copy" fill="#0D78AA" x="0" y="0" width="24" height="24"></rect>
                    <path d="M10.7854917,18.8088478 L6.29149167,13.3622209 C5.828325,12.8024299 5.92749167,11.9862507 6.51510278,11.5438925 C7.10271389,11.1004896 7.95438056,11.1964 8.41910278,11.7572358 L10.6977972,14.5200418 L17.5504083,5.53392239 C17.9904361,4.95637015 18.8393806,4.82577313 19.4431306,5.24848955 C20.0486306,5.67037015 20.1796861,6.48111642 19.7400472,7.05950448 L10.7854917,18.8088478 Z" id="Fill-1" fill="#FFFFFF"></path>
                </g>
            </g>
        </g>
    </g>
</svg>