<?xml version="1.0" encoding="UTF-8"?>
<svg width="294px" height="24px" viewBox="0 0 294 24" version="1.1" xmlns="http://www.w3.org/2000/svg" xmlns:xlink="http://www.w3.org/1999/xlink">
    <!-- Generator: Sketch 47 (45396) - http://www.bohemiancoding.com/sketch -->
    <title>DescriptiveLabel</title>
    <desc>Created with Sketch.</desc>
    <defs>
        <rect id="path-1" x="0" y="0" width="24" height="24"></rect>
    </defs>
    <g id="Page-1" stroke="none" stroke-width="1" fill="none" fill-rule="evenodd">
        <g id="Buttons-Usage-extra-large-1200" transform="translate(-373.000000, -1932.000000)">
            <g id="DescriptiveLabel" transform="translate(373.000000, 1932.000000)">
                <g id="Group-3-Copy-3">
                    <path d="M37.416,5.704 L38.744,5.704 L42.728,17 L41.224,17 L40.216,13.96 L35.864,13.96 L34.856,17 L33.4,17 L37.416,5.704 Z M39.832,12.856 C39.5333318,11.9279954 39.2373348,11.0186711 38.944,10.128 C38.6506652,9.23732888 38.3546682,8.30133824 38.056,7.32 C37.7786653,8.2800048 37.4853349,9.21066216 37.176,10.112 C36.8666651,11.0133378 36.5573349,11.9279954 36.248,12.856 L39.832,12.856 Z M44.152,9.128 L45.304,9.128 L45.432,10.888 C45.6560011,10.3119971 46.0133309,9.8373352 46.504,9.464 C46.9946691,9.0906648 47.5759966,8.904 48.248,8.904 L48.248,10.312 C48.0986659,10.2799998 47.9333342,10.264 47.752,10.264 C47.485332,10.264 47.218668,10.3119995 46.952,10.408 C46.685332,10.5040005 46.4426678,10.6586656 46.224,10.872 C46.0053322,11.0853344 45.8266674,11.3599983 45.688,11.696 C45.5493326,12.0320017 45.48,12.4399976 45.48,12.92 L45.48,17 L44.152,17 L44.152,9.128 Z M49.56,9.128 L50.712,9.128 L50.84,10.888 C51.0640011,10.3119971 51.4213309,9.8373352 51.912,9.464 C52.4026691,9.0906648 52.9839966,8.904 53.656,8.904 L53.656,10.312 C53.5066659,10.2799998 53.3413342,10.264 53.16,10.264 C52.893332,10.264 52.626668,10.3119995 52.36,10.408 C52.093332,10.5040005 51.8506678,10.6586656 51.632,10.872 C51.4133322,11.0853344 51.2346674,11.3599983 51.096,11.696 C50.9573326,12.0320017 50.888,12.4399976 50.888,12.92 L50.888,17 L49.56,17 L49.56,9.128 Z M54.968,6.072 L56.296,6.072 L56.296,7.4 L54.968,7.4 L54.968,6.072 Z M54.968,9.128 L56.296,9.128 L56.296,17 L54.968,17 L54.968,9.128 Z M57.736,9.128 L59.24,9.128 L61.16,15.752 L63.064,9.128 L64.504,9.128 L61.912,17 L60.312,17 L57.736,9.128 Z M66.936,13.368 C66.9893336,14.2746712 67.2213313,14.9759975 67.632,15.472 C68.0426687,15.9680025 68.6159963,16.216 69.352,16.216 C70.2800046,16.216 70.9786643,15.778671 71.448,14.904 L72.456,15.464 C72.1466651,15.9866693 71.7360026,16.4133317 71.224,16.744 C70.7119974,17.0746683 70.0666706,17.24 69.288,17.24 C68.6693302,17.24 68.1280023,17.1333344 67.664,16.92 C67.1999977,16.7066656 66.8133349,16.4133352 66.504,16.04 C66.1946651,15.6666648 65.9626674,15.2293358 65.808,14.728 C65.6533326,14.2266642 65.576,13.6880029 65.576,13.112 C65.576,12.5466638 65.6506659,12.0080026 65.8,11.496 C65.9493341,10.9839974 66.1759985,10.5360019 66.48,10.152 C66.7840015,9.76799808 67.1573311,9.46400112 67.6,9.24 C68.0426689,9.01599888 68.5626637,8.904 69.16,8.904 C69.7360029,8.904 70.2373312,9.01333224 70.664,9.232 C71.0906688,9.45066776 71.4453319,9.74399816 71.728,10.112 C72.0106681,10.4800018 72.2239993,10.9066642 72.368,11.392 C72.5120007,11.8773358 72.584,12.3919973 72.584,12.936 C72.584,13.0533339 72.5813334,13.1439997 72.576,13.208 C72.5706666,13.2720003 72.568,13.3253331 72.568,13.368 L66.936,13.368 Z M69.144,9.912 C68.4719966,9.912 67.9520018,10.1519976 67.584,10.632 C67.2159982,11.1120024 67.0053336,11.7573293 66.952,12.568 L71.224,12.568 C71.224,12.2373317 71.186667,11.9146682 71.112,11.6 C71.037333,11.2853318 70.9146675,11.0026679 70.744,10.752 C70.5733325,10.5013321 70.3573346,10.2986674 70.096,10.144 C69.8346654,9.98933256 69.5173352,9.912 69.144,9.912 Z M78.808,13.368 C78.8613336,14.2746712 79.0933313,14.9759975 79.504,15.472 C79.9146687,15.9680025 80.4879963,16.216 81.224,16.216 C82.1520046,16.216 82.8506643,15.778671 83.32,14.904 L84.328,15.464 C84.0186651,15.9866693 83.6080026,16.4133317 83.096,16.744 C82.5839974,17.0746683 81.9386706,17.24 81.16,17.24 C80.5413302,17.24 80.0000023,17.1333344 79.536,16.92 C79.0719977,16.7066656 78.6853349,16.4133352 78.376,16.04 C78.0666651,15.6666648 77.8346674,15.2293358 77.68,14.728 C77.5253326,14.2266642 77.448,13.6880029 77.448,13.112 C77.448,12.5466638 77.5226659,12.0080026 77.672,11.496 C77.8213341,10.9839974 78.0479985,10.5360019 78.352,10.152 C78.6560015,9.76799808 79.0293311,9.46400112 79.472,9.24 C79.9146689,9.01599888 80.4346637,8.904 81.032,8.904 C81.6080029,8.904 82.1093312,9.01333224 82.536,9.232 C82.9626688,9.45066776 83.3173319,9.74399816 83.6,10.112 C83.8826681,10.4800018 84.0959993,10.9066642 84.24,11.392 C84.3840007,11.8773358 84.456,12.3919973 84.456,12.936 C84.456,13.0533339 84.4533334,13.1439997 84.448,13.208 C84.4426666,13.2720003 84.44,13.3253331 84.44,13.368 L78.808,13.368 Z M81.016,9.912 C80.3439966,9.912 79.8240018,10.1519976 79.456,10.632 C79.0879982,11.1120024 78.8773336,11.7573293 78.824,12.568 L83.096,12.568 C83.096,12.2373317 83.058667,11.9146682 82.984,11.6 C82.909333,11.2853318 82.7866675,11.0026679 82.616,10.752 C82.4453325,10.5013321 82.2293346,10.2986674 81.968,10.144 C81.7066654,9.98933256 81.3893352,9.912 81.016,9.912 Z M91.016,17 C90.8986661,16.6159981 90.8293334,16.157336 90.808,15.624 C90.5946656,16.1146691 90.2666689,16.5066652 89.824,16.8 C89.3813311,17.0933348 88.856003,17.24 88.248,17.24 C87.4799962,17.24 86.8720022,17.0213355 86.424,16.584 C85.9759978,16.1466645 85.752,15.5600037 85.752,14.824 C85.752,14.4079979 85.8266659,14.0586681 85.976,13.776 C86.1253341,13.4933319 86.333332,13.2586676 86.6,13.072 C86.866668,12.8853324 87.1813315,12.7386672 87.544,12.632 C87.9066685,12.5253328 88.3013312,12.4400003 88.728,12.376 L90.744,12.072 L90.744,11.576 C90.744,11.2239982 90.7013338,10.9413344 90.616,10.728 C90.5306662,10.5146656 90.4133341,10.3493339 90.264,10.232 C90.1146659,10.1146661 89.944001,10.0373335 89.752,10 C89.559999,9.96266648 89.3573344,9.944 89.144,9.944 C88.535997,9.944 88.0346686,10.0559989 87.64,10.28 C87.2453314,10.5040011 86.914668,10.786665 86.648,11.128 L85.96,10.264 C86.2693349,9.8906648 86.6986639,9.570668 87.248,9.304 C87.7973361,9.037332 88.4773293,8.904 89.288,8.904 C90.2693382,8.904 90.9813311,9.12266448 91.424,9.56 C91.8666689,9.99733552 92.088,10.7013285 92.088,11.672 L92.088,14.856 C92.088,15.1120013 92.0906666,15.335999 92.096,15.528 C92.1013334,15.720001 92.1119999,15.8986658 92.128,16.064 C92.1440001,16.2293342 92.1679998,16.3866659 92.2,16.536 C92.2320002,16.6853341 92.2746664,16.8399992 92.328,17 L91.016,17 Z M90.744,12.952 L88.856,13.256 C88.2053301,13.3733339 87.7440014,13.5493322 87.472,13.784 C87.1999986,14.0186678 87.064,14.3439979 87.064,14.76 C87.064,15.1866688 87.1893321,15.5439986 87.44,15.832 C87.6906679,16.1200014 88.0613309,16.264 88.552,16.264 C88.8506682,16.264 89.133332,16.2053339 89.4,16.088 C89.666668,15.9706661 89.8986657,15.808001 90.096,15.6 C90.2933343,15.391999 90.4506661,15.1413348 90.568,14.848 C90.6853339,14.5546652 90.744,14.2320018 90.744,13.88 L90.744,12.952 Z M94.216,9.128 L95.368,9.128 L95.496,10.888 C95.7200011,10.3119971 96.0773309,9.8373352 96.568,9.464 C97.0586691,9.0906648 97.6399966,8.904 98.312,8.904 L98.312,10.312 C98.1626659,10.2799998 97.9973342,10.264 97.816,10.264 C97.549332,10.264 97.282668,10.3119995 97.016,10.408 C96.749332,10.5040005 96.5066678,10.6586656 96.288,10.872 C96.0693322,11.0853344 95.8906674,11.3599983 95.752,11.696 C95.6133326,12.0320017 95.544,12.4399976 95.544,12.92 L95.544,17 L94.216,17 L94.216,9.128 Z M99.624,5.704 L100.952,5.704 L100.952,17 L99.624,17 L99.624,5.704 Z M102.824,18.68 C102.941334,18.7226669 103.074666,18.7599998 103.224,18.792 C103.373334,18.8240002 103.527999,18.84 103.688,18.84 C103.858668,18.84 104.005333,18.8160002 104.128,18.768 C104.250667,18.7199998 104.362666,18.6320006 104.464,18.504 C104.565334,18.3759994 104.661333,18.2053344 104.752,17.992 C104.842667,17.7786656 104.941333,17.501335 105.048,17.16 L102.376,9.128 L103.816,9.128 L105.736,15.64 L107.64,9.128 L109.08,9.128 L106.664,16.376 C106.461332,16.9946698 106.277334,17.5226645 106.112,17.96 C105.946666,18.3973355 105.762668,18.7573319 105.56,19.04 C105.357332,19.3226681 105.109335,19.530666 104.816,19.664 C104.522665,19.797334 104.146669,19.864 103.688,19.864 C103.506666,19.864 103.312001,19.8560001 103.104,19.84 C102.895999,19.8239999 102.733334,19.7946669 102.616,19.752 L102.824,18.68 Z" id="Arrive-early" fill="#000000"></path>
                    <rect id="Rectangle-Copy" fill="#0D78AA" x="0" y="0" width="24" height="24"></rect>
                    <path d="M10.7855494,19 L6.29150142,13.4779766 C5.82832981,12.9104364 5.92749753,12.0829591 6.51511492,11.6344774 C7.10273231,11.1849365 7.95440807,11.2821746 8.41913526,11.850774 L10.697854,14.6518249 L17.5505384,5.54131248 C17.9905708,4.9557653 18.8395244,4.82336045 19.4432808,5.25192845 C20.0487873,5.67964906 20.1798442,6.50161832 19.7402006,7.08801289 L10.7855494,19 Z" id="Fill-1" fill="#FFFFFF"></path>
                </g>
                <g id="Group-4" transform="translate(161.000000, 0.000000)">
                    <path d="M34.12,5.704 L37.912,5.704 C38.4773362,5.704 38.9999976,5.76799936 39.48,5.896 C39.9600024,6.02400064 40.3733316,6.221332 40.72,6.488 C41.0666684,6.754668 41.3386657,7.09333128 41.536,7.504 C41.7333343,7.91466872 41.832,8.40799712 41.832,8.984 C41.832,9.6240032 41.7333343,10.1679978 41.536,10.616 C41.3386657,11.0640022 41.0640018,11.4266653 40.712,11.704 C40.3599982,11.9813347 39.946669,12.1813327 39.472,12.304 C38.997331,12.4266673 38.4826694,12.488 37.928,12.488 L35.56,12.488 L35.56,17 L34.12,17 L34.12,5.704 Z M37.688,11.336 C38.5200042,11.336 39.165331,11.1573351 39.624,10.8 C40.082669,10.4426649 40.312,9.8373376 40.312,8.984 C40.312,8.58933136 40.245334,8.25333472 40.112,7.976 C39.978666,7.69866528 39.7973345,7.47466752 39.568,7.304 C39.3386655,7.13333248 39.0666682,7.01066704 38.752,6.936 C38.4373318,6.86133296 38.0986685,6.824 37.736,6.824 L35.56,6.824 L35.56,11.336 L37.688,11.336 Z M43.416,9.128 L44.568,9.128 L44.696,10.888 C44.9200011,10.3119971 45.2773309,9.8373352 45.768,9.464 C46.2586691,9.0906648 46.8399966,8.904 47.512,8.904 L47.512,10.312 C47.3626659,10.2799998 47.1973342,10.264 47.016,10.264 C46.749332,10.264 46.482668,10.3119995 46.216,10.408 C45.949332,10.5040005 45.7066678,10.6586656 45.488,10.872 C45.2693322,11.0853344 45.0906674,11.3599983 44.952,11.696 C44.8133326,12.0320017 44.744,12.4399976 44.744,12.92 L44.744,17 L43.416,17 L43.416,9.128 Z M49.832,13.368 C49.8853336,14.2746712 50.1173313,14.9759975 50.528,15.472 C50.9386687,15.9680025 51.5119963,16.216 52.248,16.216 C53.1760046,16.216 53.8746643,15.778671 54.344,14.904 L55.352,15.464 C55.0426651,15.9866693 54.6320026,16.4133317 54.12,16.744 C53.6079974,17.0746683 52.9626706,17.24 52.184,17.24 C51.5653302,17.24 51.0240023,17.1333344 50.56,16.92 C50.0959977,16.7066656 49.7093349,16.4133352 49.4,16.04 C49.0906651,15.6666648 48.8586674,15.2293358 48.704,14.728 C48.5493326,14.2266642 48.472,13.6880029 48.472,13.112 C48.472,12.5466638 48.5466659,12.0080026 48.696,11.496 C48.8453341,10.9839974 49.0719985,10.5360019 49.376,10.152 C49.6800015,9.76799808 50.0533311,9.46400112 50.496,9.24 C50.9386689,9.01599888 51.4586637,8.904 52.056,8.904 C52.6320029,8.904 53.1333312,9.01333224 53.56,9.232 C53.9866688,9.45066776 54.3413319,9.74399816 54.624,10.112 C54.9066681,10.4800018 55.1199993,10.9066642 55.264,11.392 C55.4080007,11.8773358 55.48,12.3919973 55.48,12.936 C55.48,13.0533339 55.4773334,13.1439997 55.472,13.208 C55.4666666,13.2720003 55.464,13.3253331 55.464,13.368 L49.832,13.368 Z M52.04,9.912 C51.3679966,9.912 50.8480018,10.1519976 50.48,10.632 C50.1119982,11.1120024 49.9013336,11.7573293 49.848,12.568 L54.12,12.568 C54.12,12.2373317 54.082667,11.9146682 54.008,11.6 C53.933333,11.2853318 53.8106675,11.0026679 53.64,10.752 C53.4693325,10.5013321 53.2533346,10.2986674 52.992,10.144 C52.7306654,9.98933256 52.4133352,9.912 52.04,9.912 Z M57.096,9.128 L58.424,9.128 L58.424,10.648 C58.5200005,10.4239989 58.6426659,10.2053344 58.792,9.992 C58.9413341,9.7786656 59.119999,9.5920008 59.328,9.432 C59.536001,9.2719992 59.7786653,9.14400048 60.056,9.048 C60.3333347,8.95199952 60.6479982,8.904 61,8.904 C61.5120026,8.904 61.9573314,9.0106656 62.336,9.224 C62.7146686,9.4373344 63.0266654,9.7306648 63.272,10.104 C63.5173346,10.4773352 63.7013327,10.9119975 63.824,11.408 C63.9466673,11.9040025 64.008,12.4399971 64.008,13.016 C64.008,13.6986701 63.9280008,14.3013307 63.768,14.824 C63.6079992,15.3466693 63.3840014,15.7839982 63.096,16.136 C62.8079986,16.4880018 62.4720019,16.7546658 62.088,16.936 C61.7039981,17.1173342 61.2880022,17.208 60.84,17.208 C60.2533304,17.208 59.7493354,17.0640014 59.328,16.776 C58.9066646,16.4879986 58.6053342,16.1306688 58.424,15.704 L58.424,19.768 L57.096,19.768 L57.096,9.128 Z M58.424,13.112 C58.424,13.3360011 58.4319999,13.5413324 58.448,13.728 C58.4640001,13.9146676 58.4826666,14.0719994 58.504,14.2 C58.5466669,14.4560013 58.6266661,14.7013322 58.744,14.936 C58.8613339,15.1706678 59.0053325,15.3759991 59.176,15.552 C59.3466675,15.7280009 59.5466655,15.8693328 59.776,15.976 C60.0053345,16.0826672 60.2586653,16.136 60.536,16.136 C60.8986685,16.136 61.2106654,16.0506675 61.472,15.88 C61.7333346,15.7093325 61.9493325,15.4800014 62.12,15.192 C62.2906675,14.9039986 62.4159996,14.5760018 62.496,14.208 C62.5760004,13.8399982 62.616,13.4586686 62.616,13.064 C62.616,12.6693314 62.578667,12.2880018 62.504,11.92 C62.429333,11.5519982 62.3093342,11.2266681 62.144,10.944 C61.9786658,10.6613319 61.762668,10.4346675 61.496,10.264 C61.229332,10.0933325 60.9093352,10.008 60.536,10.008 C60.2479986,10.008 59.9840012,10.0613328 59.744,10.168 C59.5039988,10.2746672 59.2986675,10.4186658 59.128,10.6 C58.9573325,10.7813342 58.8160006,10.9893322 58.704,11.224 C58.5919994,11.4586678 58.5200002,11.7039987 58.488,11.96 C58.4666666,12.0666672 58.4506667,12.2133324 58.44,12.4 C58.4293333,12.5866676 58.424,12.8026654 58.424,13.048 L58.424,13.112 Z M70.648,17 C70.5306661,16.6159981 70.4613334,16.157336 70.44,15.624 C70.2266656,16.1146691 69.8986689,16.5066652 69.456,16.8 C69.0133311,17.0933348 68.488003,17.24 67.88,17.24 C67.1119962,17.24 66.5040022,17.0213355 66.056,16.584 C65.6079978,16.1466645 65.384,15.5600037 65.384,14.824 C65.384,14.4079979 65.4586659,14.0586681 65.608,13.776 C65.7573341,13.4933319 65.965332,13.2586676 66.232,13.072 C66.498668,12.8853324 66.8133315,12.7386672 67.176,12.632 C67.5386685,12.5253328 67.9333312,12.4400003 68.36,12.376 L70.376,12.072 L70.376,11.576 C70.376,11.2239982 70.3333338,10.9413344 70.248,10.728 C70.1626662,10.5146656 70.0453341,10.3493339 69.896,10.232 C69.7466659,10.1146661 69.576001,10.0373335 69.384,10 C69.191999,9.96266648 68.9893344,9.944 68.776,9.944 C68.167997,9.944 67.6666686,10.0559989 67.272,10.28 C66.8773314,10.5040011 66.546668,10.786665 66.28,11.128 L65.592,10.264 C65.9013349,9.8906648 66.3306639,9.570668 66.88,9.304 C67.4293361,9.037332 68.1093293,8.904 68.92,8.904 C69.9013382,8.904 70.6133311,9.12266448 71.056,9.56 C71.4986689,9.99733552 71.72,10.7013285 71.72,11.672 L71.72,14.856 C71.72,15.1120013 71.7226666,15.335999 71.728,15.528 C71.7333334,15.720001 71.7439999,15.8986658 71.76,16.064 C71.7760001,16.2293342 71.7999998,16.3866659 71.832,16.536 C71.8640002,16.6853341 71.9066664,16.8399992 71.96,17 L70.648,17 Z M70.376,12.952 L68.488,13.256 C67.8373301,13.3733339 67.3760014,13.5493322 67.104,13.784 C66.8319986,14.0186678 66.696,14.3439979 66.696,14.76 C66.696,15.1866688 66.8213321,15.5439986 67.072,15.832 C67.3226679,16.1200014 67.6933309,16.264 68.184,16.264 C68.4826682,16.264 68.765332,16.2053339 69.032,16.088 C69.298668,15.9706661 69.5306657,15.808001 69.728,15.6 C69.9253343,15.391999 70.0826661,15.1413348 70.2,14.848 C70.3173339,14.5546652 70.376,14.2320018 70.376,13.88 L70.376,12.952 Z M73.848,9.128 L75,9.128 L75.128,10.888 C75.3520011,10.3119971 75.7093309,9.8373352 76.2,9.464 C76.6906691,9.0906648 77.2719966,8.904 77.944,8.904 L77.944,10.312 C77.7946659,10.2799998 77.6293342,10.264 77.448,10.264 C77.181332,10.264 76.914668,10.3119995 76.648,10.408 C76.381332,10.5040005 76.1386678,10.6586656 75.92,10.872 C75.7013322,11.0853344 75.5226674,11.3599983 75.384,11.696 C75.2453326,12.0320017 75.176,12.4399976 75.176,12.92 L75.176,17 L73.848,17 L73.848,9.128 Z M80.264,13.368 C80.3173336,14.2746712 80.5493313,14.9759975 80.96,15.472 C81.3706687,15.9680025 81.9439963,16.216 82.68,16.216 C83.6080046,16.216 84.3066643,15.778671 84.776,14.904 L85.784,15.464 C85.4746651,15.9866693 85.0640026,16.4133317 84.552,16.744 C84.0399974,17.0746683 83.3946706,17.24 82.616,17.24 C81.9973302,17.24 81.4560023,17.1333344 80.992,16.92 C80.5279977,16.7066656 80.1413349,16.4133352 79.832,16.04 C79.5226651,15.6666648 79.2906674,15.2293358 79.136,14.728 C78.9813326,14.2266642 78.904,13.6880029 78.904,13.112 C78.904,12.5466638 78.9786659,12.0080026 79.128,11.496 C79.2773341,10.9839974 79.5039985,10.5360019 79.808,10.152 C80.1120015,9.76799808 80.4853311,9.46400112 80.928,9.24 C81.3706689,9.01599888 81.8906637,8.904 82.488,8.904 C83.0640029,8.904 83.5653312,9.01333224 83.992,9.232 C84.4186688,9.45066776 84.7733319,9.74399816 85.056,10.112 C85.3386681,10.4800018 85.5519993,10.9066642 85.696,11.392 C85.8400007,11.8773358 85.912,12.3919973 85.912,12.936 C85.912,13.0533339 85.9093334,13.1439997 85.904,13.208 C85.8986666,13.2720003 85.896,13.3253331 85.896,13.368 L80.264,13.368 Z M82.472,9.912 C81.7999966,9.912 81.2800018,10.1519976 80.912,10.632 C80.5439982,11.1120024 80.3333336,11.7573293 80.28,12.568 L84.552,12.568 C84.552,12.2373317 84.514667,11.9146682 84.44,11.6 C84.365333,11.2853318 84.2426675,11.0026679 84.072,10.752 C83.9013325,10.5013321 83.6853346,10.2986674 83.424,10.144 C83.1626654,9.98933256 82.8453352,9.912 82.472,9.912 Z M96.424,15.464 C96.2106656,15.997336 95.8960021,16.4186651 95.48,16.728 C95.0639979,17.0373349 94.5466698,17.192 93.928,17.192 C93.4373309,17.192 92.9973353,17.0906677 92.608,16.888 C92.2186647,16.6853323 91.8880014,16.4026685 91.616,16.04 C91.3439986,15.6773315 91.1360007,15.2400026 90.992,14.728 C90.8479993,14.2159974 90.776,13.6506698 90.776,13.032 C90.776,12.3919968 90.8506659,11.8186692 91,11.312 C91.1493341,10.8053308 91.3626653,10.3760018 91.64,10.024 C91.9173347,9.67199824 92.2506647,9.40000096 92.64,9.208 C93.0293353,9.01599904 93.4586643,8.92 93.928,8.92 C94.5680032,8.92 95.0906646,9.07199848 95.496,9.376 C95.9013354,9.68000152 96.1893325,10.0453312 96.36,10.472 L96.36,5.704 L97.704,5.704 L97.704,17 L96.424,17 L96.424,15.464 Z M96.36,13.016 C96.36,12.6853317 96.3520001,12.4266676 96.336,12.24 C96.3199999,12.0533324 96.3013334,11.9013339 96.28,11.784 C96.2266664,11.5493322 96.1466672,11.3253344 96.04,11.112 C95.9333328,10.8986656 95.7973342,10.7093342 95.632,10.544 C95.4666658,10.3786658 95.2720011,10.2480005 95.048,10.152 C94.8239989,10.0559995 94.5680014,10.008 94.28,10.008 C93.9173315,10.008 93.6053346,10.0879992 93.344,10.248 C93.0826654,10.4080008 92.8640009,10.6239986 92.688,10.896 C92.5119991,11.1680014 92.3813338,11.4879982 92.296,11.856 C92.2106662,12.2240018 92.168,12.6159979 92.168,13.032 C92.168,13.4800022 92.2159995,13.8933314 92.312,14.272 C92.4080005,14.6506686 92.5466658,14.9759986 92.728,15.248 C92.9093342,15.5200014 93.133332,15.7333326 93.4,15.888 C93.666668,16.0426674 93.970665,16.12 94.312,16.12 C94.578668,16.12 94.8213322,16.0720005 95.04,15.976 C95.2586678,15.8799995 95.4506658,15.7466675 95.616,15.576 C95.7813342,15.4053325 95.9173328,15.2106678 96.024,14.992 C96.1306672,14.7733322 96.2106664,14.5413346 96.264,14.296 C96.3280003,13.9973318 96.36,13.5973358 96.36,13.096 L96.36,13.016 Z M99.736,6.072 L101.064,6.072 L101.064,7.4 L99.736,7.4 L99.736,6.072 Z M99.736,9.128 L101.064,9.128 L101.064,17 L99.736,17 L99.736,9.128 Z M103.112,9.128 L104.264,9.128 L104.408,10.696 C104.610668,10.2159976 104.933331,9.79733512 105.376,9.44 C105.818669,9.08266488 106.36533,8.904 107.016,8.904 C107.837337,8.904 108.442665,9.16533072 108.832,9.688 C109.221335,10.2106693 109.416,10.9413286 109.416,11.88 L109.416,17 L108.088,17 L108.088,12.152 C108.088,11.4373298 107.944001,10.9120017 107.656,10.576 C107.367999,10.2399983 106.978669,10.072 106.488,10.072 C105.90133,10.072 105.413335,10.3119976 105.024,10.792 C104.634665,11.2720024 104.44,11.949329 104.44,12.824 L104.44,17 L103.112,17 L103.112,9.128 Z M111.432,9.128 L112.584,9.128 L112.728,10.696 C112.930668,10.2159976 113.253331,9.79733512 113.696,9.44 C114.138669,9.08266488 114.68533,8.904 115.336,8.904 C116.157337,8.904 116.762665,9.16533072 117.152,9.688 C117.541335,10.2106693 117.736,10.9413286 117.736,11.88 L117.736,17 L116.408,17 L116.408,12.152 C116.408,11.4373298 116.264001,10.9120017 115.976,10.576 C115.687999,10.2399983 115.298669,10.072 114.808,10.072 C114.22133,10.072 113.733335,10.3119976 113.344,10.792 C112.954665,11.2720024 112.76,11.949329 112.76,12.824 L112.76,17 L111.432,17 L111.432,9.128 Z M120.76,13.368 C120.813334,14.2746712 121.045331,14.9759975 121.456,15.472 C121.866669,15.9680025 122.439996,16.216 123.176,16.216 C124.104005,16.216 124.802664,15.778671 125.272,14.904 L126.28,15.464 C125.970665,15.9866693 125.560003,16.4133317 125.048,16.744 C124.535997,17.0746683 123.890671,17.24 123.112,17.24 C122.49333,17.24 121.952002,17.1333344 121.488,16.92 C121.023998,16.7066656 120.637335,16.4133352 120.328,16.04 C120.018665,15.6666648 119.786667,15.2293358 119.632,14.728 C119.477333,14.2266642 119.4,13.6880029 119.4,13.112 C119.4,12.5466638 119.474666,12.0080026 119.624,11.496 C119.773334,10.9839974 119.999998,10.5360019 120.304,10.152 C120.608002,9.76799808 120.981331,9.46400112 121.424,9.24 C121.866669,9.01599888 122.386664,8.904 122.984,8.904 C123.560003,8.904 124.061331,9.01333224 124.488,9.232 C124.914669,9.45066776 125.269332,9.74399816 125.552,10.112 C125.834668,10.4800018 126.047999,10.9066642 126.192,11.392 C126.336001,11.8773358 126.408,12.3919973 126.408,12.936 C126.408,13.0533339 126.405333,13.1439997 126.4,13.208 C126.394667,13.2720003 126.392,13.3253331 126.392,13.368 L120.76,13.368 Z M122.968,9.912 C122.295997,9.912 121.776002,10.1519976 121.408,10.632 C121.039998,11.1120024 120.829334,11.7573293 120.776,12.568 L125.048,12.568 C125.048,12.2373317 125.010667,11.9146682 124.936,11.6 C124.861333,11.2853318 124.738668,11.0026679 124.568,10.752 C124.397332,10.5013321 124.181335,10.2986674 123.92,10.144 C123.658665,9.98933256 123.341335,9.912 122.968,9.912 Z M128.024,9.128 L129.176,9.128 L129.304,10.888 C129.528001,10.3119971 129.885331,9.8373352 130.376,9.464 C130.866669,9.0906648 131.447997,8.904 132.12,8.904 L132.12,10.312 C131.970666,10.2799998 131.805334,10.264 131.624,10.264 C131.357332,10.264 131.090668,10.3119995 130.824,10.408 C130.557332,10.5040005 130.314668,10.6586656 130.096,10.872 C129.877332,11.0853344 129.698667,11.3599983 129.56,11.696 C129.421333,12.0320017 129.352,12.4399976 129.352,12.92 L129.352,17 L128.024,17 L128.024,9.128 Z" id="Prepare-dinner" fill="#000000"></path>
                    <g id="Rectangle">
                        <use fill="#FFFFFF" fill-rule="evenodd" xlink:href="#path-1"></use>
                        <rect stroke="#979797" stroke-width="1" x="0.5" y="0.5" width="23" height="23"></rect>
                    </g>
                </g>
            </g>
        </g>
    </g>
</svg>