<?xml version="1.0" encoding="UTF-8"?>
<svg width="200px" height="43px" viewBox="0 0 200 43" version="1.1" xmlns="http://www.w3.org/2000/svg" xmlns:xlink="http://www.w3.org/1999/xlink">
    <!-- Generator: Sketch 47 (45396) - http://www.bohemiancoding.com/sketch -->
    <title>Autocomplete</title>
    <desc>Created with Sketch.</desc>
    <defs></defs>
    <g id="Page-1" stroke="none" stroke-width="1" fill="none" fill-rule="evenodd">
        <g id="Buttons-Usage-extra-large-1200" transform="translate(-394.000000, -2634.000000)">
            <g id="Autocomplete" transform="translate(394.000000, 2634.000000)">
                <path d="M0.98,0.116 L4.298,0.116 C4.79266914,0.116 5.2499979,0.17199944 5.67,0.284 C6.0900021,0.39600056 6.45166515,0.5686655 6.755,0.802 C7.05833485,1.0353345 7.29633247,1.33166487 7.469,1.691 C7.64166753,2.05033513 7.728,2.48199748 7.728,2.986 C7.728,3.5460028 7.64166753,4.02199804 7.469,4.414 C7.29633247,4.80600196 7.05600154,5.12333212 6.748,5.366 C6.43999846,5.60866788 6.07833541,5.78366613 5.663,5.891 C5.24766459,5.99833387 4.79733576,6.052 4.312,6.052 L2.24,6.052 L2.24,10 L0.98,10 L0.98,0.116 Z M4.102,5.044 C4.83000364,5.044 5.39466466,4.88766823 5.796,4.575 C6.19733534,4.26233177 6.398,3.7326704 6.398,2.986 C6.398,2.64066494 6.33966725,2.34666788 6.223,2.104 C6.10633275,1.86133212 5.94766767,1.66533408 5.747,1.516 C5.54633233,1.36666592 5.30833471,1.25933366 5.033,1.194 C4.75766529,1.12866634 4.46133492,1.096 4.144,1.096 L2.24,1.096 L2.24,5.044 L4.102,5.044 Z M13.02,10 C12.9173328,9.66399832 12.8566668,9.262669 12.838,8.796 C12.6513324,9.22533548 12.3643353,9.56833205 11.977,9.825 C11.5896647,10.0816679 11.1300027,10.21 10.598,10.21 C9.92599664,10.21 9.39400196,10.0186686 9.002,9.636 C8.60999804,9.25333142 8.414,8.74000322 8.414,8.096 C8.414,7.73199818 8.47933268,7.42633457 8.61,7.179 C8.74066732,6.93166543 8.9226655,6.72633415 9.156,6.563 C9.3893345,6.39966585 9.66466508,6.2713338 9.982,6.178 C10.2993349,6.0846662 10.6446648,6.01000028 11.018,5.954 L12.782,5.688 L12.782,5.254 C12.782,4.94599846 12.744667,4.6986676 12.67,4.512 C12.595333,4.3253324 12.4926673,4.18066718 12.362,4.078 C12.2313327,3.97533282 12.0820008,3.90766683 11.914,3.875 C11.7459992,3.84233317 11.5686676,3.826 11.382,3.826 C10.8499973,3.826 10.4113351,3.92399902 10.066,4.12 C9.72066494,4.31600098 9.4313345,4.56333184 9.198,4.862 L8.596,4.106 C8.86666802,3.7793317 9.24233093,3.4993345 9.723,3.266 C10.2036691,3.0326655 10.7986631,2.916 11.508,2.916 C12.366671,2.916 12.9896647,3.10733142 13.377,3.49 C13.7643353,3.87266858 13.958,4.48866242 13.958,5.338 L13.958,8.124 C13.958,8.34800112 13.9603333,8.54399916 13.965,8.712 C13.9696667,8.88000084 13.9789999,9.03633261 13.993,9.181 C14.0070001,9.32566739 14.0279999,9.46333268 14.056,9.594 C14.0840001,9.72466732 14.1213331,9.8599993 14.168,10 L13.02,10 Z M12.782,6.458 L11.13,6.724 C10.5606638,6.82666718 10.1570012,6.98066564 9.919,7.186 C9.68099881,7.39133436 9.562,7.67599818 9.562,8.04 C9.562,8.4133352 9.67166557,8.72599874 9.891,8.978 C10.1103344,9.23000126 10.4346645,9.356 10.864,9.356 C11.1253346,9.356 11.3726655,9.30466718 11.606,9.202 C11.8393345,9.09933282 12.0423325,8.95700091 12.215,8.775 C12.3876675,8.59299909 12.5253328,8.37366795 12.628,8.117 C12.7306672,7.86033205 12.782,7.57800154 12.782,7.27 L12.782,6.458 Z M16.422,3.91 L15.246,3.91 L15.246,3.112 L15.498,3.112 C15.7873348,3.112 16.0136658,3.08166697 16.177,3.021 C16.3403342,2.96033303 16.4639996,2.86700063 16.548,2.741 C16.6320004,2.61499937 16.6926665,2.44933436 16.73,2.244 C16.7673335,2.03866564 16.7999999,1.78666816 16.828,1.488 L16.856,1.236 L17.584,1.236 L17.584,3.112 L19.068,3.112 L19.068,3.91 L17.584,3.91 L17.584,8.194 C17.584,8.58600196 17.6423328,8.86833247 17.759,9.041 C17.8756672,9.21366753 18.0926651,9.3 18.41,9.3 C18.6620013,9.3 18.8953323,9.24400056 19.11,9.132 L19.236,9.972 C18.8813316,10.1306675 18.4893355,10.21 18.06,10.21 C17.7239983,10.21 17.4510011,10.1633338 17.241,10.07 C17.0309989,9.9766662 16.8653339,9.85066746 16.744,9.692 C16.6226661,9.53333254 16.5386669,9.34200112 16.492,9.118 C16.4453331,8.89399888 16.422,8.65133464 16.422,8.39 L16.422,3.91 Z M21.07,3.91 L19.894,3.91 L19.894,3.112 L20.146,3.112 C20.4353348,3.112 20.6616658,3.08166697 20.825,3.021 C20.9883342,2.96033303 21.1119996,2.86700063 21.196,2.741 C21.2800004,2.61499937 21.3406665,2.44933436 21.378,2.244 C21.4153335,2.03866564 21.4479999,1.78666816 21.476,1.488 L21.504,1.236 L22.232,1.236 L22.232,3.112 L23.716,3.112 L23.716,3.91 L22.232,3.91 L22.232,8.194 C22.232,8.58600196 22.2903328,8.86833247 22.407,9.041 C22.5236672,9.21366753 22.7406651,9.3 23.058,9.3 C23.3100013,9.3 23.5433323,9.24400056 23.758,9.132 L23.884,9.972 C23.5293316,10.1306675 23.1373355,10.21 22.708,10.21 C22.3719983,10.21 22.099001,10.1633338 21.889,10.07 C21.6789989,9.9766662 21.5133339,9.85066746 21.392,9.692 C21.2706661,9.53333254 21.1866669,9.34200112 21.14,9.118 C21.0933331,8.89399888 21.07,8.65133464 21.07,8.39 L21.07,3.91 Z M25.998,6.822 C26.0446669,7.6153373 26.2476649,8.22899783 26.607,8.663 C26.9663351,9.09700217 27.4679968,9.314 28.112,9.314 C28.9240041,9.314 29.5353313,8.93133716 29.946,8.166 L30.828,8.656 C30.557332,9.11333562 30.1980022,9.48666522 29.75,9.776 C29.3019978,10.0653348 28.7373367,10.21 28.056,10.21 C27.514664,10.21 27.041002,10.1166676 26.635,9.93 C26.228998,9.7433324 25.890668,9.4866683 25.62,9.16 C25.349332,8.8333317 25.146334,8.45066886 25.011,8.012 C24.875666,7.57333114 24.808,7.10200252 24.808,6.598 C24.808,6.10333086 24.8733327,5.63200224 25.004,5.184 C25.1346673,4.73599776 25.3329987,4.34400168 25.599,4.008 C25.8650013,3.67199832 26.1916647,3.40600098 26.579,3.21 C26.9663353,3.01399902 27.4213307,2.916 27.944,2.916 C28.4480025,2.916 28.8866648,3.01166571 29.26,3.203 C29.6333352,3.39433429 29.9436654,3.65099839 30.191,3.973 C30.4383346,4.29500161 30.6249994,4.66833121 30.751,5.093 C30.8770006,5.51766879 30.94,5.96799762 30.94,6.444 C30.94,6.54666718 30.9376667,6.62599972 30.933,6.682 C30.9283333,6.73800028 30.926,6.78466648 30.926,6.822 L25.998,6.822 Z M27.93,3.798 C27.3419971,3.798 26.8870016,4.0079979 26.565,4.428 C26.2429984,4.8480021 26.0586669,5.41266312 26.012,6.122 L29.75,6.122 C29.75,5.83266522 29.7173337,5.55033471 29.652,5.275 C29.5866663,4.99966529 29.4793341,4.75233443 29.33,4.533 C29.1806659,4.31366557 28.9916678,4.13633401 28.763,4.001 C28.5343322,3.86566599 28.2566683,3.798 27.93,3.798 Z M32.354,3.112 L33.362,3.112 L33.474,4.652 C33.670001,4.14799748 33.9826645,3.7326683 34.412,3.406 C34.8413355,3.0793317 35.3499971,2.916 35.938,2.916 L35.938,4.148 C35.8073327,4.11999986 35.6626675,4.106 35.504,4.106 C35.2706655,4.106 35.0373345,4.14799958 34.804,4.232 C34.5706655,4.31600042 34.3583343,4.4513324 34.167,4.638 C33.9756657,4.8246676 33.8193339,5.06499853 33.698,5.359 C33.5766661,5.65300147 33.516,6.0099979 33.516,6.43 L33.516,10 L32.354,10 L32.354,3.112 Z M37.086,3.112 L38.094,3.112 L38.22,4.484 C38.3973342,4.0639979 38.6796647,3.69766823 39.067,3.385 C39.4543353,3.07233177 39.9326638,2.916 40.502,2.916 C41.2206703,2.916 41.7503316,3.14466438 42.091,3.602 C42.4316684,4.05933562 42.602,4.69866256 42.602,5.52 L42.602,10 L41.44,10 L41.44,5.758 C41.44,5.13266354 41.3140013,4.67300147 41.062,4.379 C40.8099987,4.08499853 40.4693355,3.938 40.04,3.938 C39.5266641,3.938 39.0996684,4.1479979 38.759,4.568 C38.4183316,4.9880021 38.248,5.58066284 38.248,6.346 L38.248,10 L37.086,10 L37.086,3.112 Z" id="Pattern" fill="#4C5358"></path>
                <path d="M0.5,42.5 L199.5,42.5" id="Line" stroke="#7C878E" stroke-linecap="square"></path>
                <path d="M4.416,21.704 L5.744,21.704 L9.728,33 L8.224,33 L7.216,29.96 L2.864,29.96 L1.856,33 L0.4,33 L4.416,21.704 Z M6.832,28.856 C6.53333184,27.9279954 6.2373348,27.0186711 5.944,26.128 C5.6506652,25.2373289 5.35466816,24.3013382 5.056,23.32 C4.77866528,24.2800048 4.48533488,25.2106622 4.176,26.112 C3.86666512,27.0133378 3.55733488,27.9279954 3.248,28.856 L6.832,28.856 Z M11.12,25.128 L12.464,25.128 L12.464,29.896 C12.464,30.6426704 12.6026653,31.1893316 12.88,31.536 C13.1573347,31.8826684 13.5466642,32.056 14.048,32.056 C14.6880032,32.056 15.1866649,31.8026692 15.544,31.296 C15.9013351,30.7893308 16.08,30.1146709 16.08,29.272 L16.08,25.128 L17.408,25.128 L17.408,33 L16.16,33 L16.16,31.4 C16.0639995,31.6453346 15.9466674,31.8773322 15.808,32.096 C15.6693326,32.3146678 15.4986677,32.5066658 15.296,32.672 C15.0933323,32.8373342 14.858668,32.9679995 14.592,33.064 C14.325332,33.1600005 14.0106685,33.208 13.648,33.208 C12.7946624,33.208 12.1600021,32.9493359 11.744,32.432 C11.3279979,31.9146641 11.12,31.1813381 11.12,30.232 L11.12,25.128 Z M20.144,26.04 L18.8,26.04 L18.8,25.128 L19.088,25.128 C19.4186683,25.128 19.6773324,25.0933337 19.864,25.024 C20.0506676,24.9546663 20.1919995,24.8480007 20.288,24.704 C20.3840005,24.5599993 20.4533331,24.3706678 20.496,24.136 C20.5386669,23.9013322 20.5759998,23.613335 20.608,23.272 L20.64,22.984 L21.472,22.984 L21.472,25.128 L23.168,25.128 L23.168,26.04 L21.472,26.04 L21.472,30.936 C21.472,31.3840022 21.538666,31.7066657 21.672,31.904 C21.805334,32.1013343 22.0533315,32.2 22.416,32.2 C22.7040014,32.2 22.9706654,32.1360006 23.216,32.008 L23.36,32.968 C22.9546646,33.1493342 22.5066691,33.24 22.016,33.24 C21.6319981,33.24 21.3200012,33.1866672 21.08,33.08 C20.8399988,32.9733328 20.6506674,32.8293342 20.512,32.648 C20.3733326,32.4666658 20.2773336,32.2480013 20.224,31.992 C20.1706664,31.7359987 20.144,31.4586682 20.144,31.16 L20.144,26.04 Z M28.032,33.24 C27.4346637,33.24 26.9093356,33.1306678 26.456,32.912 C26.0026644,32.6933322 25.6240015,32.3946686 25.32,32.016 C25.0159985,31.6373314 24.7893341,31.1946692 24.64,30.688 C24.4906659,30.1813308 24.416,29.6346696 24.416,29.048 C24.416,28.4613304 24.4933326,27.9173358 24.648,27.416 C24.8026674,26.9146642 25.0319985,26.4773352 25.336,26.104 C25.6400015,25.7306648 26.0186644,25.4373344 26.472,25.224 C26.9253356,25.0106656 27.4453304,24.904 28.032,24.904 C28.6186696,24.904 29.1386644,25.0106656 29.592,25.224 C30.0453356,25.4373344 30.4266651,25.7279982 30.736,26.096 C31.0453349,26.4640018 31.2773326,26.9013308 31.432,27.408 C31.5866674,27.9146692 31.664,28.4613304 31.664,29.048 C31.664,29.6346696 31.5866674,30.1813308 31.432,30.688 C31.2773326,31.1946692 31.0453349,31.6373314 30.736,32.016 C30.4266651,32.3946686 30.0453356,32.6933322 29.592,32.912 C29.1386644,33.1306678 28.6186696,33.24 28.032,33.24 Z M28.064,32.2 C28.4266685,32.2 28.7466653,32.1200008 29.024,31.96 C29.3013347,31.7999992 29.5306658,31.5786681 29.712,31.296 C29.8933342,31.0133319 30.0319995,30.6800019 30.128,30.296 C30.2240005,29.9119981 30.272,29.4960022 30.272,29.048 C30.272,28.5999978 30.2240005,28.1866686 30.128,27.808 C30.0319995,27.4293314 29.888001,27.1013347 29.696,26.824 C29.503999,26.5466653 29.2693347,26.3306674 28.992,26.176 C28.7146653,26.0213326 28.3946685,25.944 28.032,25.944 C27.6586648,25.944 27.3333347,26.0213326 27.056,26.176 C26.7786653,26.3306674 26.5493342,26.5466653 26.368,26.824 C26.1866658,27.1013347 26.0480005,27.4293314 25.952,27.808 C25.8559995,28.1866686 25.808,28.5999978 25.808,29.048 C25.808,29.4960022 25.8559995,29.9119981 25.952,30.296 C26.0480005,30.6800019 26.1893324,31.0133319 26.376,31.296 C26.5626676,31.5786681 26.7973319,31.7999992 27.08,31.96 C27.3626681,32.1200008 27.6906648,32.2 28.064,32.2 Z M39.936,31.272 C39.6159984,31.9120032 39.1866694,32.3999983 38.648,32.736 C38.1093306,33.0720017 37.4560038,33.24 36.688,33.24 C36.0586635,33.24 35.5120023,33.1306678 35.048,32.912 C34.5839977,32.6933322 34.2000015,32.3973352 33.896,32.024 C33.5919985,31.6506648 33.3680007,31.2106692 33.224,30.704 C33.0799993,30.1973308 33.008,29.6560029 33.008,29.08 C33.008,28.4933304 33.0853326,27.9466692 33.24,27.44 C33.3946674,26.9333308 33.6239985,26.4933352 33.928,26.12 C34.2320015,25.7466648 34.613331,25.4506678 35.072,25.232 C35.530669,25.0133322 36.0693302,24.904 36.688,24.904 C37.4666706,24.904 38.1146641,25.0773316 38.632,25.424 C39.1493359,25.7706684 39.5679984,26.2586635 39.888,26.888 L38.768,27.416 C38.3626646,26.4346618 37.6800048,25.944 36.72,25.944 C36.3146646,25.944 35.9653348,26.0239992 35.672,26.184 C35.3786652,26.3440008 35.1386676,26.5626653 34.952,26.84 C34.7653324,27.1173347 34.6266671,27.4399982 34.536,27.808 C34.4453329,28.1760018 34.4,28.5733312 34.4,29 C34.4,29.4053354 34.4426662,29.7999981 34.528,30.184 C34.6133338,30.5680019 34.751999,30.9093318 34.944,31.208 C35.136001,31.5066682 35.3813318,31.7466658 35.68,31.928 C35.9786682,32.1093342 36.3466645,32.2 36.784,32.2 C37.3386694,32.2 37.786665,32.0586681 38.128,31.776 C38.469335,31.4933319 38.7306658,31.1280022 38.912,30.68 L39.936,31.272 Z M44.672,33.24 C44.0746637,33.24 43.5493356,33.1306678 43.096,32.912 C42.6426644,32.6933322 42.2640015,32.3946686 41.96,32.016 C41.6559985,31.6373314 41.4293341,31.1946692 41.28,30.688 C41.1306659,30.1813308 41.056,29.6346696 41.056,29.048 C41.056,28.4613304 41.1333326,27.9173358 41.288,27.416 C41.4426674,26.9146642 41.6719985,26.4773352 41.976,26.104 C42.2800015,25.7306648 42.6586644,25.4373344 43.112,25.224 C43.5653356,25.0106656 44.0853304,24.904 44.672,24.904 C45.2586696,24.904 45.7786644,25.0106656 46.232,25.224 C46.6853356,25.4373344 47.0666651,25.7279982 47.376,26.096 C47.6853349,26.4640018 47.9173326,26.9013308 48.072,27.408 C48.2266674,27.9146692 48.304,28.4613304 48.304,29.048 C48.304,29.6346696 48.2266674,30.1813308 48.072,30.688 C47.9173326,31.1946692 47.6853349,31.6373314 47.376,32.016 C47.0666651,32.3946686 46.6853356,32.6933322 46.232,32.912 C45.7786644,33.1306678 45.2586696,33.24 44.672,33.24 Z M44.704,32.2 C45.0666685,32.2 45.3866653,32.1200008 45.664,31.96 C45.9413347,31.7999992 46.1706658,31.5786681 46.352,31.296 C46.5333342,31.0133319 46.6719995,30.6800019 46.768,30.296 C46.8640005,29.9119981 46.912,29.4960022 46.912,29.048 C46.912,28.5999978 46.8640005,28.1866686 46.768,27.808 C46.6719995,27.4293314 46.528001,27.1013347 46.336,26.824 C46.143999,26.5466653 45.9093347,26.3306674 45.632,26.176 C45.3546653,26.0213326 45.0346685,25.944 44.672,25.944 C44.2986648,25.944 43.9733347,26.0213326 43.696,26.176 C43.4186653,26.3306674 43.1893342,26.5466653 43.008,26.824 C42.8266658,27.1013347 42.6880005,27.4293314 42.592,27.808 C42.4959995,28.1866686 42.448,28.5999978 42.448,29.048 C42.448,29.4960022 42.4959995,29.9119981 42.592,30.296 C42.6880005,30.6800019 42.8293324,31.0133319 43.016,31.296 C43.2026676,31.5786681 43.4373319,31.7999992 43.72,31.96 C44.0026681,32.1200008 44.3306648,32.2 44.704,32.2 Z" fill="#000000"></path>
                <path d="M50,25.128 L51.152,25.128 L51.296,26.664 C51.488001,26.1199973 51.7866646,25.6906682 52.192,25.376 C52.5973354,25.0613318 53.0933304,24.904 53.68,24.904 C54.2986698,24.904 54.7839982,25.0799982 55.136,25.432 C55.4880018,25.7840018 55.7119995,26.2106642 55.808,26.712 C55.9040005,26.4666654 56.0239993,26.2346678 56.168,26.016 C56.3120007,25.7973322 56.4853323,25.6053342 56.688,25.44 C56.8906677,25.2746658 57.125332,25.1440005 57.392,25.048 C57.658668,24.9519995 57.962665,24.904 58.304,24.904 C58.7520022,24.904 59.1226652,24.9813326 59.416,25.136 C59.7093348,25.2906674 59.9439991,25.501332 60.12,25.768 C60.2960009,26.034668 60.421333,26.3466649 60.496,26.704 C60.570667,27.0613351 60.608,27.4373314 60.608,27.832 L60.608,33 L59.28,33 L59.28,28.168 C59.28,27.4639965 59.1546679,26.9386684 58.904,26.592 C58.6533321,26.2453316 58.2880024,26.072 57.808,26.072 C57.2853307,26.072 56.8480018,26.3039977 56.496,26.768 C56.1439982,27.2320023 55.968,27.8959957 55.968,28.76 L55.968,33 L54.64,33 L54.64,28.232 C54.64,27.4959963 54.5120013,26.9520018 54.256,26.6 C53.9999987,26.2479982 53.642669,26.072 53.184,26.072 C52.6719974,26.072 52.2346685,26.309331 51.872,26.784 C51.5093315,27.258669 51.328,27.9439955 51.328,28.84 L51.328,33 L50,33 L50,25.128 Z" id="Path" fill="#AAB1B6"></path>
                <path d="M62.624,25.128 L63.952,25.128 L63.952,26.648 C64.0480005,26.4239989 64.1706659,26.2053344 64.32,25.992 C64.4693341,25.7786656 64.647999,25.5920008 64.856,25.432 C65.064001,25.2719992 65.3066653,25.1440005 65.584,25.048 C65.8613347,24.9519995 66.1759982,24.904 66.528,24.904 C67.0400026,24.904 67.4853314,25.0106656 67.864,25.224 C68.2426686,25.4373344 68.5546654,25.7306648 68.8,26.104 C69.0453346,26.4773352 69.2293327,26.9119975 69.352,27.408 C69.4746673,27.9040025 69.536,28.4399971 69.536,29.016 C69.536,29.6986701 69.4560008,30.3013307 69.296,30.824 C69.1359992,31.3466693 68.9120014,31.7839982 68.624,32.136 C68.3359986,32.4880018 68.0000019,32.7546658 67.616,32.936 C67.2319981,33.1173342 66.8160022,33.208 66.368,33.208 C65.7813304,33.208 65.2773354,33.0640014 64.856,32.776 C64.4346646,32.4879986 64.1333342,32.1306688 63.952,31.704 L63.952,35.768 L62.624,35.768 L62.624,25.128 Z M63.952,29.112 C63.952,29.3360011 63.9599999,29.5413324 63.976,29.728 C63.9920001,29.9146676 64.0106666,30.0719994 64.032,30.2 C64.0746669,30.4560013 64.1546661,30.7013322 64.272,30.936 C64.3893339,31.1706678 64.5333325,31.3759991 64.704,31.552 C64.8746675,31.7280009 65.0746655,31.8693328 65.304,31.976 C65.5333345,32.0826672 65.7866653,32.136 66.064,32.136 C66.4266685,32.136 66.7386654,32.0506675 67,31.88 C67.2613346,31.7093325 67.4773325,31.4800014 67.648,31.192 C67.8186675,30.9039986 67.9439996,30.5760018 68.024,30.208 C68.1040004,29.8399982 68.144,29.4586686 68.144,29.064 C68.144,28.6693314 68.106667,28.2880018 68.032,27.92 C67.957333,27.5519982 67.8373342,27.2266681 67.672,26.944 C67.5066658,26.6613319 67.290668,26.4346675 67.024,26.264 C66.757332,26.0933325 66.4373352,26.008 66.064,26.008 C65.7759986,26.008 65.5120012,26.0613328 65.272,26.168 C65.0319988,26.2746672 64.8266675,26.4186658 64.656,26.6 C64.4853325,26.7813342 64.3440006,26.9893322 64.232,27.224 C64.1199994,27.4586678 64.0480002,27.7039987 64.016,27.96 C63.9946666,28.0666672 63.9786667,28.2133324 63.968,28.4 C63.9573333,28.5866676 63.952,28.8026654 63.952,29.048 L63.952,29.112 Z" id="Combined-Shape" fill="#AAB1B6"></path>
                <polygon id="Path" fill="#AAB1B6" points="71.232 21.704 72.56 21.704 72.56 33 71.232 33"></polygon>
                <path d="M75.616,29.368 C75.6693336,30.2746712 75.9013313,30.9759975 76.312,31.472 C76.7226687,31.9680025 77.2959963,32.216 78.032,32.216 C78.9600046,32.216 79.6586643,31.778671 80.128,30.904 L81.136,31.464 C80.8266651,31.9866693 80.4160026,32.4133317 79.904,32.744 C79.3919974,33.0746683 78.7466706,33.24 77.968,33.24 C77.3493302,33.24 76.8080023,33.1333344 76.344,32.92 C75.8799977,32.7066656 75.4933349,32.4133352 75.184,32.04 C74.8746651,31.6666648 74.6426674,31.2293358 74.488,30.728 C74.3333326,30.2266642 74.256,29.6880029 74.256,29.112 C74.256,28.5466638 74.3306659,28.0080026 74.48,27.496 C74.6293341,26.9839974 74.8559985,26.5360019 75.16,26.152 C75.4640015,25.7679981 75.8373311,25.4640011 76.28,25.24 C76.7226689,25.0159989 77.2426637,24.904 77.84,24.904 C78.4160029,24.904 78.9173312,25.0133322 79.344,25.232 C79.7706688,25.4506678 80.1253319,25.7439982 80.408,26.112 C80.6906681,26.4800018 80.9039993,26.9066642 81.048,27.392 C81.1920007,27.8773358 81.264,28.3919973 81.264,28.936 C81.264,29.0533339 81.2613334,29.1439997 81.256,29.208 C81.2506666,29.2720003 81.248,29.3253331 81.248,29.368 L75.616,29.368 Z M77.824,25.912 C77.1519966,25.912 76.6320018,26.1519976 76.264,26.632 C75.8959982,27.1120024 75.6853336,27.7573293 75.632,28.568 L79.904,28.568 C79.904,28.2373317 79.866667,27.9146682 79.792,27.6 C79.717333,27.2853318 79.5946675,27.0026679 79.424,26.752 C79.2533325,26.5013321 79.0373346,26.2986674 78.776,26.144 C78.5146654,25.9893326 78.1973352,25.912 77.824,25.912 Z" id="Combined-Shape" fill="#AAB1B6"></path>
                <path d="M83.568,26.04 L82.224,26.04 L82.224,25.128 L82.512,25.128 C82.8426683,25.128 83.1013324,25.0933337 83.288,25.024 C83.4746676,24.9546663 83.6159995,24.8480007 83.712,24.704 C83.8080005,24.5599993 83.8773331,24.3706678 83.92,24.136 C83.9626669,23.9013322 83.9999998,23.613335 84.032,23.272 L84.064,22.984 L84.896,22.984 L84.896,25.128 L86.592,25.128 L86.592,26.04 L84.896,26.04 L84.896,30.936 C84.896,31.3840022 84.962666,31.7066657 85.096,31.904 C85.229334,32.1013343 85.4773315,32.2 85.84,32.2 C86.1280014,32.2 86.3946654,32.1360006 86.64,32.008 L86.784,32.968 C86.3786646,33.1493342 85.9306691,33.24 85.44,33.24 C85.0559981,33.24 84.7440012,33.1866672 84.504,33.08 C84.2639988,32.9733328 84.0746674,32.8293342 83.936,32.648 C83.7973326,32.4666658 83.7013336,32.2480013 83.648,31.992 C83.5946664,31.7359987 83.568,31.4586682 83.568,31.16 L83.568,26.04 Z" id="Path" fill="#AAB1B6"></path>
                <path d="M89.2,29.368 C89.2533336,30.2746712 89.4853313,30.9759975 89.896,31.472 C90.3066687,31.9680025 90.8799963,32.216 91.616,32.216 C92.5440046,32.216 93.2426643,31.778671 93.712,30.904 L94.72,31.464 C94.4106651,31.9866693 94.0000026,32.4133317 93.488,32.744 C92.9759974,33.0746683 92.3306706,33.24 91.552,33.24 C90.9333302,33.24 90.3920023,33.1333344 89.928,32.92 C89.4639977,32.7066656 89.0773349,32.4133352 88.768,32.04 C88.4586651,31.6666648 88.2266674,31.2293358 88.072,30.728 C87.9173326,30.2266642 87.84,29.6880029 87.84,29.112 C87.84,28.5466638 87.9146659,28.0080026 88.064,27.496 C88.2133341,26.9839974 88.4399985,26.5360019 88.744,26.152 C89.0480015,25.7679981 89.4213311,25.4640011 89.864,25.24 C90.3066689,25.0159989 90.8266637,24.904 91.424,24.904 C92.0000029,24.904 92.5013312,25.0133322 92.928,25.232 C93.3546688,25.4506678 93.7093319,25.7439982 93.992,26.112 C94.2746681,26.4800018 94.4879993,26.9066642 94.632,27.392 C94.7760007,27.8773358 94.848,28.3919973 94.848,28.936 C94.848,29.0533339 94.8453334,29.1439997 94.84,29.208 C94.8346666,29.2720003 94.832,29.3253331 94.832,29.368 L89.2,29.368 Z M91.408,25.912 C90.7359966,25.912 90.2160018,26.1519976 89.848,26.632 C89.4799982,27.1120024 89.2693336,27.7573293 89.216,28.568 L93.488,28.568 C93.488,28.2373317 93.450667,27.9146682 93.376,27.6 C93.301333,27.2853318 93.1786675,27.0026679 93.008,26.752 C92.8373325,26.5013321 92.6213346,26.2986674 92.36,26.144 C92.0986654,25.9893326 91.7813352,25.912 91.408,25.912 Z" id="Combined-Shape" fill="#AAB1B6"></path>
            </g>
        </g>
    </g>
</svg>