<?xml version="1.0" encoding="UTF-8"?>
<svg width="200px" height="62px" viewBox="0 0 200 62" version="1.1" xmlns="http://www.w3.org/2000/svg" xmlns:xlink="http://www.w3.org/1999/xlink">
    <!-- Generator: Sketch 47 (45396) - http://www.bohemiancoding.com/sketch -->
    <title>HelpText</title>
    <desc>Created with Sketch.</desc>
    <defs></defs>
    <g id="Page-1" stroke="none" stroke-width="1" fill="none" fill-rule="evenodd">
        <g id="Buttons-Usage-extra-large-1200" transform="translate(-394.000000, -2957.000000)">
            <g id="HelpText" transform="translate(394.000000, 2957.000000)">
                <path d="M0.98,0.116 L4.298,0.116 C4.79266914,0.116 5.2499979,0.17199944 5.67,0.284 C6.0900021,0.39600056 6.45166515,0.5686655 6.755,0.802 C7.05833485,1.0353345 7.29633247,1.33166487 7.469,1.691 C7.64166753,2.05033513 7.728,2.48199748 7.728,2.986 C7.728,3.5460028 7.64166753,4.02199804 7.469,4.414 C7.29633247,4.80600196 7.05600154,5.12333212 6.748,5.366 C6.43999846,5.60866788 6.07833541,5.78366613 5.663,5.891 C5.24766459,5.99833387 4.79733576,6.052 4.312,6.052 L2.24,6.052 L2.24,10 L0.98,10 L0.98,0.116 Z M4.102,5.044 C4.83000364,5.044 5.39466466,4.88766823 5.796,4.575 C6.19733534,4.26233177 6.398,3.7326704 6.398,2.986 C6.398,2.64066494 6.33966725,2.34666788 6.223,2.104 C6.10633275,1.86133212 5.94766767,1.66533408 5.747,1.516 C5.54633233,1.36666592 5.30833471,1.25933366 5.033,1.194 C4.75766529,1.12866634 4.46133492,1.096 4.144,1.096 L2.24,1.096 L2.24,5.044 L4.102,5.044 Z M9.114,0.116 L10.276,0.116 L10.276,4.47 C10.3600004,4.26466564 10.4673327,4.0686676 10.598,3.882 C10.7286673,3.6953324 10.8873324,3.52966739 11.074,3.385 C11.2606676,3.24033261 11.4753321,3.12600042 11.718,3.042 C11.9606679,2.95799958 12.2313318,2.916 12.53,2.916 C13.2486703,2.916 13.7783316,3.15166431 14.119,3.623 C14.4596684,4.09433569 14.63,4.73132932 14.63,5.534 L14.63,10 L13.468,10 L13.468,5.716 C13.468,5.12799706 13.3466679,4.68700147 13.104,4.393 C12.8613321,4.09899853 12.5160022,3.952 12.068,3.952 C11.8066654,3.952 11.5663344,4.00799944 11.347,4.12 C11.1276656,4.23200056 10.9386675,4.39066564 10.78,4.596 C10.6213325,4.80133436 10.4976671,5.04866522 10.409,5.338 C10.3203329,5.62733478 10.276,5.94466494 10.276,6.29 L10.276,10 L9.114,10 L9.114,0.116 Z M19.25,10.21 C18.7273307,10.21 18.2676687,10.1143343 17.871,9.923 C17.4743313,9.73166571 17.1430013,9.47033499 16.877,9.139 C16.6109987,8.80766501 16.4126673,8.42033555 16.282,7.977 C16.1513327,7.53366445 16.086,7.0553359 16.086,6.542 C16.086,6.0286641 16.153666,5.55266886 16.289,5.114 C16.424334,4.67533114 16.6249987,4.2926683 16.891,3.966 C17.1570013,3.6393317 17.4883314,3.3826676 17.885,3.196 C18.2816687,3.0093324 18.7366641,2.916 19.25,2.916 C19.7633359,2.916 20.2183314,3.0093324 20.615,3.196 C21.0116687,3.3826676 21.345332,3.63699839 21.616,3.959 C21.886668,4.28100161 22.089666,4.66366445 22.225,5.107 C22.360334,5.55033555 22.428,6.0286641 22.428,6.542 C22.428,7.0553359 22.360334,7.53366445 22.225,7.977 C22.089666,8.42033555 21.886668,8.80766501 21.616,9.139 C21.345332,9.47033499 21.0116687,9.73166571 20.615,9.923 C20.2183314,10.1143343 19.7633359,10.21 19.25,10.21 Z M19.278,9.3 C19.5953349,9.3 19.8753321,9.2300007 20.118,9.09 C20.3606679,8.9499993 20.5613325,8.75633457 20.72,8.509 C20.8786675,8.26166543 20.9999996,7.97000168 21.084,7.634 C21.1680004,7.29799832 21.21,6.93400196 21.21,6.542 C21.21,6.14999804 21.1680004,5.78833499 21.084,5.457 C20.9999996,5.12566501 20.8740008,4.83866788 20.706,4.596 C20.5379992,4.35333212 20.3326679,4.16433401 20.09,4.029 C19.8473321,3.89366599 19.5673349,3.826 19.25,3.826 C18.9233317,3.826 18.6386679,3.89366599 18.396,4.029 C18.1533321,4.16433401 17.9526675,4.35333212 17.794,4.596 C17.6353325,4.83866788 17.5140004,5.12566501 17.43,5.457 C17.3459996,5.78833499 17.304,6.14999804 17.304,6.542 C17.304,6.93400196 17.3459996,7.29799832 17.43,7.634 C17.5140004,7.97000168 17.6376658,8.26166543 17.801,8.509 C17.9643341,8.75633457 18.1696654,8.9499993 18.417,9.09 C18.6643346,9.2300007 18.9513317,9.3 19.278,9.3 Z M23.912,3.112 L24.92,3.112 L25.046,4.484 C25.2233342,4.0639979 25.5056647,3.69766823 25.893,3.385 C26.2803353,3.07233177 26.7586638,2.916 27.328,2.916 C28.0466703,2.916 28.5763316,3.14466438 28.917,3.602 C29.2576684,4.05933562 29.428,4.69866256 29.428,5.52 L29.428,10 L28.266,10 L28.266,5.758 C28.266,5.13266354 28.1400013,4.67300147 27.888,4.379 C27.6359987,4.08499853 27.2953355,3.938 26.866,3.938 C26.3526641,3.938 25.9256684,4.1479979 25.585,4.568 C25.2443316,4.9880021 25.074,5.58066284 25.074,6.346 L25.074,10 L23.912,10 L23.912,3.112 Z M32.074,6.822 C32.1206669,7.6153373 32.3236649,8.22899783 32.683,8.663 C33.0423351,9.09700217 33.5439968,9.314 34.188,9.314 C35.0000041,9.314 35.6113313,8.93133716 36.022,8.166 L36.904,8.656 C36.633332,9.11333562 36.2740022,9.48666522 35.826,9.776 C35.3779978,10.0653348 34.8133367,10.21 34.132,10.21 C33.590664,10.21 33.117002,10.1166676 32.711,9.93 C32.304998,9.7433324 31.966668,9.4866683 31.696,9.16 C31.425332,8.8333317 31.222334,8.45066886 31.087,8.012 C30.951666,7.57333114 30.884,7.10200252 30.884,6.598 C30.884,6.10333086 30.9493327,5.63200224 31.08,5.184 C31.2106673,4.73599776 31.4089987,4.34400168 31.675,4.008 C31.9410013,3.67199832 32.2676647,3.40600098 32.655,3.21 C33.0423353,3.01399902 33.4973307,2.916 34.02,2.916 C34.5240025,2.916 34.9626648,3.01166571 35.336,3.203 C35.7093352,3.39433429 36.0196654,3.65099839 36.267,3.973 C36.5143346,4.29500161 36.7009994,4.66833121 36.827,5.093 C36.9530006,5.51766879 37.016,5.96799762 37.016,6.444 C37.016,6.54666718 37.0136667,6.62599972 37.009,6.682 C37.0043333,6.73800028 37.002,6.78466648 37.002,6.822 L32.074,6.822 Z M34.006,3.798 C33.4179971,3.798 32.9630016,4.0079979 32.641,4.428 C32.3189984,4.8480021 32.1346669,5.41266312 32.088,6.122 L35.826,6.122 C35.826,5.83266522 35.7933337,5.55033471 35.728,5.275 C35.6626663,4.99966529 35.5553341,4.75233443 35.406,4.533 C35.2566659,4.31366557 35.0676678,4.13633401 34.839,4.001 C34.6103322,3.86566599 34.3326683,3.798 34.006,3.798 Z M41.58,3.112 L42.588,3.112 L42.714,4.484 C42.8913342,4.0639979 43.1736647,3.69766823 43.561,3.385 C43.9483353,3.07233177 44.4266638,2.916 44.996,2.916 C45.7146703,2.916 46.2443316,3.14466438 46.585,3.602 C46.9256684,4.05933562 47.096,4.69866256 47.096,5.52 L47.096,10 L45.934,10 L45.934,5.758 C45.934,5.13266354 45.8080013,4.67300147 45.556,4.379 C45.3039987,4.08499853 44.9633355,3.938 44.534,3.938 C44.0206641,3.938 43.5936684,4.1479979 43.253,4.568 C42.9123316,4.9880021 42.742,5.58066284 42.742,6.346 L42.742,10 L41.58,10 L41.58,3.112 Z M48.832,3.112 L50.008,3.112 L50.008,7.284 C50.008,7.9373366 50.1293321,8.41566515 50.372,8.719 C50.6146679,9.02233485 50.9553311,9.174 51.394,9.174 C51.9540028,9.174 52.3903318,8.95233555 52.703,8.509 C53.0156682,8.06566445 53.172,7.47533702 53.172,6.738 L53.172,3.112 L54.334,3.112 L54.334,10 L53.242,10 L53.242,8.6 C53.1579996,8.81466774 53.0553339,9.01766571 52.934,9.209 C52.8126661,9.40033429 52.6633342,9.56833261 52.486,9.713 C52.3086658,9.85766739 52.1033345,9.97199958 51.87,10.056 C51.6366655,10.1400004 51.3613349,10.182 51.044,10.182 C50.2973296,10.182 49.7420018,9.95566893 49.378,9.503 C49.0139982,9.05033107 48.832,8.40867082 48.832,7.578 L48.832,3.112 Z M56.126,3.112 L57.134,3.112 L57.26,4.456 C57.4280008,3.97999762 57.6893316,3.60433471 58.044,3.329 C58.3986684,3.05366529 58.8326641,2.916 59.346,2.916 C59.887336,2.916 60.3119985,3.06999846 60.62,3.378 C60.9280015,3.68600154 61.1239996,4.05933114 61.208,4.498 C61.2920004,4.28333226 61.3969994,4.08033429 61.523,3.889 C61.6490006,3.69766571 61.8006658,3.52966739 61.978,3.385 C62.1553342,3.24033261 62.3606655,3.12600042 62.594,3.042 C62.8273345,2.95799958 63.0933318,2.916 63.392,2.916 C63.784002,2.916 64.1083321,2.98366599 64.365,3.119 C64.621668,3.25433401 64.8269992,3.4386655 64.981,3.672 C65.1350008,3.9053345 65.2446663,4.17833177 65.31,4.491 C65.3753337,4.80366823 65.408,5.13266494 65.408,5.478 L65.408,10 L64.246,10 L64.246,5.772 C64.246,5.15599692 64.1363344,4.69633485 63.917,4.393 C63.6976656,4.08966515 63.3780021,3.938 62.958,3.938 C62.5006644,3.938 62.1180015,4.14099797 61.81,4.547 C61.5019985,4.95300203 61.348,5.53399622 61.348,6.29 L61.348,10 L60.186,10 L60.186,5.828 C60.186,5.18399678 60.0740011,4.70800154 59.85,4.4 C59.6259989,4.09199846 59.3133353,3.938 58.912,3.938 C58.4639978,3.938 58.0813349,4.14566459 57.764,4.561 C57.4466651,4.97633541 57.288,5.57599608 57.288,6.36 L57.288,10 L56.126,10 L56.126,3.112 Z M67.172,0.116 L68.334,0.116 L68.334,4.33 C68.5206676,3.93799804 68.7983315,3.60433471 69.167,3.329 C69.5356685,3.05366529 69.9953306,2.916 70.546,2.916 C70.9473353,2.916 71.313665,2.99999916 71.645,3.168 C71.976335,3.33600084 72.2586655,3.57633177 72.492,3.889 C72.7253345,4.20166823 72.9049994,4.57733114 73.031,5.016 C73.1570006,5.45466886 73.22,5.94466396 73.22,6.486 C73.22,7.01800266 73.1570006,7.51033107 73.031,7.963 C72.9049994,8.41566893 72.7253345,8.8053317 72.492,9.132 C72.2586655,9.4586683 71.9716684,9.7153324 71.631,9.902 C71.2903316,10.0886676 70.9053355,10.182 70.476,10.182 C69.9719975,10.182 69.524002,10.0536679 69.132,9.797 C68.739998,9.54033205 68.446001,9.17400238 68.25,8.698 L68.11,10 L67.172,10 L67.172,0.116 Z M68.334,6.584 C68.334,6.78933436 68.3409999,6.97366585 68.355,7.137 C68.3690001,7.30033415 68.3853332,7.43799944 68.404,7.55 C68.4413335,7.77400112 68.5113328,7.98866564 68.614,8.194 C68.7166672,8.39933436 68.8426659,8.57899923 68.992,8.733 C69.1413341,8.88700077 69.3163323,9.0106662 69.517,9.104 C69.7176677,9.1973338 69.9393321,9.244 70.182,9.244 C70.4993349,9.244 70.7723322,9.16700077 71.001,9.013 C71.2296678,8.85899923 71.4186659,8.65600126 71.568,8.404 C71.7173341,8.15199874 71.8269997,7.86500161 71.897,7.543 C71.9670003,7.22099839 72.002,6.89200168 72.002,6.556 C72.002,6.21066494 71.964667,5.87700161 71.89,5.555 C71.815333,5.23299839 71.7033341,4.94833457 71.554,4.701 C71.4046659,4.45366543 71.2133345,4.25533408 70.98,4.106 C70.7466655,3.95666592 70.4713349,3.882 70.154,3.882 C69.9019987,3.882 69.6756677,3.92633289 69.475,4.015 C69.2743323,4.10366711 69.0993341,4.22499923 68.95,4.379 C68.8006659,4.53300077 68.6793338,4.71266564 68.586,4.918 C68.4926662,5.12333436 68.4273335,5.3426655 68.39,5.576 C68.3713332,5.6693338 68.3573334,5.78833261 68.348,5.933 C68.3386666,6.07766739 68.334,6.28066536 68.334,6.542 L68.334,6.584 Z M75.586,6.822 C75.6326669,7.6153373 75.8356649,8.22899783 76.195,8.663 C76.5543351,9.09700217 77.0559968,9.314 77.7,9.314 C78.5120041,9.314 79.1233313,8.93133716 79.534,8.166 L80.416,8.656 C80.145332,9.11333562 79.7860022,9.48666522 79.338,9.776 C78.8899978,10.0653348 78.3253367,10.21 77.644,10.21 C77.102664,10.21 76.629002,10.1166676 76.223,9.93 C75.816998,9.7433324 75.478668,9.4866683 75.208,9.16 C74.937332,8.8333317 74.734334,8.45066886 74.599,8.012 C74.463666,7.57333114 74.396,7.10200252 74.396,6.598 C74.396,6.10333086 74.4613327,5.63200224 74.592,5.184 C74.7226673,4.73599776 74.9209987,4.34400168 75.187,4.008 C75.4530013,3.67199832 75.7796647,3.40600098 76.167,3.21 C76.5543353,3.01399902 77.0093307,2.916 77.532,2.916 C78.0360025,2.916 78.4746648,3.01166571 78.848,3.203 C79.2213352,3.39433429 79.5316654,3.65099839 79.779,3.973 C80.0263346,4.29500161 80.2129994,4.66833121 80.339,5.093 C80.4650006,5.51766879 80.528,5.96799762 80.528,6.444 C80.528,6.54666718 80.5256667,6.62599972 80.521,6.682 C80.5163333,6.73800028 80.514,6.78466648 80.514,6.822 L75.586,6.822 Z M77.518,3.798 C76.9299971,3.798 76.4750016,4.0079979 76.153,4.428 C75.8309984,4.8480021 75.6466669,5.41266312 75.6,6.122 L79.338,6.122 C79.338,5.83266522 79.3053337,5.55033471 79.24,5.275 C79.1746663,4.99966529 79.0673341,4.75233443 78.918,4.533 C78.7686659,4.31366557 78.5796678,4.13633401 78.351,4.001 C78.1223322,3.86566599 77.8446683,3.798 77.518,3.798 Z M81.942,3.112 L82.95,3.112 L83.062,4.652 C83.258001,4.14799748 83.5706645,3.7326683 84,3.406 C84.4293355,3.0793317 84.9379971,2.916 85.526,2.916 L85.526,4.148 C85.3953327,4.11999986 85.2506675,4.106 85.092,4.106 C84.8586655,4.106 84.6253345,4.14799958 84.392,4.232 C84.1586655,4.31600042 83.9463343,4.4513324 83.755,4.638 C83.5636657,4.8246676 83.4073339,5.06499853 83.286,5.359 C83.1646661,5.65300147 83.104,6.0099979 83.104,6.43 L83.104,10 L81.942,10 L81.942,3.112 Z" id="Phone-number" fill="#0D78AA"></path>
                <path d="M1,42 L199,42" id="Line" stroke="#0D78AA" stroke-width="2" stroke-linecap="square"></path>
                <path d="M2.772,53.368 L0.264,53.368 L0.264,52.528 L6.348,52.528 L6.348,53.368 L3.852,53.368 L3.852,61 L2.772,61 L2.772,53.368 Z M7.38,52.528 L8.376,52.528 L8.376,56.26 C8.44800036,56.0839991 8.53999944,55.9160008 8.652,55.756 C8.76400056,55.5959992 8.8999992,55.4540006 9.06,55.33 C9.2200008,55.2059994 9.40399896,55.1080004 9.612,55.036 C9.82000104,54.9639996 10.0519987,54.928 10.308,54.928 C10.9240031,54.928 11.3779985,55.129998 11.67,55.534 C11.9620015,55.938002 12.108,56.4839966 12.108,57.172 L12.108,61 L11.112,61 L11.112,57.328 C11.112,56.8239975 11.008001,56.4460013 10.8,56.194 C10.591999,55.9419987 10.2960019,55.816 9.912,55.816 C9.68799888,55.816 9.48200094,55.8639995 9.294,55.96 C9.10599906,56.0560005 8.94400068,56.1919991 8.808,56.368 C8.67199932,56.5440009 8.56600038,56.7559988 8.49,57.004 C8.41399962,57.2520012 8.376,57.5239985 8.376,57.82 L8.376,61 L7.38,61 L7.38,52.528 Z M13.62,52.804 L14.616,52.804 L14.616,53.8 L13.62,53.8 L13.62,52.804 Z M13.62,55.096 L14.616,55.096 L14.616,61 L13.62,61 L13.62,55.096 Z M16.26,59.548 C16.460001,59.8040013 16.7179984,60.0159992 17.034,60.184 C17.3500016,60.3520008 17.6959981,60.436 18.072,60.436 C18.4080017,60.436 18.6999988,60.3560008 18.948,60.196 C19.1960012,60.0359992 19.32,59.7960016 19.32,59.476 C19.32,59.2279988 19.2380008,59.0340007 19.074,58.894 C18.9099992,58.7539993 18.7060012,58.6360005 18.462,58.54 C18.2179988,58.4439995 17.9520014,58.3560004 17.664,58.276 C17.3759986,58.1959996 17.1100012,58.0920006 16.866,57.964 C16.6219988,57.8359994 16.4180008,57.668001 16.254,57.46 C16.0899992,57.251999 16.008,56.9680018 16.008,56.608 C16.008,56.3119985 16.0679994,56.0580011 16.188,55.846 C16.3080006,55.6339989 16.465999,55.4600007 16.662,55.324 C16.858001,55.1879993 17.0839987,55.0880003 17.34,55.024 C17.5960013,54.9599997 17.8639986,54.928 18.144,54.928 C18.9760042,54.928 19.6679972,55.1679976 20.22,55.648 L19.716,56.32 C19.5399991,56.1359991 19.3060015,55.9820006 19.014,55.858 C18.7219985,55.7339994 18.4200016,55.672 18.108,55.672 C17.9719993,55.672 17.8380007,55.6879998 17.706,55.72 C17.5739993,55.7520002 17.4580005,55.8019997 17.358,55.87 C17.2579995,55.9380003 17.1780003,56.0239995 17.118,56.128 C17.0579997,56.2320005 17.028,56.3599992 17.028,56.512 C17.028,56.7440012 17.1099992,56.9239994 17.274,57.052 C17.4380008,57.1800006 17.6419988,57.2899995 17.886,57.382 C18.1300012,57.4740005 18.3939986,57.5619996 18.678,57.646 C18.9620014,57.7300004 19.2259988,57.8379993 19.47,57.97 C19.7140012,58.1020007 19.9179992,58.2759989 20.082,58.492 C20.2460008,58.7080011 20.328,58.9959982 20.328,59.356 C20.328,59.6600015 20.2660006,59.9259989 20.142,60.154 C20.0179994,60.3820011 19.854001,60.5719992 19.65,60.724 C19.445999,60.8760008 19.2100013,60.9899996 18.942,61.066 C18.6739987,61.1420004 18.3960014,61.18 18.108,61.18 C17.115995,61.18 16.3280029,60.8600032 15.744,60.22 L16.26,59.548 Z M23.76,55.096 L24.84,55.096 L26.04,60.04 L27.228,55.096 L28.332,55.096 L29.496,60.04 L30.708,55.096 L31.788,55.096 L30.048,61 L28.944,61 L27.768,56.452 L26.592,61 L25.488,61 L23.76,55.096 Z M32.94,52.804 L33.936,52.804 L33.936,53.8 L32.94,53.8 L32.94,52.804 Z M32.94,55.096 L33.936,55.096 L33.936,61 L32.94,61 L32.94,55.096 Z M35.472,52.528 L36.468,52.528 L36.468,61 L35.472,61 L35.472,52.528 Z M38.004,52.528 L39,52.528 L39,61 L38.004,61 L38.004,52.528 Z M43.236,55.096 L44.1,55.096 L44.208,56.272 C44.3600008,55.9119982 44.6019983,55.5980013 44.934,55.33 C45.2660017,55.0619987 45.6759976,54.928 46.164,54.928 C46.7800031,54.928 47.2339985,55.123998 47.526,55.516 C47.8180015,55.908002 47.964,56.4559965 47.964,57.16 L47.964,61 L46.968,61 L46.968,57.364 C46.968,56.8279973 46.8600011,56.4340013 46.644,56.182 C46.4279989,55.9299987 46.1360018,55.804 45.768,55.804 C45.3279978,55.804 44.9620015,55.9839982 44.67,56.344 C44.3779985,56.7040018 44.232,57.2119967 44.232,57.868 L44.232,61 L43.236,61 L43.236,55.096 Z M51.924,61.18 C51.4759978,61.18 51.0820017,61.0980008 50.742,60.934 C50.4019983,60.7699992 50.1180011,60.5460014 49.89,60.262 C49.6619989,59.9779986 49.4920006,59.6460019 49.38,59.266 C49.2679994,58.8859981 49.212,58.4760022 49.212,58.036 C49.212,57.5959978 49.2699994,57.1880019 49.386,56.812 C49.5020006,56.4359981 49.6739989,56.1080014 49.902,55.828 C50.1300011,55.5479986 50.4139983,55.3280008 50.754,55.168 C51.0940017,55.0079992 51.4839978,54.928 51.924,54.928 C52.3640022,54.928 52.7539983,55.0079992 53.094,55.168 C53.4340017,55.3280008 53.7199988,55.5459986 53.952,55.822 C54.1840012,56.0980014 54.3579994,56.4259981 54.474,56.806 C54.5900006,57.1860019 54.648,57.5959978 54.648,58.036 C54.648,58.4760022 54.5900006,58.8859981 54.474,59.266 C54.3579994,59.6460019 54.1840012,59.9779986 53.952,60.262 C53.7199988,60.5460014 53.4340017,60.7699992 53.094,60.934 C52.7539983,61.0980008 52.3640022,61.18 51.924,61.18 Z M51.948,60.4 C52.2200014,60.4 52.459999,60.3400006 52.668,60.22 C52.876001,60.0999994 53.0479993,59.9340011 53.184,59.722 C53.3200007,59.5099989 53.4239996,59.2600014 53.496,58.972 C53.5680004,58.6839986 53.604,58.3720017 53.604,58.036 C53.604,57.6999983 53.5680004,57.3900014 53.496,57.106 C53.4239996,56.8219986 53.3160007,56.576001 53.172,56.368 C53.0279993,56.159999 52.852001,55.9980006 52.644,55.882 C52.435999,55.7659994 52.1960014,55.708 51.924,55.708 C51.6439986,55.708 51.400001,55.7659994 51.192,55.882 C50.983999,55.9980006 50.8120007,56.159999 50.676,56.368 C50.5399993,56.576001 50.4360004,56.8219986 50.364,57.106 C50.2919996,57.3900014 50.256,57.6999983 50.256,58.036 C50.256,58.3720017 50.2919996,58.6839986 50.364,58.972 C50.4360004,59.2600014 50.5419993,59.5099989 50.682,59.722 C50.8220007,59.9340011 50.9979989,60.0999994 51.21,60.22 C51.4220011,60.3400006 51.6679986,60.4 51.948,60.4 Z M56.436,55.78 L55.428,55.78 L55.428,55.096 L55.644,55.096 C55.8920012,55.096 56.0859993,55.0700003 56.226,55.018 C56.3660007,54.9659997 56.4719996,54.8860005 56.544,54.778 C56.6160004,54.6699995 56.6679998,54.5280009 56.7,54.352 C56.7320002,54.1759991 56.7599999,53.9600013 56.784,53.704 L56.808,53.488 L57.432,53.488 L57.432,55.096 L58.704,55.096 L58.704,55.78 L57.432,55.78 L57.432,59.452 C57.432,59.7880017 57.4819995,60.0299993 57.582,60.178 C57.6820005,60.3260007 57.8679986,60.4 58.14,60.4 C58.3560011,60.4 58.5559991,60.3520005 58.74,60.256 L58.848,60.976 C58.5439985,61.1120007 58.2080018,61.18 57.84,61.18 C57.5519986,61.18 57.3180009,61.1400004 57.138,61.06 C56.9579991,60.9799996 56.8160005,60.8720007 56.712,60.736 C56.6079995,60.5999993 56.5360002,60.436001 56.496,60.244 C56.4559998,60.051999 56.436,59.8440011 56.436,59.62 L56.436,55.78 Z M62.604,52.528 L63.6,52.528 L63.6,56.14 C63.7600008,55.8039983 63.9979984,55.5180012 64.314,55.282 C64.6300016,55.0459988 65.0239976,54.928 65.496,54.928 C65.8400017,54.928 66.1539986,54.9999993 66.438,55.144 C66.7220014,55.2880007 66.963999,55.4939987 67.164,55.762 C67.364001,56.0300013 67.5179995,56.3519981 67.626,56.728 C67.7340005,57.1040019 67.788,57.5239977 67.788,57.988 C67.788,58.4440023 67.7340005,58.8659981 67.626,59.254 C67.5179995,59.6420019 67.364001,59.9759986 67.164,60.256 C66.963999,60.5360014 66.7180015,60.7559992 66.426,60.916 C66.1339985,61.0760008 65.8040018,61.156 65.436,61.156 C65.0039978,61.156 64.6200017,61.0460011 64.284,60.826 C63.9479983,60.6059989 63.6960008,60.292002 63.528,59.884 L63.408,61 L62.604,61 L62.604,52.528 Z M63.6,58.072 C63.6,58.2480009 63.6059999,58.4059993 63.618,58.546 C63.6300001,58.6860007 63.6439999,58.8039995 63.66,58.9 C63.6920002,59.092001 63.7519996,59.2759991 63.84,59.452 C63.9280004,59.6280009 64.0359994,59.7819993 64.164,59.914 C64.2920006,60.0460007 64.4419991,60.1519996 64.614,60.232 C64.7860009,60.3120004 64.975999,60.352 65.184,60.352 C65.4560014,60.352 65.689999,60.2860007 65.886,60.154 C66.082001,60.0219993 66.2439994,59.8480011 66.372,59.632 C66.5000006,59.4159989 66.5939997,59.1700014 66.654,58.894 C66.7140003,58.6179986 66.744,58.3360014 66.744,58.048 C66.744,57.7519985 66.7120003,57.4660014 66.648,57.19 C66.5839997,56.9139986 66.4880006,56.6700011 66.36,56.458 C66.2319994,56.2459989 66.068001,56.0760006 65.868,55.948 C65.667999,55.8199994 65.4320014,55.756 65.16,55.756 C64.9439989,55.756 64.7500009,55.7939996 64.578,55.87 C64.4059991,55.9460004 64.2560006,56.0499993 64.128,56.182 C63.9999994,56.3140007 63.8960004,56.4679991 63.816,56.644 C63.7359996,56.8200009 63.6800002,57.007999 63.648,57.208 C63.6319999,57.2880004 63.62,57.3899994 63.612,57.514 C63.604,57.6380006 63.6,57.8119989 63.6,58.036 L63.6,58.072 Z M69.816,58.276 C69.8560002,58.9560034 70.0299985,59.4819981 70.338,59.854 C70.6460015,60.2260019 71.0759972,60.412 71.628,60.412 C72.3240035,60.412 72.8479982,60.0840033 73.2,59.428 L73.956,59.848 C73.7239988,60.240002 73.4160019,60.5599988 73.032,60.808 C72.6479981,61.0560012 72.1640029,61.18 71.58,61.18 C71.1159977,61.18 70.7100017,61.1000008 70.362,60.94 C70.0139983,60.7799992 69.7240012,60.5600014 69.492,60.28 C69.2599988,59.9999986 69.0860006,59.6720019 68.97,59.296 C68.8539994,58.9199981 68.796,58.5160022 68.796,58.084 C68.796,57.6599979 68.8519994,57.2560019 68.964,56.872 C69.0760006,56.4879981 69.2459989,56.1520014 69.474,55.864 C69.7020011,55.5759986 69.9819983,55.3480008 70.314,55.18 C70.6460017,55.0119992 71.0359978,54.928 71.484,54.928 C71.9160022,54.928 72.2919984,55.0099992 72.612,55.174 C72.9320016,55.3380008 73.1979989,55.5579986 73.41,55.834 C73.6220011,56.1100014 73.7819995,56.4299982 73.89,56.794 C73.9980005,57.1580018 74.052,57.543998 74.052,57.952 C74.052,58.0400004 74.05,58.1079998 74.046,58.156 C74.042,58.2040002 74.04,58.2439998 74.04,58.276 L69.816,58.276 Z M71.472,55.684 C70.9679975,55.684 70.5780014,55.8639982 70.302,56.224 C70.0259986,56.5840018 69.8680002,57.067997 69.828,57.676 L73.032,57.676 C73.032,57.4279988 73.0040003,57.1860012 72.948,56.95 C72.8919997,56.7139988 72.8000006,56.5020009 72.672,56.314 C72.5439994,56.1259991 72.382001,55.9740006 72.186,55.858 C71.989999,55.7419994 71.7520014,55.684 71.472,55.684 Z M78.072,59.548 C78.272001,59.8040013 78.5299984,60.0159992 78.846,60.184 C79.1620016,60.3520008 79.5079981,60.436 79.884,60.436 C80.2200017,60.436 80.5119988,60.3560008 80.76,60.196 C81.0080012,60.0359992 81.132,59.7960016 81.132,59.476 C81.132,59.2279988 81.0500008,59.0340007 80.886,58.894 C80.7219992,58.7539993 80.5180012,58.6360005 80.274,58.54 C80.0299988,58.4439995 79.7640014,58.3560004 79.476,58.276 C79.1879986,58.1959996 78.9220012,58.0920006 78.678,57.964 C78.4339988,57.8359994 78.2300008,57.668001 78.066,57.46 C77.9019992,57.251999 77.82,56.9680018 77.82,56.608 C77.82,56.3119985 77.8799994,56.0580011 78,55.846 C78.1200006,55.6339989 78.277999,55.4600007 78.474,55.324 C78.670001,55.1879993 78.8959987,55.0880003 79.152,55.024 C79.4080013,54.9599997 79.6759986,54.928 79.956,54.928 C80.7880042,54.928 81.4799972,55.1679976 82.032,55.648 L81.528,56.32 C81.3519991,56.1359991 81.1180015,55.9820006 80.826,55.858 C80.5339985,55.7339994 80.2320016,55.672 79.92,55.672 C79.7839993,55.672 79.6500007,55.6879998 79.518,55.72 C79.3859993,55.7520002 79.2700005,55.8019997 79.17,55.87 C79.0699995,55.9380003 78.9900003,56.0239995 78.93,56.128 C78.8699997,56.2320005 78.84,56.3599992 78.84,56.512 C78.84,56.7440012 78.9219992,56.9239994 79.086,57.052 C79.2500008,57.1800006 79.4539988,57.2899995 79.698,57.382 C79.9420012,57.4740005 80.2059986,57.5619996 80.49,57.646 C80.7740014,57.7300004 81.0379988,57.8379993 81.282,57.97 C81.5260012,58.1020007 81.7299992,58.2759989 81.894,58.492 C82.0580008,58.7080011 82.14,58.9959982 82.14,59.356 C82.14,59.6600015 82.0780006,59.9259989 81.954,60.154 C81.8299994,60.3820011 81.666001,60.5719992 81.462,60.724 C81.257999,60.8760008 81.0220013,60.9899996 80.754,61.066 C80.4859987,61.1420004 80.2080014,61.18 79.92,61.18 C78.927995,61.18 78.1400029,60.8600032 77.556,60.22 L78.072,59.548 Z M83.304,52.528 L84.3,52.528 L84.3,56.26 C84.3720004,56.0839991 84.4639994,55.9160008 84.576,55.756 C84.6880006,55.5959992 84.8239992,55.4540006 84.984,55.33 C85.1440008,55.2059994 85.327999,55.1080004 85.536,55.036 C85.744001,54.9639996 85.9759987,54.928 86.232,54.928 C86.8480031,54.928 87.3019985,55.129998 87.594,55.534 C87.8860015,55.938002 88.032,56.4839966 88.032,57.172 L88.032,61 L87.036,61 L87.036,57.328 C87.036,56.8239975 86.932001,56.4460013 86.724,56.194 C86.515999,55.9419987 86.2200019,55.816 85.836,55.816 C85.6119989,55.816 85.4060009,55.8639995 85.218,55.96 C85.0299991,56.0560005 84.8680007,56.1919991 84.732,56.368 C84.5959993,56.5440009 84.4900004,56.7559988 84.414,57.004 C84.3379996,57.2520012 84.3,57.5239985 84.3,57.82 L84.3,61 L83.304,61 L83.304,52.528 Z M93.252,61 C93.1639996,60.7119986 93.1120001,60.368002 93.096,59.968 C92.9359992,60.3360018 92.6900017,60.6299989 92.358,60.85 C92.0259983,61.0700011 91.6320023,61.18 91.176,61.18 C90.5999971,61.18 90.1440017,61.0160016 89.808,60.688 C89.4719983,60.3599984 89.304,59.9200028 89.304,59.368 C89.304,59.0559984 89.3599994,58.7940011 89.472,58.582 C89.5840006,58.3699989 89.739999,58.1940007 89.94,58.054 C90.140001,57.9139993 90.3759986,57.8040004 90.648,57.724 C90.9200014,57.6439996 91.2159984,57.5800002 91.536,57.532 L93.048,57.304 L93.048,56.932 C93.048,56.6679987 93.0160003,56.4560008 92.952,56.296 C92.8879997,56.1359992 92.8000006,56.0120004 92.688,55.924 C92.5759994,55.8359996 92.4480007,55.7780001 92.304,55.75 C92.1599993,55.7219999 92.0080008,55.708 91.848,55.708 C91.3919977,55.708 91.0160015,55.7919992 90.72,55.96 C90.4239985,56.1280008 90.176001,56.3399987 89.976,56.596 L89.46,55.948 C89.6920012,55.6679986 90.0139979,55.428001 90.426,55.228 C90.8380021,55.027999 91.347997,54.928 91.956,54.928 C92.6920037,54.928 93.2259983,55.0919984 93.558,55.42 C93.8900017,55.7480016 94.056,56.2759964 94.056,57.004 L94.056,59.392 C94.056,59.584001 94.058,59.7519993 94.062,59.896 C94.066,60.0400007 94.0739999,60.1739994 94.086,60.298 C94.0980001,60.4220006 94.1159999,60.5399994 94.14,60.652 C94.1640001,60.7640006 94.1959998,60.8799994 94.236,61 L93.252,61 Z M93.048,57.964 L91.632,58.192 C91.1439976,58.2800004 90.798001,58.4119991 90.594,58.588 C90.389999,58.7640009 90.288,59.0079984 90.288,59.32 C90.288,59.6400016 90.3819991,59.9079989 90.57,60.124 C90.7580009,60.3400011 91.0359982,60.448 91.404,60.448 C91.6280011,60.448 91.839999,60.4040004 92.04,60.316 C92.240001,60.2279996 92.4139993,60.1060008 92.562,59.95 C92.7100007,59.7939992 92.8279996,59.6060011 92.916,59.386 C93.0040004,59.1659989 93.048,58.9240013 93.048,58.66 L93.048,57.964 Z M95.652,55.096 L96.516,55.096 L96.612,56.416 C96.7800008,55.9839978 97.0479982,55.6280014 97.416,55.348 C97.7840018,55.0679986 98.2199975,54.928 98.724,54.928 L98.724,55.984 C98.6119994,55.9599999 98.4880007,55.948 98.352,55.948 C98.151999,55.948 97.952001,55.9839996 97.752,56.056 C97.551999,56.1280004 97.3700008,56.2439992 97.206,56.404 C97.0419992,56.5640008 96.9080005,56.7699987 96.804,57.022 C96.6999995,57.2740013 96.648,57.5799982 96.648,57.94 L96.648,61 L95.652,61 L95.652,55.096 Z M100.464,58.276 C100.504,58.9560034 100.677998,59.4819981 100.986,59.854 C101.294002,60.2260019 101.723997,60.412 102.276,60.412 C102.972003,60.412 103.495998,60.0840033 103.848,59.428 L104.604,59.848 C104.371999,60.240002 104.064002,60.5599988 103.68,60.808 C103.295998,61.0560012 102.812003,61.18 102.228,61.18 C101.763998,61.18 101.358002,61.1000008 101.01,60.94 C100.661998,60.7799992 100.372001,60.5600014 100.14,60.28 C99.9079988,59.9999986 99.7340006,59.6720019 99.618,59.296 C99.5019994,58.9199981 99.444,58.5160022 99.444,58.084 C99.444,57.6599979 99.4999994,57.2560019 99.612,56.872 C99.7240006,56.4879981 99.8939989,56.1520014 100.122,55.864 C100.350001,55.5759986 100.629998,55.3480008 100.962,55.18 C101.294002,55.0119992 101.683998,54.928 102.132,54.928 C102.564002,54.928 102.939998,55.0099992 103.26,55.174 C103.580002,55.3380008 103.845999,55.5579986 104.058,55.834 C104.270001,56.1100014 104.429999,56.4299982 104.538,56.794 C104.646001,57.1580018 104.7,57.543998 104.7,57.952 C104.7,58.0400004 104.698,58.1079998 104.694,58.156 C104.69,58.2040002 104.688,58.2439998 104.688,58.276 L100.464,58.276 Z M102.12,55.684 C101.615997,55.684 101.226001,55.8639982 100.95,56.224 C100.673999,56.5840018 100.516,57.067997 100.476,57.676 L103.68,57.676 C103.68,57.4279988 103.652,57.1860012 103.596,56.95 C103.54,56.7139988 103.448001,56.5020009 103.32,56.314 C103.191999,56.1259991 103.030001,55.9740006 102.834,55.858 C102.637999,55.7419994 102.400001,55.684 102.12,55.684 Z M109.884,59.848 C109.723999,60.248002 109.488002,60.5639988 109.176,60.796 C108.863998,61.0280012 108.476002,61.144 108.012,61.144 C107.643998,61.144 107.314001,61.0680008 107.022,60.916 C106.729999,60.7639992 106.482001,60.5520014 106.278,60.28 C106.073999,60.0079986 105.918001,59.6800019 105.81,59.296 C105.701999,58.9119981 105.648,58.4880023 105.648,58.024 C105.648,57.5439976 105.703999,57.1140019 105.816,56.734 C105.928001,56.3539981 106.087999,56.0320013 106.296,55.768 C106.504001,55.5039987 106.753999,55.3000007 107.046,55.156 C107.338001,55.0119993 107.659998,54.94 108.012,54.94 C108.492002,54.94 108.883998,55.0539989 109.188,55.282 C109.492002,55.5100011 109.707999,55.7839984 109.836,56.104 L109.836,52.528 L110.844,52.528 L110.844,61 L109.884,61 L109.884,59.848 Z M109.836,58.012 C109.836,57.7639988 109.83,57.5700007 109.818,57.43 C109.806,57.2899993 109.792,57.1760004 109.776,57.088 C109.736,56.9119991 109.676,56.7440008 109.596,56.584 C109.516,56.4239992 109.414001,56.2820006 109.29,56.158 C109.165999,56.0339994 109.020001,55.9360004 108.852,55.864 C108.683999,55.7919996 108.492001,55.756 108.276,55.756 C108.003999,55.756 107.770001,55.8159994 107.574,55.936 C107.377999,56.0560006 107.214001,56.217999 107.082,56.422 C106.949999,56.626001 106.852,56.8659986 106.788,57.142 C106.724,57.4180014 106.692,57.7119984 106.692,58.024 C106.692,58.3600017 106.728,58.6699986 106.8,58.954 C106.872,59.2380014 106.975999,59.481999 107.112,59.686 C107.248001,59.890001 107.415999,60.0499994 107.616,60.166 C107.816001,60.2820006 108.043999,60.34 108.3,60.34 C108.500001,60.34 108.681999,60.3040004 108.846,60.232 C109.010001,60.1599996 109.153999,60.0600006 109.278,59.932 C109.402001,59.8039994 109.504,59.6580008 109.584,59.494 C109.664,59.3299992 109.724,59.1560009 109.764,58.972 C109.812,58.7479989 109.836,58.4480019 109.836,58.072 L109.836,58.012 Z M114.636,55.096 L115.716,55.096 L116.916,60.04 L118.104,55.096 L119.208,55.096 L120.372,60.04 L121.584,55.096 L122.664,55.096 L120.924,61 L119.82,61 L118.644,56.452 L117.468,61 L116.364,61 L114.636,55.096 Z M123.816,52.804 L124.812,52.804 L124.812,53.8 L123.816,53.8 L123.816,52.804 Z M123.816,55.096 L124.812,55.096 L124.812,61 L123.816,61 L123.816,55.096 Z M126.864,55.78 L125.856,55.78 L125.856,55.096 L126.072,55.096 C126.320001,55.096 126.513999,55.0700003 126.654,55.018 C126.794001,54.9659997 126.9,54.8860005 126.972,54.778 C127.044,54.6699995 127.096,54.5280009 127.128,54.352 C127.16,54.1759991 127.188,53.9600013 127.212,53.704 L127.236,53.488 L127.86,53.488 L127.86,55.096 L129.132,55.096 L129.132,55.78 L127.86,55.78 L127.86,59.452 C127.86,59.7880017 127.91,60.0299993 128.01,60.178 C128.110001,60.3260007 128.295999,60.4 128.568,60.4 C128.784001,60.4 128.983999,60.3520005 129.168,60.256 L129.276,60.976 C128.971998,61.1120007 128.636002,61.18 128.268,61.18 C127.979999,61.18 127.746001,61.1400004 127.566,61.06 C127.385999,60.9799996 127.244001,60.8720007 127.14,60.736 C127.035999,60.5999993 126.964,60.436001 126.924,60.244 C126.884,60.051999 126.864,59.8440011 126.864,59.62 L126.864,55.78 Z M130.332,52.528 L131.328,52.528 L131.328,56.26 C131.4,56.0839991 131.491999,55.9160008 131.604,55.756 C131.716001,55.5959992 131.851999,55.4540006 132.012,55.33 C132.172001,55.2059994 132.355999,55.1080004 132.564,55.036 C132.772001,54.9639996 133.003999,54.928 133.26,54.928 C133.876003,54.928 134.329999,55.129998 134.622,55.534 C134.914001,55.938002 135.06,56.4839966 135.06,57.172 L135.06,61 L134.064,61 L134.064,57.328 C134.064,56.8239975 133.960001,56.4460013 133.752,56.194 C133.543999,55.9419987 133.248002,55.816 132.864,55.816 C132.639999,55.816 132.434001,55.8639995 132.246,55.96 C132.057999,56.0560005 131.896001,56.1919991 131.76,56.368 C131.623999,56.5440009 131.518,56.7559988 131.442,57.004 C131.366,57.2520012 131.328,57.5239985 131.328,57.82 L131.328,61 L130.332,61 L130.332,52.528 Z M141.72,61.18 C141.271998,61.18 140.878002,61.0980008 140.538,60.934 C140.197998,60.7699992 139.914001,60.5460014 139.686,60.262 C139.457999,59.9779986 139.288001,59.6460019 139.176,59.266 C139.063999,58.8859981 139.008,58.4760022 139.008,58.036 C139.008,57.5959978 139.065999,57.1880019 139.182,56.812 C139.298001,56.4359981 139.469999,56.1080014 139.698,55.828 C139.926001,55.5479986 140.209998,55.3280008 140.55,55.168 C140.890002,55.0079992 141.279998,54.928 141.72,54.928 C142.160002,54.928 142.549998,55.0079992 142.89,55.168 C143.230002,55.3280008 143.515999,55.5459986 143.748,55.822 C143.980001,56.0980014 144.153999,56.4259981 144.27,56.806 C144.386001,57.1860019 144.444,57.5959978 144.444,58.036 C144.444,58.4760022 144.386001,58.8859981 144.27,59.266 C144.153999,59.6460019 143.980001,59.9779986 143.748,60.262 C143.515999,60.5460014 143.230002,60.7699992 142.89,60.934 C142.549998,61.0980008 142.160002,61.18 141.72,61.18 Z M141.744,60.4 C142.016001,60.4 142.255999,60.3400006 142.464,60.22 C142.672001,60.0999994 142.843999,59.9340011 142.98,59.722 C143.116001,59.5099989 143.22,59.2600014 143.292,58.972 C143.364,58.6839986 143.4,58.3720017 143.4,58.036 C143.4,57.6999983 143.364,57.3900014 143.292,57.106 C143.22,56.8219986 143.112001,56.576001 142.968,56.368 C142.823999,56.159999 142.648001,55.9980006 142.44,55.882 C142.231999,55.7659994 141.992001,55.708 141.72,55.708 C141.439999,55.708 141.196001,55.7659994 140.988,55.882 C140.779999,55.9980006 140.608001,56.159999 140.472,56.368 C140.335999,56.576001 140.232,56.8219986 140.16,57.106 C140.088,57.3900014 140.052,57.6999983 140.052,58.036 C140.052,58.3720017 140.088,58.6839986 140.16,58.972 C140.232,59.2600014 140.337999,59.5099989 140.478,59.722 C140.618001,59.9340011 140.793999,60.0999994 141.006,60.22 C141.218001,60.3400006 141.463999,60.4 141.744,60.4 Z M146.232,55.78 L145.224,55.78 L145.224,55.096 L145.44,55.096 C145.688001,55.096 145.881999,55.0700003 146.022,55.018 C146.162001,54.9659997 146.268,54.8860005 146.34,54.778 C146.412,54.6699995 146.464,54.5280009 146.496,54.352 C146.528,54.1759991 146.556,53.9600013 146.58,53.704 L146.604,53.488 L147.228,53.488 L147.228,55.096 L148.5,55.096 L148.5,55.78 L147.228,55.78 L147.228,59.452 C147.228,59.7880017 147.278,60.0299993 147.378,60.178 C147.478001,60.3260007 147.663999,60.4 147.936,60.4 C148.152001,60.4 148.351999,60.3520005 148.536,60.256 L148.644,60.976 C148.339998,61.1120007 148.004002,61.18 147.636,61.18 C147.347999,61.18 147.114001,61.1400004 146.934,61.06 C146.753999,60.9799996 146.612001,60.8720007 146.508,60.736 C146.403999,60.5999993 146.332,60.436001 146.292,60.244 C146.252,60.051999 146.232,59.8440011 146.232,59.62 L146.232,55.78 Z M149.7,52.528 L150.696,52.528 L150.696,56.26 C150.768,56.0839991 150.859999,55.9160008 150.972,55.756 C151.084001,55.5959992 151.219999,55.4540006 151.38,55.33 C151.540001,55.2059994 151.723999,55.1080004 151.932,55.036 C152.140001,54.9639996 152.371999,54.928 152.628,54.928 C153.244003,54.928 153.697999,55.129998 153.99,55.534 C154.282001,55.938002 154.428,56.4839966 154.428,57.172 L154.428,61 L153.432,61 L153.432,57.328 C153.432,56.8239975 153.328001,56.4460013 153.12,56.194 C152.911999,55.9419987 152.616002,55.816 152.232,55.816 C152.007999,55.816 151.802001,55.8639995 151.614,55.96 C151.425999,56.0560005 151.264001,56.1919991 151.128,56.368 C150.991999,56.5440009 150.886,56.7559988 150.81,57.004 C150.734,57.2520012 150.696,57.5239985 150.696,57.82 L150.696,61 L149.7,61 L149.7,52.528 Z M156.696,58.276 C156.736,58.9560034 156.909998,59.4819981 157.218,59.854 C157.526002,60.2260019 157.955997,60.412 158.508,60.412 C159.204003,60.412 159.727998,60.0840033 160.08,59.428 L160.836,59.848 C160.603999,60.240002 160.296002,60.5599988 159.912,60.808 C159.527998,61.0560012 159.044003,61.18 158.46,61.18 C157.995998,61.18 157.590002,61.1000008 157.242,60.94 C156.893998,60.7799992 156.604001,60.5600014 156.372,60.28 C156.139999,59.9999986 155.966001,59.6720019 155.85,59.296 C155.733999,58.9199981 155.676,58.5160022 155.676,58.084 C155.676,57.6599979 155.731999,57.2560019 155.844,56.872 C155.956001,56.4879981 156.125999,56.1520014 156.354,55.864 C156.582001,55.5759986 156.861998,55.3480008 157.194,55.18 C157.526002,55.0119992 157.915998,54.928 158.364,54.928 C158.796002,54.928 159.171998,55.0099992 159.492,55.174 C159.812002,55.3380008 160.077999,55.5579986 160.29,55.834 C160.502001,56.1100014 160.661999,56.4299982 160.77,56.794 C160.878001,57.1580018 160.932,57.543998 160.932,57.952 C160.932,58.0400004 160.93,58.1079998 160.926,58.156 C160.922,58.2040002 160.92,58.2439998 160.92,58.276 L156.696,58.276 Z M158.352,55.684 C157.847997,55.684 157.458001,55.8639982 157.182,56.224 C156.905999,56.5840018 156.748,57.067997 156.708,57.676 L159.912,57.676 C159.912,57.4279988 159.884,57.1860012 159.828,56.95 C159.772,56.7139988 159.680001,56.5020009 159.552,56.314 C159.423999,56.1259991 159.262001,55.9740006 159.066,55.858 C158.869999,55.7419994 158.632001,55.684 158.352,55.684 Z M162.144,55.096 L163.008,55.096 L163.104,56.416 C163.272001,55.9839978 163.539998,55.6280014 163.908,55.348 C164.276002,55.0679986 164.711997,54.928 165.216,54.928 L165.216,55.984 C165.103999,55.9599999 164.980001,55.948 164.844,55.948 C164.643999,55.948 164.444001,55.9839996 164.244,56.056 C164.043999,56.1280004 163.862001,56.2439992 163.698,56.404 C163.533999,56.5640008 163.400001,56.7699987 163.296,57.022 C163.191999,57.2740013 163.14,57.5799982 163.14,57.94 L163.14,61 L162.144,61 L162.144,55.096 Z M166.308,59.548 C166.508001,59.8040013 166.765998,60.0159992 167.082,60.184 C167.398002,60.3520008 167.743998,60.436 168.12,60.436 C168.456002,60.436 168.747999,60.3560008 168.996,60.196 C169.244001,60.0359992 169.368,59.7960016 169.368,59.476 C169.368,59.2279988 169.286001,59.0340007 169.122,58.894 C168.957999,58.7539993 168.754001,58.6360005 168.51,58.54 C168.265999,58.4439995 168.000001,58.3560004 167.712,58.276 C167.423999,58.1959996 167.158001,58.0920006 166.914,57.964 C166.669999,57.8359994 166.466001,57.668001 166.302,57.46 C166.137999,57.251999 166.056,56.9680018 166.056,56.608 C166.056,56.3119985 166.115999,56.0580011 166.236,55.846 C166.356001,55.6339989 166.513999,55.4600007 166.71,55.324 C166.906001,55.1879993 167.131999,55.0880003 167.388,55.024 C167.644001,54.9599997 167.911999,54.928 168.192,54.928 C169.024004,54.928 169.715997,55.1679976 170.268,55.648 L169.764,56.32 C169.587999,56.1359991 169.354001,55.9820006 169.062,55.858 C168.769999,55.7339994 168.468002,55.672 168.156,55.672 C168.019999,55.672 167.886001,55.6879998 167.754,55.72 C167.621999,55.7520002 167.506001,55.8019997 167.406,55.87 C167.306,55.9380003 167.226,56.0239995 167.166,56.128 C167.106,56.2320005 167.076,56.3599992 167.076,56.512 C167.076,56.7440012 167.157999,56.9239994 167.322,57.052 C167.486001,57.1800006 167.689999,57.2899995 167.934,57.382 C168.178001,57.4740005 168.441999,57.5619996 168.726,57.646 C169.010001,57.7300004 169.273999,57.8379993 169.518,57.97 C169.762001,58.1020007 169.965999,58.2759989 170.13,58.492 C170.294001,58.7080011 170.376,58.9959982 170.376,59.356 C170.376,59.6600015 170.314001,59.9259989 170.19,60.154 C170.065999,60.3820011 169.902001,60.5719992 169.698,60.724 C169.493999,60.8760008 169.258001,60.9899996 168.99,61.066 C168.721999,61.1420004 168.444001,61.18 168.156,61.18 C167.163995,61.18 166.376003,60.8600032 165.792,60.22 L166.308,59.548 Z M171.444,59.824 L172.56,59.824 L172.56,61 L171.444,61 L171.444,59.824 Z" id="This-will-not-be-sha" fill="#7A787A"></path>
            </g>
        </g>
    </g>
</svg>