<?xml version="1.0" encoding="UTF-8"?>
<svg width="200px" height="44px" viewBox="0 0 200 44" version="1.1" xmlns="http://www.w3.org/2000/svg" xmlns:xlink="http://www.w3.org/1999/xlink">
    <!-- Generator: Sketch 47 (45396) - http://www.bohemiancoding.com/sketch -->
    <title>MandatoryFields</title>
    <desc>Created with Sketch.</desc>
    <defs></defs>
    <g id="Page-1" stroke="none" stroke-width="1" fill="none" fill-rule="evenodd">
        <g id="Buttons-Usage-extra-large-1200" transform="translate(-822.000000, -2354.000000)">
            <g id="MandatoryFields" transform="translate(822.000000, 2354.000000)">
                <path d="M0.98,1.116 L2.24,1.116 L2.24,10.02 L6.958,10.02 L6.958,11 L0.98,11 L0.98,1.116 Z M12.656,11 C12.5533328,10.6639983 12.4926668,10.262669 12.474,9.796 C12.2873324,10.2253355 12.0003353,10.568332 11.613,10.825 C11.2256647,11.0816679 10.7660027,11.21 10.234,11.21 C9.56199664,11.21 9.03000196,11.0186686 8.638,10.636 C8.24599804,10.2533314 8.05,9.74000322 8.05,9.096 C8.05,8.73199818 8.11533268,8.42633457 8.246,8.179 C8.37666732,7.93166543 8.5586655,7.72633415 8.792,7.563 C9.0253345,7.39966585 9.30066508,7.2713338 9.618,7.178 C9.93533492,7.0846662 10.2806648,7.01000028 10.654,6.954 L12.418,6.688 L12.418,6.254 C12.418,5.94599846 12.380667,5.6986676 12.306,5.512 C12.231333,5.3253324 12.1286673,5.18066718 11.998,5.078 C11.8673327,4.97533282 11.7180008,4.90766683 11.55,4.875 C11.3819992,4.84233317 11.2046676,4.826 11.018,4.826 C10.4859973,4.826 10.0473351,4.92399902 9.702,5.12 C9.35666494,5.31600098 9.0673345,5.56333184 8.834,5.862 L8.232,5.106 C8.50266802,4.7793317 8.87833093,4.4993345 9.359,4.266 C9.83966907,4.0326655 10.4346631,3.916 11.144,3.916 C12.002671,3.916 12.6256647,4.10733142 13.013,4.49 C13.4003353,4.87266858 13.594,5.48866242 13.594,6.338 L13.594,9.124 C13.594,9.34800112 13.5963333,9.54399916 13.601,9.712 C13.6056667,9.88000084 13.6149999,10.0363326 13.629,10.181 C13.6430001,10.3256674 13.6639999,10.4633327 13.692,10.594 C13.7200001,10.7246673 13.7573331,10.8599993 13.804,11 L12.656,11 Z M12.418,7.458 L10.766,7.724 C10.1966638,7.82666718 9.79300119,7.98066564 9.555,8.186 C9.31699881,8.39133436 9.198,8.67599818 9.198,9.04 C9.198,9.4133352 9.30766557,9.72599874 9.527,9.978 C9.74633443,10.2300013 10.0706645,10.356 10.5,10.356 C10.7613346,10.356 11.0086655,10.3046672 11.242,10.202 C11.4753345,10.0993328 11.6783325,9.95700091 11.851,9.775 C12.0236675,9.59299909 12.1613328,9.37366795 12.264,9.117 C12.3666672,8.86033205 12.418,8.57800154 12.418,8.27 L12.418,7.458 Z M15.456,1.116 L16.618,1.116 L16.618,5.33 C16.8046676,4.93799804 17.0823315,4.60433471 17.451,4.329 C17.8196685,4.05366529 18.2793306,3.916 18.83,3.916 C19.2313353,3.916 19.597665,3.99999916 19.929,4.168 C20.260335,4.33600084 20.5426655,4.57633177 20.776,4.889 C21.0093345,5.20166823 21.1889994,5.57733114 21.315,6.016 C21.4410006,6.45466886 21.504,6.94466396 21.504,7.486 C21.504,8.01800266 21.4410006,8.51033107 21.315,8.963 C21.1889994,9.41566893 21.0093345,9.8053317 20.776,10.132 C20.5426655,10.4586683 20.2556684,10.7153324 19.915,10.902 C19.5743316,11.0886676 19.1893355,11.182 18.76,11.182 C18.2559975,11.182 17.808002,11.0536679 17.416,10.797 C17.023998,10.540332 16.730001,10.1740024 16.534,9.698 L16.394,11 L15.456,11 L15.456,1.116 Z M16.618,7.584 C16.618,7.78933436 16.6249999,7.97366585 16.639,8.137 C16.6530001,8.30033415 16.6693332,8.43799944 16.688,8.55 C16.7253335,8.77400112 16.7953328,8.98866564 16.898,9.194 C17.0006672,9.39933436 17.1266659,9.57899923 17.276,9.733 C17.4253341,9.88700077 17.6003323,10.0106662 17.801,10.104 C18.0016677,10.1973338 18.2233321,10.244 18.466,10.244 C18.7833349,10.244 19.0563322,10.1670008 19.285,10.013 C19.5136678,9.85899923 19.7026659,9.65600126 19.852,9.404 C20.0013341,9.15199874 20.1109997,8.86500161 20.181,8.543 C20.2510004,8.22099839 20.286,7.89200168 20.286,7.556 C20.286,7.21066494 20.248667,6.87700161 20.174,6.555 C20.099333,6.23299839 19.9873341,5.94833457 19.838,5.701 C19.6886659,5.45366543 19.4973345,5.25533408 19.264,5.106 C19.0306655,4.95666592 18.7553349,4.882 18.438,4.882 C18.1859987,4.882 17.9596677,4.92633289 17.759,5.015 C17.5583323,5.10366711 17.3833341,5.22499923 17.234,5.379 C17.0846659,5.53300077 16.9633338,5.71266564 16.87,5.918 C16.7766662,6.12333436 16.7113335,6.3426655 16.674,6.576 C16.6553332,6.6693338 16.6413334,6.78833261 16.632,6.933 C16.6226666,7.07766739 16.618,7.28066536 16.618,7.542 L16.618,7.584 Z M23.87,7.822 C23.9166669,8.6153373 24.1196649,9.22899783 24.479,9.663 C24.8383351,10.0970022 25.3399968,10.314 25.984,10.314 C26.7960041,10.314 27.4073313,9.93133716 27.818,9.166 L28.7,9.656 C28.429332,10.1133356 28.0700022,10.4866652 27.622,10.776 C27.1739978,11.0653348 26.6093367,11.21 25.928,11.21 C25.386664,11.21 24.913002,11.1166676 24.507,10.93 C24.100998,10.7433324 23.762668,10.4866683 23.492,10.16 C23.221332,9.8333317 23.018334,9.45066886 22.883,9.012 C22.747666,8.57333114 22.68,8.10200252 22.68,7.598 C22.68,7.10333086 22.7453327,6.63200224 22.876,6.184 C23.0066673,5.73599776 23.2049987,5.34400168 23.471,5.008 C23.7370013,4.67199832 24.0636647,4.40600098 24.451,4.21 C24.8383353,4.01399902 25.2933307,3.916 25.816,3.916 C26.3200025,3.916 26.7586648,4.01166571 27.132,4.203 C27.5053352,4.39433429 27.8156654,4.65099839 28.063,4.973 C28.3103346,5.29500161 28.4969994,5.66833121 28.623,6.093 C28.7490006,6.51766879 28.812,6.96799762 28.812,7.444 C28.812,7.54666718 28.8096667,7.62599972 28.805,7.682 C28.8003333,7.73800028 28.798,7.78466648 28.798,7.822 L23.87,7.822 Z M25.802,4.798 C25.2139971,4.798 24.7590016,5.0079979 24.437,5.428 C24.1149984,5.8480021 23.9306669,6.41266312 23.884,7.122 L27.622,7.122 C27.622,6.83266522 27.5893337,6.55033471 27.524,6.275 C27.4586663,5.99966529 27.3513341,5.75233443 27.202,5.533 C27.0526659,5.31366557 26.8636678,5.13633401 26.635,5.001 C26.4063322,4.86566599 26.1286683,4.798 25.802,4.798 Z M30.226,1.116 L31.388,1.116 L31.388,11 L30.226,11 L30.226,1.116 Z" id="Label-*" fill="#4C5358"></path>
                <polygon id="Path" fill="#D0021B" points="37.464 3.048 35.896 2.544 36.05 1.97 37.618 2.474 37.618 0.892 38.276 0.892 38.276 2.474 39.802 1.928 40.012 2.516 38.43 3.048 39.466 4.42 38.934 4.812 37.94 3.44 36.974 4.812 36.428 4.42"></polygon>
                <path d="M0.5,43.5 L199.5,43.5" id="Line" stroke="#7C878E" stroke-linecap="square"></path>
                <path d="M1.264,22.704 L2.704,22.704 L2.704,34 L1.264,34 L1.264,22.704 Z M4.992,26.128 L6.144,26.128 L6.288,27.696 C6.49066768,27.2159976 6.81333112,26.7973351 7.256,26.44 C7.69866888,26.0826649 8.24533008,25.904 8.896,25.904 C9.71733744,25.904 10.3226647,26.1653307 10.712,26.688 C11.1013353,27.2106693 11.296,27.9413286 11.296,28.88 L11.296,34 L9.968,34 L9.968,29.152 C9.968,28.4373298 9.82400144,27.9120017 9.536,27.576 C9.24799856,27.2399983 8.85866912,27.072 8.368,27.072 C7.7813304,27.072 7.29333528,27.3119976 6.904,27.792 C6.51466472,28.2720024 6.32,28.949329 6.32,29.824 L6.32,34 L4.992,34 L4.992,26.128 Z M13.312,26.128 L14.64,26.128 L14.64,27.648 C14.7360005,27.4239989 14.8586659,27.2053344 15.008,26.992 C15.1573341,26.7786656 15.335999,26.5920008 15.544,26.432 C15.752001,26.2719992 15.9946653,26.1440005 16.272,26.048 C16.5493347,25.9519995 16.8639982,25.904 17.216,25.904 C17.7280026,25.904 18.1733314,26.0106656 18.552,26.224 C18.9306686,26.4373344 19.2426654,26.7306648 19.488,27.104 C19.7333346,27.4773352 19.9173327,27.9119975 20.04,28.408 C20.1626673,28.9040025 20.224,29.4399971 20.224,30.016 C20.224,30.6986701 20.1440008,31.3013307 19.984,31.824 C19.8239992,32.3466693 19.6000014,32.7839982 19.312,33.136 C19.0239986,33.4880018 18.6880019,33.7546658 18.304,33.936 C17.9199981,34.1173342 17.5040022,34.208 17.056,34.208 C16.4693304,34.208 15.9653354,34.0640014 15.544,33.776 C15.1226646,33.4879986 14.8213342,33.1306688 14.64,32.704 L14.64,36.768 L13.312,36.768 L13.312,26.128 Z M14.64,30.112 C14.64,30.3360011 14.6479999,30.5413324 14.664,30.728 C14.6800001,30.9146676 14.6986666,31.0719994 14.72,31.2 C14.7626669,31.4560013 14.8426661,31.7013322 14.96,31.936 C15.0773339,32.1706678 15.2213325,32.3759991 15.392,32.552 C15.5626675,32.7280009 15.7626655,32.8693328 15.992,32.976 C16.2213345,33.0826672 16.4746653,33.136 16.752,33.136 C17.1146685,33.136 17.4266654,33.0506675 17.688,32.88 C17.9493346,32.7093325 18.1653325,32.4800014 18.336,32.192 C18.5066675,31.9039986 18.6319996,31.5760018 18.712,31.208 C18.7920004,30.8399982 18.832,30.4586686 18.832,30.064 C18.832,29.6693314 18.794667,29.2880018 18.72,28.92 C18.645333,28.5519982 18.5253342,28.2266681 18.36,27.944 C18.1946658,27.6613319 17.978668,27.4346675 17.712,27.264 C17.445332,27.0933325 17.1253352,27.008 16.752,27.008 C16.4639986,27.008 16.2000012,27.0613328 15.96,27.168 C15.7199988,27.2746672 15.5146675,27.4186658 15.344,27.6 C15.1733325,27.7813342 15.0320006,27.9893322 14.92,28.224 C14.8079994,28.4586678 14.7360002,28.7039987 14.704,28.96 C14.6826666,29.0666672 14.6666667,29.2133324 14.656,29.4 C14.6453333,29.5866676 14.64,29.8026654 14.64,30.048 L14.64,30.112 Z M21.888,26.128 L23.232,26.128 L23.232,30.896 C23.232,31.6426704 23.3706653,32.1893316 23.648,32.536 C23.9253347,32.8826684 24.3146642,33.056 24.816,33.056 C25.4560032,33.056 25.9546649,32.8026692 26.312,32.296 C26.6693351,31.7893308 26.848,31.1146709 26.848,30.272 L26.848,26.128 L28.176,26.128 L28.176,34 L26.928,34 L26.928,32.4 C26.8319995,32.6453346 26.7146674,32.8773322 26.576,33.096 C26.4373326,33.3146678 26.2666677,33.5066658 26.064,33.672 C25.8613323,33.8373342 25.626668,33.9679995 25.36,34.064 C25.093332,34.1600005 24.7786685,34.208 24.416,34.208 C23.5626624,34.208 22.9280021,33.9493359 22.512,33.432 C22.0959979,32.9146641 21.888,32.1813381 21.888,31.232 L21.888,26.128 Z M30.912,27.04 L29.568,27.04 L29.568,26.128 L29.856,26.128 C30.1866683,26.128 30.4453324,26.0933337 30.632,26.024 C30.8186676,25.9546663 30.9599995,25.8480007 31.056,25.704 C31.1520005,25.5599993 31.2213331,25.3706678 31.264,25.136 C31.3066669,24.9013322 31.3439998,24.613335 31.376,24.272 L31.408,23.984 L32.24,23.984 L32.24,26.128 L33.936,26.128 L33.936,27.04 L32.24,27.04 L32.24,31.936 C32.24,32.3840022 32.306666,32.7066657 32.44,32.904 C32.573334,33.1013343 32.8213315,33.2 33.184,33.2 C33.4720014,33.2 33.7386654,33.1360006 33.984,33.008 L34.128,33.968 C33.7226646,34.1493342 33.2746691,34.24 32.784,34.24 C32.3999981,34.24 32.0880012,34.1866672 31.848,34.08 C31.6079988,33.9733328 31.4186674,33.8293342 31.28,33.648 C31.1413326,33.4666658 31.0453336,33.2480013 30.992,32.992 C30.9386664,32.7359987 30.912,32.4586682 30.912,32.16 L30.912,27.04 Z" id="Input" fill="#000000"></path>
            </g>
        </g>
    </g>
</svg>