<?xml version="1.0" encoding="UTF-8"?>
<svg width="200px" height="43px" viewBox="0 0 200 43" version="1.1" xmlns="http://www.w3.org/2000/svg" xmlns:xlink="http://www.w3.org/1999/xlink">
    <!-- Generator: Sketch 47 (45396) - http://www.bohemiancoding.com/sketch -->
    <title>AutoFill</title>
    <desc>Created with Sketch.</desc>
    <defs></defs>
    <g id="Page-1" stroke="none" stroke-width="1" fill="none" fill-rule="evenodd">
        <g id="Buttons-Usage-extra-large-1200" transform="translate(-403.000000, -4111.000000)">
            <g id="AutoFill" transform="translate(403.000000, 4111.000000)">
                <path d="M0.98,0.116 L6.86,0.116 L6.86,1.096 L2.24,1.096 L2.24,4.344 L5.838,4.344 L5.838,5.324 L2.24,5.324 L2.24,9.02 L7.056,9.02 L7.056,10 L0.98,10 L0.98,0.116 Z M8.386,5.338 L12.096,5.338 L12.096,6.36 L8.386,6.36 L8.386,5.338 Z M13.748,3.112 L14.756,3.112 L14.882,4.456 C15.0500008,3.97999762 15.3113316,3.60433471 15.666,3.329 C16.0206684,3.05366529 16.4546641,2.916 16.968,2.916 C17.509336,2.916 17.9339985,3.06999846 18.242,3.378 C18.5500015,3.68600154 18.7459996,4.05933114 18.83,4.498 C18.9140004,4.28333226 19.0189994,4.08033429 19.145,3.889 C19.2710006,3.69766571 19.4226658,3.52966739 19.6,3.385 C19.7773342,3.24033261 19.9826655,3.12600042 20.216,3.042 C20.4493345,2.95799958 20.7153318,2.916 21.014,2.916 C21.406002,2.916 21.730332,2.98366599 21.987,3.119 C22.2436679,3.25433401 22.4489992,3.4386655 22.603,3.672 C22.7570008,3.9053345 22.8666663,4.17833177 22.932,4.491 C22.9973337,4.80366823 23.03,5.13266494 23.03,5.478 L23.03,10 L21.868,10 L21.868,5.772 C21.868,5.15599692 21.7583344,4.69633485 21.539,4.393 C21.3196656,4.08966515 21.0000021,3.938 20.58,3.938 C20.1226644,3.938 19.7400015,4.14099797 19.432,4.547 C19.1239985,4.95300203 18.97,5.53399622 18.97,6.29 L18.97,10 L17.808,10 L17.808,5.828 C17.808,5.18399678 17.6960011,4.70800154 17.472,4.4 C17.2479989,4.09199846 16.9353353,3.938 16.534,3.938 C16.0859978,3.938 15.7033349,4.14566459 15.386,4.561 C15.0686651,4.97633541 14.91,5.57599608 14.91,6.36 L14.91,10 L13.748,10 L13.748,3.112 Z M29.12,10 C29.0173328,9.66399832 28.9566668,9.262669 28.938,8.796 C28.7513324,9.22533548 28.4643353,9.56833205 28.077,9.825 C27.6896647,10.0816679 27.2300027,10.21 26.698,10.21 C26.0259966,10.21 25.494002,10.0186686 25.102,9.636 C24.709998,9.25333142 24.514,8.74000322 24.514,8.096 C24.514,7.73199818 24.5793327,7.42633457 24.71,7.179 C24.8406673,6.93166543 25.0226655,6.72633415 25.256,6.563 C25.4893345,6.39966585 25.7646651,6.2713338 26.082,6.178 C26.3993349,6.0846662 26.7446648,6.01000028 27.118,5.954 L28.882,5.688 L28.882,5.254 C28.882,4.94599846 28.844667,4.6986676 28.77,4.512 C28.695333,4.3253324 28.5926673,4.18066718 28.462,4.078 C28.3313327,3.97533282 28.1820008,3.90766683 28.014,3.875 C27.8459992,3.84233317 27.6686676,3.826 27.482,3.826 C26.9499973,3.826 26.5113351,3.92399902 26.166,4.12 C25.8206649,4.31600098 25.5313345,4.56333184 25.298,4.862 L24.696,4.106 C24.966668,3.7793317 25.3423309,3.4993345 25.823,3.266 C26.3036691,3.0326655 26.8986631,2.916 27.608,2.916 C28.466671,2.916 29.0896647,3.10733142 29.477,3.49 C29.8643353,3.87266858 30.058,4.48866242 30.058,5.338 L30.058,8.124 C30.058,8.34800112 30.0603333,8.54399916 30.065,8.712 C30.0696667,8.88000084 30.0789999,9.03633261 30.093,9.181 C30.1070001,9.32566739 30.1279999,9.46333268 30.156,9.594 C30.1840001,9.72466732 30.2213331,9.8599993 30.268,10 L29.12,10 Z M28.882,6.458 L27.23,6.724 C26.6606638,6.82666718 26.2570012,6.98066564 26.019,7.186 C25.7809988,7.39133436 25.662,7.67599818 25.662,8.04 C25.662,8.4133352 25.7716656,8.72599874 25.991,8.978 C26.2103344,9.23000126 26.5346645,9.356 26.964,9.356 C27.2253346,9.356 27.4726655,9.30466718 27.706,9.202 C27.9393345,9.09933282 28.1423325,8.95700091 28.315,8.775 C28.4876675,8.59299909 28.6253328,8.37366795 28.728,8.117 C28.8306672,7.86033205 28.882,7.57800154 28.882,7.27 L28.882,6.458 Z M31.92,0.438 L33.082,0.438 L33.082,1.6 L31.92,1.6 L31.92,0.438 Z M31.92,3.112 L33.082,3.112 L33.082,10 L31.92,10 L31.92,3.112 Z M34.874,0.116 L36.036,0.116 L36.036,10 L34.874,10 L34.874,0.116 Z" id="E-mail" fill="#4C5358"></path>
                <path d="M0.5,42.5 L199.5,42.5" id="Line" stroke="#7C878E" stroke-linecap="square"></path>
                <path d="M1.024,25.128 L2.176,25.128 L2.32,26.664 C2.51200096,26.1199973 2.81066464,25.6906682 3.216,25.376 C3.62133536,25.0613318 4.1173304,24.904 4.704,24.904 C5.32266976,24.904 5.80799824,25.0799982 6.16,25.432 C6.51200176,25.7840018 6.73599952,26.2106642 6.832,26.712 C6.92800048,26.4666654 7.04799928,26.2346678 7.192,26.016 C7.33600072,25.7973322 7.50933232,25.6053342 7.712,25.44 C7.91466768,25.2746658 8.149332,25.1440005 8.416,25.048 C8.682668,24.9519995 8.98666496,24.904 9.328,24.904 C9.77600224,24.904 10.1466652,24.9813326 10.44,25.136 C10.7333348,25.2906674 10.9679991,25.501332 11.144,25.768 C11.3200009,26.034668 11.445333,26.3466649 11.52,26.704 C11.594667,27.0613351 11.632,27.4373314 11.632,27.832 L11.632,33 L10.304,33 L10.304,28.168 C10.304,27.4639965 10.1786679,26.9386684 9.928,26.592 C9.67733208,26.2453316 9.3120024,26.072 8.832,26.072 C8.30933072,26.072 7.87200176,26.3039977 7.52,26.768 C7.16799824,27.2320023 6.992,27.8959957 6.992,28.76 L6.992,33 L5.664,33 L5.664,28.232 C5.664,27.4959963 5.53600128,26.9520018 5.28,26.6 C5.02399872,26.2479982 4.66666896,26.072 4.208,26.072 C3.69599744,26.072 3.25866848,26.309331 2.896,26.784 C2.53333152,27.258669 2.352,27.9439955 2.352,28.84 L2.352,33 L1.024,33 L1.024,25.128 Z M13.52,31.432 L15.008,31.432 L15.008,33 L13.52,33 L13.52,31.432 Z M17.6,26.04 L16.24,26.04 L16.24,25.128 L17.536,25.128 C17.4506662,24.8506653 17.378667,24.5546682 17.32,24.24 C17.261333,23.9253318 17.232,23.6293347 17.232,23.352 C17.232,23.0959987 17.261333,22.8533345 17.32,22.624 C17.378667,22.3946655 17.4826659,22.1920009 17.632,22.016 C17.7813341,21.8399991 17.9839987,21.6986672 18.24,21.592 C18.4960013,21.4853328 18.8213314,21.432 19.216,21.432 C19.5040014,21.432 19.7626655,21.4506665 19.992,21.488 C20.2213345,21.5253335 20.4373323,21.5866662 20.64,21.672 L20.416,22.68 C20.2986661,22.6266664 20.1520009,22.5813335 19.976,22.544 C19.7999991,22.5066665 19.6373341,22.488 19.488,22.488 C18.879997,22.488 18.576,22.8399965 18.576,23.544 C18.576,23.8213347 18.6106663,24.1093318 18.68,24.408 C18.7493337,24.7066682 18.821333,24.9466658 18.896,25.128 L20.416,25.128 L20.416,26.04 L18.944,26.04 L18.944,33 L17.6,33 L17.6,26.04 Z M21.76,25.128 L22.912,25.128 L23.04,26.888 C23.2640011,26.3119971 23.6213309,25.8373352 24.112,25.464 C24.6026691,25.0906648 25.1839966,24.904 25.856,24.904 L25.856,26.312 C25.7066659,26.2799998 25.5413342,26.264 25.36,26.264 C25.093332,26.264 24.826668,26.3119995 24.56,26.408 C24.293332,26.5040005 24.0506678,26.6586656 23.832,26.872 C23.6133322,27.0853344 23.4346674,27.3599983 23.296,27.696 C23.1573326,28.0320017 23.088,28.4399976 23.088,28.92 L23.088,33 L21.76,33 L21.76,25.128 Z M28.176,29.368 C28.2293336,30.2746712 28.4613313,30.9759975 28.872,31.472 C29.2826687,31.9680025 29.8559963,32.216 30.592,32.216 C31.5200046,32.216 32.2186643,31.778671 32.688,30.904 L33.696,31.464 C33.3866651,31.9866693 32.9760026,32.4133317 32.464,32.744 C31.9519974,33.0746683 31.3066706,33.24 30.528,33.24 C29.9093302,33.24 29.3680023,33.1333344 28.904,32.92 C28.4399977,32.7066656 28.0533349,32.4133352 27.744,32.04 C27.4346651,31.6666648 27.2026674,31.2293358 27.048,30.728 C26.8933326,30.2266642 26.816,29.6880029 26.816,29.112 C26.816,28.5466638 26.8906659,28.0080026 27.04,27.496 C27.1893341,26.9839974 27.4159985,26.5360019 27.72,26.152 C28.0240015,25.7679981 28.3973311,25.4640011 28.84,25.24 C29.2826689,25.0159989 29.8026637,24.904 30.4,24.904 C30.9760029,24.904 31.4773312,25.0133322 31.904,25.232 C32.3306688,25.4506678 32.6853319,25.7439982 32.968,26.112 C33.2506681,26.4800018 33.4639993,26.9066642 33.608,27.392 C33.7520007,27.8773358 33.824,28.3919973 33.824,28.936 C33.824,29.0533339 33.8213334,29.1439997 33.816,29.208 C33.8106666,29.2720003 33.808,29.3253331 33.808,29.368 L28.176,29.368 Z M30.384,25.912 C29.7119966,25.912 29.1920018,26.1519976 28.824,26.632 C28.4559982,27.1120024 28.2453336,27.7573293 28.192,28.568 L32.464,28.568 C32.464,28.2373317 32.426667,27.9146682 32.352,27.6 C32.277333,27.2853318 32.1546675,27.0026679 31.984,26.752 C31.8133325,26.5013321 31.5973346,26.2986674 31.336,26.144 C31.0746654,25.9893326 30.7573352,25.912 30.384,25.912 Z M36.448,29.368 C36.5013336,30.2746712 36.7333313,30.9759975 37.144,31.472 C37.5546687,31.9680025 38.1279963,32.216 38.864,32.216 C39.7920046,32.216 40.4906643,31.778671 40.96,30.904 L41.968,31.464 C41.6586651,31.9866693 41.2480026,32.4133317 40.736,32.744 C40.2239974,33.0746683 39.5786706,33.24 38.8,33.24 C38.1813302,33.24 37.6400023,33.1333344 37.176,32.92 C36.7119977,32.7066656 36.3253349,32.4133352 36.016,32.04 C35.7066651,31.6666648 35.4746674,31.2293358 35.32,30.728 C35.1653326,30.2266642 35.088,29.6880029 35.088,29.112 C35.088,28.5466638 35.1626659,28.0080026 35.312,27.496 C35.4613341,26.9839974 35.6879985,26.5360019 35.992,26.152 C36.2960015,25.7679981 36.6693311,25.4640011 37.112,25.24 C37.5546689,25.0159989 38.0746637,24.904 38.672,24.904 C39.2480029,24.904 39.7493312,25.0133322 40.176,25.232 C40.6026688,25.4506678 40.9573319,25.7439982 41.24,26.112 C41.5226681,26.4800018 41.7359993,26.9066642 41.88,27.392 C42.0240007,27.8773358 42.096,28.3919973 42.096,28.936 C42.096,29.0533339 42.0933334,29.1439997 42.088,29.208 C42.0826666,29.2720003 42.08,29.3253331 42.08,29.368 L36.448,29.368 Z M38.656,25.912 C37.9839966,25.912 37.4640018,26.1519976 37.096,26.632 C36.7279982,27.1120024 36.5173336,27.7573293 36.464,28.568 L40.736,28.568 C40.736,28.2373317 40.698667,27.9146682 40.624,27.6 C40.549333,27.2853318 40.4266675,27.0026679 40.256,26.752 C40.0853325,26.5013321 39.8693346,26.2986674 39.608,26.144 C39.3466654,25.9893326 39.0293352,25.912 38.656,25.912 Z M43.712,25.128 L44.864,25.128 L45.008,26.664 C45.200001,26.1199973 45.4986646,25.6906682 45.904,25.376 C46.3093354,25.0613318 46.8053304,24.904 47.392,24.904 C48.0106698,24.904 48.4959982,25.0799982 48.848,25.432 C49.2000018,25.7840018 49.4239995,26.2106642 49.52,26.712 C49.6160005,26.4666654 49.7359993,26.2346678 49.88,26.016 C50.0240007,25.7973322 50.1973323,25.6053342 50.4,25.44 C50.6026677,25.2746658 50.837332,25.1440005 51.104,25.048 C51.370668,24.9519995 51.674665,24.904 52.016,24.904 C52.4640022,24.904 52.8346652,24.9813326 53.128,25.136 C53.4213348,25.2906674 53.6559991,25.501332 53.832,25.768 C54.0080009,26.034668 54.133333,26.3466649 54.208,26.704 C54.282667,27.0613351 54.32,27.4373314 54.32,27.832 L54.32,33 L52.992,33 L52.992,28.168 C52.992,27.4639965 52.8666679,26.9386684 52.616,26.592 C52.3653321,26.2453316 52.0000024,26.072 51.52,26.072 C50.9973307,26.072 50.5600018,26.3039977 50.208,26.768 C49.8559982,27.2320023 49.68,27.8959957 49.68,28.76 L49.68,33 L48.352,33 L48.352,28.232 C48.352,27.4959963 48.2240013,26.9520018 47.968,26.6 C47.7119987,26.2479982 47.354669,26.072 46.896,26.072 C46.3839974,26.072 45.9466685,26.309331 45.584,26.784 C45.2213315,27.258669 45.04,27.9439955 45.04,28.84 L45.04,33 L43.712,33 L43.712,25.128 Z M61.28,33 C61.1626661,32.6159981 61.0933334,32.157336 61.072,31.624 C60.8586656,32.1146691 60.5306689,32.5066652 60.088,32.8 C59.6453311,33.0933348 59.120003,33.24 58.512,33.24 C57.7439962,33.24 57.1360022,33.0213355 56.688,32.584 C56.2399978,32.1466645 56.016,31.5600037 56.016,30.824 C56.016,30.4079979 56.0906659,30.0586681 56.24,29.776 C56.3893341,29.4933319 56.597332,29.2586676 56.864,29.072 C57.130668,28.8853324 57.4453315,28.7386672 57.808,28.632 C58.1706685,28.5253328 58.5653312,28.4400003 58.992,28.376 L61.008,28.072 L61.008,27.576 C61.008,27.2239982 60.9653338,26.9413344 60.88,26.728 C60.7946662,26.5146656 60.6773341,26.3493339 60.528,26.232 C60.3786659,26.1146661 60.208001,26.0373335 60.016,26 C59.823999,25.9626665 59.6213344,25.944 59.408,25.944 C58.799997,25.944 58.2986686,26.0559989 57.904,26.28 C57.5093314,26.5040011 57.178668,26.786665 56.912,27.128 L56.224,26.264 C56.5333349,25.8906648 56.9626639,25.570668 57.512,25.304 C58.0613361,25.037332 58.7413293,24.904 59.552,24.904 C60.5333382,24.904 61.2453311,25.1226645 61.688,25.56 C62.1306689,25.9973355 62.352,26.7013285 62.352,27.672 L62.352,30.856 C62.352,31.1120013 62.3546666,31.335999 62.36,31.528 C62.3653334,31.720001 62.3759999,31.8986658 62.392,32.064 C62.4080001,32.2293342 62.4319998,32.3866659 62.464,32.536 C62.4960002,32.6853341 62.5386664,32.8399992 62.592,33 L61.28,33 Z M61.008,28.952 L59.12,29.256 C58.4693301,29.3733339 58.0080014,29.5493322 57.736,29.784 C57.4639986,30.0186678 57.328,30.3439979 57.328,30.76 C57.328,31.1866688 57.4533321,31.5439986 57.704,31.832 C57.9546679,32.1200014 58.3253309,32.264 58.816,32.264 C59.1146682,32.264 59.397332,32.2053339 59.664,32.088 C59.930668,31.9706661 60.1626657,31.808001 60.36,31.6 C60.5573343,31.391999 60.7146661,31.1413348 60.832,30.848 C60.9493339,30.5546652 61.008,30.2320018 61.008,29.88 L61.008,28.952 Z M64.48,25.128 L65.632,25.128 L65.776,26.696 C65.9786677,26.2159976 66.3013311,25.7973351 66.744,25.44 C67.1866689,25.0826649 67.7333301,24.904 68.384,24.904 C69.2053374,24.904 69.8106647,25.1653307 70.2,25.688 C70.5893353,26.2106693 70.784,26.9413286 70.784,27.88 L70.784,33 L69.456,33 L69.456,28.152 C69.456,27.4373298 69.3120014,26.9120017 69.024,26.576 C68.7359986,26.2399983 68.3466691,26.072 67.856,26.072 C67.2693304,26.072 66.7813353,26.3119976 66.392,26.792 C66.0026647,27.2720024 65.808,27.949329 65.808,28.824 L65.808,33 L64.48,33 L64.48,25.128 Z M81.36,34.984 C80.901331,35.1440008 80.442669,35.2479998 79.984,35.296 C79.525331,35.3440002 79.0560024,35.368 78.576,35.368 C77.6693288,35.368 76.8480037,35.2186682 76.112,34.92 C75.3759963,34.6213318 74.7466693,34.205336 74.224,33.672 C73.7013307,33.138664 73.2986681,32.501337 73.016,31.76 C72.7333319,31.018663 72.592,30.2000045 72.592,29.304 C72.592,28.503996 72.7279986,27.7386703 73,27.008 C73.2720014,26.2773297 73.6639974,25.6373361 74.176,25.088 C74.6880026,24.5386639 75.3093297,24.101335 76.04,23.776 C76.7706703,23.450665 77.5893288,23.288 78.496,23.288 C79.4346714,23.288 80.266663,23.4399985 80.992,23.744 C81.717337,24.0480015 82.3279975,24.4613307 82.824,24.984 C83.3200025,25.5066693 83.6986654,26.1199965 83.96,26.824 C84.2213346,27.5280035 84.352,28.2853293 84.352,29.096 C84.352,29.5973358 84.3013338,30.0799977 84.2,30.544 C84.0986662,31.0080023 83.9386678,31.4186649 83.72,31.776 C83.5013322,32.1333351 83.2240017,32.4186656 82.888,32.632 C82.5519983,32.8453344 82.1493357,32.952 81.68,32.952 C81.4026653,32.952 81.1733342,32.9120004 80.992,32.832 C80.8106658,32.7519996 80.6586673,32.6480006 80.536,32.52 C80.4133327,32.3919994 80.3200003,32.2506674 80.256,32.096 C80.1919997,31.9413326 80.1440002,31.7893341 80.112,31.64 C79.8986656,32.0133352 79.5893354,32.3226654 79.184,32.568 C78.7786646,32.8133346 78.3360024,32.936 77.856,32.936 C77.589332,32.936 77.3333346,32.898667 77.088,32.824 C76.8426654,32.749333 76.624001,32.6320008 76.432,32.472 C76.239999,32.3119992 76.0880006,32.1120012 75.976,31.872 C75.8639994,31.6319988 75.808,31.3466683 75.808,31.016 C75.808,30.674665 75.8666661,30.3866678 75.984,30.152 C76.1013339,29.9173322 76.2613323,29.7200008 76.464,29.56 C76.6666677,29.3999992 76.9093319,29.2746671 77.192,29.184 C77.4746681,29.0933329 77.7813317,29.0160003 78.112,28.952 L79.936,28.632 L79.936,28.2 C79.936,27.6453306 79.8133346,27.2666677 79.568,27.064 C79.3226654,26.8613323 78.9866688,26.76 78.56,26.76 C78.1866648,26.76 77.8320017,26.8293326 77.496,26.968 C77.1599983,27.1066674 76.8426682,27.3413317 76.544,27.672 L76.016,27.064 C76.3146682,26.722665 76.6959977,26.4586676 77.16,26.272 C77.6240023,26.0853324 78.1173307,25.992 78.64,25.992 C78.9386682,25.992 79.2266653,26.0186664 79.504,26.072 C79.7813347,26.1253336 80.0266656,26.2319992 80.24,26.392 C80.4533344,26.5520008 80.6213327,26.7786652 80.744,27.072 C80.8666673,27.3653348 80.928,27.7519976 80.928,28.232 L80.928,30.808 C80.928,31.2026686 80.9919994,31.533332 81.12,31.8 C81.2480006,32.066668 81.482665,32.2 81.824,32.2 C82.1013347,32.2 82.3413323,32.1146675 82.544,31.944 C82.7466677,31.7733325 82.9119994,31.5440014 83.04,31.256 C83.1680006,30.9679986 83.2639997,30.6373352 83.328,30.264 C83.3920003,29.8906648 83.424,29.5013354 83.424,29.096 C83.424,28.3813298 83.3120011,27.720003 83.088,27.112 C82.8639989,26.503997 82.5413354,25.9760022 82.12,25.528 C81.6986646,25.0799978 81.1813364,24.7306679 80.568,24.48 C79.9546636,24.2293321 79.2640038,24.104 78.496,24.104 C77.7066627,24.104 77.008003,24.2453319 76.4,24.528 C75.791997,24.8106681 75.2746688,25.189331 74.848,25.664 C74.4213312,26.138669 74.0986678,26.6879969 73.88,27.312 C73.6613322,27.9360031 73.552,28.5839966 73.552,29.256 C73.552,30.0133371 73.6639989,30.7146634 73.888,31.36 C74.1120011,32.0053366 74.4399978,32.565331 74.872,33.04 C75.3040022,33.514669 75.8293302,33.885332 76.448,34.152 C77.0666698,34.418668 77.7706627,34.552 78.56,34.552 C78.9760021,34.552 79.4106644,34.5280002 79.864,34.48 C80.3173356,34.4319998 80.7626645,34.3333341 81.2,34.184 L81.36,34.984 Z M79.936,29.288 L78.4,29.576 C77.866664,29.6720005 77.4613347,29.8079991 77.184,29.984 C76.9066653,30.1600009 76.768,30.4719978 76.768,30.92 C76.768,31.2933352 76.8879988,31.5973322 77.128,31.832 C77.3680012,32.0666678 77.6959979,32.184 78.112,32.184 C78.3680013,32.184 78.6079989,32.1306672 78.832,32.024 C79.0560011,31.9173328 79.2479992,31.7760009 79.408,31.6 C79.5680008,31.4239991 79.6959995,31.2240011 79.792,31 C79.8880005,30.7759989 79.936,30.5466678 79.936,30.312 L79.936,29.288 Z M86.832,33.944 C87.1413349,34.2426682 87.5119978,34.4799991 87.944,34.656 C88.3760022,34.8320009 88.8373309,34.92 89.328,34.92 C89.7333354,34.92 90.0639987,34.8586673 90.32,34.736 C90.5760013,34.6133327 90.7786659,34.4453344 90.928,34.232 C91.0773341,34.0186656 91.181333,33.7760014 91.24,33.504 C91.298667,33.2319986 91.328,32.9413349 91.328,32.632 L91.328,31.176 C91.1253323,31.6560024 90.8213354,32.0426652 90.416,32.336 C90.0106646,32.6293348 89.4880032,32.776 88.848,32.776 C88.389331,32.776 87.9733352,32.6880009 87.6,32.512 C87.2266648,32.3359991 86.906668,32.0826683 86.64,31.752 C86.373332,31.4213317 86.1680007,31.0160024 86.024,30.536 C85.8799993,30.0559976 85.808,29.5173363 85.808,28.92 C85.808,28.3333304 85.8799993,27.7946691 86.024,27.304 C86.1680007,26.8133309 86.3759986,26.3920018 86.648,26.04 C86.9200014,25.6879982 87.2506647,25.4133343 87.64,25.216 C88.0293353,25.0186657 88.4639976,24.92 88.944,24.92 C89.5733365,24.92 90.0959979,25.0773318 90.512,25.392 C90.9280021,25.7066682 91.2266658,26.1093309 91.408,26.6 L91.632,25.128 L92.656,25.128 L92.656,32.6 C92.656,33.0480022 92.6026672,33.471998 92.496,33.872 C92.3893328,34.272002 92.2080013,34.6266651 91.952,34.936 C91.6959987,35.2453349 91.3546688,35.4906658 90.928,35.672 C90.5013312,35.8533342 89.9680032,35.944 89.328,35.944 C88.6346632,35.944 88.0133361,35.8453343 87.464,35.648 C86.9146639,35.4506657 86.4533352,35.2026682 86.08,34.904 L86.832,33.944 Z M91.328,28.92 C91.328,28.7386658 91.3253334,28.5653342 91.32,28.4 C91.3146666,28.2346658 91.3013334,28.1093338 91.28,28.024 C91.2373331,27.7679987 91.1680005,27.5173346 91.072,27.272 C90.9759995,27.0266654 90.8453342,26.8133342 90.68,26.632 C90.5146658,26.4506658 90.3120012,26.3040006 90.072,26.192 C89.8319988,26.0799994 89.5520016,26.024 89.232,26.024 C88.8799982,26.024 88.5760013,26.0986659 88.32,26.248 C88.0639987,26.3973341 87.8533342,26.5999987 87.688,26.856 C87.5226658,27.1120013 87.4000004,27.4159982 87.32,27.768 C87.2399996,28.1200018 87.2,28.4933314 87.2,28.888 C87.2,29.2400018 87.237333,29.5893316 87.312,29.936 C87.386667,30.2826684 87.5039992,30.589332 87.664,30.856 C87.8240008,31.122668 88.0346654,31.3386658 88.296,31.504 C88.5573346,31.6693342 88.8746648,31.752 89.248,31.752 C89.7706693,31.752 90.1919984,31.6053348 90.512,31.312 C90.8320016,31.0186652 91.0559994,30.6480022 91.184,30.2 C91.2373336,30.0506659 91.2746666,29.8640011 91.296,29.64 C91.3173334,29.4159989 91.328,29.2026677 91.328,29 L91.328,28.92 Z M94.704,25.128 L95.856,25.128 L96,26.664 C96.192001,26.1199973 96.4906646,25.6906682 96.896,25.376 C97.3013354,25.0613318 97.7973304,24.904 98.384,24.904 C99.0026698,24.904 99.4879982,25.0799982 99.84,25.432 C100.192002,25.7840018 100.416,26.2106642 100.512,26.712 C100.608,26.4666654 100.727999,26.2346678 100.872,26.016 C101.016001,25.7973322 101.189332,25.6053342 101.392,25.44 C101.594668,25.2746658 101.829332,25.1440005 102.096,25.048 C102.362668,24.9519995 102.666665,24.904 103.008,24.904 C103.456002,24.904 103.826665,24.9813326 104.12,25.136 C104.413335,25.2906674 104.647999,25.501332 104.824,25.768 C105.000001,26.034668 105.125333,26.3466649 105.2,26.704 C105.274667,27.0613351 105.312,27.4373314 105.312,27.832 L105.312,33 L103.984,33 L103.984,28.168 C103.984,27.4639965 103.858668,26.9386684 103.608,26.592 C103.357332,26.2453316 102.992002,26.072 102.512,26.072 C101.989331,26.072 101.552002,26.3039977 101.2,26.768 C100.847998,27.2320023 100.672,27.8959957 100.672,28.76 L100.672,33 L99.344,33 L99.344,28.232 C99.344,27.4959963 99.2160013,26.9520018 98.96,26.6 C98.7039987,26.2479982 98.346669,26.072 97.888,26.072 C97.3759974,26.072 96.9386685,26.309331 96.576,26.784 C96.2133315,27.258669 96.032,27.9439955 96.032,28.84 L96.032,33 L94.704,33 L94.704,25.128 Z M112.272,33 C112.154666,32.6159981 112.085333,32.157336 112.064,31.624 C111.850666,32.1146691 111.522669,32.5066652 111.08,32.8 C110.637331,33.0933348 110.112003,33.24 109.504,33.24 C108.735996,33.24 108.128002,33.0213355 107.68,32.584 C107.231998,32.1466645 107.008,31.5600037 107.008,30.824 C107.008,30.4079979 107.082666,30.0586681 107.232,29.776 C107.381334,29.4933319 107.589332,29.2586676 107.856,29.072 C108.122668,28.8853324 108.437332,28.7386672 108.8,28.632 C109.162668,28.5253328 109.557331,28.4400003 109.984,28.376 L112,28.072 L112,27.576 C112,27.2239982 111.957334,26.9413344 111.872,26.728 C111.786666,26.5146656 111.669334,26.3493339 111.52,26.232 C111.370666,26.1146661 111.200001,26.0373335 111.008,26 C110.815999,25.9626665 110.613334,25.944 110.4,25.944 C109.791997,25.944 109.290669,26.0559989 108.896,26.28 C108.501331,26.5040011 108.170668,26.786665 107.904,27.128 L107.216,26.264 C107.525335,25.8906648 107.954664,25.570668 108.504,25.304 C109.053336,25.037332 109.733329,24.904 110.544,24.904 C111.525338,24.904 112.237331,25.1226645 112.68,25.56 C113.122669,25.9973355 113.344,26.7013285 113.344,27.672 L113.344,30.856 C113.344,31.1120013 113.346667,31.335999 113.352,31.528 C113.357333,31.720001 113.368,31.8986658 113.384,32.064 C113.4,32.2293342 113.424,32.3866659 113.456,32.536 C113.488,32.6853341 113.530666,32.8399992 113.584,33 L112.272,33 Z M112,28.952 L110.112,29.256 C109.46133,29.3733339 109.000001,29.5493322 108.728,29.784 C108.455999,30.0186678 108.32,30.3439979 108.32,30.76 C108.32,31.1866688 108.445332,31.5439986 108.696,31.832 C108.946668,32.1200014 109.317331,32.264 109.808,32.264 C110.106668,32.264 110.389332,32.2053339 110.656,32.088 C110.922668,31.9706661 111.154666,31.808001 111.352,31.6 C111.549334,31.391999 111.706666,31.1413348 111.824,30.848 C111.941334,30.5546652 112,30.2320018 112,29.88 L112,28.952 Z M115.472,22.072 L116.8,22.072 L116.8,23.4 L115.472,23.4 L115.472,22.072 Z M115.472,25.128 L116.8,25.128 L116.8,33 L115.472,33 L115.472,25.128 Z M118.848,21.704 L120.176,21.704 L120.176,33 L118.848,33 L118.848,21.704 Z M122.096,31.432 L123.584,31.432 L123.584,33 L122.096,33 L122.096,31.432 Z M132.08,31.272 C131.759998,31.9120032 131.330669,32.3999983 130.792,32.736 C130.253331,33.0720017 129.600004,33.24 128.832,33.24 C128.202664,33.24 127.656002,33.1306678 127.192,32.912 C126.727998,32.6933322 126.344002,32.3973352 126.04,32.024 C125.735998,31.6506648 125.512001,31.2106692 125.368,30.704 C125.223999,30.1973308 125.152,29.6560029 125.152,29.08 C125.152,28.4933304 125.229333,27.9466692 125.384,27.44 C125.538667,26.9333308 125.767998,26.4933352 126.072,26.12 C126.376002,25.7466648 126.757331,25.4506678 127.216,25.232 C127.674669,25.0133322 128.21333,24.904 128.832,24.904 C129.610671,24.904 130.258664,25.0773316 130.776,25.424 C131.293336,25.7706684 131.711998,26.2586635 132.032,26.888 L130.912,27.416 C130.506665,26.4346618 129.824005,25.944 128.864,25.944 C128.458665,25.944 128.109335,26.0239992 127.816,26.184 C127.522665,26.3440008 127.282668,26.5626653 127.096,26.84 C126.909332,27.1173347 126.770667,27.4399982 126.68,27.808 C126.589333,28.1760018 126.544,28.5733312 126.544,29 C126.544,29.4053354 126.586666,29.7999981 126.672,30.184 C126.757334,30.5680019 126.895999,30.9093318 127.088,31.208 C127.280001,31.5066682 127.525332,31.7466658 127.824,31.928 C128.122668,32.1093342 128.490664,32.2 128.928,32.2 C129.482669,32.2 129.930665,32.0586681 130.272,31.776 C130.613335,31.4933319 130.874666,31.1280022 131.056,30.68 L132.08,31.272 Z M136.816,33.24 C136.218664,33.24 135.693336,33.1306678 135.24,32.912 C134.786664,32.6933322 134.408002,32.3946686 134.104,32.016 C133.799998,31.6373314 133.573334,31.1946692 133.424,30.688 C133.274666,30.1813308 133.2,29.6346696 133.2,29.048 C133.2,28.4613304 133.277333,27.9173358 133.432,27.416 C133.586667,26.9146642 133.815998,26.4773352 134.12,26.104 C134.424002,25.7306648 134.802664,25.4373344 135.256,25.224 C135.709336,25.0106656 136.22933,24.904 136.816,24.904 C137.40267,24.904 137.922664,25.0106656 138.376,25.224 C138.829336,25.4373344 139.210665,25.7279982 139.52,26.096 C139.829335,26.4640018 140.061333,26.9013308 140.216,27.408 C140.370667,27.9146692 140.448,28.4613304 140.448,29.048 C140.448,29.6346696 140.370667,30.1813308 140.216,30.688 C140.061333,31.1946692 139.829335,31.6373314 139.52,32.016 C139.210665,32.3946686 138.829336,32.6933322 138.376,32.912 C137.922664,33.1306678 137.40267,33.24 136.816,33.24 Z M136.848,32.2 C137.210668,32.2 137.530665,32.1200008 137.808,31.96 C138.085335,31.7999992 138.314666,31.5786681 138.496,31.296 C138.677334,31.0133319 138.816,30.6800019 138.912,30.296 C139.008,29.9119981 139.056,29.4960022 139.056,29.048 C139.056,28.5999978 139.008,28.1866686 138.912,27.808 C138.816,27.4293314 138.672001,27.1013347 138.48,26.824 C138.287999,26.5466653 138.053335,26.3306674 137.776,26.176 C137.498665,26.0213326 137.178668,25.944 136.816,25.944 C136.442665,25.944 136.117335,26.0213326 135.84,26.176 C135.562665,26.3306674 135.333334,26.5466653 135.152,26.824 C134.970666,27.1013347 134.832,27.4293314 134.736,27.808 C134.64,28.1866686 134.592,28.5999978 134.592,29.048 C134.592,29.4960022 134.64,29.9119981 134.736,30.296 C134.832,30.6800019 134.973332,31.0133319 135.16,31.296 C135.346668,31.5786681 135.581332,31.7999992 135.864,31.96 C136.146668,32.1200008 136.474665,32.2 136.848,32.2 Z M142.144,25.128 L143.296,25.128 L143.44,26.664 C143.632001,26.1199973 143.930665,25.6906682 144.336,25.376 C144.741335,25.0613318 145.23733,24.904 145.824,24.904 C146.44267,24.904 146.927998,25.0799982 147.28,25.432 C147.632002,25.7840018 147.856,26.2106642 147.952,26.712 C148.048,26.4666654 148.167999,26.2346678 148.312,26.016 C148.456001,25.7973322 148.629332,25.6053342 148.832,25.44 C149.034668,25.2746658 149.269332,25.1440005 149.536,25.048 C149.802668,24.9519995 150.106665,24.904 150.448,24.904 C150.896002,24.904 151.266665,24.9813326 151.56,25.136 C151.853335,25.2906674 152.087999,25.501332 152.264,25.768 C152.440001,26.034668 152.565333,26.3466649 152.64,26.704 C152.714667,27.0613351 152.752,27.4373314 152.752,27.832 L152.752,33 L151.424,33 L151.424,28.168 C151.424,27.4639965 151.298668,26.9386684 151.048,26.592 C150.797332,26.2453316 150.432002,26.072 149.952,26.072 C149.429331,26.072 148.992002,26.3039977 148.64,26.768 C148.287998,27.2320023 148.112,27.8959957 148.112,28.76 L148.112,33 L146.784,33 L146.784,28.232 C146.784,27.4959963 146.656001,26.9520018 146.4,26.6 C146.143999,26.2479982 145.786669,26.072 145.328,26.072 C144.815997,26.072 144.378668,26.309331 144.016,26.784 C143.653332,27.258669 143.472,27.9439955 143.472,28.84 L143.472,33 L142.144,33 L142.144,25.128 Z" id="m.freeman@gmail.com" fill="#000000"></path>
            </g>
        </g>
    </g>
</svg>