<?xml version="1.0" encoding="UTF-8"?>
<svg width="200px" height="44px" viewBox="0 0 200 44" version="1.1" xmlns="http://www.w3.org/2000/svg" xmlns:xlink="http://www.w3.org/1999/xlink">
    <!-- Generator: Sketch 47.1 (45422) - http://www.bohemiancoding.com/sketch -->
    <title>OptionalLabel</title>
    <desc>Created with Sketch.</desc>
    <defs></defs>
    <g id="Page-1" stroke="none" stroke-width="1" fill="none" fill-rule="evenodd">
        <g id="Buttons-Usage-extra-large-1200" transform="translate(-382.000000, -2352.000000)">
            <g id="OptionalLabel" transform="translate(382.000000, 2350.000000)">
                <path d="M0.98,3.116 L2.24,3.116 L2.24,12.02 L6.958,12.02 L6.958,13 L0.98,13 L0.98,3.116 Z M12.656,13 C12.5533328,12.6639983 12.4926668,12.262669 12.474,11.796 C12.2873324,12.2253355 12.0003353,12.568332 11.613,12.825 C11.2256647,13.0816679 10.7660027,13.21 10.234,13.21 C9.56199664,13.21 9.03000196,13.0186686 8.638,12.636 C8.24599804,12.2533314 8.05,11.7400032 8.05,11.096 C8.05,10.7319982 8.11533268,10.4263346 8.246,10.179 C8.37666732,9.93166543 8.5586655,9.72633415 8.792,9.563 C9.0253345,9.39966585 9.30066508,9.2713338 9.618,9.178 C9.93533492,9.0846662 10.2806648,9.01000028 10.654,8.954 L12.418,8.688 L12.418,8.254 C12.418,7.94599846 12.380667,7.6986676 12.306,7.512 C12.231333,7.3253324 12.1286673,7.18066718 11.998,7.078 C11.8673327,6.97533282 11.7180008,6.90766683 11.55,6.875 C11.3819992,6.84233317 11.2046676,6.826 11.018,6.826 C10.4859973,6.826 10.0473351,6.92399902 9.702,7.12 C9.35666494,7.31600098 9.0673345,7.56333184 8.834,7.862 L8.232,7.106 C8.50266802,6.7793317 8.87833093,6.4993345 9.359,6.266 C9.83966907,6.0326655 10.4346631,5.916 11.144,5.916 C12.002671,5.916 12.6256647,6.10733142 13.013,6.49 C13.4003353,6.87266858 13.594,7.48866242 13.594,8.338 L13.594,11.124 C13.594,11.3480011 13.5963333,11.5439992 13.601,11.712 C13.6056667,11.8800008 13.6149999,12.0363326 13.629,12.181 C13.6430001,12.3256674 13.6639999,12.4633327 13.692,12.594 C13.7200001,12.7246673 13.7573331,12.8599993 13.804,13 L12.656,13 Z M12.418,9.458 L10.766,9.724 C10.1966638,9.82666718 9.79300119,9.98066564 9.555,10.186 C9.31699881,10.3913344 9.198,10.6759982 9.198,11.04 C9.198,11.4133352 9.30766557,11.7259987 9.527,11.978 C9.74633443,12.2300013 10.0706645,12.356 10.5,12.356 C10.7613346,12.356 11.0086655,12.3046672 11.242,12.202 C11.4753345,12.0993328 11.6783325,11.9570009 11.851,11.775 C12.0236675,11.5929991 12.1613328,11.3736679 12.264,11.117 C12.3666672,10.8603321 12.418,10.5780015 12.418,10.27 L12.418,9.458 Z M15.456,3.116 L16.618,3.116 L16.618,7.33 C16.8046676,6.93799804 17.0823315,6.60433471 17.451,6.329 C17.8196685,6.05366529 18.2793306,5.916 18.83,5.916 C19.2313353,5.916 19.597665,5.99999916 19.929,6.168 C20.260335,6.33600084 20.5426655,6.57633177 20.776,6.889 C21.0093345,7.20166823 21.1889994,7.57733114 21.315,8.016 C21.4410006,8.45466886 21.504,8.94466396 21.504,9.486 C21.504,10.0180027 21.4410006,10.5103311 21.315,10.963 C21.1889994,11.4156689 21.0093345,11.8053317 20.776,12.132 C20.5426655,12.4586683 20.2556684,12.7153324 19.915,12.902 C19.5743316,13.0886676 19.1893355,13.182 18.76,13.182 C18.2559975,13.182 17.808002,13.0536679 17.416,12.797 C17.023998,12.540332 16.730001,12.1740024 16.534,11.698 L16.394,13 L15.456,13 L15.456,3.116 Z M16.618,9.584 C16.618,9.78933436 16.6249999,9.97366585 16.639,10.137 C16.6530001,10.3003342 16.6693332,10.4379994 16.688,10.55 C16.7253335,10.7740011 16.7953328,10.9886656 16.898,11.194 C17.0006672,11.3993344 17.1266659,11.5789992 17.276,11.733 C17.4253341,11.8870008 17.6003323,12.0106662 17.801,12.104 C18.0016677,12.1973338 18.2233321,12.244 18.466,12.244 C18.7833349,12.244 19.0563322,12.1670008 19.285,12.013 C19.5136678,11.8589992 19.7026659,11.6560013 19.852,11.404 C20.0013341,11.1519987 20.1109997,10.8650016 20.181,10.543 C20.2510004,10.2209984 20.286,9.89200168 20.286,9.556 C20.286,9.21066494 20.248667,8.87700161 20.174,8.555 C20.099333,8.23299839 19.9873341,7.94833457 19.838,7.701 C19.6886659,7.45366543 19.4973345,7.25533408 19.264,7.106 C19.0306655,6.95666592 18.7553349,6.882 18.438,6.882 C18.1859987,6.882 17.9596677,6.92633289 17.759,7.015 C17.5583323,7.10366711 17.3833341,7.22499923 17.234,7.379 C17.0846659,7.53300077 16.9633338,7.71266564 16.87,7.918 C16.7766662,8.12333436 16.7113335,8.3426655 16.674,8.576 C16.6553332,8.6693338 16.6413334,8.78833261 16.632,8.933 C16.6226666,9.07766739 16.618,9.28066536 16.618,9.542 L16.618,9.584 Z M23.87,9.822 C23.9166669,10.6153373 24.1196649,11.2289978 24.479,11.663 C24.8383351,12.0970022 25.3399968,12.314 25.984,12.314 C26.7960041,12.314 27.4073313,11.9313372 27.818,11.166 L28.7,11.656 C28.429332,12.1133356 28.0700022,12.4866652 27.622,12.776 C27.1739978,13.0653348 26.6093367,13.21 25.928,13.21 C25.386664,13.21 24.913002,13.1166676 24.507,12.93 C24.100998,12.7433324 23.762668,12.4866683 23.492,12.16 C23.221332,11.8333317 23.018334,11.4506689 22.883,11.012 C22.747666,10.5733311 22.68,10.1020025 22.68,9.598 C22.68,9.10333086 22.7453327,8.63200224 22.876,8.184 C23.0066673,7.73599776 23.2049987,7.34400168 23.471,7.008 C23.7370013,6.67199832 24.0636647,6.40600098 24.451,6.21 C24.8383353,6.01399902 25.2933307,5.916 25.816,5.916 C26.3200025,5.916 26.7586648,6.01166571 27.132,6.203 C27.5053352,6.39433429 27.8156654,6.65099839 28.063,6.973 C28.3103346,7.29500161 28.4969994,7.66833121 28.623,8.093 C28.7490006,8.51766879 28.812,8.96799762 28.812,9.444 C28.812,9.54666718 28.8096667,9.62599972 28.805,9.682 C28.8003333,9.73800028 28.798,9.78466648 28.798,9.822 L23.87,9.822 Z M25.802,6.798 C25.2139971,6.798 24.7590016,7.0079979 24.437,7.428 C24.1149984,7.8480021 23.9306669,8.41266312 23.884,9.122 L27.622,9.122 C27.622,8.83266522 27.5893337,8.55033471 27.524,8.275 C27.4586663,7.99966529 27.3513341,7.75233443 27.202,7.533 C27.0526659,7.31366557 26.8636678,7.13633401 26.635,7.001 C26.4063322,6.86566599 26.1286683,6.798 25.802,6.798 Z M30.226,3.116 L31.388,3.116 L31.388,13 L30.226,13 L30.226,3.116 Z M39.046,15.73 C37.0859902,13.9846579 36.106,11.8240129 36.106,9.248 C36.106,7.99732708 36.3556642,6.80733898 36.855,5.678 C37.3543358,4.54866102 38.0846619,3.5640042 39.046,2.724 L39.536,3.2 C38.7613295,4.07733772 38.2060017,5.00832841 37.87,5.993 C37.5339983,6.97767159 37.366,8.06266074 37.366,9.248 C37.366,10.4613394 37.5409983,11.5579951 37.891,12.538 C38.2410018,13.5180049 38.7893296,14.4326624 39.536,15.282 L39.046,15.73 Z M43.722,13.21 C43.1993307,13.21 42.7396686,13.1143343 42.343,12.923 C41.9463313,12.7316657 41.6150013,12.470335 41.349,12.139 C41.0829987,11.807665 40.8846673,11.4203355 40.754,10.977 C40.6233327,10.5336644 40.558,10.0553359 40.558,9.542 C40.558,9.0286641 40.625666,8.55266886 40.761,8.114 C40.896334,7.67533114 41.0969987,7.2926683 41.363,6.966 C41.6290013,6.6393317 41.9603313,6.3826676 42.357,6.196 C42.7536687,6.0093324 43.2086641,5.916 43.722,5.916 C44.2353359,5.916 44.6903313,6.0093324 45.087,6.196 C45.4836686,6.3826676 45.817332,6.63699839 46.088,6.959 C46.358668,7.28100161 46.561666,7.66366445 46.697,8.107 C46.832334,8.55033555 46.9,9.0286641 46.9,9.542 C46.9,10.0553359 46.832334,10.5336644 46.697,10.977 C46.561666,11.4203355 46.358668,11.807665 46.088,12.139 C45.817332,12.470335 45.4836686,12.7316657 45.087,12.923 C44.6903313,13.1143343 44.2353359,13.21 43.722,13.21 Z M43.75,12.3 C44.0673349,12.3 44.3473321,12.2300007 44.59,12.09 C44.8326679,11.9499993 45.0333325,11.7563346 45.192,11.509 C45.3506675,11.2616654 45.4719996,10.9700017 45.556,10.634 C45.6400004,10.2979983 45.682,9.93400196 45.682,9.542 C45.682,9.14999804 45.6400004,8.78833499 45.556,8.457 C45.4719996,8.12566501 45.3460008,7.83866788 45.178,7.596 C45.0099992,7.35333212 44.8046679,7.16433401 44.562,7.029 C44.3193321,6.89366599 44.0393349,6.826 43.722,6.826 C43.3953317,6.826 43.1106679,6.89366599 42.868,7.029 C42.6253321,7.16433401 42.4246675,7.35333212 42.266,7.596 C42.1073325,7.83866788 41.9860004,8.12566501 41.902,8.457 C41.8179996,8.78833499 41.776,9.14999804 41.776,9.542 C41.776,9.93400196 41.8179996,10.2979983 41.902,10.634 C41.9860004,10.9700017 42.1096658,11.2616654 42.273,11.509 C42.4363341,11.7563346 42.6416654,11.9499993 42.889,12.09 C43.1363346,12.2300007 43.4233317,12.3 43.75,12.3 Z M48.384,6.112 L49.546,6.112 L49.546,7.442 C49.6300004,7.24599902 49.7373327,7.0546676 49.868,6.868 C49.9986673,6.6813324 50.1549991,6.5180007 50.337,6.378 C50.5190009,6.2379993 50.7313321,6.12600042 50.974,6.042 C51.2166679,5.95799958 51.4919985,5.916 51.8,5.916 C52.2480022,5.916 52.637665,6.0093324 52.969,6.196 C53.300335,6.3826676 53.5733323,6.6393317 53.788,6.966 C54.0026677,7.2926683 54.1636661,7.67299783 54.271,8.107 C54.3783339,8.54100217 54.432,9.00999748 54.432,9.514 C54.432,10.1113363 54.3620007,10.6386644 54.222,11.096 C54.0819993,11.5533356 53.8860013,11.9359985 53.634,12.244 C53.3819987,12.5520015 53.0880017,12.7853325 52.752,12.944 C52.4159983,13.1026675 52.052002,13.182 51.66,13.182 C51.1466641,13.182 50.7056685,13.0560013 50.337,12.804 C49.9683315,12.5519987 49.7046675,12.2393352 49.546,11.866 L49.546,15.422 L48.384,15.422 L48.384,6.112 Z M49.546,9.598 C49.546,9.79400098 49.5529999,9.97366585 49.567,10.137 C49.5810001,10.3003342 49.5973332,10.4379994 49.616,10.55 C49.6533335,10.7740011 49.7233328,10.9886656 49.826,11.194 C49.9286672,11.3993344 50.0546659,11.5789992 50.204,11.733 C50.3533341,11.8870008 50.5283323,12.0106662 50.729,12.104 C50.9296677,12.1973338 51.1513321,12.244 51.394,12.244 C51.7113349,12.244 51.9843322,12.1693341 52.213,12.02 C52.4416678,11.8706659 52.6306659,11.6700013 52.78,11.418 C52.9293341,11.1659987 53.0389997,10.8790016 53.109,10.557 C53.1790003,10.2349984 53.214,9.90133506 53.214,9.556 C53.214,9.21066494 53.1813337,8.87700161 53.116,8.555 C53.0506663,8.23299839 52.9456674,7.94833457 52.801,7.701 C52.6563326,7.45366543 52.4673345,7.25533408 52.234,7.106 C52.0006655,6.95666592 51.7206683,6.882 51.394,6.882 C51.1419987,6.882 50.9110011,6.9286662 50.701,7.022 C50.490999,7.1153338 50.3113341,7.24133254 50.162,7.4 C50.0126659,7.55866746 49.8890005,7.74066564 49.791,7.946 C49.6929995,8.15133436 49.6300001,8.36599888 49.602,8.59 C49.5833332,8.6833338 49.5693334,8.81166585 49.56,8.975 C49.5506666,9.13833415 49.546,9.32733226 49.546,9.542 L49.546,9.598 Z M56.518,6.91 L55.342,6.91 L55.342,6.112 L55.594,6.112 C55.8833348,6.112 56.1096658,6.08166697 56.273,6.021 C56.4363341,5.96033303 56.5599996,5.86700063 56.644,5.741 C56.7280004,5.61499937 56.7886665,5.44933436 56.826,5.244 C56.8633335,5.03866564 56.8959999,4.78666816 56.924,4.488 L56.952,4.236 L57.68,4.236 L57.68,6.112 L59.164,6.112 L59.164,6.91 L57.68,6.91 L57.68,11.194 C57.68,11.586002 57.7383327,11.8683325 57.855,12.041 C57.9716672,12.2136675 58.1886651,12.3 58.506,12.3 C58.7580013,12.3 58.9913323,12.2440006 59.206,12.132 L59.332,12.972 C58.9773316,13.1306675 58.5853355,13.21 58.156,13.21 C57.8199983,13.21 57.547001,13.1633338 57.337,13.07 C57.1269989,12.9766662 56.9613339,12.8506675 56.84,12.692 C56.7186661,12.5333325 56.6346669,12.3420011 56.588,12.118 C56.5413331,11.8939989 56.518,11.6513346 56.518,11.39 L56.518,6.91 Z M60.564,3.438 L61.726,3.438 L61.726,4.6 L60.564,4.6 L60.564,3.438 Z M60.564,6.112 L61.726,6.112 L61.726,13 L60.564,13 L60.564,6.112 Z M66.374,13.21 C65.8513307,13.21 65.3916686,13.1143343 64.995,12.923 C64.5983313,12.7316657 64.2670013,12.470335 64.001,12.139 C63.7349987,11.807665 63.5366673,11.4203355 63.406,10.977 C63.2753327,10.5336644 63.21,10.0553359 63.21,9.542 C63.21,9.0286641 63.277666,8.55266886 63.413,8.114 C63.548334,7.67533114 63.7489987,7.2926683 64.015,6.966 C64.2810013,6.6393317 64.6123313,6.3826676 65.009,6.196 C65.4056686,6.0093324 65.8606641,5.916 66.374,5.916 C66.8873359,5.916 67.3423313,6.0093324 67.739,6.196 C68.1356686,6.3826676 68.469332,6.63699839 68.74,6.959 C69.010668,7.28100161 69.213666,7.66366445 69.349,8.107 C69.484334,8.55033555 69.552,9.0286641 69.552,9.542 C69.552,10.0553359 69.484334,10.5336644 69.349,10.977 C69.213666,11.4203355 69.010668,11.807665 68.74,12.139 C68.469332,12.470335 68.1356686,12.7316657 67.739,12.923 C67.3423313,13.1143343 66.8873359,13.21 66.374,13.21 Z M66.402,12.3 C66.7193349,12.3 66.9993321,12.2300007 67.242,12.09 C67.4846679,11.9499993 67.6853325,11.7563346 67.844,11.509 C68.0026675,11.2616654 68.1239996,10.9700017 68.208,10.634 C68.2920004,10.2979983 68.334,9.93400196 68.334,9.542 C68.334,9.14999804 68.2920004,8.78833499 68.208,8.457 C68.1239996,8.12566501 67.9980008,7.83866788 67.83,7.596 C67.6619992,7.35333212 67.4566679,7.16433401 67.214,7.029 C66.9713321,6.89366599 66.6913349,6.826 66.374,6.826 C66.0473317,6.826 65.7626679,6.89366599 65.52,7.029 C65.2773321,7.16433401 65.0766675,7.35333212 64.918,7.596 C64.7593325,7.83866788 64.6380004,8.12566501 64.554,8.457 C64.4699996,8.78833499 64.428,9.14999804 64.428,9.542 C64.428,9.93400196 64.4699996,10.2979983 64.554,10.634 C64.6380004,10.9700017 64.7616658,11.2616654 64.925,11.509 C65.0883341,11.7563346 65.2936654,11.9499993 65.541,12.09 C65.7883346,12.2300007 66.0753317,12.3 66.402,12.3 Z M71.036,6.112 L72.044,6.112 L72.17,7.484 C72.3473342,7.0639979 72.6296647,6.69766823 73.017,6.385 C73.4043353,6.07233177 73.8826638,5.916 74.452,5.916 C75.1706703,5.916 75.7003316,6.14466438 76.041,6.602 C76.3816684,7.05933562 76.552,7.69866256 76.552,8.52 L76.552,13 L75.39,13 L75.39,8.758 C75.39,8.13266354 75.2640013,7.67300147 75.012,7.379 C74.7599987,7.08499853 74.4193355,6.938 73.99,6.938 C73.4766641,6.938 73.0496684,7.1479979 72.709,7.568 C72.3683316,7.9880021 72.198,8.58066284 72.198,9.346 L72.198,13 L71.036,13 L71.036,6.112 Z M82.642,13 C82.5393328,12.6639983 82.4786668,12.262669 82.46,11.796 C82.2733324,12.2253355 81.9863353,12.568332 81.599,12.825 C81.2116647,13.0816679 80.7520027,13.21 80.22,13.21 C79.5479966,13.21 79.016002,13.0186686 78.624,12.636 C78.231998,12.2533314 78.036,11.7400032 78.036,11.096 C78.036,10.7319982 78.1013327,10.4263346 78.232,10.179 C78.3626673,9.93166543 78.5446655,9.72633415 78.778,9.563 C79.0113345,9.39966585 79.2866651,9.2713338 79.604,9.178 C79.9213349,9.0846662 80.2666648,9.01000028 80.64,8.954 L82.404,8.688 L82.404,8.254 C82.404,7.94599846 82.366667,7.6986676 82.292,7.512 C82.217333,7.3253324 82.1146673,7.18066718 81.984,7.078 C81.8533327,6.97533282 81.7040008,6.90766683 81.536,6.875 C81.3679992,6.84233317 81.1906676,6.826 81.004,6.826 C80.4719973,6.826 80.0333351,6.92399902 79.688,7.12 C79.3426649,7.31600098 79.0533345,7.56333184 78.82,7.862 L78.218,7.106 C78.488668,6.7793317 78.8643309,6.4993345 79.345,6.266 C79.8256691,6.0326655 80.4206631,5.916 81.13,5.916 C81.988671,5.916 82.6116647,6.10733142 82.999,6.49 C83.3863353,6.87266858 83.58,7.48866242 83.58,8.338 L83.58,11.124 C83.58,11.3480011 83.5823333,11.5439992 83.587,11.712 C83.5916667,11.8800008 83.6009999,12.0363326 83.615,12.181 C83.6290001,12.3256674 83.6499999,12.4633327 83.678,12.594 C83.7060001,12.7246673 83.7433331,12.8599993 83.79,13 L82.642,13 Z M82.404,9.458 L80.752,9.724 C80.1826638,9.82666718 79.7790012,9.98066564 79.541,10.186 C79.3029988,10.3913344 79.184,10.6759982 79.184,11.04 C79.184,11.4133352 79.2936656,11.7259987 79.513,11.978 C79.7323344,12.2300013 80.0566645,12.356 80.486,12.356 C80.7473346,12.356 80.9946655,12.3046672 81.228,12.202 C81.4613345,12.0993328 81.6643325,11.9570009 81.837,11.775 C82.0096675,11.5929991 82.1473328,11.3736679 82.25,11.117 C82.3526672,10.8603321 82.404,10.5780015 82.404,10.27 L82.404,9.458 Z M85.442,3.116 L86.604,3.116 L86.604,13 L85.442,13 L85.442,3.116 Z M87.934,15.282 C88.6900038,14.4139957 89.2406649,13.4783384 89.586,12.475 C89.9313351,11.4716616 90.104,10.3913391 90.104,9.234 C90.104,8.61799692 90.0620004,8.03700273 89.978,7.491 C89.8939996,6.94499727 89.7633342,6.42700245 89.586,5.937 C89.4086658,5.44699755 89.1823347,4.97800224 88.907,4.53 C88.6316653,4.08199776 88.3073352,3.63866886 87.934,3.2 L88.424,2.724 C89.3946715,3.57333758 90.1296642,4.5579944 90.629,5.678 C91.1283358,6.7980056 91.378,7.98332708 91.378,9.234 C91.378,10.5220064 91.1306691,11.7073279 90.636,12.79 C90.1413309,13.8726721 89.4040049,14.8526623 88.424,15.73 L87.934,15.282 Z" id="Label-(optional)" fill="#4C5358"></path>
                <path d="M0.5,45.5 L199.5,45.5" id="Line" stroke="#7C878E" stroke-linecap="square"></path>
                <path d="M1.264,24.704 L2.704,24.704 L2.704,36 L1.264,36 L1.264,24.704 Z M4.992,28.128 L6.144,28.128 L6.288,29.696 C6.49066768,29.2159976 6.81333112,28.7973351 7.256,28.44 C7.69866888,28.0826649 8.24533008,27.904 8.896,27.904 C9.71733744,27.904 10.3226647,28.1653307 10.712,28.688 C11.1013353,29.2106693 11.296,29.9413286 11.296,30.88 L11.296,36 L9.968,36 L9.968,31.152 C9.968,30.4373298 9.82400144,29.9120017 9.536,29.576 C9.24799856,29.2399983 8.85866912,29.072 8.368,29.072 C7.7813304,29.072 7.29333528,29.3119976 6.904,29.792 C6.51466472,30.2720024 6.32,30.949329 6.32,31.824 L6.32,36 L4.992,36 L4.992,28.128 Z M13.312,28.128 L14.64,28.128 L14.64,29.648 C14.7360005,29.4239989 14.8586659,29.2053344 15.008,28.992 C15.1573341,28.7786656 15.335999,28.5920008 15.544,28.432 C15.752001,28.2719992 15.9946653,28.1440005 16.272,28.048 C16.5493347,27.9519995 16.8639982,27.904 17.216,27.904 C17.7280026,27.904 18.1733314,28.0106656 18.552,28.224 C18.9306686,28.4373344 19.2426654,28.7306648 19.488,29.104 C19.7333346,29.4773352 19.9173327,29.9119975 20.04,30.408 C20.1626673,30.9040025 20.224,31.4399971 20.224,32.016 C20.224,32.6986701 20.1440008,33.3013307 19.984,33.824 C19.8239992,34.3466693 19.6000014,34.7839982 19.312,35.136 C19.0239986,35.4880018 18.6880019,35.7546658 18.304,35.936 C17.9199981,36.1173342 17.5040022,36.208 17.056,36.208 C16.4693304,36.208 15.9653354,36.0640014 15.544,35.776 C15.1226646,35.4879986 14.8213342,35.1306688 14.64,34.704 L14.64,38.768 L13.312,38.768 L13.312,28.128 Z M14.64,32.112 C14.64,32.3360011 14.6479999,32.5413324 14.664,32.728 C14.6800001,32.9146676 14.6986666,33.0719994 14.72,33.2 C14.7626669,33.4560013 14.8426661,33.7013322 14.96,33.936 C15.0773339,34.1706678 15.2213325,34.3759991 15.392,34.552 C15.5626675,34.7280009 15.7626655,34.8693328 15.992,34.976 C16.2213345,35.0826672 16.4746653,35.136 16.752,35.136 C17.1146685,35.136 17.4266654,35.0506675 17.688,34.88 C17.9493346,34.7093325 18.1653325,34.4800014 18.336,34.192 C18.5066675,33.9039986 18.6319996,33.5760018 18.712,33.208 C18.7920004,32.8399982 18.832,32.4586686 18.832,32.064 C18.832,31.6693314 18.794667,31.2880018 18.72,30.92 C18.645333,30.5519982 18.5253342,30.2266681 18.36,29.944 C18.1946658,29.6613319 17.978668,29.4346675 17.712,29.264 C17.445332,29.0933325 17.1253352,29.008 16.752,29.008 C16.4639986,29.008 16.2000012,29.0613328 15.96,29.168 C15.7199988,29.2746672 15.5146675,29.4186658 15.344,29.6 C15.1733325,29.7813342 15.0320006,29.9893322 14.92,30.224 C14.8079994,30.4586678 14.7360002,30.7039987 14.704,30.96 C14.6826666,31.0666672 14.6666667,31.2133324 14.656,31.4 C14.6453333,31.5866676 14.64,31.8026654 14.64,32.048 L14.64,32.112 Z M21.888,28.128 L23.232,28.128 L23.232,32.896 C23.232,33.6426704 23.3706653,34.1893316 23.648,34.536 C23.9253347,34.8826684 24.3146642,35.056 24.816,35.056 C25.4560032,35.056 25.9546649,34.8026692 26.312,34.296 C26.6693351,33.7893308 26.848,33.1146709 26.848,32.272 L26.848,28.128 L28.176,28.128 L28.176,36 L26.928,36 L26.928,34.4 C26.8319995,34.6453346 26.7146674,34.8773322 26.576,35.096 C26.4373326,35.3146678 26.2666677,35.5066658 26.064,35.672 C25.8613323,35.8373342 25.626668,35.9679995 25.36,36.064 C25.093332,36.1600005 24.7786685,36.208 24.416,36.208 C23.5626624,36.208 22.9280021,35.9493359 22.512,35.432 C22.0959979,34.9146641 21.888,34.1813381 21.888,33.232 L21.888,28.128 Z M30.912,29.04 L29.568,29.04 L29.568,28.128 L29.856,28.128 C30.1866683,28.128 30.4453324,28.0933337 30.632,28.024 C30.8186676,27.9546663 30.9599995,27.8480007 31.056,27.704 C31.1520005,27.5599993 31.2213331,27.3706678 31.264,27.136 C31.3066669,26.9013322 31.3439998,26.613335 31.376,26.272 L31.408,25.984 L32.24,25.984 L32.24,28.128 L33.936,28.128 L33.936,29.04 L32.24,29.04 L32.24,33.936 C32.24,34.3840022 32.306666,34.7066657 32.44,34.904 C32.573334,35.1013343 32.8213315,35.2 33.184,35.2 C33.4720014,35.2 33.7386654,35.1360006 33.984,35.008 L34.128,35.968 C33.7226646,36.1493342 33.2746691,36.24 32.784,36.24 C32.3999981,36.24 32.0880012,36.1866672 31.848,36.08 C31.6079988,35.9733328 31.4186674,35.8293342 31.28,35.648 C31.1413326,35.4666658 31.0453336,35.2480013 30.992,34.992 C30.9386664,34.7359987 30.912,34.4586682 30.912,34.16 L30.912,29.04 Z" id="Input" fill="#000000"></path>
            </g>
        </g>
    </g>
</svg>