<?xml version="1.0" encoding="UTF-8"?>
<svg width="222px" height="187px" viewBox="0 0 222 187" version="1.1" xmlns="http://www.w3.org/2000/svg" xmlns:xlink="http://www.w3.org/1999/xlink">
    <!-- Generator: Sketch 47.1 (45422) - http://www.bohemiancoding.com/sketch -->
    <title>Trigger</title>
    <desc>Created with Sketch.</desc>
    <defs></defs>
    <g id="Text-area" stroke="none" stroke-width="1" fill="none" fill-rule="evenodd">
        <g id="Text-area-Usage-extra-large-1200" transform="translate(-811.000000, -3891.000000)">
            <g id="Trigger" transform="translate(811.000000, 3891.000000)">
                <rect id="Rectangle-2-Copy" fill="#4C5358" fill-rule="nonzero" x="10" y="0" width="54" height="2" rx="1"></rect>
                <g id="Group-2-Copy" stroke-linecap="square" transform="translate(11.000000, 93.000000)" stroke="#7C878E">
                    <path d="M0.5,0.5 L199.5,0.5" id="Line"></path>
                </g>
                <g id="Group-2-Copy-2" stroke-linecap="square" transform="translate(10.000000, 35.000000)" stroke="#7C878E">
                    <path d="M0.5,0.5 L199.5,0.5" id="Line"></path>
                </g>
                <g id="Group" transform="translate(115.000000, 110.000000)" fill-rule="nonzero">
                    <g id="Button-default" fill="#0D78AA">
                        <rect id="Bg" x="0" y="0" width="99" height="36" rx="3"></rect>
                    </g>
                    <rect id="Rectangle-2" fill="#FFFFFF" x="23" y="16" width="54" height="4" rx="2"></rect>
                </g>
                <rect id="Rectangle-4" fill="#000000" fill-rule="nonzero" x="10" y="73" width="106" height="6" rx="3"></rect>
                <rect id="Rectangle-4-Copy" fill="#000000" fill-rule="nonzero" x="9" y="15" width="106" height="6" rx="3"></rect>
                <g id="Group-7" transform="translate(0.000000, 159.000000)">
                    <rect id="Rectangle-7" fill="#FCD0CC" fill-rule="nonzero" x="0" y="0" width="222" height="28"></rect>
                    <rect id="Rectangle-7" fill="#C30000" fill-rule="nonzero" x="36" y="13" width="37" height="3" rx="1.5"></rect>
                    <g id="exclamation-circle---FontAwesome" transform="translate(7.000000, 6.000000)" fill="#C30000">
                        <path d="M4.26339286,1.43526786 C5.58036373,0.668894978 7.01636127,0.285714286 8.57142857,0.285714286 C10.1264959,0.285714286 11.5606333,0.668894978 12.8738839,1.43526786 C14.1871345,2.20164074 15.2269307,3.24143689 15.9933036,4.5546875 C16.7596765,5.86793811 17.1428571,7.30207556 17.1428571,8.85714286 C17.1428571,10.4122102 16.7596765,11.8463476 15.9933036,13.1595982 C15.2269307,14.4728488 14.1871345,15.512645 12.8738839,16.2790179 C11.5606333,17.0453907 10.1264959,17.4285714 8.57142857,17.4285714 C7.01636127,17.4285714 5.58222383,17.0453907 4.26897321,16.2790179 C2.9557226,15.512645 1.91592645,14.4728488 1.14955357,13.1595982 C0.383180692,11.8463476 0,10.4122102 0,8.85714286 C0,7.30207556 0.383180692,5.86793811 1.14955357,4.5546875 C1.91592645,3.24143689 2.9538625,2.20164074 4.26339286,1.43526786 Z M10,14.203125 L10,12.0825893 C10,11.9784221 9.96651819,11.8909974 9.89955357,11.8203125 C9.83258895,11.7496276 9.75074453,11.7142857 9.65401786,11.7142857 L7.51116071,11.7142857 C7.41443404,11.7142857 7.32886942,11.7514877 7.25446429,11.8258929 C7.18005915,11.900298 7.14285714,11.9858626 7.14285714,12.0825893 L7.14285714,14.203125 C7.14285714,14.2998517 7.18005915,14.3854163 7.25446429,14.4598214 C7.32886942,14.5342266 7.41443404,14.5714286 7.51116071,14.5714286 L9.65401786,14.5714286 C9.75074453,14.5714286 9.83258895,14.5360867 9.89955357,14.4654018 C9.96651819,14.3947169 10,14.3072922 10,14.203125 Z M9.97767857,10.3638393 L10.1785714,3.43303571 C10.1785714,3.34374955 10.1413694,3.27678594 10.0669643,3.23214286 C9.99255915,3.17261875 9.90327433,3.14285714 9.79910714,3.14285714 L7.34375,3.14285714 C7.23958281,3.14285714 7.15029799,3.17261875 7.07589286,3.23214286 C7.00148772,3.27678594 6.96428571,3.34374955 6.96428571,3.43303571 L7.15401786,10.3638393 C7.15401786,10.4382444 7.19121987,10.5033479 7.265625,10.5591518 C7.34003013,10.6149556 7.42931496,10.6428571 7.53348214,10.6428571 L9.59821429,10.6428571 C9.70238147,10.6428571 9.78980619,10.6149556 9.86049107,10.5591518 C9.93117595,10.5033479 9.97023806,10.4382444 9.97767857,10.3638393 Z" id="ïª"></path>
                    </g>
                </g>
                <rect id="Rectangle-2" fill="#4C5358" fill-rule="nonzero" x="11" y="58" width="54" height="2" rx="1"></rect>
            </g>
        </g>
    </g>
</svg>