<?xml version="1.0" encoding="UTF-8"?>
<svg width="200px" height="131px" viewBox="0 0 200 131" version="1.1" xmlns="http://www.w3.org/2000/svg" xmlns:xlink="http://www.w3.org/1999/xlink">
    <!-- Generator: Sketch 47 (45396) - http://www.bohemiancoding.com/sketch -->
    <title>Password</title>
    <desc>Created with Sketch.</desc>
    <defs></defs>
    <g id="Page-1" stroke="none" stroke-width="1" fill="none" fill-rule="evenodd">
        <g id="Buttons-Usage-extra-large-1200" transform="translate(-379.000000, -3256.000000)">
            <g id="Password" transform="translate(379.000000, 3253.000000)">
                <g id="Group-2" transform="translate(0.000000, 75.000000)">
                    <path d="M9.03,8.914 C8.61933128,9.69800392 8.09666984,10.2766648 7.462,10.65 C6.82733016,11.0233352 6.043338,11.21 5.11,11.21 C4.37266298,11.21 3.72166949,11.0770013 3.157,10.811 C2.59233051,10.5449987 2.12100189,10.178669 1.743,9.712 C1.36499811,9.245331 1.08033429,8.69466984 0.889,8.06 C0.69766571,7.42533016 0.602,6.74400364 0.602,6.016 C0.602,5.27866298 0.69999902,4.59966977 0.896,3.979 C1.09200098,3.35833023 1.38133142,2.81933562 1.764,2.362 C2.14666858,1.90466438 2.6179972,1.54766795 3.178,1.291 C3.7380028,1.03433205 4.38199636,0.906 5.11,0.906 C5.9500042,0.906 6.69199678,1.07166501 7.336,1.403 C7.98000322,1.73433499 8.51666452,2.25466312 8.946,2.964 L7.756,3.566 C7.48533198,3.07133086 7.12600224,2.68633471 6.678,2.411 C6.22999776,2.13566529 5.70733632,1.998 5.11,1.998 C4.58733072,1.998 4.12766865,2.10299895 3.731,2.313 C3.33433135,2.52300105 3.00300133,2.80766487 2.737,3.167 C2.47099867,3.52633513 2.27033401,3.95099755 2.135,4.441 C1.99966599,4.93100245 1.932,5.4559972 1.932,6.016 C1.932,6.5760028 2.0019993,7.10566417 2.142,7.605 C2.2820007,8.10433583 2.48499867,8.5406648 2.751,8.914 C3.01700133,9.2873352 3.34833135,9.58133226 3.745,9.796 C4.14166865,10.0106677 4.5966641,10.118 5.11,10.118 C6.40733982,10.118 7.31733072,9.51600602 7.84,8.312 L9.03,8.914 Z M13.342,11.21 C12.8193307,11.21 12.3596687,11.1143343 11.963,10.923 C11.5663314,10.7316657 11.2350013,10.470335 10.969,10.139 C10.7029987,9.80766501 10.5046673,9.42033555 10.374,8.977 C10.2433327,8.53366445 10.178,8.0553359 10.178,7.542 C10.178,7.0286641 10.245666,6.55266886 10.381,6.114 C10.516334,5.67533114 10.7169987,5.2926683 10.983,4.966 C11.2490013,4.6393317 11.5803314,4.3826676 11.977,4.196 C12.3736687,4.0093324 12.8286641,3.916 13.342,3.916 C13.8553359,3.916 14.3103314,4.0093324 14.707,4.196 C15.1036687,4.3826676 15.437332,4.63699839 15.708,4.959 C15.978668,5.28100161 16.181666,5.66366445 16.317,6.107 C16.452334,6.55033555 16.52,7.0286641 16.52,7.542 C16.52,8.0553359 16.452334,8.53366445 16.317,8.977 C16.181666,9.42033555 15.978668,9.80766501 15.708,10.139 C15.437332,10.470335 15.1036687,10.7316657 14.707,10.923 C14.3103314,11.1143343 13.8553359,11.21 13.342,11.21 Z M13.37,10.3 C13.6873349,10.3 13.9673321,10.2300007 14.21,10.09 C14.4526679,9.9499993 14.6533325,9.75633457 14.812,9.509 C14.9706675,9.26166543 15.0919996,8.97000168 15.176,8.634 C15.2600004,8.29799832 15.302,7.93400196 15.302,7.542 C15.302,7.14999804 15.2600004,6.78833499 15.176,6.457 C15.0919996,6.12566501 14.9660008,5.83866788 14.798,5.596 C14.6299992,5.35333212 14.4246679,5.16433401 14.182,5.029 C13.9393321,4.89366599 13.6593349,4.826 13.342,4.826 C13.0153317,4.826 12.7306679,4.89366599 12.488,5.029 C12.2453321,5.16433401 12.0446675,5.35333212 11.886,5.596 C11.7273325,5.83866788 11.6060004,6.12566501 11.522,6.457 C11.4379996,6.78833499 11.396,7.14999804 11.396,7.542 C11.396,7.93400196 11.4379996,8.29799832 11.522,8.634 C11.6060004,8.97000168 11.7296658,9.26166543 11.893,9.509 C12.0563341,9.75633457 12.2616654,9.9499993 12.509,10.09 C12.7563346,10.2300007 13.0433317,10.3 13.37,10.3 Z M18.004,4.112 L19.012,4.112 L19.138,5.484 C19.3153342,5.0639979 19.5976647,4.69766823 19.985,4.385 C20.3723353,4.07233177 20.8506638,3.916 21.42,3.916 C22.1386703,3.916 22.6683316,4.14466438 23.009,4.602 C23.3496684,5.05933562 23.52,5.69866256 23.52,6.52 L23.52,11 L22.358,11 L22.358,6.758 C22.358,6.13266354 22.2320013,5.67300147 21.98,5.379 C21.7279987,5.08499853 21.3873355,4.938 20.958,4.938 C20.4446641,4.938 20.0176684,5.1479979 19.677,5.568 C19.3363316,5.9880021 19.166,6.58066284 19.166,7.346 L19.166,11 L18.004,11 L18.004,4.112 Z M25.872,4.91 L24.682,4.91 L24.682,4.112 L25.816,4.112 C25.741333,3.86933212 25.6783336,3.61033471 25.627,3.335 C25.5756664,3.05966529 25.55,2.80066788 25.55,2.558 C25.55,2.33399888 25.5756664,2.12166767 25.627,1.921 C25.6783336,1.72033233 25.7693327,1.54300077 25.9,1.389 C26.0306673,1.23499923 26.2079989,1.1113338 26.432,1.018 C26.6560011,0.9246662 26.9406649,0.878 27.286,0.878 C27.5380013,0.878 27.7643323,0.89433317 27.965,0.927 C28.1656677,0.95966683 28.3546658,1.01333296 28.532,1.088 L28.336,1.97 C28.2333328,1.9233331 28.1050008,1.88366683 27.951,1.851 C27.7969992,1.81833317 27.6546673,1.802 27.524,1.802 C26.9919973,1.802 26.726,2.10999692 26.726,2.726 C26.726,2.96866788 26.756333,3.22066536 26.817,3.482 C26.877667,3.74333464 26.9406663,3.95333254 27.006,4.112 L28.336,4.112 L28.336,4.91 L27.048,4.91 L27.048,11 L25.872,11 L25.872,4.91 Z M29.652,1.438 L30.814,1.438 L30.814,2.6 L29.652,2.6 L29.652,1.438 Z M29.652,4.112 L30.814,4.112 L30.814,11 L29.652,11 L29.652,4.112 Z M32.606,4.112 L33.614,4.112 L33.726,5.652 C33.922001,5.14799748 34.2346645,4.7326683 34.664,4.406 C35.0933355,4.0793317 35.6019971,3.916 36.19,3.916 L36.19,5.148 C36.0593327,5.11999986 35.9146675,5.106 35.756,5.106 C35.5226655,5.106 35.2893345,5.14799958 35.056,5.232 C34.8226655,5.31600042 34.6103343,5.4513324 34.419,5.638 C34.2276657,5.8246676 34.0713339,6.06499853 33.95,6.359 C33.8286661,6.65300147 33.768,7.0099979 33.768,7.43 L33.768,11 L32.606,11 L32.606,4.112 Z M37.338,4.112 L38.346,4.112 L38.472,5.456 C38.6400008,4.97999762 38.9013316,4.60433471 39.256,4.329 C39.6106684,4.05366529 40.0446641,3.916 40.558,3.916 C41.099336,3.916 41.5239985,4.06999846 41.832,4.378 C42.1400015,4.68600154 42.3359996,5.05933114 42.42,5.498 C42.5040004,5.28333226 42.6089994,5.08033429 42.735,4.889 C42.8610006,4.69766571 43.0126658,4.52966739 43.19,4.385 C43.3673342,4.24033261 43.5726655,4.12600042 43.806,4.042 C44.0393345,3.95799958 44.3053318,3.916 44.604,3.916 C44.996002,3.916 45.3203321,3.98366599 45.577,4.119 C45.833668,4.25433401 46.0389992,4.4386655 46.193,4.672 C46.3470008,4.9053345 46.4566663,5.17833177 46.522,5.491 C46.5873337,5.80366823 46.62,6.13266494 46.62,6.478 L46.62,11 L45.458,11 L45.458,6.772 C45.458,6.15599692 45.3483344,5.69633485 45.129,5.393 C44.9096656,5.08966515 44.5900021,4.938 44.17,4.938 C43.7126644,4.938 43.3300015,5.14099797 43.022,5.547 C42.7139985,5.95300203 42.56,6.53399622 42.56,7.29 L42.56,11 L41.398,11 L41.398,6.828 C41.398,6.18399678 41.2860011,5.70800154 41.062,5.4 C40.8379989,5.09199846 40.5253353,4.938 40.124,4.938 C39.6759978,4.938 39.2933349,5.14566459 38.976,5.561 C38.6586651,5.97633541 38.5,6.57599608 38.5,7.36 L38.5,11 L37.338,11 L37.338,4.112 Z M51.534,4.112 L52.696,4.112 L52.696,5.442 C52.7800004,5.24599902 52.8873327,5.0546676 53.018,4.868 C53.1486673,4.6813324 53.3049991,4.5180007 53.487,4.378 C53.6690009,4.2379993 53.8813321,4.12600042 54.124,4.042 C54.3666679,3.95799958 54.6419985,3.916 54.95,3.916 C55.3980022,3.916 55.787665,4.0093324 56.119,4.196 C56.450335,4.3826676 56.7233323,4.6393317 56.938,4.966 C57.1526677,5.2926683 57.3136661,5.67299783 57.421,6.107 C57.5283339,6.54100217 57.582,7.00999748 57.582,7.514 C57.582,8.11133632 57.5120007,8.63866438 57.372,9.096 C57.2319993,9.55333562 57.0360013,9.93599846 56.784,10.244 C56.5319987,10.5520015 56.2380017,10.7853325 55.902,10.944 C55.5659983,11.1026675 55.202002,11.182 54.81,11.182 C54.2966641,11.182 53.8556685,11.0560013 53.487,10.804 C53.1183315,10.5519987 52.8546675,10.2393352 52.696,9.866 L52.696,13.422 L51.534,13.422 L51.534,4.112 Z M52.696,7.598 C52.696,7.79400098 52.7029999,7.97366585 52.717,8.137 C52.7310001,8.30033415 52.7473332,8.43799944 52.766,8.55 C52.8033335,8.77400112 52.8733328,8.98866564 52.976,9.194 C53.0786672,9.39933436 53.2046659,9.57899923 53.354,9.733 C53.5033341,9.88700077 53.6783323,10.0106662 53.879,10.104 C54.0796677,10.1973338 54.3013321,10.244 54.544,10.244 C54.8613349,10.244 55.1343322,10.1693341 55.363,10.02 C55.5916678,9.87066592 55.7806659,9.67000126 55.93,9.418 C56.0793341,9.16599874 56.1889997,8.87900161 56.259,8.557 C56.3290004,8.23499839 56.364,7.90133506 56.364,7.556 C56.364,7.21066494 56.3313337,6.87700161 56.266,6.555 C56.2006663,6.23299839 56.0956674,5.94833457 55.951,5.701 C55.8063326,5.45366543 55.6173345,5.25533408 55.384,5.106 C55.1506655,4.95666592 54.8706683,4.882 54.544,4.882 C54.2919987,4.882 54.0610011,4.9286662 53.851,5.022 C53.640999,5.1153338 53.4613341,5.24133254 53.312,5.4 C53.1626659,5.55866746 53.0390005,5.74066564 52.941,5.946 C52.8429995,6.15133436 52.7800001,6.36599888 52.752,6.59 C52.7333332,6.6833338 52.7193334,6.81166585 52.71,6.975 C52.7006666,7.13833415 52.696,7.32733226 52.696,7.542 L52.696,7.598 Z M63.392,11 C63.2893328,10.6639983 63.2286668,10.262669 63.21,9.796 C63.0233324,10.2253355 62.7363353,10.5683321 62.349,10.825 C61.9616647,11.081668 61.5020027,11.21 60.97,11.21 C60.2979966,11.21 59.766002,11.0186686 59.374,10.636 C58.981998,10.2533314 58.786,9.74000322 58.786,9.096 C58.786,8.73199818 58.8513327,8.42633457 58.982,8.179 C59.1126673,7.93166543 59.2946655,7.72633415 59.528,7.563 C59.7613345,7.39966585 60.0366651,7.2713338 60.354,7.178 C60.6713349,7.0846662 61.0166648,7.01000028 61.39,6.954 L63.154,6.688 L63.154,6.254 C63.154,5.94599846 63.116667,5.6986676 63.042,5.512 C62.967333,5.3253324 62.8646673,5.18066718 62.734,5.078 C62.6033327,4.97533282 62.4540008,4.90766683 62.286,4.875 C62.1179992,4.84233317 61.9406676,4.826 61.754,4.826 C61.2219973,4.826 60.7833351,4.92399902 60.438,5.12 C60.0926649,5.31600098 59.8033345,5.56333184 59.57,5.862 L58.968,5.106 C59.238668,4.7793317 59.6143309,4.4993345 60.095,4.266 C60.5756691,4.0326655 61.1706631,3.916 61.88,3.916 C62.738671,3.916 63.3616647,4.10733142 63.749,4.49 C64.1363353,4.87266858 64.33,5.48866242 64.33,6.338 L64.33,9.124 C64.33,9.34800112 64.3323333,9.54399916 64.337,9.712 C64.3416667,9.88000084 64.3509999,10.0363326 64.365,10.181 C64.3790001,10.3256674 64.3999999,10.4633327 64.428,10.594 C64.4560001,10.7246673 64.4933331,10.8599993 64.54,11 L63.392,11 Z M63.154,7.458 L61.502,7.724 C60.9326638,7.82666718 60.5290012,7.98066564 60.291,8.186 C60.0529988,8.39133436 59.934,8.67599818 59.934,9.04 C59.934,9.4133352 60.0436656,9.72599874 60.263,9.978 C60.4823344,10.2300013 60.8066645,10.356 61.236,10.356 C61.4973346,10.356 61.7446655,10.3046672 61.978,10.202 C62.2113345,10.0993328 62.4143325,9.95700091 62.587,9.775 C62.7596675,9.59299909 62.8973328,9.37366795 63,9.117 C63.1026672,8.86033205 63.154,8.57800154 63.154,8.27 L63.154,7.458 Z M66.318,9.306 C66.5513345,9.60466816 66.8523315,9.85199902 67.221,10.048 C67.5896685,10.244001 67.9933311,10.342 68.432,10.342 C68.824002,10.342 69.1646652,10.2486676 69.454,10.062 C69.7433348,9.8753324 69.888,9.5953352 69.888,9.222 C69.888,8.93266522 69.7923343,8.70633415 69.601,8.543 C69.4096657,8.37966585 69.1716681,8.24200056 68.887,8.13 C68.6023319,8.01799944 68.2920017,7.9153338 67.956,7.822 C67.6199983,7.7286662 67.3096681,7.60733408 67.025,7.458 C66.7403319,7.30866592 66.5023343,7.11266788 66.311,6.87 C66.1196657,6.62733212 66.024,6.2960021 66.024,5.876 C66.024,5.53066494 66.0939993,5.23433457 66.234,4.987 C66.3740007,4.73966543 66.5583322,4.53666746 66.787,4.378 C67.0156678,4.21933254 67.2793318,4.10266704 67.578,4.028 C67.8766682,3.95333296 68.1893317,3.916 68.516,3.916 C69.4866715,3.916 70.2939968,4.1959972 70.938,4.756 L70.35,5.54 C70.1446656,5.32533226 69.8716684,5.14566739 69.531,5.001 C69.1903316,4.85633261 68.8380018,4.784 68.474,4.784 C68.3153325,4.784 68.1590008,4.80266648 68.005,4.84 C67.8509992,4.87733352 67.7156672,4.93566627 67.599,5.015 C67.4823328,5.09433373 67.3890004,5.19466606 67.319,5.316 C67.2489997,5.43733394 67.214,5.58666578 67.214,5.764 C67.214,6.03466802 67.3096657,6.24466592 67.501,6.394 C67.6923343,6.54333408 67.9303319,6.67166613 68.215,6.779 C68.4996681,6.88633387 68.807665,6.98899951 69.139,7.087 C69.470335,7.18500049 69.7783319,7.31099923 70.063,7.465 C70.3476681,7.61900077 70.5856657,7.82199874 70.777,8.074 C70.9683343,8.32600126 71.064,8.6619979 71.064,9.082 C71.064,9.43666844 70.9916674,9.74699867 70.847,10.013 C70.7023326,10.2790013 70.5110012,10.5006658 70.273,10.678 C70.0349988,10.8553342 69.7596682,10.9883329 69.447,11.077 C69.1343318,11.1656671 68.8100017,11.21 68.474,11.21 C67.3166609,11.21 66.3973367,10.8366704 65.716,10.09 L66.318,9.306 Z M72.548,9.306 C72.7813345,9.60466816 73.0823315,9.85199902 73.451,10.048 C73.8196685,10.244001 74.2233311,10.342 74.662,10.342 C75.054002,10.342 75.3946652,10.2486676 75.684,10.062 C75.9733348,9.8753324 76.118,9.5953352 76.118,9.222 C76.118,8.93266522 76.0223343,8.70633415 75.831,8.543 C75.6396657,8.37966585 75.4016681,8.24200056 75.117,8.13 C74.8323319,8.01799944 74.5220017,7.9153338 74.186,7.822 C73.8499983,7.7286662 73.5396681,7.60733408 73.255,7.458 C72.9703319,7.30866592 72.7323343,7.11266788 72.541,6.87 C72.3496657,6.62733212 72.254,6.2960021 72.254,5.876 C72.254,5.53066494 72.3239993,5.23433457 72.464,4.987 C72.6040007,4.73966543 72.7883322,4.53666746 73.017,4.378 C73.2456678,4.21933254 73.5093318,4.10266704 73.808,4.028 C74.1066682,3.95333296 74.4193317,3.916 74.746,3.916 C75.7166715,3.916 76.5239968,4.1959972 77.168,4.756 L76.58,5.54 C76.3746656,5.32533226 76.1016684,5.14566739 75.761,5.001 C75.4203316,4.85633261 75.0680018,4.784 74.704,4.784 C74.5453325,4.784 74.3890008,4.80266648 74.235,4.84 C74.0809992,4.87733352 73.9456672,4.93566627 73.829,5.015 C73.7123327,5.09433373 73.6190003,5.19466606 73.549,5.316 C73.4789997,5.43733394 73.444,5.58666578 73.444,5.764 C73.444,6.03466802 73.5396657,6.24466592 73.731,6.394 C73.9223343,6.54333408 74.1603319,6.67166613 74.445,6.779 C74.7296681,6.88633387 75.037665,6.98899951 75.369,7.087 C75.700335,7.18500049 76.0083319,7.31099923 76.293,7.465 C76.5776681,7.61900077 76.8156657,7.82199874 77.007,8.074 C77.1983343,8.32600126 77.294,8.6619979 77.294,9.082 C77.294,9.43666844 77.2216674,9.74699867 77.077,10.013 C76.9323326,10.2790013 76.7410012,10.5006658 76.503,10.678 C76.2649988,10.8553342 75.9896682,10.9883329 75.677,11.077 C75.3643318,11.1656671 75.0400017,11.21 74.704,11.21 C73.5466609,11.21 72.6273367,10.8366704 71.946,10.09 L72.548,9.306 Z M78.148,4.112 L79.408,4.112 L80.808,9.88 L82.194,4.112 L83.482,4.112 L84.84,9.88 L86.254,4.112 L87.514,4.112 L85.484,11 L84.196,11 L82.824,5.694 L81.452,11 L80.164,11 L78.148,4.112 Z M91.714,11.21 C91.1913307,11.21 90.7316687,11.1143343 90.335,10.923 C89.9383314,10.7316657 89.6070013,10.470335 89.341,10.139 C89.0749987,9.80766501 88.8766673,9.42033555 88.746,8.977 C88.6153327,8.53366445 88.55,8.0553359 88.55,7.542 C88.55,7.0286641 88.617666,6.55266886 88.753,6.114 C88.888334,5.67533114 89.0889987,5.2926683 89.355,4.966 C89.6210013,4.6393317 89.9523314,4.3826676 90.349,4.196 C90.7456687,4.0093324 91.2006641,3.916 91.714,3.916 C92.2273359,3.916 92.6823314,4.0093324 93.079,4.196 C93.4756687,4.3826676 93.809332,4.63699839 94.08,4.959 C94.350668,5.28100161 94.553666,5.66366445 94.689,6.107 C94.824334,6.55033555 94.892,7.0286641 94.892,7.542 C94.892,8.0553359 94.824334,8.53366445 94.689,8.977 C94.553666,9.42033555 94.350668,9.80766501 94.08,10.139 C93.809332,10.470335 93.4756687,10.7316657 93.079,10.923 C92.6823314,11.1143343 92.2273359,11.21 91.714,11.21 Z M91.742,10.3 C92.0593349,10.3 92.3393321,10.2300007 92.582,10.09 C92.8246679,9.9499993 93.0253325,9.75633457 93.184,9.509 C93.3426675,9.26166543 93.4639996,8.97000168 93.548,8.634 C93.6320004,8.29799832 93.674,7.93400196 93.674,7.542 C93.674,7.14999804 93.6320004,6.78833499 93.548,6.457 C93.4639996,6.12566501 93.3380008,5.83866788 93.17,5.596 C93.0019992,5.35333212 92.7966679,5.16433401 92.554,5.029 C92.3113321,4.89366599 92.0313349,4.826 91.714,4.826 C91.3873317,4.826 91.1026679,4.89366599 90.86,5.029 C90.6173321,5.16433401 90.4166675,5.35333212 90.258,5.596 C90.0993325,5.83866788 89.9780004,6.12566501 89.894,6.457 C89.8099996,6.78833499 89.768,7.14999804 89.768,7.542 C89.768,7.93400196 89.8099996,8.29799832 89.894,8.634 C89.9780004,8.97000168 90.1016659,9.26166543 90.265,9.509 C90.4283342,9.75633457 90.6336654,9.9499993 90.881,10.09 C91.1283346,10.2300007 91.4153317,10.3 91.742,10.3 Z M96.376,4.112 L97.384,4.112 L97.496,5.652 C97.692001,5.14799748 98.0046645,4.7326683 98.434,4.406 C98.8633355,4.0793317 99.3719971,3.916 99.96,3.916 L99.96,5.148 C99.8293327,5.11999986 99.6846675,5.106 99.526,5.106 C99.2926655,5.106 99.0593345,5.14799958 98.826,5.232 C98.5926655,5.31600042 98.3803343,5.4513324 98.189,5.638 C97.9976657,5.8246676 97.8413339,6.06499853 97.72,6.359 C97.5986661,6.65300147 97.538,7.0099979 97.538,7.43 L97.538,11 L96.376,11 L96.376,4.112 Z M105.742,9.656 C105.555332,10.122669 105.280002,10.491332 104.916,10.762 C104.551998,11.032668 104.099336,11.168 103.558,11.168 C103.128665,11.168 102.743668,11.0793342 102.403,10.902 C102.062332,10.7246658 101.773001,10.4773349 101.535,10.16 C101.296999,9.84266508 101.115001,9.46000224 100.989,9.012 C100.862999,8.56399776 100.8,8.06933604 100.8,7.528 C100.8,6.9679972 100.865333,6.46633555 100.996,6.023 C101.126667,5.57966445 101.313332,5.20400154 101.556,4.896 C101.798668,4.58799846 102.090332,4.35000084 102.431,4.182 C102.771668,4.01399916 103.147331,3.93 103.558,3.93 C104.118003,3.93 104.575332,4.06299867 104.93,4.329 C105.284668,4.59500133 105.536666,4.9146648 105.686,5.288 L105.686,1.116 L106.862,1.116 L106.862,11 L105.742,11 L105.742,9.656 Z M105.686,7.514 C105.686,7.22466522 105.679,6.99833415 105.665,6.835 C105.651,6.67166585 105.634667,6.53866718 105.616,6.436 C105.569333,6.23066564 105.499334,6.0346676 105.406,5.848 C105.312666,5.6613324 105.193667,5.49566739 105.049,5.351 C104.904333,5.20633261 104.734001,5.09200042 104.538,5.008 C104.341999,4.92399958 104.118001,4.882 103.866,4.882 C103.548665,4.882 103.275668,4.9519993 103.047,5.092 C102.818332,5.2320007 102.627001,5.42099881 102.473,5.659 C102.318999,5.89700119 102.204667,6.17699839 102.13,6.499 C102.055333,6.82100161 102.018,7.16399818 102.018,7.528 C102.018,7.92000196 102.06,8.28166501 102.144,8.613 C102.228,8.94433499 102.349333,9.22899881 102.508,9.467 C102.666667,9.70500119 102.862666,9.89166599 103.096,10.027 C103.329335,10.162334 103.595332,10.23 103.894,10.23 C104.127335,10.23 104.339666,10.1880004 104.531,10.104 C104.722334,10.0199996 104.890333,9.90333408 105.035,9.754 C105.179667,9.60466592 105.298666,9.43433429 105.392,9.243 C105.485334,9.05166571 105.555333,8.84866774 105.602,8.634 C105.658,8.37266536 105.686,8.02266886 105.686,7.584 L105.686,7.514 Z" id="Confirm-password" fill="#C30000"></path>
                    <path d="M0.84,49.528 L3.684,49.528 C4.10800212,49.528 4.4999982,49.5759995 4.86,49.672 C5.2200018,49.7680005 5.5299987,49.915999 5.79,50.116 C6.0500013,50.316001 6.25399926,50.5699985 6.402,50.878 C6.55000074,51.1860015 6.624,51.5559978 6.624,51.988 C6.624,52.4680024 6.55000074,52.8759983 6.402,53.212 C6.25399926,53.5480017 6.04800132,53.819999 5.784,54.028 C5.51999868,54.236001 5.21000178,54.3859995 4.854,54.478 C4.49799822,54.5700005 4.11200208,54.616 3.696,54.616 L1.92,54.616 L1.92,58 L0.84,58 L0.84,49.528 Z M3.516,53.752 C4.14000312,53.752 4.62399828,53.6180013 4.968,53.35 C5.31200172,53.0819987 5.484,52.6280032 5.484,51.988 C5.484,51.6919985 5.4340005,51.440001 5.334,51.232 C5.2339995,51.023999 5.09800086,50.8560006 4.926,50.728 C4.75399914,50.5999994 4.55000118,50.5080003 4.314,50.452 C4.07799882,50.3959997 3.82400136,50.368 3.552,50.368 L1.92,50.368 L1.92,53.752 L3.516,53.752 Z M11.16,58 C11.0719996,57.7119986 11.0200001,57.368002 11.004,56.968 C10.8439992,57.3360018 10.5980017,57.6299989 10.266,57.85 C9.93399834,58.0700011 9.54000228,58.18 9.084,58.18 C8.50799712,58.18 8.05200168,58.0160016 7.716,57.688 C7.37999832,57.3599984 7.212,56.9200028 7.212,56.368 C7.212,56.0559984 7.26799944,55.7940011 7.38,55.582 C7.49200056,55.3699989 7.647999,55.1940007 7.848,55.054 C8.048001,54.9139993 8.28399864,54.8040004 8.556,54.724 C8.82800136,54.6439996 9.1239984,54.5800002 9.444,54.532 L10.956,54.304 L10.956,53.932 C10.956,53.6679987 10.9240003,53.4560008 10.86,53.296 C10.7959997,53.1359992 10.7080006,53.0120004 10.596,52.924 C10.4839994,52.8359996 10.3560007,52.7780001 10.212,52.75 C10.0679993,52.7219999 9.9160008,52.708 9.756,52.708 C9.29999772,52.708 8.92400148,52.7919992 8.628,52.96 C8.33199852,53.1280008 8.084001,53.3399987 7.884,53.596 L7.368,52.948 C7.60000116,52.6679986 7.92199794,52.428001 8.334,52.228 C8.74600206,52.027999 9.25599696,51.928 9.864,51.928 C10.6000037,51.928 11.1339983,52.0919984 11.466,52.42 C11.7980017,52.7480016 11.964,53.2759964 11.964,54.004 L11.964,56.392 C11.964,56.584001 11.966,56.7519993 11.97,56.896 C11.974,57.0400007 11.9819999,57.1739994 11.994,57.298 C12.0060001,57.4220006 12.0239999,57.5399994 12.048,57.652 C12.0720001,57.7640006 12.1039998,57.8799994 12.144,58 L11.16,58 Z M10.956,54.964 L9.54,55.192 C9.05199756,55.2800004 8.70600102,55.4119991 8.502,55.588 C8.29799898,55.7640009 8.196,56.0079984 8.196,56.32 C8.196,56.6400016 8.28999906,56.9079989 8.478,57.124 C8.66600094,57.3400011 8.94399816,57.448 9.312,57.448 C9.53600112,57.448 9.747999,57.4040004 9.948,57.316 C10.148001,57.2279996 10.3219993,57.1060008 10.47,56.95 C10.6180007,56.7939992 10.7359996,56.6060011 10.824,56.386 C10.9120004,56.1659989 10.956,55.9240013 10.956,55.66 L10.956,54.964 Z M13.668,56.548 C13.868001,56.8040013 14.1259984,57.0159992 14.442,57.184 C14.7580016,57.3520008 15.1039981,57.436 15.48,57.436 C15.8160017,57.436 16.1079988,57.3560008 16.356,57.196 C16.6040012,57.0359992 16.728,56.7960016 16.728,56.476 C16.728,56.2279988 16.6460008,56.0340007 16.482,55.894 C16.3179992,55.7539993 16.1140012,55.6360005 15.87,55.54 C15.6259988,55.4439995 15.3600014,55.3560004 15.072,55.276 C14.7839986,55.1959996 14.5180012,55.0920006 14.274,54.964 C14.0299988,54.8359994 13.8260008,54.668001 13.662,54.46 C13.4979992,54.251999 13.416,53.9680018 13.416,53.608 C13.416,53.3119985 13.4759994,53.0580011 13.596,52.846 C13.7160006,52.6339989 13.873999,52.4600007 14.07,52.324 C14.266001,52.1879993 14.4919987,52.0880003 14.748,52.024 C15.0040013,51.9599997 15.2719986,51.928 15.552,51.928 C16.3840042,51.928 17.0759972,52.1679976 17.628,52.648 L17.124,53.32 C16.9479991,53.1359991 16.7140015,52.9820006 16.422,52.858 C16.1299985,52.7339994 15.8280016,52.672 15.516,52.672 C15.3799993,52.672 15.2460007,52.6879998 15.114,52.72 C14.9819993,52.7520002 14.8660005,52.8019997 14.766,52.87 C14.6659995,52.9380003 14.5860003,53.0239995 14.526,53.128 C14.4659997,53.2320005 14.436,53.3599992 14.436,53.512 C14.436,53.7440012 14.5179992,53.9239994 14.682,54.052 C14.8460008,54.1800006 15.0499988,54.2899995 15.294,54.382 C15.5380012,54.4740005 15.8019986,54.5619996 16.086,54.646 C16.3700014,54.7300004 16.6339988,54.8379993 16.878,54.97 C17.1220012,55.1020007 17.3259992,55.2759989 17.49,55.492 C17.6540008,55.7080011 17.736,55.9959982 17.736,56.356 C17.736,56.6600015 17.6740006,56.9259989 17.55,57.154 C17.4259994,57.3820011 17.262001,57.5719992 17.058,57.724 C16.853999,57.8760008 16.6180013,57.9899996 16.35,58.066 C16.0819987,58.1420004 15.8040014,58.18 15.516,58.18 C14.523995,58.18 13.7360029,57.8600032 13.152,57.22 L13.668,56.548 Z M19.008,56.548 C19.208001,56.8040013 19.4659984,57.0159992 19.782,57.184 C20.0980016,57.3520008 20.4439981,57.436 20.82,57.436 C21.1560017,57.436 21.4479988,57.3560008 21.696,57.196 C21.9440012,57.0359992 22.068,56.7960016 22.068,56.476 C22.068,56.2279988 21.9860008,56.0340007 21.822,55.894 C21.6579992,55.7539993 21.4540012,55.6360005 21.21,55.54 C20.9659988,55.4439995 20.7000014,55.3560004 20.412,55.276 C20.1239986,55.1959996 19.8580012,55.0920006 19.614,54.964 C19.3699988,54.8359994 19.1660008,54.668001 19.002,54.46 C18.8379992,54.251999 18.756,53.9680018 18.756,53.608 C18.756,53.3119985 18.8159994,53.0580011 18.936,52.846 C19.0560006,52.6339989 19.213999,52.4600007 19.41,52.324 C19.606001,52.1879993 19.8319987,52.0880003 20.088,52.024 C20.3440013,51.9599997 20.6119986,51.928 20.892,51.928 C21.7240042,51.928 22.4159972,52.1679976 22.968,52.648 L22.464,53.32 C22.2879991,53.1359991 22.0540015,52.9820006 21.762,52.858 C21.4699985,52.7339994 21.1680016,52.672 20.856,52.672 C20.7199993,52.672 20.5860007,52.6879998 20.454,52.72 C20.3219993,52.7520002 20.2060005,52.8019997 20.106,52.87 C20.0059995,52.9380003 19.9260003,53.0239995 19.866,53.128 C19.8059997,53.2320005 19.776,53.3599992 19.776,53.512 C19.776,53.7440012 19.8579992,53.9239994 20.022,54.052 C20.1860008,54.1800006 20.3899988,54.2899995 20.634,54.382 C20.8780012,54.4740005 21.1419986,54.5619996 21.426,54.646 C21.7100014,54.7300004 21.9739988,54.8379993 22.218,54.97 C22.4620012,55.1020007 22.6659992,55.2759989 22.83,55.492 C22.9940008,55.7080011 23.076,55.9959982 23.076,56.356 C23.076,56.6600015 23.0140006,56.9259989 22.89,57.154 C22.7659994,57.3820011 22.602001,57.5719992 22.398,57.724 C22.193999,57.8760008 21.9580013,57.9899996 21.69,58.066 C21.4219987,58.1420004 21.1440014,58.18 20.856,58.18 C19.863995,58.18 19.0760029,57.8600032 18.492,57.22 L19.008,56.548 Z M23.808,52.096 L24.888,52.096 L26.088,57.04 L27.276,52.096 L28.38,52.096 L29.544,57.04 L30.756,52.096 L31.836,52.096 L30.096,58 L28.992,58 L27.816,53.452 L26.64,58 L25.536,58 L23.808,52.096 Z M35.436,58.18 C34.9879978,58.18 34.5940017,58.0980008 34.254,57.934 C33.9139983,57.7699992 33.6300011,57.5460014 33.402,57.262 C33.1739989,56.9779986 33.0040006,56.6460019 32.892,56.266 C32.7799994,55.8859981 32.724,55.4760022 32.724,55.036 C32.724,54.5959978 32.7819994,54.1880019 32.898,53.812 C33.0140006,53.4359981 33.1859989,53.1080014 33.414,52.828 C33.6420011,52.5479986 33.9259983,52.3280008 34.266,52.168 C34.6060017,52.0079992 34.9959978,51.928 35.436,51.928 C35.8760022,51.928 36.2659983,52.0079992 36.606,52.168 C36.9460017,52.3280008 37.2319988,52.5459986 37.464,52.822 C37.6960012,53.0980014 37.8699994,53.4259981 37.986,53.806 C38.1020006,54.1860019 38.16,54.5959978 38.16,55.036 C38.16,55.4760022 38.1020006,55.8859981 37.986,56.266 C37.8699994,56.6460019 37.6960012,56.9779986 37.464,57.262 C37.2319988,57.5460014 36.9460017,57.7699992 36.606,57.934 C36.2659983,58.0980008 35.8760022,58.18 35.436,58.18 Z M35.46,57.4 C35.7320014,57.4 35.971999,57.3400006 36.18,57.22 C36.388001,57.0999994 36.5599993,56.9340011 36.696,56.722 C36.8320007,56.5099989 36.9359996,56.2600014 37.008,55.972 C37.0800004,55.6839986 37.116,55.3720017 37.116,55.036 C37.116,54.6999983 37.0800004,54.3900014 37.008,54.106 C36.9359996,53.8219986 36.8280007,53.576001 36.684,53.368 C36.5399993,53.159999 36.364001,52.9980006 36.156,52.882 C35.947999,52.7659994 35.7080014,52.708 35.436,52.708 C35.1559986,52.708 34.912001,52.7659994 34.704,52.882 C34.495999,52.9980006 34.3240007,53.159999 34.188,53.368 C34.0519993,53.576001 33.9480004,53.8219986 33.876,54.106 C33.8039996,54.3900014 33.768,54.6999983 33.768,55.036 C33.768,55.3720017 33.8039996,55.6839986 33.876,55.972 C33.9480004,56.2600014 34.0539993,56.5099989 34.194,56.722 C34.3340007,56.9340011 34.5099989,57.0999994 34.722,57.22 C34.9340011,57.3400006 35.1799986,57.4 35.46,57.4 Z M39.432,52.096 L40.296,52.096 L40.392,53.416 C40.5600008,52.9839978 40.8279982,52.6280014 41.196,52.348 C41.5640018,52.0679986 41.9999975,51.928 42.504,51.928 L42.504,52.984 C42.3919994,52.9599999 42.2680007,52.948 42.132,52.948 C41.931999,52.948 41.732001,52.9839996 41.532,53.056 C41.331999,53.1280004 41.1500008,53.2439992 40.986,53.404 C40.8219992,53.5640008 40.6880005,53.7699987 40.584,54.022 C40.4799995,54.2740013 40.428,54.5799982 40.428,54.94 L40.428,58 L39.432,58 L39.432,52.096 Z M47.46,56.848 C47.2999992,57.248002 47.0640016,57.5639988 46.752,57.796 C46.4399984,58.0280012 46.0520023,58.144 45.588,58.144 C45.2199982,58.144 44.8900015,58.0680008 44.598,57.916 C44.3059985,57.7639992 44.058001,57.5520014 43.854,57.28 C43.649999,57.0079986 43.4940005,56.6800019 43.386,56.296 C43.2779995,55.9119981 43.224,55.4880023 43.224,55.024 C43.224,54.5439976 43.2799994,54.1140019 43.392,53.734 C43.5040006,53.3539981 43.663999,53.0320013 43.872,52.768 C44.080001,52.5039987 44.3299985,52.3000007 44.622,52.156 C44.9140015,52.0119993 45.2359982,51.94 45.588,51.94 C46.0680024,51.94 46.4599985,52.0539989 46.764,52.282 C47.0680015,52.5100011 47.2839994,52.7839984 47.412,53.104 L47.412,49.528 L48.42,49.528 L48.42,58 L47.46,58 L47.46,56.848 Z M47.412,55.012 C47.412,54.7639988 47.4060001,54.5700007 47.394,54.43 C47.3819999,54.2899993 47.3680001,54.1760004 47.352,54.088 C47.3119998,53.9119991 47.2520004,53.7440008 47.172,53.584 C47.0919996,53.4239992 46.9900006,53.2820006 46.866,53.158 C46.7419994,53.0339994 46.5960008,52.9360004 46.428,52.864 C46.2599992,52.7919996 46.0680011,52.756 45.852,52.756 C45.5799986,52.756 45.346001,52.8159994 45.15,52.936 C44.953999,53.0560006 44.7900007,53.217999 44.658,53.422 C44.5259993,53.626001 44.4280003,53.8659986 44.364,54.142 C44.2999997,54.4180014 44.268,54.7119984 44.268,55.024 C44.268,55.3600017 44.3039996,55.6699986 44.376,55.954 C44.4480004,56.2380014 44.5519993,56.481999 44.688,56.686 C44.8240007,56.890001 44.991999,57.0499994 45.192,57.166 C45.392001,57.2820006 45.6199987,57.34 45.876,57.34 C46.076001,57.34 46.2579992,57.3040004 46.422,57.232 C46.5860008,57.1599996 46.7299994,57.0600006 46.854,56.932 C46.9780006,56.8039994 47.0799996,56.6580008 47.16,56.494 C47.2400004,56.3299992 47.2999998,56.1560009 47.34,55.972 C47.3880002,55.7479989 47.412,55.4480019 47.412,55.072 L47.412,55.012 Z M50.052,56.548 C50.252001,56.8040013 50.5099984,57.0159992 50.826,57.184 C51.1420016,57.3520008 51.4879981,57.436 51.864,57.436 C52.2000017,57.436 52.4919988,57.3560008 52.74,57.196 C52.9880012,57.0359992 53.112,56.7960016 53.112,56.476 C53.112,56.2279988 53.0300008,56.0340007 52.866,55.894 C52.7019992,55.7539993 52.4980012,55.6360005 52.254,55.54 C52.0099988,55.4439995 51.7440014,55.3560004 51.456,55.276 C51.1679986,55.1959996 50.9020012,55.0920006 50.658,54.964 C50.4139988,54.8359994 50.2100008,54.668001 50.046,54.46 C49.8819992,54.251999 49.8,53.9680018 49.8,53.608 C49.8,53.3119985 49.8599994,53.0580011 49.98,52.846 C50.1000006,52.6339989 50.257999,52.4600007 50.454,52.324 C50.650001,52.1879993 50.8759987,52.0880003 51.132,52.024 C51.3880013,51.9599997 51.6559986,51.928 51.936,51.928 C52.7680042,51.928 53.4599972,52.1679976 54.012,52.648 L53.508,53.32 C53.3319991,53.1359991 53.0980015,52.9820006 52.806,52.858 C52.5139985,52.7339994 52.2120016,52.672 51.9,52.672 C51.7639993,52.672 51.6300007,52.6879998 51.498,52.72 C51.3659993,52.7520002 51.2500005,52.8019997 51.15,52.87 C51.0499995,52.9380003 50.9700003,53.0239995 50.91,53.128 C50.8499997,53.2320005 50.82,53.3599992 50.82,53.512 C50.82,53.7440012 50.9019992,53.9239994 51.066,54.052 C51.2300008,54.1800006 51.4339988,54.2899995 51.678,54.382 C51.9220012,54.4740005 52.1859986,54.5619996 52.47,54.646 C52.7540014,54.7300004 53.0179988,54.8379993 53.262,54.97 C53.5060012,55.1020007 53.7099992,55.2759989 53.874,55.492 C54.0380008,55.7080011 54.12,55.9959982 54.12,56.356 C54.12,56.6600015 54.0580006,56.9259989 53.934,57.154 C53.8099994,57.3820011 53.646001,57.5719992 53.442,57.724 C53.237999,57.8760008 53.0020013,57.9899996 52.734,58.066 C52.4659987,58.1420004 52.1880014,58.18 51.9,58.18 C50.907995,58.18 50.1200029,57.8600032 49.536,57.22 L50.052,56.548 Z M61.956,56.848 C61.7959992,57.248002 61.5600016,57.5639988 61.248,57.796 C60.9359984,58.0280012 60.5480023,58.144 60.084,58.144 C59.7159982,58.144 59.3860015,58.0680008 59.094,57.916 C58.8019985,57.7639992 58.554001,57.5520014 58.35,57.28 C58.145999,57.0079986 57.9900005,56.6800019 57.882,56.296 C57.7739995,55.9119981 57.72,55.4880023 57.72,55.024 C57.72,54.5439976 57.7759994,54.1140019 57.888,53.734 C58.0000006,53.3539981 58.159999,53.0320013 58.368,52.768 C58.576001,52.5039987 58.8259985,52.3000007 59.118,52.156 C59.4100015,52.0119993 59.7319982,51.94 60.084,51.94 C60.5640024,51.94 60.9559985,52.0539989 61.26,52.282 C61.5640015,52.5100011 61.7799994,52.7839984 61.908,53.104 L61.908,49.528 L62.916,49.528 L62.916,58 L61.956,58 L61.956,56.848 Z M61.908,55.012 C61.908,54.7639988 61.9020001,54.5700007 61.89,54.43 C61.8779999,54.2899993 61.8640001,54.1760004 61.848,54.088 C61.8079998,53.9119991 61.7480004,53.7440008 61.668,53.584 C61.5879996,53.4239992 61.4860006,53.2820006 61.362,53.158 C61.2379994,53.0339994 61.0920008,52.9360004 60.924,52.864 C60.7559992,52.7919996 60.5640011,52.756 60.348,52.756 C60.0759986,52.756 59.842001,52.8159994 59.646,52.936 C59.449999,53.0560006 59.2860007,53.217999 59.154,53.422 C59.0219993,53.626001 58.9240003,53.8659986 58.86,54.142 C58.7959997,54.4180014 58.764,54.7119984 58.764,55.024 C58.764,55.3600017 58.7999996,55.6699986 58.872,55.954 C58.9440004,56.2380014 59.0479993,56.481999 59.184,56.686 C59.3200007,56.890001 59.487999,57.0499994 59.688,57.166 C59.888001,57.2820006 60.1159987,57.34 60.372,57.34 C60.572001,57.34 60.7539992,57.3040004 60.918,57.232 C61.0820008,57.1599996 61.2259994,57.0600006 61.35,56.932 C61.4740006,56.8039994 61.5759996,56.6580008 61.656,56.494 C61.7360004,56.3299992 61.7959998,56.1560009 61.836,55.972 C61.8840002,55.7479989 61.908,55.4480019 61.908,55.072 L61.908,55.012 Z M66.888,58.18 C66.4399978,58.18 66.0460017,58.0980008 65.706,57.934 C65.3659983,57.7699992 65.0820011,57.5460014 64.854,57.262 C64.6259989,56.9779986 64.4560006,56.6460019 64.344,56.266 C64.2319994,55.8859981 64.176,55.4760022 64.176,55.036 C64.176,54.5959978 64.2339994,54.1880019 64.35,53.812 C64.4660006,53.4359981 64.6379989,53.1080014 64.866,52.828 C65.0940011,52.5479986 65.3779983,52.3280008 65.718,52.168 C66.0580017,52.0079992 66.4479978,51.928 66.888,51.928 C67.3280022,51.928 67.7179983,52.0079992 68.058,52.168 C68.3980017,52.3280008 68.6839988,52.5459986 68.916,52.822 C69.1480012,53.0980014 69.3219994,53.4259981 69.438,53.806 C69.5540006,54.1860019 69.612,54.5959978 69.612,55.036 C69.612,55.4760022 69.5540006,55.8859981 69.438,56.266 C69.3219994,56.6460019 69.1480012,56.9779986 68.916,57.262 C68.6839988,57.5460014 68.3980017,57.7699992 68.058,57.934 C67.7179983,58.0980008 67.3280022,58.18 66.888,58.18 Z M66.912,57.4 C67.1840014,57.4 67.423999,57.3400006 67.632,57.22 C67.840001,57.0999994 68.0119993,56.9340011 68.148,56.722 C68.2840007,56.5099989 68.3879996,56.2600014 68.46,55.972 C68.5320004,55.6839986 68.568,55.3720017 68.568,55.036 C68.568,54.6999983 68.5320004,54.3900014 68.46,54.106 C68.3879996,53.8219986 68.2800007,53.576001 68.136,53.368 C67.9919993,53.159999 67.816001,52.9980006 67.608,52.882 C67.399999,52.7659994 67.1600014,52.708 66.888,52.708 C66.6079986,52.708 66.364001,52.7659994 66.156,52.882 C65.947999,52.9980006 65.7760007,53.159999 65.64,53.368 C65.5039993,53.576001 65.4000004,53.8219986 65.328,54.106 C65.2559996,54.3900014 65.22,54.6999983 65.22,55.036 C65.22,55.3720017 65.2559996,55.6839986 65.328,55.972 C65.4000004,56.2600014 65.5059993,56.5099989 65.646,56.722 C65.7860007,56.9340011 65.9619989,57.0999994 66.174,57.22 C66.3860011,57.3400006 66.6319986,57.4 66.912,57.4 Z M73.584,52.096 L74.448,52.096 L74.556,53.272 C74.7080008,52.9119982 74.9499983,52.5980013 75.282,52.33 C75.6140017,52.0619987 76.0239976,51.928 76.512,51.928 C77.1280031,51.928 77.5819985,52.123998 77.874,52.516 C78.1660015,52.908002 78.312,53.4559965 78.312,54.16 L78.312,58 L77.316,58 L77.316,54.364 C77.316,53.8279973 77.2080011,53.4340013 76.992,53.182 C76.7759989,52.9299987 76.4840018,52.804 76.116,52.804 C75.6759978,52.804 75.3100015,52.9839982 75.018,53.344 C74.7259985,53.7040018 74.58,54.2119967 74.58,54.868 L74.58,58 L73.584,58 L73.584,52.096 Z M82.272,58.18 C81.8239978,58.18 81.4300017,58.0980008 81.09,57.934 C80.7499983,57.7699992 80.4660011,57.5460014 80.238,57.262 C80.0099989,56.9779986 79.8400006,56.6460019 79.728,56.266 C79.6159994,55.8859981 79.56,55.4760022 79.56,55.036 C79.56,54.5959978 79.6179994,54.1880019 79.734,53.812 C79.8500006,53.4359981 80.0219989,53.1080014 80.25,52.828 C80.4780011,52.5479986 80.7619983,52.3280008 81.102,52.168 C81.4420017,52.0079992 81.8319978,51.928 82.272,51.928 C82.7120022,51.928 83.1019983,52.0079992 83.442,52.168 C83.7820017,52.3280008 84.0679988,52.5459986 84.3,52.822 C84.5320012,53.0980014 84.7059994,53.4259981 84.822,53.806 C84.9380006,54.1860019 84.996,54.5959978 84.996,55.036 C84.996,55.4760022 84.9380006,55.8859981 84.822,56.266 C84.7059994,56.6460019 84.5320012,56.9779986 84.3,57.262 C84.0679988,57.5460014 83.7820017,57.7699992 83.442,57.934 C83.1019983,58.0980008 82.7120022,58.18 82.272,58.18 Z M82.296,57.4 C82.5680014,57.4 82.807999,57.3400006 83.016,57.22 C83.224001,57.0999994 83.3959993,56.9340011 83.532,56.722 C83.6680007,56.5099989 83.7719996,56.2600014 83.844,55.972 C83.9160004,55.6839986 83.952,55.3720017 83.952,55.036 C83.952,54.6999983 83.9160004,54.3900014 83.844,54.106 C83.7719996,53.8219986 83.6640007,53.576001 83.52,53.368 C83.3759993,53.159999 83.200001,52.9980006 82.992,52.882 C82.783999,52.7659994 82.5440014,52.708 82.272,52.708 C81.9919986,52.708 81.748001,52.7659994 81.54,52.882 C81.331999,52.9980006 81.1600007,53.159999 81.024,53.368 C80.8879993,53.576001 80.7840004,53.8219986 80.712,54.106 C80.6399996,54.3900014 80.604,54.6999983 80.604,55.036 C80.604,55.3720017 80.6399996,55.6839986 80.712,55.972 C80.7840004,56.2600014 80.8899993,56.5099989 81.03,56.722 C81.1700007,56.9340011 81.3459989,57.0999994 81.558,57.22 C81.7700011,57.3400006 82.0159986,57.4 82.296,57.4 Z M86.784,52.78 L85.776,52.78 L85.776,52.096 L85.992,52.096 C86.2400012,52.096 86.4339993,52.0700003 86.574,52.018 C86.7140007,51.9659997 86.8199996,51.8860005 86.892,51.778 C86.9640004,51.6699995 87.0159998,51.5280009 87.048,51.352 C87.0800002,51.1759991 87.1079999,50.9600013 87.132,50.704 L87.156,50.488 L87.78,50.488 L87.78,52.096 L89.052,52.096 L89.052,52.78 L87.78,52.78 L87.78,56.452 C87.78,56.7880017 87.8299995,57.0299993 87.93,57.178 C88.0300005,57.3260007 88.2159986,57.4 88.488,57.4 C88.7040011,57.4 88.9039991,57.3520005 89.088,57.256 L89.196,57.976 C88.8919985,58.1120007 88.5560018,58.18 88.188,58.18 C87.8999986,58.18 87.6660009,58.1400004 87.486,58.06 C87.3059991,57.9799996 87.1640005,57.8720007 87.06,57.736 C86.9559995,57.5999993 86.8840002,57.436001 86.844,57.244 C86.8039998,57.051999 86.784,56.8440011 86.784,56.62 L86.784,52.78 Z M92.952,52.096 L93.816,52.096 L93.924,53.248 C94.0680007,52.839998 94.2919985,52.5180012 94.596,52.282 C94.9000015,52.0459988 95.2719978,51.928 95.712,51.928 C96.1760023,51.928 96.5399987,52.0599987 96.804,52.324 C97.0680013,52.5880013 97.2359996,52.9079981 97.308,53.284 C97.3800004,53.0999991 97.4699995,52.9260008 97.578,52.762 C97.6860005,52.5979992 97.8159992,52.4540006 97.968,52.33 C98.1200008,52.2059994 98.295999,52.1080004 98.496,52.036 C98.696001,51.9639996 98.9239987,51.928 99.18,51.928 C99.5160017,51.928 99.7939989,51.9859994 100.014,52.102 C100.234001,52.2180006 100.409999,52.375999 100.542,52.576 C100.674001,52.776001 100.768,53.0099987 100.824,53.278 C100.88,53.5460013 100.908,53.8279985 100.908,54.124 L100.908,58 L99.912,58 L99.912,54.376 C99.912,53.8479974 99.8180009,53.4540013 99.63,53.194 C99.4419991,52.9339987 99.1680018,52.804 98.808,52.804 C98.415998,52.804 98.0880013,52.9779983 97.824,53.326 C97.5599987,53.6740017 97.428,54.1719968 97.428,54.82 L97.428,58 L96.432,58 L96.432,54.424 C96.432,53.8719972 96.336001,53.4640013 96.144,53.2 C95.951999,52.9359987 95.6840017,52.804 95.34,52.804 C94.9559981,52.804 94.6280014,52.9819982 94.356,53.338 C94.0839986,53.6940018 93.948,54.2079966 93.948,54.88 L93.948,58 L92.952,58 L92.952,52.096 Z M106.128,58 C106.04,57.7119986 105.988,57.368002 105.972,56.968 C105.811999,57.3360018 105.566002,57.6299989 105.234,57.85 C104.901998,58.0700011 104.508002,58.18 104.052,58.18 C103.475997,58.18 103.020002,58.0160016 102.684,57.688 C102.347998,57.3599984 102.18,56.9200028 102.18,56.368 C102.18,56.0559984 102.235999,55.7940011 102.348,55.582 C102.460001,55.3699989 102.615999,55.1940007 102.816,55.054 C103.016001,54.9139993 103.251999,54.8040004 103.524,54.724 C103.796001,54.6439996 104.091998,54.5800002 104.412,54.532 L105.924,54.304 L105.924,53.932 C105.924,53.6679987 105.892,53.4560008 105.828,53.296 C105.764,53.1359992 105.676001,53.0120004 105.564,52.924 C105.451999,52.8359996 105.324001,52.7780001 105.18,52.75 C105.035999,52.7219999 104.884001,52.708 104.724,52.708 C104.267998,52.708 103.892001,52.7919992 103.596,52.96 C103.299999,53.1280008 103.052001,53.3399987 102.852,53.596 L102.336,52.948 C102.568001,52.6679986 102.889998,52.428001 103.302,52.228 C103.714002,52.027999 104.223997,51.928 104.832,51.928 C105.568004,51.928 106.101998,52.0919984 106.434,52.42 C106.766002,52.7480016 106.932,53.2759964 106.932,54.004 L106.932,56.392 C106.932,56.584001 106.934,56.7519993 106.938,56.896 C106.942,57.0400007 106.95,57.1739994 106.962,57.298 C106.974,57.4220006 106.992,57.5399994 107.016,57.652 C107.04,57.7640006 107.072,57.8799994 107.112,58 L106.128,58 Z M105.924,54.964 L104.508,55.192 C104.019998,55.2800004 103.674001,55.4119991 103.47,55.588 C103.265999,55.7640009 103.164,56.0079984 103.164,56.32 C103.164,56.6400016 103.257999,56.9079989 103.446,57.124 C103.634001,57.3400011 103.911998,57.448 104.28,57.448 C104.504001,57.448 104.715999,57.4040004 104.916,57.316 C105.116001,57.2279996 105.289999,57.1060008 105.438,56.95 C105.586001,56.7939992 105.704,56.6060011 105.792,56.386 C105.88,56.1659989 105.924,55.9240013 105.924,55.66 L105.924,54.964 Z M109.044,52.78 L108.036,52.78 L108.036,52.096 L108.252,52.096 C108.500001,52.096 108.693999,52.0700003 108.834,52.018 C108.974001,51.9659997 109.08,51.8860005 109.152,51.778 C109.224,51.6699995 109.276,51.5280009 109.308,51.352 C109.34,51.1759991 109.368,50.9600013 109.392,50.704 L109.416,50.488 L110.04,50.488 L110.04,52.096 L111.312,52.096 L111.312,52.78 L110.04,52.78 L110.04,56.452 C110.04,56.7880017 110.09,57.0299993 110.19,57.178 C110.290001,57.3260007 110.475999,57.4 110.748,57.4 C110.964001,57.4 111.163999,57.3520005 111.348,57.256 L111.456,57.976 C111.151998,58.1120007 110.816002,58.18 110.448,58.18 C110.159999,58.18 109.926001,58.1400004 109.746,58.06 C109.565999,57.9799996 109.424001,57.8720007 109.32,57.736 C109.215999,57.5999993 109.144,57.436001 109.104,57.244 C109.064,57.051999 109.044,56.8440011 109.044,56.62 L109.044,52.78 Z M117.444,56.704 C117.203999,57.1840024 116.882002,57.5499987 116.478,57.802 C116.073998,58.0540013 115.584003,58.18 115.008,58.18 C114.535998,58.18 114.126002,58.0980008 113.778,57.934 C113.429998,57.7699992 113.142001,57.5480014 112.914,57.268 C112.685999,56.9879986 112.518001,56.6580019 112.41,56.278 C112.301999,55.8979981 112.248,55.4920022 112.248,55.06 C112.248,54.6199978 112.305999,54.2100019 112.422,53.83 C112.538001,53.4499981 112.709999,53.1200014 112.938,52.84 C113.166001,52.5599986 113.451998,52.3380008 113.796,52.174 C114.140002,52.0099992 114.543998,51.928 115.008,51.928 C115.592003,51.928 116.077998,52.0579987 116.466,52.318 C116.854002,52.5780013 117.167999,52.9439976 117.408,53.416 L116.568,53.812 C116.263998,53.0759963 115.752004,52.708 115.032,52.708 C114.727998,52.708 114.466001,52.7679994 114.246,52.888 C114.025999,53.0080006 113.846001,53.171999 113.706,53.38 C113.565999,53.588001 113.462,53.8299986 113.394,54.106 C113.326,54.3820014 113.292,54.6799984 113.292,55 C113.292,55.3040015 113.324,55.5999986 113.388,55.888 C113.452,56.1760014 113.555999,56.4319989 113.7,56.656 C113.844001,56.8800011 114.027999,57.0599993 114.252,57.196 C114.476001,57.3320007 114.751998,57.4 115.08,57.4 C115.496002,57.4 115.831999,57.2940011 116.088,57.082 C116.344001,56.8699989 116.539999,56.5960017 116.676,56.26 L117.444,56.704 Z M118.548,49.528 L119.544,49.528 L119.544,53.26 C119.616,53.0839991 119.707999,52.9160008 119.82,52.756 C119.932001,52.5959992 120.067999,52.4540006 120.228,52.33 C120.388001,52.2059994 120.571999,52.1080004 120.78,52.036 C120.988001,51.9639996 121.219999,51.928 121.476,51.928 C122.092003,51.928 122.545999,52.129998 122.838,52.534 C123.130001,52.938002 123.276,53.4839966 123.276,54.172 L123.276,58 L122.28,58 L122.28,54.328 C122.28,53.8239975 122.176001,53.4460013 121.968,53.194 C121.759999,52.9419987 121.464002,52.816 121.08,52.816 C120.855999,52.816 120.650001,52.8639995 120.462,52.96 C120.273999,53.0560005 120.112001,53.1919991 119.976,53.368 C119.839999,53.5440009 119.734,53.7559988 119.658,54.004 C119.582,54.2520012 119.544,54.5239985 119.544,54.82 L119.544,58 L118.548,58 L118.548,49.528 Z M124.692,56.824 L125.808,56.824 L125.808,58 L124.692,58 L124.692,56.824 Z" id="Passwords-do-not-mat" fill="#7A787A"></path>
                    <path d="M1,43 L199,43" id="Line" stroke="#C30000" stroke-width="2" stroke-linecap="square"></path>
                    <path d="M184.410714,22.3482143 C185.464291,21.735116 186.613089,21.4285714 187.857143,21.4285714 C189.101197,21.4285714 190.248507,21.735116 191.299107,22.3482143 C192.349708,22.9613126 193.181545,23.7931495 193.794643,24.84375 C194.407741,25.8943505 194.714286,27.0416604 194.714286,28.2857143 C194.714286,29.5297681 194.407741,30.6770781 193.794643,31.7276786 C193.181545,32.7782791 192.349708,33.610116 191.299107,34.2232143 C190.248507,34.8363126 189.101197,35.1428571 187.857143,35.1428571 C186.613089,35.1428571 185.465779,34.8363126 184.415179,34.2232143 C183.364578,33.610116 182.532741,32.7782791 181.919643,31.7276786 C181.306545,30.6770781 181,29.5297681 181,28.2857143 C181,27.0416604 181.306545,25.8943505 181.919643,24.84375 C182.532741,23.7931495 183.36309,22.9613126 184.410714,22.3482143 Z M189,32.5625 L189,30.8660714 C189,30.7827377 188.973215,30.7127979 188.919643,30.65625 C188.866071,30.5997021 188.800596,30.5714286 188.723214,30.5714286 L187.008929,30.5714286 C186.931547,30.5714286 186.863096,30.6011902 186.803571,30.6607143 C186.744047,30.7202384 186.714286,30.7886901 186.714286,30.8660714 L186.714286,32.5625 C186.714286,32.6398813 186.744047,32.708333 186.803571,32.7678571 C186.863096,32.8273813 186.931547,32.8571429 187.008929,32.8571429 L188.723214,32.8571429 C188.800596,32.8571429 188.866071,32.8288693 188.919643,32.7723214 C188.973215,32.7157735 189,32.6458338 189,32.5625 Z M188.982143,29.4910714 L189.142857,23.9464286 C189.142857,23.8749996 189.113096,23.8214288 189.053571,23.7857143 C188.994047,23.738095 188.922619,23.7142857 188.839286,23.7142857 L186.875,23.7142857 C186.791666,23.7142857 186.720238,23.738095 186.660714,23.7857143 C186.60119,23.8214288 186.571429,23.8749996 186.571429,23.9464286 L186.723214,29.4910714 C186.723214,29.5505955 186.752976,29.6026783 186.8125,29.6473214 C186.872024,29.6919645 186.943452,29.7142857 187.026786,29.7142857 L188.678571,29.7142857 C188.761905,29.7142857 188.831845,29.6919645 188.888393,29.6473214 C188.944941,29.6026783 188.97619,29.5505955 188.982143,29.4910714 Z" id="exclamation-circle---FontAwesome" fill="#C30000"></path>
                    <path d="M1.056,28.704 C1.056,28.437332 1.10666616,28.1840012 1.208,27.944 C1.30933384,27.7039988 1.44799912,27.4960009 1.624,27.32 C1.80000088,27.1439991 2.01066544,27.0053338 2.256,26.904 C2.50133456,26.8026662 2.76266528,26.752 3.04,26.752 C3.31733472,26.752 3.5759988,26.8026662 3.816,26.904 C4.0560012,27.0053338 4.26399912,27.1439991 4.44,27.32 C4.61600088,27.4960009 4.75466616,27.7039988 4.856,27.944 C4.95733384,28.1840012 5.008,28.437332 5.008,28.704 C5.008,28.9813347 4.95733384,29.2399988 4.856,29.48 C4.75466616,29.7200012 4.61600088,29.9279991 4.44,30.104 C4.26399912,30.2800009 4.0560012,30.4213328 3.816,30.528 C3.5759988,30.6346672 3.31733472,30.688 3.04,30.688 C2.76266528,30.688 2.50133456,30.6346672 2.256,30.528 C2.01066544,30.4213328 1.80000088,30.2800009 1.624,30.104 C1.44799912,29.9279991 1.30933384,29.7200012 1.208,29.48 C1.10666616,29.2399988 1.056,28.9813347 1.056,28.704 Z M7.136,28.704 C7.136,28.437332 7.18666616,28.1840012 7.288,27.944 C7.38933384,27.7039988 7.52799912,27.4960009 7.704,27.32 C7.88000088,27.1439991 8.09066544,27.0053338 8.336,26.904 C8.58133456,26.8026662 8.84266528,26.752 9.12,26.752 C9.39733472,26.752 9.6559988,26.8026662 9.896,26.904 C10.1360012,27.0053338 10.3439991,27.1439991 10.52,27.32 C10.6960009,27.4960009 10.8346662,27.7039988 10.936,27.944 C11.0373338,28.1840012 11.088,28.437332 11.088,28.704 C11.088,28.9813347 11.0373338,29.2399988 10.936,29.48 C10.8346662,29.7200012 10.6960009,29.9279991 10.52,30.104 C10.3439991,30.2800009 10.1360012,30.4213328 9.896,30.528 C9.6559988,30.6346672 9.39733472,30.688 9.12,30.688 C8.84266528,30.688 8.58133456,30.6346672 8.336,30.528 C8.09066544,30.4213328 7.88000088,30.2800009 7.704,30.104 C7.52799912,29.9279991 7.38933384,29.7200012 7.288,29.48 C7.18666616,29.2399988 7.136,28.9813347 7.136,28.704 Z M13.216,28.704 C13.216,28.437332 13.2666662,28.1840012 13.368,27.944 C13.4693338,27.7039988 13.6079991,27.4960009 13.784,27.32 C13.9600009,27.1439991 14.1706654,27.0053338 14.416,26.904 C14.6613346,26.8026662 14.9226653,26.752 15.2,26.752 C15.4773347,26.752 15.7359988,26.8026662 15.976,26.904 C16.2160012,27.0053338 16.4239991,27.1439991 16.6,27.32 C16.7760009,27.4960009 16.9146662,27.7039988 17.016,27.944 C17.1173338,28.1840012 17.168,28.437332 17.168,28.704 C17.168,28.9813347 17.1173338,29.2399988 17.016,29.48 C16.9146662,29.7200012 16.7760009,29.9279991 16.6,30.104 C16.4239991,30.2800009 16.2160012,30.4213328 15.976,30.528 C15.7359988,30.6346672 15.4773347,30.688 15.2,30.688 C14.9226653,30.688 14.6613346,30.6346672 14.416,30.528 C14.1706654,30.4213328 13.9600009,30.2800009 13.784,30.104 C13.6079991,29.9279991 13.4693338,29.7200012 13.368,29.48 C13.2666662,29.2399988 13.216,28.9813347 13.216,28.704 Z M19.296,28.704 C19.296,28.437332 19.3466662,28.1840012 19.448,27.944 C19.5493338,27.7039988 19.6879991,27.4960009 19.864,27.32 C20.0400009,27.1439991 20.2506654,27.0053338 20.496,26.904 C20.7413346,26.8026662 21.0026653,26.752 21.28,26.752 C21.5573347,26.752 21.8159988,26.8026662 22.056,26.904 C22.2960012,27.0053338 22.5039991,27.1439991 22.68,27.32 C22.8560009,27.4960009 22.9946662,27.7039988 23.096,27.944 C23.1973338,28.1840012 23.248,28.437332 23.248,28.704 C23.248,28.9813347 23.1973338,29.2399988 23.096,29.48 C22.9946662,29.7200012 22.8560009,29.9279991 22.68,30.104 C22.5039991,30.2800009 22.2960012,30.4213328 22.056,30.528 C21.8159988,30.6346672 21.5573347,30.688 21.28,30.688 C21.0026653,30.688 20.7413346,30.6346672 20.496,30.528 C20.2506654,30.4213328 20.0400009,30.2800009 19.864,30.104 C19.6879991,29.9279991 19.5493338,29.7200012 19.448,29.48 C19.3466662,29.2399988 19.296,28.9813347 19.296,28.704 Z M25.376,28.704 C25.376,28.437332 25.4266662,28.1840012 25.528,27.944 C25.6293338,27.7039988 25.7679991,27.4960009 25.944,27.32 C26.1200009,27.1439991 26.3306654,27.0053338 26.576,26.904 C26.8213346,26.8026662 27.0826653,26.752 27.36,26.752 C27.6373347,26.752 27.8959988,26.8026662 28.136,26.904 C28.3760012,27.0053338 28.5839991,27.1439991 28.76,27.32 C28.9360009,27.4960009 29.0746662,27.7039988 29.176,27.944 C29.2773338,28.1840012 29.328,28.437332 29.328,28.704 C29.328,28.9813347 29.2773338,29.2399988 29.176,29.48 C29.0746662,29.7200012 28.9360009,29.9279991 28.76,30.104 C28.5839991,30.2800009 28.3760012,30.4213328 28.136,30.528 C27.8959988,30.6346672 27.6373347,30.688 27.36,30.688 C27.0826653,30.688 26.8213346,30.6346672 26.576,30.528 C26.3306654,30.4213328 26.1200009,30.2800009 25.944,30.104 C25.7679991,29.9279991 25.6293338,29.7200012 25.528,29.48 C25.4266662,29.2399988 25.376,28.9813347 25.376,28.704 Z M31.456,28.704 C31.456,28.437332 31.5066662,28.1840012 31.608,27.944 C31.7093338,27.7039988 31.8479991,27.4960009 32.024,27.32 C32.2000009,27.1439991 32.4106654,27.0053338 32.656,26.904 C32.9013346,26.8026662 33.1626653,26.752 33.44,26.752 C33.7173347,26.752 33.9759988,26.8026662 34.216,26.904 C34.4560012,27.0053338 34.6639991,27.1439991 34.84,27.32 C35.0160009,27.4960009 35.1546662,27.7039988 35.256,27.944 C35.3573338,28.1840012 35.408,28.437332 35.408,28.704 C35.408,28.9813347 35.3573338,29.2399988 35.256,29.48 C35.1546662,29.7200012 35.0160009,29.9279991 34.84,30.104 C34.6639991,30.2800009 34.4560012,30.4213328 34.216,30.528 C33.9759988,30.6346672 33.7173347,30.688 33.44,30.688 C33.1626653,30.688 32.9013346,30.6346672 32.656,30.528 C32.4106654,30.4213328 32.2000009,30.2800009 32.024,30.104 C31.8479991,29.9279991 31.7093338,29.7200012 31.608,29.48 C31.5066662,29.2399988 31.456,28.9813347 31.456,28.704 Z M37.536,28.704 C37.536,28.437332 37.5866662,28.1840012 37.688,27.944 C37.7893338,27.7039988 37.9279991,27.4960009 38.104,27.32 C38.2800009,27.1439991 38.4906654,27.0053338 38.736,26.904 C38.9813346,26.8026662 39.2426653,26.752 39.52,26.752 C39.7973347,26.752 40.0559988,26.8026662 40.296,26.904 C40.5360012,27.0053338 40.7439991,27.1439991 40.92,27.32 C41.0960009,27.4960009 41.2346662,27.7039988 41.336,27.944 C41.4373338,28.1840012 41.488,28.437332 41.488,28.704 C41.488,28.9813347 41.4373338,29.2399988 41.336,29.48 C41.2346662,29.7200012 41.0960009,29.9279991 40.92,30.104 C40.7439991,30.2800009 40.5360012,30.4213328 40.296,30.528 C40.0559988,30.6346672 39.7973347,30.688 39.52,30.688 C39.2426653,30.688 38.9813346,30.6346672 38.736,30.528 C38.4906654,30.4213328 38.2800009,30.2800009 38.104,30.104 C37.9279991,29.9279991 37.7893338,29.7200012 37.688,29.48 C37.5866662,29.2399988 37.536,28.9813347 37.536,28.704 Z M43.616,28.704 C43.616,28.437332 43.6666662,28.1840012 43.768,27.944 C43.8693338,27.7039988 44.0079991,27.4960009 44.184,27.32 C44.3600009,27.1439991 44.5706654,27.0053338 44.816,26.904 C45.0613346,26.8026662 45.3226653,26.752 45.6,26.752 C45.8773347,26.752 46.1359988,26.8026662 46.376,26.904 C46.6160012,27.0053338 46.8239991,27.1439991 47,27.32 C47.1760009,27.4960009 47.3146662,27.7039988 47.416,27.944 C47.5173338,28.1840012 47.568,28.437332 47.568,28.704 C47.568,28.9813347 47.5173338,29.2399988 47.416,29.48 C47.3146662,29.7200012 47.1760009,29.9279991 47,30.104 C46.8239991,30.2800009 46.6160012,30.4213328 46.376,30.528 C46.1359988,30.6346672 45.8773347,30.688 45.6,30.688 C45.3226653,30.688 45.0613346,30.6346672 44.816,30.528 C44.5706654,30.4213328 44.3600009,30.2800009 44.184,30.104 C44.0079991,29.9279991 43.8693338,29.7200012 43.768,29.48 C43.6666662,29.2399988 43.616,28.9813347 43.616,28.704 Z M49.696,28.704 C49.696,28.437332 49.7466662,28.1840012 49.848,27.944 C49.9493338,27.7039988 50.0879991,27.4960009 50.264,27.32 C50.4400009,27.1439991 50.6506654,27.0053338 50.896,26.904 C51.1413346,26.8026662 51.4026653,26.752 51.68,26.752 C51.9573347,26.752 52.2159988,26.8026662 52.456,26.904 C52.6960012,27.0053338 52.9039991,27.1439991 53.08,27.32 C53.2560009,27.4960009 53.3946662,27.7039988 53.496,27.944 C53.5973338,28.1840012 53.648,28.437332 53.648,28.704 C53.648,28.9813347 53.5973338,29.2399988 53.496,29.48 C53.3946662,29.7200012 53.2560009,29.9279991 53.08,30.104 C52.9039991,30.2800009 52.6960012,30.4213328 52.456,30.528 C52.2159988,30.6346672 51.9573347,30.688 51.68,30.688 C51.4026653,30.688 51.1413346,30.6346672 50.896,30.528 C50.6506654,30.4213328 50.4400009,30.2800009 50.264,30.104 C50.0879991,29.9279991 49.9493338,29.7200012 49.848,29.48 C49.7466662,29.2399988 49.696,28.9813347 49.696,28.704 Z M55.776,28.704 C55.776,28.437332 55.8266662,28.1840012 55.928,27.944 C56.0293338,27.7039988 56.1679991,27.4960009 56.344,27.32 C56.5200009,27.1439991 56.7306654,27.0053338 56.976,26.904 C57.2213346,26.8026662 57.4826653,26.752 57.76,26.752 C58.0373347,26.752 58.2959988,26.8026662 58.536,26.904 C58.7760012,27.0053338 58.9839991,27.1439991 59.16,27.32 C59.3360009,27.4960009 59.4746662,27.7039988 59.576,27.944 C59.6773338,28.1840012 59.728,28.437332 59.728,28.704 C59.728,28.9813347 59.6773338,29.2399988 59.576,29.48 C59.4746662,29.7200012 59.3360009,29.9279991 59.16,30.104 C58.9839991,30.2800009 58.7760012,30.4213328 58.536,30.528 C58.2959988,30.6346672 58.0373347,30.688 57.76,30.688 C57.4826653,30.688 57.2213346,30.6346672 56.976,30.528 C56.7306654,30.4213328 56.5200009,30.2800009 56.344,30.104 C56.1679991,29.9279991 56.0293338,29.7200012 55.928,29.48 C55.8266662,29.2399988 55.776,28.9813347 55.776,28.704 Z M61.856,28.704 C61.856,28.437332 61.9066662,28.1840012 62.008,27.944 C62.1093338,27.7039988 62.2479991,27.4960009 62.424,27.32 C62.6000009,27.1439991 62.8106654,27.0053338 63.056,26.904 C63.3013346,26.8026662 63.5626653,26.752 63.84,26.752 C64.1173347,26.752 64.3759988,26.8026662 64.616,26.904 C64.8560012,27.0053338 65.0639991,27.1439991 65.24,27.32 C65.4160009,27.4960009 65.5546662,27.7039988 65.656,27.944 C65.7573338,28.1840012 65.808,28.437332 65.808,28.704 C65.808,28.9813347 65.7573338,29.2399988 65.656,29.48 C65.5546662,29.7200012 65.4160009,29.9279991 65.24,30.104 C65.0639991,30.2800009 64.8560012,30.4213328 64.616,30.528 C64.3759988,30.6346672 64.1173347,30.688 63.84,30.688 C63.5626653,30.688 63.3013346,30.6346672 63.056,30.528 C62.8106654,30.4213328 62.6000009,30.2800009 62.424,30.104 C62.2479991,29.9279991 62.1093338,29.7200012 62.008,29.48 C61.9066662,29.2399988 61.856,28.9813347 61.856,28.704 Z M67.936,28.704 C67.936,28.437332 67.9866662,28.1840012 68.088,27.944 C68.1893338,27.7039988 68.3279991,27.4960009 68.504,27.32 C68.6800009,27.1439991 68.8906654,27.0053338 69.136,26.904 C69.3813346,26.8026662 69.6426653,26.752 69.92,26.752 C70.1973347,26.752 70.4559988,26.8026662 70.696,26.904 C70.9360012,27.0053338 71.1439991,27.1439991 71.32,27.32 C71.4960009,27.4960009 71.6346662,27.7039988 71.736,27.944 C71.8373338,28.1840012 71.888,28.437332 71.888,28.704 C71.888,28.9813347 71.8373338,29.2399988 71.736,29.48 C71.6346662,29.7200012 71.4960009,29.9279991 71.32,30.104 C71.1439991,30.2800009 70.9360012,30.4213328 70.696,30.528 C70.4559988,30.6346672 70.1973347,30.688 69.92,30.688 C69.6426653,30.688 69.3813346,30.6346672 69.136,30.528 C68.8906654,30.4213328 68.6800009,30.2800009 68.504,30.104 C68.3279991,29.9279991 68.1893338,29.7200012 68.088,29.48 C67.9866662,29.2399988 67.936,28.9813347 67.936,28.704 Z" id="" fill="#000000"></path>
                </g>
                <g id="Group-2">
                    <path d="M0.98,3.116 L4.298,3.116 C4.79266914,3.116 5.2499979,3.17199944 5.67,3.284 C6.0900021,3.39600056 6.45166515,3.5686655 6.755,3.802 C7.05833485,4.0353345 7.29633247,4.33166487 7.469,4.691 C7.64166753,5.05033513 7.728,5.48199748 7.728,5.986 C7.728,6.5460028 7.64166753,7.02199804 7.469,7.414 C7.29633247,7.80600196 7.05600154,8.12333212 6.748,8.366 C6.43999846,8.60866788 6.07833541,8.78366613 5.663,8.891 C5.24766459,8.99833387 4.79733576,9.052 4.312,9.052 L2.24,9.052 L2.24,13 L0.98,13 L0.98,3.116 Z M4.102,8.044 C4.83000364,8.044 5.39466466,7.88766823 5.796,7.575 C6.19733534,7.26233177 6.398,6.7326704 6.398,5.986 C6.398,5.64066494 6.33966725,5.34666788 6.223,5.104 C6.10633275,4.86133212 5.94766767,4.66533408 5.747,4.516 C5.54633233,4.36666592 5.30833471,4.25933366 5.033,4.194 C4.75766529,4.12866634 4.46133492,4.096 4.144,4.096 L2.24,4.096 L2.24,8.044 L4.102,8.044 Z M13.02,13 C12.9173328,12.6639983 12.8566668,12.262669 12.838,11.796 C12.6513324,12.2253355 12.3643353,12.5683321 11.977,12.825 C11.5896647,13.081668 11.1300027,13.21 10.598,13.21 C9.92599664,13.21 9.39400196,13.0186686 9.002,12.636 C8.60999804,12.2533314 8.414,11.7400032 8.414,11.096 C8.414,10.7319982 8.47933268,10.4263346 8.61,10.179 C8.74066732,9.93166543 8.9226655,9.72633415 9.156,9.563 C9.3893345,9.39966585 9.66466508,9.2713338 9.982,9.178 C10.2993349,9.0846662 10.6446648,9.01000028 11.018,8.954 L12.782,8.688 L12.782,8.254 C12.782,7.94599846 12.744667,7.6986676 12.67,7.512 C12.595333,7.3253324 12.4926673,7.18066718 12.362,7.078 C12.2313327,6.97533282 12.0820008,6.90766683 11.914,6.875 C11.7459992,6.84233317 11.5686676,6.826 11.382,6.826 C10.8499973,6.826 10.4113351,6.92399902 10.066,7.12 C9.72066494,7.31600098 9.4313345,7.56333184 9.198,7.862 L8.596,7.106 C8.86666802,6.7793317 9.24233093,6.4993345 9.723,6.266 C10.2036691,6.0326655 10.7986631,5.916 11.508,5.916 C12.366671,5.916 12.9896647,6.10733142 13.377,6.49 C13.7643353,6.87266858 13.958,7.48866242 13.958,8.338 L13.958,11.124 C13.958,11.3480011 13.9603333,11.5439992 13.965,11.712 C13.9696667,11.8800008 13.9789999,12.0363326 13.993,12.181 C14.0070001,12.3256674 14.0279999,12.4633327 14.056,12.594 C14.0840001,12.7246673 14.1213331,12.8599993 14.168,13 L13.02,13 Z M12.782,9.458 L11.13,9.724 C10.5606638,9.82666718 10.1570012,9.98066564 9.919,10.186 C9.68099881,10.3913344 9.562,10.6759982 9.562,11.04 C9.562,11.4133352 9.67166557,11.7259987 9.891,11.978 C10.1103344,12.2300013 10.4346645,12.356 10.864,12.356 C11.1253346,12.356 11.3726655,12.3046672 11.606,12.202 C11.8393345,12.0993328 12.0423325,11.9570009 12.215,11.775 C12.3876675,11.5929991 12.5253328,11.373668 12.628,11.117 C12.7306672,10.8603321 12.782,10.5780015 12.782,10.27 L12.782,9.458 Z M15.946,11.306 C16.1793345,11.6046682 16.4803315,11.851999 16.849,12.048 C17.2176685,12.244001 17.6213311,12.342 18.06,12.342 C18.452002,12.342 18.7926652,12.2486676 19.082,12.062 C19.3713348,11.8753324 19.516,11.5953352 19.516,11.222 C19.516,10.9326652 19.4203343,10.7063342 19.229,10.543 C19.0376657,10.3796659 18.7996681,10.2420006 18.515,10.13 C18.2303319,10.0179994 17.9200017,9.9153338 17.584,9.822 C17.2479983,9.7286662 16.9376681,9.60733408 16.653,9.458 C16.3683319,9.30866592 16.1303343,9.11266788 15.939,8.87 C15.7476657,8.62733212 15.652,8.2960021 15.652,7.876 C15.652,7.53066494 15.7219993,7.23433457 15.862,6.987 C16.0020007,6.73966543 16.1863322,6.53666746 16.415,6.378 C16.6436678,6.21933254 16.9073318,6.10266704 17.206,6.028 C17.5046682,5.95333296 17.8173317,5.916 18.144,5.916 C19.1146715,5.916 19.9219968,6.1959972 20.566,6.756 L19.978,7.54 C19.7726656,7.32533226 19.4996684,7.14566739 19.159,7.001 C18.8183316,6.85633261 18.4660018,6.784 18.102,6.784 C17.9433325,6.784 17.7870008,6.80266648 17.633,6.84 C17.4789992,6.87733352 17.3436672,6.93566627 17.227,7.015 C17.1103327,7.09433373 17.0170003,7.19466606 16.947,7.316 C16.8769996,7.43733394 16.842,7.58666578 16.842,7.764 C16.842,8.03466802 16.9376657,8.24466592 17.129,8.394 C17.3203343,8.54333408 17.5583319,8.67166613 17.843,8.779 C18.1276681,8.88633387 18.435665,8.98899951 18.767,9.087 C19.098335,9.18500049 19.4063319,9.31099923 19.691,9.465 C19.9756681,9.61900077 20.2136657,9.82199874 20.405,10.074 C20.5963343,10.3260013 20.692,10.6619979 20.692,11.082 C20.692,11.4366684 20.6196674,11.7469987 20.475,12.013 C20.3303326,12.2790013 20.1390012,12.5006658 19.901,12.678 C19.6629988,12.8553342 19.3876682,12.9883329 19.075,13.077 C18.7623318,13.1656671 18.4380017,13.21 18.102,13.21 C16.9446609,13.21 16.0253367,12.8366704 15.344,12.09 L15.946,11.306 Z M22.176,11.306 C22.4093345,11.6046682 22.7103315,11.851999 23.079,12.048 C23.4476685,12.244001 23.8513311,12.342 24.29,12.342 C24.682002,12.342 25.0226652,12.2486676 25.312,12.062 C25.6013348,11.8753324 25.746,11.5953352 25.746,11.222 C25.746,10.9326652 25.6503343,10.7063342 25.459,10.543 C25.2676657,10.3796659 25.0296681,10.2420006 24.745,10.13 C24.4603319,10.0179994 24.1500017,9.9153338 23.814,9.822 C23.4779983,9.7286662 23.1676681,9.60733408 22.883,9.458 C22.5983319,9.30866592 22.3603343,9.11266788 22.169,8.87 C21.9776657,8.62733212 21.882,8.2960021 21.882,7.876 C21.882,7.53066494 21.9519993,7.23433457 22.092,6.987 C22.2320007,6.73966543 22.4163322,6.53666746 22.645,6.378 C22.8736678,6.21933254 23.1373318,6.10266704 23.436,6.028 C23.7346682,5.95333296 24.0473317,5.916 24.374,5.916 C25.3446715,5.916 26.1519968,6.1959972 26.796,6.756 L26.208,7.54 C26.0026656,7.32533226 25.7296684,7.14566739 25.389,7.001 C25.0483316,6.85633261 24.6960018,6.784 24.332,6.784 C24.1733325,6.784 24.0170008,6.80266648 23.863,6.84 C23.7089992,6.87733352 23.5736672,6.93566627 23.457,7.015 C23.3403328,7.09433373 23.2470004,7.19466606 23.177,7.316 C23.1069996,7.43733394 23.072,7.58666578 23.072,7.764 C23.072,8.03466802 23.1676657,8.24466592 23.359,8.394 C23.5503343,8.54333408 23.7883319,8.67166613 24.073,8.779 C24.3576681,8.88633387 24.665665,8.98899951 24.997,9.087 C25.328335,9.18500049 25.6363319,9.31099923 25.921,9.465 C26.2056681,9.61900077 26.4436657,9.82199874 26.635,10.074 C26.8263343,10.3260013 26.922,10.6619979 26.922,11.082 C26.922,11.4366684 26.8496674,11.7469987 26.705,12.013 C26.5603326,12.2790013 26.3690012,12.5006658 26.131,12.678 C25.8929988,12.8553342 25.6176682,12.9883329 25.305,13.077 C24.9923318,13.1656671 24.6680017,13.21 24.332,13.21 C23.1746609,13.21 22.2553367,12.8366704 21.574,12.09 L22.176,11.306 Z M27.776,6.112 L29.036,6.112 L30.436,11.88 L31.822,6.112 L33.11,6.112 L34.468,11.88 L35.882,6.112 L37.142,6.112 L35.112,13 L33.824,13 L32.452,7.694 L31.08,13 L29.792,13 L27.776,6.112 Z M41.342,13.21 C40.8193307,13.21 40.3596687,13.1143343 39.963,12.923 C39.5663313,12.7316657 39.2350013,12.470335 38.969,12.139 C38.7029987,11.807665 38.5046673,11.4203356 38.374,10.977 C38.2433327,10.5336644 38.178,10.0553359 38.178,9.542 C38.178,9.0286641 38.245666,8.55266886 38.381,8.114 C38.516334,7.67533114 38.7169987,7.2926683 38.983,6.966 C39.2490013,6.6393317 39.5803314,6.3826676 39.977,6.196 C40.3736686,6.0093324 40.8286641,5.916 41.342,5.916 C41.8553359,5.916 42.3103313,6.0093324 42.707,6.196 C43.1036687,6.3826676 43.437332,6.63699839 43.708,6.959 C43.978668,7.28100161 44.181666,7.66366445 44.317,8.107 C44.452334,8.55033555 44.52,9.0286641 44.52,9.542 C44.52,10.0553359 44.452334,10.5336644 44.317,10.977 C44.181666,11.4203356 43.978668,11.807665 43.708,12.139 C43.437332,12.470335 43.1036687,12.7316657 42.707,12.923 C42.3103313,13.1143343 41.8553359,13.21 41.342,13.21 Z M41.37,12.3 C41.6873349,12.3 41.9673321,12.2300007 42.21,12.09 C42.4526679,11.9499993 42.6533325,11.7563346 42.812,11.509 C42.9706675,11.2616654 43.0919996,10.9700017 43.176,10.634 C43.2600004,10.2979983 43.302,9.93400196 43.302,9.542 C43.302,9.14999804 43.2600004,8.78833499 43.176,8.457 C43.0919996,8.12566501 42.9660008,7.83866788 42.798,7.596 C42.6299992,7.35333212 42.4246679,7.16433401 42.182,7.029 C41.9393321,6.89366599 41.6593349,6.826 41.342,6.826 C41.0153317,6.826 40.7306679,6.89366599 40.488,7.029 C40.2453321,7.16433401 40.0446675,7.35333212 39.886,7.596 C39.7273325,7.83866788 39.6060004,8.12566501 39.522,8.457 C39.4379996,8.78833499 39.396,9.14999804 39.396,9.542 C39.396,9.93400196 39.4379996,10.2979983 39.522,10.634 C39.6060004,10.9700017 39.7296658,11.2616654 39.893,11.509 C40.0563341,11.7563346 40.2616654,11.9499993 40.509,12.09 C40.7563346,12.2300007 41.0433317,12.3 41.37,12.3 Z M46.004,6.112 L47.012,6.112 L47.124,7.652 C47.320001,7.14799748 47.6326645,6.7326683 48.062,6.406 C48.4913355,6.0793317 48.9999971,5.916 49.588,5.916 L49.588,7.148 C49.4573327,7.11999986 49.3126675,7.106 49.154,7.106 C48.9206655,7.106 48.6873345,7.14799958 48.454,7.232 C48.2206655,7.31600042 48.0083343,7.4513324 47.817,7.638 C47.6256657,7.8246676 47.4693339,8.06499853 47.348,8.359 C47.2266661,8.65300147 47.166,9.0099979 47.166,9.43 L47.166,13 L46.004,13 L46.004,6.112 Z M55.37,11.656 C55.1833324,12.122669 54.9080018,12.491332 54.544,12.762 C54.1799982,13.032668 53.727336,13.168 53.186,13.168 C52.7566645,13.168 52.3716684,13.0793342 52.031,12.902 C51.6903316,12.7246658 51.4010012,12.4773349 51.163,12.16 C50.9249988,11.8426651 50.7430006,11.4600022 50.617,11.012 C50.4909994,10.5639978 50.428,10.069336 50.428,9.528 C50.428,8.9679972 50.4933327,8.46633555 50.624,8.023 C50.7546673,7.57966445 50.9413321,7.20400154 51.184,6.896 C51.4266679,6.58799846 51.7183316,6.35000084 52.059,6.182 C52.3996684,6.01399916 52.7753313,5.93 53.186,5.93 C53.7460028,5.93 54.2033316,6.06299867 54.558,6.329 C54.9126684,6.59500133 55.1646659,6.9146648 55.314,7.288 L55.314,3.116 L56.49,3.116 L56.49,13 L55.37,13 L55.37,11.656 Z M55.314,9.514 C55.314,9.22466522 55.3070001,8.99833415 55.293,8.835 C55.2789999,8.67166585 55.2626668,8.53866718 55.244,8.436 C55.1973331,8.23066564 55.1273338,8.0346676 55.034,7.848 C54.9406662,7.6613324 54.8216674,7.49566739 54.677,7.351 C54.5323326,7.20633261 54.362001,7.09200042 54.166,7.008 C53.969999,6.92399958 53.7460013,6.882 53.494,6.882 C53.1766651,6.882 52.9036678,6.9519993 52.675,7.092 C52.4463322,7.2320007 52.2550008,7.42099881 52.101,7.659 C51.9469992,7.89700119 51.832667,8.17699839 51.758,8.499 C51.683333,8.82100161 51.646,9.16399818 51.646,9.528 C51.646,9.92000196 51.6879996,10.281665 51.772,10.613 C51.8560004,10.944335 51.9773325,11.2289988 52.136,11.467 C52.2946675,11.7050012 52.4906655,11.891666 52.724,12.027 C52.9573345,12.162334 53.2233318,12.23 53.522,12.23 C53.7553345,12.23 53.9676657,12.1880004 54.159,12.104 C54.3503343,12.0199996 54.5183326,11.9033341 54.663,11.754 C54.8076674,11.6046659 54.9266662,11.4343343 55.02,11.243 C55.1133338,11.0516657 55.1833331,10.8486677 55.23,10.634 C55.2860003,10.3726654 55.314,10.0226689 55.314,9.584 L55.314,9.514 Z" id="Password" fill="#4C5358"></path>
                    <path d="M0.5,45.5 L199.5,45.5" id="Line" stroke="#7C878E" stroke-linecap="square"></path>
                    <path d="M1.056,30.704 C1.056,30.437332 1.10666616,30.1840012 1.208,29.944 C1.30933384,29.7039988 1.44799912,29.4960009 1.624,29.32 C1.80000088,29.1439991 2.01066544,29.0053338 2.256,28.904 C2.50133456,28.8026662 2.76266528,28.752 3.04,28.752 C3.31733472,28.752 3.5759988,28.8026662 3.816,28.904 C4.0560012,29.0053338 4.26399912,29.1439991 4.44,29.32 C4.61600088,29.4960009 4.75466616,29.7039988 4.856,29.944 C4.95733384,30.1840012 5.008,30.437332 5.008,30.704 C5.008,30.9813347 4.95733384,31.2399988 4.856,31.48 C4.75466616,31.7200012 4.61600088,31.9279991 4.44,32.104 C4.26399912,32.2800009 4.0560012,32.4213328 3.816,32.528 C3.5759988,32.6346672 3.31733472,32.688 3.04,32.688 C2.76266528,32.688 2.50133456,32.6346672 2.256,32.528 C2.01066544,32.4213328 1.80000088,32.2800009 1.624,32.104 C1.44799912,31.9279991 1.30933384,31.7200012 1.208,31.48 C1.10666616,31.2399988 1.056,30.9813347 1.056,30.704 Z M7.136,30.704 C7.136,30.437332 7.18666616,30.1840012 7.288,29.944 C7.38933384,29.7039988 7.52799912,29.4960009 7.704,29.32 C7.88000088,29.1439991 8.09066544,29.0053338 8.336,28.904 C8.58133456,28.8026662 8.84266528,28.752 9.12,28.752 C9.39733472,28.752 9.6559988,28.8026662 9.896,28.904 C10.1360012,29.0053338 10.3439991,29.1439991 10.52,29.32 C10.6960009,29.4960009 10.8346662,29.7039988 10.936,29.944 C11.0373338,30.1840012 11.088,30.437332 11.088,30.704 C11.088,30.9813347 11.0373338,31.2399988 10.936,31.48 C10.8346662,31.7200012 10.6960009,31.9279991 10.52,32.104 C10.3439991,32.2800009 10.1360012,32.4213328 9.896,32.528 C9.6559988,32.6346672 9.39733472,32.688 9.12,32.688 C8.84266528,32.688 8.58133456,32.6346672 8.336,32.528 C8.09066544,32.4213328 7.88000088,32.2800009 7.704,32.104 C7.52799912,31.9279991 7.38933384,31.7200012 7.288,31.48 C7.18666616,31.2399988 7.136,30.9813347 7.136,30.704 Z M13.216,30.704 C13.216,30.437332 13.2666662,30.1840012 13.368,29.944 C13.4693338,29.7039988 13.6079991,29.4960009 13.784,29.32 C13.9600009,29.1439991 14.1706654,29.0053338 14.416,28.904 C14.6613346,28.8026662 14.9226653,28.752 15.2,28.752 C15.4773347,28.752 15.7359988,28.8026662 15.976,28.904 C16.2160012,29.0053338 16.4239991,29.1439991 16.6,29.32 C16.7760009,29.4960009 16.9146662,29.7039988 17.016,29.944 C17.1173338,30.1840012 17.168,30.437332 17.168,30.704 C17.168,30.9813347 17.1173338,31.2399988 17.016,31.48 C16.9146662,31.7200012 16.7760009,31.9279991 16.6,32.104 C16.4239991,32.2800009 16.2160012,32.4213328 15.976,32.528 C15.7359988,32.6346672 15.4773347,32.688 15.2,32.688 C14.9226653,32.688 14.6613346,32.6346672 14.416,32.528 C14.1706654,32.4213328 13.9600009,32.2800009 13.784,32.104 C13.6079991,31.9279991 13.4693338,31.7200012 13.368,31.48 C13.2666662,31.2399988 13.216,30.9813347 13.216,30.704 Z M19.296,30.704 C19.296,30.437332 19.3466662,30.1840012 19.448,29.944 C19.5493338,29.7039988 19.6879991,29.4960009 19.864,29.32 C20.0400009,29.1439991 20.2506654,29.0053338 20.496,28.904 C20.7413346,28.8026662 21.0026653,28.752 21.28,28.752 C21.5573347,28.752 21.8159988,28.8026662 22.056,28.904 C22.2960012,29.0053338 22.5039991,29.1439991 22.68,29.32 C22.8560009,29.4960009 22.9946662,29.7039988 23.096,29.944 C23.1973338,30.1840012 23.248,30.437332 23.248,30.704 C23.248,30.9813347 23.1973338,31.2399988 23.096,31.48 C22.9946662,31.7200012 22.8560009,31.9279991 22.68,32.104 C22.5039991,32.2800009 22.2960012,32.4213328 22.056,32.528 C21.8159988,32.6346672 21.5573347,32.688 21.28,32.688 C21.0026653,32.688 20.7413346,32.6346672 20.496,32.528 C20.2506654,32.4213328 20.0400009,32.2800009 19.864,32.104 C19.6879991,31.9279991 19.5493338,31.7200012 19.448,31.48 C19.3466662,31.2399988 19.296,30.9813347 19.296,30.704 Z M25.376,30.704 C25.376,30.437332 25.4266662,30.1840012 25.528,29.944 C25.6293338,29.7039988 25.7679991,29.4960009 25.944,29.32 C26.1200009,29.1439991 26.3306654,29.0053338 26.576,28.904 C26.8213346,28.8026662 27.0826653,28.752 27.36,28.752 C27.6373347,28.752 27.8959988,28.8026662 28.136,28.904 C28.3760012,29.0053338 28.5839991,29.1439991 28.76,29.32 C28.9360009,29.4960009 29.0746662,29.7039988 29.176,29.944 C29.2773338,30.1840012 29.328,30.437332 29.328,30.704 C29.328,30.9813347 29.2773338,31.2399988 29.176,31.48 C29.0746662,31.7200012 28.9360009,31.9279991 28.76,32.104 C28.5839991,32.2800009 28.3760012,32.4213328 28.136,32.528 C27.8959988,32.6346672 27.6373347,32.688 27.36,32.688 C27.0826653,32.688 26.8213346,32.6346672 26.576,32.528 C26.3306654,32.4213328 26.1200009,32.2800009 25.944,32.104 C25.7679991,31.9279991 25.6293338,31.7200012 25.528,31.48 C25.4266662,31.2399988 25.376,30.9813347 25.376,30.704 Z M31.456,30.704 C31.456,30.437332 31.5066662,30.1840012 31.608,29.944 C31.7093338,29.7039988 31.8479991,29.4960009 32.024,29.32 C32.2000009,29.1439991 32.4106654,29.0053338 32.656,28.904 C32.9013346,28.8026662 33.1626653,28.752 33.44,28.752 C33.7173347,28.752 33.9759988,28.8026662 34.216,28.904 C34.4560012,29.0053338 34.6639991,29.1439991 34.84,29.32 C35.0160009,29.4960009 35.1546662,29.7039988 35.256,29.944 C35.3573338,30.1840012 35.408,30.437332 35.408,30.704 C35.408,30.9813347 35.3573338,31.2399988 35.256,31.48 C35.1546662,31.7200012 35.0160009,31.9279991 34.84,32.104 C34.6639991,32.2800009 34.4560012,32.4213328 34.216,32.528 C33.9759988,32.6346672 33.7173347,32.688 33.44,32.688 C33.1626653,32.688 32.9013346,32.6346672 32.656,32.528 C32.4106654,32.4213328 32.2000009,32.2800009 32.024,32.104 C31.8479991,31.9279991 31.7093338,31.7200012 31.608,31.48 C31.5066662,31.2399988 31.456,30.9813347 31.456,30.704 Z M37.536,30.704 C37.536,30.437332 37.5866662,30.1840012 37.688,29.944 C37.7893338,29.7039988 37.9279991,29.4960009 38.104,29.32 C38.2800009,29.1439991 38.4906654,29.0053338 38.736,28.904 C38.9813346,28.8026662 39.2426653,28.752 39.52,28.752 C39.7973347,28.752 40.0559988,28.8026662 40.296,28.904 C40.5360012,29.0053338 40.7439991,29.1439991 40.92,29.32 C41.0960009,29.4960009 41.2346662,29.7039988 41.336,29.944 C41.4373338,30.1840012 41.488,30.437332 41.488,30.704 C41.488,30.9813347 41.4373338,31.2399988 41.336,31.48 C41.2346662,31.7200012 41.0960009,31.9279991 40.92,32.104 C40.7439991,32.2800009 40.5360012,32.4213328 40.296,32.528 C40.0559988,32.6346672 39.7973347,32.688 39.52,32.688 C39.2426653,32.688 38.9813346,32.6346672 38.736,32.528 C38.4906654,32.4213328 38.2800009,32.2800009 38.104,32.104 C37.9279991,31.9279991 37.7893338,31.7200012 37.688,31.48 C37.5866662,31.2399988 37.536,30.9813347 37.536,30.704 Z M43.616,30.704 C43.616,30.437332 43.6666662,30.1840012 43.768,29.944 C43.8693338,29.7039988 44.0079991,29.4960009 44.184,29.32 C44.3600009,29.1439991 44.5706654,29.0053338 44.816,28.904 C45.0613346,28.8026662 45.3226653,28.752 45.6,28.752 C45.8773347,28.752 46.1359988,28.8026662 46.376,28.904 C46.6160012,29.0053338 46.8239991,29.1439991 47,29.32 C47.1760009,29.4960009 47.3146662,29.7039988 47.416,29.944 C47.5173338,30.1840012 47.568,30.437332 47.568,30.704 C47.568,30.9813347 47.5173338,31.2399988 47.416,31.48 C47.3146662,31.7200012 47.1760009,31.9279991 47,32.104 C46.8239991,32.2800009 46.6160012,32.4213328 46.376,32.528 C46.1359988,32.6346672 45.8773347,32.688 45.6,32.688 C45.3226653,32.688 45.0613346,32.6346672 44.816,32.528 C44.5706654,32.4213328 44.3600009,32.2800009 44.184,32.104 C44.0079991,31.9279991 43.8693338,31.7200012 43.768,31.48 C43.6666662,31.2399988 43.616,30.9813347 43.616,30.704 Z M49.696,30.704 C49.696,30.437332 49.7466662,30.1840012 49.848,29.944 C49.9493338,29.7039988 50.0879991,29.4960009 50.264,29.32 C50.4400009,29.1439991 50.6506654,29.0053338 50.896,28.904 C51.1413346,28.8026662 51.4026653,28.752 51.68,28.752 C51.9573347,28.752 52.2159988,28.8026662 52.456,28.904 C52.6960012,29.0053338 52.9039991,29.1439991 53.08,29.32 C53.2560009,29.4960009 53.3946662,29.7039988 53.496,29.944 C53.5973338,30.1840012 53.648,30.437332 53.648,30.704 C53.648,30.9813347 53.5973338,31.2399988 53.496,31.48 C53.3946662,31.7200012 53.2560009,31.9279991 53.08,32.104 C52.9039991,32.2800009 52.6960012,32.4213328 52.456,32.528 C52.2159988,32.6346672 51.9573347,32.688 51.68,32.688 C51.4026653,32.688 51.1413346,32.6346672 50.896,32.528 C50.6506654,32.4213328 50.4400009,32.2800009 50.264,32.104 C50.0879991,31.9279991 49.9493338,31.7200012 49.848,31.48 C49.7466662,31.2399988 49.696,30.9813347 49.696,30.704 Z M55.776,30.704 C55.776,30.437332 55.8266662,30.1840012 55.928,29.944 C56.0293338,29.7039988 56.1679991,29.4960009 56.344,29.32 C56.5200009,29.1439991 56.7306654,29.0053338 56.976,28.904 C57.2213346,28.8026662 57.4826653,28.752 57.76,28.752 C58.0373347,28.752 58.2959988,28.8026662 58.536,28.904 C58.7760012,29.0053338 58.9839991,29.1439991 59.16,29.32 C59.3360009,29.4960009 59.4746662,29.7039988 59.576,29.944 C59.6773338,30.1840012 59.728,30.437332 59.728,30.704 C59.728,30.9813347 59.6773338,31.2399988 59.576,31.48 C59.4746662,31.7200012 59.3360009,31.9279991 59.16,32.104 C58.9839991,32.2800009 58.7760012,32.4213328 58.536,32.528 C58.2959988,32.6346672 58.0373347,32.688 57.76,32.688 C57.4826653,32.688 57.2213346,32.6346672 56.976,32.528 C56.7306654,32.4213328 56.5200009,32.2800009 56.344,32.104 C56.1679991,31.9279991 56.0293338,31.7200012 55.928,31.48 C55.8266662,31.2399988 55.776,30.9813347 55.776,30.704 Z" id="" fill="#000000"></path>
                </g>
            </g>
        </g>
    </g>
</svg>