<?xml version="1.0" encoding="UTF-8"?>
<svg width="258px" height="23px" viewBox="0 0 258 23" version="1.1" xmlns="http://www.w3.org/2000/svg" xmlns:xlink="http://www.w3.org/1999/xlink">
    <!-- Generator: Sketch 47 (45396) - http://www.bohemiancoding.com/sketch -->
    <title>InlineLabels</title>
    <desc>Created with Sketch.</desc>
    <defs></defs>
    <g id="Page-1" stroke="none" stroke-width="1" fill="none" fill-rule="evenodd">
        <g id="Buttons-Usage-extra-large-1200" transform="translate(-794.000000, -2985.000000)">
            <g id="InlineLabels" transform="translate(794.000000, 2985.000000)">
                <path d="M3.234,1.096 L0.308,1.096 L0.308,0.116 L7.406,0.116 L7.406,1.096 L4.494,1.096 L4.494,10 L3.234,10 L3.234,1.096 Z M8.652,6.822 C8.6986669,7.6153373 8.90166487,8.22899783 9.261,8.663 C9.62033513,9.09700217 10.1219968,9.314 10.766,9.314 C11.5780041,9.314 12.1893313,8.93133716 12.6,8.166 L13.482,8.656 C13.211332,9.11333562 12.8520022,9.48666522 12.404,9.776 C11.9559978,10.0653348 11.3913367,10.21 10.71,10.21 C10.168664,10.21 9.69500203,10.1166676 9.289,9.93 C8.88299797,9.7433324 8.54466802,9.4866683 8.274,9.16 C8.00333198,8.8333317 7.80033401,8.45066886 7.665,8.012 C7.52966599,7.57333114 7.462,7.10200252 7.462,6.598 C7.462,6.10333086 7.52733268,5.63200224 7.658,5.184 C7.78866732,4.73599776 7.98699867,4.34400168 8.253,4.008 C8.51900133,3.67199832 8.84566473,3.40600098 9.233,3.21 C9.62033527,3.01399902 10.0753307,2.916 10.598,2.916 C11.1020025,2.916 11.5406648,3.01166571 11.914,3.203 C12.2873352,3.39433429 12.5976654,3.65099839 12.845,3.973 C13.0923346,4.29500161 13.2789994,4.66833121 13.405,5.093 C13.5310006,5.51766879 13.594,5.96799762 13.594,6.444 C13.594,6.54666718 13.5916667,6.62599972 13.587,6.682 C13.5823333,6.73800028 13.58,6.78466648 13.58,6.822 L8.652,6.822 Z M10.584,3.798 C9.99599706,3.798 9.54100161,4.0079979 9.219,4.428 C8.89699839,4.8480021 8.7126669,5.41266312 8.666,6.122 L12.404,6.122 C12.404,5.83266522 12.3713337,5.55033471 12.306,5.275 C12.2406663,4.99966529 12.1333341,4.75233443 11.984,4.533 C11.8346659,4.31366557 11.6456678,4.13633401 11.417,4.001 C11.1883322,3.86566599 10.9106683,3.798 10.584,3.798 Z M16.38,6.402 L14.322,3.112 L15.61,3.112 L17.206,5.73 L18.802,3.112 L20.076,3.112 L18.004,6.402 L20.342,10 L18.984,10 L17.206,7.088 L15.4,10 L14.056,10 L16.38,6.402 Z M22.176,3.91 L21,3.91 L21,3.112 L21.252,3.112 C21.5413348,3.112 21.7676659,3.08166697 21.931,3.021 C22.0943342,2.96033303 22.2179996,2.86700063 22.302,2.741 C22.3860004,2.61499937 22.4466665,2.44933436 22.484,2.244 C22.5213335,2.03866564 22.5539999,1.78666816 22.582,1.488 L22.61,1.236 L23.338,1.236 L23.338,3.112 L24.822,3.112 L24.822,3.91 L23.338,3.91 L23.338,8.194 C23.338,8.58600196 23.3963327,8.86833247 23.513,9.041 C23.6296673,9.21366753 23.8466651,9.3 24.164,9.3 C24.4160013,9.3 24.6493323,9.24400056 24.864,9.132 L24.99,9.972 C24.6353316,10.1306675 24.2433355,10.21 23.814,10.21 C23.4779983,10.21 23.205001,10.1633338 22.995,10.07 C22.784999,9.9766662 22.6193339,9.85066746 22.498,9.692 C22.3766661,9.53333254 22.2926669,9.34200112 22.246,9.118 C22.1993331,8.89399888 22.176,8.65133464 22.176,8.39 L22.176,3.91 Z M29.372,0.116 L30.534,0.116 L30.534,10 L29.372,10 L29.372,0.116 Z M36.652,10 C36.5493328,9.66399832 36.4886668,9.262669 36.47,8.796 C36.2833324,9.22533548 35.9963353,9.56833205 35.609,9.825 C35.2216647,10.0816679 34.7620027,10.21 34.23,10.21 C33.5579966,10.21 33.026002,10.0186686 32.634,9.636 C32.241998,9.25333142 32.046,8.74000322 32.046,8.096 C32.046,7.73199818 32.1113327,7.42633457 32.242,7.179 C32.3726673,6.93166543 32.5546655,6.72633415 32.788,6.563 C33.0213345,6.39966585 33.2966651,6.2713338 33.614,6.178 C33.9313349,6.0846662 34.2766648,6.01000028 34.65,5.954 L36.414,5.688 L36.414,5.254 C36.414,4.94599846 36.376667,4.6986676 36.302,4.512 C36.227333,4.3253324 36.1246673,4.18066718 35.994,4.078 C35.8633327,3.97533282 35.7140008,3.90766683 35.546,3.875 C35.3779992,3.84233317 35.2006676,3.826 35.014,3.826 C34.4819973,3.826 34.0433351,3.92399902 33.698,4.12 C33.3526649,4.31600098 33.0633345,4.56333184 32.83,4.862 L32.228,4.106 C32.498668,3.7793317 32.8743309,3.4993345 33.355,3.266 C33.8356691,3.0326655 34.4306631,2.916 35.14,2.916 C35.998671,2.916 36.6216647,3.10733142 37.009,3.49 C37.3963353,3.87266858 37.59,4.48866242 37.59,5.338 L37.59,8.124 C37.59,8.34800112 37.5923333,8.54399916 37.597,8.712 C37.6016667,8.88000084 37.6109999,9.03633261 37.625,9.181 C37.6390001,9.32566739 37.6599999,9.46333268 37.688,9.594 C37.7160001,9.72466732 37.7533331,9.8599993 37.8,10 L36.652,10 Z M36.414,6.458 L34.762,6.724 C34.1926638,6.82666718 33.7890012,6.98066564 33.551,7.186 C33.3129988,7.39133436 33.194,7.67599818 33.194,8.04 C33.194,8.4133352 33.3036656,8.72599874 33.523,8.978 C33.7423344,9.23000126 34.0666645,9.356 34.496,9.356 C34.7573346,9.356 35.0046655,9.30466718 35.238,9.202 C35.4713345,9.09933282 35.6743325,8.95700091 35.847,8.775 C36.0196675,8.59299909 36.1573328,8.37366795 36.26,8.117 C36.3626672,7.86033205 36.414,7.57800154 36.414,7.27 L36.414,6.458 Z M39.452,0.116 L40.614,0.116 L40.614,4.33 C40.8006676,3.93799804 41.0783315,3.60433471 41.447,3.329 C41.8156685,3.05366529 42.2753306,2.916 42.826,2.916 C43.2273353,2.916 43.593665,2.99999916 43.925,3.168 C44.256335,3.33600084 44.5386655,3.57633177 44.772,3.889 C45.0053345,4.20166823 45.1849994,4.57733114 45.311,5.016 C45.4370006,5.45466886 45.5,5.94466396 45.5,6.486 C45.5,7.01800266 45.4370006,7.51033107 45.311,7.963 C45.1849994,8.41566893 45.0053345,8.8053317 44.772,9.132 C44.5386655,9.4586683 44.2516684,9.7153324 43.911,9.902 C43.5703316,10.0886676 43.1853355,10.182 42.756,10.182 C42.2519975,10.182 41.804002,10.0536679 41.412,9.797 C41.019998,9.54033205 40.726001,9.17400238 40.53,8.698 L40.39,10 L39.452,10 L39.452,0.116 Z M40.614,6.584 C40.614,6.78933436 40.6209999,6.97366585 40.635,7.137 C40.6490001,7.30033415 40.6653332,7.43799944 40.684,7.55 C40.7213335,7.77400112 40.7913328,7.98866564 40.894,8.194 C40.9966672,8.39933436 41.1226659,8.57899923 41.272,8.733 C41.4213341,8.88700077 41.5963323,9.0106662 41.797,9.104 C41.9976677,9.1973338 42.2193321,9.244 42.462,9.244 C42.7793349,9.244 43.0523322,9.16700077 43.281,9.013 C43.5096678,8.85899923 43.6986659,8.65600126 43.848,8.404 C43.9973341,8.15199874 44.1069996,7.86500161 44.177,7.543 C44.2470003,7.22099839 44.282,6.89200168 44.282,6.556 C44.282,6.21066494 44.244667,5.87700161 44.17,5.555 C44.095333,5.23299839 43.9833341,4.94833457 43.834,4.701 C43.6846659,4.45366543 43.4933345,4.25533408 43.26,4.106 C43.0266655,3.95666592 42.7513349,3.882 42.434,3.882 C42.1819987,3.882 41.9556677,3.92633289 41.755,4.015 C41.5543323,4.10366711 41.3793341,4.22499923 41.23,4.379 C41.0806659,4.53300077 40.9593338,4.71266564 40.866,4.918 C40.7726662,5.12333436 40.7073335,5.3426655 40.67,5.576 C40.6513332,5.6693338 40.6373334,5.78833261 40.628,5.933 C40.6186666,6.07766739 40.614,6.28066536 40.614,6.542 L40.614,6.584 Z M47.866,6.822 C47.9126669,7.6153373 48.1156649,8.22899783 48.475,8.663 C48.8343351,9.09700217 49.3359968,9.314 49.98,9.314 C50.7920041,9.314 51.4033313,8.93133716 51.814,8.166 L52.696,8.656 C52.425332,9.11333562 52.0660022,9.48666522 51.618,9.776 C51.1699978,10.0653348 50.6053367,10.21 49.924,10.21 C49.382664,10.21 48.909002,10.1166676 48.503,9.93 C48.096998,9.7433324 47.758668,9.4866683 47.488,9.16 C47.217332,8.8333317 47.014334,8.45066886 46.879,8.012 C46.743666,7.57333114 46.676,7.10200252 46.676,6.598 C46.676,6.10333086 46.7413327,5.63200224 46.872,5.184 C47.0026673,4.73599776 47.2009987,4.34400168 47.467,4.008 C47.7330013,3.67199832 48.0596647,3.40600098 48.447,3.21 C48.8343353,3.01399902 49.2893307,2.916 49.812,2.916 C50.3160025,2.916 50.7546648,3.01166571 51.128,3.203 C51.5013352,3.39433429 51.8116654,3.65099839 52.059,3.973 C52.3063346,4.29500161 52.4929994,4.66833121 52.619,5.093 C52.7450006,5.51766879 52.808,5.96799762 52.808,6.444 C52.808,6.54666718 52.8056667,6.62599972 52.801,6.682 C52.7963333,6.73800028 52.794,6.78466648 52.794,6.822 L47.866,6.822 Z M49.798,3.798 C49.2099971,3.798 48.7550016,4.0079979 48.433,4.428 C48.1109984,4.8480021 47.9266669,5.41266312 47.88,6.122 L51.618,6.122 C51.618,5.83266522 51.5853337,5.55033471 51.52,5.275 C51.4546663,4.99966529 51.3473341,4.75233443 51.198,4.533 C51.0486659,4.31366557 50.8596678,4.13633401 50.631,4.001 C50.4023322,3.86566599 50.1246683,3.798 49.798,3.798 Z M54.222,0.116 L55.384,0.116 L55.384,10 L54.222,10 L54.222,0.116 Z M60.326,0.438 L61.488,0.438 L61.488,1.6 L60.326,1.6 L60.326,0.438 Z M60.326,3.112 L61.488,3.112 L61.488,10 L60.326,10 L60.326,3.112 Z M63.28,3.112 L64.288,3.112 L64.414,4.484 C64.5913342,4.0639979 64.8736647,3.69766823 65.261,3.385 C65.6483353,3.07233177 66.1266638,2.916 66.696,2.916 C67.4146703,2.916 67.9443316,3.14466438 68.285,3.602 C68.6256684,4.05933562 68.796,4.69866256 68.796,5.52 L68.796,10 L67.634,10 L67.634,5.758 C67.634,5.13266354 67.5080013,4.67300147 67.256,4.379 C67.0039987,4.08499853 66.6633355,3.938 66.234,3.938 C65.7206641,3.938 65.2936684,4.1479979 64.953,4.568 C64.6123316,4.9880021 64.442,5.58066284 64.442,6.346 L64.442,10 L63.28,10 L63.28,3.112 Z M70.56,0.116 L71.722,0.116 L71.722,10 L70.56,10 L70.56,0.116 Z M73.514,0.438 L74.676,0.438 L74.676,1.6 L73.514,1.6 L73.514,0.438 Z M73.514,3.112 L74.676,3.112 L74.676,10 L73.514,10 L73.514,3.112 Z M76.468,3.112 L77.476,3.112 L77.602,4.484 C77.7793342,4.0639979 78.0616647,3.69766823 78.449,3.385 C78.8363353,3.07233177 79.3146638,2.916 79.884,2.916 C80.6026703,2.916 81.1323316,3.14466438 81.473,3.602 C81.8136684,4.05933562 81.984,4.69866256 81.984,5.52 L81.984,10 L80.822,10 L80.822,5.758 C80.822,5.13266354 80.6960013,4.67300147 80.444,4.379 C80.1919987,4.08499853 79.8513355,3.938 79.422,3.938 C78.9086641,3.938 78.4816684,4.1479979 78.141,4.568 C77.8003316,4.9880021 77.63,5.58066284 77.63,6.346 L77.63,10 L76.468,10 L76.468,3.112 Z M84.63,6.822 C84.6766669,7.6153373 84.8796649,8.22899783 85.239,8.663 C85.5983351,9.09700217 86.0999968,9.314 86.744,9.314 C87.5560041,9.314 88.1673313,8.93133716 88.578,8.166 L89.46,8.656 C89.189332,9.11333562 88.8300022,9.48666522 88.382,9.776 C87.9339978,10.0653348 87.3693367,10.21 86.688,10.21 C86.146664,10.21 85.673002,10.1166676 85.267,9.93 C84.860998,9.7433324 84.522668,9.4866683 84.252,9.16 C83.981332,8.8333317 83.778334,8.45066886 83.643,8.012 C83.507666,7.57333114 83.44,7.10200252 83.44,6.598 C83.44,6.10333086 83.5053327,5.63200224 83.636,5.184 C83.7666673,4.73599776 83.9649987,4.34400168 84.231,4.008 C84.4970013,3.67199832 84.8236647,3.40600098 85.211,3.21 C85.5983353,3.01399902 86.0533307,2.916 86.576,2.916 C87.0800025,2.916 87.5186648,3.01166571 87.892,3.203 C88.2653352,3.39433429 88.5756654,3.65099839 88.823,3.973 C89.0703346,4.29500161 89.2569994,4.66833121 89.383,5.093 C89.5090006,5.51766879 89.572,5.96799762 89.572,6.444 C89.572,6.54666718 89.5696667,6.62599972 89.565,6.682 C89.5603333,6.73800028 89.558,6.78466648 89.558,6.822 L84.63,6.822 Z M86.562,3.798 C85.9739971,3.798 85.5190016,4.0079979 85.197,4.428 C84.8749984,4.8480021 84.6906669,5.41266312 84.644,6.122 L88.382,6.122 C88.382,5.83266522 88.3493337,5.55033471 88.284,5.275 C88.2186663,4.99966529 88.1113341,4.75233443 87.962,4.533 C87.8126659,4.31366557 87.6236678,4.13633401 87.395,4.001 C87.1663322,3.86566599 86.8886683,3.798 86.562,3.798 Z" id="Text-label-inline" fill="#4C5358"></path>
                <path d="M109,22 L256.54152,22" id="Line" stroke="#7C878E" stroke-linecap="square"></path>
                <path d="M112.696,1.824 L109.352,1.824 L109.352,0.704 L117.464,0.704 L117.464,1.824 L114.136,1.824 L114.136,12 L112.696,12 L112.696,1.824 Z M118.84,0.704 L120.168,0.704 L120.168,5.68 C120.264,5.44533216 120.386666,5.2213344 120.536,5.008 C120.685334,4.7946656 120.866666,4.60533416 121.08,4.44 C121.293334,4.27466584 121.538665,4.14400048 121.816,4.048 C122.093335,3.95199952 122.402665,3.904 122.744,3.904 C123.565337,3.904 124.170665,4.17333064 124.56,4.712 C124.949335,5.25066936 125.144,5.97866208 125.144,6.896 L125.144,12 L123.816,12 L123.816,7.104 C123.816,6.43199664 123.677335,5.92800168 123.4,5.592 C123.122665,5.25599832 122.728003,5.088 122.216,5.088 C121.917332,5.088 121.642668,5.15199936 121.392,5.28 C121.141332,5.40800064 120.925334,5.58933216 120.744,5.824 C120.562666,6.05866784 120.421334,6.34133168 120.32,6.672 C120.218666,7.00266832 120.168,7.36533136 120.168,7.76 L120.168,12 L118.84,12 L118.84,0.704 Z M127.16,1.072 L128.488,1.072 L128.488,2.4 L127.16,2.4 L127.16,1.072 Z M127.16,4.128 L128.488,4.128 L128.488,12 L127.16,12 L127.16,4.128 Z M130.68,10.064 C130.946668,10.405335 131.290665,10.6879989 131.712,10.912 C132.133335,11.1360011 132.594664,11.248 133.096,11.248 C133.544002,11.248 133.933332,11.1413344 134.264,10.928 C134.594668,10.7146656 134.76,10.3946688 134.76,9.968 C134.76,9.63733168 134.650668,9.3786676 134.432,9.192 C134.213332,9.0053324 133.941335,8.84800064 133.616,8.72 C133.290665,8.59199936 132.936002,8.4746672 132.552,8.368 C132.167998,8.2613328 131.813335,8.12266752 131.488,7.952 C131.162665,7.78133248 130.890668,7.55733472 130.672,7.28 C130.453332,7.00266528 130.344,6.6240024 130.344,6.144 C130.344,5.74933136 130.423999,5.41066808 130.584,5.128 C130.744001,4.84533192 130.954665,4.61333424 131.216,4.432 C131.477335,4.25066576 131.778665,4.11733376 132.12,4.032 C132.461335,3.94666624 132.818665,3.904 133.192,3.904 C134.301339,3.904 135.223996,4.2239968 135.96,4.864 L135.288,5.76 C135.053332,5.51466544 134.741335,5.30933416 134.352,5.144 C133.962665,4.97866584 133.560002,4.896 133.144,4.896 C132.962666,4.896 132.784001,4.91733312 132.608,4.96 C132.431999,5.00266688 132.277334,5.06933288 132.144,5.16 C132.010666,5.25066712 131.904,5.36533264 131.824,5.504 C131.744,5.64266736 131.704,5.81333232 131.704,6.016 C131.704,6.32533488 131.813332,6.56533248 132.032,6.736 C132.250668,6.90666752 132.522665,7.05333272 132.848,7.176 C133.173335,7.29866728 133.525331,7.41599944 133.904,7.528 C134.282669,7.64000056 134.634665,7.78399912 134.96,7.96 C135.285335,8.13600088 135.557332,8.36799856 135.776,8.656 C135.994668,8.94400144 136.104,9.3279976 136.104,9.808 C136.104,10.2133354 136.021334,10.5679985 135.856,10.872 C135.690666,11.1760015 135.472001,11.4293323 135.2,11.632 C134.927999,11.8346677 134.613335,11.9866662 134.256,12.088 C133.898665,12.1893338 133.528002,12.24 133.144,12.24 C131.821327,12.24 130.770671,11.8133376 129.992,10.96 L130.68,10.064 Z M141.256,1.072 L142.584,1.072 L142.584,2.4 L141.256,2.4 L141.256,1.072 Z M141.256,4.128 L142.584,4.128 L142.584,12 L141.256,12 L141.256,4.128 Z M144.776,10.064 C145.042668,10.405335 145.386665,10.6879989 145.808,10.912 C146.229335,11.1360011 146.690664,11.248 147.192,11.248 C147.640002,11.248 148.029332,11.1413344 148.36,10.928 C148.690668,10.7146656 148.856,10.3946688 148.856,9.968 C148.856,9.63733168 148.746668,9.3786676 148.528,9.192 C148.309332,9.0053324 148.037335,8.84800064 147.712,8.72 C147.386665,8.59199936 147.032002,8.4746672 146.648,8.368 C146.263998,8.2613328 145.909335,8.12266752 145.584,7.952 C145.258665,7.78133248 144.986668,7.55733472 144.768,7.28 C144.549332,7.00266528 144.44,6.6240024 144.44,6.144 C144.44,5.74933136 144.519999,5.41066808 144.68,5.128 C144.840001,4.84533192 145.050665,4.61333424 145.312,4.432 C145.573335,4.25066576 145.874665,4.11733376 146.216,4.032 C146.557335,3.94666624 146.914665,3.904 147.288,3.904 C148.397339,3.904 149.319996,4.2239968 150.056,4.864 L149.384,5.76 C149.149332,5.51466544 148.837335,5.30933416 148.448,5.144 C148.058665,4.97866584 147.656002,4.896 147.24,4.896 C147.058666,4.896 146.880001,4.91733312 146.704,4.96 C146.527999,5.00266688 146.373334,5.06933288 146.24,5.16 C146.106666,5.25066712 146,5.36533264 145.92,5.504 C145.84,5.64266736 145.8,5.81333232 145.8,6.016 C145.8,6.32533488 145.909332,6.56533248 146.128,6.736 C146.346668,6.90666752 146.618665,7.05333272 146.944,7.176 C147.269335,7.29866728 147.621331,7.41599944 148,7.528 C148.378669,7.64000056 148.730665,7.78399912 149.056,7.96 C149.381335,8.13600088 149.653332,8.36799856 149.872,8.656 C150.090668,8.94400144 150.2,9.3279976 150.2,9.808 C150.2,10.2133354 150.117334,10.5679985 149.952,10.872 C149.786666,11.1760015 149.568001,11.4293323 149.296,11.632 C149.023999,11.8346677 148.709335,11.9866662 148.352,12.088 C147.994665,12.1893338 147.624002,12.24 147.24,12.24 C145.917327,12.24 144.866671,11.8133376 144.088,10.96 L144.776,10.064 Z M160.296,12 C160.178666,11.6159981 160.109333,11.157336 160.088,10.624 C159.874666,11.1146691 159.546669,11.5066652 159.104,11.8 C158.661331,12.0933348 158.136003,12.24 157.528,12.24 C156.759996,12.24 156.152002,12.0213355 155.704,11.584 C155.255998,11.1466645 155.032,10.5600037 155.032,9.824 C155.032,9.40799792 155.106666,9.05866808 155.256,8.776 C155.405334,8.49333192 155.613332,8.2586676 155.88,8.072 C156.146668,7.8853324 156.461332,7.7386672 156.824,7.632 C157.186668,7.5253328 157.581331,7.44000032 158.008,7.376 L160.024,7.072 L160.024,6.576 C160.024,6.22399824 159.981334,5.9413344 159.896,5.728 C159.810666,5.5146656 159.693334,5.34933392 159.544,5.232 C159.394666,5.11466608 159.224001,5.03733352 159.032,5 C158.839999,4.96266648 158.637334,4.944 158.424,4.944 C157.815997,4.944 157.314669,5.05599888 156.92,5.28 C156.525331,5.50400112 156.194668,5.78666496 155.928,6.128 L155.24,5.264 C155.549335,4.8906648 155.978664,4.570668 156.528,4.304 C157.077336,4.037332 157.757329,3.904 158.568,3.904 C159.549338,3.904 160.261331,4.12266448 160.704,4.56 C161.146669,4.99733552 161.368,5.70132848 161.368,6.672 L161.368,9.856 C161.368,10.1120013 161.370667,10.335999 161.376,10.528 C161.381333,10.720001 161.392,10.8986658 161.408,11.064 C161.424,11.2293342 161.448,11.3866659 161.48,11.536 C161.512,11.6853341 161.554666,11.8399992 161.608,12 L160.296,12 Z M160.024,7.952 L158.136,8.256 C157.48533,8.37333392 157.024001,8.54933216 156.752,8.784 C156.479999,9.01866784 156.344,9.34399792 156.344,9.76 C156.344,10.1866688 156.469332,10.5439986 156.72,10.832 C156.970668,11.1200014 157.341331,11.264 157.832,11.264 C158.130668,11.264 158.413332,11.2053339 158.68,11.088 C158.946668,10.9706661 159.178666,10.808001 159.376,10.6 C159.573334,10.391999 159.730666,10.1413348 159.848,9.848 C159.965334,9.5546652 160.024,9.23200176 160.024,8.88 L160.024,7.952 Z M167.096,4.128 L168.424,4.128 L168.424,5.648 C168.52,5.42399888 168.642666,5.2053344 168.792,4.992 C168.941334,4.7786656 169.119999,4.5920008 169.328,4.432 C169.536001,4.2719992 169.778665,4.14400048 170.056,4.048 C170.333335,3.95199952 170.647998,3.904 171,3.904 C171.512003,3.904 171.957331,4.0106656 172.336,4.224 C172.714669,4.4373344 173.026665,4.7306648 173.272,5.104 C173.517335,5.4773352 173.701333,5.91199752 173.824,6.408 C173.946667,6.90400248 174.008,7.43999712 174.008,8.016 C174.008,8.69867008 173.928001,9.30133072 173.768,9.824 C173.607999,10.3466693 173.384001,10.7839982 173.096,11.136 C172.807999,11.4880018 172.472002,11.7546658 172.088,11.936 C171.703998,12.1173342 171.288002,12.208 170.84,12.208 C170.25333,12.208 169.749335,12.0640014 169.328,11.776 C168.906665,11.4879986 168.605334,11.1306688 168.424,10.704 L168.424,14.768 L167.096,14.768 L167.096,4.128 Z M168.424,8.112 C168.424,8.33600112 168.432,8.5413324 168.448,8.728 C168.464,8.9146676 168.482667,9.07199936 168.504,9.2 C168.546667,9.45600128 168.626666,9.70133216 168.744,9.936 C168.861334,10.1706678 169.005332,10.3759991 169.176,10.552 C169.346668,10.7280009 169.546666,10.8693328 169.776,10.976 C170.005334,11.0826672 170.258665,11.136 170.536,11.136 C170.898668,11.136 171.210665,11.0506675 171.472,10.88 C171.733335,10.7093325 171.949332,10.4800014 172.12,10.192 C172.290668,9.90399856 172.416,9.57600184 172.496,9.208 C172.576,8.83999816 172.616,8.45866864 172.616,8.064 C172.616,7.66933136 172.578667,7.28800184 172.504,6.92 C172.429333,6.55199816 172.309334,6.22666808 172.144,5.944 C171.978666,5.66133192 171.762668,5.43466752 171.496,5.264 C171.229332,5.09333248 170.909335,5.008 170.536,5.008 C170.247999,5.008 169.984001,5.0613328 169.744,5.168 C169.503999,5.2746672 169.298668,5.41866576 169.128,5.6 C168.957332,5.78133424 168.816001,5.98933216 168.704,6.224 C168.591999,6.45866784 168.52,6.70399872 168.488,6.96 C168.466667,7.0666672 168.450667,7.2133324 168.44,7.4 C168.429333,7.5866676 168.424,7.80266544 168.424,8.048 L168.424,8.112 Z M175.704,0.704 L177.032,0.704 L177.032,12 L175.704,12 L175.704,0.704 Z M184.024,12 C183.906666,11.6159981 183.837333,11.157336 183.816,10.624 C183.602666,11.1146691 183.274669,11.5066652 182.832,11.8 C182.389331,12.0933348 181.864003,12.24 181.256,12.24 C180.487996,12.24 179.880002,12.0213355 179.432,11.584 C178.983998,11.1466645 178.76,10.5600037 178.76,9.824 C178.76,9.40799792 178.834666,9.05866808 178.984,8.776 C179.133334,8.49333192 179.341332,8.2586676 179.608,8.072 C179.874668,7.8853324 180.189332,7.7386672 180.552,7.632 C180.914668,7.5253328 181.309331,7.44000032 181.736,7.376 L183.752,7.072 L183.752,6.576 C183.752,6.22399824 183.709334,5.9413344 183.624,5.728 C183.538666,5.5146656 183.421334,5.34933392 183.272,5.232 C183.122666,5.11466608 182.952001,5.03733352 182.76,5 C182.567999,4.96266648 182.365334,4.944 182.152,4.944 C181.543997,4.944 181.042669,5.05599888 180.648,5.28 C180.253331,5.50400112 179.922668,5.78666496 179.656,6.128 L178.968,5.264 C179.277335,4.8906648 179.706664,4.570668 180.256,4.304 C180.805336,4.037332 181.485329,3.904 182.296,3.904 C183.277338,3.904 183.989331,4.12266448 184.432,4.56 C184.874669,4.99733552 185.096,5.70132848 185.096,6.672 L185.096,9.856 C185.096,10.1120013 185.098667,10.335999 185.104,10.528 C185.109333,10.720001 185.12,10.8986658 185.136,11.064 C185.152,11.2293342 185.176,11.3866659 185.208,11.536 C185.24,11.6853341 185.282666,11.8399992 185.336,12 L184.024,12 Z M183.752,7.952 L181.864,8.256 C181.21333,8.37333392 180.752001,8.54933216 180.48,8.784 C180.207999,9.01866784 180.072,9.34399792 180.072,9.76 C180.072,10.1866688 180.197332,10.5439986 180.448,10.832 C180.698668,11.1200014 181.069331,11.264 181.56,11.264 C181.858668,11.264 182.141332,11.2053339 182.408,11.088 C182.674668,10.9706661 182.906666,10.808001 183.104,10.6 C183.301334,10.391999 183.458666,10.1413348 183.576,9.848 C183.693334,9.5546652 183.752,9.23200176 183.752,8.88 L183.752,7.952 Z M193.8,10.272 C193.479998,10.9120032 193.050669,11.3999983 192.512,11.736 C191.973331,12.0720017 191.320004,12.24 190.552,12.24 C189.922664,12.24 189.376002,12.1306678 188.912,11.912 C188.447998,11.6933322 188.064002,11.3973352 187.76,11.024 C187.455998,10.6506648 187.232001,10.2106692 187.088,9.704 C186.943999,9.1973308 186.872,8.65600288 186.872,8.08 C186.872,7.4933304 186.949333,6.9466692 187.104,6.44 C187.258667,5.9333308 187.487998,5.4933352 187.792,5.12 C188.096002,4.7466648 188.477331,4.45066776 188.936,4.232 C189.394669,4.01333224 189.93333,3.904 190.552,3.904 C191.330671,3.904 191.978664,4.0773316 192.496,4.424 C193.013336,4.7706684 193.431998,5.25866352 193.752,5.888 L192.632,6.416 C192.226665,5.43466176 191.544005,4.944 190.584,4.944 C190.178665,4.944 189.829335,5.0239992 189.536,5.184 C189.242665,5.3440008 189.002668,5.56266528 188.816,5.84 C188.629332,6.11733472 188.490667,6.43999816 188.4,6.808 C188.309333,7.17600184 188.264,7.5733312 188.264,8 C188.264,8.40533536 188.306666,8.79999808 188.392,9.184 C188.477334,9.56800192 188.615999,9.90933184 188.808,10.208 C189.000001,10.5066682 189.245332,10.7466658 189.544,10.928 C189.842668,11.1093342 190.210664,11.2 190.648,11.2 C191.202669,11.2 191.650665,11.0586681 191.992,10.776 C192.333335,10.4933319 192.594666,10.1280022 192.776,9.68 L193.8,10.272 Z M196.28,8.368 C196.333334,9.2746712 196.565331,9.97599752 196.976,10.472 C197.386669,10.9680025 197.959996,11.216 198.696,11.216 C199.624005,11.216 200.322664,10.778671 200.792,9.904 L201.8,10.464 C201.490665,10.9866693 201.080003,11.4133317 200.568,11.744 C200.055997,12.0746683 199.410671,12.24 198.632,12.24 C198.01333,12.24 197.472002,12.1333344 197.008,11.92 C196.543998,11.7066656 196.157335,11.4133352 195.848,11.04 C195.538665,10.6666648 195.306667,10.2293358 195.152,9.728 C194.997333,9.22666416 194.92,8.68800288 194.92,8.112 C194.92,7.54666384 194.994666,7.00800256 195.144,6.496 C195.293334,5.98399744 195.519998,5.53600192 195.824,5.152 C196.128002,4.76799808 196.501331,4.46400112 196.944,4.24 C197.386669,4.01599888 197.906664,3.904 198.504,3.904 C199.080003,3.904 199.581331,4.01333224 200.008,4.232 C200.434669,4.45066776 200.789332,4.74399816 201.072,5.112 C201.354668,5.48000184 201.567999,5.90666424 201.712,6.392 C201.856001,6.87733576 201.928,7.39199728 201.928,7.936 C201.928,8.05333392 201.925333,8.14399968 201.92,8.208 C201.914667,8.27200032 201.912,8.32533312 201.912,8.368 L196.28,8.368 Z M198.488,4.912 C197.815997,4.912 197.296002,5.1519976 196.928,5.632 C196.559998,6.1120024 196.349334,6.75732928 196.296,7.568 L200.568,7.568 C200.568,7.23733168 200.530667,6.91466824 200.456,6.6 C200.381333,6.28533176 200.258668,6.00266792 200.088,5.752 C199.917332,5.50133208 199.701335,5.29866744 199.44,5.144 C199.178665,4.98933256 198.861335,4.912 198.488,4.912 Z M203.544,0.704 L204.872,0.704 L204.872,5.68 C204.968,5.44533216 205.090666,5.2213344 205.24,5.008 C205.389334,4.7946656 205.570666,4.60533416 205.784,4.44 C205.997334,4.27466584 206.242665,4.14400048 206.52,4.048 C206.797335,3.95199952 207.106665,3.904 207.448,3.904 C208.269337,3.904 208.874665,4.17333064 209.264,4.712 C209.653335,5.25066936 209.848,5.97866208 209.848,6.896 L209.848,12 L208.52,12 L208.52,7.104 C208.52,6.43199664 208.381335,5.92800168 208.104,5.592 C207.826665,5.25599832 207.432003,5.088 206.92,5.088 C206.621332,5.088 206.346668,5.15199936 206.096,5.28 C205.845332,5.40800064 205.629334,5.58933216 205.448,5.824 C205.266666,6.05866784 205.125334,6.34133168 205.024,6.672 C204.922666,7.00266832 204.872,7.36533136 204.872,7.76 L204.872,12 L203.544,12 L203.544,0.704 Z M215.128,12.24 C214.530664,12.24 214.005336,12.1306678 213.552,11.912 C213.098664,11.6933322 212.720002,11.3946686 212.416,11.016 C212.111998,10.6373314 211.885334,10.1946692 211.736,9.688 C211.586666,9.1813308 211.512,8.6346696 211.512,8.048 C211.512,7.4613304 211.589333,6.91733584 211.744,6.416 C211.898667,5.91466416 212.127998,5.4773352 212.432,5.104 C212.736002,4.7306648 213.114664,4.4373344 213.568,4.224 C214.021336,4.0106656 214.54133,3.904 215.128,3.904 C215.71467,3.904 216.234664,4.0106656 216.688,4.224 C217.141336,4.4373344 217.522665,4.72799816 217.832,5.096 C218.141335,5.46400184 218.373333,5.9013308 218.528,6.408 C218.682667,6.9146692 218.76,7.4613304 218.76,8.048 C218.76,8.6346696 218.682667,9.1813308 218.528,9.688 C218.373333,10.1946692 218.141335,10.6373314 217.832,11.016 C217.522665,11.3946686 217.141336,11.6933322 216.688,11.912 C216.234664,12.1306678 215.71467,12.24 215.128,12.24 Z M215.16,11.2 C215.522668,11.2 215.842665,11.1200008 216.12,10.96 C216.397335,10.7999992 216.626666,10.5786681 216.808,10.296 C216.989334,10.0133319 217.128,9.68000192 217.224,9.296 C217.32,8.91199808 217.368,8.49600224 217.368,8.048 C217.368,7.59999776 217.32,7.18666856 217.224,6.808 C217.128,6.42933144 216.984001,6.10133472 216.792,5.824 C216.599999,5.54666528 216.365335,5.33066744 216.088,5.176 C215.810665,5.02133256 215.490668,4.944 215.128,4.944 C214.754665,4.944 214.429335,5.02133256 214.152,5.176 C213.874665,5.33066744 213.645334,5.54666528 213.464,5.824 C213.282666,6.10133472 213.144,6.42933144 213.048,6.808 C212.952,7.18666856 212.904,7.59999776 212.904,8.048 C212.904,8.49600224 212.952,8.91199808 213.048,9.296 C213.144,9.68000192 213.285332,10.0133319 213.472,10.296 C213.658668,10.5786681 213.893332,10.7999992 214.176,10.96 C214.458668,11.1200008 214.786665,11.2 215.16,11.2 Z M220.456,0.704 L221.784,0.704 L221.784,12 L220.456,12 L220.456,0.704 Z M229.128,10.464 C228.914666,10.997336 228.600002,11.4186651 228.184,11.728 C227.767998,12.0373349 227.25067,12.192 226.632,12.192 C226.141331,12.192 225.701335,12.0906677 225.312,11.888 C224.922665,11.6853323 224.592001,11.4026685 224.32,11.04 C224.047999,10.6773315 223.840001,10.2400026 223.696,9.728 C223.551999,9.21599744 223.48,8.65066976 223.48,8.032 C223.48,7.3919968 223.554666,6.8186692 223.704,6.312 C223.853334,5.8053308 224.066665,5.37600176 224.344,5.024 C224.621335,4.67199824 224.954665,4.40000096 225.344,4.208 C225.733335,4.01599904 226.162664,3.92 226.632,3.92 C227.272003,3.92 227.794665,4.07199848 228.2,4.376 C228.605335,4.68000152 228.893332,5.0453312 229.064,5.472 L229.064,0.704 L230.408,0.704 L230.408,12 L229.128,12 L229.128,10.464 Z M229.064,8.016 C229.064,7.68533168 229.056,7.4266676 229.04,7.24 C229.024,7.0533324 229.005333,6.90133392 228.984,6.784 C228.930666,6.54933216 228.850667,6.3253344 228.744,6.112 C228.637333,5.8986656 228.501334,5.70933416 228.336,5.544 C228.170666,5.37866584 227.976001,5.24800048 227.752,5.152 C227.527999,5.05599952 227.272001,5.008 226.984,5.008 C226.621332,5.008 226.309335,5.0879992 226.048,5.248 C225.786665,5.4080008 225.568001,5.62399864 225.392,5.896 C225.215999,6.16800136 225.085334,6.48799816 225,6.856 C224.914666,7.22400184 224.872,7.61599792 224.872,8.032 C224.872,8.48000224 224.92,8.89333144 225.016,9.272 C225.112,9.65066856 225.250666,9.97599864 225.432,10.248 C225.613334,10.5200014 225.837332,10.7333326 226.104,10.888 C226.370668,11.0426674 226.674665,11.12 227.016,11.12 C227.282668,11.12 227.525332,11.0720005 227.744,10.976 C227.962668,10.8799995 228.154666,10.7466675 228.32,10.576 C228.485334,10.4053325 228.621333,10.2106678 228.728,9.992 C228.834667,9.77333224 228.914666,9.54133456 228.968,9.296 C229.032,8.99733184 229.064,8.59733584 229.064,8.096 L229.064,8.016 Z M233.448,8.368 C233.501334,9.2746712 233.733331,9.97599752 234.144,10.472 C234.554669,10.9680025 235.127996,11.216 235.864,11.216 C236.792005,11.216 237.490664,10.778671 237.96,9.904 L238.968,10.464 C238.658665,10.9866693 238.248003,11.4133317 237.736,11.744 C237.223997,12.0746683 236.578671,12.24 235.8,12.24 C235.18133,12.24 234.640002,12.1333344 234.176,11.92 C233.711998,11.7066656 233.325335,11.4133352 233.016,11.04 C232.706665,10.6666648 232.474667,10.2293358 232.32,9.728 C232.165333,9.22666416 232.088,8.68800288 232.088,8.112 C232.088,7.54666384 232.162666,7.00800256 232.312,6.496 C232.461334,5.98399744 232.687998,5.53600192 232.992,5.152 C233.296002,4.76799808 233.669331,4.46400112 234.112,4.24 C234.554669,4.01599888 235.074664,3.904 235.672,3.904 C236.248003,3.904 236.749331,4.01333224 237.176,4.232 C237.602669,4.45066776 237.957332,4.74399816 238.24,5.112 C238.522668,5.48000184 238.735999,5.90666424 238.88,6.392 C239.024001,6.87733576 239.096,7.39199728 239.096,7.936 C239.096,8.05333392 239.093333,8.14399968 239.088,8.208 C239.082667,8.27200032 239.08,8.32533312 239.08,8.368 L233.448,8.368 Z M235.656,4.912 C234.983997,4.912 234.464002,5.1519976 234.096,5.632 C233.727998,6.1120024 233.517334,6.75732928 233.464,7.568 L237.736,7.568 C237.736,7.23733168 237.698667,6.91466824 237.624,6.6 C237.549333,6.28533176 237.426668,6.00266792 237.256,5.752 C237.085332,5.50133208 236.869335,5.29866744 236.608,5.144 C236.346665,4.98933256 236.029335,4.912 235.656,4.912 Z M240.712,4.128 L241.864,4.128 L241.992,5.888 C242.216001,5.31199712 242.573331,4.8373352 243.064,4.464 C243.554669,4.0906648 244.135997,3.904 244.808,3.904 L244.808,5.312 C244.658666,5.27999984 244.493334,5.264 244.312,5.264 C244.045332,5.264 243.778668,5.31199952 243.512,5.408 C243.245332,5.50400048 243.002668,5.6586656 242.784,5.872 C242.565332,6.0853344 242.386667,6.35999832 242.248,6.696 C242.109333,7.03200168 242.04,7.4399976 242.04,7.92 L242.04,12 L240.712,12 L240.712,4.128 Z" id="This-is-a-placeholde" fill="#72787C"></path>
            </g>
        </g>
    </g>
</svg>