<?xml version="1.0" encoding="UTF-8"?>
<svg width="200px" height="48px" viewBox="0 0 200 48" version="1.1" xmlns="http://www.w3.org/2000/svg" xmlns:xlink="http://www.w3.org/1999/xlink">
    <!-- Generator: Sketch 47 (45396) - http://www.bohemiancoding.com/sketch -->
    <title>Autocorrect</title>
    <desc>Created with Sketch.</desc>
    <defs>
        <path d="M35,24.418483 C35.9264314,24.7934929 36.9390996,25 38,25 L104,25 C108.418278,25 112,21.418278 112,17 L112,8 C112,3.581722 108.418278,-8.11624501e-16 104,0 L38,0 L38,0 C36.9390996,1.9488425e-16 35.9264314,0.206507135 35,0.581517047 L35,24.418483 Z" id="path-1"></path>
    </defs>
    <g id="Page-1" stroke="none" stroke-width="1" fill="none" fill-rule="evenodd">
        <g id="Buttons-Usage-extra-large-1200" transform="translate(-825.000000, -2629.000000)">
            <g id="Autocorrect" transform="translate(825.000000, 2629.000000)">
                <g id="Group-2-Copy-4" transform="translate(0.000000, 5.000000)">
                    <path d="M0.98,0.116 L2.45,0.116 C3.31800434,1.61867418 4.14399608,3.04199328 4.928,4.386 C5.71200392,5.73000672 6.45866312,7.04132694 7.168,8.32 C7.13066648,6.919993 7.11433331,5.54567341 7.119,4.197 C7.12366669,2.84832659 7.12133338,1.48800686 7.112,0.116 L8.302,0.116 L8.302,10 L6.846,10 C6.44466466,9.30932988 6.03633541,8.60467026 5.621,7.886 C5.20566459,7.16732974 4.79266872,6.45567019 4.382,5.751 C3.97133128,5.04632981 3.57466858,4.35800336 3.192,3.686 C2.80933142,3.01399664 2.4546683,2.38400294 2.128,1.796 C2.15600014,3.20534038 2.17,4.58199328 2.17,5.926 C2.17,7.27000672 2.17466662,8.62799314 2.184,10 L0.98,10 L0.98,0.116 Z M14.518,10 C14.4153328,9.66399832 14.3546668,9.262669 14.336,8.796 C14.1493324,9.22533548 13.8623353,9.56833205 13.475,9.825 C13.0876647,10.0816679 12.6280027,10.21 12.096,10.21 C11.4239966,10.21 10.892002,10.0186686 10.5,9.636 C10.107998,9.25333142 9.912,8.74000322 9.912,8.096 C9.912,7.73199818 9.97733268,7.42633457 10.108,7.179 C10.2386673,6.93166543 10.4206655,6.72633415 10.654,6.563 C10.8873345,6.39966585 11.1626651,6.2713338 11.48,6.178 C11.7973349,6.0846662 12.1426648,6.01000028 12.516,5.954 L14.28,5.688 L14.28,5.254 C14.28,4.94599846 14.242667,4.6986676 14.168,4.512 C14.093333,4.3253324 13.9906673,4.18066718 13.86,4.078 C13.7293327,3.97533282 13.5800008,3.90766683 13.412,3.875 C13.2439992,3.84233317 13.0666676,3.826 12.88,3.826 C12.3479973,3.826 11.9093351,3.92399902 11.564,4.12 C11.2186649,4.31600098 10.9293345,4.56333184 10.696,4.862 L10.094,4.106 C10.364668,3.7793317 10.7403309,3.4993345 11.221,3.266 C11.7016691,3.0326655 12.2966631,2.916 13.006,2.916 C13.864671,2.916 14.4876647,3.10733142 14.875,3.49 C15.2623353,3.87266858 15.456,4.48866242 15.456,5.338 L15.456,8.124 C15.456,8.34800112 15.4583333,8.54399916 15.463,8.712 C15.4676667,8.88000084 15.4769999,9.03633261 15.491,9.181 C15.5050001,9.32566739 15.5259999,9.46333268 15.554,9.594 C15.5820001,9.72466732 15.6193331,9.8599993 15.666,10 L14.518,10 Z M14.28,6.458 L12.628,6.724 C12.0586638,6.82666718 11.6550012,6.98066564 11.417,7.186 C11.1789988,7.39133436 11.06,7.67599818 11.06,8.04 C11.06,8.4133352 11.1696656,8.72599874 11.389,8.978 C11.6083344,9.23000126 11.9326645,9.356 12.362,9.356 C12.6233346,9.356 12.8706655,9.30466718 13.104,9.202 C13.3373345,9.09933282 13.5403325,8.95700091 13.713,8.775 C13.8856675,8.59299909 14.0233328,8.37366795 14.126,8.117 C14.2286672,7.86033205 14.28,7.57800154 14.28,7.27 L14.28,6.458 Z M17.318,3.112 L18.326,3.112 L18.452,4.456 C18.6200008,3.97999762 18.8813316,3.60433471 19.236,3.329 C19.5906684,3.05366529 20.0246641,2.916 20.538,2.916 C21.079336,2.916 21.5039985,3.06999846 21.812,3.378 C22.1200015,3.68600154 22.3159996,4.05933114 22.4,4.498 C22.4840004,4.28333226 22.5889994,4.08033429 22.715,3.889 C22.8410006,3.69766571 22.9926658,3.52966739 23.17,3.385 C23.3473342,3.24033261 23.5526655,3.12600042 23.786,3.042 C24.0193345,2.95799958 24.2853318,2.916 24.584,2.916 C24.976002,2.916 25.3003321,2.98366599 25.557,3.119 C25.813668,3.25433401 26.0189992,3.4386655 26.173,3.672 C26.3270008,3.9053345 26.4366663,4.17833177 26.502,4.491 C26.5673337,4.80366823 26.6,5.13266494 26.6,5.478 L26.6,10 L25.438,10 L25.438,5.772 C25.438,5.15599692 25.3283344,4.69633485 25.109,4.393 C24.8896656,4.08966515 24.5700021,3.938 24.15,3.938 C23.6926644,3.938 23.3100015,4.14099797 23.002,4.547 C22.6939985,4.95300203 22.54,5.53399622 22.54,6.29 L22.54,10 L21.378,10 L21.378,5.828 C21.378,5.18399678 21.2660011,4.70800154 21.042,4.4 C20.8179989,4.09199846 20.5053353,3.938 20.104,3.938 C19.6559978,3.938 19.2733349,4.14566459 18.956,4.561 C18.6386651,4.97633541 18.48,5.57599608 18.48,6.36 L18.48,10 L17.318,10 L17.318,3.112 Z M29.246,6.822 C29.2926669,7.6153373 29.4956649,8.22899783 29.855,8.663 C30.2143351,9.09700217 30.7159968,9.314 31.36,9.314 C32.1720041,9.314 32.7833313,8.93133716 33.194,8.166 L34.076,8.656 C33.805332,9.11333562 33.4460022,9.48666522 32.998,9.776 C32.5499978,10.0653348 31.9853367,10.21 31.304,10.21 C30.762664,10.21 30.289002,10.1166676 29.883,9.93 C29.476998,9.7433324 29.138668,9.4866683 28.868,9.16 C28.597332,8.8333317 28.394334,8.45066886 28.259,8.012 C28.123666,7.57333114 28.056,7.10200252 28.056,6.598 C28.056,6.10333086 28.1213327,5.63200224 28.252,5.184 C28.3826673,4.73599776 28.5809987,4.34400168 28.847,4.008 C29.1130013,3.67199832 29.4396647,3.40600098 29.827,3.21 C30.2143353,3.01399902 30.6693307,2.916 31.192,2.916 C31.6960025,2.916 32.1346648,3.01166571 32.508,3.203 C32.8813352,3.39433429 33.1916654,3.65099839 33.439,3.973 C33.6863346,4.29500161 33.8729994,4.66833121 33.999,5.093 C34.1250006,5.51766879 34.188,5.96799762 34.188,6.444 C34.188,6.54666718 34.1856667,6.62599972 34.181,6.682 C34.1763333,6.73800028 34.174,6.78466648 34.174,6.822 L29.246,6.822 Z M31.178,3.798 C30.5899971,3.798 30.1350016,4.0079979 29.813,4.428 C29.4909984,4.8480021 29.3066669,5.41266312 29.26,6.122 L32.998,6.122 C32.998,5.83266522 32.9653337,5.55033471 32.9,5.275 C32.8346663,4.99966529 32.7273341,4.75233443 32.578,4.533 C32.4286659,4.31366557 32.2396678,4.13633401 32.011,4.001 C31.7823322,3.86566599 31.5046683,3.798 31.178,3.798 Z" id="Name" fill="#4C5358"></path>
                    <path d="M0.5,42.5 L199.5,42.5" id="Line" stroke="#7C878E" stroke-linecap="square"></path>
                    <path d="M93,36 L93,21.0835661" id="Line" stroke="#7C878E" stroke-linecap="square"></path>
                    <rect id="Rectangle-6" fill="#CAD9EA" x="35" y="19" width="54" height="19"></rect>
                </g>
                <path d="M4.416,26.704 L5.744,26.704 L9.728,38 L8.224,38 L7.216,34.96 L2.864,34.96 L1.856,38 L0.4,38 L4.416,26.704 Z M6.832,33.856 C6.53333184,32.9279954 6.2373348,32.0186711 5.944,31.128 C5.6506652,30.2373289 5.35466816,29.3013382 5.056,28.32 C4.77866528,29.2800048 4.48533488,30.2106622 4.176,31.112 C3.86666512,32.0133378 3.55733488,32.9279954 3.248,33.856 L6.832,33.856 Z M11.152,30.128 L12.304,30.128 L12.448,31.664 C12.640001,31.1199973 12.9386646,30.6906682 13.344,30.376 C13.7493354,30.0613318 14.2453304,29.904 14.832,29.904 C15.4506698,29.904 15.9359982,30.0799982 16.288,30.432 C16.6400018,30.7840018 16.8639995,31.2106642 16.96,31.712 C17.0560005,31.4666654 17.1759993,31.2346678 17.32,31.016 C17.4640007,30.7973322 17.6373323,30.6053342 17.84,30.44 C18.0426677,30.2746658 18.277332,30.1440005 18.544,30.048 C18.810668,29.9519995 19.114665,29.904 19.456,29.904 C19.9040022,29.904 20.2746652,29.9813326 20.568,30.136 C20.8613348,30.2906674 21.0959991,30.501332 21.272,30.768 C21.4480009,31.034668 21.573333,31.3466649 21.648,31.704 C21.722667,32.0613351 21.76,32.4373314 21.76,32.832 L21.76,38 L20.432,38 L20.432,33.168 C20.432,32.4639965 20.3066679,31.9386684 20.056,31.592 C19.8053321,31.2453316 19.4400024,31.072 18.96,31.072 C18.4373307,31.072 18.0000018,31.3039977 17.648,31.768 C17.2959982,32.2320023 17.12,32.8959957 17.12,33.76 L17.12,38 L15.792,38 L15.792,33.232 C15.792,32.4959963 15.6640013,31.9520018 15.408,31.6 C15.1519987,31.2479982 14.794669,31.072 14.336,31.072 C13.8239974,31.072 13.3866685,31.309331 13.024,31.784 C12.6613315,32.258669 12.48,32.9439955 12.48,33.84 L12.48,38 L11.152,38 L11.152,30.128 Z M23.776,27.072 L25.104,27.072 L25.104,28.4 L23.776,28.4 L23.776,27.072 Z M23.776,30.128 L25.104,30.128 L25.104,38 L23.776,38 L23.776,30.128 Z M27.152,30.128 L28.304,30.128 L28.432,31.888 C28.6560011,31.3119971 29.0133309,30.8373352 29.504,30.464 C29.9946691,30.0906648 30.5759966,29.904 31.248,29.904 L31.248,31.312 C31.0986659,31.2799998 30.9333342,31.264 30.752,31.264 C30.485332,31.264 30.218668,31.3119995 29.952,31.408 C29.685332,31.5040005 29.4426678,31.6586656 29.224,31.872 C29.0053322,32.0853344 28.8266674,32.3599983 28.688,32.696 C28.5493326,33.0320017 28.48,33.4399976 28.48,33.92 L28.48,38 L27.152,38 L27.152,30.128 Z M32.56,27.072 L33.888,27.072 L33.888,28.4 L32.56,28.4 L32.56,27.072 Z M32.56,30.128 L33.888,30.128 L33.888,38 L32.56,38 L32.56,30.128 Z M39.632,26.704 L43.44,26.704 C43.898669,26.704 44.3493311,26.7493329 44.792,26.84 C45.2346689,26.9306671 45.626665,27.0853322 45.968,27.304 C46.309335,27.5226678 46.583999,27.8133315 46.792,28.176 C47.000001,28.5386685 47.104,28.986664 47.104,29.52 C47.104,30.2133368 46.8986687,30.7839978 46.488,31.232 C46.0773313,31.6800022 45.509337,31.9626661 44.784,32.08 C45.1573352,32.1333336 45.506665,32.2293326 45.832,32.368 C46.157335,32.5066674 46.4399988,32.6933322 46.68,32.928 C46.9200012,33.1626678 47.106666,33.442665 47.24,33.768 C47.373334,34.093335 47.44,34.4693312 47.44,34.896 C47.44,35.4720029 47.3413343,35.959998 47.144,36.36 C46.9466657,36.760002 46.677335,37.0799988 46.336,37.32 C45.994665,37.5600012 45.5893357,37.7333328 45.12,37.84 C44.6506643,37.9466672 44.1386694,38 43.584,38 L39.632,38 L39.632,26.704 Z M42.928,31.552 C43.2373349,31.552 43.5493318,31.5333335 43.864,31.496 C44.1786682,31.4586665 44.4639987,31.3706674 44.72,31.232 C44.9760013,31.0933326 45.1839992,30.8960013 45.344,30.64 C45.5040008,30.3839987 45.584,30.0373355 45.584,29.6 C45.584,29.2479982 45.5200006,28.9573345 45.392,28.728 C45.2639994,28.4986655 45.0880011,28.317334 44.864,28.184 C44.6399989,28.050666 44.3840014,27.9573336 44.096,27.904 C43.8079986,27.8506664 43.5040016,27.824 43.184,27.824 L41.072,27.824 L41.072,31.552 L42.928,31.552 Z M43.36,36.88 C43.6800016,36.88 43.9919985,36.8480003 44.296,36.784 C44.6000015,36.7199997 44.8719988,36.6080008 45.112,36.448 C45.3520012,36.2879992 45.5439993,36.0693347 45.688,35.792 C45.8320007,35.5146653 45.904,35.1626688 45.904,34.736 C45.904,34.3413314 45.8266674,34.010668 45.672,33.744 C45.5173326,33.477332 45.3120013,33.2640008 45.056,33.104 C44.7999987,32.9439992 44.509335,32.8293337 44.184,32.76 C43.858665,32.6906663 43.525335,32.656 43.184,32.656 L41.072,32.656 L41.072,36.88 L43.36,36.88 Z M54.096,38 C53.9786661,37.6159981 53.9093334,37.157336 53.888,36.624 C53.6746656,37.1146691 53.3466689,37.5066652 52.904,37.8 C52.4613311,38.0933348 51.936003,38.24 51.328,38.24 C50.5599962,38.24 49.9520022,38.0213355 49.504,37.584 C49.0559978,37.1466645 48.832,36.5600037 48.832,35.824 C48.832,35.4079979 48.9066659,35.0586681 49.056,34.776 C49.2053341,34.4933319 49.413332,34.2586676 49.68,34.072 C49.946668,33.8853324 50.2613315,33.7386672 50.624,33.632 C50.9866685,33.5253328 51.3813312,33.4400003 51.808,33.376 L53.824,33.072 L53.824,32.576 C53.824,32.2239982 53.7813338,31.9413344 53.696,31.728 C53.6106662,31.5146656 53.4933341,31.3493339 53.344,31.232 C53.1946659,31.1146661 53.024001,31.0373335 52.832,31 C52.639999,30.9626665 52.4373344,30.944 52.224,30.944 C51.615997,30.944 51.1146686,31.0559989 50.72,31.28 C50.3253314,31.5040011 49.994668,31.786665 49.728,32.128 L49.04,31.264 C49.3493349,30.8906648 49.7786639,30.570668 50.328,30.304 C50.8773361,30.037332 51.5573293,29.904 52.368,29.904 C53.3493382,29.904 54.0613311,30.1226645 54.504,30.56 C54.9466689,30.9973355 55.168,31.7013285 55.168,32.672 L55.168,35.856 C55.168,36.1120013 55.1706666,36.335999 55.176,36.528 C55.1813334,36.720001 55.1919999,36.8986658 55.208,37.064 C55.2240001,37.2293342 55.2479998,37.3866659 55.28,37.536 C55.3120002,37.6853341 55.3546664,37.8399992 55.408,38 L54.096,38 Z M53.824,33.952 L51.936,34.256 C51.2853301,34.3733339 50.8240014,34.5493322 50.552,34.784 C50.2799986,35.0186678 50.144,35.3439979 50.144,35.76 C50.144,36.1866688 50.2693321,36.5439986 50.52,36.832 C50.7706679,37.1200014 51.1413309,37.264 51.632,37.264 C51.9306682,37.264 52.213332,37.2053339 52.48,37.088 C52.746668,36.9706661 52.9786657,36.808001 53.176,36.6 C53.3733343,36.391999 53.5306661,36.1413348 53.648,35.848 C53.7653339,35.5546652 53.824,35.2320018 53.824,34.88 L53.824,33.952 Z M57.296,30.128 L58.448,30.128 L58.576,31.888 C58.8000011,31.3119971 59.1573309,30.8373352 59.648,30.464 C60.1386691,30.0906648 60.7199966,29.904 61.392,29.904 L61.392,31.312 C61.2426659,31.2799998 61.0773342,31.264 60.896,31.264 C60.629332,31.264 60.362668,31.3119995 60.096,31.408 C59.829332,31.5040005 59.5866678,31.6586656 59.368,31.872 C59.1493322,32.0853344 58.9706674,32.3599983 58.832,32.696 C58.6933326,33.0320017 58.624,33.4399976 58.624,33.92 L58.624,38 L57.296,38 L57.296,30.128 Z M67.648,38 C67.5306661,37.6159981 67.4613334,37.157336 67.44,36.624 C67.2266656,37.1146691 66.8986689,37.5066652 66.456,37.8 C66.0133311,38.0933348 65.488003,38.24 64.88,38.24 C64.1119962,38.24 63.5040022,38.0213355 63.056,37.584 C62.6079978,37.1466645 62.384,36.5600037 62.384,35.824 C62.384,35.4079979 62.4586659,35.0586681 62.608,34.776 C62.7573341,34.4933319 62.965332,34.2586676 63.232,34.072 C63.498668,33.8853324 63.8133315,33.7386672 64.176,33.632 C64.5386685,33.5253328 64.9333312,33.4400003 65.36,33.376 L67.376,33.072 L67.376,32.576 C67.376,32.2239982 67.3333338,31.9413344 67.248,31.728 C67.1626662,31.5146656 67.0453341,31.3493339 66.896,31.232 C66.7466659,31.1146661 66.576001,31.0373335 66.384,31 C66.191999,30.9626665 65.9893344,30.944 65.776,30.944 C65.167997,30.944 64.6666686,31.0559989 64.272,31.28 C63.8773314,31.5040011 63.546668,31.786665 63.28,32.128 L62.592,31.264 C62.9013349,30.8906648 63.3306639,30.570668 63.88,30.304 C64.4293361,30.037332 65.1093293,29.904 65.92,29.904 C66.9013382,29.904 67.6133311,30.1226645 68.056,30.56 C68.4986689,30.9973355 68.72,31.7013285 68.72,32.672 L68.72,35.856 C68.72,36.1120013 68.7226666,36.335999 68.728,36.528 C68.7333334,36.720001 68.7439999,36.8986658 68.76,37.064 C68.7760001,37.2293342 68.7999998,37.3866659 68.832,37.536 C68.8640002,37.6853341 68.9066664,37.8399992 68.96,38 L67.648,38 Z M67.376,33.952 L65.488,34.256 C64.8373301,34.3733339 64.3760014,34.5493322 64.104,34.784 C63.8319986,35.0186678 63.696,35.3439979 63.696,35.76 C63.696,36.1866688 63.8213321,36.5439986 64.072,36.832 C64.3226679,37.1200014 64.6933309,37.264 65.184,37.264 C65.4826682,37.264 65.765332,37.2053339 66.032,37.088 C66.298668,36.9706661 66.5306657,36.808001 66.728,36.6 C66.9253343,36.391999 67.0826661,36.1413348 67.2,35.848 C67.3173339,35.5546652 67.376,35.2320018 67.376,34.88 L67.376,33.952 Z M70.848,26.704 L72.176,26.704 L72.176,33.808 L75.744,30.128 L77.408,30.128 L74.32,33.136 L77.808,38 L76.256,38 L73.456,33.968 L72.176,35.2 L72.176,38 L70.848,38 L70.848,26.704 Z M84,38 C83.8826661,37.6159981 83.8133334,37.157336 83.792,36.624 C83.5786656,37.1146691 83.2506689,37.5066652 82.808,37.8 C82.3653311,38.0933348 81.840003,38.24 81.232,38.24 C80.4639962,38.24 79.8560022,38.0213355 79.408,37.584 C78.9599978,37.1466645 78.736,36.5600037 78.736,35.824 C78.736,35.4079979 78.8106659,35.0586681 78.96,34.776 C79.1093341,34.4933319 79.317332,34.2586676 79.584,34.072 C79.850668,33.8853324 80.1653315,33.7386672 80.528,33.632 C80.8906685,33.5253328 81.2853312,33.4400003 81.712,33.376 L83.728,33.072 L83.728,32.576 C83.728,32.2239982 83.6853338,31.9413344 83.6,31.728 C83.5146662,31.5146656 83.3973341,31.3493339 83.248,31.232 C83.0986659,31.1146661 82.928001,31.0373335 82.736,31 C82.543999,30.9626665 82.3413344,30.944 82.128,30.944 C81.519997,30.944 81.0186686,31.0559989 80.624,31.28 C80.2293314,31.5040011 79.898668,31.786665 79.632,32.128 L78.944,31.264 C79.2533349,30.8906648 79.6826639,30.570668 80.232,30.304 C80.7813361,30.037332 81.4613293,29.904 82.272,29.904 C83.2533382,29.904 83.9653311,30.1226645 84.408,30.56 C84.8506689,30.9973355 85.072,31.7013285 85.072,32.672 L85.072,35.856 C85.072,36.1120013 85.0746666,36.335999 85.08,36.528 C85.0853334,36.720001 85.0959999,36.8986658 85.112,37.064 C85.1280001,37.2293342 85.1519998,37.3866659 85.184,37.536 C85.2160002,37.6853341 85.2586664,37.8399992 85.312,38 L84,38 Z M83.728,33.952 L81.84,34.256 C81.1893301,34.3733339 80.7280014,34.5493322 80.456,34.784 C80.1839986,35.0186678 80.048,35.3439979 80.048,35.76 C80.048,36.1866688 80.1733321,36.5439986 80.424,36.832 C80.6746679,37.1200014 81.0453309,37.264 81.536,37.264 C81.8346682,37.264 82.117332,37.2053339 82.384,37.088 C82.650668,36.9706661 82.8826657,36.808001 83.08,36.6 C83.2773343,36.391999 83.4346661,36.1413348 83.552,35.848 C83.6693339,35.5546652 83.728,35.2320018 83.728,34.88 L83.728,33.952 Z" id="Amiri-Baraka" fill="#000000"></path>
                <g id="Combined-Shape">
                    <use fill="#FFFFFF" fill-rule="evenodd" xlink:href="#path-1"></use>
                    <path stroke="#9B9B9B" stroke-width="1" d="M35.5,24.0733869 C36.2950047,24.3544005 37.1370579,24.5 38,24.5 L104,24.5 C108.142136,24.5 111.5,21.1421356 111.5,17 L111.5,8 C111.5,3.85786438 108.142136,0.5 104,0.5 L38,0.5 C37.1370579,0.5 36.2950047,0.645599465 35.5,0.926613121 L35.5,24.0733869 Z"></path>
                </g>
                <g id="close" transform="translate(95.000000, 8.000000)" fill-rule="nonzero" fill="#9B9B9B">
                    <path d="M5.82110092,4.52073733 L8.83486239,1.49308756 C8.91743119,1.41013825 8.9587156,1.32718894 9,1.16129032 C9,1.03686636 8.91743119,0.912442396 8.83486239,0.829493088 L8.17431193,0.124423963 C8.09174312,0.0414746544 7.9266055,0.0414746544 7.8440367,0 C7.72018349,0 7.59633028,0.0829493088 7.51376147,0.165898618 L4.5,3.19354839 L1.48623853,0.165898618 C1.40366972,0.0414746544 1.27981651,3.6836893e-16 1.1559633,3.6836893e-16 C1.03211009,3.6836893e-16 0.908256881,0.0414746544 0.825688073,0.165898618 L0.165137615,0.829493088 C0.0825688073,0.912442396 0,0.995391705 0,1.11981567 C0,1.24423963 0.0825688073,1.36866359 0.165137615,1.4516129 L3.17889908,4.47926267 L0.165137615,7.50691244 C0.0412844037,7.58986175 0,7.71428571 0,7.83870968 C0,7.96313364 0.0825688073,8.0875576 0.165137615,8.17050691 L0.825688073,8.83410138 C0.908256881,8.95852535 1.03211009,9 1.1559633,9 C1.27981651,9 1.40366972,8.91705069 1.48623853,8.83410138 L4.5,5.80645161 L7.51376147,8.83410138 C7.59633028,8.95852535 7.72018349,9 7.8440367,9 C7.96788991,9 8.09174312,8.91705069 8.17431193,8.83410138 L8.83486239,8.17050691 C8.91743119,8.0875576 8.9587156,7.96313364 8.9587156,7.83870968 C8.9587156,7.71428571 8.87614679,7.58986175 8.79357798,7.50691244 L5.82110092,4.52073733 Z" id="Shape"></path>
                </g>
                <path d="M39.12,6.704 L42.928,6.704 C43.386669,6.704 43.8373311,6.74933288 44.28,6.84 C44.7226689,6.93066712 45.114665,7.08533224 45.456,7.304 C45.797335,7.52266776 46.071999,7.81333152 46.28,8.176 C46.488001,8.53866848 46.592,8.986664 46.592,9.52 C46.592,10.2133368 46.3866687,10.7839978 45.976,11.232 C45.5653313,11.6800022 44.997337,11.9626661 44.272,12.08 C44.6453352,12.1333336 44.994665,12.2293326 45.32,12.368 C45.645335,12.5066674 45.9279988,12.6933322 46.168,12.928 C46.4080012,13.1626678 46.594666,13.442665 46.728,13.768 C46.861334,14.093335 46.928,14.4693312 46.928,14.896 C46.928,15.4720029 46.8293343,15.959998 46.632,16.36 C46.4346657,16.760002 46.165335,17.0799988 45.824,17.32 C45.482665,17.5600012 45.0773357,17.7333328 44.608,17.84 C44.1386643,17.9466672 43.6266694,18 43.072,18 L39.12,18 L39.12,6.704 Z M42.416,11.552 C42.7253349,11.552 43.0373318,11.5333335 43.352,11.496 C43.6666682,11.4586665 43.9519987,11.3706674 44.208,11.232 C44.4640013,11.0933326 44.6719992,10.8960013 44.832,10.64 C44.9920008,10.3839987 45.072,10.0373355 45.072,9.6 C45.072,9.24799824 45.0080006,8.95733448 44.88,8.728 C44.7519994,8.49866552 44.5760011,8.317334 44.352,8.184 C44.1279989,8.050666 43.8720014,7.9573336 43.584,7.904 C43.2959986,7.8506664 42.9920016,7.824 42.672,7.824 L40.56,7.824 L40.56,11.552 L42.416,11.552 Z M42.848,16.88 C43.1680016,16.88 43.4799985,16.8480003 43.784,16.784 C44.0880015,16.7199997 44.3599988,16.6080008 44.6,16.448 C44.8400012,16.2879992 45.0319993,16.0693347 45.176,15.792 C45.3200007,15.5146653 45.392,15.1626688 45.392,14.736 C45.392,14.3413314 45.3146674,14.010668 45.16,13.744 C45.0053326,13.477332 44.8000013,13.2640008 44.544,13.104 C44.2879987,12.9439992 43.997335,12.8293337 43.672,12.76 C43.346665,12.6906663 43.013335,12.656 42.672,12.656 L40.56,12.656 L40.56,16.88 L42.848,16.88 Z M53.584,18 C53.4666661,17.6159981 53.3973334,17.157336 53.376,16.624 C53.1626656,17.1146691 52.8346689,17.5066652 52.392,17.8 C51.9493311,18.0933348 51.424003,18.24 50.816,18.24 C50.0479962,18.24 49.4400022,18.0213355 48.992,17.584 C48.5439978,17.1466645 48.32,16.5600037 48.32,15.824 C48.32,15.4079979 48.3946659,15.0586681 48.544,14.776 C48.6933341,14.4933319 48.901332,14.2586676 49.168,14.072 C49.434668,13.8853324 49.7493315,13.7386672 50.112,13.632 C50.4746685,13.5253328 50.8693312,13.4400003 51.296,13.376 L53.312,13.072 L53.312,12.576 C53.312,12.2239982 53.2693338,11.9413344 53.184,11.728 C53.0986662,11.5146656 52.9813341,11.3493339 52.832,11.232 C52.6826659,11.1146661 52.512001,11.0373335 52.32,11 C52.127999,10.9626665 51.9253344,10.944 51.712,10.944 C51.103997,10.944 50.6026686,11.0559989 50.208,11.28 C49.8133314,11.5040011 49.482668,11.786665 49.216,12.128 L48.528,11.264 C48.8373349,10.8906648 49.2666639,10.570668 49.816,10.304 C50.3653361,10.037332 51.0453293,9.904 51.856,9.904 C52.8373382,9.904 53.5493311,10.1226645 53.992,10.56 C54.4346689,10.9973355 54.656,11.7013285 54.656,12.672 L54.656,15.856 C54.656,16.1120013 54.6586666,16.335999 54.664,16.528 C54.6693334,16.720001 54.6799999,16.8986658 54.696,17.064 C54.7120001,17.2293342 54.7359998,17.3866659 54.768,17.536 C54.8000002,17.6853341 54.8426664,17.8399992 54.896,18 L53.584,18 Z M53.312,13.952 L51.424,14.256 C50.7733301,14.3733339 50.3120014,14.5493322 50.04,14.784 C49.7679986,15.0186678 49.632,15.3439979 49.632,15.76 C49.632,16.1866688 49.7573321,16.5439986 50.008,16.832 C50.2586679,17.1200014 50.6293309,17.264 51.12,17.264 C51.4186682,17.264 51.701332,17.2053339 51.968,17.088 C52.234668,16.9706661 52.4666657,16.808001 52.664,16.6 C52.8613343,16.391999 53.0186661,16.1413348 53.136,15.848 C53.2533339,15.5546652 53.312,15.2320018 53.312,14.88 L53.312,13.952 Z M56.784,10.128 L57.936,10.128 L58.08,11.696 C58.2826677,11.2159976 58.6053311,10.7973351 59.048,10.44 C59.4906689,10.0826649 60.0373301,9.904 60.688,9.904 C61.5093374,9.904 62.1146647,10.1653307 62.504,10.688 C62.8933353,11.2106693 63.088,11.9413286 63.088,12.88 L63.088,18 L61.76,18 L61.76,13.152 C61.76,12.4373298 61.6160014,11.9120017 61.328,11.576 C61.0399986,11.2399983 60.6506691,11.072 60.16,11.072 C59.5733304,11.072 59.0853353,11.3119976 58.696,11.792 C58.3066647,12.2720024 58.112,12.949329 58.112,13.824 L58.112,18 L56.784,18 L56.784,10.128 Z M70.048,18 C69.9306661,17.6159981 69.8613334,17.157336 69.84,16.624 C69.6266656,17.1146691 69.2986689,17.5066652 68.856,17.8 C68.4133311,18.0933348 67.888003,18.24 67.28,18.24 C66.5119962,18.24 65.9040022,18.0213355 65.456,17.584 C65.0079978,17.1466645 64.784,16.5600037 64.784,15.824 C64.784,15.4079979 64.8586659,15.0586681 65.008,14.776 C65.1573341,14.4933319 65.365332,14.2586676 65.632,14.072 C65.898668,13.8853324 66.2133315,13.7386672 66.576,13.632 C66.9386685,13.5253328 67.3333312,13.4400003 67.76,13.376 L69.776,13.072 L69.776,12.576 C69.776,12.2239982 69.7333338,11.9413344 69.648,11.728 C69.5626662,11.5146656 69.4453341,11.3493339 69.296,11.232 C69.1466659,11.1146661 68.976001,11.0373335 68.784,11 C68.591999,10.9626665 68.3893344,10.944 68.176,10.944 C67.567997,10.944 67.0666686,11.0559989 66.672,11.28 C66.2773314,11.5040011 65.946668,11.786665 65.68,12.128 L64.992,11.264 C65.3013349,10.8906648 65.7306639,10.570668 66.28,10.304 C66.8293361,10.037332 67.5093293,9.904 68.32,9.904 C69.3013382,9.904 70.0133311,10.1226645 70.456,10.56 C70.8986689,10.9973355 71.12,11.7013285 71.12,12.672 L71.12,15.856 C71.12,16.1120013 71.1226666,16.335999 71.128,16.528 C71.1333334,16.720001 71.1439999,16.8986658 71.16,17.064 C71.1760001,17.2293342 71.1999998,17.3866659 71.232,17.536 C71.2640002,17.6853341 71.3066664,17.8399992 71.36,18 L70.048,18 Z M69.776,13.952 L67.888,14.256 C67.2373301,14.3733339 66.7760014,14.5493322 66.504,14.784 C66.2319986,15.0186678 66.096,15.3439979 66.096,15.76 C66.096,16.1866688 66.2213321,16.5439986 66.472,16.832 C66.7226679,17.1200014 67.0933309,17.264 67.584,17.264 C67.8826682,17.264 68.165332,17.2053339 68.432,17.088 C68.698668,16.9706661 68.9306657,16.808001 69.128,16.6 C69.3253343,16.391999 69.4826661,16.1413348 69.6,15.848 C69.7173339,15.5546652 69.776,15.2320018 69.776,14.88 L69.776,13.952 Z M73.248,10.128 L74.4,10.128 L74.544,11.696 C74.7466677,11.2159976 75.0693311,10.7973351 75.512,10.44 C75.9546689,10.0826649 76.5013301,9.904 77.152,9.904 C77.9733374,9.904 78.5786647,10.1653307 78.968,10.688 C79.3573353,11.2106693 79.552,11.9413286 79.552,12.88 L79.552,18 L78.224,18 L78.224,13.152 C78.224,12.4373298 78.0800014,11.9120017 77.792,11.576 C77.5039986,11.2399983 77.1146691,11.072 76.624,11.072 C76.0373304,11.072 75.5493353,11.3119976 75.16,11.792 C74.7706647,12.2720024 74.576,12.949329 74.576,13.824 L74.576,18 L73.248,18 L73.248,10.128 Z M86.512,18 C86.3946661,17.6159981 86.3253334,17.157336 86.304,16.624 C86.0906656,17.1146691 85.7626689,17.5066652 85.32,17.8 C84.8773311,18.0933348 84.352003,18.24 83.744,18.24 C82.9759962,18.24 82.3680022,18.0213355 81.92,17.584 C81.4719978,17.1466645 81.248,16.5600037 81.248,15.824 C81.248,15.4079979 81.3226659,15.0586681 81.472,14.776 C81.6213341,14.4933319 81.829332,14.2586676 82.096,14.072 C82.362668,13.8853324 82.6773315,13.7386672 83.04,13.632 C83.4026685,13.5253328 83.7973312,13.4400003 84.224,13.376 L86.24,13.072 L86.24,12.576 C86.24,12.2239982 86.1973338,11.9413344 86.112,11.728 C86.0266662,11.5146656 85.9093341,11.3493339 85.76,11.232 C85.6106659,11.1146661 85.440001,11.0373335 85.248,11 C85.055999,10.9626665 84.8533344,10.944 84.64,10.944 C84.031997,10.944 83.5306686,11.0559989 83.136,11.28 C82.7413314,11.5040011 82.410668,11.786665 82.144,12.128 L81.456,11.264 C81.7653349,10.8906648 82.1946639,10.570668 82.744,10.304 C83.2933361,10.037332 83.9733293,9.904 84.784,9.904 C85.7653382,9.904 86.4773311,10.1226645 86.92,10.56 C87.3626689,10.9973355 87.584,11.7013285 87.584,12.672 L87.584,15.856 C87.584,16.1120013 87.5866666,16.335999 87.592,16.528 C87.5973334,16.720001 87.6079999,16.8986658 87.624,17.064 C87.6400001,17.2293342 87.6639998,17.3866659 87.696,17.536 C87.7280002,17.6853341 87.7706664,17.8399992 87.824,18 L86.512,18 Z M86.24,13.952 L84.352,14.256 C83.7013301,14.3733339 83.2400014,14.5493322 82.968,14.784 C82.6959986,15.0186678 82.56,15.3439979 82.56,15.76 C82.56,16.1866688 82.6853321,16.5439986 82.936,16.832 C83.1866679,17.1200014 83.5573309,17.264 84.048,17.264 C84.3466682,17.264 84.629332,17.2053339 84.896,17.088 C85.162668,16.9706661 85.3946657,16.808001 85.592,16.6 C85.7893343,16.391999 85.9466661,16.1413348 86.064,15.848 C86.1813339,15.5546652 86.24,15.2320018 86.24,14.88 L86.24,13.952 Z" id="Banana" fill="#4A90E2"></path>
            </g>
        </g>
    </g>
</svg>