<?xml version="1.0" encoding="UTF-8"?>
<svg width="200px" height="43px" viewBox="0 0 200 43" version="1.1" xmlns="http://www.w3.org/2000/svg" xmlns:xlink="http://www.w3.org/1999/xlink">
    <!-- Generator: Sketch 47.1 (45422) - http://www.bohemiancoding.com/sketch -->
    <title>Error field</title>
    <desc>Created with Sketch.</desc>
    <defs></defs>
    <g id="Page-1" stroke="none" stroke-width="1" fill="none" fill-rule="evenodd">
        <g id="Buttons-Usage-extra-large-1200" transform="translate(-305.000000, -1363.000000)">
            <g id="Error-field" transform="translate(305.000000, 1363.000000)">
                <path d="M0.98,0.116 L6.86,0.116 L6.86,1.096 L2.24,1.096 L2.24,4.344 L5.838,4.344 L5.838,5.324 L2.24,5.324 L2.24,9.02 L7.056,9.02 L7.056,10 L0.98,10 L0.98,0.116 Z M8.54,3.112 L9.548,3.112 L9.66,4.652 C9.85600098,4.14799748 10.1686645,3.7326683 10.598,3.406 C11.0273355,3.0793317 11.5359971,2.916 12.124,2.916 L12.124,4.148 C11.9933327,4.11999986 11.8486675,4.106 11.69,4.106 C11.4566655,4.106 11.2233345,4.14799958 10.99,4.232 C10.7566655,4.31600042 10.5443343,4.4513324 10.353,4.638 C10.1616657,4.8246676 10.0053339,5.06499853 9.884,5.359 C9.76266606,5.65300147 9.702,6.0099979 9.702,6.43 L9.702,10 L8.54,10 L8.54,3.112 Z M13.272,3.112 L14.28,3.112 L14.392,4.652 C14.588001,4.14799748 14.9006645,3.7326683 15.33,3.406 C15.7593355,3.0793317 16.2679971,2.916 16.856,2.916 L16.856,4.148 C16.7253327,4.11999986 16.5806675,4.106 16.422,4.106 C16.1886655,4.106 15.9553345,4.14799958 15.722,4.232 C15.4886655,4.31600042 15.2763343,4.4513324 15.085,4.638 C14.8936657,4.8246676 14.7373339,5.06499853 14.616,5.359 C14.4946661,5.65300147 14.434,6.0099979 14.434,6.43 L14.434,10 L13.272,10 L13.272,3.112 Z M20.86,10.21 C20.3373307,10.21 19.8776687,10.1143343 19.481,9.923 C19.0843313,9.73166571 18.7530013,9.47033499 18.487,9.139 C18.2209987,8.80766501 18.0226673,8.42033555 17.892,7.977 C17.7613327,7.53366445 17.696,7.0553359 17.696,6.542 C17.696,6.0286641 17.763666,5.55266886 17.899,5.114 C18.034334,4.67533114 18.2349987,4.2926683 18.501,3.966 C18.7670013,3.6393317 19.0983314,3.3826676 19.495,3.196 C19.8916686,3.0093324 20.3466641,2.916 20.86,2.916 C21.3733359,2.916 21.8283313,3.0093324 22.225,3.196 C22.6216687,3.3826676 22.955332,3.63699839 23.226,3.959 C23.496668,4.28100161 23.699666,4.66366445 23.835,5.107 C23.970334,5.55033555 24.038,6.0286641 24.038,6.542 C24.038,7.0553359 23.970334,7.53366445 23.835,7.977 C23.699666,8.42033555 23.496668,8.80766501 23.226,9.139 C22.955332,9.47033499 22.6216687,9.73166571 22.225,9.923 C21.8283313,10.1143343 21.3733359,10.21 20.86,10.21 Z M20.888,9.3 C21.2053349,9.3 21.4853321,9.2300007 21.728,9.09 C21.9706679,8.9499993 22.1713325,8.75633457 22.33,8.509 C22.4886675,8.26166543 22.6099996,7.97000168 22.694,7.634 C22.7780004,7.29799832 22.82,6.93400196 22.82,6.542 C22.82,6.14999804 22.7780004,5.78833499 22.694,5.457 C22.6099996,5.12566501 22.4840008,4.83866788 22.316,4.596 C22.1479992,4.35333212 21.9426679,4.16433401 21.7,4.029 C21.4573321,3.89366599 21.1773349,3.826 20.86,3.826 C20.5333317,3.826 20.2486679,3.89366599 20.006,4.029 C19.7633321,4.16433401 19.5626675,4.35333212 19.404,4.596 C19.2453325,4.83866788 19.1240004,5.12566501 19.04,5.457 C18.9559996,5.78833499 18.914,6.14999804 18.914,6.542 C18.914,6.93400196 18.9559996,7.29799832 19.04,7.634 C19.1240004,7.97000168 19.2476659,8.26166543 19.411,8.509 C19.5743341,8.75633457 19.7796654,8.9499993 20.027,9.09 C20.2743346,9.2300007 20.5613317,9.3 20.888,9.3 Z M25.522,3.112 L26.53,3.112 L26.642,4.652 C26.838001,4.14799748 27.1506645,3.7326683 27.58,3.406 C28.0093355,3.0793317 28.5179971,2.916 29.106,2.916 L29.106,4.148 C28.9753327,4.11999986 28.8306675,4.106 28.672,4.106 C28.4386655,4.106 28.2053345,4.14799958 27.972,4.232 C27.7386655,4.31600042 27.5263343,4.4513324 27.335,4.638 C27.1436657,4.8246676 26.9873339,5.06499853 26.866,5.359 C26.7446661,5.65300147 26.684,6.0099979 26.684,6.43 L26.684,10 L25.522,10 L25.522,3.112 Z" id="Error" fill="#C30000"></path>
                <path d="M1,42 L199,42" id="Line" stroke="#C30000" stroke-width="2" stroke-linecap="square"></path>
                <path d="M184.410714,21.3482143 C185.464291,20.735116 186.613089,20.4285714 187.857143,20.4285714 C189.101197,20.4285714 190.248507,20.735116 191.299107,21.3482143 C192.349708,21.9613126 193.181545,22.7931495 193.794643,23.84375 C194.407741,24.8943505 194.714286,26.0416604 194.714286,27.2857143 C194.714286,28.5297681 194.407741,29.6770781 193.794643,30.7276786 C193.181545,31.7782791 192.349708,32.610116 191.299107,33.2232143 C190.248507,33.8363126 189.101197,34.1428571 187.857143,34.1428571 C186.613089,34.1428571 185.465779,33.8363126 184.415179,33.2232143 C183.364578,32.610116 182.532741,31.7782791 181.919643,30.7276786 C181.306545,29.6770781 181,28.5297681 181,27.2857143 C181,26.0416604 181.306545,24.8943505 181.919643,23.84375 C182.532741,22.7931495 183.36309,21.9613126 184.410714,21.3482143 Z M189,31.5625 L189,29.8660714 C189,29.7827377 188.973215,29.7127979 188.919643,29.65625 C188.866071,29.5997021 188.800596,29.5714286 188.723214,29.5714286 L187.008929,29.5714286 C186.931547,29.5714286 186.863096,29.6011902 186.803571,29.6607143 C186.744047,29.7202384 186.714286,29.7886901 186.714286,29.8660714 L186.714286,31.5625 C186.714286,31.6398813 186.744047,31.708333 186.803571,31.7678571 C186.863096,31.8273813 186.931547,31.8571429 187.008929,31.8571429 L188.723214,31.8571429 C188.800596,31.8571429 188.866071,31.8288693 188.919643,31.7723214 C188.973215,31.7157735 189,31.6458338 189,31.5625 Z M188.982143,28.4910714 L189.142857,22.9464286 C189.142857,22.8749996 189.113096,22.8214288 189.053571,22.7857143 C188.994047,22.738095 188.922619,22.7142857 188.839286,22.7142857 L186.875,22.7142857 C186.791666,22.7142857 186.720238,22.738095 186.660714,22.7857143 C186.60119,22.8214288 186.571429,22.8749996 186.571429,22.9464286 L186.723214,28.4910714 C186.723214,28.5505955 186.752976,28.6026783 186.8125,28.6473214 C186.872024,28.6919645 186.943452,28.7142857 187.026786,28.7142857 L188.678571,28.7142857 C188.761905,28.7142857 188.831845,28.6919645 188.888393,28.6473214 C188.944941,28.6026783 188.97619,28.5505955 188.982143,28.4910714 Z" id="exclamation-circle---FontAwesome" fill="#C30000"></path>
                <path d="M3.696,22.824 L0.352,22.824 L0.352,21.704 L8.464,21.704 L8.464,22.824 L5.136,22.824 L5.136,33 L3.696,33 L3.696,22.824 Z M9.84,21.704 L11.168,21.704 L11.168,26.68 C11.2640005,26.4453322 11.3866659,26.2213344 11.536,26.008 C11.6853341,25.7946656 11.8666656,25.6053342 12.08,25.44 C12.2933344,25.2746658 12.5386653,25.1440005 12.816,25.048 C13.0933347,24.9519995 13.402665,24.904 13.744,24.904 C14.5653374,24.904 15.1706647,25.1733306 15.56,25.712 C15.9493353,26.2506694 16.144,26.9786621 16.144,27.896 L16.144,33 L14.816,33 L14.816,28.104 C14.816,27.4319966 14.6773347,26.9280017 14.4,26.592 C14.1226653,26.2559983 13.7280026,26.088 13.216,26.088 C12.9173318,26.088 12.6426679,26.1519994 12.392,26.28 C12.1413321,26.4080006 11.9253342,26.5893322 11.744,26.824 C11.5626658,27.0586678 11.4213338,27.3413317 11.32,27.672 C11.2186662,28.0026683 11.168,28.3653314 11.168,28.76 L11.168,33 L9.84,33 L9.84,21.704 Z M18.16,22.072 L19.488,22.072 L19.488,23.4 L18.16,23.4 L18.16,22.072 Z M18.16,25.128 L19.488,25.128 L19.488,33 L18.16,33 L18.16,25.128 Z M21.68,31.064 C21.946668,31.405335 22.2906646,31.6879989 22.712,31.912 C23.1333354,32.1360011 23.5946642,32.248 24.096,32.248 C24.5440022,32.248 24.9333317,32.1413344 25.264,31.928 C25.5946683,31.7146656 25.76,31.3946688 25.76,30.968 C25.76,30.6373317 25.6506678,30.3786676 25.432,30.192 C25.2133322,30.0053324 24.941335,29.8480006 24.616,29.72 C24.290665,29.5919994 23.9360019,29.4746672 23.552,29.368 C23.1679981,29.2613328 22.813335,29.1226675 22.488,28.952 C22.162665,28.7813325 21.8906678,28.5573347 21.672,28.28 C21.4533322,28.0026653 21.344,27.6240024 21.344,27.144 C21.344,26.7493314 21.4239992,26.4106681 21.584,26.128 C21.7440008,25.8453319 21.9546654,25.6133342 22.216,25.432 C22.4773346,25.2506658 22.778665,25.1173338 23.12,25.032 C23.461335,24.9466662 23.8186648,24.904 24.192,24.904 C25.3013389,24.904 26.2239963,25.2239968 26.96,25.864 L26.288,26.76 C26.0533322,26.5146654 25.7413353,26.3093342 25.352,26.144 C24.9626647,25.9786658 24.5600021,25.896 24.144,25.896 C23.9626658,25.896 23.7840009,25.9173331 23.608,25.96 C23.4319991,26.0026669 23.277334,26.0693329 23.144,26.16 C23.010666,26.2506671 22.9040004,26.3653326 22.824,26.504 C22.7439996,26.6426674 22.704,26.8133323 22.704,27.016 C22.704,27.3253349 22.8133322,27.5653325 23.032,27.736 C23.2506678,27.9066675 23.522665,28.0533327 23.848,28.176 C24.173335,28.2986673 24.5253314,28.4159994 24.904,28.528 C25.2826686,28.6400006 25.634665,28.7839991 25.96,28.96 C26.285335,29.1360009 26.5573322,29.3679986 26.776,29.656 C26.9946678,29.9440014 27.104,30.3279976 27.104,30.808 C27.104,31.2133354 27.0213342,31.5679985 26.856,31.872 C26.6906658,32.1760015 26.4720014,32.4293323 26.2,32.632 C25.9279986,32.8346677 25.6133351,32.9866662 25.256,33.088 C24.8986649,33.1893338 24.5280019,33.24 24.144,33.24 C22.8213267,33.24 21.7706706,32.8133376 20.992,31.96 L21.68,31.064 Z M32.256,22.072 L33.584,22.072 L33.584,23.4 L32.256,23.4 L32.256,22.072 Z M32.256,25.128 L33.584,25.128 L33.584,33 L32.256,33 L32.256,25.128 Z M35.776,31.064 C36.042668,31.405335 36.3866646,31.6879989 36.808,31.912 C37.2293354,32.1360011 37.6906642,32.248 38.192,32.248 C38.6400022,32.248 39.0293317,32.1413344 39.36,31.928 C39.6906683,31.7146656 39.856,31.3946688 39.856,30.968 C39.856,30.6373317 39.7466678,30.3786676 39.528,30.192 C39.3093322,30.0053324 39.037335,29.8480006 38.712,29.72 C38.386665,29.5919994 38.0320019,29.4746672 37.648,29.368 C37.2639981,29.2613328 36.909335,29.1226675 36.584,28.952 C36.258665,28.7813325 35.9866678,28.5573347 35.768,28.28 C35.5493322,28.0026653 35.44,27.6240024 35.44,27.144 C35.44,26.7493314 35.5199992,26.4106681 35.68,26.128 C35.8400008,25.8453319 36.0506654,25.6133342 36.312,25.432 C36.5733346,25.2506658 36.874665,25.1173338 37.216,25.032 C37.557335,24.9466662 37.9146648,24.904 38.288,24.904 C39.3973389,24.904 40.3199963,25.2239968 41.056,25.864 L40.384,26.76 C40.1493322,26.5146654 39.8373353,26.3093342 39.448,26.144 C39.0586647,25.9786658 38.6560021,25.896 38.24,25.896 C38.0586658,25.896 37.8800009,25.9173331 37.704,25.96 C37.5279991,26.0026669 37.373334,26.0693329 37.24,26.16 C37.106666,26.2506671 37.0000004,26.3653326 36.92,26.504 C36.8399996,26.6426674 36.8,26.8133323 36.8,27.016 C36.8,27.3253349 36.9093322,27.5653325 37.128,27.736 C37.3466678,27.9066675 37.618665,28.0533327 37.944,28.176 C38.269335,28.2986673 38.6213314,28.4159994 39,28.528 C39.3786686,28.6400006 39.730665,28.7839991 40.056,28.96 C40.381335,29.1360009 40.6533322,29.3679986 40.872,29.656 C41.0906678,29.9440014 41.2,30.3279976 41.2,30.808 C41.2,31.2133354 41.1173342,31.5679985 40.952,31.872 C40.7866658,32.1760015 40.5680014,32.4293323 40.296,32.632 C40.0239986,32.8346677 39.7093351,32.9866662 39.352,33.088 C38.9946649,33.1893338 38.6240019,33.24 38.24,33.24 C36.9173267,33.24 35.8666706,32.8133376 35.088,31.96 L35.776,31.064 Z M46.496,31.064 C46.762668,31.405335 47.1066646,31.6879989 47.528,31.912 C47.9493354,32.1360011 48.4106642,32.248 48.912,32.248 C49.3600022,32.248 49.7493317,32.1413344 50.08,31.928 C50.4106683,31.7146656 50.576,31.3946688 50.576,30.968 C50.576,30.6373317 50.4666678,30.3786676 50.248,30.192 C50.0293322,30.0053324 49.757335,29.8480006 49.432,29.72 C49.106665,29.5919994 48.7520019,29.4746672 48.368,29.368 C47.9839981,29.2613328 47.629335,29.1226675 47.304,28.952 C46.978665,28.7813325 46.7066678,28.5573347 46.488,28.28 C46.2693322,28.0026653 46.16,27.6240024 46.16,27.144 C46.16,26.7493314 46.2399992,26.4106681 46.4,26.128 C46.5600008,25.8453319 46.7706654,25.6133342 47.032,25.432 C47.2933346,25.2506658 47.594665,25.1173338 47.936,25.032 C48.277335,24.9466662 48.6346648,24.904 49.008,24.904 C50.1173389,24.904 51.0399963,25.2239968 51.776,25.864 L51.104,26.76 C50.8693322,26.5146654 50.5573353,26.3093342 50.168,26.144 C49.7786647,25.9786658 49.3760021,25.896 48.96,25.896 C48.7786658,25.896 48.6000009,25.9173331 48.424,25.96 C48.2479991,26.0026669 48.093334,26.0693329 47.96,26.16 C47.826666,26.2506671 47.7200004,26.3653326 47.64,26.504 C47.5599996,26.6426674 47.52,26.8133323 47.52,27.016 C47.52,27.3253349 47.6293322,27.5653325 47.848,27.736 C48.0666678,27.9066675 48.338665,28.0533327 48.664,28.176 C48.989335,28.2986673 49.3413314,28.4159994 49.72,28.528 C50.0986686,28.6400006 50.450665,28.7839991 50.776,28.96 C51.101335,29.1360009 51.3733322,29.3679986 51.592,29.656 C51.8106678,29.9440014 51.92,30.3279976 51.92,30.808 C51.92,31.2133354 51.8373342,31.5679985 51.672,31.872 C51.5066658,32.1760015 51.2880014,32.4293323 51.016,32.632 C50.7439986,32.8346677 50.4293351,32.9866662 50.072,33.088 C49.7146649,33.1893338 49.3440019,33.24 48.96,33.24 C47.6373267,33.24 46.5866706,32.8133376 45.808,31.96 L46.496,31.064 Z M56.736,33.24 C56.1386637,33.24 55.6133356,33.1306678 55.16,32.912 C54.7066644,32.6933322 54.3280015,32.3946686 54.024,32.016 C53.7199985,31.6373314 53.4933341,31.1946692 53.344,30.688 C53.1946659,30.1813308 53.12,29.6346696 53.12,29.048 C53.12,28.4613304 53.1973326,27.9173358 53.352,27.416 C53.5066674,26.9146642 53.7359985,26.4773352 54.04,26.104 C54.3440015,25.7306648 54.7226644,25.4373344 55.176,25.224 C55.6293356,25.0106656 56.1493304,24.904 56.736,24.904 C57.3226696,24.904 57.8426644,25.0106656 58.296,25.224 C58.7493356,25.4373344 59.1306651,25.7279982 59.44,26.096 C59.7493349,26.4640018 59.9813326,26.9013308 60.136,27.408 C60.2906674,27.9146692 60.368,28.4613304 60.368,29.048 C60.368,29.6346696 60.2906674,30.1813308 60.136,30.688 C59.9813326,31.1946692 59.7493349,31.6373314 59.44,32.016 C59.1306651,32.3946686 58.7493356,32.6933322 58.296,32.912 C57.8426644,33.1306678 57.3226696,33.24 56.736,33.24 Z M56.768,32.2 C57.1306685,32.2 57.4506653,32.1200008 57.728,31.96 C58.0053347,31.7999992 58.2346658,31.5786681 58.416,31.296 C58.5973342,31.0133319 58.7359995,30.6800019 58.832,30.296 C58.9280005,29.9119981 58.976,29.4960022 58.976,29.048 C58.976,28.5999978 58.9280005,28.1866686 58.832,27.808 C58.7359995,27.4293314 58.592001,27.1013347 58.4,26.824 C58.207999,26.5466653 57.9733347,26.3306674 57.696,26.176 C57.4186653,26.0213326 57.0986685,25.944 56.736,25.944 C56.3626648,25.944 56.0373347,26.0213326 55.76,26.176 C55.4826653,26.3306674 55.2533342,26.5466653 55.072,26.824 C54.8906658,27.1013347 54.7520005,27.4293314 54.656,27.808 C54.5599995,28.1866686 54.512,28.5999978 54.512,29.048 C54.512,29.4960022 54.5599995,29.9119981 54.656,30.296 C54.7520005,30.6800019 54.8933324,31.0133319 55.08,31.296 C55.2666676,31.5786681 55.5013319,31.7999992 55.784,31.96 C56.0666681,32.1200008 56.3946648,32.2 56.768,32.2 Z M62.064,25.128 L63.216,25.128 L63.36,26.664 C63.552001,26.1199973 63.8506646,25.6906682 64.256,25.376 C64.6613354,25.0613318 65.1573304,24.904 65.744,24.904 C66.3626698,24.904 66.8479982,25.0799982 67.2,25.432 C67.5520018,25.7840018 67.7759995,26.2106642 67.872,26.712 C67.9680005,26.4666654 68.0879993,26.2346678 68.232,26.016 C68.3760007,25.7973322 68.5493323,25.6053342 68.752,25.44 C68.9546677,25.2746658 69.189332,25.1440005 69.456,25.048 C69.722668,24.9519995 70.026665,24.904 70.368,24.904 C70.8160022,24.904 71.1866652,24.9813326 71.48,25.136 C71.7733348,25.2906674 72.0079991,25.501332 72.184,25.768 C72.3600009,26.034668 72.485333,26.3466649 72.56,26.704 C72.634667,27.0613351 72.672,27.4373314 72.672,27.832 L72.672,33 L71.344,33 L71.344,28.168 C71.344,27.4639965 71.2186679,26.9386684 70.968,26.592 C70.7173321,26.2453316 70.3520024,26.072 69.872,26.072 C69.3493307,26.072 68.9120018,26.3039977 68.56,26.768 C68.2079982,27.2320023 68.032,27.8959957 68.032,28.76 L68.032,33 L66.704,33 L66.704,28.232 C66.704,27.4959963 66.5760013,26.9520018 66.32,26.6 C66.0639987,26.2479982 65.706669,26.072 65.248,26.072 C64.7359974,26.072 64.2986685,26.309331 63.936,26.784 C63.5733315,27.258669 63.392,27.9439955 63.392,28.84 L63.392,33 L62.064,33 L62.064,25.128 Z M75.696,29.368 C75.7493336,30.2746712 75.9813313,30.9759975 76.392,31.472 C76.8026687,31.9680025 77.3759963,32.216 78.112,32.216 C79.0400046,32.216 79.7386643,31.778671 80.208,30.904 L81.216,31.464 C80.9066651,31.9866693 80.4960026,32.4133317 79.984,32.744 C79.4719974,33.0746683 78.8266706,33.24 78.048,33.24 C77.4293302,33.24 76.8880023,33.1333344 76.424,32.92 C75.9599977,32.7066656 75.5733349,32.4133352 75.264,32.04 C74.9546651,31.6666648 74.7226674,31.2293358 74.568,30.728 C74.4133326,30.2266642 74.336,29.6880029 74.336,29.112 C74.336,28.5466638 74.4106659,28.0080026 74.56,27.496 C74.7093341,26.9839974 74.9359985,26.5360019 75.24,26.152 C75.5440015,25.7679981 75.9173311,25.4640011 76.36,25.24 C76.8026689,25.0159989 77.3226637,24.904 77.92,24.904 C78.4960029,24.904 78.9973312,25.0133322 79.424,25.232 C79.8506688,25.4506678 80.2053319,25.7439982 80.488,26.112 C80.7706681,26.4800018 80.9839993,26.9066642 81.128,27.392 C81.2720007,27.8773358 81.344,28.3919973 81.344,28.936 C81.344,29.0533339 81.3413334,29.1439997 81.336,29.208 C81.3306666,29.2720003 81.328,29.3253331 81.328,29.368 L75.696,29.368 Z M77.904,25.912 C77.2319966,25.912 76.7120018,26.1519976 76.344,26.632 C75.9759982,27.1120024 75.7653336,27.7573293 75.712,28.568 L79.984,28.568 C79.984,28.2373317 79.946667,27.9146682 79.872,27.6 C79.797333,27.2853318 79.6746675,27.0026679 79.504,26.752 C79.3333325,26.5013321 79.1173346,26.2986674 78.856,26.144 C78.5946654,25.9893326 78.2773352,25.912 77.904,25.912 Z M87.248,26.04 L85.904,26.04 L85.904,25.128 L86.192,25.128 C86.5226683,25.128 86.7813324,25.0933337 86.968,25.024 C87.1546676,24.9546663 87.2959995,24.8480007 87.392,24.704 C87.4880005,24.5599993 87.5573331,24.3706678 87.6,24.136 C87.6426669,23.9013322 87.6799998,23.613335 87.712,23.272 L87.744,22.984 L88.576,22.984 L88.576,25.128 L90.272,25.128 L90.272,26.04 L88.576,26.04 L88.576,30.936 C88.576,31.3840022 88.642666,31.7066657 88.776,31.904 C88.909334,32.1013343 89.1573315,32.2 89.52,32.2 C89.8080014,32.2 90.0746654,32.1360006 90.32,32.008 L90.464,32.968 C90.0586646,33.1493342 89.6106691,33.24 89.12,33.24 C88.7359981,33.24 88.4240012,33.1866672 88.184,33.08 C87.9439988,32.9733328 87.7546674,32.8293342 87.616,32.648 C87.4773326,32.4666658 87.3813336,32.2480013 87.328,31.992 C87.2746664,31.7359987 87.248,31.4586682 87.248,31.16 L87.248,26.04 Z M91.696,34.68 C91.8133339,34.7226669 91.9466659,34.7599998 92.096,34.792 C92.2453341,34.8240002 92.3999992,34.84 92.56,34.84 C92.7306675,34.84 92.8773327,34.8160002 93,34.768 C93.1226673,34.7199998 93.2346662,34.6320006 93.336,34.504 C93.4373338,34.3759994 93.5333329,34.2053344 93.624,33.992 C93.7146671,33.7786656 93.8133328,33.501335 93.92,33.16 L91.248,25.128 L92.688,25.128 L94.608,31.64 L96.512,25.128 L97.952,25.128 L95.536,32.376 C95.3333323,32.9946698 95.1493342,33.5226645 94.984,33.96 C94.8186658,34.3973355 94.6346677,34.7573319 94.432,35.04 C94.2293323,35.3226681 93.9813348,35.530666 93.688,35.664 C93.3946652,35.797334 93.018669,35.864 92.56,35.864 C92.3786658,35.864 92.184001,35.8560001 91.976,35.84 C91.767999,35.8239999 91.6053339,35.7946669 91.488,35.752 L91.696,34.68 Z M99.392,25.128 L100.72,25.128 L100.72,26.648 C100.816,26.4239989 100.938666,26.2053344 101.088,25.992 C101.237334,25.7786656 101.415999,25.5920008 101.624,25.432 C101.832001,25.2719992 102.074665,25.1440005 102.352,25.048 C102.629335,24.9519995 102.943998,24.904 103.296,24.904 C103.808003,24.904 104.253331,25.0106656 104.632,25.224 C105.010669,25.4373344 105.322665,25.7306648 105.568,26.104 C105.813335,26.4773352 105.997333,26.9119975 106.12,27.408 C106.242667,27.9040025 106.304,28.4399971 106.304,29.016 C106.304,29.6986701 106.224001,30.3013307 106.064,30.824 C105.903999,31.3466693 105.680001,31.7839982 105.392,32.136 C105.103999,32.4880018 104.768002,32.7546658 104.384,32.936 C103.999998,33.1173342 103.584002,33.208 103.136,33.208 C102.54933,33.208 102.045335,33.0640014 101.624,32.776 C101.202665,32.4879986 100.901334,32.1306688 100.72,31.704 L100.72,35.768 L99.392,35.768 L99.392,25.128 Z M100.72,29.112 C100.72,29.3360011 100.728,29.5413324 100.744,29.728 C100.76,29.9146676 100.778667,30.0719994 100.8,30.2 C100.842667,30.4560013 100.922666,30.7013322 101.04,30.936 C101.157334,31.1706678 101.301332,31.3759991 101.472,31.552 C101.642668,31.7280009 101.842666,31.8693328 102.072,31.976 C102.301334,32.0826672 102.554665,32.136 102.832,32.136 C103.194668,32.136 103.506665,32.0506675 103.768,31.88 C104.029335,31.7093325 104.245332,31.4800014 104.416,31.192 C104.586668,30.9039986 104.712,30.5760018 104.792,30.208 C104.872,29.8399982 104.912,29.4586686 104.912,29.064 C104.912,28.6693314 104.874667,28.2880018 104.8,27.92 C104.725333,27.5519982 104.605334,27.2266681 104.44,26.944 C104.274666,26.6613319 104.058668,26.4346675 103.792,26.264 C103.525332,26.0933325 103.205335,26.008 102.832,26.008 C102.543999,26.008 102.280001,26.0613328 102.04,26.168 C101.799999,26.2746672 101.594668,26.4186658 101.424,26.6 C101.253332,26.7813342 101.112001,26.9893322 101,27.224 C100.887999,27.4586678 100.816,27.7039987 100.784,27.96 C100.762667,28.0666672 100.746667,28.2133324 100.736,28.4 C100.725333,28.5866676 100.72,28.8026654 100.72,29.048 L100.72,29.112 Z M109.008,29.368 C109.061334,30.2746712 109.293331,30.9759975 109.704,31.472 C110.114669,31.9680025 110.687996,32.216 111.424,32.216 C112.352005,32.216 113.050664,31.778671 113.52,30.904 L114.528,31.464 C114.218665,31.9866693 113.808003,32.4133317 113.296,32.744 C112.783997,33.0746683 112.138671,33.24 111.36,33.24 C110.74133,33.24 110.200002,33.1333344 109.736,32.92 C109.271998,32.7066656 108.885335,32.4133352 108.576,32.04 C108.266665,31.6666648 108.034667,31.2293358 107.88,30.728 C107.725333,30.2266642 107.648,29.6880029 107.648,29.112 C107.648,28.5466638 107.722666,28.0080026 107.872,27.496 C108.021334,26.9839974 108.247998,26.5360019 108.552,26.152 C108.856002,25.7679981 109.229331,25.4640011 109.672,25.24 C110.114669,25.0159989 110.634664,24.904 111.232,24.904 C111.808003,24.904 112.309331,25.0133322 112.736,25.232 C113.162669,25.4506678 113.517332,25.7439982 113.8,26.112 C114.082668,26.4800018 114.295999,26.9066642 114.44,27.392 C114.584001,27.8773358 114.656,28.3919973 114.656,28.936 C114.656,29.0533339 114.653333,29.1439997 114.648,29.208 C114.642667,29.2720003 114.64,29.3253331 114.64,29.368 L109.008,29.368 Z M111.216,25.912 C110.543997,25.912 110.024002,26.1519976 109.656,26.632 C109.287998,27.1120024 109.077334,27.7573293 109.024,28.568 L113.296,28.568 C113.296,28.2373317 113.258667,27.9146682 113.184,27.6 C113.109333,27.2853318 112.986668,27.0026679 112.816,26.752 C112.645332,26.5013321 112.429335,26.2986674 112.168,26.144 C111.906665,25.9893326 111.589335,25.912 111.216,25.912 Z M121.568,31.464 C121.354666,31.997336 121.040002,32.4186651 120.624,32.728 C120.207998,33.0373349 119.69067,33.192 119.072,33.192 C118.581331,33.192 118.141335,33.0906677 117.752,32.888 C117.362665,32.6853323 117.032001,32.4026685 116.76,32.04 C116.487999,31.6773315 116.280001,31.2400026 116.136,30.728 C115.991999,30.2159974 115.92,29.6506698 115.92,29.032 C115.92,28.3919968 115.994666,27.8186692 116.144,27.312 C116.293334,26.8053308 116.506665,26.3760018 116.784,26.024 C117.061335,25.6719982 117.394665,25.400001 117.784,25.208 C118.173335,25.015999 118.602664,24.92 119.072,24.92 C119.712003,24.92 120.234665,25.0719985 120.64,25.376 C121.045335,25.6800015 121.333332,26.0453312 121.504,26.472 L121.504,21.704 L122.848,21.704 L122.848,33 L121.568,33 L121.568,31.464 Z M121.504,29.016 C121.504,28.6853317 121.496,28.4266676 121.48,28.24 C121.464,28.0533324 121.445333,27.9013339 121.424,27.784 C121.370666,27.5493322 121.290667,27.3253344 121.184,27.112 C121.077333,26.8986656 120.941334,26.7093342 120.776,26.544 C120.610666,26.3786658 120.416001,26.2480005 120.192,26.152 C119.967999,26.0559995 119.712001,26.008 119.424,26.008 C119.061332,26.008 118.749335,26.0879992 118.488,26.248 C118.226665,26.4080008 118.008001,26.6239986 117.832,26.896 C117.655999,27.1680014 117.525334,27.4879982 117.44,27.856 C117.354666,28.2240018 117.312,28.6159979 117.312,29.032 C117.312,29.4800022 117.36,29.8933314 117.456,30.272 C117.552,30.6506686 117.690666,30.9759986 117.872,31.248 C118.053334,31.5200014 118.277332,31.7333326 118.544,31.888 C118.810668,32.0426674 119.114665,32.12 119.456,32.12 C119.722668,32.12 119.965332,32.0720005 120.184,31.976 C120.402668,31.8799995 120.594666,31.7466675 120.76,31.576 C120.925334,31.4053325 121.061333,31.2106678 121.168,30.992 C121.274667,30.7733322 121.354666,30.5413346 121.408,30.296 C121.472,29.9973318 121.504,29.5973358 121.504,29.096 L121.504,29.016 Z M129.168,26.04 L127.824,26.04 L127.824,25.128 L128.112,25.128 C128.442668,25.128 128.701332,25.0933337 128.888,25.024 C129.074668,24.9546663 129.216,24.8480007 129.312,24.704 C129.408,24.5599993 129.477333,24.3706678 129.52,24.136 C129.562667,23.9013322 129.6,23.613335 129.632,23.272 L129.664,22.984 L130.496,22.984 L130.496,25.128 L132.192,25.128 L132.192,26.04 L130.496,26.04 L130.496,30.936 C130.496,31.3840022 130.562666,31.7066657 130.696,31.904 C130.829334,32.1013343 131.077332,32.2 131.44,32.2 C131.728001,32.2 131.994665,32.1360006 132.24,32.008 L132.384,32.968 C131.978665,33.1493342 131.530669,33.24 131.04,33.24 C130.655998,33.24 130.344001,33.1866672 130.104,33.08 C129.863999,32.9733328 129.674667,32.8293342 129.536,32.648 C129.397333,32.4666658 129.301334,32.2480013 129.248,31.992 C129.194666,31.7359987 129.168,31.4586682 129.168,31.16 L129.168,26.04 Z M134.8,29.368 C134.853334,30.2746712 135.085331,30.9759975 135.496,31.472 C135.906669,31.9680025 136.479996,32.216 137.216,32.216 C138.144005,32.216 138.842664,31.778671 139.312,30.904 L140.32,31.464 C140.010665,31.9866693 139.600003,32.4133317 139.088,32.744 C138.575997,33.0746683 137.930671,33.24 137.152,33.24 C136.53333,33.24 135.992002,33.1333344 135.528,32.92 C135.063998,32.7066656 134.677335,32.4133352 134.368,32.04 C134.058665,31.6666648 133.826667,31.2293358 133.672,30.728 C133.517333,30.2266642 133.44,29.6880029 133.44,29.112 C133.44,28.5466638 133.514666,28.0080026 133.664,27.496 C133.813334,26.9839974 134.039998,26.5360019 134.344,26.152 C134.648002,25.7679981 135.021331,25.4640011 135.464,25.24 C135.906669,25.0159989 136.426664,24.904 137.024,24.904 C137.600003,24.904 138.101331,25.0133322 138.528,25.232 C138.954669,25.4506678 139.309332,25.7439982 139.592,26.112 C139.874668,26.4800018 140.087999,26.9066642 140.232,27.392 C140.376001,27.8773358 140.448,28.3919973 140.448,28.936 C140.448,29.0533339 140.445333,29.1439997 140.44,29.208 C140.434667,29.2720003 140.432,29.3253331 140.432,29.368 L134.8,29.368 Z M137.008,25.912 C136.335997,25.912 135.816002,26.1519976 135.448,26.632 C135.079998,27.1120024 134.869334,27.7573293 134.816,28.568 L139.088,28.568 C139.088,28.2373317 139.050667,27.9146682 138.976,27.6 C138.901333,27.2853318 138.778668,27.0026679 138.608,26.752 C138.437332,26.5013321 138.221335,26.2986674 137.96,26.144 C137.698665,25.9893326 137.381335,25.912 137.008,25.912 Z M143.632,28.888 L141.28,25.128 L142.752,25.128 L144.576,28.12 L146.4,25.128 L147.856,25.128 L145.488,28.888 L148.16,33 L146.608,33 L144.576,29.672 L142.512,33 L140.976,33 L143.632,28.888 Z M150.256,26.04 L148.912,26.04 L148.912,25.128 L149.2,25.128 C149.530668,25.128 149.789332,25.0933337 149.976,25.024 C150.162668,24.9546663 150.304,24.8480007 150.4,24.704 C150.496,24.5599993 150.565333,24.3706678 150.608,24.136 C150.650667,23.9013322 150.688,23.613335 150.72,23.272 L150.752,22.984 L151.584,22.984 L151.584,25.128 L153.28,25.128 L153.28,26.04 L151.584,26.04 L151.584,30.936 C151.584,31.3840022 151.650666,31.7066657 151.784,31.904 C151.917334,32.1013343 152.165332,32.2 152.528,32.2 C152.816001,32.2 153.082665,32.1360006 153.328,32.008 L153.472,32.968 C153.066665,33.1493342 152.618669,33.24 152.128,33.24 C151.743998,33.24 151.432001,33.1866672 151.192,33.08 C150.951999,32.9733328 150.762667,32.8293342 150.624,32.648 C150.485333,32.4666658 150.389334,32.2480013 150.336,31.992 C150.282666,31.7359987 150.256,31.4586682 150.256,31.16 L150.256,26.04 Z" id="This-is-some-typed-t" fill="#000000"></path>
            </g>
        </g>
    </g>
</svg>