<?xml version="1.0" encoding="UTF-8"?>
<svg width="200px" height="44px" viewBox="0 0 200 44" version="1.1" xmlns="http://www.w3.org/2000/svg" xmlns:xlink="http://www.w3.org/1999/xlink">
    <!-- Generator: Sketch 47.1 (45422) - http://www.bohemiancoding.com/sketch -->
    <title>SuccessField</title>
    <desc>Created with Sketch.</desc>
    <defs></defs>
    <g id="Page-1" stroke="none" stroke-width="1" fill="none" fill-rule="evenodd">
        <g id="Buttons-Usage-extra-large-1200" transform="translate(-602.000000, -1362.000000)">
            <g id="SuccessField" transform="translate(602.000000, 1362.000000)">
                <path d="M1.33,8.718 C1.61933478,9.14733548 2.01133086,9.49499867 2.506,9.761 C3.00066914,10.0270013 3.58399664,10.16 4.256,10.16 C4.57333492,10.16 4.86966529,10.1180004 5.145,10.034 C5.42033471,9.94999958 5.65833233,9.82866746 5.859,9.67 C6.05966767,9.51133254 6.21599944,9.31766781 6.328,9.089 C6.44000056,8.86033219 6.496,8.6060014 6.496,8.326 C6.496,8.03666522 6.42833401,7.79400098 6.293,7.598 C6.15766599,7.40199902 5.9733345,7.23633401 5.74,7.101 C5.5066655,6.96566599 5.22900161,6.84666718 4.907,6.744 C4.58499839,6.64133282 4.2373352,6.53866718 3.864,6.436 C3.4439979,6.31466606 3.05433513,6.17933408 2.695,6.03 C2.33566487,5.88066592 2.02533464,5.69633443 1.764,5.477 C1.50266536,5.25766557 1.29733408,5.00100147 1.148,4.707 C0.99866592,4.41299853 0.924,4.06066872 0.924,3.65 C0.924,3.2299979 1.00566585,2.85200168 1.169,2.516 C1.33233415,2.17999832 1.56333184,1.89300119 1.862,1.655 C2.16066816,1.41699881 2.51299797,1.23266732 2.919,1.102 C3.32500203,0.97133268 3.77533086,0.906 4.27,0.906 C4.95133674,0.906 5.58133044,1.02033219 6.16,1.249 C6.73866956,1.47766781 7.23333128,1.81599776 7.644,2.264 L6.79,3.062 C6.49133184,2.7353317 6.12500217,2.46933436 5.691,2.264 C5.25699783,2.05866564 4.77866928,1.956 4.256,1.956 C3.65866368,1.956 3.17100189,2.08433205 2.793,2.341 C2.41499811,2.59766795 2.226,2.98733072 2.226,3.51 C2.226,3.77133464 2.28433275,3.9953324 2.401,4.182 C2.51766725,4.3686676 2.68099895,4.5319993 2.891,4.672 C3.10100105,4.8120007 3.34833191,4.93566613 3.633,5.043 C3.91766809,5.15033387 4.23266494,5.2506662 4.578,5.344 C5.0913359,5.4840007 5.54866466,5.63566585 5.95,5.799 C6.35133534,5.96233415 6.68733198,6.15599888 6.958,6.38 C7.22866802,6.60400112 7.4339993,6.86299853 7.574,7.157 C7.7140007,7.45100147 7.784,7.79399804 7.784,8.186 C7.784,8.66200238 7.6906676,9.08899811 7.504,9.467 C7.3173324,9.84500189 7.06300161,10.162332 6.741,10.419 C6.41899839,10.6756679 6.04100217,10.871666 5.607,11.007 C5.17299783,11.142334 4.71333576,11.21 4.228,11.21 C3.33199552,11.21 2.57600308,11.0676681 1.96,10.783 C1.34399692,10.4983319 0.8493352,10.0900027 0.476,9.558 L1.33,8.718 Z M9.212,4.112 L10.388,4.112 L10.388,8.284 C10.388,8.9373366 10.5093321,9.41566515 10.752,9.719 C10.9946679,10.0223348 11.3353311,10.174 11.774,10.174 C12.3340028,10.174 12.7703318,9.95233555 13.083,9.509 C13.3956682,9.06566445 13.552,8.47533702 13.552,7.738 L13.552,4.112 L14.714,4.112 L14.714,11 L13.622,11 L13.622,9.6 C13.5379996,9.81466774 13.4353339,10.0176657 13.314,10.209 C13.1926661,10.4003343 13.0433342,10.5683326 12.866,10.713 C12.6886658,10.8576674 12.4833345,10.9719996 12.25,11.056 C12.0166655,11.1400004 11.7413349,11.182 11.424,11.182 C10.6773296,11.182 10.1220018,10.9556689 9.758,10.503 C9.39399818,10.0503311 9.212,9.40867082 9.212,8.578 L9.212,4.112 Z M22.26,9.488 C21.9799986,10.0480028 21.6043357,10.4749985 21.133,10.769 C20.6616643,11.0630015 20.0900034,11.21 19.418,11.21 C18.8673306,11.21 18.389002,11.1143343 17.983,10.923 C17.576998,10.7316657 17.2410013,10.4726683 16.975,10.146 C16.7089987,9.8193317 16.5130006,9.43433555 16.387,8.991 C16.2609994,8.54766445 16.198,8.07400252 16.198,7.57 C16.198,7.0566641 16.265666,6.57833555 16.401,6.135 C16.536334,5.69166445 16.7369987,5.3066683 17.003,4.98 C17.2690013,4.6533317 17.6026647,4.39433429 18.004,4.203 C18.4053353,4.01166571 18.876664,3.916 19.418,3.916 C20.0993367,3.916 20.6663311,4.06766515 21.119,4.371 C21.5716689,4.67433485 21.9379986,5.10133058 22.218,5.652 L21.238,6.114 C20.8833316,5.25532904 20.2860042,4.826 19.446,4.826 C19.0913316,4.826 18.785668,4.8959993 18.529,5.036 C18.2723321,5.1760007 18.0623341,5.36733212 17.899,5.61 C17.7356659,5.85266788 17.6143337,6.13499839 17.535,6.457 C17.4556663,6.77900161 17.416,7.1266648 17.416,7.5 C17.416,7.85466844 17.453333,8.19999832 17.528,8.536 C17.602667,8.87200168 17.7239992,9.17066536 17.892,9.432 C18.0600008,9.69333464 18.2746654,9.90333254 18.536,10.062 C18.7973346,10.2206675 19.1193314,10.3 19.502,10.3 C19.9873358,10.3 20.3793318,10.1763346 20.678,9.929 C20.9766682,9.68166543 21.2053325,9.36200196 21.364,8.97 L22.26,9.488 Z M29.302,9.488 C29.0219986,10.0480028 28.6463357,10.4749985 28.175,10.769 C27.7036643,11.0630015 27.1320034,11.21 26.46,11.21 C25.9093306,11.21 25.431002,11.1143343 25.025,10.923 C24.618998,10.7316657 24.2830013,10.4726683 24.017,10.146 C23.7509987,9.8193317 23.5550006,9.43433555 23.429,8.991 C23.3029994,8.54766445 23.24,8.07400252 23.24,7.57 C23.24,7.0566641 23.307666,6.57833555 23.443,6.135 C23.578334,5.69166445 23.7789987,5.3066683 24.045,4.98 C24.3110013,4.6533317 24.6446647,4.39433429 25.046,4.203 C25.4473353,4.01166571 25.918664,3.916 26.46,3.916 C27.1413367,3.916 27.7083311,4.06766515 28.161,4.371 C28.6136689,4.67433485 28.9799986,5.10133058 29.26,5.652 L28.28,6.114 C27.9253316,5.25532904 27.3280042,4.826 26.488,4.826 C26.1333316,4.826 25.8276679,4.8959993 25.571,5.036 C25.314332,5.1760007 25.1043341,5.36733212 24.941,5.61 C24.7776658,5.85266788 24.6563337,6.13499839 24.577,6.457 C24.4976663,6.77900161 24.458,7.1266648 24.458,7.5 C24.458,7.85466844 24.495333,8.19999832 24.57,8.536 C24.644667,8.87200168 24.7659992,9.17066536 24.934,9.432 C25.1020008,9.69333464 25.3166654,9.90333254 25.578,10.062 C25.8393346,10.2206675 26.1613314,10.3 26.544,10.3 C27.0293358,10.3 27.4213318,10.1763346 27.72,9.929 C28.0186682,9.68166543 28.2473325,9.36200196 28.406,8.97 L29.302,9.488 Z M31.472,7.822 C31.5186669,8.6153373 31.7216649,9.22899783 32.081,9.663 C32.4403351,10.0970022 32.9419968,10.314 33.586,10.314 C34.3980041,10.314 35.0093313,9.93133716 35.42,9.166 L36.302,9.656 C36.031332,10.1133356 35.6720022,10.4866652 35.224,10.776 C34.7759978,11.0653348 34.2113367,11.21 33.53,11.21 C32.988664,11.21 32.515002,11.1166676 32.109,10.93 C31.702998,10.7433324 31.364668,10.4866683 31.094,10.16 C30.823332,9.8333317 30.620334,9.45066886 30.485,9.012 C30.349666,8.57333114 30.282,8.10200252 30.282,7.598 C30.282,7.10333086 30.3473327,6.63200224 30.478,6.184 C30.6086673,5.73599776 30.8069987,5.34400168 31.073,5.008 C31.3390013,4.67199832 31.6656647,4.40600098 32.053,4.21 C32.4403353,4.01399902 32.8953307,3.916 33.418,3.916 C33.9220025,3.916 34.3606648,4.01166571 34.734,4.203 C35.1073352,4.39433429 35.4176654,4.65099839 35.665,4.973 C35.9123346,5.29500161 36.0989994,5.66833121 36.225,6.093 C36.3510006,6.51766879 36.414,6.96799762 36.414,7.444 C36.414,7.54666718 36.4116667,7.62599972 36.407,7.682 C36.4023333,7.73800028 36.4,7.78466648 36.4,7.822 L31.472,7.822 Z M33.404,4.798 C32.8159971,4.798 32.3610016,5.0079979 32.039,5.428 C31.7169984,5.8480021 31.5326669,6.41266312 31.486,7.122 L35.224,7.122 C35.224,6.83266522 35.1913337,6.55033471 35.126,6.275 C35.0606663,5.99966529 34.9533341,5.75233443 34.804,5.533 C34.6546659,5.31366557 34.4656678,5.13633401 34.237,5.001 C34.0083322,4.86566599 33.7306683,4.798 33.404,4.798 Z M37.954,9.306 C38.1873345,9.60466816 38.4883315,9.85199902 38.857,10.048 C39.2256685,10.244001 39.6293311,10.342 40.068,10.342 C40.460002,10.342 40.8006652,10.2486676 41.09,10.062 C41.3793348,9.8753324 41.524,9.5953352 41.524,9.222 C41.524,8.93266522 41.4283343,8.70633415 41.237,8.543 C41.0456657,8.37966585 40.8076681,8.24200056 40.523,8.13 C40.2383319,8.01799944 39.9280017,7.9153338 39.592,7.822 C39.2559983,7.7286662 38.9456681,7.60733408 38.661,7.458 C38.3763319,7.30866592 38.1383343,7.11266788 37.947,6.87 C37.7556657,6.62733212 37.66,6.2960021 37.66,5.876 C37.66,5.53066494 37.7299993,5.23433457 37.87,4.987 C38.0100007,4.73966543 38.1943322,4.53666746 38.423,4.378 C38.6516678,4.21933254 38.9153318,4.10266704 39.214,4.028 C39.5126682,3.95333296 39.8253317,3.916 40.152,3.916 C41.1226715,3.916 41.9299968,4.1959972 42.574,4.756 L41.986,5.54 C41.7806656,5.32533226 41.5076684,5.14566739 41.167,5.001 C40.8263316,4.85633261 40.4740018,4.784 40.11,4.784 C39.9513325,4.784 39.7950008,4.80266648 39.641,4.84 C39.4869992,4.87733352 39.3516672,4.93566627 39.235,5.015 C39.1183327,5.09433373 39.0250003,5.19466606 38.955,5.316 C38.8849996,5.43733394 38.85,5.58666578 38.85,5.764 C38.85,6.03466802 38.9456657,6.24466592 39.137,6.394 C39.3283343,6.54333408 39.5663319,6.67166613 39.851,6.779 C40.1356681,6.88633387 40.443665,6.98899951 40.775,7.087 C41.106335,7.18500049 41.4143319,7.31099923 41.699,7.465 C41.9836681,7.61900077 42.2216657,7.82199874 42.413,8.074 C42.6043343,8.32600126 42.7,8.6619979 42.7,9.082 C42.7,9.43666844 42.6276674,9.74699867 42.483,10.013 C42.3383326,10.2790013 42.1470012,10.5006658 41.909,10.678 C41.6709988,10.8553342 41.3956682,10.9883329 41.083,11.077 C40.7703318,11.1656671 40.4460017,11.21 40.11,11.21 C38.9526609,11.21 38.0333367,10.8366704 37.352,10.09 L37.954,9.306 Z M44.184,9.306 C44.4173345,9.60466816 44.7183315,9.85199902 45.087,10.048 C45.4556685,10.244001 45.8593311,10.342 46.298,10.342 C46.690002,10.342 47.0306652,10.2486676 47.32,10.062 C47.6093348,9.8753324 47.754,9.5953352 47.754,9.222 C47.754,8.93266522 47.6583343,8.70633415 47.467,8.543 C47.2756657,8.37966585 47.0376681,8.24200056 46.753,8.13 C46.4683319,8.01799944 46.1580017,7.9153338 45.822,7.822 C45.4859983,7.7286662 45.1756681,7.60733408 44.891,7.458 C44.6063319,7.30866592 44.3683343,7.11266788 44.177,6.87 C43.9856657,6.62733212 43.89,6.2960021 43.89,5.876 C43.89,5.53066494 43.9599993,5.23433457 44.1,4.987 C44.2400007,4.73966543 44.4243322,4.53666746 44.653,4.378 C44.8816678,4.21933254 45.1453318,4.10266704 45.444,4.028 C45.7426682,3.95333296 46.0553317,3.916 46.382,3.916 C47.3526715,3.916 48.1599968,4.1959972 48.804,4.756 L48.216,5.54 C48.0106656,5.32533226 47.7376684,5.14566739 47.397,5.001 C47.0563316,4.85633261 46.7040018,4.784 46.34,4.784 C46.1813325,4.784 46.0250008,4.80266648 45.871,4.84 C45.7169992,4.87733352 45.5816673,4.93566627 45.465,5.015 C45.3483328,5.09433373 45.2550004,5.19466606 45.185,5.316 C45.1149997,5.43733394 45.08,5.58666578 45.08,5.764 C45.08,6.03466802 45.1756657,6.24466592 45.367,6.394 C45.5583343,6.54333408 45.7963319,6.67166613 46.081,6.779 C46.3656681,6.88633387 46.673665,6.98899951 47.005,7.087 C47.336335,7.18500049 47.6443319,7.31099923 47.929,7.465 C48.2136681,7.61900077 48.4516657,7.82199874 48.643,8.074 C48.8343343,8.32600126 48.93,8.6619979 48.93,9.082 C48.93,9.43666844 48.8576674,9.74699867 48.713,10.013 C48.5683326,10.2790013 48.3770012,10.5006658 48.139,10.678 C47.9009988,10.8553342 47.6256682,10.9883329 47.313,11.077 C47.0003318,11.1656671 46.6760017,11.21 46.34,11.21 C45.1826609,11.21 44.2633367,10.8366704 43.582,10.09 L44.184,9.306 Z" id="Success" fill="#5D9834"></path>
                <path d="M1,43 L199,43" id="Line" stroke="#5D9834" stroke-width="2" stroke-linecap="square"></path>
                <path d="M192.464286,27.8392857 C192.464286,27.6726182 192.410715,27.5357148 192.303571,27.4285714 L191.491071,26.625 C191.377976,26.5119042 191.244048,26.4553571 191.089286,26.4553571 C190.934523,26.4553571 190.800596,26.5119042 190.6875,26.625 L187.044643,30.2589286 L185.026786,28.2410714 C184.91369,28.1279756 184.779763,28.0714286 184.625,28.0714286 C184.470237,28.0714286 184.33631,28.1279756 184.223214,28.2410714 L183.410714,29.0446429 C183.303571,29.1517863 183.25,29.2886896 183.25,29.4553571 C183.25,29.6160722 183.303571,29.7499995 183.410714,29.8571429 L186.642857,33.0892857 C186.755953,33.2023815 186.88988,33.2589286 187.044643,33.2589286 C187.205358,33.2589286 187.342261,33.2023815 187.455357,33.0892857 L192.303571,28.2410714 C192.410715,28.133928 192.464286,28.0000008 192.464286,27.8392857 Z M193.794643,25.8482143 C194.407741,26.8958386 194.714286,28.0416604 194.714286,29.2857143 C194.714286,30.5297681 194.407741,31.6770781 193.794643,32.7276786 C193.181545,33.7782791 192.349708,34.610116 191.299107,35.2232143 C190.248507,35.8363126 189.101197,36.1428571 187.857143,36.1428571 C186.613089,36.1428571 185.465779,35.8363126 184.415179,35.2232143 C183.364578,34.610116 182.532741,33.7782791 181.919643,32.7276786 C181.306545,31.6770781 181,30.5297681 181,29.2857143 C181,28.0416604 181.306545,26.8943505 181.919643,25.84375 C182.532741,24.7931495 183.364578,23.9613126 184.415179,23.3482143 C185.465779,22.735116 186.613089,22.4285714 187.857143,22.4285714 C189.101197,22.4285714 190.248507,22.735116 191.299107,23.3482143 C192.349708,23.9613126 193.181545,24.7946376 193.794643,25.8482143 Z" id="check-circle---FontAwesome" fill="#5D9834"></path>
                <path d="M3.696,23.824 L0.352,23.824 L0.352,22.704 L8.464,22.704 L8.464,23.824 L5.136,23.824 L5.136,34 L3.696,34 L3.696,23.824 Z M9.84,22.704 L11.168,22.704 L11.168,27.68 C11.2640005,27.4453322 11.3866659,27.2213344 11.536,27.008 C11.6853341,26.7946656 11.8666656,26.6053342 12.08,26.44 C12.2933344,26.2746658 12.5386653,26.1440005 12.816,26.048 C13.0933347,25.9519995 13.402665,25.904 13.744,25.904 C14.5653374,25.904 15.1706647,26.1733306 15.56,26.712 C15.9493353,27.2506694 16.144,27.9786621 16.144,28.896 L16.144,34 L14.816,34 L14.816,29.104 C14.816,28.4319966 14.6773347,27.9280017 14.4,27.592 C14.1226653,27.2559983 13.7280026,27.088 13.216,27.088 C12.9173318,27.088 12.6426679,27.1519994 12.392,27.28 C12.1413321,27.4080006 11.9253342,27.5893322 11.744,27.824 C11.5626658,28.0586678 11.4213338,28.3413317 11.32,28.672 C11.2186662,29.0026683 11.168,29.3653314 11.168,29.76 L11.168,34 L9.84,34 L9.84,22.704 Z M18.16,23.072 L19.488,23.072 L19.488,24.4 L18.16,24.4 L18.16,23.072 Z M18.16,26.128 L19.488,26.128 L19.488,34 L18.16,34 L18.16,26.128 Z M21.68,32.064 C21.946668,32.405335 22.2906646,32.6879989 22.712,32.912 C23.1333354,33.1360011 23.5946642,33.248 24.096,33.248 C24.5440022,33.248 24.9333317,33.1413344 25.264,32.928 C25.5946683,32.7146656 25.76,32.3946688 25.76,31.968 C25.76,31.6373317 25.6506678,31.3786676 25.432,31.192 C25.2133322,31.0053324 24.941335,30.8480006 24.616,30.72 C24.290665,30.5919994 23.9360019,30.4746672 23.552,30.368 C23.1679981,30.2613328 22.813335,30.1226675 22.488,29.952 C22.162665,29.7813325 21.8906678,29.5573347 21.672,29.28 C21.4533322,29.0026653 21.344,28.6240024 21.344,28.144 C21.344,27.7493314 21.4239992,27.4106681 21.584,27.128 C21.7440008,26.8453319 21.9546654,26.6133342 22.216,26.432 C22.4773346,26.2506658 22.778665,26.1173338 23.12,26.032 C23.461335,25.9466662 23.8186648,25.904 24.192,25.904 C25.3013389,25.904 26.2239963,26.2239968 26.96,26.864 L26.288,27.76 C26.0533322,27.5146654 25.7413353,27.3093342 25.352,27.144 C24.9626647,26.9786658 24.5600021,26.896 24.144,26.896 C23.9626658,26.896 23.7840009,26.9173331 23.608,26.96 C23.4319991,27.0026669 23.277334,27.0693329 23.144,27.16 C23.010666,27.2506671 22.9040004,27.3653326 22.824,27.504 C22.7439996,27.6426674 22.704,27.8133323 22.704,28.016 C22.704,28.3253349 22.8133322,28.5653325 23.032,28.736 C23.2506678,28.9066675 23.522665,29.0533327 23.848,29.176 C24.173335,29.2986673 24.5253314,29.4159994 24.904,29.528 C25.2826686,29.6400006 25.634665,29.7839991 25.96,29.96 C26.285335,30.1360009 26.5573322,30.3679986 26.776,30.656 C26.9946678,30.9440014 27.104,31.3279976 27.104,31.808 C27.104,32.2133354 27.0213342,32.5679985 26.856,32.872 C26.6906658,33.1760015 26.4720014,33.4293323 26.2,33.632 C25.9279986,33.8346677 25.6133351,33.9866662 25.256,34.088 C24.8986649,34.1893338 24.5280019,34.24 24.144,34.24 C22.8213267,34.24 21.7706706,33.8133376 20.992,32.96 L21.68,32.064 Z M32.256,23.072 L33.584,23.072 L33.584,24.4 L32.256,24.4 L32.256,23.072 Z M32.256,26.128 L33.584,26.128 L33.584,34 L32.256,34 L32.256,26.128 Z M35.776,32.064 C36.042668,32.405335 36.3866646,32.6879989 36.808,32.912 C37.2293354,33.1360011 37.6906642,33.248 38.192,33.248 C38.6400022,33.248 39.0293317,33.1413344 39.36,32.928 C39.6906683,32.7146656 39.856,32.3946688 39.856,31.968 C39.856,31.6373317 39.7466678,31.3786676 39.528,31.192 C39.3093322,31.0053324 39.037335,30.8480006 38.712,30.72 C38.386665,30.5919994 38.0320019,30.4746672 37.648,30.368 C37.2639981,30.2613328 36.909335,30.1226675 36.584,29.952 C36.258665,29.7813325 35.9866678,29.5573347 35.768,29.28 C35.5493322,29.0026653 35.44,28.6240024 35.44,28.144 C35.44,27.7493314 35.5199992,27.4106681 35.68,27.128 C35.8400008,26.8453319 36.0506654,26.6133342 36.312,26.432 C36.5733346,26.2506658 36.874665,26.1173338 37.216,26.032 C37.557335,25.9466662 37.9146648,25.904 38.288,25.904 C39.3973389,25.904 40.3199963,26.2239968 41.056,26.864 L40.384,27.76 C40.1493322,27.5146654 39.8373353,27.3093342 39.448,27.144 C39.0586647,26.9786658 38.6560021,26.896 38.24,26.896 C38.0586658,26.896 37.8800009,26.9173331 37.704,26.96 C37.5279991,27.0026669 37.373334,27.0693329 37.24,27.16 C37.106666,27.2506671 37.0000004,27.3653326 36.92,27.504 C36.8399996,27.6426674 36.8,27.8133323 36.8,28.016 C36.8,28.3253349 36.9093322,28.5653325 37.128,28.736 C37.3466678,28.9066675 37.618665,29.0533327 37.944,29.176 C38.269335,29.2986673 38.6213314,29.4159994 39,29.528 C39.3786686,29.6400006 39.730665,29.7839991 40.056,29.96 C40.381335,30.1360009 40.6533322,30.3679986 40.872,30.656 C41.0906678,30.9440014 41.2,31.3279976 41.2,31.808 C41.2,32.2133354 41.1173342,32.5679985 40.952,32.872 C40.7866658,33.1760015 40.5680014,33.4293323 40.296,33.632 C40.0239986,33.8346677 39.7093351,33.9866662 39.352,34.088 C38.9946649,34.1893338 38.6240019,34.24 38.24,34.24 C36.9173267,34.24 35.8666706,33.8133376 35.088,32.96 L35.776,32.064 Z M46.496,32.064 C46.762668,32.405335 47.1066646,32.6879989 47.528,32.912 C47.9493354,33.1360011 48.4106642,33.248 48.912,33.248 C49.3600022,33.248 49.7493317,33.1413344 50.08,32.928 C50.4106683,32.7146656 50.576,32.3946688 50.576,31.968 C50.576,31.6373317 50.4666678,31.3786676 50.248,31.192 C50.0293322,31.0053324 49.757335,30.8480006 49.432,30.72 C49.106665,30.5919994 48.7520019,30.4746672 48.368,30.368 C47.9839981,30.2613328 47.629335,30.1226675 47.304,29.952 C46.978665,29.7813325 46.7066678,29.5573347 46.488,29.28 C46.2693322,29.0026653 46.16,28.6240024 46.16,28.144 C46.16,27.7493314 46.2399992,27.4106681 46.4,27.128 C46.5600008,26.8453319 46.7706654,26.6133342 47.032,26.432 C47.2933346,26.2506658 47.594665,26.1173338 47.936,26.032 C48.277335,25.9466662 48.6346648,25.904 49.008,25.904 C50.1173389,25.904 51.0399963,26.2239968 51.776,26.864 L51.104,27.76 C50.8693322,27.5146654 50.5573353,27.3093342 50.168,27.144 C49.7786647,26.9786658 49.3760021,26.896 48.96,26.896 C48.7786658,26.896 48.6000009,26.9173331 48.424,26.96 C48.2479991,27.0026669 48.093334,27.0693329 47.96,27.16 C47.826666,27.2506671 47.7200004,27.3653326 47.64,27.504 C47.5599996,27.6426674 47.52,27.8133323 47.52,28.016 C47.52,28.3253349 47.6293322,28.5653325 47.848,28.736 C48.0666678,28.9066675 48.338665,29.0533327 48.664,29.176 C48.989335,29.2986673 49.3413314,29.4159994 49.72,29.528 C50.0986686,29.6400006 50.450665,29.7839991 50.776,29.96 C51.101335,30.1360009 51.3733322,30.3679986 51.592,30.656 C51.8106678,30.9440014 51.92,31.3279976 51.92,31.808 C51.92,32.2133354 51.8373342,32.5679985 51.672,32.872 C51.5066658,33.1760015 51.2880014,33.4293323 51.016,33.632 C50.7439986,33.8346677 50.4293351,33.9866662 50.072,34.088 C49.7146649,34.1893338 49.3440019,34.24 48.96,34.24 C47.6373267,34.24 46.5866706,33.8133376 45.808,32.96 L46.496,32.064 Z M56.736,34.24 C56.1386637,34.24 55.6133356,34.1306678 55.16,33.912 C54.7066644,33.6933322 54.3280015,33.3946686 54.024,33.016 C53.7199985,32.6373314 53.4933341,32.1946692 53.344,31.688 C53.1946659,31.1813308 53.12,30.6346696 53.12,30.048 C53.12,29.4613304 53.1973326,28.9173358 53.352,28.416 C53.5066674,27.9146642 53.7359985,27.4773352 54.04,27.104 C54.3440015,26.7306648 54.7226644,26.4373344 55.176,26.224 C55.6293356,26.0106656 56.1493304,25.904 56.736,25.904 C57.3226696,25.904 57.8426644,26.0106656 58.296,26.224 C58.7493356,26.4373344 59.1306651,26.7279982 59.44,27.096 C59.7493349,27.4640018 59.9813326,27.9013308 60.136,28.408 C60.2906674,28.9146692 60.368,29.4613304 60.368,30.048 C60.368,30.6346696 60.2906674,31.1813308 60.136,31.688 C59.9813326,32.1946692 59.7493349,32.6373314 59.44,33.016 C59.1306651,33.3946686 58.7493356,33.6933322 58.296,33.912 C57.8426644,34.1306678 57.3226696,34.24 56.736,34.24 Z M56.768,33.2 C57.1306685,33.2 57.4506653,33.1200008 57.728,32.96 C58.0053347,32.7999992 58.2346658,32.5786681 58.416,32.296 C58.5973342,32.0133319 58.7359995,31.6800019 58.832,31.296 C58.9280005,30.9119981 58.976,30.4960022 58.976,30.048 C58.976,29.5999978 58.9280005,29.1866686 58.832,28.808 C58.7359995,28.4293314 58.592001,28.1013347 58.4,27.824 C58.207999,27.5466653 57.9733347,27.3306674 57.696,27.176 C57.4186653,27.0213326 57.0986685,26.944 56.736,26.944 C56.3626648,26.944 56.0373347,27.0213326 55.76,27.176 C55.4826653,27.3306674 55.2533342,27.5466653 55.072,27.824 C54.8906658,28.1013347 54.7520005,28.4293314 54.656,28.808 C54.5599995,29.1866686 54.512,29.5999978 54.512,30.048 C54.512,30.4960022 54.5599995,30.9119981 54.656,31.296 C54.7520005,31.6800019 54.8933324,32.0133319 55.08,32.296 C55.2666676,32.5786681 55.5013319,32.7999992 55.784,32.96 C56.0666681,33.1200008 56.3946648,33.2 56.768,33.2 Z M62.064,26.128 L63.216,26.128 L63.36,27.664 C63.552001,27.1199973 63.8506646,26.6906682 64.256,26.376 C64.6613354,26.0613318 65.1573304,25.904 65.744,25.904 C66.3626698,25.904 66.8479982,26.0799982 67.2,26.432 C67.5520018,26.7840018 67.7759995,27.2106642 67.872,27.712 C67.9680005,27.4666654 68.0879993,27.2346678 68.232,27.016 C68.3760007,26.7973322 68.5493323,26.6053342 68.752,26.44 C68.9546677,26.2746658 69.189332,26.1440005 69.456,26.048 C69.722668,25.9519995 70.026665,25.904 70.368,25.904 C70.8160022,25.904 71.1866652,25.9813326 71.48,26.136 C71.7733348,26.2906674 72.0079991,26.501332 72.184,26.768 C72.3600009,27.034668 72.485333,27.3466649 72.56,27.704 C72.634667,28.0613351 72.672,28.4373314 72.672,28.832 L72.672,34 L71.344,34 L71.344,29.168 C71.344,28.4639965 71.2186679,27.9386684 70.968,27.592 C70.7173321,27.2453316 70.3520024,27.072 69.872,27.072 C69.3493307,27.072 68.9120018,27.3039977 68.56,27.768 C68.2079982,28.2320023 68.032,28.8959957 68.032,29.76 L68.032,34 L66.704,34 L66.704,29.232 C66.704,28.4959963 66.5760013,27.9520018 66.32,27.6 C66.0639987,27.2479982 65.706669,27.072 65.248,27.072 C64.7359974,27.072 64.2986685,27.309331 63.936,27.784 C63.5733315,28.258669 63.392,28.9439955 63.392,29.84 L63.392,34 L62.064,34 L62.064,26.128 Z M75.696,30.368 C75.7493336,31.2746712 75.9813313,31.9759975 76.392,32.472 C76.8026687,32.9680025 77.3759963,33.216 78.112,33.216 C79.0400046,33.216 79.7386643,32.778671 80.208,31.904 L81.216,32.464 C80.9066651,32.9866693 80.4960026,33.4133317 79.984,33.744 C79.4719974,34.0746683 78.8266706,34.24 78.048,34.24 C77.4293302,34.24 76.8880023,34.1333344 76.424,33.92 C75.9599977,33.7066656 75.5733349,33.4133352 75.264,33.04 C74.9546651,32.6666648 74.7226674,32.2293358 74.568,31.728 C74.4133326,31.2266642 74.336,30.6880029 74.336,30.112 C74.336,29.5466638 74.4106659,29.0080026 74.56,28.496 C74.7093341,27.9839974 74.9359985,27.5360019 75.24,27.152 C75.5440015,26.7679981 75.9173311,26.4640011 76.36,26.24 C76.8026689,26.0159989 77.3226637,25.904 77.92,25.904 C78.4960029,25.904 78.9973312,26.0133322 79.424,26.232 C79.8506688,26.4506678 80.2053319,26.7439982 80.488,27.112 C80.7706681,27.4800018 80.9839993,27.9066642 81.128,28.392 C81.2720007,28.8773358 81.344,29.3919973 81.344,29.936 C81.344,30.0533339 81.3413334,30.1439997 81.336,30.208 C81.3306666,30.2720003 81.328,30.3253331 81.328,30.368 L75.696,30.368 Z M77.904,26.912 C77.2319966,26.912 76.7120018,27.1519976 76.344,27.632 C75.9759982,28.1120024 75.7653336,28.7573293 75.712,29.568 L79.984,29.568 C79.984,29.2373317 79.946667,28.9146682 79.872,28.6 C79.797333,28.2853318 79.6746675,28.0026679 79.504,27.752 C79.3333325,27.5013321 79.1173346,27.2986674 78.856,27.144 C78.5946654,26.9893326 78.2773352,26.912 77.904,26.912 Z M87.248,27.04 L85.904,27.04 L85.904,26.128 L86.192,26.128 C86.5226683,26.128 86.7813324,26.0933337 86.968,26.024 C87.1546676,25.9546663 87.2959995,25.8480007 87.392,25.704 C87.4880005,25.5599993 87.5573331,25.3706678 87.6,25.136 C87.6426669,24.9013322 87.6799998,24.613335 87.712,24.272 L87.744,23.984 L88.576,23.984 L88.576,26.128 L90.272,26.128 L90.272,27.04 L88.576,27.04 L88.576,31.936 C88.576,32.3840022 88.642666,32.7066657 88.776,32.904 C88.909334,33.1013343 89.1573315,33.2 89.52,33.2 C89.8080014,33.2 90.0746654,33.1360006 90.32,33.008 L90.464,33.968 C90.0586646,34.1493342 89.6106691,34.24 89.12,34.24 C88.7359981,34.24 88.4240012,34.1866672 88.184,34.08 C87.9439988,33.9733328 87.7546674,33.8293342 87.616,33.648 C87.4773326,33.4666658 87.3813336,33.2480013 87.328,32.992 C87.2746664,32.7359987 87.248,32.4586682 87.248,32.16 L87.248,27.04 Z M91.696,35.68 C91.8133339,35.7226669 91.9466659,35.7599998 92.096,35.792 C92.2453341,35.8240002 92.3999992,35.84 92.56,35.84 C92.7306675,35.84 92.8773327,35.8160002 93,35.768 C93.1226673,35.7199998 93.2346662,35.6320006 93.336,35.504 C93.4373338,35.3759994 93.5333329,35.2053344 93.624,34.992 C93.7146671,34.7786656 93.8133328,34.501335 93.92,34.16 L91.248,26.128 L92.688,26.128 L94.608,32.64 L96.512,26.128 L97.952,26.128 L95.536,33.376 C95.3333323,33.9946698 95.1493342,34.5226645 94.984,34.96 C94.8186658,35.3973355 94.6346677,35.7573319 94.432,36.04 C94.2293323,36.3226681 93.9813348,36.530666 93.688,36.664 C93.3946652,36.797334 93.018669,36.864 92.56,36.864 C92.3786658,36.864 92.184001,36.8560001 91.976,36.84 C91.767999,36.8239999 91.6053339,36.7946669 91.488,36.752 L91.696,35.68 Z M99.392,26.128 L100.72,26.128 L100.72,27.648 C100.816,27.4239989 100.938666,27.2053344 101.088,26.992 C101.237334,26.7786656 101.415999,26.5920008 101.624,26.432 C101.832001,26.2719992 102.074665,26.1440005 102.352,26.048 C102.629335,25.9519995 102.943998,25.904 103.296,25.904 C103.808003,25.904 104.253331,26.0106656 104.632,26.224 C105.010669,26.4373344 105.322665,26.7306648 105.568,27.104 C105.813335,27.4773352 105.997333,27.9119975 106.12,28.408 C106.242667,28.9040025 106.304,29.4399971 106.304,30.016 C106.304,30.6986701 106.224001,31.3013307 106.064,31.824 C105.903999,32.3466693 105.680001,32.7839982 105.392,33.136 C105.103999,33.4880018 104.768002,33.7546658 104.384,33.936 C103.999998,34.1173342 103.584002,34.208 103.136,34.208 C102.54933,34.208 102.045335,34.0640014 101.624,33.776 C101.202665,33.4879986 100.901334,33.1306688 100.72,32.704 L100.72,36.768 L99.392,36.768 L99.392,26.128 Z M100.72,30.112 C100.72,30.3360011 100.728,30.5413324 100.744,30.728 C100.76,30.9146676 100.778667,31.0719994 100.8,31.2 C100.842667,31.4560013 100.922666,31.7013322 101.04,31.936 C101.157334,32.1706678 101.301332,32.3759991 101.472,32.552 C101.642668,32.7280009 101.842666,32.8693328 102.072,32.976 C102.301334,33.0826672 102.554665,33.136 102.832,33.136 C103.194668,33.136 103.506665,33.0506675 103.768,32.88 C104.029335,32.7093325 104.245332,32.4800014 104.416,32.192 C104.586668,31.9039986 104.712,31.5760018 104.792,31.208 C104.872,30.8399982 104.912,30.4586686 104.912,30.064 C104.912,29.6693314 104.874667,29.2880018 104.8,28.92 C104.725333,28.5519982 104.605334,28.2266681 104.44,27.944 C104.274666,27.6613319 104.058668,27.4346675 103.792,27.264 C103.525332,27.0933325 103.205335,27.008 102.832,27.008 C102.543999,27.008 102.280001,27.0613328 102.04,27.168 C101.799999,27.2746672 101.594668,27.4186658 101.424,27.6 C101.253332,27.7813342 101.112001,27.9893322 101,28.224 C100.887999,28.4586678 100.816,28.7039987 100.784,28.96 C100.762667,29.0666672 100.746667,29.2133324 100.736,29.4 C100.725333,29.5866676 100.72,29.8026654 100.72,30.048 L100.72,30.112 Z M109.008,30.368 C109.061334,31.2746712 109.293331,31.9759975 109.704,32.472 C110.114669,32.9680025 110.687996,33.216 111.424,33.216 C112.352005,33.216 113.050664,32.778671 113.52,31.904 L114.528,32.464 C114.218665,32.9866693 113.808003,33.4133317 113.296,33.744 C112.783997,34.0746683 112.138671,34.24 111.36,34.24 C110.74133,34.24 110.200002,34.1333344 109.736,33.92 C109.271998,33.7066656 108.885335,33.4133352 108.576,33.04 C108.266665,32.6666648 108.034667,32.2293358 107.88,31.728 C107.725333,31.2266642 107.648,30.6880029 107.648,30.112 C107.648,29.5466638 107.722666,29.0080026 107.872,28.496 C108.021334,27.9839974 108.247998,27.5360019 108.552,27.152 C108.856002,26.7679981 109.229331,26.4640011 109.672,26.24 C110.114669,26.0159989 110.634664,25.904 111.232,25.904 C111.808003,25.904 112.309331,26.0133322 112.736,26.232 C113.162669,26.4506678 113.517332,26.7439982 113.8,27.112 C114.082668,27.4800018 114.295999,27.9066642 114.44,28.392 C114.584001,28.8773358 114.656,29.3919973 114.656,29.936 C114.656,30.0533339 114.653333,30.1439997 114.648,30.208 C114.642667,30.2720003 114.64,30.3253331 114.64,30.368 L109.008,30.368 Z M111.216,26.912 C110.543997,26.912 110.024002,27.1519976 109.656,27.632 C109.287998,28.1120024 109.077334,28.7573293 109.024,29.568 L113.296,29.568 C113.296,29.2373317 113.258667,28.9146682 113.184,28.6 C113.109333,28.2853318 112.986668,28.0026679 112.816,27.752 C112.645332,27.5013321 112.429335,27.2986674 112.168,27.144 C111.906665,26.9893326 111.589335,26.912 111.216,26.912 Z M121.568,32.464 C121.354666,32.997336 121.040002,33.4186651 120.624,33.728 C120.207998,34.0373349 119.69067,34.192 119.072,34.192 C118.581331,34.192 118.141335,34.0906677 117.752,33.888 C117.362665,33.6853323 117.032001,33.4026685 116.76,33.04 C116.487999,32.6773315 116.280001,32.2400026 116.136,31.728 C115.991999,31.2159974 115.92,30.6506698 115.92,30.032 C115.92,29.3919968 115.994666,28.8186692 116.144,28.312 C116.293334,27.8053308 116.506665,27.3760018 116.784,27.024 C117.061335,26.6719982 117.394665,26.400001 117.784,26.208 C118.173335,26.015999 118.602664,25.92 119.072,25.92 C119.712003,25.92 120.234665,26.0719985 120.64,26.376 C121.045335,26.6800015 121.333332,27.0453312 121.504,27.472 L121.504,22.704 L122.848,22.704 L122.848,34 L121.568,34 L121.568,32.464 Z M121.504,30.016 C121.504,29.6853317 121.496,29.4266676 121.48,29.24 C121.464,29.0533324 121.445333,28.9013339 121.424,28.784 C121.370666,28.5493322 121.290667,28.3253344 121.184,28.112 C121.077333,27.8986656 120.941334,27.7093342 120.776,27.544 C120.610666,27.3786658 120.416001,27.2480005 120.192,27.152 C119.967999,27.0559995 119.712001,27.008 119.424,27.008 C119.061332,27.008 118.749335,27.0879992 118.488,27.248 C118.226665,27.4080008 118.008001,27.6239986 117.832,27.896 C117.655999,28.1680014 117.525334,28.4879982 117.44,28.856 C117.354666,29.2240018 117.312,29.6159979 117.312,30.032 C117.312,30.4800022 117.36,30.8933314 117.456,31.272 C117.552,31.6506686 117.690666,31.9759986 117.872,32.248 C118.053334,32.5200014 118.277332,32.7333326 118.544,32.888 C118.810668,33.0426674 119.114665,33.12 119.456,33.12 C119.722668,33.12 119.965332,33.0720005 120.184,32.976 C120.402668,32.8799995 120.594666,32.7466675 120.76,32.576 C120.925334,32.4053325 121.061333,32.2106678 121.168,31.992 C121.274667,31.7733322 121.354666,31.5413346 121.408,31.296 C121.472,30.9973318 121.504,30.5973358 121.504,30.096 L121.504,30.016 Z M129.168,27.04 L127.824,27.04 L127.824,26.128 L128.112,26.128 C128.442668,26.128 128.701332,26.0933337 128.888,26.024 C129.074668,25.9546663 129.216,25.8480007 129.312,25.704 C129.408,25.5599993 129.477333,25.3706678 129.52,25.136 C129.562667,24.9013322 129.6,24.613335 129.632,24.272 L129.664,23.984 L130.496,23.984 L130.496,26.128 L132.192,26.128 L132.192,27.04 L130.496,27.04 L130.496,31.936 C130.496,32.3840022 130.562666,32.7066657 130.696,32.904 C130.829334,33.1013343 131.077332,33.2 131.44,33.2 C131.728001,33.2 131.994665,33.1360006 132.24,33.008 L132.384,33.968 C131.978665,34.1493342 131.530669,34.24 131.04,34.24 C130.655998,34.24 130.344001,34.1866672 130.104,34.08 C129.863999,33.9733328 129.674667,33.8293342 129.536,33.648 C129.397333,33.4666658 129.301334,33.2480013 129.248,32.992 C129.194666,32.7359987 129.168,32.4586682 129.168,32.16 L129.168,27.04 Z M134.8,30.368 C134.853334,31.2746712 135.085331,31.9759975 135.496,32.472 C135.906669,32.9680025 136.479996,33.216 137.216,33.216 C138.144005,33.216 138.842664,32.778671 139.312,31.904 L140.32,32.464 C140.010665,32.9866693 139.600003,33.4133317 139.088,33.744 C138.575997,34.0746683 137.930671,34.24 137.152,34.24 C136.53333,34.24 135.992002,34.1333344 135.528,33.92 C135.063998,33.7066656 134.677335,33.4133352 134.368,33.04 C134.058665,32.6666648 133.826667,32.2293358 133.672,31.728 C133.517333,31.2266642 133.44,30.6880029 133.44,30.112 C133.44,29.5466638 133.514666,29.0080026 133.664,28.496 C133.813334,27.9839974 134.039998,27.5360019 134.344,27.152 C134.648002,26.7679981 135.021331,26.4640011 135.464,26.24 C135.906669,26.0159989 136.426664,25.904 137.024,25.904 C137.600003,25.904 138.101331,26.0133322 138.528,26.232 C138.954669,26.4506678 139.309332,26.7439982 139.592,27.112 C139.874668,27.4800018 140.087999,27.9066642 140.232,28.392 C140.376001,28.8773358 140.448,29.3919973 140.448,29.936 C140.448,30.0533339 140.445333,30.1439997 140.44,30.208 C140.434667,30.2720003 140.432,30.3253331 140.432,30.368 L134.8,30.368 Z M137.008,26.912 C136.335997,26.912 135.816002,27.1519976 135.448,27.632 C135.079998,28.1120024 134.869334,28.7573293 134.816,29.568 L139.088,29.568 C139.088,29.2373317 139.050667,28.9146682 138.976,28.6 C138.901333,28.2853318 138.778668,28.0026679 138.608,27.752 C138.437332,27.5013321 138.221335,27.2986674 137.96,27.144 C137.698665,26.9893326 137.381335,26.912 137.008,26.912 Z M143.632,29.888 L141.28,26.128 L142.752,26.128 L144.576,29.12 L146.4,26.128 L147.856,26.128 L145.488,29.888 L148.16,34 L146.608,34 L144.576,30.672 L142.512,34 L140.976,34 L143.632,29.888 Z M150.256,27.04 L148.912,27.04 L148.912,26.128 L149.2,26.128 C149.530668,26.128 149.789332,26.0933337 149.976,26.024 C150.162668,25.9546663 150.304,25.8480007 150.4,25.704 C150.496,25.5599993 150.565333,25.3706678 150.608,25.136 C150.650667,24.9013322 150.688,24.613335 150.72,24.272 L150.752,23.984 L151.584,23.984 L151.584,26.128 L153.28,26.128 L153.28,27.04 L151.584,27.04 L151.584,31.936 C151.584,32.3840022 151.650666,32.7066657 151.784,32.904 C151.917334,33.1013343 152.165332,33.2 152.528,33.2 C152.816001,33.2 153.082665,33.1360006 153.328,33.008 L153.472,33.968 C153.066665,34.1493342 152.618669,34.24 152.128,34.24 C151.743998,34.24 151.432001,34.1866672 151.192,34.08 C150.951999,33.9733328 150.762667,33.8293342 150.624,33.648 C150.485333,33.4666658 150.389334,33.2480013 150.336,32.992 C150.282666,32.7359987 150.256,32.4586682 150.256,32.16 L150.256,27.04 Z" id="This-is-some-typed-t" fill="#000000"></path>
            </g>
        </g>
    </g>
</svg>