<?xml version="1.0" encoding="UTF-8"?>
<svg width="200px" height="43px" viewBox="0 0 200 43" version="1.1" xmlns="http://www.w3.org/2000/svg" xmlns:xlink="http://www.w3.org/1999/xlink">
    <!-- Generator: Sketch 47.1 (45422) - http://www.bohemiancoding.com/sketch -->
    <title>Warning field</title>
    <desc>Created with Sketch.</desc>
    <defs></defs>
    <g id="Page-1" stroke="none" stroke-width="1" fill="none" fill-rule="evenodd">
        <g id="Buttons-Usage-extra-large-1200" transform="translate(-304.000000, -1461.000000)">
            <g id="Warning-field" transform="translate(304.000000, 1461.000000)">
                <path d="M0.322,0.116 L1.666,0.116 C1.82466746,0.78800336 1.99266578,1.48099643 2.17,2.195 C2.34733422,2.90900357 2.52466578,3.62066312 2.702,4.33 C2.87933422,5.03933688 3.05199916,5.73466326 3.22,6.416 C3.38800084,7.09733674 3.5419993,7.73666368 3.682,8.334 C3.81266732,7.76466382 3.96666578,7.14167005 4.144,6.465 C4.32133422,5.78832995 4.50799902,5.09067026 4.704,4.372 C4.90000098,3.65332974 5.10066564,2.93000364 5.306,2.202 C5.51133436,1.47399636 5.7073324,0.77866998 5.894,0.116 L6.972,0.116 C7.17733436,0.85333702 7.38499895,1.58832967 7.595,2.321 C7.80500105,3.05367033 8.01033233,3.7699965 8.211,4.47 C8.41166767,5.1700035 8.60299909,5.84433009 8.785,6.493 C8.96700091,7.14166991 9.1279993,7.75066382 9.268,8.32 C9.51066788,7.1066606 9.79999832,5.82567341 10.136,4.477 C10.4720017,3.12832659 10.8313314,1.67467446 11.214,0.116 L12.544,0.116 L9.842,10 L8.638,10 C8.22733128,8.5533261 7.82133534,7.16034003 7.42,5.821 C7.01866466,4.48165997 6.66866816,3.21467264 6.37,2.02 C6.2299993,2.61733632 6.07366753,3.24966333 5.901,3.917 C5.72833247,4.58433667 5.54633429,5.26099657 5.355,5.947 C5.16366571,6.63300343 4.97000098,7.31899657 4.774,8.005 C4.57799902,8.69100343 4.39133422,9.35599678 4.214,10 L2.996,10 L0.322,0.116 Z M17.668,10 C17.5653328,9.66399832 17.5046668,9.262669 17.486,8.796 C17.2993324,9.22533548 17.0123353,9.56833205 16.625,9.825 C16.2376647,10.0816679 15.7780027,10.21 15.246,10.21 C14.5739966,10.21 14.042002,10.0186686 13.65,9.636 C13.257998,9.25333142 13.062,8.74000322 13.062,8.096 C13.062,7.73199818 13.1273327,7.42633457 13.258,7.179 C13.3886673,6.93166543 13.5706655,6.72633415 13.804,6.563 C14.0373345,6.39966585 14.3126651,6.2713338 14.63,6.178 C14.9473349,6.0846662 15.2926648,6.01000028 15.666,5.954 L17.43,5.688 L17.43,5.254 C17.43,4.94599846 17.392667,4.6986676 17.318,4.512 C17.243333,4.3253324 17.1406673,4.18066718 17.01,4.078 C16.8793327,3.97533282 16.7300008,3.90766683 16.562,3.875 C16.3939992,3.84233317 16.2166676,3.826 16.03,3.826 C15.4979973,3.826 15.0593351,3.92399902 14.714,4.12 C14.3686649,4.31600098 14.0793345,4.56333184 13.846,4.862 L13.244,4.106 C13.514668,3.7793317 13.8903309,3.4993345 14.371,3.266 C14.8516691,3.0326655 15.4466631,2.916 16.156,2.916 C17.014671,2.916 17.6376647,3.10733142 18.025,3.49 C18.4123353,3.87266858 18.606,4.48866242 18.606,5.338 L18.606,8.124 C18.606,8.34800112 18.6083333,8.54399916 18.613,8.712 C18.6176667,8.88000084 18.6269999,9.03633261 18.641,9.181 C18.6550001,9.32566739 18.6759999,9.46333268 18.704,9.594 C18.7320001,9.72466732 18.7693331,9.8599993 18.816,10 L17.668,10 Z M17.43,6.458 L15.778,6.724 C15.2086638,6.82666718 14.8050012,6.98066564 14.567,7.186 C14.3289988,7.39133436 14.21,7.67599818 14.21,8.04 C14.21,8.4133352 14.3196656,8.72599874 14.539,8.978 C14.7583344,9.23000126 15.0826645,9.356 15.512,9.356 C15.7733346,9.356 16.0206655,9.30466718 16.254,9.202 C16.4873345,9.09933282 16.6903325,8.95700091 16.863,8.775 C17.0356675,8.59299909 17.1733328,8.37366795 17.276,8.117 C17.3786672,7.86033205 17.43,7.57800154 17.43,7.27 L17.43,6.458 Z M20.468,3.112 L21.476,3.112 L21.588,4.652 C21.784001,4.14799748 22.0966645,3.7326683 22.526,3.406 C22.9553355,3.0793317 23.4639971,2.916 24.052,2.916 L24.052,4.148 C23.9213327,4.11999986 23.7766675,4.106 23.618,4.106 C23.3846655,4.106 23.1513345,4.14799958 22.918,4.232 C22.6846655,4.31600042 22.4723343,4.4513324 22.281,4.638 C22.0896657,4.8246676 21.9333339,5.06499853 21.812,5.359 C21.6906661,5.65300147 21.63,6.0099979 21.63,6.43 L21.63,10 L20.468,10 L20.468,3.112 Z M25.2,3.112 L26.208,3.112 L26.334,4.484 C26.5113342,4.0639979 26.7936647,3.69766823 27.181,3.385 C27.5683353,3.07233177 28.0466638,2.916 28.616,2.916 C29.3346703,2.916 29.8643316,3.14466438 30.205,3.602 C30.5456684,4.05933562 30.716,4.69866256 30.716,5.52 L30.716,10 L29.554,10 L29.554,5.758 C29.554,5.13266354 29.4280013,4.67300147 29.176,4.379 C28.9239987,4.08499853 28.5833355,3.938 28.154,3.938 C27.6406641,3.938 27.2136684,4.1479979 26.873,4.568 C26.5323316,4.9880021 26.362,5.58066284 26.362,6.346 L26.362,10 L25.2,10 L25.2,3.112 Z M32.48,0.438 L33.642,0.438 L33.642,1.6 L32.48,1.6 L32.48,0.438 Z M32.48,3.112 L33.642,3.112 L33.642,10 L32.48,10 L32.48,3.112 Z M35.434,3.112 L36.442,3.112 L36.568,4.484 C36.7453342,4.0639979 37.0276647,3.69766823 37.415,3.385 C37.8023353,3.07233177 38.2806638,2.916 38.85,2.916 C39.5686703,2.916 40.0983316,3.14466438 40.439,3.602 C40.7796684,4.05933562 40.95,4.69866256 40.95,5.52 L40.95,10 L39.788,10 L39.788,5.758 C39.788,5.13266354 39.6620013,4.67300147 39.41,4.379 C39.1579987,4.08499853 38.8173355,3.938 38.388,3.938 C37.8746641,3.938 37.4476684,4.1479979 37.107,4.568 C36.7663316,4.9880021 36.596,5.58066284 36.596,6.346 L36.596,10 L35.434,10 L35.434,3.112 Z M43.274,10.826 C43.544668,11.0873346 43.8689981,11.2949992 44.247,11.449 C44.6250019,11.6030008 45.0286645,11.68 45.458,11.68 C45.8126684,11.68 46.1019989,11.6263339 46.326,11.519 C46.5500011,11.4116661 46.7273327,11.2646676 46.858,11.078 C46.9886673,10.8913324 47.0796664,10.6790012 47.131,10.441 C47.1823336,10.2029988 47.208,9.94866802 47.208,9.678 L47.208,8.404 C47.0306658,8.8240021 46.7646684,9.16233205 46.41,9.419 C46.0553316,9.67566795 45.5980028,9.804 45.038,9.804 C44.6366647,9.804 44.2726683,9.72700077 43.946,9.573 C43.6193317,9.41899923 43.3393345,9.19733478 43.106,8.908 C42.8726655,8.61866522 42.6930006,8.2640021 42.567,7.844 C42.4409994,7.4239979 42.378,6.95266928 42.378,6.43 C42.378,5.9166641 42.4409994,5.44533548 42.567,5.016 C42.6930006,4.58666452 42.8749988,4.21800154 43.113,3.91 C43.3510012,3.60199846 43.6403316,3.36166753 43.981,3.189 C44.3216684,3.01633247 44.7019979,2.93 45.122,2.93 C45.6726694,2.93 46.1299982,3.06766529 46.494,3.343 C46.8580018,3.61833471 47.1193325,3.97066452 47.278,4.4 L47.474,3.112 L48.37,3.112 L48.37,9.65 C48.37,10.042002 48.3233338,10.4129982 48.23,10.763 C48.1366662,11.1130017 47.9780011,11.423332 47.754,11.694 C47.5299989,11.964668 47.2313352,12.1793325 46.858,12.338 C46.4846648,12.4966675 46.0180028,12.576 45.458,12.576 C44.8513303,12.576 44.3076691,12.4896675 43.827,12.317 C43.3463309,12.1443325 42.9426683,11.9273346 42.616,11.666 L43.274,10.826 Z M47.208,6.43 C47.208,6.27133254 47.2056667,6.11966739 47.201,5.975 C47.1963333,5.83033261 47.1846668,5.72066704 47.166,5.646 C47.1286665,5.42199888 47.0680004,5.20266774 46.984,4.988 C46.8999996,4.77333226 46.7856674,4.58666746 46.641,4.428 C46.4963326,4.26933254 46.319001,4.14100049 46.109,4.043 C45.8989989,3.94499951 45.6540014,3.896 45.374,3.896 C45.0659985,3.896 44.8000011,3.96133268 44.576,4.092 C44.3519989,4.22266732 44.1676674,4.39999888 44.023,4.624 C43.8783326,4.84800112 43.7710003,5.11399846 43.701,5.422 C43.6309996,5.73000154 43.596,6.05666494 43.596,6.402 C43.596,6.71000154 43.6286663,7.01566515 43.694,7.319 C43.7593337,7.62233485 43.8619993,7.8906655 44.002,8.124 C44.1420007,8.3573345 44.3263322,8.54633261 44.555,8.691 C44.7836678,8.83566739 45.0613317,8.908 45.388,8.908 C45.8453356,8.908 46.2139986,8.77966795 46.494,8.523 C46.7740014,8.26633205 46.9699994,7.94200196 47.082,7.55 C47.1286669,7.41933268 47.1613332,7.25600098 47.18,7.06 C47.1986668,6.86399902 47.208,6.67733422 47.208,6.5 L47.208,6.43 Z" id="Warning" fill="#EF6F00"></path>
                <path d="M1,42 L199,42" id="Line" stroke="#EF6F00" stroke-width="2" stroke-linecap="square"></path>
                <path d="M189,32.7421875 L189,31.2578125 C189,31.1848955 188.975261,31.1236982 188.925781,31.0742188 C188.876302,31.0247393 188.817709,31 188.75,31 L187.25,31 C187.182291,31 187.123698,31.0247393 187.074219,31.0742188 C187.024739,31.1236982 187,31.1848955 187,31.2578125 L187,32.7421875 C187,32.8151045 187.024739,32.8763018 187.074219,32.9257812 C187.123698,32.9752607 187.182291,33 187.25,33 L188.75,33 C188.817709,33 188.876302,32.9752607 188.925781,32.9257812 C188.975261,32.8763018 189,32.8151045 189,32.7421875 Z M188.984375,29.8203125 L189.125,26.234375 C189.125,26.1718747 189.098959,26.122396 189.046875,26.0859375 C188.979166,26.0286455 188.916667,26 188.859375,26 L187.140625,26 C187.083333,26 187.020834,26.0286455 186.953125,26.0859375 C186.901041,26.122396 186.875,26.177083 186.875,26.25 L187.007812,29.8203125 C187.007812,29.8723961 187.033854,29.9153644 187.085938,29.9492188 C187.138021,29.9830731 187.20052,30 187.273438,30 L188.71875,30 C188.791667,30 188.852864,29.9830731 188.902344,29.9492188 C188.951823,29.9153644 188.979167,29.8723961 188.984375,29.8203125 Z M188.875,22.5234375 L194.875,33.5234375 C195.057293,33.8515641 195.052084,34.1796859 194.859375,34.5078125 C194.770833,34.6588549 194.64974,34.7786454 194.496094,34.8671875 C194.342447,34.9557296 194.177084,35 194,35 L182,35 C181.822916,35 181.657553,34.9557296 181.503906,34.8671875 C181.35026,34.7786454 181.229167,34.6588549 181.140625,34.5078125 C180.947916,34.1796859 180.942707,33.8515641 181.125,33.5234375 L187.125,22.5234375 C187.213542,22.3619784 187.335937,22.2343755 187.492188,22.140625 C187.648438,22.0468745 187.817707,22 188,22 C188.182293,22 188.351562,22.0468745 188.507812,22.140625 C188.664063,22.2343755 188.786458,22.3619784 188.875,22.5234375 Z" id="exclamation-triangle---FontAwesome" fill="#EF6F00"></path>
                <path d="M3.696,22.824 L0.352,22.824 L0.352,21.704 L8.464,21.704 L8.464,22.824 L5.136,22.824 L5.136,33 L3.696,33 L3.696,22.824 Z M9.84,21.704 L11.168,21.704 L11.168,26.68 C11.2640005,26.4453322 11.3866659,26.2213344 11.536,26.008 C11.6853341,25.7946656 11.8666656,25.6053342 12.08,25.44 C12.2933344,25.2746658 12.5386653,25.1440005 12.816,25.048 C13.0933347,24.9519995 13.402665,24.904 13.744,24.904 C14.5653374,24.904 15.1706647,25.1733306 15.56,25.712 C15.9493353,26.2506694 16.144,26.9786621 16.144,27.896 L16.144,33 L14.816,33 L14.816,28.104 C14.816,27.4319966 14.6773347,26.9280017 14.4,26.592 C14.1226653,26.2559983 13.7280026,26.088 13.216,26.088 C12.9173318,26.088 12.6426679,26.1519994 12.392,26.28 C12.1413321,26.4080006 11.9253342,26.5893322 11.744,26.824 C11.5626658,27.0586678 11.4213338,27.3413317 11.32,27.672 C11.2186662,28.0026683 11.168,28.3653314 11.168,28.76 L11.168,33 L9.84,33 L9.84,21.704 Z M18.16,22.072 L19.488,22.072 L19.488,23.4 L18.16,23.4 L18.16,22.072 Z M18.16,25.128 L19.488,25.128 L19.488,33 L18.16,33 L18.16,25.128 Z M21.68,31.064 C21.946668,31.405335 22.2906646,31.6879989 22.712,31.912 C23.1333354,32.1360011 23.5946642,32.248 24.096,32.248 C24.5440022,32.248 24.9333317,32.1413344 25.264,31.928 C25.5946683,31.7146656 25.76,31.3946688 25.76,30.968 C25.76,30.6373317 25.6506678,30.3786676 25.432,30.192 C25.2133322,30.0053324 24.941335,29.8480006 24.616,29.72 C24.290665,29.5919994 23.9360019,29.4746672 23.552,29.368 C23.1679981,29.2613328 22.813335,29.1226675 22.488,28.952 C22.162665,28.7813325 21.8906678,28.5573347 21.672,28.28 C21.4533322,28.0026653 21.344,27.6240024 21.344,27.144 C21.344,26.7493314 21.4239992,26.4106681 21.584,26.128 C21.7440008,25.8453319 21.9546654,25.6133342 22.216,25.432 C22.4773346,25.2506658 22.778665,25.1173338 23.12,25.032 C23.461335,24.9466662 23.8186648,24.904 24.192,24.904 C25.3013389,24.904 26.2239963,25.2239968 26.96,25.864 L26.288,26.76 C26.0533322,26.5146654 25.7413353,26.3093342 25.352,26.144 C24.9626647,25.9786658 24.5600021,25.896 24.144,25.896 C23.9626658,25.896 23.7840009,25.9173331 23.608,25.96 C23.4319991,26.0026669 23.277334,26.0693329 23.144,26.16 C23.010666,26.2506671 22.9040004,26.3653326 22.824,26.504 C22.7439996,26.6426674 22.704,26.8133323 22.704,27.016 C22.704,27.3253349 22.8133322,27.5653325 23.032,27.736 C23.2506678,27.9066675 23.522665,28.0533327 23.848,28.176 C24.173335,28.2986673 24.5253314,28.4159994 24.904,28.528 C25.2826686,28.6400006 25.634665,28.7839991 25.96,28.96 C26.285335,29.1360009 26.5573322,29.3679986 26.776,29.656 C26.9946678,29.9440014 27.104,30.3279976 27.104,30.808 C27.104,31.2133354 27.0213342,31.5679985 26.856,31.872 C26.6906658,32.1760015 26.4720014,32.4293323 26.2,32.632 C25.9279986,32.8346677 25.6133351,32.9866662 25.256,33.088 C24.8986649,33.1893338 24.5280019,33.24 24.144,33.24 C22.8213267,33.24 21.7706706,32.8133376 20.992,31.96 L21.68,31.064 Z M32.256,22.072 L33.584,22.072 L33.584,23.4 L32.256,23.4 L32.256,22.072 Z M32.256,25.128 L33.584,25.128 L33.584,33 L32.256,33 L32.256,25.128 Z M35.776,31.064 C36.042668,31.405335 36.3866646,31.6879989 36.808,31.912 C37.2293354,32.1360011 37.6906642,32.248 38.192,32.248 C38.6400022,32.248 39.0293317,32.1413344 39.36,31.928 C39.6906683,31.7146656 39.856,31.3946688 39.856,30.968 C39.856,30.6373317 39.7466678,30.3786676 39.528,30.192 C39.3093322,30.0053324 39.037335,29.8480006 38.712,29.72 C38.386665,29.5919994 38.0320019,29.4746672 37.648,29.368 C37.2639981,29.2613328 36.909335,29.1226675 36.584,28.952 C36.258665,28.7813325 35.9866678,28.5573347 35.768,28.28 C35.5493322,28.0026653 35.44,27.6240024 35.44,27.144 C35.44,26.7493314 35.5199992,26.4106681 35.68,26.128 C35.8400008,25.8453319 36.0506654,25.6133342 36.312,25.432 C36.5733346,25.2506658 36.874665,25.1173338 37.216,25.032 C37.557335,24.9466662 37.9146648,24.904 38.288,24.904 C39.3973389,24.904 40.3199963,25.2239968 41.056,25.864 L40.384,26.76 C40.1493322,26.5146654 39.8373353,26.3093342 39.448,26.144 C39.0586647,25.9786658 38.6560021,25.896 38.24,25.896 C38.0586658,25.896 37.8800009,25.9173331 37.704,25.96 C37.5279991,26.0026669 37.373334,26.0693329 37.24,26.16 C37.106666,26.2506671 37.0000004,26.3653326 36.92,26.504 C36.8399996,26.6426674 36.8,26.8133323 36.8,27.016 C36.8,27.3253349 36.9093322,27.5653325 37.128,27.736 C37.3466678,27.9066675 37.618665,28.0533327 37.944,28.176 C38.269335,28.2986673 38.6213314,28.4159994 39,28.528 C39.3786686,28.6400006 39.730665,28.7839991 40.056,28.96 C40.381335,29.1360009 40.6533322,29.3679986 40.872,29.656 C41.0906678,29.9440014 41.2,30.3279976 41.2,30.808 C41.2,31.2133354 41.1173342,31.5679985 40.952,31.872 C40.7866658,32.1760015 40.5680014,32.4293323 40.296,32.632 C40.0239986,32.8346677 39.7093351,32.9866662 39.352,33.088 C38.9946649,33.1893338 38.6240019,33.24 38.24,33.24 C36.9173267,33.24 35.8666706,32.8133376 35.088,31.96 L35.776,31.064 Z M46.496,31.064 C46.762668,31.405335 47.1066646,31.6879989 47.528,31.912 C47.9493354,32.1360011 48.4106642,32.248 48.912,32.248 C49.3600022,32.248 49.7493317,32.1413344 50.08,31.928 C50.4106683,31.7146656 50.576,31.3946688 50.576,30.968 C50.576,30.6373317 50.4666678,30.3786676 50.248,30.192 C50.0293322,30.0053324 49.757335,29.8480006 49.432,29.72 C49.106665,29.5919994 48.7520019,29.4746672 48.368,29.368 C47.9839981,29.2613328 47.629335,29.1226675 47.304,28.952 C46.978665,28.7813325 46.7066678,28.5573347 46.488,28.28 C46.2693322,28.0026653 46.16,27.6240024 46.16,27.144 C46.16,26.7493314 46.2399992,26.4106681 46.4,26.128 C46.5600008,25.8453319 46.7706654,25.6133342 47.032,25.432 C47.2933346,25.2506658 47.594665,25.1173338 47.936,25.032 C48.277335,24.9466662 48.6346648,24.904 49.008,24.904 C50.1173389,24.904 51.0399963,25.2239968 51.776,25.864 L51.104,26.76 C50.8693322,26.5146654 50.5573353,26.3093342 50.168,26.144 C49.7786647,25.9786658 49.3760021,25.896 48.96,25.896 C48.7786658,25.896 48.6000009,25.9173331 48.424,25.96 C48.2479991,26.0026669 48.093334,26.0693329 47.96,26.16 C47.826666,26.2506671 47.7200004,26.3653326 47.64,26.504 C47.5599996,26.6426674 47.52,26.8133323 47.52,27.016 C47.52,27.3253349 47.6293322,27.5653325 47.848,27.736 C48.0666678,27.9066675 48.338665,28.0533327 48.664,28.176 C48.989335,28.2986673 49.3413314,28.4159994 49.72,28.528 C50.0986686,28.6400006 50.450665,28.7839991 50.776,28.96 C51.101335,29.1360009 51.3733322,29.3679986 51.592,29.656 C51.8106678,29.9440014 51.92,30.3279976 51.92,30.808 C51.92,31.2133354 51.8373342,31.5679985 51.672,31.872 C51.5066658,32.1760015 51.2880014,32.4293323 51.016,32.632 C50.7439986,32.8346677 50.4293351,32.9866662 50.072,33.088 C49.7146649,33.1893338 49.3440019,33.24 48.96,33.24 C47.6373267,33.24 46.5866706,32.8133376 45.808,31.96 L46.496,31.064 Z M56.736,33.24 C56.1386637,33.24 55.6133356,33.1306678 55.16,32.912 C54.7066644,32.6933322 54.3280015,32.3946686 54.024,32.016 C53.7199985,31.6373314 53.4933341,31.1946692 53.344,30.688 C53.1946659,30.1813308 53.12,29.6346696 53.12,29.048 C53.12,28.4613304 53.1973326,27.9173358 53.352,27.416 C53.5066674,26.9146642 53.7359985,26.4773352 54.04,26.104 C54.3440015,25.7306648 54.7226644,25.4373344 55.176,25.224 C55.6293356,25.0106656 56.1493304,24.904 56.736,24.904 C57.3226696,24.904 57.8426644,25.0106656 58.296,25.224 C58.7493356,25.4373344 59.1306651,25.7279982 59.44,26.096 C59.7493349,26.4640018 59.9813326,26.9013308 60.136,27.408 C60.2906674,27.9146692 60.368,28.4613304 60.368,29.048 C60.368,29.6346696 60.2906674,30.1813308 60.136,30.688 C59.9813326,31.1946692 59.7493349,31.6373314 59.44,32.016 C59.1306651,32.3946686 58.7493356,32.6933322 58.296,32.912 C57.8426644,33.1306678 57.3226696,33.24 56.736,33.24 Z M56.768,32.2 C57.1306685,32.2 57.4506653,32.1200008 57.728,31.96 C58.0053347,31.7999992 58.2346658,31.5786681 58.416,31.296 C58.5973342,31.0133319 58.7359995,30.6800019 58.832,30.296 C58.9280005,29.9119981 58.976,29.4960022 58.976,29.048 C58.976,28.5999978 58.9280005,28.1866686 58.832,27.808 C58.7359995,27.4293314 58.592001,27.1013347 58.4,26.824 C58.207999,26.5466653 57.9733347,26.3306674 57.696,26.176 C57.4186653,26.0213326 57.0986685,25.944 56.736,25.944 C56.3626648,25.944 56.0373347,26.0213326 55.76,26.176 C55.4826653,26.3306674 55.2533342,26.5466653 55.072,26.824 C54.8906658,27.1013347 54.7520005,27.4293314 54.656,27.808 C54.5599995,28.1866686 54.512,28.5999978 54.512,29.048 C54.512,29.4960022 54.5599995,29.9119981 54.656,30.296 C54.7520005,30.6800019 54.8933324,31.0133319 55.08,31.296 C55.2666676,31.5786681 55.5013319,31.7999992 55.784,31.96 C56.0666681,32.1200008 56.3946648,32.2 56.768,32.2 Z M62.064,25.128 L63.216,25.128 L63.36,26.664 C63.552001,26.1199973 63.8506646,25.6906682 64.256,25.376 C64.6613354,25.0613318 65.1573304,24.904 65.744,24.904 C66.3626698,24.904 66.8479982,25.0799982 67.2,25.432 C67.5520018,25.7840018 67.7759995,26.2106642 67.872,26.712 C67.9680005,26.4666654 68.0879993,26.2346678 68.232,26.016 C68.3760007,25.7973322 68.5493323,25.6053342 68.752,25.44 C68.9546677,25.2746658 69.189332,25.1440005 69.456,25.048 C69.722668,24.9519995 70.026665,24.904 70.368,24.904 C70.8160022,24.904 71.1866652,24.9813326 71.48,25.136 C71.7733348,25.2906674 72.0079991,25.501332 72.184,25.768 C72.3600009,26.034668 72.485333,26.3466649 72.56,26.704 C72.634667,27.0613351 72.672,27.4373314 72.672,27.832 L72.672,33 L71.344,33 L71.344,28.168 C71.344,27.4639965 71.2186679,26.9386684 70.968,26.592 C70.7173321,26.2453316 70.3520024,26.072 69.872,26.072 C69.3493307,26.072 68.9120018,26.3039977 68.56,26.768 C68.2079982,27.2320023 68.032,27.8959957 68.032,28.76 L68.032,33 L66.704,33 L66.704,28.232 C66.704,27.4959963 66.5760013,26.9520018 66.32,26.6 C66.0639987,26.2479982 65.706669,26.072 65.248,26.072 C64.7359974,26.072 64.2986685,26.309331 63.936,26.784 C63.5733315,27.258669 63.392,27.9439955 63.392,28.84 L63.392,33 L62.064,33 L62.064,25.128 Z M75.696,29.368 C75.7493336,30.2746712 75.9813313,30.9759975 76.392,31.472 C76.8026687,31.9680025 77.3759963,32.216 78.112,32.216 C79.0400046,32.216 79.7386643,31.778671 80.208,30.904 L81.216,31.464 C80.9066651,31.9866693 80.4960026,32.4133317 79.984,32.744 C79.4719974,33.0746683 78.8266706,33.24 78.048,33.24 C77.4293302,33.24 76.8880023,33.1333344 76.424,32.92 C75.9599977,32.7066656 75.5733349,32.4133352 75.264,32.04 C74.9546651,31.6666648 74.7226674,31.2293358 74.568,30.728 C74.4133326,30.2266642 74.336,29.6880029 74.336,29.112 C74.336,28.5466638 74.4106659,28.0080026 74.56,27.496 C74.7093341,26.9839974 74.9359985,26.5360019 75.24,26.152 C75.5440015,25.7679981 75.9173311,25.4640011 76.36,25.24 C76.8026689,25.0159989 77.3226637,24.904 77.92,24.904 C78.4960029,24.904 78.9973312,25.0133322 79.424,25.232 C79.8506688,25.4506678 80.2053319,25.7439982 80.488,26.112 C80.7706681,26.4800018 80.9839993,26.9066642 81.128,27.392 C81.2720007,27.8773358 81.344,28.3919973 81.344,28.936 C81.344,29.0533339 81.3413334,29.1439997 81.336,29.208 C81.3306666,29.2720003 81.328,29.3253331 81.328,29.368 L75.696,29.368 Z M77.904,25.912 C77.2319966,25.912 76.7120018,26.1519976 76.344,26.632 C75.9759982,27.1120024 75.7653336,27.7573293 75.712,28.568 L79.984,28.568 C79.984,28.2373317 79.946667,27.9146682 79.872,27.6 C79.797333,27.2853318 79.6746675,27.0026679 79.504,26.752 C79.3333325,26.5013321 79.1173346,26.2986674 78.856,26.144 C78.5946654,25.9893326 78.2773352,25.912 77.904,25.912 Z M87.248,26.04 L85.904,26.04 L85.904,25.128 L86.192,25.128 C86.5226683,25.128 86.7813324,25.0933337 86.968,25.024 C87.1546676,24.9546663 87.2959995,24.8480007 87.392,24.704 C87.4880005,24.5599993 87.5573331,24.3706678 87.6,24.136 C87.6426669,23.9013322 87.6799998,23.613335 87.712,23.272 L87.744,22.984 L88.576,22.984 L88.576,25.128 L90.272,25.128 L90.272,26.04 L88.576,26.04 L88.576,30.936 C88.576,31.3840022 88.642666,31.7066657 88.776,31.904 C88.909334,32.1013343 89.1573315,32.2 89.52,32.2 C89.8080014,32.2 90.0746654,32.1360006 90.32,32.008 L90.464,32.968 C90.0586646,33.1493342 89.6106691,33.24 89.12,33.24 C88.7359981,33.24 88.4240012,33.1866672 88.184,33.08 C87.9439988,32.9733328 87.7546674,32.8293342 87.616,32.648 C87.4773326,32.4666658 87.3813336,32.2480013 87.328,31.992 C87.2746664,31.7359987 87.248,31.4586682 87.248,31.16 L87.248,26.04 Z M91.696,34.68 C91.8133339,34.7226669 91.9466659,34.7599998 92.096,34.792 C92.2453341,34.8240002 92.3999992,34.84 92.56,34.84 C92.7306675,34.84 92.8773327,34.8160002 93,34.768 C93.1226673,34.7199998 93.2346662,34.6320006 93.336,34.504 C93.4373338,34.3759994 93.5333329,34.2053344 93.624,33.992 C93.7146671,33.7786656 93.8133328,33.501335 93.92,33.16 L91.248,25.128 L92.688,25.128 L94.608,31.64 L96.512,25.128 L97.952,25.128 L95.536,32.376 C95.3333323,32.9946698 95.1493342,33.5226645 94.984,33.96 C94.8186658,34.3973355 94.6346677,34.7573319 94.432,35.04 C94.2293323,35.3226681 93.9813348,35.530666 93.688,35.664 C93.3946652,35.797334 93.018669,35.864 92.56,35.864 C92.3786658,35.864 92.184001,35.8560001 91.976,35.84 C91.767999,35.8239999 91.6053339,35.7946669 91.488,35.752 L91.696,34.68 Z M99.392,25.128 L100.72,25.128 L100.72,26.648 C100.816,26.4239989 100.938666,26.2053344 101.088,25.992 C101.237334,25.7786656 101.415999,25.5920008 101.624,25.432 C101.832001,25.2719992 102.074665,25.1440005 102.352,25.048 C102.629335,24.9519995 102.943998,24.904 103.296,24.904 C103.808003,24.904 104.253331,25.0106656 104.632,25.224 C105.010669,25.4373344 105.322665,25.7306648 105.568,26.104 C105.813335,26.4773352 105.997333,26.9119975 106.12,27.408 C106.242667,27.9040025 106.304,28.4399971 106.304,29.016 C106.304,29.6986701 106.224001,30.3013307 106.064,30.824 C105.903999,31.3466693 105.680001,31.7839982 105.392,32.136 C105.103999,32.4880018 104.768002,32.7546658 104.384,32.936 C103.999998,33.1173342 103.584002,33.208 103.136,33.208 C102.54933,33.208 102.045335,33.0640014 101.624,32.776 C101.202665,32.4879986 100.901334,32.1306688 100.72,31.704 L100.72,35.768 L99.392,35.768 L99.392,25.128 Z M100.72,29.112 C100.72,29.3360011 100.728,29.5413324 100.744,29.728 C100.76,29.9146676 100.778667,30.0719994 100.8,30.2 C100.842667,30.4560013 100.922666,30.7013322 101.04,30.936 C101.157334,31.1706678 101.301332,31.3759991 101.472,31.552 C101.642668,31.7280009 101.842666,31.8693328 102.072,31.976 C102.301334,32.0826672 102.554665,32.136 102.832,32.136 C103.194668,32.136 103.506665,32.0506675 103.768,31.88 C104.029335,31.7093325 104.245332,31.4800014 104.416,31.192 C104.586668,30.9039986 104.712,30.5760018 104.792,30.208 C104.872,29.8399982 104.912,29.4586686 104.912,29.064 C104.912,28.6693314 104.874667,28.2880018 104.8,27.92 C104.725333,27.5519982 104.605334,27.2266681 104.44,26.944 C104.274666,26.6613319 104.058668,26.4346675 103.792,26.264 C103.525332,26.0933325 103.205335,26.008 102.832,26.008 C102.543999,26.008 102.280001,26.0613328 102.04,26.168 C101.799999,26.2746672 101.594668,26.4186658 101.424,26.6 C101.253332,26.7813342 101.112001,26.9893322 101,27.224 C100.887999,27.4586678 100.816,27.7039987 100.784,27.96 C100.762667,28.0666672 100.746667,28.2133324 100.736,28.4 C100.725333,28.5866676 100.72,28.8026654 100.72,29.048 L100.72,29.112 Z M109.008,29.368 C109.061334,30.2746712 109.293331,30.9759975 109.704,31.472 C110.114669,31.9680025 110.687996,32.216 111.424,32.216 C112.352005,32.216 113.050664,31.778671 113.52,30.904 L114.528,31.464 C114.218665,31.9866693 113.808003,32.4133317 113.296,32.744 C112.783997,33.0746683 112.138671,33.24 111.36,33.24 C110.74133,33.24 110.200002,33.1333344 109.736,32.92 C109.271998,32.7066656 108.885335,32.4133352 108.576,32.04 C108.266665,31.6666648 108.034667,31.2293358 107.88,30.728 C107.725333,30.2266642 107.648,29.6880029 107.648,29.112 C107.648,28.5466638 107.722666,28.0080026 107.872,27.496 C108.021334,26.9839974 108.247998,26.5360019 108.552,26.152 C108.856002,25.7679981 109.229331,25.4640011 109.672,25.24 C110.114669,25.0159989 110.634664,24.904 111.232,24.904 C111.808003,24.904 112.309331,25.0133322 112.736,25.232 C113.162669,25.4506678 113.517332,25.7439982 113.8,26.112 C114.082668,26.4800018 114.295999,26.9066642 114.44,27.392 C114.584001,27.8773358 114.656,28.3919973 114.656,28.936 C114.656,29.0533339 114.653333,29.1439997 114.648,29.208 C114.642667,29.2720003 114.64,29.3253331 114.64,29.368 L109.008,29.368 Z M111.216,25.912 C110.543997,25.912 110.024002,26.1519976 109.656,26.632 C109.287998,27.1120024 109.077334,27.7573293 109.024,28.568 L113.296,28.568 C113.296,28.2373317 113.258667,27.9146682 113.184,27.6 C113.109333,27.2853318 112.986668,27.0026679 112.816,26.752 C112.645332,26.5013321 112.429335,26.2986674 112.168,26.144 C111.906665,25.9893326 111.589335,25.912 111.216,25.912 Z M121.568,31.464 C121.354666,31.997336 121.040002,32.4186651 120.624,32.728 C120.207998,33.0373349 119.69067,33.192 119.072,33.192 C118.581331,33.192 118.141335,33.0906677 117.752,32.888 C117.362665,32.6853323 117.032001,32.4026685 116.76,32.04 C116.487999,31.6773315 116.280001,31.2400026 116.136,30.728 C115.991999,30.2159974 115.92,29.6506698 115.92,29.032 C115.92,28.3919968 115.994666,27.8186692 116.144,27.312 C116.293334,26.8053308 116.506665,26.3760018 116.784,26.024 C117.061335,25.6719982 117.394665,25.400001 117.784,25.208 C118.173335,25.015999 118.602664,24.92 119.072,24.92 C119.712003,24.92 120.234665,25.0719985 120.64,25.376 C121.045335,25.6800015 121.333332,26.0453312 121.504,26.472 L121.504,21.704 L122.848,21.704 L122.848,33 L121.568,33 L121.568,31.464 Z M121.504,29.016 C121.504,28.6853317 121.496,28.4266676 121.48,28.24 C121.464,28.0533324 121.445333,27.9013339 121.424,27.784 C121.370666,27.5493322 121.290667,27.3253344 121.184,27.112 C121.077333,26.8986656 120.941334,26.7093342 120.776,26.544 C120.610666,26.3786658 120.416001,26.2480005 120.192,26.152 C119.967999,26.0559995 119.712001,26.008 119.424,26.008 C119.061332,26.008 118.749335,26.0879992 118.488,26.248 C118.226665,26.4080008 118.008001,26.6239986 117.832,26.896 C117.655999,27.1680014 117.525334,27.4879982 117.44,27.856 C117.354666,28.2240018 117.312,28.6159979 117.312,29.032 C117.312,29.4800022 117.36,29.8933314 117.456,30.272 C117.552,30.6506686 117.690666,30.9759986 117.872,31.248 C118.053334,31.5200014 118.277332,31.7333326 118.544,31.888 C118.810668,32.0426674 119.114665,32.12 119.456,32.12 C119.722668,32.12 119.965332,32.0720005 120.184,31.976 C120.402668,31.8799995 120.594666,31.7466675 120.76,31.576 C120.925334,31.4053325 121.061333,31.2106678 121.168,30.992 C121.274667,30.7733322 121.354666,30.5413346 121.408,30.296 C121.472,29.9973318 121.504,29.5973358 121.504,29.096 L121.504,29.016 Z M129.168,26.04 L127.824,26.04 L127.824,25.128 L128.112,25.128 C128.442668,25.128 128.701332,25.0933337 128.888,25.024 C129.074668,24.9546663 129.216,24.8480007 129.312,24.704 C129.408,24.5599993 129.477333,24.3706678 129.52,24.136 C129.562667,23.9013322 129.6,23.613335 129.632,23.272 L129.664,22.984 L130.496,22.984 L130.496,25.128 L132.192,25.128 L132.192,26.04 L130.496,26.04 L130.496,30.936 C130.496,31.3840022 130.562666,31.7066657 130.696,31.904 C130.829334,32.1013343 131.077332,32.2 131.44,32.2 C131.728001,32.2 131.994665,32.1360006 132.24,32.008 L132.384,32.968 C131.978665,33.1493342 131.530669,33.24 131.04,33.24 C130.655998,33.24 130.344001,33.1866672 130.104,33.08 C129.863999,32.9733328 129.674667,32.8293342 129.536,32.648 C129.397333,32.4666658 129.301334,32.2480013 129.248,31.992 C129.194666,31.7359987 129.168,31.4586682 129.168,31.16 L129.168,26.04 Z M134.8,29.368 C134.853334,30.2746712 135.085331,30.9759975 135.496,31.472 C135.906669,31.9680025 136.479996,32.216 137.216,32.216 C138.144005,32.216 138.842664,31.778671 139.312,30.904 L140.32,31.464 C140.010665,31.9866693 139.600003,32.4133317 139.088,32.744 C138.575997,33.0746683 137.930671,33.24 137.152,33.24 C136.53333,33.24 135.992002,33.1333344 135.528,32.92 C135.063998,32.7066656 134.677335,32.4133352 134.368,32.04 C134.058665,31.6666648 133.826667,31.2293358 133.672,30.728 C133.517333,30.2266642 133.44,29.6880029 133.44,29.112 C133.44,28.5466638 133.514666,28.0080026 133.664,27.496 C133.813334,26.9839974 134.039998,26.5360019 134.344,26.152 C134.648002,25.7679981 135.021331,25.4640011 135.464,25.24 C135.906669,25.0159989 136.426664,24.904 137.024,24.904 C137.600003,24.904 138.101331,25.0133322 138.528,25.232 C138.954669,25.4506678 139.309332,25.7439982 139.592,26.112 C139.874668,26.4800018 140.087999,26.9066642 140.232,27.392 C140.376001,27.8773358 140.448,28.3919973 140.448,28.936 C140.448,29.0533339 140.445333,29.1439997 140.44,29.208 C140.434667,29.2720003 140.432,29.3253331 140.432,29.368 L134.8,29.368 Z M137.008,25.912 C136.335997,25.912 135.816002,26.1519976 135.448,26.632 C135.079998,27.1120024 134.869334,27.7573293 134.816,28.568 L139.088,28.568 C139.088,28.2373317 139.050667,27.9146682 138.976,27.6 C138.901333,27.2853318 138.778668,27.0026679 138.608,26.752 C138.437332,26.5013321 138.221335,26.2986674 137.96,26.144 C137.698665,25.9893326 137.381335,25.912 137.008,25.912 Z M143.632,28.888 L141.28,25.128 L142.752,25.128 L144.576,28.12 L146.4,25.128 L147.856,25.128 L145.488,28.888 L148.16,33 L146.608,33 L144.576,29.672 L142.512,33 L140.976,33 L143.632,28.888 Z M150.256,26.04 L148.912,26.04 L148.912,25.128 L149.2,25.128 C149.530668,25.128 149.789332,25.0933337 149.976,25.024 C150.162668,24.9546663 150.304,24.8480007 150.4,24.704 C150.496,24.5599993 150.565333,24.3706678 150.608,24.136 C150.650667,23.9013322 150.688,23.613335 150.72,23.272 L150.752,22.984 L151.584,22.984 L151.584,25.128 L153.28,25.128 L153.28,26.04 L151.584,26.04 L151.584,30.936 C151.584,31.3840022 151.650666,31.7066657 151.784,31.904 C151.917334,32.1013343 152.165332,32.2 152.528,32.2 C152.816001,32.2 153.082665,32.1360006 153.328,32.008 L153.472,32.968 C153.066665,33.1493342 152.618669,33.24 152.128,33.24 C151.743998,33.24 151.432001,33.1866672 151.192,33.08 C150.951999,32.9733328 150.762667,32.8293342 150.624,32.648 C150.485333,32.4666658 150.389334,32.2480013 150.336,31.992 C150.282666,31.7359987 150.256,31.4586682 150.256,31.16 L150.256,26.04 Z" id="This-is-some-typed-t" fill="#000000"></path>
            </g>
        </g>
    </g>
</svg>