<?xml version="1.0" encoding="UTF-8"?>
<svg width="197px" height="26px" viewBox="0 0 197 26" version="1.1" xmlns="http://www.w3.org/2000/svg" xmlns:xlink="http://www.w3.org/1999/xlink">
    <!-- Generator: Sketch 47 (45396) - http://www.bohemiancoding.com/sketch -->
    <title>DescriptiveLabel</title>
    <desc>Created with Sketch.</desc>
    <defs></defs>
    <g id="Page-1" stroke="none" stroke-width="1" fill="none" fill-rule="evenodd">
        <g id="Buttons-Usage-extra-large-1200" transform="translate(-415.000000, -1611.000000)">
            <g id="DescriptiveLabel" transform="translate(415.000000, 1612.000000)">
                <path d="M0.98,6.116 L2.45,6.116 C3.31800434,7.61867418 4.14399608,9.04199328 4.928,10.386 C5.71200392,11.7300067 6.45866312,13.0413269 7.168,14.32 C7.13066648,12.919993 7.11433331,11.5456734 7.119,10.197 C7.12366669,8.84832659 7.12133338,7.48800686 7.112,6.116 L8.302,6.116 L8.302,16 L6.846,16 C6.44466466,15.3093299 6.03633541,14.6046703 5.621,13.886 C5.20566459,13.1673297 4.79266872,12.4556702 4.382,11.751 C3.97133128,11.0463298 3.57466858,10.3580034 3.192,9.686 C2.80933142,9.01399664 2.4546683,8.38400294 2.128,7.796 C2.15600014,9.20534038 2.17,10.5819933 2.17,11.926 C2.17,13.2700067 2.17466662,14.6279931 2.184,16 L0.98,16 L0.98,6.116 Z M13.048,16.21 C12.5253307,16.21 12.0656687,16.1143343 11.669,15.923 C11.2723314,15.7316657 10.9410013,15.470335 10.675,15.139 C10.4089987,14.807665 10.2106673,14.4203355 10.08,13.977 C9.94933268,13.5336644 9.884,13.0553359 9.884,12.542 C9.884,12.0286641 9.95166599,11.5526689 10.087,11.114 C10.222334,10.6753311 10.4229987,10.2926683 10.689,9.966 C10.9550013,9.6393317 11.2863314,9.3826676 11.683,9.196 C12.0796687,9.0093324 12.5346641,8.916 13.048,8.916 C13.5613359,8.916 14.0163313,9.0093324 14.413,9.196 C14.8096687,9.3826676 15.143332,9.63699839 15.414,9.959 C15.684668,10.2810016 15.887666,10.6636644 16.023,11.107 C16.158334,11.5503355 16.226,12.0286641 16.226,12.542 C16.226,13.0553359 16.158334,13.5336644 16.023,13.977 C15.887666,14.4203355 15.684668,14.807665 15.414,15.139 C15.143332,15.470335 14.8096687,15.7316657 14.413,15.923 C14.0163313,16.1143343 13.5613359,16.21 13.048,16.21 Z M13.076,15.3 C13.3933349,15.3 13.6733321,15.2300007 13.916,15.09 C14.1586679,14.9499993 14.3593325,14.7563346 14.518,14.509 C14.6766675,14.2616654 14.7979996,13.9700017 14.882,13.634 C14.9660004,13.2979983 15.008,12.934002 15.008,12.542 C15.008,12.149998 14.9660004,11.788335 14.882,11.457 C14.7979996,11.125665 14.6720008,10.8386679 14.504,10.596 C14.3359992,10.3533321 14.1306679,10.164334 13.888,10.029 C13.6453321,9.89366599 13.3653349,9.826 13.048,9.826 C12.7213317,9.826 12.4366679,9.89366599 12.194,10.029 C11.9513321,10.164334 11.7506675,10.3533321 11.592,10.596 C11.4333325,10.8386679 11.3120004,11.125665 11.228,11.457 C11.1439996,11.788335 11.102,12.149998 11.102,12.542 C11.102,12.934002 11.1439996,13.2979983 11.228,13.634 C11.3120004,13.9700017 11.4356658,14.2616654 11.599,14.509 C11.7623341,14.7563346 11.9676654,14.9499993 12.215,15.09 C12.4623346,15.2300007 12.7493317,15.3 13.076,15.3 Z M18.312,9.91 L17.136,9.91 L17.136,9.112 L17.388,9.112 C17.6773348,9.112 17.9036658,9.08166697 18.067,9.021 C18.2303342,8.96033303 18.3539996,8.86700063 18.438,8.741 C18.5220004,8.61499937 18.5826665,8.44933436 18.62,8.244 C18.6573335,8.03866564 18.6899999,7.78666816 18.718,7.488 L18.746,7.236 L19.474,7.236 L19.474,9.112 L20.958,9.112 L20.958,9.91 L19.474,9.91 L19.474,14.194 C19.474,14.586002 19.5323328,14.8683325 19.649,15.041 C19.7656672,15.2136675 19.9826651,15.3 20.3,15.3 C20.5520013,15.3 20.7853323,15.2440006 21,15.132 L21.126,15.972 C20.7713316,16.1306675 20.3793355,16.21 19.95,16.21 C19.6139983,16.21 19.3410011,16.1633338 19.131,16.07 C18.9209989,15.9766662 18.7553339,15.8506675 18.634,15.692 C18.5126661,15.5333325 18.4286669,15.3420011 18.382,15.118 C18.3353331,14.8939989 18.312,14.6513346 18.312,14.39 L18.312,9.91 Z M22.358,6.438 L23.52,6.438 L23.52,7.6 L22.358,7.6 L22.358,6.438 Z M22.358,9.112 L23.52,9.112 L23.52,16 L22.358,16 L22.358,9.112 Z M25.9,9.91 L24.71,9.91 L24.71,9.112 L25.844,9.112 C25.769333,8.86933212 25.7063336,8.61033471 25.655,8.335 C25.6036664,8.05966529 25.578,7.80066788 25.578,7.558 C25.578,7.33399888 25.6036664,7.12166767 25.655,6.921 C25.7063336,6.72033233 25.7973327,6.54300077 25.928,6.389 C26.0586673,6.23499923 26.2359989,6.1113338 26.46,6.018 C26.6840011,5.9246662 26.9686649,5.878 27.314,5.878 C27.5660013,5.878 27.7923323,5.89433317 27.993,5.927 C28.1936677,5.95966683 28.3826658,6.01333296 28.56,6.088 L28.364,6.97 C28.2613328,6.9233331 28.1330008,6.88366683 27.979,6.851 C27.8249992,6.81833317 27.6826673,6.802 27.552,6.802 C27.0199973,6.802 26.754,7.10999692 26.754,7.726 C26.754,7.96866788 26.784333,8.22066536 26.845,8.482 C26.905667,8.74333464 26.9686663,8.95333254 27.034,9.112 L28.364,9.112 L28.364,9.91 L27.076,9.91 L27.076,16 L25.9,16 L25.9,9.91 Z M29.386,17.47 C29.4886672,17.5073335 29.6053327,17.5399999 29.736,17.568 C29.8666673,17.5960001 30.0019993,17.61 30.142,17.61 C30.2913341,17.61 30.4196661,17.5890002 30.527,17.547 C30.6343339,17.5049998 30.7323329,17.4280006 30.821,17.316 C30.9096671,17.2039994 30.9936663,17.0546676 31.073,16.868 C31.1523337,16.6813324 31.2386662,16.4386682 31.332,16.14 L28.994,9.112 L30.254,9.112 L31.934,14.81 L33.6,9.112 L34.86,9.112 L32.746,15.454 C32.5686658,15.995336 32.4076674,16.4573314 32.263,16.84 C32.1183326,17.2226686 31.9573342,17.5376654 31.78,17.785 C31.6026658,18.0323346 31.385668,18.2143328 31.129,18.331 C30.8723321,18.4476673 30.5433353,18.506 30.142,18.506 C29.9833325,18.506 29.8130009,18.4990001 29.631,18.485 C29.4489991,18.4709999 29.3066672,18.4453335 29.204,18.408 L29.386,17.47 Z M43.596,16 C43.4933328,15.6639983 43.4326668,15.262669 43.414,14.796 C43.2273324,15.2253355 42.9403353,15.568332 42.553,15.825 C42.1656647,16.0816679 41.7060027,16.21 41.174,16.21 C40.5019966,16.21 39.970002,16.0186686 39.578,15.636 C39.185998,15.2533314 38.99,14.7400032 38.99,14.096 C38.99,13.7319982 39.0553327,13.4263346 39.186,13.179 C39.3166673,12.9316654 39.4986655,12.7263341 39.732,12.563 C39.9653345,12.3996658 40.2406651,12.2713338 40.558,12.178 C40.8753349,12.0846662 41.2206648,12.0100003 41.594,11.954 L43.358,11.688 L43.358,11.254 C43.358,10.9459985 43.320667,10.6986676 43.246,10.512 C43.171333,10.3253324 43.0686673,10.1806672 42.938,10.078 C42.8073327,9.97533282 42.6580008,9.90766683 42.49,9.875 C42.3219992,9.84233317 42.1446676,9.826 41.958,9.826 C41.4259973,9.826 40.9873351,9.92399902 40.642,10.12 C40.2966649,10.316001 40.0073345,10.5633318 39.774,10.862 L39.172,10.106 C39.442668,9.7793317 39.8183309,9.4993345 40.299,9.266 C40.7796691,9.0326655 41.3746631,8.916 42.084,8.916 C42.942671,8.916 43.5656647,9.10733142 43.953,9.49 C44.3403353,9.87266858 44.534,10.4886624 44.534,11.338 L44.534,14.124 C44.534,14.3480011 44.5363333,14.5439992 44.541,14.712 C44.5456667,14.8800008 44.5549999,15.0363326 44.569,15.181 C44.5830001,15.3256674 44.6039999,15.4633327 44.632,15.594 C44.6600001,15.7246673 44.6973331,15.8599993 44.744,16 L43.596,16 Z M43.358,12.458 L41.706,12.724 C41.1366638,12.8266672 40.7330012,12.9806656 40.495,13.186 C40.2569988,13.3913344 40.138,13.6759982 40.138,14.04 C40.138,14.4133352 40.2476656,14.7259987 40.467,14.978 C40.6863344,15.2300013 41.0106645,15.356 41.44,15.356 C41.7013346,15.356 41.9486655,15.3046672 42.182,15.202 C42.4153345,15.0993328 42.6183325,14.9570009 42.791,14.775 C42.9636675,14.5929991 43.1013328,14.3736679 43.204,14.117 C43.3066672,13.8603321 43.358,13.5780015 43.358,13.27 L43.358,12.458 Z M46.396,6.116 L47.558,6.116 L47.558,10.33 C47.7446676,9.93799804 48.0223315,9.60433471 48.391,9.329 C48.7596685,9.05366529 49.2193306,8.916 49.77,8.916 C50.1713353,8.916 50.537665,8.99999916 50.869,9.168 C51.200335,9.33600084 51.4826655,9.57633177 51.716,9.889 C51.9493345,10.2016682 52.1289994,10.5773311 52.255,11.016 C52.3810006,11.4546689 52.444,11.944664 52.444,12.486 C52.444,13.0180027 52.3810006,13.5103311 52.255,13.963 C52.1289994,14.4156689 51.9493345,14.8053317 51.716,15.132 C51.4826655,15.4586683 51.1956684,15.7153324 50.855,15.902 C50.5143316,16.0886676 50.1293355,16.182 49.7,16.182 C49.1959975,16.182 48.748002,16.0536679 48.356,15.797 C47.963998,15.540332 47.670001,15.1740024 47.474,14.698 L47.334,16 L46.396,16 L46.396,6.116 Z M47.558,12.584 C47.558,12.7893344 47.5649999,12.9736658 47.579,13.137 C47.5930001,13.3003342 47.6093332,13.4379994 47.628,13.55 C47.6653335,13.7740011 47.7353328,13.9886656 47.838,14.194 C47.9406672,14.3993344 48.0666659,14.5789992 48.216,14.733 C48.3653341,14.8870008 48.5403323,15.0106662 48.741,15.104 C48.9416677,15.1973338 49.1633321,15.244 49.406,15.244 C49.7233349,15.244 49.9963322,15.1670008 50.225,15.013 C50.4536678,14.8589992 50.6426659,14.6560013 50.792,14.404 C50.9413341,14.1519987 51.0509996,13.8650016 51.121,13.543 C51.1910003,13.2209984 51.226,12.8920017 51.226,12.556 C51.226,12.2106649 51.188667,11.8770016 51.114,11.555 C51.039333,11.2329984 50.9273341,10.9483346 50.778,10.701 C50.6286659,10.4536654 50.4373345,10.2553341 50.204,10.106 C49.9706655,9.95666592 49.6953349,9.882 49.378,9.882 C49.1259987,9.882 48.8996677,9.92633289 48.699,10.015 C48.4983323,10.1036671 48.3233341,10.2249992 48.174,10.379 C48.0246659,10.5330008 47.9033338,10.7126656 47.81,10.918 C47.7166662,11.1233344 47.6513335,11.3426655 47.614,11.576 C47.5953332,11.6693338 47.5813334,11.7883326 47.572,11.933 C47.5626666,12.0776674 47.558,12.2806654 47.558,12.542 L47.558,12.584 Z M56.784,16.21 C56.2613307,16.21 55.8016686,16.1143343 55.405,15.923 C55.0083313,15.7316657 54.6770013,15.470335 54.411,15.139 C54.1449987,14.807665 53.9466673,14.4203355 53.816,13.977 C53.6853327,13.5336644 53.62,13.0553359 53.62,12.542 C53.62,12.0286641 53.687666,11.5526689 53.823,11.114 C53.958334,10.6753311 54.1589987,10.2926683 54.425,9.966 C54.6910013,9.6393317 55.0223313,9.3826676 55.419,9.196 C55.8156686,9.0093324 56.2706641,8.916 56.784,8.916 C57.2973359,8.916 57.7523313,9.0093324 58.149,9.196 C58.5456686,9.3826676 58.879332,9.63699839 59.15,9.959 C59.420668,10.2810016 59.623666,10.6636644 59.759,11.107 C59.894334,11.5503355 59.962,12.0286641 59.962,12.542 C59.962,13.0553359 59.894334,13.5336644 59.759,13.977 C59.623666,14.4203355 59.420668,14.807665 59.15,15.139 C58.879332,15.470335 58.5456686,15.7316657 58.149,15.923 C57.7523313,16.1143343 57.2973359,16.21 56.784,16.21 Z M56.812,15.3 C57.1293349,15.3 57.4093321,15.2300007 57.652,15.09 C57.8946679,14.9499993 58.0953325,14.7563346 58.254,14.509 C58.4126675,14.2616654 58.5339996,13.9700017 58.618,13.634 C58.7020004,13.2979983 58.744,12.934002 58.744,12.542 C58.744,12.149998 58.7020004,11.788335 58.618,11.457 C58.5339996,11.125665 58.4080008,10.8386679 58.24,10.596 C58.0719992,10.3533321 57.8666679,10.164334 57.624,10.029 C57.3813321,9.89366599 57.1013349,9.826 56.784,9.826 C56.4573317,9.826 56.1726679,9.89366599 55.93,10.029 C55.6873321,10.164334 55.4866675,10.3533321 55.328,10.596 C55.1693325,10.8386679 55.0480004,11.125665 54.964,11.457 C54.8799996,11.788335 54.838,12.149998 54.838,12.542 C54.838,12.934002 54.8799996,13.2979983 54.964,13.634 C55.0480004,13.9700017 55.1716658,14.2616654 55.335,14.509 C55.4983341,14.7563346 55.7036654,14.9499993 55.951,15.09 C56.1983346,15.2300007 56.4853317,15.3 56.812,15.3 Z M61.418,9.112 L62.594,9.112 L62.594,13.284 C62.594,13.9373366 62.7153321,14.4156652 62.958,14.719 C63.2006679,15.0223349 63.5413311,15.174 63.98,15.174 C64.5400028,15.174 64.9763318,14.9523355 65.289,14.509 C65.6016682,14.0656644 65.758,13.475337 65.758,12.738 L65.758,9.112 L66.92,9.112 L66.92,16 L65.828,16 L65.828,14.6 C65.7439996,14.8146677 65.6413339,15.0176657 65.52,15.209 C65.3986661,15.4003343 65.2493342,15.5683326 65.072,15.713 C64.8946658,15.8576674 64.6893345,15.9719996 64.456,16.056 C64.2226655,16.1400004 63.9473349,16.182 63.63,16.182 C62.8833296,16.182 62.3280018,15.9556689 61.964,15.503 C61.5999982,15.0503311 61.418,14.4086708 61.418,13.578 L61.418,9.112 Z M69.314,9.91 L68.138,9.91 L68.138,9.112 L68.39,9.112 C68.6793348,9.112 68.9056658,9.08166697 69.069,9.021 C69.2323341,8.96033303 69.3559996,8.86700063 69.44,8.741 C69.5240004,8.61499937 69.5846665,8.44933436 69.622,8.244 C69.6593335,8.03866564 69.6919999,7.78666816 69.72,7.488 L69.748,7.236 L70.476,7.236 L70.476,9.112 L71.96,9.112 L71.96,9.91 L70.476,9.91 L70.476,14.194 C70.476,14.586002 70.5343327,14.8683325 70.651,15.041 C70.7676672,15.2136675 70.9846651,15.3 71.302,15.3 C71.5540013,15.3 71.7873323,15.2440006 72.002,15.132 L72.128,15.972 C71.7733316,16.1306675 71.3813355,16.21 70.952,16.21 C70.6159983,16.21 70.343001,16.1633338 70.133,16.07 C69.9229989,15.9766662 69.7573339,15.8506675 69.636,15.692 C69.5146661,15.5333325 69.4306669,15.3420011 69.384,15.118 C69.3373331,14.8939989 69.314,14.6513346 69.314,14.39 L69.314,9.91 Z M76.482,9.112 L77.658,9.112 L77.658,13.284 C77.658,13.9373366 77.7793321,14.4156652 78.022,14.719 C78.2646679,15.0223349 78.6053311,15.174 79.044,15.174 C79.6040028,15.174 80.0403318,14.9523355 80.353,14.509 C80.6656682,14.0656644 80.822,13.475337 80.822,12.738 L80.822,9.112 L81.984,9.112 L81.984,16 L80.892,16 L80.892,14.6 C80.8079996,14.8146677 80.7053339,15.0176657 80.584,15.209 C80.4626661,15.4003343 80.3133342,15.5683326 80.136,15.713 C79.9586658,15.8576674 79.7533345,15.9719996 79.52,16.056 C79.2866655,16.1400004 79.0113349,16.182 78.694,16.182 C77.9473296,16.182 77.3920018,15.9556689 77.028,15.503 C76.6639982,15.0503311 76.482,14.4086708 76.482,13.578 L76.482,9.112 Z M83.776,9.112 L84.938,9.112 L84.938,10.442 C85.0220004,10.245999 85.1293327,10.0546676 85.26,9.868 C85.3906673,9.6813324 85.5469991,9.5180007 85.729,9.378 C85.9110009,9.2379993 86.1233321,9.12600042 86.366,9.042 C86.6086679,8.95799958 86.8839985,8.916 87.192,8.916 C87.6400022,8.916 88.029665,9.0093324 88.361,9.196 C88.692335,9.3826676 88.9653323,9.6393317 89.18,9.966 C89.3946677,10.2926683 89.5556661,10.6729978 89.663,11.107 C89.7703339,11.5410022 89.824,12.0099975 89.824,12.514 C89.824,13.1113363 89.7540007,13.6386644 89.614,14.096 C89.4739993,14.5533356 89.2780013,14.9359985 89.026,15.244 C88.7739987,15.5520015 88.4800017,15.7853325 88.144,15.944 C87.8079983,16.1026675 87.444002,16.182 87.052,16.182 C86.5386641,16.182 86.0976685,16.0560013 85.729,15.804 C85.3603315,15.5519987 85.0966675,15.2393352 84.938,14.866 L84.938,18.422 L83.776,18.422 L83.776,9.112 Z M84.938,12.598 C84.938,12.794001 84.9449999,12.9736658 84.959,13.137 C84.9730001,13.3003342 84.9893332,13.4379994 85.008,13.55 C85.0453335,13.7740011 85.1153328,13.9886656 85.218,14.194 C85.3206672,14.3993344 85.4466659,14.5789992 85.596,14.733 C85.7453341,14.8870008 85.9203323,15.0106662 86.121,15.104 C86.3216677,15.1973338 86.5433321,15.244 86.786,15.244 C87.1033349,15.244 87.3763322,15.1693341 87.605,15.02 C87.8336678,14.8706659 88.0226659,14.6700013 88.172,14.418 C88.3213341,14.1659987 88.4309997,13.8790016 88.501,13.557 C88.5710003,13.2349984 88.606,12.9013351 88.606,12.556 C88.606,12.2106649 88.5733337,11.8770016 88.508,11.555 C88.4426663,11.2329984 88.3376674,10.9483346 88.193,10.701 C88.0483326,10.4536654 87.8593345,10.2553341 87.626,10.106 C87.3926655,9.95666592 87.1126683,9.882 86.786,9.882 C86.5339987,9.882 86.303001,9.9286662 86.093,10.022 C85.8829989,10.1153338 85.7033341,10.2413325 85.554,10.4 C85.4046659,10.5586675 85.2810005,10.7406656 85.183,10.946 C85.0849995,11.1513344 85.0220001,11.3659989 84.994,11.59 C84.9753332,11.6833338 84.9613334,11.8116659 84.952,11.975 C84.9426666,12.1383341 84.938,12.3273323 84.938,12.542 L84.938,12.598 Z M95.942,14.656 C95.7553324,15.122669 95.4800018,15.491332 95.116,15.762 C94.7519982,16.032668 94.299336,16.168 93.758,16.168 C93.3286645,16.168 92.9436684,16.0793342 92.603,15.902 C92.2623316,15.7246658 91.9730012,15.4773349 91.735,15.16 C91.4969988,14.8426651 91.3150006,14.4600022 91.189,14.012 C91.0629994,13.5639978 91,13.069336 91,12.528 C91,11.9679972 91.0653327,11.4663355 91.196,11.023 C91.3266673,10.5796644 91.5133321,10.2040015 91.756,9.896 C91.9986679,9.58799846 92.2903316,9.35000084 92.631,9.182 C92.9716684,9.01399916 93.3473313,8.93 93.758,8.93 C94.3180028,8.93 94.7753316,9.06299867 95.13,9.329 C95.4846684,9.59500133 95.7366659,9.9146648 95.886,10.288 L95.886,6.116 L97.062,6.116 L97.062,16 L95.942,16 L95.942,14.656 Z M95.886,12.514 C95.886,12.2246652 95.8790001,11.9983342 95.865,11.835 C95.8509999,11.6716659 95.8346668,11.5386672 95.816,11.436 C95.7693331,11.2306656 95.6993338,11.0346676 95.606,10.848 C95.5126662,10.6613324 95.3936674,10.4956674 95.249,10.351 C95.1043326,10.2063326 94.934001,10.0920004 94.738,10.008 C94.541999,9.92399958 94.3180013,9.882 94.066,9.882 C93.7486651,9.882 93.4756678,9.9519993 93.247,10.092 C93.0183322,10.2320007 92.8270008,10.4209988 92.673,10.659 C92.5189992,10.8970012 92.404667,11.1769984 92.33,11.499 C92.255333,11.8210016 92.218,12.1639982 92.218,12.528 C92.218,12.920002 92.2599996,13.281665 92.344,13.613 C92.4280004,13.944335 92.5493325,14.2289988 92.708,14.467 C92.8666675,14.7050012 93.0626655,14.891666 93.296,15.027 C93.5293345,15.162334 93.7953318,15.23 94.094,15.23 C94.3273345,15.23 94.5396657,15.1880004 94.731,15.104 C94.9223343,15.0199996 95.0903326,14.9033341 95.235,14.754 C95.3796674,14.6046659 95.4986662,14.4343343 95.592,14.243 C95.6853338,14.0516657 95.7553331,13.8486677 95.802,13.634 C95.8580003,13.3726654 95.886,13.0226689 95.886,12.584 L95.886,12.514 Z M103.166,16 C103.063333,15.6639983 103.002667,15.262669 102.984,14.796 C102.797332,15.2253355 102.510335,15.568332 102.123,15.825 C101.735665,16.0816679 101.276003,16.21 100.744,16.21 C100.071997,16.21 99.540002,16.0186686 99.148,15.636 C98.755998,15.2533314 98.56,14.7400032 98.56,14.096 C98.56,13.7319982 98.6253327,13.4263346 98.756,13.179 C98.8866673,12.9316654 99.0686655,12.7263341 99.302,12.563 C99.5353345,12.3996658 99.8106651,12.2713338 100.128,12.178 C100.445335,12.0846662 100.790665,12.0100003 101.164,11.954 L102.928,11.688 L102.928,11.254 C102.928,10.9459985 102.890667,10.6986676 102.816,10.512 C102.741333,10.3253324 102.638667,10.1806672 102.508,10.078 C102.377333,9.97533282 102.228001,9.90766683 102.06,9.875 C101.891999,9.84233317 101.714668,9.826 101.528,9.826 C100.995997,9.826 100.557335,9.92399902 100.212,10.12 C99.8666649,10.316001 99.5773345,10.5633318 99.344,10.862 L98.742,10.106 C99.012668,9.7793317 99.3883309,9.4993345 99.869,9.266 C100.349669,9.0326655 100.944663,8.916 101.654,8.916 C102.512671,8.916 103.135665,9.10733142 103.523,9.49 C103.910335,9.87266858 104.104,10.4886624 104.104,11.338 L104.104,14.124 C104.104,14.3480011 104.106333,14.5439992 104.111,14.712 C104.115667,14.8800008 104.125,15.0363326 104.139,15.181 C104.153,15.3256674 104.174,15.4633327 104.202,15.594 C104.23,15.7246673 104.267333,15.8599993 104.314,16 L103.166,16 Z M102.928,12.458 L101.276,12.724 C100.706664,12.8266672 100.303001,12.9806656 100.065,13.186 C99.8269988,13.3913344 99.708,13.6759982 99.708,14.04 C99.708,14.4133352 99.8176656,14.7259987 100.037,14.978 C100.256334,15.2300013 100.580665,15.356 101.01,15.356 C101.271335,15.356 101.518665,15.3046672 101.752,15.202 C101.985334,15.0993328 102.188332,14.9570009 102.361,14.775 C102.533668,14.5929991 102.671333,14.3736679 102.774,14.117 C102.876667,13.8603321 102.928,13.5780015 102.928,13.27 L102.928,12.458 Z M106.568,9.91 L105.392,9.91 L105.392,9.112 L105.644,9.112 C105.933335,9.112 106.159666,9.08166697 106.323,9.021 C106.486334,8.96033303 106.61,8.86700063 106.694,8.741 C106.778,8.61499937 106.838666,8.44933436 106.876,8.244 C106.913334,8.03866564 106.946,7.78666816 106.974,7.488 L107.002,7.236 L107.73,7.236 L107.73,9.112 L109.214,9.112 L109.214,9.91 L107.73,9.91 L107.73,14.194 C107.73,14.586002 107.788333,14.8683325 107.905,15.041 C108.021667,15.2136675 108.238665,15.3 108.556,15.3 C108.808001,15.3 109.041332,15.2440006 109.256,15.132 L109.382,15.972 C109.027332,16.1306675 108.635335,16.21 108.206,16.21 C107.869998,16.21 107.597001,16.1633338 107.387,16.07 C107.176999,15.9766662 107.011334,15.8506675 106.89,15.692 C106.768666,15.5333325 106.684667,15.3420011 106.638,15.118 C106.591333,14.8939989 106.568,14.6513346 106.568,14.39 L106.568,9.91 Z M111.496,12.822 C111.542667,13.6153373 111.745665,14.2289978 112.105,14.663 C112.464335,15.0970022 112.965997,15.314 113.61,15.314 C114.422004,15.314 115.033331,14.9313372 115.444,14.166 L116.326,14.656 C116.055332,15.1133356 115.696002,15.4866652 115.248,15.776 C114.799998,16.0653348 114.235337,16.21 113.554,16.21 C113.012664,16.21 112.539002,16.1166676 112.133,15.93 C111.726998,15.7433324 111.388668,15.4866683 111.118,15.16 C110.847332,14.8333317 110.644334,14.4506689 110.509,14.012 C110.373666,13.5733311 110.306,13.1020025 110.306,12.598 C110.306,12.1033309 110.371333,11.6320022 110.502,11.184 C110.632667,10.7359978 110.830999,10.3440017 111.097,10.008 C111.363001,9.67199832 111.689665,9.40600098 112.077,9.21 C112.464335,9.01399902 112.919331,8.916 113.442,8.916 C113.946003,8.916 114.384665,9.01166571 114.758,9.203 C115.131335,9.39433429 115.441665,9.65099839 115.689,9.973 C115.936335,10.2950016 116.122999,10.6683312 116.249,11.093 C116.375001,11.5176688 116.438,11.9679976 116.438,12.444 C116.438,12.5466672 116.435667,12.6259997 116.431,12.682 C116.426333,12.7380003 116.424,12.7846665 116.424,12.822 L111.496,12.822 Z M113.428,9.798 C112.839997,9.798 112.385002,10.0079979 112.063,10.428 C111.740998,10.8480021 111.556667,11.4126631 111.51,12.122 L115.248,12.122 C115.248,11.8326652 115.215334,11.5503347 115.15,11.275 C115.084666,10.9996653 114.977334,10.7523344 114.828,10.533 C114.678666,10.3136656 114.489668,10.136334 114.261,10.001 C114.032332,9.86566599 113.754668,9.798 113.428,9.798 Z M117.978,14.306 C118.211334,14.6046682 118.512331,14.851999 118.881,15.048 C119.249669,15.244001 119.653331,15.342 120.092,15.342 C120.484002,15.342 120.824665,15.2486676 121.114,15.062 C121.403335,14.8753324 121.548,14.5953352 121.548,14.222 C121.548,13.9326652 121.452334,13.7063341 121.261,13.543 C121.069666,13.3796659 120.831668,13.2420006 120.547,13.13 C120.262332,13.0179994 119.952002,12.9153338 119.616,12.822 C119.279998,12.7286662 118.969668,12.6073341 118.685,12.458 C118.400332,12.3086659 118.162334,12.1126679 117.971,11.87 C117.779666,11.6273321 117.684,11.2960021 117.684,10.876 C117.684,10.5306649 117.753999,10.2343346 117.894,9.987 C118.034001,9.73966543 118.218332,9.53666746 118.447,9.378 C118.675668,9.21933254 118.939332,9.10266704 119.238,9.028 C119.536668,8.95333296 119.849332,8.916 120.176,8.916 C121.146672,8.916 121.953997,9.1959972 122.598,9.756 L122.01,10.54 C121.804666,10.3253323 121.531668,10.1456674 121.191,10.001 C120.850332,9.85633261 120.498002,9.784 120.134,9.784 C119.975333,9.784 119.819001,9.80266648 119.665,9.84 C119.510999,9.87733352 119.375667,9.93566627 119.259,10.015 C119.142333,10.0943337 119.049,10.1946661 118.979,10.316 C118.909,10.4373339 118.874,10.5866658 118.874,10.764 C118.874,11.034668 118.969666,11.2446659 119.161,11.394 C119.352334,11.5433341 119.590332,11.6716661 119.875,11.779 C120.159668,11.8863339 120.467665,11.9889995 120.799,12.087 C121.130335,12.1850005 121.438332,12.3109992 121.723,12.465 C122.007668,12.6190008 122.245666,12.8219987 122.437,13.074 C122.628334,13.3260013 122.724,13.6619979 122.724,14.082 C122.724,14.4366684 122.651667,14.7469987 122.507,15.013 C122.362333,15.2790013 122.171001,15.5006658 121.933,15.678 C121.694999,15.8553342 121.419668,15.9883329 121.107,16.077 C120.794332,16.1656671 120.470002,16.21 120.134,16.21 C118.976661,16.21 118.057337,15.8366704 117.376,15.09 L117.978,14.306 Z" id="Notify-about-updates" fill="#3F4F5A"></path>
                <g id="Radio-button-Copy-2" transform="translate(148.000000, 0.000000)">
                    <path d="M36,0 C42.627417,0 48,5.372583 48,12 C48,18.627417 42.627417,24 36,24 L13,24 L13,23.9589262 C12.6702666,23.9861287 12.3367532,24 12,24 C5.372583,24 0,18.627417 0,12 C0,5.372583 5.372583,0 12,0 C12.3367532,0 12.6702666,0.0138713289 13,0.041073777 L13,0 L36,0 Z" id="Combined-Shape" stroke="#E1E5E9" fill="#E1E5E9"></path>
                    <circle id="Oval" stroke="#AAB1B6" fill="#FFFFFF" cx="12" cy="12" r="12"></circle>
                </g>
            </g>
        </g>
    </g>
</svg>