<?xml version="1.0" encoding="UTF-8"?>
<svg width="229px" height="26px" viewBox="0 0 229 26" version="1.1" xmlns="http://www.w3.org/2000/svg" xmlns:xlink="http://www.w3.org/1999/xlink">
    <!-- Generator: Sketch 47 (45396) - http://www.bohemiancoding.com/sketch -->
    <title>OptionsInRow</title>
    <desc>Created with Sketch.</desc>
    <defs></defs>
    <g id="Page-1" stroke="none" stroke-width="1" fill="none" fill-rule="evenodd">
        <g id="Buttons-Usage-extra-large-1200" transform="translate(-831.000000, -1876.000000)">
            <g id="OptionsInRow" transform="translate(831.000000, 1877.000000)">
                <path d="M0.98,6.116 L3.962,6.116 C5.67000854,6.116 6.92532932,6.52899587 7.728,7.355 C8.53067068,8.18100413 8.932,9.41999174 8.932,11.072 C8.932,12.668008 8.53067068,13.8883291 7.728,14.733 C6.92532932,15.5776709 5.72134136,16 4.116,16 L0.98,16 L0.98,6.116 Z M4.018,15.02 C4.69000336,15.02 5.25466438,14.922001 5.712,14.726 C6.16933562,14.529999 6.5379986,14.2570017 6.818,13.907 C7.0980014,13.5569983 7.29633275,13.1370024 7.413,12.647 C7.52966725,12.1569975 7.588,11.6226696 7.588,11.044 C7.588,10.4839972 7.52966725,9.96366907 7.413,9.483 C7.29633275,9.00233093 7.0980014,8.58466844 6.818,8.23 C6.5379986,7.87533156 6.16000238,7.59766767 5.684,7.397 C5.20799762,7.19633233 4.61067026,7.096 3.892,7.096 L2.24,7.096 L2.24,15.02 L4.018,15.02 Z M10.416,9.112 L11.424,9.112 L11.536,10.652 C11.732001,10.1479975 12.0446645,9.7326683 12.474,9.406 C12.9033355,9.0793317 13.4119971,8.916 14,8.916 L14,10.148 C13.8693327,10.1199999 13.7246675,10.106 13.566,10.106 C13.3326655,10.106 13.0993345,10.1479996 12.866,10.232 C12.6326655,10.3160004 12.4203343,10.4513324 12.229,10.638 C12.0376657,10.8246676 11.8813339,11.0649985 11.76,11.359 C11.6386661,11.6530015 11.578,12.0099979 11.578,12.43 L11.578,16 L10.416,16 L10.416,9.112 Z M15.148,6.438 L16.31,6.438 L16.31,7.6 L15.148,7.6 L15.148,6.438 Z M15.148,9.112 L16.31,9.112 L16.31,16 L15.148,16 L15.148,9.112 Z M18.102,9.112 L19.11,9.112 L19.236,10.484 C19.4133342,10.0639979 19.6956647,9.69766823 20.083,9.385 C20.4703353,9.07233177 20.9486638,8.916 21.518,8.916 C22.2366703,8.916 22.7663316,9.14466438 23.107,9.602 C23.4476684,10.0593356 23.618,10.6986626 23.618,11.52 L23.618,16 L22.456,16 L22.456,11.758 C22.456,11.1326635 22.3300013,10.6730015 22.078,10.379 C21.8259987,10.0849985 21.4853355,9.938 21.056,9.938 C20.5426641,9.938 20.1156684,10.1479979 19.775,10.568 C19.4343316,10.9880021 19.264,11.5806628 19.264,12.346 L19.264,16 L18.102,16 L18.102,9.112 Z M25.382,6.116 L26.544,6.116 L26.544,12.332 L29.666,9.112 L31.122,9.112 L28.42,11.744 L31.472,16 L30.114,16 L27.664,12.472 L26.544,13.55 L26.544,16 L25.382,16 L25.382,6.116 Z M32.69,14.306 C32.9233345,14.6046682 33.2243315,14.851999 33.593,15.048 C33.9616685,15.244001 34.3653311,15.342 34.804,15.342 C35.196002,15.342 35.5366652,15.2486676 35.826,15.062 C36.1153348,14.8753324 36.26,14.5953352 36.26,14.222 C36.26,13.9326652 36.1643343,13.7063341 35.973,13.543 C35.7816657,13.3796659 35.5436681,13.2420006 35.259,13.13 C34.9743319,13.0179994 34.6640017,12.9153338 34.328,12.822 C33.9919983,12.7286662 33.6816681,12.6073341 33.397,12.458 C33.1123319,12.3086659 32.8743343,12.1126679 32.683,11.87 C32.4916657,11.6273321 32.396,11.2960021 32.396,10.876 C32.396,10.5306649 32.4659993,10.2343346 32.606,9.987 C32.7460007,9.73966543 32.9303322,9.53666746 33.159,9.378 C33.3876678,9.21933254 33.6513318,9.10266704 33.95,9.028 C34.2486682,8.95333296 34.5613317,8.916 34.888,8.916 C35.8586715,8.916 36.6659968,9.1959972 37.31,9.756 L36.722,10.54 C36.5166656,10.3253323 36.2436684,10.1456674 35.903,10.001 C35.5623316,9.85633261 35.2100018,9.784 34.846,9.784 C34.6873325,9.784 34.5310008,9.80266648 34.377,9.84 C34.2229992,9.87733352 34.0876672,9.93566627 33.971,10.015 C33.8543328,10.0943337 33.7610004,10.1946661 33.691,10.316 C33.6209997,10.4373339 33.586,10.5866658 33.586,10.764 C33.586,11.034668 33.6816657,11.2446659 33.873,11.394 C34.0643343,11.5433341 34.3023319,11.6716661 34.587,11.779 C34.8716681,11.8863339 35.179665,11.9889995 35.511,12.087 C35.842335,12.1850005 36.1503319,12.3109992 36.435,12.465 C36.7196681,12.6190008 36.9576657,12.8219987 37.149,13.074 C37.3403343,13.3260013 37.436,13.6619979 37.436,14.082 C37.436,14.4366684 37.3636674,14.7469987 37.219,15.013 C37.0743326,15.2790013 36.8830012,15.5006658 36.645,15.678 C36.4069988,15.8553342 36.1316682,15.9883329 35.819,16.077 C35.5063318,16.1656671 35.1820017,16.21 34.846,16.21 C33.6886609,16.21 32.7693367,15.8366704 32.088,15.09 L32.69,14.306 Z" id="Drinks" fill="#3F4F5A"></path>
                <path d="M134.98,6.116 L140.916,6.116 L140.916,7.096 L136.24,7.096 L136.24,10.54 L139.838,10.54 L139.838,11.506 L136.24,11.506 L136.24,16 L134.98,16 L134.98,6.116 Z M144.374,16.21 C143.851331,16.21 143.391669,16.1143343 142.995,15.923 C142.598331,15.7316657 142.267001,15.470335 142.001,15.139 C141.734999,14.807665 141.536667,14.4203355 141.406,13.977 C141.275333,13.5336645 141.21,13.0553359 141.21,12.542 C141.21,12.0286641 141.277666,11.5526689 141.413,11.114 C141.548334,10.6753311 141.748999,10.2926683 142.015,9.966 C142.281001,9.6393317 142.612331,9.3826676 143.009,9.196 C143.405669,9.0093324 143.860664,8.916 144.374,8.916 C144.887336,8.916 145.342331,9.0093324 145.739,9.196 C146.135669,9.3826676 146.469332,9.63699839 146.74,9.959 C147.010668,10.2810016 147.213666,10.6636644 147.349,11.107 C147.484334,11.5503355 147.552,12.0286641 147.552,12.542 C147.552,13.0553359 147.484334,13.5336645 147.349,13.977 C147.213666,14.4203355 147.010668,14.807665 146.74,15.139 C146.469332,15.470335 146.135669,15.7316657 145.739,15.923 C145.342331,16.1143343 144.887336,16.21 144.374,16.21 Z M144.402,15.3 C144.719335,15.3 144.999332,15.2300007 145.242,15.09 C145.484668,14.9499993 145.685333,14.7563346 145.844,14.509 C146.002667,14.2616654 146.124,13.9700017 146.208,13.634 C146.292,13.2979983 146.334,12.934002 146.334,12.542 C146.334,12.149998 146.292,11.788335 146.208,11.457 C146.124,11.125665 145.998001,10.8386679 145.83,10.596 C145.661999,10.3533321 145.456668,10.164334 145.214,10.029 C144.971332,9.89366599 144.691335,9.826 144.374,9.826 C144.047332,9.826 143.762668,9.89366599 143.52,10.029 C143.277332,10.164334 143.076667,10.3533321 142.918,10.596 C142.759333,10.8386679 142.638,11.125665 142.554,11.457 C142.47,11.788335 142.428,12.149998 142.428,12.542 C142.428,12.934002 142.47,13.2979983 142.554,13.634 C142.638,13.9700017 142.761666,14.2616654 142.925,14.509 C143.088334,14.7563346 143.293665,14.9499993 143.541,15.09 C143.788335,15.2300007 144.075332,15.3 144.402,15.3 Z M151.892,16.21 C151.369331,16.21 150.909669,16.1143343 150.513,15.923 C150.116331,15.7316657 149.785001,15.470335 149.519,15.139 C149.252999,14.807665 149.054667,14.4203355 148.924,13.977 C148.793333,13.5336645 148.728,13.0553359 148.728,12.542 C148.728,12.0286641 148.795666,11.5526689 148.931,11.114 C149.066334,10.6753311 149.266999,10.2926683 149.533,9.966 C149.799001,9.6393317 150.130331,9.3826676 150.527,9.196 C150.923669,9.0093324 151.378664,8.916 151.892,8.916 C152.405336,8.916 152.860331,9.0093324 153.257,9.196 C153.653669,9.3826676 153.987332,9.63699839 154.258,9.959 C154.528668,10.2810016 154.731666,10.6636644 154.867,11.107 C155.002334,11.5503355 155.07,12.0286641 155.07,12.542 C155.07,13.0553359 155.002334,13.5336645 154.867,13.977 C154.731666,14.4203355 154.528668,14.807665 154.258,15.139 C153.987332,15.470335 153.653669,15.7316657 153.257,15.923 C152.860331,16.1143343 152.405336,16.21 151.892,16.21 Z M151.92,15.3 C152.237335,15.3 152.517332,15.2300007 152.76,15.09 C153.002668,14.9499993 153.203333,14.7563346 153.362,14.509 C153.520667,14.2616654 153.642,13.9700017 153.726,13.634 C153.81,13.2979983 153.852,12.934002 153.852,12.542 C153.852,12.149998 153.81,11.788335 153.726,11.457 C153.642,11.125665 153.516001,10.8386679 153.348,10.596 C153.179999,10.3533321 152.974668,10.164334 152.732,10.029 C152.489332,9.89366599 152.209335,9.826 151.892,9.826 C151.565332,9.826 151.280668,9.89366599 151.038,10.029 C150.795332,10.164334 150.594667,10.3533321 150.436,10.596 C150.277333,10.8386679 150.156,11.125665 150.072,11.457 C149.988,11.788335 149.946,12.149998 149.946,12.542 C149.946,12.934002 149.988,13.2979983 150.072,13.634 C150.156,13.9700017 150.279666,14.2616654 150.443,14.509 C150.606334,14.7563346 150.811665,14.9499993 151.059,15.09 C151.306335,15.2300007 151.593332,15.3 151.92,15.3 Z M161.188,14.656 C161.001332,15.122669 160.726002,15.491332 160.362,15.762 C159.997998,16.032668 159.545336,16.168 159.004,16.168 C158.574665,16.168 158.189668,16.0793342 157.849,15.902 C157.508332,15.7246658 157.219001,15.4773349 156.981,15.16 C156.742999,14.8426651 156.561001,14.4600022 156.435,14.012 C156.308999,13.5639978 156.246,13.069336 156.246,12.528 C156.246,11.9679972 156.311333,11.4663355 156.442,11.023 C156.572667,10.5796645 156.759332,10.2040015 157.002,9.896 C157.244668,9.58799846 157.536332,9.35000084 157.877,9.182 C158.217668,9.01399916 158.593331,8.93 159.004,8.93 C159.564003,8.93 160.021332,9.06299867 160.376,9.329 C160.730668,9.59500133 160.982666,9.9146648 161.132,10.288 L161.132,6.116 L162.308,6.116 L162.308,16 L161.188,16 L161.188,14.656 Z M161.132,12.514 C161.132,12.2246652 161.125,11.9983341 161.111,11.835 C161.097,11.6716658 161.080667,11.5386672 161.062,11.436 C161.015333,11.2306656 160.945334,11.0346676 160.852,10.848 C160.758666,10.6613324 160.639667,10.4956674 160.495,10.351 C160.350333,10.2063326 160.180001,10.0920004 159.984,10.008 C159.787999,9.92399958 159.564001,9.882 159.312,9.882 C158.994665,9.882 158.721668,9.9519993 158.493,10.092 C158.264332,10.2320007 158.073001,10.4209988 157.919,10.659 C157.764999,10.8970012 157.650667,11.1769984 157.576,11.499 C157.501333,11.8210016 157.464,12.1639982 157.464,12.528 C157.464,12.920002 157.506,13.281665 157.59,13.613 C157.674,13.944335 157.795333,14.2289988 157.954,14.467 C158.112667,14.7050012 158.308665,14.891666 158.542,15.027 C158.775334,15.162334 159.041332,15.23 159.34,15.23 C159.573334,15.23 159.785666,15.1880004 159.977,15.104 C160.168334,15.0199996 160.336333,14.9033341 160.481,14.754 C160.625667,14.6046659 160.744666,14.4343343 160.838,14.243 C160.931334,14.0516657 161.001333,13.8486677 161.048,13.634 C161.104,13.3726654 161.132,13.0226689 161.132,12.584 L161.132,12.514 Z" id="Food" fill="#3F4F5A"></path>
                <g id="Radio-button-Copy-9" transform="translate(54.000000, 0.000000)">
                    <path d="M36,0 C42.627417,0 48,5.372583 48,12 C48,18.627417 42.627417,24 36,24 L13,24 L13,23.9589262 C12.6702666,23.9861287 12.3367532,24 12,24 C5.372583,24 0,18.627417 0,12 C0,5.372583 5.372583,0 12,0 C12.3367532,0 12.6702666,0.0138713289 13,0.041073777 L13,0 L36,0 Z" id="Combined-Shape" stroke="#E1E5E9" fill="#E1E5E9"></path>
                    <circle id="Oval" stroke="#AAB1B6" fill="#FFFFFF" cx="12" cy="12" r="12"></circle>
                </g>
                <g id="Radio-button-Copy-10" transform="translate(180.000000, 0.000000)">
                    <path d="M36,0 C42.627417,0 48,5.372583 48,12 C48,18.627417 42.627417,24 36,24 L13,24 L13,23.9589262 C12.6702666,23.9861287 12.3367532,24 12,24 C5.372583,24 0,18.627417 0,12 C0,5.372583 5.372583,0 12,0 C12.3367532,0 12.6702666,0.0138713289 13,0.041073777 L13,0 L36,0 Z" id="Combined-Shape" stroke="#E1E5E9" fill="#E1E5E9"></path>
                    <circle id="Oval" stroke="#AAB1B6" fill="#FFFFFF" cx="12" cy="12" r="12"></circle>
                </g>
            </g>
        </g>
    </g>
</svg>