<?xml version="1.0" encoding="UTF-8"?>
<svg width="159px" height="26px" viewBox="0 0 159 26" version="1.1" xmlns="http://www.w3.org/2000/svg" xmlns:xlink="http://www.w3.org/1999/xlink">
    <!-- Generator: Sketch 47 (45396) - http://www.bohemiancoding.com/sketch -->
    <title>GeneralLabel</title>
    <desc>Created with Sketch.</desc>
    <defs></defs>
    <g id="Page-1" stroke="none" stroke-width="1" fill="none" fill-rule="evenodd">
        <g id="Buttons-Usage-extra-large-1200" transform="translate(-429.000000, -1395.000000)">
            <g id="GeneralLabel" transform="translate(429.000000, 1396.000000)">
                <path d="M3.864,6.116 L5.026,6.116 L8.512,16 L7.196,16 L6.314,13.34 L2.506,13.34 L1.624,16 L0.35,16 L3.864,6.116 Z M5.978,12.374 C5.71666536,11.5619959 5.45766795,10.7663372 5.201,9.987 C4.94433205,9.20766277 4.68533464,8.38867096 4.424,7.53 C4.18133212,8.3700042 3.92466802,9.18432939 3.654,9.973 C3.38333198,10.7616706 3.11266802,11.5619959 2.842,12.374 L5.978,12.374 Z M9.758,6.438 L10.92,6.438 L10.92,7.6 L9.758,7.6 L9.758,6.438 Z M9.758,9.112 L10.92,9.112 L10.92,16 L9.758,16 L9.758,9.112 Z M12.712,9.112 L13.72,9.112 L13.832,10.652 C14.028001,10.1479975 14.3406645,9.7326683 14.77,9.406 C15.1993355,9.0793317 15.7079971,8.916 16.296,8.916 L16.296,10.148 C16.1653327,10.1199999 16.0206675,10.106 15.862,10.106 C15.6286655,10.106 15.3953345,10.1479996 15.162,10.232 C14.9286655,10.3160004 14.7163343,10.4513324 14.525,10.638 C14.3336657,10.8246676 14.1773339,11.0649985 14.056,11.359 C13.9346661,11.6530015 13.874,12.0099979 13.874,12.43 L13.874,16 L12.712,16 L12.712,9.112 Z M17.444,9.112 L18.606,9.112 L18.606,10.442 C18.6900004,10.245999 18.7973327,10.0546676 18.928,9.868 C19.0586673,9.6813324 19.2149991,9.5180007 19.397,9.378 C19.5790009,9.2379993 19.7913321,9.12600042 20.034,9.042 C20.2766679,8.95799958 20.5519985,8.916 20.86,8.916 C21.3080022,8.916 21.697665,9.0093324 22.029,9.196 C22.360335,9.3826676 22.6333323,9.6393317 22.848,9.966 C23.0626677,10.2926683 23.2236661,10.6729978 23.331,11.107 C23.4383339,11.5410022 23.492,12.0099975 23.492,12.514 C23.492,13.1113363 23.4220007,13.6386644 23.282,14.096 C23.1419993,14.5533356 22.9460013,14.9359985 22.694,15.244 C22.4419987,15.5520015 22.1480017,15.7853325 21.812,15.944 C21.4759983,16.1026675 21.112002,16.182 20.72,16.182 C20.2066641,16.182 19.7656685,16.0560013 19.397,15.804 C19.0283315,15.5519987 18.7646675,15.2393352 18.606,14.866 L18.606,18.422 L17.444,18.422 L17.444,9.112 Z M18.606,12.598 C18.606,12.794001 18.6129999,12.9736659 18.627,13.137 C18.6410001,13.3003342 18.6573332,13.4379994 18.676,13.55 C18.7133335,13.7740011 18.7833328,13.9886656 18.886,14.194 C18.9886672,14.3993344 19.1146659,14.5789992 19.264,14.733 C19.4133341,14.8870008 19.5883323,15.0106662 19.789,15.104 C19.9896677,15.1973338 20.2113321,15.244 20.454,15.244 C20.7713349,15.244 21.0443322,15.1693341 21.273,15.02 C21.5016678,14.8706659 21.6906659,14.6700013 21.84,14.418 C21.9893341,14.1659987 22.0989996,13.8790016 22.169,13.557 C22.2390003,13.2349984 22.274,12.9013351 22.274,12.556 C22.274,12.2106649 22.2413337,11.8770016 22.176,11.555 C22.1106663,11.2329984 22.0056674,10.9483346 21.861,10.701 C21.7163326,10.4536654 21.5273345,10.2553341 21.294,10.106 C21.0606655,9.95666592 20.7806683,9.882 20.454,9.882 C20.2019987,9.882 19.971001,9.9286662 19.761,10.022 C19.5509989,10.1153338 19.3713341,10.2413325 19.222,10.4 C19.0726659,10.5586675 18.9490005,10.7406656 18.851,10.946 C18.7529995,11.1513344 18.6900001,11.3659989 18.662,11.59 C18.6433332,11.6833338 18.6293334,11.8116659 18.62,11.975 C18.6106666,12.1383341 18.606,12.3273323 18.606,12.542 L18.606,12.598 Z M24.976,6.116 L26.138,6.116 L26.138,16 L24.976,16 L24.976,6.116 Z M32.256,16 C32.1533328,15.6639983 32.0926668,15.262669 32.074,14.796 C31.8873324,15.2253355 31.6003353,15.568332 31.213,15.825 C30.8256647,16.081668 30.3660027,16.21 29.834,16.21 C29.1619966,16.21 28.630002,16.0186686 28.238,15.636 C27.845998,15.2533314 27.65,14.7400032 27.65,14.096 C27.65,13.7319982 27.7153327,13.4263346 27.846,13.179 C27.9766673,12.9316654 28.1586655,12.7263341 28.392,12.563 C28.6253345,12.3996659 28.9006651,12.2713338 29.218,12.178 C29.5353349,12.0846662 29.8806648,12.0100003 30.254,11.954 L32.018,11.688 L32.018,11.254 C32.018,10.9459985 31.980667,10.6986676 31.906,10.512 C31.831333,10.3253324 31.7286673,10.1806672 31.598,10.078 C31.4673327,9.97533282 31.3180008,9.90766683 31.15,9.875 C30.9819992,9.84233317 30.8046676,9.826 30.618,9.826 C30.0859973,9.826 29.6473351,9.92399902 29.302,10.12 C28.9566649,10.316001 28.6673345,10.5633318 28.434,10.862 L27.832,10.106 C28.102668,9.7793317 28.4783309,9.4993345 28.959,9.266 C29.4396691,9.0326655 30.0346631,8.916 30.744,8.916 C31.602671,8.916 32.2256647,9.10733142 32.613,9.49 C33.0003353,9.87266858 33.194,10.4886624 33.194,11.338 L33.194,14.124 C33.194,14.3480011 33.1963333,14.5439992 33.201,14.712 C33.2056667,14.8800008 33.2149999,15.0363326 33.229,15.181 C33.2430001,15.3256674 33.2639999,15.4633327 33.292,15.594 C33.3200001,15.7246673 33.3573331,15.8599993 33.404,16 L32.256,16 Z M32.018,12.458 L30.366,12.724 C29.7966638,12.8266672 29.3930012,12.9806656 29.155,13.186 C28.9169988,13.3913344 28.798,13.6759982 28.798,14.04 C28.798,14.4133352 28.9076656,14.7259987 29.127,14.978 C29.3463344,15.2300013 29.6706645,15.356 30.1,15.356 C30.3613346,15.356 30.6086655,15.3046672 30.842,15.202 C31.0753345,15.0993328 31.2783325,14.9570009 31.451,14.775 C31.6236675,14.5929991 31.7613328,14.373668 31.864,14.117 C31.9666672,13.860332 32.018,13.5780015 32.018,13.27 L32.018,12.458 Z M35.056,9.112 L36.064,9.112 L36.19,10.484 C36.3673342,10.0639979 36.6496647,9.69766823 37.037,9.385 C37.4243353,9.07233177 37.9026638,8.916 38.472,8.916 C39.1906703,8.916 39.7203316,9.14466438 40.061,9.602 C40.4016684,10.0593356 40.572,10.6986626 40.572,11.52 L40.572,16 L39.41,16 L39.41,11.758 C39.41,11.1326635 39.2840013,10.6730015 39.032,10.379 C38.7799987,10.0849985 38.4393355,9.938 38.01,9.938 C37.4966641,9.938 37.0696684,10.1479979 36.729,10.568 C36.3883316,10.9880021 36.218,11.5806628 36.218,12.346 L36.218,16 L35.056,16 L35.056,9.112 Z M43.218,12.822 C43.2646669,13.6153373 43.4676649,14.2289978 43.827,14.663 C44.1863351,15.0970022 44.6879968,15.314 45.332,15.314 C46.1440041,15.314 46.7553313,14.9313372 47.166,14.166 L48.048,14.656 C47.777332,15.1133356 47.4180022,15.4866652 46.97,15.776 C46.5219978,16.0653348 45.9573367,16.21 45.276,16.21 C44.734664,16.21 44.261002,16.1166676 43.855,15.93 C43.448998,15.7433324 43.110668,15.4866683 42.84,15.16 C42.569332,14.8333317 42.366334,14.4506689 42.231,14.012 C42.095666,13.5733311 42.028,13.1020025 42.028,12.598 C42.028,12.1033309 42.0933327,11.6320022 42.224,11.184 C42.3546673,10.7359978 42.5529987,10.3440017 42.819,10.008 C43.0850013,9.67199832 43.4116647,9.40600098 43.799,9.21 C44.1863353,9.01399902 44.6413307,8.916 45.164,8.916 C45.6680025,8.916 46.1066648,9.01166571 46.48,9.203 C46.8533352,9.39433429 47.1636654,9.65099839 47.411,9.973 C47.6583346,10.2950016 47.8449994,10.6683312 47.971,11.093 C48.0970006,11.5176688 48.16,11.9679976 48.16,12.444 C48.16,12.5466672 48.1576667,12.6259997 48.153,12.682 C48.1483333,12.7380003 48.146,12.7846665 48.146,12.822 L43.218,12.822 Z M45.15,9.798 C44.5619971,9.798 44.1070016,10.0079979 43.785,10.428 C43.4629984,10.8480021 43.2786669,11.4126631 43.232,12.122 L46.97,12.122 C46.97,11.8326652 46.9373337,11.5503347 46.872,11.275 C46.8066663,10.9996653 46.6993341,10.7523344 46.55,10.533 C46.4006659,10.3136656 46.2116678,10.136334 45.983,10.001 C45.7543322,9.86566599 45.4766683,9.798 45.15,9.798 Z M52.724,9.112 L53.732,9.112 L53.858,10.456 C54.0260008,9.97999762 54.2873316,9.60433471 54.642,9.329 C54.9966684,9.05366529 55.4306641,8.916 55.944,8.916 C56.485336,8.916 56.9099985,9.06999846 57.218,9.378 C57.5260015,9.68600154 57.7219996,10.0593311 57.806,10.498 C57.8900004,10.2833323 57.9949994,10.0803343 58.121,9.889 C58.2470006,9.69766571 58.3986658,9.52966739 58.576,9.385 C58.7533342,9.24033261 58.9586655,9.12600042 59.192,9.042 C59.4253345,8.95799958 59.6913318,8.916 59.99,8.916 C60.382002,8.916 60.706332,8.98366599 60.963,9.119 C61.2196679,9.25433401 61.4249992,9.4386655 61.579,9.672 C61.7330008,9.9053345 61.8426663,10.1783318 61.908,10.491 C61.9733337,10.8036682 62.006,11.1326649 62.006,11.478 L62.006,16 L60.844,16 L60.844,11.772 C60.844,11.1559969 60.7343344,10.6963349 60.515,10.393 C60.2956656,10.0896651 59.9760021,9.938 59.556,9.938 C59.0986644,9.938 58.7160015,10.140998 58.408,10.547 C58.0999985,10.953002 57.946,11.5339962 57.946,12.29 L57.946,16 L56.784,16 L56.784,11.828 C56.784,11.1839968 56.6720011,10.7080015 56.448,10.4 C56.2239989,10.0919985 55.9113353,9.938 55.51,9.938 C55.0619978,9.938 54.6793349,10.1456646 54.362,10.561 C54.0446651,10.9763354 53.886,11.5759961 53.886,12.36 L53.886,16 L52.724,16 L52.724,9.112 Z M66.626,16.21 C66.1033307,16.21 65.6436686,16.1143343 65.247,15.923 C64.8503313,15.7316657 64.5190013,15.470335 64.253,15.139 C63.9869987,14.807665 63.7886673,14.4203355 63.658,13.977 C63.5273327,13.5336645 63.462,13.0553359 63.462,12.542 C63.462,12.0286641 63.529666,11.5526689 63.665,11.114 C63.800334,10.6753311 64.0009987,10.2926683 64.267,9.966 C64.5330013,9.6393317 64.8643313,9.3826676 65.261,9.196 C65.6576686,9.0093324 66.1126641,8.916 66.626,8.916 C67.1393359,8.916 67.5943313,9.0093324 67.991,9.196 C68.3876686,9.3826676 68.721332,9.63699839 68.992,9.959 C69.262668,10.2810016 69.465666,10.6636644 69.601,11.107 C69.736334,11.5503355 69.804,12.0286641 69.804,12.542 C69.804,13.0553359 69.736334,13.5336645 69.601,13.977 C69.465666,14.4203355 69.262668,14.807665 68.992,15.139 C68.721332,15.470335 68.3876686,15.7316657 67.991,15.923 C67.5943313,16.1143343 67.1393359,16.21 66.626,16.21 Z M66.654,15.3 C66.9713349,15.3 67.2513321,15.2300007 67.494,15.09 C67.7366679,14.9499993 67.9373325,14.7563346 68.096,14.509 C68.2546675,14.2616654 68.3759996,13.9700017 68.46,13.634 C68.5440004,13.2979983 68.586,12.934002 68.586,12.542 C68.586,12.149998 68.5440004,11.788335 68.46,11.457 C68.3759996,11.125665 68.2500008,10.8386679 68.082,10.596 C67.9139992,10.3533321 67.7086679,10.164334 67.466,10.029 C67.2233321,9.89366599 66.9433349,9.826 66.626,9.826 C66.2993317,9.826 66.0146679,9.89366599 65.772,10.029 C65.5293321,10.164334 65.3286675,10.3533321 65.17,10.596 C65.0113325,10.8386679 64.8900004,11.125665 64.806,11.457 C64.7219996,11.788335 64.68,12.149998 64.68,12.542 C64.68,12.934002 64.7219996,13.2979983 64.806,13.634 C64.8900004,13.9700017 65.0136658,14.2616654 65.177,14.509 C65.3403341,14.7563346 65.5456654,14.9499993 65.793,15.09 C66.0403346,15.2300007 66.3273317,15.3 66.654,15.3 Z M75.922,14.656 C75.7353324,15.122669 75.4600018,15.491332 75.096,15.762 C74.7319982,16.032668 74.279336,16.168 73.738,16.168 C73.3086645,16.168 72.9236684,16.0793342 72.583,15.902 C72.2423316,15.7246658 71.9530012,15.4773349 71.715,15.16 C71.4769988,14.8426651 71.2950006,14.4600022 71.169,14.012 C71.0429994,13.5639978 70.98,13.069336 70.98,12.528 C70.98,11.9679972 71.0453327,11.4663355 71.176,11.023 C71.3066673,10.5796645 71.4933321,10.2040015 71.736,9.896 C71.9786679,9.58799846 72.2703316,9.35000084 72.611,9.182 C72.9516684,9.01399916 73.3273313,8.93 73.738,8.93 C74.2980028,8.93 74.7553316,9.06299867 75.11,9.329 C75.4646684,9.59500133 75.7166659,9.9146648 75.866,10.288 L75.866,6.116 L77.042,6.116 L77.042,16 L75.922,16 L75.922,14.656 Z M75.866,12.514 C75.866,12.2246652 75.8590001,11.9983341 75.845,11.835 C75.8309999,11.6716658 75.8146668,11.5386672 75.796,11.436 C75.7493331,11.2306656 75.6793338,11.0346676 75.586,10.848 C75.4926662,10.6613324 75.3736674,10.4956674 75.229,10.351 C75.0843326,10.2063326 74.914001,10.0920004 74.718,10.008 C74.521999,9.92399958 74.2980013,9.882 74.046,9.882 C73.7286651,9.882 73.4556678,9.9519993 73.227,10.092 C72.9983322,10.2320007 72.8070008,10.4209988 72.653,10.659 C72.4989992,10.8970012 72.384667,11.1769984 72.31,11.499 C72.235333,11.8210016 72.198,12.1639982 72.198,12.528 C72.198,12.920002 72.2399996,13.281665 72.324,13.613 C72.4080004,13.944335 72.5293325,14.2289988 72.688,14.467 C72.8466675,14.7050012 73.0426655,14.891666 73.276,15.027 C73.5093345,15.162334 73.7753318,15.23 74.074,15.23 C74.3073345,15.23 74.5196657,15.1880004 74.711,15.104 C74.9023343,15.0199996 75.0703326,14.9033341 75.215,14.754 C75.3596674,14.6046659 75.4786662,14.4343343 75.572,14.243 C75.6653338,14.0516657 75.7353331,13.8486677 75.782,13.634 C75.8380003,13.3726654 75.866,13.0226689 75.866,12.584 L75.866,12.514 Z M79.702,12.822 C79.7486669,13.6153373 79.9516649,14.2289978 80.311,14.663 C80.6703351,15.0970022 81.1719968,15.314 81.816,15.314 C82.6280041,15.314 83.2393313,14.9313372 83.65,14.166 L84.532,14.656 C84.261332,15.1133356 83.9020022,15.4866652 83.454,15.776 C83.0059978,16.0653348 82.4413367,16.21 81.76,16.21 C81.218664,16.21 80.745002,16.1166676 80.339,15.93 C79.932998,15.7433324 79.594668,15.4866683 79.324,15.16 C79.053332,14.8333317 78.850334,14.4506689 78.715,14.012 C78.579666,13.5733311 78.512,13.1020025 78.512,12.598 C78.512,12.1033309 78.5773327,11.6320022 78.708,11.184 C78.8386673,10.7359978 79.0369987,10.3440017 79.303,10.008 C79.5690013,9.67199832 79.8956647,9.40600098 80.283,9.21 C80.6703353,9.01399902 81.1253307,8.916 81.648,8.916 C82.1520025,8.916 82.5906648,9.01166571 82.964,9.203 C83.3373352,9.39433429 83.6476654,9.65099839 83.895,9.973 C84.1423346,10.2950016 84.3289994,10.6683312 84.455,11.093 C84.5810006,11.5176688 84.644,11.9679976 84.644,12.444 C84.644,12.5466672 84.6416667,12.6259997 84.637,12.682 C84.6323333,12.7380003 84.63,12.7846665 84.63,12.822 L79.702,12.822 Z M81.634,9.798 C81.0459971,9.798 80.5910016,10.0079979 80.269,10.428 C79.9469984,10.8480021 79.7626669,11.4126631 79.716,12.122 L83.454,12.122 C83.454,11.8326652 83.4213337,11.5503347 83.356,11.275 C83.2906663,10.9996653 83.1833341,10.7523344 83.034,10.533 C82.8846659,10.3136656 82.6956678,10.136334 82.467,10.001 C82.2383322,9.86566599 81.9606683,9.798 81.634,9.798 Z" id="Airplane-mode" fill="#3F4F5A"></path>
                <g id="Radio-button" transform="translate(110.000000, 0.000000)">
                    <path d="M36,0 C42.627417,0 48,5.372583 48,12 C48,18.627417 42.627417,24 36,24 L13,24 L13,23.9589262 C12.6702666,23.9861287 12.3367532,24 12,24 C5.372583,24 0,18.627417 0,12 C0,5.372583 5.372583,0 12,0 C12.3367532,0 12.6702666,0.0138713289 13,0.041073777 L13,0 L36,0 Z" id="Combined-Shape" stroke="#E1E5E9" fill="#E1E5E9"></path>
                    <circle id="Oval" stroke="#AAB1B6" fill="#FFFFFF" cx="12" cy="12" r="12"></circle>
                </g>
            </g>
        </g>
    </g>
</svg>