<?xml version="1.0" encoding="UTF-8"?>
<svg width="297px" height="45px" viewBox="0 0 297 45" version="1.1" xmlns="http://www.w3.org/2000/svg" xmlns:xlink="http://www.w3.org/1999/xlink">
    <!-- Generator: Sketch 47 (45396) - http://www.bohemiancoding.com/sketch -->
    <title>UseInAForm</title>
    <desc>Created with Sketch.</desc>
    <defs></defs>
    <g id="Page-1" stroke="none" stroke-width="1" fill="none" fill-rule="evenodd">
        <g id="Buttons-Usage-extra-large-1200" transform="translate(-343.000000, -2207.000000)">
            <g id="UseInAForm" transform="translate(343.000000, 2204.000000)">
                <path d="M216.98,3.116 L220.2,3.116 C220.713336,3.116 221.184665,3.16966613 221.614,3.277 C222.043335,3.38433387 222.411998,3.55233219 222.72,3.781 C223.028002,4.00966781 223.268332,4.30133156 223.441,4.656 C223.613668,5.01066844 223.7,5.43066424 223.7,5.916 C223.7,6.32666872 223.630001,6.68366515 223.49,6.987 C223.349999,7.29033485 223.161001,7.54699895 222.923,7.757 C222.684999,7.96700105 222.412002,8.13033275 222.104,8.247 C221.795998,8.36366725 221.469335,8.43599986 221.124,8.464 C221.366668,8.52933366 221.583666,8.64366585 221.775,8.807 C221.966334,8.97033415 222.155332,9.21066508 222.342,9.528 L224.302,13 L222.818,13 L221.264,10.102 C221.049332,9.70066466 220.811335,9.39033443 220.55,9.171 C220.288665,8.95166557 219.924669,8.842 219.458,8.842 L218.24,8.842 L218.24,13 L216.98,13 L216.98,3.116 Z M220.228,7.834 C220.872003,7.834 221.387665,7.68466816 221.775,7.386 C222.162335,7.08733184 222.356,6.60666998 222.356,5.944 C222.356,5.3373303 222.162335,4.87766823 221.775,4.565 C221.387665,4.25233177 220.86267,4.096 220.2,4.096 L218.24,4.096 L218.24,7.834 L220.228,7.834 Z M226.038,9.822 C226.084667,10.6153373 226.287665,11.2289978 226.647,11.663 C227.006335,12.0970022 227.507997,12.314 228.152,12.314 C228.964004,12.314 229.575331,11.9313372 229.986,11.166 L230.868,11.656 C230.597332,12.1133356 230.238002,12.4866652 229.79,12.776 C229.341998,13.0653348 228.777337,13.21 228.096,13.21 C227.554664,13.21 227.081002,13.1166676 226.675,12.93 C226.268998,12.7433324 225.930668,12.4866683 225.66,12.16 C225.389332,11.8333317 225.186334,11.4506689 225.051,11.012 C224.915666,10.5733311 224.848,10.1020025 224.848,9.598 C224.848,9.10333086 224.913333,8.63200224 225.044,8.184 C225.174667,7.73599776 225.372999,7.34400168 225.639,7.008 C225.905001,6.67199832 226.231665,6.40600098 226.619,6.21 C227.006335,6.01399902 227.461331,5.916 227.984,5.916 C228.488003,5.916 228.926665,6.01166571 229.3,6.203 C229.673335,6.39433429 229.983665,6.65099839 230.231,6.973 C230.478335,7.29500161 230.664999,7.66833121 230.791,8.093 C230.917001,8.51766879 230.98,8.96799762 230.98,9.444 C230.98,9.54666718 230.977667,9.62599972 230.973,9.682 C230.968333,9.73800028 230.966,9.78466648 230.966,9.822 L226.038,9.822 Z M227.97,6.798 C227.381997,6.798 226.927002,7.0079979 226.605,7.428 C226.282998,7.8480021 226.098667,8.41266312 226.052,9.122 L229.79,9.122 C229.79,8.83266522 229.757334,8.55033471 229.692,8.275 C229.626666,7.99966529 229.519334,7.75233443 229.37,7.533 C229.220666,7.31366557 229.031668,7.13633401 228.803,7.001 C228.574332,6.86566599 228.296668,6.798 227.97,6.798 Z M238.148,11.488 C237.867999,12.0480028 237.492336,12.4749985 237.021,12.769 C236.549664,13.0630015 235.978003,13.21 235.306,13.21 C234.755331,13.21 234.277002,13.1143343 233.871,12.923 C233.464998,12.7316657 233.129001,12.4726683 232.863,12.146 C232.596999,11.8193317 232.401001,11.4343356 232.275,10.991 C232.148999,10.5476644 232.086,10.0740025 232.086,9.57 C232.086,9.0566641 232.153666,8.57833555 232.289,8.135 C232.424334,7.69166445 232.624999,7.3066683 232.891,6.98 C233.157001,6.6533317 233.490665,6.39433429 233.892,6.203 C234.293335,6.01166571 234.764664,5.916 235.306,5.916 C235.987337,5.916 236.554331,6.06766515 237.007,6.371 C237.459669,6.67433485 237.825999,7.10133058 238.106,7.652 L237.126,8.114 C236.771332,7.25532904 236.174004,6.826 235.334,6.826 C234.979332,6.826 234.673668,6.8959993 234.417,7.036 C234.160332,7.1760007 233.950334,7.36733212 233.787,7.61 C233.623666,7.85266788 233.502334,8.13499839 233.423,8.457 C233.343666,8.77900161 233.304,9.1266648 233.304,9.5 C233.304,9.85466844 233.341333,10.1999983 233.416,10.536 C233.490667,10.8720017 233.611999,11.1706654 233.78,11.432 C233.948001,11.6933346 234.162665,11.9033325 234.424,12.062 C234.685335,12.2206675 235.007331,12.3 235.39,12.3 C235.875336,12.3 236.267332,12.1763346 236.566,11.929 C236.864668,11.6816654 237.093333,11.362002 237.252,10.97 L238.148,11.488 Z M240.318,9.822 C240.364667,10.6153373 240.567665,11.2289978 240.927,11.663 C241.286335,12.0970022 241.787997,12.314 242.432,12.314 C243.244004,12.314 243.855331,11.9313372 244.266,11.166 L245.148,11.656 C244.877332,12.1133356 244.518002,12.4866652 244.07,12.776 C243.621998,13.0653348 243.057337,13.21 242.376,13.21 C241.834664,13.21 241.361002,13.1166676 240.955,12.93 C240.548998,12.7433324 240.210668,12.4866683 239.94,12.16 C239.669332,11.8333317 239.466334,11.4506689 239.331,11.012 C239.195666,10.5733311 239.128,10.1020025 239.128,9.598 C239.128,9.10333086 239.193333,8.63200224 239.324,8.184 C239.454667,7.73599776 239.652999,7.34400168 239.919,7.008 C240.185001,6.67199832 240.511665,6.40600098 240.899,6.21 C241.286335,6.01399902 241.741331,5.916 242.264,5.916 C242.768003,5.916 243.206665,6.01166571 243.58,6.203 C243.953335,6.39433429 244.263665,6.65099839 244.511,6.973 C244.758335,7.29500161 244.944999,7.66833121 245.071,8.093 C245.197001,8.51766879 245.26,8.96799762 245.26,9.444 C245.26,9.54666718 245.257667,9.62599972 245.253,9.682 C245.248333,9.73800028 245.246,9.78466648 245.246,9.822 L240.318,9.822 Z M242.25,6.798 C241.661997,6.798 241.207002,7.0079979 240.885,7.428 C240.562998,7.8480021 240.378667,8.41266312 240.332,9.122 L244.07,9.122 C244.07,8.83266522 244.037334,8.55033471 243.972,8.275 C243.906666,7.99966529 243.799334,7.75233443 243.65,7.533 C243.500666,7.31366557 243.311668,7.13633401 243.083,7.001 C242.854332,6.86566599 242.576668,6.798 242.25,6.798 Z M246.674,3.438 L247.836,3.438 L247.836,4.6 L246.674,4.6 L246.674,3.438 Z M246.674,6.112 L247.836,6.112 L247.836,13 L246.674,13 L246.674,6.112 Z M249.096,6.112 L250.412,6.112 L252.092,11.908 L253.758,6.112 L255.018,6.112 L252.75,13 L251.35,13 L249.096,6.112 Z M257.146,9.822 C257.192667,10.6153373 257.395665,11.2289978 257.755,11.663 C258.114335,12.0970022 258.615997,12.314 259.26,12.314 C260.072004,12.314 260.683331,11.9313372 261.094,11.166 L261.976,11.656 C261.705332,12.1133356 261.346002,12.4866652 260.898,12.776 C260.449998,13.0653348 259.885337,13.21 259.204,13.21 C258.662664,13.21 258.189002,13.1166676 257.783,12.93 C257.376998,12.7433324 257.038668,12.4866683 256.768,12.16 C256.497332,11.8333317 256.294334,11.4506689 256.159,11.012 C256.023666,10.5733311 255.956,10.1020025 255.956,9.598 C255.956,9.10333086 256.021333,8.63200224 256.152,8.184 C256.282667,7.73599776 256.480999,7.34400168 256.747,7.008 C257.013001,6.67199832 257.339665,6.40600098 257.727,6.21 C258.114335,6.01399902 258.569331,5.916 259.092,5.916 C259.596003,5.916 260.034665,6.01166571 260.408,6.203 C260.781335,6.39433429 261.091665,6.65099839 261.339,6.973 C261.586335,7.29500161 261.772999,7.66833121 261.899,8.093 C262.025001,8.51766879 262.088,8.96799762 262.088,9.444 C262.088,9.54666718 262.085667,9.62599972 262.081,9.682 C262.076333,9.73800028 262.074,9.78466648 262.074,9.822 L257.146,9.822 Z M259.078,6.798 C258.489997,6.798 258.035002,7.0079979 257.713,7.428 C257.390998,7.8480021 257.206667,8.41266312 257.16,9.122 L260.898,9.122 C260.898,8.83266522 260.865334,8.55033471 260.8,8.275 C260.734666,7.99966529 260.627334,7.75233443 260.478,7.533 C260.328666,7.31366557 260.139668,7.13633401 259.911,7.001 C259.682332,6.86566599 259.404668,6.798 259.078,6.798 Z M266.652,6.112 L267.66,6.112 L267.786,7.484 C267.963334,7.0639979 268.245665,6.69766823 268.633,6.385 C269.020335,6.07233177 269.498664,5.916 270.068,5.916 C270.78667,5.916 271.316332,6.14466438 271.657,6.602 C271.997668,7.05933562 272.168,7.69866256 272.168,8.52 L272.168,13 L271.006,13 L271.006,8.758 C271.006,8.13266354 270.880001,7.67300147 270.628,7.379 C270.375999,7.08499853 270.035335,6.938 269.606,6.938 C269.092664,6.938 268.665668,7.1479979 268.325,7.568 C267.984332,7.9880021 267.814,8.58066284 267.814,9.346 L267.814,13 L266.652,13 L266.652,6.112 Z M274.814,9.822 C274.860667,10.6153373 275.063665,11.2289978 275.423,11.663 C275.782335,12.0970022 276.283997,12.314 276.928,12.314 C277.740004,12.314 278.351331,11.9313372 278.762,11.166 L279.644,11.656 C279.373332,12.1133356 279.014002,12.4866652 278.566,12.776 C278.117998,13.0653348 277.553337,13.21 276.872,13.21 C276.330664,13.21 275.857002,13.1166676 275.451,12.93 C275.044998,12.7433324 274.706668,12.4866683 274.436,12.16 C274.165332,11.8333317 273.962334,11.4506689 273.827,11.012 C273.691666,10.5733311 273.624,10.1020025 273.624,9.598 C273.624,9.10333086 273.689333,8.63200224 273.82,8.184 C273.950667,7.73599776 274.148999,7.34400168 274.415,7.008 C274.681001,6.67199832 275.007665,6.40600098 275.395,6.21 C275.782335,6.01399902 276.237331,5.916 276.76,5.916 C277.264003,5.916 277.702665,6.01166571 278.076,6.203 C278.449335,6.39433429 278.759665,6.65099839 279.007,6.973 C279.254335,7.29500161 279.440999,7.66833121 279.567,8.093 C279.693001,8.51766879 279.756,8.96799762 279.756,9.444 C279.756,9.54666718 279.753667,9.62599972 279.749,9.682 C279.744333,9.73800028 279.742,9.78466648 279.742,9.822 L274.814,9.822 Z M276.746,6.798 C276.157997,6.798 275.703002,7.0079979 275.381,7.428 C275.058998,7.8480021 274.874667,8.41266312 274.828,9.122 L278.566,9.122 C278.566,8.83266522 278.533334,8.55033471 278.468,8.275 C278.402666,7.99966529 278.295334,7.75233443 278.146,7.533 C277.996666,7.31366557 277.807668,7.13633401 277.579,7.001 C277.350332,6.86566599 277.072668,6.798 276.746,6.798 Z M280.666,6.112 L281.926,6.112 L283.326,11.88 L284.712,6.112 L286,6.112 L287.358,11.88 L288.772,6.112 L290.032,6.112 L288.002,13 L286.714,13 L285.342,7.694 L283.97,13 L282.682,13 L280.666,6.112 Z M291.502,11.306 C291.735335,11.6046682 292.036331,11.851999 292.405,12.048 C292.773669,12.244001 293.177331,12.342 293.616,12.342 C294.008002,12.342 294.348665,12.2486676 294.638,12.062 C294.927335,11.8753324 295.072,11.5953352 295.072,11.222 C295.072,10.9326652 294.976334,10.7063342 294.785,10.543 C294.593666,10.3796659 294.355668,10.2420006 294.071,10.13 C293.786332,10.0179994 293.476002,9.9153338 293.14,9.822 C292.803998,9.7286662 292.493668,9.60733408 292.209,9.458 C291.924332,9.30866592 291.686334,9.11266788 291.495,8.87 C291.303666,8.62733212 291.208,8.2960021 291.208,7.876 C291.208,7.53066494 291.277999,7.23433457 291.418,6.987 C291.558001,6.73966543 291.742332,6.53666746 291.971,6.378 C292.199668,6.21933254 292.463332,6.10266704 292.762,6.028 C293.060668,5.95333296 293.373332,5.916 293.7,5.916 C294.670672,5.916 295.477997,6.1959972 296.122,6.756 L295.534,7.54 C295.328666,7.32533226 295.055668,7.14566739 294.715,7.001 C294.374332,6.85633261 294.022002,6.784 293.658,6.784 C293.499333,6.784 293.343001,6.80266648 293.189,6.84 C293.034999,6.87733352 292.899667,6.93566627 292.783,7.015 C292.666333,7.09433373 292.573,7.19466606 292.503,7.316 C292.433,7.43733394 292.398,7.58666578 292.398,7.764 C292.398,8.03466802 292.493666,8.24466592 292.685,8.394 C292.876334,8.54333408 293.114332,8.67166613 293.399,8.779 C293.683668,8.88633387 293.991665,8.98899951 294.323,9.087 C294.654335,9.18500049 294.962332,9.31099923 295.247,9.465 C295.531668,9.61900077 295.769666,9.82199874 295.961,10.074 C296.152334,10.3260013 296.248,10.6619979 296.248,11.082 C296.248,11.4366684 296.175667,11.7469987 296.031,12.013 C295.886333,12.2790013 295.695001,12.5006658 295.457,12.678 C295.218999,12.8553342 294.943668,12.9883329 294.631,13.077 C294.318332,13.1656671 293.994002,13.21 293.658,13.21 C292.500661,13.21 291.581337,12.8366704 290.9,12.09 L291.502,11.306 Z" id="Receive-news" fill="#3F4F5A"></path>
                <g id="Radio-button-Copy-11" transform="translate(215.000000, 23.000000)">
                    <path d="M36,0 C42.627417,0 48,5.372583 48,12 C48,18.627417 42.627417,24 36,24 L13,24 L13,23.9589262 C12.6702666,23.9861287 12.3367532,24 12,24 C5.372583,24 0,18.627417 0,12 C0,5.372583 5.372583,0 12,0 C12.3367532,0 12.6702666,0.0138713289 13,0.041073777 L13,0 L36,0 Z" id="Combined-Shape" stroke="#E1E5E9" fill="#E1E5E9"></path>
                    <circle id="Oval" stroke="#AAB1B6" fill="#FFFFFF" cx="12" cy="12" r="12"></circle>
                </g>
                <g id="Group-2">
                    <path d="M0.98,3.116 L6.86,3.116 L6.86,4.096 L2.24,4.096 L2.24,7.344 L5.838,7.344 L5.838,8.324 L2.24,8.324 L2.24,12.02 L7.056,12.02 L7.056,13 L0.98,13 L0.98,3.116 Z M8.386,8.338 L12.096,8.338 L12.096,9.36 L8.386,9.36 L8.386,8.338 Z M13.748,6.112 L14.756,6.112 L14.882,7.456 C15.0500008,6.97999762 15.3113316,6.60433471 15.666,6.329 C16.0206684,6.05366529 16.4546641,5.916 16.968,5.916 C17.509336,5.916 17.9339985,6.06999846 18.242,6.378 C18.5500015,6.68600154 18.7459996,7.05933114 18.83,7.498 C18.9140004,7.28333226 19.0189994,7.08033429 19.145,6.889 C19.2710006,6.69766571 19.4226658,6.52966739 19.6,6.385 C19.7773342,6.24033261 19.9826655,6.12600042 20.216,6.042 C20.4493345,5.95799958 20.7153318,5.916 21.014,5.916 C21.406002,5.916 21.730332,5.98366599 21.987,6.119 C22.2436679,6.25433401 22.4489992,6.4386655 22.603,6.672 C22.7570008,6.9053345 22.8666663,7.17833177 22.932,7.491 C22.9973337,7.80366823 23.03,8.13266494 23.03,8.478 L23.03,13 L21.868,13 L21.868,8.772 C21.868,8.15599692 21.7583344,7.69633485 21.539,7.393 C21.3196656,7.08966515 21.0000021,6.938 20.58,6.938 C20.1226644,6.938 19.7400015,7.14099797 19.432,7.547 C19.1239985,7.95300203 18.97,8.53399622 18.97,9.29 L18.97,13 L17.808,13 L17.808,8.828 C17.808,8.18399678 17.6960011,7.70800154 17.472,7.4 C17.2479989,7.09199846 16.9353353,6.938 16.534,6.938 C16.0859978,6.938 15.7033349,7.14566459 15.386,7.561 C15.0686651,7.97633541 14.91,8.57599608 14.91,9.36 L14.91,13 L13.748,13 L13.748,6.112 Z M29.12,13 C29.0173328,12.6639983 28.9566668,12.262669 28.938,11.796 C28.7513324,12.2253355 28.4643353,12.5683321 28.077,12.825 C27.6896647,13.081668 27.2300027,13.21 26.698,13.21 C26.0259966,13.21 25.494002,13.0186686 25.102,12.636 C24.709998,12.2533314 24.514,11.7400032 24.514,11.096 C24.514,10.7319982 24.5793327,10.4263346 24.71,10.179 C24.8406673,9.93166543 25.0226655,9.72633415 25.256,9.563 C25.4893345,9.39966585 25.7646651,9.2713338 26.082,9.178 C26.3993349,9.0846662 26.7446648,9.01000028 27.118,8.954 L28.882,8.688 L28.882,8.254 C28.882,7.94599846 28.844667,7.6986676 28.77,7.512 C28.695333,7.3253324 28.5926673,7.18066718 28.462,7.078 C28.3313327,6.97533282 28.1820008,6.90766683 28.014,6.875 C27.8459992,6.84233317 27.6686676,6.826 27.482,6.826 C26.9499973,6.826 26.5113351,6.92399902 26.166,7.12 C25.8206649,7.31600098 25.5313345,7.56333184 25.298,7.862 L24.696,7.106 C24.966668,6.7793317 25.3423309,6.4993345 25.823,6.266 C26.3036691,6.0326655 26.8986631,5.916 27.608,5.916 C28.466671,5.916 29.0896647,6.10733142 29.477,6.49 C29.8643353,6.87266858 30.058,7.48866242 30.058,8.338 L30.058,11.124 C30.058,11.3480011 30.0603333,11.5439992 30.065,11.712 C30.0696667,11.8800008 30.0789999,12.0363326 30.093,12.181 C30.1070001,12.3256674 30.1279999,12.4633327 30.156,12.594 C30.1840001,12.7246673 30.2213331,12.8599993 30.268,13 L29.12,13 Z M28.882,9.458 L27.23,9.724 C26.6606638,9.82666718 26.2570012,9.98066564 26.019,10.186 C25.7809988,10.3913344 25.662,10.6759982 25.662,11.04 C25.662,11.4133352 25.7716656,11.7259987 25.991,11.978 C26.2103344,12.2300013 26.5346645,12.356 26.964,12.356 C27.2253346,12.356 27.4726655,12.3046672 27.706,12.202 C27.9393345,12.0993328 28.1423325,11.9570009 28.315,11.775 C28.4876675,11.5929991 28.6253328,11.373668 28.728,11.117 C28.8306672,10.8603321 28.882,10.5780015 28.882,10.27 L28.882,9.458 Z M31.92,3.438 L33.082,3.438 L33.082,4.6 L31.92,4.6 L31.92,3.438 Z M31.92,6.112 L33.082,6.112 L33.082,13 L31.92,13 L31.92,6.112 Z M34.874,3.116 L36.036,3.116 L36.036,13 L34.874,13 L34.874,3.116 Z" id="E-mail" fill="#4C5358"></path>
                    <path d="M0.5,45.5 L176.5,45.5" id="Line" stroke="#7C878E" stroke-linecap="square"></path>
                </g>
            </g>
        </g>
    </g>
</svg>