<?xml version="1.0" encoding="UTF-8"?>
<svg width="321px" height="64px" viewBox="0 0 321 64" version="1.1" xmlns="http://www.w3.org/2000/svg" xmlns:xlink="http://www.w3.org/1999/xlink">
    <!-- Generator: Sketch 47 (45396) - http://www.bohemiancoding.com/sketch -->
    <title>Toolbar</title>
    <desc>Created with Sketch.</desc>
    <defs></defs>
    <g id="Page-1" stroke="none" stroke-width="1" fill="none" fill-rule="evenodd">
        <g id="Buttons-Usage-extra-large-1200" transform="translate(-796.000000, -2211.000000)">
            <g id="Toolbar" transform="translate(796.000000, 2211.000000)">
                <g id="Nav-bar">
                    <rect id="Blue" fill="#4AC7ED" x="0" y="0" width="20" height="4"></rect>
                    <rect id="Orange" fill="#F48C3B" x="20" y="0" width="52" height="4"></rect>
                    <rect id="Grey" fill="#A9B1B5" x="72" y="0" width="103" height="4"></rect>
                    <rect id="Green" fill="#ADC543" x="175" y="0" width="146" height="4"></rect>
                    <rect id="Bar" fill="#495C6A" x="0" y="4" width="321" height="60"></rect>
                    <path d="M117.552,27.292 L119.172,27.292 L119.172,32.782 L125.382,32.782 L125.382,27.292 L127.002,27.292 L127.002,40 L125.382,40 L125.382,34.132 L119.172,34.132 L119.172,40 L117.552,40 L117.552,27.292 Z M130.548,35.914 C130.608,36.9340051 130.868998,37.7229972 131.331,38.281 C131.793002,38.8390028 132.437996,39.118 133.266,39.118 C134.310005,39.118 135.095997,38.6260049 135.624,37.642 L136.758,38.272 C136.409998,38.8600029 135.948003,39.3399981 135.372,39.712 C134.795997,40.0840019 134.070004,40.27 133.194,40.27 C132.497997,40.27 131.889003,40.1500012 131.367,39.91 C130.844997,39.6699988 130.410002,39.3400021 130.062,38.92 C129.713998,38.4999979 129.453001,38.0080028 129.279,37.444 C129.104999,36.8799972 129.018,36.2740032 129.018,35.626 C129.018,34.9899968 129.101999,34.3840029 129.27,33.808 C129.438001,33.2319971 129.692998,32.7280022 130.035,32.296 C130.377002,31.8639978 130.796998,31.5220013 131.295,31.27 C131.793002,31.0179987 132.377997,30.892 133.05,30.892 C133.698003,30.892 134.261998,31.0149988 134.742,31.261 C135.222002,31.5070012 135.620998,31.8369979 135.939,32.251 C136.257002,32.6650021 136.496999,33.1449973 136.659,33.691 C136.821001,34.2370027 136.902,34.8159969 136.902,35.428 C136.902,35.5600007 136.899,35.6619996 136.893,35.734 C136.887,35.8060004 136.884,35.8659998 136.884,35.914 L130.548,35.914 Z M133.032,32.026 C132.275996,32.026 131.691002,32.2959973 131.277,32.836 C130.862998,33.3760027 130.626,34.1019954 130.566,35.014 L135.372,35.014 C135.372,34.6419981 135.33,34.2790018 135.246,33.925 C135.162,33.5709982 135.024001,33.2530014 134.832,32.971 C134.639999,32.6889986 134.397001,32.4610009 134.103,32.287 C133.808999,32.1129991 133.452002,32.026 133.032,32.026 Z M144.282,40 C144.149999,39.5679978 144.072,39.052003 144.048,38.452 C143.807999,39.0040028 143.439002,39.4449983 142.941,39.775 C142.442998,40.1050016 141.852003,40.27 141.168,40.27 C140.303996,40.27 139.620003,40.0240025 139.116,39.532 C138.611997,39.0399975 138.36,38.3800041 138.36,37.552 C138.36,37.0839977 138.443999,36.6910016 138.612,36.373 C138.780001,36.0549984 139.013999,35.791001 139.314,35.581 C139.614002,35.370999 139.967998,35.2060006 140.376,35.086 C140.784002,34.9659994 141.227998,34.8700004 141.708,34.798 L143.976,34.456 L143.976,33.898 C143.976,33.501998 143.928,33.1840012 143.832,32.944 C143.736,32.7039988 143.604001,32.5180007 143.436,32.386 C143.267999,32.2539993 143.076001,32.1670002 142.86,32.125 C142.643999,32.0829998 142.416001,32.062 142.176,32.062 C141.491997,32.062 140.928002,32.1879987 140.484,32.44 C140.039998,32.6920013 139.668002,33.0099981 139.368,33.394 L138.594,32.422 C138.942002,32.0019979 139.424997,31.6420015 140.043,31.342 C140.661003,31.0419985 141.425995,30.892 142.338,30.892 C143.442006,30.892 144.242998,31.1379975 144.741,31.63 C145.239002,32.1220025 145.488,32.9139945 145.488,34.006 L145.488,37.588 C145.488,37.8760014 145.491,38.1279989 145.497,38.344 C145.503,38.5600011 145.515,38.7609991 145.533,38.947 C145.551,39.1330009 145.578,39.3099992 145.614,39.478 C145.65,39.6460008 145.698,39.8199991 145.758,40 L144.282,40 Z M143.976,35.446 L141.852,35.788 C141.119996,35.9200007 140.601002,36.1179987 140.295,36.382 C139.988998,36.6460013 139.836,37.0119977 139.836,37.48 C139.836,37.9600024 139.976999,38.3619984 140.259,38.686 C140.541001,39.0100016 140.957997,39.172 141.51,39.172 C141.846002,39.172 142.163998,39.1060007 142.464,38.974 C142.764002,38.8419993 143.024999,38.6590012 143.247,38.425 C143.469001,38.1909988 143.645999,37.9090017 143.778,37.579 C143.910001,37.2489984 143.976,36.886002 143.976,36.49 L143.976,35.446 Z M153.84,38.272 C153.599999,38.872003 153.246002,39.3459983 152.778,39.694 C152.309998,40.0420017 151.728003,40.216 151.032,40.216 C150.479997,40.216 149.985002,40.1020011 149.547,39.874 C149.108998,39.6459989 148.737002,39.328002 148.431,38.92 C148.124998,38.511998 147.891001,38.0200029 147.729,37.444 C147.566999,36.8679971 147.486,36.2320035 147.486,35.536 C147.486,34.8159964 147.569999,34.1710029 147.738,33.601 C147.906001,33.0309971 148.145998,32.548002 148.458,32.152 C148.770002,31.755998 149.144998,31.4500011 149.583,31.234 C150.021002,31.0179989 150.503997,30.91 151.032,30.91 C151.752004,30.91 152.339998,31.0809983 152.796,31.423 C153.252002,31.7650017 153.575999,32.1759976 153.768,32.656 L153.768,27.292 L155.28,27.292 L155.28,40 L153.84,40 L153.84,38.272 Z M153.768,35.518 C153.768,35.1459981 153.759,34.855001 153.741,34.645 C153.723,34.434999 153.702,34.2640007 153.678,34.132 C153.618,33.8679987 153.528001,33.6160012 153.408,33.376 C153.287999,33.1359988 153.135001,32.9230009 152.949,32.737 C152.762999,32.5509991 152.544001,32.4040005 152.292,32.296 C152.039999,32.1879995 151.752002,32.134 151.428,32.134 C151.019998,32.134 150.669001,32.2239991 150.375,32.404 C150.080999,32.5840009 149.835001,32.8269985 149.637,33.133 C149.438999,33.4390015 149.292,33.7989979 149.196,34.213 C149.1,34.6270021 149.052,35.0679977 149.052,35.536 C149.052,36.0400025 149.105999,36.5049979 149.214,36.931 C149.322001,37.3570021 149.477999,37.7229985 149.682,38.029 C149.886001,38.3350015 150.137999,38.5749991 150.438,38.749 C150.738001,38.9230009 151.079998,39.01 151.464,39.01 C151.764002,39.01 152.036999,38.9560005 152.283,38.848 C152.529001,38.7399995 152.744999,38.590001 152.931,38.398 C153.117001,38.205999 153.269999,37.9870012 153.39,37.741 C153.510001,37.4949988 153.6,37.2340014 153.66,36.958 C153.732,36.6219983 153.768,36.1720028 153.768,35.608 L153.768,35.518 Z M158.7,35.914 C158.76,36.9340051 159.020998,37.7229972 159.483,38.281 C159.945002,38.8390028 160.589996,39.118 161.418,39.118 C162.462005,39.118 163.247997,38.6260049 163.776,37.642 L164.91,38.272 C164.561998,38.8600029 164.100003,39.3399981 163.524,39.712 C162.947997,40.0840019 162.222004,40.27 161.346,40.27 C160.649997,40.27 160.041003,40.1500012 159.519,39.91 C158.996997,39.6699988 158.562002,39.3400021 158.214,38.92 C157.865998,38.4999979 157.605001,38.0080028 157.431,37.444 C157.256999,36.8799972 157.17,36.2740032 157.17,35.626 C157.17,34.9899968 157.253999,34.3840029 157.422,33.808 C157.590001,33.2319971 157.844998,32.7280022 158.187,32.296 C158.529002,31.8639978 158.948998,31.5220013 159.447,31.27 C159.945002,31.0179987 160.529997,30.892 161.202,30.892 C161.850003,30.892 162.413998,31.0149988 162.894,31.261 C163.374002,31.5070012 163.772998,31.8369979 164.091,32.251 C164.409002,32.6650021 164.648999,33.1449973 164.811,33.691 C164.973001,34.2370027 165.054,34.8159969 165.054,35.428 C165.054,35.5600007 165.051,35.6619996 165.045,35.734 C165.039,35.8060004 165.036,35.8659998 165.036,35.914 L158.7,35.914 Z M161.184,32.026 C160.427996,32.026 159.843002,32.2959973 159.429,32.836 C159.014998,33.3760027 158.778,34.1019954 158.718,35.014 L163.524,35.014 C163.524,34.6419981 163.482,34.2790018 163.398,33.925 C163.314,33.5709982 163.176001,33.2530014 162.984,32.971 C162.791999,32.6889986 162.549001,32.4610009 162.255,32.287 C161.960999,32.1129991 161.604002,32.026 161.184,32.026 Z M166.872,31.144 L168.168,31.144 L168.312,33.124 C168.564001,32.4759968 168.965997,31.9420021 169.518,31.522 C170.070003,31.1019979 170.723996,30.892 171.48,30.892 L171.48,32.476 C171.311999,32.4399998 171.126001,32.422 170.922,32.422 C170.621999,32.422 170.322001,32.4759995 170.022,32.584 C169.721998,32.6920005 169.449001,32.8659988 169.203,33.106 C168.956999,33.3460012 168.756001,33.6549981 168.6,34.033 C168.443999,34.4110019 168.366,34.8699973 168.366,35.41 L168.366,40 L166.872,40 L166.872,31.144 Z M177.78,32.17 L176.268,32.17 L176.268,31.144 L176.592,31.144 C176.964002,31.144 177.254999,31.1050004 177.465,31.027 C177.675001,30.9489996 177.833999,30.8290008 177.942,30.667 C178.050001,30.5049992 178.128,30.2920013 178.176,30.028 C178.224,29.7639987 178.266,29.4400019 178.302,29.056 L178.338,28.732 L179.274,28.732 L179.274,31.144 L181.182,31.144 L181.182,32.17 L179.274,32.17 L179.274,37.678 C179.274,38.1820025 179.348999,38.5449989 179.499,38.767 C179.649001,38.9890011 179.927998,39.1 180.336,39.1 C180.660002,39.1 180.959999,39.0280007 181.236,38.884 L181.398,39.964 C180.941998,40.168001 180.438003,40.27 179.886,40.27 C179.453998,40.27 179.103001,40.2100006 178.833,40.09 C178.562999,39.9699994 178.350001,39.808001 178.194,39.604 C178.037999,39.399999 177.93,39.1540014 177.87,38.866 C177.81,38.5779986 177.78,38.2660017 177.78,37.93 L177.78,32.17 Z M182.982,27.706 L184.476,27.706 L184.476,29.2 L182.982,29.2 L182.982,27.706 Z M182.982,31.144 L184.476,31.144 L184.476,40 L182.982,40 L182.982,31.144 Z M187.554,32.17 L186.042,32.17 L186.042,31.144 L186.366,31.144 C186.738002,31.144 187.028999,31.1050004 187.239,31.027 C187.449001,30.9489996 187.607999,30.8290008 187.716,30.667 C187.824001,30.5049992 187.902,30.2920013 187.95,30.028 C187.998,29.7639987 188.04,29.4400019 188.076,29.056 L188.112,28.732 L189.048,28.732 L189.048,31.144 L190.956,31.144 L190.956,32.17 L189.048,32.17 L189.048,37.678 C189.048,38.1820025 189.122999,38.5449989 189.273,38.767 C189.423001,38.9890011 189.701998,39.1 190.11,39.1 C190.434002,39.1 190.733999,39.0280007 191.01,38.884 L191.172,39.964 C190.715998,40.168001 190.212003,40.27 189.66,40.27 C189.227998,40.27 188.877001,40.2100006 188.607,40.09 C188.336999,39.9699994 188.124001,39.808001 187.968,39.604 C187.811999,39.399999 187.704,39.1540014 187.644,38.866 C187.584,38.5779986 187.554,38.2660017 187.554,37.93 L187.554,32.17 Z M192.756,27.292 L194.25,27.292 L194.25,40 L192.756,40 L192.756,27.292 Z M197.688,35.914 C197.748,36.9340051 198.008998,37.7229972 198.471,38.281 C198.933002,38.8390028 199.577996,39.118 200.406,39.118 C201.450005,39.118 202.235997,38.6260049 202.764,37.642 L203.898,38.272 C203.549998,38.8600029 203.088003,39.3399981 202.512,39.712 C201.935997,40.0840019 201.210004,40.27 200.334,40.27 C199.637997,40.27 199.029003,40.1500012 198.507,39.91 C197.984997,39.6699988 197.550002,39.3400021 197.202,38.92 C196.853998,38.4999979 196.593001,38.0080028 196.419,37.444 C196.244999,36.8799972 196.158,36.2740032 196.158,35.626 C196.158,34.9899968 196.241999,34.3840029 196.41,33.808 C196.578001,33.2319971 196.832998,32.7280022 197.175,32.296 C197.517002,31.8639978 197.936998,31.5220013 198.435,31.27 C198.933002,31.0179987 199.517997,30.892 200.19,30.892 C200.838003,30.892 201.401998,31.0149988 201.882,31.261 C202.362002,31.5070012 202.760998,31.8369979 203.079,32.251 C203.397002,32.6650021 203.636999,33.1449973 203.799,33.691 C203.961001,34.2370027 204.042,34.8159969 204.042,35.428 C204.042,35.5600007 204.039,35.6619996 204.033,35.734 C204.027,35.8060004 204.024,35.8659998 204.024,35.914 L197.688,35.914 Z M200.172,32.026 C199.415996,32.026 198.831002,32.2959973 198.417,32.836 C198.002998,33.3760027 197.766,34.1019954 197.706,35.014 L202.512,35.014 C202.512,34.6419981 202.47,34.2790018 202.386,33.925 C202.302,33.5709982 202.164001,33.2530014 201.972,32.971 C201.779999,32.6889986 201.537001,32.4610009 201.243,32.287 C200.948999,32.1129991 200.592002,32.026 200.172,32.026 Z" id="Header-title" fill="#FFFFFF"></path>
                    <path d="M29.0178571,26.875 C29.1369054,26.9940482 29.1964286,27.1309516 29.1964286,27.2857143 C29.1964286,27.440477 29.1369054,27.5773804 29.0178571,27.6964286 L22,34.7142857 L29.0178571,41.7321429 C29.1369054,41.8511911 29.1964286,41.9880945 29.1964286,42.1428571 C29.1964286,42.2976198 29.1369054,42.4345232 29.0178571,42.5535714 L28.125,43.4464286 C28.0059518,43.5654768 27.8690484,43.625 27.7142857,43.625 C27.559523,43.625 27.4226196,43.5654768 27.3035714,43.4464286 L18.9821429,35.125 C18.8630946,35.0059518 18.8035714,34.8690484 18.8035714,34.7142857 C18.8035714,34.559523 18.8630946,34.4226196 18.9821429,34.3035714 L27.3035714,25.9821429 C27.4226196,25.8630946 27.559523,25.8035714 27.7142857,25.8035714 C27.8690484,25.8035714 28.0059518,25.8630946 28.125,25.9821429 L29.0178571,26.875 Z" id="angle-left---FontAwesome-Copy" fill="#4BB452AD57A8"></path>
                </g>
                <g id="Radio-button-Copy-12" transform="translate(257.000000, 22.000000)">
                    <path d="M36,0 C42.627417,0 48,5.372583 48,12 C48,18.627417 42.627417,24 36,24 L13,24 L13,23.9589262 C12.6702666,23.9861287 12.3367532,24 12,24 C5.372583,24 0,18.627417 0,12 C0,5.372583 5.372583,0 12,0 C12.3367532,0 12.6702666,0.0138713289 13,0.041073777 L13,0 L36,0 Z" id="Combined-Shape" stroke="#E1E5E9" fill="#E1E5E9"></path>
                    <circle id="Oval" stroke="#AAB1B6" fill="#FFFFFF" cx="12" cy="12" r="12"></circle>
                </g>
            </g>
        </g>
    </g>
</svg>