<?xml version="1.0" encoding="UTF-8"?>
<svg width="177px" height="122px" viewBox="0 0 177 122" version="1.1" xmlns="http://www.w3.org/2000/svg" xmlns:xlink="http://www.w3.org/1999/xlink">
    <!-- Generator: Sketch 47 (45396) - http://www.bohemiancoding.com/sketch -->
    <title>ListsVertically</title>
    <desc>Created with Sketch.</desc>
    <defs></defs>
    <g id="Page-1" stroke="none" stroke-width="1" fill="none" fill-rule="evenodd">
        <g id="Buttons-Usage-extra-large-1200" transform="translate(-423.000000, -1828.000000)">
            <g id="ListsVertically" transform="translate(423.000000, 1829.000000)">
                <path d="M3.864,6.116 L5.026,6.116 L8.512,16 L7.196,16 L6.314,13.34 L2.506,13.34 L1.624,16 L0.35,16 L3.864,6.116 Z M5.978,12.374 C5.71666536,11.5619959 5.45766795,10.7663372 5.201,9.987 C4.94433205,9.20766277 4.68533464,8.38867096 4.424,7.53 C4.18133212,8.3700042 3.92466802,9.18432939 3.654,9.973 C3.38333198,10.7616706 3.11266802,11.5619959 2.842,12.374 L5.978,12.374 Z M9.73,9.112 L10.906,9.112 L10.906,13.284 C10.906,13.9373366 11.0273321,14.4156651 11.27,14.719 C11.5126679,15.0223349 11.8533311,15.174 12.292,15.174 C12.8520028,15.174 13.2883318,14.9523356 13.601,14.509 C13.9136682,14.0656644 14.07,13.475337 14.07,12.738 L14.07,9.112 L15.232,9.112 L15.232,16 L14.14,16 L14.14,14.6 C14.0559996,14.8146677 13.9533339,15.0176657 13.832,15.209 C13.7106661,15.4003343 13.5613342,15.5683326 13.384,15.713 C13.2066658,15.8576674 13.0013345,15.9719996 12.768,16.056 C12.5346655,16.1400004 12.2593349,16.182 11.942,16.182 C11.1953296,16.182 10.6400018,15.9556689 10.276,15.503 C9.91199818,15.0503311 9.73,14.4086708 9.73,13.578 L9.73,9.112 Z M17.626,9.91 L16.45,9.91 L16.45,9.112 L16.702,9.112 C16.9913348,9.112 17.2176658,9.08166697 17.381,9.021 C17.5443341,8.96033303 17.6679996,8.86700063 17.752,8.741 C17.8360004,8.61499937 17.8966665,8.44933436 17.934,8.244 C17.9713335,8.03866564 18.0039999,7.78666816 18.032,7.488 L18.06,7.236 L18.788,7.236 L18.788,9.112 L20.272,9.112 L20.272,9.91 L18.788,9.91 L18.788,14.194 C18.788,14.586002 18.8463327,14.8683325 18.963,15.041 C19.0796672,15.2136675 19.2966651,15.3 19.614,15.3 C19.8660013,15.3 20.0993323,15.2440006 20.314,15.132 L20.44,15.972 C20.0853316,16.1306675 19.6933355,16.21 19.264,16.21 C18.9279983,16.21 18.655001,16.1633338 18.445,16.07 C18.2349989,15.9766662 18.0693339,15.8506675 17.948,15.692 C17.8266661,15.5333325 17.7426669,15.3420011 17.696,15.118 C17.6493331,14.8939989 17.626,14.6513346 17.626,14.39 L17.626,9.91 Z M24.528,16.21 C24.0053307,16.21 23.5456686,16.1143343 23.149,15.923 C22.7523313,15.7316657 22.4210013,15.470335 22.155,15.139 C21.8889987,14.807665 21.6906673,14.4203355 21.56,13.977 C21.4293327,13.5336645 21.364,13.0553359 21.364,12.542 C21.364,12.0286641 21.431666,11.5526689 21.567,11.114 C21.702334,10.6753311 21.9029987,10.2926683 22.169,9.966 C22.4350013,9.6393317 22.7663313,9.3826676 23.163,9.196 C23.5596686,9.0093324 24.0146641,8.916 24.528,8.916 C25.0413359,8.916 25.4963313,9.0093324 25.893,9.196 C26.2896686,9.3826676 26.623332,9.63699839 26.894,9.959 C27.164668,10.2810016 27.367666,10.6636644 27.503,11.107 C27.638334,11.5503355 27.706,12.0286641 27.706,12.542 C27.706,13.0553359 27.638334,13.5336645 27.503,13.977 C27.367666,14.4203355 27.164668,14.807665 26.894,15.139 C26.623332,15.470335 26.2896686,15.7316657 25.893,15.923 C25.4963313,16.1143343 25.0413359,16.21 24.528,16.21 Z M24.556,15.3 C24.8733349,15.3 25.1533321,15.2300007 25.396,15.09 C25.6386679,14.9499993 25.8393325,14.7563346 25.998,14.509 C26.1566675,14.2616654 26.2779996,13.9700017 26.362,13.634 C26.4460004,13.2979983 26.488,12.934002 26.488,12.542 C26.488,12.149998 26.4460004,11.788335 26.362,11.457 C26.2779996,11.125665 26.1520008,10.8386679 25.984,10.596 C25.8159992,10.3533321 25.6106679,10.164334 25.368,10.029 C25.1253321,9.89366599 24.8453349,9.826 24.528,9.826 C24.2013317,9.826 23.9166679,9.89366599 23.674,10.029 C23.4313321,10.164334 23.2306675,10.3533321 23.072,10.596 C22.9133325,10.8386679 22.7920004,11.125665 22.708,11.457 C22.6239996,11.788335 22.582,12.149998 22.582,12.542 C22.582,12.934002 22.6239996,13.2979983 22.708,13.634 C22.7920004,13.9700017 22.9156658,14.2616654 23.079,14.509 C23.2423341,14.7563346 23.4476654,14.9499993 23.695,15.09 C23.9423346,15.2300007 24.2293317,15.3 24.556,15.3 Z M29.19,9.112 L30.198,9.112 L30.324,10.456 C30.4920008,9.97999762 30.7533316,9.60433471 31.108,9.329 C31.4626684,9.05366529 31.8966641,8.916 32.41,8.916 C32.951336,8.916 33.3759985,9.06999846 33.684,9.378 C33.9920015,9.68600154 34.1879996,10.0593311 34.272,10.498 C34.3560004,10.2833323 34.4609994,10.0803343 34.587,9.889 C34.7130006,9.69766571 34.8646658,9.52966739 35.042,9.385 C35.2193342,9.24033261 35.4246655,9.12600042 35.658,9.042 C35.8913345,8.95799958 36.1573318,8.916 36.456,8.916 C36.848002,8.916 37.172332,8.98366599 37.429,9.119 C37.6856679,9.25433401 37.8909992,9.4386655 38.045,9.672 C38.1990008,9.9053345 38.3086663,10.1783318 38.374,10.491 C38.4393337,10.8036682 38.472,11.1326649 38.472,11.478 L38.472,16 L37.31,16 L37.31,11.772 C37.31,11.1559969 37.2003344,10.6963349 36.981,10.393 C36.7616656,10.0896651 36.4420021,9.938 36.022,9.938 C35.5646644,9.938 35.1820015,10.140998 34.874,10.547 C34.5659985,10.953002 34.412,11.5339962 34.412,12.29 L34.412,16 L33.25,16 L33.25,11.828 C33.25,11.1839968 33.1380011,10.7080015 32.914,10.4 C32.6899989,10.0919985 32.3773353,9.938 31.976,9.938 C31.5279978,9.938 31.1453349,10.1456646 30.828,10.561 C30.5106651,10.9763354 30.352,11.5759961 30.352,12.36 L30.352,16 L29.19,16 L29.19,9.112 Z M44.562,16 C44.4593328,15.6639983 44.3986668,15.262669 44.38,14.796 C44.1933324,15.2253355 43.9063353,15.568332 43.519,15.825 C43.1316647,16.081668 42.6720027,16.21 42.14,16.21 C41.4679966,16.21 40.936002,16.0186686 40.544,15.636 C40.151998,15.2533314 39.956,14.7400032 39.956,14.096 C39.956,13.7319982 40.0213327,13.4263346 40.152,13.179 C40.2826673,12.9316654 40.4646655,12.7263341 40.698,12.563 C40.9313345,12.3996659 41.2066651,12.2713338 41.524,12.178 C41.8413349,12.0846662 42.1866648,12.0100003 42.56,11.954 L44.324,11.688 L44.324,11.254 C44.324,10.9459985 44.286667,10.6986676 44.212,10.512 C44.137333,10.3253324 44.0346673,10.1806672 43.904,10.078 C43.7733327,9.97533282 43.6240008,9.90766683 43.456,9.875 C43.2879992,9.84233317 43.1106676,9.826 42.924,9.826 C42.3919973,9.826 41.9533351,9.92399902 41.608,10.12 C41.2626649,10.316001 40.9733345,10.5633318 40.74,10.862 L40.138,10.106 C40.408668,9.7793317 40.7843309,9.4993345 41.265,9.266 C41.7456691,9.0326655 42.3406631,8.916 43.05,8.916 C43.908671,8.916 44.5316647,9.10733142 44.919,9.49 C45.3063353,9.87266858 45.5,10.4886624 45.5,11.338 L45.5,14.124 C45.5,14.3480011 45.5023333,14.5439992 45.507,14.712 C45.5116667,14.8800008 45.5209999,15.0363326 45.535,15.181 C45.5490001,15.3256674 45.5699999,15.4633327 45.598,15.594 C45.6260001,15.7246673 45.6633331,15.8599993 45.71,16 L44.562,16 Z M44.324,12.458 L42.672,12.724 C42.1026638,12.8266672 41.6990012,12.9806656 41.461,13.186 C41.2229988,13.3913344 41.104,13.6759982 41.104,14.04 C41.104,14.4133352 41.2136656,14.7259987 41.433,14.978 C41.6523344,15.2300013 41.9766645,15.356 42.406,15.356 C42.6673346,15.356 42.9146655,15.3046672 43.148,15.202 C43.3813345,15.0993328 43.5843325,14.9570009 43.757,14.775 C43.9296675,14.5929991 44.0673328,14.373668 44.17,14.117 C44.2726672,13.860332 44.324,13.5780015 44.324,13.27 L44.324,12.458 Z M47.964,9.91 L46.788,9.91 L46.788,9.112 L47.04,9.112 C47.3293348,9.112 47.5556658,9.08166697 47.719,9.021 C47.8823341,8.96033303 48.0059996,8.86700063 48.09,8.741 C48.1740004,8.61499937 48.2346665,8.44933436 48.272,8.244 C48.3093335,8.03866564 48.3419999,7.78666816 48.37,7.488 L48.398,7.236 L49.126,7.236 L49.126,9.112 L50.61,9.112 L50.61,9.91 L49.126,9.91 L49.126,14.194 C49.126,14.586002 49.1843327,14.8683325 49.301,15.041 C49.4176672,15.2136675 49.6346651,15.3 49.952,15.3 C50.2040013,15.3 50.4373323,15.2440006 50.652,15.132 L50.778,15.972 C50.4233316,16.1306675 50.0313355,16.21 49.602,16.21 C49.2659983,16.21 48.993001,16.1633338 48.783,16.07 C48.5729989,15.9766662 48.4073339,15.8506675 48.286,15.692 C48.1646661,15.5333325 48.0806669,15.3420011 48.034,15.118 C47.9873331,14.8939989 47.964,14.6513346 47.964,14.39 L47.964,9.91 Z M52.01,6.438 L53.172,6.438 L53.172,7.6 L52.01,7.6 L52.01,6.438 Z M52.01,9.112 L53.172,9.112 L53.172,16 L52.01,16 L52.01,9.112 Z M60.718,14.488 C60.4379986,15.0480028 60.0623357,15.4749985 59.591,15.769 C59.1196643,16.0630015 58.5480034,16.21 57.876,16.21 C57.3253306,16.21 56.847002,16.1143343 56.441,15.923 C56.034998,15.7316657 55.6990013,15.4726683 55.433,15.146 C55.1669987,14.8193317 54.9710006,14.4343356 54.845,13.991 C54.7189994,13.5476644 54.656,13.0740025 54.656,12.57 C54.656,12.0566641 54.723666,11.5783356 54.859,11.135 C54.994334,10.6916644 55.1949987,10.3066683 55.461,9.98 C55.7270013,9.6533317 56.0606647,9.39433429 56.462,9.203 C56.8633353,9.01166571 57.334664,8.916 57.876,8.916 C58.5573367,8.916 59.1243311,9.06766515 59.577,9.371 C60.0296689,9.67433485 60.3959986,10.1013306 60.676,10.652 L59.696,11.114 C59.3413316,10.255329 58.7440042,9.826 57.904,9.826 C57.5493316,9.826 57.2436679,9.8959993 56.987,10.036 C56.730332,10.1760007 56.5203341,10.3673321 56.357,10.61 C56.1936658,10.8526679 56.0723337,11.1349984 55.993,11.457 C55.9136663,11.7790016 55.874,12.1266648 55.874,12.5 C55.874,12.8546684 55.911333,13.1999983 55.986,13.536 C56.060667,13.8720017 56.1819992,14.1706654 56.35,14.432 C56.5180008,14.6933346 56.7326654,14.9033325 56.994,15.062 C57.2553346,15.2206675 57.5773314,15.3 57.96,15.3 C58.4453358,15.3 58.8373318,15.1763346 59.136,14.929 C59.4346682,14.6816654 59.6633325,14.362002 59.822,13.97 L60.718,14.488 Z M65.156,9.112 L66.164,9.112 L66.276,10.652 C66.472001,10.1479975 66.7846645,9.7326683 67.214,9.406 C67.6433355,9.0793317 68.1519971,8.916 68.74,8.916 L68.74,10.148 C68.6093327,10.1199999 68.4646675,10.106 68.306,10.106 C68.0726655,10.106 67.8393345,10.1479996 67.606,10.232 C67.3726655,10.3160004 67.1603343,10.4513324 66.969,10.638 C66.7776657,10.8246676 66.6213339,11.0649985 66.5,11.359 C66.3786661,11.6530015 66.318,12.0099979 66.318,12.43 L66.318,16 L65.156,16 L65.156,9.112 Z M70.77,12.822 C70.8166669,13.6153373 71.0196649,14.2289978 71.379,14.663 C71.7383351,15.0970022 72.2399968,15.314 72.884,15.314 C73.6960041,15.314 74.3073313,14.9313372 74.718,14.166 L75.6,14.656 C75.329332,15.1133356 74.9700022,15.4866652 74.522,15.776 C74.0739978,16.0653348 73.5093367,16.21 72.828,16.21 C72.286664,16.21 71.813002,16.1166676 71.407,15.93 C71.000998,15.7433324 70.662668,15.4866683 70.392,15.16 C70.121332,14.8333317 69.918334,14.4506689 69.783,14.012 C69.647666,13.5733311 69.58,13.1020025 69.58,12.598 C69.58,12.1033309 69.6453327,11.6320022 69.776,11.184 C69.9066673,10.7359978 70.1049987,10.3440017 70.371,10.008 C70.6370013,9.67199832 70.9636647,9.40600098 71.351,9.21 C71.7383353,9.01399902 72.1933307,8.916 72.716,8.916 C73.2200025,8.916 73.6586648,9.01166571 74.032,9.203 C74.4053352,9.39433429 74.7156654,9.65099839 74.963,9.973 C75.2103346,10.2950016 75.3969994,10.6683312 75.523,11.093 C75.6490006,11.5176688 75.712,11.9679976 75.712,12.444 C75.712,12.5466672 75.7096667,12.6259997 75.705,12.682 C75.7003333,12.7380003 75.698,12.7846665 75.698,12.822 L70.77,12.822 Z M72.702,9.798 C72.1139971,9.798 71.6590016,10.0079979 71.337,10.428 C71.0149984,10.8480021 70.8306669,11.4126631 70.784,12.122 L74.522,12.122 C74.522,11.8326652 74.4893337,11.5503347 74.424,11.275 C74.3586663,10.9996653 74.2513341,10.7523344 74.102,10.533 C73.9526659,10.3136656 73.7636678,10.136334 73.535,10.001 C73.3063322,9.86566599 73.0286683,9.798 72.702,9.798 Z M77.126,9.112 L78.288,9.112 L78.288,10.442 C78.3720004,10.245999 78.4793327,10.0546676 78.61,9.868 C78.7406673,9.6813324 78.8969991,9.5180007 79.079,9.378 C79.2610009,9.2379993 79.4733321,9.12600042 79.716,9.042 C79.9586679,8.95799958 80.2339985,8.916 80.542,8.916 C80.9900022,8.916 81.379665,9.0093324 81.711,9.196 C82.042335,9.3826676 82.3153323,9.6393317 82.53,9.966 C82.7446677,10.2926683 82.9056661,10.6729978 83.013,11.107 C83.1203339,11.5410022 83.174,12.0099975 83.174,12.514 C83.174,13.1113363 83.1040007,13.6386644 82.964,14.096 C82.8239993,14.5533356 82.6280013,14.9359985 82.376,15.244 C82.1239987,15.5520015 81.8300017,15.7853325 81.494,15.944 C81.1579983,16.1026675 80.794002,16.182 80.402,16.182 C79.8886641,16.182 79.4476685,16.0560013 79.079,15.804 C78.7103315,15.5519987 78.4466675,15.2393352 78.288,14.866 L78.288,18.422 L77.126,18.422 L77.126,9.112 Z M78.288,12.598 C78.288,12.794001 78.2949999,12.9736659 78.309,13.137 C78.3230001,13.3003342 78.3393332,13.4379994 78.358,13.55 C78.3953335,13.7740011 78.4653328,13.9886656 78.568,14.194 C78.6706672,14.3993344 78.7966659,14.5789992 78.946,14.733 C79.0953341,14.8870008 79.2703323,15.0106662 79.471,15.104 C79.6716677,15.1973338 79.8933321,15.244 80.136,15.244 C80.4533349,15.244 80.7263322,15.1693341 80.955,15.02 C81.1836678,14.8706659 81.3726659,14.6700013 81.522,14.418 C81.6713341,14.1659987 81.7809996,13.8790016 81.851,13.557 C81.9210003,13.2349984 81.956,12.9013351 81.956,12.556 C81.956,12.2106649 81.9233337,11.8770016 81.858,11.555 C81.7926663,11.2329984 81.6876674,10.9483346 81.543,10.701 C81.3983326,10.4536654 81.2093345,10.2553341 80.976,10.106 C80.7426655,9.95666592 80.4626683,9.882 80.136,9.882 C79.8839987,9.882 79.653001,9.9286662 79.443,10.022 C79.2329989,10.1153338 79.0533341,10.2413325 78.904,10.4 C78.7546659,10.5586675 78.6310005,10.7406656 78.533,10.946 C78.4349995,11.1513344 78.3720001,11.3659989 78.344,11.59 C78.3253332,11.6833338 78.3113334,11.8116659 78.302,11.975 C78.2926666,12.1383341 78.288,12.3273323 78.288,12.542 L78.288,12.598 Z M84.658,6.116 L85.82,6.116 L85.82,16 L84.658,16 L84.658,6.116 Z M87.612,6.438 L88.774,6.438 L88.774,7.6 L87.612,7.6 L87.612,6.438 Z M87.612,9.112 L88.774,9.112 L88.774,16 L87.612,16 L87.612,9.112 Z M91.448,12.822 C91.4946669,13.6153373 91.6976649,14.2289978 92.057,14.663 C92.4163351,15.0970022 92.9179968,15.314 93.562,15.314 C94.3740041,15.314 94.9853313,14.9313372 95.396,14.166 L96.278,14.656 C96.007332,15.1133356 95.6480022,15.4866652 95.2,15.776 C94.7519978,16.0653348 94.1873367,16.21 93.506,16.21 C92.964664,16.21 92.491002,16.1166676 92.085,15.93 C91.678998,15.7433324 91.340668,15.4866683 91.07,15.16 C90.799332,14.8333317 90.596334,14.4506689 90.461,14.012 C90.325666,13.5733311 90.258,13.1020025 90.258,12.598 C90.258,12.1033309 90.3233327,11.6320022 90.454,11.184 C90.5846673,10.7359978 90.7829987,10.3440017 91.049,10.008 C91.3150013,9.67199832 91.6416647,9.40600098 92.029,9.21 C92.4163353,9.01399902 92.8713307,8.916 93.394,8.916 C93.8980025,8.916 94.3366648,9.01166571 94.71,9.203 C95.0833352,9.39433429 95.3936654,9.65099839 95.641,9.973 C95.8883346,10.2950016 96.0749994,10.6683312 96.201,11.093 C96.3270006,11.5176688 96.39,11.9679976 96.39,12.444 C96.39,12.5466672 96.3876667,12.6259997 96.383,12.682 C96.3783333,12.7380003 96.376,12.7846665 96.376,12.822 L91.448,12.822 Z M93.38,9.798 C92.7919971,9.798 92.3370016,10.0079979 92.015,10.428 C91.6929984,10.8480021 91.5086669,11.4126631 91.462,12.122 L95.2,12.122 C95.2,11.8326652 95.1673337,11.5503347 95.102,11.275 C95.0366663,10.9996653 94.9293341,10.7523344 94.78,10.533 C94.6306659,10.3136656 94.4416678,10.136334 94.213,10.001 C93.9843322,9.86566599 93.7066683,9.798 93.38,9.798 Z M97.93,14.306 C98.1633345,14.6046682 98.4643315,14.851999 98.833,15.048 C99.2016685,15.244001 99.6053311,15.342 100.044,15.342 C100.436002,15.342 100.776665,15.2486676 101.066,15.062 C101.355335,14.8753324 101.5,14.5953352 101.5,14.222 C101.5,13.9326652 101.404334,13.7063341 101.213,13.543 C101.021666,13.3796659 100.783668,13.2420006 100.499,13.13 C100.214332,13.0179994 99.9040017,12.9153338 99.568,12.822 C99.2319983,12.7286662 98.9216681,12.6073341 98.637,12.458 C98.3523319,12.3086659 98.1143343,12.1126679 97.923,11.87 C97.7316657,11.6273321 97.636,11.2960021 97.636,10.876 C97.636,10.5306649 97.7059993,10.2343346 97.846,9.987 C97.9860007,9.73966543 98.1703322,9.53666746 98.399,9.378 C98.6276678,9.21933254 98.8913318,9.10266704 99.19,9.028 C99.4886682,8.95333296 99.8013317,8.916 100.128,8.916 C101.098672,8.916 101.905997,9.1959972 102.55,9.756 L101.962,10.54 C101.756666,10.3253323 101.483668,10.1456674 101.143,10.001 C100.802332,9.85633261 100.450002,9.784 100.086,9.784 C99.9273325,9.784 99.7710008,9.80266648 99.617,9.84 C99.4629992,9.87733352 99.3276672,9.93566627 99.211,10.015 C99.0943327,10.0943337 99.0010003,10.1946661 98.931,10.316 C98.8609996,10.4373339 98.826,10.5866658 98.826,10.764 C98.826,11.034668 98.9216657,11.2446659 99.113,11.394 C99.3043343,11.5433341 99.5423319,11.6716661 99.827,11.779 C100.111668,11.8863339 100.419665,11.9889995 100.751,12.087 C101.082335,12.1850005 101.390332,12.3109992 101.675,12.465 C101.959668,12.6190008 102.197666,12.8219987 102.389,13.074 C102.580334,13.3260013 102.676,13.6619979 102.676,14.082 C102.676,14.4366684 102.603667,14.7469987 102.459,15.013 C102.314333,15.2790013 102.123001,15.5006658 101.885,15.678 C101.646999,15.8553342 101.371668,15.9883329 101.059,16.077 C100.746332,16.1656671 100.422002,16.21 100.086,16.21 C98.9286609,16.21 98.0093367,15.8366704 97.328,15.09 L97.93,14.306 Z" id="Automatic-replies" fill="#3F4F5A"></path>
                <path d="M0.98,54.116 L4.298,54.116 C4.79266914,54.116 5.2499979,54.1719994 5.67,54.284 C6.0900021,54.3960006 6.45166515,54.5686655 6.755,54.802 C7.05833485,55.0353345 7.29633247,55.3316649 7.469,55.691 C7.64166753,56.0503351 7.728,56.4819975 7.728,56.986 C7.728,57.5460028 7.64166753,58.021998 7.469,58.414 C7.29633247,58.806002 7.05600154,59.1233321 6.748,59.366 C6.43999846,59.6086679 6.07833541,59.7836661 5.663,59.891 C5.24766459,59.9983339 4.79733576,60.052 4.312,60.052 L2.24,60.052 L2.24,64 L0.98,64 L0.98,54.116 Z M4.102,59.044 C4.83000364,59.044 5.39466466,58.8876682 5.796,58.575 C6.19733534,58.2623318 6.398,57.7326704 6.398,56.986 C6.398,56.6406649 6.33966725,56.3466679 6.223,56.104 C6.10633275,55.8613321 5.94766767,55.6653341 5.747,55.516 C5.54633233,55.3666659 5.30833471,55.2593337 5.033,55.194 C4.75766529,55.1286663 4.46133492,55.096 4.144,55.096 L2.24,55.096 L2.24,59.044 L4.102,59.044 Z M9.576,60.822 C9.6226669,61.6153373 9.82566487,62.2289978 10.185,62.663 C10.5443351,63.0970022 11.0459968,63.314 11.69,63.314 C12.5020041,63.314 13.1133313,62.9313372 13.524,62.166 L14.406,62.656 C14.135332,63.1133356 13.7760022,63.4866652 13.328,63.776 C12.8799978,64.0653348 12.3153367,64.21 11.634,64.21 C11.092664,64.21 10.619002,64.1166676 10.213,63.93 C9.80699797,63.7433324 9.46866802,63.4866683 9.198,63.16 C8.92733198,62.8333317 8.72433401,62.4506689 8.589,62.012 C8.45366599,61.5733311 8.386,61.1020025 8.386,60.598 C8.386,60.1033309 8.45133268,59.6320022 8.582,59.184 C8.71266732,58.7359978 8.91099867,58.3440017 9.177,58.008 C9.44300133,57.6719983 9.76966473,57.406001 10.157,57.21 C10.5443353,57.013999 10.9993307,56.916 11.522,56.916 C12.0260025,56.916 12.4646648,57.0116657 12.838,57.203 C13.2113352,57.3943343 13.5216654,57.6509984 13.769,57.973 C14.0163346,58.2950016 14.2029994,58.6683312 14.329,59.093 C14.4550006,59.5176688 14.518,59.9679976 14.518,60.444 C14.518,60.5466672 14.5156667,60.6259997 14.511,60.682 C14.5063333,60.7380003 14.504,60.7846665 14.504,60.822 L9.576,60.822 Z M11.508,57.798 C10.9199971,57.798 10.4650016,58.0079979 10.143,58.428 C9.82099839,58.8480021 9.6366669,59.4126631 9.59,60.122 L13.328,60.122 C13.328,59.8326652 13.2953337,59.5503347 13.23,59.275 C13.1646663,58.9996653 13.0573341,58.7523344 12.908,58.533 C12.7586659,58.3136656 12.5696678,58.136334 12.341,58.001 C12.1123322,57.865666 11.8346683,57.798 11.508,57.798 Z M16.814,60.822 C16.8606669,61.6153373 17.0636649,62.2289978 17.423,62.663 C17.7823351,63.0970022 18.2839968,63.314 18.928,63.314 C19.7400041,63.314 20.3513313,62.9313372 20.762,62.166 L21.644,62.656 C21.373332,63.1133356 21.0140022,63.4866652 20.566,63.776 C20.1179978,64.0653348 19.5533367,64.21 18.872,64.21 C18.330664,64.21 17.857002,64.1166676 17.451,63.93 C17.044998,63.7433324 16.706668,63.4866683 16.436,63.16 C16.165332,62.8333317 15.962334,62.4506689 15.827,62.012 C15.691666,61.5733311 15.624,61.1020025 15.624,60.598 C15.624,60.1033309 15.6893327,59.6320022 15.82,59.184 C15.9506673,58.7359978 16.1489987,58.3440017 16.415,58.008 C16.6810013,57.6719983 17.0076647,57.406001 17.395,57.21 C17.7823353,57.013999 18.2373307,56.916 18.76,56.916 C19.2640025,56.916 19.7026648,57.0116657 20.076,57.203 C20.4493352,57.3943343 20.7596654,57.6509984 21.007,57.973 C21.2543346,58.2950016 21.4409994,58.6683312 21.567,59.093 C21.6930006,59.5176688 21.756,59.9679976 21.756,60.444 C21.756,60.5466672 21.7536667,60.6259997 21.749,60.682 C21.7443333,60.7380003 21.742,60.7846665 21.742,60.822 L16.814,60.822 Z M18.746,57.798 C18.1579971,57.798 17.7030016,58.0079979 17.381,58.428 C17.0589984,58.8480021 16.8746669,59.4126631 16.828,60.122 L20.566,60.122 C20.566,59.8326652 20.5333337,59.5503347 20.468,59.275 C20.4026663,58.9996653 20.2953341,58.7523344 20.146,58.533 C19.9966659,58.3136656 19.8076678,58.136334 19.579,58.001 C19.3503322,57.865666 19.0726683,57.798 18.746,57.798 Z M23.17,57.112 L24.178,57.112 L24.29,58.652 C24.486001,58.1479975 24.7986645,57.7326683 25.228,57.406 C25.6573355,57.0793317 26.1659971,56.916 26.754,56.916 L26.754,58.148 C26.6233327,58.1199999 26.4786675,58.106 26.32,58.106 C26.0866655,58.106 25.8533345,58.1479996 25.62,58.232 C25.3866655,58.3160004 25.1743343,58.4513324 24.983,58.638 C24.7916657,58.8246676 24.6353339,59.0649985 24.514,59.359 C24.3926661,59.6530015 24.332,60.0099979 24.332,60.43 L24.332,64 L23.17,64 L23.17,57.112 Z M28.028,62.306 C28.2613345,62.6046682 28.5623315,62.851999 28.931,63.048 C29.2996685,63.244001 29.7033311,63.342 30.142,63.342 C30.534002,63.342 30.8746652,63.2486676 31.164,63.062 C31.4533348,62.8753324 31.598,62.5953352 31.598,62.222 C31.598,61.9326652 31.5023343,61.7063341 31.311,61.543 C31.1196657,61.3796659 30.8816681,61.2420006 30.597,61.13 C30.3123319,61.0179994 30.0020017,60.9153338 29.666,60.822 C29.3299983,60.7286662 29.0196681,60.6073341 28.735,60.458 C28.4503319,60.3086659 28.2123343,60.1126679 28.021,59.87 C27.8296657,59.6273321 27.734,59.2960021 27.734,58.876 C27.734,58.5306649 27.8039993,58.2343346 27.944,57.987 C28.0840007,57.7396654 28.2683322,57.5366675 28.497,57.378 C28.7256678,57.2193325 28.9893318,57.102667 29.288,57.028 C29.5866682,56.953333 29.8993317,56.916 30.226,56.916 C31.1966715,56.916 32.0039968,57.1959972 32.648,57.756 L32.06,58.54 C31.8546656,58.3253323 31.5816684,58.1456674 31.241,58.001 C30.9003316,57.8563326 30.5480018,57.784 30.184,57.784 C30.0253325,57.784 29.8690008,57.8026665 29.715,57.84 C29.5609992,57.8773335 29.4256673,57.9356663 29.309,58.015 C29.1923327,58.0943337 29.0990003,58.1946661 29.029,58.316 C28.9589997,58.4373339 28.924,58.5866658 28.924,58.764 C28.924,59.034668 29.0196657,59.2446659 29.211,59.394 C29.4023343,59.5433341 29.6403319,59.6716661 29.925,59.779 C30.2096681,59.8863339 30.517665,59.9889995 30.849,60.087 C31.180335,60.1850005 31.4883319,60.3109992 31.773,60.465 C32.0576681,60.6190008 32.2956657,60.8219987 32.487,61.074 C32.6783343,61.3260013 32.774,61.6619979 32.774,62.082 C32.774,62.4366684 32.7016674,62.7469987 32.557,63.013 C32.4123326,63.2790013 32.2210012,63.5006658 31.983,63.678 C31.7449988,63.8553342 31.4696682,63.9883329 31.157,64.077 C30.8443318,64.1656671 30.5200017,64.21 30.184,64.21 C29.0266609,64.21 28.1073367,63.8366704 27.426,63.09 L28.028,62.306 Z M43.036,62.488 C42.7559986,63.0480028 42.3803357,63.4749985 41.909,63.769 C41.4376643,64.0630015 40.8660034,64.21 40.194,64.21 C39.6433306,64.21 39.165002,64.1143343 38.759,63.923 C38.352998,63.7316657 38.0170013,63.4726683 37.751,63.146 C37.4849987,62.8193317 37.2890006,62.4343356 37.163,61.991 C37.0369994,61.5476644 36.974,61.0740025 36.974,60.57 C36.974,60.0566641 37.041666,59.5783356 37.177,59.135 C37.312334,58.6916644 37.5129987,58.3066683 37.779,57.98 C38.0450013,57.6533317 38.3786647,57.3943343 38.78,57.203 C39.1813353,57.0116657 39.652664,56.916 40.194,56.916 C40.8753367,56.916 41.4423311,57.0676652 41.895,57.371 C42.3476689,57.6743348 42.7139986,58.1013306 42.994,58.652 L42.014,59.114 C41.6593316,58.255329 41.0620042,57.826 40.222,57.826 C39.8673316,57.826 39.561668,57.8959993 39.305,58.036 C39.048332,58.1760007 38.8383341,58.3673321 38.675,58.61 C38.5116658,58.8526679 38.3903337,59.1349984 38.311,59.457 C38.2316663,59.7790016 38.192,60.1266648 38.192,60.5 C38.192,60.8546684 38.229333,61.1999983 38.304,61.536 C38.378667,61.8720017 38.4999992,62.1706654 38.668,62.432 C38.8360008,62.6933346 39.0506654,62.9033325 39.312,63.062 C39.5733346,63.2206675 39.8953314,63.3 40.278,63.3 C40.7633358,63.3 41.1553318,63.1763346 41.454,62.929 C41.7526682,62.6816654 41.9813325,62.362002 42.14,61.97 L43.036,62.488 Z M47.18,64.21 C46.6573307,64.21 46.1976686,64.1143343 45.801,63.923 C45.4043313,63.7316657 45.0730013,63.470335 44.807,63.139 C44.5409987,62.807665 44.3426673,62.4203355 44.212,61.977 C44.0813327,61.5336645 44.016,61.0553359 44.016,60.542 C44.016,60.0286641 44.083666,59.5526689 44.219,59.114 C44.354334,58.6753311 44.5549987,58.2926683 44.821,57.966 C45.0870013,57.6393317 45.4183314,57.3826676 45.815,57.196 C46.2116686,57.0093324 46.6666641,56.916 47.18,56.916 C47.6933359,56.916 48.1483313,57.0093324 48.545,57.196 C48.9416686,57.3826676 49.275332,57.6369984 49.546,57.959 C49.816668,58.2810016 50.019666,58.6636644 50.155,59.107 C50.290334,59.5503355 50.358,60.0286641 50.358,60.542 C50.358,61.0553359 50.290334,61.5336645 50.155,61.977 C50.019666,62.4203355 49.816668,62.807665 49.546,63.139 C49.275332,63.470335 48.9416686,63.7316657 48.545,63.923 C48.1483313,64.1143343 47.6933359,64.21 47.18,64.21 Z M47.208,63.3 C47.5253349,63.3 47.8053321,63.2300007 48.048,63.09 C48.2906679,62.9499993 48.4913325,62.7563346 48.65,62.509 C48.8086675,62.2616654 48.9299996,61.9700017 49.014,61.634 C49.0980004,61.2979983 49.14,60.934002 49.14,60.542 C49.14,60.149998 49.0980004,59.788335 49.014,59.457 C48.9299996,59.125665 48.8040008,58.8386679 48.636,58.596 C48.4679992,58.3533321 48.2626679,58.164334 48.02,58.029 C47.7773321,57.893666 47.4973349,57.826 47.18,57.826 C46.8533317,57.826 46.5686679,57.893666 46.326,58.029 C46.0833321,58.164334 45.8826675,58.3533321 45.724,58.596 C45.5653325,58.8386679 45.4440004,59.125665 45.36,59.457 C45.2759996,59.788335 45.234,60.149998 45.234,60.542 C45.234,60.934002 45.2759996,61.2979983 45.36,61.634 C45.4440004,61.9700017 45.5676659,62.2616654 45.731,62.509 C45.8943342,62.7563346 46.0996654,62.9499993 46.347,63.09 C46.5943346,63.2300007 46.8813317,63.3 47.208,63.3 Z M51.842,57.112 L52.85,57.112 L52.976,58.456 C53.1440008,57.9799976 53.4053316,57.6043347 53.76,57.329 C54.1146684,57.0536653 54.5486641,56.916 55.062,56.916 C55.603336,56.916 56.0279985,57.0699985 56.336,57.378 C56.6440015,57.6860015 56.8399996,58.0593311 56.924,58.498 C57.0080004,58.2833323 57.1129994,58.0803343 57.239,57.889 C57.3650006,57.6976657 57.5166658,57.5296674 57.694,57.385 C57.8713342,57.2403326 58.0766655,57.1260004 58.31,57.042 C58.5433345,56.9579996 58.8093318,56.916 59.108,56.916 C59.500002,56.916 59.8243321,56.983666 60.081,57.119 C60.337668,57.254334 60.5429992,57.4386655 60.697,57.672 C60.8510008,57.9053345 60.9606663,58.1783318 61.026,58.491 C61.0913337,58.8036682 61.124,59.1326649 61.124,59.478 L61.124,64 L59.962,64 L59.962,59.772 C59.962,59.1559969 59.8523344,58.6963349 59.633,58.393 C59.4136656,58.0896651 59.0940021,57.938 58.674,57.938 C58.2166644,57.938 57.8340015,58.140998 57.526,58.547 C57.2179985,58.953002 57.064,59.5339962 57.064,60.29 L57.064,64 L55.902,64 L55.902,59.828 C55.902,59.1839968 55.7900011,58.7080015 55.566,58.4 C55.3419989,58.0919985 55.0293353,57.938 54.628,57.938 C54.1799978,57.938 53.7973349,58.1456646 53.48,58.561 C53.1626651,58.9763354 53.004,59.5759961 53.004,60.36 L53.004,64 L51.842,64 L51.842,57.112 Z M62.888,57.112 L63.896,57.112 L64.022,58.456 C64.1900008,57.9799976 64.4513316,57.6043347 64.806,57.329 C65.1606684,57.0536653 65.5946641,56.916 66.108,56.916 C66.649336,56.916 67.0739985,57.0699985 67.382,57.378 C67.6900015,57.6860015 67.8859996,58.0593311 67.97,58.498 C68.0540004,58.2833323 68.1589994,58.0803343 68.285,57.889 C68.4110006,57.6976657 68.5626658,57.5296674 68.74,57.385 C68.9173342,57.2403326 69.1226655,57.1260004 69.356,57.042 C69.5893345,56.9579996 69.8553318,56.916 70.154,56.916 C70.546002,56.916 70.8703321,56.983666 71.127,57.119 C71.383668,57.254334 71.5889992,57.4386655 71.743,57.672 C71.8970008,57.9053345 72.0066663,58.1783318 72.072,58.491 C72.1373337,58.8036682 72.17,59.1326649 72.17,59.478 L72.17,64 L71.008,64 L71.008,59.772 C71.008,59.1559969 70.8983344,58.6963349 70.679,58.393 C70.4596656,58.0896651 70.1400021,57.938 69.72,57.938 C69.2626644,57.938 68.8800015,58.140998 68.572,58.547 C68.2639985,58.953002 68.11,59.5339962 68.11,60.29 L68.11,64 L66.948,64 L66.948,59.828 C66.948,59.1839968 66.8360011,58.7080015 66.612,58.4 C66.3879989,58.0919985 66.0753353,57.938 65.674,57.938 C65.2259978,57.938 64.8433349,58.1456646 64.526,58.561 C64.2086651,58.9763354 64.05,59.5759961 64.05,60.36 L64.05,64 L62.888,64 L62.888,57.112 Z M74.816,60.822 C74.8626669,61.6153373 75.0656649,62.2289978 75.425,62.663 C75.7843351,63.0970022 76.2859968,63.314 76.93,63.314 C77.7420041,63.314 78.3533313,62.9313372 78.764,62.166 L79.646,62.656 C79.375332,63.1133356 79.0160022,63.4866652 78.568,63.776 C78.1199978,64.0653348 77.5553367,64.21 76.874,64.21 C76.332664,64.21 75.859002,64.1166676 75.453,63.93 C75.046998,63.7433324 74.708668,63.4866683 74.438,63.16 C74.167332,62.8333317 73.964334,62.4506689 73.829,62.012 C73.693666,61.5733311 73.626,61.1020025 73.626,60.598 C73.626,60.1033309 73.6913327,59.6320022 73.822,59.184 C73.9526673,58.7359978 74.1509987,58.3440017 74.417,58.008 C74.6830013,57.6719983 75.0096647,57.406001 75.397,57.21 C75.7843353,57.013999 76.2393307,56.916 76.762,56.916 C77.2660025,56.916 77.7046648,57.0116657 78.078,57.203 C78.4513352,57.3943343 78.7616654,57.6509984 79.009,57.973 C79.2563346,58.2950016 79.4429994,58.6683312 79.569,59.093 C79.6950006,59.5176688 79.758,59.9679976 79.758,60.444 C79.758,60.5466672 79.7556667,60.6259997 79.751,60.682 C79.7463333,60.7380003 79.744,60.7846665 79.744,60.822 L74.816,60.822 Z M76.748,57.798 C76.1599971,57.798 75.7050016,58.0079979 75.383,58.428 C75.0609984,58.8480021 74.8766669,59.4126631 74.83,60.122 L78.568,60.122 C78.568,59.8326652 78.5353337,59.5503347 78.47,59.275 C78.4046663,58.9996653 78.2973341,58.7523344 78.148,58.533 C77.9986659,58.3136656 77.8096678,58.136334 77.581,58.001 C77.3523322,57.865666 77.0746683,57.798 76.748,57.798 Z M81.172,57.112 L82.18,57.112 L82.306,58.484 C82.4833342,58.0639979 82.7656647,57.6976682 83.153,57.385 C83.5403353,57.0723318 84.0186638,56.916 84.588,56.916 C85.3066703,56.916 85.8363316,57.1446644 86.177,57.602 C86.5176684,58.0593356 86.688,58.6986626 86.688,59.52 L86.688,64 L85.526,64 L85.526,59.758 C85.526,59.1326635 85.4000013,58.6730015 85.148,58.379 C84.8959987,58.0849985 84.5553355,57.938 84.126,57.938 C83.6126641,57.938 83.1856684,58.1479979 82.845,58.568 C82.5043316,58.9880021 82.334,59.5806628 82.334,60.346 L82.334,64 L81.172,64 L81.172,57.112 Z M89.054,57.91 L87.878,57.91 L87.878,57.112 L88.13,57.112 C88.4193348,57.112 88.6456659,57.081667 88.809,57.021 C88.9723341,56.960333 89.0959996,56.8670006 89.18,56.741 C89.2640004,56.6149994 89.3246665,56.4493344 89.362,56.244 C89.3993335,56.0386656 89.4319999,55.7866682 89.46,55.488 L89.488,55.236 L90.216,55.236 L90.216,57.112 L91.7,57.112 L91.7,57.91 L90.216,57.91 L90.216,62.194 C90.216,62.586002 90.2743327,62.8683325 90.391,63.041 C90.5076673,63.2136675 90.7246651,63.3 91.042,63.3 C91.2940013,63.3 91.5273323,63.2440006 91.742,63.132 L91.868,63.972 C91.5133316,64.1306675 91.1213355,64.21 90.692,64.21 C90.3559983,64.21 90.0830011,64.1633338 89.873,64.07 C89.6629989,63.9766662 89.4973339,63.8506675 89.376,63.692 C89.2546661,63.5333325 89.1706669,63.3420011 89.124,63.118 C89.0773331,62.8939989 89.054,62.6513346 89.054,62.39 L89.054,57.91 Z M93.226,62.306 C93.4593345,62.6046682 93.7603315,62.851999 94.129,63.048 C94.4976685,63.244001 94.9013311,63.342 95.34,63.342 C95.732002,63.342 96.0726652,63.2486676 96.362,63.062 C96.6513348,62.8753324 96.796,62.5953352 96.796,62.222 C96.796,61.9326652 96.7003343,61.7063341 96.509,61.543 C96.3176657,61.3796659 96.0796681,61.2420006 95.795,61.13 C95.5103319,61.0179994 95.2000017,60.9153338 94.864,60.822 C94.5279983,60.7286662 94.2176681,60.6073341 93.933,60.458 C93.6483319,60.3086659 93.4103343,60.1126679 93.219,59.87 C93.0276657,59.6273321 92.932,59.2960021 92.932,58.876 C92.932,58.5306649 93.0019993,58.2343346 93.142,57.987 C93.2820007,57.7396654 93.4663322,57.5366675 93.695,57.378 C93.9236678,57.2193325 94.1873318,57.102667 94.486,57.028 C94.7846682,56.953333 95.0973317,56.916 95.424,56.916 C96.3946715,56.916 97.2019968,57.1959972 97.846,57.756 L97.258,58.54 C97.0526656,58.3253323 96.7796684,58.1456674 96.439,58.001 C96.0983316,57.8563326 95.7460018,57.784 95.382,57.784 C95.2233325,57.784 95.0670008,57.8026665 94.913,57.84 C94.7589992,57.8773335 94.6236673,57.9356663 94.507,58.015 C94.3903327,58.0943337 94.2970003,58.1946661 94.227,58.316 C94.1569996,58.4373339 94.122,58.5866658 94.122,58.764 C94.122,59.034668 94.2176657,59.2446659 94.409,59.394 C94.6003343,59.5433341 94.8383319,59.6716661 95.123,59.779 C95.4076681,59.8863339 95.715665,59.9889995 96.047,60.087 C96.378335,60.1850005 96.6863319,60.3109992 96.971,60.465 C97.2556681,60.6190008 97.4936657,60.8219987 97.685,61.074 C97.8763343,61.3260013 97.972,61.6619979 97.972,62.082 C97.972,62.4366684 97.8996674,62.7469987 97.755,63.013 C97.6103326,63.2790013 97.4190012,63.5006658 97.181,63.678 C96.9429988,63.8553342 96.6676682,63.9883329 96.355,64.077 C96.0423318,64.1656671 95.7180017,64.21 95.382,64.21 C94.2246609,64.21 93.3053367,63.8366704 92.624,63.09 L93.226,62.306 Z" id="Peers-comments" fill="#3F4F5A"></path>
                <path d="M0.98,102.116 L4.298,102.116 C4.79266914,102.116 5.2499979,102.171999 5.67,102.284 C6.0900021,102.396001 6.45166515,102.568665 6.755,102.802 C7.05833485,103.035335 7.29633247,103.331665 7.469,103.691 C7.64166753,104.050335 7.728,104.481997 7.728,104.986 C7.728,105.546003 7.64166753,106.021998 7.469,106.414 C7.29633247,106.806002 7.05600154,107.123332 6.748,107.366 C6.43999846,107.608668 6.07833541,107.783666 5.663,107.891 C5.24766459,107.998334 4.79733576,108.052 4.312,108.052 L2.24,108.052 L2.24,112 L0.98,112 L0.98,102.116 Z M4.102,107.044 C4.83000364,107.044 5.39466466,106.887668 5.796,106.575 C6.19733534,106.262332 6.398,105.73267 6.398,104.986 C6.398,104.640665 6.33966725,104.346668 6.223,104.104 C6.10633275,103.861332 5.94766767,103.665334 5.747,103.516 C5.54633233,103.366666 5.30833471,103.259334 5.033,103.194 C4.75766529,103.128666 4.46133492,103.096 4.144,103.096 L2.24,103.096 L2.24,107.044 L4.102,107.044 Z M9.576,108.822 C9.6226669,109.615337 9.82566487,110.228998 10.185,110.663 C10.5443351,111.097002 11.0459968,111.314 11.69,111.314 C12.5020041,111.314 13.1133313,110.931337 13.524,110.166 L14.406,110.656 C14.135332,111.113336 13.7760022,111.486665 13.328,111.776 C12.8799978,112.065335 12.3153367,112.21 11.634,112.21 C11.092664,112.21 10.619002,112.116668 10.213,111.93 C9.80699797,111.743332 9.46866802,111.486668 9.198,111.16 C8.92733198,110.833332 8.72433401,110.450669 8.589,110.012 C8.45366599,109.573331 8.386,109.102003 8.386,108.598 C8.386,108.103331 8.45133268,107.632002 8.582,107.184 C8.71266732,106.735998 8.91099867,106.344002 9.177,106.008 C9.44300133,105.671998 9.76966473,105.406001 10.157,105.21 C10.5443353,105.013999 10.9993307,104.916 11.522,104.916 C12.0260025,104.916 12.4646648,105.011666 12.838,105.203 C13.2113352,105.394334 13.5216654,105.650998 13.769,105.973 C14.0163346,106.295002 14.2029994,106.668331 14.329,107.093 C14.4550006,107.517669 14.518,107.967998 14.518,108.444 C14.518,108.546667 14.5156667,108.626 14.511,108.682 C14.5063333,108.738 14.504,108.784666 14.504,108.822 L9.576,108.822 Z M11.508,105.798 C10.9199971,105.798 10.4650016,106.007998 10.143,106.428 C9.82099839,106.848002 9.6366669,107.412663 9.59,108.122 L13.328,108.122 C13.328,107.832665 13.2953337,107.550335 13.23,107.275 C13.1646663,106.999665 13.0573341,106.752334 12.908,106.533 C12.7586659,106.313666 12.5696678,106.136334 12.341,106.001 C12.1123322,105.865666 11.8346683,105.798 11.508,105.798 Z M15.932,105.112 L16.94,105.112 L17.052,106.652 C17.248001,106.147997 17.5606645,105.732668 17.99,105.406 C18.4193355,105.079332 18.9279971,104.916 19.516,104.916 L19.516,106.148 C19.3853327,106.12 19.2406675,106.106 19.082,106.106 C18.8486655,106.106 18.6153345,106.148 18.382,106.232 C18.1486655,106.316 17.9363343,106.451332 17.745,106.638 C17.5536657,106.824668 17.3973339,107.064999 17.276,107.359 C17.1546661,107.653001 17.094,108.009998 17.094,108.43 L17.094,112 L15.932,112 L15.932,105.112 Z M20.79,110.306 C21.0233345,110.604668 21.3243315,110.851999 21.693,111.048 C22.0616685,111.244001 22.4653311,111.342 22.904,111.342 C23.296002,111.342 23.6366652,111.248668 23.926,111.062 C24.2153348,110.875332 24.36,110.595335 24.36,110.222 C24.36,109.932665 24.2643343,109.706334 24.073,109.543 C23.8816657,109.379666 23.6436681,109.242001 23.359,109.13 C23.0743319,109.017999 22.7640017,108.915334 22.428,108.822 C22.0919983,108.728666 21.7816681,108.607334 21.497,108.458 C21.2123319,108.308666 20.9743343,108.112668 20.783,107.87 C20.5916657,107.627332 20.496,107.296002 20.496,106.876 C20.496,106.530665 20.5659993,106.234335 20.706,105.987 C20.8460007,105.739665 21.0303322,105.536667 21.259,105.378 C21.4876678,105.219333 21.7513318,105.102667 22.05,105.028 C22.3486682,104.953333 22.6613317,104.916 22.988,104.916 C23.9586715,104.916 24.7659968,105.195997 25.41,105.756 L24.822,106.54 C24.6166656,106.325332 24.3436684,106.145667 24.003,106.001 C23.6623316,105.856333 23.3100018,105.784 22.946,105.784 C22.7873325,105.784 22.6310008,105.802666 22.477,105.84 C22.3229992,105.877334 22.1876673,105.935666 22.071,106.015 C21.9543327,106.094334 21.8610003,106.194666 21.791,106.316 C21.7209997,106.437334 21.686,106.586666 21.686,106.764 C21.686,107.034668 21.7816657,107.244666 21.973,107.394 C22.1643343,107.543334 22.4023319,107.671666 22.687,107.779 C22.9716681,107.886334 23.279665,107.989 23.611,108.087 C23.942335,108.185 24.2503319,108.310999 24.535,108.465 C24.8196681,108.619001 25.0576657,108.821999 25.249,109.074 C25.4403343,109.326001 25.536,109.661998 25.536,110.082 C25.536,110.436668 25.4636674,110.746999 25.319,111.013 C25.1743326,111.279001 24.9830012,111.500666 24.745,111.678 C24.5069988,111.855334 24.2316682,111.988333 23.919,112.077 C23.6063318,112.165667 23.2820017,112.21 22.946,112.21 C21.7886609,112.21 20.8693367,111.83667 20.188,111.09 L20.79,110.306 Z M29.75,112.21 C29.2273307,112.21 28.7676687,112.114334 28.371,111.923 C27.9743313,111.731666 27.6430013,111.470335 27.377,111.139 C27.1109987,110.807665 26.9126673,110.420336 26.782,109.977 C26.6513327,109.533664 26.586,109.055336 26.586,108.542 C26.586,108.028664 26.653666,107.552669 26.789,107.114 C26.924334,106.675331 27.1249987,106.292668 27.391,105.966 C27.6570013,105.639332 27.9883314,105.382668 28.385,105.196 C28.7816687,105.009332 29.2366641,104.916 29.75,104.916 C30.2633359,104.916 30.7183314,105.009332 31.115,105.196 C31.5116686,105.382668 31.845332,105.636998 32.116,105.959 C32.386668,106.281002 32.589666,106.663664 32.725,107.107 C32.860334,107.550336 32.928,108.028664 32.928,108.542 C32.928,109.055336 32.860334,109.533664 32.725,109.977 C32.589666,110.420336 32.386668,110.807665 32.116,111.139 C31.845332,111.470335 31.5116686,111.731666 31.115,111.923 C30.7183314,112.114334 30.2633359,112.21 29.75,112.21 Z M29.778,111.3 C30.0953349,111.3 30.3753321,111.230001 30.618,111.09 C30.8606679,110.949999 31.0613325,110.756335 31.22,110.509 C31.3786675,110.261665 31.4999996,109.970002 31.584,109.634 C31.6680004,109.297998 31.71,108.934002 31.71,108.542 C31.71,108.149998 31.6680004,107.788335 31.584,107.457 C31.4999996,107.125665 31.3740008,106.838668 31.206,106.596 C31.0379992,106.353332 30.8326679,106.164334 30.59,106.029 C30.3473321,105.893666 30.0673349,105.826 29.75,105.826 C29.4233317,105.826 29.1386679,105.893666 28.896,106.029 C28.6533321,106.164334 28.4526675,106.353332 28.294,106.596 C28.1353325,106.838668 28.0140004,107.125665 27.93,107.457 C27.8459996,107.788335 27.804,108.149998 27.804,108.542 C27.804,108.934002 27.8459996,109.297998 27.93,109.634 C28.0140004,109.970002 28.1376659,110.261665 28.301,110.509 C28.4643342,110.756335 28.6696654,110.949999 28.917,111.09 C29.1643346,111.230001 29.4513317,111.3 29.778,111.3 Z M34.412,105.112 L35.42,105.112 L35.546,106.484 C35.7233342,106.063998 36.0056647,105.697668 36.393,105.385 C36.7803353,105.072332 37.2586638,104.916 37.828,104.916 C38.5466703,104.916 39.0763316,105.144664 39.417,105.602 C39.7576684,106.059336 39.928,106.698663 39.928,107.52 L39.928,112 L38.766,112 L38.766,107.758 C38.766,107.132664 38.6400013,106.673001 38.388,106.379 C38.1359987,106.084999 37.7953355,105.938 37.366,105.938 C36.8526641,105.938 36.4256684,106.147998 36.085,106.568 C35.7443316,106.988002 35.574,107.580663 35.574,108.346 L35.574,112 L34.412,112 L34.412,105.112 Z M46.018,112 C45.9153328,111.663998 45.8546668,111.262669 45.836,110.796 C45.6493324,111.225335 45.3623353,111.568332 44.975,111.825 C44.5876647,112.081668 44.1280027,112.21 43.596,112.21 C42.9239966,112.21 42.392002,112.018669 42,111.636 C41.607998,111.253331 41.412,110.740003 41.412,110.096 C41.412,109.731998 41.4773327,109.426335 41.608,109.179 C41.7386673,108.931665 41.9206655,108.726334 42.154,108.563 C42.3873345,108.399666 42.6626651,108.271334 42.98,108.178 C43.2973349,108.084666 43.6426648,108.01 44.016,107.954 L45.78,107.688 L45.78,107.254 C45.78,106.945998 45.742667,106.698668 45.668,106.512 C45.593333,106.325332 45.4906673,106.180667 45.36,106.078 C45.2293327,105.975333 45.0800008,105.907667 44.912,105.875 C44.7439992,105.842333 44.5666676,105.826 44.38,105.826 C43.8479973,105.826 43.4093351,105.923999 43.064,106.12 C42.7186649,106.316001 42.4293345,106.563332 42.196,106.862 L41.594,106.106 C41.864668,105.779332 42.2403309,105.499335 42.721,105.266 C43.2016691,105.032665 43.7966631,104.916 44.506,104.916 C45.364671,104.916 45.9876647,105.107331 46.375,105.49 C46.7623353,105.872669 46.956,106.488662 46.956,107.338 L46.956,110.124 C46.956,110.348001 46.9583333,110.543999 46.963,110.712 C46.9676667,110.880001 46.9769999,111.036333 46.991,111.181 C47.0050001,111.325667 47.0259999,111.463333 47.054,111.594 C47.0820001,111.724667 47.1193331,111.859999 47.166,112 L46.018,112 Z M45.78,108.458 L44.128,108.724 C43.5586638,108.826667 43.1550012,108.980666 42.917,109.186 C42.6789988,109.391334 42.56,109.675998 42.56,110.04 C42.56,110.413335 42.6696656,110.725999 42.889,110.978 C43.1083344,111.230001 43.4326645,111.356 43.862,111.356 C44.1233346,111.356 44.3706655,111.304667 44.604,111.202 C44.8373345,111.099333 45.0403325,110.957001 45.213,110.775 C45.3856675,110.592999 45.5233328,110.373668 45.626,110.117 C45.7286672,109.860332 45.78,109.578002 45.78,109.27 L45.78,108.458 Z M48.818,102.116 L49.98,102.116 L49.98,112 L48.818,112 L48.818,102.116 Z M54.922,105.112 L55.93,105.112 L56.042,106.652 C56.238001,106.147997 56.5506645,105.732668 56.98,105.406 C57.4093355,105.079332 57.9179971,104.916 58.506,104.916 L58.506,106.148 C58.3753327,106.12 58.2306675,106.106 58.072,106.106 C57.8386655,106.106 57.6053345,106.148 57.372,106.232 C57.1386655,106.316 56.9263343,106.451332 56.735,106.638 C56.5436657,106.824668 56.3873339,107.064999 56.266,107.359 C56.1446661,107.653001 56.084,108.009998 56.084,108.43 L56.084,112 L54.922,112 L54.922,105.112 Z M63.98,112 C63.8773328,111.663998 63.8166668,111.262669 63.798,110.796 C63.6113324,111.225335 63.3243353,111.568332 62.937,111.825 C62.5496647,112.081668 62.0900027,112.21 61.558,112.21 C60.8859966,112.21 60.354002,112.018669 59.962,111.636 C59.569998,111.253331 59.374,110.740003 59.374,110.096 C59.374,109.731998 59.4393327,109.426335 59.57,109.179 C59.7006673,108.931665 59.8826655,108.726334 60.116,108.563 C60.3493345,108.399666 60.6246651,108.271334 60.942,108.178 C61.2593349,108.084666 61.6046648,108.01 61.978,107.954 L63.742,107.688 L63.742,107.254 C63.742,106.945998 63.704667,106.698668 63.63,106.512 C63.555333,106.325332 63.4526673,106.180667 63.322,106.078 C63.1913327,105.975333 63.0420008,105.907667 62.874,105.875 C62.7059992,105.842333 62.5286676,105.826 62.342,105.826 C61.8099973,105.826 61.3713351,105.923999 61.026,106.12 C60.6806649,106.316001 60.3913345,106.563332 60.158,106.862 L59.556,106.106 C59.826668,105.779332 60.2023309,105.499335 60.683,105.266 C61.1636691,105.032665 61.7586631,104.916 62.468,104.916 C63.326671,104.916 63.9496647,105.107331 64.337,105.49 C64.7243353,105.872669 64.918,106.488662 64.918,107.338 L64.918,110.124 C64.918,110.348001 64.9203333,110.543999 64.925,110.712 C64.9296667,110.880001 64.9389999,111.036333 64.953,111.181 C64.9670001,111.325667 64.9879999,111.463333 65.016,111.594 C65.0440001,111.724667 65.0813331,111.859999 65.128,112 L63.98,112 Z M63.742,108.458 L62.09,108.724 C61.5206638,108.826667 61.1170012,108.980666 60.879,109.186 C60.6409988,109.391334 60.522,109.675998 60.522,110.04 C60.522,110.413335 60.6316656,110.725999 60.851,110.978 C61.0703344,111.230001 61.3946645,111.356 61.824,111.356 C62.0853346,111.356 62.3326655,111.304667 62.566,111.202 C62.7993345,111.099333 63.0023325,110.957001 63.175,110.775 C63.3476675,110.592999 63.4853328,110.373668 63.588,110.117 C63.6906672,109.860332 63.742,109.578002 63.742,109.27 L63.742,108.458 Z M67.382,105.91 L66.206,105.91 L66.206,105.112 L66.458,105.112 C66.7473348,105.112 66.9736658,105.081667 67.137,105.021 C67.3003342,104.960333 67.4239996,104.867001 67.508,104.741 C67.5920004,104.614999 67.6526665,104.449334 67.69,104.244 C67.7273335,104.038666 67.7599999,103.786668 67.788,103.488 L67.816,103.236 L68.544,103.236 L68.544,105.112 L70.028,105.112 L70.028,105.91 L68.544,105.91 L68.544,110.194 C68.544,110.586002 68.6023327,110.868332 68.719,111.041 C68.8356673,111.213668 69.0526651,111.3 69.37,111.3 C69.6220013,111.3 69.8553323,111.244001 70.07,111.132 L70.196,111.972 C69.8413316,112.130667 69.4493355,112.21 69.02,112.21 C68.6839983,112.21 68.411001,112.163334 68.201,112.07 C67.990999,111.976666 67.8253339,111.850667 67.704,111.692 C67.5826661,111.533333 67.4986669,111.342001 67.452,111.118 C67.4053331,110.893999 67.382,110.651335 67.382,110.39 L67.382,105.91 Z M71.428,102.438 L72.59,102.438 L72.59,103.6 L71.428,103.6 L71.428,102.438 Z M71.428,105.112 L72.59,105.112 L72.59,112 L71.428,112 L71.428,105.112 Z M74.382,105.112 L75.39,105.112 L75.516,106.484 C75.6933342,106.063998 75.9756647,105.697668 76.363,105.385 C76.7503353,105.072332 77.2286638,104.916 77.798,104.916 C78.5166703,104.916 79.0463316,105.144664 79.387,105.602 C79.7276684,106.059336 79.898,106.698663 79.898,107.52 L79.898,112 L78.736,112 L78.736,107.758 C78.736,107.132664 78.6100013,106.673001 78.358,106.379 C78.1059987,106.084999 77.7653355,105.938 77.336,105.938 C76.8226641,105.938 76.3956684,106.147998 76.055,106.568 C75.7143316,106.988002 75.544,107.580663 75.544,108.346 L75.544,112 L74.382,112 L74.382,105.112 Z M82.222,112.826 C82.492668,113.087335 82.8169981,113.294999 83.195,113.449 C83.5730019,113.603001 83.9766645,113.68 84.406,113.68 C84.7606684,113.68 85.0499989,113.626334 85.274,113.519 C85.4980011,113.411666 85.6753327,113.264668 85.806,113.078 C85.9366673,112.891332 86.0276664,112.679001 86.079,112.441 C86.1303336,112.202999 86.156,111.948668 86.156,111.678 L86.156,110.404 C85.9786658,110.824002 85.7126684,111.162332 85.358,111.419 C85.0033316,111.675668 84.5460028,111.804 83.986,111.804 C83.5846647,111.804 83.2206683,111.727001 82.894,111.573 C82.5673317,111.418999 82.2873345,111.197335 82.054,110.908 C81.8206655,110.618665 81.6410006,110.264002 81.515,109.844 C81.3889994,109.423998 81.326,108.952669 81.326,108.43 C81.326,107.916664 81.3889994,107.445335 81.515,107.016 C81.6410006,106.586665 81.8229988,106.218002 82.061,105.91 C82.2990012,105.601998 82.5883316,105.361668 82.929,105.189 C83.2696684,105.016332 83.6499979,104.93 84.07,104.93 C84.6206694,104.93 85.0779982,105.067665 85.442,105.343 C85.8060018,105.618335 86.0673325,105.970665 86.226,106.4 L86.422,105.112 L87.318,105.112 L87.318,111.65 C87.318,112.042002 87.2713338,112.412998 87.178,112.763 C87.0846662,113.113002 86.9260011,113.423332 86.702,113.694 C86.4779989,113.964668 86.1793352,114.179333 85.806,114.338 C85.4326648,114.496667 84.9660028,114.576 84.406,114.576 C83.7993303,114.576 83.2556691,114.489668 82.775,114.317 C82.2943309,114.144332 81.8906683,113.927335 81.564,113.666 L82.222,112.826 Z M86.156,108.43 C86.156,108.271333 86.1536667,108.119667 86.149,107.975 C86.1443333,107.830333 86.1326668,107.720667 86.114,107.646 C86.0766665,107.421999 86.0160004,107.202668 85.932,106.988 C85.8479996,106.773332 85.7336674,106.586667 85.589,106.428 C85.4443326,106.269333 85.267001,106.141 85.057,106.043 C84.8469989,105.945 84.6020014,105.896 84.322,105.896 C84.0139985,105.896 83.7480011,105.961333 83.524,106.092 C83.2999989,106.222667 83.1156674,106.399999 82.971,106.624 C82.8263326,106.848001 82.7190003,107.113998 82.649,107.422 C82.5789997,107.730002 82.544,108.056665 82.544,108.402 C82.544,108.710002 82.5766663,109.015665 82.642,109.319 C82.7073337,109.622335 82.8099993,109.890666 82.95,110.124 C83.0900007,110.357334 83.2743322,110.546333 83.503,110.691 C83.7316678,110.835667 84.0093317,110.908 84.336,110.908 C84.7933356,110.908 85.1619986,110.779668 85.442,110.523 C85.7220014,110.266332 85.9179994,109.942002 86.03,109.55 C86.0766669,109.419333 86.1093332,109.256001 86.128,109.06 C86.1466668,108.863999 86.156,108.677334 86.156,108.5 L86.156,108.43 Z M89.236,110.306 C89.4693345,110.604668 89.7703315,110.851999 90.139,111.048 C90.5076685,111.244001 90.9113311,111.342 91.35,111.342 C91.742002,111.342 92.0826652,111.248668 92.372,111.062 C92.6613348,110.875332 92.806,110.595335 92.806,110.222 C92.806,109.932665 92.7103343,109.706334 92.519,109.543 C92.3276657,109.379666 92.0896681,109.242001 91.805,109.13 C91.5203319,109.017999 91.2100017,108.915334 90.874,108.822 C90.5379983,108.728666 90.2276681,108.607334 89.943,108.458 C89.6583319,108.308666 89.4203343,108.112668 89.229,107.87 C89.0376657,107.627332 88.942,107.296002 88.942,106.876 C88.942,106.530665 89.0119993,106.234335 89.152,105.987 C89.2920007,105.739665 89.4763322,105.536667 89.705,105.378 C89.9336678,105.219333 90.1973318,105.102667 90.496,105.028 C90.7946682,104.953333 91.1073317,104.916 91.434,104.916 C92.4046715,104.916 93.2119968,105.195997 93.856,105.756 L93.268,106.54 C93.0626656,106.325332 92.7896684,106.145667 92.449,106.001 C92.1083316,105.856333 91.7560018,105.784 91.392,105.784 C91.2333325,105.784 91.0770008,105.802666 90.923,105.84 C90.7689992,105.877334 90.6336673,105.935666 90.517,106.015 C90.4003327,106.094334 90.3070003,106.194666 90.237,106.316 C90.1669996,106.437334 90.132,106.586666 90.132,106.764 C90.132,107.034668 90.2276657,107.244666 90.419,107.394 C90.6103343,107.543334 90.8483319,107.671666 91.133,107.779 C91.4176681,107.886334 91.725665,107.989 92.057,108.087 C92.388335,108.185 92.6963319,108.310999 92.981,108.465 C93.2656681,108.619001 93.5036657,108.821999 93.695,109.074 C93.8863343,109.326001 93.982,109.661998 93.982,110.082 C93.982,110.436668 93.9096674,110.746999 93.765,111.013 C93.6203326,111.279001 93.4290012,111.500666 93.191,111.678 C92.9529988,111.855334 92.6776682,111.988333 92.365,112.077 C92.0523318,112.165667 91.7280017,112.21 91.392,112.21 C90.2346609,112.21 89.3153367,111.83667 88.634,111.09 L89.236,110.306 Z" id="Personal-ratings" fill="#3F4F5A"></path>
                <g id="Radio-button-Copy-6" transform="translate(128.000000, 0.000000)">
                    <path d="M36,0 C42.627417,0 48,5.372583 48,12 C48,18.627417 42.627417,24 36,24 L13,24 L13,23.9589262 C12.6702666,23.9861287 12.3367532,24 12,24 C5.372583,24 0,18.627417 0,12 C0,5.372583 5.372583,0 12,0 C12.3367532,0 12.6702666,0.0138713289 13,0.041073777 L13,0 L36,0 Z" id="Combined-Shape" stroke="#E1E5E9" fill="#E1E5E9"></path>
                    <circle id="Oval" stroke="#AAB1B6" fill="#FFFFFF" cx="12" cy="12" r="12"></circle>
                </g>
                <g id="Radio-button-Copy-7" transform="translate(128.000000, 48.000000)">
                    <path d="M36,0 C42.627417,0 48,5.372583 48,12 C48,18.627417 42.627417,24 36,24 L13,24 L13,23.9589262 C12.6702666,23.9861287 12.3367532,24 12,24 C5.372583,24 0,18.627417 0,12 C0,5.372583 5.372583,0 12,0 C12.3367532,0 12.6702666,0.0138713289 13,0.041073777 L13,0 L36,0 Z" id="Combined-Shape" stroke="#E1E5E9" fill="#E1E5E9"></path>
                    <circle id="Oval" stroke="#AAB1B6" fill="#FFFFFF" cx="12" cy="12" r="12"></circle>
                </g>
                <g id="Radio-button-Copy-8" transform="translate(128.000000, 96.000000)">
                    <path d="M36,0 C42.627417,0 48,5.372583 48,12 C48,18.627417 42.627417,24 36,24 L13,24 L13,23.9589262 C12.6702666,23.9861287 12.3367532,24 12,24 C5.372583,24 0,18.627417 0,12 C0,5.372583 5.372583,0 12,0 C12.3367532,0 12.6702666,0.0138713289 13,0.041073777 L13,0 L36,0 Z" id="Combined-Shape" stroke="#E1E5E9" fill="#E1E5E9"></path>
                    <circle id="Oval" stroke="#AAB1B6" fill="#FFFFFF" cx="12" cy="12" r="12"></circle>
                </g>
            </g>
        </g>
    </g>
</svg>