<?xml version="1.0" encoding="UTF-8"?>
<svg width="192px" height="26px" viewBox="0 0 192 26" version="1.1" xmlns="http://www.w3.org/2000/svg" xmlns:xlink="http://www.w3.org/1999/xlink">
    <!-- Generator: Sketch 47 (45396) - http://www.bohemiancoding.com/sketch -->
    <title>NegativeWording</title>
    <desc>Created with Sketch.</desc>
    <defs></defs>
    <g id="Page-1" stroke="none" stroke-width="1" fill="none" fill-rule="evenodd">
        <g id="Buttons-Usage-extra-large-1200" transform="translate(-852.000000, -1606.000000)">
            <g id="NegativeWording" transform="translate(852.000000, 1607.000000)">
                <path d="M0.98,6.116 L3.962,6.116 C5.67000854,6.116 6.92532932,6.52899587 7.728,7.355 C8.53067068,8.18100413 8.932,9.41999174 8.932,11.072 C8.932,12.668008 8.53067068,13.8883291 7.728,14.733 C6.92532932,15.5776709 5.72134136,16 4.116,16 L0.98,16 L0.98,6.116 Z M4.018,15.02 C4.69000336,15.02 5.25466438,14.922001 5.712,14.726 C6.16933562,14.529999 6.5379986,14.2570017 6.818,13.907 C7.0980014,13.5569983 7.29633275,13.1370024 7.413,12.647 C7.52966725,12.1569975 7.588,11.6226696 7.588,11.044 C7.588,10.4839972 7.52966725,9.96366907 7.413,9.483 C7.29633275,9.00233093 7.0980014,8.58466844 6.818,8.23 C6.5379986,7.87533156 6.16000238,7.59766767 5.684,7.397 C5.20799762,7.19633233 4.61067026,7.096 3.892,7.096 L2.24,7.096 L2.24,15.02 L4.018,15.02 Z M13.272,16.21 C12.7493307,16.21 12.2896686,16.1143343 11.893,15.923 C11.4963313,15.7316657 11.1650013,15.470335 10.899,15.139 C10.6329987,14.807665 10.4346673,14.4203355 10.304,13.977 C10.1733327,13.5336645 10.108,13.0553359 10.108,12.542 C10.108,12.0286641 10.175666,11.5526689 10.311,11.114 C10.446334,10.6753311 10.6469987,10.2926683 10.913,9.966 C11.1790013,9.6393317 11.5103314,9.3826676 11.907,9.196 C12.3036686,9.0093324 12.7586641,8.916 13.272,8.916 C13.7853359,8.916 14.2403314,9.0093324 14.637,9.196 C15.0336686,9.3826676 15.367332,9.63699839 15.638,9.959 C15.908668,10.2810016 16.111666,10.6636644 16.247,11.107 C16.382334,11.5503355 16.45,12.0286641 16.45,12.542 C16.45,13.0553359 16.382334,13.5336645 16.247,13.977 C16.111666,14.4203355 15.908668,14.807665 15.638,15.139 C15.367332,15.470335 15.0336686,15.7316657 14.637,15.923 C14.2403314,16.1143343 13.7853359,16.21 13.272,16.21 Z M13.3,15.3 C13.6173349,15.3 13.8973321,15.2300007 14.14,15.09 C14.3826679,14.9499993 14.5833325,14.7563346 14.742,14.509 C14.9006675,14.2616654 15.0219996,13.9700017 15.106,13.634 C15.1900004,13.2979983 15.232,12.934002 15.232,12.542 C15.232,12.149998 15.1900004,11.788335 15.106,11.457 C15.0219996,11.125665 14.8960008,10.8386679 14.728,10.596 C14.5599992,10.3533321 14.3546679,10.164334 14.112,10.029 C13.8693321,9.89366599 13.5893349,9.826 13.272,9.826 C12.9453317,9.826 12.6606679,9.89366599 12.418,10.029 C12.1753321,10.164334 11.9746675,10.3533321 11.816,10.596 C11.6573325,10.8386679 11.5360004,11.125665 11.452,11.457 C11.3679996,11.788335 11.326,12.149998 11.326,12.542 C11.326,12.934002 11.3679996,13.2979983 11.452,13.634 C11.5360004,13.9700017 11.6596659,14.2616654 11.823,14.509 C11.9863341,14.7563346 12.1916654,14.9499993 12.439,15.09 C12.6863346,15.2300007 12.9733317,15.3 13.3,15.3 Z M17.934,9.112 L18.942,9.112 L19.068,10.484 C19.2453342,10.0639979 19.5276647,9.69766823 19.915,9.385 C20.3023353,9.07233177 20.7806638,8.916 21.35,8.916 C22.0686703,8.916 22.5983316,9.14466438 22.939,9.602 C23.2796684,10.0593356 23.45,10.6986626 23.45,11.52 L23.45,16 L22.288,16 L22.288,11.758 C22.288,11.1326635 22.1620013,10.6730015 21.91,10.379 C21.6579987,10.0849985 21.3173355,9.938 20.888,9.938 C20.3746641,9.938 19.9476684,10.1479979 19.607,10.568 C19.2663316,10.9880021 19.096,11.5806628 19.096,12.346 L19.096,16 L17.934,16 L17.934,9.112 Z M25.102,8.678 C25.372668,8.54733268 25.545333,8.39800084 25.62,8.23 C25.694667,8.06199916 25.732,7.8613345 25.732,7.628 L25.732,7.446 L25.116,7.446 L25.116,6.116 L26.432,6.116 L26.432,7.572 C26.432,8.038669 26.3456675,8.39333212 26.173,8.636 C26.0003325,8.87866788 25.7320018,9.07933254 25.368,9.238 L25.102,8.678 Z M28.714,9.91 L27.538,9.91 L27.538,9.112 L27.79,9.112 C28.0793348,9.112 28.3056658,9.08166697 28.469,9.021 C28.6323342,8.96033303 28.7559996,8.86700063 28.84,8.741 C28.9240004,8.61499937 28.9846665,8.44933436 29.022,8.244 C29.0593335,8.03866564 29.0919999,7.78666816 29.12,7.488 L29.148,7.236 L29.876,7.236 L29.876,9.112 L31.36,9.112 L31.36,9.91 L29.876,9.91 L29.876,14.194 C29.876,14.586002 29.9343327,14.8683325 30.051,15.041 C30.1676673,15.2136675 30.3846651,15.3 30.702,15.3 C30.9540013,15.3 31.1873323,15.2440006 31.402,15.132 L31.528,15.972 C31.1733316,16.1306675 30.7813355,16.21 30.352,16.21 C30.0159983,16.21 29.743001,16.1633338 29.533,16.07 C29.322999,15.9766662 29.1573339,15.8506675 29.036,15.692 C28.9146661,15.5333325 28.8306669,15.3420011 28.784,15.118 C28.7373331,14.8939989 28.714,14.6513346 28.714,14.39 L28.714,9.91 Z M35.91,9.112 L36.918,9.112 L37.044,10.484 C37.2213342,10.0639979 37.5036647,9.69766823 37.891,9.385 C38.2783353,9.07233177 38.7566638,8.916 39.326,8.916 C40.0446703,8.916 40.5743316,9.14466438 40.915,9.602 C41.2556684,10.0593356 41.426,10.6986626 41.426,11.52 L41.426,16 L40.264,16 L40.264,11.758 C40.264,11.1326635 40.1380013,10.6730015 39.886,10.379 C39.6339987,10.0849985 39.2933355,9.938 38.864,9.938 C38.3506641,9.938 37.9236684,10.1479979 37.583,10.568 C37.2423316,10.9880021 37.072,11.5806628 37.072,12.346 L37.072,16 L35.91,16 L35.91,9.112 Z M46.046,16.21 C45.5233307,16.21 45.0636686,16.1143343 44.667,15.923 C44.2703313,15.7316657 43.9390013,15.470335 43.673,15.139 C43.4069987,14.807665 43.2086673,14.4203355 43.078,13.977 C42.9473327,13.5336645 42.882,13.0553359 42.882,12.542 C42.882,12.0286641 42.949666,11.5526689 43.085,11.114 C43.220334,10.6753311 43.4209987,10.2926683 43.687,9.966 C43.9530013,9.6393317 44.2843314,9.3826676 44.681,9.196 C45.0776686,9.0093324 45.5326641,8.916 46.046,8.916 C46.5593359,8.916 47.0143314,9.0093324 47.411,9.196 C47.8076686,9.3826676 48.141332,9.63699839 48.412,9.959 C48.682668,10.2810016 48.885666,10.6636644 49.021,11.107 C49.156334,11.5503355 49.224,12.0286641 49.224,12.542 C49.224,13.0553359 49.156334,13.5336645 49.021,13.977 C48.885666,14.4203355 48.682668,14.807665 48.412,15.139 C48.141332,15.470335 47.8076686,15.7316657 47.411,15.923 C47.0143314,16.1143343 46.5593359,16.21 46.046,16.21 Z M46.074,15.3 C46.3913349,15.3 46.6713321,15.2300007 46.914,15.09 C47.1566679,14.9499993 47.3573325,14.7563346 47.516,14.509 C47.6746675,14.2616654 47.7959996,13.9700017 47.88,13.634 C47.9640004,13.2979983 48.006,12.934002 48.006,12.542 C48.006,12.149998 47.9640004,11.788335 47.88,11.457 C47.7959996,11.125665 47.6700008,10.8386679 47.502,10.596 C47.3339992,10.3533321 47.1286679,10.164334 46.886,10.029 C46.6433321,9.89366599 46.3633349,9.826 46.046,9.826 C45.7193317,9.826 45.4346679,9.89366599 45.192,10.029 C44.9493321,10.164334 44.7486675,10.3533321 44.59,10.596 C44.4313325,10.8386679 44.3100004,11.125665 44.226,11.457 C44.1419996,11.788335 44.1,12.149998 44.1,12.542 C44.1,12.934002 44.1419996,13.2979983 44.226,13.634 C44.3100004,13.9700017 44.4336659,14.2616654 44.597,14.509 C44.7603342,14.7563346 44.9656654,14.9499993 45.213,15.09 C45.4603346,15.2300007 45.7473317,15.3 46.074,15.3 Z M51.31,9.91 L50.134,9.91 L50.134,9.112 L50.386,9.112 C50.6753348,9.112 50.9016658,9.08166697 51.065,9.021 C51.2283342,8.96033303 51.3519996,8.86700063 51.436,8.741 C51.5200004,8.61499937 51.5806665,8.44933436 51.618,8.244 C51.6553335,8.03866564 51.6879999,7.78666816 51.716,7.488 L51.744,7.236 L52.472,7.236 L52.472,9.112 L53.956,9.112 L53.956,9.91 L52.472,9.91 L52.472,14.194 C52.472,14.586002 52.5303327,14.8683325 52.647,15.041 C52.7636673,15.2136675 52.9806651,15.3 53.298,15.3 C53.5500013,15.3 53.7833323,15.2440006 53.998,15.132 L54.124,15.972 C53.7693316,16.1306675 53.3773355,16.21 52.948,16.21 C52.6119983,16.21 52.339001,16.1633338 52.129,16.07 C51.918999,15.9766662 51.7533339,15.8506675 51.632,15.692 C51.5106661,15.5333325 51.4266669,15.3420011 51.38,15.118 C51.3333331,14.8939989 51.31,14.6513346 51.31,14.39 L51.31,9.91 Z M55.356,6.438 L56.518,6.438 L56.518,7.6 L55.356,7.6 L55.356,6.438 Z M55.356,9.112 L56.518,9.112 L56.518,16 L55.356,16 L55.356,9.112 Z M58.898,9.91 L57.708,9.91 L57.708,9.112 L58.842,9.112 C58.767333,8.86933212 58.7043336,8.61033471 58.653,8.335 C58.6016664,8.05966529 58.576,7.80066788 58.576,7.558 C58.576,7.33399888 58.6016664,7.12166767 58.653,6.921 C58.7043336,6.72033233 58.7953327,6.54300077 58.926,6.389 C59.0566673,6.23499923 59.2339989,6.1113338 59.458,6.018 C59.6820011,5.9246662 59.9666649,5.878 60.312,5.878 C60.5640013,5.878 60.7903323,5.89433317 60.991,5.927 C61.1916677,5.95966683 61.3806658,6.01333296 61.558,6.088 L61.362,6.97 C61.2593328,6.9233331 61.1310008,6.88366683 60.977,6.851 C60.8229992,6.81833317 60.6806673,6.802 60.55,6.802 C60.0179973,6.802 59.752,7.10999692 59.752,7.726 C59.752,7.96866788 59.782333,8.22066536 59.843,8.482 C59.903667,8.74333464 59.9666663,8.95333254 60.032,9.112 L61.362,9.112 L61.362,9.91 L60.074,9.91 L60.074,16 L58.898,16 L58.898,9.91 Z M62.384,17.47 C62.4866672,17.5073335 62.6033327,17.5399999 62.734,17.568 C62.8646673,17.5960001 62.9999993,17.61 63.14,17.61 C63.2893341,17.61 63.4176661,17.5890002 63.525,17.547 C63.6323339,17.5049998 63.7303329,17.4280006 63.819,17.316 C63.9076671,17.2039994 63.9916663,17.0546676 64.071,16.868 C64.1503337,16.6813324 64.2366662,16.4386682 64.33,16.14 L61.992,9.112 L63.252,9.112 L64.932,14.81 L66.598,9.112 L67.858,9.112 L65.744,15.454 C65.5666658,15.995336 65.4056674,16.4573314 65.261,16.84 C65.1163326,17.2226686 64.9553342,17.5376654 64.778,17.785 C64.6006658,18.0323346 64.383668,18.2143328 64.127,18.331 C63.8703321,18.4476672 63.5413353,18.506 63.14,18.506 C62.9813325,18.506 62.8110009,18.4990001 62.629,18.485 C62.4469991,18.4709999 62.3046672,18.4453335 62.202,18.408 L62.384,17.47 Z M72.24,9.112 L73.416,9.112 L73.416,13.284 C73.416,13.9373366 73.5373321,14.4156651 73.78,14.719 C74.0226679,15.0223349 74.3633311,15.174 74.802,15.174 C75.3620028,15.174 75.7983318,14.9523356 76.111,14.509 C76.4236682,14.0656644 76.58,13.475337 76.58,12.738 L76.58,9.112 L77.742,9.112 L77.742,16 L76.65,16 L76.65,14.6 C76.5659996,14.8146677 76.4633339,15.0176657 76.342,15.209 C76.2206661,15.4003343 76.0713342,15.5683326 75.894,15.713 C75.7166658,15.8576674 75.5113345,15.9719996 75.278,16.056 C75.0446655,16.1400004 74.7693349,16.182 74.452,16.182 C73.7053296,16.182 73.1500018,15.9556689 72.786,15.503 C72.4219982,15.0503311 72.24,14.4086708 72.24,13.578 L72.24,9.112 Z M79.534,9.112 L80.696,9.112 L80.696,10.442 C80.7800004,10.245999 80.8873327,10.0546676 81.018,9.868 C81.1486673,9.6813324 81.3049991,9.5180007 81.487,9.378 C81.6690009,9.2379993 81.8813321,9.12600042 82.124,9.042 C82.3666679,8.95799958 82.6419985,8.916 82.95,8.916 C83.3980022,8.916 83.787665,9.0093324 84.119,9.196 C84.450335,9.3826676 84.7233323,9.6393317 84.938,9.966 C85.1526677,10.2926683 85.3136661,10.6729978 85.421,11.107 C85.5283339,11.5410022 85.582,12.0099975 85.582,12.514 C85.582,13.1113363 85.5120007,13.6386644 85.372,14.096 C85.2319993,14.5533356 85.0360013,14.9359985 84.784,15.244 C84.5319987,15.5520015 84.2380017,15.7853325 83.902,15.944 C83.5659983,16.1026675 83.202002,16.182 82.81,16.182 C82.2966641,16.182 81.8556685,16.0560013 81.487,15.804 C81.1183315,15.5519987 80.8546675,15.2393352 80.696,14.866 L80.696,18.422 L79.534,18.422 L79.534,9.112 Z M80.696,12.598 C80.696,12.794001 80.7029999,12.9736659 80.717,13.137 C80.7310001,13.3003342 80.7473332,13.4379994 80.766,13.55 C80.8033335,13.7740011 80.8733328,13.9886656 80.976,14.194 C81.0786672,14.3993344 81.2046659,14.5789992 81.354,14.733 C81.5033341,14.8870008 81.6783323,15.0106662 81.879,15.104 C82.0796677,15.1973338 82.3013321,15.244 82.544,15.244 C82.8613349,15.244 83.1343322,15.1693341 83.363,15.02 C83.5916678,14.8706659 83.7806659,14.6700013 83.93,14.418 C84.0793341,14.1659987 84.1889997,13.8790016 84.259,13.557 C84.3290004,13.2349984 84.364,12.9013351 84.364,12.556 C84.364,12.2106649 84.3313337,11.8770016 84.266,11.555 C84.2006663,11.2329984 84.0956674,10.9483346 83.951,10.701 C83.8063326,10.4536654 83.6173345,10.2553341 83.384,10.106 C83.1506655,9.95666592 82.8706683,9.882 82.544,9.882 C82.2919987,9.882 82.061001,9.9286662 81.851,10.022 C81.640999,10.1153338 81.4613341,10.2413325 81.312,10.4 C81.1626659,10.5586675 81.0390005,10.7406656 80.941,10.946 C80.8429995,11.1513344 80.7800001,11.3659989 80.752,11.59 C80.7333332,11.6833338 80.7193334,11.8116659 80.71,11.975 C80.7006666,12.1383341 80.696,12.3273323 80.696,12.542 L80.696,12.598 Z M91.7,14.656 C91.5133324,15.122669 91.2380018,15.491332 90.874,15.762 C90.5099982,16.032668 90.057336,16.168 89.516,16.168 C89.0866645,16.168 88.7016684,16.0793342 88.361,15.902 C88.0203316,15.7246658 87.7310012,15.4773349 87.493,15.16 C87.2549988,14.8426651 87.0730006,14.4600022 86.947,14.012 C86.8209994,13.5639978 86.758,13.069336 86.758,12.528 C86.758,11.9679972 86.8233327,11.4663355 86.954,11.023 C87.0846673,10.5796645 87.2713321,10.2040015 87.514,9.896 C87.7566679,9.58799846 88.0483316,9.35000084 88.389,9.182 C88.7296684,9.01399916 89.1053313,8.93 89.516,8.93 C90.0760028,8.93 90.5333316,9.06299867 90.888,9.329 C91.2426684,9.59500133 91.4946659,9.9146648 91.644,10.288 L91.644,6.116 L92.82,6.116 L92.82,16 L91.7,16 L91.7,14.656 Z M91.644,12.514 C91.644,12.2246652 91.6370001,11.9983341 91.623,11.835 C91.6089999,11.6716658 91.5926668,11.5386672 91.574,11.436 C91.5273331,11.2306656 91.4573338,11.0346676 91.364,10.848 C91.2706662,10.6613324 91.1516674,10.4956674 91.007,10.351 C90.8623326,10.2063326 90.692001,10.0920004 90.496,10.008 C90.299999,9.92399958 90.0760013,9.882 89.824,9.882 C89.5066651,9.882 89.2336678,9.9519993 89.005,10.092 C88.7763322,10.2320007 88.5850008,10.4209988 88.431,10.659 C88.2769992,10.8970012 88.162667,11.1769984 88.088,11.499 C88.013333,11.8210016 87.976,12.1639982 87.976,12.528 C87.976,12.920002 88.0179996,13.281665 88.102,13.613 C88.1860004,13.944335 88.3073325,14.2289988 88.466,14.467 C88.6246675,14.7050012 88.8206655,14.891666 89.054,15.027 C89.2873345,15.162334 89.5533318,15.23 89.852,15.23 C90.0853345,15.23 90.2976657,15.1880004 90.489,15.104 C90.6803343,15.0199996 90.8483326,14.9033341 90.993,14.754 C91.1376674,14.6046659 91.2566662,14.4343343 91.35,14.243 C91.4433338,14.0516657 91.5133331,13.8486677 91.56,13.634 C91.6160003,13.3726654 91.644,13.0226689 91.644,12.584 L91.644,12.514 Z M98.924,16 C98.8213328,15.6639983 98.7606668,15.262669 98.742,14.796 C98.5553324,15.2253355 98.2683353,15.568332 97.881,15.825 C97.4936647,16.081668 97.0340027,16.21 96.502,16.21 C95.8299966,16.21 95.298002,16.0186686 94.906,15.636 C94.513998,15.2533314 94.318,14.7400032 94.318,14.096 C94.318,13.7319982 94.3833327,13.4263346 94.514,13.179 C94.6446673,12.9316654 94.8266655,12.7263341 95.06,12.563 C95.2933345,12.3996659 95.5686651,12.2713338 95.886,12.178 C96.2033349,12.0846662 96.5486648,12.0100003 96.922,11.954 L98.686,11.688 L98.686,11.254 C98.686,10.9459985 98.648667,10.6986676 98.574,10.512 C98.499333,10.3253324 98.3966673,10.1806672 98.266,10.078 C98.1353327,9.97533282 97.9860008,9.90766683 97.818,9.875 C97.6499992,9.84233317 97.4726676,9.826 97.286,9.826 C96.7539973,9.826 96.3153351,9.92399902 95.97,10.12 C95.6246649,10.316001 95.3353345,10.5633318 95.102,10.862 L94.5,10.106 C94.770668,9.7793317 95.1463309,9.4993345 95.627,9.266 C96.1076691,9.0326655 96.7026631,8.916 97.412,8.916 C98.270671,8.916 98.8936647,9.10733142 99.281,9.49 C99.6683353,9.87266858 99.862,10.4886624 99.862,11.338 L99.862,14.124 C99.862,14.3480011 99.8643333,14.5439992 99.869,14.712 C99.8736667,14.8800008 99.8829999,15.0363326 99.897,15.181 C99.9110001,15.3256674 99.9319999,15.4633327 99.96,15.594 C99.9880001,15.7246673 100.025333,15.8599993 100.072,16 L98.924,16 Z M98.686,12.458 L97.034,12.724 C96.4646638,12.8266672 96.0610012,12.9806656 95.823,13.186 C95.5849988,13.3913344 95.466,13.6759982 95.466,14.04 C95.466,14.4133352 95.5756656,14.7259987 95.795,14.978 C96.0143344,15.2300013 96.3386645,15.356 96.768,15.356 C97.0293346,15.356 97.2766655,15.3046672 97.51,15.202 C97.7433345,15.0993328 97.9463325,14.9570009 98.119,14.775 C98.2916675,14.5929991 98.4293328,14.373668 98.532,14.117 C98.6346672,13.860332 98.686,13.5780015 98.686,13.27 L98.686,12.458 Z M102.326,9.91 L101.15,9.91 L101.15,9.112 L101.402,9.112 C101.691335,9.112 101.917666,9.08166697 102.081,9.021 C102.244334,8.96033303 102.368,8.86700063 102.452,8.741 C102.536,8.61499937 102.596666,8.44933436 102.634,8.244 C102.671334,8.03866564 102.704,7.78666816 102.732,7.488 L102.76,7.236 L103.488,7.236 L103.488,9.112 L104.972,9.112 L104.972,9.91 L103.488,9.91 L103.488,14.194 C103.488,14.586002 103.546333,14.8683325 103.663,15.041 C103.779667,15.2136675 103.996665,15.3 104.314,15.3 C104.566001,15.3 104.799332,15.2440006 105.014,15.132 L105.14,15.972 C104.785332,16.1306675 104.393335,16.21 103.964,16.21 C103.627998,16.21 103.355001,16.1633338 103.145,16.07 C102.934999,15.9766662 102.769334,15.8506675 102.648,15.692 C102.526666,15.5333325 102.442667,15.3420011 102.396,15.118 C102.349333,14.8939989 102.326,14.6513346 102.326,14.39 L102.326,9.91 Z M107.254,12.822 C107.300667,13.6153373 107.503665,14.2289978 107.863,14.663 C108.222335,15.0970022 108.723997,15.314 109.368,15.314 C110.180004,15.314 110.791331,14.9313372 111.202,14.166 L112.084,14.656 C111.813332,15.1133356 111.454002,15.4866652 111.006,15.776 C110.557998,16.0653348 109.993337,16.21 109.312,16.21 C108.770664,16.21 108.297002,16.1166676 107.891,15.93 C107.484998,15.7433324 107.146668,15.4866683 106.876,15.16 C106.605332,14.8333317 106.402334,14.4506689 106.267,14.012 C106.131666,13.5733311 106.064,13.1020025 106.064,12.598 C106.064,12.1033309 106.129333,11.6320022 106.26,11.184 C106.390667,10.7359978 106.588999,10.3440017 106.855,10.008 C107.121001,9.67199832 107.447665,9.40600098 107.835,9.21 C108.222335,9.01399902 108.677331,8.916 109.2,8.916 C109.704003,8.916 110.142665,9.01166571 110.516,9.203 C110.889335,9.39433429 111.199665,9.65099839 111.447,9.973 C111.694335,10.2950016 111.880999,10.6683312 112.007,11.093 C112.133001,11.5176688 112.196,11.9679976 112.196,12.444 C112.196,12.5466672 112.193667,12.6259997 112.189,12.682 C112.184333,12.7380003 112.182,12.7846665 112.182,12.822 L107.254,12.822 Z M109.186,9.798 C108.597997,9.798 108.143002,10.0079979 107.821,10.428 C107.498998,10.8480021 107.314667,11.4126631 107.268,12.122 L111.006,12.122 C111.006,11.8326652 110.973334,11.5503347 110.908,11.275 C110.842666,10.9996653 110.735334,10.7523344 110.586,10.533 C110.436666,10.3136656 110.247668,10.136334 110.019,10.001 C109.790332,9.86566599 109.512668,9.798 109.186,9.798 Z M113.736,14.306 C113.969335,14.6046682 114.270331,14.851999 114.639,15.048 C115.007669,15.244001 115.411331,15.342 115.85,15.342 C116.242002,15.342 116.582665,15.2486676 116.872,15.062 C117.161335,14.8753324 117.306,14.5953352 117.306,14.222 C117.306,13.9326652 117.210334,13.7063341 117.019,13.543 C116.827666,13.3796659 116.589668,13.2420006 116.305,13.13 C116.020332,13.0179994 115.710002,12.9153338 115.374,12.822 C115.037998,12.7286662 114.727668,12.6073341 114.443,12.458 C114.158332,12.3086659 113.920334,12.1126679 113.729,11.87 C113.537666,11.6273321 113.442,11.2960021 113.442,10.876 C113.442,10.5306649 113.511999,10.2343346 113.652,9.987 C113.792001,9.73966543 113.976332,9.53666746 114.205,9.378 C114.433668,9.21933254 114.697332,9.10266704 114.996,9.028 C115.294668,8.95333296 115.607332,8.916 115.934,8.916 C116.904672,8.916 117.711997,9.1959972 118.356,9.756 L117.768,10.54 C117.562666,10.3253323 117.289668,10.1456674 116.949,10.001 C116.608332,9.85633261 116.256002,9.784 115.892,9.784 C115.733333,9.784 115.577001,9.80266648 115.423,9.84 C115.268999,9.87733352 115.133667,9.93566627 115.017,10.015 C114.900333,10.0943337 114.807,10.1946661 114.737,10.316 C114.667,10.4373339 114.632,10.5866658 114.632,10.764 C114.632,11.034668 114.727666,11.2446659 114.919,11.394 C115.110334,11.5433341 115.348332,11.6716661 115.633,11.779 C115.917668,11.8863339 116.225665,11.9889995 116.557,12.087 C116.888335,12.1850005 117.196332,12.3109992 117.481,12.465 C117.765668,12.6190008 118.003666,12.8219987 118.195,13.074 C118.386334,13.3260013 118.482,13.6619979 118.482,14.082 C118.482,14.4366684 118.409667,14.7469987 118.265,15.013 C118.120333,15.2790013 117.929001,15.5006658 117.691,15.678 C117.452999,15.8553342 117.177668,15.9883329 116.865,16.077 C116.552332,16.1656671 116.228002,16.21 115.892,16.21 C114.734661,16.21 113.815337,15.8366704 113.134,15.09 L113.736,14.306 Z" id="Don’t-notify-updates" fill="#3F4F5A"></path>
                <g id="Radio-button-Copy-3" transform="translate(143.000000, 0.000000)">
                    <path d="M36,0 C42.627417,0 48,5.372583 48,12 C48,18.627417 42.627417,24 36,24 L13,24 L13,23.9589262 C12.6702666,23.9861287 12.3367532,24 12,24 C5.372583,24 0,18.627417 0,12 C0,5.372583 5.372583,0 12,0 C12.3367532,0 12.6702666,0.0138713289 13,0.041073777 L13,0 L36,0 Z" id="Combined-Shape" stroke="#E1E5E9" fill="#E1E5E9"></path>
                    <circle id="Oval" stroke="#AAB1B6" fill="#FFFFFF" cx="12" cy="12" r="12"></circle>
                </g>
            </g>
        </g>
    </g>
</svg>