<?xml version="1.0" encoding="UTF-8"?>
<svg width="365px" height="328px" viewBox="0 0 365 328" version="1.1" xmlns="http://www.w3.org/2000/svg" xmlns:xlink="http://www.w3.org/1999/xlink">
    <!-- Generator: Sketch 47 (45396) - http://www.bohemiancoding.com/sketch -->
    <title>TabsWithContentSwipe</title>
    <desc>Created with Sketch.</desc>
    <defs>
        <rect id="path-1" x="0" y="0" width="365" height="328"></rect>
        <rect id="path-2" x="0" y="0" width="252" height="200" rx="7"></rect>
    </defs>
    <g id="Page-1" stroke="none" stroke-width="1" fill="none" fill-rule="evenodd">
        <g id="Buttons-Usage-extra-large-1200" transform="translate(-324.000000, -2741.000000)">
            <g id="Group-6" transform="translate(305.000000, 2721.000000)">
                <g id="TabsWithContentSwipe" transform="translate(19.000000, 20.000000)">
                    <g id="Panel">
                        <use fill="#FFFFFF" fill-rule="evenodd" xlink:href="#path-1"></use>
                        <rect stroke="#D2D6D9" stroke-width="1" x="0.5" y="0.5" width="364" height="327"></rect>
                    </g>
                    <g id="Group-2" transform="translate(22.000000, 14.000000)">
                        <path d="M76,0 L76,16" id="Line" stroke="#D2D6D9" stroke-linecap="square"></path>
                        <path d="M11.264,1.704 L12.704,1.704 L12.704,13 L11.264,13 L11.264,1.704 Z M14.992,5.128 L16.144,5.128 L16.288,6.664 C16.480001,6.11999728 16.7786646,5.69066824 17.184,5.376 C17.5893354,5.06133176 18.0853304,4.904 18.672,4.904 C19.2906698,4.904 19.7759982,5.07999824 20.128,5.432 C20.4800018,5.78400176 20.7039995,6.21066416 20.8,6.712 C20.8960005,6.46666544 21.0159993,6.23466776 21.16,6.016 C21.3040007,5.79733224 21.4773323,5.60533416 21.68,5.44 C21.8826677,5.27466584 22.117332,5.14400048 22.384,5.048 C22.650668,4.95199952 22.954665,4.904 23.296,4.904 C23.7440022,4.904 24.1146652,4.98133256 24.408,5.136 C24.7013348,5.29066744 24.9359991,5.501332 25.112,5.768 C25.2880009,6.034668 25.413333,6.34666488 25.488,6.704 C25.562667,7.06133512 25.6,7.43733136 25.6,7.832 L25.6,13 L24.272,13 L24.272,8.168 C24.272,7.46399648 24.1466679,6.9386684 23.896,6.592 C23.6453321,6.2453316 23.2800024,6.072 22.8,6.072 C22.2773307,6.072 21.8400018,6.30399768 21.488,6.768 C21.1359982,7.23200232 20.96,7.89599568 20.96,8.76 L20.96,13 L19.632,13 L19.632,8.232 C19.632,7.49599632 19.5040013,6.95200176 19.248,6.6 C18.9919987,6.24799824 18.634669,6.072 18.176,6.072 C17.6639974,6.072 17.2266685,6.30933096 16.864,6.784 C16.5013315,7.25866904 16.32,7.94399552 16.32,8.84 L16.32,13 L14.992,13 L14.992,5.128 Z M32.56,13 C32.4426661,12.6159981 32.3733334,12.157336 32.352,11.624 C32.1386656,12.1146691 31.8106689,12.5066652 31.368,12.8 C30.9253311,13.0933348 30.400003,13.24 29.792,13.24 C29.0239962,13.24 28.4160022,13.0213355 27.968,12.584 C27.5199978,12.1466645 27.296,11.5600037 27.296,10.824 C27.296,10.4079979 27.3706659,10.0586681 27.52,9.776 C27.6693341,9.49333192 27.877332,9.2586676 28.144,9.072 C28.410668,8.8853324 28.7253315,8.7386672 29.088,8.632 C29.4506685,8.5253328 29.8453312,8.44000032 30.272,8.376 L32.288,8.072 L32.288,7.576 C32.288,7.22399824 32.2453338,6.9413344 32.16,6.728 C32.0746662,6.5146656 31.9573341,6.34933392 31.808,6.232 C31.6586659,6.11466608 31.488001,6.03733352 31.296,6 C31.103999,5.96266648 30.9013344,5.944 30.688,5.944 C30.079997,5.944 29.5786686,6.05599888 29.184,6.28 C28.7893314,6.50400112 28.458668,6.78666496 28.192,7.128 L27.504,6.264 C27.8133349,5.8906648 28.2426639,5.570668 28.792,5.304 C29.3413361,5.037332 30.0213293,4.904 30.832,4.904 C31.8133382,4.904 32.5253311,5.12266448 32.968,5.56 C33.4106689,5.99733552 33.632,6.70132848 33.632,7.672 L33.632,10.856 C33.632,11.1120013 33.6346666,11.335999 33.64,11.528 C33.6453334,11.720001 33.6559999,11.8986658 33.672,12.064 C33.6880001,12.2293342 33.7119998,12.3866659 33.744,12.536 C33.7760002,12.6853341 33.8186664,12.8399992 33.872,13 L32.56,13 Z M32.288,8.952 L30.4,9.256 C29.7493301,9.37333392 29.2880014,9.54933216 29.016,9.784 C28.7439986,10.0186678 28.608,10.3439979 28.608,10.76 C28.608,11.1866688 28.7333321,11.5439986 28.984,11.832 C29.2346679,12.1200014 29.6053309,12.264 30.096,12.264 C30.3946682,12.264 30.677332,12.2053339 30.944,12.088 C31.210668,11.9706661 31.4426657,11.808001 31.64,11.6 C31.8373343,11.391999 31.9946661,11.1413348 32.112,10.848 C32.2293339,10.5546652 32.288,10.2320018 32.288,9.88 L32.288,8.952 Z M36.4,13.944 C36.7093349,14.2426682 37.0799978,14.4799991 37.512,14.656 C37.9440022,14.8320009 38.4053309,14.92 38.896,14.92 C39.3013354,14.92 39.6319987,14.8586673 39.888,14.736 C40.1440013,14.6133327 40.3466659,14.4453344 40.496,14.232 C40.6453341,14.0186656 40.749333,13.7760014 40.808,13.504 C40.866667,13.2319986 40.896,12.9413349 40.896,12.632 L40.896,11.176 C40.6933323,11.6560024 40.3893354,12.0426652 39.984,12.336 C39.5786646,12.6293348 39.0560032,12.776 38.416,12.776 C37.957331,12.776 37.5413352,12.6880009 37.168,12.512 C36.7946648,12.3359991 36.474668,12.0826683 36.208,11.752 C35.941332,11.4213317 35.7360007,11.0160024 35.592,10.536 C35.4479993,10.0559976 35.376,9.51733632 35.376,8.92 C35.376,8.3333304 35.4479993,7.79466912 35.592,7.304 C35.7360007,6.81333088 35.9439986,6.39200176 36.216,6.04 C36.4880014,5.68799824 36.8186647,5.41333432 37.208,5.216 C37.5973353,5.01866568 38.0319976,4.92 38.512,4.92 C39.1413365,4.92 39.6639979,5.07733176 40.08,5.392 C40.4960021,5.70666824 40.7946658,6.10933088 40.976,6.6 L41.2,5.128 L42.224,5.128 L42.224,12.6 C42.224,13.0480022 42.1706672,13.471998 42.064,13.872 C41.9573328,14.272002 41.7760013,14.6266651 41.52,14.936 C41.2639987,15.2453349 40.9226688,15.4906658 40.496,15.672 C40.0693312,15.8533342 39.5360032,15.944 38.896,15.944 C38.2026632,15.944 37.5813361,15.8453343 37.032,15.648 C36.4826639,15.4506657 36.0213352,15.2026682 35.648,14.904 L36.4,13.944 Z M40.896,8.92 C40.896,8.73866576 40.8933334,8.56533416 40.888,8.4 C40.8826666,8.23466584 40.8693334,8.10933376 40.848,8.024 C40.8053331,7.76799872 40.7360005,7.51733456 40.64,7.272 C40.5439995,7.02666544 40.4133342,6.81333424 40.248,6.632 C40.0826658,6.45066576 39.8800012,6.30400056 39.64,6.192 C39.3999988,6.07999944 39.1200016,6.024 38.8,6.024 C38.4479982,6.024 38.1440013,6.09866592 37.888,6.248 C37.6319987,6.39733408 37.4213342,6.59999872 37.256,6.856 C37.0906658,7.11200128 36.9680004,7.41599824 36.888,7.768 C36.8079996,8.12000176 36.768,8.49333136 36.768,8.888 C36.768,9.24000176 36.805333,9.5893316 36.88,9.936 C36.954667,10.2826684 37.0719992,10.589332 37.232,10.856 C37.3920008,11.122668 37.6026654,11.3386658 37.864,11.504 C38.1253346,11.6693342 38.4426648,11.752 38.816,11.752 C39.3386693,11.752 39.7599984,11.6053348 40.08,11.312 C40.4000016,11.0186652 40.6239994,10.6480022 40.752,10.2 C40.8053336,10.0506659 40.8426666,9.86400112 40.864,9.64 C40.8853334,9.41599888 40.896,9.20266768 40.896,9 L40.896,8.92 Z M45.28,9.368 C45.3333336,10.2746712 45.5653313,10.9759975 45.976,11.472 C46.3866687,11.9680025 46.9599963,12.216 47.696,12.216 C48.6240046,12.216 49.3226643,11.778671 49.792,10.904 L50.8,11.464 C50.4906651,11.9866693 50.0800026,12.4133317 49.568,12.744 C49.0559974,13.0746683 48.4106706,13.24 47.632,13.24 C47.0133302,13.24 46.4720023,13.1333344 46.008,12.92 C45.5439977,12.7066656 45.1573349,12.4133352 44.848,12.04 C44.5386651,11.6666648 44.3066674,11.2293358 44.152,10.728 C43.9973326,10.2266642 43.92,9.68800288 43.92,9.112 C43.92,8.54666384 43.9946659,8.00800256 44.144,7.496 C44.2933341,6.98399744 44.5199985,6.53600192 44.824,6.152 C45.1280015,5.76799808 45.5013311,5.46400112 45.944,5.24 C46.3866689,5.01599888 46.9066637,4.904 47.504,4.904 C48.0800029,4.904 48.5813312,5.01333224 49.008,5.232 C49.4346688,5.45066776 49.7893319,5.74399816 50.072,6.112 C50.3546681,6.48000184 50.5679993,6.90666424 50.712,7.392 C50.8560007,7.87733576 50.928,8.39199728 50.928,8.936 C50.928,9.05333392 50.9253334,9.14399968 50.92,9.208 C50.9146666,9.27200032 50.912,9.32533312 50.912,9.368 L45.28,9.368 Z M47.488,5.912 C46.8159966,5.912 46.2960018,6.1519976 45.928,6.632 C45.5599982,7.1120024 45.3493336,7.75732928 45.296,8.568 L49.568,8.568 C49.568,8.23733168 49.530667,7.91466824 49.456,7.6 C49.381333,7.28533176 49.2586675,7.00266792 49.088,6.752 C48.9173325,6.50133208 48.7013346,6.29866744 48.44,6.144 C48.1786654,5.98933256 47.8613352,5.912 47.488,5.912 Z M52.688,11.064 C52.954668,11.405335 53.2986646,11.6879989 53.72,11.912 C54.1413354,12.1360011 54.6026642,12.248 55.104,12.248 C55.5520022,12.248 55.9413317,12.1413344 56.272,11.928 C56.6026683,11.7146656 56.768,11.3946688 56.768,10.968 C56.768,10.6373317 56.6586678,10.3786676 56.44,10.192 C56.2213322,10.0053324 55.949335,9.84800064 55.624,9.72 C55.298665,9.59199936 54.9440019,9.4746672 54.56,9.368 C54.1759981,9.2613328 53.821335,9.12266752 53.496,8.952 C53.170665,8.78133248 52.8986678,8.55733472 52.68,8.28 C52.4613322,8.00266528 52.352,7.6240024 52.352,7.144 C52.352,6.74933136 52.4319992,6.41066808 52.592,6.128 C52.7520008,5.84533192 52.9626654,5.61333424 53.224,5.432 C53.4853346,5.25066576 53.786665,5.11733376 54.128,5.032 C54.469335,4.94666624 54.8266648,4.904 55.2,4.904 C56.3093389,4.904 57.2319963,5.2239968 57.968,5.864 L57.296,6.76 C57.0613322,6.51466544 56.7493353,6.30933416 56.36,6.144 C55.9706647,5.97866584 55.5680021,5.896 55.152,5.896 C54.9706658,5.896 54.7920009,5.91733312 54.616,5.96 C54.4399991,6.00266688 54.285334,6.06933288 54.152,6.16 C54.018666,6.25066712 53.9120004,6.36533264 53.832,6.504 C53.7519996,6.64266736 53.712,6.81333232 53.712,7.016 C53.712,7.32533488 53.8213322,7.56533248 54.04,7.736 C54.2586678,7.90666752 54.530665,8.05333272 54.856,8.176 C55.181335,8.29866728 55.5333314,8.41599944 55.912,8.528 C56.2906686,8.64000056 56.642665,8.78399912 56.968,8.96 C57.293335,9.13600088 57.5653322,9.36799856 57.784,9.656 C58.0026678,9.94400144 58.112,10.3279976 58.112,10.808 C58.112,11.2133354 58.0293342,11.5679985 57.864,11.872 C57.6986658,12.1760015 57.4800014,12.4293323 57.208,12.632 C56.9359986,12.8346677 56.6213351,12.9866662 56.264,13.088 C55.9066649,13.1893338 55.5360019,13.24 55.152,13.24 C53.8293267,13.24 52.7786706,12.8133376 52,11.96 L52.688,11.064 Z" id="Images" fill="#000000"></path>
                        <path d="M98.824,13.24 C98.0559962,13.24 97.3573365,13.1013347 96.728,12.824 C96.0986635,12.5466653 95.5573356,12.1493359 95.104,11.632 C94.6506644,11.1146641 94.2986679,10.4906703 94.048,9.76 C93.7973321,9.02932968 93.672,8.21600448 93.672,7.32 C93.672,6.4133288 93.7973321,5.6000036 94.048,4.88 C94.2986679,4.1599964 94.6506644,3.5466692 95.104,3.04 C95.5573356,2.5333308 96.0986635,2.14400136 96.728,1.872 C97.3573365,1.59999864 98.0559962,1.464 98.824,1.464 C99.5920038,1.464 100.29333,1.59999864 100.928,1.872 C101.56267,2.14400136 102.106664,2.5333308 102.56,3.04 C103.013336,3.5466692 103.367999,4.1599964 103.624,4.88 C103.880001,5.6000036 104.008,6.4133288 104.008,7.32 C104.008,8.21600448 103.880001,9.02932968 103.624,9.76 C103.367999,10.4906703 103.008002,11.1146641 102.544,11.632 C102.079998,12.1493359 101.53067,12.5466653 100.896,12.824 C100.26133,13.1013347 99.5706704,13.24 98.824,13.24 Z M98.824,11.992 C99.3893362,11.992 99.8959978,11.8800011 100.344,11.656 C100.792002,11.4319989 101.173332,11.1146687 101.488,10.704 C101.802668,10.2933313 102.042666,9.80000288 102.208,9.224 C102.373334,8.64799712 102.456,8.0133368 102.456,7.32 C102.456,6.64799664 102.373334,6.02933616 102.208,5.464 C102.042666,4.89866384 101.805335,4.41333536 101.496,4.008 C101.186665,3.60266464 100.802669,3.28533448 100.344,3.056 C99.885331,2.82666552 99.3680029,2.712 98.792,2.712 C98.2159971,2.712 97.7066689,2.82666552 97.264,3.056 C96.8213311,3.28533448 96.4480015,3.60266464 96.144,4.008 C95.8399985,4.41333536 95.6080008,4.89866384 95.448,5.464 C95.2879992,6.02933616 95.208,6.64799664 95.208,7.32 C95.208,8.0133368 95.2933325,8.64799712 95.464,9.224 C95.6346675,9.80000288 95.8799984,10.2933313 96.2,10.704 C96.5200016,11.1146687 96.9013311,11.4319989 97.344,11.656 C97.7866689,11.8800011 98.2799973,11.992 98.824,11.992 Z M106.392,6.04 L105.048,6.04 L105.048,5.128 L105.336,5.128 C105.666668,5.128 105.925332,5.09333368 106.112,5.024 C106.298668,4.95466632 106.44,4.84800072 106.536,4.704 C106.632,4.55999928 106.701333,4.37066784 106.744,4.136 C106.786667,3.90133216 106.824,3.61333504 106.856,3.272 L106.888,2.984 L107.72,2.984 L107.72,5.128 L109.416,5.128 L109.416,6.04 L107.72,6.04 L107.72,10.936 C107.72,11.3840022 107.786666,11.7066657 107.92,11.904 C108.053334,12.1013343 108.301332,12.2 108.664,12.2 C108.952001,12.2 109.218665,12.1360006 109.464,12.008 L109.608,12.968 C109.202665,13.1493342 108.754669,13.24 108.264,13.24 C107.879998,13.24 107.568001,13.1866672 107.328,13.08 C107.087999,12.9733328 106.898667,12.8293342 106.76,12.648 C106.621333,12.4666658 106.525334,12.2480013 106.472,11.992 C106.418666,11.7359987 106.392,11.4586682 106.392,11.16 L106.392,6.04 Z M111.016,1.704 L112.344,1.704 L112.344,6.68 C112.44,6.44533216 112.562666,6.2213344 112.712,6.008 C112.861334,5.7946656 113.042666,5.60533416 113.256,5.44 C113.469334,5.27466584 113.714665,5.14400048 113.992,5.048 C114.269335,4.95199952 114.578665,4.904 114.92,4.904 C115.741337,4.904 116.346665,5.17333064 116.736,5.712 C117.125335,6.25066936 117.32,6.97866208 117.32,7.896 L117.32,13 L115.992,13 L115.992,8.104 C115.992,7.43199664 115.853335,6.92800168 115.576,6.592 C115.298665,6.25599832 114.904003,6.088 114.392,6.088 C114.093332,6.088 113.818668,6.15199936 113.568,6.28 C113.317332,6.40800064 113.101334,6.58933216 112.92,6.824 C112.738666,7.05866784 112.597334,7.34133168 112.496,7.672 C112.394666,8.00266832 112.344,8.36533136 112.344,8.76 L112.344,13 L111.016,13 L111.016,1.704 Z M120.344,9.368 C120.397334,10.2746712 120.629331,10.9759975 121.04,11.472 C121.450669,11.9680025 122.023996,12.216 122.76,12.216 C123.688005,12.216 124.386664,11.778671 124.856,10.904 L125.864,11.464 C125.554665,11.9866693 125.144003,12.4133317 124.632,12.744 C124.119997,13.0746683 123.474671,13.24 122.696,13.24 C122.07733,13.24 121.536002,13.1333344 121.072,12.92 C120.607998,12.7066656 120.221335,12.4133352 119.912,12.04 C119.602665,11.6666648 119.370667,11.2293358 119.216,10.728 C119.061333,10.2266642 118.984,9.68800288 118.984,9.112 C118.984,8.54666384 119.058666,8.00800256 119.208,7.496 C119.357334,6.98399744 119.583998,6.53600192 119.888,6.152 C120.192002,5.76799808 120.565331,5.46400112 121.008,5.24 C121.450669,5.01599888 121.970664,4.904 122.568,4.904 C123.144003,4.904 123.645331,5.01333224 124.072,5.232 C124.498669,5.45066776 124.853332,5.74399816 125.136,6.112 C125.418668,6.48000184 125.631999,6.90666424 125.776,7.392 C125.920001,7.87733576 125.992,8.39199728 125.992,8.936 C125.992,9.05333392 125.989333,9.14399968 125.984,9.208 C125.978667,9.27200032 125.976,9.32533312 125.976,9.368 L120.344,9.368 Z M122.552,5.912 C121.879997,5.912 121.360002,6.1519976 120.992,6.632 C120.623998,7.1120024 120.413334,7.75732928 120.36,8.568 L124.632,8.568 C124.632,8.23733168 124.594667,7.91466824 124.52,7.6 C124.445333,7.28533176 124.322668,7.00266792 124.152,6.752 C123.981332,6.50133208 123.765335,6.29866744 123.504,6.144 C123.242665,5.98933256 122.925335,5.912 122.552,5.912 Z M127.608,5.128 L128.76,5.128 L128.888,6.888 C129.112001,6.31199712 129.469331,5.8373352 129.96,5.464 C130.450669,5.0906648 131.031997,4.904 131.704,4.904 L131.704,6.312 C131.554666,6.27999984 131.389334,6.264 131.208,6.264 C130.941332,6.264 130.674668,6.31199952 130.408,6.408 C130.141332,6.50400048 129.898668,6.6586656 129.68,6.872 C129.461332,7.0853344 129.282667,7.35999832 129.144,7.696 C129.005333,8.03200168 128.936,8.4399976 128.936,8.92 L128.936,13 L127.608,13 L127.608,5.128 Z" id="H5-Regular-16-" fill="#4C5358"></path>
                        <path d="M0,30 L75.5016556,30" id="Active-line" stroke="#0D78AA" stroke-width="3" stroke-linecap="square"></path>
                    </g>
                    <g id="Group-13-Copy" transform="translate(58.000000, 69.000000)">
                        <g id="Rectangle-2">
                            <use fill="#FFFFFF" fill-rule="evenodd" xlink:href="#path-2"></use>
                            <rect stroke="#D2D6D8" stroke-width="4" x="2" y="2" width="248" height="196" rx="7"></rect>
                        </g>
                        <path d="M85.5365854,151 L60.6666667,109.545455 L7,199 L88.6666667,199 L154,199 L245,199 L179.666667,35 L150.748634,107.590164 L128.333333,59.8484848 L85.5365854,151 Z" id="Combined-Shape" fill="#D2D6D8"></path>
                        <circle id="Oval" fill="#D8D8D8" cx="55" cy="48" r="15"></circle>
                    </g>
                    <g id="Group-8" transform="translate(148.000000, 294.000000)">
                        <circle id="Oval-2" stroke="#3F4F5A" fill="#3F4F5A" cx="5" cy="5" r="5"></circle>
                        <circle id="Oval-2-Copy" fill="#D2D6D8" cx="35" cy="5" r="5"></circle>
                        <circle id="Oval-2-Copy-2" fill="#D2D6D8" cx="64" cy="5" r="5"></circle>
                    </g>
                    <g id="angle-left" opacity="0.3" transform="translate(24.000000, 161.000000)" fill-rule="nonzero" fill="#4C5358">
                        <path d="M9.93288817,1.50434264 C9.93288817,1.64319724 9.87932142,1.76619129 9.77218791,1.8733248 L3.47166048,8.17385223 L9.77218791,14.4743797 C9.87932142,14.5815132 9.93288817,14.7045072 9.93288817,14.8433618 C9.93288817,14.9822164 9.87932142,15.1052105 9.77218791,15.212344 L8.97048216,16.0140497 C8.86334865,16.1211832 8.7403546,16.17475 8.6015,16.17475 C8.4626454,16.17475 8.33965135,16.1211832 8.23251784,16.0140497 L0.762200258,8.54373216 C0.655066753,8.43659865 0.6015,8.3136046 0.6015,8.17475 C0.6015,8.0358954 0.655066753,7.91290135 0.762200258,7.80576784 L8.23251784,0.335450258 C8.33965135,0.228316753 8.4626454,0.17475 8.6015,0.17475 C8.7403546,0.17475 8.86334865,0.228316753 8.97048216,0.335450258 L9.77218791,1.13715602 C9.87932142,1.24428952 9.93288817,1.36728357 9.93288817,1.50613817 L9.93288817,1.50434264 Z" id="Shape"></path>
                    </g>
                    <g id="angle-right" transform="translate(333.000000, 161.000000)" fill-rule="nonzero" fill="#3F4F5A">
                        <path d="M8.88888889,8.00089767 C8.88888889,8.13973668 8.8378623,8.26271694 8.73580912,8.36983842 L1.61973788,15.8393178 C1.5176847,15.9464393 1.40052309,16 1.26825305,16 C1.13598301,16 1.0188214,15.9464393 0.916768221,15.8393178 L0.153079768,15.037702 C0.0510265894,14.9305805 0,14.8076002 0,14.6687612 C0,14.5299222 0.0510265894,14.406942 0.153079768,14.2998205 L6.15483292,8 L0.153079768,1.70017953 C0.0510265894,1.59305805 4.74728166e-17,1.4700778 4.74728166e-17,1.33123878 C4.74728166e-17,1.19239976 0.0510265894,1.06941951 0.153079768,0.962298025 L0.916768221,0.160682226 C1.0188214,0.0535607421 1.13598301,0 1.26825305,0 C1.40052309,0 1.5176847,0.0535607421 1.61973788,0.160682226 L8.73580912,7.63016158 C8.8378623,7.73728306 8.88888889,7.86026332 8.88888889,7.99910233 L8.88888889,8.00089767 Z" id="Shape"></path>
                    </g>
                    <g id="Group-4" transform="translate(170.000000, 184.000000)" fill="#4C5358">
                        <g id="Swipe-left">
                            <g id="gesture/swipeleft">
                                <path d="M68.5684,50.6185 C67.4494,52.7185 67.1234,54.7375 67.5974,56.6145 C67.8064,57.4405 67.9264,58.1575 67.9964,58.6665 L49.7464,61.7645 C49.5734,60.8415 49.2524,59.4405 48.7754,58.5485 C48.0954,57.2725 44.6514,52.8105 44.2314,52.2745 C43.9584,51.9525 37.4724,44.3555 34.7014,41.8705 C32.4994,39.8955 29.5374,37.8595 28.3164,37.0475 C28.6584,36.0145 29.5534,33.9475 31.2684,33.7905 C33.2914,33.6045 37.1654,36.2765 38.7994,37.5555 L39.2514,40.2095 C39.3334,40.6945 39.7934,41.0225 40.2784,40.9405 C40.7654,40.8565 41.0924,40.3955 41.0104,39.9105 L36.7614,14.8785 C36.5614,13.6955 36.5134,10.2275 38.8424,9.8335 C41.6174,9.3615 42.3934,13.4435 42.4714,13.9085 L46.2604,36.2295 C46.3434,36.7155 46.8034,37.0425 47.2904,36.9605 C47.7754,36.8785 48.1024,36.4175 48.0204,35.9315 L46.0584,24.3755 C46.7084,23.9245 48.1194,23.1165 49.6944,23.3265 C51.2164,23.5315 51.6844,26.0775 51.6914,26.1175 L53.3594,35.9455 C53.4434,36.4305 53.9024,36.7585 54.3894,36.6765 C54.8764,36.5925 55.2014,36.1335 55.1194,35.6475 L53.5664,26.4965 C54.2154,26.0455 55.6284,25.2355 57.2024,25.4465 C58.7264,25.6515 59.1944,28.1975 59.1994,28.2335 L60.5254,36.0455 C60.6074,36.5295 61.0684,36.8575 61.5534,36.7755 C62.0414,36.6915 62.3674,36.2315 62.2854,35.7475 L61.1974,29.3345 C61.8464,28.8835 63.2584,28.0725 64.8334,28.2845 C66.3554,28.4895 66.8234,31.0355 66.8304,31.0755 L69.3624,45.9895 C69.3784,46.8975 69.2614,49.3215 68.5684,50.6185 M35.0014,15.1785 L35.8104,19.9465 C32.7414,18.5895 30.7014,15.5545 30.7014,12.0855 C30.7014,7.3385 34.5634,3.4745 39.3104,3.4745 C44.0574,3.4745 47.9214,7.3385 47.9214,12.0855 C47.9214,14.5645 46.8654,16.8595 45.0574,18.4785 L44.2314,13.6095 C43.8324,11.2605 42.1864,7.4525 38.5424,8.0715 C35.1584,8.6475 34.5704,12.6365 35.0014,15.1785 M71.1374,45.7575 L68.5954,30.7825 C68.5954,30.7785 68.5934,30.7755 68.5924,30.7675 C68.5424,30.4675 67.8754,26.8905 65.0734,26.5165 C63.3684,26.2875 61.8514,26.8875 60.8554,27.4475 C60.5804,26.3875 59.7144,23.9815 57.4424,23.6755 C55.6884,23.4405 54.1334,24.0835 53.1374,24.6585 C52.7164,23.4825 51.8024,21.8075 49.9334,21.5565 C48.2434,21.3275 46.7354,21.9185 45.7384,22.4765 L45.5774,21.5255 C48.7584,19.4135 50.6594,15.9125 50.6584,12.0835 C50.6584,5.8285 45.5684,0.7395 39.3134,0.7395 C33.5584,0.7395 28.8014,5.0495 28.0754,10.6095 L5.2954,10.6095 L7.6674,8.0715 C8.1824,7.5195 8.1544,6.6535 7.6034,6.1395 C7.0534,5.6245 6.1864,5.6535 5.6704,6.2025 L1.3614,10.8105 C0.9544,11.0475 0.6674,11.4715 0.6674,11.9755 C0.6674,11.9965 0.6774,12.0125 0.6774,12.0315 C0.6764,12.0585 0.6714,12.0855 0.6724,12.1135 C0.6734,12.2025 0.7024,12.2875 0.7214,12.3755 C0.7394,12.4595 0.7454,12.5435 0.7794,12.6235 C0.8144,12.7105 0.8794,12.7805 0.9334,12.8585 C0.9784,12.9245 1.0054,12.9985 1.0634,13.0565 L5.6974,17.7275 C5.9644,17.9975 6.3164,18.1325 6.6684,18.1325 C7.0154,18.1325 7.3644,18.0005 7.6304,17.7355 C8.1674,17.2045 8.1714,16.3385 7.6384,15.8035 L5.2014,13.3445 L28.0444,13.3445 C28.5494,17.9565 31.7984,21.7945 36.3344,23.0235 L38.3714,35.0225 C36.4054,33.6585 33.2984,31.8105 31.1074,32.0105 C27.5244,32.3375 26.4514,37.0365 26.4064,37.2365 C26.3244,37.5995 26.4804,37.9755 26.7934,38.1785 C26.8334,38.2045 30.8354,40.7995 33.5094,43.1965 C36.1934,45.6025 42.8084,53.3505 42.8474,53.3975 C43.8844,54.7365 46.6844,58.4185 47.2004,59.3855 C47.6834,60.2895 48.0394,62.2415 48.1304,62.9175 C48.1604,63.1405 48.2934,63.3695 48.4884,63.5125 C48.6834,63.6535 48.9254,63.7125 49.1634,63.6715 L69.1234,60.2835 C69.5714,60.2065 69.8904,59.8065 69.8644,59.3505 C69.8634,59.2955 69.7814,57.9755 69.3284,56.1765 C68.9584,54.7265 69.2284,53.1785 70.1444,51.4565 C71.2164,49.4485 71.1524,46.0275 71.1494,45.8835 C71.1464,45.8435 71.1444,45.8005 71.1374,45.7575" id="Fill-4"></path>
                            </g>
                        </g>
                        <g id="Swipe-right" transform="translate(25.000000, 0.000000)">
                            <g id="gesture/swiperight">
                                <path d="M19.5625,18.4788 L18.7375,13.6098 C18.3375,11.2598 16.6915,7.4528 13.0475,8.0718 C9.6625,8.6458 9.0745,12.6358 9.5045,15.1758 L10.3145,19.9458 C7.2435,18.5878 5.2055,15.5518 5.2055,12.0828 C5.2055,7.3358 9.0675,3.4738 13.8145,3.4738 C18.5625,3.4738 22.4245,7.3358 22.4245,12.0828 C22.4275,14.5648 21.3725,16.8598 19.5625,18.4788 L19.5625,18.4788 Z M20.7655,36.2298 C20.8495,36.7148 21.3085,37.0418 21.7955,36.9598 C22.2815,36.8778 22.6075,36.4168 22.5255,35.9318 L20.5635,24.3748 C21.2125,23.9238 22.6245,23.1168 24.1995,23.3268 C25.7225,23.5318 26.1905,26.0778 26.1975,26.1178 L27.8655,35.9458 C27.9485,36.4308 28.4085,36.7578 28.8945,36.6758 C29.3815,36.5918 29.7075,36.1328 29.6255,35.6478 L28.0715,26.4968 C28.7205,26.0448 30.1335,25.2358 31.7075,25.4468 C33.2315,25.6518 33.6995,28.1978 33.7055,28.2338 L35.0315,36.0448 C35.1135,36.5298 35.5745,36.8578 36.0595,36.7758 C36.5455,36.6918 36.8735,36.2318 36.7915,35.7478 L35.7025,29.3338 C36.3515,28.8828 37.7645,28.0728 39.3375,28.2848 C40.8615,28.4898 41.3295,31.0358 41.3355,31.0758 L43.8685,45.9898 C43.8815,46.8978 43.7635,49.3218 43.0705,50.6188 C41.9525,52.7178 41.6255,54.7378 42.0995,56.6148 C42.3095,57.4408 42.4295,58.1578 42.4995,58.6668 L24.2495,61.7638 C24.0785,60.8408 23.7565,59.4408 23.2795,58.5478 C22.5995,57.2728 19.1555,52.8108 18.7355,52.2748 C18.4615,51.9528 11.9775,44.3558 9.2065,41.8708 C7.0025,39.8958 4.0415,37.8598 2.8205,37.0468 C3.1625,36.0148 4.0575,33.9478 5.7725,33.7908 C7.7945,33.6048 11.6695,36.2768 13.3035,37.5558 L13.7545,40.2088 C13.8365,40.6948 14.2975,41.0228 14.7835,40.9408 C15.2695,40.8568 15.5965,40.3958 15.5145,39.9108 L11.2665,14.8778 C11.0655,13.6958 11.0175,10.2278 13.3465,9.8328 C16.1215,9.3618 16.8985,13.4438 16.9755,13.9088 L20.7655,36.2298 Z M52.2685,10.8118 L47.9595,6.2048 C47.4435,5.6538 46.5785,5.6248 46.0265,6.1398 C45.4755,6.6558 45.4475,7.5208 45.9625,8.0738 L48.3345,10.6108 L25.0555,10.6108 C24.3285,5.0518 19.5725,0.7408 13.8175,0.7408 C7.5625,0.7408 2.4725,5.8298 2.4725,12.0848 C2.4725,17.2468 5.8955,21.6848 10.8395,23.0238 L12.8765,35.0228 C10.9115,33.6588 7.8035,31.8108 5.6125,32.0098 C2.0305,32.3368 0.9575,37.0368 0.9125,37.2368 C0.8305,37.5998 0.9855,37.9758 1.2985,38.1778 C1.3375,38.2048 5.3395,40.7988 8.0145,43.1968 C10.6985,45.6028 17.3135,53.3508 17.3535,53.3978 C18.3895,54.7368 21.1905,58.4178 21.7055,59.3848 C22.1895,60.2898 22.5445,62.2418 22.6345,62.9168 C22.6655,63.1408 22.7975,63.3698 22.9935,63.5118 C23.1885,63.6538 23.4305,63.7118 23.6685,63.6708 L43.6285,60.2838 C44.0775,60.2068 44.3955,59.8058 44.3705,59.3508 C44.3685,59.2948 44.2865,57.9758 43.8335,56.1758 C43.4625,54.7268 43.7335,53.1778 44.6505,51.4568 C45.7215,49.4488 45.6575,46.0278 45.6555,45.8828 C45.6555,45.8388 45.6505,45.7948 45.6435,45.7528 L43.1025,30.7788 C43.1025,30.7748 43.1005,30.7718 43.0995,30.7638 C43.0485,30.4628 42.3815,26.8868 39.5805,26.5128 C37.8745,26.2828 36.3585,26.8828 35.3625,27.4438 C35.0865,26.3828 34.2205,23.9778 31.9495,23.6708 C30.1955,23.4358 28.6405,24.0788 27.6445,24.6548 C27.2235,23.4788 26.3095,21.8038 24.4405,21.5518 C22.7505,21.3238 21.2425,21.9148 20.2455,22.4718 L20.0835,21.5218 C22.9135,19.6428 24.7205,16.6678 25.0845,13.3398 L48.4335,13.3398 L45.9945,15.7978 C45.4615,16.3338 45.4655,17.1998 46.0015,17.7318 C46.2685,17.9958 46.6175,18.1278 46.9645,18.1278 C47.3165,18.1278 47.6685,17.9938 47.9355,17.7238 L52.5695,13.0528 C52.6265,12.9958 52.6545,12.9198 52.6995,12.8558 C52.7535,12.7768 52.8185,12.7058 52.8555,12.6218 C52.8875,12.5418 52.8935,12.4578 52.9115,12.3738 C52.9305,12.2858 52.9595,12.1998 52.9615,12.1108 C52.9615,12.0828 52.9585,12.0558 52.9565,12.0288 C52.9565,12.0098 52.9665,11.9938 52.9665,11.9728 C52.9625,11.4718 52.6755,11.0478 52.2685,10.8118 L52.2685,10.8118 Z"></path>
                            </g>
                        </g>
                    </g>
                </g>
            </g>
        </g>
    </g>
</svg>