<?xml version="1.0" encoding="UTF-8"?>
<svg width="365px" height="200px" viewBox="0 0 365 200" version="1.1" xmlns="http://www.w3.org/2000/svg" xmlns:xlink="http://www.w3.org/1999/xlink">
    <!-- Generator: Sketch 47 (45396) - http://www.bohemiancoding.com/sketch -->
    <title>CrosstabContent</title>
    <desc>Created with Sketch.</desc>
    <defs>
        <rect id="path-1" x="0" y="0" width="365" height="200"></rect>
    </defs>
    <g id="Page-1" stroke="none" stroke-width="1" fill="none" fill-rule="evenodd">
        <g id="Buttons-Usage-extra-large-1200" transform="translate(-751.000000, -2800.000000)">
            <g id="Group-6" transform="translate(305.000000, 2721.000000)">
                <g id="CrosstabContent" transform="translate(446.000000, 79.000000)">
                    <g id="Panel">
                        <use fill="#FFFFFF" fill-rule="evenodd" xlink:href="#path-1"></use>
                        <rect stroke="#D2D6D9" stroke-width="1" x="0.5" y="0.5" width="364" height="199"></rect>
                    </g>
                    <g id="Group-2" transform="translate(25.000000, 14.000000)">
                        <path d="M99,0 L99,16" id="Line" stroke="#D2D6D9" stroke-linecap="square"></path>
                        <path d="M7,2 L10.408,2 C12.3600098,2 13.7946621,2.47199528 14.712,3.416 C15.6293379,4.36000472 16.088,5.77599056 16.088,7.664 C16.088,9.48800912 15.6293379,10.8826618 14.712,11.848 C13.7946621,12.8133382 12.4186758,13.296 10.584,13.296 L7,13.296 L7,2 Z M10.472,12.176 C11.2400038,12.176 11.8853307,12.0640011 12.408,11.84 C12.9306693,11.6159989 13.3519984,11.304002 13.672,10.904 C13.9920016,10.503998 14.218666,10.0240028 14.352,9.464 C14.485334,8.9039972 14.552,8.29333664 14.552,7.632 C14.552,6.9919968 14.485334,6.39733608 14.352,5.848 C14.218666,5.29866392 13.9920016,4.82133536 13.672,4.416 C13.3519984,4.01066464 12.9200027,3.69333448 12.376,3.464 C11.8319973,3.23466552 11.1493374,3.12 10.328,3.12 L8.44,3.12 L8.44,12.176 L10.472,12.176 Z M18.792,9.664 C18.8453336,10.5706712 19.0773313,11.2719975 19.488,11.768 C19.8986687,12.2640025 20.4719963,12.512 21.208,12.512 C22.1360046,12.512 22.8346643,12.074671 23.304,11.2 L24.312,11.76 C24.0026651,12.2826693 23.5920026,12.7093317 23.08,13.04 C22.5679974,13.3706683 21.9226706,13.536 21.144,13.536 C20.5253302,13.536 19.9840023,13.4293344 19.52,13.216 C19.0559977,13.0026656 18.6693349,12.7093352 18.36,12.336 C18.0506651,11.9626648 17.8186674,11.5253358 17.664,11.024 C17.5093326,10.5226642 17.432,9.98400288 17.432,9.408 C17.432,8.84266384 17.5066659,8.30400256 17.656,7.792 C17.8053341,7.27999744 18.0319985,6.83200192 18.336,6.448 C18.6400015,6.06399808 19.0133311,5.76000112 19.456,5.536 C19.8986689,5.31199888 20.4186637,5.2 21.016,5.2 C21.5920029,5.2 22.0933312,5.30933224 22.52,5.528 C22.9466688,5.74666776 23.3013319,6.03999816 23.584,6.408 C23.8666681,6.77600184 24.0799993,7.20266424 24.224,7.688 C24.3680007,8.17333576 24.44,8.68799728 24.44,9.232 C24.44,9.34933392 24.4373334,9.43999968 24.432,9.504 C24.4266666,9.56800032 24.424,9.62133312 24.424,9.664 L18.792,9.664 Z M21,6.208 C20.3279966,6.208 19.8080018,6.4479976 19.44,6.928 C19.0719982,7.4080024 18.8613336,8.05332928 18.808,8.864 L23.08,8.864 C23.08,8.53333168 23.042667,8.21066824 22.968,7.896 C22.893333,7.58133176 22.7706675,7.29866792 22.6,7.048 C22.4293325,6.79733208 22.2133346,6.59466744 21.952,6.44 C21.6906654,6.28533256 21.3733352,6.208 21,6.208 Z M26.2,11.36 C26.466668,11.701335 26.8106646,11.9839989 27.232,12.208 C27.6533354,12.4320011 28.1146642,12.544 28.616,12.544 C29.0640022,12.544 29.4533317,12.4373344 29.784,12.224 C30.1146683,12.0106656 30.28,11.6906688 30.28,11.264 C30.28,10.9333317 30.1706678,10.6746676 29.952,10.488 C29.7333322,10.3013324 29.461335,10.1440006 29.136,10.016 C28.810665,9.88799936 28.4560019,9.7706672 28.072,9.664 C27.6879981,9.5573328 27.333335,9.41866752 27.008,9.248 C26.682665,9.07733248 26.4106678,8.85333472 26.192,8.576 C25.9733322,8.29866528 25.864,7.9200024 25.864,7.44 C25.864,7.04533136 25.9439992,6.70666808 26.104,6.424 C26.2640008,6.14133192 26.4746654,5.90933424 26.736,5.728 C26.9973346,5.54666576 27.298665,5.41333376 27.64,5.328 C27.981335,5.24266624 28.3386648,5.2 28.712,5.2 C29.8213389,5.2 30.7439963,5.5199968 31.48,6.16 L30.808,7.056 C30.5733322,6.81066544 30.2613353,6.60533416 29.872,6.44 C29.4826647,6.27466584 29.0800021,6.192 28.664,6.192 C28.4826658,6.192 28.3040009,6.21333312 28.128,6.256 C27.9519991,6.29866688 27.797334,6.36533288 27.664,6.456 C27.530666,6.54666712 27.4240004,6.66133264 27.344,6.8 C27.2639996,6.93866736 27.224,7.10933232 27.224,7.312 C27.224,7.62133488 27.3333322,7.86133248 27.552,8.032 C27.7706678,8.20266752 28.042665,8.34933272 28.368,8.472 C28.693335,8.59466728 29.0453314,8.71199944 29.424,8.824 C29.8026686,8.93600056 30.154665,9.07999912 30.48,9.256 C30.805335,9.43200088 31.0773322,9.66399856 31.296,9.952 C31.5146678,10.2400014 31.624,10.6239976 31.624,11.104 C31.624,11.5093354 31.5413342,11.8639985 31.376,12.168 C31.2106658,12.4720015 30.9920014,12.7253323 30.72,12.928 C30.4479986,13.1306677 30.1333351,13.2826662 29.776,13.384 C29.4186649,13.4853338 29.0480019,13.536 28.664,13.536 C27.3413267,13.536 26.2906706,13.1093376 25.512,12.256 L26.2,11.36 Z M39.752,11.568 C39.4319984,12.2080032 39.0026694,12.6959983 38.464,13.032 C37.9253306,13.3680017 37.2720038,13.536 36.504,13.536 C35.8746635,13.536 35.3280023,13.4266678 34.864,13.208 C34.3999977,12.9893322 34.0160015,12.6933352 33.712,12.32 C33.4079985,11.9466648 33.1840007,11.5066692 33.04,11 C32.8959993,10.4933308 32.824,9.95200288 32.824,9.376 C32.824,8.7893304 32.9013326,8.2426692 33.056,7.736 C33.2106674,7.2293308 33.4399985,6.7893352 33.744,6.416 C34.0480015,6.0426648 34.429331,5.74666776 34.888,5.528 C35.346669,5.30933224 35.8853302,5.2 36.504,5.2 C37.2826706,5.2 37.9306641,5.3733316 38.448,5.72 C38.9653359,6.0666684 39.3839984,6.55466352 39.704,7.184 L38.584,7.712 C38.1786646,6.73066176 37.4960048,6.24 36.536,6.24 C36.1306646,6.24 35.7813348,6.3199992 35.488,6.48 C35.1946652,6.6400008 34.9546676,6.85866528 34.768,7.136 C34.5813324,7.41333472 34.4426671,7.73599816 34.352,8.104 C34.2613329,8.47200184 34.216,8.8693312 34.216,9.296 C34.216,9.70133536 34.2586662,10.0959981 34.344,10.48 C34.4293338,10.8640019 34.567999,11.2053318 34.76,11.504 C34.952001,11.8026682 35.1973318,12.0426658 35.496,12.224 C35.7946682,12.4053342 36.1626645,12.496 36.6,12.496 C37.1546694,12.496 37.602665,12.3546681 37.944,12.072 C38.285335,11.7893319 38.5466658,11.4240022 38.728,10.976 L39.752,11.568 Z M41.224,5.424 L42.376,5.424 L42.504,7.184 C42.7280011,6.60799712 43.0853309,6.1333352 43.576,5.76 C44.0666691,5.3866648 44.6479966,5.2 45.32,5.2 L45.32,6.608 C45.1706659,6.57599984 45.0053342,6.56 44.824,6.56 C44.557332,6.56 44.290668,6.60799952 44.024,6.704 C43.757332,6.80000048 43.5146678,6.9546656 43.296,7.168 C43.0773322,7.3813344 42.8986674,7.65599832 42.76,7.992 C42.6213326,8.32800168 42.552,8.7359976 42.552,9.216 L42.552,13.296 L41.224,13.296 L41.224,5.424 Z M46.632,2.368 L47.96,2.368 L47.96,3.696 L46.632,3.696 L46.632,2.368 Z M46.632,5.424 L47.96,5.424 L47.96,13.296 L46.632,13.296 L46.632,5.424 Z M50.008,5.424 L51.336,5.424 L51.336,6.944 C51.4320005,6.71999888 51.5546659,6.5013344 51.704,6.288 C51.8533341,6.0746656 52.031999,5.8880008 52.24,5.728 C52.448001,5.5679992 52.6906653,5.44000048 52.968,5.344 C53.2453347,5.24799952 53.5599982,5.2 53.912,5.2 C54.4240026,5.2 54.8693314,5.3066656 55.248,5.52 C55.6266686,5.7333344 55.9386654,6.0266648 56.184,6.4 C56.4293346,6.7733352 56.6133327,7.20799752 56.736,7.704 C56.8586673,8.20000248 56.92,8.73599712 56.92,9.312 C56.92,9.99467008 56.8400008,10.5973307 56.68,11.12 C56.5199992,11.6426693 56.2960014,12.0799982 56.008,12.432 C55.7199986,12.7840018 55.3840019,13.0506658 55,13.232 C54.6159981,13.4133342 54.2000022,13.504 53.752,13.504 C53.1653304,13.504 52.6613354,13.3600014 52.24,13.072 C51.8186646,12.7839986 51.5173342,12.4266688 51.336,12 L51.336,16.064 L50.008,16.064 L50.008,5.424 Z M51.336,9.408 C51.336,9.63200112 51.3439999,9.8373324 51.36,10.024 C51.3760001,10.2106676 51.3946666,10.3679994 51.416,10.496 C51.4586669,10.7520013 51.5386661,10.9973322 51.656,11.232 C51.7733339,11.4666678 51.9173325,11.6719991 52.088,11.848 C52.2586675,12.0240009 52.4586655,12.1653328 52.688,12.272 C52.9173345,12.3786672 53.1706653,12.432 53.448,12.432 C53.8106685,12.432 54.1226654,12.3466675 54.384,12.176 C54.6453346,12.0053325 54.8613325,11.7760014 55.032,11.488 C55.2026675,11.1999986 55.3279996,10.8720018 55.408,10.504 C55.4880004,10.1359982 55.528,9.75466864 55.528,9.36 C55.528,8.96533136 55.490667,8.58400184 55.416,8.216 C55.341333,7.84799816 55.2213342,7.52266808 55.056,7.24 C54.8906658,6.95733192 54.674668,6.73066752 54.408,6.56 C54.141332,6.38933248 53.8213352,6.304 53.448,6.304 C53.1599986,6.304 52.8960012,6.3573328 52.656,6.464 C52.4159988,6.5706672 52.2106675,6.71466576 52.04,6.896 C51.8693325,7.07733424 51.7280006,7.28533216 51.616,7.52 C51.5039994,7.75466784 51.4320002,7.99999872 51.4,8.256 C51.3786666,8.3626672 51.3626667,8.5093324 51.352,8.696 C51.3413333,8.8826676 51.336,9.09866544 51.336,9.344 L51.336,9.408 Z M59.304,6.336 L57.96,6.336 L57.96,5.424 L58.248,5.424 C58.5786683,5.424 58.8373324,5.38933368 59.024,5.32 C59.2106676,5.25066632 59.3519995,5.14400072 59.448,5 C59.5440005,4.85599928 59.6133331,4.66666784 59.656,4.432 C59.6986669,4.19733216 59.7359998,3.90933504 59.768,3.568 L59.8,3.28 L60.632,3.28 L60.632,5.424 L62.328,5.424 L62.328,6.336 L60.632,6.336 L60.632,11.232 C60.632,11.6800022 60.698666,12.0026657 60.832,12.2 C60.965334,12.3973343 61.2133315,12.496 61.576,12.496 C61.8640014,12.496 62.1306654,12.4320006 62.376,12.304 L62.52,13.264 C62.1146646,13.4453342 61.6666691,13.536 61.176,13.536 C60.7919981,13.536 60.4800012,13.4826672 60.24,13.376 C59.9999988,13.2693328 59.8106674,13.1253342 59.672,12.944 C59.5333326,12.7626658 59.4373336,12.5440013 59.384,12.288 C59.3306664,12.0319987 59.304,11.7546682 59.304,11.456 L59.304,6.336 Z M63.928,2.368 L65.256,2.368 L65.256,3.696 L63.928,3.696 L63.928,2.368 Z M63.928,5.424 L65.256,5.424 L65.256,13.296 L63.928,13.296 L63.928,5.424 Z M70.568,13.536 C69.9706637,13.536 69.4453356,13.4266678 68.992,13.208 C68.5386644,12.9893322 68.1600015,12.6906686 67.856,12.312 C67.5519985,11.9333314 67.3253341,11.4906692 67.176,10.984 C67.0266659,10.4773308 66.952,9.9306696 66.952,9.344 C66.952,8.7573304 67.0293326,8.21333584 67.184,7.712 C67.3386674,7.21066416 67.5679985,6.7733352 67.872,6.4 C68.1760015,6.0266648 68.5546644,5.7333344 69.008,5.52 C69.4613356,5.3066656 69.9813304,5.2 70.568,5.2 C71.1546696,5.2 71.6746644,5.3066656 72.128,5.52 C72.5813356,5.7333344 72.9626651,6.02399816 73.272,6.392 C73.5813349,6.76000184 73.8133326,7.1973308 73.968,7.704 C74.1226674,8.2106692 74.2,8.7573304 74.2,9.344 C74.2,9.9306696 74.1226674,10.4773308 73.968,10.984 C73.8133326,11.4906692 73.5813349,11.9333314 73.272,12.312 C72.9626651,12.6906686 72.5813356,12.9893322 72.128,13.208 C71.6746644,13.4266678 71.1546696,13.536 70.568,13.536 Z M70.6,12.496 C70.9626685,12.496 71.2826653,12.4160008 71.56,12.256 C71.8373347,12.0959992 72.0666658,11.8746681 72.248,11.592 C72.4293342,11.3093319 72.5679995,10.9760019 72.664,10.592 C72.7600005,10.2079981 72.808,9.79200224 72.808,9.344 C72.808,8.89599776 72.7600005,8.48266856 72.664,8.104 C72.5679995,7.72533144 72.424001,7.39733472 72.232,7.12 C72.039999,6.84266528 71.8053347,6.62666744 71.528,6.472 C71.2506653,6.31733256 70.9306685,6.24 70.568,6.24 C70.1946648,6.24 69.8693347,6.31733256 69.592,6.472 C69.3146653,6.62666744 69.0853342,6.84266528 68.904,7.12 C68.7226658,7.39733472 68.5840005,7.72533144 68.488,8.104 C68.3919995,8.48266856 68.344,8.89599776 68.344,9.344 C68.344,9.79200224 68.3919995,10.2079981 68.488,10.592 C68.5840005,10.9760019 68.7253324,11.3093319 68.912,11.592 C69.0986676,11.8746681 69.3333319,12.0959992 69.616,12.256 C69.8986681,12.4160008 70.2266648,12.496 70.6,12.496 Z M75.896,5.424 L77.048,5.424 L77.192,6.992 C77.3946677,6.5119976 77.7173311,6.09333512 78.16,5.736 C78.6026689,5.37866488 79.1493301,5.2 79.8,5.2 C80.6213374,5.2 81.2266647,5.46133072 81.616,5.984 C82.0053353,6.50666928 82.2,7.23732864 82.2,8.176 L82.2,13.296 L80.872,13.296 L80.872,8.448 C80.872,7.73332976 80.7280014,7.20800168 80.44,6.872 C80.1519986,6.53599832 79.7626691,6.368 79.272,6.368 C78.6853304,6.368 78.1973353,6.6079976 77.808,7.088 C77.4186647,7.5680024 77.224,8.24532896 77.224,9.12 L77.224,13.296 L75.896,13.296 L75.896,5.424 Z" id="Description" fill="#000000"></path>
                        <path d="M125.32,10.616 C124.850664,11.5120045 124.253337,12.1733312 123.528,12.6 C122.802663,13.0266688 121.906672,13.24 120.84,13.24 C119.997329,13.24 119.253337,13.0880015 118.608,12.784 C117.962663,12.4799985 117.424002,12.061336 116.992,11.528 C116.559998,10.994664 116.234668,10.365337 116.016,9.64 C115.797332,8.91466304 115.688,8.13600416 115.688,7.304 C115.688,6.46132912 115.799999,5.68533688 116.024,4.976 C116.248001,4.26666312 116.578664,3.65066928 117.016,3.128 C117.453336,2.60533072 117.991997,2.1973348 118.632,1.904 C119.272003,1.6106652 120.007996,1.464 120.84,1.464 C121.800005,1.464 122.647996,1.65333144 123.384,2.032 C124.120004,2.41066856 124.733331,3.00532928 125.224,3.816 L123.864,4.504 C123.554665,3.93866384 123.144003,3.49866824 122.632,3.184 C122.119997,2.86933176 121.52267,2.712 120.84,2.712 C120.242664,2.712 119.717336,2.8319988 119.264,3.072 C118.810664,3.3120012 118.432002,3.63733128 118.128,4.048 C117.823998,4.45866872 117.594667,4.9439972 117.44,5.504 C117.285333,6.0640028 117.208,6.6639968 117.208,7.304 C117.208,7.9440032 117.287999,8.54933048 117.448,9.12 C117.608001,9.69066952 117.839998,10.1893312 118.144,10.616 C118.448002,11.0426688 118.826664,11.3786654 119.28,11.624 C119.733336,11.8693346 120.25333,11.992 120.84,11.992 C122.322674,11.992 123.362664,11.3040069 123.96,9.928 L125.32,10.616 Z M130.248,13.24 C129.650664,13.24 129.125336,13.1306678 128.672,12.912 C128.218664,12.6933322 127.840002,12.3946686 127.536,12.016 C127.231998,11.6373314 127.005334,11.1946692 126.856,10.688 C126.706666,10.1813308 126.632,9.6346696 126.632,9.048 C126.632,8.4613304 126.709333,7.91733584 126.864,7.416 C127.018667,6.91466416 127.247998,6.4773352 127.552,6.104 C127.856002,5.7306648 128.234664,5.4373344 128.688,5.224 C129.141336,5.0106656 129.66133,4.904 130.248,4.904 C130.83467,4.904 131.354664,5.0106656 131.808,5.224 C132.261336,5.4373344 132.642665,5.72799816 132.952,6.096 C133.261335,6.46400184 133.493333,6.9013308 133.648,7.408 C133.802667,7.9146692 133.88,8.4613304 133.88,9.048 C133.88,9.6346696 133.802667,10.1813308 133.648,10.688 C133.493333,11.1946692 133.261335,11.6373314 132.952,12.016 C132.642665,12.3946686 132.261336,12.6933322 131.808,12.912 C131.354664,13.1306678 130.83467,13.24 130.248,13.24 Z M130.28,12.2 C130.642668,12.2 130.962665,12.1200008 131.24,11.96 C131.517335,11.7999992 131.746666,11.5786681 131.928,11.296 C132.109334,11.0133319 132.248,10.6800019 132.344,10.296 C132.44,9.91199808 132.488,9.49600224 132.488,9.048 C132.488,8.59999776 132.44,8.18666856 132.344,7.808 C132.248,7.42933144 132.104001,7.10133472 131.912,6.824 C131.719999,6.54666528 131.485335,6.33066744 131.208,6.176 C130.930665,6.02133256 130.610668,5.944 130.248,5.944 C129.874665,5.944 129.549335,6.02133256 129.272,6.176 C128.994665,6.33066744 128.765334,6.54666528 128.584,6.824 C128.402666,7.10133472 128.264,7.42933144 128.168,7.808 C128.072,8.18666856 128.024,8.59999776 128.024,9.048 C128.024,9.49600224 128.072,9.91199808 128.168,10.296 C128.264,10.6800019 128.405332,11.0133319 128.592,11.296 C128.778668,11.5786681 129.013332,11.7999992 129.296,11.96 C129.578668,12.1200008 129.906665,12.2 130.28,12.2 Z M135.576,5.128 L136.728,5.128 L136.872,6.696 C137.074668,6.2159976 137.397331,5.79733512 137.84,5.44 C138.282669,5.08266488 138.82933,4.904 139.48,4.904 C140.301337,4.904 140.906665,5.16533072 141.296,5.688 C141.685335,6.21066928 141.88,6.94132864 141.88,7.88 L141.88,13 L140.552,13 L140.552,8.152 C140.552,7.43732976 140.408001,6.91200168 140.12,6.576 C139.831999,6.23999832 139.442669,6.072 138.952,6.072 C138.36533,6.072 137.877335,6.3119976 137.488,6.792 C137.098665,7.2720024 136.904,7.94932896 136.904,8.824 L136.904,13 L135.576,13 L135.576,5.128 Z M144.584,6.04 L143.24,6.04 L143.24,5.128 L143.528,5.128 C143.858668,5.128 144.117332,5.09333368 144.304,5.024 C144.490668,4.95466632 144.632,4.84800072 144.728,4.704 C144.824,4.55999928 144.893333,4.37066784 144.936,4.136 C144.978667,3.90133216 145.016,3.61333504 145.048,3.272 L145.08,2.984 L145.912,2.984 L145.912,5.128 L147.608,5.128 L147.608,6.04 L145.912,6.04 L145.912,10.936 C145.912,11.3840022 145.978666,11.7066657 146.112,11.904 C146.245334,12.1013343 146.493332,12.2 146.856,12.2 C147.144001,12.2 147.410665,12.1360006 147.656,12.008 L147.8,12.968 C147.394665,13.1493342 146.946669,13.24 146.456,13.24 C146.071998,13.24 145.760001,13.1866672 145.52,13.08 C145.279999,12.9733328 145.090667,12.8293342 144.952,12.648 C144.813333,12.4666658 144.717334,12.2480013 144.664,11.992 C144.610666,11.7359987 144.584,11.4586682 144.584,11.16 L144.584,6.04 Z M149.208,2.072 L150.536,2.072 L150.536,3.4 L149.208,3.4 L149.208,2.072 Z M149.208,5.128 L150.536,5.128 L150.536,13 L149.208,13 L149.208,5.128 Z M152.584,5.128 L153.736,5.128 L153.88,6.696 C154.082668,6.2159976 154.405331,5.79733512 154.848,5.44 C155.290669,5.08266488 155.83733,4.904 156.488,4.904 C157.309337,4.904 157.914665,5.16533072 158.304,5.688 C158.693335,6.21066928 158.888,6.94132864 158.888,7.88 L158.888,13 L157.56,13 L157.56,8.152 C157.56,7.43732976 157.416001,6.91200168 157.128,6.576 C156.839999,6.23999832 156.450669,6.072 155.96,6.072 C155.37333,6.072 154.885335,6.3119976 154.496,6.792 C154.106665,7.2720024 153.912,7.94932896 153.912,8.824 L153.912,13 L152.584,13 L152.584,5.128 Z M160.872,5.128 L162.216,5.128 L162.216,9.896 C162.216,10.6426704 162.354665,11.1893316 162.632,11.536 C162.909335,11.8826684 163.298664,12.056 163.8,12.056 C164.440003,12.056 164.938665,11.8026692 165.296,11.296 C165.653335,10.7893308 165.832,10.1146709 165.832,9.272 L165.832,5.128 L167.16,5.128 L167.16,13 L165.912,13 L165.912,11.4 C165.816,11.6453346 165.698667,11.8773322 165.56,12.096 C165.421333,12.3146678 165.250668,12.5066658 165.048,12.672 C164.845332,12.8373342 164.610668,12.9679995 164.344,13.064 C164.077332,13.1600005 163.762668,13.208 163.4,13.208 C162.546662,13.208 161.912002,12.9493359 161.496,12.432 C161.079998,11.9146641 160.872,11.1813381 160.872,10.232 L160.872,5.128 Z M174.152,13 C174.034666,12.6159981 173.965333,12.157336 173.944,11.624 C173.730666,12.1146691 173.402669,12.5066652 172.96,12.8 C172.517331,13.0933348 171.992003,13.24 171.384,13.24 C170.615996,13.24 170.008002,13.0213355 169.56,12.584 C169.111998,12.1466645 168.888,11.5600037 168.888,10.824 C168.888,10.4079979 168.962666,10.0586681 169.112,9.776 C169.261334,9.49333192 169.469332,9.2586676 169.736,9.072 C170.002668,8.8853324 170.317332,8.7386672 170.68,8.632 C171.042668,8.5253328 171.437331,8.44000032 171.864,8.376 L173.88,8.072 L173.88,7.576 C173.88,7.22399824 173.837334,6.9413344 173.752,6.728 C173.666666,6.5146656 173.549334,6.34933392 173.4,6.232 C173.250666,6.11466608 173.080001,6.03733352 172.888,6 C172.695999,5.96266648 172.493334,5.944 172.28,5.944 C171.671997,5.944 171.170669,6.05599888 170.776,6.28 C170.381331,6.50400112 170.050668,6.78666496 169.784,7.128 L169.096,6.264 C169.405335,5.8906648 169.834664,5.570668 170.384,5.304 C170.933336,5.037332 171.613329,4.904 172.424,4.904 C173.405338,4.904 174.117331,5.12266448 174.56,5.56 C175.002669,5.99733552 175.224,6.70132848 175.224,7.672 L175.224,10.856 C175.224,11.1120013 175.226667,11.335999 175.232,11.528 C175.237333,11.720001 175.248,11.8986658 175.264,12.064 C175.28,12.2293342 175.304,12.3866659 175.336,12.536 C175.368,12.6853341 175.410666,12.8399992 175.464,13 L174.152,13 Z M173.88,8.952 L171.992,9.256 C171.34133,9.37333392 170.880001,9.54933216 170.608,9.784 C170.335999,10.0186678 170.2,10.3439979 170.2,10.76 C170.2,11.1866688 170.325332,11.5439986 170.576,11.832 C170.826668,12.1200014 171.197331,12.264 171.688,12.264 C171.986668,12.264 172.269332,12.2053339 172.536,12.088 C172.802668,11.9706661 173.034666,11.808001 173.232,11.6 C173.429334,11.391999 173.586666,11.1413348 173.704,10.848 C173.821334,10.5546652 173.88,10.2320018 173.88,9.88 L173.88,8.952 Z M178.04,6.04 L176.696,6.04 L176.696,5.128 L176.984,5.128 C177.314668,5.128 177.573332,5.09333368 177.76,5.024 C177.946668,4.95466632 178.088,4.84800072 178.184,4.704 C178.28,4.55999928 178.349333,4.37066784 178.392,4.136 C178.434667,3.90133216 178.472,3.61333504 178.504,3.272 L178.536,2.984 L179.368,2.984 L179.368,5.128 L181.064,5.128 L181.064,6.04 L179.368,6.04 L179.368,10.936 C179.368,11.3840022 179.434666,11.7066657 179.568,11.904 C179.701334,12.1013343 179.949332,12.2 180.312,12.2 C180.600001,12.2 180.866665,12.1360006 181.112,12.008 L181.256,12.968 C180.850665,13.1493342 180.402669,13.24 179.912,13.24 C179.527998,13.24 179.216001,13.1866672 178.976,13.08 C178.735999,12.9733328 178.546667,12.8293342 178.408,12.648 C178.269333,12.4666658 178.173334,12.2480013 178.12,11.992 C178.066666,11.7359987 178.04,11.4586682 178.04,11.16 L178.04,6.04 Z M182.664,2.072 L183.992,2.072 L183.992,3.4 L182.664,3.4 L182.664,2.072 Z M182.664,5.128 L183.992,5.128 L183.992,13 L182.664,13 L182.664,5.128 Z M189.304,13.24 C188.706664,13.24 188.181336,13.1306678 187.728,12.912 C187.274664,12.6933322 186.896002,12.3946686 186.592,12.016 C186.287998,11.6373314 186.061334,11.1946692 185.912,10.688 C185.762666,10.1813308 185.688,9.6346696 185.688,9.048 C185.688,8.4613304 185.765333,7.91733584 185.92,7.416 C186.074667,6.91466416 186.303998,6.4773352 186.608,6.104 C186.912002,5.7306648 187.290664,5.4373344 187.744,5.224 C188.197336,5.0106656 188.71733,4.904 189.304,4.904 C189.89067,4.904 190.410664,5.0106656 190.864,5.224 C191.317336,5.4373344 191.698665,5.72799816 192.008,6.096 C192.317335,6.46400184 192.549333,6.9013308 192.704,7.408 C192.858667,7.9146692 192.936,8.4613304 192.936,9.048 C192.936,9.6346696 192.858667,10.1813308 192.704,10.688 C192.549333,11.1946692 192.317335,11.6373314 192.008,12.016 C191.698665,12.3946686 191.317336,12.6933322 190.864,12.912 C190.410664,13.1306678 189.89067,13.24 189.304,13.24 Z M189.336,12.2 C189.698668,12.2 190.018665,12.1200008 190.296,11.96 C190.573335,11.7999992 190.802666,11.5786681 190.984,11.296 C191.165334,11.0133319 191.304,10.6800019 191.4,10.296 C191.496,9.91199808 191.544,9.49600224 191.544,9.048 C191.544,8.59999776 191.496,8.18666856 191.4,7.808 C191.304,7.42933144 191.160001,7.10133472 190.968,6.824 C190.775999,6.54666528 190.541335,6.33066744 190.264,6.176 C189.986665,6.02133256 189.666668,5.944 189.304,5.944 C188.930665,5.944 188.605335,6.02133256 188.328,6.176 C188.050665,6.33066744 187.821334,6.54666528 187.64,6.824 C187.458666,7.10133472 187.32,7.42933144 187.224,7.808 C187.128,8.18666856 187.08,8.59999776 187.08,9.048 C187.08,9.49600224 187.128,9.91199808 187.224,10.296 C187.32,10.6800019 187.461332,11.0133319 187.648,11.296 C187.834668,11.5786681 188.069332,11.7999992 188.352,11.96 C188.634668,12.1200008 188.962665,12.2 189.336,12.2 Z M194.632,5.128 L195.784,5.128 L195.928,6.696 C196.130668,6.2159976 196.453331,5.79733512 196.896,5.44 C197.338669,5.08266488 197.88533,4.904 198.536,4.904 C199.357337,4.904 199.962665,5.16533072 200.352,5.688 C200.741335,6.21066928 200.936,6.94132864 200.936,7.88 L200.936,13 L199.608,13 L199.608,8.152 C199.608,7.43732976 199.464001,6.91200168 199.176,6.576 C198.887999,6.23999832 198.498669,6.072 198.008,6.072 C197.42133,6.072 196.933335,6.3119976 196.544,6.792 C196.154665,7.2720024 195.96,7.94932896 195.96,8.824 L195.96,13 L194.632,13 L194.632,5.128 Z" id="H5-Regular-16-" fill="#4C5358"></path>
                        <path d="M0,27 L99,27" id="Active-line" stroke="#0D78AA" stroke-width="3"></path>
                    </g>
                    <g id="Group-5" transform="translate(24.000000, 66.000000)" fill="#AAB1B6">
                        <rect id="Rectangle-2" x="0" y="0" width="317" height="7" rx="3.5"></rect>
                        <rect id="Rectangle-2-Copy" x="0" y="15" width="317" height="7" rx="3.5"></rect>
                        <rect id="Rectangle-2-Copy-2" x="0" y="29" width="317" height="7" rx="3.5"></rect>
                        <rect id="Rectangle-2" x="0" y="44" width="317" height="7" rx="3.5"></rect>
                        <rect id="Rectangle-2-Copy" x="0" y="58" width="317" height="7" rx="3.5"></rect>
                        <rect id="Rectangle-2-Copy-2" x="0" y="73" width="128.213376" height="7" rx="3.5"></rect>
                    </g>
                    <path d="M24,168 L27.68,168 C28.2666696,168 28.8053309,168.061333 29.296,168.184 C29.7866691,168.306667 30.2079982,168.498665 30.56,168.76 C30.9120018,169.021335 31.1866657,169.354665 31.384,169.76 C31.5813343,170.165335 31.68,170.645331 31.68,171.2 C31.68,171.669336 31.6000008,172.077332 31.44,172.424 C31.2799992,172.770668 31.0640014,173.063999 30.792,173.304 C30.5199986,173.544001 30.2080018,173.730666 29.856,173.864 C29.5039982,173.997334 29.1306686,174.08 28.736,174.112 C29.0133347,174.186667 29.2613322,174.317332 29.48,174.504 C29.6986678,174.690668 29.9146656,174.965332 30.128,175.328 L32.368,179.296 L30.672,179.296 L28.896,175.984 C28.6506654,175.525331 28.3786682,175.170668 28.08,174.92 C27.7813318,174.669332 27.365336,174.544 26.832,174.544 L25.44,174.544 L25.44,179.296 L24,179.296 L24,168 Z M27.712,173.392 C28.4480037,173.392 29.0373311,173.221335 29.48,172.88 C29.9226689,172.538665 30.144,171.989337 30.144,171.232 C30.144,170.538663 29.9226689,170.013335 29.48,169.656 C29.0373311,169.298665 28.4373371,169.12 27.68,169.12 L25.44,169.12 L25.44,173.392 L27.712,173.392 Z M34.352,175.664 C34.4053336,176.570671 34.6373313,177.271998 35.048,177.768 C35.4586687,178.264002 36.0319963,178.512 36.768,178.512 C37.6960046,178.512 38.3946643,178.074671 38.864,177.2 L39.872,177.76 C39.5626651,178.282669 39.1520026,178.709332 38.64,179.04 C38.1279974,179.370668 37.4826706,179.536 36.704,179.536 C36.0853302,179.536 35.5440023,179.429334 35.08,179.216 C34.6159977,179.002666 34.2293349,178.709335 33.92,178.336 C33.6106651,177.962665 33.3786674,177.525336 33.224,177.024 C33.0693326,176.522664 32.992,175.984003 32.992,175.408 C32.992,174.842664 33.0666659,174.304003 33.216,173.792 C33.3653341,173.279997 33.5919985,172.832002 33.896,172.448 C34.2000015,172.063998 34.5733311,171.760001 35.016,171.536 C35.4586689,171.311999 35.9786637,171.2 36.576,171.2 C37.1520029,171.2 37.6533312,171.309332 38.08,171.528 C38.5066688,171.746668 38.8613319,172.039998 39.144,172.408 C39.4266681,172.776002 39.6399993,173.202664 39.784,173.688 C39.9280007,174.173336 40,174.687997 40,175.232 C40,175.349334 39.9973334,175.44 39.992,175.504 C39.9866666,175.568 39.984,175.621333 39.984,175.664 L34.352,175.664 Z M36.56,172.208 C35.8879966,172.208 35.3680018,172.447998 35,172.928 C34.6319982,173.408002 34.4213336,174.053329 34.368,174.864 L38.64,174.864 C38.64,174.533332 38.602667,174.210668 38.528,173.896 C38.453333,173.581332 38.3306675,173.298668 38.16,173.048 C37.9893325,172.797332 37.7733346,172.594667 37.512,172.44 C37.2506654,172.285333 36.9333352,172.208 36.56,172.208 Z M46.56,179.296 C46.4426661,178.911998 46.3733334,178.453336 46.352,177.92 C46.1386656,178.410669 45.8106689,178.802665 45.368,179.096 C44.9253311,179.389335 44.400003,179.536 43.792,179.536 C43.0239962,179.536 42.4160022,179.317336 41.968,178.88 C41.5199978,178.442664 41.296,177.856004 41.296,177.12 C41.296,176.703998 41.3706659,176.354668 41.52,176.072 C41.6693341,175.789332 41.877332,175.554668 42.144,175.368 C42.410668,175.181332 42.7253315,175.034667 43.088,174.928 C43.4506685,174.821333 43.8453312,174.736 44.272,174.672 L46.288,174.368 L46.288,173.872 C46.288,173.519998 46.2453338,173.237334 46.16,173.024 C46.0746662,172.810666 45.9573341,172.645334 45.808,172.528 C45.6586659,172.410666 45.488001,172.333334 45.296,172.296 C45.103999,172.258666 44.9013344,172.24 44.688,172.24 C44.079997,172.24 43.5786686,172.351999 43.184,172.576 C42.7893314,172.800001 42.458668,173.082665 42.192,173.424 L41.504,172.56 C41.8133349,172.186665 42.2426639,171.866668 42.792,171.6 C43.3413361,171.333332 44.0213293,171.2 44.832,171.2 C45.8133382,171.2 46.5253311,171.418664 46.968,171.856 C47.4106689,172.293336 47.632,172.997328 47.632,173.968 L47.632,177.152 C47.632,177.408001 47.6346666,177.631999 47.64,177.824 C47.6453334,178.016001 47.6559999,178.194666 47.672,178.36 C47.6880001,178.525334 47.7119998,178.682666 47.744,178.832 C47.7760002,178.981334 47.8186664,179.135999 47.872,179.296 L46.56,179.296 Z M46.288,175.248 L44.4,175.552 C43.7493301,175.669334 43.2880014,175.845332 43.016,176.08 C42.7439986,176.314668 42.608,176.639998 42.608,177.056 C42.608,177.482669 42.7333321,177.839999 42.984,178.128 C43.2346679,178.416001 43.6053309,178.56 44.096,178.56 C44.3946682,178.56 44.677332,178.501334 44.944,178.384 C45.210668,178.266666 45.4426657,178.104001 45.64,177.896 C45.8373343,177.687999 45.9946661,177.437335 46.112,177.144 C46.2293339,176.850665 46.288,176.528002 46.288,176.176 L46.288,175.248 Z M55.056,177.76 C54.8426656,178.293336 54.5280021,178.714665 54.112,179.024 C53.6959979,179.333335 53.1786698,179.488 52.56,179.488 C52.0693309,179.488 51.6293353,179.386668 51.24,179.184 C50.8506647,178.981332 50.5200014,178.698668 50.248,178.336 C49.9759986,177.973332 49.7680007,177.536003 49.624,177.024 C49.4799993,176.511997 49.408,175.94667 49.408,175.328 C49.408,174.687997 49.4826659,174.114669 49.632,173.608 C49.7813341,173.101331 49.9946653,172.672002 50.272,172.32 C50.5493347,171.967998 50.8826647,171.696001 51.272,171.504 C51.6613353,171.311999 52.0906643,171.216 52.56,171.216 C53.2000032,171.216 53.7226646,171.367998 54.128,171.672 C54.5333354,171.976002 54.8213325,172.341331 54.992,172.768 L54.992,168 L56.336,168 L56.336,179.296 L55.056,179.296 L55.056,177.76 Z M54.992,175.312 C54.992,174.981332 54.9840001,174.722668 54.968,174.536 C54.9519999,174.349332 54.9333334,174.197334 54.912,174.08 C54.8586664,173.845332 54.7786672,173.621334 54.672,173.408 C54.5653328,173.194666 54.4293342,173.005334 54.264,172.84 C54.0986658,172.674666 53.9040011,172.544 53.68,172.448 C53.4559989,172.352 53.2000014,172.304 52.912,172.304 C52.5493315,172.304 52.2373346,172.383999 51.976,172.544 C51.7146654,172.704001 51.4960009,172.919999 51.32,173.192 C51.1439991,173.464001 51.0133338,173.783998 50.928,174.152 C50.8426662,174.520002 50.8,174.911998 50.8,175.328 C50.8,175.776002 50.8479995,176.189331 50.944,176.568 C51.0400005,176.946669 51.1786658,177.271999 51.36,177.544 C51.5413342,177.816001 51.765332,178.029333 52.032,178.184 C52.298668,178.338667 52.602665,178.416 52.944,178.416 C53.210668,178.416 53.4533322,178.368 53.672,178.272 C53.8906678,178.176 54.0826658,178.042668 54.248,177.872 C54.4133342,177.701332 54.5493328,177.506668 54.656,177.288 C54.7626672,177.069332 54.8426664,176.837335 54.896,176.592 C54.9600003,176.293332 54.992,175.893336 54.992,175.392 L54.992,175.312 Z M61.968,171.424 L63.12,171.424 L63.264,172.96 C63.456001,172.415997 63.7546646,171.986668 64.16,171.672 C64.5653354,171.357332 65.0613304,171.2 65.648,171.2 C66.2666698,171.2 66.7519982,171.375998 67.104,171.728 C67.4560018,172.080002 67.6799995,172.506664 67.776,173.008 C67.8720005,172.762665 67.9919993,172.530668 68.136,172.312 C68.2800007,172.093332 68.4533323,171.901334 68.656,171.736 C68.8586677,171.570666 69.093332,171.44 69.36,171.344 C69.626668,171.248 69.930665,171.2 70.272,171.2 C70.7200022,171.2 71.0906652,171.277333 71.384,171.432 C71.6773348,171.586667 71.9119991,171.797332 72.088,172.064 C72.2640009,172.330668 72.389333,172.642665 72.464,173 C72.538667,173.357335 72.576,173.733331 72.576,174.128 L72.576,179.296 L71.248,179.296 L71.248,174.464 C71.248,173.759996 71.1226679,173.234668 70.872,172.888 C70.6213321,172.541332 70.2560024,172.368 69.776,172.368 C69.2533307,172.368 68.8160018,172.599998 68.464,173.064 C68.1119982,173.528002 67.936,174.191996 67.936,175.056 L67.936,179.296 L66.608,179.296 L66.608,174.528 C66.608,173.791996 66.4800013,173.248002 66.224,172.896 C65.9679987,172.543998 65.610669,172.368 65.152,172.368 C64.6399974,172.368 64.2026685,172.605331 63.84,173.08 C63.4773315,173.554669 63.296,174.239996 63.296,175.136 L63.296,179.296 L61.968,179.296 L61.968,171.424 Z M77.856,179.536 C77.2586637,179.536 76.7333356,179.426668 76.28,179.208 C75.8266644,178.989332 75.4480015,178.690669 75.144,178.312 C74.8399985,177.933331 74.6133341,177.490669 74.464,176.984 C74.3146659,176.477331 74.24,175.93067 74.24,175.344 C74.24,174.75733 74.3173326,174.213336 74.472,173.712 C74.6266674,173.210664 74.8559985,172.773335 75.16,172.4 C75.4640015,172.026665 75.8426644,171.733334 76.296,171.52 C76.7493356,171.306666 77.2693304,171.2 77.856,171.2 C78.4426696,171.2 78.9626644,171.306666 79.416,171.52 C79.8693356,171.733334 80.2506651,172.023998 80.56,172.392 C80.8693349,172.760002 81.1013326,173.197331 81.256,173.704 C81.4106674,174.210669 81.488,174.75733 81.488,175.344 C81.488,175.93067 81.4106674,176.477331 81.256,176.984 C81.1013326,177.490669 80.8693349,177.933331 80.56,178.312 C80.2506651,178.690669 79.8693356,178.989332 79.416,179.208 C78.9626644,179.426668 78.4426696,179.536 77.856,179.536 Z M77.888,178.496 C78.2506685,178.496 78.5706653,178.416001 78.848,178.256 C79.1253347,178.095999 79.3546658,177.874668 79.536,177.592 C79.7173342,177.309332 79.8559995,176.976002 79.952,176.592 C80.0480005,176.207998 80.096,175.792002 80.096,175.344 C80.096,174.895998 80.0480005,174.482669 79.952,174.104 C79.8559995,173.725331 79.712001,173.397335 79.52,173.12 C79.327999,172.842665 79.0933347,172.626667 78.816,172.472 C78.5386653,172.317333 78.2186685,172.24 77.856,172.24 C77.4826648,172.24 77.1573347,172.317333 76.88,172.472 C76.6026653,172.626667 76.3733342,172.842665 76.192,173.12 C76.0106658,173.397335 75.8720005,173.725331 75.776,174.104 C75.6799995,174.482669 75.632,174.895998 75.632,175.344 C75.632,175.792002 75.6799995,176.207998 75.776,176.592 C75.8720005,176.976002 76.0133324,177.309332 76.2,177.592 C76.3866676,177.874668 76.6213319,178.095999 76.904,178.256 C77.1866681,178.416001 77.5146648,178.496 77.888,178.496 Z M83.184,171.424 L84.336,171.424 L84.464,173.184 C84.6880011,172.607997 85.0453309,172.133335 85.536,171.76 C86.0266691,171.386665 86.6079966,171.2 87.28,171.2 L87.28,172.608 C87.1306659,172.576 86.9653342,172.56 86.784,172.56 C86.517332,172.56 86.250668,172.608 85.984,172.704 C85.717332,172.8 85.4746678,172.954666 85.256,173.168 C85.0373322,173.381334 84.8586674,173.655998 84.72,173.992 C84.5813326,174.328002 84.512,174.735998 84.512,175.216 L84.512,179.296 L83.184,179.296 L83.184,171.424 Z M89.6,175.664 C89.6533336,176.570671 89.8853313,177.271998 90.296,177.768 C90.7066687,178.264002 91.2799963,178.512 92.016,178.512 C92.9440046,178.512 93.6426643,178.074671 94.112,177.2 L95.12,177.76 C94.8106651,178.282669 94.4000026,178.709332 93.888,179.04 C93.3759974,179.370668 92.7306706,179.536 91.952,179.536 C91.3333302,179.536 90.7920023,179.429334 90.328,179.216 C89.8639977,179.002666 89.4773349,178.709335 89.168,178.336 C88.8586651,177.962665 88.6266674,177.525336 88.472,177.024 C88.3173326,176.522664 88.24,175.984003 88.24,175.408 C88.24,174.842664 88.3146659,174.304003 88.464,173.792 C88.6133341,173.279997 88.8399985,172.832002 89.144,172.448 C89.4480015,172.063998 89.8213311,171.760001 90.264,171.536 C90.7066689,171.311999 91.2266637,171.2 91.824,171.2 C92.4000029,171.2 92.9013312,171.309332 93.328,171.528 C93.7546688,171.746668 94.1093319,172.039998 94.392,172.408 C94.6746681,172.776002 94.8879993,173.202664 95.032,173.688 C95.1760007,174.173336 95.248,174.687997 95.248,175.232 C95.248,175.349334 95.2453334,175.44 95.24,175.504 C95.2346666,175.568 95.232,175.621333 95.232,175.664 L89.6,175.664 Z M91.808,172.208 C91.1359966,172.208 90.6160018,172.447998 90.248,172.928 C89.8799982,173.408002 89.6693336,174.053329 89.616,174.864 L93.888,174.864 C93.888,174.533332 93.850667,174.210668 93.776,173.896 C93.701333,173.581332 93.5786675,173.298668 93.408,173.048 C93.2373325,172.797332 93.0213346,172.594667 92.76,172.44 C92.4986654,172.285333 92.1813352,172.208 91.808,172.208 Z" id="Read-more" fill="#0D78AA"></path>
                </g>
            </g>
        </g>
    </g>
</svg>