<?xml version="1.0" encoding="UTF-8"?>
<svg width="312px" height="218px" viewBox="0 0 312 218" version="1.1" xmlns="http://www.w3.org/2000/svg" xmlns:xlink="http://www.w3.org/1999/xlink">
    <!-- Generator: Sketch 47 (45396) - http://www.bohemiancoding.com/sketch -->
    <title>TabsInModal</title>
    <desc>Created with Sketch.</desc>
    <defs>
        <rect id="path-1" x="0" y="0" width="302" height="208"></rect>
        <filter x="-2.8%" y="-3.1%" width="105.6%" height="108.2%" filterUnits="objectBoundingBox" id="filter-2">
            <feOffset dx="0" dy="2" in="SourceAlpha" result="shadowOffsetOuter1"></feOffset>
            <feGaussianBlur stdDeviation="2.5" in="shadowOffsetOuter1" result="shadowBlurOuter1"></feGaussianBlur>
            <feColorMatrix values="0 0 0 0 0   0 0 0 0 0   0 0 0 0 0  0 0 0 0.3 0" type="matrix" in="shadowBlurOuter1"></feColorMatrix>
        </filter>
    </defs>
    <g id="Page-1" stroke="none" stroke-width="1" fill="none" fill-rule="evenodd">
        <g id="Buttons-Usage-extra-large-1200" transform="translate(-340.000000, -3301.000000)">
            <g id="TabsInModal" transform="translate(345.000000, 3304.000000)">
                <g id="Group-Copy-6">
                    <g id="Panel">
                        <use fill="black" fill-opacity="1" filter="url(#filter-2)" xlink:href="#path-1"></use>
                        <use fill="#FFFFFF" fill-rule="evenodd" xlink:href="#path-1"></use>
                    </g>
                    <g id="X" transform="translate(274.000000, 16.000000)" fill="#4C5358">
                        <path d="M11.8341014,10.8940092 L10.9493088,11.7788018 C10.8387097,11.8894009 10.6728111,12 10.5069124,12 C10.3410138,12 10.1751152,11.9447005 10.0645161,11.7788018 L0.221198157,1.93548387 C0.110599078,1.82488479 0,1.65898618 0,1.49308756 C0,1.32718894 0.110599078,1.21658986 0.221198157,1.10599078 L1.10599078,0.221198157 C1.21658986,0.0552995392 1.38248848,0 1.5483871,0 C1.71428571,0 1.88018433,0.0552995392 1.99078341,0.221198157 L11.7788018,10.0092166 C11.8894009,10.1198157 12,10.2857143 12,10.4516129 C12,10.6175115 11.9447005,10.7834101 11.8341014,10.8940092" id="Fill-1"></path>
                        <path d="M10.8990826,0.165898618 L11.7798165,1.10599078 C11.8899083,1.21658986 12,1.38248848 12,1.5483871 C11.9449541,1.76958525 11.8899083,1.88018433 11.7798165,1.99078341 L1.98165138,11.7788018 C1.87155963,11.8894009 1.70642202,12 1.5412844,12 C1.37614679,12 1.21100917,11.9447005 1.10091743,11.7788018 L0.220183486,10.8940092 C0.110091743,10.7834101 0,10.6175115 0,10.4516129 C0,10.2857143 0.0550458716,10.1198157 0.220183486,10.0092166 L10.0183486,0.221198157 C10.1284404,0.110599078 10.293578,0 10.4587156,0 C10.5688073,0.0552995392 10.7889908,0.0552995392 10.8990826,0.165898618" id="Fill-3"></path>
                    </g>
                </g>
                <g id="Group-2" transform="translate(25.000000, 56.000000)">
                    <path d="M79.5,0 L79.5,16" id="Line" stroke="#D2D6D9" stroke-linecap="square"></path>
                    <path d="M17.12,1.704 L20.528,1.704 C22.4800098,1.704 23.9146621,2.17599528 24.832,3.12 C25.7493379,4.06400472 26.208,5.47999056 26.208,7.368 C26.208,9.19200912 25.7493379,10.5866618 24.832,11.552 C23.9146621,12.5173382 22.5386758,13 20.704,13 L17.12,13 L17.12,1.704 Z M20.592,11.88 C21.3600038,11.88 22.0053307,11.7680011 22.528,11.544 C23.0506693,11.3199989 23.4719984,11.008002 23.792,10.608 C24.1120016,10.207998 24.338666,9.7280028 24.472,9.168 C24.605334,8.6079972 24.672,7.99733664 24.672,7.336 C24.672,6.6959968 24.605334,6.10133608 24.472,5.552 C24.338666,5.00266392 24.1120016,4.52533536 23.792,4.12 C23.4719984,3.71466464 23.0400027,3.39733448 22.496,3.168 C21.9519973,2.93866552 21.2693374,2.824 20.448,2.824 L18.56,2.824 L18.56,11.88 L20.592,11.88 Z M28.912,9.368 C28.9653336,10.2746712 29.1973313,10.9759975 29.608,11.472 C30.0186687,11.9680025 30.5919963,12.216 31.328,12.216 C32.2560046,12.216 32.9546643,11.778671 33.424,10.904 L34.432,11.464 C34.1226651,11.9866693 33.7120026,12.4133317 33.2,12.744 C32.6879974,13.0746683 32.0426706,13.24 31.264,13.24 C30.6453302,13.24 30.1040023,13.1333344 29.64,12.92 C29.1759977,12.7066656 28.7893349,12.4133352 28.48,12.04 C28.1706651,11.6666648 27.9386674,11.2293358 27.784,10.728 C27.6293326,10.2266642 27.552,9.68800288 27.552,9.112 C27.552,8.54666384 27.6266659,8.00800256 27.776,7.496 C27.9253341,6.98399744 28.1519985,6.53600192 28.456,6.152 C28.7600015,5.76799808 29.1333311,5.46400112 29.576,5.24 C30.0186689,5.01599888 30.5386637,4.904 31.136,4.904 C31.7120029,4.904 32.2133312,5.01333224 32.64,5.232 C33.0666688,5.45066776 33.4213319,5.74399816 33.704,6.112 C33.9866681,6.48000184 34.1999993,6.90666424 34.344,7.392 C34.4880007,7.87733576 34.56,8.39199728 34.56,8.936 C34.56,9.05333392 34.5573334,9.14399968 34.552,9.208 C34.5466666,9.27200032 34.544,9.32533312 34.544,9.368 L28.912,9.368 Z M31.12,5.912 C30.4479966,5.912 29.9280018,6.1519976 29.56,6.632 C29.1919982,7.1120024 28.9813336,7.75732928 28.928,8.568 L33.2,8.568 C33.2,8.23733168 33.162667,7.91466824 33.088,7.6 C33.013333,7.28533176 32.8906675,7.00266792 32.72,6.752 C32.5493325,6.50133208 32.3333346,6.29866744 32.072,6.144 C31.8106654,5.98933256 31.4933352,5.912 31.12,5.912 Z M36.864,6.04 L35.52,6.04 L35.52,5.128 L35.808,5.128 C36.1386683,5.128 36.3973324,5.09333368 36.584,5.024 C36.7706676,4.95466632 36.9119995,4.84800072 37.008,4.704 C37.1040005,4.55999928 37.1733331,4.37066784 37.216,4.136 C37.2586669,3.90133216 37.2959998,3.61333504 37.328,3.272 L37.36,2.984 L38.192,2.984 L38.192,5.128 L39.888,5.128 L39.888,6.04 L38.192,6.04 L38.192,10.936 C38.192,11.3840022 38.258666,11.7066657 38.392,11.904 C38.525334,12.1013343 38.7733315,12.2 39.136,12.2 C39.4240014,12.2 39.6906654,12.1360006 39.936,12.008 L40.08,12.968 C39.6746646,13.1493342 39.2266691,13.24 38.736,13.24 C38.3519981,13.24 38.0400012,13.1866672 37.8,13.08 C37.5599988,12.9733328 37.3706674,12.8293342 37.232,12.648 C37.0933326,12.4666658 36.9973336,12.2480013 36.944,11.992 C36.8906664,11.7359987 36.864,11.4586682 36.864,11.16 L36.864,6.04 Z M46.432,13 C46.3146661,12.6159981 46.2453334,12.157336 46.224,11.624 C46.0106656,12.1146691 45.6826689,12.5066652 45.24,12.8 C44.7973311,13.0933348 44.272003,13.24 43.664,13.24 C42.8959962,13.24 42.2880022,13.0213355 41.84,12.584 C41.3919978,12.1466645 41.168,11.5600037 41.168,10.824 C41.168,10.4079979 41.2426659,10.0586681 41.392,9.776 C41.5413341,9.49333192 41.749332,9.2586676 42.016,9.072 C42.282668,8.8853324 42.5973315,8.7386672 42.96,8.632 C43.3226685,8.5253328 43.7173312,8.44000032 44.144,8.376 L46.16,8.072 L46.16,7.576 C46.16,7.22399824 46.1173338,6.9413344 46.032,6.728 C45.9466662,6.5146656 45.8293341,6.34933392 45.68,6.232 C45.5306659,6.11466608 45.360001,6.03733352 45.168,6 C44.975999,5.96266648 44.7733344,5.944 44.56,5.944 C43.951997,5.944 43.4506686,6.05599888 43.056,6.28 C42.6613314,6.50400112 42.330668,6.78666496 42.064,7.128 L41.376,6.264 C41.6853349,5.8906648 42.1146639,5.570668 42.664,5.304 C43.2133361,5.037332 43.8933293,4.904 44.704,4.904 C45.6853382,4.904 46.3973311,5.12266448 46.84,5.56 C47.2826689,5.99733552 47.504,6.70132848 47.504,7.672 L47.504,10.856 C47.504,11.1120013 47.5066666,11.335999 47.512,11.528 C47.5173334,11.720001 47.5279999,11.8986658 47.544,12.064 C47.5600001,12.2293342 47.5839998,12.3866659 47.616,12.536 C47.6480002,12.6853341 47.6906664,12.8399992 47.744,13 L46.432,13 Z M46.16,8.952 L44.272,9.256 C43.6213301,9.37333392 43.1600014,9.54933216 42.888,9.784 C42.6159986,10.0186678 42.48,10.3439979 42.48,10.76 C42.48,11.1866688 42.6053321,11.5439986 42.856,11.832 C43.1066679,12.1200014 43.4773309,12.264 43.968,12.264 C44.2666682,12.264 44.549332,12.2053339 44.816,12.088 C45.082668,11.9706661 45.3146657,11.808001 45.512,11.6 C45.7093343,11.391999 45.8666661,11.1413348 45.984,10.848 C46.1013339,10.5546652 46.16,10.2320018 46.16,9.88 L46.16,8.952 Z M49.632,2.072 L50.96,2.072 L50.96,3.4 L49.632,3.4 L49.632,2.072 Z M49.632,5.128 L50.96,5.128 L50.96,13 L49.632,13 L49.632,5.128 Z M53.008,1.704 L54.336,1.704 L54.336,13 L53.008,13 L53.008,1.704 Z M56.528,11.064 C56.794668,11.405335 57.1386646,11.6879989 57.56,11.912 C57.9813354,12.1360011 58.4426642,12.248 58.944,12.248 C59.3920022,12.248 59.7813317,12.1413344 60.112,11.928 C60.4426683,11.7146656 60.608,11.3946688 60.608,10.968 C60.608,10.6373317 60.4986678,10.3786676 60.28,10.192 C60.0613322,10.0053324 59.789335,9.84800064 59.464,9.72 C59.138665,9.59199936 58.7840019,9.4746672 58.4,9.368 C58.0159981,9.2613328 57.661335,9.12266752 57.336,8.952 C57.010665,8.78133248 56.7386678,8.55733472 56.52,8.28 C56.3013322,8.00266528 56.192,7.6240024 56.192,7.144 C56.192,6.74933136 56.2719992,6.41066808 56.432,6.128 C56.5920008,5.84533192 56.8026654,5.61333424 57.064,5.432 C57.3253346,5.25066576 57.626665,5.11733376 57.968,5.032 C58.309335,4.94666624 58.6666648,4.904 59.04,4.904 C60.1493389,4.904 61.0719963,5.2239968 61.808,5.864 L61.136,6.76 C60.9013322,6.51466544 60.5893353,6.30933416 60.2,6.144 C59.8106647,5.97866584 59.4080021,5.896 58.992,5.896 C58.8106658,5.896 58.6320009,5.91733312 58.456,5.96 C58.2799991,6.00266688 58.125334,6.06933288 57.992,6.16 C57.858666,6.25066712 57.7520004,6.36533264 57.672,6.504 C57.5919996,6.64266736 57.552,6.81333232 57.552,7.016 C57.552,7.32533488 57.6613322,7.56533248 57.88,7.736 C58.0986678,7.90666752 58.370665,8.05333272 58.696,8.176 C59.021335,8.29866728 59.3733314,8.41599944 59.752,8.528 C60.1306686,8.64000056 60.482665,8.78399912 60.808,8.96 C61.133335,9.13600088 61.4053322,9.36799856 61.624,9.656 C61.8426678,9.94400144 61.952,10.3279976 61.952,10.808 C61.952,11.2133354 61.8693342,11.5679985 61.704,11.872 C61.5386658,12.1760015 61.3200014,12.4293323 61.048,12.632 C60.7759986,12.8346677 60.4613351,12.9866662 60.104,13.088 C59.7466649,13.1893338 59.3760019,13.24 58.992,13.24 C57.6693267,13.24 56.6186706,12.8133376 55.84,11.96 L56.528,11.064 Z" id="Details" fill="#000000"></path>
                    <path d="M97.12,1.704 L98.912,1.704 C99.2000014,2.41867024 99.4959985,3.1626628 99.8,3.936 C100.104002,4.7093372 100.402665,5.47466288 100.696,6.232 C100.989335,6.98933712 101.271999,7.71999648 101.544,8.424 C101.816001,9.12800352 102.063999,9.7733304 102.288,10.36 C102.512001,9.7733304 102.757332,9.12800352 103.024,8.424 C103.290668,7.71999648 103.573332,6.98933712 103.872,6.232 C104.170668,5.47466288 104.471998,4.71200384 104.776,3.944 C105.080002,3.17599616 105.375999,2.42933696 105.664,1.704 L107.376,1.704 L107.376,13 L106.016,13 L106.016,10.568 C106.016,9.73599584 106.018667,8.91467072 106.024,8.104 C106.029333,7.29332928 106.034667,6.50667048 106.04,5.744 C106.045333,4.98132952 106.053333,4.27466992 106.064,3.624 C105.818665,4.28533664 105.544002,4.99732952 105.24,5.76 C104.935998,6.52267048 104.621335,7.31199592 104.296,8.128 C103.970665,8.94400408 103.640002,9.76799584 103.304,10.6 C102.967998,11.4320042 102.640002,12.247996 102.32,13.048 L102.192,13.048 C101.903999,12.322663 101.584002,11.5280043 101.232,10.664 C100.879998,9.79999568 100.530668,8.93867096 100.184,8.08 C99.8373316,7.22132904 99.5093349,6.40267056 99.2,5.624 C98.8906651,4.84532944 98.6346677,4.17866944 98.432,3.624 C98.4426667,4.27466992 98.4533333,4.98132952 98.464,5.744 C98.4746667,6.50667048 98.48,7.29599592 98.48,8.112 C98.48,8.92800408 98.4826666,9.75199584 98.488,10.584 C98.4933334,11.4160042 98.496,12.2213294 98.496,13 L97.12,13 L97.12,1.704 Z M112.784,13.24 C112.186664,13.24 111.661336,13.1306678 111.208,12.912 C110.754664,12.6933322 110.376002,12.3946686 110.072,12.016 C109.767998,11.6373314 109.541334,11.1946692 109.392,10.688 C109.242666,10.1813308 109.168,9.6346696 109.168,9.048 C109.168,8.4613304 109.245333,7.91733584 109.4,7.416 C109.554667,6.91466416 109.783998,6.4773352 110.088,6.104 C110.392002,5.7306648 110.770664,5.4373344 111.224,5.224 C111.677336,5.0106656 112.19733,4.904 112.784,4.904 C113.37067,4.904 113.890664,5.0106656 114.344,5.224 C114.797336,5.4373344 115.178665,5.72799816 115.488,6.096 C115.797335,6.46400184 116.029333,6.9013308 116.184,7.408 C116.338667,7.9146692 116.416,8.4613304 116.416,9.048 C116.416,9.6346696 116.338667,10.1813308 116.184,10.688 C116.029333,11.1946692 115.797335,11.6373314 115.488,12.016 C115.178665,12.3946686 114.797336,12.6933322 114.344,12.912 C113.890664,13.1306678 113.37067,13.24 112.784,13.24 Z M112.816,12.2 C113.178668,12.2 113.498665,12.1200008 113.776,11.96 C114.053335,11.7999992 114.282666,11.5786681 114.464,11.296 C114.645334,11.0133319 114.784,10.6800019 114.88,10.296 C114.976,9.91199808 115.024,9.49600224 115.024,9.048 C115.024,8.59999776 114.976,8.18666856 114.88,7.808 C114.784,7.42933144 114.640001,7.10133472 114.448,6.824 C114.255999,6.54666528 114.021335,6.33066744 113.744,6.176 C113.466665,6.02133256 113.146668,5.944 112.784,5.944 C112.410665,5.944 112.085335,6.02133256 111.808,6.176 C111.530665,6.33066744 111.301334,6.54666528 111.12,6.824 C110.938666,7.10133472 110.8,7.42933144 110.704,7.808 C110.608,8.18666856 110.56,8.59999776 110.56,9.048 C110.56,9.49600224 110.608,9.91199808 110.704,10.296 C110.8,10.6800019 110.941332,11.0133319 111.128,11.296 C111.314668,11.5786681 111.549332,11.7999992 111.832,11.96 C112.114668,12.1200008 112.442665,12.2 112.816,12.2 Z M118.112,5.128 L119.264,5.128 L119.392,6.888 C119.616001,6.31199712 119.973331,5.8373352 120.464,5.464 C120.954669,5.0906648 121.535997,4.904 122.208,4.904 L122.208,6.312 C122.058666,6.27999984 121.893334,6.264 121.712,6.264 C121.445332,6.264 121.178668,6.31199952 120.912,6.408 C120.645332,6.50400048 120.402668,6.6586656 120.184,6.872 C119.965332,7.0853344 119.786667,7.35999832 119.648,7.696 C119.509333,8.03200168 119.44,8.4399976 119.44,8.92 L119.44,13 L118.112,13 L118.112,5.128 Z M124.528,9.368 C124.581334,10.2746712 124.813331,10.9759975 125.224,11.472 C125.634669,11.9680025 126.207996,12.216 126.944,12.216 C127.872005,12.216 128.570664,11.778671 129.04,10.904 L130.048,11.464 C129.738665,11.9866693 129.328003,12.4133317 128.816,12.744 C128.303997,13.0746683 127.658671,13.24 126.88,13.24 C126.26133,13.24 125.720002,13.1333344 125.256,12.92 C124.791998,12.7066656 124.405335,12.4133352 124.096,12.04 C123.786665,11.6666648 123.554667,11.2293358 123.4,10.728 C123.245333,10.2266642 123.168,9.68800288 123.168,9.112 C123.168,8.54666384 123.242666,8.00800256 123.392,7.496 C123.541334,6.98399744 123.767998,6.53600192 124.072,6.152 C124.376002,5.76799808 124.749331,5.46400112 125.192,5.24 C125.634669,5.01599888 126.154664,4.904 126.752,4.904 C127.328003,4.904 127.829331,5.01333224 128.256,5.232 C128.682669,5.45066776 129.037332,5.74399816 129.32,6.112 C129.602668,6.48000184 129.815999,6.90666424 129.96,7.392 C130.104001,7.87733576 130.176,8.39199728 130.176,8.936 C130.176,9.05333392 130.173333,9.14399968 130.168,9.208 C130.162667,9.27200032 130.16,9.32533312 130.16,9.368 L124.528,9.368 Z M126.736,5.912 C126.063997,5.912 125.544002,6.1519976 125.176,6.632 C124.807998,7.1120024 124.597334,7.75732928 124.544,8.568 L128.816,8.568 C128.816,8.23733168 128.778667,7.91466824 128.704,7.6 C128.629333,7.28533176 128.506668,7.00266792 128.336,6.752 C128.165332,6.50133208 127.949335,6.29866744 127.688,6.144 C127.426665,5.98933256 127.109335,5.912 126.736,5.912 Z M140.688,11.464 C140.474666,11.997336 140.160002,12.4186651 139.744,12.728 C139.327998,13.0373349 138.81067,13.192 138.192,13.192 C137.701331,13.192 137.261335,13.0906677 136.872,12.888 C136.482665,12.6853323 136.152001,12.4026685 135.88,12.04 C135.607999,11.6773315 135.400001,11.2400026 135.256,10.728 C135.111999,10.2159974 135.04,9.65066976 135.04,9.032 C135.04,8.3919968 135.114666,7.8186692 135.264,7.312 C135.413334,6.8053308 135.626665,6.37600176 135.904,6.024 C136.181335,5.67199824 136.514665,5.40000096 136.904,5.208 C137.293335,5.01599904 137.722664,4.92 138.192,4.92 C138.832003,4.92 139.354665,5.07199848 139.76,5.376 C140.165335,5.68000152 140.453332,6.0453312 140.624,6.472 L140.624,1.704 L141.968,1.704 L141.968,13 L140.688,13 L140.688,11.464 Z M140.624,9.016 C140.624,8.68533168 140.616,8.4266676 140.6,8.24 C140.584,8.0533324 140.565333,7.90133392 140.544,7.784 C140.490666,7.54933216 140.410667,7.3253344 140.304,7.112 C140.197333,6.8986656 140.061334,6.70933416 139.896,6.544 C139.730666,6.37866584 139.536001,6.24800048 139.312,6.152 C139.087999,6.05599952 138.832001,6.008 138.544,6.008 C138.181332,6.008 137.869335,6.0879992 137.608,6.248 C137.346665,6.4080008 137.128001,6.62399864 136.952,6.896 C136.775999,7.16800136 136.645334,7.48799816 136.56,7.856 C136.474666,8.22400184 136.432,8.61599792 136.432,9.032 C136.432,9.48000224 136.48,9.89333144 136.576,10.272 C136.672,10.6506686 136.810666,10.9759986 136.992,11.248 C137.173334,11.5200014 137.397332,11.7333326 137.664,11.888 C137.930668,12.0426674 138.234665,12.12 138.576,12.12 C138.842668,12.12 139.085332,12.0720005 139.304,11.976 C139.522668,11.8799995 139.714666,11.7466675 139.88,11.576 C140.045334,11.4053325 140.181333,11.2106678 140.288,10.992 C140.394667,10.7733322 140.474666,10.5413346 140.528,10.296 C140.592,9.99733184 140.624,9.59733584 140.624,9.096 L140.624,9.016 Z M145.008,9.368 C145.061334,10.2746712 145.293331,10.9759975 145.704,11.472 C146.114669,11.9680025 146.687996,12.216 147.424,12.216 C148.352005,12.216 149.050664,11.778671 149.52,10.904 L150.528,11.464 C150.218665,11.9866693 149.808003,12.4133317 149.296,12.744 C148.783997,13.0746683 148.138671,13.24 147.36,13.24 C146.74133,13.24 146.200002,13.1333344 145.736,12.92 C145.271998,12.7066656 144.885335,12.4133352 144.576,12.04 C144.266665,11.6666648 144.034667,11.2293358 143.88,10.728 C143.725333,10.2266642 143.648,9.68800288 143.648,9.112 C143.648,8.54666384 143.722666,8.00800256 143.872,7.496 C144.021334,6.98399744 144.247998,6.53600192 144.552,6.152 C144.856002,5.76799808 145.229331,5.46400112 145.672,5.24 C146.114669,5.01599888 146.634664,4.904 147.232,4.904 C147.808003,4.904 148.309331,5.01333224 148.736,5.232 C149.162669,5.45066776 149.517332,5.74399816 149.8,6.112 C150.082668,6.48000184 150.295999,6.90666424 150.44,7.392 C150.584001,7.87733576 150.656,8.39199728 150.656,8.936 C150.656,9.05333392 150.653333,9.14399968 150.648,9.208 C150.642667,9.27200032 150.64,9.32533312 150.64,9.368 L145.008,9.368 Z M147.216,5.912 C146.543997,5.912 146.024002,6.1519976 145.656,6.632 C145.287998,7.1120024 145.077334,7.75732928 145.024,8.568 L149.296,8.568 C149.296,8.23733168 149.258667,7.91466824 149.184,7.6 C149.109333,7.28533176 148.986668,7.00266792 148.816,6.752 C148.645332,6.50133208 148.429335,6.29866744 148.168,6.144 C147.906665,5.98933256 147.589335,5.912 147.216,5.912 Z M152.96,6.04 L151.616,6.04 L151.616,5.128 L151.904,5.128 C152.234668,5.128 152.493332,5.09333368 152.68,5.024 C152.866668,4.95466632 153.008,4.84800072 153.104,4.704 C153.2,4.55999928 153.269333,4.37066784 153.312,4.136 C153.354667,3.90133216 153.392,3.61333504 153.424,3.272 L153.456,2.984 L154.288,2.984 L154.288,5.128 L155.984,5.128 L155.984,6.04 L154.288,6.04 L154.288,10.936 C154.288,11.3840022 154.354666,11.7066657 154.488,11.904 C154.621334,12.1013343 154.869332,12.2 155.232,12.2 C155.520001,12.2 155.786665,12.1360006 156.032,12.008 L156.176,12.968 C155.770665,13.1493342 155.322669,13.24 154.832,13.24 C154.447998,13.24 154.136001,13.1866672 153.896,13.08 C153.655999,12.9733328 153.466667,12.8293342 153.328,12.648 C153.189333,12.4666658 153.093334,12.2480013 153.04,11.992 C152.986666,11.7359987 152.96,11.4586682 152.96,11.16 L152.96,6.04 Z M162.528,13 C162.410666,12.6159981 162.341333,12.157336 162.32,11.624 C162.106666,12.1146691 161.778669,12.5066652 161.336,12.8 C160.893331,13.0933348 160.368003,13.24 159.76,13.24 C158.991996,13.24 158.384002,13.0213355 157.936,12.584 C157.487998,12.1466645 157.264,11.5600037 157.264,10.824 C157.264,10.4079979 157.338666,10.0586681 157.488,9.776 C157.637334,9.49333192 157.845332,9.2586676 158.112,9.072 C158.378668,8.8853324 158.693332,8.7386672 159.056,8.632 C159.418668,8.5253328 159.813331,8.44000032 160.24,8.376 L162.256,8.072 L162.256,7.576 C162.256,7.22399824 162.213334,6.9413344 162.128,6.728 C162.042666,6.5146656 161.925334,6.34933392 161.776,6.232 C161.626666,6.11466608 161.456001,6.03733352 161.264,6 C161.071999,5.96266648 160.869334,5.944 160.656,5.944 C160.047997,5.944 159.546669,6.05599888 159.152,6.28 C158.757331,6.50400112 158.426668,6.78666496 158.16,7.128 L157.472,6.264 C157.781335,5.8906648 158.210664,5.570668 158.76,5.304 C159.309336,5.037332 159.989329,4.904 160.8,4.904 C161.781338,4.904 162.493331,5.12266448 162.936,5.56 C163.378669,5.99733552 163.6,6.70132848 163.6,7.672 L163.6,10.856 C163.6,11.1120013 163.602667,11.335999 163.608,11.528 C163.613333,11.720001 163.624,11.8986658 163.64,12.064 C163.656,12.2293342 163.68,12.3866659 163.712,12.536 C163.744,12.6853341 163.786666,12.8399992 163.84,13 L162.528,13 Z M162.256,8.952 L160.368,9.256 C159.71733,9.37333392 159.256001,9.54933216 158.984,9.784 C158.711999,10.0186678 158.576,10.3439979 158.576,10.76 C158.576,11.1866688 158.701332,11.5439986 158.952,11.832 C159.202668,12.1200014 159.573331,12.264 160.064,12.264 C160.362668,12.264 160.645332,12.2053339 160.912,12.088 C161.178668,11.9706661 161.410666,11.808001 161.608,11.6 C161.805334,11.391999 161.962666,11.1413348 162.08,10.848 C162.197334,10.5546652 162.256,10.2320018 162.256,9.88 L162.256,8.952 Z M165.728,2.072 L167.056,2.072 L167.056,3.4 L165.728,3.4 L165.728,2.072 Z M165.728,5.128 L167.056,5.128 L167.056,13 L165.728,13 L165.728,5.128 Z M169.104,1.704 L170.432,1.704 L170.432,13 L169.104,13 L169.104,1.704 Z M172.624,11.064 C172.890668,11.405335 173.234665,11.6879989 173.656,11.912 C174.077335,12.1360011 174.538664,12.248 175.04,12.248 C175.488002,12.248 175.877332,12.1413344 176.208,11.928 C176.538668,11.7146656 176.704,11.3946688 176.704,10.968 C176.704,10.6373317 176.594668,10.3786676 176.376,10.192 C176.157332,10.0053324 175.885335,9.84800064 175.56,9.72 C175.234665,9.59199936 174.880002,9.4746672 174.496,9.368 C174.111998,9.2613328 173.757335,9.12266752 173.432,8.952 C173.106665,8.78133248 172.834668,8.55733472 172.616,8.28 C172.397332,8.00266528 172.288,7.6240024 172.288,7.144 C172.288,6.74933136 172.367999,6.41066808 172.528,6.128 C172.688001,5.84533192 172.898665,5.61333424 173.16,5.432 C173.421335,5.25066576 173.722665,5.11733376 174.064,5.032 C174.405335,4.94666624 174.762665,4.904 175.136,4.904 C176.245339,4.904 177.167996,5.2239968 177.904,5.864 L177.232,6.76 C176.997332,6.51466544 176.685335,6.30933416 176.296,6.144 C175.906665,5.97866584 175.504002,5.896 175.088,5.896 C174.906666,5.896 174.728001,5.91733312 174.552,5.96 C174.375999,6.00266688 174.221334,6.06933288 174.088,6.16 C173.954666,6.25066712 173.848,6.36533264 173.768,6.504 C173.688,6.64266736 173.648,6.81333232 173.648,7.016 C173.648,7.32533488 173.757332,7.56533248 173.976,7.736 C174.194668,7.90666752 174.466665,8.05333272 174.792,8.176 C175.117335,8.29866728 175.469331,8.41599944 175.848,8.528 C176.226669,8.64000056 176.578665,8.78399912 176.904,8.96 C177.229335,9.13600088 177.501332,9.36799856 177.72,9.656 C177.938668,9.94400144 178.048,10.3279976 178.048,10.808 C178.048,11.2133354 177.965334,11.5679985 177.8,11.872 C177.634666,12.1760015 177.416001,12.4293323 177.144,12.632 C176.871999,12.8346677 176.557335,12.9866662 176.2,13.088 C175.842665,13.1893338 175.472002,13.24 175.088,13.24 C173.765327,13.24 172.714671,12.8133376 171.936,11.96 L172.624,11.064 Z" id="H5-Regular-16-" fill="#4C5358"></path>
                    <path d="M0,27 L79.5,27" id="Active-line" stroke="#0D78AA" stroke-width="3"></path>
                </g>
                <g id="Group-5-Copy" transform="translate(24.000000, 104.000000)" fill="#AAB1B6">
                    <rect id="Rectangle-2" x="0" y="0" width="254" height="7" rx="3.5"></rect>
                    <rect id="Rectangle-2-Copy" x="0" y="15" width="254" height="7" rx="3.5"></rect>
                    <rect id="Rectangle-2-Copy-2" x="0" y="29" width="254" height="7" rx="3.5"></rect>
                    <rect id="Rectangle-2" x="0" y="44" width="254" height="7" rx="3.5"></rect>
                    <rect id="Rectangle-2-Copy" x="0" y="58" width="254" height="7" rx="3.5"></rect>
                    <rect id="Rectangle-2-Copy-2" x="0" y="73" width="86" height="7" rx="3.5"></rect>
                </g>
                <rect id="Rectangle-2-Copy-27" fill="#4C5358" x="24" y="24" width="77" height="8" rx="4"></rect>
            </g>
        </g>
    </g>
</svg>