<?xml version="1.0" encoding="UTF-8"?>
<svg width="342px" height="46px" viewBox="0 0 342 46" version="1.1" xmlns="http://www.w3.org/2000/svg" xmlns:xlink="http://www.w3.org/1999/xlink">
    <!-- Generator: Sketch 47 (45396) - http://www.bohemiancoding.com/sketch -->
    <title>Tab4Actions</title>
    <desc>Created with Sketch.</desc>
    <defs>
        <rect id="path-1" x="0" y="0" width="342" height="46"></rect>
    </defs>
    <g id="Page-1" stroke="none" stroke-width="1" fill="none" fill-rule="evenodd">
        <g id="Buttons-Usage-extra-large-1200" transform="translate(-766.000000, -1738.000000)">
            <g id="Tab4Actions" transform="translate(766.000000, 1738.000000)">
                <g id="Panel">
                    <use fill="#FFFFFF" fill-rule="evenodd" xlink:href="#path-1"></use>
                    <rect stroke="#D2D6D9" stroke-width="1" x="0.5" y="0.5" width="341" height="45"></rect>
                </g>
                <path d="M140.818008,28.6237691 L140.818008,20.3744803 C140.818008,20.265111 140.783858,20.1752094 140.715558,20.1047756 C140.647258,20.0343418 140.560081,19.9991248 140.454025,19.9991248 L139.726694,19.9991248 C139.620638,19.9991248 139.533461,20.0343418 139.465161,20.1047756 C139.396861,20.1752094 139.362711,20.265111 139.362711,20.3744803 L139.362711,28.6237691 C139.362711,28.7331384 139.396861,28.82304 139.465161,28.8934738 C139.533461,28.9639076 139.620638,28.9991245 139.726694,28.9991245 L140.454025,28.9991245 C140.560081,28.9991245 140.647258,28.9639076 140.715558,28.8934738 C140.783858,28.82304 140.818008,28.7331384 140.818008,28.6237691 L140.818008,28.6237691 Z M143.726694,28.6237691 L143.726694,20.3744803 C143.726694,20.265111 143.692544,20.1752094 143.624244,20.1047756 C143.555944,20.0343418 143.468767,19.9991248 143.362711,19.9991248 L142.63538,19.9991248 C142.529324,19.9991248 142.442147,20.0343418 142.373847,20.1047756 C142.305547,20.1752094 142.271397,20.265111 142.271397,20.3744803 L142.271397,28.6237691 C142.271397,28.7331384 142.305547,28.82304 142.373847,28.8934738 C142.442147,28.9639076 142.529324,28.9991245 142.63538,28.9991245 L143.362711,28.9991245 C143.468767,28.9991245 143.555944,28.9639076 143.624244,28.8934738 C143.692544,28.82304 143.726694,28.7331384 143.726694,28.6237691 L143.726694,28.6237691 Z M146.636017,28.6237691 L146.636017,20.3744803 C146.636017,20.265111 146.601867,20.1752094 146.533567,20.1047756 C146.465267,20.0343418 146.378089,19.9991248 146.272033,19.9991248 L145.544703,19.9991248 C145.438647,19.9991248 145.351469,20.0343418 145.283169,20.1047756 C145.214869,20.1752094 145.180719,20.265111 145.180719,20.3744803 L145.180719,28.6237691 C145.180719,28.7331384 145.214869,28.82304 145.283169,28.8934738 C145.351469,28.9639076 145.438647,28.9991245 145.544703,28.9991245 L146.272033,28.9991245 C146.378089,28.9991245 146.465267,28.9639076 146.533567,28.8934738 C146.601867,28.82304 146.636017,28.7331384 146.636017,28.6237691 L146.636017,28.6237691 Z M140.454025,16.9995624 L145.544703,16.9995624 L144.999364,15.6287276 C144.946336,15.5582938 144.881854,15.515421 144.805918,15.5001093 L141.203627,15.5001093 C141.127691,15.5158585 141.063209,15.5587313 141.010181,15.6287276 L140.454025,16.9995624 Z M150.999364,17.3749179 L150.999364,18.1249725 C150.999364,18.2343418 150.965214,18.3242434 150.896914,18.3946772 C150.828614,18.465111 150.741436,18.500328 150.63538,18.500328 L149.544703,18.500328 L149.544703,29.6094052 C149.544703,30.2577464 149.366741,30.8183735 149.010818,31.2912863 C148.654894,31.7641992 148.226853,32.0004369 147.726694,31.9999994 L138.272669,31.9999994 C137.77251,31.9999994 137.344469,31.7714176 136.988546,31.3142539 C136.632623,30.8570902 136.454661,30.3043378 136.454661,29.6559966 L136.454661,18.500328 L135.363983,18.500328 C135.257928,18.500328 135.17075,18.465111 135.10245,18.3946772 C135.03415,18.3242434 135,18.2343418 135,18.1249725 L135,17.3749179 C135,17.2655486 135.03415,17.175647 135.10245,17.1052132 C135.17075,17.0347793 135.257928,16.9995624 135.363983,16.9995624 L138.875278,16.9995624 L139.670697,15.0427269 C139.784389,14.7535545 139.988864,14.5074736 140.284123,14.3044841 C140.579383,14.1014947 140.878672,14 141.181992,14 L144.818008,14 C145.120904,14 145.420193,14.1014947 145.715877,14.3044841 C146.01156,14.5074736 146.216036,14.7535545 146.329303,15.0427269 L147.124722,16.9995624 L150.636017,16.9995624 C150.742072,16.9995624 150.82925,17.0347793 150.89755,17.1052132 C150.96585,17.175647 151,17.2655486 151,17.3749179 L150.999364,17.3749179 Z" id="Shape" fill="#3F4F5A" fill-rule="nonzero"></path>
                <path d="M32.9989376,21.1923643 L32.9989376,28.522927 C32.9989376,28.9292901 32.8503833,29.2770597 32.5532746,29.5662358 C32.2561659,29.8554119 31.8988564,30 31.4813461,30 L17.5186539,30 C17.1011436,30 16.7438341,29.8554119 16.4467254,29.5662358 C16.1496167,29.2770597 16.0010624,28.9292901 16.0010624,28.522927 L16.0010624,21.1923643 C16.2794026,21.4939484 16.598821,21.7617552 16.9593176,21.9957845 C19.2483648,23.5099092 20.8197829,24.5716577 21.6735721,25.18103 C22.0340687,25.4395307 22.3265738,25.6411613 22.5510874,25.7859217 C22.775601,25.930682 23.0744803,26.0783721 23.4477253,26.2289918 C23.8209703,26.3796116 24.1687185,26.4550938 24.4909699,26.4554385 L24.5100925,26.4554385 C24.832698,26.4554385 25.1804462,26.3799563 25.5533371,26.2289918 C25.926228,26.0780274 26.2251073,25.9303374 26.449975,25.7859217 C26.6748427,25.6415059 26.9673478,25.4398754 27.3274903,25.18103 C28.4026059,24.42414 29.9772112,23.3623915 32.0513061,21.9957845 C32.4118027,21.7558958 32.728034,21.4880891 33,21.1923643 L32.9989376,21.1923643 Z M32.9989376,18.478107 C32.9989376,18.964433 32.8440091,19.4290449 32.534152,19.8719427 C32.2242949,20.3148406 31.8384785,20.6932856 31.3767029,21.0072778 C28.9991251,22.6137734 27.5194247,23.6139988 26.9376015,24.0079539 C26.8742136,24.0510373 26.7398242,24.1449592 26.5344332,24.2897196 C26.3290422,24.43448 26.1583552,24.5514947 26.0223722,24.6407636 C25.8863892,24.7300325 25.7218993,24.8299861 25.5289026,24.9406244 C25.3359059,25.0512627 25.1540641,25.1343276 24.9833771,25.189819 C24.8126901,25.2453105 24.6545744,25.2730563 24.5090301,25.2730563 L24.4899075,25.2730563 C24.3443632,25.2730563 24.1862476,25.2453105 24.0155606,25.189819 C23.8448736,25.1343276 23.6630317,25.0512627 23.470035,24.9406244 C23.2770383,24.8299861 23.1125484,24.7300325 22.9765654,24.6407636 C22.8405824,24.5514947 22.6698954,24.43448 22.4645044,24.2897196 C22.2591134,24.1449592 22.124724,24.0510373 22.0613361,24.0079539 C21.4858872,23.6139988 20.6574178,23.052363 19.575928,22.3230463 C18.4944382,21.5937297 17.8462171,21.1551402 17.6312648,21.0072778 C17.2392513,20.7487771 16.8693705,20.3932525 16.5216223,19.9407039 C16.1738741,19.4881554 16,19.0680056 16,18.6802545 C16,18.2001326 16.1312023,17.8001458 16.393607,17.4802943 C16.6560117,17.1604428 17.0306732,17.0003447 17.5175916,17 L31.4802837,17 C31.8914198,17 32.2471358,17.1445881 32.5474316,17.4337642 C32.8477274,17.7229403 32.9978753,18.0707099 32.9978753,18.477073 L32.9989376,18.478107 Z" id="Shape" fill="#3F4F5A" fill-rule="nonzero"></path>
                <path d="M118,14 L118,30" id="Line" stroke="#D2D6D9" stroke-linecap="square"></path>
                <path d="M42.12,16.704 L43.912,16.704 C44.2000014,17.4186702 44.4959985,18.1626628 44.8,18.936 C45.1040015,19.7093372 45.4026652,20.4746629 45.696,21.232 C45.9893348,21.9893371 46.2719986,22.7199965 46.544,23.424 C46.8160014,24.1280035 47.0639989,24.7733304 47.288,25.36 C47.5120011,24.7733304 47.757332,24.1280035 48.024,23.424 C48.290668,22.7199965 48.5733318,21.9893371 48.872,21.232 C49.1706682,20.4746629 49.4719985,19.7120038 49.776,18.944 C50.0800015,18.1759962 50.3759986,17.429337 50.664,16.704 L52.376,16.704 L52.376,28 L51.016,28 L51.016,25.568 C51.016,24.7359958 51.0186666,23.9146707 51.024,23.104 C51.0293334,22.2933293 51.0346666,21.5066705 51.04,20.744 C51.0453334,19.9813295 51.0533333,19.2746699 51.064,18.624 C50.8186654,19.2853366 50.5440015,19.9973295 50.24,20.76 C49.9359985,21.5226705 49.621335,22.3119959 49.296,23.128 C48.970665,23.9440041 48.6400017,24.7679958 48.304,25.6 C47.9679983,26.4320042 47.6400016,27.247996 47.32,28.048 L47.192,28.048 C46.9039986,27.322663 46.5840018,26.5280043 46.232,25.664 C45.8799982,24.7999957 45.5306684,23.938671 45.184,23.08 C44.8373316,22.221329 44.5093349,21.4026706 44.2,20.624 C43.8906651,19.8453294 43.6346677,19.1786694 43.432,18.624 C43.4426667,19.2746699 43.4533333,19.9813295 43.464,20.744 C43.4746667,21.5066705 43.48,22.2959959 43.48,23.112 C43.48,23.9280041 43.4826666,24.7519958 43.488,25.584 C43.4933334,26.4160042 43.496,27.2213294 43.496,28 L42.12,28 L42.12,16.704 Z M55.528,24.368 C55.5813336,25.2746712 55.8133313,25.9759975 56.224,26.472 C56.6346687,26.9680025 57.2079963,27.216 57.944,27.216 C58.8720046,27.216 59.5706643,26.778671 60.04,25.904 L61.048,26.464 C60.7386651,26.9866693 60.3280026,27.4133317 59.816,27.744 C59.3039974,28.0746683 58.6586706,28.24 57.88,28.24 C57.2613302,28.24 56.7200023,28.1333344 56.256,27.92 C55.7919977,27.7066656 55.4053349,27.4133352 55.096,27.04 C54.7866651,26.6666648 54.5546674,26.2293358 54.4,25.728 C54.2453326,25.2266642 54.168,24.6880029 54.168,24.112 C54.168,23.5466638 54.2426659,23.0080026 54.392,22.496 C54.5413341,21.9839974 54.7679985,21.5360019 55.072,21.152 C55.3760015,20.7679981 55.7493311,20.4640011 56.192,20.24 C56.6346689,20.0159989 57.1546637,19.904 57.752,19.904 C58.3280029,19.904 58.8293312,20.0133322 59.256,20.232 C59.6826688,20.4506678 60.0373319,20.7439982 60.32,21.112 C60.6026681,21.4800018 60.8159993,21.9066642 60.96,22.392 C61.1040007,22.8773358 61.176,23.3919973 61.176,23.936 C61.176,24.0533339 61.1733334,24.1439997 61.168,24.208 C61.1626666,24.2720003 61.16,24.3253331 61.16,24.368 L55.528,24.368 Z M57.736,20.912 C57.0639966,20.912 56.5440018,21.1519976 56.176,21.632 C55.8079982,22.1120024 55.5973336,22.7573293 55.544,23.568 L59.816,23.568 C59.816,23.2373317 59.778667,22.9146682 59.704,22.6 C59.629333,22.2853318 59.5066675,22.0026679 59.336,21.752 C59.1653325,21.5013321 58.9493346,21.2986674 58.688,21.144 C58.4266654,20.9893326 58.1093352,20.912 57.736,20.912 Z M62.936,26.064 C63.202668,26.405335 63.5466646,26.6879989 63.968,26.912 C64.3893354,27.1360011 64.8506642,27.248 65.352,27.248 C65.8000022,27.248 66.1893317,27.1413344 66.52,26.928 C66.8506683,26.7146656 67.016,26.3946688 67.016,25.968 C67.016,25.6373317 66.9066678,25.3786676 66.688,25.192 C66.4693322,25.0053324 66.197335,24.8480006 65.872,24.72 C65.546665,24.5919994 65.1920019,24.4746672 64.808,24.368 C64.4239981,24.2613328 64.069335,24.1226675 63.744,23.952 C63.418665,23.7813325 63.1466678,23.5573347 62.928,23.28 C62.7093322,23.0026653 62.6,22.6240024 62.6,22.144 C62.6,21.7493314 62.6799992,21.4106681 62.84,21.128 C63.0000008,20.8453319 63.2106654,20.6133342 63.472,20.432 C63.7333346,20.2506658 64.034665,20.1173338 64.376,20.032 C64.717335,19.9466662 65.0746648,19.904 65.448,19.904 C66.5573389,19.904 67.4799963,20.2239968 68.216,20.864 L67.544,21.76 C67.3093322,21.5146654 66.9973353,21.3093342 66.608,21.144 C66.2186647,20.9786658 65.8160021,20.896 65.4,20.896 C65.2186658,20.896 65.0400009,20.9173331 64.864,20.96 C64.6879991,21.0026669 64.533334,21.0693329 64.4,21.16 C64.266666,21.2506671 64.1600004,21.3653326 64.08,21.504 C63.9999996,21.6426674 63.96,21.8133323 63.96,22.016 C63.96,22.3253349 64.0693322,22.5653325 64.288,22.736 C64.5066678,22.9066675 64.778665,23.0533327 65.104,23.176 C65.429335,23.2986673 65.7813314,23.4159994 66.16,23.528 C66.5386686,23.6400006 66.890665,23.7839991 67.216,23.96 C67.541335,24.1360009 67.8133322,24.3679986 68.032,24.656 C68.2506678,24.9440014 68.36,25.3279976 68.36,25.808 C68.36,26.2133354 68.2773342,26.5679985 68.112,26.872 C67.9466658,27.1760015 67.7280014,27.4293323 67.456,27.632 C67.1839986,27.8346677 66.8693351,27.9866662 66.512,28.088 C66.1546649,28.1893338 65.7840019,28.24 65.4,28.24 C64.0773267,28.24 63.0266706,27.8133376 62.248,26.96 L62.936,26.064 Z M70.056,26.064 C70.322668,26.405335 70.6666646,26.6879989 71.088,26.912 C71.5093354,27.1360011 71.9706642,27.248 72.472,27.248 C72.9200022,27.248 73.3093317,27.1413344 73.64,26.928 C73.9706683,26.7146656 74.136,26.3946688 74.136,25.968 C74.136,25.6373317 74.0266678,25.3786676 73.808,25.192 C73.5893322,25.0053324 73.317335,24.8480006 72.992,24.72 C72.666665,24.5919994 72.3120019,24.4746672 71.928,24.368 C71.5439981,24.2613328 71.189335,24.1226675 70.864,23.952 C70.538665,23.7813325 70.2666678,23.5573347 70.048,23.28 C69.8293322,23.0026653 69.72,22.6240024 69.72,22.144 C69.72,21.7493314 69.7999992,21.4106681 69.96,21.128 C70.1200008,20.8453319 70.3306654,20.6133342 70.592,20.432 C70.8533346,20.2506658 71.154665,20.1173338 71.496,20.032 C71.837335,19.9466662 72.1946648,19.904 72.568,19.904 C73.6773389,19.904 74.5999963,20.2239968 75.336,20.864 L74.664,21.76 C74.4293322,21.5146654 74.1173353,21.3093342 73.728,21.144 C73.3386647,20.9786658 72.9360021,20.896 72.52,20.896 C72.3386658,20.896 72.1600009,20.9173331 71.984,20.96 C71.8079991,21.0026669 71.653334,21.0693329 71.52,21.16 C71.386666,21.2506671 71.2800004,21.3653326 71.2,21.504 C71.1199996,21.6426674 71.08,21.8133323 71.08,22.016 C71.08,22.3253349 71.1893322,22.5653325 71.408,22.736 C71.6266678,22.9066675 71.898665,23.0533327 72.224,23.176 C72.549335,23.2986673 72.9013314,23.4159994 73.28,23.528 C73.6586686,23.6400006 74.010665,23.7839991 74.336,23.96 C74.661335,24.1360009 74.9333322,24.3679986 75.152,24.656 C75.3706678,24.9440014 75.48,25.3279976 75.48,25.808 C75.48,26.2133354 75.3973342,26.5679985 75.232,26.872 C75.0666658,27.1760015 74.8480014,27.4293323 74.576,27.632 C74.3039986,27.8346677 73.9893351,27.9866662 73.632,28.088 C73.2746649,28.1893338 72.9040019,28.24 72.52,28.24 C71.1973267,28.24 70.1466706,27.8133376 69.368,26.96 L70.056,26.064 Z M81.976,28 C81.8586661,27.6159981 81.7893334,27.157336 81.768,26.624 C81.5546656,27.1146691 81.2266689,27.5066652 80.784,27.8 C80.3413311,28.0933348 79.816003,28.24 79.208,28.24 C78.4399962,28.24 77.8320022,28.0213355 77.384,27.584 C76.9359978,27.1466645 76.712,26.5600037 76.712,25.824 C76.712,25.4079979 76.7866659,25.0586681 76.936,24.776 C77.0853341,24.4933319 77.293332,24.2586676 77.56,24.072 C77.826668,23.8853324 78.1413315,23.7386672 78.504,23.632 C78.8666685,23.5253328 79.2613312,23.4400003 79.688,23.376 L81.704,23.072 L81.704,22.576 C81.704,22.2239982 81.6613338,21.9413344 81.576,21.728 C81.4906662,21.5146656 81.3733341,21.3493339 81.224,21.232 C81.0746659,21.1146661 80.904001,21.0373335 80.712,21 C80.519999,20.9626665 80.3173344,20.944 80.104,20.944 C79.495997,20.944 78.9946686,21.0559989 78.6,21.28 C78.2053314,21.5040011 77.874668,21.786665 77.608,22.128 L76.92,21.264 C77.2293349,20.8906648 77.6586639,20.570668 78.208,20.304 C78.7573361,20.037332 79.4373293,19.904 80.248,19.904 C81.2293382,19.904 81.9413311,20.1226645 82.384,20.56 C82.8266689,20.9973355 83.048,21.7013285 83.048,22.672 L83.048,25.856 C83.048,26.1120013 83.0506666,26.335999 83.056,26.528 C83.0613334,26.720001 83.0719999,26.8986658 83.088,27.064 C83.1040001,27.2293342 83.1279998,27.3866659 83.16,27.536 C83.1920002,27.6853341 83.2346664,27.8399992 83.288,28 L81.976,28 Z M81.704,23.952 L79.816,24.256 C79.1653301,24.3733339 78.7040014,24.5493322 78.432,24.784 C78.1599986,25.0186678 78.024,25.3439979 78.024,25.76 C78.024,26.1866688 78.1493321,26.5439986 78.4,26.832 C78.6506679,27.1200014 79.0213309,27.264 79.512,27.264 C79.8106682,27.264 80.093332,27.2053339 80.36,27.088 C80.626668,26.9706661 80.8586657,26.808001 81.056,26.6 C81.2533343,26.391999 81.4106661,26.1413348 81.528,25.848 C81.6453339,25.5546652 81.704,25.2320018 81.704,24.88 L81.704,23.952 Z M85.816,28.944 C86.1253349,29.2426682 86.4959978,29.4799991 86.928,29.656 C87.3600022,29.8320009 87.8213309,29.92 88.312,29.92 C88.7173354,29.92 89.0479987,29.8586673 89.304,29.736 C89.5600013,29.6133327 89.7626659,29.4453344 89.912,29.232 C90.0613341,29.0186656 90.165333,28.7760014 90.224,28.504 C90.282667,28.2319986 90.312,27.9413349 90.312,27.632 L90.312,26.176 C90.1093323,26.6560024 89.8053354,27.0426652 89.4,27.336 C88.9946646,27.6293348 88.4720032,27.776 87.832,27.776 C87.373331,27.776 86.9573352,27.6880009 86.584,27.512 C86.2106648,27.3359991 85.890668,27.0826683 85.624,26.752 C85.357332,26.4213317 85.1520007,26.0160024 85.008,25.536 C84.8639993,25.0559976 84.792,24.5173363 84.792,23.92 C84.792,23.3333304 84.8639993,22.7946691 85.008,22.304 C85.1520007,21.8133309 85.3599986,21.3920018 85.632,21.04 C85.9040014,20.6879982 86.2346647,20.4133343 86.624,20.216 C87.0133353,20.0186657 87.4479976,19.92 87.928,19.92 C88.5573365,19.92 89.0799979,20.0773318 89.496,20.392 C89.9120021,20.7066682 90.2106658,21.1093309 90.392,21.6 L90.616,20.128 L91.64,20.128 L91.64,27.6 C91.64,28.0480022 91.5866672,28.471998 91.48,28.872 C91.3733328,29.272002 91.1920013,29.6266651 90.936,29.936 C90.6799987,30.2453349 90.3386688,30.4906658 89.912,30.672 C89.4853312,30.8533342 88.9520032,30.944 88.312,30.944 C87.6186632,30.944 86.9973361,30.8453343 86.448,30.648 C85.8986639,30.4506657 85.4373352,30.2026682 85.064,29.904 L85.816,28.944 Z M90.312,23.92 C90.312,23.7386658 90.3093334,23.5653342 90.304,23.4 C90.2986666,23.2346658 90.2853334,23.1093338 90.264,23.024 C90.2213331,22.7679987 90.1520005,22.5173346 90.056,22.272 C89.9599995,22.0266654 89.8293342,21.8133342 89.664,21.632 C89.4986658,21.4506658 89.2960012,21.3040006 89.056,21.192 C88.8159988,21.0799994 88.5360016,21.024 88.216,21.024 C87.8639982,21.024 87.5600013,21.0986659 87.304,21.248 C87.0479987,21.3973341 86.8373342,21.5999987 86.672,21.856 C86.5066658,22.1120013 86.3840004,22.4159982 86.304,22.768 C86.2239996,23.1200018 86.184,23.4933314 86.184,23.888 C86.184,24.2400018 86.221333,24.5893316 86.296,24.936 C86.370667,25.2826684 86.4879992,25.589332 86.648,25.856 C86.8080008,26.122668 87.0186654,26.3386658 87.28,26.504 C87.5413346,26.6693342 87.8586648,26.752 88.232,26.752 C88.7546693,26.752 89.1759984,26.6053348 89.496,26.312 C89.8160016,26.0186652 90.0399994,25.6480022 90.168,25.2 C90.2213336,25.0506659 90.2586666,24.8640011 90.28,24.64 C90.3013334,24.4159989 90.312,24.2026677 90.312,24 L90.312,23.92 Z M94.696,24.368 C94.7493336,25.2746712 94.9813313,25.9759975 95.392,26.472 C95.8026687,26.9680025 96.3759963,27.216 97.112,27.216 C98.0400046,27.216 98.7386643,26.778671 99.208,25.904 L100.216,26.464 C99.9066651,26.9866693 99.4960026,27.4133317 98.984,27.744 C98.4719974,28.0746683 97.8266706,28.24 97.048,28.24 C96.4293302,28.24 95.8880023,28.1333344 95.424,27.92 C94.9599977,27.7066656 94.5733349,27.4133352 94.264,27.04 C93.9546651,26.6666648 93.7226674,26.2293358 93.568,25.728 C93.4133326,25.2266642 93.336,24.6880029 93.336,24.112 C93.336,23.5466638 93.4106659,23.0080026 93.56,22.496 C93.7093341,21.9839974 93.9359985,21.5360019 94.24,21.152 C94.5440015,20.7679981 94.9173311,20.4640011 95.36,20.24 C95.8026689,20.0159989 96.3226637,19.904 96.92,19.904 C97.4960029,19.904 97.9973312,20.0133322 98.424,20.232 C98.8506688,20.4506678 99.2053319,20.7439982 99.488,21.112 C99.7706681,21.4800018 99.9839993,21.9066642 100.128,22.392 C100.272001,22.8773358 100.344,23.3919973 100.344,23.936 C100.344,24.0533339 100.341333,24.1439997 100.336,24.208 C100.330667,24.2720003 100.328,24.3253331 100.328,24.368 L94.696,24.368 Z M96.904,20.912 C96.2319966,20.912 95.7120018,21.1519976 95.344,21.632 C94.9759982,22.1120024 94.7653336,22.7573293 94.712,23.568 L98.984,23.568 C98.984,23.2373317 98.946667,22.9146682 98.872,22.6 C98.797333,22.2853318 98.6746675,22.0026679 98.504,21.752 C98.3333325,21.5013321 98.1173346,21.2986674 97.856,21.144 C97.5946654,20.9893326 97.2773352,20.912 96.904,20.912 Z" id="Message" fill="#4C5358"></path>
                <path d="M160.12,16.704 L163.528,16.704 C165.48001,16.704 166.914662,17.1759953 167.832,18.12 C168.749338,19.0640047 169.208,20.4799906 169.208,22.368 C169.208,24.1920091 168.749338,25.5866618 167.832,26.552 C166.914662,27.5173382 165.538676,28 163.704,28 L160.12,28 L160.12,16.704 Z M163.592,26.88 C164.360004,26.88 165.005331,26.7680011 165.528,26.544 C166.050669,26.3199989 166.471998,26.008002 166.792,25.608 C167.112002,25.207998 167.338666,24.7280028 167.472,24.168 C167.605334,23.6079972 167.672,22.9973366 167.672,22.336 C167.672,21.6959968 167.605334,21.1013361 167.472,20.552 C167.338666,20.0026639 167.112002,19.5253354 166.792,19.12 C166.471998,18.7146646 166.040003,18.3973345 165.496,18.168 C164.951997,17.9386655 164.269337,17.824 163.448,17.824 L161.56,17.824 L161.56,26.88 L163.592,26.88 Z M171.912,24.368 C171.965334,25.2746712 172.197331,25.9759975 172.608,26.472 C173.018669,26.9680025 173.591996,27.216 174.328,27.216 C175.256005,27.216 175.954664,26.778671 176.424,25.904 L177.432,26.464 C177.122665,26.9866693 176.712003,27.4133317 176.2,27.744 C175.687997,28.0746683 175.042671,28.24 174.264,28.24 C173.64533,28.24 173.104002,28.1333344 172.64,27.92 C172.175998,27.7066656 171.789335,27.4133352 171.48,27.04 C171.170665,26.6666648 170.938667,26.2293358 170.784,25.728 C170.629333,25.2266642 170.552,24.6880029 170.552,24.112 C170.552,23.5466638 170.626666,23.0080026 170.776,22.496 C170.925334,21.9839974 171.151998,21.5360019 171.456,21.152 C171.760002,20.7679981 172.133331,20.4640011 172.576,20.24 C173.018669,20.0159989 173.538664,19.904 174.136,19.904 C174.712003,19.904 175.213331,20.0133322 175.64,20.232 C176.066669,20.4506678 176.421332,20.7439982 176.704,21.112 C176.986668,21.4800018 177.199999,21.9066642 177.344,22.392 C177.488001,22.8773358 177.56,23.3919973 177.56,23.936 C177.56,24.0533339 177.557333,24.1439997 177.552,24.208 C177.546667,24.2720003 177.544,24.3253331 177.544,24.368 L171.912,24.368 Z M174.12,20.912 C173.447997,20.912 172.928002,21.1519976 172.56,21.632 C172.191998,22.1120024 171.981334,22.7573293 171.928,23.568 L176.2,23.568 C176.2,23.2373317 176.162667,22.9146682 176.088,22.6 C176.013333,22.2853318 175.890668,22.0026679 175.72,21.752 C175.549332,21.5013321 175.333335,21.2986674 175.072,21.144 C174.810665,20.9893326 174.493335,20.912 174.12,20.912 Z M179.176,16.704 L180.504,16.704 L180.504,28 L179.176,28 L179.176,16.704 Z M183.56,24.368 C183.613334,25.2746712 183.845331,25.9759975 184.256,26.472 C184.666669,26.9680025 185.239996,27.216 185.976,27.216 C186.904005,27.216 187.602664,26.778671 188.072,25.904 L189.08,26.464 C188.770665,26.9866693 188.360003,27.4133317 187.848,27.744 C187.335997,28.0746683 186.690671,28.24 185.912,28.24 C185.29333,28.24 184.752002,28.1333344 184.288,27.92 C183.823998,27.7066656 183.437335,27.4133352 183.128,27.04 C182.818665,26.6666648 182.586667,26.2293358 182.432,25.728 C182.277333,25.2266642 182.2,24.6880029 182.2,24.112 C182.2,23.5466638 182.274666,23.0080026 182.424,22.496 C182.573334,21.9839974 182.799998,21.5360019 183.104,21.152 C183.408002,20.7679981 183.781331,20.4640011 184.224,20.24 C184.666669,20.0159989 185.186664,19.904 185.784,19.904 C186.360003,19.904 186.861331,20.0133322 187.288,20.232 C187.714669,20.4506678 188.069332,20.7439982 188.352,21.112 C188.634668,21.4800018 188.847999,21.9066642 188.992,22.392 C189.136001,22.8773358 189.208,23.3919973 189.208,23.936 C189.208,24.0533339 189.205333,24.1439997 189.2,24.208 C189.194667,24.2720003 189.192,24.3253331 189.192,24.368 L183.56,24.368 Z M185.768,20.912 C185.095997,20.912 184.576002,21.1519976 184.208,21.632 C183.839998,22.1120024 183.629334,22.7573293 183.576,23.568 L187.848,23.568 C187.848,23.2373317 187.810667,22.9146682 187.736,22.6 C187.661333,22.2853318 187.538668,22.0026679 187.368,21.752 C187.197332,21.5013321 186.981335,21.2986674 186.72,21.144 C186.458665,20.9893326 186.141335,20.912 185.768,20.912 Z M191.512,21.04 L190.168,21.04 L190.168,20.128 L190.456,20.128 C190.786668,20.128 191.045332,20.0933337 191.232,20.024 C191.418668,19.9546663 191.56,19.8480007 191.656,19.704 C191.752,19.5599993 191.821333,19.3706678 191.864,19.136 C191.906667,18.9013322 191.944,18.613335 191.976,18.272 L192.008,17.984 L192.84,17.984 L192.84,20.128 L194.536,20.128 L194.536,21.04 L192.84,21.04 L192.84,25.936 C192.84,26.3840022 192.906666,26.7066657 193.04,26.904 C193.173334,27.1013343 193.421332,27.2 193.784,27.2 C194.072001,27.2 194.338665,27.1360006 194.584,27.008 L194.728,27.968 C194.322665,28.1493342 193.874669,28.24 193.384,28.24 C192.999998,28.24 192.688001,28.1866672 192.448,28.08 C192.207999,27.9733328 192.018667,27.8293342 191.88,27.648 C191.741333,27.4666658 191.645334,27.2480013 191.592,26.992 C191.538666,26.7359987 191.512,26.4586682 191.512,26.16 L191.512,21.04 Z M197.144,24.368 C197.197334,25.2746712 197.429331,25.9759975 197.84,26.472 C198.250669,26.9680025 198.823996,27.216 199.56,27.216 C200.488005,27.216 201.186664,26.778671 201.656,25.904 L202.664,26.464 C202.354665,26.9866693 201.944003,27.4133317 201.432,27.744 C200.919997,28.0746683 200.274671,28.24 199.496,28.24 C198.87733,28.24 198.336002,28.1333344 197.872,27.92 C197.407998,27.7066656 197.021335,27.4133352 196.712,27.04 C196.402665,26.6666648 196.170667,26.2293358 196.016,25.728 C195.861333,25.2266642 195.784,24.6880029 195.784,24.112 C195.784,23.5466638 195.858666,23.0080026 196.008,22.496 C196.157334,21.9839974 196.383998,21.5360019 196.688,21.152 C196.992002,20.7679981 197.365331,20.4640011 197.808,20.24 C198.250669,20.0159989 198.770664,19.904 199.368,19.904 C199.944003,19.904 200.445331,20.0133322 200.872,20.232 C201.298669,20.4506678 201.653332,20.7439982 201.936,21.112 C202.218668,21.4800018 202.431999,21.9066642 202.576,22.392 C202.720001,22.8773358 202.792,23.3919973 202.792,23.936 C202.792,24.0533339 202.789333,24.1439997 202.784,24.208 C202.778667,24.2720003 202.776,24.3253331 202.776,24.368 L197.144,24.368 Z M199.352,20.912 C198.679997,20.912 198.160002,21.1519976 197.792,21.632 C197.423998,22.1120024 197.213334,22.7573293 197.16,23.568 L201.432,23.568 C201.432,23.2373317 201.394667,22.9146682 201.32,22.6 C201.245333,22.2853318 201.122668,22.0026679 200.952,21.752 C200.781332,21.5013321 200.565335,21.2986674 200.304,21.144 C200.042665,20.9893326 199.725335,20.912 199.352,20.912 Z" id="H5-Regular-16-" fill="#000000"></path>
                <path d="M118,44 L218.5,44" id="Active-line" stroke="#0D78AA" stroke-width="3" stroke-linecap="square"></path>
            </g>
        </g>
    </g>
</svg>