<?xml version="1.0" encoding="UTF-8"?>
<svg width="377px" height="46px" viewBox="0 0 377 46" version="1.1" xmlns="http://www.w3.org/2000/svg" xmlns:xlink="http://www.w3.org/1999/xlink">
    <!-- Generator: Sketch 47 (45396) - http://www.bohemiancoding.com/sketch -->
    <title>ShortLabels</title>
    <desc>Created with Sketch.</desc>
    <defs>
        <rect id="path-1" x="0" y="0" width="377" height="46"></rect>
    </defs>
    <g id="Page-1" stroke="none" stroke-width="1" fill="none" fill-rule="evenodd">
        <g id="Buttons-Usage-extra-large-1200" transform="translate(-320.000000, -2062.000000)">
            <g id="ShortLabels" transform="translate(320.000000, 2062.000000)">
                <g id="Panel">
                    <use fill="#FFFFFF" fill-rule="evenodd" xlink:href="#path-1"></use>
                    <rect stroke="#D2D6D9" stroke-width="1" x="0.5" y="0.5" width="376" height="45"></rect>
                </g>
                <g id="Group-2" transform="translate(16.000000, 13.000000)">
                    <path d="M34,2 L34,18" id="Line" stroke="#D2D6D9" stroke-linecap="square"></path>
                    <path d="M138,2 L138,18" id="Line-Copy-3" stroke="#D2D6D9" stroke-linecap="square"></path>
                    <path d="M4.416,3.704 L5.744,3.704 L9.728,15 L8.224,15 L7.216,11.96 L2.864,11.96 L1.856,15 L0.4,15 L4.416,3.704 Z M6.832,10.856 C6.53333184,9.92799536 6.2373348,9.01867112 5.944,8.128 C5.6506652,7.23732888 5.35466816,6.30133824 5.056,5.32 C4.77866528,6.2800048 4.48533488,7.21066216 4.176,8.112 C3.86666512,9.01333784 3.55733488,9.92799536 3.248,10.856 L6.832,10.856 Z M11.152,3.704 L12.48,3.704 L12.48,15 L11.152,15 L11.152,3.704 Z M14.528,3.704 L15.856,3.704 L15.856,15 L14.528,15 L14.528,3.704 Z" id="All" fill="#4C5358"></path>
                    <path d="M52.12,3.704 L58.904,3.704 L58.904,4.824 L53.56,4.824 L53.56,8.76 L57.672,8.76 L57.672,9.864 L53.56,9.864 L53.56,15 L52.12,15 L52.12,3.704 Z M64.856,15 C64.7386661,14.6159981 64.6693334,14.157336 64.648,13.624 C64.4346656,14.1146691 64.1066689,14.5066652 63.664,14.8 C63.2213311,15.0933348 62.696003,15.24 62.088,15.24 C61.3199962,15.24 60.7120022,15.0213355 60.264,14.584 C59.8159978,14.1466645 59.592,13.5600037 59.592,12.824 C59.592,12.4079979 59.6666659,12.0586681 59.816,11.776 C59.9653341,11.4933319 60.173332,11.2586676 60.44,11.072 C60.706668,10.8853324 61.0213315,10.7386672 61.384,10.632 C61.7466685,10.5253328 62.1413312,10.4400003 62.568,10.376 L64.584,10.072 L64.584,9.576 C64.584,9.22399824 64.5413338,8.9413344 64.456,8.728 C64.3706662,8.5146656 64.2533341,8.34933392 64.104,8.232 C63.9546659,8.11466608 63.784001,8.03733352 63.592,8 C63.399999,7.96266648 63.1973344,7.944 62.984,7.944 C62.375997,7.944 61.8746686,8.05599888 61.48,8.28 C61.0853314,8.50400112 60.754668,8.78666496 60.488,9.128 L59.8,8.264 C60.1093349,7.8906648 60.5386639,7.570668 61.088,7.304 C61.6373361,7.037332 62.3173293,6.904 63.128,6.904 C64.1093382,6.904 64.8213311,7.12266448 65.264,7.56 C65.7066689,7.99733552 65.928,8.70132848 65.928,9.672 L65.928,12.856 C65.928,13.1120013 65.9306666,13.335999 65.936,13.528 C65.9413334,13.720001 65.9519999,13.8986658 65.968,14.064 C65.9840001,14.2293342 66.0079998,14.3866659 66.04,14.536 C66.0720002,14.6853341 66.1146664,14.8399992 66.168,15 L64.856,15 Z M64.584,10.952 L62.696,11.256 C62.0453301,11.3733339 61.5840014,11.5493322 61.312,11.784 C61.0399986,12.0186678 60.904,12.3439979 60.904,12.76 C60.904,13.1866688 61.0293321,13.5439986 61.28,13.832 C61.5306679,14.1200014 61.9013309,14.264 62.392,14.264 C62.6906682,14.264 62.973332,14.2053339 63.24,14.088 C63.506668,13.9706661 63.7386657,13.808001 63.936,13.6 C64.1333343,13.391999 64.2906661,13.1413348 64.408,12.848 C64.5253339,12.5546652 64.584,12.2320018 64.584,11.88 L64.584,10.952 Z M67.448,7.128 L68.952,7.128 L70.872,13.752 L72.776,7.128 L74.216,7.128 L71.624,15 L70.024,15 L67.448,7.128 Z M78.904,15.24 C78.3066637,15.24 77.7813356,15.1306678 77.328,14.912 C76.8746644,14.6933322 76.4960015,14.3946686 76.192,14.016 C75.8879985,13.6373314 75.6613341,13.1946692 75.512,12.688 C75.3626659,12.1813308 75.288,11.6346696 75.288,11.048 C75.288,10.4613304 75.3653326,9.91733584 75.52,9.416 C75.6746674,8.91466416 75.9039985,8.4773352 76.208,8.104 C76.5120015,7.7306648 76.8906644,7.4373344 77.344,7.224 C77.7973356,7.0106656 78.3173304,6.904 78.904,6.904 C79.4906696,6.904 80.0106644,7.0106656 80.464,7.224 C80.9173356,7.4373344 81.2986651,7.72799816 81.608,8.096 C81.9173349,8.46400184 82.1493326,8.9013308 82.304,9.408 C82.4586674,9.9146692 82.536,10.4613304 82.536,11.048 C82.536,11.6346696 82.4586674,12.1813308 82.304,12.688 C82.1493326,13.1946692 81.9173349,13.6373314 81.608,14.016 C81.2986651,14.3946686 80.9173356,14.6933322 80.464,14.912 C80.0106644,15.1306678 79.4906696,15.24 78.904,15.24 Z M78.936,14.2 C79.2986685,14.2 79.6186653,14.1200008 79.896,13.96 C80.1733347,13.7999992 80.4026658,13.5786681 80.584,13.296 C80.7653342,13.0133319 80.9039995,12.6800019 81,12.296 C81.0960005,11.9119981 81.144,11.4960022 81.144,11.048 C81.144,10.5999978 81.0960005,10.1866686 81,9.808 C80.9039995,9.42933144 80.760001,9.10133472 80.568,8.824 C80.375999,8.54666528 80.1413347,8.33066744 79.864,8.176 C79.5866653,8.02133256 79.2666685,7.944 78.904,7.944 C78.5306648,7.944 78.2053347,8.02133256 77.928,8.176 C77.6506653,8.33066744 77.4213342,8.54666528 77.24,8.824 C77.0586658,9.10133472 76.9200005,9.42933144 76.824,9.808 C76.7279995,10.1866686 76.68,10.5999978 76.68,11.048 C76.68,11.4960022 76.7279995,11.9119981 76.824,12.296 C76.9200005,12.6800019 77.0613324,13.0133319 77.248,13.296 C77.4346676,13.5786681 77.6693319,13.7999992 77.952,13.96 C78.2346681,14.1200008 78.5626648,14.2 78.936,14.2 Z M84.2,7.128 L85.544,7.128 L85.544,11.896 C85.544,12.6426704 85.6826653,13.1893316 85.96,13.536 C86.2373347,13.8826684 86.6266642,14.056 87.128,14.056 C87.7680032,14.056 88.2666649,13.8026692 88.624,13.296 C88.9813351,12.7893308 89.16,12.1146709 89.16,11.272 L89.16,7.128 L90.488,7.128 L90.488,15 L89.24,15 L89.24,13.4 C89.1439995,13.6453346 89.0266674,13.8773322 88.888,14.096 C88.7493326,14.3146678 88.5786677,14.5066658 88.376,14.672 C88.1733323,14.8373342 87.938668,14.9679995 87.672,15.064 C87.405332,15.1600005 87.0906685,15.208 86.728,15.208 C85.8746624,15.208 85.2400021,14.9493359 84.824,14.432 C84.4079979,13.9146641 84.2,13.1813381 84.2,12.232 L84.2,7.128 Z M92.536,7.128 L93.688,7.128 L93.816,8.888 C94.0400011,8.31199712 94.3973309,7.8373352 94.888,7.464 C95.3786691,7.0906648 95.9599966,6.904 96.632,6.904 L96.632,8.312 C96.4826659,8.27999984 96.3173342,8.264 96.136,8.264 C95.869332,8.264 95.602668,8.31199952 95.336,8.408 C95.069332,8.50400048 94.8266678,8.6586656 94.608,8.872 C94.3893322,9.0853344 94.2106674,9.35999832 94.072,9.696 C93.9333326,10.0320017 93.864,10.4399976 93.864,10.92 L93.864,15 L92.536,15 L92.536,7.128 Z M97.944,4.072 L99.272,4.072 L99.272,5.4 L97.944,5.4 L97.944,4.072 Z M97.944,7.128 L99.272,7.128 L99.272,15 L97.944,15 L97.944,7.128 Z M102.008,8.04 L100.664,8.04 L100.664,7.128 L100.952,7.128 C101.282668,7.128 101.541332,7.09333368 101.728,7.024 C101.914668,6.95466632 102.056,6.84800072 102.152,6.704 C102.248,6.55999928 102.317333,6.37066784 102.36,6.136 C102.402667,5.90133216 102.44,5.61333504 102.472,5.272 L102.504,4.984 L103.336,4.984 L103.336,7.128 L105.032,7.128 L105.032,8.04 L103.336,8.04 L103.336,12.936 C103.336,13.3840022 103.402666,13.7066657 103.536,13.904 C103.669334,14.1013343 103.917332,14.2 104.28,14.2 C104.568001,14.2 104.834665,14.1360006 105.08,14.008 L105.224,14.968 C104.818665,15.1493342 104.370669,15.24 103.88,15.24 C103.495998,15.24 103.184001,15.1866672 102.944,15.08 C102.703999,14.9733328 102.514667,14.8293342 102.376,14.648 C102.237333,14.4666658 102.141334,14.2480013 102.088,13.992 C102.034666,13.7359987 102.008,13.4586682 102.008,13.16 L102.008,8.04 Z M107.64,11.368 C107.693334,12.2746712 107.925331,12.9759975 108.336,13.472 C108.746669,13.9680025 109.319996,14.216 110.056,14.216 C110.984005,14.216 111.682664,13.778671 112.152,12.904 L113.16,13.464 C112.850665,13.9866693 112.440003,14.4133317 111.928,14.744 C111.415997,15.0746683 110.770671,15.24 109.992,15.24 C109.37333,15.24 108.832002,15.1333344 108.368,14.92 C107.903998,14.7066656 107.517335,14.4133352 107.208,14.04 C106.898665,13.6666648 106.666667,13.2293358 106.512,12.728 C106.357333,12.2266642 106.28,11.6880029 106.28,11.112 C106.28,10.5466638 106.354666,10.0080026 106.504,9.496 C106.653334,8.98399744 106.879998,8.53600192 107.184,8.152 C107.488002,7.76799808 107.861331,7.46400112 108.304,7.24 C108.746669,7.01599888 109.266664,6.904 109.864,6.904 C110.440003,6.904 110.941331,7.01333224 111.368,7.232 C111.794669,7.45066776 112.149332,7.74399816 112.432,8.112 C112.714668,8.48000184 112.927999,8.90666424 113.072,9.392 C113.216001,9.87733576 113.288,10.3919973 113.288,10.936 C113.288,11.0533339 113.285333,11.1439997 113.28,11.208 C113.274667,11.2720003 113.272,11.3253331 113.272,11.368 L107.64,11.368 Z M109.848,7.912 C109.175997,7.912 108.656002,8.1519976 108.288,8.632 C107.919998,9.1120024 107.709334,9.75732928 107.656,10.568 L111.928,10.568 C111.928,10.2373317 111.890667,9.91466824 111.816,9.6 C111.741333,9.28533176 111.618668,9.00266792 111.448,8.752 C111.277332,8.50133208 111.061335,8.29866744 110.8,8.144 C110.538665,7.98933256 110.221335,7.912 109.848,7.912 Z M115.048,13.064 C115.314668,13.405335 115.658665,13.6879989 116.08,13.912 C116.501335,14.1360011 116.962664,14.248 117.464,14.248 C117.912002,14.248 118.301332,14.1413344 118.632,13.928 C118.962668,13.7146656 119.128,13.3946688 119.128,12.968 C119.128,12.6373317 119.018668,12.3786676 118.8,12.192 C118.581332,12.0053324 118.309335,11.8480006 117.984,11.72 C117.658665,11.5919994 117.304002,11.4746672 116.92,11.368 C116.535998,11.2613328 116.181335,11.1226675 115.856,10.952 C115.530665,10.7813325 115.258668,10.5573347 115.04,10.28 C114.821332,10.0026653 114.712,9.6240024 114.712,9.144 C114.712,8.74933136 114.791999,8.41066808 114.952,8.128 C115.112001,7.84533192 115.322665,7.61333424 115.584,7.432 C115.845335,7.25066576 116.146665,7.11733376 116.488,7.032 C116.829335,6.94666624 117.186665,6.904 117.56,6.904 C118.669339,6.904 119.591996,7.2239968 120.328,7.864 L119.656,8.76 C119.421332,8.51466544 119.109335,8.30933416 118.72,8.144 C118.330665,7.97866584 117.928002,7.896 117.512,7.896 C117.330666,7.896 117.152001,7.91733312 116.976,7.96 C116.799999,8.00266688 116.645334,8.06933288 116.512,8.16 C116.378666,8.25066712 116.272,8.36533264 116.192,8.504 C116.112,8.64266736 116.072,8.81333232 116.072,9.016 C116.072,9.32533488 116.181332,9.56533248 116.4,9.736 C116.618668,9.90666752 116.890665,10.0533327 117.216,10.176 C117.541335,10.2986673 117.893331,10.4159994 118.272,10.528 C118.650669,10.6400006 119.002665,10.7839991 119.328,10.96 C119.653335,11.1360009 119.925332,11.3679986 120.144,11.656 C120.362668,11.9440014 120.472,12.3279976 120.472,12.808 C120.472,13.2133354 120.389334,13.5679985 120.224,13.872 C120.058666,14.1760015 119.840001,14.4293323 119.568,14.632 C119.295999,14.8346677 118.981335,14.9866662 118.624,15.088 C118.266665,15.1893338 117.896002,15.24 117.512,15.24 C116.189327,15.24 115.138671,14.8133376 114.36,13.96 L115.048,13.064 Z" id="H5-Regular-16-" fill="#000000"></path>
                    <path d="M156.12,3.704 L159.8,3.704 C160.38667,3.704 160.925331,3.76533272 161.416,3.888 C161.906669,4.01066728 162.327998,4.20266536 162.68,4.464 C163.032002,4.72533464 163.306666,5.05866464 163.504,5.464 C163.701334,5.86933536 163.8,6.34933056 163.8,6.904 C163.8,7.37333568 163.720001,7.7813316 163.56,8.128 C163.399999,8.4746684 163.184001,8.7679988 162.912,9.008 C162.639999,9.2480012 162.328002,9.434666 161.976,9.568 C161.623998,9.701334 161.250669,9.78399984 160.856,9.816 C161.133335,9.89066704 161.381332,10.0213324 161.6,10.208 C161.818668,10.3946676 162.034666,10.6693315 162.248,11.032 L164.488,15 L162.792,15 L161.016,11.688 C160.770665,11.229331 160.498668,10.8746679 160.2,10.624 C159.901332,10.3733321 159.485336,10.248 158.952,10.248 L157.56,10.248 L157.56,15 L156.12,15 L156.12,3.704 Z M159.832,9.096 C160.568004,9.096 161.157331,8.92533504 161.6,8.584 C162.042669,8.24266496 162.264,7.69333712 162.264,6.936 C162.264,6.2426632 162.042669,5.71733512 161.6,5.36 C161.157331,5.00266488 160.557337,4.824 159.8,4.824 L157.56,4.824 L157.56,9.096 L159.832,9.096 Z M166.472,11.368 C166.525334,12.2746712 166.757331,12.9759975 167.168,13.472 C167.578669,13.9680025 168.151996,14.216 168.888,14.216 C169.816005,14.216 170.514664,13.778671 170.984,12.904 L171.992,13.464 C171.682665,13.9866693 171.272003,14.4133317 170.76,14.744 C170.247997,15.0746683 169.602671,15.24 168.824,15.24 C168.20533,15.24 167.664002,15.1333344 167.2,14.92 C166.735998,14.7066656 166.349335,14.4133352 166.04,14.04 C165.730665,13.6666648 165.498667,13.2293358 165.344,12.728 C165.189333,12.2266642 165.112,11.6880029 165.112,11.112 C165.112,10.5466638 165.186666,10.0080026 165.336,9.496 C165.485334,8.98399744 165.711998,8.53600192 166.016,8.152 C166.320002,7.76799808 166.693331,7.46400112 167.136,7.24 C167.578669,7.01599888 168.098664,6.904 168.696,6.904 C169.272003,6.904 169.773331,7.01333224 170.2,7.232 C170.626669,7.45066776 170.981332,7.74399816 171.264,8.112 C171.546668,8.48000184 171.759999,8.90666424 171.904,9.392 C172.048001,9.87733576 172.12,10.3919973 172.12,10.936 C172.12,11.0533339 172.117333,11.1439997 172.112,11.208 C172.106667,11.2720003 172.104,11.3253331 172.104,11.368 L166.472,11.368 Z M168.68,7.912 C168.007997,7.912 167.488002,8.1519976 167.12,8.632 C166.751998,9.1120024 166.541334,9.75732928 166.488,10.568 L170.76,10.568 C170.76,10.2373317 170.722667,9.91466824 170.648,9.6 C170.573333,9.28533176 170.450668,9.00266792 170.28,8.752 C170.109332,8.50133208 169.893335,8.29866744 169.632,8.144 C169.370665,7.98933256 169.053335,7.912 168.68,7.912 Z M180.312,13.272 C179.991998,13.9120032 179.562669,14.3999983 179.024,14.736 C178.485331,15.0720017 177.832004,15.24 177.064,15.24 C176.434664,15.24 175.888002,15.1306678 175.424,14.912 C174.959998,14.6933322 174.576002,14.3973352 174.272,14.024 C173.967998,13.6506648 173.744001,13.2106692 173.6,12.704 C173.455999,12.1973308 173.384,11.6560029 173.384,11.08 C173.384,10.4933304 173.461333,9.9466692 173.616,9.44 C173.770667,8.9333308 173.999998,8.4933352 174.304,8.12 C174.608002,7.7466648 174.989331,7.45066776 175.448,7.232 C175.906669,7.01333224 176.44533,6.904 177.064,6.904 C177.842671,6.904 178.490664,7.0773316 179.008,7.424 C179.525336,7.7706684 179.943998,8.25866352 180.264,8.888 L179.144,9.416 C178.738665,8.43466176 178.056005,7.944 177.096,7.944 C176.690665,7.944 176.341335,8.0239992 176.048,8.184 C175.754665,8.3440008 175.514668,8.56266528 175.328,8.84 C175.141332,9.11733472 175.002667,9.43999816 174.912,9.808 C174.821333,10.1760018 174.776,10.5733312 174.776,11 C174.776,11.4053354 174.818666,11.7999981 174.904,12.184 C174.989334,12.5680019 175.127999,12.9093318 175.32,13.208 C175.512001,13.5066682 175.757332,13.7466658 176.056,13.928 C176.354668,14.1093342 176.722664,14.2 177.16,14.2 C177.714669,14.2 178.162665,14.0586681 178.504,13.776 C178.845335,13.4933319 179.106666,13.1280022 179.288,12.68 L180.312,13.272 Z M182.792,11.368 C182.845334,12.2746712 183.077331,12.9759975 183.488,13.472 C183.898669,13.9680025 184.471996,14.216 185.208,14.216 C186.136005,14.216 186.834664,13.778671 187.304,12.904 L188.312,13.464 C188.002665,13.9866693 187.592003,14.4133317 187.08,14.744 C186.567997,15.0746683 185.922671,15.24 185.144,15.24 C184.52533,15.24 183.984002,15.1333344 183.52,14.92 C183.055998,14.7066656 182.669335,14.4133352 182.36,14.04 C182.050665,13.6666648 181.818667,13.2293358 181.664,12.728 C181.509333,12.2266642 181.432,11.6880029 181.432,11.112 C181.432,10.5466638 181.506666,10.0080026 181.656,9.496 C181.805334,8.98399744 182.031998,8.53600192 182.336,8.152 C182.640002,7.76799808 183.013331,7.46400112 183.456,7.24 C183.898669,7.01599888 184.418664,6.904 185.016,6.904 C185.592003,6.904 186.093331,7.01333224 186.52,7.232 C186.946669,7.45066776 187.301332,7.74399816 187.584,8.112 C187.866668,8.48000184 188.079999,8.90666424 188.224,9.392 C188.368001,9.87733576 188.44,10.3919973 188.44,10.936 C188.44,11.0533339 188.437333,11.1439997 188.432,11.208 C188.426667,11.2720003 188.424,11.3253331 188.424,11.368 L182.792,11.368 Z M185,7.912 C184.327997,7.912 183.808002,8.1519976 183.44,8.632 C183.071998,9.1120024 182.861334,9.75732928 182.808,10.568 L187.08,10.568 C187.08,10.2373317 187.042667,9.91466824 186.968,9.6 C186.893333,9.28533176 186.770668,9.00266792 186.6,8.752 C186.429332,8.50133208 186.213335,8.29866744 185.952,8.144 C185.690665,7.98933256 185.373335,7.912 185,7.912 Z M190.056,7.128 L191.208,7.128 L191.352,8.696 C191.554668,8.2159976 191.877331,7.79733512 192.32,7.44 C192.762669,7.08266488 193.30933,6.904 193.96,6.904 C194.781337,6.904 195.386665,7.16533072 195.776,7.688 C196.165335,8.21066928 196.36,8.94132864 196.36,9.88 L196.36,15 L195.032,15 L195.032,10.152 C195.032,9.43732976 194.888001,8.91200168 194.6,8.576 C194.311999,8.23999832 193.922669,8.072 193.432,8.072 C192.84533,8.072 192.357335,8.3119976 191.968,8.792 C191.578665,9.2720024 191.384,9.94932896 191.384,10.824 L191.384,15 L190.056,15 L190.056,7.128 Z M199.064,8.04 L197.72,8.04 L197.72,7.128 L198.008,7.128 C198.338668,7.128 198.597332,7.09333368 198.784,7.024 C198.970668,6.95466632 199.112,6.84800072 199.208,6.704 C199.304,6.55999928 199.373333,6.37066784 199.416,6.136 C199.458667,5.90133216 199.496,5.61333504 199.528,5.272 L199.56,4.984 L200.392,4.984 L200.392,7.128 L202.088,7.128 L202.088,8.04 L200.392,8.04 L200.392,12.936 C200.392,13.3840022 200.458666,13.7066657 200.592,13.904 C200.725334,14.1013343 200.973332,14.2 201.336,14.2 C201.624001,14.2 201.890665,14.1360006 202.136,14.008 L202.28,14.968 C201.874665,15.1493342 201.426669,15.24 200.936,15.24 C200.551998,15.24 200.240001,15.1866672 200,15.08 C199.759999,14.9733328 199.570667,14.8293342 199.432,14.648 C199.293333,14.4666658 199.197334,14.2480013 199.144,13.992 C199.090666,13.7359987 199.064,13.4586682 199.064,13.16 L199.064,8.04 Z" id="H5-Regular-16--Copy-3" fill="#4C5358"></path>
                    <path d="M35.5,31 L136.5,31" id="Active-line" stroke="#0D78AA" stroke-width="3" stroke-linecap="square"></path>
                </g>
            </g>
        </g>
    </g>
</svg>