<?xml version="1.0" encoding="UTF-8"?>
<svg width="377px" height="148px" viewBox="0 0 377 148" version="1.1" xmlns="http://www.w3.org/2000/svg" xmlns:xlink="http://www.w3.org/1999/xlink">
    <!-- Generator: Sketch 47 (45396) - http://www.bohemiancoding.com/sketch -->
    <title>AllowNavigation</title>
    <desc>Created with Sketch.</desc>
    <defs>
        <rect id="path-1" x="0" y="0" width="377" height="148"></rect>
        <circle id="path-2" cx="33" cy="33" r="33"></circle>
    </defs>
    <g id="Page-1" stroke="none" stroke-width="1" fill="none" fill-rule="evenodd">
        <g id="Buttons-Usage-extra-large-1200" transform="translate(-324.000000, -1686.000000)">
            <g id="AllowNavigation" transform="translate(324.000000, 1686.000000)">
                <g id="Panel">
                    <use fill="#FFFFFF" fill-rule="evenodd" xlink:href="#path-1"></use>
                    <rect stroke="#D2D6D9" stroke-width="1" x="0.5" y="0.5" width="376" height="147"></rect>
                </g>
                <path d="M127,14 L127,30" id="Line" stroke="#D2D6D9" stroke-linecap="square"></path>
                <path d="M16,15.704 L17.44,15.704 L17.44,25.88 L22.832,25.88 L22.832,27 L16,27 L16,15.704 Z M24.928,23.368 C24.9813336,24.2746712 25.2133313,24.9759975 25.624,25.472 C26.0346687,25.9680025 26.6079963,26.216 27.344,26.216 C28.2720046,26.216 28.9706643,25.778671 29.44,24.904 L30.448,25.464 C30.1386651,25.9866693 29.7280026,26.4133317 29.216,26.744 C28.7039974,27.0746683 28.0586706,27.24 27.28,27.24 C26.6613302,27.24 26.1200023,27.1333344 25.656,26.92 C25.1919977,26.7066656 24.8053349,26.4133352 24.496,26.04 C24.1866651,25.6666648 23.9546674,25.2293358 23.8,24.728 C23.6453326,24.2266642 23.568,23.6880029 23.568,23.112 C23.568,22.5466638 23.6426659,22.0080026 23.792,21.496 C23.9413341,20.9839974 24.1679985,20.5360019 24.472,20.152 C24.7760015,19.7679981 25.1493311,19.4640011 25.592,19.24 C26.0346689,19.0159989 26.5546637,18.904 27.152,18.904 C27.7280029,18.904 28.2293312,19.0133322 28.656,19.232 C29.0826688,19.4506678 29.4373319,19.7439982 29.72,20.112 C30.0026681,20.4800018 30.2159993,20.9066642 30.36,21.392 C30.5040007,21.8773358 30.576,22.3919973 30.576,22.936 C30.576,23.0533339 30.5733334,23.1439997 30.568,23.208 C30.5626666,23.2720003 30.56,23.3253331 30.56,23.368 L24.928,23.368 Z M27.136,19.912 C26.4639966,19.912 25.9440018,20.1519976 25.576,20.632 C25.2079982,21.1120024 24.9973336,21.7573293 24.944,22.568 L29.216,22.568 C29.216,22.2373317 29.178667,21.9146682 29.104,21.6 C29.029333,21.2853318 28.9066675,21.0026679 28.736,20.752 C28.5653325,20.5013321 28.3493346,20.2986674 28.088,20.144 C27.8266654,19.9893326 27.5093352,19.912 27.136,19.912 Z M32.336,25.064 C32.602668,25.405335 32.9466646,25.6879989 33.368,25.912 C33.7893354,26.1360011 34.2506642,26.248 34.752,26.248 C35.2000022,26.248 35.5893317,26.1413344 35.92,25.928 C36.2506683,25.7146656 36.416,25.3946688 36.416,24.968 C36.416,24.6373317 36.3066678,24.3786676 36.088,24.192 C35.8693322,24.0053324 35.597335,23.8480006 35.272,23.72 C34.946665,23.5919994 34.5920019,23.4746672 34.208,23.368 C33.8239981,23.2613328 33.469335,23.1226675 33.144,22.952 C32.818665,22.7813325 32.5466678,22.5573347 32.328,22.28 C32.1093322,22.0026653 32,21.6240024 32,21.144 C32,20.7493314 32.0799992,20.4106681 32.24,20.128 C32.4000008,19.8453319 32.6106654,19.6133342 32.872,19.432 C33.1333346,19.2506658 33.434665,19.1173338 33.776,19.032 C34.117335,18.9466662 34.4746648,18.904 34.848,18.904 C35.9573389,18.904 36.8799963,19.2239968 37.616,19.864 L36.944,20.76 C36.7093322,20.5146654 36.3973353,20.3093342 36.008,20.144 C35.6186647,19.9786658 35.2160021,19.896 34.8,19.896 C34.6186658,19.896 34.4400009,19.9173331 34.264,19.96 C34.0879991,20.0026669 33.933334,20.0693329 33.8,20.16 C33.666666,20.2506671 33.5600004,20.3653326 33.48,20.504 C33.3999996,20.6426674 33.36,20.8133323 33.36,21.016 C33.36,21.3253349 33.4693322,21.5653325 33.688,21.736 C33.9066678,21.9066675 34.178665,22.0533327 34.504,22.176 C34.829335,22.2986673 35.1813314,22.4159994 35.56,22.528 C35.9386686,22.6400006 36.290665,22.7839991 36.616,22.96 C36.941335,23.1360009 37.2133322,23.3679986 37.432,23.656 C37.6506678,23.9440014 37.76,24.3279976 37.76,24.808 C37.76,25.2133354 37.6773342,25.5679985 37.512,25.872 C37.3466658,26.1760015 37.1280014,26.4293323 36.856,26.632 C36.5839986,26.8346677 36.2693351,26.9866662 35.912,27.088 C35.5546649,27.1893338 35.1840019,27.24 34.8,27.24 C33.4773267,27.24 32.4266706,26.8133376 31.648,25.96 L32.336,25.064 Z M39.456,25.064 C39.722668,25.405335 40.0666646,25.6879989 40.488,25.912 C40.9093354,26.1360011 41.3706642,26.248 41.872,26.248 C42.3200022,26.248 42.7093317,26.1413344 43.04,25.928 C43.3706683,25.7146656 43.536,25.3946688 43.536,24.968 C43.536,24.6373317 43.4266678,24.3786676 43.208,24.192 C42.9893322,24.0053324 42.717335,23.8480006 42.392,23.72 C42.066665,23.5919994 41.7120019,23.4746672 41.328,23.368 C40.9439981,23.2613328 40.589335,23.1226675 40.264,22.952 C39.938665,22.7813325 39.6666678,22.5573347 39.448,22.28 C39.2293322,22.0026653 39.12,21.6240024 39.12,21.144 C39.12,20.7493314 39.1999992,20.4106681 39.36,20.128 C39.5200008,19.8453319 39.7306654,19.6133342 39.992,19.432 C40.2533346,19.2506658 40.554665,19.1173338 40.896,19.032 C41.237335,18.9466662 41.5946648,18.904 41.968,18.904 C43.0773389,18.904 43.9999963,19.2239968 44.736,19.864 L44.064,20.76 C43.8293322,20.5146654 43.5173353,20.3093342 43.128,20.144 C42.7386647,19.9786658 42.3360021,19.896 41.92,19.896 C41.7386658,19.896 41.5600009,19.9173331 41.384,19.96 C41.2079991,20.0026669 41.053334,20.0693329 40.92,20.16 C40.786666,20.2506671 40.6800004,20.3653326 40.6,20.504 C40.5199996,20.6426674 40.48,20.8133323 40.48,21.016 C40.48,21.3253349 40.5893322,21.5653325 40.808,21.736 C41.0266678,21.9066675 41.298665,22.0533327 41.624,22.176 C41.949335,22.2986673 42.3013314,22.4159994 42.68,22.528 C43.0586686,22.6400006 43.410665,22.7839991 43.736,22.96 C44.061335,23.1360009 44.3333322,23.3679986 44.552,23.656 C44.7706678,23.9440014 44.88,24.3279976 44.88,24.808 C44.88,25.2133354 44.7973342,25.5679985 44.632,25.872 C44.4666658,26.1760015 44.2480014,26.4293323 43.976,26.632 C43.7039986,26.8346677 43.3893351,26.9866662 43.032,27.088 C42.6746649,27.1893338 42.3040019,27.24 41.92,27.24 C40.5973267,27.24 39.5466706,26.8133376 38.768,25.96 L39.456,25.064 Z M49.696,27.24 C49.0986637,27.24 48.5733356,27.1306678 48.12,26.912 C47.6666644,26.6933322 47.2880015,26.3946686 46.984,26.016 C46.6799985,25.6373314 46.4533341,25.1946692 46.304,24.688 C46.1546659,24.1813308 46.08,23.6346696 46.08,23.048 C46.08,22.4613304 46.1573326,21.9173358 46.312,21.416 C46.4666674,20.9146642 46.6959985,20.4773352 47,20.104 C47.3040015,19.7306648 47.6826644,19.4373344 48.136,19.224 C48.5893356,19.0106656 49.1093304,18.904 49.696,18.904 C50.2826696,18.904 50.8026644,19.0106656 51.256,19.224 C51.7093356,19.4373344 52.0906651,19.7279982 52.4,20.096 C52.7093349,20.4640018 52.9413326,20.9013308 53.096,21.408 C53.2506674,21.9146692 53.328,22.4613304 53.328,23.048 C53.328,23.6346696 53.2506674,24.1813308 53.096,24.688 C52.9413326,25.1946692 52.7093349,25.6373314 52.4,26.016 C52.0906651,26.3946686 51.7093356,26.6933322 51.256,26.912 C50.8026644,27.1306678 50.2826696,27.24 49.696,27.24 Z M49.728,26.2 C50.0906685,26.2 50.4106653,26.1200008 50.688,25.96 C50.9653347,25.7999992 51.1946658,25.5786681 51.376,25.296 C51.5573342,25.0133319 51.6959995,24.6800019 51.792,24.296 C51.8880005,23.9119981 51.936,23.4960022 51.936,23.048 C51.936,22.5999978 51.8880005,22.1866686 51.792,21.808 C51.6959995,21.4293314 51.552001,21.1013347 51.36,20.824 C51.167999,20.5466653 50.9333347,20.3306674 50.656,20.176 C50.3786653,20.0213326 50.0586685,19.944 49.696,19.944 C49.3226648,19.944 48.9973347,20.0213326 48.72,20.176 C48.4426653,20.3306674 48.2133342,20.5466653 48.032,20.824 C47.8506658,21.1013347 47.7120005,21.4293314 47.616,21.808 C47.5199995,22.1866686 47.472,22.5999978 47.472,23.048 C47.472,23.4960022 47.5199995,23.9119981 47.616,24.296 C47.7120005,24.6800019 47.8533324,25.0133319 48.04,25.296 C48.2266676,25.5786681 48.4613319,25.7999992 48.744,25.96 C49.0266681,26.1200008 49.3546648,26.2 49.728,26.2 Z M55.024,19.128 L56.176,19.128 L56.32,20.696 C56.5226677,20.2159976 56.8453311,19.7973351 57.288,19.44 C57.7306689,19.0826649 58.2773301,18.904 58.928,18.904 C59.7493374,18.904 60.3546647,19.1653307 60.744,19.688 C61.1333353,20.2106693 61.328,20.9413286 61.328,21.88 L61.328,27 L60,27 L60,22.152 C60,21.4373298 59.8560014,20.9120017 59.568,20.576 C59.2799986,20.2399983 58.8906691,20.072 58.4,20.072 C57.8133304,20.072 57.3253353,20.3119976 56.936,20.792 C56.5466647,21.2720024 56.352,21.949329 56.352,22.824 L56.352,27 L55.024,27 L55.024,19.128 Z M72.24,25.464 C72.0266656,25.997336 71.7120021,26.4186651 71.296,26.728 C70.8799979,27.0373349 70.3626698,27.192 69.744,27.192 C69.2533309,27.192 68.8133353,27.0906677 68.424,26.888 C68.0346647,26.6853323 67.7040014,26.4026685 67.432,26.04 C67.1599986,25.6773315 66.9520007,25.2400026 66.808,24.728 C66.6639993,24.2159974 66.592,23.6506698 66.592,23.032 C66.592,22.3919968 66.6666659,21.8186692 66.816,21.312 C66.9653341,20.8053308 67.1786653,20.3760018 67.456,20.024 C67.7333347,19.6719982 68.0666647,19.400001 68.456,19.208 C68.8453353,19.015999 69.2746643,18.92 69.744,18.92 C70.3840032,18.92 70.9066646,19.0719985 71.312,19.376 C71.7173354,19.6800015 72.0053325,20.0453312 72.176,20.472 L72.176,15.704 L73.52,15.704 L73.52,27 L72.24,27 L72.24,25.464 Z M72.176,23.016 C72.176,22.6853317 72.1680001,22.4266676 72.152,22.24 C72.1359999,22.0533324 72.1173334,21.9013339 72.096,21.784 C72.0426664,21.5493322 71.9626672,21.3253344 71.856,21.112 C71.7493328,20.8986656 71.6133342,20.7093342 71.448,20.544 C71.2826658,20.3786658 71.0880011,20.2480005 70.864,20.152 C70.6399989,20.0559995 70.3840014,20.008 70.096,20.008 C69.7333315,20.008 69.4213346,20.0879992 69.16,20.248 C68.8986654,20.4080008 68.6800009,20.6239986 68.504,20.896 C68.3279991,21.1680014 68.1973338,21.4879982 68.112,21.856 C68.0266662,22.2240018 67.984,22.6159979 67.984,23.032 C67.984,23.4800022 68.0319995,23.8933314 68.128,24.272 C68.2240005,24.6506686 68.3626658,24.9759986 68.544,25.248 C68.7253342,25.5200014 68.949332,25.7333326 69.216,25.888 C69.482668,26.0426674 69.786665,26.12 70.128,26.12 C70.394668,26.12 70.6373322,26.0720005 70.856,25.976 C71.0746678,25.8799995 71.2666658,25.7466675 71.432,25.576 C71.5973342,25.4053325 71.7333328,25.2106678 71.84,24.992 C71.9466672,24.7733322 72.0266664,24.5413346 72.08,24.296 C72.1440003,23.9973318 72.176,23.5973358 72.176,23.096 L72.176,23.016 Z M76.56,23.368 C76.6133336,24.2746712 76.8453313,24.9759975 77.256,25.472 C77.6666687,25.9680025 78.2399963,26.216 78.976,26.216 C79.9040046,26.216 80.6026643,25.778671 81.072,24.904 L82.08,25.464 C81.7706651,25.9866693 81.3600026,26.4133317 80.848,26.744 C80.3359974,27.0746683 79.6906706,27.24 78.912,27.24 C78.2933302,27.24 77.7520023,27.1333344 77.288,26.92 C76.8239977,26.7066656 76.4373349,26.4133352 76.128,26.04 C75.8186651,25.6666648 75.5866674,25.2293358 75.432,24.728 C75.2773326,24.2266642 75.2,23.6880029 75.2,23.112 C75.2,22.5466638 75.2746659,22.0080026 75.424,21.496 C75.5733341,20.9839974 75.7999985,20.5360019 76.104,20.152 C76.4080015,19.7679981 76.7813311,19.4640011 77.224,19.24 C77.6666689,19.0159989 78.1866637,18.904 78.784,18.904 C79.3600029,18.904 79.8613312,19.0133322 80.288,19.232 C80.7146688,19.4506678 81.0693319,19.7439982 81.352,20.112 C81.6346681,20.4800018 81.8479993,20.9066642 81.992,21.392 C82.1360007,21.8773358 82.208,22.3919973 82.208,22.936 C82.208,23.0533339 82.2053334,23.1439997 82.2,23.208 C82.1946666,23.2720003 82.192,23.3253331 82.192,23.368 L76.56,23.368 Z M78.768,19.912 C78.0959966,19.912 77.5760018,20.1519976 77.208,20.632 C76.8399982,21.1120024 76.6293336,21.7573293 76.576,22.568 L80.848,22.568 C80.848,22.2373317 80.810667,21.9146682 80.736,21.6 C80.661333,21.2853318 80.5386675,21.0026679 80.368,20.752 C80.1973325,20.5013321 79.9813346,20.2986674 79.72,20.144 C79.4586654,19.9893326 79.1413352,19.912 78.768,19.912 Z M84.512,20.04 L83.168,20.04 L83.168,19.128 L83.456,19.128 C83.7866683,19.128 84.0453324,19.0933337 84.232,19.024 C84.4186676,18.9546663 84.5599995,18.8480007 84.656,18.704 C84.7520005,18.5599993 84.8213331,18.3706678 84.864,18.136 C84.9066669,17.9013322 84.9439998,17.613335 84.976,17.272 L85.008,16.984 L85.84,16.984 L85.84,19.128 L87.536,19.128 L87.536,20.04 L85.84,20.04 L85.84,24.936 C85.84,25.3840022 85.906666,25.7066657 86.04,25.904 C86.173334,26.1013343 86.4213315,26.2 86.784,26.2 C87.0720014,26.2 87.3386654,26.1360006 87.584,26.008 L87.728,26.968 C87.3226646,27.1493342 86.8746691,27.24 86.384,27.24 C85.9999981,27.24 85.6880012,27.1866672 85.448,27.08 C85.2079988,26.9733328 85.0186674,26.8293342 84.88,26.648 C84.7413326,26.4666658 84.6453336,26.2480013 84.592,25.992 C84.5386664,25.7359987 84.512,25.4586682 84.512,25.16 L84.512,20.04 Z M94.08,27 C93.9626661,26.6159981 93.8933334,26.157336 93.872,25.624 C93.6586656,26.1146691 93.3306689,26.5066652 92.888,26.8 C92.4453311,27.0933348 91.920003,27.24 91.312,27.24 C90.5439962,27.24 89.9360022,27.0213355 89.488,26.584 C89.0399978,26.1466645 88.816,25.5600037 88.816,24.824 C88.816,24.4079979 88.8906659,24.0586681 89.04,23.776 C89.1893341,23.4933319 89.397332,23.2586676 89.664,23.072 C89.930668,22.8853324 90.2453315,22.7386672 90.608,22.632 C90.9706685,22.5253328 91.3653312,22.4400003 91.792,22.376 L93.808,22.072 L93.808,21.576 C93.808,21.2239982 93.7653338,20.9413344 93.68,20.728 C93.5946662,20.5146656 93.4773341,20.3493339 93.328,20.232 C93.1786659,20.1146661 93.008001,20.0373335 92.816,20 C92.623999,19.9626665 92.4213344,19.944 92.208,19.944 C91.599997,19.944 91.0986686,20.0559989 90.704,20.28 C90.3093314,20.5040011 89.978668,20.786665 89.712,21.128 L89.024,20.264 C89.3333349,19.8906648 89.7626639,19.570668 90.312,19.304 C90.8613361,19.037332 91.5413293,18.904 92.352,18.904 C93.3333382,18.904 94.0453311,19.1226645 94.488,19.56 C94.9306689,19.9973355 95.152,20.7013285 95.152,21.672 L95.152,24.856 C95.152,25.1120013 95.1546666,25.335999 95.16,25.528 C95.1653334,25.720001 95.1759999,25.8986658 95.192,26.064 C95.2080001,26.2293342 95.2319998,26.3866659 95.264,26.536 C95.2960002,26.6853341 95.3386664,26.8399992 95.392,27 L94.08,27 Z M93.808,22.952 L91.92,23.256 C91.2693301,23.3733339 90.8080014,23.5493322 90.536,23.784 C90.2639986,24.0186678 90.128,24.3439979 90.128,24.76 C90.128,25.1866688 90.2533321,25.5439986 90.504,25.832 C90.7546679,26.1200014 91.1253309,26.264 91.616,26.264 C91.9146682,26.264 92.197332,26.2053339 92.464,26.088 C92.730668,25.9706661 92.9626657,25.808001 93.16,25.6 C93.3573343,25.391999 93.5146661,25.1413348 93.632,24.848 C93.7493339,24.5546652 93.808,24.2320018 93.808,23.88 L93.808,22.952 Z M97.28,16.072 L98.608,16.072 L98.608,17.4 L97.28,17.4 L97.28,16.072 Z M97.28,19.128 L98.608,19.128 L98.608,27 L97.28,27 L97.28,19.128 Z M100.656,15.704 L101.984,15.704 L101.984,27 L100.656,27 L100.656,15.704 Z M104.176,25.064 C104.442668,25.405335 104.786665,25.6879989 105.208,25.912 C105.629335,26.1360011 106.090664,26.248 106.592,26.248 C107.040002,26.248 107.429332,26.1413344 107.76,25.928 C108.090668,25.7146656 108.256,25.3946688 108.256,24.968 C108.256,24.6373317 108.146668,24.3786676 107.928,24.192 C107.709332,24.0053324 107.437335,23.8480006 107.112,23.72 C106.786665,23.5919994 106.432002,23.4746672 106.048,23.368 C105.663998,23.2613328 105.309335,23.1226675 104.984,22.952 C104.658665,22.7813325 104.386668,22.5573347 104.168,22.28 C103.949332,22.0026653 103.84,21.6240024 103.84,21.144 C103.84,20.7493314 103.919999,20.4106681 104.08,20.128 C104.240001,19.8453319 104.450665,19.6133342 104.712,19.432 C104.973335,19.2506658 105.274665,19.1173338 105.616,19.032 C105.957335,18.9466662 106.314665,18.904 106.688,18.904 C107.797339,18.904 108.719996,19.2239968 109.456,19.864 L108.784,20.76 C108.549332,20.5146654 108.237335,20.3093342 107.848,20.144 C107.458665,19.9786658 107.056002,19.896 106.64,19.896 C106.458666,19.896 106.280001,19.9173331 106.104,19.96 C105.927999,20.0026669 105.773334,20.0693329 105.64,20.16 C105.506666,20.2506671 105.4,20.3653326 105.32,20.504 C105.24,20.6426674 105.2,20.8133323 105.2,21.016 C105.2,21.3253349 105.309332,21.5653325 105.528,21.736 C105.746668,21.9066675 106.018665,22.0533327 106.344,22.176 C106.669335,22.2986673 107.021331,22.4159994 107.4,22.528 C107.778669,22.6400006 108.130665,22.7839991 108.456,22.96 C108.781335,23.1360009 109.053332,23.3679986 109.272,23.656 C109.490668,23.9440014 109.6,24.3279976 109.6,24.808 C109.6,25.2133354 109.517334,25.5679985 109.352,25.872 C109.186666,26.1760015 108.968001,26.4293323 108.696,26.632 C108.423999,26.8346677 108.109335,26.9866662 107.752,27.088 C107.394665,27.1893338 107.024002,27.24 106.64,27.24 C105.317327,27.24 104.266671,26.8133376 103.488,25.96 L104.176,25.064 Z" id="Lesson-details" fill="#4C5358"></path>
                <path d="M147.344,17.12 L144,17.12 L144,16 L152.112,16 L152.112,17.12 L148.784,17.12 L148.784,27.296 L147.344,27.296 L147.344,17.12 Z M153.536,23.664 C153.589334,24.5706712 153.821331,25.2719975 154.232,25.768 C154.642669,26.2640025 155.215996,26.512 155.952,26.512 C156.880005,26.512 157.578664,26.074671 158.048,25.2 L159.056,25.76 C158.746665,26.2826693 158.336003,26.7093317 157.824,27.04 C157.311997,27.3706683 156.666671,27.536 155.888,27.536 C155.26933,27.536 154.728002,27.4293344 154.264,27.216 C153.799998,27.0026656 153.413335,26.7093352 153.104,26.336 C152.794665,25.9626648 152.562667,25.5253358 152.408,25.024 C152.253333,24.5226642 152.176,23.9840029 152.176,23.408 C152.176,22.8426638 152.250666,22.3040026 152.4,21.792 C152.549334,21.2799974 152.775998,20.8320019 153.08,20.448 C153.384002,20.0639981 153.757331,19.7600011 154.2,19.536 C154.642669,19.3119989 155.162664,19.2 155.76,19.2 C156.336003,19.2 156.837331,19.3093322 157.264,19.528 C157.690669,19.7466678 158.045332,20.0399982 158.328,20.408 C158.610668,20.7760018 158.823999,21.2026642 158.968,21.688 C159.112001,22.1733358 159.184,22.6879973 159.184,23.232 C159.184,23.3493339 159.181333,23.4399997 159.176,23.504 C159.170667,23.5680003 159.168,23.6213331 159.168,23.664 L153.536,23.664 Z M155.744,20.208 C155.071997,20.208 154.552002,20.4479976 154.184,20.928 C153.815998,21.4080024 153.605334,22.0533293 153.552,22.864 L157.824,22.864 C157.824,22.5333317 157.786667,22.2106682 157.712,21.896 C157.637333,21.5813318 157.514668,21.2986679 157.344,21.048 C157.173332,20.7973321 156.957335,20.5946674 156.696,20.44 C156.434665,20.2853326 156.117335,20.208 155.744,20.208 Z M165.744,27.296 C165.626666,26.9119981 165.557333,26.453336 165.536,25.92 C165.322666,26.4106691 164.994669,26.8026652 164.552,27.096 C164.109331,27.3893348 163.584003,27.536 162.976,27.536 C162.207996,27.536 161.600002,27.3173355 161.152,26.88 C160.703998,26.4426645 160.48,25.8560037 160.48,25.12 C160.48,24.7039979 160.554666,24.3546681 160.704,24.072 C160.853334,23.7893319 161.061332,23.5546676 161.328,23.368 C161.594668,23.1813324 161.909332,23.0346672 162.272,22.928 C162.634668,22.8213328 163.029331,22.7360003 163.456,22.672 L165.472,22.368 L165.472,21.872 C165.472,21.5199982 165.429334,21.2373344 165.344,21.024 C165.258666,20.8106656 165.141334,20.6453339 164.992,20.528 C164.842666,20.4106661 164.672001,20.3333335 164.48,20.296 C164.287999,20.2586665 164.085334,20.24 163.872,20.24 C163.263997,20.24 162.762669,20.3519989 162.368,20.576 C161.973331,20.8000011 161.642668,21.082665 161.376,21.424 L160.688,20.56 C160.997335,20.1866648 161.426664,19.866668 161.976,19.6 C162.525336,19.333332 163.205329,19.2 164.016,19.2 C164.997338,19.2 165.709331,19.4186645 166.152,19.856 C166.594669,20.2933355 166.816,20.9973285 166.816,21.968 L166.816,25.152 C166.816,25.4080013 166.818667,25.631999 166.824,25.824 C166.829333,26.016001 166.84,26.1946658 166.856,26.36 C166.872,26.5253342 166.896,26.6826659 166.928,26.832 C166.96,26.9813341 167.002666,27.1359992 167.056,27.296 L165.744,27.296 Z M165.472,23.248 L163.584,23.552 C162.93333,23.6693339 162.472001,23.8453322 162.2,24.08 C161.927999,24.3146678 161.792,24.6399979 161.792,25.056 C161.792,25.4826688 161.917332,25.8399986 162.168,26.128 C162.418668,26.4160014 162.789331,26.56 163.28,26.56 C163.578668,26.56 163.861332,26.5013339 164.128,26.384 C164.394668,26.2666661 164.626666,26.104001 164.824,25.896 C165.021334,25.687999 165.178666,25.4373348 165.296,25.144 C165.413334,24.8506652 165.472,24.5280018 165.472,24.176 L165.472,23.248 Z M175.52,25.568 C175.199998,26.2080032 174.770669,26.6959983 174.232,27.032 C173.693331,27.3680017 173.040004,27.536 172.272,27.536 C171.642664,27.536 171.096002,27.4266678 170.632,27.208 C170.167998,26.9893322 169.784002,26.6933352 169.48,26.32 C169.175998,25.9466648 168.952001,25.5066692 168.808,25 C168.663999,24.4933308 168.592,23.9520029 168.592,23.376 C168.592,22.7893304 168.669333,22.2426692 168.824,21.736 C168.978667,21.2293308 169.207998,20.7893352 169.512,20.416 C169.816002,20.0426648 170.197331,19.7466678 170.656,19.528 C171.114669,19.3093322 171.65333,19.2 172.272,19.2 C173.050671,19.2 173.698664,19.3733316 174.216,19.72 C174.733336,20.0666684 175.151998,20.5546635 175.472,21.184 L174.352,21.712 C173.946665,20.7306618 173.264005,20.24 172.304,20.24 C171.898665,20.24 171.549335,20.3199992 171.256,20.48 C170.962665,20.6400008 170.722668,20.8586653 170.536,21.136 C170.349332,21.4133347 170.210667,21.7359982 170.12,22.104 C170.029333,22.4720018 169.984,22.8693312 169.984,23.296 C169.984,23.7013354 170.026666,24.0959981 170.112,24.48 C170.197334,24.8640019 170.335999,25.2053318 170.528,25.504 C170.720001,25.8026682 170.965332,26.0426658 171.264,26.224 C171.562668,26.4053342 171.930664,26.496 172.368,26.496 C172.922669,26.496 173.370665,26.3546681 173.712,26.072 C174.053335,25.7893319 174.314666,25.4240022 174.496,24.976 L175.52,25.568 Z M176.992,16 L178.32,16 L178.32,20.976 C178.416,20.7413322 178.538666,20.5173344 178.688,20.304 C178.837334,20.0906656 179.018666,19.9013342 179.232,19.736 C179.445334,19.5706658 179.690665,19.4400005 179.968,19.344 C180.245335,19.2479995 180.554665,19.2 180.896,19.2 C181.717337,19.2 182.322665,19.4693306 182.712,20.008 C183.101335,20.5466694 183.296,21.2746621 183.296,22.192 L183.296,27.296 L181.968,27.296 L181.968,22.4 C181.968,21.7279966 181.829335,21.2240017 181.552,20.888 C181.274665,20.5519983 180.880003,20.384 180.368,20.384 C180.069332,20.384 179.794668,20.4479994 179.544,20.576 C179.293332,20.7040006 179.077334,20.8853322 178.896,21.12 C178.714666,21.3546678 178.573334,21.6373317 178.472,21.968 C178.370666,22.2986683 178.32,22.6613314 178.32,23.056 L178.32,27.296 L176.992,27.296 L176.992,16 Z M186.32,23.664 C186.373334,24.5706712 186.605331,25.2719975 187.016,25.768 C187.426669,26.2640025 187.999996,26.512 188.736,26.512 C189.664005,26.512 190.362664,26.074671 190.832,25.2 L191.84,25.76 C191.530665,26.2826693 191.120003,26.7093317 190.608,27.04 C190.095997,27.3706683 189.450671,27.536 188.672,27.536 C188.05333,27.536 187.512002,27.4293344 187.048,27.216 C186.583998,27.0026656 186.197335,26.7093352 185.888,26.336 C185.578665,25.9626648 185.346667,25.5253358 185.192,25.024 C185.037333,24.5226642 184.96,23.9840029 184.96,23.408 C184.96,22.8426638 185.034666,22.3040026 185.184,21.792 C185.333334,21.2799974 185.559998,20.8320019 185.864,20.448 C186.168002,20.0639981 186.541331,19.7600011 186.984,19.536 C187.426669,19.3119989 187.946664,19.2 188.544,19.2 C189.120003,19.2 189.621331,19.3093322 190.048,19.528 C190.474669,19.7466678 190.829332,20.0399982 191.112,20.408 C191.394668,20.7760018 191.607999,21.2026642 191.752,21.688 C191.896001,22.1733358 191.968,22.6879973 191.968,23.232 C191.968,23.3493339 191.965333,23.4399997 191.96,23.504 C191.954667,23.5680003 191.952,23.6213331 191.952,23.664 L186.32,23.664 Z M188.528,20.208 C187.855997,20.208 187.336002,20.4479976 186.968,20.928 C186.599998,21.4080024 186.389334,22.0533293 186.336,22.864 L190.608,22.864 C190.608,22.5333317 190.570667,22.2106682 190.496,21.896 C190.421333,21.5813318 190.298668,21.2986679 190.128,21.048 C189.957332,20.7973321 189.741335,20.5946674 189.48,20.44 C189.218665,20.2853326 188.901335,20.208 188.528,20.208 Z M193.584,19.424 L194.736,19.424 L194.864,21.184 C195.088001,20.6079971 195.445331,20.1333352 195.936,19.76 C196.426669,19.3866648 197.007997,19.2 197.68,19.2 L197.68,20.608 C197.530666,20.5759998 197.365334,20.56 197.184,20.56 C196.917332,20.56 196.650668,20.6079995 196.384,20.704 C196.117332,20.8000005 195.874668,20.9546656 195.656,21.168 C195.437332,21.3813344 195.258667,21.6559983 195.12,21.992 C194.981333,22.3280017 194.912,22.7359976 194.912,23.216 L194.912,27.296 L193.584,27.296 L193.584,19.424 Z" id="H5-Regular-16-" fill="#000000"></path>
                <path d="M128,40 L213,40" id="Active-line" stroke="#0D78AA" stroke-width="3" stroke-linecap="square"></path>
                <g id="User" transform="translate(18.000000, 59.000000)">
                    <mask id="mask-3" fill="white">
                        <use xlink:href="#path-2"></use>
                    </mask>
                    <use id="Mask" stroke="#D8D8D8" fill-opacity="0.109148551" fill="#D8D8D8" xlink:href="#path-2"></use>
                    <path d="M61.9976933,61.3280641 C61.9976933,64.6246347 60.9950419,67.2274334 58.9897391,69.13646 C56.9844363,71.0454867 54.3209513,72 50.9992841,72 L14.9984092,72 C11.6752042,72 9.01171916,71.0454867 7.00795418,69.13646 C5.0041892,67.2274334 4.00153781,64.6246347 4,61.3280641 C4,59.8728351 4.04844098,58.4514486 4.14532294,57.0639047 C4.2422049,55.6763607 4.43443101,54.1795977 4.72200127,52.5736155 C5.00957153,50.9676334 5.37326334,49.4770235 5.81307668,48.101786 C6.25289002,46.7265484 6.84340863,45.3874608 7.58463252,44.0845232 C8.3258564,42.7815856 9.17703362,41.6693968 10.1381642,40.7479569 C11.0992947,39.8265169 12.2734118,39.0919801 13.6605154,38.5443463 C15.047619,37.9967126 16.5785078,37.7221265 18.2531817,37.7205882 C18.5007689,37.7205882 19.0774472,38.0159413 19.9832167,38.6066473 C20.8889861,39.1973534 21.911629,39.8565137 23.0511454,40.5841282 C24.1906618,41.3117427 25.6738785,41.970903 27.5007954,42.5616091 C29.3277124,43.1523152 31.1607806,43.4476682 33,43.4476682 C34.8392194,43.4476682 36.6722876,43.1523152 38.4992046,42.5616091 C40.3261215,41.970903 41.8093382,41.3117427 42.9488546,40.5841282 C44.088371,39.8565137 45.1110139,39.1973534 46.0167833,38.6066473 C46.9225528,38.0159413 47.4992311,37.7205882 47.7468183,37.7205882 C49.4214922,37.7205882 50.952381,37.9951743 52.3394846,38.5443463 C53.7265882,39.0935184 54.9007053,39.8280552 55.8618358,40.7479569 C56.8229664,41.6678585 57.6741436,42.7800473 58.4153675,44.0845232 C59.1565914,45.3889991 59.74711,46.7280867 60.1869233,48.101786 C60.6267367,49.4754852 60.9904285,50.9660951 61.2779987,52.5736155 C61.565569,54.181136 61.7577951,55.677899 61.8546771,57.0639047 C61.951559,58.4499103 62,59.8712968 62,61.3280641 L61.9976933,61.3280641 Z M48.1904762,24.75 C48.1904762,29.0973093 46.6619922,32.8091366 43.6050242,35.885482 C40.5480562,38.9618273 36.859609,40.5 32.5396825,40.5 C28.2197561,40.5 24.5313089,38.9618273 21.4743409,35.885482 C18.4173729,32.8091366 16.8888889,29.0973093 16.8888889,24.75 C16.8888889,20.4026907 18.4173729,16.6908634 21.4743409,13.614518 C24.5313089,10.5381727 28.2197561,9 32.5396825,9 C36.859609,9 40.5480562,10.5381727 43.6050242,13.614518 C46.6619922,16.6908634 48.1904762,20.4026907 48.1904762,24.75 Z" id="Shape" fill="#D2D6D8" fill-rule="nonzero" mask="url(#mask-3)"></path>
                </g>
                <rect id="Rectangle-2" fill="#AAB1B6" opacity="0.699999988" x="110" y="79" width="148" height="6" rx="3"></rect>
                <rect id="Rectangle-2-Copy" fill="#AAB1B6" opacity="0.699999988" x="110" y="92" width="148" height="6" rx="3"></rect>
                <rect id="Rectangle-2-Copy-2" fill="#AAB1B6" opacity="0.699999988" x="109" y="104" width="60" height="6" rx="3"></rect>
                <path d="M342.000563,88.828122 L342.000563,99.0188906 C342.000563,99.5838066 341.79956,100.067267 341.397554,100.469273 C340.995549,100.871279 340.512088,101.072281 339.947172,101.072281 L321.054828,101.072281 C320.489912,101.072281 320.006451,100.871279 319.604446,100.469273 C319.20244,100.067267 319.001437,99.5838066 319.001437,99.0188906 L319.001437,88.828122 C319.378048,89.2473769 319.81024,89.6196753 320.298013,89.9450171 C323.395229,92.0499162 325.52145,93.5259329 326.676677,94.3730674 C327.16445,94.7324287 327.560226,95.0127305 327.864007,95.2139729 C328.167787,95.4152152 328.572188,95.6205303 329.07721,95.8299182 C329.582233,96.0393061 330.052757,96.1442396 330.488782,96.1447187 L330.514656,96.1447187 C330.95116,96.1447187 331.421684,96.0397852 331.926227,95.8299182 C332.43077,95.6200512 332.835172,95.4147361 333.139431,95.2139729 C333.44369,95.0132097 333.839467,94.7329078 334.326761,94.3730674 C335.781455,93.3208574 337.911989,91.8448406 340.718361,89.9450171 C341.206134,89.6115297 341.634014,89.2392314 342.002,88.828122 L342.000563,88.828122 Z M342.000563,85.0548281 C342.000563,85.7309065 341.790935,86.3767986 341.37168,86.9925044 C340.952425,87.6082101 340.430393,88.1343151 339.805584,88.5708193 C336.588581,90.8041302 334.586459,92.194619 333.799218,92.7422857 C333.713451,92.8021792 333.531614,92.9327472 333.253708,93.1339895 C332.975802,93.3352318 332.744852,93.4979027 332.560859,93.6220022 C332.376866,93.7461016 332.154302,93.8850547 331.893166,94.0388613 C331.63203,94.192668 331.385987,94.3081428 331.155038,94.3852857 C330.924088,94.4624286 330.710148,94.501 330.513218,94.501 L330.487344,94.501 C330.290414,94.501 330.076474,94.4624286 329.845525,94.3852857 C329.614575,94.3081428 329.368533,94.192668 329.107397,94.0388613 C328.846261,93.8850547 328.623696,93.7461016 328.439703,93.6220022 C328.25571,93.4979027 328.024761,93.3352318 327.746855,93.1339895 C327.468949,92.9327472 327.287112,92.8021792 327.201344,92.7422857 C326.422728,92.194619 325.30176,91.4138466 323.838441,90.3999685 C322.375122,89.3860904 321.49804,88.776374 321.207197,88.5708193 C320.67678,88.211458 320.176309,87.7172164 319.705786,87.0880945 C319.235262,86.4589726 319,85.8748906 319,85.3358486 C319,84.6683949 319.177524,84.1123431 319.532573,83.6676934 C319.887622,83.2230436 320.394562,83.0004791 321.053391,83 L339.945734,83 C340.502026,83 340.98333,83.2010028 341.389648,83.6030083 C341.795966,84.0050139 341.999125,84.4884746 341.999125,85.0533906 L342.000563,85.0548281 Z" id="Shape" fill="#3F4F5A" fill-rule="nonzero"></path>
                <path d="M289,63 L289,121" id="Path-2" stroke="#D8D8D8"></path>
            </g>
        </g>
    </g>
</svg>