<?xml version="1.0" encoding="UTF-8"?>
<svg width="322px" height="172px" viewBox="0 0 322 172" version="1.1" xmlns="http://www.w3.org/2000/svg" xmlns:xlink="http://www.w3.org/1999/xlink">
    <!-- Generator: Sketch 47 (45396) - http://www.bohemiancoding.com/sketch -->
    <title>SpecificIcons</title>
    <desc>Created with Sketch.</desc>
    <defs></defs>
    <g id="Page-1" stroke="none" stroke-width="1" fill="none" fill-rule="evenodd">
        <g id="Buttons-Usage-extra-large-1200" transform="translate(-342.000000, -2354.000000)">
            <g id="SpecificIcons" transform="translate(342.000000, 2354.000000)">
                <g id="Group-3">
                    <g id="Group-2-Copy">
                        <rect id="bg-copy" fill="#3E4F5B" x="0" y="0" width="321" height="70"></rect>
                        <path d="M99,38 L99,54" id="Line-Copy" stroke="#D2D6D9" stroke-linecap="square"></path>
                        <path d="M210,38 L210,54" id="Line-Copy-2" stroke="#D2D6D9" stroke-linecap="square"></path>
                        <path d="M33.696,40.824 L30.352,40.824 L30.352,39.704 L38.464,39.704 L38.464,40.824 L35.136,40.824 L35.136,51 L33.696,51 L33.696,40.824 Z M39.84,40.072 L41.168,40.072 L41.168,41.4 L39.84,41.4 L39.84,40.072 Z M39.84,43.128 L41.168,43.128 L41.168,51 L39.84,51 L39.84,43.128 Z M43.216,43.128 L44.368,43.128 L44.512,44.664 C44.704001,44.1199973 45.0026646,43.6906682 45.408,43.376 C45.8133354,43.0613318 46.3093304,42.904 46.896,42.904 C47.5146698,42.904 47.9999982,43.0799982 48.352,43.432 C48.7040018,43.7840018 48.9279995,44.2106642 49.024,44.712 C49.1200005,44.4666654 49.2399993,44.2346678 49.384,44.016 C49.5280007,43.7973322 49.7013323,43.6053342 49.904,43.44 C50.1066677,43.2746658 50.341332,43.1440005 50.608,43.048 C50.874668,42.9519995 51.178665,42.904 51.52,42.904 C51.9680022,42.904 52.3386652,42.9813326 52.632,43.136 C52.9253348,43.2906674 53.1599991,43.501332 53.336,43.768 C53.5120009,44.034668 53.637333,44.3466649 53.712,44.704 C53.786667,45.0613351 53.824,45.4373314 53.824,45.832 L53.824,51 L52.496,51 L52.496,46.168 C52.496,45.4639965 52.3706679,44.9386684 52.12,44.592 C51.8693321,44.2453316 51.5040024,44.072 51.024,44.072 C50.5013307,44.072 50.0640018,44.3039977 49.712,44.768 C49.3599982,45.2320023 49.184,45.8959957 49.184,46.76 L49.184,51 L47.856,51 L47.856,46.232 C47.856,45.4959963 47.7280013,44.9520018 47.472,44.6 C47.2159987,44.2479982 46.858669,44.072 46.4,44.072 C45.8879974,44.072 45.4506685,44.309331 45.088,44.784 C44.7253315,45.258669 44.544,45.9439955 44.544,46.84 L44.544,51 L43.216,51 L43.216,43.128 Z M56.848,47.368 C56.9013336,48.2746712 57.1333313,48.9759975 57.544,49.472 C57.9546687,49.9680025 58.5279963,50.216 59.264,50.216 C60.1920046,50.216 60.8906643,49.778671 61.36,48.904 L62.368,49.464 C62.0586651,49.9866693 61.6480026,50.4133317 61.136,50.744 C60.6239974,51.0746683 59.9786706,51.24 59.2,51.24 C58.5813302,51.24 58.0400023,51.1333344 57.576,50.92 C57.1119977,50.7066656 56.7253349,50.4133352 56.416,50.04 C56.1066651,49.6666648 55.8746674,49.2293358 55.72,48.728 C55.5653326,48.2266642 55.488,47.6880029 55.488,47.112 C55.488,46.5466638 55.5626659,46.0080026 55.712,45.496 C55.8613341,44.9839974 56.0879985,44.5360019 56.392,44.152 C56.6960015,43.7679981 57.0693311,43.4640011 57.512,43.24 C57.9546689,43.0159989 58.4746637,42.904 59.072,42.904 C59.6480029,42.904 60.1493312,43.0133322 60.576,43.232 C61.0026688,43.4506678 61.3573319,43.7439982 61.64,44.112 C61.9226681,44.4800018 62.1359993,44.9066642 62.28,45.392 C62.4240007,45.8773358 62.496,46.3919973 62.496,46.936 C62.496,47.0533339 62.4933334,47.1439997 62.488,47.208 C62.4826666,47.2720003 62.48,47.3253331 62.48,47.368 L56.848,47.368 Z M59.056,43.912 C58.3839966,43.912 57.8640018,44.1519976 57.496,44.632 C57.1279982,45.1120024 56.9173336,45.7573293 56.864,46.568 L61.136,46.568 C61.136,46.2373317 61.098667,45.9146682 61.024,45.6 C60.949333,45.2853318 60.8266675,45.0026679 60.656,44.752 C60.4853325,44.5013321 60.2693346,44.2986674 60.008,44.144 C59.7466654,43.9893326 59.4293352,43.912 59.056,43.912 Z" id="Time" fill="#D2D6D9"></path>
                        <path d="M135.12,39.704 L136.8,39.704 C137.792005,41.4213419 138.735996,43.0479923 139.632,44.584 C140.528004,46.1200077 141.381329,47.6186594 142.192,49.08 C142.149333,47.479992 142.130667,45.909341 142.136,44.368 C142.141333,42.826659 142.138667,41.2720078 142.128,39.704 L143.488,39.704 L143.488,51 L141.824,51 C141.365331,50.2106627 140.898669,49.4053374 140.424,48.584 C139.949331,47.7626626 139.477336,46.9493374 139.008,46.144 C138.538664,45.3386626 138.085336,44.5520038 137.648,43.784 C137.210664,43.0159962 136.805335,42.2960034 136.432,41.624 C136.464,43.2346747 136.48,44.8079923 136.48,46.344 C136.48,47.8800077 136.485333,49.4319922 136.496,51 L135.12,51 L135.12,39.704 Z M148.912,51.24 C148.314664,51.24 147.789336,51.1306678 147.336,50.912 C146.882664,50.6933322 146.504002,50.3946686 146.2,50.016 C145.895998,49.6373314 145.669334,49.1946692 145.52,48.688 C145.370666,48.1813308 145.296,47.6346696 145.296,47.048 C145.296,46.4613304 145.373333,45.9173358 145.528,45.416 C145.682667,44.9146642 145.911998,44.4773352 146.216,44.104 C146.520002,43.7306648 146.898664,43.4373344 147.352,43.224 C147.805336,43.0106656 148.32533,42.904 148.912,42.904 C149.49867,42.904 150.018664,43.0106656 150.472,43.224 C150.925336,43.4373344 151.306665,43.7279982 151.616,44.096 C151.925335,44.4640018 152.157333,44.9013308 152.312,45.408 C152.466667,45.9146692 152.544,46.4613304 152.544,47.048 C152.544,47.6346696 152.466667,48.1813308 152.312,48.688 C152.157333,49.1946692 151.925335,49.6373314 151.616,50.016 C151.306665,50.3946686 150.925336,50.6933322 150.472,50.912 C150.018664,51.1306678 149.49867,51.24 148.912,51.24 Z M148.944,50.2 C149.306668,50.2 149.626665,50.1200008 149.904,49.96 C150.181335,49.7999992 150.410666,49.5786681 150.592,49.296 C150.773334,49.0133319 150.912,48.6800019 151.008,48.296 C151.104,47.9119981 151.152,47.4960022 151.152,47.048 C151.152,46.5999978 151.104,46.1866686 151.008,45.808 C150.912,45.4293314 150.768001,45.1013347 150.576,44.824 C150.383999,44.5466653 150.149335,44.3306674 149.872,44.176 C149.594665,44.0213326 149.274668,43.944 148.912,43.944 C148.538665,43.944 148.213335,44.0213326 147.936,44.176 C147.658665,44.3306674 147.429334,44.5466653 147.248,44.824 C147.066666,45.1013347 146.928,45.4293314 146.832,45.808 C146.736,46.1866686 146.688,46.5999978 146.688,47.048 C146.688,47.4960022 146.736,47.9119981 146.832,48.296 C146.928,48.6800019 147.069332,49.0133319 147.256,49.296 C147.442668,49.5786681 147.677332,49.7999992 147.96,49.96 C148.242668,50.1200008 148.570665,50.2 148.944,50.2 Z M154.928,44.04 L153.584,44.04 L153.584,43.128 L153.872,43.128 C154.202668,43.128 154.461332,43.0933337 154.648,43.024 C154.834668,42.9546663 154.976,42.8480007 155.072,42.704 C155.168,42.5599993 155.237333,42.3706678 155.28,42.136 C155.322667,41.9013322 155.36,41.613335 155.392,41.272 L155.424,40.984 L156.256,40.984 L156.256,43.128 L157.952,43.128 L157.952,44.04 L156.256,44.04 L156.256,48.936 C156.256,49.3840022 156.322666,49.7066657 156.456,49.904 C156.589334,50.1013343 156.837332,50.2 157.2,50.2 C157.488001,50.2 157.754665,50.1360006 158,50.008 L158.144,50.968 C157.738665,51.1493342 157.290669,51.24 156.8,51.24 C156.415998,51.24 156.104001,51.1866672 155.864,51.08 C155.623999,50.9733328 155.434667,50.8293342 155.296,50.648 C155.157333,50.4666658 155.061334,50.2480013 155.008,49.992 C154.954666,49.7359987 154.928,49.4586682 154.928,49.16 L154.928,44.04 Z M160.56,47.368 C160.613334,48.2746712 160.845331,48.9759975 161.256,49.472 C161.666669,49.9680025 162.239996,50.216 162.976,50.216 C163.904005,50.216 164.602664,49.778671 165.072,48.904 L166.08,49.464 C165.770665,49.9866693 165.360003,50.4133317 164.848,50.744 C164.335997,51.0746683 163.690671,51.24 162.912,51.24 C162.29333,51.24 161.752002,51.1333344 161.288,50.92 C160.823998,50.7066656 160.437335,50.4133352 160.128,50.04 C159.818665,49.6666648 159.586667,49.2293358 159.432,48.728 C159.277333,48.2266642 159.2,47.6880029 159.2,47.112 C159.2,46.5466638 159.274666,46.0080026 159.424,45.496 C159.573334,44.9839974 159.799998,44.5360019 160.104,44.152 C160.408002,43.7679981 160.781331,43.4640011 161.224,43.24 C161.666669,43.0159989 162.186664,42.904 162.784,42.904 C163.360003,42.904 163.861331,43.0133322 164.288,43.232 C164.714669,43.4506678 165.069332,43.7439982 165.352,44.112 C165.634668,44.4800018 165.847999,44.9066642 165.992,45.392 C166.136001,45.8773358 166.208,46.3919973 166.208,46.936 C166.208,47.0533339 166.205333,47.1439997 166.2,47.208 C166.194667,47.2720003 166.192,47.3253331 166.192,47.368 L160.56,47.368 Z M162.768,43.912 C162.095997,43.912 161.576002,44.1519976 161.208,44.632 C160.839998,45.1120024 160.629334,45.7573293 160.576,46.568 L164.848,46.568 C164.848,46.2373317 164.810667,45.9146682 164.736,45.6 C164.661333,45.2853318 164.538668,45.0026679 164.368,44.752 C164.197332,44.5013321 163.981335,44.2986674 163.72,44.144 C163.458665,43.9893326 163.141335,43.912 162.768,43.912 Z M167.968,49.064 C168.234668,49.405335 168.578665,49.6879989 169,49.912 C169.421335,50.1360011 169.882664,50.248 170.384,50.248 C170.832002,50.248 171.221332,50.1413344 171.552,49.928 C171.882668,49.7146656 172.048,49.3946688 172.048,48.968 C172.048,48.6373317 171.938668,48.3786676 171.72,48.192 C171.501332,48.0053324 171.229335,47.8480006 170.904,47.72 C170.578665,47.5919994 170.224002,47.4746672 169.84,47.368 C169.455998,47.2613328 169.101335,47.1226675 168.776,46.952 C168.450665,46.7813325 168.178668,46.5573347 167.96,46.28 C167.741332,46.0026653 167.632,45.6240024 167.632,45.144 C167.632,44.7493314 167.711999,44.4106681 167.872,44.128 C168.032001,43.8453319 168.242665,43.6133342 168.504,43.432 C168.765335,43.2506658 169.066665,43.1173338 169.408,43.032 C169.749335,42.9466662 170.106665,42.904 170.48,42.904 C171.589339,42.904 172.511996,43.2239968 173.248,43.864 L172.576,44.76 C172.341332,44.5146654 172.029335,44.3093342 171.64,44.144 C171.250665,43.9786658 170.848002,43.896 170.432,43.896 C170.250666,43.896 170.072001,43.9173331 169.896,43.96 C169.719999,44.0026669 169.565334,44.0693329 169.432,44.16 C169.298666,44.2506671 169.192,44.3653326 169.112,44.504 C169.032,44.6426674 168.992,44.8133323 168.992,45.016 C168.992,45.3253349 169.101332,45.5653325 169.32,45.736 C169.538668,45.9066675 169.810665,46.0533327 170.136,46.176 C170.461335,46.2986673 170.813331,46.4159994 171.192,46.528 C171.570669,46.6400006 171.922665,46.7839991 172.248,46.96 C172.573335,47.1360009 172.845332,47.3679986 173.064,47.656 C173.282668,47.9440014 173.392,48.3279976 173.392,48.808 C173.392,49.2133354 173.309334,49.5679985 173.144,49.872 C172.978666,50.1760015 172.760001,50.4293323 172.488,50.632 C172.215999,50.8346677 171.901335,50.9866662 171.544,51.088 C171.186665,51.1893338 170.816002,51.24 170.432,51.24 C169.109327,51.24 168.058671,50.8133376 167.28,49.96 L167.968,49.064 Z" id="H5-Regular-16--Copy" fill="#FFFFFF"></path>
                        <path d="M233.12,39.704 L236.528,39.704 C238.48001,39.704 239.914662,40.1759953 240.832,41.12 C241.749338,42.0640047 242.208,43.4799906 242.208,45.368 C242.208,47.1920091 241.749338,48.5866618 240.832,49.552 C239.914662,50.5173382 238.538676,51 236.704,51 L233.12,51 L233.12,39.704 Z M236.592,49.88 C237.360004,49.88 238.005331,49.7680011 238.528,49.544 C239.050669,49.3199989 239.471998,49.008002 239.792,48.608 C240.112002,48.207998 240.338666,47.7280028 240.472,47.168 C240.605334,46.6079972 240.672,45.9973366 240.672,45.336 C240.672,44.6959968 240.605334,44.1013361 240.472,43.552 C240.338666,43.0026639 240.112002,42.5253354 239.792,42.12 C239.471998,41.7146646 239.040003,41.3973345 238.496,41.168 C237.951997,40.9386655 237.269337,40.824 236.448,40.824 L234.56,40.824 L234.56,49.88 L236.592,49.88 Z M244.912,47.368 C244.965334,48.2746712 245.197331,48.9759975 245.608,49.472 C246.018669,49.9680025 246.591996,50.216 247.328,50.216 C248.256005,50.216 248.954664,49.778671 249.424,48.904 L250.432,49.464 C250.122665,49.9866693 249.712003,50.4133317 249.2,50.744 C248.687997,51.0746683 248.042671,51.24 247.264,51.24 C246.64533,51.24 246.104002,51.1333344 245.64,50.92 C245.175998,50.7066656 244.789335,50.4133352 244.48,50.04 C244.170665,49.6666648 243.938667,49.2293358 243.784,48.728 C243.629333,48.2266642 243.552,47.6880029 243.552,47.112 C243.552,46.5466638 243.626666,46.0080026 243.776,45.496 C243.925334,44.9839974 244.151998,44.5360019 244.456,44.152 C244.760002,43.7679981 245.133331,43.4640011 245.576,43.24 C246.018669,43.0159989 246.538664,42.904 247.136,42.904 C247.712003,42.904 248.213331,43.0133322 248.64,43.232 C249.066669,43.4506678 249.421332,43.7439982 249.704,44.112 C249.986668,44.4800018 250.199999,44.9066642 250.344,45.392 C250.488001,45.8773358 250.56,46.3919973 250.56,46.936 C250.56,47.0533339 250.557333,47.1439997 250.552,47.208 C250.546667,47.2720003 250.544,47.3253331 250.544,47.368 L244.912,47.368 Z M247.12,43.912 C246.447997,43.912 245.928002,44.1519976 245.56,44.632 C245.191998,45.1120024 244.981334,45.7573293 244.928,46.568 L249.2,46.568 C249.2,46.2373317 249.162667,45.9146682 249.088,45.6 C249.013333,45.2853318 248.890668,45.0026679 248.72,44.752 C248.549332,44.5013321 248.333335,44.2986674 248.072,44.144 C247.810665,43.9893326 247.493335,43.912 247.12,43.912 Z M252.176,43.128 L253.504,43.128 L253.504,44.648 C253.6,44.4239989 253.722666,44.2053344 253.872,43.992 C254.021334,43.7786656 254.199999,43.5920008 254.408,43.432 C254.616001,43.2719992 254.858665,43.1440005 255.136,43.048 C255.413335,42.9519995 255.727998,42.904 256.08,42.904 C256.592003,42.904 257.037331,43.0106656 257.416,43.224 C257.794669,43.4373344 258.106665,43.7306648 258.352,44.104 C258.597335,44.4773352 258.781333,44.9119975 258.904,45.408 C259.026667,45.9040025 259.088,46.4399971 259.088,47.016 C259.088,47.6986701 259.008001,48.3013307 258.848,48.824 C258.687999,49.3466693 258.464001,49.7839982 258.176,50.136 C257.887999,50.4880018 257.552002,50.7546658 257.168,50.936 C256.783998,51.1173342 256.368002,51.208 255.92,51.208 C255.33333,51.208 254.829335,51.0640014 254.408,50.776 C253.986665,50.4879986 253.685334,50.1306688 253.504,49.704 L253.504,53.768 L252.176,53.768 L252.176,43.128 Z M253.504,47.112 C253.504,47.3360011 253.512,47.5413324 253.528,47.728 C253.544,47.9146676 253.562667,48.0719994 253.584,48.2 C253.626667,48.4560013 253.706666,48.7013322 253.824,48.936 C253.941334,49.1706678 254.085332,49.3759991 254.256,49.552 C254.426668,49.7280009 254.626666,49.8693328 254.856,49.976 C255.085334,50.0826672 255.338665,50.136 255.616,50.136 C255.978668,50.136 256.290665,50.0506675 256.552,49.88 C256.813335,49.7093325 257.029332,49.4800014 257.2,49.192 C257.370668,48.9039986 257.496,48.5760018 257.576,48.208 C257.656,47.8399982 257.696,47.4586686 257.696,47.064 C257.696,46.6693314 257.658667,46.2880018 257.584,45.92 C257.509333,45.5519982 257.389334,45.2266681 257.224,44.944 C257.058666,44.6613319 256.842668,44.4346675 256.576,44.264 C256.309332,44.0933325 255.989335,44.008 255.616,44.008 C255.327999,44.008 255.064001,44.0613328 254.824,44.168 C254.583999,44.2746672 254.378668,44.4186658 254.208,44.6 C254.037332,44.7813342 253.896001,44.9893322 253.784,45.224 C253.671999,45.4586678 253.6,45.7039987 253.568,45.96 C253.546667,46.0666672 253.530667,46.2133324 253.52,46.4 C253.509333,46.5866676 253.504,46.8026654 253.504,47.048 L253.504,47.112 Z M265.728,51 C265.610666,50.6159981 265.541333,50.157336 265.52,49.624 C265.306666,50.1146691 264.978669,50.5066652 264.536,50.8 C264.093331,51.0933348 263.568003,51.24 262.96,51.24 C262.191996,51.24 261.584002,51.0213355 261.136,50.584 C260.687998,50.1466645 260.464,49.5600037 260.464,48.824 C260.464,48.4079979 260.538666,48.0586681 260.688,47.776 C260.837334,47.4933319 261.045332,47.2586676 261.312,47.072 C261.578668,46.8853324 261.893332,46.7386672 262.256,46.632 C262.618668,46.5253328 263.013331,46.4400003 263.44,46.376 L265.456,46.072 L265.456,45.576 C265.456,45.2239982 265.413334,44.9413344 265.328,44.728 C265.242666,44.5146656 265.125334,44.3493339 264.976,44.232 C264.826666,44.1146661 264.656001,44.0373335 264.464,44 C264.271999,43.9626665 264.069334,43.944 263.856,43.944 C263.247997,43.944 262.746669,44.0559989 262.352,44.28 C261.957331,44.5040011 261.626668,44.786665 261.36,45.128 L260.672,44.264 C260.981335,43.8906648 261.410664,43.570668 261.96,43.304 C262.509336,43.037332 263.189329,42.904 264,42.904 C264.981338,42.904 265.693331,43.1226645 266.136,43.56 C266.578669,43.9973355 266.8,44.7013285 266.8,45.672 L266.8,48.856 C266.8,49.1120013 266.802667,49.335999 266.808,49.528 C266.813333,49.720001 266.824,49.8986658 266.84,50.064 C266.856,50.2293342 266.88,50.3866659 266.912,50.536 C266.944,50.6853341 266.986666,50.8399992 267.04,51 L265.728,51 Z M265.456,46.952 L263.568,47.256 C262.91733,47.3733339 262.456001,47.5493322 262.184,47.784 C261.911999,48.0186678 261.776,48.3439979 261.776,48.76 C261.776,49.1866688 261.901332,49.5439986 262.152,49.832 C262.402668,50.1200014 262.773331,50.264 263.264,50.264 C263.562668,50.264 263.845332,50.2053339 264.112,50.088 C264.378668,49.9706661 264.610666,49.808001 264.808,49.6 C265.005334,49.391999 265.162666,49.1413348 265.28,48.848 C265.397334,48.5546652 265.456,48.2320018 265.456,47.88 L265.456,46.952 Z M268.928,43.128 L270.08,43.128 L270.208,44.888 C270.432001,44.3119971 270.789331,43.8373352 271.28,43.464 C271.770669,43.0906648 272.351997,42.904 273.024,42.904 L273.024,44.312 C272.874666,44.2799998 272.709334,44.264 272.528,44.264 C272.261332,44.264 271.994668,44.3119995 271.728,44.408 C271.461332,44.5040005 271.218668,44.6586656 271,44.872 C270.781332,45.0853344 270.602667,45.3599983 270.464,45.696 C270.325333,46.0320017 270.256,46.4399976 270.256,46.92 L270.256,51 L268.928,51 L268.928,43.128 Z M275.024,44.04 L273.68,44.04 L273.68,43.128 L273.968,43.128 C274.298668,43.128 274.557332,43.0933337 274.744,43.024 C274.930668,42.9546663 275.072,42.8480007 275.168,42.704 C275.264,42.5599993 275.333333,42.3706678 275.376,42.136 C275.418667,41.9013322 275.456,41.613335 275.488,41.272 L275.52,40.984 L276.352,40.984 L276.352,43.128 L278.048,43.128 L278.048,44.04 L276.352,44.04 L276.352,48.936 C276.352,49.3840022 276.418666,49.7066657 276.552,49.904 C276.685334,50.1013343 276.933332,50.2 277.296,50.2 C277.584001,50.2 277.850665,50.1360006 278.096,50.008 L278.24,50.968 C277.834665,51.1493342 277.386669,51.24 276.896,51.24 C276.511998,51.24 276.200001,51.1866672 275.96,51.08 C275.719999,50.9733328 275.530667,50.8293342 275.392,50.648 C275.253333,50.4666658 275.157334,50.2480013 275.104,49.992 C275.050666,49.7359987 275.024,49.4586682 275.024,49.16 L275.024,44.04 Z M279.616,43.128 L280.96,43.128 L280.96,47.896 C280.96,48.6426704 281.098665,49.1893316 281.376,49.536 C281.653335,49.8826684 282.042664,50.056 282.544,50.056 C283.184003,50.056 283.682665,49.8026692 284.04,49.296 C284.397335,48.7893308 284.576,48.1146709 284.576,47.272 L284.576,43.128 L285.904,43.128 L285.904,51 L284.656,51 L284.656,49.4 C284.56,49.6453346 284.442667,49.8773322 284.304,50.096 C284.165333,50.3146678 283.994668,50.5066658 283.792,50.672 C283.589332,50.8373342 283.354668,50.9679995 283.088,51.064 C282.821332,51.1600005 282.506668,51.208 282.144,51.208 C281.290662,51.208 280.656002,50.9493359 280.24,50.432 C279.823998,49.9146641 279.616,49.1813381 279.616,48.232 L279.616,43.128 Z M287.952,43.128 L289.104,43.128 L289.232,44.888 C289.456001,44.3119971 289.813331,43.8373352 290.304,43.464 C290.794669,43.0906648 291.375997,42.904 292.048,42.904 L292.048,44.312 C291.898666,44.2799998 291.733334,44.264 291.552,44.264 C291.285332,44.264 291.018668,44.3119995 290.752,44.408 C290.485332,44.5040005 290.242668,44.6586656 290.024,44.872 C289.805332,45.0853344 289.626667,45.3599983 289.488,45.696 C289.349333,46.0320017 289.28,46.4399976 289.28,46.92 L289.28,51 L287.952,51 L287.952,43.128 Z M294.368,47.368 C294.421334,48.2746712 294.653331,48.9759975 295.064,49.472 C295.474669,49.9680025 296.047996,50.216 296.784,50.216 C297.712005,50.216 298.410664,49.778671 298.88,48.904 L299.888,49.464 C299.578665,49.9866693 299.168003,50.4133317 298.656,50.744 C298.143997,51.0746683 297.498671,51.24 296.72,51.24 C296.10133,51.24 295.560002,51.1333344 295.096,50.92 C294.631998,50.7066656 294.245335,50.4133352 293.936,50.04 C293.626665,49.6666648 293.394667,49.2293358 293.24,48.728 C293.085333,48.2266642 293.008,47.6880029 293.008,47.112 C293.008,46.5466638 293.082666,46.0080026 293.232,45.496 C293.381334,44.9839974 293.607998,44.5360019 293.912,44.152 C294.216002,43.7679981 294.589331,43.4640011 295.032,43.24 C295.474669,43.0159989 295.994664,42.904 296.592,42.904 C297.168003,42.904 297.669331,43.0133322 298.096,43.232 C298.522669,43.4506678 298.877332,43.7439982 299.16,44.112 C299.442668,44.4800018 299.655999,44.9066642 299.8,45.392 C299.944001,45.8773358 300.016,46.3919973 300.016,46.936 C300.016,47.0533339 300.013333,47.1439997 300.008,47.208 C300.002667,47.2720003 300,47.3253331 300,47.368 L294.368,47.368 Z M296.576,43.912 C295.903997,43.912 295.384002,44.1519976 295.016,44.632 C294.647998,45.1120024 294.437334,45.7573293 294.384,46.568 L298.656,46.568 C298.656,46.2373317 298.618667,45.9146682 298.544,45.6 C298.469333,45.2853318 298.346668,45.0026679 298.176,44.752 C298.005332,44.5013321 297.789335,44.2986674 297.528,44.144 C297.266665,43.9893326 296.949335,43.912 296.576,43.912 Z M301.776,49.064 C302.042668,49.405335 302.386665,49.6879989 302.808,49.912 C303.229335,50.1360011 303.690664,50.248 304.192,50.248 C304.640002,50.248 305.029332,50.1413344 305.36,49.928 C305.690668,49.7146656 305.856,49.3946688 305.856,48.968 C305.856,48.6373317 305.746668,48.3786676 305.528,48.192 C305.309332,48.0053324 305.037335,47.8480006 304.712,47.72 C304.386665,47.5919994 304.032002,47.4746672 303.648,47.368 C303.263998,47.2613328 302.909335,47.1226675 302.584,46.952 C302.258665,46.7813325 301.986668,46.5573347 301.768,46.28 C301.549332,46.0026653 301.44,45.6240024 301.44,45.144 C301.44,44.7493314 301.519999,44.4106681 301.68,44.128 C301.840001,43.8453319 302.050665,43.6133342 302.312,43.432 C302.573335,43.2506658 302.874665,43.1173338 303.216,43.032 C303.557335,42.9466662 303.914665,42.904 304.288,42.904 C305.397339,42.904 306.319996,43.2239968 307.056,43.864 L306.384,44.76 C306.149332,44.5146654 305.837335,44.3093342 305.448,44.144 C305.058665,43.9786658 304.656002,43.896 304.24,43.896 C304.058666,43.896 303.880001,43.9173331 303.704,43.96 C303.527999,44.0026669 303.373334,44.0693329 303.24,44.16 C303.106666,44.2506671 303,44.3653326 302.92,44.504 C302.84,44.6426674 302.8,44.8133323 302.8,45.016 C302.8,45.3253349 302.909332,45.5653325 303.128,45.736 C303.346668,45.9066675 303.618665,46.0533327 303.944,46.176 C304.269335,46.2986673 304.621331,46.4159994 305,46.528 C305.378669,46.6400006 305.730665,46.7839991 306.056,46.96 C306.381335,47.1360009 306.653332,47.3679986 306.872,47.656 C307.090668,47.9440014 307.2,48.3279976 307.2,48.808 C307.2,49.2133354 307.117334,49.5679985 306.952,49.872 C306.786666,50.1760015 306.568001,50.4293323 306.296,50.632 C306.023999,50.8346677 305.709335,50.9866662 305.352,51.088 C304.994665,51.1893338 304.624002,51.24 304.24,51.24 C302.917327,51.24 301.866671,50.8133376 301.088,49.96 L301.776,49.064 Z" id="H5-Regular-16--Copy-2" fill="#D2D6D9"></path>
                        <path d="M49,15.7142857 L49,21.7142857 C49,21.8392863 48.9598218,21.9419639 48.8794643,22.0223214 C48.7991067,22.102679 48.6964292,22.1428571 48.5714286,22.1428571 L44.2857143,22.1428571 C44.1607137,22.1428571 44.0580361,22.102679 43.9776786,22.0223214 C43.897321,21.9419639 43.8571429,21.8392863 43.8571429,21.7142857 L43.8571429,20.8571429 C43.8571429,20.7321422 43.897321,20.6294647 43.9776786,20.5491071 C44.0580361,20.4687496 44.1607137,20.4285714 44.2857143,20.4285714 L47.2857143,20.4285714 L47.2857143,15.7142857 C47.2857143,15.5892851 47.3258925,15.4866075 47.40625,15.40625 C47.4866075,15.3258925 47.5892851,15.2857143 47.7142857,15.2857143 L48.5714286,15.2857143 C48.6964292,15.2857143 48.7991067,15.3258925 48.8794643,15.40625 C48.9598218,15.4866075 49,15.5892851 49,15.7142857 Z M53.59375,24.0848214 C54.245539,22.9687444 54.5714286,21.7500066 54.5714286,20.4285714 C54.5714286,19.1071362 54.245539,17.8883984 53.59375,16.7723214 C52.941961,15.6562444 52.0580413,14.7723247 50.9419643,14.1205357 C49.8258873,13.4687467 48.6071495,13.1428571 47.2857143,13.1428571 C45.9642791,13.1428571 44.7455413,13.4687467 43.6294643,14.1205357 C42.5133873,14.7723247 41.6294675,15.6562444 40.9776786,16.7723214 C40.3258896,17.8883984 40,19.1071362 40,20.4285714 C40,21.7500066 40.3258896,22.9687444 40.9776786,24.0848214 C41.6294675,25.2008984 42.5133873,26.0848182 43.6294643,26.7366071 C44.7455413,27.3883961 45.9642791,27.7142857 47.2857143,27.7142857 C48.6071495,27.7142857 49.8258873,27.3883961 50.9419643,26.7366071 C52.0580413,26.0848182 52.941961,25.2008984 53.59375,24.0848214 Z M56.1919643,15.2723214 C57.1116117,16.8437579 57.5714286,18.5624907 57.5714286,20.4285714 C57.5714286,22.2946522 57.1116117,24.0156171 56.1919643,25.5915179 C55.2723168,27.1674186 54.0245615,28.415174 52.4486607,29.3348214 C50.87276,30.2544689 49.151795,30.7142857 47.2857143,30.7142857 C45.4196335,30.7142857 43.6986686,30.2544689 42.1227679,29.3348214 C40.5468671,28.415174 39.2991117,27.1674186 38.3794643,25.5915179 C37.4598168,24.0156171 37,22.2946522 37,20.4285714 C37,18.5624907 37.4598168,16.8415257 38.3794643,15.265625 C39.2991117,13.6897243 40.5468671,12.4419689 42.1227679,11.5223214 C43.6986686,10.602674 45.4196335,10.1428571 47.2857143,10.1428571 C49.151795,10.1428571 50.87276,10.602674 52.4486607,11.5223214 C54.0245615,12.4419689 55.2723168,13.6919564 56.1919643,15.2723214 Z" id="Clock-Outlined---FontAwesome" fill="#D2D6D9"></path>
                        <path d="M153.456473,29 L154.573661,27.8828125 L151.688616,24.9977679 L150.571429,26.1149554 L150.571429,27.4285714 L152.142857,27.4285714 L152.142857,29 L153.456473,29 Z M159.877232,17.6071429 C159.877232,17.4270824 159.787203,17.3370536 159.607143,17.3370536 C159.525297,17.3370536 159.455729,17.3656991 159.398438,17.4229911 L152.74442,24.0770089 C152.687128,24.1343009 152.658482,24.2038686 152.658482,24.2857143 C152.658482,24.4657747 152.748511,24.5558036 152.928571,24.5558036 C153.010417,24.5558036 153.079985,24.527158 153.137277,24.4698661 L159.791295,17.8158482 C159.848587,17.7585563 159.877232,17.6889885 159.877232,17.6071429 Z M159.214286,15.25 L164.321429,20.3571429 L154.107143,30.5714286 L149,30.5714286 L149,25.4642857 L159.214286,15.25 Z M167.59933,16.4285714 C167.59933,16.8623534 167.447918,17.2306532 167.145089,17.5334821 L165.107143,19.5714286 L160,14.4642857 L162.037946,12.4386161 C162.332591,12.1276026 162.700891,11.9720982 163.142857,11.9720982 C163.576639,11.9720982 163.949031,12.1276026 164.260045,12.4386161 L167.145089,15.3113839 C167.447918,15.630582 167.59933,16.0029741 167.59933,16.4285714 Z" id="ï€-copy-2" fill="#FFFFFF"></path>
                        <path d="M278.65625,10.2779018 C278.926341,10.4743313 279.036831,10.7362335 278.987723,11.0636161 L275.844866,29.9207589 C275.803943,30.1581113 275.672992,30.3422612 275.452009,30.4732143 C275.337425,30.5386908 275.210566,30.5714286 275.071429,30.5714286 C274.981398,30.5714286 274.883185,30.5509675 274.776786,30.5100446 L269.215402,28.2388393 L266.24442,31.8604911 C266.097097,32.0487361 265.896579,32.1428571 265.642857,32.1428571 C265.536458,32.1428571 265.446429,32.1264883 265.372768,32.09375 C265.217261,32.036458 265.092448,31.9402909 264.998326,31.8052455 C264.904203,31.6702002 264.857143,31.5208342 264.857143,31.3571429 L264.857143,27.0725446 L275.464286,14.0714286 L262.340402,25.4274554 L257.491071,23.4386161 C257.188243,23.3240322 257.024554,23.09896 257,22.7633929 C256.983631,22.4360103 257.114582,22.1945692 257.392857,22.0390625 L277.821429,10.2533482 C277.944197,10.1796871 278.075148,10.1428571 278.214286,10.1428571 C278.377977,10.1428571 278.525297,10.1878716 278.65625,10.2779018 Z" id="paper-plane---FontAwesome" fill="#D2D6D9"></path>
                    </g>
                    <path d="M99.5,68.5 L208.5,68.5" id="Active-line-Copy-2" stroke="#BFDC24" stroke-width="3" stroke-linecap="square"></path>
                </g>
                <g id="Group-3-Copy-4" transform="translate(0.000000, 102.000000)">
                    <g id="Group-2-Copy">
                        <rect id="bg-copy" fill="#3E4F5B" x="0" y="0" width="321" height="70"></rect>
                        <path d="M99,38 L99,54" id="Line-Copy" stroke="#D2D6D9" stroke-linecap="square"></path>
                        <path d="M210,38 L210,54" id="Line-Copy-2" stroke="#D2D6D9" stroke-linecap="square"></path>
                        <path d="M33.696,40.824 L30.352,40.824 L30.352,39.704 L38.464,39.704 L38.464,40.824 L35.136,40.824 L35.136,51 L33.696,51 L33.696,40.824 Z M39.84,40.072 L41.168,40.072 L41.168,41.4 L39.84,41.4 L39.84,40.072 Z M39.84,43.128 L41.168,43.128 L41.168,51 L39.84,51 L39.84,43.128 Z M43.216,43.128 L44.368,43.128 L44.512,44.664 C44.704001,44.1199973 45.0026646,43.6906682 45.408,43.376 C45.8133354,43.0613318 46.3093304,42.904 46.896,42.904 C47.5146698,42.904 47.9999982,43.0799982 48.352,43.432 C48.7040018,43.7840018 48.9279995,44.2106642 49.024,44.712 C49.1200005,44.4666654 49.2399993,44.2346678 49.384,44.016 C49.5280007,43.7973322 49.7013323,43.6053342 49.904,43.44 C50.1066677,43.2746658 50.341332,43.1440005 50.608,43.048 C50.874668,42.9519995 51.178665,42.904 51.52,42.904 C51.9680022,42.904 52.3386652,42.9813326 52.632,43.136 C52.9253348,43.2906674 53.1599991,43.501332 53.336,43.768 C53.5120009,44.034668 53.637333,44.3466649 53.712,44.704 C53.786667,45.0613351 53.824,45.4373314 53.824,45.832 L53.824,51 L52.496,51 L52.496,46.168 C52.496,45.4639965 52.3706679,44.9386684 52.12,44.592 C51.8693321,44.2453316 51.5040024,44.072 51.024,44.072 C50.5013307,44.072 50.0640018,44.3039977 49.712,44.768 C49.3599982,45.2320023 49.184,45.8959957 49.184,46.76 L49.184,51 L47.856,51 L47.856,46.232 C47.856,45.4959963 47.7280013,44.9520018 47.472,44.6 C47.2159987,44.2479982 46.858669,44.072 46.4,44.072 C45.8879974,44.072 45.4506685,44.309331 45.088,44.784 C44.7253315,45.258669 44.544,45.9439955 44.544,46.84 L44.544,51 L43.216,51 L43.216,43.128 Z M56.848,47.368 C56.9013336,48.2746712 57.1333313,48.9759975 57.544,49.472 C57.9546687,49.9680025 58.5279963,50.216 59.264,50.216 C60.1920046,50.216 60.8906643,49.778671 61.36,48.904 L62.368,49.464 C62.0586651,49.9866693 61.6480026,50.4133317 61.136,50.744 C60.6239974,51.0746683 59.9786706,51.24 59.2,51.24 C58.5813302,51.24 58.0400023,51.1333344 57.576,50.92 C57.1119977,50.7066656 56.7253349,50.4133352 56.416,50.04 C56.1066651,49.6666648 55.8746674,49.2293358 55.72,48.728 C55.5653326,48.2266642 55.488,47.6880029 55.488,47.112 C55.488,46.5466638 55.5626659,46.0080026 55.712,45.496 C55.8613341,44.9839974 56.0879985,44.5360019 56.392,44.152 C56.6960015,43.7679981 57.0693311,43.4640011 57.512,43.24 C57.9546689,43.0159989 58.4746637,42.904 59.072,42.904 C59.6480029,42.904 60.1493312,43.0133322 60.576,43.232 C61.0026688,43.4506678 61.3573319,43.7439982 61.64,44.112 C61.9226681,44.4800018 62.1359993,44.9066642 62.28,45.392 C62.4240007,45.8773358 62.496,46.3919973 62.496,46.936 C62.496,47.0533339 62.4933334,47.1439997 62.488,47.208 C62.4826666,47.2720003 62.48,47.3253331 62.48,47.368 L56.848,47.368 Z M59.056,43.912 C58.3839966,43.912 57.8640018,44.1519976 57.496,44.632 C57.1279982,45.1120024 56.9173336,45.7573293 56.864,46.568 L61.136,46.568 C61.136,46.2373317 61.098667,45.9146682 61.024,45.6 C60.949333,45.2853318 60.8266675,45.0026679 60.656,44.752 C60.4853325,44.5013321 60.2693346,44.2986674 60.008,44.144 C59.7466654,43.9893326 59.4293352,43.912 59.056,43.912 Z" id="Time" fill="#D2D6D9"></path>
                        <path d="M135.12,39.704 L136.8,39.704 C137.792005,41.4213419 138.735996,43.0479923 139.632,44.584 C140.528004,46.1200077 141.381329,47.6186594 142.192,49.08 C142.149333,47.479992 142.130667,45.909341 142.136,44.368 C142.141333,42.826659 142.138667,41.2720078 142.128,39.704 L143.488,39.704 L143.488,51 L141.824,51 C141.365331,50.2106627 140.898669,49.4053374 140.424,48.584 C139.949331,47.7626626 139.477336,46.9493374 139.008,46.144 C138.538664,45.3386626 138.085336,44.5520038 137.648,43.784 C137.210664,43.0159962 136.805335,42.2960034 136.432,41.624 C136.464,43.2346747 136.48,44.8079923 136.48,46.344 C136.48,47.8800077 136.485333,49.4319922 136.496,51 L135.12,51 L135.12,39.704 Z M148.912,51.24 C148.314664,51.24 147.789336,51.1306678 147.336,50.912 C146.882664,50.6933322 146.504002,50.3946686 146.2,50.016 C145.895998,49.6373314 145.669334,49.1946692 145.52,48.688 C145.370666,48.1813308 145.296,47.6346696 145.296,47.048 C145.296,46.4613304 145.373333,45.9173358 145.528,45.416 C145.682667,44.9146642 145.911998,44.4773352 146.216,44.104 C146.520002,43.7306648 146.898664,43.4373344 147.352,43.224 C147.805336,43.0106656 148.32533,42.904 148.912,42.904 C149.49867,42.904 150.018664,43.0106656 150.472,43.224 C150.925336,43.4373344 151.306665,43.7279982 151.616,44.096 C151.925335,44.4640018 152.157333,44.9013308 152.312,45.408 C152.466667,45.9146692 152.544,46.4613304 152.544,47.048 C152.544,47.6346696 152.466667,48.1813308 152.312,48.688 C152.157333,49.1946692 151.925335,49.6373314 151.616,50.016 C151.306665,50.3946686 150.925336,50.6933322 150.472,50.912 C150.018664,51.1306678 149.49867,51.24 148.912,51.24 Z M148.944,50.2 C149.306668,50.2 149.626665,50.1200008 149.904,49.96 C150.181335,49.7999992 150.410666,49.5786681 150.592,49.296 C150.773334,49.0133319 150.912,48.6800019 151.008,48.296 C151.104,47.9119981 151.152,47.4960022 151.152,47.048 C151.152,46.5999978 151.104,46.1866686 151.008,45.808 C150.912,45.4293314 150.768001,45.1013347 150.576,44.824 C150.383999,44.5466653 150.149335,44.3306674 149.872,44.176 C149.594665,44.0213326 149.274668,43.944 148.912,43.944 C148.538665,43.944 148.213335,44.0213326 147.936,44.176 C147.658665,44.3306674 147.429334,44.5466653 147.248,44.824 C147.066666,45.1013347 146.928,45.4293314 146.832,45.808 C146.736,46.1866686 146.688,46.5999978 146.688,47.048 C146.688,47.4960022 146.736,47.9119981 146.832,48.296 C146.928,48.6800019 147.069332,49.0133319 147.256,49.296 C147.442668,49.5786681 147.677332,49.7999992 147.96,49.96 C148.242668,50.1200008 148.570665,50.2 148.944,50.2 Z M154.928,44.04 L153.584,44.04 L153.584,43.128 L153.872,43.128 C154.202668,43.128 154.461332,43.0933337 154.648,43.024 C154.834668,42.9546663 154.976,42.8480007 155.072,42.704 C155.168,42.5599993 155.237333,42.3706678 155.28,42.136 C155.322667,41.9013322 155.36,41.613335 155.392,41.272 L155.424,40.984 L156.256,40.984 L156.256,43.128 L157.952,43.128 L157.952,44.04 L156.256,44.04 L156.256,48.936 C156.256,49.3840022 156.322666,49.7066657 156.456,49.904 C156.589334,50.1013343 156.837332,50.2 157.2,50.2 C157.488001,50.2 157.754665,50.1360006 158,50.008 L158.144,50.968 C157.738665,51.1493342 157.290669,51.24 156.8,51.24 C156.415998,51.24 156.104001,51.1866672 155.864,51.08 C155.623999,50.9733328 155.434667,50.8293342 155.296,50.648 C155.157333,50.4666658 155.061334,50.2480013 155.008,49.992 C154.954666,49.7359987 154.928,49.4586682 154.928,49.16 L154.928,44.04 Z M160.56,47.368 C160.613334,48.2746712 160.845331,48.9759975 161.256,49.472 C161.666669,49.9680025 162.239996,50.216 162.976,50.216 C163.904005,50.216 164.602664,49.778671 165.072,48.904 L166.08,49.464 C165.770665,49.9866693 165.360003,50.4133317 164.848,50.744 C164.335997,51.0746683 163.690671,51.24 162.912,51.24 C162.29333,51.24 161.752002,51.1333344 161.288,50.92 C160.823998,50.7066656 160.437335,50.4133352 160.128,50.04 C159.818665,49.6666648 159.586667,49.2293358 159.432,48.728 C159.277333,48.2266642 159.2,47.6880029 159.2,47.112 C159.2,46.5466638 159.274666,46.0080026 159.424,45.496 C159.573334,44.9839974 159.799998,44.5360019 160.104,44.152 C160.408002,43.7679981 160.781331,43.4640011 161.224,43.24 C161.666669,43.0159989 162.186664,42.904 162.784,42.904 C163.360003,42.904 163.861331,43.0133322 164.288,43.232 C164.714669,43.4506678 165.069332,43.7439982 165.352,44.112 C165.634668,44.4800018 165.847999,44.9066642 165.992,45.392 C166.136001,45.8773358 166.208,46.3919973 166.208,46.936 C166.208,47.0533339 166.205333,47.1439997 166.2,47.208 C166.194667,47.2720003 166.192,47.3253331 166.192,47.368 L160.56,47.368 Z M162.768,43.912 C162.095997,43.912 161.576002,44.1519976 161.208,44.632 C160.839998,45.1120024 160.629334,45.7573293 160.576,46.568 L164.848,46.568 C164.848,46.2373317 164.810667,45.9146682 164.736,45.6 C164.661333,45.2853318 164.538668,45.0026679 164.368,44.752 C164.197332,44.5013321 163.981335,44.2986674 163.72,44.144 C163.458665,43.9893326 163.141335,43.912 162.768,43.912 Z M167.968,49.064 C168.234668,49.405335 168.578665,49.6879989 169,49.912 C169.421335,50.1360011 169.882664,50.248 170.384,50.248 C170.832002,50.248 171.221332,50.1413344 171.552,49.928 C171.882668,49.7146656 172.048,49.3946688 172.048,48.968 C172.048,48.6373317 171.938668,48.3786676 171.72,48.192 C171.501332,48.0053324 171.229335,47.8480006 170.904,47.72 C170.578665,47.5919994 170.224002,47.4746672 169.84,47.368 C169.455998,47.2613328 169.101335,47.1226675 168.776,46.952 C168.450665,46.7813325 168.178668,46.5573347 167.96,46.28 C167.741332,46.0026653 167.632,45.6240024 167.632,45.144 C167.632,44.7493314 167.711999,44.4106681 167.872,44.128 C168.032001,43.8453319 168.242665,43.6133342 168.504,43.432 C168.765335,43.2506658 169.066665,43.1173338 169.408,43.032 C169.749335,42.9466662 170.106665,42.904 170.48,42.904 C171.589339,42.904 172.511996,43.2239968 173.248,43.864 L172.576,44.76 C172.341332,44.5146654 172.029335,44.3093342 171.64,44.144 C171.250665,43.9786658 170.848002,43.896 170.432,43.896 C170.250666,43.896 170.072001,43.9173331 169.896,43.96 C169.719999,44.0026669 169.565334,44.0693329 169.432,44.16 C169.298666,44.2506671 169.192,44.3653326 169.112,44.504 C169.032,44.6426674 168.992,44.8133323 168.992,45.016 C168.992,45.3253349 169.101332,45.5653325 169.32,45.736 C169.538668,45.9066675 169.810665,46.0533327 170.136,46.176 C170.461335,46.2986673 170.813331,46.4159994 171.192,46.528 C171.570669,46.6400006 171.922665,46.7839991 172.248,46.96 C172.573335,47.1360009 172.845332,47.3679986 173.064,47.656 C173.282668,47.9440014 173.392,48.3279976 173.392,48.808 C173.392,49.2133354 173.309334,49.5679985 173.144,49.872 C172.978666,50.1760015 172.760001,50.4293323 172.488,50.632 C172.215999,50.8346677 171.901335,50.9866662 171.544,51.088 C171.186665,51.1893338 170.816002,51.24 170.432,51.24 C169.109327,51.24 168.058671,50.8133376 167.28,49.96 L167.968,49.064 Z" id="H5-Regular-16--Copy" fill="#D2D6D9"></path>
                        <path d="M233.12,39.704 L236.528,39.704 C238.48001,39.704 239.914662,40.1759953 240.832,41.12 C241.749338,42.0640047 242.208,43.4799906 242.208,45.368 C242.208,47.1920091 241.749338,48.5866618 240.832,49.552 C239.914662,50.5173382 238.538676,51 236.704,51 L233.12,51 L233.12,39.704 Z M236.592,49.88 C237.360004,49.88 238.005331,49.7680011 238.528,49.544 C239.050669,49.3199989 239.471998,49.008002 239.792,48.608 C240.112002,48.207998 240.338666,47.7280028 240.472,47.168 C240.605334,46.6079972 240.672,45.9973366 240.672,45.336 C240.672,44.6959968 240.605334,44.1013361 240.472,43.552 C240.338666,43.0026639 240.112002,42.5253354 239.792,42.12 C239.471998,41.7146646 239.040003,41.3973345 238.496,41.168 C237.951997,40.9386655 237.269337,40.824 236.448,40.824 L234.56,40.824 L234.56,49.88 L236.592,49.88 Z M244.912,47.368 C244.965334,48.2746712 245.197331,48.9759975 245.608,49.472 C246.018669,49.9680025 246.591996,50.216 247.328,50.216 C248.256005,50.216 248.954664,49.778671 249.424,48.904 L250.432,49.464 C250.122665,49.9866693 249.712003,50.4133317 249.2,50.744 C248.687997,51.0746683 248.042671,51.24 247.264,51.24 C246.64533,51.24 246.104002,51.1333344 245.64,50.92 C245.175998,50.7066656 244.789335,50.4133352 244.48,50.04 C244.170665,49.6666648 243.938667,49.2293358 243.784,48.728 C243.629333,48.2266642 243.552,47.6880029 243.552,47.112 C243.552,46.5466638 243.626666,46.0080026 243.776,45.496 C243.925334,44.9839974 244.151998,44.5360019 244.456,44.152 C244.760002,43.7679981 245.133331,43.4640011 245.576,43.24 C246.018669,43.0159989 246.538664,42.904 247.136,42.904 C247.712003,42.904 248.213331,43.0133322 248.64,43.232 C249.066669,43.4506678 249.421332,43.7439982 249.704,44.112 C249.986668,44.4800018 250.199999,44.9066642 250.344,45.392 C250.488001,45.8773358 250.56,46.3919973 250.56,46.936 C250.56,47.0533339 250.557333,47.1439997 250.552,47.208 C250.546667,47.2720003 250.544,47.3253331 250.544,47.368 L244.912,47.368 Z M247.12,43.912 C246.447997,43.912 245.928002,44.1519976 245.56,44.632 C245.191998,45.1120024 244.981334,45.7573293 244.928,46.568 L249.2,46.568 C249.2,46.2373317 249.162667,45.9146682 249.088,45.6 C249.013333,45.2853318 248.890668,45.0026679 248.72,44.752 C248.549332,44.5013321 248.333335,44.2986674 248.072,44.144 C247.810665,43.9893326 247.493335,43.912 247.12,43.912 Z M252.176,43.128 L253.504,43.128 L253.504,44.648 C253.6,44.4239989 253.722666,44.2053344 253.872,43.992 C254.021334,43.7786656 254.199999,43.5920008 254.408,43.432 C254.616001,43.2719992 254.858665,43.1440005 255.136,43.048 C255.413335,42.9519995 255.727998,42.904 256.08,42.904 C256.592003,42.904 257.037331,43.0106656 257.416,43.224 C257.794669,43.4373344 258.106665,43.7306648 258.352,44.104 C258.597335,44.4773352 258.781333,44.9119975 258.904,45.408 C259.026667,45.9040025 259.088,46.4399971 259.088,47.016 C259.088,47.6986701 259.008001,48.3013307 258.848,48.824 C258.687999,49.3466693 258.464001,49.7839982 258.176,50.136 C257.887999,50.4880018 257.552002,50.7546658 257.168,50.936 C256.783998,51.1173342 256.368002,51.208 255.92,51.208 C255.33333,51.208 254.829335,51.0640014 254.408,50.776 C253.986665,50.4879986 253.685334,50.1306688 253.504,49.704 L253.504,53.768 L252.176,53.768 L252.176,43.128 Z M253.504,47.112 C253.504,47.3360011 253.512,47.5413324 253.528,47.728 C253.544,47.9146676 253.562667,48.0719994 253.584,48.2 C253.626667,48.4560013 253.706666,48.7013322 253.824,48.936 C253.941334,49.1706678 254.085332,49.3759991 254.256,49.552 C254.426668,49.7280009 254.626666,49.8693328 254.856,49.976 C255.085334,50.0826672 255.338665,50.136 255.616,50.136 C255.978668,50.136 256.290665,50.0506675 256.552,49.88 C256.813335,49.7093325 257.029332,49.4800014 257.2,49.192 C257.370668,48.9039986 257.496,48.5760018 257.576,48.208 C257.656,47.8399982 257.696,47.4586686 257.696,47.064 C257.696,46.6693314 257.658667,46.2880018 257.584,45.92 C257.509333,45.5519982 257.389334,45.2266681 257.224,44.944 C257.058666,44.6613319 256.842668,44.4346675 256.576,44.264 C256.309332,44.0933325 255.989335,44.008 255.616,44.008 C255.327999,44.008 255.064001,44.0613328 254.824,44.168 C254.583999,44.2746672 254.378668,44.4186658 254.208,44.6 C254.037332,44.7813342 253.896001,44.9893322 253.784,45.224 C253.671999,45.4586678 253.6,45.7039987 253.568,45.96 C253.546667,46.0666672 253.530667,46.2133324 253.52,46.4 C253.509333,46.5866676 253.504,46.8026654 253.504,47.048 L253.504,47.112 Z M265.728,51 C265.610666,50.6159981 265.541333,50.157336 265.52,49.624 C265.306666,50.1146691 264.978669,50.5066652 264.536,50.8 C264.093331,51.0933348 263.568003,51.24 262.96,51.24 C262.191996,51.24 261.584002,51.0213355 261.136,50.584 C260.687998,50.1466645 260.464,49.5600037 260.464,48.824 C260.464,48.4079979 260.538666,48.0586681 260.688,47.776 C260.837334,47.4933319 261.045332,47.2586676 261.312,47.072 C261.578668,46.8853324 261.893332,46.7386672 262.256,46.632 C262.618668,46.5253328 263.013331,46.4400003 263.44,46.376 L265.456,46.072 L265.456,45.576 C265.456,45.2239982 265.413334,44.9413344 265.328,44.728 C265.242666,44.5146656 265.125334,44.3493339 264.976,44.232 C264.826666,44.1146661 264.656001,44.0373335 264.464,44 C264.271999,43.9626665 264.069334,43.944 263.856,43.944 C263.247997,43.944 262.746669,44.0559989 262.352,44.28 C261.957331,44.5040011 261.626668,44.786665 261.36,45.128 L260.672,44.264 C260.981335,43.8906648 261.410664,43.570668 261.96,43.304 C262.509336,43.037332 263.189329,42.904 264,42.904 C264.981338,42.904 265.693331,43.1226645 266.136,43.56 C266.578669,43.9973355 266.8,44.7013285 266.8,45.672 L266.8,48.856 C266.8,49.1120013 266.802667,49.335999 266.808,49.528 C266.813333,49.720001 266.824,49.8986658 266.84,50.064 C266.856,50.2293342 266.88,50.3866659 266.912,50.536 C266.944,50.6853341 266.986666,50.8399992 267.04,51 L265.728,51 Z M265.456,46.952 L263.568,47.256 C262.91733,47.3733339 262.456001,47.5493322 262.184,47.784 C261.911999,48.0186678 261.776,48.3439979 261.776,48.76 C261.776,49.1866688 261.901332,49.5439986 262.152,49.832 C262.402668,50.1200014 262.773331,50.264 263.264,50.264 C263.562668,50.264 263.845332,50.2053339 264.112,50.088 C264.378668,49.9706661 264.610666,49.808001 264.808,49.6 C265.005334,49.391999 265.162666,49.1413348 265.28,48.848 C265.397334,48.5546652 265.456,48.2320018 265.456,47.88 L265.456,46.952 Z M268.928,43.128 L270.08,43.128 L270.208,44.888 C270.432001,44.3119971 270.789331,43.8373352 271.28,43.464 C271.770669,43.0906648 272.351997,42.904 273.024,42.904 L273.024,44.312 C272.874666,44.2799998 272.709334,44.264 272.528,44.264 C272.261332,44.264 271.994668,44.3119995 271.728,44.408 C271.461332,44.5040005 271.218668,44.6586656 271,44.872 C270.781332,45.0853344 270.602667,45.3599983 270.464,45.696 C270.325333,46.0320017 270.256,46.4399976 270.256,46.92 L270.256,51 L268.928,51 L268.928,43.128 Z M275.024,44.04 L273.68,44.04 L273.68,43.128 L273.968,43.128 C274.298668,43.128 274.557332,43.0933337 274.744,43.024 C274.930668,42.9546663 275.072,42.8480007 275.168,42.704 C275.264,42.5599993 275.333333,42.3706678 275.376,42.136 C275.418667,41.9013322 275.456,41.613335 275.488,41.272 L275.52,40.984 L276.352,40.984 L276.352,43.128 L278.048,43.128 L278.048,44.04 L276.352,44.04 L276.352,48.936 C276.352,49.3840022 276.418666,49.7066657 276.552,49.904 C276.685334,50.1013343 276.933332,50.2 277.296,50.2 C277.584001,50.2 277.850665,50.1360006 278.096,50.008 L278.24,50.968 C277.834665,51.1493342 277.386669,51.24 276.896,51.24 C276.511998,51.24 276.200001,51.1866672 275.96,51.08 C275.719999,50.9733328 275.530667,50.8293342 275.392,50.648 C275.253333,50.4666658 275.157334,50.2480013 275.104,49.992 C275.050666,49.7359987 275.024,49.4586682 275.024,49.16 L275.024,44.04 Z M279.616,43.128 L280.96,43.128 L280.96,47.896 C280.96,48.6426704 281.098665,49.1893316 281.376,49.536 C281.653335,49.8826684 282.042664,50.056 282.544,50.056 C283.184003,50.056 283.682665,49.8026692 284.04,49.296 C284.397335,48.7893308 284.576,48.1146709 284.576,47.272 L284.576,43.128 L285.904,43.128 L285.904,51 L284.656,51 L284.656,49.4 C284.56,49.6453346 284.442667,49.8773322 284.304,50.096 C284.165333,50.3146678 283.994668,50.5066658 283.792,50.672 C283.589332,50.8373342 283.354668,50.9679995 283.088,51.064 C282.821332,51.1600005 282.506668,51.208 282.144,51.208 C281.290662,51.208 280.656002,50.9493359 280.24,50.432 C279.823998,49.9146641 279.616,49.1813381 279.616,48.232 L279.616,43.128 Z M287.952,43.128 L289.104,43.128 L289.232,44.888 C289.456001,44.3119971 289.813331,43.8373352 290.304,43.464 C290.794669,43.0906648 291.375997,42.904 292.048,42.904 L292.048,44.312 C291.898666,44.2799998 291.733334,44.264 291.552,44.264 C291.285332,44.264 291.018668,44.3119995 290.752,44.408 C290.485332,44.5040005 290.242668,44.6586656 290.024,44.872 C289.805332,45.0853344 289.626667,45.3599983 289.488,45.696 C289.349333,46.0320017 289.28,46.4399976 289.28,46.92 L289.28,51 L287.952,51 L287.952,43.128 Z M294.368,47.368 C294.421334,48.2746712 294.653331,48.9759975 295.064,49.472 C295.474669,49.9680025 296.047996,50.216 296.784,50.216 C297.712005,50.216 298.410664,49.778671 298.88,48.904 L299.888,49.464 C299.578665,49.9866693 299.168003,50.4133317 298.656,50.744 C298.143997,51.0746683 297.498671,51.24 296.72,51.24 C296.10133,51.24 295.560002,51.1333344 295.096,50.92 C294.631998,50.7066656 294.245335,50.4133352 293.936,50.04 C293.626665,49.6666648 293.394667,49.2293358 293.24,48.728 C293.085333,48.2266642 293.008,47.6880029 293.008,47.112 C293.008,46.5466638 293.082666,46.0080026 293.232,45.496 C293.381334,44.9839974 293.607998,44.5360019 293.912,44.152 C294.216002,43.7679981 294.589331,43.4640011 295.032,43.24 C295.474669,43.0159989 295.994664,42.904 296.592,42.904 C297.168003,42.904 297.669331,43.0133322 298.096,43.232 C298.522669,43.4506678 298.877332,43.7439982 299.16,44.112 C299.442668,44.4800018 299.655999,44.9066642 299.8,45.392 C299.944001,45.8773358 300.016,46.3919973 300.016,46.936 C300.016,47.0533339 300.013333,47.1439997 300.008,47.208 C300.002667,47.2720003 300,47.3253331 300,47.368 L294.368,47.368 Z M296.576,43.912 C295.903997,43.912 295.384002,44.1519976 295.016,44.632 C294.647998,45.1120024 294.437334,45.7573293 294.384,46.568 L298.656,46.568 C298.656,46.2373317 298.618667,45.9146682 298.544,45.6 C298.469333,45.2853318 298.346668,45.0026679 298.176,44.752 C298.005332,44.5013321 297.789335,44.2986674 297.528,44.144 C297.266665,43.9893326 296.949335,43.912 296.576,43.912 Z M301.776,49.064 C302.042668,49.405335 302.386665,49.6879989 302.808,49.912 C303.229335,50.1360011 303.690664,50.248 304.192,50.248 C304.640002,50.248 305.029332,50.1413344 305.36,49.928 C305.690668,49.7146656 305.856,49.3946688 305.856,48.968 C305.856,48.6373317 305.746668,48.3786676 305.528,48.192 C305.309332,48.0053324 305.037335,47.8480006 304.712,47.72 C304.386665,47.5919994 304.032002,47.4746672 303.648,47.368 C303.263998,47.2613328 302.909335,47.1226675 302.584,46.952 C302.258665,46.7813325 301.986668,46.5573347 301.768,46.28 C301.549332,46.0026653 301.44,45.6240024 301.44,45.144 C301.44,44.7493314 301.519999,44.4106681 301.68,44.128 C301.840001,43.8453319 302.050665,43.6133342 302.312,43.432 C302.573335,43.2506658 302.874665,43.1173338 303.216,43.032 C303.557335,42.9466662 303.914665,42.904 304.288,42.904 C305.397339,42.904 306.319996,43.2239968 307.056,43.864 L306.384,44.76 C306.149332,44.5146654 305.837335,44.3093342 305.448,44.144 C305.058665,43.9786658 304.656002,43.896 304.24,43.896 C304.058666,43.896 303.880001,43.9173331 303.704,43.96 C303.527999,44.0026669 303.373334,44.0693329 303.24,44.16 C303.106666,44.2506671 303,44.3653326 302.92,44.504 C302.84,44.6426674 302.8,44.8133323 302.8,45.016 C302.8,45.3253349 302.909332,45.5653325 303.128,45.736 C303.346668,45.9066675 303.618665,46.0533327 303.944,46.176 C304.269335,46.2986673 304.621331,46.4159994 305,46.528 C305.378669,46.6400006 305.730665,46.7839991 306.056,46.96 C306.381335,47.1360009 306.653332,47.3679986 306.872,47.656 C307.090668,47.9440014 307.2,48.3279976 307.2,48.808 C307.2,49.2133354 307.117334,49.5679985 306.952,49.872 C306.786666,50.1760015 306.568001,50.4293323 306.296,50.632 C306.023999,50.8346677 305.709335,50.9866662 305.352,51.088 C304.994665,51.1893338 304.624002,51.24 304.24,51.24 C302.917327,51.24 301.866671,50.8133376 301.088,49.96 L301.776,49.064 Z" id="H5-Regular-16--Copy-2" fill="#FFFFFF"></path>
                        <path d="M49,15.7142857 L49,21.7142857 C49,21.8392863 48.9598218,21.9419639 48.8794643,22.0223214 C48.7991067,22.102679 48.6964292,22.1428571 48.5714286,22.1428571 L44.2857143,22.1428571 C44.1607137,22.1428571 44.0580361,22.102679 43.9776786,22.0223214 C43.897321,21.9419639 43.8571429,21.8392863 43.8571429,21.7142857 L43.8571429,20.8571429 C43.8571429,20.7321422 43.897321,20.6294647 43.9776786,20.5491071 C44.0580361,20.4687496 44.1607137,20.4285714 44.2857143,20.4285714 L47.2857143,20.4285714 L47.2857143,15.7142857 C47.2857143,15.5892851 47.3258925,15.4866075 47.40625,15.40625 C47.4866075,15.3258925 47.5892851,15.2857143 47.7142857,15.2857143 L48.5714286,15.2857143 C48.6964292,15.2857143 48.7991067,15.3258925 48.8794643,15.40625 C48.9598218,15.4866075 49,15.5892851 49,15.7142857 Z M53.59375,24.0848214 C54.245539,22.9687444 54.5714286,21.7500066 54.5714286,20.4285714 C54.5714286,19.1071362 54.245539,17.8883984 53.59375,16.7723214 C52.941961,15.6562444 52.0580413,14.7723247 50.9419643,14.1205357 C49.8258873,13.4687467 48.6071495,13.1428571 47.2857143,13.1428571 C45.9642791,13.1428571 44.7455413,13.4687467 43.6294643,14.1205357 C42.5133873,14.7723247 41.6294675,15.6562444 40.9776786,16.7723214 C40.3258896,17.8883984 40,19.1071362 40,20.4285714 C40,21.7500066 40.3258896,22.9687444 40.9776786,24.0848214 C41.6294675,25.2008984 42.5133873,26.0848182 43.6294643,26.7366071 C44.7455413,27.3883961 45.9642791,27.7142857 47.2857143,27.7142857 C48.6071495,27.7142857 49.8258873,27.3883961 50.9419643,26.7366071 C52.0580413,26.0848182 52.941961,25.2008984 53.59375,24.0848214 Z M56.1919643,15.2723214 C57.1116117,16.8437579 57.5714286,18.5624907 57.5714286,20.4285714 C57.5714286,22.2946522 57.1116117,24.0156171 56.1919643,25.5915179 C55.2723168,27.1674186 54.0245615,28.415174 52.4486607,29.3348214 C50.87276,30.2544689 49.151795,30.7142857 47.2857143,30.7142857 C45.4196335,30.7142857 43.6986686,30.2544689 42.1227679,29.3348214 C40.5468671,28.415174 39.2991117,27.1674186 38.3794643,25.5915179 C37.4598168,24.0156171 37,22.2946522 37,20.4285714 C37,18.5624907 37.4598168,16.8415257 38.3794643,15.265625 C39.2991117,13.6897243 40.5468671,12.4419689 42.1227679,11.5223214 C43.6986686,10.602674 45.4196335,10.1428571 47.2857143,10.1428571 C49.151795,10.1428571 50.87276,10.602674 52.4486607,11.5223214 C54.0245615,12.4419689 55.2723168,13.6919564 56.1919643,15.2723214 Z" id="Clock-Outlined---FontAwesome" fill="#D2D6D9"></path>
                        <path d="M153.456473,29 L154.573661,27.8828125 L151.688616,24.9977679 L150.571429,26.1149554 L150.571429,27.4285714 L152.142857,27.4285714 L152.142857,29 L153.456473,29 Z M159.877232,17.6071429 C159.877232,17.4270824 159.787203,17.3370536 159.607143,17.3370536 C159.525297,17.3370536 159.455729,17.3656991 159.398438,17.4229911 L152.74442,24.0770089 C152.687128,24.1343009 152.658482,24.2038686 152.658482,24.2857143 C152.658482,24.4657747 152.748511,24.5558036 152.928571,24.5558036 C153.010417,24.5558036 153.079985,24.527158 153.137277,24.4698661 L159.791295,17.8158482 C159.848587,17.7585563 159.877232,17.6889885 159.877232,17.6071429 Z M159.214286,15.25 L164.321429,20.3571429 L154.107143,30.5714286 L149,30.5714286 L149,25.4642857 L159.214286,15.25 Z M167.59933,16.4285714 C167.59933,16.8623534 167.447918,17.2306532 167.145089,17.5334821 L165.107143,19.5714286 L160,14.4642857 L162.037946,12.4386161 C162.332591,12.1276026 162.700891,11.9720982 163.142857,11.9720982 C163.576639,11.9720982 163.949031,12.1276026 164.260045,12.4386161 L167.145089,15.3113839 C167.447918,15.630582 167.59933,16.0029741 167.59933,16.4285714 Z" id="ï€-copy-2" fill="#D2D6D9"></path>
                        <path d="M278.65625,10.2779018 C278.926341,10.4743313 279.036831,10.7362335 278.987723,11.0636161 L275.844866,29.9207589 C275.803943,30.1581113 275.672992,30.3422612 275.452009,30.4732143 C275.337425,30.5386908 275.210566,30.5714286 275.071429,30.5714286 C274.981398,30.5714286 274.883185,30.5509675 274.776786,30.5100446 L269.215402,28.2388393 L266.24442,31.8604911 C266.097097,32.0487361 265.896579,32.1428571 265.642857,32.1428571 C265.536458,32.1428571 265.446429,32.1264883 265.372768,32.09375 C265.217261,32.036458 265.092448,31.9402909 264.998326,31.8052455 C264.904203,31.6702002 264.857143,31.5208342 264.857143,31.3571429 L264.857143,27.0725446 L275.464286,14.0714286 L262.340402,25.4274554 L257.491071,23.4386161 C257.188243,23.3240322 257.024554,23.09896 257,22.7633929 C256.983631,22.4360103 257.114582,22.1945692 257.392857,22.0390625 L277.821429,10.2533482 C277.944197,10.1796871 278.075148,10.1428571 278.214286,10.1428571 C278.377977,10.1428571 278.525297,10.1878716 278.65625,10.2779018 Z" id="paper-plane---FontAwesome" fill="#FFFFFF"></path>
                    </g>
                    <path d="M211.5,68.5 L320.5,68.5" id="Active-line-Copy-2" stroke="#BFDC24" stroke-width="3" stroke-linecap="square"></path>
                </g>
            </g>
        </g>
    </g>
</svg>