<?xml version="1.0" encoding="UTF-8"?>
<svg width="350px" height="46px" viewBox="0 0 350 46" version="1.1" xmlns="http://www.w3.org/2000/svg" xmlns:xlink="http://www.w3.org/1999/xlink">
    <!-- Generator: Sketch 47 (45396) - http://www.bohemiancoding.com/sketch -->
    <title>LongLabels</title>
    <desc>Created with Sketch.</desc>
    <defs>
        <rect id="path-1" x="0" y="0" width="350" height="46"></rect>
    </defs>
    <g id="Page-1" stroke="none" stroke-width="1" fill="none" fill-rule="evenodd">
        <g id="Buttons-Usage-extra-large-1200" transform="translate(-769.000000, -2062.000000)">
            <g id="LongLabels" transform="translate(769.000000, 2062.000000)">
                <g id="Panel">
                    <use fill="#FFFFFF" fill-rule="evenodd" xlink:href="#path-1"></use>
                    <rect stroke="#D2D6D9" stroke-width="1" x="0.5" y="0.5" width="349" height="45"></rect>
                </g>
                <g id="Group-2" transform="translate(12.000000, 15.000000)">
                    <path d="M90,0 L90,16" id="Line" stroke="#D2D6D9" stroke-linecap="square"></path>
                    <path d="M212,0 L212,16" id="Line-Copy-3" stroke="#D2D6D9" stroke-linecap="square"></path>
                    <path d="M4.416,1.704 L5.744,1.704 L9.728,13 L8.224,13 L7.216,9.96 L2.864,9.96 L1.856,13 L0.4,13 L4.416,1.704 Z M6.832,8.856 C6.53333184,7.92799536 6.2373348,7.01867112 5.944,6.128 C5.6506652,5.23732888 5.35466816,4.30133824 5.056,3.32 C4.77866528,4.2800048 4.48533488,5.21066216 4.176,6.112 C3.86666512,7.01333784 3.55733488,7.92799536 3.248,8.856 L6.832,8.856 Z M11.152,1.704 L12.48,1.704 L12.48,13 L11.152,13 L11.152,1.704 Z M14.528,1.704 L15.856,1.704 L15.856,13 L14.528,13 L14.528,1.704 Z M26.448,13 C26.3306661,12.6159981 26.2613334,12.157336 26.24,11.624 C26.0266656,12.1146691 25.6986689,12.5066652 25.256,12.8 C24.8133311,13.0933348 24.288003,13.24 23.68,13.24 C22.9119962,13.24 22.3040022,13.0213355 21.856,12.584 C21.4079978,12.1466645 21.184,11.5600037 21.184,10.824 C21.184,10.4079979 21.2586659,10.0586681 21.408,9.776 C21.5573341,9.49333192 21.765332,9.2586676 22.032,9.072 C22.298668,8.8853324 22.6133315,8.7386672 22.976,8.632 C23.3386685,8.5253328 23.7333312,8.44000032 24.16,8.376 L26.176,8.072 L26.176,7.576 C26.176,7.22399824 26.1333338,6.9413344 26.048,6.728 C25.9626662,6.5146656 25.8453341,6.34933392 25.696,6.232 C25.5466659,6.11466608 25.376001,6.03733352 25.184,6 C24.991999,5.96266648 24.7893344,5.944 24.576,5.944 C23.967997,5.944 23.4666686,6.05599888 23.072,6.28 C22.6773314,6.50400112 22.346668,6.78666496 22.08,7.128 L21.392,6.264 C21.7013349,5.8906648 22.1306639,5.570668 22.68,5.304 C23.2293361,5.037332 23.9093293,4.904 24.72,4.904 C25.7013382,4.904 26.4133311,5.12266448 26.856,5.56 C27.2986689,5.99733552 27.52,6.70132848 27.52,7.672 L27.52,10.856 C27.52,11.1120013 27.5226666,11.335999 27.528,11.528 C27.5333334,11.720001 27.5439999,11.8986658 27.56,12.064 C27.5760001,12.2293342 27.5999998,12.3866659 27.632,12.536 C27.6640002,12.6853341 27.7066664,12.8399992 27.76,13 L26.448,13 Z M26.176,8.952 L24.288,9.256 C23.6373301,9.37333392 23.1760014,9.54933216 22.904,9.784 C22.6319986,10.0186678 22.496,10.3439979 22.496,10.76 C22.496,11.1866688 22.6213321,11.5439986 22.872,11.832 C23.1226679,12.1200014 23.4933309,12.264 23.984,12.264 C24.2826682,12.264 24.565332,12.2053339 24.832,12.088 C25.098668,11.9706661 25.3306657,11.808001 25.528,11.6 C25.7253343,11.391999 25.8826661,11.1413348 26,10.848 C26.1173339,10.5546652 26.176,10.2320018 26.176,9.88 L26.176,8.952 Z M29.04,5.128 L30.544,5.128 L32.464,11.752 L34.368,5.128 L35.808,5.128 L33.216,13 L31.616,13 L29.04,5.128 Z M42.176,13 C42.0586661,12.6159981 41.9893334,12.157336 41.968,11.624 C41.7546656,12.1146691 41.4266689,12.5066652 40.984,12.8 C40.5413311,13.0933348 40.016003,13.24 39.408,13.24 C38.6399962,13.24 38.0320022,13.0213355 37.584,12.584 C37.1359978,12.1466645 36.912,11.5600037 36.912,10.824 C36.912,10.4079979 36.9866659,10.0586681 37.136,9.776 C37.2853341,9.49333192 37.493332,9.2586676 37.76,9.072 C38.026668,8.8853324 38.3413315,8.7386672 38.704,8.632 C39.0666685,8.5253328 39.4613312,8.44000032 39.888,8.376 L41.904,8.072 L41.904,7.576 C41.904,7.22399824 41.8613338,6.9413344 41.776,6.728 C41.6906662,6.5146656 41.5733341,6.34933392 41.424,6.232 C41.2746659,6.11466608 41.104001,6.03733352 40.912,6 C40.719999,5.96266648 40.5173344,5.944 40.304,5.944 C39.695997,5.944 39.1946686,6.05599888 38.8,6.28 C38.4053314,6.50400112 38.074668,6.78666496 37.808,7.128 L37.12,6.264 C37.4293349,5.8906648 37.8586639,5.570668 38.408,5.304 C38.9573361,5.037332 39.6373293,4.904 40.448,4.904 C41.4293382,4.904 42.1413311,5.12266448 42.584,5.56 C43.0266689,5.99733552 43.248,6.70132848 43.248,7.672 L43.248,10.856 C43.248,11.1120013 43.2506666,11.335999 43.256,11.528 C43.2613334,11.720001 43.2719999,11.8986658 43.288,12.064 C43.3040001,12.2293342 43.3279998,12.3866659 43.36,12.536 C43.3920002,12.6853341 43.4346664,12.8399992 43.488,13 L42.176,13 Z M41.904,8.952 L40.016,9.256 C39.3653301,9.37333392 38.9040014,9.54933216 38.632,9.784 C38.3599986,10.0186678 38.224,10.3439979 38.224,10.76 C38.224,11.1866688 38.3493321,11.5439986 38.6,11.832 C38.8506679,12.1200014 39.2213309,12.264 39.712,12.264 C40.0106682,12.264 40.293332,12.2053339 40.56,12.088 C40.826668,11.9706661 41.0586657,11.808001 41.256,11.6 C41.4533343,11.391999 41.6106661,11.1413348 41.728,10.848 C41.8453339,10.5546652 41.904,10.2320018 41.904,9.88 L41.904,8.952 Z M45.376,2.072 L46.704,2.072 L46.704,3.4 L45.376,3.4 L45.376,2.072 Z M45.376,5.128 L46.704,5.128 L46.704,13 L45.376,13 L45.376,5.128 Z M48.752,1.704 L50.08,1.704 L50.08,13 L48.752,13 L48.752,1.704 Z M57.072,13 C56.9546661,12.6159981 56.8853334,12.157336 56.864,11.624 C56.6506656,12.1146691 56.3226689,12.5066652 55.88,12.8 C55.4373311,13.0933348 54.912003,13.24 54.304,13.24 C53.5359962,13.24 52.9280022,13.0213355 52.48,12.584 C52.0319978,12.1466645 51.808,11.5600037 51.808,10.824 C51.808,10.4079979 51.8826659,10.0586681 52.032,9.776 C52.1813341,9.49333192 52.389332,9.2586676 52.656,9.072 C52.922668,8.8853324 53.2373315,8.7386672 53.6,8.632 C53.9626685,8.5253328 54.3573312,8.44000032 54.784,8.376 L56.8,8.072 L56.8,7.576 C56.8,7.22399824 56.7573338,6.9413344 56.672,6.728 C56.5866662,6.5146656 56.4693341,6.34933392 56.32,6.232 C56.1706659,6.11466608 56.000001,6.03733352 55.808,6 C55.615999,5.96266648 55.4133344,5.944 55.2,5.944 C54.591997,5.944 54.0906686,6.05599888 53.696,6.28 C53.3013314,6.50400112 52.970668,6.78666496 52.704,7.128 L52.016,6.264 C52.3253349,5.8906648 52.7546639,5.570668 53.304,5.304 C53.8533361,5.037332 54.5333293,4.904 55.344,4.904 C56.3253382,4.904 57.0373311,5.12266448 57.48,5.56 C57.9226689,5.99733552 58.144,6.70132848 58.144,7.672 L58.144,10.856 C58.144,11.1120013 58.1466666,11.335999 58.152,11.528 C58.1573334,11.720001 58.1679999,11.8986658 58.184,12.064 C58.2000001,12.2293342 58.2239998,12.3866659 58.256,12.536 C58.2880002,12.6853341 58.3306664,12.8399992 58.384,13 L57.072,13 Z M56.8,8.952 L54.912,9.256 C54.2613301,9.37333392 53.8000014,9.54933216 53.528,9.784 C53.2559986,10.0186678 53.12,10.3439979 53.12,10.76 C53.12,11.1866688 53.2453321,11.5439986 53.496,11.832 C53.7466679,12.1200014 54.1173309,12.264 54.608,12.264 C54.9066682,12.264 55.189332,12.2053339 55.456,12.088 C55.722668,11.9706661 55.9546657,11.808001 56.152,11.6 C56.3493343,11.391999 56.5066661,11.1413348 56.624,10.848 C56.7413339,10.5546652 56.8,10.2320018 56.8,9.88 L56.8,8.952 Z M60.272,1.704 L61.6,1.704 L61.6,6.52 C61.8133344,6.07199776 62.1306646,5.69066824 62.552,5.376 C62.9733354,5.06133176 63.4986635,4.904 64.128,4.904 C64.586669,4.904 65.0053314,4.99999904 65.384,5.192 C65.7626686,5.38400096 66.085332,5.65866488 66.352,6.016 C66.618668,6.37333512 66.8239993,6.80266416 66.968,7.304 C67.1120007,7.80533584 67.184,8.36533024 67.184,8.984 C67.184,9.59200304 67.1120007,10.1546641 66.968,10.672 C66.8239993,11.1893359 66.618668,11.6346648 66.352,12.008 C66.085332,12.3813352 65.7573353,12.6746656 65.368,12.888 C64.9786647,13.1013344 64.5386691,13.208 64.048,13.208 C63.4719971,13.208 62.9600022,13.0613348 62.512,12.768 C62.0639978,12.4746652 61.7280011,12.0560027 61.504,11.512 L61.344,13 L60.272,13 L60.272,1.704 Z M61.6,9.096 C61.6,9.33066784 61.6079999,9.5413324 61.624,9.728 C61.6400001,9.9146676 61.6586666,10.0719994 61.68,10.2 C61.7226669,10.4560013 61.8026661,10.7013322 61.92,10.936 C62.0373339,11.1706678 62.1813325,11.3759991 62.352,11.552 C62.5226675,11.7280009 62.7226655,11.8693328 62.952,11.976 C63.1813345,12.0826672 63.4346653,12.136 63.712,12.136 C64.0746685,12.136 64.3866654,12.0480009 64.648,11.872 C64.9093346,11.6959991 65.1253325,11.4640014 65.296,11.176 C65.4666675,10.8879986 65.5919996,10.5600018 65.672,10.192 C65.7520004,9.82399816 65.792,9.44800192 65.792,9.064 C65.792,8.66933136 65.7493338,8.28800184 65.664,7.92 C65.5786662,7.55199816 65.4506675,7.22666808 65.28,6.944 C65.1093325,6.66133192 64.890668,6.43466752 64.624,6.264 C64.357332,6.09333248 64.0426685,6.008 63.68,6.008 C63.3919986,6.008 63.1333345,6.05866616 62.904,6.16 C62.6746655,6.26133384 62.4746675,6.39999912 62.304,6.576 C62.1333325,6.75200088 61.9946672,6.95733216 61.888,7.192 C61.7813328,7.42666784 61.7066669,7.677332 61.664,7.944 C61.6426666,8.0506672 61.6266667,8.18666584 61.616,8.352 C61.6053333,8.51733416 61.6,8.74933184 61.6,9.048 L61.6,9.096 Z M68.88,1.704 L70.208,1.704 L70.208,13 L68.88,13 L68.88,1.704 Z M73.264,9.368 C73.3173336,10.2746712 73.5493313,10.9759975 73.96,11.472 C74.3706687,11.9680025 74.9439963,12.216 75.68,12.216 C76.6080046,12.216 77.3066643,11.778671 77.776,10.904 L78.784,11.464 C78.4746651,11.9866693 78.0640026,12.4133317 77.552,12.744 C77.0399974,13.0746683 76.3946706,13.24 75.616,13.24 C74.9973302,13.24 74.4560023,13.1333344 73.992,12.92 C73.5279977,12.7066656 73.1413349,12.4133352 72.832,12.04 C72.5226651,11.6666648 72.2906674,11.2293358 72.136,10.728 C71.9813326,10.2266642 71.904,9.68800288 71.904,9.112 C71.904,8.54666384 71.9786659,8.00800256 72.128,7.496 C72.2773341,6.98399744 72.5039985,6.53600192 72.808,6.152 C73.1120015,5.76799808 73.4853311,5.46400112 73.928,5.24 C74.3706689,5.01599888 74.8906637,4.904 75.488,4.904 C76.0640029,4.904 76.5653312,5.01333224 76.992,5.232 C77.4186688,5.45066776 77.7733319,5.74399816 78.056,6.112 C78.3386681,6.48000184 78.5519993,6.90666424 78.696,7.392 C78.8400007,7.87733576 78.912,8.39199728 78.912,8.936 C78.912,9.05333392 78.9093334,9.14399968 78.904,9.208 C78.8986666,9.27200032 78.896,9.32533312 78.896,9.368 L73.264,9.368 Z M75.472,5.912 C74.7999966,5.912 74.2800018,6.1519976 73.912,6.632 C73.5439982,7.1120024 73.3333336,7.75732928 73.28,8.568 L77.552,8.568 C77.552,8.23733168 77.514667,7.91466824 77.44,7.6 C77.365333,7.28533176 77.2426675,7.00266792 77.072,6.752 C76.9013325,6.50133208 76.6853346,6.29866744 76.424,6.144 C76.1626654,5.98933256 75.8453352,5.912 75.472,5.912 Z" id="All-available" fill="#4C5358"></path>
                    <path d="M104.176,7.896 L100.352,1.704 L102,1.704 L104.912,6.776 L107.904,1.704 L109.536,1.704 L105.616,7.896 L105.616,13 L104.176,13 L104.176,7.896 Z M112.896,13.24 C112.298664,13.24 111.773336,13.1306678 111.32,12.912 C110.866664,12.6933322 110.488002,12.3946686 110.184,12.016 C109.879998,11.6373314 109.653334,11.1946692 109.504,10.688 C109.354666,10.1813308 109.28,9.6346696 109.28,9.048 C109.28,8.4613304 109.357333,7.91733584 109.512,7.416 C109.666667,6.91466416 109.895998,6.4773352 110.2,6.104 C110.504002,5.7306648 110.882664,5.4373344 111.336,5.224 C111.789336,5.0106656 112.30933,4.904 112.896,4.904 C113.48267,4.904 114.002664,5.0106656 114.456,5.224 C114.909336,5.4373344 115.290665,5.72799816 115.6,6.096 C115.909335,6.46400184 116.141333,6.9013308 116.296,7.408 C116.450667,7.9146692 116.528,8.4613304 116.528,9.048 C116.528,9.6346696 116.450667,10.1813308 116.296,10.688 C116.141333,11.1946692 115.909335,11.6373314 115.6,12.016 C115.290665,12.3946686 114.909336,12.6933322 114.456,12.912 C114.002664,13.1306678 113.48267,13.24 112.896,13.24 Z M112.928,12.2 C113.290668,12.2 113.610665,12.1200008 113.888,11.96 C114.165335,11.7999992 114.394666,11.5786681 114.576,11.296 C114.757334,11.0133319 114.896,10.6800019 114.992,10.296 C115.088,9.91199808 115.136,9.49600224 115.136,9.048 C115.136,8.59999776 115.088,8.18666856 114.992,7.808 C114.896,7.42933144 114.752001,7.10133472 114.56,6.824 C114.367999,6.54666528 114.133335,6.33066744 113.856,6.176 C113.578665,6.02133256 113.258668,5.944 112.896,5.944 C112.522665,5.944 112.197335,6.02133256 111.92,6.176 C111.642665,6.33066744 111.413334,6.54666528 111.232,6.824 C111.050666,7.10133472 110.912,7.42933144 110.816,7.808 C110.72,8.18666856 110.672,8.59999776 110.672,9.048 C110.672,9.49600224 110.72,9.91199808 110.816,10.296 C110.912,10.6800019 111.053332,11.0133319 111.24,11.296 C111.426668,11.5786681 111.661332,11.7999992 111.944,11.96 C112.226668,12.1200008 112.554665,12.2 112.928,12.2 Z M118.192,5.128 L119.536,5.128 L119.536,9.896 C119.536,10.6426704 119.674665,11.1893316 119.952,11.536 C120.229335,11.8826684 120.618664,12.056 121.12,12.056 C121.760003,12.056 122.258665,11.8026692 122.616,11.296 C122.973335,10.7893308 123.152,10.1146709 123.152,9.272 L123.152,5.128 L124.48,5.128 L124.48,13 L123.232,13 L123.232,11.4 C123.136,11.6453346 123.018667,11.8773322 122.88,12.096 C122.741333,12.3146678 122.570668,12.5066658 122.368,12.672 C122.165332,12.8373342 121.930668,12.9679995 121.664,13.064 C121.397332,13.1600005 121.082668,13.208 120.72,13.208 C119.866662,13.208 119.232002,12.9493359 118.816,12.432 C118.399998,11.9146641 118.192,11.1813381 118.192,10.232 L118.192,5.128 Z M126.528,5.128 L127.68,5.128 L127.808,6.888 C128.032001,6.31199712 128.389331,5.8373352 128.88,5.464 C129.370669,5.0906648 129.951997,4.904 130.624,4.904 L130.624,6.312 C130.474666,6.27999984 130.309334,6.264 130.128,6.264 C129.861332,6.264 129.594668,6.31199952 129.328,6.408 C129.061332,6.50400048 128.818668,6.6586656 128.6,6.872 C128.381332,7.0853344 128.202667,7.35999832 128.064,7.696 C127.925333,8.03200168 127.856,8.4399976 127.856,8.92 L127.856,13 L126.528,13 L126.528,5.128 Z M136.208,6.04 L134.848,6.04 L134.848,5.128 L136.144,5.128 C136.058666,4.85066528 135.986667,4.55466824 135.928,4.24 C135.869333,3.92533176 135.84,3.62933472 135.84,3.352 C135.84,3.09599872 135.869333,2.85333448 135.928,2.624 C135.986667,2.39466552 136.090666,2.19200088 136.24,2.016 C136.389334,1.83999912 136.591999,1.6986672 136.848,1.592 C137.104001,1.4853328 137.429331,1.432 137.824,1.432 C138.112001,1.432 138.370666,1.45066648 138.6,1.488 C138.829334,1.52533352 139.045332,1.58666624 139.248,1.672 L139.024,2.68 C138.906666,2.6266664 138.760001,2.58133352 138.584,2.544 C138.407999,2.50666648 138.245334,2.488 138.096,2.488 C137.487997,2.488 137.184,2.83999648 137.184,3.544 C137.184,3.82133472 137.218666,4.10933184 137.288,4.408 C137.357334,4.70666816 137.429333,4.94666576 137.504,5.128 L139.024,5.128 L139.024,6.04 L137.552,6.04 L137.552,13 L136.208,13 L136.208,6.04 Z M145.312,13 C145.194666,12.6159981 145.125333,12.157336 145.104,11.624 C144.890666,12.1146691 144.562669,12.5066652 144.12,12.8 C143.677331,13.0933348 143.152003,13.24 142.544,13.24 C141.775996,13.24 141.168002,13.0213355 140.72,12.584 C140.271998,12.1466645 140.048,11.5600037 140.048,10.824 C140.048,10.4079979 140.122666,10.0586681 140.272,9.776 C140.421334,9.49333192 140.629332,9.2586676 140.896,9.072 C141.162668,8.8853324 141.477332,8.7386672 141.84,8.632 C142.202668,8.5253328 142.597331,8.44000032 143.024,8.376 L145.04,8.072 L145.04,7.576 C145.04,7.22399824 144.997334,6.9413344 144.912,6.728 C144.826666,6.5146656 144.709334,6.34933392 144.56,6.232 C144.410666,6.11466608 144.240001,6.03733352 144.048,6 C143.855999,5.96266648 143.653334,5.944 143.44,5.944 C142.831997,5.944 142.330669,6.05599888 141.936,6.28 C141.541331,6.50400112 141.210668,6.78666496 140.944,7.128 L140.256,6.264 C140.565335,5.8906648 140.994664,5.570668 141.544,5.304 C142.093336,5.037332 142.773329,4.904 143.584,4.904 C144.565338,4.904 145.277331,5.12266448 145.72,5.56 C146.162669,5.99733552 146.384,6.70132848 146.384,7.672 L146.384,10.856 C146.384,11.1120013 146.386667,11.335999 146.392,11.528 C146.397333,11.720001 146.408,11.8986658 146.424,12.064 C146.44,12.2293342 146.464,12.3866659 146.496,12.536 C146.528,12.6853341 146.570666,12.8399992 146.624,13 L145.312,13 Z M145.04,8.952 L143.152,9.256 C142.50133,9.37333392 142.040001,9.54933216 141.768,9.784 C141.495999,10.0186678 141.36,10.3439979 141.36,10.76 C141.36,11.1866688 141.485332,11.5439986 141.736,11.832 C141.986668,12.1200014 142.357331,12.264 142.848,12.264 C143.146668,12.264 143.429332,12.2053339 143.696,12.088 C143.962668,11.9706661 144.194666,11.808001 144.392,11.6 C144.589334,11.391999 144.746666,11.1413348 144.864,10.848 C144.981334,10.5546652 145.04,10.2320018 145.04,9.88 L145.04,8.952 Z M147.904,5.128 L149.408,5.128 L151.328,11.752 L153.232,5.128 L154.672,5.128 L152.08,13 L150.48,13 L147.904,5.128 Z M159.36,13.24 C158.762664,13.24 158.237336,13.1306678 157.784,12.912 C157.330664,12.6933322 156.952002,12.3946686 156.648,12.016 C156.343998,11.6373314 156.117334,11.1946692 155.968,10.688 C155.818666,10.1813308 155.744,9.6346696 155.744,9.048 C155.744,8.4613304 155.821333,7.91733584 155.976,7.416 C156.130667,6.91466416 156.359998,6.4773352 156.664,6.104 C156.968002,5.7306648 157.346664,5.4373344 157.8,5.224 C158.253336,5.0106656 158.77333,4.904 159.36,4.904 C159.94667,4.904 160.466664,5.0106656 160.92,5.224 C161.373336,5.4373344 161.754665,5.72799816 162.064,6.096 C162.373335,6.46400184 162.605333,6.9013308 162.76,7.408 C162.914667,7.9146692 162.992,8.4613304 162.992,9.048 C162.992,9.6346696 162.914667,10.1813308 162.76,10.688 C162.605333,11.1946692 162.373335,11.6373314 162.064,12.016 C161.754665,12.3946686 161.373336,12.6933322 160.92,12.912 C160.466664,13.1306678 159.94667,13.24 159.36,13.24 Z M159.392,12.2 C159.754668,12.2 160.074665,12.1200008 160.352,11.96 C160.629335,11.7999992 160.858666,11.5786681 161.04,11.296 C161.221334,11.0133319 161.36,10.6800019 161.456,10.296 C161.552,9.91199808 161.6,9.49600224 161.6,9.048 C161.6,8.59999776 161.552,8.18666856 161.456,7.808 C161.36,7.42933144 161.216001,7.10133472 161.024,6.824 C160.831999,6.54666528 160.597335,6.33066744 160.32,6.176 C160.042665,6.02133256 159.722668,5.944 159.36,5.944 C158.986665,5.944 158.661335,6.02133256 158.384,6.176 C158.106665,6.33066744 157.877334,6.54666528 157.696,6.824 C157.514666,7.10133472 157.376,7.42933144 157.28,7.808 C157.184,8.18666856 157.136,8.59999776 157.136,9.048 C157.136,9.49600224 157.184,9.91199808 157.28,10.296 C157.376,10.6800019 157.517332,11.0133319 157.704,11.296 C157.890668,11.5786681 158.125332,11.7999992 158.408,11.96 C158.690668,12.1200008 159.018665,12.2 159.392,12.2 Z M164.656,5.128 L166,5.128 L166,9.896 C166,10.6426704 166.138665,11.1893316 166.416,11.536 C166.693335,11.8826684 167.082664,12.056 167.584,12.056 C168.224003,12.056 168.722665,11.8026692 169.08,11.296 C169.437335,10.7893308 169.616,10.1146709 169.616,9.272 L169.616,5.128 L170.944,5.128 L170.944,13 L169.696,13 L169.696,11.4 C169.6,11.6453346 169.482667,11.8773322 169.344,12.096 C169.205333,12.3146678 169.034668,12.5066658 168.832,12.672 C168.629332,12.8373342 168.394668,12.9679995 168.128,13.064 C167.861332,13.1600005 167.546668,13.208 167.184,13.208 C166.330662,13.208 165.696002,12.9493359 165.28,12.432 C164.863998,11.9146641 164.656,11.1813381 164.656,10.232 L164.656,5.128 Z M172.992,5.128 L174.144,5.128 L174.272,6.888 C174.496001,6.31199712 174.853331,5.8373352 175.344,5.464 C175.834669,5.0906648 176.415997,4.904 177.088,4.904 L177.088,6.312 C176.938666,6.27999984 176.773334,6.264 176.592,6.264 C176.325332,6.264 176.058668,6.31199952 175.792,6.408 C175.525332,6.50400048 175.282668,6.6586656 175.064,6.872 C174.845332,7.0853344 174.666667,7.35999832 174.528,7.696 C174.389333,8.03200168 174.32,8.4399976 174.32,8.92 L174.32,13 L172.992,13 L172.992,5.128 Z M178.4,2.072 L179.728,2.072 L179.728,3.4 L178.4,3.4 L178.4,2.072 Z M178.4,5.128 L179.728,5.128 L179.728,13 L178.4,13 L178.4,5.128 Z M182.464,6.04 L181.12,6.04 L181.12,5.128 L181.408,5.128 C181.738668,5.128 181.997332,5.09333368 182.184,5.024 C182.370668,4.95466632 182.512,4.84800072 182.608,4.704 C182.704,4.55999928 182.773333,4.37066784 182.816,4.136 C182.858667,3.90133216 182.896,3.61333504 182.928,3.272 L182.96,2.984 L183.792,2.984 L183.792,5.128 L185.488,5.128 L185.488,6.04 L183.792,6.04 L183.792,10.936 C183.792,11.3840022 183.858666,11.7066657 183.992,11.904 C184.125334,12.1013343 184.373332,12.2 184.736,12.2 C185.024001,12.2 185.290665,12.1360006 185.536,12.008 L185.68,12.968 C185.274665,13.1493342 184.826669,13.24 184.336,13.24 C183.951998,13.24 183.640001,13.1866672 183.4,13.08 C183.159999,12.9733328 182.970667,12.8293342 182.832,12.648 C182.693333,12.4666658 182.597334,12.2480013 182.544,11.992 C182.490666,11.7359987 182.464,11.4586682 182.464,11.16 L182.464,6.04 Z M188.096,9.368 C188.149334,10.2746712 188.381331,10.9759975 188.792,11.472 C189.202669,11.9680025 189.775996,12.216 190.512,12.216 C191.440005,12.216 192.138664,11.778671 192.608,10.904 L193.616,11.464 C193.306665,11.9866693 192.896003,12.4133317 192.384,12.744 C191.871997,13.0746683 191.226671,13.24 190.448,13.24 C189.82933,13.24 189.288002,13.1333344 188.824,12.92 C188.359998,12.7066656 187.973335,12.4133352 187.664,12.04 C187.354665,11.6666648 187.122667,11.2293358 186.968,10.728 C186.813333,10.2266642 186.736,9.68800288 186.736,9.112 C186.736,8.54666384 186.810666,8.00800256 186.96,7.496 C187.109334,6.98399744 187.335998,6.53600192 187.64,6.152 C187.944002,5.76799808 188.317331,5.46400112 188.76,5.24 C189.202669,5.01599888 189.722664,4.904 190.32,4.904 C190.896003,4.904 191.397331,5.01333224 191.824,5.232 C192.250669,5.45066776 192.605332,5.74399816 192.888,6.112 C193.170668,6.48000184 193.383999,6.90666424 193.528,7.392 C193.672001,7.87733576 193.744,8.39199728 193.744,8.936 C193.744,9.05333392 193.741333,9.14399968 193.736,9.208 C193.730667,9.27200032 193.728,9.32533312 193.728,9.368 L188.096,9.368 Z M190.304,5.912 C189.631997,5.912 189.112002,6.1519976 188.744,6.632 C188.375998,7.1120024 188.165334,7.75732928 188.112,8.568 L192.384,8.568 C192.384,8.23733168 192.346667,7.91466824 192.272,7.6 C192.197333,7.28533176 192.074668,7.00266792 191.904,6.752 C191.733332,6.50133208 191.517335,6.29866744 191.256,6.144 C190.994665,5.98933256 190.677335,5.912 190.304,5.912 Z M195.504,11.064 C195.770668,11.405335 196.114665,11.6879989 196.536,11.912 C196.957335,12.1360011 197.418664,12.248 197.92,12.248 C198.368002,12.248 198.757332,12.1413344 199.088,11.928 C199.418668,11.7146656 199.584,11.3946688 199.584,10.968 C199.584,10.6373317 199.474668,10.3786676 199.256,10.192 C199.037332,10.0053324 198.765335,9.84800064 198.44,9.72 C198.114665,9.59199936 197.760002,9.4746672 197.376,9.368 C196.991998,9.2613328 196.637335,9.12266752 196.312,8.952 C195.986665,8.78133248 195.714668,8.55733472 195.496,8.28 C195.277332,8.00266528 195.168,7.6240024 195.168,7.144 C195.168,6.74933136 195.247999,6.41066808 195.408,6.128 C195.568001,5.84533192 195.778665,5.61333424 196.04,5.432 C196.301335,5.25066576 196.602665,5.11733376 196.944,5.032 C197.285335,4.94666624 197.642665,4.904 198.016,4.904 C199.125339,4.904 200.047996,5.2239968 200.784,5.864 L200.112,6.76 C199.877332,6.51466544 199.565335,6.30933416 199.176,6.144 C198.786665,5.97866584 198.384002,5.896 197.968,5.896 C197.786666,5.896 197.608001,5.91733312 197.432,5.96 C197.255999,6.00266688 197.101334,6.06933288 196.968,6.16 C196.834666,6.25066712 196.728,6.36533264 196.648,6.504 C196.568,6.64266736 196.528,6.81333232 196.528,7.016 C196.528,7.32533488 196.637332,7.56533248 196.856,7.736 C197.074668,7.90666752 197.346665,8.05333272 197.672,8.176 C197.997335,8.29866728 198.349331,8.41599944 198.728,8.528 C199.106669,8.64000056 199.458665,8.78399912 199.784,8.96 C200.109335,9.13600088 200.381332,9.36799856 200.6,9.656 C200.818668,9.94400144 200.928,10.3279976 200.928,10.808 C200.928,11.2133354 200.845334,11.5679985 200.68,11.872 C200.514666,12.1760015 200.296001,12.4293323 200.024,12.632 C199.751999,12.8346677 199.437335,12.9866662 199.08,13.088 C198.722665,13.1893338 198.352002,13.24 197.968,13.24 C196.645327,13.24 195.594671,12.8133376 194.816,11.96 L195.504,11.064 Z" id="H5-Regular-16-" fill="#000000"></path>
                    <path d="M223.12,1.704 L226.8,1.704 C227.38667,1.704 227.925331,1.76533272 228.416,1.888 C228.906669,2.01066728 229.327998,2.20266536 229.68,2.464 C230.032002,2.72533464 230.306666,3.05866464 230.504,3.464 C230.701334,3.86933536 230.8,4.34933056 230.8,4.904 C230.8,5.37333568 230.720001,5.7813316 230.56,6.128 C230.399999,6.4746684 230.184001,6.7679988 229.912,7.008 C229.639999,7.2480012 229.328002,7.434666 228.976,7.568 C228.623998,7.701334 228.250669,7.78399984 227.856,7.816 C228.133335,7.89066704 228.381332,8.0213324 228.6,8.208 C228.818668,8.3946676 229.034666,8.66933152 229.248,9.032 L231.488,13 L229.792,13 L228.016,9.688 C227.770665,9.22933104 227.498668,8.87466792 227.2,8.624 C226.901332,8.37333208 226.485336,8.248 225.952,8.248 L224.56,8.248 L224.56,13 L223.12,13 L223.12,1.704 Z M226.832,7.096 C227.568004,7.096 228.157331,6.92533504 228.6,6.584 C229.042669,6.24266496 229.264,5.69333712 229.264,4.936 C229.264,4.2426632 229.042669,3.71733512 228.6,3.36 C228.157331,3.00266488 227.557337,2.824 226.8,2.824 L224.56,2.824 L224.56,7.096 L226.832,7.096 Z M233.472,9.368 C233.525334,10.2746712 233.757331,10.9759975 234.168,11.472 C234.578669,11.9680025 235.151996,12.216 235.888,12.216 C236.816005,12.216 237.514664,11.778671 237.984,10.904 L238.992,11.464 C238.682665,11.9866693 238.272003,12.4133317 237.76,12.744 C237.247997,13.0746683 236.602671,13.24 235.824,13.24 C235.20533,13.24 234.664002,13.1333344 234.2,12.92 C233.735998,12.7066656 233.349335,12.4133352 233.04,12.04 C232.730665,11.6666648 232.498667,11.2293358 232.344,10.728 C232.189333,10.2266642 232.112,9.68800288 232.112,9.112 C232.112,8.54666384 232.186666,8.00800256 232.336,7.496 C232.485334,6.98399744 232.711998,6.53600192 233.016,6.152 C233.320002,5.76799808 233.693331,5.46400112 234.136,5.24 C234.578669,5.01599888 235.098664,4.904 235.696,4.904 C236.272003,4.904 236.773331,5.01333224 237.2,5.232 C237.626669,5.45066776 237.981332,5.74399816 238.264,6.112 C238.546668,6.48000184 238.759999,6.90666424 238.904,7.392 C239.048001,7.87733576 239.12,8.39199728 239.12,8.936 C239.12,9.05333392 239.117333,9.14399968 239.112,9.208 C239.106667,9.27200032 239.104,9.32533312 239.104,9.368 L233.472,9.368 Z M235.68,5.912 C235.007997,5.912 234.488002,6.1519976 234.12,6.632 C233.751998,7.1120024 233.541334,7.75732928 233.488,8.568 L237.76,8.568 C237.76,8.23733168 237.722667,7.91466824 237.648,7.6 C237.573333,7.28533176 237.450668,7.00266792 237.28,6.752 C237.109332,6.50133208 236.893335,6.29866744 236.632,6.144 C236.370665,5.98933256 236.053335,5.912 235.68,5.912 Z M247.312,11.272 C246.991998,11.9120032 246.562669,12.3999983 246.024,12.736 C245.485331,13.0720017 244.832004,13.24 244.064,13.24 C243.434664,13.24 242.888002,13.1306678 242.424,12.912 C241.959998,12.6933322 241.576002,12.3973352 241.272,12.024 C240.967998,11.6506648 240.744001,11.2106692 240.6,10.704 C240.455999,10.1973308 240.384,9.65600288 240.384,9.08 C240.384,8.4933304 240.461333,7.9466692 240.616,7.44 C240.770667,6.9333308 240.999998,6.4933352 241.304,6.12 C241.608002,5.7466648 241.989331,5.45066776 242.448,5.232 C242.906669,5.01333224 243.44533,4.904 244.064,4.904 C244.842671,4.904 245.490664,5.0773316 246.008,5.424 C246.525336,5.7706684 246.943998,6.25866352 247.264,6.888 L246.144,7.416 C245.738665,6.43466176 245.056005,5.944 244.096,5.944 C243.690665,5.944 243.341335,6.0239992 243.048,6.184 C242.754665,6.3440008 242.514668,6.56266528 242.328,6.84 C242.141332,7.11733472 242.002667,7.43999816 241.912,7.808 C241.821333,8.17600184 241.776,8.5733312 241.776,9 C241.776,9.40533536 241.818666,9.79999808 241.904,10.184 C241.989334,10.5680019 242.127999,10.9093318 242.32,11.208 C242.512001,11.5066682 242.757332,11.7466658 243.056,11.928 C243.354668,12.1093342 243.722664,12.2 244.16,12.2 C244.714669,12.2 245.162665,12.0586681 245.504,11.776 C245.845335,11.4933319 246.106666,11.1280022 246.288,10.68 L247.312,11.272 Z M249.792,9.368 C249.845334,10.2746712 250.077331,10.9759975 250.488,11.472 C250.898669,11.9680025 251.471996,12.216 252.208,12.216 C253.136005,12.216 253.834664,11.778671 254.304,10.904 L255.312,11.464 C255.002665,11.9866693 254.592003,12.4133317 254.08,12.744 C253.567997,13.0746683 252.922671,13.24 252.144,13.24 C251.52533,13.24 250.984002,13.1333344 250.52,12.92 C250.055998,12.7066656 249.669335,12.4133352 249.36,12.04 C249.050665,11.6666648 248.818667,11.2293358 248.664,10.728 C248.509333,10.2266642 248.432,9.68800288 248.432,9.112 C248.432,8.54666384 248.506666,8.00800256 248.656,7.496 C248.805334,6.98399744 249.031998,6.53600192 249.336,6.152 C249.640002,5.76799808 250.013331,5.46400112 250.456,5.24 C250.898669,5.01599888 251.418664,4.904 252.016,4.904 C252.592003,4.904 253.093331,5.01333224 253.52,5.232 C253.946669,5.45066776 254.301332,5.74399816 254.584,6.112 C254.866668,6.48000184 255.079999,6.90666424 255.224,7.392 C255.368001,7.87733576 255.44,8.39199728 255.44,8.936 C255.44,9.05333392 255.437333,9.14399968 255.432,9.208 C255.426667,9.27200032 255.424,9.32533312 255.424,9.368 L249.792,9.368 Z M252,5.912 C251.327997,5.912 250.808002,6.1519976 250.44,6.632 C250.071998,7.1120024 249.861334,7.75732928 249.808,8.568 L254.08,8.568 C254.08,8.23733168 254.042667,7.91466824 253.968,7.6 C253.893333,7.28533176 253.770668,7.00266792 253.6,6.752 C253.429332,6.50133208 253.213335,6.29866744 252.952,6.144 C252.690665,5.98933256 252.373335,5.912 252,5.912 Z M257.056,5.128 L258.208,5.128 L258.352,6.696 C258.554668,6.2159976 258.877331,5.79733512 259.32,5.44 C259.762669,5.08266488 260.30933,4.904 260.96,4.904 C261.781337,4.904 262.386665,5.16533072 262.776,5.688 C263.165335,6.21066928 263.36,6.94132864 263.36,7.88 L263.36,13 L262.032,13 L262.032,8.152 C262.032,7.43732976 261.888001,6.91200168 261.6,6.576 C261.311999,6.23999832 260.922669,6.072 260.432,6.072 C259.84533,6.072 259.357335,6.3119976 258.968,6.792 C258.578665,7.2720024 258.384,7.94932896 258.384,8.824 L258.384,13 L257.056,13 L257.056,5.128 Z M266.064,6.04 L264.72,6.04 L264.72,5.128 L265.008,5.128 C265.338668,5.128 265.597332,5.09333368 265.784,5.024 C265.970668,4.95466632 266.112,4.84800072 266.208,4.704 C266.304,4.55999928 266.373333,4.37066784 266.416,4.136 C266.458667,3.90133216 266.496,3.61333504 266.528,3.272 L266.56,2.984 L267.392,2.984 L267.392,5.128 L269.088,5.128 L269.088,6.04 L267.392,6.04 L267.392,10.936 C267.392,11.3840022 267.458666,11.7066657 267.592,11.904 C267.725334,12.1013343 267.973332,12.2 268.336,12.2 C268.624001,12.2 268.890665,12.1360006 269.136,12.008 L269.28,12.968 C268.874665,13.1493342 268.426669,13.24 267.936,13.24 C267.551998,13.24 267.240001,13.1866672 267,13.08 C266.759999,12.9733328 266.570667,12.8293342 266.432,12.648 C266.293333,12.4666658 266.197334,12.2480013 266.144,11.992 C266.090666,11.7359987 266.064,11.4586682 266.064,11.16 L266.064,6.04 Z M270.688,1.704 L272.016,1.704 L272.016,13 L270.688,13 L270.688,1.704 Z M273.888,14.68 C274.005334,14.7226669 274.138666,14.7599998 274.288,14.792 C274.437334,14.8240002 274.591999,14.84 274.752,14.84 C274.922668,14.84 275.069333,14.8160002 275.192,14.768 C275.314667,14.7199998 275.426666,14.6320006 275.528,14.504 C275.629334,14.3759994 275.725333,14.2053344 275.816,13.992 C275.906667,13.7786656 276.005333,13.501335 276.112,13.16 L273.44,5.128 L274.88,5.128 L276.8,11.64 L278.704,5.128 L280.144,5.128 L277.728,12.376 C277.525332,12.9946698 277.341334,13.5226645 277.176,13.96 C277.010666,14.3973355 276.826668,14.7573319 276.624,15.04 C276.421332,15.3226681 276.173335,15.530666 275.88,15.664 C275.586665,15.797334 275.210669,15.864 274.752,15.864 C274.570666,15.864 274.376001,15.8560001 274.168,15.84 C273.959999,15.8239999 273.797334,15.7946669 273.68,15.752 L273.888,14.68 Z M284.576,5.128 L286.08,5.128 L288,11.752 L289.904,5.128 L291.344,5.128 L288.752,13 L287.152,13 L284.576,5.128 Z M292.768,2.072 L294.096,2.072 L294.096,3.4 L292.768,3.4 L292.768,2.072 Z M292.768,5.128 L294.096,5.128 L294.096,13 L292.768,13 L292.768,5.128 Z M296.288,11.064 C296.554668,11.405335 296.898665,11.6879989 297.32,11.912 C297.741335,12.1360011 298.202664,12.248 298.704,12.248 C299.152002,12.248 299.541332,12.1413344 299.872,11.928 C300.202668,11.7146656 300.368,11.3946688 300.368,10.968 C300.368,10.6373317 300.258668,10.3786676 300.04,10.192 C299.821332,10.0053324 299.549335,9.84800064 299.224,9.72 C298.898665,9.59199936 298.544002,9.4746672 298.16,9.368 C297.775998,9.2613328 297.421335,9.12266752 297.096,8.952 C296.770665,8.78133248 296.498668,8.55733472 296.28,8.28 C296.061332,8.00266528 295.952,7.6240024 295.952,7.144 C295.952,6.74933136 296.031999,6.41066808 296.192,6.128 C296.352001,5.84533192 296.562665,5.61333424 296.824,5.432 C297.085335,5.25066576 297.386665,5.11733376 297.728,5.032 C298.069335,4.94666624 298.426665,4.904 298.8,4.904 C299.909339,4.904 300.831996,5.2239968 301.568,5.864 L300.896,6.76 C300.661332,6.51466544 300.349335,6.30933416 299.96,6.144 C299.570665,5.97866584 299.168002,5.896 298.752,5.896 C298.570666,5.896 298.392001,5.91733312 298.216,5.96 C298.039999,6.00266688 297.885334,6.06933288 297.752,6.16 C297.618666,6.25066712 297.512,6.36533264 297.432,6.504 C297.352,6.64266736 297.312,6.81333232 297.312,7.016 C297.312,7.32533488 297.421332,7.56533248 297.64,7.736 C297.858668,7.90666752 298.130665,8.05333272 298.456,8.176 C298.781335,8.29866728 299.133331,8.41599944 299.512,8.528 C299.890669,8.64000056 300.242665,8.78399912 300.568,8.96 C300.893335,9.13600088 301.165332,9.36799856 301.384,9.656 C301.602668,9.94400144 301.712,10.3279976 301.712,10.808 C301.712,11.2133354 301.629334,11.5679985 301.464,11.872 C301.298666,12.1760015 301.080001,12.4293323 300.808,12.632 C300.535999,12.8346677 300.221335,12.9866662 299.864,13.088 C299.506665,13.1893338 299.136002,13.24 298.752,13.24 C297.429327,13.24 296.378671,12.8133376 295.6,11.96 L296.288,11.064 Z M303.264,2.072 L304.592,2.072 L304.592,3.4 L303.264,3.4 L303.264,2.072 Z M303.264,5.128 L304.592,5.128 L304.592,13 L303.264,13 L303.264,5.128 Z M307.328,6.04 L305.984,6.04 L305.984,5.128 L306.272,5.128 C306.602668,5.128 306.861332,5.09333368 307.048,5.024 C307.234668,4.95466632 307.376,4.84800072 307.472,4.704 C307.568,4.55999928 307.637333,4.37066784 307.68,4.136 C307.722667,3.90133216 307.76,3.61333504 307.792,3.272 L307.824,2.984 L308.656,2.984 L308.656,5.128 L310.352,5.128 L310.352,6.04 L308.656,6.04 L308.656,10.936 C308.656,11.3840022 308.722666,11.7066657 308.856,11.904 C308.989334,12.1013343 309.237332,12.2 309.6,12.2 C309.888001,12.2 310.154665,12.1360006 310.4,12.008 L310.544,12.968 C310.138665,13.1493342 309.690669,13.24 309.2,13.24 C308.815998,13.24 308.504001,13.1866672 308.264,13.08 C308.023999,12.9733328 307.834667,12.8293342 307.696,12.648 C307.557333,12.4666658 307.461334,12.2480013 307.408,11.992 C307.354666,11.7359987 307.328,11.4586682 307.328,11.16 L307.328,6.04 Z M312.96,9.368 C313.013334,10.2746712 313.245331,10.9759975 313.656,11.472 C314.066669,11.9680025 314.639996,12.216 315.376,12.216 C316.304005,12.216 317.002664,11.778671 317.472,10.904 L318.48,11.464 C318.170665,11.9866693 317.760003,12.4133317 317.248,12.744 C316.735997,13.0746683 316.090671,13.24 315.312,13.24 C314.69333,13.24 314.152002,13.1333344 313.688,12.92 C313.223998,12.7066656 312.837335,12.4133352 312.528,12.04 C312.218665,11.6666648 311.986667,11.2293358 311.832,10.728 C311.677333,10.2266642 311.6,9.68800288 311.6,9.112 C311.6,8.54666384 311.674666,8.00800256 311.824,7.496 C311.973334,6.98399744 312.199998,6.53600192 312.504,6.152 C312.808002,5.76799808 313.181331,5.46400112 313.624,5.24 C314.066669,5.01599888 314.586664,4.904 315.184,4.904 C315.760003,4.904 316.261331,5.01333224 316.688,5.232 C317.114669,5.45066776 317.469332,5.74399816 317.752,6.112 C318.034668,6.48000184 318.247999,6.90666424 318.392,7.392 C318.536001,7.87733576 318.608,8.39199728 318.608,8.936 C318.608,9.05333392 318.605333,9.14399968 318.6,9.208 C318.594667,9.27200032 318.592,9.32533312 318.592,9.368 L312.96,9.368 Z M315.168,5.912 C314.495997,5.912 313.976002,6.1519976 313.608,6.632 C313.239998,7.1120024 313.029334,7.75732928 312.976,8.568 L317.248,8.568 C317.248,8.23733168 317.210667,7.91466824 317.136,7.6 C317.061333,7.28533176 316.938668,7.00266792 316.768,6.752 C316.597332,6.50133208 316.381335,6.29866744 316.12,6.144 C315.858665,5.98933256 315.541335,5.912 315.168,5.912 Z M325.52,11.464 C325.306666,11.997336 324.992002,12.4186651 324.576,12.728 C324.159998,13.0373349 323.64267,13.192 323.024,13.192 C322.533331,13.192 322.093335,13.0906677 321.704,12.888 C321.314665,12.6853323 320.984001,12.4026685 320.712,12.04 C320.439999,11.6773315 320.232001,11.2400026 320.088,10.728 C319.943999,10.2159974 319.872,9.65066976 319.872,9.032 C319.872,8.3919968 319.946666,7.8186692 320.096,7.312 C320.245334,6.8053308 320.458665,6.37600176 320.736,6.024 C321.013335,5.67199824 321.346665,5.40000096 321.736,5.208 C322.125335,5.01599904 322.554664,4.92 323.024,4.92 C323.664003,4.92 324.186665,5.07199848 324.592,5.376 C324.997335,5.68000152 325.285332,6.0453312 325.456,6.472 L325.456,1.704 L326.8,1.704 L326.8,13 L325.52,13 L325.52,11.464 Z M325.456,9.016 C325.456,8.68533168 325.448,8.4266676 325.432,8.24 C325.416,8.0533324 325.397333,7.90133392 325.376,7.784 C325.322666,7.54933216 325.242667,7.3253344 325.136,7.112 C325.029333,6.8986656 324.893334,6.70933416 324.728,6.544 C324.562666,6.37866584 324.368001,6.24800048 324.144,6.152 C323.919999,6.05599952 323.664001,6.008 323.376,6.008 C323.013332,6.008 322.701335,6.0879992 322.44,6.248 C322.178665,6.4080008 321.960001,6.62399864 321.784,6.896 C321.607999,7.16800136 321.477334,7.48799816 321.392,7.856 C321.306666,8.22400184 321.264,8.61599792 321.264,9.032 C321.264,9.48000224 321.312,9.89333144 321.408,10.272 C321.504,10.6506686 321.642666,10.9759986 321.824,11.248 C322.005334,11.5200014 322.229332,11.7333326 322.496,11.888 C322.762668,12.0426674 323.066665,12.12 323.408,12.12 C323.674668,12.12 323.917332,12.0720005 324.136,11.976 C324.354668,11.8799995 324.546666,11.7466675 324.712,11.576 C324.877334,11.4053325 325.013333,11.2106678 325.12,10.992 C325.226667,10.7733322 325.306666,10.5413346 325.36,10.296 C325.424,9.99733184 325.456,9.59733584 325.456,9.096 L325.456,9.016 Z" id="H5-Regular-16--Copy-3" fill="#4C5358"></path>
                    <path d="M90.5,29 L211.5,29" id="Active-line" stroke="#0D78AA" stroke-width="3" stroke-linecap="square"></path>
                </g>
            </g>
        </g>
    </g>
</svg>