<?xml version="1.0" encoding="UTF-8"?>
<svg width="321px" height="186px" viewBox="0 0 321 186" version="1.1" xmlns="http://www.w3.org/2000/svg" xmlns:xlink="http://www.w3.org/1999/xlink">
    <!-- Generator: Sketch 47 (45396) - http://www.bohemiancoding.com/sketch -->
    <title>MixedTabStyles</title>
    <desc>Created with Sketch.</desc>
    <defs></defs>
    <g id="Page-1" stroke="none" stroke-width="1" fill="none" fill-rule="evenodd">
        <g id="Buttons-Usage-extra-large-1200" transform="translate(-767.000000, -2340.000000)">
            <g id="MixedTabStyles" transform="translate(767.000000, 2340.000000)">
                <g id="Group-3-Copy-2">
                    <g id="Group-2-Copy">
                        <rect id="bg-copy" fill="#3E4F5B" x="0" y="0" width="321" height="70"></rect>
                        <path d="M106,27 L106,43" id="Line-Copy" stroke="#D2D6D9" stroke-linecap="square"></path>
                        <path d="M216,27 L216,43" id="Line-Copy-2" stroke="#D2D6D9" stroke-linecap="square"></path>
                        <path d="M33.344,30.12 L30,30.12 L30,29 L38.112,29 L38.112,30.12 L34.784,30.12 L34.784,40.296 L33.344,40.296 L33.344,30.12 Z M39.488,29.368 L40.816,29.368 L40.816,30.696 L39.488,30.696 L39.488,29.368 Z M39.488,32.424 L40.816,32.424 L40.816,40.296 L39.488,40.296 L39.488,32.424 Z M42.864,32.424 L44.016,32.424 L44.16,33.96 C44.352001,33.4159973 44.6506646,32.9866682 45.056,32.672 C45.4613354,32.3573318 45.9573304,32.2 46.544,32.2 C47.1626698,32.2 47.6479982,32.3759982 48,32.728 C48.3520018,33.0800018 48.5759995,33.5066642 48.672,34.008 C48.7680005,33.7626654 48.8879993,33.5306678 49.032,33.312 C49.1760007,33.0933322 49.3493323,32.9013342 49.552,32.736 C49.7546677,32.5706658 49.989332,32.4400005 50.256,32.344 C50.522668,32.2479995 50.826665,32.2 51.168,32.2 C51.6160022,32.2 51.9866652,32.2773326 52.28,32.432 C52.5733348,32.5866674 52.8079991,32.797332 52.984,33.064 C53.1600009,33.330668 53.285333,33.6426649 53.36,34 C53.434667,34.3573351 53.472,34.7333314 53.472,35.128 L53.472,40.296 L52.144,40.296 L52.144,35.464 C52.144,34.7599965 52.0186679,34.2346684 51.768,33.888 C51.5173321,33.5413316 51.1520024,33.368 50.672,33.368 C50.1493307,33.368 49.7120018,33.5999977 49.36,34.064 C49.0079982,34.5280023 48.832,35.1919957 48.832,36.056 L48.832,40.296 L47.504,40.296 L47.504,35.528 C47.504,34.7919963 47.3760013,34.2480018 47.12,33.896 C46.8639987,33.5439982 46.506669,33.368 46.048,33.368 C45.5359974,33.368 45.0986685,33.605331 44.736,34.08 C44.3733315,34.554669 44.192,35.2399955 44.192,36.136 L44.192,40.296 L42.864,40.296 L42.864,32.424 Z M56.496,36.664 C56.5493336,37.5706712 56.7813313,38.2719975 57.192,38.768 C57.6026687,39.2640025 58.1759963,39.512 58.912,39.512 C59.8400046,39.512 60.5386643,39.074671 61.008,38.2 L62.016,38.76 C61.7066651,39.2826693 61.2960026,39.7093317 60.784,40.04 C60.2719974,40.3706683 59.6266706,40.536 58.848,40.536 C58.2293302,40.536 57.6880023,40.4293344 57.224,40.216 C56.7599977,40.0026656 56.3733349,39.7093352 56.064,39.336 C55.7546651,38.9626648 55.5226674,38.5253358 55.368,38.024 C55.2133326,37.5226642 55.136,36.9840029 55.136,36.408 C55.136,35.8426638 55.2106659,35.3040026 55.36,34.792 C55.5093341,34.2799974 55.7359985,33.8320019 56.04,33.448 C56.3440015,33.0639981 56.7173311,32.7600011 57.16,32.536 C57.6026689,32.3119989 58.1226637,32.2 58.72,32.2 C59.2960029,32.2 59.7973312,32.3093322 60.224,32.528 C60.6506688,32.7466678 61.0053319,33.0399982 61.288,33.408 C61.5706681,33.7760018 61.7839993,34.2026642 61.928,34.688 C62.0720007,35.1733358 62.144,35.6879973 62.144,36.232 C62.144,36.3493339 62.1413334,36.4399997 62.136,36.504 C62.1306666,36.5680003 62.128,36.6213331 62.128,36.664 L56.496,36.664 Z M58.704,33.208 C58.0319966,33.208 57.5120018,33.4479976 57.144,33.928 C56.7759982,34.4080024 56.5653336,35.0533293 56.512,35.864 L60.784,35.864 C60.784,35.5333317 60.746667,35.2106682 60.672,34.896 C60.597333,34.5813318 60.4746675,34.2986679 60.304,34.048 C60.1333325,33.7973321 59.9173346,33.5946674 59.656,33.44 C59.3946654,33.2853326 59.0773352,33.208 58.704,33.208 Z" id="Time" fill="#D2D6D9"></path>
                        <path d="M233.12,39.704 L236.528,39.704 C238.48001,39.704 239.914662,40.1759953 240.832,41.12 C241.749338,42.0640047 242.208,43.4799906 242.208,45.368 C242.208,47.1920091 241.749338,48.5866618 240.832,49.552 C239.914662,50.5173382 238.538676,51 236.704,51 L233.12,51 L233.12,39.704 Z M236.592,49.88 C237.360004,49.88 238.005331,49.7680011 238.528,49.544 C239.050669,49.3199989 239.471998,49.008002 239.792,48.608 C240.112002,48.207998 240.338666,47.7280028 240.472,47.168 C240.605334,46.6079972 240.672,45.9973366 240.672,45.336 C240.672,44.6959968 240.605334,44.1013361 240.472,43.552 C240.338666,43.0026639 240.112002,42.5253354 239.792,42.12 C239.471998,41.7146646 239.040003,41.3973345 238.496,41.168 C237.951997,40.9386655 237.269337,40.824 236.448,40.824 L234.56,40.824 L234.56,49.88 L236.592,49.88 Z M244.912,47.368 C244.965334,48.2746712 245.197331,48.9759975 245.608,49.472 C246.018669,49.9680025 246.591996,50.216 247.328,50.216 C248.256005,50.216 248.954664,49.778671 249.424,48.904 L250.432,49.464 C250.122665,49.9866693 249.712003,50.4133317 249.2,50.744 C248.687997,51.0746683 248.042671,51.24 247.264,51.24 C246.64533,51.24 246.104002,51.1333344 245.64,50.92 C245.175998,50.7066656 244.789335,50.4133352 244.48,50.04 C244.170665,49.6666648 243.938667,49.2293358 243.784,48.728 C243.629333,48.2266642 243.552,47.6880029 243.552,47.112 C243.552,46.5466638 243.626666,46.0080026 243.776,45.496 C243.925334,44.9839974 244.151998,44.5360019 244.456,44.152 C244.760002,43.7679981 245.133331,43.4640011 245.576,43.24 C246.018669,43.0159989 246.538664,42.904 247.136,42.904 C247.712003,42.904 248.213331,43.0133322 248.64,43.232 C249.066669,43.4506678 249.421332,43.7439982 249.704,44.112 C249.986668,44.4800018 250.199999,44.9066642 250.344,45.392 C250.488001,45.8773358 250.56,46.3919973 250.56,46.936 C250.56,47.0533339 250.557333,47.1439997 250.552,47.208 C250.546667,47.2720003 250.544,47.3253331 250.544,47.368 L244.912,47.368 Z M247.12,43.912 C246.447997,43.912 245.928002,44.1519976 245.56,44.632 C245.191998,45.1120024 244.981334,45.7573293 244.928,46.568 L249.2,46.568 C249.2,46.2373317 249.162667,45.9146682 249.088,45.6 C249.013333,45.2853318 248.890668,45.0026679 248.72,44.752 C248.549332,44.5013321 248.333335,44.2986674 248.072,44.144 C247.810665,43.9893326 247.493335,43.912 247.12,43.912 Z M252.176,43.128 L253.504,43.128 L253.504,44.648 C253.6,44.4239989 253.722666,44.2053344 253.872,43.992 C254.021334,43.7786656 254.199999,43.5920008 254.408,43.432 C254.616001,43.2719992 254.858665,43.1440005 255.136,43.048 C255.413335,42.9519995 255.727998,42.904 256.08,42.904 C256.592003,42.904 257.037331,43.0106656 257.416,43.224 C257.794669,43.4373344 258.106665,43.7306648 258.352,44.104 C258.597335,44.4773352 258.781333,44.9119975 258.904,45.408 C259.026667,45.9040025 259.088,46.4399971 259.088,47.016 C259.088,47.6986701 259.008001,48.3013307 258.848,48.824 C258.687999,49.3466693 258.464001,49.7839982 258.176,50.136 C257.887999,50.4880018 257.552002,50.7546658 257.168,50.936 C256.783998,51.1173342 256.368002,51.208 255.92,51.208 C255.33333,51.208 254.829335,51.0640014 254.408,50.776 C253.986665,50.4879986 253.685334,50.1306688 253.504,49.704 L253.504,53.768 L252.176,53.768 L252.176,43.128 Z M253.504,47.112 C253.504,47.3360011 253.512,47.5413324 253.528,47.728 C253.544,47.9146676 253.562667,48.0719994 253.584,48.2 C253.626667,48.4560013 253.706666,48.7013322 253.824,48.936 C253.941334,49.1706678 254.085332,49.3759991 254.256,49.552 C254.426668,49.7280009 254.626666,49.8693328 254.856,49.976 C255.085334,50.0826672 255.338665,50.136 255.616,50.136 C255.978668,50.136 256.290665,50.0506675 256.552,49.88 C256.813335,49.7093325 257.029332,49.4800014 257.2,49.192 C257.370668,48.9039986 257.496,48.5760018 257.576,48.208 C257.656,47.8399982 257.696,47.4586686 257.696,47.064 C257.696,46.6693314 257.658667,46.2880018 257.584,45.92 C257.509333,45.5519982 257.389334,45.2266681 257.224,44.944 C257.058666,44.6613319 256.842668,44.4346675 256.576,44.264 C256.309332,44.0933325 255.989335,44.008 255.616,44.008 C255.327999,44.008 255.064001,44.0613328 254.824,44.168 C254.583999,44.2746672 254.378668,44.4186658 254.208,44.6 C254.037332,44.7813342 253.896001,44.9893322 253.784,45.224 C253.671999,45.4586678 253.6,45.7039987 253.568,45.96 C253.546667,46.0666672 253.530667,46.2133324 253.52,46.4 C253.509333,46.5866676 253.504,46.8026654 253.504,47.048 L253.504,47.112 Z M265.728,51 C265.610666,50.6159981 265.541333,50.157336 265.52,49.624 C265.306666,50.1146691 264.978669,50.5066652 264.536,50.8 C264.093331,51.0933348 263.568003,51.24 262.96,51.24 C262.191996,51.24 261.584002,51.0213355 261.136,50.584 C260.687998,50.1466645 260.464,49.5600037 260.464,48.824 C260.464,48.4079979 260.538666,48.0586681 260.688,47.776 C260.837334,47.4933319 261.045332,47.2586676 261.312,47.072 C261.578668,46.8853324 261.893332,46.7386672 262.256,46.632 C262.618668,46.5253328 263.013331,46.4400003 263.44,46.376 L265.456,46.072 L265.456,45.576 C265.456,45.2239982 265.413334,44.9413344 265.328,44.728 C265.242666,44.5146656 265.125334,44.3493339 264.976,44.232 C264.826666,44.1146661 264.656001,44.0373335 264.464,44 C264.271999,43.9626665 264.069334,43.944 263.856,43.944 C263.247997,43.944 262.746669,44.0559989 262.352,44.28 C261.957331,44.5040011 261.626668,44.786665 261.36,45.128 L260.672,44.264 C260.981335,43.8906648 261.410664,43.570668 261.96,43.304 C262.509336,43.037332 263.189329,42.904 264,42.904 C264.981338,42.904 265.693331,43.1226645 266.136,43.56 C266.578669,43.9973355 266.8,44.7013285 266.8,45.672 L266.8,48.856 C266.8,49.1120013 266.802667,49.335999 266.808,49.528 C266.813333,49.720001 266.824,49.8986658 266.84,50.064 C266.856,50.2293342 266.88,50.3866659 266.912,50.536 C266.944,50.6853341 266.986666,50.8399992 267.04,51 L265.728,51 Z M265.456,46.952 L263.568,47.256 C262.91733,47.3733339 262.456001,47.5493322 262.184,47.784 C261.911999,48.0186678 261.776,48.3439979 261.776,48.76 C261.776,49.1866688 261.901332,49.5439986 262.152,49.832 C262.402668,50.1200014 262.773331,50.264 263.264,50.264 C263.562668,50.264 263.845332,50.2053339 264.112,50.088 C264.378668,49.9706661 264.610666,49.808001 264.808,49.6 C265.005334,49.391999 265.162666,49.1413348 265.28,48.848 C265.397334,48.5546652 265.456,48.2320018 265.456,47.88 L265.456,46.952 Z M268.928,43.128 L270.08,43.128 L270.208,44.888 C270.432001,44.3119971 270.789331,43.8373352 271.28,43.464 C271.770669,43.0906648 272.351997,42.904 273.024,42.904 L273.024,44.312 C272.874666,44.2799998 272.709334,44.264 272.528,44.264 C272.261332,44.264 271.994668,44.3119995 271.728,44.408 C271.461332,44.5040005 271.218668,44.6586656 271,44.872 C270.781332,45.0853344 270.602667,45.3599983 270.464,45.696 C270.325333,46.0320017 270.256,46.4399976 270.256,46.92 L270.256,51 L268.928,51 L268.928,43.128 Z M275.024,44.04 L273.68,44.04 L273.68,43.128 L273.968,43.128 C274.298668,43.128 274.557332,43.0933337 274.744,43.024 C274.930668,42.9546663 275.072,42.8480007 275.168,42.704 C275.264,42.5599993 275.333333,42.3706678 275.376,42.136 C275.418667,41.9013322 275.456,41.613335 275.488,41.272 L275.52,40.984 L276.352,40.984 L276.352,43.128 L278.048,43.128 L278.048,44.04 L276.352,44.04 L276.352,48.936 C276.352,49.3840022 276.418666,49.7066657 276.552,49.904 C276.685334,50.1013343 276.933332,50.2 277.296,50.2 C277.584001,50.2 277.850665,50.1360006 278.096,50.008 L278.24,50.968 C277.834665,51.1493342 277.386669,51.24 276.896,51.24 C276.511998,51.24 276.200001,51.1866672 275.96,51.08 C275.719999,50.9733328 275.530667,50.8293342 275.392,50.648 C275.253333,50.4666658 275.157334,50.2480013 275.104,49.992 C275.050666,49.7359987 275.024,49.4586682 275.024,49.16 L275.024,44.04 Z M279.616,43.128 L280.96,43.128 L280.96,47.896 C280.96,48.6426704 281.098665,49.1893316 281.376,49.536 C281.653335,49.8826684 282.042664,50.056 282.544,50.056 C283.184003,50.056 283.682665,49.8026692 284.04,49.296 C284.397335,48.7893308 284.576,48.1146709 284.576,47.272 L284.576,43.128 L285.904,43.128 L285.904,51 L284.656,51 L284.656,49.4 C284.56,49.6453346 284.442667,49.8773322 284.304,50.096 C284.165333,50.3146678 283.994668,50.5066658 283.792,50.672 C283.589332,50.8373342 283.354668,50.9679995 283.088,51.064 C282.821332,51.1600005 282.506668,51.208 282.144,51.208 C281.290662,51.208 280.656002,50.9493359 280.24,50.432 C279.823998,49.9146641 279.616,49.1813381 279.616,48.232 L279.616,43.128 Z M287.952,43.128 L289.104,43.128 L289.232,44.888 C289.456001,44.3119971 289.813331,43.8373352 290.304,43.464 C290.794669,43.0906648 291.375997,42.904 292.048,42.904 L292.048,44.312 C291.898666,44.2799998 291.733334,44.264 291.552,44.264 C291.285332,44.264 291.018668,44.3119995 290.752,44.408 C290.485332,44.5040005 290.242668,44.6586656 290.024,44.872 C289.805332,45.0853344 289.626667,45.3599983 289.488,45.696 C289.349333,46.0320017 289.28,46.4399976 289.28,46.92 L289.28,51 L287.952,51 L287.952,43.128 Z M294.368,47.368 C294.421334,48.2746712 294.653331,48.9759975 295.064,49.472 C295.474669,49.9680025 296.047996,50.216 296.784,50.216 C297.712005,50.216 298.410664,49.778671 298.88,48.904 L299.888,49.464 C299.578665,49.9866693 299.168003,50.4133317 298.656,50.744 C298.143997,51.0746683 297.498671,51.24 296.72,51.24 C296.10133,51.24 295.560002,51.1333344 295.096,50.92 C294.631998,50.7066656 294.245335,50.4133352 293.936,50.04 C293.626665,49.6666648 293.394667,49.2293358 293.24,48.728 C293.085333,48.2266642 293.008,47.6880029 293.008,47.112 C293.008,46.5466638 293.082666,46.0080026 293.232,45.496 C293.381334,44.9839974 293.607998,44.5360019 293.912,44.152 C294.216002,43.7679981 294.589331,43.4640011 295.032,43.24 C295.474669,43.0159989 295.994664,42.904 296.592,42.904 C297.168003,42.904 297.669331,43.0133322 298.096,43.232 C298.522669,43.4506678 298.877332,43.7439982 299.16,44.112 C299.442668,44.4800018 299.655999,44.9066642 299.8,45.392 C299.944001,45.8773358 300.016,46.3919973 300.016,46.936 C300.016,47.0533339 300.013333,47.1439997 300.008,47.208 C300.002667,47.2720003 300,47.3253331 300,47.368 L294.368,47.368 Z M296.576,43.912 C295.903997,43.912 295.384002,44.1519976 295.016,44.632 C294.647998,45.1120024 294.437334,45.7573293 294.384,46.568 L298.656,46.568 C298.656,46.2373317 298.618667,45.9146682 298.544,45.6 C298.469333,45.2853318 298.346668,45.0026679 298.176,44.752 C298.005332,44.5013321 297.789335,44.2986674 297.528,44.144 C297.266665,43.9893326 296.949335,43.912 296.576,43.912 Z M301.776,49.064 C302.042668,49.405335 302.386665,49.6879989 302.808,49.912 C303.229335,50.1360011 303.690664,50.248 304.192,50.248 C304.640002,50.248 305.029332,50.1413344 305.36,49.928 C305.690668,49.7146656 305.856,49.3946688 305.856,48.968 C305.856,48.6373317 305.746668,48.3786676 305.528,48.192 C305.309332,48.0053324 305.037335,47.8480006 304.712,47.72 C304.386665,47.5919994 304.032002,47.4746672 303.648,47.368 C303.263998,47.2613328 302.909335,47.1226675 302.584,46.952 C302.258665,46.7813325 301.986668,46.5573347 301.768,46.28 C301.549332,46.0026653 301.44,45.6240024 301.44,45.144 C301.44,44.7493314 301.519999,44.4106681 301.68,44.128 C301.840001,43.8453319 302.050665,43.6133342 302.312,43.432 C302.573335,43.2506658 302.874665,43.1173338 303.216,43.032 C303.557335,42.9466662 303.914665,42.904 304.288,42.904 C305.397339,42.904 306.319996,43.2239968 307.056,43.864 L306.384,44.76 C306.149332,44.5146654 305.837335,44.3093342 305.448,44.144 C305.058665,43.9786658 304.656002,43.896 304.24,43.896 C304.058666,43.896 303.880001,43.9173331 303.704,43.96 C303.527999,44.0026669 303.373334,44.0693329 303.24,44.16 C303.106666,44.2506671 303,44.3653326 302.92,44.504 C302.84,44.6426674 302.8,44.8133323 302.8,45.016 C302.8,45.3253349 302.909332,45.5653325 303.128,45.736 C303.346668,45.9066675 303.618665,46.0533327 303.944,46.176 C304.269335,46.2986673 304.621331,46.4159994 305,46.528 C305.378669,46.6400006 305.730665,46.7839991 306.056,46.96 C306.381335,47.1360009 306.653332,47.3679986 306.872,47.656 C307.090668,47.9440014 307.2,48.3279976 307.2,48.808 C307.2,49.2133354 307.117334,49.5679985 306.952,49.872 C306.786666,50.1760015 306.568001,50.4293323 306.296,50.632 C306.023999,50.8346677 305.709335,50.9866662 305.352,51.088 C304.994665,51.1893338 304.624002,51.24 304.24,51.24 C302.917327,51.24 301.866671,50.8133376 301.088,49.96 L301.776,49.064 Z" id="H5-Regular-16--Copy-2" fill="#D2D6D9"></path>
                        <path d="M153.456473,43.0279018 L154.573661,41.9107143 L151.688616,39.0256696 L150.571429,40.1428571 L150.571429,41.4564732 L152.142857,41.4564732 L152.142857,43.0279018 L153.456473,43.0279018 Z M159.877232,31.6350446 C159.877232,31.4549842 159.787203,31.3649554 159.607143,31.3649554 C159.525297,31.3649554 159.455729,31.3936009 159.398438,31.4508929 L152.74442,38.1049107 C152.687128,38.1622027 152.658482,38.2317704 152.658482,38.3136161 C152.658482,38.4936765 152.748511,38.5837054 152.928571,38.5837054 C153.010417,38.5837054 153.079985,38.5550598 153.137277,38.4977679 L159.791295,31.84375 C159.848587,31.786458 159.877232,31.7168903 159.877232,31.6350446 Z M159.214286,29.2779018 L164.321429,34.3850446 L154.107143,44.5993304 L149,44.5993304 L149,39.4921875 L159.214286,29.2779018 Z M167.59933,30.4564732 C167.59933,30.8902551 167.447918,31.258555 167.145089,31.5613839 L165.107143,33.5993304 L160,28.4921875 L162.037946,26.4665179 C162.332591,26.1555044 162.700891,26 163.142857,26 C163.576639,26 163.949031,26.1555044 164.260045,26.4665179 L167.145089,29.3392857 C167.447918,29.6584837 167.59933,30.0308758 167.59933,30.4564732 Z" id="-copy-2" fill="#FFFFFF"></path>
                        <path d="M278.65625,10.2779018 C278.926341,10.4743313 279.036831,10.7362335 278.987723,11.0636161 L275.844866,29.9207589 C275.803943,30.1581113 275.672992,30.3422612 275.452009,30.4732143 C275.337425,30.5386908 275.210566,30.5714286 275.071429,30.5714286 C274.981398,30.5714286 274.883185,30.5509675 274.776786,30.5100446 L269.215402,28.2388393 L266.24442,31.8604911 C266.097097,32.0487361 265.896579,32.1428571 265.642857,32.1428571 C265.536458,32.1428571 265.446429,32.1264883 265.372768,32.09375 C265.217261,32.036458 265.092448,31.9402909 264.998326,31.8052455 C264.904203,31.6702002 264.857143,31.5208342 264.857143,31.3571429 L264.857143,27.0725446 L275.464286,14.0714286 L262.340402,25.4274554 L257.491071,23.4386161 C257.188243,23.3240322 257.024554,23.09896 257,22.7633929 C256.983631,22.4360103 257.114582,22.1945692 257.392857,22.0390625 L277.821429,10.2533482 C277.944197,10.1796871 278.075148,10.1428571 278.214286,10.1428571 C278.377977,10.1428571 278.525297,10.1878716 278.65625,10.2779018 Z" id="paper-plane---FontAwesome" fill="#D2D6D9"></path>
                    </g>
                    <path d="M99.5,68.5 L208.5,68.5" id="Active-line-Copy-2" stroke="#BFDC24" stroke-width="3" stroke-linecap="square"></path>
                </g>
                <g id="Group-3-Copy-3" transform="translate(0.000000, 116.000000)">
                    <g id="Group-2-Copy">
                        <rect id="bg-copy" fill="#3E4F5B" x="0" y="0" width="321" height="70"></rect>
                        <path d="M106,27 L106,43" id="Line-Copy" stroke="#D2D6D9" stroke-linecap="square"></path>
                        <path d="M216,27 L216,43" id="Line-Copy-2" stroke="#D2D6D9" stroke-linecap="square"></path>
                        <path d="M33.344,30.12 L30,30.12 L30,29 L38.112,29 L38.112,30.12 L34.784,30.12 L34.784,40.296 L33.344,40.296 L33.344,30.12 Z M39.488,29.368 L40.816,29.368 L40.816,30.696 L39.488,30.696 L39.488,29.368 Z M39.488,32.424 L40.816,32.424 L40.816,40.296 L39.488,40.296 L39.488,32.424 Z M42.864,32.424 L44.016,32.424 L44.16,33.96 C44.352001,33.4159973 44.6506646,32.9866682 45.056,32.672 C45.4613354,32.3573318 45.9573304,32.2 46.544,32.2 C47.1626698,32.2 47.6479982,32.3759982 48,32.728 C48.3520018,33.0800018 48.5759995,33.5066642 48.672,34.008 C48.7680005,33.7626654 48.8879993,33.5306678 49.032,33.312 C49.1760007,33.0933322 49.3493323,32.9013342 49.552,32.736 C49.7546677,32.5706658 49.989332,32.4400005 50.256,32.344 C50.522668,32.2479995 50.826665,32.2 51.168,32.2 C51.6160022,32.2 51.9866652,32.2773326 52.28,32.432 C52.5733348,32.5866674 52.8079991,32.797332 52.984,33.064 C53.1600009,33.330668 53.285333,33.6426649 53.36,34 C53.434667,34.3573351 53.472,34.7333314 53.472,35.128 L53.472,40.296 L52.144,40.296 L52.144,35.464 C52.144,34.7599965 52.0186679,34.2346684 51.768,33.888 C51.5173321,33.5413316 51.1520024,33.368 50.672,33.368 C50.1493307,33.368 49.7120018,33.5999977 49.36,34.064 C49.0079982,34.5280023 48.832,35.1919957 48.832,36.056 L48.832,40.296 L47.504,40.296 L47.504,35.528 C47.504,34.7919963 47.3760013,34.2480018 47.12,33.896 C46.8639987,33.5439982 46.506669,33.368 46.048,33.368 C45.5359974,33.368 45.0986685,33.605331 44.736,34.08 C44.3733315,34.554669 44.192,35.2399955 44.192,36.136 L44.192,40.296 L42.864,40.296 L42.864,32.424 Z M56.496,36.664 C56.5493336,37.5706712 56.7813313,38.2719975 57.192,38.768 C57.6026687,39.2640025 58.1759963,39.512 58.912,39.512 C59.8400046,39.512 60.5386643,39.074671 61.008,38.2 L62.016,38.76 C61.7066651,39.2826693 61.2960026,39.7093317 60.784,40.04 C60.2719974,40.3706683 59.6266706,40.536 58.848,40.536 C58.2293302,40.536 57.6880023,40.4293344 57.224,40.216 C56.7599977,40.0026656 56.3733349,39.7093352 56.064,39.336 C55.7546651,38.9626648 55.5226674,38.5253358 55.368,38.024 C55.2133326,37.5226642 55.136,36.9840029 55.136,36.408 C55.136,35.8426638 55.2106659,35.3040026 55.36,34.792 C55.5093341,34.2799974 55.7359985,33.8320019 56.04,33.448 C56.3440015,33.0639981 56.7173311,32.7600011 57.16,32.536 C57.6026689,32.3119989 58.1226637,32.2 58.72,32.2 C59.2960029,32.2 59.7973312,32.3093322 60.224,32.528 C60.6506688,32.7466678 61.0053319,33.0399982 61.288,33.408 C61.5706681,33.7760018 61.7839993,34.2026642 61.928,34.688 C62.0720007,35.1733358 62.144,35.6879973 62.144,36.232 C62.144,36.3493339 62.1413334,36.4399997 62.136,36.504 C62.1306666,36.5680003 62.128,36.6213331 62.128,36.664 L56.496,36.664 Z M58.704,33.208 C58.0319966,33.208 57.5120018,33.4479976 57.144,33.928 C56.7759982,34.4080024 56.5653336,35.0533293 56.512,35.864 L60.784,35.864 C60.784,35.5333317 60.746667,35.2106682 60.672,34.896 C60.597333,34.5813318 60.4746675,34.2986679 60.304,34.048 C60.1333325,33.7973321 59.9173346,33.5946674 59.656,33.44 C59.3946654,33.2853326 59.0773352,33.208 58.704,33.208 Z" id="Time" fill="#D2D6D9"></path>
                        <path d="M264.456473,43.0279018 L265.573661,41.9107143 L262.688616,39.0256696 L261.571429,40.1428571 L261.571429,41.4564732 L263.142857,41.4564732 L263.142857,43.0279018 L264.456473,43.0279018 Z M270.877232,31.6350446 C270.877232,31.4549842 270.787203,31.3649554 270.607143,31.3649554 C270.525297,31.3649554 270.455729,31.3936009 270.398438,31.4508929 L263.74442,38.1049107 C263.687128,38.1622027 263.658482,38.2317704 263.658482,38.3136161 C263.658482,38.4936765 263.748511,38.5837054 263.928571,38.5837054 C264.010417,38.5837054 264.079985,38.5550598 264.137277,38.4977679 L270.791295,31.84375 C270.848587,31.786458 270.877232,31.7168903 270.877232,31.6350446 Z M270.214286,29.2779018 L275.321429,34.3850446 L265.107143,44.5993304 L260,44.5993304 L260,39.4921875 L270.214286,29.2779018 Z M278.59933,30.4564732 C278.59933,30.8902551 278.447918,31.258555 278.145089,31.5613839 L276.107143,33.5993304 L271,28.4921875 L273.037946,26.4665179 C273.332591,26.1555044 273.700891,26 274.142857,26 C274.576639,26 274.949031,26.1555044 275.260045,26.4665179 L278.145089,29.3392857 C278.447918,29.6584837 278.59933,30.0308758 278.59933,30.4564732 Z" id="-copy-2" fill="#D2D6D9"></path>
                        <g id="Group-7" transform="translate(123.000000, 10.000000)" fill="#FFFFFF">
                            <path d="M1.12,29.704 L4.528,29.704 C6.48000976,29.704 7.91466208,30.1759953 8.832,31.12 C9.74933792,32.0640047 10.208,33.4799906 10.208,35.368 C10.208,37.1920091 9.74933792,38.5866618 8.832,39.552 C7.91466208,40.5173382 6.53867584,41 4.704,41 L1.12,41 L1.12,29.704 Z M4.592,39.88 C5.36000384,39.88 6.00533072,39.7680011 6.528,39.544 C7.05066928,39.3199989 7.4719984,39.008002 7.792,38.608 C8.1120016,38.207998 8.338666,37.7280028 8.472,37.168 C8.605334,36.6079972 8.672,35.9973366 8.672,35.336 C8.672,34.6959968 8.605334,34.1013361 8.472,33.552 C8.338666,33.0026639 8.1120016,32.5253354 7.792,32.12 C7.4719984,31.7146646 7.04000272,31.3973345 6.496,31.168 C5.95199728,30.9386655 5.26933744,30.824 4.448,30.824 L2.56,30.824 L2.56,39.88 L4.592,39.88 Z M12.912,37.368 C12.9653336,38.2746712 13.1973313,38.9759975 13.608,39.472 C14.0186687,39.9680025 14.5919963,40.216 15.328,40.216 C16.2560046,40.216 16.9546643,39.778671 17.424,38.904 L18.432,39.464 C18.1226651,39.9866693 17.7120026,40.4133317 17.2,40.744 C16.6879974,41.0746683 16.0426706,41.24 15.264,41.24 C14.6453302,41.24 14.1040023,41.1333344 13.64,40.92 C13.1759977,40.7066656 12.7893349,40.4133352 12.48,40.04 C12.1706651,39.6666648 11.9386674,39.2293358 11.784,38.728 C11.6293326,38.2266642 11.552,37.6880029 11.552,37.112 C11.552,36.5466638 11.6266659,36.0080026 11.776,35.496 C11.9253341,34.9839974 12.1519985,34.5360019 12.456,34.152 C12.7600015,33.7679981 13.1333311,33.4640011 13.576,33.24 C14.0186689,33.0159989 14.5386637,32.904 15.136,32.904 C15.7120029,32.904 16.2133312,33.0133322 16.64,33.232 C17.0666688,33.4506678 17.4213319,33.7439982 17.704,34.112 C17.9866681,34.4800018 18.1999993,34.9066642 18.344,35.392 C18.4880007,35.8773358 18.56,36.3919973 18.56,36.936 C18.56,37.0533339 18.5573334,37.1439997 18.552,37.208 C18.5466666,37.2720003 18.544,37.3253331 18.544,37.368 L12.912,37.368 Z M15.12,33.912 C14.4479966,33.912 13.9280018,34.1519976 13.56,34.632 C13.1919982,35.1120024 12.9813336,35.7573293 12.928,36.568 L17.2,36.568 C17.2,36.2373317 17.162667,35.9146682 17.088,35.6 C17.013333,35.2853318 16.8906675,35.0026679 16.72,34.752 C16.5493325,34.5013321 16.3333346,34.2986674 16.072,34.144 C15.8106654,33.9893326 15.4933352,33.912 15.12,33.912 Z M20.176,33.128 L21.504,33.128 L21.504,34.648 C21.6000005,34.4239989 21.7226659,34.2053344 21.872,33.992 C22.0213341,33.7786656 22.199999,33.5920008 22.408,33.432 C22.616001,33.2719992 22.8586653,33.1440005 23.136,33.048 C23.4133347,32.9519995 23.7279982,32.904 24.08,32.904 C24.5920026,32.904 25.0373314,33.0106656 25.416,33.224 C25.7946686,33.4373344 26.1066654,33.7306648 26.352,34.104 C26.5973346,34.4773352 26.7813327,34.9119975 26.904,35.408 C27.0266673,35.9040025 27.088,36.4399971 27.088,37.016 C27.088,37.6986701 27.0080008,38.3013307 26.848,38.824 C26.6879992,39.3466693 26.4640014,39.7839982 26.176,40.136 C25.8879986,40.4880018 25.5520019,40.7546658 25.168,40.936 C24.7839981,41.1173342 24.3680022,41.208 23.92,41.208 C23.3333304,41.208 22.8293354,41.0640014 22.408,40.776 C21.9866646,40.4879986 21.6853342,40.1306688 21.504,39.704 L21.504,43.768 L20.176,43.768 L20.176,33.128 Z M21.504,37.112 C21.504,37.3360011 21.5119999,37.5413324 21.528,37.728 C21.5440001,37.9146676 21.5626666,38.0719994 21.584,38.2 C21.6266669,38.4560013 21.7066661,38.7013322 21.824,38.936 C21.9413339,39.1706678 22.0853325,39.3759991 22.256,39.552 C22.4266675,39.7280009 22.6266655,39.8693328 22.856,39.976 C23.0853345,40.0826672 23.3386653,40.136 23.616,40.136 C23.9786685,40.136 24.2906654,40.0506675 24.552,39.88 C24.8133346,39.7093325 25.0293325,39.4800014 25.2,39.192 C25.3706675,38.9039986 25.4959996,38.5760018 25.576,38.208 C25.6560004,37.8399982 25.696,37.4586686 25.696,37.064 C25.696,36.6693314 25.658667,36.2880018 25.584,35.92 C25.509333,35.5519982 25.3893342,35.2266681 25.224,34.944 C25.0586658,34.6613319 24.842668,34.4346675 24.576,34.264 C24.309332,34.0933325 23.9893352,34.008 23.616,34.008 C23.3279986,34.008 23.0640012,34.0613328 22.824,34.168 C22.5839988,34.2746672 22.3786675,34.4186658 22.208,34.6 C22.0373325,34.7813342 21.8960006,34.9893322 21.784,35.224 C21.6719994,35.4586678 21.6000002,35.7039987 21.568,35.96 C21.5466666,36.0666672 21.5306667,36.2133324 21.52,36.4 C21.5093333,36.5866676 21.504,36.8026654 21.504,37.048 L21.504,37.112 Z M33.728,41 C33.6106661,40.6159981 33.5413334,40.157336 33.52,39.624 C33.3066656,40.1146691 32.9786689,40.5066652 32.536,40.8 C32.0933311,41.0933348 31.568003,41.24 30.96,41.24 C30.1919962,41.24 29.5840022,41.0213355 29.136,40.584 C28.6879978,40.1466645 28.464,39.5600037 28.464,38.824 C28.464,38.4079979 28.5386659,38.0586681 28.688,37.776 C28.8373341,37.4933319 29.045332,37.2586676 29.312,37.072 C29.578668,36.8853324 29.8933315,36.7386672 30.256,36.632 C30.6186685,36.5253328 31.0133312,36.4400003 31.44,36.376 L33.456,36.072 L33.456,35.576 C33.456,35.2239982 33.4133338,34.9413344 33.328,34.728 C33.2426662,34.5146656 33.1253341,34.3493339 32.976,34.232 C32.8266659,34.1146661 32.656001,34.0373335 32.464,34 C32.271999,33.9626665 32.0693344,33.944 31.856,33.944 C31.247997,33.944 30.7466686,34.0559989 30.352,34.28 C29.9573314,34.5040011 29.626668,34.786665 29.36,35.128 L28.672,34.264 C28.9813349,33.8906648 29.4106639,33.570668 29.96,33.304 C30.5093361,33.037332 31.1893293,32.904 32,32.904 C32.9813382,32.904 33.6933311,33.1226645 34.136,33.56 C34.5786689,33.9973355 34.8,34.7013285 34.8,35.672 L34.8,38.856 C34.8,39.1120013 34.8026666,39.335999 34.808,39.528 C34.8133334,39.720001 34.8239999,39.8986658 34.84,40.064 C34.8560001,40.2293342 34.8799998,40.3866659 34.912,40.536 C34.9440002,40.6853341 34.9866664,40.8399992 35.04,41 L33.728,41 Z M33.456,36.952 L31.568,37.256 C30.9173301,37.3733339 30.4560014,37.5493322 30.184,37.784 C29.9119986,38.0186678 29.776,38.3439979 29.776,38.76 C29.776,39.1866688 29.9013321,39.5439986 30.152,39.832 C30.4026679,40.1200014 30.7733309,40.264 31.264,40.264 C31.5626682,40.264 31.845332,40.2053339 32.112,40.088 C32.378668,39.9706661 32.6106657,39.808001 32.808,39.6 C33.0053343,39.391999 33.1626661,39.1413348 33.28,38.848 C33.3973339,38.5546652 33.456,38.2320018 33.456,37.88 L33.456,36.952 Z M36.928,33.128 L38.08,33.128 L38.208,34.888 C38.4320011,34.3119971 38.7893309,33.8373352 39.28,33.464 C39.7706691,33.0906648 40.3519966,32.904 41.024,32.904 L41.024,34.312 C40.8746659,34.2799998 40.7093342,34.264 40.528,34.264 C40.261332,34.264 39.994668,34.3119995 39.728,34.408 C39.461332,34.5040005 39.2186678,34.6586656 39,34.872 C38.7813322,35.0853344 38.6026674,35.3599983 38.464,35.696 C38.3253326,36.0320017 38.256,36.4399976 38.256,36.92 L38.256,41 L36.928,41 L36.928,33.128 Z M43.024,34.04 L41.68,34.04 L41.68,33.128 L41.968,33.128 C42.2986683,33.128 42.5573324,33.0933337 42.744,33.024 C42.9306676,32.9546663 43.0719995,32.8480007 43.168,32.704 C43.2640005,32.5599993 43.3333331,32.3706678 43.376,32.136 C43.4186669,31.9013322 43.4559998,31.613335 43.488,31.272 L43.52,30.984 L44.352,30.984 L44.352,33.128 L46.048,33.128 L46.048,34.04 L44.352,34.04 L44.352,38.936 C44.352,39.3840022 44.418666,39.7066657 44.552,39.904 C44.685334,40.1013343 44.9333315,40.2 45.296,40.2 C45.5840014,40.2 45.8506654,40.1360006 46.096,40.008 L46.24,40.968 C45.8346646,41.1493342 45.3866691,41.24 44.896,41.24 C44.5119981,41.24 44.2000012,41.1866672 43.96,41.08 C43.7199988,40.9733328 43.5306674,40.8293342 43.392,40.648 C43.2533326,40.4666658 43.1573336,40.2480013 43.104,39.992 C43.0506664,39.7359987 43.024,39.4586682 43.024,39.16 L43.024,34.04 Z M47.616,33.128 L48.96,33.128 L48.96,37.896 C48.96,38.6426704 49.0986653,39.1893316 49.376,39.536 C49.6533347,39.8826684 50.0426642,40.056 50.544,40.056 C51.1840032,40.056 51.6826649,39.8026692 52.04,39.296 C52.3973351,38.7893308 52.576,38.1146709 52.576,37.272 L52.576,33.128 L53.904,33.128 L53.904,41 L52.656,41 L52.656,39.4 C52.5599995,39.6453346 52.4426674,39.8773322 52.304,40.096 C52.1653326,40.3146678 51.9946677,40.5066658 51.792,40.672 C51.5893323,40.8373342 51.354668,40.9679995 51.088,41.064 C50.821332,41.1600005 50.5066685,41.208 50.144,41.208 C49.2906624,41.208 48.6560021,40.9493359 48.24,40.432 C47.8239979,39.9146641 47.616,39.1813381 47.616,38.232 L47.616,33.128 Z M55.952,33.128 L57.104,33.128 L57.232,34.888 C57.4560011,34.3119971 57.8133309,33.8373352 58.304,33.464 C58.7946691,33.0906648 59.3759966,32.904 60.048,32.904 L60.048,34.312 C59.8986659,34.2799998 59.7333342,34.264 59.552,34.264 C59.285332,34.264 59.018668,34.3119995 58.752,34.408 C58.485332,34.5040005 58.2426678,34.6586656 58.024,34.872 C57.8053322,35.0853344 57.6266674,35.3599983 57.488,35.696 C57.3493326,36.0320017 57.28,36.4399976 57.28,36.92 L57.28,41 L55.952,41 L55.952,33.128 Z M62.368,37.368 C62.4213336,38.2746712 62.6533313,38.9759975 63.064,39.472 C63.4746687,39.9680025 64.0479963,40.216 64.784,40.216 C65.7120046,40.216 66.4106643,39.778671 66.88,38.904 L67.888,39.464 C67.5786651,39.9866693 67.1680026,40.4133317 66.656,40.744 C66.1439974,41.0746683 65.4986706,41.24 64.72,41.24 C64.1013302,41.24 63.5600023,41.1333344 63.096,40.92 C62.6319977,40.7066656 62.2453349,40.4133352 61.936,40.04 C61.6266651,39.6666648 61.3946674,39.2293358 61.24,38.728 C61.0853326,38.2266642 61.008,37.6880029 61.008,37.112 C61.008,36.5466638 61.0826659,36.0080026 61.232,35.496 C61.3813341,34.9839974 61.6079985,34.5360019 61.912,34.152 C62.2160015,33.7679981 62.5893311,33.4640011 63.032,33.24 C63.4746689,33.0159989 63.9946637,32.904 64.592,32.904 C65.1680029,32.904 65.6693312,33.0133322 66.096,33.232 C66.5226688,33.4506678 66.8773319,33.7439982 67.16,34.112 C67.4426681,34.4800018 67.6559993,34.9066642 67.8,35.392 C67.9440007,35.8773358 68.016,36.3919973 68.016,36.936 C68.016,37.0533339 68.0133334,37.1439997 68.008,37.208 C68.0026666,37.2720003 68,37.3253331 68,37.368 L62.368,37.368 Z M64.576,33.912 C63.9039966,33.912 63.3840018,34.1519976 63.016,34.632 C62.6479982,35.1120024 62.4373336,35.7573293 62.384,36.568 L66.656,36.568 C66.656,36.2373317 66.618667,35.9146682 66.544,35.6 C66.469333,35.2853318 66.3466675,35.0026679 66.176,34.752 C66.0053325,34.5013321 65.7893346,34.2986674 65.528,34.144 C65.2666654,33.9893326 64.9493352,33.912 64.576,33.912 Z M69.776,39.064 C70.042668,39.405335 70.3866646,39.6879989 70.808,39.912 C71.2293354,40.1360011 71.6906642,40.248 72.192,40.248 C72.6400022,40.248 73.0293317,40.1413344 73.36,39.928 C73.6906683,39.7146656 73.856,39.3946688 73.856,38.968 C73.856,38.6373317 73.7466678,38.3786676 73.528,38.192 C73.3093322,38.0053324 73.037335,37.8480006 72.712,37.72 C72.386665,37.5919994 72.0320019,37.4746672 71.648,37.368 C71.2639981,37.2613328 70.909335,37.1226675 70.584,36.952 C70.258665,36.7813325 69.9866678,36.5573347 69.768,36.28 C69.5493322,36.0026653 69.44,35.6240024 69.44,35.144 C69.44,34.7493314 69.5199992,34.4106681 69.68,34.128 C69.8400008,33.8453319 70.0506654,33.6133342 70.312,33.432 C70.5733346,33.2506658 70.874665,33.1173338 71.216,33.032 C71.557335,32.9466662 71.9146648,32.904 72.288,32.904 C73.3973389,32.904 74.3199963,33.2239968 75.056,33.864 L74.384,34.76 C74.1493322,34.5146654 73.8373353,34.3093342 73.448,34.144 C73.0586647,33.9786658 72.6560021,33.896 72.24,33.896 C72.0586658,33.896 71.8800009,33.9173331 71.704,33.96 C71.5279991,34.0026669 71.373334,34.0693329 71.24,34.16 C71.106666,34.2506671 71.0000004,34.3653326 70.92,34.504 C70.8399996,34.6426674 70.8,34.8133323 70.8,35.016 C70.8,35.3253349 70.9093322,35.5653325 71.128,35.736 C71.3466678,35.9066675 71.618665,36.0533327 71.944,36.176 C72.269335,36.2986673 72.6213314,36.4159994 73,36.528 C73.3786686,36.6400006 73.730665,36.7839991 74.056,36.96 C74.381335,37.1360009 74.6533322,37.3679986 74.872,37.656 C75.0906678,37.9440014 75.2,38.3279976 75.2,38.808 C75.2,39.2133354 75.1173342,39.5679985 74.952,39.872 C74.7866658,40.1760015 74.5680014,40.4293323 74.296,40.632 C74.0239986,40.8346677 73.7093351,40.9866662 73.352,41.088 C72.9946649,41.1893338 72.6240019,41.24 72.24,41.24 C70.9173267,41.24 69.8666706,40.8133376 69.088,39.96 L69.776,39.064 Z" id="H5-Regular-16--Copy-2"></path>
                            <path d="M46.65625,0.277901786 C46.9263406,0.474331339 47.0368306,0.736233482 46.9877232,1.06361607 L43.8448661,19.9207589 C43.8039432,20.1581113 43.6729922,20.3422612 43.4520089,20.4732143 C43.337425,20.5386908 43.2105662,20.5714286 43.0714286,20.5714286 C42.9813984,20.5714286 42.8831851,20.5509675 42.7767857,20.5100446 L37.2154018,18.2388393 L34.2444196,21.8604911 C34.0970975,22.0487361 33.8965786,22.1428571 33.6428571,22.1428571 C33.5364578,22.1428571 33.4464289,22.1264883 33.3727679,22.09375 C33.2172611,22.036458 33.0924484,21.9402909 32.9983259,21.8052455 C32.9042034,21.6702002 32.8571429,21.5208342 32.8571429,21.3571429 L32.8571429,17.0725446 L43.4642857,4.07142857 L30.3404018,15.4274554 L25.4910714,13.4386161 C25.1882425,13.3240322 25.0245537,13.09896 25,12.7633929 C24.9836309,12.4360103 25.1145819,12.1945692 25.3928571,12.0390625 L45.8214286,0.253348214 C45.944197,0.179687132 46.0751481,0.142857143 46.2142857,0.142857143 C46.377977,0.142857143 46.525297,0.187871574 46.65625,0.277901786 Z" id="paper-plane---FontAwesome"></path>
                        </g>
                    </g>
                    <path d="M106.5,68.5 L215.5,68.5" id="Active-line-Copy-2" stroke="#BFDC24" stroke-width="3" stroke-linecap="square"></path>
                </g>
            </g>
        </g>
    </g>
</svg>