<?xml version="1.0" encoding="UTF-8"?>
<svg width="241px" height="15px" viewBox="0 0 241 15" version="1.1" xmlns="http://www.w3.org/2000/svg" xmlns:xlink="http://www.w3.org/1999/xlink">
    <!-- Generator: Sketch 47 (45396) - http://www.bohemiancoding.com/sketch -->
    <title>Breadcrumbs 1</title>
    <desc>Created with Sketch.</desc>
    <defs></defs>
    <g id="Page-1" stroke="none" stroke-width="1" fill="none" fill-rule="evenodd">
        <g id="Bradcrumb-Usage-extra-large-1200" transform="translate(-388.000000, -1602.000000)">
            <g id="Group-6" transform="translate(303.000000, 1558.000000)">
                <g id="Breadcrumbs-1" transform="translate(85.000000, 43.000000)">
                    <path d="M0.992,1.704 L2.432,1.704 L2.432,6.584 L7.952,6.584 L7.952,1.704 L9.392,1.704 L9.392,13 L7.952,13 L7.952,7.784 L2.432,7.784 L2.432,13 L0.992,13 L0.992,1.704 Z M14.8,13.24 C14.2026637,13.24 13.6773356,13.1306678 13.224,12.912 C12.7706644,12.6933322 12.3920015,12.3946686 12.088,12.016 C11.7839985,11.6373314 11.5573341,11.1946692 11.408,10.688 C11.2586659,10.1813308 11.184,9.6346696 11.184,9.048 C11.184,8.4613304 11.2613326,7.91733584 11.416,7.416 C11.5706674,6.91466416 11.7999985,6.4773352 12.104,6.104 C12.4080015,5.7306648 12.7866644,5.4373344 13.24,5.224 C13.6933356,5.0106656 14.2133304,4.904 14.8,4.904 C15.3866696,4.904 15.9066644,5.0106656 16.36,5.224 C16.8133356,5.4373344 17.1946651,5.72799816 17.504,6.096 C17.8133349,6.46400184 18.0453326,6.9013308 18.2,7.408 C18.3546674,7.9146692 18.432,8.4613304 18.432,9.048 C18.432,9.6346696 18.3546674,10.1813308 18.2,10.688 C18.0453326,11.1946692 17.8133349,11.6373314 17.504,12.016 C17.1946651,12.3946686 16.8133356,12.6933322 16.36,12.912 C15.9066644,13.1306678 15.3866696,13.24 14.8,13.24 Z M14.832,12.2 C15.1946685,12.2 15.5146653,12.1200008 15.792,11.96 C16.0693347,11.7999992 16.2986658,11.5786681 16.48,11.296 C16.6613342,11.0133319 16.7999995,10.6800019 16.896,10.296 C16.9920005,9.91199808 17.04,9.49600224 17.04,9.048 C17.04,8.59999776 16.9920005,8.18666856 16.896,7.808 C16.7999995,7.42933144 16.656001,7.10133472 16.464,6.824 C16.271999,6.54666528 16.0373347,6.33066744 15.76,6.176 C15.4826653,6.02133256 15.1626685,5.944 14.8,5.944 C14.4266648,5.944 14.1013347,6.02133256 13.824,6.176 C13.5466653,6.33066744 13.3173342,6.54666528 13.136,6.824 C12.9546658,7.10133472 12.8160005,7.42933144 12.72,7.808 C12.6239995,8.18666856 12.576,8.59999776 12.576,9.048 C12.576,9.49600224 12.6239995,9.91199808 12.72,10.296 C12.8160005,10.6800019 12.9573324,11.0133319 13.144,11.296 C13.3306676,11.5786681 13.5653319,11.7999992 13.848,11.96 C14.1306681,12.1200008 14.4586648,12.2 14.832,12.2 Z M20.128,5.128 L21.28,5.128 L21.424,6.664 C21.616001,6.11999728 21.9146646,5.69066824 22.32,5.376 C22.7253354,5.06133176 23.2213304,4.904 23.808,4.904 C24.4266698,4.904 24.9119982,5.07999824 25.264,5.432 C25.6160018,5.78400176 25.8399995,6.21066416 25.936,6.712 C26.0320005,6.46666544 26.1519993,6.23466776 26.296,6.016 C26.4400007,5.79733224 26.6133323,5.60533416 26.816,5.44 C27.0186677,5.27466584 27.253332,5.14400048 27.52,5.048 C27.786668,4.95199952 28.090665,4.904 28.432,4.904 C28.8800022,4.904 29.2506652,4.98133256 29.544,5.136 C29.8373348,5.29066744 30.0719991,5.501332 30.248,5.768 C30.4240009,6.034668 30.549333,6.34666488 30.624,6.704 C30.698667,7.06133512 30.736,7.43733136 30.736,7.832 L30.736,13 L29.408,13 L29.408,8.168 C29.408,7.46399648 29.2826679,6.9386684 29.032,6.592 C28.7813321,6.2453316 28.4160024,6.072 27.936,6.072 C27.4133307,6.072 26.9760018,6.30399768 26.624,6.768 C26.2719982,7.23200232 26.096,7.89599568 26.096,8.76 L26.096,13 L24.768,13 L24.768,8.232 C24.768,7.49599632 24.6400013,6.95200176 24.384,6.6 C24.1279987,6.24799824 23.770669,6.072 23.312,6.072 C22.7999974,6.072 22.3626685,6.30933096 22,6.784 C21.6373315,7.25866904 21.456,7.94399552 21.456,8.84 L21.456,13 L20.128,13 L20.128,5.128 Z M33.76,9.368 C33.8133336,10.2746712 34.0453313,10.9759975 34.456,11.472 C34.8666687,11.9680025 35.4399963,12.216 36.176,12.216 C37.1040046,12.216 37.8026643,11.778671 38.272,10.904 L39.28,11.464 C38.9706651,11.9866693 38.5600026,12.4133317 38.048,12.744 C37.5359974,13.0746683 36.8906706,13.24 36.112,13.24 C35.4933302,13.24 34.9520023,13.1333344 34.488,12.92 C34.0239977,12.7066656 33.6373349,12.4133352 33.328,12.04 C33.0186651,11.6666648 32.7866674,11.2293358 32.632,10.728 C32.4773326,10.2266642 32.4,9.68800288 32.4,9.112 C32.4,8.54666384 32.4746659,8.00800256 32.624,7.496 C32.7733341,6.98399744 32.9999985,6.53600192 33.304,6.152 C33.6080015,5.76799808 33.9813311,5.46400112 34.424,5.24 C34.8666689,5.01599888 35.3866637,4.904 35.984,4.904 C36.5600029,4.904 37.0613312,5.01333224 37.488,5.232 C37.9146688,5.45066776 38.2693319,5.74399816 38.552,6.112 C38.8346681,6.48000184 39.0479993,6.90666424 39.192,7.392 C39.3360007,7.87733576 39.408,8.39199728 39.408,8.936 C39.408,9.05333392 39.4053334,9.14399968 39.4,9.208 C39.3946666,9.27200032 39.392,9.32533312 39.392,9.368 L33.76,9.368 Z M35.968,5.912 C35.2959966,5.912 34.7760018,6.1519976 34.408,6.632 C34.0399982,7.1120024 33.8293336,7.75732928 33.776,8.568 L38.048,8.568 C38.048,8.23733168 38.010667,7.91466824 37.936,7.6 C37.861333,7.28533176 37.7386675,7.00266792 37.568,6.752 C37.3973325,6.50133208 37.1813346,6.29866744 36.92,6.144 C36.6586654,5.98933256 36.3413352,5.912 35.968,5.912 Z" id="Home" fill="#0D78AA"></path>
                    <path d="M64.556,1.704 L68.348,1.704 C68.9133362,1.704 69.4359976,1.76799936 69.916,1.896 C70.3960024,2.02400064 70.8093316,2.221332 71.156,2.488 C71.5026684,2.754668 71.7746657,3.09333128 71.972,3.504 C72.1693343,3.91466872 72.268,4.40799712 72.268,4.984 C72.268,5.6240032 72.1693343,6.16799776 71.972,6.616 C71.7746657,7.06400224 71.5000018,7.42666528 71.148,7.704 C70.7959982,7.98133472 70.382669,8.18133272 69.908,8.304 C69.433331,8.42666728 68.9186694,8.488 68.364,8.488 L65.996,8.488 L65.996,13 L64.556,13 L64.556,1.704 Z M68.124,7.336 C68.9560042,7.336 69.601331,7.15733512 70.06,6.8 C70.518669,6.44266488 70.748,5.8373376 70.748,4.984 C70.748,4.58933136 70.681334,4.25333472 70.548,3.976 C70.414666,3.69866528 70.2333345,3.47466752 70.004,3.304 C69.7746655,3.13333248 69.5026682,3.01066704 69.188,2.936 C68.8733318,2.86133296 68.5346685,2.824 68.172,2.824 L65.996,2.824 L65.996,7.336 L68.124,7.336 Z M73.82,5.128 L75.164,5.128 L75.164,9.896 C75.164,10.6426704 75.3026653,11.1893316 75.58,11.536 C75.8573347,11.8826684 76.2466642,12.056 76.748,12.056 C77.3880032,12.056 77.8866649,11.8026692 78.244,11.296 C78.6013351,10.7893308 78.78,10.1146709 78.78,9.272 L78.78,5.128 L80.108,5.128 L80.108,13 L78.86,13 L78.86,11.4 C78.7639995,11.6453346 78.6466674,11.8773322 78.508,12.096 C78.3693326,12.3146678 78.1986677,12.5066658 77.996,12.672 C77.7933323,12.8373342 77.558668,12.9679995 77.292,13.064 C77.025332,13.1600005 76.7106685,13.208 76.348,13.208 C75.4946624,13.208 74.8600021,12.9493359 74.444,12.432 C74.0279979,11.9146641 73.82,11.1813381 73.82,10.232 L73.82,5.128 Z M82.156,5.128 L83.308,5.128 L83.436,6.888 C83.6600011,6.31199712 84.0173309,5.8373352 84.508,5.464 C84.9986691,5.0906648 85.5799966,4.904 86.252,4.904 L86.252,6.312 C86.1026659,6.27999984 85.9373342,6.264 85.756,6.264 C85.489332,6.264 85.222668,6.31199952 84.956,6.408 C84.689332,6.50400048 84.4466678,6.6586656 84.228,6.872 C84.0093322,7.0853344 83.8306674,7.35999832 83.692,7.696 C83.5533326,8.03200168 83.484,8.4399976 83.484,8.92 L83.484,13 L82.156,13 L82.156,5.128 Z M94.14,11.272 C93.8199984,11.9120032 93.3906694,12.3999983 92.852,12.736 C92.3133306,13.0720017 91.6600038,13.24 90.892,13.24 C90.2626635,13.24 89.7160023,13.1306678 89.252,12.912 C88.7879977,12.6933322 88.4040015,12.3973352 88.1,12.024 C87.7959985,11.6506648 87.5720007,11.2106692 87.428,10.704 C87.2839993,10.1973308 87.212,9.65600288 87.212,9.08 C87.212,8.4933304 87.2893326,7.9466692 87.444,7.44 C87.5986674,6.9333308 87.8279985,6.4933352 88.132,6.12 C88.4360015,5.7466648 88.817331,5.45066776 89.276,5.232 C89.734669,5.01333224 90.2733302,4.904 90.892,4.904 C91.6706706,4.904 92.3186641,5.0773316 92.836,5.424 C93.3533359,5.7706684 93.7719984,6.25866352 94.092,6.888 L92.972,7.416 C92.5666646,6.43466176 91.8840048,5.944 90.924,5.944 C90.5186646,5.944 90.1693348,6.0239992 89.876,6.184 C89.5826652,6.3440008 89.3426676,6.56266528 89.156,6.84 C88.9693324,7.11733472 88.8306671,7.43999816 88.74,7.808 C88.6493329,8.17600184 88.604,8.5733312 88.604,9 C88.604,9.40533536 88.6466662,9.79999808 88.732,10.184 C88.8173338,10.5680019 88.955999,10.9093318 89.148,11.208 C89.340001,11.5066682 89.5853318,11.7466658 89.884,11.928 C90.1826682,12.1093342 90.5506645,12.2 90.988,12.2 C91.5426694,12.2 91.990665,12.0586681 92.332,11.776 C92.673335,11.4933319 92.9346658,11.1280022 93.116,10.68 L94.14,11.272 Z M95.612,1.704 L96.94,1.704 L96.94,6.68 C97.0360005,6.44533216 97.1586659,6.2213344 97.308,6.008 C97.4573341,5.7946656 97.6386656,5.60533416 97.852,5.44 C98.0653344,5.27466584 98.3106653,5.14400048 98.588,5.048 C98.8653347,4.95199952 99.174665,4.904 99.516,4.904 C100.337337,4.904 100.942665,5.17333064 101.332,5.712 C101.721335,6.25066936 101.916,6.97866208 101.916,7.896 L101.916,13 L100.588,13 L100.588,8.104 C100.588,7.43199664 100.449335,6.92800168 100.172,6.592 C99.8946653,6.25599832 99.5000026,6.088 98.988,6.088 C98.6893318,6.088 98.4146679,6.15199936 98.164,6.28 C97.9133321,6.40800064 97.6973342,6.58933216 97.516,6.824 C97.3346658,7.05866784 97.1933338,7.34133168 97.092,7.672 C96.9906662,8.00266832 96.94,8.36533136 96.94,8.76 L96.94,13 L95.612,13 L95.612,1.704 Z M108.876,13 C108.758666,12.6159981 108.689333,12.157336 108.668,11.624 C108.454666,12.1146691 108.126669,12.5066652 107.684,12.8 C107.241331,13.0933348 106.716003,13.24 106.108,13.24 C105.339996,13.24 104.732002,13.0213355 104.284,12.584 C103.835998,12.1466645 103.612,11.5600037 103.612,10.824 C103.612,10.4079979 103.686666,10.0586681 103.836,9.776 C103.985334,9.49333192 104.193332,9.2586676 104.46,9.072 C104.726668,8.8853324 105.041332,8.7386672 105.404,8.632 C105.766668,8.5253328 106.161331,8.44000032 106.588,8.376 L108.604,8.072 L108.604,7.576 C108.604,7.22399824 108.561334,6.9413344 108.476,6.728 C108.390666,6.5146656 108.273334,6.34933392 108.124,6.232 C107.974666,6.11466608 107.804001,6.03733352 107.612,6 C107.419999,5.96266648 107.217334,5.944 107.004,5.944 C106.395997,5.944 105.894669,6.05599888 105.5,6.28 C105.105331,6.50400112 104.774668,6.78666496 104.508,7.128 L103.82,6.264 C104.129335,5.8906648 104.558664,5.570668 105.108,5.304 C105.657336,5.037332 106.337329,4.904 107.148,4.904 C108.129338,4.904 108.841331,5.12266448 109.284,5.56 C109.726669,5.99733552 109.948,6.70132848 109.948,7.672 L109.948,10.856 C109.948,11.1120013 109.950667,11.335999 109.956,11.528 C109.961333,11.720001 109.972,11.8986658 109.988,12.064 C110.004,12.2293342 110.028,12.3866659 110.06,12.536 C110.092,12.6853341 110.134666,12.8399992 110.188,13 L108.876,13 Z M108.604,8.952 L106.716,9.256 C106.06533,9.37333392 105.604001,9.54933216 105.332,9.784 C105.059999,10.0186678 104.924,10.3439979 104.924,10.76 C104.924,11.1866688 105.049332,11.5439986 105.3,11.832 C105.550668,12.1200014 105.921331,12.264 106.412,12.264 C106.710668,12.264 106.993332,12.2053339 107.26,12.088 C107.526668,11.9706661 107.758666,11.808001 107.956,11.6 C108.153334,11.391999 108.310666,11.1413348 108.428,10.848 C108.545334,10.5546652 108.604,10.2320018 108.604,9.88 L108.604,8.952 Z M112.22,11.064 C112.486668,11.405335 112.830665,11.6879989 113.252,11.912 C113.673335,12.1360011 114.134664,12.248 114.636,12.248 C115.084002,12.248 115.473332,12.1413344 115.804,11.928 C116.134668,11.7146656 116.3,11.3946688 116.3,10.968 C116.3,10.6373317 116.190668,10.3786676 115.972,10.192 C115.753332,10.0053324 115.481335,9.84800064 115.156,9.72 C114.830665,9.59199936 114.476002,9.4746672 114.092,9.368 C113.707998,9.2613328 113.353335,9.12266752 113.028,8.952 C112.702665,8.78133248 112.430668,8.55733472 112.212,8.28 C111.993332,8.00266528 111.884,7.6240024 111.884,7.144 C111.884,6.74933136 111.963999,6.41066808 112.124,6.128 C112.284001,5.84533192 112.494665,5.61333424 112.756,5.432 C113.017335,5.25066576 113.318665,5.11733376 113.66,5.032 C114.001335,4.94666624 114.358665,4.904 114.732,4.904 C115.841339,4.904 116.763996,5.2239968 117.5,5.864 L116.828,6.76 C116.593332,6.51466544 116.281335,6.30933416 115.892,6.144 C115.502665,5.97866584 115.100002,5.896 114.684,5.896 C114.502666,5.896 114.324001,5.91733312 114.148,5.96 C113.971999,6.00266688 113.817334,6.06933288 113.684,6.16 C113.550666,6.25066712 113.444,6.36533264 113.364,6.504 C113.284,6.64266736 113.244,6.81333232 113.244,7.016 C113.244,7.32533488 113.353332,7.56533248 113.572,7.736 C113.790668,7.90666752 114.062665,8.05333272 114.388,8.176 C114.713335,8.29866728 115.065331,8.41599944 115.444,8.528 C115.822669,8.64000056 116.174665,8.78399912 116.5,8.96 C116.825335,9.13600088 117.097332,9.36799856 117.316,9.656 C117.534668,9.94400144 117.644,10.3279976 117.644,10.808 C117.644,11.2133354 117.561334,11.5679985 117.396,11.872 C117.230666,12.1760015 117.012001,12.4293323 116.74,12.632 C116.467999,12.8346677 116.153335,12.9866662 115.796,13.088 C115.438665,13.1893338 115.068002,13.24 114.684,13.24 C113.361327,13.24 112.310671,12.8133376 111.532,11.96 L112.22,11.064 Z M120.204,9.368 C120.257334,10.2746712 120.489331,10.9759975 120.9,11.472 C121.310669,11.9680025 121.883996,12.216 122.62,12.216 C123.548005,12.216 124.246664,11.778671 124.716,10.904 L125.724,11.464 C125.414665,11.9866693 125.004003,12.4133317 124.492,12.744 C123.979997,13.0746683 123.334671,13.24 122.556,13.24 C121.93733,13.24 121.396002,13.1333344 120.932,12.92 C120.467998,12.7066656 120.081335,12.4133352 119.772,12.04 C119.462665,11.6666648 119.230667,11.2293358 119.076,10.728 C118.921333,10.2266642 118.844,9.68800288 118.844,9.112 C118.844,8.54666384 118.918666,8.00800256 119.068,7.496 C119.217334,6.98399744 119.443998,6.53600192 119.748,6.152 C120.052002,5.76799808 120.425331,5.46400112 120.868,5.24 C121.310669,5.01599888 121.830664,4.904 122.428,4.904 C123.004003,4.904 123.505331,5.01333224 123.932,5.232 C124.358669,5.45066776 124.713332,5.74399816 124.996,6.112 C125.278668,6.48000184 125.491999,6.90666424 125.636,7.392 C125.780001,7.87733576 125.852,8.39199728 125.852,8.936 C125.852,9.05333392 125.849333,9.14399968 125.844,9.208 C125.838667,9.27200032 125.836,9.32533312 125.836,9.368 L120.204,9.368 Z M122.412,5.912 C121.739997,5.912 121.220002,6.1519976 120.852,6.632 C120.483998,7.1120024 120.273334,7.75732928 120.22,8.568 L124.492,8.568 C124.492,8.23733168 124.454667,7.91466824 124.38,7.6 C124.305333,7.28533176 124.182668,7.00266792 124.012,6.752 C123.841332,6.50133208 123.625335,6.29866744 123.364,6.144 C123.102665,5.98933256 122.785335,5.912 122.412,5.912 Z M127.612,11.064 C127.878668,11.405335 128.222665,11.6879989 128.644,11.912 C129.065335,12.1360011 129.526664,12.248 130.028,12.248 C130.476002,12.248 130.865332,12.1413344 131.196,11.928 C131.526668,11.7146656 131.692,11.3946688 131.692,10.968 C131.692,10.6373317 131.582668,10.3786676 131.364,10.192 C131.145332,10.0053324 130.873335,9.84800064 130.548,9.72 C130.222665,9.59199936 129.868002,9.4746672 129.484,9.368 C129.099998,9.2613328 128.745335,9.12266752 128.42,8.952 C128.094665,8.78133248 127.822668,8.55733472 127.604,8.28 C127.385332,8.00266528 127.276,7.6240024 127.276,7.144 C127.276,6.74933136 127.355999,6.41066808 127.516,6.128 C127.676001,5.84533192 127.886665,5.61333424 128.148,5.432 C128.409335,5.25066576 128.710665,5.11733376 129.052,5.032 C129.393335,4.94666624 129.750665,4.904 130.124,4.904 C131.233339,4.904 132.155996,5.2239968 132.892,5.864 L132.22,6.76 C131.985332,6.51466544 131.673335,6.30933416 131.284,6.144 C130.894665,5.97866584 130.492002,5.896 130.076,5.896 C129.894666,5.896 129.716001,5.91733312 129.54,5.96 C129.363999,6.00266688 129.209334,6.06933288 129.076,6.16 C128.942666,6.25066712 128.836,6.36533264 128.756,6.504 C128.676,6.64266736 128.636,6.81333232 128.636,7.016 C128.636,7.32533488 128.745332,7.56533248 128.964,7.736 C129.182668,7.90666752 129.454665,8.05333272 129.78,8.176 C130.105335,8.29866728 130.457331,8.41599944 130.836,8.528 C131.214669,8.64000056 131.566665,8.78399912 131.892,8.96 C132.217335,9.13600088 132.489332,9.36799856 132.708,9.656 C132.926668,9.94400144 133.036,10.3279976 133.036,10.808 C133.036,11.2133354 132.953334,11.5679985 132.788,11.872 C132.622666,12.1760015 132.404001,12.4293323 132.132,12.632 C131.859999,12.8346677 131.545335,12.9866662 131.188,13.088 C130.830665,13.1893338 130.460002,13.24 130.076,13.24 C128.753327,13.24 127.702671,12.8133376 126.924,11.96 L127.612,11.064 Z" id="Purchases" fill="#0D78AA"></path>
                    <path d="M161.416,1.704 L162.744,1.704 L166.728,13 L165.224,13 L164.216,9.96 L159.864,9.96 L158.856,13 L157.4,13 L161.416,1.704 Z M163.832,8.856 C163.533332,7.92799536 163.237335,7.01867112 162.944,6.128 C162.650665,5.23732888 162.354668,4.30133824 162.056,3.32 C161.778665,4.2800048 161.485335,5.21066216 161.176,6.112 C160.866665,7.01333784 160.557335,7.92799536 160.248,8.856 L163.832,8.856 Z M173.448,11.464 C173.234666,11.997336 172.920002,12.4186651 172.504,12.728 C172.087998,13.0373349 171.57067,13.192 170.952,13.192 C170.461331,13.192 170.021335,13.0906677 169.632,12.888 C169.242665,12.6853323 168.912001,12.4026685 168.64,12.04 C168.367999,11.6773315 168.160001,11.2400026 168.016,10.728 C167.871999,10.2159974 167.8,9.65066976 167.8,9.032 C167.8,8.3919968 167.874666,7.8186692 168.024,7.312 C168.173334,6.8053308 168.386665,6.37600176 168.664,6.024 C168.941335,5.67199824 169.274665,5.40000096 169.664,5.208 C170.053335,5.01599904 170.482664,4.92 170.952,4.92 C171.592003,4.92 172.114665,5.07199848 172.52,5.376 C172.925335,5.68000152 173.213332,6.0453312 173.384,6.472 L173.384,1.704 L174.728,1.704 L174.728,13 L173.448,13 L173.448,11.464 Z M173.384,9.016 C173.384,8.68533168 173.376,8.4266676 173.36,8.24 C173.344,8.0533324 173.325333,7.90133392 173.304,7.784 C173.250666,7.54933216 173.170667,7.3253344 173.064,7.112 C172.957333,6.8986656 172.821334,6.70933416 172.656,6.544 C172.490666,6.37866584 172.296001,6.24800048 172.072,6.152 C171.847999,6.05599952 171.592001,6.008 171.304,6.008 C170.941332,6.008 170.629335,6.0879992 170.368,6.248 C170.106665,6.4080008 169.888001,6.62399864 169.712,6.896 C169.535999,7.16800136 169.405334,7.48799816 169.32,7.856 C169.234666,8.22400184 169.192,8.61599792 169.192,9.032 C169.192,9.48000224 169.24,9.89333144 169.336,10.272 C169.432,10.6506686 169.570666,10.9759986 169.752,11.248 C169.933334,11.5200014 170.157332,11.7333326 170.424,11.888 C170.690668,12.0426674 170.994665,12.12 171.336,12.12 C171.602668,12.12 171.845332,12.0720005 172.064,11.976 C172.282668,11.8799995 172.474666,11.7466675 172.64,11.576 C172.805334,11.4053325 172.941333,11.2106678 173.048,10.992 C173.154667,10.7733322 173.234666,10.5413346 173.288,10.296 C173.352,9.99733184 173.384,9.59733584 173.384,9.096 L173.384,9.016 Z M182.056,11.464 C181.842666,11.997336 181.528002,12.4186651 181.112,12.728 C180.695998,13.0373349 180.17867,13.192 179.56,13.192 C179.069331,13.192 178.629335,13.0906677 178.24,12.888 C177.850665,12.6853323 177.520001,12.4026685 177.248,12.04 C176.975999,11.6773315 176.768001,11.2400026 176.624,10.728 C176.479999,10.2159974 176.408,9.65066976 176.408,9.032 C176.408,8.3919968 176.482666,7.8186692 176.632,7.312 C176.781334,6.8053308 176.994665,6.37600176 177.272,6.024 C177.549335,5.67199824 177.882665,5.40000096 178.272,5.208 C178.661335,5.01599904 179.090664,4.92 179.56,4.92 C180.200003,4.92 180.722665,5.07199848 181.128,5.376 C181.533335,5.68000152 181.821332,6.0453312 181.992,6.472 L181.992,1.704 L183.336,1.704 L183.336,13 L182.056,13 L182.056,11.464 Z M181.992,9.016 C181.992,8.68533168 181.984,8.4266676 181.968,8.24 C181.952,8.0533324 181.933333,7.90133392 181.912,7.784 C181.858666,7.54933216 181.778667,7.3253344 181.672,7.112 C181.565333,6.8986656 181.429334,6.70933416 181.264,6.544 C181.098666,6.37866584 180.904001,6.24800048 180.68,6.152 C180.455999,6.05599952 180.200001,6.008 179.912,6.008 C179.549332,6.008 179.237335,6.0879992 178.976,6.248 C178.714665,6.4080008 178.496001,6.62399864 178.32,6.896 C178.143999,7.16800136 178.013334,7.48799816 177.928,7.856 C177.842666,8.22400184 177.8,8.61599792 177.8,9.032 C177.8,9.48000224 177.848,9.89333144 177.944,10.272 C178.04,10.6506686 178.178666,10.9759986 178.36,11.248 C178.541334,11.5200014 178.765332,11.7333326 179.032,11.888 C179.298668,12.0426674 179.602665,12.12 179.944,12.12 C180.210668,12.12 180.453332,12.0720005 180.672,11.976 C180.890668,11.8799995 181.082666,11.7466675 181.248,11.576 C181.413334,11.4053325 181.549333,11.2106678 181.656,10.992 C181.762667,10.7733322 181.842666,10.5413346 181.896,10.296 C181.96,9.99733184 181.992,9.59733584 181.992,9.096 L181.992,9.016 Z M188.968,5.128 L190.296,5.128 L190.296,6.648 C190.392,6.42399888 190.514666,6.2053344 190.664,5.992 C190.813334,5.7786656 190.991999,5.5920008 191.2,5.432 C191.408001,5.2719992 191.650665,5.14400048 191.928,5.048 C192.205335,4.95199952 192.519998,4.904 192.872,4.904 C193.384003,4.904 193.829331,5.0106656 194.208,5.224 C194.586669,5.4373344 194.898665,5.7306648 195.144,6.104 C195.389335,6.4773352 195.573333,6.91199752 195.696,7.408 C195.818667,7.90400248 195.88,8.43999712 195.88,9.016 C195.88,9.69867008 195.800001,10.3013307 195.64,10.824 C195.479999,11.3466693 195.256001,11.7839982 194.968,12.136 C194.679999,12.4880018 194.344002,12.7546658 193.96,12.936 C193.575998,13.1173342 193.160002,13.208 192.712,13.208 C192.12533,13.208 191.621335,13.0640014 191.2,12.776 C190.778665,12.4879986 190.477334,12.1306688 190.296,11.704 L190.296,15.768 L188.968,15.768 L188.968,5.128 Z M190.296,9.112 C190.296,9.33600112 190.304,9.5413324 190.32,9.728 C190.336,9.9146676 190.354667,10.0719994 190.376,10.2 C190.418667,10.4560013 190.498666,10.7013322 190.616,10.936 C190.733334,11.1706678 190.877332,11.3759991 191.048,11.552 C191.218668,11.7280009 191.418666,11.8693328 191.648,11.976 C191.877334,12.0826672 192.130665,12.136 192.408,12.136 C192.770668,12.136 193.082665,12.0506675 193.344,11.88 C193.605335,11.7093325 193.821332,11.4800014 193.992,11.192 C194.162668,10.9039986 194.288,10.5760018 194.368,10.208 C194.448,9.83999816 194.488,9.45866864 194.488,9.064 C194.488,8.66933136 194.450667,8.28800184 194.376,7.92 C194.301333,7.55199816 194.181334,7.22666808 194.016,6.944 C193.850666,6.66133192 193.634668,6.43466752 193.368,6.264 C193.101332,6.09333248 192.781335,6.008 192.408,6.008 C192.119999,6.008 191.856001,6.0613328 191.616,6.168 C191.375999,6.2746672 191.170668,6.41866576 191,6.6 C190.829332,6.78133424 190.688001,6.98933216 190.576,7.224 C190.463999,7.45866784 190.392,7.70399872 190.36,7.96 C190.338667,8.0666672 190.322667,8.2133324 190.312,8.4 C190.301333,8.5866676 190.296,8.80266544 190.296,9.048 L190.296,9.112 Z M197.576,5.128 L198.728,5.128 L198.856,6.888 C199.080001,6.31199712 199.437331,5.8373352 199.928,5.464 C200.418669,5.0906648 200.999997,4.904 201.672,4.904 L201.672,6.312 C201.522666,6.27999984 201.357334,6.264 201.176,6.264 C200.909332,6.264 200.642668,6.31199952 200.376,6.408 C200.109332,6.50400048 199.866668,6.6586656 199.648,6.872 C199.429332,7.0853344 199.250667,7.35999832 199.112,7.696 C198.973333,8.03200168 198.904,8.4399976 198.904,8.92 L198.904,13 L197.576,13 L197.576,5.128 Z M206.248,13.24 C205.650664,13.24 205.125336,13.1306678 204.672,12.912 C204.218664,12.6933322 203.840002,12.3946686 203.536,12.016 C203.231998,11.6373314 203.005334,11.1946692 202.856,10.688 C202.706666,10.1813308 202.632,9.6346696 202.632,9.048 C202.632,8.4613304 202.709333,7.91733584 202.864,7.416 C203.018667,6.91466416 203.247998,6.4773352 203.552,6.104 C203.856002,5.7306648 204.234664,5.4373344 204.688,5.224 C205.141336,5.0106656 205.66133,4.904 206.248,4.904 C206.83467,4.904 207.354664,5.0106656 207.808,5.224 C208.261336,5.4373344 208.642665,5.72799816 208.952,6.096 C209.261335,6.46400184 209.493333,6.9013308 209.648,7.408 C209.802667,7.9146692 209.88,8.4613304 209.88,9.048 C209.88,9.6346696 209.802667,10.1813308 209.648,10.688 C209.493333,11.1946692 209.261335,11.6373314 208.952,12.016 C208.642665,12.3946686 208.261336,12.6933322 207.808,12.912 C207.354664,13.1306678 206.83467,13.24 206.248,13.24 Z M206.28,12.2 C206.642668,12.2 206.962665,12.1200008 207.24,11.96 C207.517335,11.7999992 207.746666,11.5786681 207.928,11.296 C208.109334,11.0133319 208.248,10.6800019 208.344,10.296 C208.44,9.91199808 208.488,9.49600224 208.488,9.048 C208.488,8.59999776 208.44,8.18666856 208.344,7.808 C208.248,7.42933144 208.104001,7.10133472 207.912,6.824 C207.719999,6.54666528 207.485335,6.33066744 207.208,6.176 C206.930665,6.02133256 206.610668,5.944 206.248,5.944 C205.874665,5.944 205.549335,6.02133256 205.272,6.176 C204.994665,6.33066744 204.765334,6.54666528 204.584,6.824 C204.402666,7.10133472 204.264,7.42933144 204.168,7.808 C204.072,8.18666856 204.024,8.59999776 204.024,9.048 C204.024,9.49600224 204.072,9.91199808 204.168,10.296 C204.264,10.6800019 204.405332,11.0133319 204.592,11.296 C204.778668,11.5786681 205.013332,11.7999992 205.296,11.96 C205.578668,12.1200008 205.906665,12.2 206.28,12.2 Z M216.872,11.464 C216.658666,11.997336 216.344002,12.4186651 215.928,12.728 C215.511998,13.0373349 214.99467,13.192 214.376,13.192 C213.885331,13.192 213.445335,13.0906677 213.056,12.888 C212.666665,12.6853323 212.336001,12.4026685 212.064,12.04 C211.791999,11.6773315 211.584001,11.2400026 211.44,10.728 C211.295999,10.2159974 211.224,9.65066976 211.224,9.032 C211.224,8.3919968 211.298666,7.8186692 211.448,7.312 C211.597334,6.8053308 211.810665,6.37600176 212.088,6.024 C212.365335,5.67199824 212.698665,5.40000096 213.088,5.208 C213.477335,5.01599904 213.906664,4.92 214.376,4.92 C215.016003,4.92 215.538665,5.07199848 215.944,5.376 C216.349335,5.68000152 216.637332,6.0453312 216.808,6.472 L216.808,1.704 L218.152,1.704 L218.152,13 L216.872,13 L216.872,11.464 Z M216.808,9.016 C216.808,8.68533168 216.8,8.4266676 216.784,8.24 C216.768,8.0533324 216.749333,7.90133392 216.728,7.784 C216.674666,7.54933216 216.594667,7.3253344 216.488,7.112 C216.381333,6.8986656 216.245334,6.70933416 216.08,6.544 C215.914666,6.37866584 215.720001,6.24800048 215.496,6.152 C215.271999,6.05599952 215.016001,6.008 214.728,6.008 C214.365332,6.008 214.053335,6.0879992 213.792,6.248 C213.530665,6.4080008 213.312001,6.62399864 213.136,6.896 C212.959999,7.16800136 212.829334,7.48799816 212.744,7.856 C212.658666,8.22400184 212.616,8.61599792 212.616,9.032 C212.616,9.48000224 212.664,9.89333144 212.76,10.272 C212.856,10.6506686 212.994666,10.9759986 213.176,11.248 C213.357334,11.5200014 213.581332,11.7333326 213.848,11.888 C214.114668,12.0426674 214.418665,12.12 214.76,12.12 C215.026668,12.12 215.269332,12.0720005 215.488,11.976 C215.706668,11.8799995 215.898666,11.7466675 216.064,11.576 C216.229334,11.4053325 216.365333,11.2106678 216.472,10.992 C216.578667,10.7733322 216.658666,10.5413346 216.712,10.296 C216.776,9.99733184 216.808,9.59733584 216.808,9.096 L216.808,9.016 Z M220.152,5.128 L221.496,5.128 L221.496,9.896 C221.496,10.6426704 221.634665,11.1893316 221.912,11.536 C222.189335,11.8826684 222.578664,12.056 223.08,12.056 C223.720003,12.056 224.218665,11.8026692 224.576,11.296 C224.933335,10.7893308 225.112,10.1146709 225.112,9.272 L225.112,5.128 L226.44,5.128 L226.44,13 L225.192,13 L225.192,11.4 C225.096,11.6453346 224.978667,11.8773322 224.84,12.096 C224.701333,12.3146678 224.530668,12.5066658 224.328,12.672 C224.125332,12.8373342 223.890668,12.9679995 223.624,13.064 C223.357332,13.1600005 223.042668,13.208 222.68,13.208 C221.826662,13.208 221.192002,12.9493359 220.776,12.432 C220.359998,11.9146641 220.152,11.1813381 220.152,10.232 L220.152,5.128 Z M235.064,11.272 C234.743998,11.9120032 234.314669,12.3999983 233.776,12.736 C233.237331,13.0720017 232.584004,13.24 231.816,13.24 C231.186664,13.24 230.640002,13.1306678 230.176,12.912 C229.711998,12.6933322 229.328002,12.3973352 229.024,12.024 C228.719998,11.6506648 228.496001,11.2106692 228.352,10.704 C228.207999,10.1973308 228.136,9.65600288 228.136,9.08 C228.136,8.4933304 228.213333,7.9466692 228.368,7.44 C228.522667,6.9333308 228.751998,6.4933352 229.056,6.12 C229.360002,5.7466648 229.741331,5.45066776 230.2,5.232 C230.658669,5.01333224 231.19733,4.904 231.816,4.904 C232.594671,4.904 233.242664,5.0773316 233.76,5.424 C234.277336,5.7706684 234.695998,6.25866352 235.016,6.888 L233.896,7.416 C233.490665,6.43466176 232.808005,5.944 231.848,5.944 C231.442665,5.944 231.093335,6.0239992 230.8,6.184 C230.506665,6.3440008 230.266668,6.56266528 230.08,6.84 C229.893332,7.11733472 229.754667,7.43999816 229.664,7.808 C229.573333,8.17600184 229.528,8.5733312 229.528,9 C229.528,9.40533536 229.570666,9.79999808 229.656,10.184 C229.741334,10.5680019 229.879999,10.9093318 230.072,11.208 C230.264001,11.5066682 230.509332,11.7466658 230.808,11.928 C231.106668,12.1093342 231.474664,12.2 231.912,12.2 C232.466669,12.2 232.914665,12.0586681 233.256,11.776 C233.597335,11.4933319 233.858666,11.1280022 234.04,10.68 L235.064,11.272 Z M237.224,6.04 L235.88,6.04 L235.88,5.128 L236.168,5.128 C236.498668,5.128 236.757332,5.09333368 236.944,5.024 C237.130668,4.95466632 237.272,4.84800072 237.368,4.704 C237.464,4.55999928 237.533333,4.37066784 237.576,4.136 C237.618667,3.90133216 237.656,3.61333504 237.688,3.272 L237.72,2.984 L238.552,2.984 L238.552,5.128 L240.248,5.128 L240.248,6.04 L238.552,6.04 L238.552,10.936 C238.552,11.3840022 238.618666,11.7066657 238.752,11.904 C238.885334,12.1013343 239.133332,12.2 239.496,12.2 C239.784001,12.2 240.050665,12.1360006 240.296,12.008 L240.44,12.968 C240.034665,13.1493342 239.586669,13.24 239.096,13.24 C238.711998,13.24 238.400001,13.1866672 238.16,13.08 C237.919999,12.9733328 237.730667,12.8293342 237.592,12.648 C237.453333,12.4666658 237.357334,12.2480013 237.304,11.992 C237.250666,11.7359987 237.224,11.4586682 237.224,11.16 L237.224,6.04 Z" id="Add-product" fill="#4C5358"></path>
                    <path d="M54.1975446,4.8046875 C54.2645093,4.87165212 54.2979911,4.94866028 54.2979911,5.03571429 C54.2979911,5.12276829 54.2645093,5.19977645 54.1975446,5.26674107 L50.25,9.21428571 L54.1975446,13.1618304 C54.2645093,13.228795 54.2979911,13.3058031 54.2979911,13.3928571 C54.2979911,13.4799111 54.2645093,13.5569193 54.1975446,13.6238839 L53.6953125,14.1261161 C53.6283479,14.1930807 53.5513397,14.2265625 53.4642857,14.2265625 C53.3772317,14.2265625 53.3002235,14.1930807 53.2332589,14.1261161 L48.5524554,9.4453125 C48.4854907,9.37834788 48.4520089,9.30133972 48.4520089,9.21428571 C48.4520089,9.12723171 48.4854907,9.05022355 48.5524554,8.98325893 L53.2332589,4.30245536 C53.3002235,4.23549074 53.3772317,4.20200893 53.4642857,4.20200893 C53.5513397,4.20200893 53.6283479,4.23549074 53.6953125,4.30245536 L54.1975446,4.8046875 Z" id="" fill="#AAB1B6" transform="translate(51.375000, 9.214286) rotate(180.000000) translate(-51.375000, -9.214286) "></path>
                    <path d="M148.197545,4.8046875 C148.264509,4.87165212 148.297991,4.94866028 148.297991,5.03571429 C148.297991,5.12276829 148.264509,5.19977645 148.197545,5.26674107 L144.25,9.21428571 L148.197545,13.1618304 C148.264509,13.228795 148.297991,13.3058031 148.297991,13.3928571 C148.297991,13.4799111 148.264509,13.5569193 148.197545,13.6238839 L147.695312,14.1261161 C147.628348,14.1930807 147.55134,14.2265625 147.464286,14.2265625 C147.377232,14.2265625 147.300224,14.1930807 147.233259,14.1261161 L142.552455,9.4453125 C142.485491,9.37834788 142.452009,9.30133972 142.452009,9.21428571 C142.452009,9.12723171 142.485491,9.05022355 142.552455,8.98325893 L147.233259,4.30245536 C147.300224,4.23549074 147.377232,4.20200893 147.464286,4.20200893 C147.55134,4.20200893 147.628348,4.23549074 147.695312,4.30245536 L148.197545,4.8046875 Z" id="angle-left---FontAwesome-Copy" fill="#AAB1B6" transform="translate(145.375000, 9.214286) rotate(180.000000) translate(-145.375000, -9.214286) "></path>
                </g>
            </g>
        </g>
    </g>
</svg>