<?xml version="1.0" encoding="UTF-8"?>
<svg width="39px" height="13px" viewBox="0 0 39 13" version="1.1" xmlns="http://www.w3.org/2000/svg" xmlns:xlink="http://www.w3.org/1999/xlink">
    <!-- Generator: Sketch 47 (45396) - http://www.bohemiancoding.com/sketch -->
    <title>Breadcrumbs 4</title>
    <desc>Created with Sketch.</desc>
    <defs></defs>
    <g id="Page-1" stroke="none" stroke-width="1" fill="none" fill-rule="evenodd">
        <g id="Bradcrumb-Usage-extra-large-1200" transform="translate(-925.000000, -1823.000000)" fill="#4C5358">
            <g id="Group-4" transform="translate(305.000000, 1782.000000)">
                <g id="Breadcrumbs-4" transform="translate(619.000000, 38.000000)">
                    <path d="M1.556,3.704 L2.996,3.704 L2.996,8.584 L8.516,8.584 L8.516,3.704 L9.956,3.704 L9.956,15 L8.516,15 L8.516,9.784 L2.996,9.784 L2.996,15 L1.556,15 L1.556,3.704 Z M15.364,15.24 C14.7666637,15.24 14.2413356,15.1306678 13.788,14.912 C13.3346644,14.6933322 12.9560015,14.3946686 12.652,14.016 C12.3479985,13.6373314 12.1213341,13.1946692 11.972,12.688 C11.8226659,12.1813308 11.748,11.6346696 11.748,11.048 C11.748,10.4613304 11.8253326,9.91733584 11.98,9.416 C12.1346674,8.91466416 12.3639985,8.4773352 12.668,8.104 C12.9720015,7.7306648 13.3506644,7.4373344 13.804,7.224 C14.2573356,7.0106656 14.7773304,6.904 15.364,6.904 C15.9506696,6.904 16.4706644,7.0106656 16.924,7.224 C17.3773356,7.4373344 17.7586651,7.72799816 18.068,8.096 C18.3773349,8.46400184 18.6093326,8.9013308 18.764,9.408 C18.9186674,9.9146692 18.996,10.4613304 18.996,11.048 C18.996,11.6346696 18.9186674,12.1813308 18.764,12.688 C18.6093326,13.1946692 18.3773349,13.6373314 18.068,14.016 C17.7586651,14.3946686 17.3773356,14.6933322 16.924,14.912 C16.4706644,15.1306678 15.9506696,15.24 15.364,15.24 Z M15.396,14.2 C15.7586685,14.2 16.0786653,14.1200008 16.356,13.96 C16.6333347,13.7999992 16.8626658,13.5786681 17.044,13.296 C17.2253342,13.0133319 17.3639995,12.6800019 17.46,12.296 C17.5560005,11.9119981 17.604,11.4960022 17.604,11.048 C17.604,10.5999978 17.5560005,10.1866686 17.46,9.808 C17.3639995,9.42933144 17.220001,9.10133472 17.028,8.824 C16.835999,8.54666528 16.6013347,8.33066744 16.324,8.176 C16.0466653,8.02133256 15.7266685,7.944 15.364,7.944 C14.9906648,7.944 14.6653347,8.02133256 14.388,8.176 C14.1106653,8.33066744 13.8813342,8.54666528 13.7,8.824 C13.5186658,9.10133472 13.3800005,9.42933144 13.284,9.808 C13.1879995,10.1866686 13.14,10.5999978 13.14,11.048 C13.14,11.4960022 13.1879995,11.9119981 13.284,12.296 C13.3800005,12.6800019 13.5213324,13.0133319 13.708,13.296 C13.8946676,13.5786681 14.1293319,13.7999992 14.412,13.96 C14.6946681,14.1200008 15.0226648,14.2 15.396,14.2 Z M20.692,7.128 L21.844,7.128 L21.988,8.664 C22.180001,8.11999728 22.4786646,7.69066824 22.884,7.376 C23.2893354,7.06133176 23.7853304,6.904 24.372,6.904 C24.9906698,6.904 25.4759982,7.07999824 25.828,7.432 C26.1800018,7.78400176 26.4039995,8.21066416 26.5,8.712 C26.5960005,8.46666544 26.7159993,8.23466776 26.86,8.016 C27.0040007,7.79733224 27.1773323,7.60533416 27.38,7.44 C27.5826677,7.27466584 27.817332,7.14400048 28.084,7.048 C28.350668,6.95199952 28.654665,6.904 28.996,6.904 C29.4440022,6.904 29.8146652,6.98133256 30.108,7.136 C30.4013348,7.29066744 30.6359991,7.501332 30.812,7.768 C30.9880009,8.034668 31.113333,8.34666488 31.188,8.704 C31.262667,9.06133512 31.3,9.43733136 31.3,9.832 L31.3,15 L29.972,15 L29.972,10.168 C29.972,9.46399648 29.8466679,8.9386684 29.596,8.592 C29.3453321,8.2453316 28.9800024,8.072 28.5,8.072 C27.9773307,8.072 27.5400018,8.30399768 27.188,8.768 C26.8359982,9.23200232 26.66,9.89599568 26.66,10.76 L26.66,15 L25.332,15 L25.332,10.232 C25.332,9.49599632 25.2040013,8.95200176 24.948,8.6 C24.6919987,8.24799824 24.334669,8.072 23.876,8.072 C23.3639974,8.072 22.9266685,8.30933096 22.564,8.784 C22.2013315,9.25866904 22.02,9.94399552 22.02,10.84 L22.02,15 L20.692,15 L20.692,7.128 Z M34.324,11.368 C34.3773336,12.2746712 34.6093313,12.9759975 35.02,13.472 C35.4306687,13.9680025 36.0039963,14.216 36.74,14.216 C37.6680046,14.216 38.3666643,13.778671 38.836,12.904 L39.844,13.464 C39.5346651,13.9866693 39.1240026,14.4133317 38.612,14.744 C38.0999974,15.0746683 37.4546706,15.24 36.676,15.24 C36.0573302,15.24 35.5160023,15.1333344 35.052,14.92 C34.5879977,14.7066656 34.2013349,14.4133352 33.892,14.04 C33.5826651,13.6666648 33.3506674,13.2293358 33.196,12.728 C33.0413326,12.2266642 32.964,11.6880029 32.964,11.112 C32.964,10.5466638 33.0386659,10.0080026 33.188,9.496 C33.3373341,8.98399744 33.5639985,8.53600192 33.868,8.152 C34.1720015,7.76799808 34.5453311,7.46400112 34.988,7.24 C35.4306689,7.01599888 35.9506637,6.904 36.548,6.904 C37.1240029,6.904 37.6253312,7.01333224 38.052,7.232 C38.4786688,7.45066776 38.8333319,7.74399816 39.116,8.112 C39.3986681,8.48000184 39.6119993,8.90666424 39.756,9.392 C39.9000007,9.87733576 39.972,10.3919973 39.972,10.936 C39.972,11.0533339 39.9693334,11.1439997 39.964,11.208 C39.9586666,11.2720003 39.956,11.3253331 39.956,11.368 L34.324,11.368 Z M36.532,7.912 C35.8599966,7.912 35.3400018,8.1519976 34.972,8.632 C34.6039982,9.1120024 34.3933336,9.75732928 34.34,10.568 L38.612,10.568 C38.612,10.2373317 38.574667,9.91466824 38.5,9.6 C38.425333,9.28533176 38.3026675,9.00266792 38.132,8.752 C37.9613325,8.50133208 37.7453346,8.29866744 37.484,8.144 C37.2226654,7.98933256 36.9053352,7.912 36.532,7.912 Z" id="Home"></path>
                </g>
            </g>
        </g>
    </g>
</svg>