<?xml version="1.0" encoding="UTF-8"?>
<svg width="338px" height="260px" viewBox="0 0 338 260" version="1.1" xmlns="http://www.w3.org/2000/svg" xmlns:xlink="http://www.w3.org/1999/xlink">
    <!-- Generator: Sketch 47 (45396) - http://www.bohemiancoding.com/sketch -->
    <title>Do breadcrumbs</title>
    <desc>Created with Sketch.</desc>
    <defs>
        <rect id="path-1" x="0" y="0" width="330" height="252"></rect>
        <filter x="-2.1%" y="-2.0%" width="104.2%" height="105.6%" filterUnits="objectBoundingBox" id="filter-2">
            <feOffset dx="0" dy="2" in="SourceAlpha" result="shadowOffsetOuter1"></feOffset>
            <feGaussianBlur stdDeviation="2" in="shadowOffsetOuter1" result="shadowBlurOuter1"></feGaussianBlur>
            <feComposite in="shadowBlurOuter1" in2="SourceAlpha" operator="out" result="shadowBlurOuter1"></feComposite>
            <feColorMatrix values="0 0 0 0 0   0 0 0 0 0   0 0 0 0 0  0 0 0 0.5 0" type="matrix" in="shadowBlurOuter1"></feColorMatrix>
        </filter>
    </defs>
    <g id="Page-1" stroke="none" stroke-width="1" fill="none" fill-rule="evenodd">
        <g id="Bradcrumb-Usage-extra-large-1200" transform="translate(-336.000000, -2033.000000)">
            <g id="Group-5" transform="translate(303.000000, 2006.000000)">
                <g id="Do-breadcrumbs" transform="translate(37.000000, 29.000000)">
                    <g id="Rectangle-2">
                        <use fill="black" fill-opacity="1" filter="url(#filter-2)" xlink:href="#path-1"></use>
                        <use fill="#FFFFFF" fill-rule="evenodd" xlink:href="#path-1"></use>
                        <rect stroke="#FFFFFF" stroke-width="1" x="0.5" y="0.5" width="329" height="251"></rect>
                    </g>
                    <g id="Breadcrumbs" transform="translate(68.000000, 16.000000)">
                        <path d="M0.992,1.704 L2.432,1.704 L2.432,6.584 L7.952,6.584 L7.952,1.704 L9.392,1.704 L9.392,13 L7.952,13 L7.952,7.784 L2.432,7.784 L2.432,13 L0.992,13 L0.992,1.704 Z M14.8,13.24 C14.2026637,13.24 13.6773356,13.1306678 13.224,12.912 C12.7706644,12.6933322 12.3920015,12.3946686 12.088,12.016 C11.7839985,11.6373314 11.5573341,11.1946692 11.408,10.688 C11.2586659,10.1813308 11.184,9.6346696 11.184,9.048 C11.184,8.4613304 11.2613326,7.91733584 11.416,7.416 C11.5706674,6.91466416 11.7999985,6.4773352 12.104,6.104 C12.4080015,5.7306648 12.7866644,5.4373344 13.24,5.224 C13.6933356,5.0106656 14.2133304,4.904 14.8,4.904 C15.3866696,4.904 15.9066644,5.0106656 16.36,5.224 C16.8133356,5.4373344 17.1946651,5.72799816 17.504,6.096 C17.8133349,6.46400184 18.0453326,6.9013308 18.2,7.408 C18.3546674,7.9146692 18.432,8.4613304 18.432,9.048 C18.432,9.6346696 18.3546674,10.1813308 18.2,10.688 C18.0453326,11.1946692 17.8133349,11.6373314 17.504,12.016 C17.1946651,12.3946686 16.8133356,12.6933322 16.36,12.912 C15.9066644,13.1306678 15.3866696,13.24 14.8,13.24 Z M14.832,12.2 C15.1946685,12.2 15.5146653,12.1200008 15.792,11.96 C16.0693347,11.7999992 16.2986658,11.5786681 16.48,11.296 C16.6613342,11.0133319 16.7999995,10.6800019 16.896,10.296 C16.9920005,9.91199808 17.04,9.49600224 17.04,9.048 C17.04,8.59999776 16.9920005,8.18666856 16.896,7.808 C16.7999995,7.42933144 16.656001,7.10133472 16.464,6.824 C16.271999,6.54666528 16.0373347,6.33066744 15.76,6.176 C15.4826653,6.02133256 15.1626685,5.944 14.8,5.944 C14.4266648,5.944 14.1013347,6.02133256 13.824,6.176 C13.5466653,6.33066744 13.3173342,6.54666528 13.136,6.824 C12.9546658,7.10133472 12.8160005,7.42933144 12.72,7.808 C12.6239995,8.18666856 12.576,8.59999776 12.576,9.048 C12.576,9.49600224 12.6239995,9.91199808 12.72,10.296 C12.8160005,10.6800019 12.9573324,11.0133319 13.144,11.296 C13.3306676,11.5786681 13.5653319,11.7999992 13.848,11.96 C14.1306681,12.1200008 14.4586648,12.2 14.832,12.2 Z M20.128,5.128 L21.28,5.128 L21.424,6.664 C21.616001,6.11999728 21.9146646,5.69066824 22.32,5.376 C22.7253354,5.06133176 23.2213304,4.904 23.808,4.904 C24.4266698,4.904 24.9119982,5.07999824 25.264,5.432 C25.6160018,5.78400176 25.8399995,6.21066416 25.936,6.712 C26.0320005,6.46666544 26.1519993,6.23466776 26.296,6.016 C26.4400007,5.79733224 26.6133323,5.60533416 26.816,5.44 C27.0186677,5.27466584 27.253332,5.14400048 27.52,5.048 C27.786668,4.95199952 28.090665,4.904 28.432,4.904 C28.8800022,4.904 29.2506652,4.98133256 29.544,5.136 C29.8373348,5.29066744 30.0719991,5.501332 30.248,5.768 C30.4240009,6.034668 30.549333,6.34666488 30.624,6.704 C30.698667,7.06133512 30.736,7.43733136 30.736,7.832 L30.736,13 L29.408,13 L29.408,8.168 C29.408,7.46399648 29.2826679,6.9386684 29.032,6.592 C28.7813321,6.2453316 28.4160024,6.072 27.936,6.072 C27.4133307,6.072 26.9760018,6.30399768 26.624,6.768 C26.2719982,7.23200232 26.096,7.89599568 26.096,8.76 L26.096,13 L24.768,13 L24.768,8.232 C24.768,7.49599632 24.6400013,6.95200176 24.384,6.6 C24.1279987,6.24799824 23.770669,6.072 23.312,6.072 C22.7999974,6.072 22.3626685,6.30933096 22,6.784 C21.6373315,7.25866904 21.456,7.94399552 21.456,8.84 L21.456,13 L20.128,13 L20.128,5.128 Z M33.76,9.368 C33.8133336,10.2746712 34.0453313,10.9759975 34.456,11.472 C34.8666687,11.9680025 35.4399963,12.216 36.176,12.216 C37.1040046,12.216 37.8026643,11.778671 38.272,10.904 L39.28,11.464 C38.9706651,11.9866693 38.5600026,12.4133317 38.048,12.744 C37.5359974,13.0746683 36.8906706,13.24 36.112,13.24 C35.4933302,13.24 34.9520023,13.1333344 34.488,12.92 C34.0239977,12.7066656 33.6373349,12.4133352 33.328,12.04 C33.0186651,11.6666648 32.7866674,11.2293358 32.632,10.728 C32.4773326,10.2266642 32.4,9.68800288 32.4,9.112 C32.4,8.54666384 32.4746659,8.00800256 32.624,7.496 C32.7733341,6.98399744 32.9999985,6.53600192 33.304,6.152 C33.6080015,5.76799808 33.9813311,5.46400112 34.424,5.24 C34.8666689,5.01599888 35.3866637,4.904 35.984,4.904 C36.5600029,4.904 37.0613312,5.01333224 37.488,5.232 C37.9146688,5.45066776 38.2693319,5.74399816 38.552,6.112 C38.8346681,6.48000184 39.0479993,6.90666424 39.192,7.392 C39.3360007,7.87733576 39.408,8.39199728 39.408,8.936 C39.408,9.05333392 39.4053334,9.14399968 39.4,9.208 C39.3946666,9.27200032 39.392,9.32533312 39.392,9.368 L33.76,9.368 Z M35.968,5.912 C35.2959966,5.912 34.7760018,6.1519976 34.408,6.632 C34.0399982,7.1120024 33.8293336,7.75732928 33.776,8.568 L38.048,8.568 C38.048,8.23733168 38.010667,7.91466824 37.936,7.6 C37.861333,7.28533176 37.7386675,7.00266792 37.568,6.752 C37.3973325,6.50133208 37.1813346,6.29866744 36.92,6.144 C36.6586654,5.98933256 36.3413352,5.912 35.968,5.912 Z" id="Home" fill="#0D78AA"></path>
                        <path d="M64.12,1.704 L67.912,1.704 C68.4773362,1.704 68.9999976,1.76799936 69.48,1.896 C69.9600024,2.02400064 70.3733316,2.221332 70.72,2.488 C71.0666684,2.754668 71.3386657,3.09333128 71.536,3.504 C71.7333343,3.91466872 71.832,4.40799712 71.832,4.984 C71.832,5.6240032 71.7333343,6.16799776 71.536,6.616 C71.3386657,7.06400224 71.0640018,7.42666528 70.712,7.704 C70.3599982,7.98133472 69.946669,8.18133272 69.472,8.304 C68.997331,8.42666728 68.4826694,8.488 67.928,8.488 L65.56,8.488 L65.56,13 L64.12,13 L64.12,1.704 Z M67.688,7.336 C68.5200042,7.336 69.165331,7.15733512 69.624,6.8 C70.082669,6.44266488 70.312,5.8373376 70.312,4.984 C70.312,4.58933136 70.245334,4.25333472 70.112,3.976 C69.978666,3.69866528 69.7973345,3.47466752 69.568,3.304 C69.3386655,3.13333248 69.0666682,3.01066704 68.752,2.936 C68.4373318,2.86133296 68.0986685,2.824 67.736,2.824 L65.56,2.824 L65.56,7.336 L67.688,7.336 Z M73.416,5.128 L74.568,5.128 L74.696,6.888 C74.9200011,6.31199712 75.2773309,5.8373352 75.768,5.464 C76.2586691,5.0906648 76.8399966,4.904 77.512,4.904 L77.512,6.312 C77.3626659,6.27999984 77.1973342,6.264 77.016,6.264 C76.749332,6.264 76.482668,6.31199952 76.216,6.408 C75.949332,6.50400048 75.7066678,6.6586656 75.488,6.872 C75.2693322,7.0853344 75.0906674,7.35999832 74.952,7.696 C74.8133326,8.03200168 74.744,8.4399976 74.744,8.92 L74.744,13 L73.416,13 L73.416,5.128 Z M82.088,13.24 C81.4906637,13.24 80.9653356,13.1306678 80.512,12.912 C80.0586644,12.6933322 79.6800015,12.3946686 79.376,12.016 C79.0719985,11.6373314 78.8453341,11.1946692 78.696,10.688 C78.5466659,10.1813308 78.472,9.6346696 78.472,9.048 C78.472,8.4613304 78.5493326,7.91733584 78.704,7.416 C78.8586674,6.91466416 79.0879985,6.4773352 79.392,6.104 C79.6960015,5.7306648 80.0746644,5.4373344 80.528,5.224 C80.9813356,5.0106656 81.5013304,4.904 82.088,4.904 C82.6746696,4.904 83.1946644,5.0106656 83.648,5.224 C84.1013356,5.4373344 84.4826651,5.72799816 84.792,6.096 C85.1013349,6.46400184 85.3333326,6.9013308 85.488,7.408 C85.6426674,7.9146692 85.72,8.4613304 85.72,9.048 C85.72,9.6346696 85.6426674,10.1813308 85.488,10.688 C85.3333326,11.1946692 85.1013349,11.6373314 84.792,12.016 C84.4826651,12.3946686 84.1013356,12.6933322 83.648,12.912 C83.1946644,13.1306678 82.6746696,13.24 82.088,13.24 Z M82.12,12.2 C82.4826685,12.2 82.8026653,12.1200008 83.08,11.96 C83.3573347,11.7999992 83.5866658,11.5786681 83.768,11.296 C83.9493342,11.0133319 84.0879995,10.6800019 84.184,10.296 C84.2800005,9.91199808 84.328,9.49600224 84.328,9.048 C84.328,8.59999776 84.2800005,8.18666856 84.184,7.808 C84.0879995,7.42933144 83.944001,7.10133472 83.752,6.824 C83.559999,6.54666528 83.3253347,6.33066744 83.048,6.176 C82.7706653,6.02133256 82.4506685,5.944 82.088,5.944 C81.7146648,5.944 81.3893347,6.02133256 81.112,6.176 C80.8346653,6.33066744 80.6053342,6.54666528 80.424,6.824 C80.2426658,7.10133472 80.1040005,7.42933144 80.008,7.808 C79.9119995,8.18666856 79.864,8.59999776 79.864,9.048 C79.864,9.49600224 79.9119995,9.91199808 80.008,10.296 C80.1040005,10.6800019 80.2453324,11.0133319 80.432,11.296 C80.6186676,11.5786681 80.8533319,11.7999992 81.136,11.96 C81.4186681,12.1200008 81.7466648,12.2 82.12,12.2 Z M86.024,14.728 C86.098667,14.7493334 86.2079993,14.7733332 86.352,14.8 C86.4960007,14.8266668 86.6266661,14.84 86.744,14.84 C87.0533349,14.84 87.2559995,14.7493342 87.352,14.568 C87.4480005,14.3866658 87.496,14.1306683 87.496,13.8 L87.496,5.128 L88.84,5.128 L88.84,13.896 C88.84,14.2053349 88.810667,14.4826654 88.752,14.728 C88.693333,14.9733346 88.5946674,15.1786658 88.456,15.344 C88.3173326,15.5093342 88.1280012,15.6373329 87.888,15.728 C87.6479988,15.8186671 87.3520018,15.864 87,15.864 C86.7866656,15.864 86.584001,15.8480002 86.392,15.816 C86.199999,15.7839998 86.0346674,15.7360003 85.896,15.672 L86.024,14.728 Z M87.496,2.088 L88.84,2.088 L88.84,3.416 L87.496,3.416 L87.496,2.088 Z M91.896,9.368 C91.9493336,10.2746712 92.1813313,10.9759975 92.592,11.472 C93.0026687,11.9680025 93.5759963,12.216 94.312,12.216 C95.2400046,12.216 95.9386643,11.778671 96.408,10.904 L97.416,11.464 C97.1066651,11.9866693 96.6960026,12.4133317 96.184,12.744 C95.6719974,13.0746683 95.0266706,13.24 94.248,13.24 C93.6293302,13.24 93.0880023,13.1333344 92.624,12.92 C92.1599977,12.7066656 91.7733349,12.4133352 91.464,12.04 C91.1546651,11.6666648 90.9226674,11.2293358 90.768,10.728 C90.6133326,10.2266642 90.536,9.68800288 90.536,9.112 C90.536,8.54666384 90.6106659,8.00800256 90.76,7.496 C90.9093341,6.98399744 91.1359985,6.53600192 91.44,6.152 C91.7440015,5.76799808 92.1173311,5.46400112 92.56,5.24 C93.0026689,5.01599888 93.5226637,4.904 94.12,4.904 C94.6960029,4.904 95.1973312,5.01333224 95.624,5.232 C96.0506688,5.45066776 96.4053319,5.74399816 96.688,6.112 C96.9706681,6.48000184 97.1839993,6.90666424 97.328,7.392 C97.4720007,7.87733576 97.544,8.39199728 97.544,8.936 C97.544,9.05333392 97.5413334,9.14399968 97.536,9.208 C97.5306666,9.27200032 97.528,9.32533312 97.528,9.368 L91.896,9.368 Z M94.104,5.912 C93.4319966,5.912 92.9120018,6.1519976 92.544,6.632 C92.1759982,7.1120024 91.9653336,7.75732928 91.912,8.568 L96.184,8.568 C96.184,8.23733168 96.146667,7.91466824 96.072,7.6 C95.997333,7.28533176 95.8746675,7.00266792 95.704,6.752 C95.5333325,6.50133208 95.3173346,6.29866744 95.056,6.144 C94.7946654,5.98933256 94.4773352,5.912 94.104,5.912 Z M105.736,11.272 C105.415998,11.9120032 104.986669,12.3999983 104.448,12.736 C103.909331,13.0720017 103.256004,13.24 102.488,13.24 C101.858664,13.24 101.312002,13.1306678 100.848,12.912 C100.383998,12.6933322 100.000002,12.3973352 99.696,12.024 C99.3919985,11.6506648 99.1680007,11.2106692 99.024,10.704 C98.8799993,10.1973308 98.808,9.65600288 98.808,9.08 C98.808,8.4933304 98.8853326,7.9466692 99.04,7.44 C99.1946674,6.9333308 99.4239985,6.4933352 99.728,6.12 C100.032002,5.7466648 100.413331,5.45066776 100.872,5.232 C101.330669,5.01333224 101.86933,4.904 102.488,4.904 C103.266671,4.904 103.914664,5.0773316 104.432,5.424 C104.949336,5.7706684 105.367998,6.25866352 105.688,6.888 L104.568,7.416 C104.162665,6.43466176 103.480005,5.944 102.52,5.944 C102.114665,5.944 101.765335,6.0239992 101.472,6.184 C101.178665,6.3440008 100.938668,6.56266528 100.752,6.84 C100.565332,7.11733472 100.426667,7.43999816 100.336,7.808 C100.245333,8.17600184 100.2,8.5733312 100.2,9 C100.2,9.40533536 100.242666,9.79999808 100.328,10.184 C100.413334,10.5680019 100.551999,10.9093318 100.744,11.208 C100.936001,11.5066682 101.181332,11.7466658 101.48,11.928 C101.778668,12.1093342 102.146664,12.2 102.584,12.2 C103.138669,12.2 103.586665,12.0586681 103.928,11.776 C104.269335,11.4933319 104.530666,11.1280022 104.712,10.68 L105.736,11.272 Z M107.896,6.04 L106.552,6.04 L106.552,5.128 L106.84,5.128 C107.170668,5.128 107.429332,5.09333368 107.616,5.024 C107.802668,4.95466632 107.944,4.84800072 108.04,4.704 C108.136,4.55999928 108.205333,4.37066784 108.248,4.136 C108.290667,3.90133216 108.328,3.61333504 108.36,3.272 L108.392,2.984 L109.224,2.984 L109.224,5.128 L110.92,5.128 L110.92,6.04 L109.224,6.04 L109.224,10.936 C109.224,11.3840022 109.290666,11.7066657 109.424,11.904 C109.557334,12.1013343 109.805332,12.2 110.168,12.2 C110.456001,12.2 110.722665,12.1360006 110.968,12.008 L111.112,12.968 C110.706665,13.1493342 110.258669,13.24 109.768,13.24 C109.383998,13.24 109.072001,13.1866672 108.832,13.08 C108.591999,12.9733328 108.402667,12.8293342 108.264,12.648 C108.125333,12.4666658 108.029334,12.2480013 107.976,11.992 C107.922666,11.7359987 107.896,11.4586682 107.896,11.16 L107.896,6.04 Z M112.664,11.064 C112.930668,11.405335 113.274665,11.6879989 113.696,11.912 C114.117335,12.1360011 114.578664,12.248 115.08,12.248 C115.528002,12.248 115.917332,12.1413344 116.248,11.928 C116.578668,11.7146656 116.744,11.3946688 116.744,10.968 C116.744,10.6373317 116.634668,10.3786676 116.416,10.192 C116.197332,10.0053324 115.925335,9.84800064 115.6,9.72 C115.274665,9.59199936 114.920002,9.4746672 114.536,9.368 C114.151998,9.2613328 113.797335,9.12266752 113.472,8.952 C113.146665,8.78133248 112.874668,8.55733472 112.656,8.28 C112.437332,8.00266528 112.328,7.6240024 112.328,7.144 C112.328,6.74933136 112.407999,6.41066808 112.568,6.128 C112.728001,5.84533192 112.938665,5.61333424 113.2,5.432 C113.461335,5.25066576 113.762665,5.11733376 114.104,5.032 C114.445335,4.94666624 114.802665,4.904 115.176,4.904 C116.285339,4.904 117.207996,5.2239968 117.944,5.864 L117.272,6.76 C117.037332,6.51466544 116.725335,6.30933416 116.336,6.144 C115.946665,5.97866584 115.544002,5.896 115.128,5.896 C114.946666,5.896 114.768001,5.91733312 114.592,5.96 C114.415999,6.00266688 114.261334,6.06933288 114.128,6.16 C113.994666,6.25066712 113.888,6.36533264 113.808,6.504 C113.728,6.64266736 113.688,6.81333232 113.688,7.016 C113.688,7.32533488 113.797332,7.56533248 114.016,7.736 C114.234668,7.90666752 114.506665,8.05333272 114.832,8.176 C115.157335,8.29866728 115.509331,8.41599944 115.888,8.528 C116.266669,8.64000056 116.618665,8.78399912 116.944,8.96 C117.269335,9.13600088 117.541332,9.36799856 117.76,9.656 C117.978668,9.94400144 118.088,10.3279976 118.088,10.808 C118.088,11.2133354 118.005334,11.5679985 117.84,11.872 C117.674666,12.1760015 117.456001,12.4293323 117.184,12.632 C116.911999,12.8346677 116.597335,12.9866662 116.24,13.088 C115.882665,13.1893338 115.512002,13.24 115.128,13.24 C113.805327,13.24 112.754671,12.8133376 111.976,11.96 L112.664,11.064 Z" id="Projects" fill="#0D78AA"></path>
                        <path d="M146.416,1.704 L147.744,1.704 L151.728,13 L150.224,13 L149.216,9.96 L144.864,9.96 L143.856,13 L142.4,13 L146.416,1.704 Z M148.832,8.856 C148.533332,7.92799536 148.237335,7.01867112 147.944,6.128 C147.650665,5.23732888 147.354668,4.30133824 147.056,3.32 C146.778665,4.2800048 146.485335,5.21066216 146.176,6.112 C145.866665,7.01333784 145.557335,7.92799536 145.248,8.856 L148.832,8.856 Z M153.152,5.128 L154.304,5.128 L154.432,6.888 C154.656001,6.31199712 155.013331,5.8373352 155.504,5.464 C155.994669,5.0906648 156.575997,4.904 157.248,4.904 L157.248,6.312 C157.098666,6.27999984 156.933334,6.264 156.752,6.264 C156.485332,6.264 156.218668,6.31199952 155.952,6.408 C155.685332,6.50400048 155.442668,6.6586656 155.224,6.872 C155.005332,7.0853344 154.826667,7.35999832 154.688,7.696 C154.549333,8.03200168 154.48,8.4399976 154.48,8.92 L154.48,13 L153.152,13 L153.152,5.128 Z M158.56,2.072 L159.888,2.072 L159.888,3.4 L158.56,3.4 L158.56,2.072 Z M158.56,5.128 L159.888,5.128 L159.888,13 L158.56,13 L158.56,5.128 Z M161.456,12.04 L165.968,6.152 L161.696,6.152 L161.696,5.128 L167.552,5.128 L167.552,6.104 L162.992,11.992 L167.76,11.992 L167.76,13 L161.456,13 L161.456,12.04 Z M172.592,13.24 C171.994664,13.24 171.469336,13.1306678 171.016,12.912 C170.562664,12.6933322 170.184002,12.3946686 169.88,12.016 C169.575998,11.6373314 169.349334,11.1946692 169.2,10.688 C169.050666,10.1813308 168.976,9.6346696 168.976,9.048 C168.976,8.4613304 169.053333,7.91733584 169.208,7.416 C169.362667,6.91466416 169.591998,6.4773352 169.896,6.104 C170.200002,5.7306648 170.578664,5.4373344 171.032,5.224 C171.485336,5.0106656 172.00533,4.904 172.592,4.904 C173.17867,4.904 173.698664,5.0106656 174.152,5.224 C174.605336,5.4373344 174.986665,5.72799816 175.296,6.096 C175.605335,6.46400184 175.837333,6.9013308 175.992,7.408 C176.146667,7.9146692 176.224,8.4613304 176.224,9.048 C176.224,9.6346696 176.146667,10.1813308 175.992,10.688 C175.837333,11.1946692 175.605335,11.6373314 175.296,12.016 C174.986665,12.3946686 174.605336,12.6933322 174.152,12.912 C173.698664,13.1306678 173.17867,13.24 172.592,13.24 Z M172.624,12.2 C172.986668,12.2 173.306665,12.1200008 173.584,11.96 C173.861335,11.7999992 174.090666,11.5786681 174.272,11.296 C174.453334,11.0133319 174.592,10.6800019 174.688,10.296 C174.784,9.91199808 174.832,9.49600224 174.832,9.048 C174.832,8.59999776 174.784,8.18666856 174.688,7.808 C174.592,7.42933144 174.448001,7.10133472 174.256,6.824 C174.063999,6.54666528 173.829335,6.33066744 173.552,6.176 C173.274665,6.02133256 172.954668,5.944 172.592,5.944 C172.218665,5.944 171.893335,6.02133256 171.616,6.176 C171.338665,6.33066744 171.109334,6.54666528 170.928,6.824 C170.746666,7.10133472 170.608,7.42933144 170.512,7.808 C170.416,8.18666856 170.368,8.59999776 170.368,9.048 C170.368,9.49600224 170.416,9.91199808 170.512,10.296 C170.608,10.6800019 170.749332,11.0133319 170.936,11.296 C171.122668,11.5786681 171.357332,11.7999992 171.64,11.96 C171.922668,12.1200008 172.250665,12.2 172.624,12.2 Z M177.92,5.128 L179.072,5.128 L179.216,6.696 C179.418668,6.2159976 179.741331,5.79733512 180.184,5.44 C180.626669,5.08266488 181.17333,4.904 181.824,4.904 C182.645337,4.904 183.250665,5.16533072 183.64,5.688 C184.029335,6.21066928 184.224,6.94132864 184.224,7.88 L184.224,13 L182.896,13 L182.896,8.152 C182.896,7.43732976 182.752001,6.91200168 182.464,6.576 C182.175999,6.23999832 181.786669,6.072 181.296,6.072 C180.70933,6.072 180.221335,6.3119976 179.832,6.792 C179.442665,7.2720024 179.248,7.94932896 179.248,8.824 L179.248,13 L177.92,13 L177.92,5.128 Z M191.184,13 C191.066666,12.6159981 190.997333,12.157336 190.976,11.624 C190.762666,12.1146691 190.434669,12.5066652 189.992,12.8 C189.549331,13.0933348 189.024003,13.24 188.416,13.24 C187.647996,13.24 187.040002,13.0213355 186.592,12.584 C186.143998,12.1466645 185.92,11.5600037 185.92,10.824 C185.92,10.4079979 185.994666,10.0586681 186.144,9.776 C186.293334,9.49333192 186.501332,9.2586676 186.768,9.072 C187.034668,8.8853324 187.349332,8.7386672 187.712,8.632 C188.074668,8.5253328 188.469331,8.44000032 188.896,8.376 L190.912,8.072 L190.912,7.576 C190.912,7.22399824 190.869334,6.9413344 190.784,6.728 C190.698666,6.5146656 190.581334,6.34933392 190.432,6.232 C190.282666,6.11466608 190.112001,6.03733352 189.92,6 C189.727999,5.96266648 189.525334,5.944 189.312,5.944 C188.703997,5.944 188.202669,6.05599888 187.808,6.28 C187.413331,6.50400112 187.082668,6.78666496 186.816,7.128 L186.128,6.264 C186.437335,5.8906648 186.866664,5.570668 187.416,5.304 C187.965336,5.037332 188.645329,4.904 189.456,4.904 C190.437338,4.904 191.149331,5.12266448 191.592,5.56 C192.034669,5.99733552 192.256,6.70132848 192.256,7.672 L192.256,10.856 C192.256,11.1120013 192.258667,11.335999 192.264,11.528 C192.269333,11.720001 192.28,11.8986658 192.296,12.064 C192.312,12.2293342 192.336,12.3866659 192.368,12.536 C192.4,12.6853341 192.442666,12.8399992 192.496,13 L191.184,13 Z M190.912,8.952 L189.024,9.256 C188.37333,9.37333392 187.912001,9.54933216 187.64,9.784 C187.367999,10.0186678 187.232,10.3439979 187.232,10.76 C187.232,11.1866688 187.357332,11.5439986 187.608,11.832 C187.858668,12.1200014 188.229331,12.264 188.72,12.264 C189.018668,12.264 189.301332,12.2053339 189.568,12.088 C189.834668,11.9706661 190.066666,11.808001 190.264,11.6 C190.461334,11.391999 190.618666,11.1413348 190.736,10.848 C190.853334,10.5546652 190.912,10.2320018 190.912,9.88 L190.912,8.952 Z" id="Arizona" fill="#4C5358"></path>
                        <path d="M54.1975446,4.8046875 C54.2645093,4.87165212 54.2979911,4.94866028 54.2979911,5.03571429 C54.2979911,5.12276829 54.2645093,5.19977645 54.1975446,5.26674107 L50.25,9.21428571 L54.1975446,13.1618304 C54.2645093,13.228795 54.2979911,13.3058031 54.2979911,13.3928571 C54.2979911,13.4799111 54.2645093,13.5569193 54.1975446,13.6238839 L53.6953125,14.1261161 C53.6283479,14.1930807 53.5513397,14.2265625 53.4642857,14.2265625 C53.3772317,14.2265625 53.3002235,14.1930807 53.2332589,14.1261161 L48.5524554,9.4453125 C48.4854907,9.37834788 48.4520089,9.30133972 48.4520089,9.21428571 C48.4520089,9.12723171 48.4854907,9.05022355 48.5524554,8.98325893 L53.2332589,4.30245536 C53.3002235,4.23549074 53.3772317,4.20200893 53.4642857,4.20200893 C53.5513397,4.20200893 53.6283479,4.23549074 53.6953125,4.30245536 L54.1975446,4.8046875 Z" id="" fill="#AAB1B6" transform="translate(51.375000, 9.214286) rotate(180.000000) translate(-51.375000, -9.214286) "></path>
                        <path d="M133.197545,4.8046875 C133.264509,4.87165212 133.297991,4.94866028 133.297991,5.03571429 C133.297991,5.12276829 133.264509,5.19977645 133.197545,5.26674107 L129.25,9.21428571 L133.197545,13.1618304 C133.264509,13.228795 133.297991,13.3058031 133.297991,13.3928571 C133.297991,13.4799111 133.264509,13.5569193 133.197545,13.6238839 L132.695312,14.1261161 C132.628348,14.1930807 132.55134,14.2265625 132.464286,14.2265625 C132.377232,14.2265625 132.300224,14.1930807 132.233259,14.1261161 L127.552455,9.4453125 C127.485491,9.37834788 127.452009,9.30133972 127.452009,9.21428571 C127.452009,9.12723171 127.485491,9.05022355 127.552455,8.98325893 L132.233259,4.30245536 C132.300224,4.23549074 132.377232,4.20200893 132.464286,4.20200893 C132.55134,4.20200893 132.628348,4.23549074 132.695312,4.30245536 L133.197545,4.8046875 Z" id="-copy" fill="#AAB1B6" transform="translate(130.375000, 9.214286) rotate(180.000000) translate(-130.375000, -9.214286) "></path>
                    </g>
                    <g id="NAV-BAR">
                        <polygon id="Sidebar-bg" fill="#495C6A" points="0 0 50 0 50 252 27.4492188 252 0 252"></polygon>
                        <g id="Menuitem" transform="translate(0.000000, 47.000000)" fill="#D2D6D9">
                            <path d="M22.2946429,15.2857143 C21.3303523,15.3154763 20.5416697,15.6964249 19.9285714,16.4285714 L18.7321429,16.4285714 C18.2440452,16.4285714 17.833335,16.3080369 17.5,16.0669643 C17.166665,15.8258917 17,15.4732166 17,15.0089286 C17,12.9077276 17.3690439,11.8571429 18.1071429,11.8571429 C18.1428573,11.8571429 18.2723203,11.9196422 18.4955357,12.0446429 C18.7187511,12.1696435 19.0089268,12.2961303 19.3660714,12.4241071 C19.7232161,12.552084 20.0773792,12.6160714 20.4285714,12.6160714 C20.8273829,12.6160714 21.2232123,12.5476197 21.6160714,12.4107143 C21.5863094,12.6309535 21.5714286,12.8273801 21.5714286,13 C21.5714286,13.8273851 21.8124976,14.5892822 22.2946429,15.2857143 Z M31.8571429,20.9732143 C31.8571429,21.6875036 31.6398831,22.251486 31.2053571,22.6651786 C30.7708312,23.0788711 30.193456,23.2857143 29.4732143,23.2857143 L21.6696429,23.2857143 C20.9494012,23.2857143 20.372026,23.0788711 19.9375,22.6651786 C19.502974,22.251486 19.2857143,21.6875036 19.2857143,20.9732143 C19.2857143,20.6577365 19.2961308,20.3497039 19.3169643,20.0491071 C19.3377977,19.7485104 19.379464,19.4241089 19.4419643,19.0758929 C19.5044646,18.7276768 19.5833329,18.4047634 19.6785714,18.1071429 C19.77381,17.8095223 19.9017849,17.5193467 20.0625,17.2366071 C20.2232151,16.9538676 20.4077371,16.7127986 20.6160714,16.5133929 C20.8244058,16.3139871 21.0788675,16.1547625 21.3794643,16.0357143 C21.680061,15.9166661 22.0119029,15.8571429 22.375,15.8571429 C22.4345241,15.8571429 22.562499,15.9211303 22.7589286,16.0491071 C22.9553581,16.177084 23.1726179,16.3199397 23.4107143,16.4776786 C23.6488107,16.6354175 23.9672599,16.7782732 24.3660714,16.90625 C24.7648829,17.0342268 25.1666646,17.0982143 25.5714286,17.0982143 C25.9761925,17.0982143 26.3779742,17.0342268 26.7767857,16.90625 C27.1755972,16.7782732 27.4940464,16.6354175 27.7321429,16.4776786 C27.9702393,16.3199397 28.187499,16.177084 28.3839286,16.0491071 C28.5803581,15.9211303 28.708333,15.8571429 28.7678571,15.8571429 C29.1309542,15.8571429 29.4627961,15.9166661 29.7633929,16.0357143 C30.0639896,16.1547625 30.3184513,16.3139871 30.5267857,16.5133929 C30.7351201,16.7127986 30.9196421,16.9538676 31.0803571,17.2366071 C31.2410722,17.5193467 31.3690471,17.8095223 31.4642857,18.1071429 C31.5595243,18.4047634 31.6383925,18.7276768 31.7008929,19.0758929 C31.7633932,19.4241089 31.8050594,19.7485104 31.8258929,20.0491071 C31.8467263,20.3497039 31.8571429,20.6577365 31.8571429,20.9732143 Z M22.0446429,7.95535714 C22.4910737,8.40178795 22.7142857,8.94047304 22.7142857,9.57142857 C22.7142857,10.2023841 22.4910737,10.7410692 22.0446429,11.1875 C21.5982121,11.6339308 21.059527,11.8571429 20.4285714,11.8571429 C19.7976159,11.8571429 19.2589308,11.6339308 18.8125,11.1875 C18.3660692,10.7410692 18.1428571,10.2023841 18.1428571,9.57142857 C18.1428571,8.94047304 18.3660692,8.40178795 18.8125,7.95535714 C19.2589308,7.50892634 19.7976159,7.28571429 20.4285714,7.28571429 C21.059527,7.28571429 21.5982121,7.50892634 22.0446429,7.95535714 Z M27.9910714,10.5803571 C28.6636938,11.2470271 29,12.0535667 29,13 C29,13.9464333 28.6651819,14.7544609 27.9955357,15.4241071 C27.3258895,16.0937533 26.5178619,16.4285714 25.5714286,16.4285714 C24.6249953,16.4285714 23.8169676,16.0937533 23.1473214,15.4241071 C22.4776752,14.7544609 22.1428571,13.9464333 22.1428571,13 C22.1428571,12.0535667 22.4776752,11.2455391 23.1473214,10.5758929 C23.8169676,9.90624665 24.6249953,9.57142857 25.5714286,9.57142857 C26.5178619,9.57142857 27.3244014,9.90773473 27.9910714,10.5803571 Z M34.1428571,15.0089286 C34.1428571,15.4732166 33.9761921,15.8258917 33.6428571,16.0669643 C33.3095221,16.3080369 32.898812,16.4285714 32.4107143,16.4285714 L31.2142857,16.4285714 C30.6011874,15.6964249 29.8125048,15.3154763 28.8482143,15.2857143 C29.3303596,14.5892822 29.5714286,13.8273851 29.5714286,13 C29.5714286,12.8273801 29.5565478,12.6309535 29.5267857,12.4107143 C29.9196448,12.5476197 30.3154742,12.6160714 30.7142857,12.6160714 C31.0654779,12.6160714 31.4196411,12.552084 31.7767857,12.4241071 C32.1339304,12.2961303 32.424106,12.1696435 32.6473214,12.0446429 C32.8705368,11.9196422 32.9999998,11.8571429 33.0357143,11.8571429 C33.7738132,11.8571429 34.1428571,12.9077276 34.1428571,15.0089286 Z M32.3303571,7.95535714 C32.7767879,8.40178795 33,8.94047304 33,9.57142857 C33,10.2023841 32.7767879,10.7410692 32.3303571,11.1875 C31.8839263,11.6339308 31.3452412,11.8571429 30.7142857,11.8571429 C30.0833302,11.8571429 29.5446451,11.6339308 29.0982143,11.1875 C28.6517835,10.7410692 28.4285714,10.2023841 28.4285714,9.57142857 C28.4285714,8.94047304 28.6517835,8.40178795 29.0982143,7.95535714 C29.5446451,7.50892634 30.0833302,7.28571429 30.7142857,7.28571429 C31.3452412,7.28571429 31.8839263,7.50892634 32.3303571,7.95535714 Z" id="users---FontAwesome"></path>
                        </g>
                        <g id="Menuitem" transform="translate(0.000000, 76.000000)" fill="#D2D6D9">
                            <path d="M31.6339286,9.55357143 C31.872025,9.89285884 31.9255959,10.2767836 31.7946429,10.7053571 L29.3392857,18.7946429 C29.2261899,19.1755971 28.9985136,19.4955344 28.65625,19.7544643 C28.3139864,20.0133942 27.9494067,20.1428571 27.5625,20.1428571 L19.3214286,20.1428571 C18.8630929,20.1428571 18.4211331,19.9836325 17.9955357,19.6651786 C17.5699383,19.3467246 17.2738104,18.9553595 17.1071429,18.4910714 C16.964285,18.0922599 16.9583327,17.7142875 17.0892857,17.3571429 C17.0892857,17.3333332 17.0982142,17.2529769 17.1160714,17.1160714 C17.1339287,16.979166 17.1458333,16.869048 17.1517857,16.7857143 C17.1577381,16.738095 17.1488096,16.6741075 17.125,16.59375 C17.1011904,16.5133925 17.0922619,16.4553573 17.0982143,16.4196429 C17.1101191,16.3541663 17.1339284,16.291667 17.1696429,16.2321429 C17.2053573,16.1726187 17.254464,16.102679 17.3169643,16.0223214 C17.3794646,15.9419639 17.4285713,15.8720241 17.4642857,15.8125 C17.6011912,15.5863084 17.7351184,15.3139897 17.8660714,14.9955357 C17.9970245,14.6770817 18.0863093,14.404763 18.1339286,14.1785714 C18.1517858,14.1190473 18.1532739,14.0297625 18.1383929,13.9107143 C18.1235118,13.7916661 18.1220238,13.7083336 18.1339286,13.6607143 C18.1517858,13.5952378 18.2023805,13.5119053 18.2857143,13.4107143 C18.369048,13.3095233 18.4196428,13.2410716 18.4375,13.2053571 C18.5625006,12.9910704 18.6874994,12.7172636 18.8125,12.3839286 C18.9375006,12.0505936 19.0119046,11.7827391 19.0357143,11.5803571 C19.0416667,11.5267854 19.0342263,11.4315483 19.0133929,11.2946429 C18.9925594,11.1577374 18.9940475,11.0744049 19.0178571,11.0446429 C19.0416668,10.9672615 19.1071423,10.8764886 19.2142857,10.7723214 C19.3214291,10.6681542 19.3869046,10.6011906 19.4107143,10.5714286 C19.5238101,10.4166659 19.6502969,10.1651803 19.7901786,9.81696429 C19.9300602,9.46874826 20.0119046,9.18154875 20.0357143,8.95535714 C20.0416667,8.90773786 20.0327382,8.83184576 20.0089286,8.72767857 C19.9851189,8.62351138 19.9791666,8.54464313 19.9910714,8.49107143 C20.0029762,8.44345214 20.0297617,8.38988125 20.0714286,8.33035714 C20.1130954,8.27083304 20.1666663,8.20238134 20.2321429,8.125 C20.2976194,8.04761866 20.3482141,7.98511929 20.3839286,7.9375 C20.4315479,7.86607107 20.4806545,7.77529817 20.53125,7.66517857 C20.5818455,7.55505897 20.6264879,7.45089335 20.6651786,7.35267857 C20.7038692,7.25446379 20.7514878,7.14732201 20.8080357,7.03125 C20.8645836,6.91517799 20.9226187,6.81994085 20.9821429,6.74553571 C21.041667,6.67113058 21.1205352,6.6011908 21.21875,6.53571429 C21.3169648,6.47023777 21.4241066,6.43601192 21.5401786,6.43303571 C21.6562506,6.43005951 21.7976182,6.44642839 21.9642857,6.48214286 L21.9553571,6.50892857 C22.1815487,6.45535687 22.3333329,6.42857143 22.4107143,6.42857143 L29.2053571,6.42857143 C29.6458355,6.42857143 29.9851179,6.59523643 30.2232143,6.92857143 C30.4613107,7.26190643 30.5148816,7.64880732 30.3839286,8.08928571 L27.9375,16.1785714 C27.7232132,16.8869083 27.5104177,17.343749 27.2991071,17.5491071 C27.0877966,17.7544653 26.7053599,17.8571429 26.1517857,17.8571429 L18.3928571,17.8571429 C18.2321421,17.8571429 18.1190479,17.9017853 18.0535714,17.9910714 C17.9880949,18.08631 17.9851188,18.2142849 18.0446429,18.375 C18.1875007,18.7916687 18.6160679,19 19.3303571,19 L27.5714286,19 C27.7440485,19 27.9107135,18.9538695 28.0714286,18.8616071 C28.2321437,18.7693448 28.3363093,18.6458341 28.3839286,18.4910714 L31.0625,9.67857143 C31.1041669,9.54761839 31.1190477,9.37797723 31.1071429,9.16964286 C31.3333345,9.25892902 31.5089279,9.38690393 31.6339286,9.55357143 Z M22.1339286,9.57142857 C22.1101189,9.64880991 22.1160713,9.71577353 22.1517857,9.77232143 C22.1875002,9.82886933 22.2470234,9.85714286 22.3303571,9.85714286 L27.7589286,9.85714286 C27.8363099,9.85714286 27.912202,9.82886933 27.9866071,9.77232143 C28.0610123,9.71577353 28.1101189,9.64880991 28.1339286,9.57142857 L28.3214286,9 C28.3452382,8.92261866 28.3392859,8.85565504 28.3035714,8.79910714 C28.267857,8.74255924 28.2083338,8.71428571 28.125,8.71428571 L22.6964286,8.71428571 C22.6190472,8.71428571 22.5431551,8.74255924 22.46875,8.79910714 C22.3943449,8.85565504 22.3452382,8.92261866 22.3214286,9 L22.1339286,9.57142857 Z M21.3928571,11.8571429 C21.3690475,11.9345242 21.3749998,12.0014878 21.4107143,12.0580357 C21.4464287,12.1145836 21.505952,12.1428571 21.5892857,12.1428571 L27.0178571,12.1428571 C27.0952385,12.1428571 27.1711306,12.1145836 27.2455357,12.0580357 C27.3199408,12.0014878 27.3690475,11.9345242 27.3928571,11.8571429 L27.5803571,11.2857143 C27.6041668,11.2083329 27.5982145,11.1413693 27.5625,11.0848214 C27.5267855,11.0282735 27.4672623,11 27.3839286,11 L21.9553571,11 C21.8779758,11 21.8020837,11.0282735 21.7276786,11.0848214 C21.6532734,11.1413693 21.6041668,11.2083329 21.5803571,11.2857143 L21.3928571,11.8571429 Z" id=""></path>
                        </g>
                        <g id="Menuitem" transform="translate(0.000000, 135.000000)" fill="#D2D6D9">
                            <path d="M21.7142857,10.5714286 L26.2857143,10.5714286 L26.2857143,9.42857143 L21.7142857,9.42857143 L21.7142857,10.5714286 Z M32,16.2857143 L32,20.5714286 C32,20.9642877 31.8601204,21.3005938 31.5803571,21.5803571 C31.3005938,21.8601204 30.9642877,22 30.5714286,22 L17.4285714,22 C17.0357123,22 16.6994062,21.8601204 16.4196429,21.5803571 C16.1398796,21.3005938 16,20.9642877 16,20.5714286 L16,16.2857143 L22,16.2857143 L22,17.7142857 C22,17.8690484 22.0565471,18.0029756 22.1696429,18.1160714 C22.2827387,18.2291672 22.4166659,18.2857143 22.5714286,18.2857143 L25.4285714,18.2857143 C25.5833341,18.2857143 25.7172613,18.2291672 25.8303571,18.1160714 C25.9434529,18.0029756 26,17.8690484 26,17.7142857 L26,16.2857143 L32,16.2857143 Z M25.1428571,16.2857143 L25.1428571,17.4285714 L22.8571429,17.4285714 L22.8571429,16.2857143 L25.1428571,16.2857143 Z M32,12 L32,15.4285714 L16,15.4285714 L16,12 C16,11.6071409 16.1398796,11.2708347 16.4196429,10.9910714 C16.6994062,10.7113081 17.0357123,10.5714286 17.4285714,10.5714286 L20.5714286,10.5714286 L20.5714286,9.14285714 C20.5714286,8.90476071 20.6547611,8.70238179 20.8214286,8.53571429 C20.9880961,8.36904679 21.190475,8.28571429 21.4285714,8.28571429 L26.5714286,8.28571429 C26.809525,8.28571429 27.0119039,8.36904679 27.1785714,8.53571429 C27.3452389,8.70238179 27.4285714,8.90476071 27.4285714,9.14285714 L27.4285714,10.5714286 L30.5714286,10.5714286 C30.9642877,10.5714286 31.3005938,10.7113081 31.5803571,10.9910714 C31.8601204,11.2708347 32,11.6071409 32,12 Z" id="Briefcase---FontAwesome"></path>
                        </g>
                        <g id="On-Menuitem" transform="translate(0.000000, 106.000000)">
                            <rect id="Rectangle" fill="#3E4F5B" x="0" y="0.0676432292" width="50" height="29.6692708"></rect>
                            <rect id="Rectangle" fill="#BFDC24" x="0" y="0.0676432292" width="2.51937984" height="29.6692708"></rect>
                            <path d="M17.8571429,7.57142857 C17.8571429,8.00000214 17.6666686,8.32737982 17.2857143,8.55357143 L17.2857143,19.8571429 C17.2857143,19.9345242 17.2574408,20.0014878 17.2008929,20.0580357 C17.144345,20.1145836 17.0773813,20.1428571 17,20.1428571 L16.4285714,20.1428571 C16.3511901,20.1428571 16.2842265,20.1145836 16.2276786,20.0580357 C16.1711307,20.0014878 16.1428571,19.9345242 16.1428571,19.8571429 L16.1428571,8.55357143 C15.7619029,8.32737982 15.5714286,8.00000214 15.5714286,7.57142857 C15.5714286,7.2559508 15.6830346,6.98660826 15.90625,6.76339286 C16.1294654,6.54017746 16.3988079,6.42857143 16.7142857,6.42857143 C17.0297635,6.42857143 17.299106,6.54017746 17.5223214,6.76339286 C17.7455368,6.98660826 17.8571429,7.2559508 17.8571429,7.57142857 Z M31,8.14285714 L31,14.9553571 C31,15.1041674 30.962798,15.2187496 30.8883929,15.2991071 C30.8139877,15.3794647 30.6964294,15.4613091 30.5357143,15.5446429 C29.255946,16.2351225 28.1577427,16.5803571 27.2410714,16.5803571 C26.8779744,16.5803571 26.5104185,16.5148816 26.1383929,16.3839286 C25.7663672,16.2529755 25.4434538,16.1101198 25.1696429,15.9553571 C24.895832,15.8005945 24.5520854,15.6577388 24.1383929,15.5267857 C23.7247003,15.3958327 23.3005974,15.3303571 22.8660714,15.3303571 C21.7232086,15.3303571 20.34227,15.7648766 18.7232143,16.6339286 C18.6220233,16.6875003 18.52381,16.7142857 18.4285714,16.7142857 C18.2738088,16.7142857 18.1398815,16.6577387 18.0267857,16.5446429 C17.9136899,16.4315471 17.8571429,16.2976198 17.8571429,16.1428571 L17.8571429,9.51785714 C17.8571429,9.32738 17.9494038,9.16369116 18.1339286,9.02678571 C18.2589292,8.94345196 18.4940459,8.81547705 18.8392857,8.64285714 C20.2440546,7.92856786 21.4970183,7.57142857 22.5982143,7.57142857 C23.2351222,7.57142857 23.8303544,7.65773723 24.3839286,7.83035714 C24.9375028,8.00297705 25.589282,8.2648792 26.3392857,8.61607143 C26.5654773,8.72916723 26.8273795,8.78571429 27.125,8.78571429 C27.4464302,8.78571429 27.7961291,8.72321491 28.1741071,8.59821429 C28.5520852,8.47321366 28.8794629,8.33333411 29.15625,8.17857143 C29.4330371,8.02380875 29.6949392,7.8839292 29.9419643,7.75892857 C30.1889893,7.63392795 30.3511901,7.57142857 30.4285714,7.57142857 C30.5833341,7.57142857 30.7172613,7.62797563 30.8303571,7.74107143 C30.9434529,7.85416723 31,7.98809446 31,8.14285714 Z" id="" fill="#FFFFFF"></path>
                        </g>
                        <g id="Menuitem" transform="translate(0.000000, 164.000000)" fill="#D2D6D9">
                            <path d="M28.3928571,8.42857143 C28.5297626,8.42857143 28.6607137,8.45535687 28.7857143,8.50892857 C28.9821438,8.58630991 29.1383923,8.7083325 29.2544643,8.875 C29.3705363,9.0416675 29.4285714,9.22618946 29.4285714,9.42857143 L29.4285714,20.9375 C29.4285714,21.139882 29.3705363,21.3244039 29.2544643,21.4910714 C29.1383923,21.6577389 28.9821438,21.7797615 28.7857143,21.8571429 C28.6726185,21.9047621 28.5416674,21.9285714 28.3928571,21.9285714 C28.1071414,21.9285714 27.8601201,21.8333343 27.6517857,21.6428571 L23.7142857,17.8571429 L19.7767857,21.6428571 C19.5624989,21.8392867 19.3154776,21.9375 19.0357143,21.9375 C18.8988088,21.9375 18.7678578,21.9107146 18.6428571,21.8571429 C18.4464276,21.7797615 18.2901792,21.6577389 18.1741071,21.4910714 C18.0580351,21.3244039 18,21.139882 18,20.9375 L18,9.42857143 C18,9.22618946 18.0580351,9.0416675 18.1741071,8.875 C18.2901792,8.7083325 18.4464276,8.58630991 18.6428571,8.50892857 C18.7678578,8.45535687 18.8988088,8.42857143 19.0357143,8.42857143 L28.3928571,8.42857143 Z" id="bookmark---FontAwesome"></path>
                        </g>
                        <rect id="Profile-bg" fill="#3E4F5B" x="0" y="0" width="50" height="47"></rect>
                        <path d="M28.6607143,17.8035714 C28.7500004,17.8928576 28.7946429,17.9955351 28.7946429,18.1116071 C28.7946429,18.2276792 28.7500004,18.3303567 28.6607143,18.4196429 L23.3973214,23.6830357 L28.6607143,28.9464286 C28.7500004,29.0357147 28.7946429,29.1383923 28.7946429,29.2544643 C28.7946429,29.3705363 28.7500004,29.4732138 28.6607143,29.5625 L27.9910714,30.2321429 C27.9017853,30.321429 27.7991077,30.3660714 27.6830357,30.3660714 C27.5669637,30.3660714 27.4642862,30.321429 27.375,30.2321429 L21.1339286,23.9910714 C21.0446424,23.9017853 21,23.7991077 21,23.6830357 C21,23.5669637 21.0446424,23.4642862 21.1339286,23.375 L27.375,17.1339286 C27.4642862,17.0446424 27.5669637,17 27.6830357,17 C27.7991077,17 27.9017853,17.0446424 27.9910714,17.1339286 L28.6607143,17.8035714 Z" id="angle-left---FontAwesome" fill="#D2D6D9"></path>
                    </g>
                </g>
            </g>
        </g>
    </g>
</svg>