<?xml version="1.0" encoding="UTF-8"?>
<svg width="242px" height="15px" viewBox="0 0 242 15" version="1.1" xmlns="http://www.w3.org/2000/svg" xmlns:xlink="http://www.w3.org/1999/xlink">
    <!-- Generator: Sketch 47 (45396) - http://www.bohemiancoding.com/sketch -->
    <title>Breadcrumbs 2</title>
    <desc>Created with Sketch.</desc>
    <defs></defs>
    <g id="Page-1" stroke="none" stroke-width="1" fill="none" fill-rule="evenodd">
        <g id="Bradcrumb-Usage-extra-large-1200" transform="translate(-828.000000, -1602.000000)">
            <g id="Group-6" transform="translate(303.000000, 1558.000000)">
                <g id="Breadcrumbs-2" transform="translate(525.000000, 43.000000)">
                    <path d="M4.416,1.704 L5.744,1.704 L9.728,13 L8.224,13 L7.216,9.96 L2.864,9.96 L1.856,13 L0.4,13 L4.416,1.704 Z M6.832,8.856 C6.53333184,7.92799536 6.2373348,7.01867112 5.944,6.128 C5.6506652,5.23732888 5.35466816,4.30133824 5.056,3.32 C4.77866528,4.2800048 4.48533488,5.21066216 4.176,6.112 C3.86666512,7.01333784 3.55733488,7.92799536 3.248,8.856 L6.832,8.856 Z M16.448,11.464 C16.2346656,11.997336 15.9200021,12.4186651 15.504,12.728 C15.0879979,13.0373349 14.5706698,13.192 13.952,13.192 C13.4613309,13.192 13.0213353,13.0906677 12.632,12.888 C12.2426647,12.6853323 11.9120014,12.4026685 11.64,12.04 C11.3679986,11.6773315 11.1600007,11.2400026 11.016,10.728 C10.8719993,10.2159974 10.8,9.65066976 10.8,9.032 C10.8,8.3919968 10.8746659,7.8186692 11.024,7.312 C11.1733341,6.8053308 11.3866653,6.37600176 11.664,6.024 C11.9413347,5.67199824 12.2746647,5.40000096 12.664,5.208 C13.0533353,5.01599904 13.4826643,4.92 13.952,4.92 C14.5920032,4.92 15.1146646,5.07199848 15.52,5.376 C15.9253354,5.68000152 16.2133325,6.0453312 16.384,6.472 L16.384,1.704 L17.728,1.704 L17.728,13 L16.448,13 L16.448,11.464 Z M16.384,9.016 C16.384,8.68533168 16.3760001,8.4266676 16.36,8.24 C16.3439999,8.0533324 16.3253334,7.90133392 16.304,7.784 C16.2506664,7.54933216 16.1706672,7.3253344 16.064,7.112 C15.9573328,6.8986656 15.8213342,6.70933416 15.656,6.544 C15.4906658,6.37866584 15.2960011,6.24800048 15.072,6.152 C14.8479989,6.05599952 14.5920014,6.008 14.304,6.008 C13.9413315,6.008 13.6293346,6.0879992 13.368,6.248 C13.1066654,6.4080008 12.8880009,6.62399864 12.712,6.896 C12.5359991,7.16800136 12.4053338,7.48799816 12.32,7.856 C12.2346662,8.22400184 12.192,8.61599792 12.192,9.032 C12.192,9.48000224 12.2399995,9.89333144 12.336,10.272 C12.4320005,10.6506686 12.5706658,10.9759986 12.752,11.248 C12.9333342,11.5200014 13.157332,11.7333326 13.424,11.888 C13.690668,12.0426674 13.994665,12.12 14.336,12.12 C14.602668,12.12 14.8453322,12.0720005 15.064,11.976 C15.2826678,11.8799995 15.4746658,11.7466675 15.64,11.576 C15.8053342,11.4053325 15.9413328,11.2106678 16.048,10.992 C16.1546672,10.7733322 16.2346664,10.5413346 16.288,10.296 C16.3520003,9.99733184 16.384,9.59733584 16.384,9.096 L16.384,9.016 Z M25.056,11.464 C24.8426656,11.997336 24.5280021,12.4186651 24.112,12.728 C23.6959979,13.0373349 23.1786698,13.192 22.56,13.192 C22.0693309,13.192 21.6293353,13.0906677 21.24,12.888 C20.8506647,12.6853323 20.5200014,12.4026685 20.248,12.04 C19.9759986,11.6773315 19.7680007,11.2400026 19.624,10.728 C19.4799993,10.2159974 19.408,9.65066976 19.408,9.032 C19.408,8.3919968 19.4826659,7.8186692 19.632,7.312 C19.7813341,6.8053308 19.9946653,6.37600176 20.272,6.024 C20.5493347,5.67199824 20.8826647,5.40000096 21.272,5.208 C21.6613353,5.01599904 22.0906643,4.92 22.56,4.92 C23.2000032,4.92 23.7226646,5.07199848 24.128,5.376 C24.5333354,5.68000152 24.8213325,6.0453312 24.992,6.472 L24.992,1.704 L26.336,1.704 L26.336,13 L25.056,13 L25.056,11.464 Z M24.992,9.016 C24.992,8.68533168 24.9840001,8.4266676 24.968,8.24 C24.9519999,8.0533324 24.9333334,7.90133392 24.912,7.784 C24.8586664,7.54933216 24.7786672,7.3253344 24.672,7.112 C24.5653328,6.8986656 24.4293342,6.70933416 24.264,6.544 C24.0986658,6.37866584 23.9040011,6.24800048 23.68,6.152 C23.4559989,6.05599952 23.2000014,6.008 22.912,6.008 C22.5493315,6.008 22.2373346,6.0879992 21.976,6.248 C21.7146654,6.4080008 21.4960009,6.62399864 21.32,6.896 C21.1439991,7.16800136 21.0133338,7.48799816 20.928,7.856 C20.8426662,8.22400184 20.8,8.61599792 20.8,9.032 C20.8,9.48000224 20.8479995,9.89333144 20.944,10.272 C21.0400005,10.6506686 21.1786658,10.9759986 21.36,11.248 C21.5413342,11.5200014 21.765332,11.7333326 22.032,11.888 C22.298668,12.0426674 22.602665,12.12 22.944,12.12 C23.210668,12.12 23.4533322,12.0720005 23.672,11.976 C23.8906678,11.8799995 24.0826658,11.7466675 24.248,11.576 C24.4133342,11.4053325 24.5493328,11.2106678 24.656,10.992 C24.7626672,10.7733322 24.8426664,10.5413346 24.896,10.296 C24.9600003,9.99733184 24.992,9.59733584 24.992,9.096 L24.992,9.016 Z M31.968,5.128 L33.296,5.128 L33.296,6.648 C33.3920005,6.42399888 33.5146659,6.2053344 33.664,5.992 C33.8133341,5.7786656 33.991999,5.5920008 34.2,5.432 C34.408001,5.2719992 34.6506653,5.14400048 34.928,5.048 C35.2053347,4.95199952 35.5199982,4.904 35.872,4.904 C36.3840026,4.904 36.8293314,5.0106656 37.208,5.224 C37.5866686,5.4373344 37.8986654,5.7306648 38.144,6.104 C38.3893346,6.4773352 38.5733327,6.91199752 38.696,7.408 C38.8186673,7.90400248 38.88,8.43999712 38.88,9.016 C38.88,9.69867008 38.8000008,10.3013307 38.64,10.824 C38.4799992,11.3466693 38.2560014,11.7839982 37.968,12.136 C37.6799986,12.4880018 37.3440019,12.7546658 36.96,12.936 C36.5759981,13.1173342 36.1600022,13.208 35.712,13.208 C35.1253304,13.208 34.6213354,13.0640014 34.2,12.776 C33.7786646,12.4879986 33.4773342,12.1306688 33.296,11.704 L33.296,15.768 L31.968,15.768 L31.968,5.128 Z M33.296,9.112 C33.296,9.33600112 33.3039999,9.5413324 33.32,9.728 C33.3360001,9.9146676 33.3546666,10.0719994 33.376,10.2 C33.4186669,10.4560013 33.4986661,10.7013322 33.616,10.936 C33.7333339,11.1706678 33.8773325,11.3759991 34.048,11.552 C34.2186675,11.7280009 34.4186655,11.8693328 34.648,11.976 C34.8773345,12.0826672 35.1306653,12.136 35.408,12.136 C35.7706685,12.136 36.0826654,12.0506675 36.344,11.88 C36.6053346,11.7093325 36.8213325,11.4800014 36.992,11.192 C37.1626675,10.9039986 37.2879996,10.5760018 37.368,10.208 C37.4480004,9.83999816 37.488,9.45866864 37.488,9.064 C37.488,8.66933136 37.450667,8.28800184 37.376,7.92 C37.301333,7.55199816 37.1813342,7.22666808 37.016,6.944 C36.8506658,6.66133192 36.634668,6.43466752 36.368,6.264 C36.101332,6.09333248 35.7813352,6.008 35.408,6.008 C35.1199986,6.008 34.8560012,6.0613328 34.616,6.168 C34.3759988,6.2746672 34.1706675,6.41866576 34,6.6 C33.8293325,6.78133424 33.6880006,6.98933216 33.576,7.224 C33.4639994,7.45866784 33.3920002,7.70399872 33.36,7.96 C33.3386666,8.0666672 33.3226667,8.2133324 33.312,8.4 C33.3013333,8.5866676 33.296,8.80266544 33.296,9.048 L33.296,9.112 Z M40.576,5.128 L41.728,5.128 L41.856,6.888 C42.0800011,6.31199712 42.4373309,5.8373352 42.928,5.464 C43.4186691,5.0906648 43.9999966,4.904 44.672,4.904 L44.672,6.312 C44.5226659,6.27999984 44.3573342,6.264 44.176,6.264 C43.909332,6.264 43.642668,6.31199952 43.376,6.408 C43.109332,6.50400048 42.8666678,6.6586656 42.648,6.872 C42.4293322,7.0853344 42.2506674,7.35999832 42.112,7.696 C41.9733326,8.03200168 41.904,8.4399976 41.904,8.92 L41.904,13 L40.576,13 L40.576,5.128 Z M49.248,13.24 C48.6506637,13.24 48.1253356,13.1306678 47.672,12.912 C47.2186644,12.6933322 46.8400015,12.3946686 46.536,12.016 C46.2319985,11.6373314 46.0053341,11.1946692 45.856,10.688 C45.7066659,10.1813308 45.632,9.6346696 45.632,9.048 C45.632,8.4613304 45.7093326,7.91733584 45.864,7.416 C46.0186674,6.91466416 46.2479985,6.4773352 46.552,6.104 C46.8560015,5.7306648 47.2346644,5.4373344 47.688,5.224 C48.1413356,5.0106656 48.6613304,4.904 49.248,4.904 C49.8346696,4.904 50.3546644,5.0106656 50.808,5.224 C51.2613356,5.4373344 51.6426651,5.72799816 51.952,6.096 C52.2613349,6.46400184 52.4933326,6.9013308 52.648,7.408 C52.8026674,7.9146692 52.88,8.4613304 52.88,9.048 C52.88,9.6346696 52.8026674,10.1813308 52.648,10.688 C52.4933326,11.1946692 52.2613349,11.6373314 51.952,12.016 C51.6426651,12.3946686 51.2613356,12.6933322 50.808,12.912 C50.3546644,13.1306678 49.8346696,13.24 49.248,13.24 Z M49.28,12.2 C49.6426685,12.2 49.9626653,12.1200008 50.24,11.96 C50.5173347,11.7999992 50.7466658,11.5786681 50.928,11.296 C51.1093342,11.0133319 51.2479995,10.6800019 51.344,10.296 C51.4400005,9.91199808 51.488,9.49600224 51.488,9.048 C51.488,8.59999776 51.4400005,8.18666856 51.344,7.808 C51.2479995,7.42933144 51.104001,7.10133472 50.912,6.824 C50.719999,6.54666528 50.4853347,6.33066744 50.208,6.176 C49.9306653,6.02133256 49.6106685,5.944 49.248,5.944 C48.8746648,5.944 48.5493347,6.02133256 48.272,6.176 C47.9946653,6.33066744 47.7653342,6.54666528 47.584,6.824 C47.4026658,7.10133472 47.2640005,7.42933144 47.168,7.808 C47.0719995,8.18666856 47.024,8.59999776 47.024,9.048 C47.024,9.49600224 47.0719995,9.91199808 47.168,10.296 C47.2640005,10.6800019 47.4053324,11.0133319 47.592,11.296 C47.7786676,11.5786681 48.0133319,11.7999992 48.296,11.96 C48.5786681,12.1200008 48.9066648,12.2 49.28,12.2 Z M59.872,11.464 C59.6586656,11.997336 59.3440021,12.4186651 58.928,12.728 C58.5119979,13.0373349 57.9946698,13.192 57.376,13.192 C56.8853309,13.192 56.4453353,13.0906677 56.056,12.888 C55.6666647,12.6853323 55.3360014,12.4026685 55.064,12.04 C54.7919986,11.6773315 54.5840007,11.2400026 54.44,10.728 C54.2959993,10.2159974 54.224,9.65066976 54.224,9.032 C54.224,8.3919968 54.2986659,7.8186692 54.448,7.312 C54.5973341,6.8053308 54.8106653,6.37600176 55.088,6.024 C55.3653347,5.67199824 55.6986647,5.40000096 56.088,5.208 C56.4773353,5.01599904 56.9066643,4.92 57.376,4.92 C58.0160032,4.92 58.5386646,5.07199848 58.944,5.376 C59.3493354,5.68000152 59.6373325,6.0453312 59.808,6.472 L59.808,1.704 L61.152,1.704 L61.152,13 L59.872,13 L59.872,11.464 Z M59.808,9.016 C59.808,8.68533168 59.8000001,8.4266676 59.784,8.24 C59.7679999,8.0533324 59.7493334,7.90133392 59.728,7.784 C59.6746664,7.54933216 59.5946672,7.3253344 59.488,7.112 C59.3813328,6.8986656 59.2453342,6.70933416 59.08,6.544 C58.9146658,6.37866584 58.7200011,6.24800048 58.496,6.152 C58.2719989,6.05599952 58.0160014,6.008 57.728,6.008 C57.3653315,6.008 57.0533346,6.0879992 56.792,6.248 C56.5306654,6.4080008 56.3120009,6.62399864 56.136,6.896 C55.9599991,7.16800136 55.8293338,7.48799816 55.744,7.856 C55.6586662,8.22400184 55.616,8.61599792 55.616,9.032 C55.616,9.48000224 55.6639995,9.89333144 55.76,10.272 C55.8560005,10.6506686 55.9946658,10.9759986 56.176,11.248 C56.3573342,11.5200014 56.581332,11.7333326 56.848,11.888 C57.114668,12.0426674 57.418665,12.12 57.76,12.12 C58.026668,12.12 58.2693322,12.0720005 58.488,11.976 C58.7066678,11.8799995 58.8986658,11.7466675 59.064,11.576 C59.2293342,11.4053325 59.3653328,11.2106678 59.472,10.992 C59.5786672,10.7733322 59.6586664,10.5413346 59.712,10.296 C59.7760003,9.99733184 59.808,9.59733584 59.808,9.096 L59.808,9.016 Z M63.152,5.128 L64.496,5.128 L64.496,9.896 C64.496,10.6426704 64.6346653,11.1893316 64.912,11.536 C65.1893347,11.8826684 65.5786642,12.056 66.08,12.056 C66.7200032,12.056 67.2186649,11.8026692 67.576,11.296 C67.9333351,10.7893308 68.112,10.1146709 68.112,9.272 L68.112,5.128 L69.44,5.128 L69.44,13 L68.192,13 L68.192,11.4 C68.0959995,11.6453346 67.9786674,11.8773322 67.84,12.096 C67.7013326,12.3146678 67.5306677,12.5066658 67.328,12.672 C67.1253323,12.8373342 66.890668,12.9679995 66.624,13.064 C66.357332,13.1600005 66.0426685,13.208 65.68,13.208 C64.8266624,13.208 64.1920021,12.9493359 63.776,12.432 C63.3599979,11.9146641 63.152,11.1813381 63.152,10.232 L63.152,5.128 Z M78.064,11.272 C77.7439984,11.9120032 77.3146694,12.3999983 76.776,12.736 C76.2373306,13.0720017 75.5840038,13.24 74.816,13.24 C74.1866635,13.24 73.6400023,13.1306678 73.176,12.912 C72.7119977,12.6933322 72.3280015,12.3973352 72.024,12.024 C71.7199985,11.6506648 71.4960007,11.2106692 71.352,10.704 C71.2079993,10.1973308 71.136,9.65600288 71.136,9.08 C71.136,8.4933304 71.2133326,7.9466692 71.368,7.44 C71.5226674,6.9333308 71.7519985,6.4933352 72.056,6.12 C72.3600015,5.7466648 72.741331,5.45066776 73.2,5.232 C73.658669,5.01333224 74.1973302,4.904 74.816,4.904 C75.5946706,4.904 76.2426641,5.0773316 76.76,5.424 C77.2773359,5.7706684 77.6959984,6.25866352 78.016,6.888 L76.896,7.416 C76.4906646,6.43466176 75.8080048,5.944 74.848,5.944 C74.4426646,5.944 74.0933348,6.0239992 73.8,6.184 C73.5066652,6.3440008 73.2666676,6.56266528 73.08,6.84 C72.8933324,7.11733472 72.7546671,7.43999816 72.664,7.808 C72.5733329,8.17600184 72.528,8.5733312 72.528,9 C72.528,9.40533536 72.5706662,9.79999808 72.656,10.184 C72.7413338,10.5680019 72.879999,10.9093318 73.072,11.208 C73.264001,11.5066682 73.5093318,11.7466658 73.808,11.928 C74.1066682,12.1093342 74.4746645,12.2 74.912,12.2 C75.4666694,12.2 75.914665,12.0586681 76.256,11.776 C76.597335,11.4933319 76.8586658,11.1280022 77.04,10.68 L78.064,11.272 Z M80.224,6.04 L78.88,6.04 L78.88,5.128 L79.168,5.128 C79.4986683,5.128 79.7573324,5.09333368 79.944,5.024 C80.1306676,4.95466632 80.2719995,4.84800072 80.368,4.704 C80.4640005,4.55999928 80.5333331,4.37066784 80.576,4.136 C80.6186669,3.90133216 80.6559998,3.61333504 80.688,3.272 L80.72,2.984 L81.552,2.984 L81.552,5.128 L83.248,5.128 L83.248,6.04 L81.552,6.04 L81.552,10.936 C81.552,11.3840022 81.618666,11.7066657 81.752,11.904 C81.885334,12.1013343 82.1333315,12.2 82.496,12.2 C82.7840014,12.2 83.0506654,12.1360006 83.296,12.008 L83.44,12.968 C83.0346646,13.1493342 82.5866691,13.24 82.096,13.24 C81.7119981,13.24 81.4000012,13.1866672 81.16,13.08 C80.9199988,12.9733328 80.7306674,12.8293342 80.592,12.648 C80.4533326,12.4666658 80.3573336,12.2480013 80.304,11.992 C80.2506664,11.7359987 80.224,11.4586682 80.224,11.16 L80.224,6.04 Z" id="Add-product" fill="#0D78AA"></path>
                    <path d="M98.1975446,4.8046875 C98.2645093,4.87165212 98.2979911,4.94866028 98.2979911,5.03571429 C98.2979911,5.12276829 98.2645093,5.19977645 98.1975446,5.26674107 L94.25,9.21428571 L98.1975446,13.1618304 C98.2645093,13.228795 98.2979911,13.3058031 98.2979911,13.3928571 C98.2979911,13.4799111 98.2645093,13.5569193 98.1975446,13.6238839 L97.6953125,14.1261161 C97.6283479,14.1930807 97.5513397,14.2265625 97.4642857,14.2265625 C97.3772317,14.2265625 97.3002235,14.1930807 97.2332589,14.1261161 L92.5524554,9.4453125 C92.4854907,9.37834788 92.4520089,9.30133972 92.4520089,9.21428571 C92.4520089,9.12723171 92.4854907,9.05022355 92.5524554,8.98325893 L97.2332589,4.30245536 C97.3002235,4.23549074 97.3772317,4.20200893 97.4642857,4.20200893 C97.5513397,4.20200893 97.6283479,4.23549074 97.6953125,4.30245536 L98.1975446,4.8046875 Z" id="angle-left---FontAwesome-Copy" fill="#AAB1B6" transform="translate(95.375000, 9.214286) rotate(180.000000) translate(-95.375000, -9.214286) "></path>
                    <path d="M108.556,1.704 L112.348,1.704 C112.913336,1.704 113.435998,1.76799936 113.916,1.896 C114.396002,2.02400064 114.809332,2.221332 115.156,2.488 C115.502668,2.754668 115.774666,3.09333128 115.972,3.504 C116.169334,3.91466872 116.268,4.40799712 116.268,4.984 C116.268,5.6240032 116.169334,6.16799776 115.972,6.616 C115.774666,7.06400224 115.500002,7.42666528 115.148,7.704 C114.795998,7.98133472 114.382669,8.18133272 113.908,8.304 C113.433331,8.42666728 112.918669,8.488 112.364,8.488 L109.996,8.488 L109.996,13 L108.556,13 L108.556,1.704 Z M112.124,7.336 C112.956004,7.336 113.601331,7.15733512 114.06,6.8 C114.518669,6.44266488 114.748,5.8373376 114.748,4.984 C114.748,4.58933136 114.681334,4.25333472 114.548,3.976 C114.414666,3.69866528 114.233334,3.47466752 114.004,3.304 C113.774666,3.13333248 113.502668,3.01066704 113.188,2.936 C112.873332,2.86133296 112.534668,2.824 112.172,2.824 L109.996,2.824 L109.996,7.336 L112.124,7.336 Z M117.82,5.128 L119.164,5.128 L119.164,9.896 C119.164,10.6426704 119.302665,11.1893316 119.58,11.536 C119.857335,11.8826684 120.246664,12.056 120.748,12.056 C121.388003,12.056 121.886665,11.8026692 122.244,11.296 C122.601335,10.7893308 122.78,10.1146709 122.78,9.272 L122.78,5.128 L124.108,5.128 L124.108,13 L122.86,13 L122.86,11.4 C122.764,11.6453346 122.646667,11.8773322 122.508,12.096 C122.369333,12.3146678 122.198668,12.5066658 121.996,12.672 C121.793332,12.8373342 121.558668,12.9679995 121.292,13.064 C121.025332,13.1600005 120.710668,13.208 120.348,13.208 C119.494662,13.208 118.860002,12.9493359 118.444,12.432 C118.027998,11.9146641 117.82,11.1813381 117.82,10.232 L117.82,5.128 Z M126.156,5.128 L127.308,5.128 L127.436,6.888 C127.660001,6.31199712 128.017331,5.8373352 128.508,5.464 C128.998669,5.0906648 129.579997,4.904 130.252,4.904 L130.252,6.312 C130.102666,6.27999984 129.937334,6.264 129.756,6.264 C129.489332,6.264 129.222668,6.31199952 128.956,6.408 C128.689332,6.50400048 128.446668,6.6586656 128.228,6.872 C128.009332,7.0853344 127.830667,7.35999832 127.692,7.696 C127.553333,8.03200168 127.484,8.4399976 127.484,8.92 L127.484,13 L126.156,13 L126.156,5.128 Z M138.14,11.272 C137.819998,11.9120032 137.390669,12.3999983 136.852,12.736 C136.313331,13.0720017 135.660004,13.24 134.892,13.24 C134.262664,13.24 133.716002,13.1306678 133.252,12.912 C132.787998,12.6933322 132.404002,12.3973352 132.1,12.024 C131.795998,11.6506648 131.572001,11.2106692 131.428,10.704 C131.283999,10.1973308 131.212,9.65600288 131.212,9.08 C131.212,8.4933304 131.289333,7.9466692 131.444,7.44 C131.598667,6.9333308 131.827998,6.4933352 132.132,6.12 C132.436002,5.7466648 132.817331,5.45066776 133.276,5.232 C133.734669,5.01333224 134.27333,4.904 134.892,4.904 C135.670671,4.904 136.318664,5.0773316 136.836,5.424 C137.353336,5.7706684 137.771998,6.25866352 138.092,6.888 L136.972,7.416 C136.566665,6.43466176 135.884005,5.944 134.924,5.944 C134.518665,5.944 134.169335,6.0239992 133.876,6.184 C133.582665,6.3440008 133.342668,6.56266528 133.156,6.84 C132.969332,7.11733472 132.830667,7.43999816 132.74,7.808 C132.649333,8.17600184 132.604,8.5733312 132.604,9 C132.604,9.40533536 132.646666,9.79999808 132.732,10.184 C132.817334,10.5680019 132.955999,10.9093318 133.148,11.208 C133.340001,11.5066682 133.585332,11.7466658 133.884,11.928 C134.182668,12.1093342 134.550664,12.2 134.988,12.2 C135.542669,12.2 135.990665,12.0586681 136.332,11.776 C136.673335,11.4933319 136.934666,11.1280022 137.116,10.68 L138.14,11.272 Z M139.612,1.704 L140.94,1.704 L140.94,6.68 C141.036,6.44533216 141.158666,6.2213344 141.308,6.008 C141.457334,5.7946656 141.638666,5.60533416 141.852,5.44 C142.065334,5.27466584 142.310665,5.14400048 142.588,5.048 C142.865335,4.95199952 143.174665,4.904 143.516,4.904 C144.337337,4.904 144.942665,5.17333064 145.332,5.712 C145.721335,6.25066936 145.916,6.97866208 145.916,7.896 L145.916,13 L144.588,13 L144.588,8.104 C144.588,7.43199664 144.449335,6.92800168 144.172,6.592 C143.894665,6.25599832 143.500003,6.088 142.988,6.088 C142.689332,6.088 142.414668,6.15199936 142.164,6.28 C141.913332,6.40800064 141.697334,6.58933216 141.516,6.824 C141.334666,7.05866784 141.193334,7.34133168 141.092,7.672 C140.990666,8.00266832 140.94,8.36533136 140.94,8.76 L140.94,13 L139.612,13 L139.612,1.704 Z M152.876,13 C152.758666,12.6159981 152.689333,12.157336 152.668,11.624 C152.454666,12.1146691 152.126669,12.5066652 151.684,12.8 C151.241331,13.0933348 150.716003,13.24 150.108,13.24 C149.339996,13.24 148.732002,13.0213355 148.284,12.584 C147.835998,12.1466645 147.612,11.5600037 147.612,10.824 C147.612,10.4079979 147.686666,10.0586681 147.836,9.776 C147.985334,9.49333192 148.193332,9.2586676 148.46,9.072 C148.726668,8.8853324 149.041332,8.7386672 149.404,8.632 C149.766668,8.5253328 150.161331,8.44000032 150.588,8.376 L152.604,8.072 L152.604,7.576 C152.604,7.22399824 152.561334,6.9413344 152.476,6.728 C152.390666,6.5146656 152.273334,6.34933392 152.124,6.232 C151.974666,6.11466608 151.804001,6.03733352 151.612,6 C151.419999,5.96266648 151.217334,5.944 151.004,5.944 C150.395997,5.944 149.894669,6.05599888 149.5,6.28 C149.105331,6.50400112 148.774668,6.78666496 148.508,7.128 L147.82,6.264 C148.129335,5.8906648 148.558664,5.570668 149.108,5.304 C149.657336,5.037332 150.337329,4.904 151.148,4.904 C152.129338,4.904 152.841331,5.12266448 153.284,5.56 C153.726669,5.99733552 153.948,6.70132848 153.948,7.672 L153.948,10.856 C153.948,11.1120013 153.950667,11.335999 153.956,11.528 C153.961333,11.720001 153.972,11.8986658 153.988,12.064 C154.004,12.2293342 154.028,12.3866659 154.06,12.536 C154.092,12.6853341 154.134666,12.8399992 154.188,13 L152.876,13 Z M152.604,8.952 L150.716,9.256 C150.06533,9.37333392 149.604001,9.54933216 149.332,9.784 C149.059999,10.0186678 148.924,10.3439979 148.924,10.76 C148.924,11.1866688 149.049332,11.5439986 149.3,11.832 C149.550668,12.1200014 149.921331,12.264 150.412,12.264 C150.710668,12.264 150.993332,12.2053339 151.26,12.088 C151.526668,11.9706661 151.758666,11.808001 151.956,11.6 C152.153334,11.391999 152.310666,11.1413348 152.428,10.848 C152.545334,10.5546652 152.604,10.2320018 152.604,9.88 L152.604,8.952 Z M156.22,11.064 C156.486668,11.405335 156.830665,11.6879989 157.252,11.912 C157.673335,12.1360011 158.134664,12.248 158.636,12.248 C159.084002,12.248 159.473332,12.1413344 159.804,11.928 C160.134668,11.7146656 160.3,11.3946688 160.3,10.968 C160.3,10.6373317 160.190668,10.3786676 159.972,10.192 C159.753332,10.0053324 159.481335,9.84800064 159.156,9.72 C158.830665,9.59199936 158.476002,9.4746672 158.092,9.368 C157.707998,9.2613328 157.353335,9.12266752 157.028,8.952 C156.702665,8.78133248 156.430668,8.55733472 156.212,8.28 C155.993332,8.00266528 155.884,7.6240024 155.884,7.144 C155.884,6.74933136 155.963999,6.41066808 156.124,6.128 C156.284001,5.84533192 156.494665,5.61333424 156.756,5.432 C157.017335,5.25066576 157.318665,5.11733376 157.66,5.032 C158.001335,4.94666624 158.358665,4.904 158.732,4.904 C159.841339,4.904 160.763996,5.2239968 161.5,5.864 L160.828,6.76 C160.593332,6.51466544 160.281335,6.30933416 159.892,6.144 C159.502665,5.97866584 159.100002,5.896 158.684,5.896 C158.502666,5.896 158.324001,5.91733312 158.148,5.96 C157.971999,6.00266688 157.817334,6.06933288 157.684,6.16 C157.550666,6.25066712 157.444,6.36533264 157.364,6.504 C157.284,6.64266736 157.244,6.81333232 157.244,7.016 C157.244,7.32533488 157.353332,7.56533248 157.572,7.736 C157.790668,7.90666752 158.062665,8.05333272 158.388,8.176 C158.713335,8.29866728 159.065331,8.41599944 159.444,8.528 C159.822669,8.64000056 160.174665,8.78399912 160.5,8.96 C160.825335,9.13600088 161.097332,9.36799856 161.316,9.656 C161.534668,9.94400144 161.644,10.3279976 161.644,10.808 C161.644,11.2133354 161.561334,11.5679985 161.396,11.872 C161.230666,12.1760015 161.012001,12.4293323 160.74,12.632 C160.467999,12.8346677 160.153335,12.9866662 159.796,13.088 C159.438665,13.1893338 159.068002,13.24 158.684,13.24 C157.361327,13.24 156.310671,12.8133376 155.532,11.96 L156.22,11.064 Z M164.204,9.368 C164.257334,10.2746712 164.489331,10.9759975 164.9,11.472 C165.310669,11.9680025 165.883996,12.216 166.62,12.216 C167.548005,12.216 168.246664,11.778671 168.716,10.904 L169.724,11.464 C169.414665,11.9866693 169.004003,12.4133317 168.492,12.744 C167.979997,13.0746683 167.334671,13.24 166.556,13.24 C165.93733,13.24 165.396002,13.1333344 164.932,12.92 C164.467998,12.7066656 164.081335,12.4133352 163.772,12.04 C163.462665,11.6666648 163.230667,11.2293358 163.076,10.728 C162.921333,10.2266642 162.844,9.68800288 162.844,9.112 C162.844,8.54666384 162.918666,8.00800256 163.068,7.496 C163.217334,6.98399744 163.443998,6.53600192 163.748,6.152 C164.052002,5.76799808 164.425331,5.46400112 164.868,5.24 C165.310669,5.01599888 165.830664,4.904 166.428,4.904 C167.004003,4.904 167.505331,5.01333224 167.932,5.232 C168.358669,5.45066776 168.713332,5.74399816 168.996,6.112 C169.278668,6.48000184 169.491999,6.90666424 169.636,7.392 C169.780001,7.87733576 169.852,8.39199728 169.852,8.936 C169.852,9.05333392 169.849333,9.14399968 169.844,9.208 C169.838667,9.27200032 169.836,9.32533312 169.836,9.368 L164.204,9.368 Z M166.412,5.912 C165.739997,5.912 165.220002,6.1519976 164.852,6.632 C164.483998,7.1120024 164.273334,7.75732928 164.22,8.568 L168.492,8.568 C168.492,8.23733168 168.454667,7.91466824 168.38,7.6 C168.305333,7.28533176 168.182668,7.00266792 168.012,6.752 C167.841332,6.50133208 167.625335,6.29866744 167.364,6.144 C167.102665,5.98933256 166.785335,5.912 166.412,5.912 Z M171.612,11.064 C171.878668,11.405335 172.222665,11.6879989 172.644,11.912 C173.065335,12.1360011 173.526664,12.248 174.028,12.248 C174.476002,12.248 174.865332,12.1413344 175.196,11.928 C175.526668,11.7146656 175.692,11.3946688 175.692,10.968 C175.692,10.6373317 175.582668,10.3786676 175.364,10.192 C175.145332,10.0053324 174.873335,9.84800064 174.548,9.72 C174.222665,9.59199936 173.868002,9.4746672 173.484,9.368 C173.099998,9.2613328 172.745335,9.12266752 172.42,8.952 C172.094665,8.78133248 171.822668,8.55733472 171.604,8.28 C171.385332,8.00266528 171.276,7.6240024 171.276,7.144 C171.276,6.74933136 171.355999,6.41066808 171.516,6.128 C171.676001,5.84533192 171.886665,5.61333424 172.148,5.432 C172.409335,5.25066576 172.710665,5.11733376 173.052,5.032 C173.393335,4.94666624 173.750665,4.904 174.124,4.904 C175.233339,4.904 176.155996,5.2239968 176.892,5.864 L176.22,6.76 C175.985332,6.51466544 175.673335,6.30933416 175.284,6.144 C174.894665,5.97866584 174.492002,5.896 174.076,5.896 C173.894666,5.896 173.716001,5.91733312 173.54,5.96 C173.363999,6.00266688 173.209334,6.06933288 173.076,6.16 C172.942666,6.25066712 172.836,6.36533264 172.756,6.504 C172.676,6.64266736 172.636,6.81333232 172.636,7.016 C172.636,7.32533488 172.745332,7.56533248 172.964,7.736 C173.182668,7.90666752 173.454665,8.05333272 173.78,8.176 C174.105335,8.29866728 174.457331,8.41599944 174.836,8.528 C175.214669,8.64000056 175.566665,8.78399912 175.892,8.96 C176.217335,9.13600088 176.489332,9.36799856 176.708,9.656 C176.926668,9.94400144 177.036,10.3279976 177.036,10.808 C177.036,11.2133354 176.953334,11.5679985 176.788,11.872 C176.622666,12.1760015 176.404001,12.4293323 176.132,12.632 C175.859999,12.8346677 175.545335,12.9866662 175.188,13.088 C174.830665,13.1893338 174.460002,13.24 174.076,13.24 C172.753327,13.24 171.702671,12.8133376 170.924,11.96 L171.612,11.064 Z" id="Purchases" fill="#0D78AA"></path>
                    <path d="M202.992,1.704 L204.432,1.704 L204.432,6.584 L209.952,6.584 L209.952,1.704 L211.392,1.704 L211.392,13 L209.952,13 L209.952,7.784 L204.432,7.784 L204.432,13 L202.992,13 L202.992,1.704 Z M216.8,13.24 C216.202664,13.24 215.677336,13.1306678 215.224,12.912 C214.770664,12.6933322 214.392002,12.3946686 214.088,12.016 C213.783998,11.6373314 213.557334,11.1946692 213.408,10.688 C213.258666,10.1813308 213.184,9.6346696 213.184,9.048 C213.184,8.4613304 213.261333,7.91733584 213.416,7.416 C213.570667,6.91466416 213.799998,6.4773352 214.104,6.104 C214.408002,5.7306648 214.786664,5.4373344 215.24,5.224 C215.693336,5.0106656 216.21333,4.904 216.8,4.904 C217.38667,4.904 217.906664,5.0106656 218.36,5.224 C218.813336,5.4373344 219.194665,5.72799816 219.504,6.096 C219.813335,6.46400184 220.045333,6.9013308 220.2,7.408 C220.354667,7.9146692 220.432,8.4613304 220.432,9.048 C220.432,9.6346696 220.354667,10.1813308 220.2,10.688 C220.045333,11.1946692 219.813335,11.6373314 219.504,12.016 C219.194665,12.3946686 218.813336,12.6933322 218.36,12.912 C217.906664,13.1306678 217.38667,13.24 216.8,13.24 Z M216.832,12.2 C217.194668,12.2 217.514665,12.1200008 217.792,11.96 C218.069335,11.7999992 218.298666,11.5786681 218.48,11.296 C218.661334,11.0133319 218.8,10.6800019 218.896,10.296 C218.992,9.91199808 219.04,9.49600224 219.04,9.048 C219.04,8.59999776 218.992,8.18666856 218.896,7.808 C218.8,7.42933144 218.656001,7.10133472 218.464,6.824 C218.271999,6.54666528 218.037335,6.33066744 217.76,6.176 C217.482665,6.02133256 217.162668,5.944 216.8,5.944 C216.426665,5.944 216.101335,6.02133256 215.824,6.176 C215.546665,6.33066744 215.317334,6.54666528 215.136,6.824 C214.954666,7.10133472 214.816,7.42933144 214.72,7.808 C214.624,8.18666856 214.576,8.59999776 214.576,9.048 C214.576,9.49600224 214.624,9.91199808 214.72,10.296 C214.816,10.6800019 214.957332,11.0133319 215.144,11.296 C215.330668,11.5786681 215.565332,11.7999992 215.848,11.96 C216.130668,12.1200008 216.458665,12.2 216.832,12.2 Z M222.128,5.128 L223.28,5.128 L223.424,6.664 C223.616001,6.11999728 223.914665,5.69066824 224.32,5.376 C224.725335,5.06133176 225.22133,4.904 225.808,4.904 C226.42667,4.904 226.911998,5.07999824 227.264,5.432 C227.616002,5.78400176 227.84,6.21066416 227.936,6.712 C228.032,6.46666544 228.151999,6.23466776 228.296,6.016 C228.440001,5.79733224 228.613332,5.60533416 228.816,5.44 C229.018668,5.27466584 229.253332,5.14400048 229.52,5.048 C229.786668,4.95199952 230.090665,4.904 230.432,4.904 C230.880002,4.904 231.250665,4.98133256 231.544,5.136 C231.837335,5.29066744 232.071999,5.501332 232.248,5.768 C232.424001,6.034668 232.549333,6.34666488 232.624,6.704 C232.698667,7.06133512 232.736,7.43733136 232.736,7.832 L232.736,13 L231.408,13 L231.408,8.168 C231.408,7.46399648 231.282668,6.9386684 231.032,6.592 C230.781332,6.2453316 230.416002,6.072 229.936,6.072 C229.413331,6.072 228.976002,6.30399768 228.624,6.768 C228.271998,7.23200232 228.096,7.89599568 228.096,8.76 L228.096,13 L226.768,13 L226.768,8.232 C226.768,7.49599632 226.640001,6.95200176 226.384,6.6 C226.127999,6.24799824 225.770669,6.072 225.312,6.072 C224.799997,6.072 224.362668,6.30933096 224,6.784 C223.637332,7.25866904 223.456,7.94399552 223.456,8.84 L223.456,13 L222.128,13 L222.128,5.128 Z M235.76,9.368 C235.813334,10.2746712 236.045331,10.9759975 236.456,11.472 C236.866669,11.9680025 237.439996,12.216 238.176,12.216 C239.104005,12.216 239.802664,11.778671 240.272,10.904 L241.28,11.464 C240.970665,11.9866693 240.560003,12.4133317 240.048,12.744 C239.535997,13.0746683 238.890671,13.24 238.112,13.24 C237.49333,13.24 236.952002,13.1333344 236.488,12.92 C236.023998,12.7066656 235.637335,12.4133352 235.328,12.04 C235.018665,11.6666648 234.786667,11.2293358 234.632,10.728 C234.477333,10.2266642 234.4,9.68800288 234.4,9.112 C234.4,8.54666384 234.474666,8.00800256 234.624,7.496 C234.773334,6.98399744 234.999998,6.53600192 235.304,6.152 C235.608002,5.76799808 235.981331,5.46400112 236.424,5.24 C236.866669,5.01599888 237.386664,4.904 237.984,4.904 C238.560003,4.904 239.061331,5.01333224 239.488,5.232 C239.914669,5.45066776 240.269332,5.74399816 240.552,6.112 C240.834668,6.48000184 241.047999,6.90666424 241.192,7.392 C241.336001,7.87733576 241.408,8.39199728 241.408,8.936 C241.408,9.05333392 241.405333,9.14399968 241.4,9.208 C241.394667,9.27200032 241.392,9.32533312 241.392,9.368 L235.76,9.368 Z M237.968,5.912 C237.295997,5.912 236.776002,6.1519976 236.408,6.632 C236.039998,7.1120024 235.829334,7.75732928 235.776,8.568 L240.048,8.568 C240.048,8.23733168 240.010667,7.91466824 239.936,7.6 C239.861333,7.28533176 239.738668,7.00266792 239.568,6.752 C239.397332,6.50133208 239.181335,6.29866744 238.92,6.144 C238.658665,5.98933256 238.341335,5.912 237.968,5.912 Z" id="Home" fill="#4C5358"></path>
                    <path d="M192.197545,4.8046875 C192.264509,4.87165212 192.297991,4.94866028 192.297991,5.03571429 C192.297991,5.12276829 192.264509,5.19977645 192.197545,5.26674107 L188.25,9.21428571 L192.197545,13.1618304 C192.264509,13.228795 192.297991,13.3058031 192.297991,13.3928571 C192.297991,13.4799111 192.264509,13.5569193 192.197545,13.6238839 L191.695312,14.1261161 C191.628348,14.1930807 191.55134,14.2265625 191.464286,14.2265625 C191.377232,14.2265625 191.300224,14.1930807 191.233259,14.1261161 L186.552455,9.4453125 C186.485491,9.37834788 186.452009,9.30133972 186.452009,9.21428571 C186.452009,9.12723171 186.485491,9.05022355 186.552455,8.98325893 L191.233259,4.30245536 C191.300224,4.23549074 191.377232,4.20200893 191.464286,4.20200893 C191.55134,4.20200893 191.628348,4.23549074 191.695312,4.30245536 L192.197545,4.8046875 Z" id="" fill="#AAB1B6" transform="translate(189.375000, 9.214286) rotate(180.000000) translate(-189.375000, -9.214286) "></path>
                </g>
            </g>
        </g>
    </g>
</svg>