<?xml version="1.0" encoding="UTF-8"?>
<svg width="338px" height="260px" viewBox="0 0 338 260" version="1.1" xmlns="http://www.w3.org/2000/svg" xmlns:xlink="http://www.w3.org/1999/xlink">
    <!-- Generator: Sketch 47 (45396) - http://www.bohemiancoding.com/sketch -->
    <title>Don't breadcrumbs</title>
    <desc>Created with Sketch.</desc>
    <defs>
        <rect id="path-1" x="0" y="0" width="330" height="252"></rect>
        <filter x="-2.1%" y="-2.0%" width="104.2%" height="105.6%" filterUnits="objectBoundingBox" id="filter-2">
            <feOffset dx="0" dy="2" in="SourceAlpha" result="shadowOffsetOuter1"></feOffset>
            <feGaussianBlur stdDeviation="2" in="shadowOffsetOuter1" result="shadowBlurOuter1"></feGaussianBlur>
            <feComposite in="shadowBlurOuter1" in2="SourceAlpha" operator="out" result="shadowBlurOuter1"></feComposite>
            <feColorMatrix values="0 0 0 0 0   0 0 0 0 0   0 0 0 0 0  0 0 0 0.5 0" type="matrix" in="shadowBlurOuter1"></feColorMatrix>
        </filter>
    </defs>
    <g id="Page-1" stroke="none" stroke-width="1" fill="none" fill-rule="evenodd">
        <g id="Bradcrumb-Usage-extra-large-1200" transform="translate(-779.000000, -2033.000000)">
            <g id="Group-5" transform="translate(303.000000, 2006.000000)">
                <g id="Don't-breadcrumbs" transform="translate(480.000000, 29.000000)">
                    <g id="Rectangle-2-Copy">
                        <use fill="black" fill-opacity="1" filter="url(#filter-2)" xlink:href="#path-1"></use>
                        <use fill="#FFFFFF" fill-rule="evenodd" xlink:href="#path-1"></use>
                        <rect stroke="#FFFFFF" stroke-width="1" x="0.5" y="0.5" width="329" height="251"></rect>
                    </g>
                    <g id="Breadcrumbs" transform="translate(18.000000, 15.000000)">
                        <path d="M0.992,1.704 L2.432,1.704 L2.432,6.584 L7.952,6.584 L7.952,1.704 L9.392,1.704 L9.392,13 L7.952,13 L7.952,7.784 L2.432,7.784 L2.432,13 L0.992,13 L0.992,1.704 Z M14.8,13.24 C14.2026637,13.24 13.6773356,13.1306678 13.224,12.912 C12.7706644,12.6933322 12.3920015,12.3946686 12.088,12.016 C11.7839985,11.6373314 11.5573341,11.1946692 11.408,10.688 C11.2586659,10.1813308 11.184,9.6346696 11.184,9.048 C11.184,8.4613304 11.2613326,7.91733584 11.416,7.416 C11.5706674,6.91466416 11.7999985,6.4773352 12.104,6.104 C12.4080015,5.7306648 12.7866644,5.4373344 13.24,5.224 C13.6933356,5.0106656 14.2133304,4.904 14.8,4.904 C15.3866696,4.904 15.9066644,5.0106656 16.36,5.224 C16.8133356,5.4373344 17.1946651,5.72799816 17.504,6.096 C17.8133349,6.46400184 18.0453326,6.9013308 18.2,7.408 C18.3546674,7.9146692 18.432,8.4613304 18.432,9.048 C18.432,9.6346696 18.3546674,10.1813308 18.2,10.688 C18.0453326,11.1946692 17.8133349,11.6373314 17.504,12.016 C17.1946651,12.3946686 16.8133356,12.6933322 16.36,12.912 C15.9066644,13.1306678 15.3866696,13.24 14.8,13.24 Z M14.832,12.2 C15.1946685,12.2 15.5146653,12.1200008 15.792,11.96 C16.0693347,11.7999992 16.2986658,11.5786681 16.48,11.296 C16.6613342,11.0133319 16.7999995,10.6800019 16.896,10.296 C16.9920005,9.91199808 17.04,9.49600224 17.04,9.048 C17.04,8.59999776 16.9920005,8.18666856 16.896,7.808 C16.7999995,7.42933144 16.656001,7.10133472 16.464,6.824 C16.271999,6.54666528 16.0373347,6.33066744 15.76,6.176 C15.4826653,6.02133256 15.1626685,5.944 14.8,5.944 C14.4266648,5.944 14.1013347,6.02133256 13.824,6.176 C13.5466653,6.33066744 13.3173342,6.54666528 13.136,6.824 C12.9546658,7.10133472 12.8160005,7.42933144 12.72,7.808 C12.6239995,8.18666856 12.576,8.59999776 12.576,9.048 C12.576,9.49600224 12.6239995,9.91199808 12.72,10.296 C12.8160005,10.6800019 12.9573324,11.0133319 13.144,11.296 C13.3306676,11.5786681 13.5653319,11.7999992 13.848,11.96 C14.1306681,12.1200008 14.4586648,12.2 14.832,12.2 Z M20.128,5.128 L21.28,5.128 L21.424,6.664 C21.616001,6.11999728 21.9146646,5.69066824 22.32,5.376 C22.7253354,5.06133176 23.2213304,4.904 23.808,4.904 C24.4266698,4.904 24.9119982,5.07999824 25.264,5.432 C25.6160018,5.78400176 25.8399995,6.21066416 25.936,6.712 C26.0320005,6.46666544 26.1519993,6.23466776 26.296,6.016 C26.4400007,5.79733224 26.6133323,5.60533416 26.816,5.44 C27.0186677,5.27466584 27.253332,5.14400048 27.52,5.048 C27.786668,4.95199952 28.090665,4.904 28.432,4.904 C28.8800022,4.904 29.2506652,4.98133256 29.544,5.136 C29.8373348,5.29066744 30.0719991,5.501332 30.248,5.768 C30.4240009,6.034668 30.549333,6.34666488 30.624,6.704 C30.698667,7.06133512 30.736,7.43733136 30.736,7.832 L30.736,13 L29.408,13 L29.408,8.168 C29.408,7.46399648 29.2826679,6.9386684 29.032,6.592 C28.7813321,6.2453316 28.4160024,6.072 27.936,6.072 C27.4133307,6.072 26.9760018,6.30399768 26.624,6.768 C26.2719982,7.23200232 26.096,7.89599568 26.096,8.76 L26.096,13 L24.768,13 L24.768,8.232 C24.768,7.49599632 24.6400013,6.95200176 24.384,6.6 C24.1279987,6.24799824 23.770669,6.072 23.312,6.072 C22.7999974,6.072 22.3626685,6.30933096 22,6.784 C21.6373315,7.25866904 21.456,7.94399552 21.456,8.84 L21.456,13 L20.128,13 L20.128,5.128 Z M33.76,9.368 C33.8133336,10.2746712 34.0453313,10.9759975 34.456,11.472 C34.8666687,11.9680025 35.4399963,12.216 36.176,12.216 C37.1040046,12.216 37.8026643,11.778671 38.272,10.904 L39.28,11.464 C38.9706651,11.9866693 38.5600026,12.4133317 38.048,12.744 C37.5359974,13.0746683 36.8906706,13.24 36.112,13.24 C35.4933302,13.24 34.9520023,13.1333344 34.488,12.92 C34.0239977,12.7066656 33.6373349,12.4133352 33.328,12.04 C33.0186651,11.6666648 32.7866674,11.2293358 32.632,10.728 C32.4773326,10.2266642 32.4,9.68800288 32.4,9.112 C32.4,8.54666384 32.4746659,8.00800256 32.624,7.496 C32.7733341,6.98399744 32.9999985,6.53600192 33.304,6.152 C33.6080015,5.76799808 33.9813311,5.46400112 34.424,5.24 C34.8666689,5.01599888 35.3866637,4.904 35.984,4.904 C36.5600029,4.904 37.0613312,5.01333224 37.488,5.232 C37.9146688,5.45066776 38.2693319,5.74399816 38.552,6.112 C38.8346681,6.48000184 39.0479993,6.90666424 39.192,7.392 C39.3360007,7.87733576 39.408,8.39199728 39.408,8.936 C39.408,9.05333392 39.4053334,9.14399968 39.4,9.208 C39.3946666,9.27200032 39.392,9.32533312 39.392,9.368 L33.76,9.368 Z M35.968,5.912 C35.2959966,5.912 34.7760018,6.1519976 34.408,6.632 C34.0399982,7.1120024 33.8293336,7.75732928 33.776,8.568 L38.048,8.568 C38.048,8.23733168 38.010667,7.91466824 37.936,7.6 C37.861333,7.28533176 37.7386675,7.00266792 37.568,6.752 C37.3973325,6.50133208 37.1813346,6.29866744 36.92,6.144 C36.6586654,5.98933256 36.3413352,5.912 35.968,5.912 Z" id="Home" fill="#0D78AA"></path>
                        <path d="M64.12,1.704 L67.912,1.704 C68.4773362,1.704 68.9999976,1.76799936 69.48,1.896 C69.9600024,2.02400064 70.3733316,2.221332 70.72,2.488 C71.0666684,2.754668 71.3386657,3.09333128 71.536,3.504 C71.7333343,3.91466872 71.832,4.40799712 71.832,4.984 C71.832,5.6240032 71.7333343,6.16799776 71.536,6.616 C71.3386657,7.06400224 71.0640018,7.42666528 70.712,7.704 C70.3599982,7.98133472 69.946669,8.18133272 69.472,8.304 C68.997331,8.42666728 68.4826694,8.488 67.928,8.488 L65.56,8.488 L65.56,13 L64.12,13 L64.12,1.704 Z M67.688,7.336 C68.5200042,7.336 69.165331,7.15733512 69.624,6.8 C70.082669,6.44266488 70.312,5.8373376 70.312,4.984 C70.312,4.58933136 70.245334,4.25333472 70.112,3.976 C69.978666,3.69866528 69.7973345,3.47466752 69.568,3.304 C69.3386655,3.13333248 69.0666682,3.01066704 68.752,2.936 C68.4373318,2.86133296 68.0986685,2.824 67.736,2.824 L65.56,2.824 L65.56,7.336 L67.688,7.336 Z M73.416,5.128 L74.568,5.128 L74.696,6.888 C74.9200011,6.31199712 75.2773309,5.8373352 75.768,5.464 C76.2586691,5.0906648 76.8399966,4.904 77.512,4.904 L77.512,6.312 C77.3626659,6.27999984 77.1973342,6.264 77.016,6.264 C76.749332,6.264 76.482668,6.31199952 76.216,6.408 C75.949332,6.50400048 75.7066678,6.6586656 75.488,6.872 C75.2693322,7.0853344 75.0906674,7.35999832 74.952,7.696 C74.8133326,8.03200168 74.744,8.4399976 74.744,8.92 L74.744,13 L73.416,13 L73.416,5.128 Z M82.088,13.24 C81.4906637,13.24 80.9653356,13.1306678 80.512,12.912 C80.0586644,12.6933322 79.6800015,12.3946686 79.376,12.016 C79.0719985,11.6373314 78.8453341,11.1946692 78.696,10.688 C78.5466659,10.1813308 78.472,9.6346696 78.472,9.048 C78.472,8.4613304 78.5493326,7.91733584 78.704,7.416 C78.8586674,6.91466416 79.0879985,6.4773352 79.392,6.104 C79.6960015,5.7306648 80.0746644,5.4373344 80.528,5.224 C80.9813356,5.0106656 81.5013304,4.904 82.088,4.904 C82.6746696,4.904 83.1946644,5.0106656 83.648,5.224 C84.1013356,5.4373344 84.4826651,5.72799816 84.792,6.096 C85.1013349,6.46400184 85.3333326,6.9013308 85.488,7.408 C85.6426674,7.9146692 85.72,8.4613304 85.72,9.048 C85.72,9.6346696 85.6426674,10.1813308 85.488,10.688 C85.3333326,11.1946692 85.1013349,11.6373314 84.792,12.016 C84.4826651,12.3946686 84.1013356,12.6933322 83.648,12.912 C83.1946644,13.1306678 82.6746696,13.24 82.088,13.24 Z M82.12,12.2 C82.4826685,12.2 82.8026653,12.1200008 83.08,11.96 C83.3573347,11.7999992 83.5866658,11.5786681 83.768,11.296 C83.9493342,11.0133319 84.0879995,10.6800019 84.184,10.296 C84.2800005,9.91199808 84.328,9.49600224 84.328,9.048 C84.328,8.59999776 84.2800005,8.18666856 84.184,7.808 C84.0879995,7.42933144 83.944001,7.10133472 83.752,6.824 C83.559999,6.54666528 83.3253347,6.33066744 83.048,6.176 C82.7706653,6.02133256 82.4506685,5.944 82.088,5.944 C81.7146648,5.944 81.3893347,6.02133256 81.112,6.176 C80.8346653,6.33066744 80.6053342,6.54666528 80.424,6.824 C80.2426658,7.10133472 80.1040005,7.42933144 80.008,7.808 C79.9119995,8.18666856 79.864,8.59999776 79.864,9.048 C79.864,9.49600224 79.9119995,9.91199808 80.008,10.296 C80.1040005,10.6800019 80.2453324,11.0133319 80.432,11.296 C80.6186676,11.5786681 80.8533319,11.7999992 81.136,11.96 C81.4186681,12.1200008 81.7466648,12.2 82.12,12.2 Z M86.024,14.728 C86.098667,14.7493334 86.2079993,14.7733332 86.352,14.8 C86.4960007,14.8266668 86.6266661,14.84 86.744,14.84 C87.0533349,14.84 87.2559995,14.7493342 87.352,14.568 C87.4480005,14.3866658 87.496,14.1306683 87.496,13.8 L87.496,5.128 L88.84,5.128 L88.84,13.896 C88.84,14.2053349 88.810667,14.4826654 88.752,14.728 C88.693333,14.9733346 88.5946674,15.1786658 88.456,15.344 C88.3173326,15.5093342 88.1280012,15.6373329 87.888,15.728 C87.6479988,15.8186671 87.3520018,15.864 87,15.864 C86.7866656,15.864 86.584001,15.8480002 86.392,15.816 C86.199999,15.7839998 86.0346674,15.7360003 85.896,15.672 L86.024,14.728 Z M87.496,2.088 L88.84,2.088 L88.84,3.416 L87.496,3.416 L87.496,2.088 Z M91.896,9.368 C91.9493336,10.2746712 92.1813313,10.9759975 92.592,11.472 C93.0026687,11.9680025 93.5759963,12.216 94.312,12.216 C95.2400046,12.216 95.9386643,11.778671 96.408,10.904 L97.416,11.464 C97.1066651,11.9866693 96.6960026,12.4133317 96.184,12.744 C95.6719974,13.0746683 95.0266706,13.24 94.248,13.24 C93.6293302,13.24 93.0880023,13.1333344 92.624,12.92 C92.1599977,12.7066656 91.7733349,12.4133352 91.464,12.04 C91.1546651,11.6666648 90.9226674,11.2293358 90.768,10.728 C90.6133326,10.2266642 90.536,9.68800288 90.536,9.112 C90.536,8.54666384 90.6106659,8.00800256 90.76,7.496 C90.9093341,6.98399744 91.1359985,6.53600192 91.44,6.152 C91.7440015,5.76799808 92.1173311,5.46400112 92.56,5.24 C93.0026689,5.01599888 93.5226637,4.904 94.12,4.904 C94.6960029,4.904 95.1973312,5.01333224 95.624,5.232 C96.0506688,5.45066776 96.4053319,5.74399816 96.688,6.112 C96.9706681,6.48000184 97.1839993,6.90666424 97.328,7.392 C97.4720007,7.87733576 97.544,8.39199728 97.544,8.936 C97.544,9.05333392 97.5413334,9.14399968 97.536,9.208 C97.5306666,9.27200032 97.528,9.32533312 97.528,9.368 L91.896,9.368 Z M94.104,5.912 C93.4319966,5.912 92.9120018,6.1519976 92.544,6.632 C92.1759982,7.1120024 91.9653336,7.75732928 91.912,8.568 L96.184,8.568 C96.184,8.23733168 96.146667,7.91466824 96.072,7.6 C95.997333,7.28533176 95.8746675,7.00266792 95.704,6.752 C95.5333325,6.50133208 95.3173346,6.29866744 95.056,6.144 C94.7946654,5.98933256 94.4773352,5.912 94.104,5.912 Z M105.736,11.272 C105.415998,11.9120032 104.986669,12.3999983 104.448,12.736 C103.909331,13.0720017 103.256004,13.24 102.488,13.24 C101.858664,13.24 101.312002,13.1306678 100.848,12.912 C100.383998,12.6933322 100.000002,12.3973352 99.696,12.024 C99.3919985,11.6506648 99.1680007,11.2106692 99.024,10.704 C98.8799993,10.1973308 98.808,9.65600288 98.808,9.08 C98.808,8.4933304 98.8853326,7.9466692 99.04,7.44 C99.1946674,6.9333308 99.4239985,6.4933352 99.728,6.12 C100.032002,5.7466648 100.413331,5.45066776 100.872,5.232 C101.330669,5.01333224 101.86933,4.904 102.488,4.904 C103.266671,4.904 103.914664,5.0773316 104.432,5.424 C104.949336,5.7706684 105.367998,6.25866352 105.688,6.888 L104.568,7.416 C104.162665,6.43466176 103.480005,5.944 102.52,5.944 C102.114665,5.944 101.765335,6.0239992 101.472,6.184 C101.178665,6.3440008 100.938668,6.56266528 100.752,6.84 C100.565332,7.11733472 100.426667,7.43999816 100.336,7.808 C100.245333,8.17600184 100.2,8.5733312 100.2,9 C100.2,9.40533536 100.242666,9.79999808 100.328,10.184 C100.413334,10.5680019 100.551999,10.9093318 100.744,11.208 C100.936001,11.5066682 101.181332,11.7466658 101.48,11.928 C101.778668,12.1093342 102.146664,12.2 102.584,12.2 C103.138669,12.2 103.586665,12.0586681 103.928,11.776 C104.269335,11.4933319 104.530666,11.1280022 104.712,10.68 L105.736,11.272 Z M107.896,6.04 L106.552,6.04 L106.552,5.128 L106.84,5.128 C107.170668,5.128 107.429332,5.09333368 107.616,5.024 C107.802668,4.95466632 107.944,4.84800072 108.04,4.704 C108.136,4.55999928 108.205333,4.37066784 108.248,4.136 C108.290667,3.90133216 108.328,3.61333504 108.36,3.272 L108.392,2.984 L109.224,2.984 L109.224,5.128 L110.92,5.128 L110.92,6.04 L109.224,6.04 L109.224,10.936 C109.224,11.3840022 109.290666,11.7066657 109.424,11.904 C109.557334,12.1013343 109.805332,12.2 110.168,12.2 C110.456001,12.2 110.722665,12.1360006 110.968,12.008 L111.112,12.968 C110.706665,13.1493342 110.258669,13.24 109.768,13.24 C109.383998,13.24 109.072001,13.1866672 108.832,13.08 C108.591999,12.9733328 108.402667,12.8293342 108.264,12.648 C108.125333,12.4666658 108.029334,12.2480013 107.976,11.992 C107.922666,11.7359987 107.896,11.4586682 107.896,11.16 L107.896,6.04 Z M112.664,11.064 C112.930668,11.405335 113.274665,11.6879989 113.696,11.912 C114.117335,12.1360011 114.578664,12.248 115.08,12.248 C115.528002,12.248 115.917332,12.1413344 116.248,11.928 C116.578668,11.7146656 116.744,11.3946688 116.744,10.968 C116.744,10.6373317 116.634668,10.3786676 116.416,10.192 C116.197332,10.0053324 115.925335,9.84800064 115.6,9.72 C115.274665,9.59199936 114.920002,9.4746672 114.536,9.368 C114.151998,9.2613328 113.797335,9.12266752 113.472,8.952 C113.146665,8.78133248 112.874668,8.55733472 112.656,8.28 C112.437332,8.00266528 112.328,7.6240024 112.328,7.144 C112.328,6.74933136 112.407999,6.41066808 112.568,6.128 C112.728001,5.84533192 112.938665,5.61333424 113.2,5.432 C113.461335,5.25066576 113.762665,5.11733376 114.104,5.032 C114.445335,4.94666624 114.802665,4.904 115.176,4.904 C116.285339,4.904 117.207996,5.2239968 117.944,5.864 L117.272,6.76 C117.037332,6.51466544 116.725335,6.30933416 116.336,6.144 C115.946665,5.97866584 115.544002,5.896 115.128,5.896 C114.946666,5.896 114.768001,5.91733312 114.592,5.96 C114.415999,6.00266688 114.261334,6.06933288 114.128,6.16 C113.994666,6.25066712 113.888,6.36533264 113.808,6.504 C113.728,6.64266736 113.688,6.81333232 113.688,7.016 C113.688,7.32533488 113.797332,7.56533248 114.016,7.736 C114.234668,7.90666752 114.506665,8.05333272 114.832,8.176 C115.157335,8.29866728 115.509331,8.41599944 115.888,8.528 C116.266669,8.64000056 116.618665,8.78399912 116.944,8.96 C117.269335,9.13600088 117.541332,9.36799856 117.76,9.656 C117.978668,9.94400144 118.088,10.3279976 118.088,10.808 C118.088,11.2133354 118.005334,11.5679985 117.84,11.872 C117.674666,12.1760015 117.456001,12.4293323 117.184,12.632 C116.911999,12.8346677 116.597335,12.9866662 116.24,13.088 C115.882665,13.1893338 115.512002,13.24 115.128,13.24 C113.805327,13.24 112.754671,12.8133376 111.976,11.96 L112.664,11.064 Z" id="Projects" fill="#0D78AA"></path>
                        <path d="M146.416,1.704 L147.744,1.704 L151.728,13 L150.224,13 L149.216,9.96 L144.864,9.96 L143.856,13 L142.4,13 L146.416,1.704 Z M148.832,8.856 C148.533332,7.92799536 148.237335,7.01867112 147.944,6.128 C147.650665,5.23732888 147.354668,4.30133824 147.056,3.32 C146.778665,4.2800048 146.485335,5.21066216 146.176,6.112 C145.866665,7.01333784 145.557335,7.92799536 145.248,8.856 L148.832,8.856 Z M153.152,5.128 L154.304,5.128 L154.432,6.888 C154.656001,6.31199712 155.013331,5.8373352 155.504,5.464 C155.994669,5.0906648 156.575997,4.904 157.248,4.904 L157.248,6.312 C157.098666,6.27999984 156.933334,6.264 156.752,6.264 C156.485332,6.264 156.218668,6.31199952 155.952,6.408 C155.685332,6.50400048 155.442668,6.6586656 155.224,6.872 C155.005332,7.0853344 154.826667,7.35999832 154.688,7.696 C154.549333,8.03200168 154.48,8.4399976 154.48,8.92 L154.48,13 L153.152,13 L153.152,5.128 Z M158.56,2.072 L159.888,2.072 L159.888,3.4 L158.56,3.4 L158.56,2.072 Z M158.56,5.128 L159.888,5.128 L159.888,13 L158.56,13 L158.56,5.128 Z M161.456,12.04 L165.968,6.152 L161.696,6.152 L161.696,5.128 L167.552,5.128 L167.552,6.104 L162.992,11.992 L167.76,11.992 L167.76,13 L161.456,13 L161.456,12.04 Z M172.592,13.24 C171.994664,13.24 171.469336,13.1306678 171.016,12.912 C170.562664,12.6933322 170.184002,12.3946686 169.88,12.016 C169.575998,11.6373314 169.349334,11.1946692 169.2,10.688 C169.050666,10.1813308 168.976,9.6346696 168.976,9.048 C168.976,8.4613304 169.053333,7.91733584 169.208,7.416 C169.362667,6.91466416 169.591998,6.4773352 169.896,6.104 C170.200002,5.7306648 170.578664,5.4373344 171.032,5.224 C171.485336,5.0106656 172.00533,4.904 172.592,4.904 C173.17867,4.904 173.698664,5.0106656 174.152,5.224 C174.605336,5.4373344 174.986665,5.72799816 175.296,6.096 C175.605335,6.46400184 175.837333,6.9013308 175.992,7.408 C176.146667,7.9146692 176.224,8.4613304 176.224,9.048 C176.224,9.6346696 176.146667,10.1813308 175.992,10.688 C175.837333,11.1946692 175.605335,11.6373314 175.296,12.016 C174.986665,12.3946686 174.605336,12.6933322 174.152,12.912 C173.698664,13.1306678 173.17867,13.24 172.592,13.24 Z M172.624,12.2 C172.986668,12.2 173.306665,12.1200008 173.584,11.96 C173.861335,11.7999992 174.090666,11.5786681 174.272,11.296 C174.453334,11.0133319 174.592,10.6800019 174.688,10.296 C174.784,9.91199808 174.832,9.49600224 174.832,9.048 C174.832,8.59999776 174.784,8.18666856 174.688,7.808 C174.592,7.42933144 174.448001,7.10133472 174.256,6.824 C174.063999,6.54666528 173.829335,6.33066744 173.552,6.176 C173.274665,6.02133256 172.954668,5.944 172.592,5.944 C172.218665,5.944 171.893335,6.02133256 171.616,6.176 C171.338665,6.33066744 171.109334,6.54666528 170.928,6.824 C170.746666,7.10133472 170.608,7.42933144 170.512,7.808 C170.416,8.18666856 170.368,8.59999776 170.368,9.048 C170.368,9.49600224 170.416,9.91199808 170.512,10.296 C170.608,10.6800019 170.749332,11.0133319 170.936,11.296 C171.122668,11.5786681 171.357332,11.7999992 171.64,11.96 C171.922668,12.1200008 172.250665,12.2 172.624,12.2 Z M177.92,5.128 L179.072,5.128 L179.216,6.696 C179.418668,6.2159976 179.741331,5.79733512 180.184,5.44 C180.626669,5.08266488 181.17333,4.904 181.824,4.904 C182.645337,4.904 183.250665,5.16533072 183.64,5.688 C184.029335,6.21066928 184.224,6.94132864 184.224,7.88 L184.224,13 L182.896,13 L182.896,8.152 C182.896,7.43732976 182.752001,6.91200168 182.464,6.576 C182.175999,6.23999832 181.786669,6.072 181.296,6.072 C180.70933,6.072 180.221335,6.3119976 179.832,6.792 C179.442665,7.2720024 179.248,7.94932896 179.248,8.824 L179.248,13 L177.92,13 L177.92,5.128 Z M191.184,13 C191.066666,12.6159981 190.997333,12.157336 190.976,11.624 C190.762666,12.1146691 190.434669,12.5066652 189.992,12.8 C189.549331,13.0933348 189.024003,13.24 188.416,13.24 C187.647996,13.24 187.040002,13.0213355 186.592,12.584 C186.143998,12.1466645 185.92,11.5600037 185.92,10.824 C185.92,10.4079979 185.994666,10.0586681 186.144,9.776 C186.293334,9.49333192 186.501332,9.2586676 186.768,9.072 C187.034668,8.8853324 187.349332,8.7386672 187.712,8.632 C188.074668,8.5253328 188.469331,8.44000032 188.896,8.376 L190.912,8.072 L190.912,7.576 C190.912,7.22399824 190.869334,6.9413344 190.784,6.728 C190.698666,6.5146656 190.581334,6.34933392 190.432,6.232 C190.282666,6.11466608 190.112001,6.03733352 189.92,6 C189.727999,5.96266648 189.525334,5.944 189.312,5.944 C188.703997,5.944 188.202669,6.05599888 187.808,6.28 C187.413331,6.50400112 187.082668,6.78666496 186.816,7.128 L186.128,6.264 C186.437335,5.8906648 186.866664,5.570668 187.416,5.304 C187.965336,5.037332 188.645329,4.904 189.456,4.904 C190.437338,4.904 191.149331,5.12266448 191.592,5.56 C192.034669,5.99733552 192.256,6.70132848 192.256,7.672 L192.256,10.856 C192.256,11.1120013 192.258667,11.335999 192.264,11.528 C192.269333,11.720001 192.28,11.8986658 192.296,12.064 C192.312,12.2293342 192.336,12.3866659 192.368,12.536 C192.4,12.6853341 192.442666,12.8399992 192.496,13 L191.184,13 Z M190.912,8.952 L189.024,9.256 C188.37333,9.37333392 187.912001,9.54933216 187.64,9.784 C187.367999,10.0186678 187.232,10.3439979 187.232,10.76 C187.232,11.1866688 187.357332,11.5439986 187.608,11.832 C187.858668,12.1200014 188.229331,12.264 188.72,12.264 C189.018668,12.264 189.301332,12.2053339 189.568,12.088 C189.834668,11.9706661 190.066666,11.808001 190.264,11.6 C190.461334,11.391999 190.618666,11.1413348 190.736,10.848 C190.853334,10.5546652 190.912,10.2320018 190.912,9.88 L190.912,8.952 Z" id="Arizona" fill="#4C5358"></path>
                        <path d="M54.1975446,4.8046875 C54.2645093,4.87165212 54.2979911,4.94866028 54.2979911,5.03571429 C54.2979911,5.12276829 54.2645093,5.19977645 54.1975446,5.26674107 L50.25,9.21428571 L54.1975446,13.1618304 C54.2645093,13.228795 54.2979911,13.3058031 54.2979911,13.3928571 C54.2979911,13.4799111 54.2645093,13.5569193 54.1975446,13.6238839 L53.6953125,14.1261161 C53.6283479,14.1930807 53.5513397,14.2265625 53.4642857,14.2265625 C53.3772317,14.2265625 53.3002235,14.1930807 53.2332589,14.1261161 L48.5524554,9.4453125 C48.4854907,9.37834788 48.4520089,9.30133972 48.4520089,9.21428571 C48.4520089,9.12723171 48.4854907,9.05022355 48.5524554,8.98325893 L53.2332589,4.30245536 C53.3002235,4.23549074 53.3772317,4.20200893 53.4642857,4.20200893 C53.5513397,4.20200893 53.6283479,4.23549074 53.6953125,4.30245536 L54.1975446,4.8046875 Z" id="" fill="#AAB1B6" transform="translate(51.375000, 9.214286) rotate(180.000000) translate(-51.375000, -9.214286) "></path>
                        <path d="M133.197545,4.8046875 C133.264509,4.87165212 133.297991,4.94866028 133.297991,5.03571429 C133.297991,5.12276829 133.264509,5.19977645 133.197545,5.26674107 L129.25,9.21428571 L133.197545,13.1618304 C133.264509,13.228795 133.297991,13.3058031 133.297991,13.3928571 C133.297991,13.4799111 133.264509,13.5569193 133.197545,13.6238839 L132.695312,14.1261161 C132.628348,14.1930807 132.55134,14.2265625 132.464286,14.2265625 C132.377232,14.2265625 132.300224,14.1930807 132.233259,14.1261161 L127.552455,9.4453125 C127.485491,9.37834788 127.452009,9.30133972 127.452009,9.21428571 C127.452009,9.12723171 127.485491,9.05022355 127.552455,8.98325893 L132.233259,4.30245536 C132.300224,4.23549074 132.377232,4.20200893 132.464286,4.20200893 C132.55134,4.20200893 132.628348,4.23549074 132.695312,4.30245536 L133.197545,4.8046875 Z" id="-copy" fill="#AAB1B6" transform="translate(130.375000, 9.214286) rotate(180.000000) translate(-130.375000, -9.214286) "></path>
                    </g>
                </g>
            </g>
        </g>
    </g>
</svg>