<?xml version="1.0" encoding="UTF-8"?>
<svg width="208px" height="15px" viewBox="0 0 208 15" version="1.1" xmlns="http://www.w3.org/2000/svg" xmlns:xlink="http://www.w3.org/1999/xlink">
    <!-- Generator: Sketch 47 (45396) - http://www.bohemiancoding.com/sketch -->
    <title>Breadcrumbs 3</title>
    <desc>Created with Sketch.</desc>
    <defs></defs>
    <g id="Page-1" stroke="none" stroke-width="1" fill="none" fill-rule="evenodd">
        <g id="Bradcrumb-Usage-extra-large-1200" transform="translate(-406.000000, -1823.000000)">
            <g id="Group-4" transform="translate(305.000000, 1782.000000)">
                <g id="Breadcrumbs-3" transform="translate(101.000000, 40.000000)">
                    <path d="M0.992,1.704 L2.432,1.704 L2.432,6.584 L7.952,6.584 L7.952,1.704 L9.392,1.704 L9.392,13 L7.952,13 L7.952,7.784 L2.432,7.784 L2.432,13 L0.992,13 L0.992,1.704 Z M14.8,13.24 C14.2026637,13.24 13.6773356,13.1306678 13.224,12.912 C12.7706644,12.6933322 12.3920015,12.3946686 12.088,12.016 C11.7839985,11.6373314 11.5573341,11.1946692 11.408,10.688 C11.2586659,10.1813308 11.184,9.6346696 11.184,9.048 C11.184,8.4613304 11.2613326,7.91733584 11.416,7.416 C11.5706674,6.91466416 11.7999985,6.4773352 12.104,6.104 C12.4080015,5.7306648 12.7866644,5.4373344 13.24,5.224 C13.6933356,5.0106656 14.2133304,4.904 14.8,4.904 C15.3866696,4.904 15.9066644,5.0106656 16.36,5.224 C16.8133356,5.4373344 17.1946651,5.72799816 17.504,6.096 C17.8133349,6.46400184 18.0453326,6.9013308 18.2,7.408 C18.3546674,7.9146692 18.432,8.4613304 18.432,9.048 C18.432,9.6346696 18.3546674,10.1813308 18.2,10.688 C18.0453326,11.1946692 17.8133349,11.6373314 17.504,12.016 C17.1946651,12.3946686 16.8133356,12.6933322 16.36,12.912 C15.9066644,13.1306678 15.3866696,13.24 14.8,13.24 Z M14.832,12.2 C15.1946685,12.2 15.5146653,12.1200008 15.792,11.96 C16.0693347,11.7999992 16.2986658,11.5786681 16.48,11.296 C16.6613342,11.0133319 16.7999995,10.6800019 16.896,10.296 C16.9920005,9.91199808 17.04,9.49600224 17.04,9.048 C17.04,8.59999776 16.9920005,8.18666856 16.896,7.808 C16.7999995,7.42933144 16.656001,7.10133472 16.464,6.824 C16.271999,6.54666528 16.0373347,6.33066744 15.76,6.176 C15.4826653,6.02133256 15.1626685,5.944 14.8,5.944 C14.4266648,5.944 14.1013347,6.02133256 13.824,6.176 C13.5466653,6.33066744 13.3173342,6.54666528 13.136,6.824 C12.9546658,7.10133472 12.8160005,7.42933144 12.72,7.808 C12.6239995,8.18666856 12.576,8.59999776 12.576,9.048 C12.576,9.49600224 12.6239995,9.91199808 12.72,10.296 C12.8160005,10.6800019 12.9573324,11.0133319 13.144,11.296 C13.3306676,11.5786681 13.5653319,11.7999992 13.848,11.96 C14.1306681,12.1200008 14.4586648,12.2 14.832,12.2 Z M20.128,5.128 L21.28,5.128 L21.424,6.664 C21.616001,6.11999728 21.9146646,5.69066824 22.32,5.376 C22.7253354,5.06133176 23.2213304,4.904 23.808,4.904 C24.4266698,4.904 24.9119982,5.07999824 25.264,5.432 C25.6160018,5.78400176 25.8399995,6.21066416 25.936,6.712 C26.0320005,6.46666544 26.1519993,6.23466776 26.296,6.016 C26.4400007,5.79733224 26.6133323,5.60533416 26.816,5.44 C27.0186677,5.27466584 27.253332,5.14400048 27.52,5.048 C27.786668,4.95199952 28.090665,4.904 28.432,4.904 C28.8800022,4.904 29.2506652,4.98133256 29.544,5.136 C29.8373348,5.29066744 30.0719991,5.501332 30.248,5.768 C30.4240009,6.034668 30.549333,6.34666488 30.624,6.704 C30.698667,7.06133512 30.736,7.43733136 30.736,7.832 L30.736,13 L29.408,13 L29.408,8.168 C29.408,7.46399648 29.2826679,6.9386684 29.032,6.592 C28.7813321,6.2453316 28.4160024,6.072 27.936,6.072 C27.4133307,6.072 26.9760018,6.30399768 26.624,6.768 C26.2719982,7.23200232 26.096,7.89599568 26.096,8.76 L26.096,13 L24.768,13 L24.768,8.232 C24.768,7.49599632 24.6400013,6.95200176 24.384,6.6 C24.1279987,6.24799824 23.770669,6.072 23.312,6.072 C22.7999974,6.072 22.3626685,6.30933096 22,6.784 C21.6373315,7.25866904 21.456,7.94399552 21.456,8.84 L21.456,13 L20.128,13 L20.128,5.128 Z M33.76,9.368 C33.8133336,10.2746712 34.0453313,10.9759975 34.456,11.472 C34.8666687,11.9680025 35.4399963,12.216 36.176,12.216 C37.1040046,12.216 37.8026643,11.778671 38.272,10.904 L39.28,11.464 C38.9706651,11.9866693 38.5600026,12.4133317 38.048,12.744 C37.5359974,13.0746683 36.8906706,13.24 36.112,13.24 C35.4933302,13.24 34.9520023,13.1333344 34.488,12.92 C34.0239977,12.7066656 33.6373349,12.4133352 33.328,12.04 C33.0186651,11.6666648 32.7866674,11.2293358 32.632,10.728 C32.4773326,10.2266642 32.4,9.68800288 32.4,9.112 C32.4,8.54666384 32.4746659,8.00800256 32.624,7.496 C32.7733341,6.98399744 32.9999985,6.53600192 33.304,6.152 C33.6080015,5.76799808 33.9813311,5.46400112 34.424,5.24 C34.8666689,5.01599888 35.3866637,4.904 35.984,4.904 C36.5600029,4.904 37.0613312,5.01333224 37.488,5.232 C37.9146688,5.45066776 38.2693319,5.74399816 38.552,6.112 C38.8346681,6.48000184 39.0479993,6.90666424 39.192,7.392 C39.3360007,7.87733576 39.408,8.39199728 39.408,8.936 C39.408,9.05333392 39.4053334,9.14399968 39.4,9.208 C39.3946666,9.27200032 39.392,9.32533312 39.392,9.368 L33.76,9.368 Z M35.968,5.912 C35.2959966,5.912 34.7760018,6.1519976 34.408,6.632 C34.0399982,7.1120024 33.8293336,7.75732928 33.776,8.568 L38.048,8.568 C38.048,8.23733168 38.010667,7.91466824 37.936,7.6 C37.861333,7.28533176 37.7386675,7.00266792 37.568,6.752 C37.3973325,6.50133208 37.1813346,6.29866744 36.92,6.144 C36.6586654,5.98933256 36.3413352,5.912 35.968,5.912 Z" id="Home" fill="#0D78AA"></path>
                    <path d="M64.536,10.392 C64.8666683,10.8826691 65.3146638,11.2799985 65.88,11.584 C66.4453362,11.8880015 67.1119962,12.04 67.88,12.04 C68.2426685,12.04 68.5813318,11.9920005 68.896,11.896 C69.2106682,11.7999995 69.4826655,11.6613342 69.712,11.48 C69.9413345,11.2986658 70.1199994,11.0773346 70.248,10.816 C70.3760006,10.5546654 70.44,10.2640016 70.44,9.944 C70.44,9.61333168 70.3626674,9.33600112 70.208,9.112 C70.0533326,8.88799888 69.842668,8.69866744 69.576,8.544 C69.309332,8.38933256 68.9920018,8.25333392 68.624,8.136 C68.2559982,8.01866608 67.8586688,7.90133392 67.432,7.784 C66.9519976,7.64533264 66.5066687,7.49066752 66.096,7.32 C65.6853313,7.14933248 65.3306682,6.93866792 65.032,6.688 C64.7333318,6.43733208 64.4986675,6.14400168 64.328,5.808 C64.1573325,5.47199832 64.072,5.06933568 64.072,4.6 C64.072,4.1199976 64.1653324,3.68800192 64.352,3.304 C64.5386676,2.91999808 64.802665,2.59200136 65.144,2.32 C65.485335,2.04799864 65.8879977,1.83733408 66.352,1.688 C66.8160023,1.53866592 67.3306638,1.464 67.896,1.464 C68.6746706,1.464 69.3946634,1.59466536 70.056,1.856 C70.7173366,2.11733464 71.2826643,2.50399744 71.752,3.016 L70.776,3.928 C70.434665,3.5546648 70.0160025,3.25066784 69.52,3.016 C69.0239975,2.78133216 68.4773363,2.664 67.88,2.664 C67.1973299,2.664 66.6400022,2.8106652 66.208,3.104 C65.7759978,3.3973348 65.56,3.84266368 65.56,4.44 C65.56,4.73866816 65.626666,4.9946656 65.76,5.208 C65.893334,5.4213344 66.0799988,5.6079992 66.32,5.768 C66.5600012,5.9280008 66.842665,6.06933272 67.168,6.192 C67.493335,6.31466728 67.8533314,6.4293328 68.248,6.536 C68.8346696,6.6960008 69.357331,6.8693324 69.816,7.056 C70.274669,7.2426676 70.6586651,7.46399872 70.968,7.72 C71.2773349,7.97600128 71.5119992,8.27199832 71.672,8.608 C71.8320008,8.94400168 71.912,9.33599776 71.912,9.784 C71.912,10.3280027 71.8053344,10.8159978 71.592,11.248 C71.3786656,11.6800022 71.0880018,12.0426652 70.72,12.336 C70.3519982,12.6293348 69.9200025,12.8533326 69.424,13.008 C68.9279975,13.1626674 68.4026694,13.24 67.848,13.24 C66.8239949,13.24 65.9600035,13.077335 65.256,12.752 C64.5519965,12.426665 63.9866688,11.960003 63.56,11.352 L64.536,10.392 Z M80.152,11.272 C79.8319984,11.9120032 79.4026694,12.3999983 78.864,12.736 C78.3253306,13.0720017 77.6720038,13.24 76.904,13.24 C76.2746635,13.24 75.7280023,13.1306678 75.264,12.912 C74.7999977,12.6933322 74.4160015,12.3973352 74.112,12.024 C73.8079985,11.6506648 73.5840007,11.2106692 73.44,10.704 C73.2959993,10.1973308 73.224,9.65600288 73.224,9.08 C73.224,8.4933304 73.3013326,7.9466692 73.456,7.44 C73.6106674,6.9333308 73.8399985,6.4933352 74.144,6.12 C74.4480015,5.7466648 74.829331,5.45066776 75.288,5.232 C75.746669,5.01333224 76.2853302,4.904 76.904,4.904 C77.6826706,4.904 78.3306641,5.0773316 78.848,5.424 C79.3653359,5.7706684 79.7839984,6.25866352 80.104,6.888 L78.984,7.416 C78.5786646,6.43466176 77.8960048,5.944 76.936,5.944 C76.5306646,5.944 76.1813348,6.0239992 75.888,6.184 C75.5946652,6.3440008 75.3546676,6.56266528 75.168,6.84 C74.9813324,7.11733472 74.8426671,7.43999816 74.752,7.808 C74.6613329,8.17600184 74.616,8.5733312 74.616,9 C74.616,9.40533536 74.6586662,9.79999808 74.744,10.184 C74.8293338,10.5680019 74.967999,10.9093318 75.16,11.208 C75.352001,11.5066682 75.5973318,11.7466658 75.896,11.928 C76.1946682,12.1093342 76.5626645,12.2 77,12.2 C77.5546694,12.2 78.002665,12.0586681 78.344,11.776 C78.685335,11.4933319 78.9466658,11.1280022 79.128,10.68 L80.152,11.272 Z M81.624,1.704 L82.952,1.704 L82.952,6.68 C83.0480005,6.44533216 83.1706659,6.2213344 83.32,6.008 C83.4693341,5.7946656 83.6506656,5.60533416 83.864,5.44 C84.0773344,5.27466584 84.3226653,5.14400048 84.6,5.048 C84.8773347,4.95199952 85.186665,4.904 85.528,4.904 C86.3493374,4.904 86.9546647,5.17333064 87.344,5.712 C87.7333353,6.25066936 87.928,6.97866208 87.928,7.896 L87.928,13 L86.6,13 L86.6,8.104 C86.6,7.43199664 86.4613347,6.92800168 86.184,6.592 C85.9066653,6.25599832 85.5120026,6.088 85,6.088 C84.7013318,6.088 84.4266679,6.15199936 84.176,6.28 C83.9253321,6.40800064 83.7093342,6.58933216 83.528,6.824 C83.3466658,7.05866784 83.2053338,7.34133168 83.104,7.672 C83.0026662,8.00266832 82.952,8.36533136 82.952,8.76 L82.952,13 L81.624,13 L81.624,1.704 Z M93.208,13.24 C92.6106637,13.24 92.0853356,13.1306678 91.632,12.912 C91.1786644,12.6933322 90.8000015,12.3946686 90.496,12.016 C90.1919985,11.6373314 89.9653341,11.1946692 89.816,10.688 C89.6666659,10.1813308 89.592,9.6346696 89.592,9.048 C89.592,8.4613304 89.6693326,7.91733584 89.824,7.416 C89.9786674,6.91466416 90.2079985,6.4773352 90.512,6.104 C90.8160015,5.7306648 91.1946644,5.4373344 91.648,5.224 C92.1013356,5.0106656 92.6213304,4.904 93.208,4.904 C93.7946696,4.904 94.3146644,5.0106656 94.768,5.224 C95.2213356,5.4373344 95.6026651,5.72799816 95.912,6.096 C96.2213349,6.46400184 96.4533326,6.9013308 96.608,7.408 C96.7626674,7.9146692 96.84,8.4613304 96.84,9.048 C96.84,9.6346696 96.7626674,10.1813308 96.608,10.688 C96.4533326,11.1946692 96.2213349,11.6373314 95.912,12.016 C95.6026651,12.3946686 95.2213356,12.6933322 94.768,12.912 C94.3146644,13.1306678 93.7946696,13.24 93.208,13.24 Z M93.24,12.2 C93.6026685,12.2 93.9226653,12.1200008 94.2,11.96 C94.4773347,11.7999992 94.7066658,11.5786681 94.888,11.296 C95.0693342,11.0133319 95.2079995,10.6800019 95.304,10.296 C95.4000005,9.91199808 95.448,9.49600224 95.448,9.048 C95.448,8.59999776 95.4000005,8.18666856 95.304,7.808 C95.2079995,7.42933144 95.064001,7.10133472 94.872,6.824 C94.679999,6.54666528 94.4453347,6.33066744 94.168,6.176 C93.8906653,6.02133256 93.5706685,5.944 93.208,5.944 C92.8346648,5.944 92.5093347,6.02133256 92.232,6.176 C91.9546653,6.33066744 91.7253342,6.54666528 91.544,6.824 C91.3626658,7.10133472 91.2240005,7.42933144 91.128,7.808 C91.0319995,8.18666856 90.984,8.59999776 90.984,9.048 C90.984,9.49600224 91.0319995,9.91199808 91.128,10.296 C91.2240005,10.6800019 91.3653324,11.0133319 91.552,11.296 C91.7386676,11.5786681 91.9733319,11.7999992 92.256,11.96 C92.5386681,12.1200008 92.8666648,12.2 93.24,12.2 Z M98.536,1.704 L99.864,1.704 L99.864,13 L98.536,13 L98.536,1.704 Z M106.856,13 C106.738666,12.6159981 106.669333,12.157336 106.648,11.624 C106.434666,12.1146691 106.106669,12.5066652 105.664,12.8 C105.221331,13.0933348 104.696003,13.24 104.088,13.24 C103.319996,13.24 102.712002,13.0213355 102.264,12.584 C101.815998,12.1466645 101.592,11.5600037 101.592,10.824 C101.592,10.4079979 101.666666,10.0586681 101.816,9.776 C101.965334,9.49333192 102.173332,9.2586676 102.44,9.072 C102.706668,8.8853324 103.021332,8.7386672 103.384,8.632 C103.746668,8.5253328 104.141331,8.44000032 104.568,8.376 L106.584,8.072 L106.584,7.576 C106.584,7.22399824 106.541334,6.9413344 106.456,6.728 C106.370666,6.5146656 106.253334,6.34933392 106.104,6.232 C105.954666,6.11466608 105.784001,6.03733352 105.592,6 C105.399999,5.96266648 105.197334,5.944 104.984,5.944 C104.375997,5.944 103.874669,6.05599888 103.48,6.28 C103.085331,6.50400112 102.754668,6.78666496 102.488,7.128 L101.8,6.264 C102.109335,5.8906648 102.538664,5.570668 103.088,5.304 C103.637336,5.037332 104.317329,4.904 105.128,4.904 C106.109338,4.904 106.821331,5.12266448 107.264,5.56 C107.706669,5.99733552 107.928,6.70132848 107.928,7.672 L107.928,10.856 C107.928,11.1120013 107.930667,11.335999 107.936,11.528 C107.941333,11.720001 107.952,11.8986658 107.968,12.064 C107.984,12.2293342 108.008,12.3866659 108.04,12.536 C108.072,12.6853341 108.114666,12.8399992 108.168,13 L106.856,13 Z M106.584,8.952 L104.696,9.256 C104.04533,9.37333392 103.584001,9.54933216 103.312,9.784 C103.039999,10.0186678 102.904,10.3439979 102.904,10.76 C102.904,11.1866688 103.029332,11.5439986 103.28,11.832 C103.530668,12.1200014 103.901331,12.264 104.392,12.264 C104.690668,12.264 104.973332,12.2053339 105.24,12.088 C105.506668,11.9706661 105.738666,11.808001 105.936,11.6 C106.133334,11.391999 106.290666,11.1413348 106.408,10.848 C106.525334,10.5546652 106.584,10.2320018 106.584,9.88 L106.584,8.952 Z M110.056,5.128 L111.208,5.128 L111.336,6.888 C111.560001,6.31199712 111.917331,5.8373352 112.408,5.464 C112.898669,5.0906648 113.479997,4.904 114.152,4.904 L114.152,6.312 C114.002666,6.27999984 113.837334,6.264 113.656,6.264 C113.389332,6.264 113.122668,6.31199952 112.856,6.408 C112.589332,6.50400048 112.346668,6.6586656 112.128,6.872 C111.909332,7.0853344 111.730667,7.35999832 111.592,7.696 C111.453333,8.03200168 111.384,8.4399976 111.384,8.92 L111.384,13 L110.056,13 L110.056,5.128 Z M115.608,11.064 C115.874668,11.405335 116.218665,11.6879989 116.64,11.912 C117.061335,12.1360011 117.522664,12.248 118.024,12.248 C118.472002,12.248 118.861332,12.1413344 119.192,11.928 C119.522668,11.7146656 119.688,11.3946688 119.688,10.968 C119.688,10.6373317 119.578668,10.3786676 119.36,10.192 C119.141332,10.0053324 118.869335,9.84800064 118.544,9.72 C118.218665,9.59199936 117.864002,9.4746672 117.48,9.368 C117.095998,9.2613328 116.741335,9.12266752 116.416,8.952 C116.090665,8.78133248 115.818668,8.55733472 115.6,8.28 C115.381332,8.00266528 115.272,7.6240024 115.272,7.144 C115.272,6.74933136 115.351999,6.41066808 115.512,6.128 C115.672001,5.84533192 115.882665,5.61333424 116.144,5.432 C116.405335,5.25066576 116.706665,5.11733376 117.048,5.032 C117.389335,4.94666624 117.746665,4.904 118.12,4.904 C119.229339,4.904 120.151996,5.2239968 120.888,5.864 L120.216,6.76 C119.981332,6.51466544 119.669335,6.30933416 119.28,6.144 C118.890665,5.97866584 118.488002,5.896 118.072,5.896 C117.890666,5.896 117.712001,5.91733312 117.536,5.96 C117.359999,6.00266688 117.205334,6.06933288 117.072,6.16 C116.938666,6.25066712 116.832,6.36533264 116.752,6.504 C116.672,6.64266736 116.632,6.81333232 116.632,7.016 C116.632,7.32533488 116.741332,7.56533248 116.96,7.736 C117.178668,7.90666752 117.450665,8.05333272 117.776,8.176 C118.101335,8.29866728 118.453331,8.41599944 118.832,8.528 C119.210669,8.64000056 119.562665,8.78399912 119.888,8.96 C120.213335,9.13600088 120.485332,9.36799856 120.704,9.656 C120.922668,9.94400144 121.032,10.3279976 121.032,10.808 C121.032,11.2133354 120.949334,11.5679985 120.784,11.872 C120.618666,12.1760015 120.400001,12.4293323 120.128,12.632 C119.855999,12.8346677 119.541335,12.9866662 119.184,13.088 C118.826665,13.1893338 118.456002,13.24 118.072,13.24 C116.749327,13.24 115.698671,12.8133376 114.92,11.96 L115.608,11.064 Z M122.584,1.704 L123.912,1.704 L123.912,6.68 C124.008,6.44533216 124.130666,6.2213344 124.28,6.008 C124.429334,5.7946656 124.610666,5.60533416 124.824,5.44 C125.037334,5.27466584 125.282665,5.14400048 125.56,5.048 C125.837335,4.95199952 126.146665,4.904 126.488,4.904 C127.309337,4.904 127.914665,5.17333064 128.304,5.712 C128.693335,6.25066936 128.888,6.97866208 128.888,7.896 L128.888,13 L127.56,13 L127.56,8.104 C127.56,7.43199664 127.421335,6.92800168 127.144,6.592 C126.866665,6.25599832 126.472003,6.088 125.96,6.088 C125.661332,6.088 125.386668,6.15199936 125.136,6.28 C124.885332,6.40800064 124.669334,6.58933216 124.488,6.824 C124.306666,7.05866784 124.165334,7.34133168 124.064,7.672 C123.962666,8.00266832 123.912,8.36533136 123.912,8.76 L123.912,13 L122.584,13 L122.584,1.704 Z M130.904,2.072 L132.232,2.072 L132.232,3.4 L130.904,3.4 L130.904,2.072 Z M130.904,5.128 L132.232,5.128 L132.232,13 L130.904,13 L130.904,5.128 Z M134.28,5.128 L135.608,5.128 L135.608,6.648 C135.704,6.42399888 135.826666,6.2053344 135.976,5.992 C136.125334,5.7786656 136.303999,5.5920008 136.512,5.432 C136.720001,5.2719992 136.962665,5.14400048 137.24,5.048 C137.517335,4.95199952 137.831998,4.904 138.184,4.904 C138.696003,4.904 139.141331,5.0106656 139.52,5.224 C139.898669,5.4373344 140.210665,5.7306648 140.456,6.104 C140.701335,6.4773352 140.885333,6.91199752 141.008,7.408 C141.130667,7.90400248 141.192,8.43999712 141.192,9.016 C141.192,9.69867008 141.112001,10.3013307 140.952,10.824 C140.791999,11.3466693 140.568001,11.7839982 140.28,12.136 C139.991999,12.4880018 139.656002,12.7546658 139.272,12.936 C138.887998,13.1173342 138.472002,13.208 138.024,13.208 C137.43733,13.208 136.933335,13.0640014 136.512,12.776 C136.090665,12.4879986 135.789334,12.1306688 135.608,11.704 L135.608,15.768 L134.28,15.768 L134.28,5.128 Z M135.608,9.112 C135.608,9.33600112 135.616,9.5413324 135.632,9.728 C135.648,9.9146676 135.666667,10.0719994 135.688,10.2 C135.730667,10.4560013 135.810666,10.7013322 135.928,10.936 C136.045334,11.1706678 136.189332,11.3759991 136.36,11.552 C136.530668,11.7280009 136.730666,11.8693328 136.96,11.976 C137.189334,12.0826672 137.442665,12.136 137.72,12.136 C138.082668,12.136 138.394665,12.0506675 138.656,11.88 C138.917335,11.7093325 139.133332,11.4800014 139.304,11.192 C139.474668,10.9039986 139.6,10.5760018 139.68,10.208 C139.76,9.83999816 139.8,9.45866864 139.8,9.064 C139.8,8.66933136 139.762667,8.28800184 139.688,7.92 C139.613333,7.55199816 139.493334,7.22666808 139.328,6.944 C139.162666,6.66133192 138.946668,6.43466752 138.68,6.264 C138.413332,6.09333248 138.093335,6.008 137.72,6.008 C137.431999,6.008 137.168001,6.0613328 136.928,6.168 C136.687999,6.2746672 136.482668,6.41866576 136.312,6.6 C136.141332,6.78133424 136.000001,6.98933216 135.888,7.224 C135.775999,7.45866784 135.704,7.70399872 135.672,7.96 C135.650667,8.0666672 135.634667,8.2133324 135.624,8.4 C135.613333,8.5866676 135.608,8.80266544 135.608,9.048 L135.608,9.112 Z M143.032,11.064 C143.298668,11.405335 143.642665,11.6879989 144.064,11.912 C144.485335,12.1360011 144.946664,12.248 145.448,12.248 C145.896002,12.248 146.285332,12.1413344 146.616,11.928 C146.946668,11.7146656 147.112,11.3946688 147.112,10.968 C147.112,10.6373317 147.002668,10.3786676 146.784,10.192 C146.565332,10.0053324 146.293335,9.84800064 145.968,9.72 C145.642665,9.59199936 145.288002,9.4746672 144.904,9.368 C144.519998,9.2613328 144.165335,9.12266752 143.84,8.952 C143.514665,8.78133248 143.242668,8.55733472 143.024,8.28 C142.805332,8.00266528 142.696,7.6240024 142.696,7.144 C142.696,6.74933136 142.775999,6.41066808 142.936,6.128 C143.096001,5.84533192 143.306665,5.61333424 143.568,5.432 C143.829335,5.25066576 144.130665,5.11733376 144.472,5.032 C144.813335,4.94666624 145.170665,4.904 145.544,4.904 C146.653339,4.904 147.575996,5.2239968 148.312,5.864 L147.64,6.76 C147.405332,6.51466544 147.093335,6.30933416 146.704,6.144 C146.314665,5.97866584 145.912002,5.896 145.496,5.896 C145.314666,5.896 145.136001,5.91733312 144.96,5.96 C144.783999,6.00266688 144.629334,6.06933288 144.496,6.16 C144.362666,6.25066712 144.256,6.36533264 144.176,6.504 C144.096,6.64266736 144.056,6.81333232 144.056,7.016 C144.056,7.32533488 144.165332,7.56533248 144.384,7.736 C144.602668,7.90666752 144.874665,8.05333272 145.2,8.176 C145.525335,8.29866728 145.877331,8.41599944 146.256,8.528 C146.634669,8.64000056 146.986665,8.78399912 147.312,8.96 C147.637335,9.13600088 147.909332,9.36799856 148.128,9.656 C148.346668,9.94400144 148.456,10.3279976 148.456,10.808 C148.456,11.2133354 148.373334,11.5679985 148.208,11.872 C148.042666,12.1760015 147.824001,12.4293323 147.552,12.632 C147.279999,12.8346677 146.965335,12.9866662 146.608,13.088 C146.250665,13.1893338 145.880002,13.24 145.496,13.24 C144.173327,13.24 143.122671,12.8133376 142.344,11.96 L143.032,11.064 Z" id="Scholarships" fill="#0D78AA"></path>
                    <path d="M172.96,12.024 C173.280002,11.8106656 173.639998,11.5546682 174.04,11.256 C174.440002,10.9573318 174.842665,10.6293351 175.248,10.272 C175.653335,9.91466488 176.045331,9.536002 176.424,9.136 C176.802669,8.735998 177.138665,8.32000216 177.432,7.888 C177.725335,7.45599784 177.962666,7.01600224 178.144,6.568 C178.325334,6.11999776 178.416,5.67200224 178.416,5.224 C178.416,4.59466352 178.253335,4.07466872 177.928,3.664 C177.602665,3.25333128 177.109337,3.048 176.448,3.048 C175.850664,3.048 175.373335,3.2346648 175.016,3.608 C174.658665,3.9813352 174.421334,4.44533056 174.304,5 L173.04,4.696 C173.317335,3.83199568 173.743997,3.17600224 174.32,2.728 C174.896003,2.27999776 175.653329,2.056 176.592,2.056 C177.040002,2.056 177.463998,2.11999936 177.864,2.248 C178.264002,2.37600064 178.613332,2.56799872 178.912,2.824 C179.210668,3.08000128 179.445332,3.40266472 179.616,3.792 C179.786668,4.18133528 179.872,4.63733072 179.872,5.16 C179.872,5.86400352 179.698668,6.54399672 179.352,7.2 C179.005332,7.85600328 178.576003,8.47466376 178.064,9.056 C177.551997,9.63733624 176.997336,10.1706642 176.4,10.656 C175.802664,11.1413358 175.253336,11.554665 174.752,11.896 L180.16,11.896 L180.16,13 L172.96,13 L172.96,12.024 Z M185.664,12.104 C186.154669,12.104 186.557332,11.9520015 186.872,11.648 C187.186668,11.3439985 187.431999,10.9653356 187.608,10.512 C187.784001,10.0586644 187.906666,9.57333592 187.976,9.056 C188.045334,8.53866408 188.08,8.0666688 188.08,7.64 C188.08,7.22399792 188.045334,6.75466928 187.976,6.232 C187.906666,5.70933072 187.784001,5.2213356 187.608,4.768 C187.431999,4.3146644 187.186668,3.93333488 186.872,3.624 C186.557332,3.31466512 186.154669,3.16 185.664,3.16 C185.183998,3.16 184.789335,3.3066652 184.48,3.6 C184.170665,3.8933348 183.922668,4.25599784 183.736,4.688 C183.549332,5.12000216 183.421334,5.58666416 183.352,6.088 C183.282666,6.58933584 183.248,7.0533312 183.248,7.48 C183.248,7.91733552 183.277333,8.402664 183.336,8.936 C183.394667,9.469336 183.511999,9.97066432 183.688,10.44 C183.864001,10.9093357 184.109332,11.3039984 184.424,11.624 C184.738668,11.9440016 185.151997,12.104 185.664,12.104 Z M185.664,13.24 C184.959996,13.2293333 184.357336,13.053335 183.856,12.712 C183.354664,12.370665 182.949335,11.933336 182.64,11.4 C182.330665,10.866664 182.104001,10.2693366 181.96,9.608 C181.815999,8.94666336 181.744,8.29066992 181.744,7.64 C181.744,6.98933008 181.815999,6.33067 181.96,5.664 C182.104001,4.99733 182.333332,4.397336 182.648,3.864 C182.962668,3.330664 183.370664,2.89333504 183.872,2.552 C184.373336,2.21066496 184.986663,2.04 185.712,2.04 C186.42667,2.04 187.031998,2.21066496 187.528,2.552 C188.024002,2.89333504 188.423998,3.330664 188.728,3.864 C189.032002,4.397336 189.250666,4.99466336 189.384,5.656 C189.517334,6.31733664 189.584,6.97333008 189.584,7.624 C189.584,8.2640032 189.517334,8.91466336 189.384,9.576 C189.250666,10.2373366 189.032002,10.8373306 188.728,11.376 C188.423998,11.9146694 188.021336,12.3573316 187.52,12.704 C187.018664,13.0506684 186.400004,13.2293333 185.664,13.24 Z M192.272,11.96 L194.288,11.96 L194.288,4.04 C194.031999,4.28533456 193.736002,4.47199936 193.4,4.6 C193.063998,4.72800064 192.656002,4.80266656 192.176,4.824 L192.176,3.8 C192.816003,3.8 193.327998,3.67466792 193.712,3.424 C194.096002,3.17333208 194.394666,2.78666928 194.608,2.264 L195.616,2.264 L195.616,11.96 L197.6,11.96 L197.6,13 L192.272,13 L192.272,11.96 Z M201.6,13 C201.717334,12.1466624 201.927998,11.2640046 202.232,10.352 C202.536002,9.43999544 202.890665,8.55467096 203.296,7.696 C203.701335,6.83732904 204.135998,6.03733704 204.6,5.296 C205.064002,4.55466296 205.514664,3.92266928 205.952,3.4 L200.48,3.4 L200.48,2.264 L207.344,2.264 L207.344,3.464 C206.906664,3.9440024 206.448002,4.56266288 205.968,5.32 C205.487998,6.07733712 205.040002,6.89332896 204.624,7.768 C204.207998,8.64267104 203.850668,9.53599544 203.552,10.448 C203.253332,11.3600046 203.066667,12.2106627 202.992,13 L201.6,13 Z" id="2017" fill="#4C5358"></path>
                    <path d="M54.1975446,4.8046875 C54.2645093,4.87165212 54.2979911,4.94866028 54.2979911,5.03571429 C54.2979911,5.12276829 54.2645093,5.19977645 54.1975446,5.26674107 L50.25,9.21428571 L54.1975446,13.1618304 C54.2645093,13.228795 54.2979911,13.3058031 54.2979911,13.3928571 C54.2979911,13.4799111 54.2645093,13.5569193 54.1975446,13.6238839 L53.6953125,14.1261161 C53.6283479,14.1930807 53.5513397,14.2265625 53.4642857,14.2265625 C53.3772317,14.2265625 53.3002235,14.1930807 53.2332589,14.1261161 L48.5524554,9.4453125 C48.4854907,9.37834788 48.4520089,9.30133972 48.4520089,9.21428571 C48.4520089,9.12723171 48.4854907,9.05022355 48.5524554,8.98325893 L53.2332589,4.30245536 C53.3002235,4.23549074 53.3772317,4.20200893 53.4642857,4.20200893 C53.5513397,4.20200893 53.6283479,4.23549074 53.6953125,4.30245536 L54.1975446,4.8046875 Z" id="" fill="#AAB1B6" transform="translate(51.375000, 9.214286) rotate(180.000000) translate(-51.375000, -9.214286) "></path>
                    <path d="M163.197545,4.8046875 C163.264509,4.87165212 163.297991,4.94866028 163.297991,5.03571429 C163.297991,5.12276829 163.264509,5.19977645 163.197545,5.26674107 L159.25,9.21428571 L163.197545,13.1618304 C163.264509,13.228795 163.297991,13.3058031 163.297991,13.3928571 C163.297991,13.4799111 163.264509,13.5569193 163.197545,13.6238839 L162.695312,14.1261161 C162.628348,14.1930807 162.55134,14.2265625 162.464286,14.2265625 C162.377232,14.2265625 162.300224,14.1930807 162.233259,14.1261161 L157.552455,9.4453125 C157.485491,9.37834788 157.452009,9.30133972 157.452009,9.21428571 C157.452009,9.12723171 157.485491,9.05022355 157.552455,8.98325893 L162.233259,4.30245536 C162.300224,4.23549074 162.377232,4.20200893 162.464286,4.20200893 C162.55134,4.20200893 162.628348,4.23549074 162.695312,4.30245536 L163.197545,4.8046875 Z" id="angle-left---FontAwesome-Copy" fill="#AAB1B6" transform="translate(160.375000, 9.214286) rotate(180.000000) translate(-160.375000, -9.214286) "></path>
                </g>
            </g>
        </g>
    </g>
</svg>