<svg width="180" height="168" viewBox="0 0 180 168" xmlns="http://www.w3.org/2000/svg"><title>icon/bug</title><g fill-rule="nonzero" fill="none"><path d="M111.62 24.688c-.905-.958-1.038-2.417-.31-3.518 6.213-9.44 16.665-15.077 27.955-15.077h11.68c3.965 0 3.965-6.012 0-6.012-11.167 0-31.42-2.31-44.648 17.78-.62.945-1.855 1.276-2.866.766-8.112-4.108-17.35-4.263-25.775 0-1.01.51-2.242.18-2.866-.767C62.193-1.267 43.85.08 30.14.08c-3.964 0-3.964 6.013 0 6.013h11.68c18.454 0 30.712 15.365 27.646 18.595-6.606 6.974-8 14.067-8 22.592 17.675-11.642 40.444-11.666 58.152 0 0-8.405-1.286-15.51-7.998-22.592z" fill="#AFC836"/><path d="M47.35 59.337C29.2 42.617 32.063 43.44 2.064 53.425-3.577 55.303-.71 63.91 4.853 62.028l18.673-6.215c3.043-1.01 6.402-.283 8.767 1.893C52.166 76.01 44.21 68.052 42.918 87.57c-.195 2.954-2.617 5.254-5.538 5.254h-26.1c-5.915 0-5.915 9.058 0 9.058 41.098 0 27.55-3.468 34.457 20.443.4 1.372-.792 2.698-2.185 2.413-16.56-3.365-21.158 12.772-30.257 30.117-2.776 5.29 5.115 9.54 7.89 4.252l10.96-20.89c4.382-8.338 17.23-4.67 22.132 3.244 3.743 6.04 15.813 22.455 24.83 26.135 3.55 1.448 7.412-1.197 7.412-5.074V60.12c0-9.302-9.682-15.337-17.862-11.207-13.35 6.762-15.08 16.165-21.31 10.427zM178.014 53.42c-28.598-9.455-26.386-11.41-45.283 5.87-2.307 2.11-5.865 1.962-7.993-.334-18.72-20.194-31.176-8.778-31.176 1.11V161.76c0 6.368 8.733 8.432 17.862-2.568 7.75-9.34 10.726-12.493 14.383-18.35 4.988-7.993 17.858-11.287 22.13-3.217l10.958 20.744c2.764 5.232 10.69 1.08 7.89-4.223l-10.957-20.744c-3.768-7.13-11.91-10.676-19.298-9.165-1.39.28-2.584-1.03-2.185-2.395 6.85-23.544-5.456-20.303 34.455-20.303 2.468 0 4.47-2.014 4.47-4.497s-2-4.498-4.47-4.498h-26.154c-2.877 0-5.284-2.21-5.537-5.094-1.04-11.875-5.22-15.225.434-20.404 16.78-15.35 10.925-13.932 37.687-5.083 5.595 1.874 8.41-6.682 2.787-8.544z" fill="#495C6A"/></g></svg>
