<svg width="180" height="168" viewBox="0 0 180 168" xmlns="http://www.w3.org/2000/svg"><title>icon/grow</title><g fill="none" fill-rule="evenodd"><path d="M148.975 34.937C158.56 21.525 162.352 8.22 162.51 7.662c.437-1.562.155-3.237-.77-4.57-.926-1.334-2.397-2.19-4.018-2.333C152.055.254 146.644 0 141.64 0c-25.21 0-42.243 6.415-50.623 19.066-8.748 13.205-5.204 28.92-2.467 36.81-1.696-1.346-3.468-2.41-5.126-3.192-2.226-12.02-10.088-24.22-26.447-24.22-9.882 0-22.038 4.504-36.13 13.387-.997.63-1.662 1.666-1.814 2.83-.152 1.164.223 2.336 1.024 3.198.722.777 17.958 19.036 40.56 19.036 5.606 0 11.068-1.137 16.3-3.387 1.378.49 5.323 2.198 6.473 5.955-1.024 4.468-1.668 9.385-1.906 14.6h-49.94c-3.397 0-6.152 2.746-6.152 6.133v6.398c0 3.387 2.755 6.132 6.153 6.132h4.19l8.793 60.01c.44 3.012 3.033 5.245 6.088 5.245h78.97c3.054 0 5.646-2.233 6.087-5.246l8.79-60.01h4.192c3.398 0 6.153-2.744 6.153-6.13v-6.4c0-3.386-2.755-6.13-6.153-6.13h-54.65c.47-9.205 2.372-16.63 4.995-21.29 19.793-.17 37.065-9.79 49.975-27.857zM29.5 45.86c10.872-6.302 20.1-9.492 27.477-9.492 10.182 0 14.96 6.38 17.205 12.4-.322-.18-.654-.364-1.005-.55-3.317-1.793-7.948-3.772-12.794-4.853-1.205-.282-2.426-.492-3.626-.665-.6-.085-1.2-.14-1.788-.208-.592-.04-1.175-.08-1.75-.122l-1.687-.038-1.61.038c-1.046.063-2.025.138-2.922.267-.448.048-.875.12-1.28.198-.404.074-.787.136-1.144.21-.71.172-1.33.304-1.83.444-.996.294-1.565.464-1.565.464l1.62-.13c.515-.032 1.142-.033 1.853-.054.357.002.737.02 1.136.03.396.01.814.027 1.25.072.868.056 1.802.183 2.78.327.486.09.985.184 1.495.28.503.12 1.017.24 1.54.363l1.566.45c.523.176 1.053.338 1.578.53 1.05.39 2.1.806 3.123 1.288 4.114 1.882 7.802 4.49 10.327 6.64 1.27 1.07 2.257 2.024 2.912 2.692l.278.287c-3.89 1.512-7.914 2.28-12.02 2.28-13.628 0-25.425-8.326-31.117-13.15zm70.655-20.78c6.226-9.4 20.184-14.167 41.483-14.167 2.556 0 5.23.073 8.002.215-5.026 12.16-18.726 37.64-46.083 40.494.048-.165.1-.338.16-.53.38-1.23.99-3.023 1.87-5.136.435-1.06.95-2.193 1.516-3.386.58-1.183 1.208-2.433 1.926-3.688.703-1.265 1.487-2.54 2.323-3.817.43-.627.847-1.28 1.31-1.897l.682-.943.714-.92c.95-1.236 1.974-2.41 3.017-3.547.524-.566 1.07-1.1 1.6-1.646.554-.52 1.1-1.032 1.64-1.536l1.66-1.416 1.657-1.284 1.63-1.146c.53-.375 1.07-.68 1.577-1.008.257-.157.505-.32.754-.465l.738-.41c.482-.262.937-.524 1.374-.75.886-.423 1.657-.817 2.308-1.1l2.07-.86-2.215.413c-.705.144-1.547.37-2.53.607-.485.134-.995.3-1.54.462l-.835.255c-.283.094-.567.204-.86.31-.583.22-1.21.42-1.83.686-.62.267-1.265.54-1.928.824-.65.314-1.32.637-2 .968l-2.05 1.11-2.068 1.248c-.68.454-1.382.9-2.065 1.38-1.363.97-2.73 1.996-4.03 3.1-1.32 1.087-2.568 2.257-3.782 3.433-1.2 1.186-2.347 2.393-3.41 3.606-1.076 1.203-2.052 2.42-2.97 3.586-.903 1.177-1.74 2.31-2.474 3.383-.292.42-.565.824-.828 1.222-.688-6.15.083-12.52 3.483-17.653z" fill="#AFC836" fill-rule="nonzero"/><path d="M31.545 84.083c-3.398 0-6.153 2.745-6.153 6.132v6.398c0 3.387 2.755 6.132 6.153 6.132h4.19l8.793 60.01c.44 3.012 3.033 5.245 6.088 5.245h78.97c3.054 0 5.646-2.233 6.087-5.246l8.79-60.01h4.192c3.398 0 6.153-2.744 6.153-6.13v-6.4c0-3.386-2.755-6.13-6.153-6.13H31.545z" fill="#495C6A"/></g></svg>
