<svg width="180" height="168" viewBox="0 0 180 168" xmlns="http://www.w3.org/2000/svg"><title>icon/yammer</title><g fill="none" fill-rule="evenodd"><path d="M51.346 111.978c-4.49 12.645-8.645 18.567-18.19 18.567-.923 0-4.135-.19-4.342-.208-3.08-.158-5.956 1.84-6.786 4.93-.952 3.51 1.113 7.125 4.612 8.125 2.53.444 5.128.608 7.46.608 17.595 0 23.412-10.107 29.222-24.862L97.65 33.702c1.238-3.87-.918-8.01-4.774-9.24-3.79-1.203-7.803.796-9.16 4.47L59.593 92.534h-.38L33.842 28.453c-1.715-3.62-5.962-5.388-9.793-3.956-3.93 1.47-5.95 5.76-4.658 9.706l31.956 77.775z" fill="#495C6A" fill-rule="nonzero"/><path d="M155.374 78.017c-.31-.013-.62-.02-.928-.017-5.412.01-44.328 4.254-42.375 8.197 1.946 3.902 25.91 5.795 42.988 5.803 3.58-.618 6.173-3.834 5.926-7.51-.23-3.23-2.586-5.808-5.61-6.472zM142.275 119.107c-15.16-8.283-37.35-18.24-40.987-15.704-3.664 2.556 28.785 25.232 33.586 27.866.293.157.566.303.83.442 3.016.876 6.362-.276 8.15-3.043 2.02-3.15 1.29-7.275-1.578-9.563zM142.276 51.89c2.87-2.29 3.6-6.415 1.578-9.562-1.788-2.768-5.135-3.914-8.15-3.04-.264.134-.538.28-.83.438-4.8 2.638-37.25 25.312-33.586 27.872 3.638 2.536 25.827-7.422 40.988-15.708z" fill="#AFC836"/></g></svg>
