<?xml version="1.0" encoding="UTF-8"?>
<svg width="200px" height="65px" viewBox="0 0 200 65" version="1.1" xmlns="http://www.w3.org/2000/svg" xmlns:xlink="http://www.w3.org/1999/xlink">
    <!-- Generator: Sketch 47 (45396) - http://www.bohemiancoding.com/sketch -->
    <title>ShortLabels</title>
    <desc>Created with Sketch.</desc>
    <defs></defs>
    <g id="Text-area" stroke="none" stroke-width="1" fill="none" fill-rule="evenodd">
        <g id="Text-area-Usage-extra-large-1200" transform="translate(-385.000000, -2284.000000)">
            <g id="ShortLabels" transform="translate(385.000000, 2282.000000)">
                <path d="M0.98,3.116 L4.298,3.116 C4.79266914,3.116 5.2499979,3.17199944 5.67,3.284 C6.0900021,3.39600056 6.45166515,3.5686655 6.755,3.802 C7.05833485,4.0353345 7.29633247,4.33166487 7.469,4.691 C7.64166753,5.05033513 7.728,5.48199748 7.728,5.986 C7.728,6.5460028 7.64166753,7.02199804 7.469,7.414 C7.29633247,7.80600196 7.05600154,8.12333212 6.748,8.366 C6.43999846,8.60866788 6.07833541,8.78366613 5.663,8.891 C5.24766459,8.99833387 4.79733576,9.052 4.312,9.052 L2.24,9.052 L2.24,13 L0.98,13 L0.98,3.116 Z M4.102,8.044 C4.83000364,8.044 5.39466466,7.88766823 5.796,7.575 C6.19733534,7.26233177 6.398,6.7326704 6.398,5.986 C6.398,5.64066494 6.33966725,5.34666788 6.223,5.104 C6.10633275,4.86133212 5.94766767,4.66533408 5.747,4.516 C5.54633233,4.36666592 5.30833471,4.25933366 5.033,4.194 C4.75766529,4.12866634 4.46133492,4.096 4.144,4.096 L2.24,4.096 L2.24,8.044 L4.102,8.044 Z M9.114,6.112 L10.122,6.112 L10.234,7.652 C10.430001,7.14799748 10.7426645,6.7326683 11.172,6.406 C11.6013355,6.0793317 12.1099971,5.916 12.698,5.916 L12.698,7.148 C12.5673327,7.11999986 12.4226675,7.106 12.264,7.106 C12.0306655,7.106 11.7973345,7.14799958 11.564,7.232 C11.3306655,7.31600042 11.1183343,7.4513324 10.927,7.638 C10.7356657,7.8246676 10.5793339,8.06499853 10.458,8.359 C10.3366661,8.65300147 10.276,9.0099979 10.276,9.43 L10.276,13 L9.114,13 L9.114,6.112 Z M14.728,9.822 C14.7746669,10.6153373 14.9776649,11.2289978 15.337,11.663 C15.6963351,12.0970022 16.1979968,12.314 16.842,12.314 C17.6540041,12.314 18.2653313,11.9313372 18.676,11.166 L19.558,11.656 C19.287332,12.1133356 18.9280022,12.4866652 18.48,12.776 C18.0319978,13.0653348 17.4673367,13.21 16.786,13.21 C16.244664,13.21 15.771002,13.1166676 15.365,12.93 C14.958998,12.7433324 14.620668,12.4866683 14.35,12.16 C14.079332,11.8333317 13.876334,11.4506689 13.741,11.012 C13.605666,10.5733311 13.538,10.1020025 13.538,9.598 C13.538,9.10333086 13.6033327,8.63200224 13.734,8.184 C13.8646673,7.73599776 14.0629987,7.34400168 14.329,7.008 C14.5950013,6.67199832 14.9216647,6.40600098 15.309,6.21 C15.6963353,6.01399902 16.1513307,5.916 16.674,5.916 C17.1780025,5.916 17.6166648,6.01166571 17.99,6.203 C18.3633352,6.39433429 18.6736654,6.65099839 18.921,6.973 C19.1683346,7.29500161 19.3549994,7.66833121 19.481,8.093 C19.6070006,8.51766879 19.67,8.96799762 19.67,9.444 C19.67,9.54666718 19.6676667,9.62599972 19.663,9.682 C19.6583333,9.73800028 19.656,9.78466648 19.656,9.822 L14.728,9.822 Z M16.66,6.798 C16.0719971,6.798 15.6170016,7.0079979 15.295,7.428 C14.9729984,7.8480021 14.7886669,8.41266312 14.742,9.122 L18.48,9.122 C18.48,8.83266522 18.4473337,8.55033471 18.382,8.275 C18.3166663,7.99966529 18.2093341,7.75233443 18.06,7.533 C17.9106659,7.31366557 17.7216678,7.13633401 17.493,7.001 C17.2643322,6.86566599 16.9866683,6.798 16.66,6.798 Z M21.672,6.91 L20.482,6.91 L20.482,6.112 L21.616,6.112 C21.541333,5.86933212 21.4783336,5.61033471 21.427,5.335 C21.3756664,5.05966529 21.35,4.80066788 21.35,4.558 C21.35,4.33399888 21.3756664,4.12166767 21.427,3.921 C21.4783336,3.72033233 21.5693327,3.54300077 21.7,3.389 C21.8306673,3.23499923 22.0079989,3.1113338 22.232,3.018 C22.4560011,2.9246662 22.7406649,2.878 23.086,2.878 C23.3380013,2.878 23.5643323,2.89433317 23.765,2.927 C23.9656677,2.95966683 24.1546658,3.01333296 24.332,3.088 L24.136,3.97 C24.0333328,3.9233331 23.9050008,3.88366683 23.751,3.851 C23.5969992,3.81833317 23.4546673,3.802 23.324,3.802 C22.7919973,3.802 22.526,4.10999692 22.526,4.726 C22.526,4.96866788 22.556333,5.22066536 22.617,5.482 C22.677667,5.74333464 22.7406663,5.95333254 22.806,6.112 L24.136,6.112 L24.136,6.91 L22.848,6.91 L22.848,13 L21.672,13 L21.672,6.91 Z M26.194,9.822 C26.2406669,10.6153373 26.4436649,11.2289978 26.803,11.663 C27.1623351,12.0970022 27.6639968,12.314 28.308,12.314 C29.1200041,12.314 29.7313313,11.9313372 30.142,11.166 L31.024,11.656 C30.753332,12.1133356 30.3940022,12.4866652 29.946,12.776 C29.4979978,13.0653348 28.9333367,13.21 28.252,13.21 C27.710664,13.21 27.237002,13.1166676 26.831,12.93 C26.424998,12.7433324 26.086668,12.4866683 25.816,12.16 C25.545332,11.8333317 25.342334,11.4506689 25.207,11.012 C25.071666,10.5733311 25.004,10.1020025 25.004,9.598 C25.004,9.10333086 25.0693327,8.63200224 25.2,8.184 C25.3306673,7.73599776 25.5289987,7.34400168 25.795,7.008 C26.0610013,6.67199832 26.3876647,6.40600098 26.775,6.21 C27.1623353,6.01399902 27.6173307,5.916 28.14,5.916 C28.6440025,5.916 29.0826648,6.01166571 29.456,6.203 C29.8293352,6.39433429 30.1396654,6.65099839 30.387,6.973 C30.6343346,7.29500161 30.8209994,7.66833121 30.947,8.093 C31.0730006,8.51766879 31.136,8.96799762 31.136,9.444 C31.136,9.54666718 31.1336667,9.62599972 31.129,9.682 C31.1243333,9.73800028 31.122,9.78466648 31.122,9.822 L26.194,9.822 Z M28.126,6.798 C27.5379971,6.798 27.0830016,7.0079979 26.761,7.428 C26.4389984,7.8480021 26.2546669,8.41266312 26.208,9.122 L29.946,9.122 C29.946,8.83266522 29.9133337,8.55033471 29.848,8.275 C29.7826663,7.99966529 29.6753341,7.75233443 29.526,7.533 C29.3766659,7.31366557 29.1876678,7.13633401 28.959,7.001 C28.7303322,6.86566599 28.4526683,6.798 28.126,6.798 Z M32.55,6.112 L33.558,6.112 L33.67,7.652 C33.866001,7.14799748 34.1786645,6.7326683 34.608,6.406 C35.0373355,6.0793317 35.5459971,5.916 36.134,5.916 L36.134,7.148 C36.0033327,7.11999986 35.8586675,7.106 35.7,7.106 C35.4666655,7.106 35.2333345,7.14799958 35,7.232 C34.7666655,7.31600042 34.5543343,7.4513324 34.363,7.638 C34.1716657,7.8246676 34.0153339,8.06499853 33.894,8.359 C33.7726661,8.65300147 33.712,9.0099979 33.712,9.43 L33.712,13 L32.55,13 L32.55,6.112 Z M38.164,9.822 C38.2106669,10.6153373 38.4136649,11.2289978 38.773,11.663 C39.1323351,12.0970022 39.6339968,12.314 40.278,12.314 C41.0900041,12.314 41.7013313,11.9313372 42.112,11.166 L42.994,11.656 C42.723332,12.1133356 42.3640022,12.4866652 41.916,12.776 C41.4679978,13.0653348 40.9033367,13.21 40.222,13.21 C39.680664,13.21 39.207002,13.1166676 38.801,12.93 C38.394998,12.7433324 38.056668,12.4866683 37.786,12.16 C37.515332,11.8333317 37.312334,11.4506689 37.177,11.012 C37.041666,10.5733311 36.974,10.1020025 36.974,9.598 C36.974,9.10333086 37.0393327,8.63200224 37.17,8.184 C37.3006673,7.73599776 37.4989987,7.34400168 37.765,7.008 C38.0310013,6.67199832 38.3576647,6.40600098 38.745,6.21 C39.1323353,6.01399902 39.5873307,5.916 40.11,5.916 C40.6140025,5.916 41.0526648,6.01166571 41.426,6.203 C41.7993352,6.39433429 42.1096654,6.65099839 42.357,6.973 C42.6043346,7.29500161 42.7909994,7.66833121 42.917,8.093 C43.0430006,8.51766879 43.106,8.96799762 43.106,9.444 C43.106,9.54666718 43.1036667,9.62599972 43.099,9.682 C43.0943333,9.73800028 43.092,9.78466648 43.092,9.822 L38.164,9.822 Z M40.096,6.798 C39.5079971,6.798 39.0530016,7.0079979 38.731,7.428 C38.4089984,7.8480021 38.2246669,8.41266312 38.178,9.122 L41.916,9.122 C41.916,8.83266522 41.8833337,8.55033471 41.818,8.275 C41.7526663,7.99966529 41.6453341,7.75233443 41.496,7.533 C41.3466659,7.31366557 41.1576678,7.13633401 40.929,7.001 C40.7003322,6.86566599 40.4226683,6.798 40.096,6.798 Z M44.52,6.112 L45.528,6.112 L45.654,7.484 C45.8313342,7.0639979 46.1136647,6.69766823 46.501,6.385 C46.8883353,6.07233177 47.3666638,5.916 47.936,5.916 C48.6546703,5.916 49.1843316,6.14466438 49.525,6.602 C49.8656684,7.05933562 50.036,7.69866256 50.036,8.52 L50.036,13 L48.874,13 L48.874,8.758 C48.874,8.13266354 48.7480013,7.67300147 48.496,7.379 C48.2439987,7.08499853 47.9033355,6.938 47.474,6.938 C46.9606641,6.938 46.5336684,7.1479979 46.193,7.568 C45.8523316,7.9880021 45.682,8.58066284 45.682,9.346 L45.682,13 L44.52,13 L44.52,6.112 Z M57.554,11.488 C57.2739986,12.0480028 56.8983357,12.4749985 56.427,12.769 C55.9556643,13.0630015 55.3840034,13.21 54.712,13.21 C54.1613306,13.21 53.683002,13.1143343 53.277,12.923 C52.870998,12.7316657 52.5350013,12.4726683 52.269,12.146 C52.0029987,11.8193317 51.8070006,11.4343356 51.681,10.991 C51.5549994,10.5476644 51.492,10.0740025 51.492,9.57 C51.492,9.0566641 51.559666,8.57833555 51.695,8.135 C51.830334,7.69166445 52.0309987,7.3066683 52.297,6.98 C52.5630013,6.6533317 52.8966647,6.39433429 53.298,6.203 C53.6993353,6.01166571 54.170664,5.916 54.712,5.916 C55.3933367,5.916 55.9603311,6.06766515 56.413,6.371 C56.8656689,6.67433485 57.2319986,7.10133058 57.512,7.652 L56.532,8.114 C56.1773316,7.25532904 55.5800042,6.826 54.74,6.826 C54.3853316,6.826 54.079668,6.8959993 53.823,7.036 C53.566332,7.1760007 53.3563341,7.36733212 53.193,7.61 C53.0296659,7.85266788 52.9083337,8.13499839 52.829,8.457 C52.7496663,8.77900161 52.71,9.1266648 52.71,9.5 C52.71,9.85466844 52.747333,10.1999983 52.822,10.536 C52.896667,10.8720017 53.0179992,11.1706654 53.186,11.432 C53.3540008,11.6933346 53.5686654,11.9033325 53.83,12.062 C54.0913346,12.2206675 54.4133314,12.3 54.796,12.3 C55.2813358,12.3 55.6733318,12.1763346 55.972,11.929 C56.2706682,11.6816654 56.4993325,11.362002 56.658,10.97 L57.554,11.488 Z M59.724,9.822 C59.7706669,10.6153373 59.9736649,11.2289978 60.333,11.663 C60.6923351,12.0970022 61.1939968,12.314 61.838,12.314 C62.6500041,12.314 63.2613313,11.9313372 63.672,11.166 L64.554,11.656 C64.283332,12.1133356 63.9240022,12.4866652 63.476,12.776 C63.0279978,13.0653348 62.4633367,13.21 61.782,13.21 C61.240664,13.21 60.767002,13.1166676 60.361,12.93 C59.954998,12.7433324 59.616668,12.4866683 59.346,12.16 C59.075332,11.8333317 58.872334,11.4506689 58.737,11.012 C58.601666,10.5733311 58.534,10.1020025 58.534,9.598 C58.534,9.10333086 58.5993327,8.63200224 58.73,8.184 C58.8606673,7.73599776 59.0589987,7.34400168 59.325,7.008 C59.5910013,6.67199832 59.9176647,6.40600098 60.305,6.21 C60.6923353,6.01399902 61.1473307,5.916 61.67,5.916 C62.1740025,5.916 62.6126648,6.01166571 62.986,6.203 C63.3593352,6.39433429 63.6696654,6.65099839 63.917,6.973 C64.1643346,7.29500161 64.3509994,7.66833121 64.477,8.093 C64.6030006,8.51766879 64.666,8.96799762 64.666,9.444 C64.666,9.54666718 64.6636667,9.62599972 64.659,9.682 C64.6543333,9.73800028 64.652,9.78466648 64.652,9.822 L59.724,9.822 Z M61.656,6.798 C61.0679971,6.798 60.6130016,7.0079979 60.291,7.428 C59.9689984,7.8480021 59.7846669,8.41266312 59.738,9.122 L63.476,9.122 C63.476,8.83266522 63.4433337,8.55033471 63.378,8.275 C63.3126663,7.99966529 63.2053341,7.75233443 63.056,7.533 C62.9066659,7.31366557 62.7176678,7.13633401 62.489,7.001 C62.2603322,6.86566599 61.9826683,6.798 61.656,6.798 Z M66.206,11.306 C66.4393345,11.6046682 66.7403315,11.851999 67.109,12.048 C67.4776685,12.244001 67.8813311,12.342 68.32,12.342 C68.712002,12.342 69.0526652,12.2486676 69.342,12.062 C69.6313348,11.8753324 69.776,11.5953352 69.776,11.222 C69.776,10.9326652 69.6803343,10.7063341 69.489,10.543 C69.2976657,10.3796659 69.0596681,10.2420006 68.775,10.13 C68.4903319,10.0179994 68.1800017,9.9153338 67.844,9.822 C67.5079983,9.7286662 67.1976681,9.60733408 66.913,9.458 C66.6283319,9.30866592 66.3903343,9.11266788 66.199,8.87 C66.0076657,8.62733212 65.912,8.2960021 65.912,7.876 C65.912,7.53066494 65.9819993,7.23433457 66.122,6.987 C66.2620007,6.73966543 66.4463322,6.53666746 66.675,6.378 C66.9036678,6.21933254 67.1673318,6.10266704 67.466,6.028 C67.7646682,5.95333296 68.0773317,5.916 68.404,5.916 C69.3746715,5.916 70.1819968,6.1959972 70.826,6.756 L70.238,7.54 C70.0326656,7.32533226 69.7596684,7.14566739 69.419,7.001 C69.0783316,6.85633261 68.7260018,6.784 68.362,6.784 C68.2033325,6.784 68.0470008,6.80266648 67.893,6.84 C67.7389992,6.87733352 67.6036672,6.93566627 67.487,7.015 C67.3703327,7.09433373 67.2770003,7.19466606 67.207,7.316 C67.1369997,7.43733394 67.102,7.58666578 67.102,7.764 C67.102,8.03466802 67.1976657,8.24466592 67.389,8.394 C67.5803343,8.54333408 67.8183319,8.67166613 68.103,8.779 C68.3876681,8.88633387 68.695665,8.98899951 69.027,9.087 C69.358335,9.18500049 69.6663319,9.31099923 69.951,9.465 C70.2356681,9.61900077 70.4736657,9.82199874 70.665,10.074 C70.8563343,10.3260013 70.952,10.6619979 70.952,11.082 C70.952,11.4366684 70.8796674,11.7469987 70.735,12.013 C70.5903326,12.2790013 70.3990012,12.5006658 70.161,12.678 C69.9229988,12.8553342 69.6476682,12.9883329 69.335,13.077 C69.0223318,13.1656671 68.6980017,13.21 68.362,13.21 C67.2046609,13.21 66.2853367,12.8366704 65.604,12.09 L66.206,11.306 Z" id="Preferences" fill="#4C5358"></path>
                <path d="M80.244,65.146 C80.5240014,64.9593324 80.8389982,64.7353346 81.189,64.474 C81.5390017,64.2126654 81.8913316,63.9256682 82.246,63.613 C82.6006684,63.3003318 82.943665,62.9690018 83.275,62.619 C83.606335,62.2689982 83.900332,61.9050019 84.157,61.527 C84.4136679,61.1489981 84.6213325,60.764002 84.78,60.372 C84.9386675,59.979998 85.018,59.588002 85.018,59.196 C85.018,58.6453306 84.8756681,58.1903351 84.591,57.831 C84.3063319,57.4716649 83.8746696,57.292 83.296,57.292 C82.7733307,57.292 82.3556682,57.4553317 82.043,57.782 C81.7303318,58.1086683 81.5226672,58.5146642 81.42,59 L80.314,58.734 C80.5566679,57.9779962 80.9299975,57.404002 81.434,57.012 C81.9380025,56.619998 82.6006626,56.424 83.422,56.424 C83.814002,56.424 84.1849982,56.4799994 84.535,56.592 C84.8850017,56.7040006 85.1906654,56.8719989 85.452,57.096 C85.7133346,57.3200011 85.9186659,57.6023316 86.068,57.943 C86.2173341,58.2836684 86.292,58.6826644 86.292,59.14 C86.292,59.7560031 86.1403348,60.3509971 85.837,60.925 C85.5336651,61.4990029 85.1580022,62.0403308 84.71,62.549 C84.2619978,63.0576692 83.7766693,63.5243312 83.254,63.949 C82.7313307,64.3736688 82.2506689,64.7353318 81.812,65.034 L86.544,65.034 L86.544,66 L80.244,66 L80.244,65.146 Z M91.36,65.216 C91.7893355,65.216 92.1416653,65.0830013 92.417,64.817 C92.6923347,64.5509987 92.9069992,64.2196687 93.061,63.823 C93.2150008,63.4263313 93.322333,63.0016689 93.383,62.549 C93.443667,62.0963311 93.474,61.6833352 93.474,61.31 C93.474,60.9459982 93.443667,60.5353356 93.383,60.078 C93.322333,59.6206644 93.2150008,59.1936686 93.061,58.797 C92.9069992,58.4003314 92.6923347,58.066668 92.417,57.796 C92.1416653,57.525332 91.7893355,57.39 91.36,57.39 C90.9399979,57.39 90.594668,57.518332 90.324,57.775 C90.053332,58.0316679 89.8363341,58.3489981 89.673,58.727 C89.5096658,59.1050019 89.397667,59.5133311 89.337,59.952 C89.276333,60.3906689 89.246,60.7966648 89.246,61.17 C89.246,61.5526686 89.2716664,61.977331 89.323,62.444 C89.3743336,62.910669 89.4769992,63.3493313 89.631,63.76 C89.7850008,64.1706687 89.9996653,64.5159986 90.275,64.796 C90.5503347,65.0760014 90.9119978,65.216 91.36,65.216 Z M91.36,66.21 C90.7439969,66.2006666 90.2166689,66.0466682 89.778,65.748 C89.3393311,65.4493318 88.984668,65.066669 88.714,64.6 C88.443332,64.133331 88.2450006,63.6106696 88.119,63.032 C87.9929994,62.4533304 87.93,61.8793362 87.93,61.31 C87.93,60.7406638 87.9929994,60.1643362 88.119,59.581 C88.2450006,58.9976638 88.4456653,58.472669 88.721,58.006 C88.9963347,57.539331 89.3533311,57.1566682 89.792,56.858 C90.2306689,56.5593318 90.7673302,56.41 91.402,56.41 C92.0273365,56.41 92.5569978,56.5593318 92.991,56.858 C93.4250022,57.1566682 93.7749987,57.539331 94.041,58.006 C94.3070013,58.472669 94.4983327,58.9953304 94.615,59.574 C94.7316672,60.1526696 94.79,60.7266638 94.79,61.296 C94.79,61.8560028 94.7316672,62.4253304 94.615,63.004 C94.4983327,63.5826696 94.3070013,64.1076643 94.041,64.579 C93.7749987,65.0503357 93.4226689,65.4376652 92.984,65.741 C92.5453311,66.0443348 92.0040032,66.2006666 91.36,66.21 Z M99.34,65.216 C99.7693355,65.216 100.121665,65.0830013 100.397,64.817 C100.672335,64.5509987 100.886999,64.2196687 101.041,63.823 C101.195001,63.4263313 101.302333,63.0016689 101.363,62.549 C101.423667,62.0963311 101.454,61.6833352 101.454,61.31 C101.454,60.9459982 101.423667,60.5353356 101.363,60.078 C101.302333,59.6206644 101.195001,59.1936686 101.041,58.797 C100.886999,58.4003314 100.672335,58.066668 100.397,57.796 C100.121665,57.525332 99.7693355,57.39 99.34,57.39 C98.9199979,57.39 98.574668,57.518332 98.304,57.775 C98.033332,58.0316679 97.8163341,58.3489981 97.653,58.727 C97.4896658,59.1050019 97.377667,59.5133311 97.317,59.952 C97.256333,60.3906689 97.226,60.7966648 97.226,61.17 C97.226,61.5526686 97.2516664,61.977331 97.303,62.444 C97.3543336,62.910669 97.4569992,63.3493313 97.611,63.76 C97.7650008,64.1706687 97.9796653,64.5159986 98.255,64.796 C98.5303347,65.0760014 98.8919978,65.216 99.34,65.216 Z M99.34,66.21 C98.7239969,66.2006666 98.1966689,66.0466682 97.758,65.748 C97.3193311,65.4493318 96.964668,65.066669 96.694,64.6 C96.423332,64.133331 96.2250006,63.6106696 96.099,63.032 C95.9729994,62.4533304 95.91,61.8793362 95.91,61.31 C95.91,60.7406638 95.9729994,60.1643362 96.099,59.581 C96.2250006,58.9976638 96.4256653,58.472669 96.701,58.006 C96.9763347,57.539331 97.3333311,57.1566682 97.772,56.858 C98.2106689,56.5593318 98.7473302,56.41 99.382,56.41 C100.007336,56.41 100.536998,56.5593318 100.971,56.858 C101.405002,57.1566682 101.754999,57.539331 102.021,58.006 C102.287001,58.472669 102.478333,58.9953304 102.595,59.574 C102.711667,60.1526696 102.77,60.7266638 102.77,61.296 C102.77,61.8560028 102.711667,62.4253304 102.595,63.004 C102.478333,63.5826696 102.287001,64.1076643 102.021,64.579 C101.754999,65.0503357 101.402669,65.4376652 100.964,65.741 C100.525331,66.0443348 99.9840032,66.2006666 99.34,66.21 Z M108.062,56.116 L109.084,56.116 L105.024,66 L103.974,66 L108.062,56.116 Z M110.554,65.146 C110.834001,64.9593324 111.148998,64.7353346 111.499,64.474 C111.849002,64.2126654 112.201332,63.9256682 112.556,63.613 C112.910668,63.3003318 113.253665,62.9690018 113.585,62.619 C113.916335,62.2689982 114.210332,61.9050019 114.467,61.527 C114.723668,61.1489981 114.931333,60.764002 115.09,60.372 C115.248667,59.979998 115.328,59.588002 115.328,59.196 C115.328,58.6453306 115.185668,58.1903351 114.901,57.831 C114.616332,57.4716649 114.18467,57.292 113.606,57.292 C113.083331,57.292 112.665668,57.4553317 112.353,57.782 C112.040332,58.1086683 111.832667,58.5146642 111.73,59 L110.624,58.734 C110.866668,57.9779962 111.239997,57.404002 111.744,57.012 C112.248003,56.619998 112.910663,56.424 113.732,56.424 C114.124002,56.424 114.494998,56.4799994 114.845,56.592 C115.195002,56.7040006 115.500665,56.8719989 115.762,57.096 C116.023335,57.3200011 116.228666,57.6023316 116.378,57.943 C116.527334,58.2836684 116.602,58.6826644 116.602,59.14 C116.602,59.7560031 116.450335,60.3509971 116.147,60.925 C115.843665,61.4990029 115.468002,62.0403308 115.02,62.549 C114.571998,63.0576692 114.086669,63.5243312 113.564,63.949 C113.041331,64.3736688 112.560669,64.7353318 112.122,65.034 L116.854,65.034 L116.854,66 L110.554,66 L110.554,65.146 Z M121.67,65.216 C122.099335,65.216 122.451665,65.0830013 122.727,64.817 C123.002335,64.5509987 123.216999,64.2196687 123.371,63.823 C123.525001,63.4263313 123.632333,63.0016689 123.693,62.549 C123.753667,62.0963311 123.784,61.6833352 123.784,61.31 C123.784,60.9459982 123.753667,60.5353356 123.693,60.078 C123.632333,59.6206644 123.525001,59.1936686 123.371,58.797 C123.216999,58.4003314 123.002335,58.066668 122.727,57.796 C122.451665,57.525332 122.099335,57.39 121.67,57.39 C121.249998,57.39 120.904668,57.518332 120.634,57.775 C120.363332,58.0316679 120.146334,58.3489981 119.983,58.727 C119.819666,59.1050019 119.707667,59.5133311 119.647,59.952 C119.586333,60.3906689 119.556,60.7966648 119.556,61.17 C119.556,61.5526686 119.581666,61.977331 119.633,62.444 C119.684334,62.910669 119.786999,63.3493313 119.941,63.76 C120.095001,64.1706687 120.309665,64.5159986 120.585,64.796 C120.860335,65.0760014 121.221998,65.216 121.67,65.216 Z M121.67,66.21 C121.053997,66.2006666 120.526669,66.0466682 120.088,65.748 C119.649331,65.4493318 119.294668,65.066669 119.024,64.6 C118.753332,64.133331 118.555001,63.6106696 118.429,63.032 C118.302999,62.4533304 118.24,61.8793362 118.24,61.31 C118.24,60.7406638 118.302999,60.1643362 118.429,59.581 C118.555001,58.9976638 118.755665,58.472669 119.031,58.006 C119.306335,57.539331 119.663331,57.1566682 120.102,56.858 C120.540669,56.5593318 121.07733,56.41 121.712,56.41 C122.337336,56.41 122.866998,56.5593318 123.301,56.858 C123.735002,57.1566682 124.084999,57.539331 124.351,58.006 C124.617001,58.472669 124.808333,58.9953304 124.925,59.574 C125.041667,60.1526696 125.1,60.7266638 125.1,61.296 C125.1,61.8560028 125.041667,62.4253304 124.925,63.004 C124.808333,63.5826696 124.617001,64.1076643 124.351,64.579 C124.084999,65.0503357 123.732669,65.4376652 123.294,65.741 C122.855331,66.0443348 122.314003,66.2006666 121.67,66.21 Z M129.65,65.216 C130.079335,65.216 130.431665,65.0830013 130.707,64.817 C130.982335,64.5509987 131.196999,64.2196687 131.351,63.823 C131.505001,63.4263313 131.612333,63.0016689 131.673,62.549 C131.733667,62.0963311 131.764,61.6833352 131.764,61.31 C131.764,60.9459982 131.733667,60.5353356 131.673,60.078 C131.612333,59.6206644 131.505001,59.1936686 131.351,58.797 C131.196999,58.4003314 130.982335,58.066668 130.707,57.796 C130.431665,57.525332 130.079335,57.39 129.65,57.39 C129.229998,57.39 128.884668,57.518332 128.614,57.775 C128.343332,58.0316679 128.126334,58.3489981 127.963,58.727 C127.799666,59.1050019 127.687667,59.5133311 127.627,59.952 C127.566333,60.3906689 127.536,60.7966648 127.536,61.17 C127.536,61.5526686 127.561666,61.977331 127.613,62.444 C127.664334,62.910669 127.766999,63.3493313 127.921,63.76 C128.075001,64.1706687 128.289665,64.5159986 128.565,64.796 C128.840335,65.0760014 129.201998,65.216 129.65,65.216 Z M129.65,66.21 C129.033997,66.2006666 128.506669,66.0466682 128.068,65.748 C127.629331,65.4493318 127.274668,65.066669 127.004,64.6 C126.733332,64.133331 126.535001,63.6106696 126.409,63.032 C126.282999,62.4533304 126.22,61.8793362 126.22,61.31 C126.22,60.7406638 126.282999,60.1643362 126.409,59.581 C126.535001,58.9976638 126.735665,58.472669 127.011,58.006 C127.286335,57.539331 127.643331,57.1566682 128.082,56.858 C128.520669,56.5593318 129.05733,56.41 129.692,56.41 C130.317336,56.41 130.846998,56.5593318 131.281,56.858 C131.715002,57.1566682 132.064999,57.539331 132.331,58.006 C132.597001,58.472669 132.788333,58.9953304 132.905,59.574 C133.021667,60.1526696 133.08,60.7266638 133.08,61.296 C133.08,61.8560028 133.021667,62.4253304 132.905,63.004 C132.788333,63.5826696 132.597001,64.1076643 132.331,64.579 C132.064999,65.0503357 131.712669,65.4376652 131.274,65.741 C130.835331,66.0443348 130.294003,66.2006666 129.65,66.21 Z M143.454,64.488 C143.173999,65.0480028 142.798336,65.4749985 142.327,65.769 C141.855664,66.0630015 141.284003,66.21 140.612,66.21 C140.061331,66.21 139.583002,66.1143343 139.177,65.923 C138.770998,65.7316657 138.435001,65.4726683 138.169,65.146 C137.902999,64.8193317 137.707001,64.4343356 137.581,63.991 C137.454999,63.5476644 137.392,63.0740025 137.392,62.57 C137.392,62.0566641 137.459666,61.5783355 137.595,61.135 C137.730334,60.6916644 137.930999,60.3066683 138.197,59.98 C138.463001,59.6533317 138.796665,59.3943343 139.198,59.203 C139.599335,59.0116657 140.070664,58.916 140.612,58.916 C141.293337,58.916 141.860331,59.0676651 142.313,59.371 C142.765669,59.6743349 143.131999,60.1013306 143.412,60.652 L142.432,61.114 C142.077332,60.255329 141.480004,59.826 140.64,59.826 C140.285332,59.826 139.979668,59.8959993 139.723,60.036 C139.466332,60.1760007 139.256334,60.3673321 139.093,60.61 C138.929666,60.8526679 138.808334,61.1349984 138.729,61.457 C138.649666,61.7790016 138.61,62.1266648 138.61,62.5 C138.61,62.8546684 138.647333,63.1999983 138.722,63.536 C138.796667,63.8720017 138.917999,64.1706654 139.086,64.432 C139.254001,64.6933346 139.468665,64.9033325 139.73,65.062 C139.991335,65.2206675 140.313331,65.3 140.696,65.3 C141.181336,65.3 141.573332,65.1763346 141.872,64.929 C142.170668,64.6816654 142.399333,64.362002 142.558,63.97 L143.454,64.488 Z M144.742,56.116 L145.904,56.116 L145.904,60.47 C145.988,60.2646656 146.095333,60.0686676 146.226,59.882 C146.356667,59.6953324 146.515332,59.5296674 146.702,59.385 C146.888668,59.2403326 147.103332,59.1260004 147.346,59.042 C147.588668,58.9579996 147.859332,58.916 148.158,58.916 C148.87667,58.916 149.406332,59.1516643 149.747,59.623 C150.087668,60.0943357 150.258,60.7313293 150.258,61.534 L150.258,66 L149.096,66 L149.096,61.716 C149.096,61.1279971 148.974668,60.6870015 148.732,60.393 C148.489332,60.0989985 148.144002,59.952 147.696,59.952 C147.434665,59.952 147.194334,60.0079994 146.975,60.12 C146.755666,60.2320006 146.566667,60.3906656 146.408,60.596 C146.249333,60.8013344 146.125667,61.0486652 146.037,61.338 C145.948333,61.6273348 145.904,61.9446649 145.904,62.29 L145.904,66 L144.742,66 L144.742,56.116 Z M156.348,66 C156.245333,65.6639983 156.184667,65.262669 156.166,64.796 C155.979332,65.2253355 155.692335,65.568332 155.305,65.825 C154.917665,66.0816679 154.458003,66.21 153.926,66.21 C153.253997,66.21 152.722002,66.0186686 152.33,65.636 C151.937998,65.2533314 151.742,64.7400032 151.742,64.096 C151.742,63.7319982 151.807333,63.4263346 151.938,63.179 C152.068667,62.9316654 152.250665,62.7263341 152.484,62.563 C152.717334,62.3996658 152.992665,62.2713338 153.31,62.178 C153.627335,62.0846662 153.972665,62.0100003 154.346,61.954 L156.11,61.688 L156.11,61.254 C156.11,60.9459985 156.072667,60.6986676 155.998,60.512 C155.923333,60.3253324 155.820667,60.1806672 155.69,60.078 C155.559333,59.9753328 155.410001,59.9076668 155.242,59.875 C155.073999,59.8423332 154.896668,59.826 154.71,59.826 C154.177997,59.826 153.739335,59.923999 153.394,60.12 C153.048665,60.316001 152.759334,60.5633318 152.526,60.862 L151.924,60.106 C152.194668,59.7793317 152.570331,59.4993345 153.051,59.266 C153.531669,59.0326655 154.126663,58.916 154.836,58.916 C155.694671,58.916 156.317665,59.1073314 156.705,59.49 C157.092335,59.8726686 157.286,60.4886624 157.286,61.338 L157.286,64.124 C157.286,64.3480011 157.288333,64.5439992 157.293,64.712 C157.297667,64.8800008 157.307,65.0363326 157.321,65.181 C157.335,65.3256674 157.356,65.4633327 157.384,65.594 C157.412,65.7246673 157.449333,65.8599993 157.496,66 L156.348,66 Z M156.11,62.458 L154.458,62.724 C153.888664,62.8266672 153.485001,62.9806656 153.247,63.186 C153.008999,63.3913344 152.89,63.6759982 152.89,64.04 C152.89,64.4133352 152.999666,64.7259987 153.219,64.978 C153.438334,65.2300013 153.762665,65.356 154.192,65.356 C154.453335,65.356 154.700666,65.3046672 154.934,65.202 C155.167334,65.0993328 155.370332,64.9570009 155.543,64.775 C155.715668,64.5929991 155.853333,64.3736679 155.956,64.117 C156.058667,63.860332 156.11,63.5780015 156.11,63.27 L156.11,62.458 Z M159.148,59.112 L160.156,59.112 L160.268,60.652 C160.464001,60.1479975 160.776665,59.7326683 161.206,59.406 C161.635335,59.0793317 162.143997,58.916 162.732,58.916 L162.732,60.148 C162.601333,60.1199999 162.456667,60.106 162.298,60.106 C162.064665,60.106 161.831335,60.1479996 161.598,60.232 C161.364666,60.3160004 161.152334,60.4513324 160.961,60.638 C160.769666,60.8246676 160.613334,61.0649985 160.492,61.359 C160.370666,61.6530015 160.31,62.0099979 160.31,62.43 L160.31,66 L159.148,66 L159.148,59.112 Z M168.206,66 C168.103333,65.6639983 168.042667,65.262669 168.024,64.796 C167.837332,65.2253355 167.550335,65.568332 167.163,65.825 C166.775665,66.0816679 166.316003,66.21 165.784,66.21 C165.111997,66.21 164.580002,66.0186686 164.188,65.636 C163.795998,65.2533314 163.6,64.7400032 163.6,64.096 C163.6,63.7319982 163.665333,63.4263346 163.796,63.179 C163.926667,62.9316654 164.108666,62.7263341 164.342,62.563 C164.575334,62.3996658 164.850665,62.2713338 165.168,62.178 C165.485335,62.0846662 165.830665,62.0100003 166.204,61.954 L167.968,61.688 L167.968,61.254 C167.968,60.9459985 167.930667,60.6986676 167.856,60.512 C167.781333,60.3253324 167.678667,60.1806672 167.548,60.078 C167.417333,59.9753328 167.268001,59.9076668 167.1,59.875 C166.931999,59.8423332 166.754668,59.826 166.568,59.826 C166.035997,59.826 165.597335,59.923999 165.252,60.12 C164.906665,60.316001 164.617335,60.5633318 164.384,60.862 L163.782,60.106 C164.052668,59.7793317 164.428331,59.4993345 164.909,59.266 C165.389669,59.0326655 165.984663,58.916 166.694,58.916 C167.552671,58.916 168.175665,59.1073314 168.563,59.49 C168.950335,59.8726686 169.144,60.4886624 169.144,61.338 L169.144,64.124 C169.144,64.3480011 169.146333,64.5439992 169.151,64.712 C169.155667,64.8800008 169.165,65.0363326 169.179,65.181 C169.193,65.3256674 169.214,65.4633327 169.242,65.594 C169.27,65.7246673 169.307333,65.8599993 169.354,66 L168.206,66 Z M167.968,62.458 L166.316,62.724 C165.746664,62.8266672 165.343001,62.9806656 165.105,63.186 C164.866999,63.3913344 164.748,63.6759982 164.748,64.04 C164.748,64.4133352 164.857666,64.7259987 165.077,64.978 C165.296334,65.2300013 165.620665,65.356 166.05,65.356 C166.311335,65.356 166.558666,65.3046672 166.792,65.202 C167.025334,65.0993328 167.228332,64.9570009 167.401,64.775 C167.573668,64.5929991 167.711333,64.3736679 167.814,64.117 C167.916667,63.860332 167.968,63.5780015 167.968,63.27 L167.968,62.458 Z M176.76,64.488 C176.479999,65.0480028 176.104336,65.4749985 175.633,65.769 C175.161664,66.0630015 174.590003,66.21 173.918,66.21 C173.367331,66.21 172.889002,66.1143343 172.483,65.923 C172.076998,65.7316657 171.741001,65.4726683 171.475,65.146 C171.208999,64.8193317 171.013001,64.4343356 170.887,63.991 C170.760999,63.5476644 170.698,63.0740025 170.698,62.57 C170.698,62.0566641 170.765666,61.5783355 170.901,61.135 C171.036334,60.6916644 171.236999,60.3066683 171.503,59.98 C171.769001,59.6533317 172.102665,59.3943343 172.504,59.203 C172.905335,59.0116657 173.376664,58.916 173.918,58.916 C174.599337,58.916 175.166331,59.0676651 175.619,59.371 C176.071669,59.6743349 176.437999,60.1013306 176.718,60.652 L175.738,61.114 C175.383332,60.255329 174.786004,59.826 173.946,59.826 C173.591332,59.826 173.285668,59.8959993 173.029,60.036 C172.772332,60.1760007 172.562334,60.3673321 172.399,60.61 C172.235666,60.8526679 172.114334,61.1349984 172.035,61.457 C171.955666,61.7790016 171.916,62.1266648 171.916,62.5 C171.916,62.8546684 171.953333,63.1999983 172.028,63.536 C172.102667,63.8720017 172.223999,64.1706654 172.392,64.432 C172.560001,64.6933346 172.774665,64.9033325 173.036,65.062 C173.297335,65.2206675 173.619331,65.3 174.002,65.3 C174.487336,65.3 174.879332,65.1763346 175.178,64.929 C175.476668,64.6816654 175.705333,64.362002 175.864,63.97 L176.76,64.488 Z M178.65,59.91 L177.474,59.91 L177.474,59.112 L177.726,59.112 C178.015335,59.112 178.241666,59.081667 178.405,59.021 C178.568334,58.960333 178.692,58.8670006 178.776,58.741 C178.86,58.6149994 178.920666,58.4493344 178.958,58.244 C178.995334,58.0386656 179.028,57.7866682 179.056,57.488 L179.084,57.236 L179.812,57.236 L179.812,59.112 L181.296,59.112 L181.296,59.91 L179.812,59.91 L179.812,64.194 C179.812,64.586002 179.870333,64.8683325 179.987,65.041 C180.103667,65.2136675 180.320665,65.3 180.638,65.3 C180.890001,65.3 181.123332,65.2440006 181.338,65.132 L181.464,65.972 C181.109332,66.1306675 180.717335,66.21 180.288,66.21 C179.951998,66.21 179.679001,66.1633338 179.469,66.07 C179.258999,65.9766662 179.093334,65.8506675 178.972,65.692 C178.850666,65.5333325 178.766667,65.3420011 178.72,65.118 C178.673333,64.8939989 178.65,64.6513346 178.65,64.39 L178.65,59.91 Z M183.578,62.822 C183.624667,63.6153373 183.827665,64.2289978 184.187,64.663 C184.546335,65.0970022 185.047997,65.314 185.692,65.314 C186.504004,65.314 187.115331,64.9313372 187.526,64.166 L188.408,64.656 C188.137332,65.1133356 187.778002,65.4866652 187.33,65.776 C186.881998,66.0653348 186.317337,66.21 185.636,66.21 C185.094664,66.21 184.621002,66.1166676 184.215,65.93 C183.808998,65.7433324 183.470668,65.4866683 183.2,65.16 C182.929332,64.8333317 182.726334,64.4506689 182.591,64.012 C182.455666,63.5733311 182.388,63.1020025 182.388,62.598 C182.388,62.1033309 182.453333,61.6320022 182.584,61.184 C182.714667,60.7359978 182.912999,60.3440017 183.179,60.008 C183.445001,59.6719983 183.771665,59.406001 184.159,59.21 C184.546335,59.013999 185.001331,58.916 185.524,58.916 C186.028003,58.916 186.466665,59.0116657 186.84,59.203 C187.213335,59.3943343 187.523665,59.6509984 187.771,59.973 C188.018335,60.2950016 188.204999,60.6683312 188.331,61.093 C188.457001,61.5176688 188.52,61.9679976 188.52,62.444 C188.52,62.5466672 188.517667,62.6259997 188.513,62.682 C188.508333,62.7380003 188.506,62.7846665 188.506,62.822 L183.578,62.822 Z M185.51,59.798 C184.921997,59.798 184.467002,60.0079979 184.145,60.428 C183.822998,60.8480021 183.638667,61.4126631 183.592,62.122 L187.33,62.122 C187.33,61.8326652 187.297334,61.5503347 187.232,61.275 C187.166666,60.9996653 187.059334,60.7523344 186.91,60.533 C186.760666,60.3136656 186.571668,60.136334 186.343,60.001 C186.114332,59.865666 185.836668,59.798 185.51,59.798 Z M189.934,59.112 L190.942,59.112 L191.054,60.652 C191.250001,60.1479975 191.562665,59.7326683 191.992,59.406 C192.421335,59.0793317 192.929997,58.916 193.518,58.916 L193.518,60.148 C193.387333,60.1199999 193.242667,60.106 193.084,60.106 C192.850665,60.106 192.617335,60.1479996 192.384,60.232 C192.150666,60.3160004 191.938334,60.4513324 191.747,60.638 C191.555666,60.8246676 191.399334,61.0649985 191.278,61.359 C191.156666,61.6530015 191.096,62.0099979 191.096,62.43 L191.096,66 L189.934,66 L189.934,59.112 Z M194.792,64.306 C195.025334,64.6046682 195.326331,64.851999 195.695,65.048 C196.063669,65.244001 196.467331,65.342 196.906,65.342 C197.298002,65.342 197.638665,65.2486676 197.928,65.062 C198.217335,64.8753324 198.362,64.5953352 198.362,64.222 C198.362,63.9326652 198.266334,63.7063342 198.075,63.543 C197.883666,63.3796659 197.645668,63.2420006 197.361,63.13 C197.076332,63.0179994 196.766002,62.9153338 196.43,62.822 C196.093998,62.7286662 195.783668,62.6073341 195.499,62.458 C195.214332,62.3086659 194.976334,62.1126679 194.785,61.87 C194.593666,61.6273321 194.498,61.2960021 194.498,60.876 C194.498,60.5306649 194.567999,60.2343346 194.708,59.987 C194.848001,59.7396654 195.032332,59.5366675 195.261,59.378 C195.489668,59.2193325 195.753332,59.102667 196.052,59.028 C196.350668,58.953333 196.663332,58.916 196.99,58.916 C197.960672,58.916 198.767997,59.1959972 199.412,59.756 L198.824,60.54 C198.618666,60.3253323 198.345668,60.1456674 198.005,60.001 C197.664332,59.8563326 197.312002,59.784 196.948,59.784 C196.789333,59.784 196.633001,59.8026665 196.479,59.84 C196.324999,59.8773335 196.189667,59.9356663 196.073,60.015 C195.956333,60.0943337 195.863,60.1946661 195.793,60.316 C195.723,60.4373339 195.688,60.5866658 195.688,60.764 C195.688,61.034668 195.783666,61.2446659 195.975,61.394 C196.166334,61.5433341 196.404332,61.6716661 196.689,61.779 C196.973668,61.8863339 197.281665,61.9889995 197.613,62.087 C197.944335,62.1850005 198.252332,62.3109992 198.537,62.465 C198.821668,62.6190008 199.059666,62.8219987 199.251,63.074 C199.442334,63.3260013 199.538,63.6619979 199.538,64.082 C199.538,64.4366684 199.465667,64.7469987 199.321,65.013 C199.176333,65.2790013 198.985001,65.5006658 198.747,65.678 C198.508999,65.8553342 198.233668,65.9883329 197.921,66.077 C197.608332,66.1656671 197.284002,66.21 196.948,66.21 C195.790661,66.21 194.871337,65.8366704 194.19,65.09 L194.792,64.306 Z" id="200/200-characters" fill="#4C5358"></path>
                <path d="M0.5,45.5 L199.5,45.5" id="Line" stroke="#7C878E" stroke-linecap="square"></path>
                <path d="M3.696,25.824 L0.352,25.824 L0.352,24.704 L8.464,24.704 L8.464,25.824 L5.136,25.824 L5.136,36 L3.696,36 L3.696,25.824 Z M9.84,24.704 L11.168,24.704 L11.168,29.68 C11.2640005,29.4453322 11.3866659,29.2213344 11.536,29.008 C11.6853341,28.7946656 11.8666656,28.6053342 12.08,28.44 C12.2933344,28.2746658 12.5386653,28.1440005 12.816,28.048 C13.0933347,27.9519995 13.402665,27.904 13.744,27.904 C14.5653374,27.904 15.1706647,28.1733306 15.56,28.712 C15.9493353,29.2506694 16.144,29.9786621 16.144,30.896 L16.144,36 L14.816,36 L14.816,31.104 C14.816,30.4319966 14.6773347,29.9280017 14.4,29.592 C14.1226653,29.2559983 13.7280026,29.088 13.216,29.088 C12.9173318,29.088 12.6426679,29.1519994 12.392,29.28 C12.1413321,29.4080006 11.9253342,29.5893322 11.744,29.824 C11.5626658,30.0586678 11.4213338,30.3413317 11.32,30.672 C11.2186662,31.0026683 11.168,31.3653314 11.168,31.76 L11.168,36 L9.84,36 L9.84,24.704 Z M18.16,25.072 L19.488,25.072 L19.488,26.4 L18.16,26.4 L18.16,25.072 Z M18.16,28.128 L19.488,28.128 L19.488,36 L18.16,36 L18.16,28.128 Z M21.68,34.064 C21.946668,34.405335 22.2906646,34.6879989 22.712,34.912 C23.1333354,35.1360011 23.5946642,35.248 24.096,35.248 C24.5440022,35.248 24.9333317,35.1413344 25.264,34.928 C25.5946683,34.7146656 25.76,34.3946688 25.76,33.968 C25.76,33.6373317 25.6506678,33.3786676 25.432,33.192 C25.2133322,33.0053324 24.941335,32.8480006 24.616,32.72 C24.290665,32.5919994 23.9360019,32.4746672 23.552,32.368 C23.1679981,32.2613328 22.813335,32.1226675 22.488,31.952 C22.162665,31.7813325 21.8906678,31.5573347 21.672,31.28 C21.4533322,31.0026653 21.344,30.6240024 21.344,30.144 C21.344,29.7493314 21.4239992,29.4106681 21.584,29.128 C21.7440008,28.8453319 21.9546654,28.6133342 22.216,28.432 C22.4773346,28.2506658 22.778665,28.1173338 23.12,28.032 C23.461335,27.9466662 23.8186648,27.904 24.192,27.904 C25.3013389,27.904 26.2239963,28.2239968 26.96,28.864 L26.288,29.76 C26.0533322,29.5146654 25.7413353,29.3093342 25.352,29.144 C24.9626647,28.9786658 24.5600021,28.896 24.144,28.896 C23.9626658,28.896 23.7840009,28.9173331 23.608,28.96 C23.4319991,29.0026669 23.277334,29.0693329 23.144,29.16 C23.010666,29.2506671 22.9040004,29.3653326 22.824,29.504 C22.7439996,29.6426674 22.704,29.8133323 22.704,30.016 C22.704,30.3253349 22.8133322,30.5653325 23.032,30.736 C23.2506678,30.9066675 23.522665,31.0533327 23.848,31.176 C24.173335,31.2986673 24.5253314,31.4159994 24.904,31.528 C25.2826686,31.6400006 25.634665,31.7839991 25.96,31.96 C26.285335,32.1360009 26.5573322,32.3679986 26.776,32.656 C26.9946678,32.9440014 27.104,33.3279976 27.104,33.808 C27.104,34.2133354 27.0213342,34.5679985 26.856,34.872 C26.6906658,35.1760015 26.4720014,35.4293323 26.2,35.632 C25.9279986,35.8346677 25.6133351,35.9866662 25.256,36.088 C24.8986649,36.1893338 24.5280019,36.24 24.144,36.24 C22.8213267,36.24 21.7706706,35.8133376 20.992,34.96 L21.68,34.064 Z M32.256,25.072 L33.584,25.072 L33.584,26.4 L32.256,26.4 L32.256,25.072 Z M32.256,28.128 L33.584,28.128 L33.584,36 L32.256,36 L32.256,28.128 Z M35.776,34.064 C36.042668,34.405335 36.3866646,34.6879989 36.808,34.912 C37.2293354,35.1360011 37.6906642,35.248 38.192,35.248 C38.6400022,35.248 39.0293317,35.1413344 39.36,34.928 C39.6906683,34.7146656 39.856,34.3946688 39.856,33.968 C39.856,33.6373317 39.7466678,33.3786676 39.528,33.192 C39.3093322,33.0053324 39.037335,32.8480006 38.712,32.72 C38.386665,32.5919994 38.0320019,32.4746672 37.648,32.368 C37.2639981,32.2613328 36.909335,32.1226675 36.584,31.952 C36.258665,31.7813325 35.9866678,31.5573347 35.768,31.28 C35.5493322,31.0026653 35.44,30.6240024 35.44,30.144 C35.44,29.7493314 35.5199992,29.4106681 35.68,29.128 C35.8400008,28.8453319 36.0506654,28.6133342 36.312,28.432 C36.5733346,28.2506658 36.874665,28.1173338 37.216,28.032 C37.557335,27.9466662 37.9146648,27.904 38.288,27.904 C39.3973389,27.904 40.3199963,28.2239968 41.056,28.864 L40.384,29.76 C40.1493322,29.5146654 39.8373353,29.3093342 39.448,29.144 C39.0586647,28.9786658 38.6560021,28.896 38.24,28.896 C38.0586658,28.896 37.8800009,28.9173331 37.704,28.96 C37.5279991,29.0026669 37.373334,29.0693329 37.24,29.16 C37.106666,29.2506671 37.0000004,29.3653326 36.92,29.504 C36.8399996,29.6426674 36.8,29.8133323 36.8,30.016 C36.8,30.3253349 36.9093322,30.5653325 37.128,30.736 C37.3466678,30.9066675 37.618665,31.0533327 37.944,31.176 C38.269335,31.2986673 38.6213314,31.4159994 39,31.528 C39.3786686,31.6400006 39.730665,31.7839991 40.056,31.96 C40.381335,32.1360009 40.6533322,32.3679986 40.872,32.656 C41.0906678,32.9440014 41.2,33.3279976 41.2,33.808 C41.2,34.2133354 41.1173342,34.5679985 40.952,34.872 C40.7866658,35.1760015 40.5680014,35.4293323 40.296,35.632 C40.0239986,35.8346677 39.7093351,35.9866662 39.352,36.088 C38.9946649,36.1893338 38.6240019,36.24 38.24,36.24 C36.9173267,36.24 35.8666706,35.8133376 35.088,34.96 L35.776,34.064 Z M46.496,34.064 C46.762668,34.405335 47.1066646,34.6879989 47.528,34.912 C47.9493354,35.1360011 48.4106642,35.248 48.912,35.248 C49.3600022,35.248 49.7493317,35.1413344 50.08,34.928 C50.4106683,34.7146656 50.576,34.3946688 50.576,33.968 C50.576,33.6373317 50.4666678,33.3786676 50.248,33.192 C50.0293322,33.0053324 49.757335,32.8480006 49.432,32.72 C49.106665,32.5919994 48.7520019,32.4746672 48.368,32.368 C47.9839981,32.2613328 47.629335,32.1226675 47.304,31.952 C46.978665,31.7813325 46.7066678,31.5573347 46.488,31.28 C46.2693322,31.0026653 46.16,30.6240024 46.16,30.144 C46.16,29.7493314 46.2399992,29.4106681 46.4,29.128 C46.5600008,28.8453319 46.7706654,28.6133342 47.032,28.432 C47.2933346,28.2506658 47.594665,28.1173338 47.936,28.032 C48.277335,27.9466662 48.6346648,27.904 49.008,27.904 C50.1173389,27.904 51.0399963,28.2239968 51.776,28.864 L51.104,29.76 C50.8693322,29.5146654 50.5573353,29.3093342 50.168,29.144 C49.7786647,28.9786658 49.3760021,28.896 48.96,28.896 C48.7786658,28.896 48.6000009,28.9173331 48.424,28.96 C48.2479991,29.0026669 48.093334,29.0693329 47.96,29.16 C47.826666,29.2506671 47.7200004,29.3653326 47.64,29.504 C47.5599996,29.6426674 47.52,29.8133323 47.52,30.016 C47.52,30.3253349 47.6293322,30.5653325 47.848,30.736 C48.0666678,30.9066675 48.338665,31.0533327 48.664,31.176 C48.989335,31.2986673 49.3413314,31.4159994 49.72,31.528 C50.0986686,31.6400006 50.450665,31.7839991 50.776,31.96 C51.101335,32.1360009 51.3733322,32.3679986 51.592,32.656 C51.8106678,32.9440014 51.92,33.3279976 51.92,33.808 C51.92,34.2133354 51.8373342,34.5679985 51.672,34.872 C51.5066658,35.1760015 51.2880014,35.4293323 51.016,35.632 C50.7439986,35.8346677 50.4293351,35.9866662 50.072,36.088 C49.7146649,36.1893338 49.3440019,36.24 48.96,36.24 C47.6373267,36.24 46.5866706,35.8133376 45.808,34.96 L46.496,34.064 Z M56.736,36.24 C56.1386637,36.24 55.6133356,36.1306678 55.16,35.912 C54.7066644,35.6933322 54.3280015,35.3946686 54.024,35.016 C53.7199985,34.6373314 53.4933341,34.1946692 53.344,33.688 C53.1946659,33.1813308 53.12,32.6346696 53.12,32.048 C53.12,31.4613304 53.1973326,30.9173358 53.352,30.416 C53.5066674,29.9146642 53.7359985,29.4773352 54.04,29.104 C54.3440015,28.7306648 54.7226644,28.4373344 55.176,28.224 C55.6293356,28.0106656 56.1493304,27.904 56.736,27.904 C57.3226696,27.904 57.8426644,28.0106656 58.296,28.224 C58.7493356,28.4373344 59.1306651,28.7279982 59.44,29.096 C59.7493349,29.4640018 59.9813326,29.9013308 60.136,30.408 C60.2906674,30.9146692 60.368,31.4613304 60.368,32.048 C60.368,32.6346696 60.2906674,33.1813308 60.136,33.688 C59.9813326,34.1946692 59.7493349,34.6373314 59.44,35.016 C59.1306651,35.3946686 58.7493356,35.6933322 58.296,35.912 C57.8426644,36.1306678 57.3226696,36.24 56.736,36.24 Z M56.768,35.2 C57.1306685,35.2 57.4506653,35.1200008 57.728,34.96 C58.0053347,34.7999992 58.2346658,34.5786681 58.416,34.296 C58.5973342,34.0133319 58.7359995,33.6800019 58.832,33.296 C58.9280005,32.9119981 58.976,32.4960022 58.976,32.048 C58.976,31.5999978 58.9280005,31.1866686 58.832,30.808 C58.7359995,30.4293314 58.592001,30.1013347 58.4,29.824 C58.207999,29.5466653 57.9733347,29.3306674 57.696,29.176 C57.4186653,29.0213326 57.0986685,28.944 56.736,28.944 C56.3626648,28.944 56.0373347,29.0213326 55.76,29.176 C55.4826653,29.3306674 55.2533342,29.5466653 55.072,29.824 C54.8906658,30.1013347 54.7520005,30.4293314 54.656,30.808 C54.5599995,31.1866686 54.512,31.5999978 54.512,32.048 C54.512,32.4960022 54.5599995,32.9119981 54.656,33.296 C54.7520005,33.6800019 54.8933324,34.0133319 55.08,34.296 C55.2666676,34.5786681 55.5013319,34.7999992 55.784,34.96 C56.0666681,35.1200008 56.3946648,35.2 56.768,35.2 Z M62.064,28.128 L63.216,28.128 L63.36,29.664 C63.552001,29.1199973 63.8506646,28.6906682 64.256,28.376 C64.6613354,28.0613318 65.1573304,27.904 65.744,27.904 C66.3626698,27.904 66.8479982,28.0799982 67.2,28.432 C67.5520018,28.7840018 67.7759995,29.2106642 67.872,29.712 C67.9680005,29.4666654 68.0879993,29.2346678 68.232,29.016 C68.3760007,28.7973322 68.5493323,28.6053342 68.752,28.44 C68.9546677,28.2746658 69.189332,28.1440005 69.456,28.048 C69.722668,27.9519995 70.026665,27.904 70.368,27.904 C70.8160022,27.904 71.1866652,27.9813326 71.48,28.136 C71.7733348,28.2906674 72.0079991,28.501332 72.184,28.768 C72.3600009,29.034668 72.485333,29.3466649 72.56,29.704 C72.634667,30.0613351 72.672,30.4373314 72.672,30.832 L72.672,36 L71.344,36 L71.344,31.168 C71.344,30.4639965 71.2186679,29.9386684 70.968,29.592 C70.7173321,29.2453316 70.3520024,29.072 69.872,29.072 C69.3493307,29.072 68.9120018,29.3039977 68.56,29.768 C68.2079982,30.2320023 68.032,30.8959957 68.032,31.76 L68.032,36 L66.704,36 L66.704,31.232 C66.704,30.4959963 66.5760013,29.9520018 66.32,29.6 C66.0639987,29.2479982 65.706669,29.072 65.248,29.072 C64.7359974,29.072 64.2986685,29.309331 63.936,29.784 C63.5733315,30.258669 63.392,30.9439955 63.392,31.84 L63.392,36 L62.064,36 L62.064,28.128 Z M75.696,32.368 C75.7493336,33.2746712 75.9813313,33.9759975 76.392,34.472 C76.8026687,34.9680025 77.3759963,35.216 78.112,35.216 C79.0400046,35.216 79.7386643,34.778671 80.208,33.904 L81.216,34.464 C80.9066651,34.9866693 80.4960026,35.4133317 79.984,35.744 C79.4719974,36.0746683 78.8266706,36.24 78.048,36.24 C77.4293302,36.24 76.8880023,36.1333344 76.424,35.92 C75.9599977,35.7066656 75.5733349,35.4133352 75.264,35.04 C74.9546651,34.6666648 74.7226674,34.2293358 74.568,33.728 C74.4133326,33.2266642 74.336,32.6880029 74.336,32.112 C74.336,31.5466638 74.4106659,31.0080026 74.56,30.496 C74.7093341,29.9839974 74.9359985,29.5360019 75.24,29.152 C75.5440015,28.7679981 75.9173311,28.4640011 76.36,28.24 C76.8026689,28.0159989 77.3226637,27.904 77.92,27.904 C78.4960029,27.904 78.9973312,28.0133322 79.424,28.232 C79.8506688,28.4506678 80.2053319,28.7439982 80.488,29.112 C80.7706681,29.4800018 80.9839993,29.9066642 81.128,30.392 C81.2720007,30.8773358 81.344,31.3919973 81.344,31.936 C81.344,32.0533339 81.3413334,32.1439997 81.336,32.208 C81.3306666,32.2720003 81.328,32.3253331 81.328,32.368 L75.696,32.368 Z M77.904,28.912 C77.2319966,28.912 76.7120018,29.1519976 76.344,29.632 C75.9759982,30.1120024 75.7653336,30.7573293 75.712,31.568 L79.984,31.568 C79.984,31.2373317 79.946667,30.9146682 79.872,30.6 C79.797333,30.2853318 79.6746675,30.0026679 79.504,29.752 C79.3333325,29.5013321 79.1173346,29.2986674 78.856,29.144 C78.5946654,28.9893326 78.2773352,28.912 77.904,28.912 Z M87.248,29.04 L85.904,29.04 L85.904,28.128 L86.192,28.128 C86.5226683,28.128 86.7813324,28.0933337 86.968,28.024 C87.1546676,27.9546663 87.2959995,27.8480007 87.392,27.704 C87.4880005,27.5599993 87.5573331,27.3706678 87.6,27.136 C87.6426669,26.9013322 87.6799998,26.613335 87.712,26.272 L87.744,25.984 L88.576,25.984 L88.576,28.128 L90.272,28.128 L90.272,29.04 L88.576,29.04 L88.576,33.936 C88.576,34.3840022 88.642666,34.7066657 88.776,34.904 C88.909334,35.1013343 89.1573315,35.2 89.52,35.2 C89.8080014,35.2 90.0746654,35.1360006 90.32,35.008 L90.464,35.968 C90.0586646,36.1493342 89.6106691,36.24 89.12,36.24 C88.7359981,36.24 88.4240012,36.1866672 88.184,36.08 C87.9439988,35.9733328 87.7546674,35.8293342 87.616,35.648 C87.4773326,35.4666658 87.3813336,35.2480013 87.328,34.992 C87.2746664,34.7359987 87.248,34.4586682 87.248,34.16 L87.248,29.04 Z M91.696,37.68 C91.8133339,37.7226669 91.9466659,37.7599998 92.096,37.792 C92.2453341,37.8240002 92.3999992,37.84 92.56,37.84 C92.7306675,37.84 92.8773327,37.8160002 93,37.768 C93.1226673,37.7199998 93.2346662,37.6320006 93.336,37.504 C93.4373338,37.3759994 93.5333329,37.2053344 93.624,36.992 C93.7146671,36.7786656 93.8133328,36.501335 93.92,36.16 L91.248,28.128 L92.688,28.128 L94.608,34.64 L96.512,28.128 L97.952,28.128 L95.536,35.376 C95.3333323,35.9946698 95.1493342,36.5226645 94.984,36.96 C94.8186658,37.3973355 94.6346677,37.7573319 94.432,38.04 C94.2293323,38.3226681 93.9813348,38.530666 93.688,38.664 C93.3946652,38.797334 93.018669,38.864 92.56,38.864 C92.3786658,38.864 92.184001,38.8560001 91.976,38.84 C91.767999,38.8239999 91.6053339,38.7946669 91.488,38.752 L91.696,37.68 Z M99.392,28.128 L100.72,28.128 L100.72,29.648 C100.816,29.4239989 100.938666,29.2053344 101.088,28.992 C101.237334,28.7786656 101.415999,28.5920008 101.624,28.432 C101.832001,28.2719992 102.074665,28.1440005 102.352,28.048 C102.629335,27.9519995 102.943998,27.904 103.296,27.904 C103.808003,27.904 104.253331,28.0106656 104.632,28.224 C105.010669,28.4373344 105.322665,28.7306648 105.568,29.104 C105.813335,29.4773352 105.997333,29.9119975 106.12,30.408 C106.242667,30.9040025 106.304,31.4399971 106.304,32.016 C106.304,32.6986701 106.224001,33.3013307 106.064,33.824 C105.903999,34.3466693 105.680001,34.7839982 105.392,35.136 C105.103999,35.4880018 104.768002,35.7546658 104.384,35.936 C103.999998,36.1173342 103.584002,36.208 103.136,36.208 C102.54933,36.208 102.045335,36.0640014 101.624,35.776 C101.202665,35.4879986 100.901334,35.1306688 100.72,34.704 L100.72,38.768 L99.392,38.768 L99.392,28.128 Z M100.72,32.112 C100.72,32.3360011 100.728,32.5413324 100.744,32.728 C100.76,32.9146676 100.778667,33.0719994 100.8,33.2 C100.842667,33.4560013 100.922666,33.7013322 101.04,33.936 C101.157334,34.1706678 101.301332,34.3759991 101.472,34.552 C101.642668,34.7280009 101.842666,34.8693328 102.072,34.976 C102.301334,35.0826672 102.554665,35.136 102.832,35.136 C103.194668,35.136 103.506665,35.0506675 103.768,34.88 C104.029335,34.7093325 104.245332,34.4800014 104.416,34.192 C104.586668,33.9039986 104.712,33.5760018 104.792,33.208 C104.872,32.8399982 104.912,32.4586686 104.912,32.064 C104.912,31.6693314 104.874667,31.2880018 104.8,30.92 C104.725333,30.5519982 104.605334,30.2266681 104.44,29.944 C104.274666,29.6613319 104.058668,29.4346675 103.792,29.264 C103.525332,29.0933325 103.205335,29.008 102.832,29.008 C102.543999,29.008 102.280001,29.0613328 102.04,29.168 C101.799999,29.2746672 101.594668,29.4186658 101.424,29.6 C101.253332,29.7813342 101.112001,29.9893322 101,30.224 C100.887999,30.4586678 100.816,30.7039987 100.784,30.96 C100.762667,31.0666672 100.746667,31.2133324 100.736,31.4 C100.725333,31.5866676 100.72,31.8026654 100.72,32.048 L100.72,32.112 Z M109.008,32.368 C109.061334,33.2746712 109.293331,33.9759975 109.704,34.472 C110.114669,34.9680025 110.687996,35.216 111.424,35.216 C112.352005,35.216 113.050664,34.778671 113.52,33.904 L114.528,34.464 C114.218665,34.9866693 113.808003,35.4133317 113.296,35.744 C112.783997,36.0746683 112.138671,36.24 111.36,36.24 C110.74133,36.24 110.200002,36.1333344 109.736,35.92 C109.271998,35.7066656 108.885335,35.4133352 108.576,35.04 C108.266665,34.6666648 108.034667,34.2293358 107.88,33.728 C107.725333,33.2266642 107.648,32.6880029 107.648,32.112 C107.648,31.5466638 107.722666,31.0080026 107.872,30.496 C108.021334,29.9839974 108.247998,29.5360019 108.552,29.152 C108.856002,28.7679981 109.229331,28.4640011 109.672,28.24 C110.114669,28.0159989 110.634664,27.904 111.232,27.904 C111.808003,27.904 112.309331,28.0133322 112.736,28.232 C113.162669,28.4506678 113.517332,28.7439982 113.8,29.112 C114.082668,29.4800018 114.295999,29.9066642 114.44,30.392 C114.584001,30.8773358 114.656,31.3919973 114.656,31.936 C114.656,32.0533339 114.653333,32.1439997 114.648,32.208 C114.642667,32.2720003 114.64,32.3253331 114.64,32.368 L109.008,32.368 Z M111.216,28.912 C110.543997,28.912 110.024002,29.1519976 109.656,29.632 C109.287998,30.1120024 109.077334,30.7573293 109.024,31.568 L113.296,31.568 C113.296,31.2373317 113.258667,30.9146682 113.184,30.6 C113.109333,30.2853318 112.986668,30.0026679 112.816,29.752 C112.645332,29.5013321 112.429335,29.2986674 112.168,29.144 C111.906665,28.9893326 111.589335,28.912 111.216,28.912 Z M121.568,34.464 C121.354666,34.997336 121.040002,35.4186651 120.624,35.728 C120.207998,36.0373349 119.69067,36.192 119.072,36.192 C118.581331,36.192 118.141335,36.0906677 117.752,35.888 C117.362665,35.6853323 117.032001,35.4026685 116.76,35.04 C116.487999,34.6773315 116.280001,34.2400026 116.136,33.728 C115.991999,33.2159974 115.92,32.6506698 115.92,32.032 C115.92,31.3919968 115.994666,30.8186692 116.144,30.312 C116.293334,29.8053308 116.506665,29.3760018 116.784,29.024 C117.061335,28.6719982 117.394665,28.400001 117.784,28.208 C118.173335,28.015999 118.602664,27.92 119.072,27.92 C119.712003,27.92 120.234665,28.0719985 120.64,28.376 C121.045335,28.6800015 121.333332,29.0453312 121.504,29.472 L121.504,24.704 L122.848,24.704 L122.848,36 L121.568,36 L121.568,34.464 Z M121.504,32.016 C121.504,31.6853317 121.496,31.4266676 121.48,31.24 C121.464,31.0533324 121.445333,30.9013339 121.424,30.784 C121.370666,30.5493322 121.290667,30.3253344 121.184,30.112 C121.077333,29.8986656 120.941334,29.7093342 120.776,29.544 C120.610666,29.3786658 120.416001,29.2480005 120.192,29.152 C119.967999,29.0559995 119.712001,29.008 119.424,29.008 C119.061332,29.008 118.749335,29.0879992 118.488,29.248 C118.226665,29.4080008 118.008001,29.6239986 117.832,29.896 C117.655999,30.1680014 117.525334,30.4879982 117.44,30.856 C117.354666,31.2240018 117.312,31.6159979 117.312,32.032 C117.312,32.4800022 117.36,32.8933314 117.456,33.272 C117.552,33.6506686 117.690666,33.9759986 117.872,34.248 C118.053334,34.5200014 118.277332,34.7333326 118.544,34.888 C118.810668,35.0426674 119.114665,35.12 119.456,35.12 C119.722668,35.12 119.965332,35.0720005 120.184,34.976 C120.402668,34.8799995 120.594666,34.7466675 120.76,34.576 C120.925334,34.4053325 121.061333,34.2106678 121.168,33.992 C121.274667,33.7733322 121.354666,33.5413346 121.408,33.296 C121.472,32.9973318 121.504,32.5973358 121.504,32.096 L121.504,32.016 Z M129.168,29.04 L127.824,29.04 L127.824,28.128 L128.112,28.128 C128.442668,28.128 128.701332,28.0933337 128.888,28.024 C129.074668,27.9546663 129.216,27.8480007 129.312,27.704 C129.408,27.5599993 129.477333,27.3706678 129.52,27.136 C129.562667,26.9013322 129.6,26.613335 129.632,26.272 L129.664,25.984 L130.496,25.984 L130.496,28.128 L132.192,28.128 L132.192,29.04 L130.496,29.04 L130.496,33.936 C130.496,34.3840022 130.562666,34.7066657 130.696,34.904 C130.829334,35.1013343 131.077332,35.2 131.44,35.2 C131.728001,35.2 131.994665,35.1360006 132.24,35.008 L132.384,35.968 C131.978665,36.1493342 131.530669,36.24 131.04,36.24 C130.655998,36.24 130.344001,36.1866672 130.104,36.08 C129.863999,35.9733328 129.674667,35.8293342 129.536,35.648 C129.397333,35.4666658 129.301334,35.2480013 129.248,34.992 C129.194666,34.7359987 129.168,34.4586682 129.168,34.16 L129.168,29.04 Z M134.8,32.368 C134.853334,33.2746712 135.085331,33.9759975 135.496,34.472 C135.906669,34.9680025 136.479996,35.216 137.216,35.216 C138.144005,35.216 138.842664,34.778671 139.312,33.904 L140.32,34.464 C140.010665,34.9866693 139.600003,35.4133317 139.088,35.744 C138.575997,36.0746683 137.930671,36.24 137.152,36.24 C136.53333,36.24 135.992002,36.1333344 135.528,35.92 C135.063998,35.7066656 134.677335,35.4133352 134.368,35.04 C134.058665,34.6666648 133.826667,34.2293358 133.672,33.728 C133.517333,33.2266642 133.44,32.6880029 133.44,32.112 C133.44,31.5466638 133.514666,31.0080026 133.664,30.496 C133.813334,29.9839974 134.039998,29.5360019 134.344,29.152 C134.648002,28.7679981 135.021331,28.4640011 135.464,28.24 C135.906669,28.0159989 136.426664,27.904 137.024,27.904 C137.600003,27.904 138.101331,28.0133322 138.528,28.232 C138.954669,28.4506678 139.309332,28.7439982 139.592,29.112 C139.874668,29.4800018 140.087999,29.9066642 140.232,30.392 C140.376001,30.8773358 140.448,31.3919973 140.448,31.936 C140.448,32.0533339 140.445333,32.1439997 140.44,32.208 C140.434667,32.2720003 140.432,32.3253331 140.432,32.368 L134.8,32.368 Z M137.008,28.912 C136.335997,28.912 135.816002,29.1519976 135.448,29.632 C135.079998,30.1120024 134.869334,30.7573293 134.816,31.568 L139.088,31.568 C139.088,31.2373317 139.050667,30.9146682 138.976,30.6 C138.901333,30.2853318 138.778668,30.0026679 138.608,29.752 C138.437332,29.5013321 138.221335,29.2986674 137.96,29.144 C137.698665,28.9893326 137.381335,28.912 137.008,28.912 Z M143.632,31.888 L141.28,28.128 L142.752,28.128 L144.576,31.12 L146.4,28.128 L147.856,28.128 L145.488,31.888 L148.16,36 L146.608,36 L144.576,32.672 L142.512,36 L140.976,36 L143.632,31.888 Z M150.256,29.04 L148.912,29.04 L148.912,28.128 L149.2,28.128 C149.530668,28.128 149.789332,28.0933337 149.976,28.024 C150.162668,27.9546663 150.304,27.8480007 150.4,27.704 C150.496,27.5599993 150.565333,27.3706678 150.608,27.136 C150.650667,26.9013322 150.688,26.613335 150.72,26.272 L150.752,25.984 L151.584,25.984 L151.584,28.128 L153.28,28.128 L153.28,29.04 L151.584,29.04 L151.584,33.936 C151.584,34.3840022 151.650666,34.7066657 151.784,34.904 C151.917334,35.1013343 152.165332,35.2 152.528,35.2 C152.816001,35.2 153.082665,35.1360006 153.328,35.008 L153.472,35.968 C153.066665,36.1493342 152.618669,36.24 152.128,36.24 C151.743998,36.24 151.432001,36.1866672 151.192,36.08 C150.951999,35.9733328 150.762667,35.8293342 150.624,35.648 C150.485333,35.4666658 150.389334,35.2480013 150.336,34.992 C150.282666,34.7359987 150.256,34.4586682 150.256,34.16 L150.256,29.04 Z" id="This-is-some-typed-t" fill="#000000"></path>
            </g>
        </g>
    </g>
</svg>