<?xml version="1.0" encoding="UTF-8"?>
<svg width="212px" height="64px" viewBox="0 0 212 64" version="1.1" xmlns="http://www.w3.org/2000/svg" xmlns:xlink="http://www.w3.org/1999/xlink">
    <!-- Generator: Sketch 47 (45396) - http://www.bohemiancoding.com/sketch -->
    <title>ShortInputs</title>
    <desc>Created with Sketch.</desc>
    <defs></defs>
    <g id="Text-area" stroke="none" stroke-width="1" fill="none" fill-rule="evenodd">
        <g id="Text-area-Usage-extra-large-1200" transform="translate(-813.000000, -2919.000000)">
            <g id="Group-7" transform="translate(311.000000, 2854.000000)">
                <g id="ShortInputs" transform="translate(503.000000, 65.000000)">
                    <path d="M0.98,0.116 L2.45,0.116 C3.31800434,1.61867418 4.14399608,3.04199328 4.928,4.386 C5.71200392,5.73000672 6.45866312,7.04132694 7.168,8.32 C7.13066648,6.919993 7.11433331,5.54567341 7.119,4.197 C7.12366669,2.84832659 7.12133338,1.48800686 7.112,0.116 L8.302,0.116 L8.302,10 L6.846,10 C6.44466466,9.30932988 6.03633541,8.60467026 5.621,7.886 C5.20566459,7.16732974 4.79266872,6.45567019 4.382,5.751 C3.97133128,5.04632981 3.57466858,4.35800336 3.192,3.686 C2.80933142,3.01399664 2.4546683,2.38400294 2.128,1.796 C2.15600014,3.20534038 2.17,4.58199328 2.17,5.926 C2.17,7.27000672 2.17466662,8.62799314 2.184,10 L0.98,10 L0.98,0.116 Z M14.518,10 C14.4153328,9.66399832 14.3546668,9.262669 14.336,8.796 C14.1493324,9.22533548 13.8623353,9.56833205 13.475,9.825 C13.0876647,10.0816679 12.6280027,10.21 12.096,10.21 C11.4239966,10.21 10.892002,10.0186686 10.5,9.636 C10.107998,9.25333142 9.912,8.74000322 9.912,8.096 C9.912,7.73199818 9.97733268,7.42633457 10.108,7.179 C10.2386673,6.93166543 10.4206655,6.72633415 10.654,6.563 C10.8873345,6.39966585 11.1626651,6.2713338 11.48,6.178 C11.7973349,6.0846662 12.1426648,6.01000028 12.516,5.954 L14.28,5.688 L14.28,5.254 C14.28,4.94599846 14.242667,4.6986676 14.168,4.512 C14.093333,4.3253324 13.9906673,4.18066718 13.86,4.078 C13.7293327,3.97533282 13.5800008,3.90766683 13.412,3.875 C13.2439992,3.84233317 13.0666676,3.826 12.88,3.826 C12.3479973,3.826 11.9093351,3.92399902 11.564,4.12 C11.2186649,4.31600098 10.9293345,4.56333184 10.696,4.862 L10.094,4.106 C10.364668,3.7793317 10.7403309,3.4993345 11.221,3.266 C11.7016691,3.0326655 12.2966631,2.916 13.006,2.916 C13.864671,2.916 14.4876647,3.10733142 14.875,3.49 C15.2623353,3.87266858 15.456,4.48866242 15.456,5.338 L15.456,8.124 C15.456,8.34800112 15.4583333,8.54399916 15.463,8.712 C15.4676667,8.88000084 15.4769999,9.03633261 15.491,9.181 C15.5050001,9.32566739 15.5259999,9.46333268 15.554,9.594 C15.5820001,9.72466732 15.6193331,9.8599993 15.666,10 L14.518,10 Z M14.28,6.458 L12.628,6.724 C12.0586638,6.82666718 11.6550012,6.98066564 11.417,7.186 C11.1789988,7.39133436 11.06,7.67599818 11.06,8.04 C11.06,8.4133352 11.1696656,8.72599874 11.389,8.978 C11.6083344,9.23000126 11.9326645,9.356 12.362,9.356 C12.6233346,9.356 12.8706655,9.30466718 13.104,9.202 C13.3373345,9.09933282 13.5403325,8.95700091 13.713,8.775 C13.8856675,8.59299909 14.0233328,8.37366795 14.126,8.117 C14.2286672,7.86033205 14.28,7.57800154 14.28,7.27 L14.28,6.458 Z M17.318,3.112 L18.326,3.112 L18.452,4.456 C18.6200008,3.97999762 18.8813316,3.60433471 19.236,3.329 C19.5906684,3.05366529 20.0246641,2.916 20.538,2.916 C21.079336,2.916 21.5039985,3.06999846 21.812,3.378 C22.1200015,3.68600154 22.3159996,4.05933114 22.4,4.498 C22.4840004,4.28333226 22.5889994,4.08033429 22.715,3.889 C22.8410006,3.69766571 22.9926658,3.52966739 23.17,3.385 C23.3473342,3.24033261 23.5526655,3.12600042 23.786,3.042 C24.0193345,2.95799958 24.2853318,2.916 24.584,2.916 C24.976002,2.916 25.3003321,2.98366599 25.557,3.119 C25.813668,3.25433401 26.0189992,3.4386655 26.173,3.672 C26.3270008,3.9053345 26.4366663,4.17833177 26.502,4.491 C26.5673337,4.80366823 26.6,5.13266494 26.6,5.478 L26.6,10 L25.438,10 L25.438,5.772 C25.438,5.15599692 25.3283344,4.69633485 25.109,4.393 C24.8896656,4.08966515 24.5700021,3.938 24.15,3.938 C23.6926644,3.938 23.3100015,4.14099797 23.002,4.547 C22.6939985,4.95300203 22.54,5.53399622 22.54,6.29 L22.54,10 L21.378,10 L21.378,5.828 C21.378,5.18399678 21.2660011,4.70800154 21.042,4.4 C20.8179989,4.09199846 20.5053353,3.938 20.104,3.938 C19.6559978,3.938 19.2733349,4.14566459 18.956,4.561 C18.6386651,4.97633541 18.48,5.57599608 18.48,6.36 L18.48,10 L17.318,10 L17.318,3.112 Z M29.246,6.822 C29.2926669,7.6153373 29.4956649,8.22899783 29.855,8.663 C30.2143351,9.09700217 30.7159968,9.314 31.36,9.314 C32.1720041,9.314 32.7833313,8.93133716 33.194,8.166 L34.076,8.656 C33.805332,9.11333562 33.4460022,9.48666522 32.998,9.776 C32.5499978,10.0653348 31.9853367,10.21 31.304,10.21 C30.762664,10.21 30.289002,10.1166676 29.883,9.93 C29.476998,9.7433324 29.138668,9.4866683 28.868,9.16 C28.597332,8.8333317 28.394334,8.45066886 28.259,8.012 C28.123666,7.57333114 28.056,7.10200252 28.056,6.598 C28.056,6.10333086 28.1213327,5.63200224 28.252,5.184 C28.3826673,4.73599776 28.5809987,4.34400168 28.847,4.008 C29.1130013,3.67199832 29.4396647,3.40600098 29.827,3.21 C30.2143353,3.01399902 30.6693307,2.916 31.192,2.916 C31.6960025,2.916 32.1346648,3.01166571 32.508,3.203 C32.8813352,3.39433429 33.1916654,3.65099839 33.439,3.973 C33.6863346,4.29500161 33.8729994,4.66833121 33.999,5.093 C34.1250006,5.51766879 34.188,5.96799762 34.188,6.444 C34.188,6.54666718 34.1856667,6.62599972 34.181,6.682 C34.1763333,6.73800028 34.174,6.78466648 34.174,6.822 L29.246,6.822 Z M31.178,3.798 C30.5899971,3.798 30.1350016,4.0079979 29.813,4.428 C29.4909984,4.8480021 29.3066669,5.41266312 29.26,6.122 L32.998,6.122 C32.998,5.83266522 32.9653337,5.55033471 32.9,5.275 C32.8346663,4.99966529 32.7273341,4.75233443 32.578,4.533 C32.4286659,4.31366557 32.2396678,4.13633401 32.011,4.001 C31.7823322,3.86566599 31.5046683,3.798 31.178,3.798 Z" id="Name" fill="#4C5358"></path>
                    <path d="M90.244,62.146 C90.5240014,61.9593324 90.8389982,61.7353346 91.189,61.474 C91.5390017,61.2126654 91.8913316,60.9256682 92.246,60.613 C92.6006684,60.3003318 92.943665,59.9690017 93.275,59.619 C93.606335,59.2689982 93.900332,58.9050019 94.157,58.527 C94.4136679,58.1489981 94.6213325,57.764002 94.78,57.372 C94.9386675,56.979998 95.018,56.588002 95.018,56.196 C95.018,55.6453306 94.8756681,55.1903351 94.591,54.831 C94.3063319,54.4716649 93.8746696,54.292 93.296,54.292 C92.7733307,54.292 92.3556682,54.4553317 92.043,54.782 C91.7303318,55.1086683 91.5226672,55.5146642 91.42,56 L90.314,55.734 C90.5566679,54.9779962 90.9299975,54.404002 91.434,54.012 C91.9380025,53.619998 92.6006626,53.424 93.422,53.424 C93.814002,53.424 94.1849982,53.4799994 94.535,53.592 C94.8850017,53.7040006 95.1906654,53.8719989 95.452,54.096 C95.7133346,54.3200011 95.9186659,54.6023316 96.068,54.943 C96.2173341,55.2836684 96.292,55.6826644 96.292,56.14 C96.292,56.7560031 96.1403348,57.3509971 95.837,57.925 C95.5336651,58.4990029 95.1580022,59.0403308 94.71,59.549 C94.2619978,60.0576692 93.7766693,60.5243312 93.254,60.949 C92.7313307,61.3736688 92.2506689,61.7353318 91.812,62.034 L96.544,62.034 L96.544,63 L90.244,63 L90.244,62.146 Z M101.36,62.216 C101.789335,62.216 102.141665,62.0830013 102.417,61.817 C102.692335,61.5509987 102.906999,61.2196686 103.061,60.823 C103.215001,60.4263313 103.322333,60.0016689 103.383,59.549 C103.443667,59.0963311 103.474,58.6833352 103.474,58.31 C103.474,57.9459982 103.443667,57.5353356 103.383,57.078 C103.322333,56.6206644 103.215001,56.1936686 103.061,55.797 C102.906999,55.4003313 102.692335,55.066668 102.417,54.796 C102.141665,54.525332 101.789335,54.39 101.36,54.39 C100.939998,54.39 100.594668,54.518332 100.324,54.775 C100.053332,55.0316679 99.8363341,55.3489981 99.673,55.727 C99.5096658,56.1050019 99.397667,56.5133311 99.337,56.952 C99.276333,57.3906689 99.246,57.7966648 99.246,58.17 C99.246,58.5526686 99.2716664,58.977331 99.323,59.444 C99.3743336,59.910669 99.4769992,60.3493313 99.631,60.76 C99.7850008,61.1706687 99.9996653,61.5159986 100.275,61.796 C100.550335,62.0760014 100.911998,62.216 101.36,62.216 Z M101.36,63.21 C100.743997,63.2006666 100.216669,63.0466682 99.778,62.748 C99.3393311,62.4493318 98.984668,62.066669 98.714,61.6 C98.443332,61.133331 98.2450006,60.6106696 98.119,60.032 C97.9929994,59.4533304 97.93,58.8793362 97.93,58.31 C97.93,57.7406638 97.9929994,57.1643362 98.119,56.581 C98.2450006,55.9976637 98.4456653,55.472669 98.721,55.006 C98.9963347,54.539331 99.3533311,54.1566682 99.792,53.858 C100.230669,53.5593318 100.76733,53.41 101.402,53.41 C102.027336,53.41 102.556998,53.5593318 102.991,53.858 C103.425002,54.1566682 103.774999,54.539331 104.041,55.006 C104.307001,55.472669 104.498333,55.9953304 104.615,56.574 C104.731667,57.1526696 104.79,57.7266638 104.79,58.296 C104.79,58.8560028 104.731667,59.4253304 104.615,60.004 C104.498333,60.5826696 104.307001,61.1076643 104.041,61.579 C103.774999,62.0503357 103.422669,62.4376651 102.984,62.741 C102.545331,63.0443348 102.004003,63.2006666 101.36,63.21 Z M109.34,62.216 C109.769335,62.216 110.121665,62.0830013 110.397,61.817 C110.672335,61.5509987 110.886999,61.2196686 111.041,60.823 C111.195001,60.4263313 111.302333,60.0016689 111.363,59.549 C111.423667,59.0963311 111.454,58.6833352 111.454,58.31 C111.454,57.9459982 111.423667,57.5353356 111.363,57.078 C111.302333,56.6206644 111.195001,56.1936686 111.041,55.797 C110.886999,55.4003313 110.672335,55.066668 110.397,54.796 C110.121665,54.525332 109.769335,54.39 109.34,54.39 C108.919998,54.39 108.574668,54.518332 108.304,54.775 C108.033332,55.0316679 107.816334,55.3489981 107.653,55.727 C107.489666,56.1050019 107.377667,56.5133311 107.317,56.952 C107.256333,57.3906689 107.226,57.7966648 107.226,58.17 C107.226,58.5526686 107.251666,58.977331 107.303,59.444 C107.354334,59.910669 107.456999,60.3493313 107.611,60.76 C107.765001,61.1706687 107.979665,61.5159986 108.255,61.796 C108.530335,62.0760014 108.891998,62.216 109.34,62.216 Z M109.34,63.21 C108.723997,63.2006666 108.196669,63.0466682 107.758,62.748 C107.319331,62.4493318 106.964668,62.066669 106.694,61.6 C106.423332,61.133331 106.225001,60.6106696 106.099,60.032 C105.972999,59.4533304 105.91,58.8793362 105.91,58.31 C105.91,57.7406638 105.972999,57.1643362 106.099,56.581 C106.225001,55.9976637 106.425665,55.472669 106.701,55.006 C106.976335,54.539331 107.333331,54.1566682 107.772,53.858 C108.210669,53.5593318 108.74733,53.41 109.382,53.41 C110.007336,53.41 110.536998,53.5593318 110.971,53.858 C111.405002,54.1566682 111.754999,54.539331 112.021,55.006 C112.287001,55.472669 112.478333,55.9953304 112.595,56.574 C112.711667,57.1526696 112.77,57.7266638 112.77,58.296 C112.77,58.8560028 112.711667,59.4253304 112.595,60.004 C112.478333,60.5826696 112.287001,61.1076643 112.021,61.579 C111.754999,62.0503357 111.402669,62.4376651 110.964,62.741 C110.525331,63.0443348 109.984003,63.2006666 109.34,63.21 Z M118.062,53.116 L119.084,53.116 L115.024,63 L113.974,63 L118.062,53.116 Z M120.554,62.146 C120.834001,61.9593324 121.148998,61.7353346 121.499,61.474 C121.849002,61.2126654 122.201332,60.9256682 122.556,60.613 C122.910668,60.3003318 123.253665,59.9690017 123.585,59.619 C123.916335,59.2689982 124.210332,58.9050019 124.467,58.527 C124.723668,58.1489981 124.931333,57.764002 125.09,57.372 C125.248667,56.979998 125.328,56.588002 125.328,56.196 C125.328,55.6453306 125.185668,55.1903351 124.901,54.831 C124.616332,54.4716649 124.18467,54.292 123.606,54.292 C123.083331,54.292 122.665668,54.4553317 122.353,54.782 C122.040332,55.1086683 121.832667,55.5146642 121.73,56 L120.624,55.734 C120.866668,54.9779962 121.239997,54.404002 121.744,54.012 C122.248003,53.619998 122.910663,53.424 123.732,53.424 C124.124002,53.424 124.494998,53.4799994 124.845,53.592 C125.195002,53.7040006 125.500665,53.8719989 125.762,54.096 C126.023335,54.3200011 126.228666,54.6023316 126.378,54.943 C126.527334,55.2836684 126.602,55.6826644 126.602,56.14 C126.602,56.7560031 126.450335,57.3509971 126.147,57.925 C125.843665,58.4990029 125.468002,59.0403308 125.02,59.549 C124.571998,60.0576692 124.086669,60.5243312 123.564,60.949 C123.041331,61.3736688 122.560669,61.7353318 122.122,62.034 L126.854,62.034 L126.854,63 L120.554,63 L120.554,62.146 Z M131.67,62.216 C132.099335,62.216 132.451665,62.0830013 132.727,61.817 C133.002335,61.5509987 133.216999,61.2196686 133.371,60.823 C133.525001,60.4263313 133.632333,60.0016689 133.693,59.549 C133.753667,59.0963311 133.784,58.6833352 133.784,58.31 C133.784,57.9459982 133.753667,57.5353356 133.693,57.078 C133.632333,56.6206644 133.525001,56.1936686 133.371,55.797 C133.216999,55.4003313 133.002335,55.066668 132.727,54.796 C132.451665,54.525332 132.099335,54.39 131.67,54.39 C131.249998,54.39 130.904668,54.518332 130.634,54.775 C130.363332,55.0316679 130.146334,55.3489981 129.983,55.727 C129.819666,56.1050019 129.707667,56.5133311 129.647,56.952 C129.586333,57.3906689 129.556,57.7966648 129.556,58.17 C129.556,58.5526686 129.581666,58.977331 129.633,59.444 C129.684334,59.910669 129.786999,60.3493313 129.941,60.76 C130.095001,61.1706687 130.309665,61.5159986 130.585,61.796 C130.860335,62.0760014 131.221998,62.216 131.67,62.216 Z M131.67,63.21 C131.053997,63.2006666 130.526669,63.0466682 130.088,62.748 C129.649331,62.4493318 129.294668,62.066669 129.024,61.6 C128.753332,61.133331 128.555001,60.6106696 128.429,60.032 C128.302999,59.4533304 128.24,58.8793362 128.24,58.31 C128.24,57.7406638 128.302999,57.1643362 128.429,56.581 C128.555001,55.9976637 128.755665,55.472669 129.031,55.006 C129.306335,54.539331 129.663331,54.1566682 130.102,53.858 C130.540669,53.5593318 131.07733,53.41 131.712,53.41 C132.337336,53.41 132.866998,53.5593318 133.301,53.858 C133.735002,54.1566682 134.084999,54.539331 134.351,55.006 C134.617001,55.472669 134.808333,55.9953304 134.925,56.574 C135.041667,57.1526696 135.1,57.7266638 135.1,58.296 C135.1,58.8560028 135.041667,59.4253304 134.925,60.004 C134.808333,60.5826696 134.617001,61.1076643 134.351,61.579 C134.084999,62.0503357 133.732669,62.4376651 133.294,62.741 C132.855331,63.0443348 132.314003,63.2006666 131.67,63.21 Z M139.65,62.216 C140.079335,62.216 140.431665,62.0830013 140.707,61.817 C140.982335,61.5509987 141.196999,61.2196686 141.351,60.823 C141.505001,60.4263313 141.612333,60.0016689 141.673,59.549 C141.733667,59.0963311 141.764,58.6833352 141.764,58.31 C141.764,57.9459982 141.733667,57.5353356 141.673,57.078 C141.612333,56.6206644 141.505001,56.1936686 141.351,55.797 C141.196999,55.4003313 140.982335,55.066668 140.707,54.796 C140.431665,54.525332 140.079335,54.39 139.65,54.39 C139.229998,54.39 138.884668,54.518332 138.614,54.775 C138.343332,55.0316679 138.126334,55.3489981 137.963,55.727 C137.799666,56.1050019 137.687667,56.5133311 137.627,56.952 C137.566333,57.3906689 137.536,57.7966648 137.536,58.17 C137.536,58.5526686 137.561666,58.977331 137.613,59.444 C137.664334,59.910669 137.766999,60.3493313 137.921,60.76 C138.075001,61.1706687 138.289665,61.5159986 138.565,61.796 C138.840335,62.0760014 139.201998,62.216 139.65,62.216 Z M139.65,63.21 C139.033997,63.2006666 138.506669,63.0466682 138.068,62.748 C137.629331,62.4493318 137.274668,62.066669 137.004,61.6 C136.733332,61.133331 136.535001,60.6106696 136.409,60.032 C136.282999,59.4533304 136.22,58.8793362 136.22,58.31 C136.22,57.7406638 136.282999,57.1643362 136.409,56.581 C136.535001,55.9976637 136.735665,55.472669 137.011,55.006 C137.286335,54.539331 137.643331,54.1566682 138.082,53.858 C138.520669,53.5593318 139.05733,53.41 139.692,53.41 C140.317336,53.41 140.846998,53.5593318 141.281,53.858 C141.715002,54.1566682 142.064999,54.539331 142.331,55.006 C142.597001,55.472669 142.788333,55.9953304 142.905,56.574 C143.021667,57.1526696 143.08,57.7266638 143.08,58.296 C143.08,58.8560028 143.021667,59.4253304 142.905,60.004 C142.788333,60.5826696 142.597001,61.1076643 142.331,61.579 C142.064999,62.0503357 141.712669,62.4376651 141.274,62.741 C140.835331,63.0443348 140.294003,63.2006666 139.65,63.21 Z M153.454,61.488 C153.173999,62.0480028 152.798336,62.4749985 152.327,62.769 C151.855664,63.0630015 151.284003,63.21 150.612,63.21 C150.061331,63.21 149.583002,63.1143343 149.177,62.923 C148.770998,62.7316657 148.435001,62.4726683 148.169,62.146 C147.902999,61.8193317 147.707001,61.4343355 147.581,60.991 C147.454999,60.5476644 147.392,60.0740025 147.392,59.57 C147.392,59.0566641 147.459666,58.5783355 147.595,58.135 C147.730334,57.6916644 147.930999,57.3066683 148.197,56.98 C148.463001,56.6533317 148.796665,56.3943343 149.198,56.203 C149.599335,56.0116657 150.070664,55.916 150.612,55.916 C151.293337,55.916 151.860331,56.0676651 152.313,56.371 C152.765669,56.6743348 153.131999,57.1013306 153.412,57.652 L152.432,58.114 C152.077332,57.255329 151.480004,56.826 150.64,56.826 C150.285332,56.826 149.979668,56.8959993 149.723,57.036 C149.466332,57.1760007 149.256334,57.3673321 149.093,57.61 C148.929666,57.8526679 148.808334,58.1349984 148.729,58.457 C148.649666,58.7790016 148.61,59.1266648 148.61,59.5 C148.61,59.8546684 148.647333,60.1999983 148.722,60.536 C148.796667,60.8720017 148.917999,61.1706654 149.086,61.432 C149.254001,61.6933346 149.468665,61.9033325 149.73,62.062 C149.991335,62.2206675 150.313331,62.3 150.696,62.3 C151.181336,62.3 151.573332,62.1763346 151.872,61.929 C152.170668,61.6816654 152.399333,61.362002 152.558,60.97 L153.454,61.488 Z M154.742,53.116 L155.904,53.116 L155.904,57.47 C155.988,57.2646656 156.095333,57.0686676 156.226,56.882 C156.356667,56.6953324 156.515332,56.5296674 156.702,56.385 C156.888668,56.2403326 157.103332,56.1260004 157.346,56.042 C157.588668,55.9579996 157.859332,55.916 158.158,55.916 C158.87667,55.916 159.406332,56.1516643 159.747,56.623 C160.087668,57.0943357 160.258,57.7313293 160.258,58.534 L160.258,63 L159.096,63 L159.096,58.716 C159.096,58.1279971 158.974668,57.6870015 158.732,57.393 C158.489332,57.0989985 158.144002,56.952 157.696,56.952 C157.434665,56.952 157.194334,57.0079994 156.975,57.12 C156.755666,57.2320006 156.566667,57.3906656 156.408,57.596 C156.249333,57.8013344 156.125667,58.0486652 156.037,58.338 C155.948333,58.6273348 155.904,58.9446649 155.904,59.29 L155.904,63 L154.742,63 L154.742,53.116 Z M166.348,63 C166.245333,62.6639983 166.184667,62.262669 166.166,61.796 C165.979332,62.2253355 165.692335,62.568332 165.305,62.825 C164.917665,63.0816679 164.458003,63.21 163.926,63.21 C163.253997,63.21 162.722002,63.0186686 162.33,62.636 C161.937998,62.2533314 161.742,61.7400032 161.742,61.096 C161.742,60.7319982 161.807333,60.4263346 161.938,60.179 C162.068667,59.9316654 162.250665,59.7263341 162.484,59.563 C162.717334,59.3996658 162.992665,59.2713338 163.31,59.178 C163.627335,59.0846662 163.972665,59.0100003 164.346,58.954 L166.11,58.688 L166.11,58.254 C166.11,57.9459985 166.072667,57.6986676 165.998,57.512 C165.923333,57.3253324 165.820667,57.1806672 165.69,57.078 C165.559333,56.9753328 165.410001,56.9076668 165.242,56.875 C165.073999,56.8423332 164.896668,56.826 164.71,56.826 C164.177997,56.826 163.739335,56.923999 163.394,57.12 C163.048665,57.316001 162.759334,57.5633318 162.526,57.862 L161.924,57.106 C162.194668,56.7793317 162.570331,56.4993345 163.051,56.266 C163.531669,56.0326655 164.126663,55.916 164.836,55.916 C165.694671,55.916 166.317665,56.1073314 166.705,56.49 C167.092335,56.8726686 167.286,57.4886624 167.286,58.338 L167.286,61.124 C167.286,61.3480011 167.288333,61.5439992 167.293,61.712 C167.297667,61.8800008 167.307,62.0363326 167.321,62.181 C167.335,62.3256674 167.356,62.4633327 167.384,62.594 C167.412,62.7246673 167.449333,62.8599993 167.496,63 L166.348,63 Z M166.11,59.458 L164.458,59.724 C163.888664,59.8266672 163.485001,59.9806656 163.247,60.186 C163.008999,60.3913344 162.89,60.6759982 162.89,61.04 C162.89,61.4133352 162.999666,61.7259987 163.219,61.978 C163.438334,62.2300013 163.762665,62.356 164.192,62.356 C164.453335,62.356 164.700666,62.3046672 164.934,62.202 C165.167334,62.0993328 165.370332,61.9570009 165.543,61.775 C165.715668,61.5929991 165.853333,61.3736679 165.956,61.117 C166.058667,60.860332 166.11,60.5780015 166.11,60.27 L166.11,59.458 Z M169.148,56.112 L170.156,56.112 L170.268,57.652 C170.464001,57.1479975 170.776665,56.7326683 171.206,56.406 C171.635335,56.0793317 172.143997,55.916 172.732,55.916 L172.732,57.148 C172.601333,57.1199999 172.456667,57.106 172.298,57.106 C172.064665,57.106 171.831335,57.1479996 171.598,57.232 C171.364666,57.3160004 171.152334,57.4513324 170.961,57.638 C170.769666,57.8246676 170.613334,58.0649985 170.492,58.359 C170.370666,58.6530015 170.31,59.0099979 170.31,59.43 L170.31,63 L169.148,63 L169.148,56.112 Z M178.206,63 C178.103333,62.6639983 178.042667,62.262669 178.024,61.796 C177.837332,62.2253355 177.550335,62.568332 177.163,62.825 C176.775665,63.0816679 176.316003,63.21 175.784,63.21 C175.111997,63.21 174.580002,63.0186686 174.188,62.636 C173.795998,62.2533314 173.6,61.7400032 173.6,61.096 C173.6,60.7319982 173.665333,60.4263346 173.796,60.179 C173.926667,59.9316654 174.108666,59.7263341 174.342,59.563 C174.575334,59.3996658 174.850665,59.2713338 175.168,59.178 C175.485335,59.0846662 175.830665,59.0100003 176.204,58.954 L177.968,58.688 L177.968,58.254 C177.968,57.9459985 177.930667,57.6986676 177.856,57.512 C177.781333,57.3253324 177.678667,57.1806672 177.548,57.078 C177.417333,56.9753328 177.268001,56.9076668 177.1,56.875 C176.931999,56.8423332 176.754668,56.826 176.568,56.826 C176.035997,56.826 175.597335,56.923999 175.252,57.12 C174.906665,57.316001 174.617335,57.5633318 174.384,57.862 L173.782,57.106 C174.052668,56.7793317 174.428331,56.4993345 174.909,56.266 C175.389669,56.0326655 175.984663,55.916 176.694,55.916 C177.552671,55.916 178.175665,56.1073314 178.563,56.49 C178.950335,56.8726686 179.144,57.4886624 179.144,58.338 L179.144,61.124 C179.144,61.3480011 179.146333,61.5439992 179.151,61.712 C179.155667,61.8800008 179.165,62.0363326 179.179,62.181 C179.193,62.3256674 179.214,62.4633327 179.242,62.594 C179.27,62.7246673 179.307333,62.8599993 179.354,63 L178.206,63 Z M177.968,59.458 L176.316,59.724 C175.746664,59.8266672 175.343001,59.9806656 175.105,60.186 C174.866999,60.3913344 174.748,60.6759982 174.748,61.04 C174.748,61.4133352 174.857666,61.7259987 175.077,61.978 C175.296334,62.2300013 175.620665,62.356 176.05,62.356 C176.311335,62.356 176.558666,62.3046672 176.792,62.202 C177.025334,62.0993328 177.228332,61.9570009 177.401,61.775 C177.573668,61.5929991 177.711333,61.3736679 177.814,61.117 C177.916667,60.860332 177.968,60.5780015 177.968,60.27 L177.968,59.458 Z M186.76,61.488 C186.479999,62.0480028 186.104336,62.4749985 185.633,62.769 C185.161664,63.0630015 184.590003,63.21 183.918,63.21 C183.367331,63.21 182.889002,63.1143343 182.483,62.923 C182.076998,62.7316657 181.741001,62.4726683 181.475,62.146 C181.208999,61.8193317 181.013001,61.4343355 180.887,60.991 C180.760999,60.5476644 180.698,60.0740025 180.698,59.57 C180.698,59.0566641 180.765666,58.5783355 180.901,58.135 C181.036334,57.6916644 181.236999,57.3066683 181.503,56.98 C181.769001,56.6533317 182.102665,56.3943343 182.504,56.203 C182.905335,56.0116657 183.376664,55.916 183.918,55.916 C184.599337,55.916 185.166331,56.0676651 185.619,56.371 C186.071669,56.6743348 186.437999,57.1013306 186.718,57.652 L185.738,58.114 C185.383332,57.255329 184.786004,56.826 183.946,56.826 C183.591332,56.826 183.285668,56.8959993 183.029,57.036 C182.772332,57.1760007 182.562334,57.3673321 182.399,57.61 C182.235666,57.8526679 182.114334,58.1349984 182.035,58.457 C181.955666,58.7790016 181.916,59.1266648 181.916,59.5 C181.916,59.8546684 181.953333,60.1999983 182.028,60.536 C182.102667,60.8720017 182.223999,61.1706654 182.392,61.432 C182.560001,61.6933346 182.774665,61.9033325 183.036,62.062 C183.297335,62.2206675 183.619331,62.3 184.002,62.3 C184.487336,62.3 184.879332,62.1763346 185.178,61.929 C185.476668,61.6816654 185.705333,61.362002 185.864,60.97 L186.76,61.488 Z M188.65,56.91 L187.474,56.91 L187.474,56.112 L187.726,56.112 C188.015335,56.112 188.241666,56.081667 188.405,56.021 C188.568334,55.960333 188.692,55.8670006 188.776,55.741 C188.86,55.6149994 188.920666,55.4493344 188.958,55.244 C188.995334,55.0386656 189.028,54.7866682 189.056,54.488 L189.084,54.236 L189.812,54.236 L189.812,56.112 L191.296,56.112 L191.296,56.91 L189.812,56.91 L189.812,61.194 C189.812,61.586002 189.870333,61.8683325 189.987,62.041 C190.103667,62.2136675 190.320665,62.3 190.638,62.3 C190.890001,62.3 191.123332,62.2440006 191.338,62.132 L191.464,62.972 C191.109332,63.1306675 190.717335,63.21 190.288,63.21 C189.951998,63.21 189.679001,63.1633338 189.469,63.07 C189.258999,62.9766662 189.093334,62.8506675 188.972,62.692 C188.850666,62.5333325 188.766667,62.3420011 188.72,62.118 C188.673333,61.8939989 188.65,61.6513346 188.65,61.39 L188.65,56.91 Z M193.578,59.822 C193.624667,60.6153373 193.827665,61.2289978 194.187,61.663 C194.546335,62.0970022 195.047997,62.314 195.692,62.314 C196.504004,62.314 197.115331,61.9313372 197.526,61.166 L198.408,61.656 C198.137332,62.1133356 197.778002,62.4866652 197.33,62.776 C196.881998,63.0653348 196.317337,63.21 195.636,63.21 C195.094664,63.21 194.621002,63.1166676 194.215,62.93 C193.808998,62.7433324 193.470668,62.4866683 193.2,62.16 C192.929332,61.8333317 192.726334,61.4506689 192.591,61.012 C192.455666,60.5733311 192.388,60.1020025 192.388,59.598 C192.388,59.1033309 192.453333,58.6320022 192.584,58.184 C192.714667,57.7359978 192.912999,57.3440017 193.179,57.008 C193.445001,56.6719983 193.771665,56.406001 194.159,56.21 C194.546335,56.013999 195.001331,55.916 195.524,55.916 C196.028003,55.916 196.466665,56.0116657 196.84,56.203 C197.213335,56.3943343 197.523665,56.6509984 197.771,56.973 C198.018335,57.2950016 198.204999,57.6683312 198.331,58.093 C198.457001,58.5176688 198.52,58.9679976 198.52,59.444 C198.52,59.5466672 198.517667,59.6259997 198.513,59.682 C198.508333,59.7380003 198.506,59.7846665 198.506,59.822 L193.578,59.822 Z M195.51,56.798 C194.921997,56.798 194.467002,57.0079979 194.145,57.428 C193.822998,57.8480021 193.638667,58.4126631 193.592,59.122 L197.33,59.122 C197.33,58.8326652 197.297334,58.5503347 197.232,58.275 C197.166666,57.9996653 197.059334,57.7523344 196.91,57.533 C196.760666,57.3136656 196.571668,57.136334 196.343,57.001 C196.114332,56.865666 195.836668,56.798 195.51,56.798 Z M199.934,56.112 L200.942,56.112 L201.054,57.652 C201.250001,57.1479975 201.562665,56.7326683 201.992,56.406 C202.421335,56.0793317 202.929997,55.916 203.518,55.916 L203.518,57.148 C203.387333,57.1199999 203.242667,57.106 203.084,57.106 C202.850665,57.106 202.617335,57.1479996 202.384,57.232 C202.150666,57.3160004 201.938334,57.4513324 201.747,57.638 C201.555666,57.8246676 201.399334,58.0649985 201.278,58.359 C201.156666,58.6530015 201.096,59.0099979 201.096,59.43 L201.096,63 L199.934,63 L199.934,56.112 Z M204.792,61.306 C205.025334,61.6046682 205.326331,61.851999 205.695,62.048 C206.063669,62.244001 206.467331,62.342 206.906,62.342 C207.298002,62.342 207.638665,62.2486676 207.928,62.062 C208.217335,61.8753324 208.362,61.5953352 208.362,61.222 C208.362,60.9326652 208.266334,60.7063341 208.075,60.543 C207.883666,60.3796658 207.645668,60.2420006 207.361,60.13 C207.076332,60.0179994 206.766002,59.9153338 206.43,59.822 C206.093998,59.7286662 205.783668,59.6073341 205.499,59.458 C205.214332,59.3086659 204.976334,59.1126679 204.785,58.87 C204.593666,58.6273321 204.498,58.2960021 204.498,57.876 C204.498,57.5306649 204.567999,57.2343346 204.708,56.987 C204.848001,56.7396654 205.032332,56.5366675 205.261,56.378 C205.489668,56.2193325 205.753332,56.102667 206.052,56.028 C206.350668,55.953333 206.663332,55.916 206.99,55.916 C207.960672,55.916 208.767997,56.1959972 209.412,56.756 L208.824,57.54 C208.618666,57.3253323 208.345668,57.1456674 208.005,57.001 C207.664332,56.8563326 207.312002,56.784 206.948,56.784 C206.789333,56.784 206.633001,56.8026665 206.479,56.84 C206.324999,56.8773335 206.189667,56.9356663 206.073,57.015 C205.956333,57.0943337 205.863,57.1946661 205.793,57.316 C205.723,57.4373339 205.688,57.5866658 205.688,57.764 C205.688,58.034668 205.783666,58.2446659 205.975,58.394 C206.166334,58.5433341 206.404332,58.6716661 206.689,58.779 C206.973668,58.8863339 207.281665,58.9889995 207.613,59.087 C207.944335,59.1850005 208.252332,59.3109992 208.537,59.465 C208.821668,59.6190008 209.059666,59.8219987 209.251,60.074 C209.442334,60.3260013 209.538,60.6619979 209.538,61.082 C209.538,61.4366684 209.465667,61.7469987 209.321,62.013 C209.176333,62.2790013 208.985001,62.5006658 208.747,62.678 C208.508999,62.8553342 208.233668,62.9883329 207.921,63.077 C207.608332,63.1656671 207.284002,63.21 206.948,63.21 C205.790661,63.21 204.871337,62.8366704 204.19,62.09 L204.792,61.306 Z" id="200/200-characters" fill="#4C5358"></path>
                    <path d="M0,41.5 L210,41.5" id="Line" stroke="#7C878E" stroke-linecap="square"></path>
                    <path d="M0.464,30.96 C0.58133392,30.9813334 0.72799912,31.0053332 0.904,31.032 C1.08000088,31.0586668 1.24266592,31.072 1.392,31.072 C1.93600272,31.072 2.3013324,30.9493346 2.488,30.704 C2.6746676,30.4586654 2.768,30.0533362 2.768,29.488 L2.768,20.704 L4.208,20.704 L4.208,29.584 C4.208,30.4800045 4.02933512,31.1466645 3.672,31.584 C3.31466488,32.0213355 2.69333776,32.24 1.808,32.24 C1.53066528,32.24 1.258668,32.2266668 0.992,32.2 C0.725332,32.1733332 0.52800064,32.1333336 0.4,32.08 L0.464,30.96 Z M9.616,32.24 C9.01866368,32.24 8.4933356,32.1306678 8.04,31.912 C7.5866644,31.6933322 7.20800152,31.3946686 6.904,31.016 C6.59999848,30.6373314 6.37333408,30.1946692 6.224,29.688 C6.07466592,29.1813308 6,28.6346696 6,28.048 C6,27.4613304 6.07733256,26.9173358 6.232,26.416 C6.38666744,25.9146642 6.61599848,25.4773352 6.92,25.104 C7.22400152,24.7306648 7.6026644,24.4373344 8.056,24.224 C8.5093356,24.0106656 9.0293304,23.904 9.616,23.904 C10.2026696,23.904 10.7226644,24.0106656 11.176,24.224 C11.6293356,24.4373344 12.0106651,24.7279982 12.32,25.096 C12.6293349,25.4640018 12.8613326,25.9013308 13.016,26.408 C13.1706674,26.9146692 13.248,27.4613304 13.248,28.048 C13.248,28.6346696 13.1706674,29.1813308 13.016,29.688 C12.8613326,30.1946692 12.6293349,30.6373314 12.32,31.016 C12.0106651,31.3946686 11.6293356,31.6933322 11.176,31.912 C10.7226644,32.1306678 10.2026696,32.24 9.616,32.24 Z M9.648,31.2 C10.0106685,31.2 10.3306653,31.1200008 10.608,30.96 C10.8853347,30.7999992 11.1146658,30.5786681 11.296,30.296 C11.4773342,30.0133319 11.6159995,29.6800019 11.712,29.296 C11.8080005,28.9119981 11.856,28.4960022 11.856,28.048 C11.856,27.5999978 11.8080005,27.1866686 11.712,26.808 C11.6159995,26.4293314 11.472001,26.1013347 11.28,25.824 C11.087999,25.5466653 10.8533347,25.3306674 10.576,25.176 C10.2986653,25.0213326 9.97866848,24.944 9.616,24.944 C9.2426648,24.944 8.91733472,25.0213326 8.64,25.176 C8.36266528,25.3306674 8.13333424,25.5466653 7.952,25.824 C7.77066576,26.1013347 7.63200048,26.4293314 7.536,26.808 C7.43999952,27.1866686 7.392,27.5999978 7.392,28.048 C7.392,28.4960022 7.43999952,28.9119981 7.536,29.296 C7.63200048,29.6800019 7.7733324,30.0133319 7.96,30.296 C8.1466676,30.5786681 8.38133192,30.7999992 8.664,30.96 C8.94666808,31.1200008 9.2746648,31.2 9.648,31.2 Z M14.944,20.704 L16.272,20.704 L16.272,25.68 C16.3680005,25.4453322 16.4906659,25.2213344 16.64,25.008 C16.7893341,24.7946656 16.9706656,24.6053342 17.184,24.44 C17.3973344,24.2746658 17.6426653,24.1440005 17.92,24.048 C18.1973347,23.9519995 18.506665,23.904 18.848,23.904 C19.6693374,23.904 20.2746647,24.1733306 20.664,24.712 C21.0533353,25.2506694 21.248,25.9786621 21.248,26.896 L21.248,32 L19.92,32 L19.92,27.104 C19.92,26.4319966 19.7813347,25.9280017 19.504,25.592 C19.2266653,25.2559983 18.8320026,25.088 18.32,25.088 C18.0213318,25.088 17.7466679,25.1519994 17.496,25.28 C17.2453321,25.4080006 17.0293342,25.5893322 16.848,25.824 C16.6666658,26.0586678 16.5253338,26.3413317 16.424,26.672 C16.3226662,27.0026683 16.272,27.3653314 16.272,27.76 L16.272,32 L14.944,32 L14.944,20.704 Z M23.264,24.128 L24.416,24.128 L24.56,25.696 C24.7626677,25.2159976 25.0853311,24.7973351 25.528,24.44 C25.9706689,24.0826649 26.5173301,23.904 27.168,23.904 C27.9893374,23.904 28.5946647,24.1653307 28.984,24.688 C29.3733353,25.2106693 29.568,25.9413286 29.568,26.88 L29.568,32 L28.24,32 L28.24,27.152 C28.24,26.4373298 28.0960014,25.9120017 27.808,25.576 C27.5199986,25.2399983 27.1306691,25.072 26.64,25.072 C26.0533304,25.072 25.5653353,25.3119976 25.176,25.792 C24.7866647,26.2720024 24.592,26.949329 24.592,27.824 L24.592,32 L23.264,32 L23.264,24.128 Z M35.28,20.704 L37.072,20.704 C37.3600014,21.4186702 37.6559985,22.1626628 37.96,22.936 C38.2640015,23.7093372 38.5626652,24.4746629 38.856,25.232 C39.1493348,25.9893371 39.4319986,26.7199965 39.704,27.424 C39.9760014,28.1280035 40.2239989,28.7733304 40.448,29.36 C40.6720011,28.7733304 40.917332,28.1280035 41.184,27.424 C41.450668,26.7199965 41.7333318,25.9893371 42.032,25.232 C42.3306682,24.4746629 42.6319985,23.7120038 42.936,22.944 C43.2400015,22.1759962 43.5359986,21.429337 43.824,20.704 L45.536,20.704 L45.536,32 L44.176,32 L44.176,29.568 C44.176,28.7359958 44.1786666,27.9146707 44.184,27.104 C44.1893334,26.2933293 44.1946666,25.5066705 44.2,24.744 C44.2053334,23.9813295 44.2133333,23.2746699 44.224,22.624 C43.9786654,23.2853366 43.7040015,23.9973295 43.4,24.76 C43.0959985,25.5226705 42.781335,26.3119959 42.456,27.128 C42.130665,27.9440041 41.8000017,28.7679958 41.464,29.6 C41.1279983,30.4320042 40.8000016,31.247996 40.48,32.048 L40.352,32.048 C40.0639986,31.322663 39.7440018,30.5280043 39.392,29.664 C39.0399982,28.7999957 38.6906684,27.938671 38.344,27.08 C37.9973316,26.221329 37.6693349,25.4026706 37.36,24.624 C37.0506651,23.8453294 36.7946677,23.1786694 36.592,22.624 C36.6026667,23.2746699 36.6133333,23.9813295 36.624,24.744 C36.6346667,25.5066705 36.64,26.2959959 36.64,27.112 C36.64,27.9280041 36.6426666,28.7519958 36.648,29.584 C36.6533334,30.4160042 36.656,31.2213294 36.656,32 L35.28,32 L35.28,20.704 Z M48.688,28.368 C48.7413336,29.2746712 48.9733313,29.9759975 49.384,30.472 C49.7946687,30.9680025 50.3679963,31.216 51.104,31.216 C52.0320046,31.216 52.7306643,30.778671 53.2,29.904 L54.208,30.464 C53.8986651,30.9866693 53.4880026,31.4133317 52.976,31.744 C52.4639974,32.0746683 51.8186706,32.24 51.04,32.24 C50.4213302,32.24 49.8800023,32.1333344 49.416,31.92 C48.9519977,31.7066656 48.5653349,31.4133352 48.256,31.04 C47.9466651,30.6666648 47.7146674,30.2293358 47.56,29.728 C47.4053326,29.2266642 47.328,28.6880029 47.328,28.112 C47.328,27.5466638 47.4026659,27.0080026 47.552,26.496 C47.7013341,25.9839974 47.9279985,25.5360019 48.232,25.152 C48.5360015,24.7679981 48.9093311,24.4640011 49.352,24.24 C49.7946689,24.0159989 50.3146637,23.904 50.912,23.904 C51.4880029,23.904 51.9893312,24.0133322 52.416,24.232 C52.8426688,24.4506678 53.1973319,24.7439982 53.48,25.112 C53.7626681,25.4800018 53.9759993,25.9066642 54.12,26.392 C54.2640007,26.8773358 54.336,27.3919973 54.336,27.936 C54.336,28.0533339 54.3333334,28.1439997 54.328,28.208 C54.3226666,28.2720003 54.32,28.3253331 54.32,28.368 L48.688,28.368 Z M50.896,24.912 C50.2239966,24.912 49.7040018,25.1519976 49.336,25.632 C48.9679982,26.1120024 48.7573336,26.7573293 48.704,27.568 L52.976,27.568 C52.976,27.2373317 52.938667,26.9146682 52.864,26.6 C52.789333,26.2853318 52.6666675,26.0026679 52.496,25.752 C52.3253325,25.5013321 52.1093346,25.2986674 51.848,25.144 C51.5866654,24.9893326 51.2693352,24.912 50.896,24.912 Z M55.952,24.128 L57.104,24.128 L57.232,25.888 C57.4560011,25.3119971 57.8133309,24.8373352 58.304,24.464 C58.7946691,24.0906648 59.3759966,23.904 60.048,23.904 L60.048,25.312 C59.8986659,25.2799998 59.7333342,25.264 59.552,25.264 C59.285332,25.264 59.018668,25.3119995 58.752,25.408 C58.485332,25.5040005 58.2426678,25.6586656 58.024,25.872 C57.8053322,26.0853344 57.6266674,26.3599983 57.488,26.696 C57.3493326,27.0320017 57.28,27.4399976 57.28,27.92 L57.28,32 L55.952,32 L55.952,24.128 Z M67.936,30.272 C67.6159984,30.9120032 67.1866694,31.3999983 66.648,31.736 C66.1093306,32.0720017 65.4560038,32.24 64.688,32.24 C64.0586635,32.24 63.5120023,32.1306678 63.048,31.912 C62.5839977,31.6933322 62.2000015,31.3973352 61.896,31.024 C61.5919985,30.6506648 61.3680007,30.2106692 61.224,29.704 C61.0799993,29.1973308 61.008,28.6560029 61.008,28.08 C61.008,27.4933304 61.0853326,26.9466692 61.24,26.44 C61.3946674,25.9333308 61.6239985,25.4933352 61.928,25.12 C62.2320015,24.7466648 62.613331,24.4506678 63.072,24.232 C63.530669,24.0133322 64.0693302,23.904 64.688,23.904 C65.4666706,23.904 66.1146641,24.0773316 66.632,24.424 C67.1493359,24.7706684 67.5679984,25.2586635 67.888,25.888 L66.768,26.416 C66.3626646,25.4346618 65.6800048,24.944 64.72,24.944 C64.3146646,24.944 63.9653348,25.0239992 63.672,25.184 C63.3786652,25.3440008 63.1386676,25.5626653 62.952,25.84 C62.7653324,26.1173347 62.6266671,26.4399982 62.536,26.808 C62.4453329,27.1760018 62.4,27.5733312 62.4,28 C62.4,28.4053354 62.4426662,28.7999981 62.528,29.184 C62.6133338,29.5680019 62.751999,29.9093318 62.944,30.208 C63.136001,30.5066682 63.3813318,30.7466658 63.68,30.928 C63.9786682,31.1093342 64.3466645,31.2 64.784,31.2 C65.3386694,31.2 65.786665,31.0586681 66.128,30.776 C66.469335,30.4933319 66.7306658,30.1280022 66.912,29.68 L67.936,30.272 Z M69.376,24.128 L70.72,24.128 L70.72,28.896 C70.72,29.6426704 70.8586653,30.1893316 71.136,30.536 C71.4133347,30.8826684 71.8026642,31.056 72.304,31.056 C72.9440032,31.056 73.4426649,30.8026692 73.8,30.296 C74.1573351,29.7893308 74.336,29.1146709 74.336,28.272 L74.336,24.128 L75.664,24.128 L75.664,32 L74.416,32 L74.416,30.4 C74.3199995,30.6453346 74.2026674,30.8773322 74.064,31.096 C73.9253326,31.3146678 73.7546677,31.5066658 73.552,31.672 C73.3493323,31.8373342 73.114668,31.9679995 72.848,32.064 C72.581332,32.1600005 72.2666685,32.208 71.904,32.208 C71.0506624,32.208 70.4160021,31.9493359 70,31.432 C69.5839979,30.9146641 69.376,30.1813381 69.376,29.232 L69.376,24.128 Z M77.712,24.128 L78.864,24.128 L78.992,25.888 C79.2160011,25.3119971 79.5733309,24.8373352 80.064,24.464 C80.5546691,24.0906648 81.1359966,23.904 81.808,23.904 L81.808,25.312 C81.6586659,25.2799998 81.4933342,25.264 81.312,25.264 C81.045332,25.264 80.778668,25.3119995 80.512,25.408 C80.245332,25.5040005 80.0026678,25.6586656 79.784,25.872 C79.5653322,26.0853344 79.3866674,26.3599983 79.248,26.696 C79.1093326,27.0320017 79.04,27.4399976 79.04,27.92 L79.04,32 L77.712,32 L77.712,24.128 Z M82.944,33.68 C83.0613339,33.7226669 83.1946659,33.7599998 83.344,33.792 C83.4933341,33.8240002 83.6479992,33.84 83.808,33.84 C83.9786675,33.84 84.1253327,33.8160002 84.248,33.768 C84.3706673,33.7199998 84.4826662,33.6320006 84.584,33.504 C84.6853338,33.3759994 84.7813329,33.2053344 84.872,32.992 C84.9626671,32.7786656 85.0613328,32.501335 85.168,32.16 L82.496,24.128 L83.936,24.128 L85.856,30.64 L87.76,24.128 L89.2,24.128 L86.784,31.376 C86.5813323,31.9946698 86.3973342,32.5226645 86.232,32.96 C86.0666658,33.3973355 85.8826677,33.7573319 85.68,34.04 C85.4773323,34.3226681 85.2293348,34.530666 84.936,34.664 C84.6426652,34.797334 84.266669,34.864 83.808,34.864 C83.6266658,34.864 83.432001,34.8560001 83.224,34.84 C83.015999,34.8239999 82.8533339,34.7946669 82.736,34.752 L82.944,33.68 Z" id="John-Mercury" fill="#000000"></path>
                </g>
            </g>
        </g>
    </g>
</svg>