<?xml version="1.0" encoding="UTF-8"?>
<svg width="212px" height="89px" viewBox="0 0 212 89" version="1.1" xmlns="http://www.w3.org/2000/svg" xmlns:xlink="http://www.w3.org/1999/xlink">
    <!-- Generator: Sketch 47 (45396) - http://www.bohemiancoding.com/sketch -->
    <title>ConsiderableLength</title>
    <desc>Created with Sketch.</desc>
    <defs></defs>
    <g id="Text-area" stroke="none" stroke-width="1" fill="none" fill-rule="evenodd">
        <g id="Text-area-Usage-extra-large-1200" transform="translate(-387.000000, -2916.000000)">
            <g id="Group-7" transform="translate(311.000000, 2854.000000)">
                <g id="ConsiderableLength" transform="translate(77.000000, 62.000000)">
                    <path d="M0.98,0.116 L2.548,0.116 C2.80000126,0.74133646 3.05899867,1.39232995 3.325,2.069 C3.59100133,2.74567005 3.85233205,3.41533002 4.109,4.078 C4.36566795,4.74066998 4.61299881,5.37999692 4.851,5.996 C5.08900119,6.61200308 5.30599902,7.1766641 5.502,7.69 C5.69800098,7.1766641 5.9126655,6.61200308 6.146,5.996 C6.3793345,5.37999692 6.62666536,4.74066998 6.888,4.078 C7.14933464,3.41533002 7.41299867,2.74800336 7.679,2.076 C7.94500133,1.40399664 8.20399874,0.75066984 8.456,0.116 L9.954,0.116 L9.954,10 L8.764,10 L8.764,7.872 C8.764,7.14399636 8.76633331,6.42533688 8.771,5.716 C8.77566669,5.00666312 8.78033331,4.31833667 8.785,3.651 C8.78966669,2.98366333 8.79666662,2.36533618 8.806,1.796 C8.59133226,2.37466956 8.35100133,2.99766333 8.085,3.665 C7.81899867,4.33233667 7.54366809,5.02299643 7.259,5.737 C6.97433191,6.45100357 6.68500147,7.17199636 6.391,7.9 C6.09699853,8.62800364 5.8100014,9.3419965 5.53,10.042 L5.418,10.042 C5.16599874,9.40733016 4.88600154,8.71200378 4.578,7.956 C4.26999846,7.19999622 3.96433485,6.44633709 3.661,5.695 C3.35766515,4.94366291 3.07066802,4.22733674 2.8,3.546 C2.52933198,2.86466326 2.30533422,2.28133576 2.128,1.796 C2.13733338,2.36533618 2.14666662,2.98366333 2.156,3.651 C2.16533338,4.31833667 2.17,5.00899643 2.17,5.723 C2.17,6.43700357 2.17233331,7.15799636 2.177,7.886 C2.18166669,8.61400364 2.184,9.31866326 2.184,10 L0.98,10 L0.98,0.116 Z M12.712,6.822 C12.7586669,7.6153373 12.9616649,8.22899783 13.321,8.663 C13.6803351,9.09700217 14.1819968,9.314 14.826,9.314 C15.6380041,9.314 16.2493313,8.93133716 16.66,8.166 L17.542,8.656 C17.271332,9.11333562 16.9120022,9.48666522 16.464,9.776 C16.0159978,10.0653348 15.4513367,10.21 14.77,10.21 C14.228664,10.21 13.755002,10.1166676 13.349,9.93 C12.942998,9.7433324 12.604668,9.4866683 12.334,9.16 C12.063332,8.8333317 11.860334,8.45066886 11.725,8.012 C11.589666,7.57333114 11.522,7.10200252 11.522,6.598 C11.522,6.10333086 11.5873327,5.63200224 11.718,5.184 C11.8486673,4.73599776 12.0469987,4.34400168 12.313,4.008 C12.5790013,3.67199832 12.9056647,3.40600098 13.293,3.21 C13.6803353,3.01399902 14.1353307,2.916 14.658,2.916 C15.1620025,2.916 15.6006648,3.01166571 15.974,3.203 C16.3473352,3.39433429 16.6576654,3.65099839 16.905,3.973 C17.1523346,4.29500161 17.3389994,4.66833121 17.465,5.093 C17.5910006,5.51766879 17.654,5.96799762 17.654,6.444 C17.654,6.54666718 17.6516667,6.62599972 17.647,6.682 C17.6423333,6.73800028 17.64,6.78466648 17.64,6.822 L12.712,6.822 Z M14.644,3.798 C14.0559971,3.798 13.6010016,4.0079979 13.279,4.428 C12.9569984,4.8480021 12.7726669,5.41266312 12.726,6.122 L16.464,6.122 C16.464,5.83266522 16.4313337,5.55033471 16.366,5.275 C16.3006663,4.99966529 16.1933341,4.75233443 16.044,4.533 C15.8946659,4.31366557 15.7056678,4.13633401 15.477,4.001 C15.2483322,3.86566599 14.9706683,3.798 14.644,3.798 Z M19.194,8.306 C19.4273345,8.60466816 19.7283315,8.85199902 20.097,9.048 C20.4656685,9.24400098 20.8693311,9.342 21.308,9.342 C21.700002,9.342 22.0406652,9.2486676 22.33,9.062 C22.6193348,8.8753324 22.764,8.5953352 22.764,8.222 C22.764,7.93266522 22.6683343,7.70633415 22.477,7.543 C22.2856657,7.37966585 22.0476681,7.24200056 21.763,7.13 C21.4783319,7.01799944 21.1680017,6.9153338 20.832,6.822 C20.4959983,6.7286662 20.1856681,6.60733408 19.901,6.458 C19.6163319,6.30866592 19.3783343,6.11266788 19.187,5.87 C18.9956657,5.62733212 18.9,5.2960021 18.9,4.876 C18.9,4.53066494 18.9699993,4.23433457 19.11,3.987 C19.2500007,3.73966543 19.4343322,3.53666746 19.663,3.378 C19.8916678,3.21933254 20.1553318,3.10266704 20.454,3.028 C20.7526682,2.95333296 21.0653317,2.916 21.392,2.916 C22.3626715,2.916 23.1699968,3.1959972 23.814,3.756 L23.226,4.54 C23.0206656,4.32533226 22.7476684,4.14566739 22.407,4.001 C22.0663316,3.85633261 21.7140018,3.784 21.35,3.784 C21.1913325,3.784 21.0350008,3.80266648 20.881,3.84 C20.7269992,3.87733352 20.5916673,3.93566627 20.475,4.015 C20.3583328,4.09433373 20.2650004,4.19466606 20.195,4.316 C20.1249996,4.43733394 20.09,4.58666578 20.09,4.764 C20.09,5.03466802 20.1856657,5.24466592 20.377,5.394 C20.5683343,5.54333408 20.8063319,5.67166613 21.091,5.779 C21.3756681,5.88633387 21.683665,5.98899951 22.015,6.087 C22.346335,6.18500049 22.6543319,6.31099923 22.939,6.465 C23.2236681,6.61900077 23.4616657,6.82199874 23.653,7.074 C23.8443343,7.32600126 23.94,7.6619979 23.94,8.082 C23.94,8.43666844 23.8676674,8.74699867 23.723,9.013 C23.5783326,9.27900133 23.3870012,9.50066578 23.149,9.678 C22.9109988,9.85533422 22.6356682,9.98833289 22.323,10.077 C22.0103318,10.1656671 21.6860017,10.21 21.35,10.21 C20.1926609,10.21 19.2733367,9.8366704 18.592,9.09 L19.194,8.306 Z M25.424,8.306 C25.6573345,8.60466816 25.9583315,8.85199902 26.327,9.048 C26.6956685,9.24400098 27.0993311,9.342 27.538,9.342 C27.930002,9.342 28.2706652,9.2486676 28.56,9.062 C28.8493348,8.8753324 28.994,8.5953352 28.994,8.222 C28.994,7.93266522 28.8983343,7.70633415 28.707,7.543 C28.5156657,7.37966585 28.2776681,7.24200056 27.993,7.13 C27.7083319,7.01799944 27.3980017,6.9153338 27.062,6.822 C26.7259983,6.7286662 26.4156681,6.60733408 26.131,6.458 C25.8463319,6.30866592 25.6083343,6.11266788 25.417,5.87 C25.2256657,5.62733212 25.13,5.2960021 25.13,4.876 C25.13,4.53066494 25.1999993,4.23433457 25.34,3.987 C25.4800007,3.73966543 25.6643322,3.53666746 25.893,3.378 C26.1216678,3.21933254 26.3853318,3.10266704 26.684,3.028 C26.9826682,2.95333296 27.2953317,2.916 27.622,2.916 C28.5926715,2.916 29.3999968,3.1959972 30.044,3.756 L29.456,4.54 C29.2506656,4.32533226 28.9776684,4.14566739 28.637,4.001 C28.2963316,3.85633261 27.9440018,3.784 27.58,3.784 C27.4213325,3.784 27.2650008,3.80266648 27.111,3.84 C26.9569992,3.87733352 26.8216673,3.93566627 26.705,4.015 C26.5883327,4.09433373 26.4950003,4.19466606 26.425,4.316 C26.3549997,4.43733394 26.32,4.58666578 26.32,4.764 C26.32,5.03466802 26.4156657,5.24466592 26.607,5.394 C26.7983343,5.54333408 27.0363319,5.67166613 27.321,5.779 C27.6056681,5.88633387 27.913665,5.98899951 28.245,6.087 C28.576335,6.18500049 28.8843319,6.31099923 29.169,6.465 C29.4536681,6.61900077 29.6916657,6.82199874 29.883,7.074 C30.0743343,7.32600126 30.17,7.6619979 30.17,8.082 C30.17,8.43666844 30.0976674,8.74699867 29.953,9.013 C29.8083326,9.27900133 29.6170012,9.50066578 29.379,9.678 C29.1409988,9.85533422 28.8656682,9.98833289 28.553,10.077 C28.2403318,10.1656671 27.9160017,10.21 27.58,10.21 C26.4226609,10.21 25.5033367,9.8366704 24.822,9.09 L25.424,8.306 Z M35.854,10 C35.7513328,9.66399832 35.6906668,9.262669 35.672,8.796 C35.4853324,9.22533548 35.1983353,9.56833205 34.811,9.825 C34.4236647,10.0816679 33.9640027,10.21 33.432,10.21 C32.7599966,10.21 32.228002,10.0186686 31.836,9.636 C31.443998,9.25333142 31.248,8.74000322 31.248,8.096 C31.248,7.73199818 31.3133327,7.42633457 31.444,7.179 C31.5746673,6.93166543 31.7566655,6.72633415 31.99,6.563 C32.2233345,6.39966585 32.4986651,6.2713338 32.816,6.178 C33.1333349,6.0846662 33.4786648,6.01000028 33.852,5.954 L35.616,5.688 L35.616,5.254 C35.616,4.94599846 35.578667,4.6986676 35.504,4.512 C35.429333,4.3253324 35.3266673,4.18066718 35.196,4.078 C35.0653327,3.97533282 34.9160008,3.90766683 34.748,3.875 C34.5799992,3.84233317 34.4026676,3.826 34.216,3.826 C33.6839973,3.826 33.2453351,3.92399902 32.9,4.12 C32.5546649,4.31600098 32.2653345,4.56333184 32.032,4.862 L31.43,4.106 C31.700668,3.7793317 32.0763309,3.4993345 32.557,3.266 C33.0376691,3.0326655 33.6326631,2.916 34.342,2.916 C35.200671,2.916 35.8236647,3.10733142 36.211,3.49 C36.5983353,3.87266858 36.792,4.48866242 36.792,5.338 L36.792,8.124 C36.792,8.34800112 36.7943333,8.54399916 36.799,8.712 C36.8036667,8.88000084 36.8129999,9.03633261 36.827,9.181 C36.8410001,9.32566739 36.8619999,9.46333268 36.89,9.594 C36.9180001,9.72466732 36.9553331,9.8599993 37.002,10 L35.854,10 Z M35.616,6.458 L33.964,6.724 C33.3946638,6.82666718 32.9910012,6.98066564 32.753,7.186 C32.5149988,7.39133436 32.396,7.67599818 32.396,8.04 C32.396,8.4133352 32.5056656,8.72599874 32.725,8.978 C32.9443344,9.23000126 33.2686645,9.356 33.698,9.356 C33.9593346,9.356 34.2066655,9.30466718 34.44,9.202 C34.6733345,9.09933282 34.8763325,8.95700091 35.049,8.775 C35.2216675,8.59299909 35.3593328,8.37366795 35.462,8.117 C35.5646672,7.86033205 35.616,7.57800154 35.616,7.27 L35.616,6.458 Z M39.214,10.826 C39.484668,11.0873346 39.8089981,11.2949992 40.187,11.449 C40.5650019,11.6030008 40.9686645,11.68 41.398,11.68 C41.7526684,11.68 42.0419989,11.6263339 42.266,11.519 C42.4900011,11.4116661 42.6673327,11.2646676 42.798,11.078 C42.9286673,10.8913324 43.0196664,10.6790012 43.071,10.441 C43.1223336,10.2029988 43.148,9.94866802 43.148,9.678 L43.148,8.404 C42.9706658,8.8240021 42.7046684,9.16233205 42.35,9.419 C41.9953316,9.67566795 41.5380028,9.804 40.978,9.804 C40.5766647,9.804 40.2126683,9.72700077 39.886,9.573 C39.5593317,9.41899923 39.2793345,9.19733478 39.046,8.908 C38.8126655,8.61866522 38.6330006,8.2640021 38.507,7.844 C38.3809994,7.4239979 38.318,6.95266928 38.318,6.43 C38.318,5.9166641 38.3809994,5.44533548 38.507,5.016 C38.6330006,4.58666452 38.8149988,4.21800154 39.053,3.91 C39.2910012,3.60199846 39.5803316,3.36166753 39.921,3.189 C40.2616684,3.01633247 40.6419979,2.93 41.062,2.93 C41.6126694,2.93 42.0699982,3.06766529 42.434,3.343 C42.7980018,3.61833471 43.0593325,3.97066452 43.218,4.4 L43.414,3.112 L44.31,3.112 L44.31,9.65 C44.31,10.042002 44.2633338,10.4129982 44.17,10.763 C44.0766662,11.1130017 43.9180011,11.423332 43.694,11.694 C43.4699989,11.964668 43.1713352,12.1793325 42.798,12.338 C42.4246648,12.4966675 41.9580028,12.576 41.398,12.576 C40.7913303,12.576 40.2476691,12.4896675 39.767,12.317 C39.2863309,12.1443325 38.8826683,11.9273346 38.556,11.666 L39.214,10.826 Z M43.148,6.43 C43.148,6.27133254 43.1456667,6.11966739 43.141,5.975 C43.1363333,5.83033261 43.1246668,5.72066704 43.106,5.646 C43.0686665,5.42199888 43.0080004,5.20266774 42.924,4.988 C42.8399996,4.77333226 42.7256674,4.58666746 42.581,4.428 C42.4363326,4.26933254 42.2590011,4.14100049 42.049,4.043 C41.838999,3.94499951 41.5940014,3.896 41.314,3.896 C41.0059985,3.896 40.7400011,3.96133268 40.516,4.092 C40.2919989,4.22266732 40.1076674,4.39999888 39.963,4.624 C39.8183326,4.84800112 39.7110004,5.11399846 39.641,5.422 C39.5709997,5.73000154 39.536,6.05666494 39.536,6.402 C39.536,6.71000154 39.5686663,7.01566515 39.634,7.319 C39.6993337,7.62233485 39.8019993,7.8906655 39.942,8.124 C40.0820007,8.3573345 40.2663322,8.54633261 40.495,8.691 C40.7236678,8.83566739 41.0013317,8.908 41.328,8.908 C41.7853356,8.908 42.1539986,8.77966795 42.434,8.523 C42.7140014,8.26633205 42.9099994,7.94200196 43.022,7.55 C43.0686669,7.41933268 43.1013332,7.25600098 43.12,7.06 C43.1386668,6.86399902 43.148,6.67733422 43.148,6.5 L43.148,6.43 Z M46.984,6.822 C47.0306669,7.6153373 47.2336649,8.22899783 47.593,8.663 C47.9523351,9.09700217 48.4539968,9.314 49.098,9.314 C49.9100041,9.314 50.5213313,8.93133716 50.932,8.166 L51.814,8.656 C51.543332,9.11333562 51.1840022,9.48666522 50.736,9.776 C50.2879978,10.0653348 49.7233367,10.21 49.042,10.21 C48.500664,10.21 48.027002,10.1166676 47.621,9.93 C47.214998,9.7433324 46.876668,9.4866683 46.606,9.16 C46.335332,8.8333317 46.132334,8.45066886 45.997,8.012 C45.861666,7.57333114 45.794,7.10200252 45.794,6.598 C45.794,6.10333086 45.8593327,5.63200224 45.99,5.184 C46.1206673,4.73599776 46.3189987,4.34400168 46.585,4.008 C46.8510013,3.67199832 47.1776647,3.40600098 47.565,3.21 C47.9523353,3.01399902 48.4073307,2.916 48.93,2.916 C49.4340025,2.916 49.8726648,3.01166571 50.246,3.203 C50.6193352,3.39433429 50.9296654,3.65099839 51.177,3.973 C51.4243346,4.29500161 51.6109994,4.66833121 51.737,5.093 C51.8630006,5.51766879 51.926,5.96799762 51.926,6.444 C51.926,6.54666718 51.9236667,6.62599972 51.919,6.682 C51.9143333,6.73800028 51.912,6.78466648 51.912,6.822 L46.984,6.822 Z M48.916,3.798 C48.3279971,3.798 47.8730016,4.0079979 47.551,4.428 C47.2289984,4.8480021 47.0446669,5.41266312 46.998,6.122 L50.736,6.122 C50.736,5.83266522 50.7033337,5.55033471 50.638,5.275 C50.5726663,4.99966529 50.4653341,4.75233443 50.316,4.533 C50.1666659,4.31366557 49.9776678,4.13633401 49.749,4.001 C49.5203322,3.86566599 49.2426683,3.798 48.916,3.798 Z" id="Message" fill="#4C5358"></path>
                    <path d="M90.244,87.146 C90.5240014,86.9593324 90.8389982,86.7353346 91.189,86.474 C91.5390017,86.2126654 91.8913316,85.9256682 92.246,85.613 C92.6006684,85.3003318 92.943665,84.9690017 93.275,84.619 C93.606335,84.2689982 93.900332,83.9050019 94.157,83.527 C94.4136679,83.1489981 94.6213325,82.764002 94.78,82.372 C94.9386675,81.979998 95.018,81.588002 95.018,81.196 C95.018,80.6453306 94.8756681,80.1903351 94.591,79.831 C94.3063319,79.4716649 93.8746696,79.292 93.296,79.292 C92.7733307,79.292 92.3556682,79.4553317 92.043,79.782 C91.7303318,80.1086683 91.5226672,80.5146642 91.42,81 L90.314,80.734 C90.5566679,79.9779962 90.9299975,79.404002 91.434,79.012 C91.9380025,78.619998 92.6006626,78.424 93.422,78.424 C93.814002,78.424 94.1849982,78.4799994 94.535,78.592 C94.8850017,78.7040006 95.1906654,78.8719989 95.452,79.096 C95.7133346,79.3200011 95.9186659,79.6023316 96.068,79.943 C96.2173341,80.2836684 96.292,80.6826644 96.292,81.14 C96.292,81.7560031 96.1403348,82.3509971 95.837,82.925 C95.5336651,83.4990029 95.1580022,84.0403308 94.71,84.549 C94.2619978,85.0576692 93.7766693,85.5243312 93.254,85.949 C92.7313307,86.3736688 92.2506689,86.7353318 91.812,87.034 L96.544,87.034 L96.544,88 L90.244,88 L90.244,87.146 Z M101.36,87.216 C101.789335,87.216 102.141665,87.0830013 102.417,86.817 C102.692335,86.5509987 102.906999,86.2196686 103.061,85.823 C103.215001,85.4263313 103.322333,85.0016689 103.383,84.549 C103.443667,84.0963311 103.474,83.6833352 103.474,83.31 C103.474,82.9459982 103.443667,82.5353356 103.383,82.078 C103.322333,81.6206644 103.215001,81.1936686 103.061,80.797 C102.906999,80.4003313 102.692335,80.066668 102.417,79.796 C102.141665,79.525332 101.789335,79.39 101.36,79.39 C100.939998,79.39 100.594668,79.518332 100.324,79.775 C100.053332,80.0316679 99.8363341,80.3489981 99.673,80.727 C99.5096658,81.1050019 99.397667,81.5133311 99.337,81.952 C99.276333,82.3906689 99.246,82.7966648 99.246,83.17 C99.246,83.5526686 99.2716664,83.977331 99.323,84.444 C99.3743336,84.910669 99.4769992,85.3493313 99.631,85.76 C99.7850008,86.1706687 99.9996653,86.5159986 100.275,86.796 C100.550335,87.0760014 100.911998,87.216 101.36,87.216 Z M101.36,88.21 C100.743997,88.2006666 100.216669,88.0466682 99.778,87.748 C99.3393311,87.4493318 98.984668,87.066669 98.714,86.6 C98.443332,86.133331 98.2450006,85.6106696 98.119,85.032 C97.9929994,84.4533304 97.93,83.8793362 97.93,83.31 C97.93,82.7406638 97.9929994,82.1643362 98.119,81.581 C98.2450006,80.9976637 98.4456653,80.472669 98.721,80.006 C98.9963347,79.539331 99.3533311,79.1566682 99.792,78.858 C100.230669,78.5593318 100.76733,78.41 101.402,78.41 C102.027336,78.41 102.556998,78.5593318 102.991,78.858 C103.425002,79.1566682 103.774999,79.539331 104.041,80.006 C104.307001,80.472669 104.498333,80.9953304 104.615,81.574 C104.731667,82.1526696 104.79,82.7266638 104.79,83.296 C104.79,83.8560028 104.731667,84.4253304 104.615,85.004 C104.498333,85.5826696 104.307001,86.1076643 104.041,86.579 C103.774999,87.0503357 103.422669,87.4376651 102.984,87.741 C102.545331,88.0443348 102.004003,88.2006666 101.36,88.21 Z M109.34,87.216 C109.769335,87.216 110.121665,87.0830013 110.397,86.817 C110.672335,86.5509987 110.886999,86.2196686 111.041,85.823 C111.195001,85.4263313 111.302333,85.0016689 111.363,84.549 C111.423667,84.0963311 111.454,83.6833352 111.454,83.31 C111.454,82.9459982 111.423667,82.5353356 111.363,82.078 C111.302333,81.6206644 111.195001,81.1936686 111.041,80.797 C110.886999,80.4003313 110.672335,80.066668 110.397,79.796 C110.121665,79.525332 109.769335,79.39 109.34,79.39 C108.919998,79.39 108.574668,79.518332 108.304,79.775 C108.033332,80.0316679 107.816334,80.3489981 107.653,80.727 C107.489666,81.1050019 107.377667,81.5133311 107.317,81.952 C107.256333,82.3906689 107.226,82.7966648 107.226,83.17 C107.226,83.5526686 107.251666,83.977331 107.303,84.444 C107.354334,84.910669 107.456999,85.3493313 107.611,85.76 C107.765001,86.1706687 107.979665,86.5159986 108.255,86.796 C108.530335,87.0760014 108.891998,87.216 109.34,87.216 Z M109.34,88.21 C108.723997,88.2006666 108.196669,88.0466682 107.758,87.748 C107.319331,87.4493318 106.964668,87.066669 106.694,86.6 C106.423332,86.133331 106.225001,85.6106696 106.099,85.032 C105.972999,84.4533304 105.91,83.8793362 105.91,83.31 C105.91,82.7406638 105.972999,82.1643362 106.099,81.581 C106.225001,80.9976637 106.425665,80.472669 106.701,80.006 C106.976335,79.539331 107.333331,79.1566682 107.772,78.858 C108.210669,78.5593318 108.74733,78.41 109.382,78.41 C110.007336,78.41 110.536998,78.5593318 110.971,78.858 C111.405002,79.1566682 111.754999,79.539331 112.021,80.006 C112.287001,80.472669 112.478333,80.9953304 112.595,81.574 C112.711667,82.1526696 112.77,82.7266638 112.77,83.296 C112.77,83.8560028 112.711667,84.4253304 112.595,85.004 C112.478333,85.5826696 112.287001,86.1076643 112.021,86.579 C111.754999,87.0503357 111.402669,87.4376651 110.964,87.741 C110.525331,88.0443348 109.984003,88.2006666 109.34,88.21 Z M118.062,78.116 L119.084,78.116 L115.024,88 L113.974,88 L118.062,78.116 Z M120.554,87.146 C120.834001,86.9593324 121.148998,86.7353346 121.499,86.474 C121.849002,86.2126654 122.201332,85.9256682 122.556,85.613 C122.910668,85.3003318 123.253665,84.9690017 123.585,84.619 C123.916335,84.2689982 124.210332,83.9050019 124.467,83.527 C124.723668,83.1489981 124.931333,82.764002 125.09,82.372 C125.248667,81.979998 125.328,81.588002 125.328,81.196 C125.328,80.6453306 125.185668,80.1903351 124.901,79.831 C124.616332,79.4716649 124.18467,79.292 123.606,79.292 C123.083331,79.292 122.665668,79.4553317 122.353,79.782 C122.040332,80.1086683 121.832667,80.5146642 121.73,81 L120.624,80.734 C120.866668,79.9779962 121.239997,79.404002 121.744,79.012 C122.248003,78.619998 122.910663,78.424 123.732,78.424 C124.124002,78.424 124.494998,78.4799994 124.845,78.592 C125.195002,78.7040006 125.500665,78.8719989 125.762,79.096 C126.023335,79.3200011 126.228666,79.6023316 126.378,79.943 C126.527334,80.2836684 126.602,80.6826644 126.602,81.14 C126.602,81.7560031 126.450335,82.3509971 126.147,82.925 C125.843665,83.4990029 125.468002,84.0403308 125.02,84.549 C124.571998,85.0576692 124.086669,85.5243312 123.564,85.949 C123.041331,86.3736688 122.560669,86.7353318 122.122,87.034 L126.854,87.034 L126.854,88 L120.554,88 L120.554,87.146 Z M131.67,87.216 C132.099335,87.216 132.451665,87.0830013 132.727,86.817 C133.002335,86.5509987 133.216999,86.2196686 133.371,85.823 C133.525001,85.4263313 133.632333,85.0016689 133.693,84.549 C133.753667,84.0963311 133.784,83.6833352 133.784,83.31 C133.784,82.9459982 133.753667,82.5353356 133.693,82.078 C133.632333,81.6206644 133.525001,81.1936686 133.371,80.797 C133.216999,80.4003313 133.002335,80.066668 132.727,79.796 C132.451665,79.525332 132.099335,79.39 131.67,79.39 C131.249998,79.39 130.904668,79.518332 130.634,79.775 C130.363332,80.0316679 130.146334,80.3489981 129.983,80.727 C129.819666,81.1050019 129.707667,81.5133311 129.647,81.952 C129.586333,82.3906689 129.556,82.7966648 129.556,83.17 C129.556,83.5526686 129.581666,83.977331 129.633,84.444 C129.684334,84.910669 129.786999,85.3493313 129.941,85.76 C130.095001,86.1706687 130.309665,86.5159986 130.585,86.796 C130.860335,87.0760014 131.221998,87.216 131.67,87.216 Z M131.67,88.21 C131.053997,88.2006666 130.526669,88.0466682 130.088,87.748 C129.649331,87.4493318 129.294668,87.066669 129.024,86.6 C128.753332,86.133331 128.555001,85.6106696 128.429,85.032 C128.302999,84.4533304 128.24,83.8793362 128.24,83.31 C128.24,82.7406638 128.302999,82.1643362 128.429,81.581 C128.555001,80.9976637 128.755665,80.472669 129.031,80.006 C129.306335,79.539331 129.663331,79.1566682 130.102,78.858 C130.540669,78.5593318 131.07733,78.41 131.712,78.41 C132.337336,78.41 132.866998,78.5593318 133.301,78.858 C133.735002,79.1566682 134.084999,79.539331 134.351,80.006 C134.617001,80.472669 134.808333,80.9953304 134.925,81.574 C135.041667,82.1526696 135.1,82.7266638 135.1,83.296 C135.1,83.8560028 135.041667,84.4253304 134.925,85.004 C134.808333,85.5826696 134.617001,86.1076643 134.351,86.579 C134.084999,87.0503357 133.732669,87.4376651 133.294,87.741 C132.855331,88.0443348 132.314003,88.2006666 131.67,88.21 Z M139.65,87.216 C140.079335,87.216 140.431665,87.0830013 140.707,86.817 C140.982335,86.5509987 141.196999,86.2196686 141.351,85.823 C141.505001,85.4263313 141.612333,85.0016689 141.673,84.549 C141.733667,84.0963311 141.764,83.6833352 141.764,83.31 C141.764,82.9459982 141.733667,82.5353356 141.673,82.078 C141.612333,81.6206644 141.505001,81.1936686 141.351,80.797 C141.196999,80.4003313 140.982335,80.066668 140.707,79.796 C140.431665,79.525332 140.079335,79.39 139.65,79.39 C139.229998,79.39 138.884668,79.518332 138.614,79.775 C138.343332,80.0316679 138.126334,80.3489981 137.963,80.727 C137.799666,81.1050019 137.687667,81.5133311 137.627,81.952 C137.566333,82.3906689 137.536,82.7966648 137.536,83.17 C137.536,83.5526686 137.561666,83.977331 137.613,84.444 C137.664334,84.910669 137.766999,85.3493313 137.921,85.76 C138.075001,86.1706687 138.289665,86.5159986 138.565,86.796 C138.840335,87.0760014 139.201998,87.216 139.65,87.216 Z M139.65,88.21 C139.033997,88.2006666 138.506669,88.0466682 138.068,87.748 C137.629331,87.4493318 137.274668,87.066669 137.004,86.6 C136.733332,86.133331 136.535001,85.6106696 136.409,85.032 C136.282999,84.4533304 136.22,83.8793362 136.22,83.31 C136.22,82.7406638 136.282999,82.1643362 136.409,81.581 C136.535001,80.9976637 136.735665,80.472669 137.011,80.006 C137.286335,79.539331 137.643331,79.1566682 138.082,78.858 C138.520669,78.5593318 139.05733,78.41 139.692,78.41 C140.317336,78.41 140.846998,78.5593318 141.281,78.858 C141.715002,79.1566682 142.064999,79.539331 142.331,80.006 C142.597001,80.472669 142.788333,80.9953304 142.905,81.574 C143.021667,82.1526696 143.08,82.7266638 143.08,83.296 C143.08,83.8560028 143.021667,84.4253304 142.905,85.004 C142.788333,85.5826696 142.597001,86.1076643 142.331,86.579 C142.064999,87.0503357 141.712669,87.4376651 141.274,87.741 C140.835331,88.0443348 140.294003,88.2006666 139.65,88.21 Z M153.454,86.488 C153.173999,87.0480028 152.798336,87.4749985 152.327,87.769 C151.855664,88.0630015 151.284003,88.21 150.612,88.21 C150.061331,88.21 149.583002,88.1143343 149.177,87.923 C148.770998,87.7316657 148.435001,87.4726683 148.169,87.146 C147.902999,86.8193317 147.707001,86.4343355 147.581,85.991 C147.454999,85.5476644 147.392,85.0740025 147.392,84.57 C147.392,84.0566641 147.459666,83.5783355 147.595,83.135 C147.730334,82.6916644 147.930999,82.3066683 148.197,81.98 C148.463001,81.6533317 148.796665,81.3943343 149.198,81.203 C149.599335,81.0116657 150.070664,80.916 150.612,80.916 C151.293337,80.916 151.860331,81.0676651 152.313,81.371 C152.765669,81.6743348 153.131999,82.1013306 153.412,82.652 L152.432,83.114 C152.077332,82.255329 151.480004,81.826 150.64,81.826 C150.285332,81.826 149.979668,81.8959993 149.723,82.036 C149.466332,82.1760007 149.256334,82.3673321 149.093,82.61 C148.929666,82.8526679 148.808334,83.1349984 148.729,83.457 C148.649666,83.7790016 148.61,84.1266648 148.61,84.5 C148.61,84.8546684 148.647333,85.1999983 148.722,85.536 C148.796667,85.8720017 148.917999,86.1706654 149.086,86.432 C149.254001,86.6933346 149.468665,86.9033325 149.73,87.062 C149.991335,87.2206675 150.313331,87.3 150.696,87.3 C151.181336,87.3 151.573332,87.1763346 151.872,86.929 C152.170668,86.6816654 152.399333,86.362002 152.558,85.97 L153.454,86.488 Z M154.742,78.116 L155.904,78.116 L155.904,82.47 C155.988,82.2646656 156.095333,82.0686676 156.226,81.882 C156.356667,81.6953324 156.515332,81.5296674 156.702,81.385 C156.888668,81.2403326 157.103332,81.1260004 157.346,81.042 C157.588668,80.9579996 157.859332,80.916 158.158,80.916 C158.87667,80.916 159.406332,81.1516643 159.747,81.623 C160.087668,82.0943357 160.258,82.7313293 160.258,83.534 L160.258,88 L159.096,88 L159.096,83.716 C159.096,83.1279971 158.974668,82.6870015 158.732,82.393 C158.489332,82.0989985 158.144002,81.952 157.696,81.952 C157.434665,81.952 157.194334,82.0079994 156.975,82.12 C156.755666,82.2320006 156.566667,82.3906656 156.408,82.596 C156.249333,82.8013344 156.125667,83.0486652 156.037,83.338 C155.948333,83.6273348 155.904,83.9446649 155.904,84.29 L155.904,88 L154.742,88 L154.742,78.116 Z M166.348,88 C166.245333,87.6639983 166.184667,87.262669 166.166,86.796 C165.979332,87.2253355 165.692335,87.568332 165.305,87.825 C164.917665,88.0816679 164.458003,88.21 163.926,88.21 C163.253997,88.21 162.722002,88.0186686 162.33,87.636 C161.937998,87.2533314 161.742,86.7400032 161.742,86.096 C161.742,85.7319982 161.807333,85.4263346 161.938,85.179 C162.068667,84.9316654 162.250665,84.7263341 162.484,84.563 C162.717334,84.3996658 162.992665,84.2713338 163.31,84.178 C163.627335,84.0846662 163.972665,84.0100003 164.346,83.954 L166.11,83.688 L166.11,83.254 C166.11,82.9459985 166.072667,82.6986676 165.998,82.512 C165.923333,82.3253324 165.820667,82.1806672 165.69,82.078 C165.559333,81.9753328 165.410001,81.9076668 165.242,81.875 C165.073999,81.8423332 164.896668,81.826 164.71,81.826 C164.177997,81.826 163.739335,81.923999 163.394,82.12 C163.048665,82.316001 162.759334,82.5633318 162.526,82.862 L161.924,82.106 C162.194668,81.7793317 162.570331,81.4993345 163.051,81.266 C163.531669,81.0326655 164.126663,80.916 164.836,80.916 C165.694671,80.916 166.317665,81.1073314 166.705,81.49 C167.092335,81.8726686 167.286,82.4886624 167.286,83.338 L167.286,86.124 C167.286,86.3480011 167.288333,86.5439992 167.293,86.712 C167.297667,86.8800008 167.307,87.0363326 167.321,87.181 C167.335,87.3256674 167.356,87.4633327 167.384,87.594 C167.412,87.7246673 167.449333,87.8599993 167.496,88 L166.348,88 Z M166.11,84.458 L164.458,84.724 C163.888664,84.8266672 163.485001,84.9806656 163.247,85.186 C163.008999,85.3913344 162.89,85.6759982 162.89,86.04 C162.89,86.4133352 162.999666,86.7259987 163.219,86.978 C163.438334,87.2300013 163.762665,87.356 164.192,87.356 C164.453335,87.356 164.700666,87.3046672 164.934,87.202 C165.167334,87.0993328 165.370332,86.9570009 165.543,86.775 C165.715668,86.5929991 165.853333,86.3736679 165.956,86.117 C166.058667,85.860332 166.11,85.5780015 166.11,85.27 L166.11,84.458 Z M169.148,81.112 L170.156,81.112 L170.268,82.652 C170.464001,82.1479975 170.776665,81.7326683 171.206,81.406 C171.635335,81.0793317 172.143997,80.916 172.732,80.916 L172.732,82.148 C172.601333,82.1199999 172.456667,82.106 172.298,82.106 C172.064665,82.106 171.831335,82.1479996 171.598,82.232 C171.364666,82.3160004 171.152334,82.4513324 170.961,82.638 C170.769666,82.8246676 170.613334,83.0649985 170.492,83.359 C170.370666,83.6530015 170.31,84.0099979 170.31,84.43 L170.31,88 L169.148,88 L169.148,81.112 Z M178.206,88 C178.103333,87.6639983 178.042667,87.262669 178.024,86.796 C177.837332,87.2253355 177.550335,87.568332 177.163,87.825 C176.775665,88.0816679 176.316003,88.21 175.784,88.21 C175.111997,88.21 174.580002,88.0186686 174.188,87.636 C173.795998,87.2533314 173.6,86.7400032 173.6,86.096 C173.6,85.7319982 173.665333,85.4263346 173.796,85.179 C173.926667,84.9316654 174.108666,84.7263341 174.342,84.563 C174.575334,84.3996658 174.850665,84.2713338 175.168,84.178 C175.485335,84.0846662 175.830665,84.0100003 176.204,83.954 L177.968,83.688 L177.968,83.254 C177.968,82.9459985 177.930667,82.6986676 177.856,82.512 C177.781333,82.3253324 177.678667,82.1806672 177.548,82.078 C177.417333,81.9753328 177.268001,81.9076668 177.1,81.875 C176.931999,81.8423332 176.754668,81.826 176.568,81.826 C176.035997,81.826 175.597335,81.923999 175.252,82.12 C174.906665,82.316001 174.617335,82.5633318 174.384,82.862 L173.782,82.106 C174.052668,81.7793317 174.428331,81.4993345 174.909,81.266 C175.389669,81.0326655 175.984663,80.916 176.694,80.916 C177.552671,80.916 178.175665,81.1073314 178.563,81.49 C178.950335,81.8726686 179.144,82.4886624 179.144,83.338 L179.144,86.124 C179.144,86.3480011 179.146333,86.5439992 179.151,86.712 C179.155667,86.8800008 179.165,87.0363326 179.179,87.181 C179.193,87.3256674 179.214,87.4633327 179.242,87.594 C179.27,87.7246673 179.307333,87.8599993 179.354,88 L178.206,88 Z M177.968,84.458 L176.316,84.724 C175.746664,84.8266672 175.343001,84.9806656 175.105,85.186 C174.866999,85.3913344 174.748,85.6759982 174.748,86.04 C174.748,86.4133352 174.857666,86.7259987 175.077,86.978 C175.296334,87.2300013 175.620665,87.356 176.05,87.356 C176.311335,87.356 176.558666,87.3046672 176.792,87.202 C177.025334,87.0993328 177.228332,86.9570009 177.401,86.775 C177.573668,86.5929991 177.711333,86.3736679 177.814,86.117 C177.916667,85.860332 177.968,85.5780015 177.968,85.27 L177.968,84.458 Z M186.76,86.488 C186.479999,87.0480028 186.104336,87.4749985 185.633,87.769 C185.161664,88.0630015 184.590003,88.21 183.918,88.21 C183.367331,88.21 182.889002,88.1143343 182.483,87.923 C182.076998,87.7316657 181.741001,87.4726683 181.475,87.146 C181.208999,86.8193317 181.013001,86.4343355 180.887,85.991 C180.760999,85.5476644 180.698,85.0740025 180.698,84.57 C180.698,84.0566641 180.765666,83.5783355 180.901,83.135 C181.036334,82.6916644 181.236999,82.3066683 181.503,81.98 C181.769001,81.6533317 182.102665,81.3943343 182.504,81.203 C182.905335,81.0116657 183.376664,80.916 183.918,80.916 C184.599337,80.916 185.166331,81.0676651 185.619,81.371 C186.071669,81.6743348 186.437999,82.1013306 186.718,82.652 L185.738,83.114 C185.383332,82.255329 184.786004,81.826 183.946,81.826 C183.591332,81.826 183.285668,81.8959993 183.029,82.036 C182.772332,82.1760007 182.562334,82.3673321 182.399,82.61 C182.235666,82.8526679 182.114334,83.1349984 182.035,83.457 C181.955666,83.7790016 181.916,84.1266648 181.916,84.5 C181.916,84.8546684 181.953333,85.1999983 182.028,85.536 C182.102667,85.8720017 182.223999,86.1706654 182.392,86.432 C182.560001,86.6933346 182.774665,86.9033325 183.036,87.062 C183.297335,87.2206675 183.619331,87.3 184.002,87.3 C184.487336,87.3 184.879332,87.1763346 185.178,86.929 C185.476668,86.6816654 185.705333,86.362002 185.864,85.97 L186.76,86.488 Z M188.65,81.91 L187.474,81.91 L187.474,81.112 L187.726,81.112 C188.015335,81.112 188.241666,81.081667 188.405,81.021 C188.568334,80.960333 188.692,80.8670006 188.776,80.741 C188.86,80.6149994 188.920666,80.4493344 188.958,80.244 C188.995334,80.0386656 189.028,79.7866682 189.056,79.488 L189.084,79.236 L189.812,79.236 L189.812,81.112 L191.296,81.112 L191.296,81.91 L189.812,81.91 L189.812,86.194 C189.812,86.586002 189.870333,86.8683325 189.987,87.041 C190.103667,87.2136675 190.320665,87.3 190.638,87.3 C190.890001,87.3 191.123332,87.2440006 191.338,87.132 L191.464,87.972 C191.109332,88.1306675 190.717335,88.21 190.288,88.21 C189.951998,88.21 189.679001,88.1633338 189.469,88.07 C189.258999,87.9766662 189.093334,87.8506675 188.972,87.692 C188.850666,87.5333325 188.766667,87.3420011 188.72,87.118 C188.673333,86.8939989 188.65,86.6513346 188.65,86.39 L188.65,81.91 Z M193.578,84.822 C193.624667,85.6153373 193.827665,86.2289978 194.187,86.663 C194.546335,87.0970022 195.047997,87.314 195.692,87.314 C196.504004,87.314 197.115331,86.9313372 197.526,86.166 L198.408,86.656 C198.137332,87.1133356 197.778002,87.4866652 197.33,87.776 C196.881998,88.0653348 196.317337,88.21 195.636,88.21 C195.094664,88.21 194.621002,88.1166676 194.215,87.93 C193.808998,87.7433324 193.470668,87.4866683 193.2,87.16 C192.929332,86.8333317 192.726334,86.4506689 192.591,86.012 C192.455666,85.5733311 192.388,85.1020025 192.388,84.598 C192.388,84.1033309 192.453333,83.6320022 192.584,83.184 C192.714667,82.7359978 192.912999,82.3440017 193.179,82.008 C193.445001,81.6719983 193.771665,81.406001 194.159,81.21 C194.546335,81.013999 195.001331,80.916 195.524,80.916 C196.028003,80.916 196.466665,81.0116657 196.84,81.203 C197.213335,81.3943343 197.523665,81.6509984 197.771,81.973 C198.018335,82.2950016 198.204999,82.6683312 198.331,83.093 C198.457001,83.5176688 198.52,83.9679976 198.52,84.444 C198.52,84.5466672 198.517667,84.6259997 198.513,84.682 C198.508333,84.7380003 198.506,84.7846665 198.506,84.822 L193.578,84.822 Z M195.51,81.798 C194.921997,81.798 194.467002,82.0079979 194.145,82.428 C193.822998,82.8480021 193.638667,83.4126631 193.592,84.122 L197.33,84.122 C197.33,83.8326652 197.297334,83.5503347 197.232,83.275 C197.166666,82.9996653 197.059334,82.7523344 196.91,82.533 C196.760666,82.3136656 196.571668,82.136334 196.343,82.001 C196.114332,81.865666 195.836668,81.798 195.51,81.798 Z M199.934,81.112 L200.942,81.112 L201.054,82.652 C201.250001,82.1479975 201.562665,81.7326683 201.992,81.406 C202.421335,81.0793317 202.929997,80.916 203.518,80.916 L203.518,82.148 C203.387333,82.1199999 203.242667,82.106 203.084,82.106 C202.850665,82.106 202.617335,82.1479996 202.384,82.232 C202.150666,82.3160004 201.938334,82.4513324 201.747,82.638 C201.555666,82.8246676 201.399334,83.0649985 201.278,83.359 C201.156666,83.6530015 201.096,84.0099979 201.096,84.43 L201.096,88 L199.934,88 L199.934,81.112 Z M204.792,86.306 C205.025334,86.6046682 205.326331,86.851999 205.695,87.048 C206.063669,87.244001 206.467331,87.342 206.906,87.342 C207.298002,87.342 207.638665,87.2486676 207.928,87.062 C208.217335,86.8753324 208.362,86.5953352 208.362,86.222 C208.362,85.9326652 208.266334,85.7063341 208.075,85.543 C207.883666,85.3796658 207.645668,85.2420006 207.361,85.13 C207.076332,85.0179994 206.766002,84.9153338 206.43,84.822 C206.093998,84.7286662 205.783668,84.6073341 205.499,84.458 C205.214332,84.3086659 204.976334,84.1126679 204.785,83.87 C204.593666,83.6273321 204.498,83.2960021 204.498,82.876 C204.498,82.5306649 204.567999,82.2343346 204.708,81.987 C204.848001,81.7396654 205.032332,81.5366675 205.261,81.378 C205.489668,81.2193325 205.753332,81.102667 206.052,81.028 C206.350668,80.953333 206.663332,80.916 206.99,80.916 C207.960672,80.916 208.767997,81.1959972 209.412,81.756 L208.824,82.54 C208.618666,82.3253323 208.345668,82.1456674 208.005,82.001 C207.664332,81.8563326 207.312002,81.784 206.948,81.784 C206.789333,81.784 206.633001,81.8026665 206.479,81.84 C206.324999,81.8773335 206.189667,81.9356663 206.073,82.015 C205.956333,82.0943337 205.863,82.1946661 205.793,82.316 C205.723,82.4373339 205.688,82.5866658 205.688,82.764 C205.688,83.034668 205.783666,83.2446659 205.975,83.394 C206.166334,83.5433341 206.404332,83.6716661 206.689,83.779 C206.973668,83.8863339 207.281665,83.9889995 207.613,84.087 C207.944335,84.1850005 208.252332,84.3109992 208.537,84.465 C208.821668,84.6190008 209.059666,84.8219987 209.251,85.074 C209.442334,85.3260013 209.538,85.6619979 209.538,86.082 C209.538,86.4366684 209.465667,86.7469987 209.321,87.013 C209.176333,87.2790013 208.985001,87.5006658 208.747,87.678 C208.508999,87.8553342 208.233668,87.9883329 207.921,88.077 C207.608332,88.1656671 207.284002,88.21 206.948,88.21 C205.790661,88.21 204.871337,87.8366704 204.19,87.09 L204.792,86.306 Z" id="200/200-characters" fill="#4C5358"></path>
                    <path d="M0,66.5 L210,66.5" id="Line" stroke="#7C878E" stroke-linecap="square"></path>
                    <path d="M10.32,30.616 C9.85066432,31.5120045 9.25333696,32.1733312 8.528,32.6 C7.80266304,33.0266688 6.906672,33.24 5.84,33.24 C4.99732912,33.24 4.25333656,33.0880015 3.608,32.784 C2.96266344,32.4799985 2.42400216,32.061336 1.992,31.528 C1.55999784,30.994664 1.23466776,30.365337 1.016,29.64 C0.79733224,28.914663 0.688,28.1360042 0.688,27.304 C0.688,26.4613291 0.79999888,25.6853369 1.024,24.976 C1.24800112,24.2666631 1.57866448,23.6506693 2.016,23.128 C2.45333552,22.6053307 2.9919968,22.1973348 3.632,21.904 C4.2720032,21.6106652 5.00799584,21.464 5.84,21.464 C6.8000048,21.464 7.64799632,21.6533314 8.384,22.032 C9.12000368,22.4106686 9.73333088,23.0053293 10.224,23.816 L8.864,24.504 C8.55466512,23.9386638 8.14400256,23.4986682 7.632,23.184 C7.11999744,22.8693318 6.52267008,22.712 5.84,22.712 C5.24266368,22.712 4.7173356,22.8319988 4.264,23.072 C3.8106644,23.3120012 3.43200152,23.6373313 3.128,24.048 C2.82399848,24.4586687 2.59466744,24.9439972 2.44,25.504 C2.28533256,26.0640028 2.208,26.6639968 2.208,27.304 C2.208,27.9440032 2.2879992,28.5493305 2.448,29.12 C2.6080008,29.6906695 2.83999848,30.1893312 3.144,30.616 C3.44800152,31.0426688 3.8266644,31.3786654 4.28,31.624 C4.7333356,31.8693346 5.2533304,31.992 5.84,31.992 C7.32267408,31.992 8.36266368,31.3040069 8.96,29.928 L10.32,30.616 Z M15.248,33.24 C14.6506637,33.24 14.1253356,33.1306678 13.672,32.912 C13.2186644,32.6933322 12.8400015,32.3946686 12.536,32.016 C12.2319985,31.6373314 12.0053341,31.1946692 11.856,30.688 C11.7066659,30.1813308 11.632,29.6346696 11.632,29.048 C11.632,28.4613304 11.7093326,27.9173358 11.864,27.416 C12.0186674,26.9146642 12.2479985,26.4773352 12.552,26.104 C12.8560015,25.7306648 13.2346644,25.4373344 13.688,25.224 C14.1413356,25.0106656 14.6613304,24.904 15.248,24.904 C15.8346696,24.904 16.3546644,25.0106656 16.808,25.224 C17.2613356,25.4373344 17.6426651,25.7279982 17.952,26.096 C18.2613349,26.4640018 18.4933326,26.9013308 18.648,27.408 C18.8026674,27.9146692 18.88,28.4613304 18.88,29.048 C18.88,29.6346696 18.8026674,30.1813308 18.648,30.688 C18.4933326,31.1946692 18.2613349,31.6373314 17.952,32.016 C17.6426651,32.3946686 17.2613356,32.6933322 16.808,32.912 C16.3546644,33.1306678 15.8346696,33.24 15.248,33.24 Z M15.28,32.2 C15.6426685,32.2 15.9626653,32.1200008 16.24,31.96 C16.5173347,31.7999992 16.7466658,31.5786681 16.928,31.296 C17.1093342,31.0133319 17.2479995,30.6800019 17.344,30.296 C17.4400005,29.9119981 17.488,29.4960022 17.488,29.048 C17.488,28.5999978 17.4400005,28.1866686 17.344,27.808 C17.2479995,27.4293314 17.104001,27.1013347 16.912,26.824 C16.719999,26.5466653 16.4853347,26.3306674 16.208,26.176 C15.9306653,26.0213326 15.6106685,25.944 15.248,25.944 C14.8746648,25.944 14.5493347,26.0213326 14.272,26.176 C13.9946653,26.3306674 13.7653342,26.5466653 13.584,26.824 C13.4026658,27.1013347 13.2640005,27.4293314 13.168,27.808 C13.0719995,28.1866686 13.024,28.5999978 13.024,29.048 C13.024,29.4960022 13.0719995,29.9119981 13.168,30.296 C13.2640005,30.6800019 13.4053324,31.0133319 13.592,31.296 C13.7786676,31.5786681 14.0133319,31.7999992 14.296,31.96 C14.5786681,32.1200008 14.9066648,32.2 15.28,32.2 Z M20.576,25.128 L21.728,25.128 L21.872,26.696 C22.0746677,26.2159976 22.3973311,25.7973351 22.84,25.44 C23.2826689,25.0826649 23.8293301,24.904 24.48,24.904 C25.3013374,24.904 25.9066647,25.1653307 26.296,25.688 C26.6853353,26.2106693 26.88,26.9413286 26.88,27.88 L26.88,33 L25.552,33 L25.552,28.152 C25.552,27.4373298 25.4080014,26.9120017 25.12,26.576 C24.8319986,26.2399983 24.4426691,26.072 23.952,26.072 C23.3653304,26.072 22.8773353,26.3119976 22.488,26.792 C22.0986647,27.2720024 21.904,27.949329 21.904,28.824 L21.904,33 L20.576,33 L20.576,25.128 Z M29.536,33.944 C29.8453349,34.2426682 30.2159978,34.4799991 30.648,34.656 C31.0800022,34.8320009 31.5413309,34.92 32.032,34.92 C32.4373354,34.92 32.7679987,34.8586673 33.024,34.736 C33.2800013,34.6133327 33.4826659,34.4453344 33.632,34.232 C33.7813341,34.0186656 33.885333,33.7760014 33.944,33.504 C34.002667,33.2319986 34.032,32.9413349 34.032,32.632 L34.032,31.176 C33.8293323,31.6560024 33.5253354,32.0426652 33.12,32.336 C32.7146646,32.6293348 32.1920032,32.776 31.552,32.776 C31.093331,32.776 30.6773352,32.6880009 30.304,32.512 C29.9306648,32.3359991 29.610668,32.0826683 29.344,31.752 C29.077332,31.4213317 28.8720007,31.0160024 28.728,30.536 C28.5839993,30.0559976 28.512,29.5173363 28.512,28.92 C28.512,28.3333304 28.5839993,27.7946691 28.728,27.304 C28.8720007,26.8133309 29.0799986,26.3920018 29.352,26.04 C29.6240014,25.6879982 29.9546647,25.4133343 30.344,25.216 C30.7333353,25.0186657 31.1679976,24.92 31.648,24.92 C32.2773365,24.92 32.7999979,25.0773318 33.216,25.392 C33.6320021,25.7066682 33.9306658,26.1093309 34.112,26.6 L34.336,25.128 L35.36,25.128 L35.36,32.6 C35.36,33.0480022 35.3066672,33.471998 35.2,33.872 C35.0933328,34.272002 34.9120013,34.6266651 34.656,34.936 C34.3999987,35.2453349 34.0586688,35.4906658 33.632,35.672 C33.2053312,35.8533342 32.6720032,35.944 32.032,35.944 C31.3386632,35.944 30.7173361,35.8453343 30.168,35.648 C29.6186639,35.4506657 29.1573352,35.2026682 28.784,34.904 L29.536,33.944 Z M34.032,28.92 C34.032,28.7386658 34.0293334,28.5653342 34.024,28.4 C34.0186666,28.2346658 34.0053334,28.1093338 33.984,28.024 C33.9413331,27.7679987 33.8720005,27.5173346 33.776,27.272 C33.6799995,27.0266654 33.5493342,26.8133342 33.384,26.632 C33.2186658,26.4506658 33.0160012,26.3040006 32.776,26.192 C32.5359988,26.0799994 32.2560016,26.024 31.936,26.024 C31.5839982,26.024 31.2800013,26.0986659 31.024,26.248 C30.7679987,26.3973341 30.5573342,26.5999987 30.392,26.856 C30.2266658,27.1120013 30.1040004,27.4159982 30.024,27.768 C29.9439996,28.1200018 29.904,28.4933314 29.904,28.888 C29.904,29.2400018 29.941333,29.5893316 30.016,29.936 C30.090667,30.2826684 30.2079992,30.589332 30.368,30.856 C30.5280008,31.122668 30.7386654,31.3386658 31,31.504 C31.2613346,31.6693342 31.5786648,31.752 31.952,31.752 C32.4746693,31.752 32.8959984,31.6053348 33.216,31.312 C33.5360016,31.0186652 33.7599994,30.6480022 33.888,30.2 C33.9413336,30.0506659 33.9786666,29.8640011 34,29.64 C34.0213334,29.4159989 34.032,29.2026677 34.032,29 L34.032,28.92 Z M37.408,25.128 L38.56,25.128 L38.688,26.888 C38.9120011,26.3119971 39.2693309,25.8373352 39.76,25.464 C40.2506691,25.0906648 40.8319966,24.904 41.504,24.904 L41.504,26.312 C41.3546659,26.2799998 41.1893342,26.264 41.008,26.264 C40.741332,26.264 40.474668,26.3119995 40.208,26.408 C39.941332,26.5040005 39.6986678,26.6586656 39.48,26.872 C39.2613322,27.0853344 39.0826674,27.3599983 38.944,27.696 C38.8053326,28.0320017 38.736,28.4399976 38.736,28.92 L38.736,33 L37.408,33 L37.408,25.128 Z M47.76,33 C47.6426661,32.6159981 47.5733334,32.157336 47.552,31.624 C47.3386656,32.1146691 47.0106689,32.5066652 46.568,32.8 C46.1253311,33.0933348 45.600003,33.24 44.992,33.24 C44.2239962,33.24 43.6160022,33.0213355 43.168,32.584 C42.7199978,32.1466645 42.496,31.5600037 42.496,30.824 C42.496,30.4079979 42.5706659,30.0586681 42.72,29.776 C42.8693341,29.4933319 43.077332,29.2586676 43.344,29.072 C43.610668,28.8853324 43.9253315,28.7386672 44.288,28.632 C44.6506685,28.5253328 45.0453312,28.4400003 45.472,28.376 L47.488,28.072 L47.488,27.576 C47.488,27.2239982 47.4453338,26.9413344 47.36,26.728 C47.2746662,26.5146656 47.1573341,26.3493339 47.008,26.232 C46.8586659,26.1146661 46.688001,26.0373335 46.496,26 C46.303999,25.9626665 46.1013344,25.944 45.888,25.944 C45.279997,25.944 44.7786686,26.0559989 44.384,26.28 C43.9893314,26.5040011 43.658668,26.786665 43.392,27.128 L42.704,26.264 C43.0133349,25.8906648 43.4426639,25.570668 43.992,25.304 C44.5413361,25.037332 45.2213293,24.904 46.032,24.904 C47.0133382,24.904 47.7253311,25.1226645 48.168,25.56 C48.6106689,25.9973355 48.832,26.7013285 48.832,27.672 L48.832,30.856 C48.832,31.1120013 48.8346666,31.335999 48.84,31.528 C48.8453334,31.720001 48.8559999,31.8986658 48.872,32.064 C48.8880001,32.2293342 48.9119998,32.3866659 48.944,32.536 C48.9760002,32.6853341 49.0186664,32.8399992 49.072,33 L47.76,33 Z M47.488,28.952 L45.6,29.256 C44.9493301,29.3733339 44.4880014,29.5493322 44.216,29.784 C43.9439986,30.0186678 43.808,30.3439979 43.808,30.76 C43.808,31.1866688 43.9333321,31.5439986 44.184,31.832 C44.4346679,32.1200014 44.8053309,32.264 45.296,32.264 C45.5946682,32.264 45.877332,32.2053339 46.144,32.088 C46.410668,31.9706661 46.6426657,31.808001 46.84,31.6 C47.0373343,31.391999 47.1946661,31.1413348 47.312,30.848 C47.4293339,30.5546652 47.488,30.2320018 47.488,29.88 L47.488,28.952 Z M51.648,26.04 L50.304,26.04 L50.304,25.128 L50.592,25.128 C50.9226683,25.128 51.1813324,25.0933337 51.368,25.024 C51.5546676,24.9546663 51.6959995,24.8480007 51.792,24.704 C51.8880005,24.5599993 51.9573331,24.3706678 52,24.136 C52.0426669,23.9013322 52.0799998,23.613335 52.112,23.272 L52.144,22.984 L52.976,22.984 L52.976,25.128 L54.672,25.128 L54.672,26.04 L52.976,26.04 L52.976,30.936 C52.976,31.3840022 53.042666,31.7066657 53.176,31.904 C53.309334,32.1013343 53.5573315,32.2 53.92,32.2 C54.2080014,32.2 54.4746654,32.1360006 54.72,32.008 L54.864,32.968 C54.4586646,33.1493342 54.0106691,33.24 53.52,33.24 C53.1359981,33.24 52.8240012,33.1866672 52.584,33.08 C52.3439988,32.9733328 52.1546674,32.8293342 52.016,32.648 C51.8773326,32.4666658 51.7813336,32.2480013 51.728,31.992 C51.6746664,31.7359987 51.648,31.4586682 51.648,31.16 L51.648,26.04 Z M56.24,25.128 L57.584,25.128 L57.584,29.896 C57.584,30.6426704 57.7226653,31.1893316 58,31.536 C58.2773347,31.8826684 58.6666642,32.056 59.168,32.056 C59.8080032,32.056 60.3066649,31.8026692 60.664,31.296 C61.0213351,30.7893308 61.2,30.1146709 61.2,29.272 L61.2,25.128 L62.528,25.128 L62.528,33 L61.28,33 L61.28,31.4 C61.1839995,31.6453346 61.0666674,31.8773322 60.928,32.096 C60.7893326,32.3146678 60.6186677,32.5066658 60.416,32.672 C60.2133323,32.8373342 59.978668,32.9679995 59.712,33.064 C59.445332,33.1600005 59.1306685,33.208 58.768,33.208 C57.9146624,33.208 57.2800021,32.9493359 56.864,32.432 C56.4479979,31.9146641 56.24,31.1813381 56.24,30.232 L56.24,25.128 Z M64.576,21.704 L65.904,21.704 L65.904,33 L64.576,33 L64.576,21.704 Z M72.896,33 C72.7786661,32.6159981 72.7093334,32.157336 72.688,31.624 C72.4746656,32.1146691 72.1466689,32.5066652 71.704,32.8 C71.2613311,33.0933348 70.736003,33.24 70.128,33.24 C69.3599962,33.24 68.7520022,33.0213355 68.304,32.584 C67.8559978,32.1466645 67.632,31.5600037 67.632,30.824 C67.632,30.4079979 67.7066659,30.0586681 67.856,29.776 C68.0053341,29.4933319 68.213332,29.2586676 68.48,29.072 C68.746668,28.8853324 69.0613315,28.7386672 69.424,28.632 C69.7866685,28.5253328 70.1813312,28.4400003 70.608,28.376 L72.624,28.072 L72.624,27.576 C72.624,27.2239982 72.5813338,26.9413344 72.496,26.728 C72.4106662,26.5146656 72.2933341,26.3493339 72.144,26.232 C71.9946659,26.1146661 71.824001,26.0373335 71.632,26 C71.439999,25.9626665 71.2373344,25.944 71.024,25.944 C70.415997,25.944 69.9146686,26.0559989 69.52,26.28 C69.1253314,26.5040011 68.794668,26.786665 68.528,27.128 L67.84,26.264 C68.1493349,25.8906648 68.5786639,25.570668 69.128,25.304 C69.6773361,25.037332 70.3573293,24.904 71.168,24.904 C72.1493382,24.904 72.8613311,25.1226645 73.304,25.56 C73.7466689,25.9973355 73.968,26.7013285 73.968,27.672 L73.968,30.856 C73.968,31.1120013 73.9706666,31.335999 73.976,31.528 C73.9813334,31.720001 73.9919999,31.8986658 74.008,32.064 C74.0240001,32.2293342 74.0479998,32.3866659 74.08,32.536 C74.1120002,32.6853341 74.1546664,32.8399992 74.208,33 L72.896,33 Z M72.624,28.952 L70.736,29.256 C70.0853301,29.3733339 69.6240014,29.5493322 69.352,29.784 C69.0799986,30.0186678 68.944,30.3439979 68.944,30.76 C68.944,31.1866688 69.0693321,31.5439986 69.32,31.832 C69.5706679,32.1200014 69.9413309,32.264 70.432,32.264 C70.7306682,32.264 71.013332,32.2053339 71.28,32.088 C71.546668,31.9706661 71.7786657,31.808001 71.976,31.6 C72.1733343,31.391999 72.3306661,31.1413348 72.448,30.848 C72.5653339,30.5546652 72.624,30.2320018 72.624,29.88 L72.624,28.952 Z M76.784,26.04 L75.44,26.04 L75.44,25.128 L75.728,25.128 C76.0586683,25.128 76.3173324,25.0933337 76.504,25.024 C76.6906676,24.9546663 76.8319995,24.8480007 76.928,24.704 C77.0240005,24.5599993 77.0933331,24.3706678 77.136,24.136 C77.1786669,23.9013322 77.2159998,23.613335 77.248,23.272 L77.28,22.984 L78.112,22.984 L78.112,25.128 L79.808,25.128 L79.808,26.04 L78.112,26.04 L78.112,30.936 C78.112,31.3840022 78.178666,31.7066657 78.312,31.904 C78.445334,32.1013343 78.6933315,32.2 79.056,32.2 C79.3440014,32.2 79.6106654,32.1360006 79.856,32.008 L80,32.968 C79.5946646,33.1493342 79.1466691,33.24 78.656,33.24 C78.2719981,33.24 77.9600012,33.1866672 77.72,33.08 C77.4799988,32.9733328 77.2906674,32.8293342 77.152,32.648 C77.0133326,32.4666658 76.9173336,32.2480013 76.864,31.992 C76.8106664,31.7359987 76.784,31.4586682 76.784,31.16 L76.784,26.04 Z M81.408,22.072 L82.736,22.072 L82.736,23.4 L81.408,23.4 L81.408,22.072 Z M81.408,25.128 L82.736,25.128 L82.736,33 L81.408,33 L81.408,25.128 Z M88.048,33.24 C87.4506637,33.24 86.9253356,33.1306678 86.472,32.912 C86.0186644,32.6933322 85.6400015,32.3946686 85.336,32.016 C85.0319985,31.6373314 84.8053341,31.1946692 84.656,30.688 C84.5066659,30.1813308 84.432,29.6346696 84.432,29.048 C84.432,28.4613304 84.5093326,27.9173358 84.664,27.416 C84.8186674,26.9146642 85.0479985,26.4773352 85.352,26.104 C85.6560015,25.7306648 86.0346644,25.4373344 86.488,25.224 C86.9413356,25.0106656 87.4613304,24.904 88.048,24.904 C88.6346696,24.904 89.1546644,25.0106656 89.608,25.224 C90.0613356,25.4373344 90.4426651,25.7279982 90.752,26.096 C91.0613349,26.4640018 91.2933326,26.9013308 91.448,27.408 C91.6026674,27.9146692 91.68,28.4613304 91.68,29.048 C91.68,29.6346696 91.6026674,30.1813308 91.448,30.688 C91.2933326,31.1946692 91.0613349,31.6373314 90.752,32.016 C90.4426651,32.3946686 90.0613356,32.6933322 89.608,32.912 C89.1546644,33.1306678 88.6346696,33.24 88.048,33.24 Z M88.08,32.2 C88.4426685,32.2 88.7626653,32.1200008 89.04,31.96 C89.3173347,31.7999992 89.5466658,31.5786681 89.728,31.296 C89.9093342,31.0133319 90.0479995,30.6800019 90.144,30.296 C90.2400005,29.9119981 90.288,29.4960022 90.288,29.048 C90.288,28.5999978 90.2400005,28.1866686 90.144,27.808 C90.0479995,27.4293314 89.904001,27.1013347 89.712,26.824 C89.519999,26.5466653 89.2853347,26.3306674 89.008,26.176 C88.7306653,26.0213326 88.4106685,25.944 88.048,25.944 C87.6746648,25.944 87.3493347,26.0213326 87.072,26.176 C86.7946653,26.3306674 86.5653342,26.5466653 86.384,26.824 C86.2026658,27.1013347 86.0640005,27.4293314 85.968,27.808 C85.8719995,28.1866686 85.824,28.5999978 85.824,29.048 C85.824,29.4960022 85.8719995,29.9119981 85.968,30.296 C86.0640005,30.6800019 86.2053324,31.0133319 86.392,31.296 C86.5786676,31.5786681 86.8133319,31.7999992 87.096,31.96 C87.3786681,32.1200008 87.7066648,32.2 88.08,32.2 Z M93.376,25.128 L94.528,25.128 L94.672,26.696 C94.8746677,26.2159976 95.1973311,25.7973351 95.64,25.44 C96.0826689,25.0826649 96.6293301,24.904 97.28,24.904 C98.1013374,24.904 98.7066647,25.1653307 99.096,25.688 C99.4853353,26.2106693 99.68,26.9413286 99.68,27.88 L99.68,33 L98.352,33 L98.352,28.152 C98.352,27.4373298 98.2080014,26.9120017 97.92,26.576 C97.6319986,26.2399983 97.2426691,26.072 96.752,26.072 C96.1653304,26.072 95.6773353,26.3119976 95.288,26.792 C94.8986647,27.2720024 94.704,27.949329 94.704,28.824 L94.704,33 L93.376,33 L93.376,25.128 Z M101.84,31.064 C102.106668,31.405335 102.450665,31.6879989 102.872,31.912 C103.293335,32.1360011 103.754664,32.248 104.256,32.248 C104.704002,32.248 105.093332,32.1413344 105.424,31.928 C105.754668,31.7146656 105.92,31.3946688 105.92,30.968 C105.92,30.6373317 105.810668,30.3786676 105.592,30.192 C105.373332,30.0053324 105.101335,29.8480006 104.776,29.72 C104.450665,29.5919994 104.096002,29.4746672 103.712,29.368 C103.327998,29.2613328 102.973335,29.1226675 102.648,28.952 C102.322665,28.7813325 102.050668,28.5573347 101.832,28.28 C101.613332,28.0026653 101.504,27.6240024 101.504,27.144 C101.504,26.7493314 101.583999,26.4106681 101.744,26.128 C101.904001,25.8453319 102.114665,25.6133342 102.376,25.432 C102.637335,25.2506658 102.938665,25.1173338 103.28,25.032 C103.621335,24.9466662 103.978665,24.904 104.352,24.904 C105.461339,24.904 106.383996,25.2239968 107.12,25.864 L106.448,26.76 C106.213332,26.5146654 105.901335,26.3093342 105.512,26.144 C105.122665,25.9786658 104.720002,25.896 104.304,25.896 C104.122666,25.896 103.944001,25.9173331 103.768,25.96 C103.591999,26.0026669 103.437334,26.0693329 103.304,26.16 C103.170666,26.2506671 103.064,26.3653326 102.984,26.504 C102.904,26.6426674 102.864,26.8133323 102.864,27.016 C102.864,27.3253349 102.973332,27.5653325 103.192,27.736 C103.410668,27.9066675 103.682665,28.0533327 104.008,28.176 C104.333335,28.2986673 104.685331,28.4159994 105.064,28.528 C105.442669,28.6400006 105.794665,28.7839991 106.12,28.96 C106.445335,29.1360009 106.717332,29.3679986 106.936,29.656 C107.154668,29.9440014 107.264,30.3279976 107.264,30.808 C107.264,31.2133354 107.181334,31.5679985 107.016,31.872 C106.850666,32.1760015 106.632001,32.4293323 106.36,32.632 C106.087999,32.8346677 105.773335,32.9866662 105.416,33.088 C105.058665,33.1893338 104.688002,33.24 104.304,33.24 C102.981327,33.24 101.930671,32.8133376 101.152,31.96 L101.84,31.064 Z M115.808,21.704 L117.136,21.704 L121.12,33 L119.616,33 L118.608,29.96 L114.256,29.96 L113.248,33 L111.792,33 L115.808,21.704 Z M118.224,28.856 C117.925332,27.9279954 117.629335,27.0186711 117.336,26.128 C117.042665,25.2373289 116.746668,24.3013382 116.448,23.32 C116.170665,24.2800048 115.877335,25.2106622 115.568,26.112 C115.258665,27.0133378 114.949335,27.9279954 114.64,28.856 L118.224,28.856 Z M122.544,25.128 L123.696,25.128 L123.84,26.696 C124.042668,26.2159976 124.365331,25.7973351 124.808,25.44 C125.250669,25.0826649 125.79733,24.904 126.448,24.904 C127.269337,24.904 127.874665,25.1653307 128.264,25.688 C128.653335,26.2106693 128.848,26.9413286 128.848,27.88 L128.848,33 L127.52,33 L127.52,28.152 C127.52,27.4373298 127.376001,26.9120017 127.088,26.576 C126.799999,26.2399983 126.410669,26.072 125.92,26.072 C125.33333,26.072 124.845335,26.3119976 124.456,26.792 C124.066665,27.2720024 123.872,27.949329 123.872,28.824 L123.872,33 L122.544,33 L122.544,25.128 Z M130.864,25.128 L132.016,25.128 L132.16,26.696 C132.362668,26.2159976 132.685331,25.7973351 133.128,25.44 C133.570669,25.0826649 134.11733,24.904 134.768,24.904 C135.589337,24.904 136.194665,25.1653307 136.584,25.688 C136.973335,26.2106693 137.168,26.9413286 137.168,27.88 L137.168,33 L135.84,33 L135.84,28.152 C135.84,27.4373298 135.696001,26.9120017 135.408,26.576 C135.119999,26.2399983 134.730669,26.072 134.24,26.072 C133.65333,26.072 133.165335,26.3119976 132.776,26.792 C132.386665,27.2720024 132.192,27.949329 132.192,28.824 L132.192,33 L130.864,33 L130.864,25.128 Z M140.192,29.368 C140.245334,30.2746712 140.477331,30.9759975 140.888,31.472 C141.298669,31.9680025 141.871996,32.216 142.608,32.216 C143.536005,32.216 144.234664,31.778671 144.704,30.904 L145.712,31.464 C145.402665,31.9866693 144.992003,32.4133317 144.48,32.744 C143.967997,33.0746683 143.322671,33.24 142.544,33.24 C141.92533,33.24 141.384002,33.1333344 140.92,32.92 C140.455998,32.7066656 140.069335,32.4133352 139.76,32.04 C139.450665,31.6666648 139.218667,31.2293358 139.064,30.728 C138.909333,30.2266642 138.832,29.6880029 138.832,29.112 C138.832,28.5466638 138.906666,28.0080026 139.056,27.496 C139.205334,26.9839974 139.431998,26.5360019 139.736,26.152 C140.040002,25.7679981 140.413331,25.4640011 140.856,25.24 C141.298669,25.0159989 141.818664,24.904 142.416,24.904 C142.992003,24.904 143.493331,25.0133322 143.92,25.232 C144.346669,25.4506678 144.701332,25.7439982 144.984,26.112 C145.266668,26.4800018 145.479999,26.9066642 145.624,27.392 C145.768001,27.8773358 145.84,28.3919973 145.84,28.936 C145.84,29.0533339 145.837333,29.1439997 145.832,29.208 C145.826667,29.2720003 145.824,29.3253331 145.824,29.368 L140.192,29.368 Z M142.4,25.912 C141.727997,25.912 141.208002,26.1519976 140.84,26.632 C140.471998,27.1120024 140.261334,27.7573293 140.208,28.568 L144.48,28.568 C144.48,28.2373317 144.442667,27.9146682 144.368,27.6 C144.293333,27.2853318 144.170668,27.0026679 144,26.752 C143.829332,26.5013321 143.613335,26.2986674 143.352,26.144 C143.090665,25.9893326 142.773335,25.912 142.4,25.912 Z M147.904,30.12 L147.632,25.608 L147.632,21.704 L149.12,21.704 L149.12,25.608 L148.848,30.12 L147.904,30.12 Z M147.616,31.432 L149.12,31.432 L149.12,33 L147.616,33 L147.616,31.432 Z M155.184,21.704 L156.624,21.704 L156.624,33 L155.184,33 L155.184,21.704 Z M159.6,26.04 L158.256,26.04 L158.256,25.128 L158.544,25.128 C158.874668,25.128 159.133332,25.0933337 159.32,25.024 C159.506668,24.9546663 159.648,24.8480007 159.744,24.704 C159.84,24.5599993 159.909333,24.3706678 159.952,24.136 C159.994667,23.9013322 160.032,23.613335 160.064,23.272 L160.096,22.984 L160.928,22.984 L160.928,25.128 L162.624,25.128 L162.624,26.04 L160.928,26.04 L160.928,30.936 C160.928,31.3840022 160.994666,31.7066657 161.128,31.904 C161.261334,32.1013343 161.509332,32.2 161.872,32.2 C162.160001,32.2 162.426665,32.1360006 162.672,32.008 L162.816,32.968 C162.410665,33.1493342 161.962669,33.24 161.472,33.24 C161.087998,33.24 160.776001,33.1866672 160.536,33.08 C160.295999,32.9733328 160.106667,32.8293342 159.968,32.648 C159.829333,32.4666658 159.733334,32.2480013 159.68,31.992 C159.626666,31.7359987 159.6,31.4586682 159.6,31.16 L159.6,26.04 Z M167.248,25.128 L168.688,25.128 L170.288,31.72 L171.872,25.128 L173.344,25.128 L174.896,31.72 L176.512,25.128 L177.952,25.128 L175.632,33 L174.16,33 L172.592,26.936 L171.024,33 L169.552,33 L167.248,25.128 Z M184.432,33 C184.314666,32.6159981 184.245333,32.157336 184.224,31.624 C184.010666,32.1146691 183.682669,32.5066652 183.24,32.8 C182.797331,33.0933348 182.272003,33.24 181.664,33.24 C180.895996,33.24 180.288002,33.0213355 179.84,32.584 C179.391998,32.1466645 179.168,31.5600037 179.168,30.824 C179.168,30.4079979 179.242666,30.0586681 179.392,29.776 C179.541334,29.4933319 179.749332,29.2586676 180.016,29.072 C180.282668,28.8853324 180.597332,28.7386672 180.96,28.632 C181.322668,28.5253328 181.717331,28.4400003 182.144,28.376 L184.16,28.072 L184.16,27.576 C184.16,27.2239982 184.117334,26.9413344 184.032,26.728 C183.946666,26.5146656 183.829334,26.3493339 183.68,26.232 C183.530666,26.1146661 183.360001,26.0373335 183.168,26 C182.975999,25.9626665 182.773334,25.944 182.56,25.944 C181.951997,25.944 181.450669,26.0559989 181.056,26.28 C180.661331,26.5040011 180.330668,26.786665 180.064,27.128 L179.376,26.264 C179.685335,25.8906648 180.114664,25.570668 180.664,25.304 C181.213336,25.037332 181.893329,24.904 182.704,24.904 C183.685338,24.904 184.397331,25.1226645 184.84,25.56 C185.282669,25.9973355 185.504,26.7013285 185.504,27.672 L185.504,30.856 C185.504,31.1120013 185.506667,31.335999 185.512,31.528 C185.517333,31.720001 185.528,31.8986658 185.544,32.064 C185.56,32.2293342 185.584,32.3866659 185.616,32.536 C185.648,32.6853341 185.690666,32.8399992 185.744,33 L184.432,33 Z M184.16,28.952 L182.272,29.256 C181.62133,29.3733339 181.160001,29.5493322 180.888,29.784 C180.615999,30.0186678 180.48,30.3439979 180.48,30.76 C180.48,31.1866688 180.605332,31.5439986 180.856,31.832 C181.106668,32.1200014 181.477331,32.264 181.968,32.264 C182.266668,32.264 182.549332,32.2053339 182.816,32.088 C183.082668,31.9706661 183.314666,31.808001 183.512,31.6 C183.709334,31.391999 183.866666,31.1413348 183.984,30.848 C184.101334,30.5546652 184.16,30.2320018 184.16,29.88 L184.16,28.952 Z M187.776,31.064 C188.042668,31.405335 188.386665,31.6879989 188.808,31.912 C189.229335,32.1360011 189.690664,32.248 190.192,32.248 C190.640002,32.248 191.029332,32.1413344 191.36,31.928 C191.690668,31.7146656 191.856,31.3946688 191.856,30.968 C191.856,30.6373317 191.746668,30.3786676 191.528,30.192 C191.309332,30.0053324 191.037335,29.8480006 190.712,29.72 C190.386665,29.5919994 190.032002,29.4746672 189.648,29.368 C189.263998,29.2613328 188.909335,29.1226675 188.584,28.952 C188.258665,28.7813325 187.986668,28.5573347 187.768,28.28 C187.549332,28.0026653 187.44,27.6240024 187.44,27.144 C187.44,26.7493314 187.519999,26.4106681 187.68,26.128 C187.840001,25.8453319 188.050665,25.6133342 188.312,25.432 C188.573335,25.2506658 188.874665,25.1173338 189.216,25.032 C189.557335,24.9466662 189.914665,24.904 190.288,24.904 C191.397339,24.904 192.319996,25.2239968 193.056,25.864 L192.384,26.76 C192.149332,26.5146654 191.837335,26.3093342 191.448,26.144 C191.058665,25.9786658 190.656002,25.896 190.24,25.896 C190.058666,25.896 189.880001,25.9173331 189.704,25.96 C189.527999,26.0026669 189.373334,26.0693329 189.24,26.16 C189.106666,26.2506671 189,26.3653326 188.92,26.504 C188.84,26.6426674 188.8,26.8133323 188.8,27.016 C188.8,27.3253349 188.909332,27.5653325 189.128,27.736 C189.346668,27.9066675 189.618665,28.0533327 189.944,28.176 C190.269335,28.2986673 190.621331,28.4159994 191,28.528 C191.378669,28.6400006 191.730665,28.7839991 192.056,28.96 C192.381335,29.1360009 192.653332,29.3679986 192.872,29.656 C193.090668,29.9440014 193.2,30.3279976 193.2,30.808 C193.2,31.2133354 193.117334,31.5679985 192.952,31.872 C192.786666,32.1760015 192.568001,32.4293323 192.296,32.632 C192.023999,32.8346677 191.709335,32.9866662 191.352,33.088 C190.994665,33.1893338 190.624002,33.24 190.24,33.24 C188.917327,33.24 187.866671,32.8133376 187.088,31.96 L187.776,31.064 Z M203.296,33 C203.178666,32.6159981 203.109333,32.157336 203.088,31.624 C202.874666,32.1146691 202.546669,32.5066652 202.104,32.8 C201.661331,33.0933348 201.136003,33.24 200.528,33.24 C199.759996,33.24 199.152002,33.0213355 198.704,32.584 C198.255998,32.1466645 198.032,31.5600037 198.032,30.824 C198.032,30.4079979 198.106666,30.0586681 198.256,29.776 C198.405334,29.4933319 198.613332,29.2586676 198.88,29.072 C199.146668,28.8853324 199.461332,28.7386672 199.824,28.632 C200.186668,28.5253328 200.581331,28.4400003 201.008,28.376 L203.024,28.072 L203.024,27.576 C203.024,27.2239982 202.981334,26.9413344 202.896,26.728 C202.810666,26.5146656 202.693334,26.3493339 202.544,26.232 C202.394666,26.1146661 202.224001,26.0373335 202.032,26 C201.839999,25.9626665 201.637334,25.944 201.424,25.944 C200.815997,25.944 200.314669,26.0559989 199.92,26.28 C199.525331,26.5040011 199.194668,26.786665 198.928,27.128 L198.24,26.264 C198.549335,25.8906648 198.978664,25.570668 199.528,25.304 C200.077336,25.037332 200.757329,24.904 201.568,24.904 C202.549338,24.904 203.261331,25.1226645 203.704,25.56 C204.146669,25.9973355 204.368,26.7013285 204.368,27.672 L204.368,30.856 C204.368,31.1120013 204.370667,31.335999 204.376,31.528 C204.381333,31.720001 204.392,31.8986658 204.408,32.064 C204.424,32.2293342 204.448,32.3866659 204.48,32.536 C204.512,32.6853341 204.554666,32.8399992 204.608,33 L203.296,33 Z M203.024,28.952 L201.136,29.256 C200.48533,29.3733339 200.024001,29.5493322 199.752,29.784 C199.479999,30.0186678 199.344,30.3439979 199.344,30.76 C199.344,31.1866688 199.469332,31.5439986 199.72,31.832 C199.970668,32.1200014 200.341331,32.264 200.832,32.264 C201.130668,32.264 201.413332,32.2053339 201.68,32.088 C201.946668,31.9706661 202.178666,31.808001 202.376,31.6 C202.573334,31.391999 202.730666,31.1413348 202.848,30.848 C202.965334,30.5546652 203.024,30.2320018 203.024,29.88 L203.024,28.952 Z M1.024,45.128 L2.176,45.128 L2.304,46.888 C2.52800112,46.3119971 2.88533088,45.8373352 3.376,45.464 C3.86666912,45.0906648 4.44799664,44.904 5.12,44.904 L5.12,46.312 C4.97066592,46.2799998 4.80533424,46.264 4.624,46.264 C4.357332,46.264 4.090668,46.3119995 3.824,46.408 C3.557332,46.5040005 3.31466776,46.6586656 3.096,46.872 C2.87733224,47.0853344 2.69866736,47.3599983 2.56,47.696 C2.42133264,48.0320017 2.352,48.4399976 2.352,48.92 L2.352,53 L1.024,53 L1.024,45.128 Z M7.44,49.368 C7.4933336,50.2746712 7.72533128,50.9759975 8.136,51.472 C8.54666872,51.9680025 9.11999632,52.216 9.856,52.216 C10.7840046,52.216 11.4826643,51.778671 11.952,50.904 L12.96,51.464 C12.6506651,51.9866693 12.2400026,52.4133317 11.728,52.744 C11.2159974,53.0746683 10.5706706,53.24 9.792,53.24 C9.17333024,53.24 8.63200232,53.1333344 8.168,52.92 C7.70399768,52.7066656 7.31733488,52.4133352 7.008,52.04 C6.69866512,51.6666648 6.46666744,51.2293358 6.312,50.728 C6.15733256,50.2266642 6.08,49.6880029 6.08,49.112 C6.08,48.5466638 6.15466592,48.0080026 6.304,47.496 C6.45333408,46.9839974 6.67999848,46.5360019 6.984,46.152 C7.28800152,45.7679981 7.66133112,45.4640011 8.104,45.24 C8.54666888,45.0159989 9.06666368,44.904 9.664,44.904 C10.2400029,44.904 10.7413312,45.0133322 11.168,45.232 C11.5946688,45.4506678 11.9493319,45.7439982 12.232,46.112 C12.5146681,46.4800018 12.7279993,46.9066642 12.872,47.392 C13.0160007,47.8773358 13.088,48.3919973 13.088,48.936 C13.088,49.0533339 13.0853334,49.1439997 13.08,49.208 C13.0746666,49.2720003 13.072,49.3253331 13.072,49.368 L7.44,49.368 Z M9.648,45.912 C8.97599664,45.912 8.45600184,46.1519976 8.088,46.632 C7.71999816,47.1120024 7.5093336,47.7573293 7.456,48.568 L11.728,48.568 C11.728,48.2373317 11.690667,47.9146682 11.616,47.6 C11.541333,47.2853318 11.4186675,47.0026679 11.248,46.752 C11.0773325,46.5013321 10.8613346,46.2986674 10.6,46.144 C10.3386654,45.9893326 10.0213352,45.912 9.648,45.912 Z M19.648,53 C19.5306661,52.6159981 19.4613334,52.157336 19.44,51.624 C19.2266656,52.1146691 18.8986689,52.5066652 18.456,52.8 C18.0133311,53.0933348 17.488003,53.24 16.88,53.24 C16.1119962,53.24 15.5040022,53.0213355 15.056,52.584 C14.6079978,52.1466645 14.384,51.5600037 14.384,50.824 C14.384,50.4079979 14.4586659,50.0586681 14.608,49.776 C14.7573341,49.4933319 14.965332,49.2586676 15.232,49.072 C15.498668,48.8853324 15.8133315,48.7386672 16.176,48.632 C16.5386685,48.5253328 16.9333312,48.4400003 17.36,48.376 L19.376,48.072 L19.376,47.576 C19.376,47.2239982 19.3333338,46.9413344 19.248,46.728 C19.1626662,46.5146656 19.0453341,46.3493339 18.896,46.232 C18.7466659,46.1146661 18.576001,46.0373335 18.384,46 C18.191999,45.9626665 17.9893344,45.944 17.776,45.944 C17.167997,45.944 16.6666686,46.0559989 16.272,46.28 C15.8773314,46.5040011 15.546668,46.786665 15.28,47.128 L14.592,46.264 C14.9013349,45.8906648 15.3306639,45.570668 15.88,45.304 C16.4293361,45.037332 17.1093293,44.904 17.92,44.904 C18.9013382,44.904 19.6133311,45.1226645 20.056,45.56 C20.4986689,45.9973355 20.72,46.7013285 20.72,47.672 L20.72,50.856 C20.72,51.1120013 20.7226666,51.335999 20.728,51.528 C20.7333334,51.720001 20.7439999,51.8986658 20.76,52.064 C20.7760001,52.2293342 20.7999998,52.3866659 20.832,52.536 C20.8640002,52.6853341 20.9066664,52.8399992 20.96,53 L19.648,53 Z M19.376,48.952 L17.488,49.256 C16.8373301,49.3733339 16.3760014,49.5493322 16.104,49.784 C15.8319986,50.0186678 15.696,50.3439979 15.696,50.76 C15.696,51.1866688 15.8213321,51.5439986 16.072,51.832 C16.3226679,52.1200014 16.6933309,52.264 17.184,52.264 C17.4826682,52.264 17.765332,52.2053339 18.032,52.088 C18.298668,51.9706661 18.5306657,51.808001 18.728,51.6 C18.9253343,51.391999 19.0826661,51.1413348 19.2,50.848 C19.3173339,50.5546652 19.376,50.2320018 19.376,49.88 L19.376,48.952 Z M22.848,41.704 L24.176,41.704 L24.176,53 L22.848,53 L22.848,41.704 Z M26.224,41.704 L27.552,41.704 L27.552,53 L26.224,53 L26.224,41.704 Z M29.424,54.68 C29.5413339,54.7226669 29.6746659,54.7599998 29.824,54.792 C29.9733341,54.8240002 30.1279992,54.84 30.288,54.84 C30.4586675,54.84 30.6053327,54.8160002 30.728,54.768 C30.8506673,54.7199998 30.9626662,54.6320006 31.064,54.504 C31.1653338,54.3759994 31.2613329,54.2053344 31.352,53.992 C31.4426671,53.7786656 31.5413328,53.501335 31.648,53.16 L28.976,45.128 L30.416,45.128 L32.336,51.64 L34.24,45.128 L35.68,45.128 L33.264,52.376 C33.0613323,52.9946698 32.8773342,53.5226645 32.712,53.96 C32.5466658,54.3973355 32.3626677,54.7573319 32.16,55.04 C31.9573323,55.3226681 31.7093348,55.530666 31.416,55.664 C31.1226652,55.797334 30.746669,55.864 30.288,55.864 C30.1066658,55.864 29.912001,55.8560001 29.704,55.84 C29.495999,55.8239999 29.3333339,55.7946669 29.216,55.752 L29.424,54.68 Z M40.72,42.072 L42.048,42.072 L42.048,43.4 L40.72,43.4 L40.72,42.072 Z M40.72,45.128 L42.048,45.128 L42.048,53 L40.72,53 L40.72,45.128 Z M44.096,45.128 L45.248,45.128 L45.392,46.696 C45.5946677,46.2159976 45.9173311,45.7973351 46.36,45.44 C46.8026689,45.0826649 47.3493301,44.904 48,44.904 C48.8213374,44.904 49.4266647,45.1653307 49.816,45.688 C50.2053353,46.2106693 50.4,46.9413286 50.4,47.88 L50.4,53 L49.072,53 L49.072,48.152 C49.072,47.4373298 48.9280014,46.9120017 48.64,46.576 C48.3519986,46.2399983 47.9626691,46.072 47.472,46.072 C46.8853304,46.072 46.3973353,46.3119976 46.008,46.792 C45.6186647,47.2720024 45.424,47.949329 45.424,48.824 L45.424,53 L44.096,53 L44.096,45.128 Z M53.104,46.04 L51.76,46.04 L51.76,45.128 L52.048,45.128 C52.3786683,45.128 52.6373324,45.0933337 52.824,45.024 C53.0106676,44.9546663 53.1519995,44.8480007 53.248,44.704 C53.3440005,44.5599993 53.4133331,44.3706678 53.456,44.136 C53.4986669,43.9013322 53.5359998,43.613335 53.568,43.272 L53.6,42.984 L54.432,42.984 L54.432,45.128 L56.128,45.128 L56.128,46.04 L54.432,46.04 L54.432,50.936 C54.432,51.3840022 54.498666,51.7066657 54.632,51.904 C54.765334,52.1013343 55.0133315,52.2 55.376,52.2 C55.6640014,52.2 55.9306654,52.1360006 56.176,52.008 L56.32,52.968 C55.9146646,53.1493342 55.4666691,53.24 54.976,53.24 C54.5919981,53.24 54.2800012,53.1866672 54.04,53.08 C53.7999988,52.9733328 53.6106674,52.8293342 53.472,52.648 C53.3333326,52.4666658 53.2373336,52.2480013 53.184,51.992 C53.1306664,51.7359987 53.104,51.4586682 53.104,51.16 L53.104,46.04 Z M58.736,49.368 C58.7893336,50.2746712 59.0213313,50.9759975 59.432,51.472 C59.8426687,51.9680025 60.4159963,52.216 61.152,52.216 C62.0800046,52.216 62.7786643,51.778671 63.248,50.904 L64.256,51.464 C63.9466651,51.9866693 63.5360026,52.4133317 63.024,52.744 C62.5119974,53.0746683 61.8666706,53.24 61.088,53.24 C60.4693302,53.24 59.9280023,53.1333344 59.464,52.92 C58.9999977,52.7066656 58.6133349,52.4133352 58.304,52.04 C57.9946651,51.6666648 57.7626674,51.2293358 57.608,50.728 C57.4533326,50.2266642 57.376,49.6880029 57.376,49.112 C57.376,48.5466638 57.4506659,48.0080026 57.6,47.496 C57.7493341,46.9839974 57.9759985,46.5360019 58.28,46.152 C58.5840015,45.7679981 58.9573311,45.4640011 59.4,45.24 C59.8426689,45.0159989 60.3626637,44.904 60.96,44.904 C61.5360029,44.904 62.0373312,45.0133322 62.464,45.232 C62.8906688,45.4506678 63.2453319,45.7439982 63.528,46.112 C63.8106681,46.4800018 64.0239993,46.9066642 64.168,47.392 C64.3120007,47.8773358 64.384,48.3919973 64.384,48.936 C64.384,49.0533339 64.3813334,49.1439997 64.376,49.208 C64.3706666,49.2720003 64.368,49.3253331 64.368,49.368 L58.736,49.368 Z M60.944,45.912 C60.2719966,45.912 59.7520018,46.1519976 59.384,46.632 C59.0159982,47.1120024 58.8053336,47.7573293 58.752,48.568 L63.024,48.568 C63.024,48.2373317 62.986667,47.9146682 62.912,47.6 C62.837333,47.2853318 62.7146675,47.0026679 62.544,46.752 C62.3733325,46.5013321 62.1573346,46.2986674 61.896,46.144 C61.6346654,45.9893326 61.3173352,45.912 60.944,45.912 Z M66,45.128 L67.152,45.128 L67.28,46.888 C67.5040011,46.3119971 67.8613309,45.8373352 68.352,45.464 C68.8426691,45.0906648 69.4239966,44.904 70.096,44.904 L70.096,46.312 C69.9466659,46.2799998 69.7813342,46.264 69.6,46.264 C69.333332,46.264 69.066668,46.3119995 68.8,46.408 C68.533332,46.5040005 68.2906678,46.6586656 68.072,46.872 C67.8533322,47.0853344 67.6746674,47.3599983 67.536,47.696 C67.3973326,48.0320017 67.328,48.4399976 67.328,48.92 L67.328,53 L66,53 L66,45.128 Z M72.416,49.368 C72.4693336,50.2746712 72.7013313,50.9759975 73.112,51.472 C73.5226687,51.9680025 74.0959963,52.216 74.832,52.216 C75.7600046,52.216 76.4586643,51.778671 76.928,50.904 L77.936,51.464 C77.6266651,51.9866693 77.2160026,52.4133317 76.704,52.744 C76.1919974,53.0746683 75.5466706,53.24 74.768,53.24 C74.1493302,53.24 73.6080023,53.1333344 73.144,52.92 C72.6799977,52.7066656 72.2933349,52.4133352 71.984,52.04 C71.6746651,51.6666648 71.4426674,51.2293358 71.288,50.728 C71.1333326,50.2266642 71.056,49.6880029 71.056,49.112 C71.056,48.5466638 71.1306659,48.0080026 71.28,47.496 C71.4293341,46.9839974 71.6559985,46.5360019 71.96,46.152 C72.2640015,45.7679981 72.6373311,45.4640011 73.08,45.24 C73.5226689,45.0159989 74.0426637,44.904 74.64,44.904 C75.2160029,44.904 75.7173312,45.0133322 76.144,45.232 C76.5706688,45.4506678 76.9253319,45.7439982 77.208,46.112 C77.4906681,46.4800018 77.7039993,46.9066642 77.848,47.392 C77.9920007,47.8773358 78.064,48.3919973 78.064,48.936 C78.064,49.0533339 78.0613334,49.1439997 78.056,49.208 C78.0506666,49.2720003 78.048,49.3253331 78.048,49.368 L72.416,49.368 Z M74.624,45.912 C73.9519966,45.912 73.4320018,46.1519976 73.064,46.632 C72.6959982,47.1120024 72.4853336,47.7573293 72.432,48.568 L76.704,48.568 C76.704,48.2373317 76.666667,47.9146682 76.592,47.6 C76.517333,47.2853318 76.3946675,47.0026679 76.224,46.752 C76.0533325,46.5013321 75.8373346,46.2986674 75.576,46.144 C75.3146654,45.9893326 74.9973352,45.912 74.624,45.912 Z M79.824,51.064 C80.090668,51.405335 80.4346646,51.6879989 80.856,51.912 C81.2773354,52.1360011 81.7386642,52.248 82.24,52.248 C82.6880022,52.248 83.0773317,52.1413344 83.408,51.928 C83.7386683,51.7146656 83.904,51.3946688 83.904,50.968 C83.904,50.6373317 83.7946678,50.3786676 83.576,50.192 C83.3573322,50.0053324 83.085335,49.8480006 82.76,49.72 C82.434665,49.5919994 82.0800019,49.4746672 81.696,49.368 C81.3119981,49.2613328 80.957335,49.1226675 80.632,48.952 C80.306665,48.7813325 80.0346678,48.5573347 79.816,48.28 C79.5973322,48.0026653 79.488,47.6240024 79.488,47.144 C79.488,46.7493314 79.5679992,46.4106681 79.728,46.128 C79.8880008,45.8453319 80.0986654,45.6133342 80.36,45.432 C80.6213346,45.2506658 80.922665,45.1173338 81.264,45.032 C81.605335,44.9466662 81.9626648,44.904 82.336,44.904 C83.4453389,44.904 84.3679963,45.2239968 85.104,45.864 L84.432,46.76 C84.1973322,46.5146654 83.8853353,46.3093342 83.496,46.144 C83.1066647,45.9786658 82.7040021,45.896 82.288,45.896 C82.1066658,45.896 81.9280009,45.9173331 81.752,45.96 C81.5759991,46.0026669 81.421334,46.0693329 81.288,46.16 C81.154666,46.2506671 81.0480004,46.3653326 80.968,46.504 C80.8879996,46.6426674 80.848,46.8133323 80.848,47.016 C80.848,47.3253349 80.9573322,47.5653325 81.176,47.736 C81.3946678,47.9066675 81.666665,48.0533327 81.992,48.176 C82.317335,48.2986673 82.6693314,48.4159994 83.048,48.528 C83.4266686,48.6400006 83.778665,48.7839991 84.104,48.96 C84.429335,49.1360009 84.7013322,49.3679986 84.92,49.656 C85.1386678,49.9440014 85.248,50.3279976 85.248,50.808 C85.248,51.2133354 85.1653342,51.5679985 85,51.872 C84.8346658,52.1760015 84.6160014,52.4293323 84.344,52.632 C84.0719986,52.8346677 83.7573351,52.9866662 83.4,53.088 C83.0426649,53.1893338 82.6720019,53.24 82.288,53.24 C80.9653267,53.24 79.9146706,52.8133376 79.136,51.96 L79.824,51.064 Z M87.488,46.04 L86.144,46.04 L86.144,45.128 L86.432,45.128 C86.7626683,45.128 87.0213324,45.0933337 87.208,45.024 C87.3946676,44.9546663 87.5359995,44.8480007 87.632,44.704 C87.7280005,44.5599993 87.7973331,44.3706678 87.84,44.136 C87.8826669,43.9013322 87.9199998,43.613335 87.952,43.272 L87.984,42.984 L88.816,42.984 L88.816,45.128 L90.512,45.128 L90.512,46.04 L88.816,46.04 L88.816,50.936 C88.816,51.3840022 88.882666,51.7066657 89.016,51.904 C89.149334,52.1013343 89.3973315,52.2 89.76,52.2 C90.0480014,52.2 90.3146654,52.1360006 90.56,52.008 L90.704,52.968 C90.2986646,53.1493342 89.8506691,53.24 89.36,53.24 C88.9759981,53.24 88.6640012,53.1866672 88.424,53.08 C88.1839988,52.9733328 87.9946674,52.8293342 87.856,52.648 C87.7173326,52.4666658 87.6213336,52.2480013 87.568,51.992 C87.5146664,51.7359987 87.488,51.4586682 87.488,51.16 L87.488,46.04 Z M92.112,42.072 L93.44,42.072 L93.44,43.4 L92.112,43.4 L92.112,42.072 Z M92.112,45.128 L93.44,45.128 L93.44,53 L92.112,53 L92.112,45.128 Z M95.488,45.128 L96.64,45.128 L96.784,46.696 C96.9866677,46.2159976 97.3093311,45.7973351 97.752,45.44 C98.1946689,45.0826649 98.7413301,44.904 99.392,44.904 C100.213337,44.904 100.818665,45.1653307 101.208,45.688 C101.597335,46.2106693 101.792,46.9413286 101.792,47.88 L101.792,53 L100.464,53 L100.464,48.152 C100.464,47.4373298 100.320001,46.9120017 100.032,46.576 C99.7439986,46.2399983 99.3546691,46.072 98.864,46.072 C98.2773304,46.072 97.7893353,46.3119976 97.4,46.792 C97.0106647,47.2720024 96.816,47.949329 96.816,48.824 L96.816,53 L95.488,53 L95.488,45.128 Z M104.448,53.944 C104.757335,54.2426682 105.127998,54.4799991 105.56,54.656 C105.992002,54.8320009 106.453331,54.92 106.944,54.92 C107.349335,54.92 107.679999,54.8586673 107.936,54.736 C108.192001,54.6133327 108.394666,54.4453344 108.544,54.232 C108.693334,54.0186656 108.797333,53.7760014 108.856,53.504 C108.914667,53.2319986 108.944,52.9413349 108.944,52.632 L108.944,51.176 C108.741332,51.6560024 108.437335,52.0426652 108.032,52.336 C107.626665,52.6293348 107.104003,52.776 106.464,52.776 C106.005331,52.776 105.589335,52.6880009 105.216,52.512 C104.842665,52.3359991 104.522668,52.0826683 104.256,51.752 C103.989332,51.4213317 103.784001,51.0160024 103.64,50.536 C103.495999,50.0559976 103.424,49.5173363 103.424,48.92 C103.424,48.3333304 103.495999,47.7946691 103.64,47.304 C103.784001,46.8133309 103.991999,46.3920018 104.264,46.04 C104.536001,45.6879982 104.866665,45.4133343 105.256,45.216 C105.645335,45.0186657 106.079998,44.92 106.56,44.92 C107.189336,44.92 107.711998,45.0773318 108.128,45.392 C108.544002,45.7066682 108.842666,46.1093309 109.024,46.6 L109.248,45.128 L110.272,45.128 L110.272,52.6 C110.272,53.0480022 110.218667,53.471998 110.112,53.872 C110.005333,54.272002 109.824001,54.6266651 109.568,54.936 C109.311999,55.2453349 108.970669,55.4906658 108.544,55.672 C108.117331,55.8533342 107.584003,55.944 106.944,55.944 C106.250663,55.944 105.629336,55.8453343 105.08,55.648 C104.530664,55.4506657 104.069335,55.2026682 103.696,54.904 L104.448,53.944 Z M108.944,48.92 C108.944,48.7386658 108.941333,48.5653342 108.936,48.4 C108.930667,48.2346658 108.917333,48.1093338 108.896,48.024 C108.853333,47.7679987 108.784,47.5173346 108.688,47.272 C108.592,47.0266654 108.461334,46.8133342 108.296,46.632 C108.130666,46.4506658 107.928001,46.3040006 107.688,46.192 C107.447999,46.0799994 107.168002,46.024 106.848,46.024 C106.495998,46.024 106.192001,46.0986659 105.936,46.248 C105.679999,46.3973341 105.469334,46.5999987 105.304,46.856 C105.138666,47.1120013 105.016,47.4159982 104.936,47.768 C104.856,48.1200018 104.816,48.4933314 104.816,48.888 C104.816,49.2400018 104.853333,49.5893316 104.928,49.936 C105.002667,50.2826684 105.119999,50.589332 105.28,50.856 C105.440001,51.122668 105.650665,51.3386658 105.912,51.504 C106.173335,51.6693342 106.490665,51.752 106.864,51.752 C107.386669,51.752 107.807998,51.6053348 108.128,51.312 C108.448002,51.0186652 108.671999,50.6480022 108.8,50.2 C108.853334,50.0506659 108.890667,49.8640011 108.912,49.64 C108.933333,49.4159989 108.944,49.2026677 108.944,49 L108.944,48.92 Z M115.92,45.128 L117.248,45.128 L117.248,46.648 C117.344,46.4239989 117.466666,46.2053344 117.616,45.992 C117.765334,45.7786656 117.943999,45.5920008 118.152,45.432 C118.360001,45.2719992 118.602665,45.1440005 118.88,45.048 C119.157335,44.9519995 119.471998,44.904 119.824,44.904 C120.336003,44.904 120.781331,45.0106656 121.16,45.224 C121.538669,45.4373344 121.850665,45.7306648 122.096,46.104 C122.341335,46.4773352 122.525333,46.9119975 122.648,47.408 C122.770667,47.9040025 122.832,48.4399971 122.832,49.016 C122.832,49.6986701 122.752001,50.3013307 122.592,50.824 C122.431999,51.3466693 122.208001,51.7839982 121.92,52.136 C121.631999,52.4880018 121.296002,52.7546658 120.912,52.936 C120.527998,53.1173342 120.112002,53.208 119.664,53.208 C119.07733,53.208 118.573335,53.0640014 118.152,52.776 C117.730665,52.4879986 117.429334,52.1306688 117.248,51.704 L117.248,55.768 L115.92,55.768 L115.92,45.128 Z M117.248,49.112 C117.248,49.3360011 117.256,49.5413324 117.272,49.728 C117.288,49.9146676 117.306667,50.0719994 117.328,50.2 C117.370667,50.4560013 117.450666,50.7013322 117.568,50.936 C117.685334,51.1706678 117.829332,51.3759991 118,51.552 C118.170668,51.7280009 118.370666,51.8693328 118.6,51.976 C118.829334,52.0826672 119.082665,52.136 119.36,52.136 C119.722668,52.136 120.034665,52.0506675 120.296,51.88 C120.557335,51.7093325 120.773332,51.4800014 120.944,51.192 C121.114668,50.9039986 121.24,50.5760018 121.32,50.208 C121.4,49.8399982 121.44,49.4586686 121.44,49.064 C121.44,48.6693314 121.402667,48.2880018 121.328,47.92 C121.253333,47.5519982 121.133334,47.2266681 120.968,46.944 C120.802666,46.6613319 120.586668,46.4346675 120.32,46.264 C120.053332,46.0933325 119.733335,46.008 119.36,46.008 C119.071999,46.008 118.808001,46.0613328 118.568,46.168 C118.327999,46.2746672 118.122668,46.4186658 117.952,46.6 C117.781332,46.7813342 117.640001,46.9893322 117.528,47.224 C117.415999,47.4586678 117.344,47.7039987 117.312,47.96 C117.290667,48.0666672 117.274667,48.2133324 117.264,48.4 C117.253333,48.5866676 117.248,48.8026654 117.248,49.048 L117.248,49.112 Z M124.528,45.128 L125.68,45.128 L125.808,46.888 C126.032001,46.3119971 126.389331,45.8373352 126.88,45.464 C127.370669,45.0906648 127.951997,44.904 128.624,44.904 L128.624,46.312 C128.474666,46.2799998 128.309334,46.264 128.128,46.264 C127.861332,46.264 127.594668,46.3119995 127.328,46.408 C127.061332,46.5040005 126.818668,46.6586656 126.6,46.872 C126.381332,47.0853344 126.202667,47.3599983 126.064,47.696 C125.925333,48.0320017 125.856,48.4399976 125.856,48.92 L125.856,53 L124.528,53 L124.528,45.128 Z M130.944,49.368 C130.997334,50.2746712 131.229331,50.9759975 131.64,51.472 C132.050669,51.9680025 132.623996,52.216 133.36,52.216 C134.288005,52.216 134.986664,51.778671 135.456,50.904 L136.464,51.464 C136.154665,51.9866693 135.744003,52.4133317 135.232,52.744 C134.719997,53.0746683 134.074671,53.24 133.296,53.24 C132.67733,53.24 132.136002,53.1333344 131.672,52.92 C131.207998,52.7066656 130.821335,52.4133352 130.512,52.04 C130.202665,51.6666648 129.970667,51.2293358 129.816,50.728 C129.661333,50.2266642 129.584,49.6880029 129.584,49.112 C129.584,48.5466638 129.658666,48.0080026 129.808,47.496 C129.957334,46.9839974 130.183998,46.5360019 130.488,46.152 C130.792002,45.7679981 131.165331,45.4640011 131.608,45.24 C132.050669,45.0159989 132.570664,44.904 133.168,44.904 C133.744003,44.904 134.245331,45.0133322 134.672,45.232 C135.098669,45.4506678 135.453332,45.7439982 135.736,46.112 C136.018668,46.4800018 136.231999,46.9066642 136.376,47.392 C136.520001,47.8773358 136.592,48.3919973 136.592,48.936 C136.592,49.0533339 136.589333,49.1439997 136.584,49.208 C136.578667,49.2720003 136.576,49.3253331 136.576,49.368 L130.944,49.368 Z M133.152,45.912 C132.479997,45.912 131.960002,46.1519976 131.592,46.632 C131.223998,47.1120024 131.013334,47.7573293 130.96,48.568 L135.232,48.568 C135.232,48.2373317 135.194667,47.9146682 135.12,47.6 C135.045333,47.2853318 134.922668,47.0026679 134.752,46.752 C134.581332,46.5013321 134.365335,46.2986674 134.104,46.144 C133.842665,45.9893326 133.525335,45.912 133.152,45.912 Z M138.352,51.064 C138.618668,51.405335 138.962665,51.6879989 139.384,51.912 C139.805335,52.1360011 140.266664,52.248 140.768,52.248 C141.216002,52.248 141.605332,52.1413344 141.936,51.928 C142.266668,51.7146656 142.432,51.3946688 142.432,50.968 C142.432,50.6373317 142.322668,50.3786676 142.104,50.192 C141.885332,50.0053324 141.613335,49.8480006 141.288,49.72 C140.962665,49.5919994 140.608002,49.4746672 140.224,49.368 C139.839998,49.2613328 139.485335,49.1226675 139.16,48.952 C138.834665,48.7813325 138.562668,48.5573347 138.344,48.28 C138.125332,48.0026653 138.016,47.6240024 138.016,47.144 C138.016,46.7493314 138.095999,46.4106681 138.256,46.128 C138.416001,45.8453319 138.626665,45.6133342 138.888,45.432 C139.149335,45.2506658 139.450665,45.1173338 139.792,45.032 C140.133335,44.9466662 140.490665,44.904 140.864,44.904 C141.973339,44.904 142.895996,45.2239968 143.632,45.864 L142.96,46.76 C142.725332,46.5146654 142.413335,46.3093342 142.024,46.144 C141.634665,45.9786658 141.232002,45.896 140.816,45.896 C140.634666,45.896 140.456001,45.9173331 140.28,45.96 C140.103999,46.0026669 139.949334,46.0693329 139.816,46.16 C139.682666,46.2506671 139.576,46.3653326 139.496,46.504 C139.416,46.6426674 139.376,46.8133323 139.376,47.016 C139.376,47.3253349 139.485332,47.5653325 139.704,47.736 C139.922668,47.9066675 140.194665,48.0533327 140.52,48.176 C140.845335,48.2986673 141.197331,48.4159994 141.576,48.528 C141.954669,48.6400006 142.306665,48.7839991 142.632,48.96 C142.957335,49.1360009 143.229332,49.3679986 143.448,49.656 C143.666668,49.9440014 143.776,50.3279976 143.776,50.808 C143.776,51.2133354 143.693334,51.5679985 143.528,51.872 C143.362666,52.1760015 143.144001,52.4293323 142.872,52.632 C142.599999,52.8346677 142.285335,52.9866662 141.928,53.088 C141.570665,53.1893338 141.200002,53.24 140.816,53.24 C139.493327,53.24 138.442671,52.8133376 137.664,51.96 L138.352,51.064 Z M146.336,49.368 C146.389334,50.2746712 146.621331,50.9759975 147.032,51.472 C147.442669,51.9680025 148.015996,52.216 148.752,52.216 C149.680005,52.216 150.378664,51.778671 150.848,50.904 L151.856,51.464 C151.546665,51.9866693 151.136003,52.4133317 150.624,52.744 C150.111997,53.0746683 149.466671,53.24 148.688,53.24 C148.06933,53.24 147.528002,53.1333344 147.064,52.92 C146.599998,52.7066656 146.213335,52.4133352 145.904,52.04 C145.594665,51.6666648 145.362667,51.2293358 145.208,50.728 C145.053333,50.2266642 144.976,49.6880029 144.976,49.112 C144.976,48.5466638 145.050666,48.0080026 145.2,47.496 C145.349334,46.9839974 145.575998,46.5360019 145.88,46.152 C146.184002,45.7679981 146.557331,45.4640011 147,45.24 C147.442669,45.0159989 147.962664,44.904 148.56,44.904 C149.136003,44.904 149.637331,45.0133322 150.064,45.232 C150.490669,45.4506678 150.845332,45.7439982 151.128,46.112 C151.410668,46.4800018 151.623999,46.9066642 151.768,47.392 C151.912001,47.8773358 151.984,48.3919973 151.984,48.936 C151.984,49.0533339 151.981333,49.1439997 151.976,49.208 C151.970667,49.2720003 151.968,49.3253331 151.968,49.368 L146.336,49.368 Z M148.544,45.912 C147.871997,45.912 147.352002,46.1519976 146.984,46.632 C146.615998,47.1120024 146.405334,47.7573293 146.352,48.568 L150.624,48.568 C150.624,48.2373317 150.586667,47.9146682 150.512,47.6 C150.437333,47.2853318 150.314668,47.0026679 150.144,46.752 C149.973332,46.5013321 149.757335,46.2986674 149.496,46.144 C149.234665,45.9893326 148.917335,45.912 148.544,45.912 Z M153.6,45.128 L154.752,45.128 L154.896,46.696 C155.098668,46.2159976 155.421331,45.7973351 155.864,45.44 C156.306669,45.0826649 156.85333,44.904 157.504,44.904 C158.325337,44.904 158.930665,45.1653307 159.32,45.688 C159.709335,46.2106693 159.904,46.9413286 159.904,47.88 L159.904,53 L158.576,53 L158.576,48.152 C158.576,47.4373298 158.432001,46.9120017 158.144,46.576 C157.855999,46.2399983 157.466669,46.072 156.976,46.072 C156.38933,46.072 155.901335,46.3119976 155.512,46.792 C155.122665,47.2720024 154.928,47.949329 154.928,48.824 L154.928,53 L153.6,53 L153.6,45.128 Z M162.608,46.04 L161.264,46.04 L161.264,45.128 L161.552,45.128 C161.882668,45.128 162.141332,45.0933337 162.328,45.024 C162.514668,44.9546663 162.656,44.8480007 162.752,44.704 C162.848,44.5599993 162.917333,44.3706678 162.96,44.136 C163.002667,43.9013322 163.04,43.613335 163.072,43.272 L163.104,42.984 L163.936,42.984 L163.936,45.128 L165.632,45.128 L165.632,46.04 L163.936,46.04 L163.936,50.936 C163.936,51.3840022 164.002666,51.7066657 164.136,51.904 C164.269334,52.1013343 164.517332,52.2 164.88,52.2 C165.168001,52.2 165.434665,52.1360006 165.68,52.008 L165.824,52.968 C165.418665,53.1493342 164.970669,53.24 164.48,53.24 C164.095998,53.24 163.784001,53.1866672 163.544,53.08 C163.303999,52.9733328 163.114667,52.8293342 162.976,52.648 C162.837333,52.4666658 162.741334,52.2480013 162.688,51.992 C162.634666,51.7359987 162.608,51.4586682 162.608,51.16 L162.608,46.04 Z M172.176,53 C172.058666,52.6159981 171.989333,52.157336 171.968,51.624 C171.754666,52.1146691 171.426669,52.5066652 170.984,52.8 C170.541331,53.0933348 170.016003,53.24 169.408,53.24 C168.639996,53.24 168.032002,53.0213355 167.584,52.584 C167.135998,52.1466645 166.912,51.5600037 166.912,50.824 C166.912,50.4079979 166.986666,50.0586681 167.136,49.776 C167.285334,49.4933319 167.493332,49.2586676 167.76,49.072 C168.026668,48.8853324 168.341332,48.7386672 168.704,48.632 C169.066668,48.5253328 169.461331,48.4400003 169.888,48.376 L171.904,48.072 L171.904,47.576 C171.904,47.2239982 171.861334,46.9413344 171.776,46.728 C171.690666,46.5146656 171.573334,46.3493339 171.424,46.232 C171.274666,46.1146661 171.104001,46.0373335 170.912,46 C170.719999,45.9626665 170.517334,45.944 170.304,45.944 C169.695997,45.944 169.194669,46.0559989 168.8,46.28 C168.405331,46.5040011 168.074668,46.786665 167.808,47.128 L167.12,46.264 C167.429335,45.8906648 167.858664,45.570668 168.408,45.304 C168.957336,45.037332 169.637329,44.904 170.448,44.904 C171.429338,44.904 172.141331,45.1226645 172.584,45.56 C173.026669,45.9973355 173.248,46.7013285 173.248,47.672 L173.248,50.856 C173.248,51.1120013 173.250667,51.335999 173.256,51.528 C173.261333,51.720001 173.272,51.8986658 173.288,52.064 C173.304,52.2293342 173.328,52.3866659 173.36,52.536 C173.392,52.6853341 173.434666,52.8399992 173.488,53 L172.176,53 Z M171.904,48.952 L170.016,49.256 C169.36533,49.3733339 168.904001,49.5493322 168.632,49.784 C168.359999,50.0186678 168.224,50.3439979 168.224,50.76 C168.224,51.1866688 168.349332,51.5439986 168.6,51.832 C168.850668,52.1200014 169.221331,52.264 169.712,52.264 C170.010668,52.264 170.293332,52.2053339 170.56,52.088 C170.826668,51.9706661 171.058666,51.808001 171.256,51.6 C171.453334,51.391999 171.610666,51.1413348 171.728,50.848 C171.845334,50.5546652 171.904,50.2320018 171.904,49.88 L171.904,48.952 Z M176.064,46.04 L174.72,46.04 L174.72,45.128 L175.008,45.128 C175.338668,45.128 175.597332,45.0933337 175.784,45.024 C175.970668,44.9546663 176.112,44.8480007 176.208,44.704 C176.304,44.5599993 176.373333,44.3706678 176.416,44.136 C176.458667,43.9013322 176.496,43.613335 176.528,43.272 L176.56,42.984 L177.392,42.984 L177.392,45.128 L179.088,45.128 L179.088,46.04 L177.392,46.04 L177.392,50.936 C177.392,51.3840022 177.458666,51.7066657 177.592,51.904 C177.725334,52.1013343 177.973332,52.2 178.336,52.2 C178.624001,52.2 178.890665,52.1360006 179.136,52.008 L179.28,52.968 C178.874665,53.1493342 178.426669,53.24 177.936,53.24 C177.551998,53.24 177.240001,53.1866672 177,53.08 C176.759999,52.9733328 176.570667,52.8293342 176.432,52.648 C176.293333,52.4666658 176.197334,52.2480013 176.144,51.992 C176.090666,51.7359987 176.064,51.4586682 176.064,51.16 L176.064,46.04 Z M180.688,42.072 L182.016,42.072 L182.016,43.4 L180.688,43.4 L180.688,42.072 Z M180.688,45.128 L182.016,45.128 L182.016,53 L180.688,53 L180.688,45.128 Z M187.328,53.24 C186.730664,53.24 186.205336,53.1306678 185.752,52.912 C185.298664,52.6933322 184.920002,52.3946686 184.616,52.016 C184.311998,51.6373314 184.085334,51.1946692 183.936,50.688 C183.786666,50.1813308 183.712,49.6346696 183.712,49.048 C183.712,48.4613304 183.789333,47.9173358 183.944,47.416 C184.098667,46.9146642 184.327998,46.4773352 184.632,46.104 C184.936002,45.7306648 185.314664,45.4373344 185.768,45.224 C186.221336,45.0106656 186.74133,44.904 187.328,44.904 C187.91467,44.904 188.434664,45.0106656 188.888,45.224 C189.341336,45.4373344 189.722665,45.7279982 190.032,46.096 C190.341335,46.4640018 190.573333,46.9013308 190.728,47.408 C190.882667,47.9146692 190.96,48.4613304 190.96,49.048 C190.96,49.6346696 190.882667,50.1813308 190.728,50.688 C190.573333,51.1946692 190.341335,51.6373314 190.032,52.016 C189.722665,52.3946686 189.341336,52.6933322 188.888,52.912 C188.434664,53.1306678 187.91467,53.24 187.328,53.24 Z M187.36,52.2 C187.722668,52.2 188.042665,52.1200008 188.32,51.96 C188.597335,51.7999992 188.826666,51.5786681 189.008,51.296 C189.189334,51.0133319 189.328,50.6800019 189.424,50.296 C189.52,49.9119981 189.568,49.4960022 189.568,49.048 C189.568,48.5999978 189.52,48.1866686 189.424,47.808 C189.328,47.4293314 189.184001,47.1013347 188.992,46.824 C188.799999,46.5466653 188.565335,46.3306674 188.288,46.176 C188.010665,46.0213326 187.690668,45.944 187.328,45.944 C186.954665,45.944 186.629335,46.0213326 186.352,46.176 C186.074665,46.3306674 185.845334,46.5466653 185.664,46.824 C185.482666,47.1013347 185.344,47.4293314 185.248,47.808 C185.152,48.1866686 185.104,48.5999978 185.104,49.048 C185.104,49.4960022 185.152,49.9119981 185.248,50.296 C185.344,50.6800019 185.485332,51.0133319 185.672,51.296 C185.858668,51.5786681 186.093332,51.7999992 186.376,51.96 C186.658668,52.1200008 186.986665,52.2 187.36,52.2 Z M192.656,45.128 L193.808,45.128 L193.952,46.696 C194.154668,46.2159976 194.477331,45.7973351 194.92,45.44 C195.362669,45.0826649 195.90933,44.904 196.56,44.904 C197.381337,44.904 197.986665,45.1653307 198.376,45.688 C198.765335,46.2106693 198.96,46.9413286 198.96,47.88 L198.96,53 L197.632,53 L197.632,48.152 C197.632,47.4373298 197.488001,46.9120017 197.2,46.576 C196.911999,46.2399983 196.522669,46.072 196.032,46.072 C195.44533,46.072 194.957335,46.3119976 194.568,46.792 C194.178665,47.2720024 193.984,47.949329 193.984,48.824 L193.984,53 L192.656,53 L192.656,45.128 Z M200.848,51.432 L202.336,51.432 L202.336,53 L200.848,53 L200.848,51.432 Z" id="Congratulations-Anne" fill="#000000"></path>
                </g>
            </g>
        </g>
    </g>
</svg>