<?xml version="1.0" encoding="UTF-8"?>
<svg width="200px" height="66px" viewBox="0 0 200 66" version="1.1" xmlns="http://www.w3.org/2000/svg" xmlns:xlink="http://www.w3.org/1999/xlink">
    <!-- Generator: Sketch 47 (45396) - http://www.bohemiancoding.com/sketch -->
    <title>Autocorrect</title>
    <desc>Created with Sketch.</desc>
    <defs>
        <path d="M69,24.418483 C69.9264314,24.7934929 70.9390996,25 72,25 L138,25 C142.418278,25 146,21.418278 146,17 L146,8 C146,3.581722 142.418278,-8.11624501e-16 138,0 L72,0 L72,0 C70.9390996,1.9488425e-16 69.9264314,0.206507135 69,0.581517047 L69,24.418483 Z" id="path-1"></path>
    </defs>
    <g id="Text-area" stroke="none" stroke-width="1" fill="none" fill-rule="evenodd">
        <g id="Text-area-Usage-extra-large-1200" transform="translate(-829.000000, -3599.000000)">
            <g id="Group-10" transform="translate(309.000000, 3528.000000)">
                <g id="Group-2-Copy-4" transform="translate(520.000000, 71.000000)">
                    <g id="Autocorrect">
                        <path d="M3.864,5.116 L5.026,5.116 L8.512,15 L7.196,15 L6.314,12.34 L2.506,12.34 L1.624,15 L0.35,15 L3.864,5.116 Z M5.978,11.374 C5.71666536,10.5619959 5.45766795,9.76633723 5.201,8.987 C4.94433205,8.20766277 4.68533464,7.38867096 4.424,6.53 C4.18133212,7.3700042 3.92466802,8.18432939 3.654,8.973 C3.38333198,9.76167061 3.11266802,10.5619959 2.842,11.374 L5.978,11.374 Z M9.758,5.116 L10.92,5.116 L10.92,9.33 C11.1066676,8.93799804 11.3843315,8.60433471 11.753,8.329 C12.1216685,8.05366529 12.5813306,7.916 13.132,7.916 C13.5333353,7.916 13.899665,7.99999916 14.231,8.168 C14.562335,8.33600084 14.8446655,8.57633177 15.078,8.889 C15.3113345,9.20166823 15.4909994,9.57733114 15.617,10.016 C15.7430006,10.4546689 15.806,10.944664 15.806,11.486 C15.806,12.0180027 15.7430006,12.5103311 15.617,12.963 C15.4909994,13.4156689 15.3113345,13.8053317 15.078,14.132 C14.8446655,14.4586683 14.5576684,14.7153324 14.217,14.902 C13.8763316,15.0886676 13.4913355,15.182 13.062,15.182 C12.5579975,15.182 12.110002,15.0536679 11.718,14.797 C11.325998,14.540332 11.032001,14.1740024 10.836,13.698 L10.696,15 L9.758,15 L9.758,5.116 Z M10.92,11.584 C10.92,11.7893344 10.9269999,11.9736658 10.941,12.137 C10.9550001,12.3003341 10.9713332,12.4379994 10.99,12.55 C11.0273335,12.7740011 11.0973328,12.9886656 11.2,13.194 C11.3026672,13.3993344 11.4286659,13.5789992 11.578,13.733 C11.7273341,13.8870008 11.9023323,14.0106662 12.103,14.104 C12.3036677,14.1973338 12.5253321,14.244 12.768,14.244 C13.0853349,14.244 13.3583322,14.1670008 13.587,14.013 C13.8156678,13.8589992 14.0046659,13.6560013 14.154,13.404 C14.3033341,13.1519987 14.4129997,12.8650016 14.483,12.543 C14.5530004,12.2209984 14.588,11.8920017 14.588,11.556 C14.588,11.2106649 14.550667,10.8770016 14.476,10.555 C14.401333,10.2329984 14.2893341,9.94833457 14.14,9.701 C13.9906659,9.45366543 13.7993345,9.25533408 13.566,9.106 C13.3326655,8.95666592 13.0573349,8.882 12.74,8.882 C12.4879987,8.882 12.2616677,8.92633289 12.061,9.015 C11.8603323,9.10366711 11.6853341,9.22499923 11.536,9.379 C11.3866659,9.53300077 11.2653338,9.71266564 11.172,9.918 C11.0786662,10.1233344 11.0133335,10.3426655 10.976,10.576 C10.9573332,10.6693338 10.9433334,10.7883326 10.934,10.933 C10.9246666,11.0776674 10.92,11.2806654 10.92,11.542 L10.92,11.584 Z M20.146,15.21 C19.6233307,15.21 19.1636686,15.1143343 18.767,14.923 C18.3703313,14.7316657 18.0390013,14.470335 17.773,14.139 C17.5069987,13.807665 17.3086673,13.4203355 17.178,12.977 C17.0473327,12.5336644 16.982,12.0553359 16.982,11.542 C16.982,11.0286641 17.049666,10.5526689 17.185,10.114 C17.320334,9.67533114 17.5209987,9.2926683 17.787,8.966 C18.0530013,8.6393317 18.3843314,8.3826676 18.781,8.196 C19.1776686,8.0093324 19.6326641,7.916 20.146,7.916 C20.6593359,7.916 21.1143313,8.0093324 21.511,8.196 C21.9076686,8.3826676 22.241332,8.63699839 22.512,8.959 C22.782668,9.28100161 22.985666,9.66366445 23.121,10.107 C23.256334,10.5503355 23.324,11.0286641 23.324,11.542 C23.324,12.0553359 23.256334,12.5336644 23.121,12.977 C22.985666,13.4203355 22.782668,13.807665 22.512,14.139 C22.241332,14.470335 21.9076686,14.7316657 21.511,14.923 C21.1143313,15.1143343 20.6593359,15.21 20.146,15.21 Z M20.174,14.3 C20.4913349,14.3 20.7713321,14.2300007 21.014,14.09 C21.2566679,13.9499993 21.4573325,13.7563346 21.616,13.509 C21.7746675,13.2616654 21.8959996,12.9700017 21.98,12.634 C22.0640004,12.2979983 22.106,11.934002 22.106,11.542 C22.106,11.149998 22.0640004,10.788335 21.98,10.457 C21.8959996,10.125665 21.7700008,9.83866788 21.602,9.596 C21.4339992,9.35333212 21.2286679,9.16433401 20.986,9.029 C20.7433321,8.89366599 20.4633349,8.826 20.146,8.826 C19.8193317,8.826 19.5346679,8.89366599 19.292,9.029 C19.0493321,9.16433401 18.8486675,9.35333212 18.69,9.596 C18.5313325,9.83866788 18.4100004,10.125665 18.326,10.457 C18.2419996,10.788335 18.2,11.149998 18.2,11.542 C18.2,11.934002 18.2419996,12.2979983 18.326,12.634 C18.4100004,12.9700017 18.5336658,13.2616654 18.697,13.509 C18.8603341,13.7563346 19.0656654,13.9499993 19.313,14.09 C19.5603346,14.2300007 19.8473317,14.3 20.174,14.3 Z M24.78,8.112 L25.956,8.112 L25.956,12.284 C25.956,12.9373366 26.0773321,13.4156651 26.32,13.719 C26.5626679,14.0223348 26.9033311,14.174 27.342,14.174 C27.9020028,14.174 28.3383318,13.9523355 28.651,13.509 C28.9636682,13.0656644 29.12,12.475337 29.12,11.738 L29.12,8.112 L30.282,8.112 L30.282,15 L29.19,15 L29.19,13.6 C29.1059996,13.8146677 29.0033339,14.0176657 28.882,14.209 C28.7606661,14.4003343 28.6113342,14.5683326 28.434,14.713 C28.2566658,14.8576674 28.0513345,14.9719996 27.818,15.056 C27.5846655,15.1400004 27.3093349,15.182 26.992,15.182 C26.2453296,15.182 25.6900018,14.9556689 25.326,14.503 C24.9619982,14.0503311 24.78,13.4086708 24.78,12.578 L24.78,8.112 Z M32.676,8.91 L31.5,8.91 L31.5,8.112 L31.752,8.112 C32.0413348,8.112 32.2676659,8.08166697 32.431,8.021 C32.5943341,7.96033303 32.7179996,7.86700063 32.802,7.741 C32.8860004,7.61499937 32.9466665,7.44933436 32.984,7.244 C33.0213335,7.03866564 33.0539999,6.78666816 33.082,6.488 L33.11,6.236 L33.838,6.236 L33.838,8.112 L35.322,8.112 L35.322,8.91 L33.838,8.91 L33.838,13.194 C33.838,13.586002 33.8963327,13.8683325 34.013,14.041 C34.1296672,14.2136675 34.3466651,14.3 34.664,14.3 C34.9160013,14.3 35.1493323,14.2440006 35.364,14.132 L35.49,14.972 C35.1353316,15.1306675 34.7433355,15.21 34.314,15.21 C33.9779983,15.21 33.705001,15.1633338 33.495,15.07 C33.284999,14.9766662 33.1193339,14.8506675 32.998,14.692 C32.8766661,14.5333325 32.7926669,14.3420011 32.746,14.118 C32.6993331,13.8939989 32.676,13.6513346 32.676,13.39 L32.676,8.91 Z M39.718,16.47 C39.8206672,16.5073335 39.9373327,16.5399999 40.068,16.568 C40.1986673,16.5960001 40.3339993,16.61 40.474,16.61 C40.6233341,16.61 40.7516661,16.5890002 40.859,16.547 C40.9663339,16.5049998 41.0643329,16.4280006 41.153,16.316 C41.2416671,16.2039994 41.3256663,16.0546676 41.405,15.868 C41.4843337,15.6813324 41.5706662,15.4386682 41.664,15.14 L39.326,8.112 L40.586,8.112 L42.266,13.81 L43.932,8.112 L45.192,8.112 L43.078,14.454 C42.9006658,14.995336 42.7396674,15.4573314 42.595,15.84 C42.4503326,16.2226686 42.2893342,16.5376654 42.112,16.785 C41.9346658,17.0323346 41.7176679,17.2143327 41.461,17.331 C41.204332,17.4476672 40.8753353,17.506 40.474,17.506 C40.3153325,17.506 40.1450009,17.4990001 39.963,17.485 C39.7809991,17.4709999 39.6386672,17.4453335 39.536,17.408 L39.718,16.47 Z M49.308,15.21 C48.7853307,15.21 48.3256686,15.1143343 47.929,14.923 C47.5323313,14.7316657 47.2010013,14.470335 46.935,14.139 C46.6689987,13.807665 46.4706673,13.4203355 46.34,12.977 C46.2093327,12.5336644 46.144,12.0553359 46.144,11.542 C46.144,11.0286641 46.211666,10.5526689 46.347,10.114 C46.482334,9.67533114 46.6829987,9.2926683 46.949,8.966 C47.2150013,8.6393317 47.5463313,8.3826676 47.943,8.196 C48.3396686,8.0093324 48.7946641,7.916 49.308,7.916 C49.8213359,7.916 50.2763313,8.0093324 50.673,8.196 C51.0696686,8.3826676 51.403332,8.63699839 51.674,8.959 C51.944668,9.28100161 52.147666,9.66366445 52.283,10.107 C52.418334,10.5503355 52.486,11.0286641 52.486,11.542 C52.486,12.0553359 52.418334,12.5336644 52.283,12.977 C52.147666,13.4203355 51.944668,13.807665 51.674,14.139 C51.403332,14.470335 51.0696686,14.7316657 50.673,14.923 C50.2763313,15.1143343 49.8213359,15.21 49.308,15.21 Z M49.336,14.3 C49.6533349,14.3 49.9333321,14.2300007 50.176,14.09 C50.4186679,13.9499993 50.6193325,13.7563346 50.778,13.509 C50.9366675,13.2616654 51.0579996,12.9700017 51.142,12.634 C51.2260004,12.2979983 51.268,11.934002 51.268,11.542 C51.268,11.149998 51.2260004,10.788335 51.142,10.457 C51.0579996,10.125665 50.9320008,9.83866788 50.764,9.596 C50.5959992,9.35333212 50.3906679,9.16433401 50.148,9.029 C49.9053321,8.89366599 49.6253349,8.826 49.308,8.826 C48.9813317,8.826 48.6966679,8.89366599 48.454,9.029 C48.2113321,9.16433401 48.0106675,9.35333212 47.852,9.596 C47.6933325,9.83866788 47.5720004,10.125665 47.488,10.457 C47.4039996,10.788335 47.362,11.149998 47.362,11.542 C47.362,11.934002 47.4039996,12.2979983 47.488,12.634 C47.5720004,12.9700017 47.6956658,13.2616654 47.859,13.509 C48.0223341,13.7563346 48.2276654,13.9499993 48.475,14.09 C48.7223346,14.2300007 49.0093317,14.3 49.336,14.3 Z M53.942,8.112 L55.118,8.112 L55.118,12.284 C55.118,12.9373366 55.2393321,13.4156651 55.482,13.719 C55.7246679,14.0223348 56.0653311,14.174 56.504,14.174 C57.0640028,14.174 57.5003318,13.9523355 57.813,13.509 C58.1256682,13.0656644 58.282,12.475337 58.282,11.738 L58.282,8.112 L59.444,8.112 L59.444,15 L58.352,15 L58.352,13.6 C58.2679996,13.8146677 58.1653339,14.0176657 58.044,14.209 C57.9226661,14.4003343 57.7733342,14.5683326 57.596,14.713 C57.4186658,14.8576674 57.2133345,14.9719996 56.98,15.056 C56.7466655,15.1400004 56.4713349,15.182 56.154,15.182 C55.4073296,15.182 54.8520018,14.9556689 54.488,14.503 C54.1239982,14.0503311 53.942,13.4086708 53.942,12.578 L53.942,8.112 Z" id="About-you" fill="#4C5358"></path>
                        <path d="M0.5,47.5 L199.5,47.5" id="Line" stroke="#7C878E" stroke-linecap="square"></path>
                        <path d="M122,41 L122,26.0835661" id="Line" stroke="#7C878E" stroke-linecap="square"></path>
                        <rect id="Rectangle-6" fill="#CAD9EA" x="71" y="24" width="50" height="19"></rect>
                        <path d="M80.244,64.146 C80.5240014,63.9593324 80.8389983,63.7353346 81.189,63.474 C81.5390018,63.2126654 81.8913316,62.9256682 82.246,62.613 C82.6006684,62.3003318 82.943665,61.9690017 83.275,61.619 C83.606335,61.2689982 83.9003321,60.9050019 84.157,60.527 C84.413668,60.1489981 84.6213325,59.764002 84.78,59.372 C84.9386675,58.979998 85.018,58.588002 85.018,58.196 C85.018,57.6453306 84.8756681,57.1903351 84.591,56.831 C84.3063319,56.4716649 83.8746696,56.292 83.296,56.292 C82.7733307,56.292 82.3556682,56.4553317 82.043,56.782 C81.7303318,57.1086683 81.5226672,57.5146642 81.42,58 L80.314,57.734 C80.5566679,56.9779962 80.9299975,56.404002 81.434,56.012 C81.9380025,55.619998 82.6006626,55.424 83.422,55.424 C83.814002,55.424 84.1849983,55.4799994 84.535,55.592 C84.8850018,55.7040006 85.1906654,55.8719989 85.452,56.096 C85.7133346,56.3200011 85.9186659,56.6023316 86.068,56.943 C86.2173341,57.2836684 86.292,57.6826644 86.292,58.14 C86.292,58.7560031 86.1403349,59.3509971 85.837,59.925 C85.5336652,60.4990029 85.1580022,61.0403308 84.71,61.549 C84.2619978,62.0576692 83.7766693,62.5243312 83.254,62.949 C82.7313307,63.3736688 82.2506689,63.7353318 81.812,64.034 L86.544,64.034 L86.544,65 L80.244,65 L80.244,64.146 Z M91.36,64.216 C91.7893355,64.216 92.1416653,64.0830013 92.417,63.817 C92.6923347,63.5509987 92.9069992,63.2196686 93.061,62.823 C93.2150008,62.4263313 93.322333,62.0016689 93.383,61.549 C93.443667,61.0963311 93.474,60.6833352 93.474,60.31 C93.474,59.9459982 93.443667,59.5353356 93.383,59.078 C93.322333,58.6206644 93.2150008,58.1936686 93.061,57.797 C92.9069992,57.4003313 92.6923347,57.066668 92.417,56.796 C92.1416653,56.525332 91.7893355,56.39 91.36,56.39 C90.9399979,56.39 90.594668,56.518332 90.324,56.775 C90.053332,57.0316679 89.8363342,57.3489981 89.673,57.727 C89.5096659,58.1050019 89.397667,58.5133311 89.337,58.952 C89.276333,59.3906689 89.246,59.7966648 89.246,60.17 C89.246,60.5526686 89.2716664,60.977331 89.323,61.444 C89.3743336,61.910669 89.4769992,62.3493313 89.631,62.76 C89.7850008,63.1706687 89.9996653,63.5159986 90.275,63.796 C90.5503347,64.0760014 90.9119978,64.216 91.36,64.216 Z M91.36,65.21 C90.7439969,65.2006666 90.2166689,65.0466682 89.778,64.748 C89.3393311,64.4493318 88.984668,64.066669 88.714,63.6 C88.443332,63.133331 88.2450006,62.6106696 88.119,62.032 C87.9929994,61.4533304 87.93,60.8793362 87.93,60.31 C87.93,59.7406638 87.9929994,59.1643362 88.119,58.581 C88.2450006,57.9976638 88.4456653,57.472669 88.721,57.006 C88.9963347,56.539331 89.3533311,56.1566682 89.792,55.858 C90.2306689,55.5593318 90.7673302,55.41 91.402,55.41 C92.0273365,55.41 92.5569978,55.5593318 92.991,55.858 C93.4250022,56.1566682 93.7749987,56.539331 94.041,57.006 C94.3070013,57.472669 94.4983328,57.9953304 94.615,58.574 C94.7316673,59.1526696 94.79,59.7266638 94.79,60.296 C94.79,60.8560028 94.7316673,61.4253304 94.615,62.004 C94.4983328,62.5826696 94.3070013,63.1076643 94.041,63.579 C93.7749987,64.0503357 93.4226689,64.4376651 92.984,64.741 C92.5453311,65.0443348 92.0040032,65.2006666 91.36,65.21 Z M99.34,64.216 C99.7693355,64.216 100.121665,64.0830013 100.397,63.817 C100.672335,63.5509987 100.886999,63.2196686 101.041,62.823 C101.195001,62.4263313 101.302333,62.0016689 101.363,61.549 C101.423667,61.0963311 101.454,60.6833352 101.454,60.31 C101.454,59.9459982 101.423667,59.5353356 101.363,59.078 C101.302333,58.6206644 101.195001,58.1936686 101.041,57.797 C100.886999,57.4003313 100.672335,57.066668 100.397,56.796 C100.121665,56.525332 99.7693355,56.39 99.34,56.39 C98.9199979,56.39 98.574668,56.518332 98.304,56.775 C98.033332,57.0316679 97.8163342,57.3489981 97.653,57.727 C97.4896659,58.1050019 97.377667,58.5133311 97.317,58.952 C97.256333,59.3906689 97.226,59.7966648 97.226,60.17 C97.226,60.5526686 97.2516664,60.977331 97.303,61.444 C97.3543336,61.910669 97.4569992,62.3493313 97.611,62.76 C97.7650008,63.1706687 97.9796653,63.5159986 98.255,63.796 C98.5303347,64.0760014 98.8919978,64.216 99.34,64.216 Z M99.34,65.21 C98.7239969,65.2006666 98.1966689,65.0466682 97.758,64.748 C97.3193311,64.4493318 96.964668,64.066669 96.694,63.6 C96.423332,63.133331 96.2250006,62.6106696 96.099,62.032 C95.9729994,61.4533304 95.91,60.8793362 95.91,60.31 C95.91,59.7406638 95.9729994,59.1643362 96.099,58.581 C96.2250006,57.9976638 96.4256653,57.472669 96.701,57.006 C96.9763347,56.539331 97.3333311,56.1566682 97.772,55.858 C98.2106689,55.5593318 98.7473302,55.41 99.382,55.41 C100.007336,55.41 100.536998,55.5593318 100.971,55.858 C101.405002,56.1566682 101.754999,56.539331 102.021,57.006 C102.287001,57.472669 102.478333,57.9953304 102.595,58.574 C102.711667,59.1526696 102.77,59.7266638 102.77,60.296 C102.77,60.8560028 102.711667,61.4253304 102.595,62.004 C102.478333,62.5826696 102.287001,63.1076643 102.021,63.579 C101.754999,64.0503357 101.402669,64.4376651 100.964,64.741 C100.525331,65.0443348 99.9840032,65.2006666 99.34,65.21 Z M108.062,55.116 L109.084,55.116 L105.024,65 L103.974,65 L108.062,55.116 Z M110.554,64.146 C110.834001,63.9593324 111.148998,63.7353346 111.499,63.474 C111.849002,63.2126654 112.201332,62.9256682 112.556,62.613 C112.910668,62.3003318 113.253665,61.9690017 113.585,61.619 C113.916335,61.2689982 114.210332,60.9050019 114.467,60.527 C114.723668,60.1489981 114.931333,59.764002 115.09,59.372 C115.248667,58.979998 115.328,58.588002 115.328,58.196 C115.328,57.6453306 115.185668,57.1903351 114.901,56.831 C114.616332,56.4716649 114.18467,56.292 113.606,56.292 C113.083331,56.292 112.665668,56.4553317 112.353,56.782 C112.040332,57.1086683 111.832667,57.5146642 111.73,58 L110.624,57.734 C110.866668,56.9779962 111.239997,56.404002 111.744,56.012 C112.248003,55.619998 112.910663,55.424 113.732,55.424 C114.124002,55.424 114.494998,55.4799994 114.845,55.592 C115.195002,55.7040006 115.500665,55.8719989 115.762,56.096 C116.023335,56.3200011 116.228666,56.6023316 116.378,56.943 C116.527334,57.2836684 116.602,57.6826644 116.602,58.14 C116.602,58.7560031 116.450335,59.3509971 116.147,59.925 C115.843665,60.4990029 115.468002,61.0403308 115.02,61.549 C114.571998,62.0576692 114.086669,62.5243312 113.564,62.949 C113.041331,63.3736688 112.560669,63.7353318 112.122,64.034 L116.854,64.034 L116.854,65 L110.554,65 L110.554,64.146 Z M121.67,64.216 C122.099335,64.216 122.451665,64.0830013 122.727,63.817 C123.002335,63.5509987 123.216999,63.2196686 123.371,62.823 C123.525001,62.4263313 123.632333,62.0016689 123.693,61.549 C123.753667,61.0963311 123.784,60.6833352 123.784,60.31 C123.784,59.9459982 123.753667,59.5353356 123.693,59.078 C123.632333,58.6206644 123.525001,58.1936686 123.371,57.797 C123.216999,57.4003313 123.002335,57.066668 122.727,56.796 C122.451665,56.525332 122.099335,56.39 121.67,56.39 C121.249998,56.39 120.904668,56.518332 120.634,56.775 C120.363332,57.0316679 120.146334,57.3489981 119.983,57.727 C119.819666,58.1050019 119.707667,58.5133311 119.647,58.952 C119.586333,59.3906689 119.556,59.7966648 119.556,60.17 C119.556,60.5526686 119.581666,60.977331 119.633,61.444 C119.684334,61.910669 119.786999,62.3493313 119.941,62.76 C120.095001,63.1706687 120.309665,63.5159986 120.585,63.796 C120.860335,64.0760014 121.221998,64.216 121.67,64.216 Z M121.67,65.21 C121.053997,65.2006666 120.526669,65.0466682 120.088,64.748 C119.649331,64.4493318 119.294668,64.066669 119.024,63.6 C118.753332,63.133331 118.555001,62.6106696 118.429,62.032 C118.302999,61.4533304 118.24,60.8793362 118.24,60.31 C118.24,59.7406638 118.302999,59.1643362 118.429,58.581 C118.555001,57.9976638 118.755665,57.472669 119.031,57.006 C119.306335,56.539331 119.663331,56.1566682 120.102,55.858 C120.540669,55.5593318 121.07733,55.41 121.712,55.41 C122.337336,55.41 122.866998,55.5593318 123.301,55.858 C123.735002,56.1566682 124.084999,56.539331 124.351,57.006 C124.617001,57.472669 124.808333,57.9953304 124.925,58.574 C125.041667,59.1526696 125.1,59.7266638 125.1,60.296 C125.1,60.8560028 125.041667,61.4253304 124.925,62.004 C124.808333,62.5826696 124.617001,63.1076643 124.351,63.579 C124.084999,64.0503357 123.732669,64.4376651 123.294,64.741 C122.855331,65.0443348 122.314003,65.2006666 121.67,65.21 Z M129.65,64.216 C130.079335,64.216 130.431665,64.0830013 130.707,63.817 C130.982335,63.5509987 131.196999,63.2196686 131.351,62.823 C131.505001,62.4263313 131.612333,62.0016689 131.673,61.549 C131.733667,61.0963311 131.764,60.6833352 131.764,60.31 C131.764,59.9459982 131.733667,59.5353356 131.673,59.078 C131.612333,58.6206644 131.505001,58.1936686 131.351,57.797 C131.196999,57.4003313 130.982335,57.066668 130.707,56.796 C130.431665,56.525332 130.079335,56.39 129.65,56.39 C129.229998,56.39 128.884668,56.518332 128.614,56.775 C128.343332,57.0316679 128.126334,57.3489981 127.963,57.727 C127.799666,58.1050019 127.687667,58.5133311 127.627,58.952 C127.566333,59.3906689 127.536,59.7966648 127.536,60.17 C127.536,60.5526686 127.561666,60.977331 127.613,61.444 C127.664334,61.910669 127.766999,62.3493313 127.921,62.76 C128.075001,63.1706687 128.289665,63.5159986 128.565,63.796 C128.840335,64.0760014 129.201998,64.216 129.65,64.216 Z M129.65,65.21 C129.033997,65.2006666 128.506669,65.0466682 128.068,64.748 C127.629331,64.4493318 127.274668,64.066669 127.004,63.6 C126.733332,63.133331 126.535001,62.6106696 126.409,62.032 C126.282999,61.4533304 126.22,60.8793362 126.22,60.31 C126.22,59.7406638 126.282999,59.1643362 126.409,58.581 C126.535001,57.9976638 126.735665,57.472669 127.011,57.006 C127.286335,56.539331 127.643331,56.1566682 128.082,55.858 C128.520669,55.5593318 129.05733,55.41 129.692,55.41 C130.317336,55.41 130.846998,55.5593318 131.281,55.858 C131.715002,56.1566682 132.064999,56.539331 132.331,57.006 C132.597001,57.472669 132.788333,57.9953304 132.905,58.574 C133.021667,59.1526696 133.08,59.7266638 133.08,60.296 C133.08,60.8560028 133.021667,61.4253304 132.905,62.004 C132.788333,62.5826696 132.597001,63.1076643 132.331,63.579 C132.064999,64.0503357 131.712669,64.4376651 131.274,64.741 C130.835331,65.0443348 130.294003,65.2006666 129.65,65.21 Z M143.454,63.488 C143.173999,64.0480028 142.798336,64.4749985 142.327,64.769 C141.855664,65.0630015 141.284003,65.21 140.612,65.21 C140.061331,65.21 139.583002,65.1143343 139.177,64.923 C138.770998,64.7316657 138.435001,64.4726683 138.169,64.146 C137.902999,63.8193317 137.707001,63.4343356 137.581,62.991 C137.454999,62.5476644 137.392,62.0740025 137.392,61.57 C137.392,61.0566641 137.459666,60.5783355 137.595,60.135 C137.730334,59.6916644 137.930999,59.3066683 138.197,58.98 C138.463001,58.6533317 138.796665,58.3943343 139.198,58.203 C139.599335,58.0116657 140.070664,57.916 140.612,57.916 C141.293337,57.916 141.860331,58.0676651 142.313,58.371 C142.765669,58.6743348 143.131999,59.1013306 143.412,59.652 L142.432,60.114 C142.077332,59.255329 141.480004,58.826 140.64,58.826 C140.285332,58.826 139.979668,58.8959993 139.723,59.036 C139.466332,59.1760007 139.256334,59.3673321 139.093,59.61 C138.929666,59.8526679 138.808334,60.1349984 138.729,60.457 C138.649666,60.7790016 138.61,61.1266648 138.61,61.5 C138.61,61.8546684 138.647333,62.1999983 138.722,62.536 C138.796667,62.8720017 138.917999,63.1706654 139.086,63.432 C139.254001,63.6933346 139.468665,63.9033325 139.73,64.062 C139.991335,64.2206675 140.313331,64.3 140.696,64.3 C141.181336,64.3 141.573332,64.1763346 141.872,63.929 C142.170668,63.6816654 142.399333,63.362002 142.558,62.97 L143.454,63.488 Z M144.742,55.116 L145.904,55.116 L145.904,59.47 C145.988,59.2646656 146.095333,59.0686676 146.226,58.882 C146.356667,58.6953324 146.515332,58.5296674 146.702,58.385 C146.888668,58.2403326 147.103332,58.1260004 147.346,58.042 C147.588668,57.9579996 147.859332,57.916 148.158,57.916 C148.87667,57.916 149.406332,58.1516643 149.747,58.623 C150.087668,59.0943357 150.258,59.7313293 150.258,60.534 L150.258,65 L149.096,65 L149.096,60.716 C149.096,60.1279971 148.974668,59.6870015 148.732,59.393 C148.489332,59.0989985 148.144002,58.952 147.696,58.952 C147.434665,58.952 147.194334,59.0079994 146.975,59.12 C146.755666,59.2320006 146.566667,59.3906656 146.408,59.596 C146.249333,59.8013344 146.125667,60.0486652 146.037,60.338 C145.948333,60.6273348 145.904,60.9446649 145.904,61.29 L145.904,65 L144.742,65 L144.742,55.116 Z M156.348,65 C156.245333,64.6639983 156.184667,64.262669 156.166,63.796 C155.979332,64.2253355 155.692335,64.568332 155.305,64.825 C154.917665,65.0816679 154.458003,65.21 153.926,65.21 C153.253997,65.21 152.722002,65.0186686 152.33,64.636 C151.937998,64.2533314 151.742,63.7400032 151.742,63.096 C151.742,62.7319982 151.807333,62.4263346 151.938,62.179 C152.068667,61.9316654 152.250666,61.7263341 152.484,61.563 C152.717335,61.3996658 152.992665,61.2713338 153.31,61.178 C153.627335,61.0846662 153.972665,61.0100003 154.346,60.954 L156.11,60.688 L156.11,60.254 C156.11,59.9459985 156.072667,59.6986676 155.998,59.512 C155.923333,59.3253324 155.820667,59.1806672 155.69,59.078 C155.559333,58.9753328 155.410001,58.9076668 155.242,58.875 C155.073999,58.8423332 154.896668,58.826 154.71,58.826 C154.177997,58.826 153.739335,58.923999 153.394,59.12 C153.048665,59.316001 152.759335,59.5633318 152.526,59.862 L151.924,59.106 C152.194668,58.7793317 152.570331,58.4993345 153.051,58.266 C153.531669,58.0326655 154.126663,57.916 154.836,57.916 C155.694671,57.916 156.317665,58.1073314 156.705,58.49 C157.092335,58.8726686 157.286,59.4886624 157.286,60.338 L157.286,63.124 C157.286,63.3480011 157.288333,63.5439992 157.293,63.712 C157.297667,63.8800008 157.307,64.0363326 157.321,64.181 C157.335,64.3256674 157.356,64.4633327 157.384,64.594 C157.412,64.7246673 157.449333,64.8599993 157.496,65 L156.348,65 Z M156.11,61.458 L154.458,61.724 C153.888664,61.8266672 153.485001,61.9806656 153.247,62.186 C153.008999,62.3913344 152.89,62.6759982 152.89,63.04 C152.89,63.4133352 152.999666,63.7259987 153.219,63.978 C153.438334,64.2300013 153.762665,64.356 154.192,64.356 C154.453335,64.356 154.700666,64.3046672 154.934,64.202 C155.167335,64.0993328 155.370332,63.9570009 155.543,63.775 C155.715668,63.5929991 155.853333,63.3736679 155.956,63.117 C156.058667,62.860332 156.11,62.5780015 156.11,62.27 L156.11,61.458 Z M159.148,58.112 L160.156,58.112 L160.268,59.652 C160.464001,59.1479975 160.776665,58.7326683 161.206,58.406 C161.635335,58.0793317 162.143997,57.916 162.732,57.916 L162.732,59.148 C162.601333,59.1199999 162.456667,59.106 162.298,59.106 C162.064666,59.106 161.831335,59.1479996 161.598,59.232 C161.364666,59.3160004 161.152334,59.4513324 160.961,59.638 C160.769666,59.8246676 160.613334,60.0649985 160.492,60.359 C160.370666,60.6530015 160.31,61.0099979 160.31,61.43 L160.31,65 L159.148,65 L159.148,58.112 Z M168.206,65 C168.103333,64.6639983 168.042667,64.262669 168.024,63.796 C167.837332,64.2253355 167.550335,64.568332 167.163,64.825 C166.775665,65.0816679 166.316003,65.21 165.784,65.21 C165.111997,65.21 164.580002,65.0186686 164.188,64.636 C163.795998,64.2533314 163.6,63.7400032 163.6,63.096 C163.6,62.7319982 163.665333,62.4263346 163.796,62.179 C163.926667,61.9316654 164.108666,61.7263341 164.342,61.563 C164.575335,61.3996658 164.850665,61.2713338 165.168,61.178 C165.485335,61.0846662 165.830665,61.0100003 166.204,60.954 L167.968,60.688 L167.968,60.254 C167.968,59.9459985 167.930667,59.6986676 167.856,59.512 C167.781333,59.3253324 167.678667,59.1806672 167.548,59.078 C167.417333,58.9753328 167.268001,58.9076668 167.1,58.875 C166.931999,58.8423332 166.754668,58.826 166.568,58.826 C166.035997,58.826 165.597335,58.923999 165.252,59.12 C164.906665,59.316001 164.617335,59.5633318 164.384,59.862 L163.782,59.106 C164.052668,58.7793317 164.428331,58.4993345 164.909,58.266 C165.389669,58.0326655 165.984663,57.916 166.694,57.916 C167.552671,57.916 168.175665,58.1073314 168.563,58.49 C168.950335,58.8726686 169.144,59.4886624 169.144,60.338 L169.144,63.124 C169.144,63.3480011 169.146333,63.5439992 169.151,63.712 C169.155667,63.8800008 169.165,64.0363326 169.179,64.181 C169.193,64.3256674 169.214,64.4633327 169.242,64.594 C169.27,64.7246673 169.307333,64.8599993 169.354,65 L168.206,65 Z M167.968,61.458 L166.316,61.724 C165.746664,61.8266672 165.343001,61.9806656 165.105,62.186 C164.866999,62.3913344 164.748,62.6759982 164.748,63.04 C164.748,63.4133352 164.857666,63.7259987 165.077,63.978 C165.296334,64.2300013 165.620665,64.356 166.05,64.356 C166.311335,64.356 166.558666,64.3046672 166.792,64.202 C167.025335,64.0993328 167.228332,63.9570009 167.401,63.775 C167.573668,63.5929991 167.711333,63.3736679 167.814,63.117 C167.916667,62.860332 167.968,62.5780015 167.968,62.27 L167.968,61.458 Z M176.76,63.488 C176.479999,64.0480028 176.104336,64.4749985 175.633,64.769 C175.161664,65.0630015 174.590003,65.21 173.918,65.21 C173.367331,65.21 172.889002,65.1143343 172.483,64.923 C172.076998,64.7316657 171.741001,64.4726683 171.475,64.146 C171.208999,63.8193317 171.013001,63.4343356 170.887,62.991 C170.760999,62.5476644 170.698,62.0740025 170.698,61.57 C170.698,61.0566641 170.765666,60.5783355 170.901,60.135 C171.036334,59.6916644 171.236999,59.3066683 171.503,58.98 C171.769001,58.6533317 172.102665,58.3943343 172.504,58.203 C172.905335,58.0116657 173.376664,57.916 173.918,57.916 C174.599337,57.916 175.166331,58.0676651 175.619,58.371 C176.071669,58.6743348 176.437999,59.1013306 176.718,59.652 L175.738,60.114 C175.383332,59.255329 174.786004,58.826 173.946,58.826 C173.591332,58.826 173.285668,58.8959993 173.029,59.036 C172.772332,59.1760007 172.562334,59.3673321 172.399,59.61 C172.235666,59.8526679 172.114334,60.1349984 172.035,60.457 C171.955666,60.7790016 171.916,61.1266648 171.916,61.5 C171.916,61.8546684 171.953333,62.1999983 172.028,62.536 C172.102667,62.8720017 172.223999,63.1706654 172.392,63.432 C172.560001,63.6933346 172.774665,63.9033325 173.036,64.062 C173.297335,64.2206675 173.619331,64.3 174.002,64.3 C174.487336,64.3 174.879332,64.1763346 175.178,63.929 C175.476668,63.6816654 175.705333,63.362002 175.864,62.97 L176.76,63.488 Z M178.65,58.91 L177.474,58.91 L177.474,58.112 L177.726,58.112 C178.015335,58.112 178.241666,58.081667 178.405,58.021 C178.568334,57.960333 178.692,57.8670006 178.776,57.741 C178.86,57.6149994 178.920666,57.4493344 178.958,57.244 C178.995334,57.0386656 179.028,56.7866682 179.056,56.488 L179.084,56.236 L179.812,56.236 L179.812,58.112 L181.296,58.112 L181.296,58.91 L179.812,58.91 L179.812,63.194 C179.812,63.586002 179.870333,63.8683325 179.987,64.041 C180.103667,64.2136675 180.320665,64.3 180.638,64.3 C180.890001,64.3 181.123332,64.2440006 181.338,64.132 L181.464,64.972 C181.109332,65.1306675 180.717335,65.21 180.288,65.21 C179.951998,65.21 179.679001,65.1633338 179.469,65.07 C179.258999,64.9766662 179.093334,64.8506675 178.972,64.692 C178.850666,64.5333325 178.766667,64.3420011 178.72,64.118 C178.673333,63.8939989 178.65,63.6513346 178.65,63.39 L178.65,58.91 Z M183.578,61.822 C183.624667,62.6153373 183.827665,63.2289978 184.187,63.663 C184.546335,64.0970022 185.047997,64.314 185.692,64.314 C186.504004,64.314 187.115331,63.9313372 187.526,63.166 L188.408,63.656 C188.137332,64.1133356 187.778002,64.4866652 187.33,64.776 C186.881998,65.0653348 186.317337,65.21 185.636,65.21 C185.094664,65.21 184.621002,65.1166676 184.215,64.93 C183.808998,64.7433324 183.470668,64.4866683 183.2,64.16 C182.929332,63.8333317 182.726334,63.4506689 182.591,63.012 C182.455666,62.5733311 182.388,62.1020025 182.388,61.598 C182.388,61.1033309 182.453333,60.6320022 182.584,60.184 C182.714667,59.7359978 182.912999,59.3440017 183.179,59.008 C183.445001,58.6719983 183.771665,58.406001 184.159,58.21 C184.546335,58.013999 185.001331,57.916 185.524,57.916 C186.028003,57.916 186.466665,58.0116657 186.84,58.203 C187.213335,58.3943343 187.523665,58.6509984 187.771,58.973 C188.018335,59.2950016 188.204999,59.6683312 188.331,60.093 C188.457001,60.5176688 188.52,60.9679976 188.52,61.444 C188.52,61.5466672 188.517667,61.6259997 188.513,61.682 C188.508333,61.7380003 188.506,61.7846665 188.506,61.822 L183.578,61.822 Z M185.51,58.798 C184.921997,58.798 184.467002,59.0079979 184.145,59.428 C183.822998,59.8480021 183.638667,60.4126631 183.592,61.122 L187.33,61.122 C187.33,60.8326652 187.297334,60.5503347 187.232,60.275 C187.166666,59.9996653 187.059334,59.7523344 186.91,59.533 C186.760666,59.3136656 186.571668,59.136334 186.343,59.001 C186.114332,58.865666 185.836668,58.798 185.51,58.798 Z M189.934,58.112 L190.942,58.112 L191.054,59.652 C191.250001,59.1479975 191.562665,58.7326683 191.992,58.406 C192.421335,58.0793317 192.929997,57.916 193.518,57.916 L193.518,59.148 C193.387333,59.1199999 193.242667,59.106 193.084,59.106 C192.850666,59.106 192.617335,59.1479996 192.384,59.232 C192.150666,59.3160004 191.938334,59.4513324 191.747,59.638 C191.555666,59.8246676 191.399334,60.0649985 191.278,60.359 C191.156666,60.6530015 191.096,61.0099979 191.096,61.43 L191.096,65 L189.934,65 L189.934,58.112 Z M194.792,63.306 C195.025335,63.6046682 195.326331,63.851999 195.695,64.048 C196.063669,64.244001 196.467331,64.342 196.906,64.342 C197.298002,64.342 197.638665,64.2486676 197.928,64.062 C198.217335,63.8753324 198.362,63.5953352 198.362,63.222 C198.362,62.9326652 198.266334,62.7063341 198.075,62.543 C197.883666,62.3796658 197.645668,62.2420006 197.361,62.13 C197.076332,62.0179994 196.766002,61.9153338 196.43,61.822 C196.093998,61.7286662 195.783668,61.6073341 195.499,61.458 C195.214332,61.3086659 194.976334,61.1126679 194.785,60.87 C194.593666,60.6273321 194.498,60.2960021 194.498,59.876 C194.498,59.5306649 194.567999,59.2343346 194.708,58.987 C194.848001,58.7396654 195.032332,58.5366675 195.261,58.378 C195.489668,58.2193325 195.753332,58.102667 196.052,58.028 C196.350668,57.953333 196.663332,57.916 196.99,57.916 C197.960672,57.916 198.767997,58.1959972 199.412,58.756 L198.824,59.54 C198.618666,59.3253323 198.345668,59.1456674 198.005,59.001 C197.664332,58.8563326 197.312002,58.784 196.948,58.784 C196.789333,58.784 196.633001,58.8026665 196.479,58.84 C196.324999,58.8773335 196.189667,58.9356663 196.073,59.015 C195.956333,59.0943337 195.863,59.1946661 195.793,59.316 C195.723,59.4373339 195.688,59.5866658 195.688,59.764 C195.688,60.034668 195.783666,60.2446659 195.975,60.394 C196.166334,60.5433341 196.404332,60.6716661 196.689,60.779 C196.973668,60.8863339 197.281665,60.9889995 197.613,61.087 C197.944335,61.1850005 198.252332,61.3109992 198.537,61.465 C198.821668,61.6190008 199.059666,61.8219987 199.251,62.074 C199.442334,62.3260013 199.538,62.6619979 199.538,63.082 C199.538,63.4366684 199.465667,63.7469987 199.321,64.013 C199.176333,64.2790013 198.985001,64.5006658 198.747,64.678 C198.508999,64.8553342 198.233668,64.9883329 197.921,65.077 C197.608332,65.1656671 197.284002,65.21 196.948,65.21 C195.790661,65.21 194.871337,64.8366704 194.19,64.09 L194.792,63.306 Z" id="200/200-characters" fill="#4C5358"></path>
                        <path d="M2.264,26.704 L3.704,26.704 L3.704,38 L2.264,38 L2.264,26.704 Z M14.536,38 C14.4186661,37.6159981 14.3493334,37.157336 14.328,36.624 C14.1146656,37.1146691 13.7866689,37.5066652 13.344,37.8 C12.9013311,38.0933348 12.376003,38.24 11.768,38.24 C10.9999962,38.24 10.3920022,38.0213355 9.944,37.584 C9.49599776,37.1466645 9.272,36.5600037 9.272,35.824 C9.272,35.4079979 9.34666592,35.0586681 9.496,34.776 C9.64533408,34.4933319 9.853332,34.2586676 10.12,34.072 C10.386668,33.8853324 10.7013315,33.7386672 11.064,33.632 C11.4266685,33.5253328 11.8213312,33.4400003 12.248,33.376 L14.264,33.072 L14.264,32.576 C14.264,32.2239982 14.2213338,31.9413344 14.136,31.728 C14.0506662,31.5146656 13.9333341,31.3493339 13.784,31.232 C13.6346659,31.1146661 13.464001,31.0373335 13.272,31 C13.079999,30.9626665 12.8773344,30.944 12.664,30.944 C12.055997,30.944 11.5546686,31.0559989 11.16,31.28 C10.7653314,31.5040011 10.434668,31.786665 10.168,32.128 L9.48,31.264 C9.78933488,30.8906648 10.2186639,30.570668 10.768,30.304 C11.3173361,30.037332 11.9973293,29.904 12.808,29.904 C13.7893382,29.904 14.5013311,30.1226645 14.944,30.56 C15.3866689,30.9973355 15.608,31.7013285 15.608,32.672 L15.608,35.856 C15.608,36.1120013 15.6106666,36.335999 15.616,36.528 C15.6213334,36.720001 15.6319999,36.8986658 15.648,37.064 C15.6640001,37.2293342 15.6879998,37.3866659 15.72,37.536 C15.7520002,37.6853341 15.7946664,37.8399992 15.848,38 L14.536,38 Z M14.264,33.952 L12.376,34.256 C11.7253301,34.3733339 11.2640014,34.5493322 10.992,34.784 C10.7199986,35.0186678 10.584,35.3439979 10.584,35.76 C10.584,36.1866688 10.7093321,36.5439986 10.96,36.832 C11.2106679,37.1200014 11.5813309,37.264 12.072,37.264 C12.3706682,37.264 12.653332,37.2053339 12.92,37.088 C13.186668,36.9706661 13.4186657,36.808001 13.616,36.6 C13.8133343,36.391999 13.9706661,36.1413348 14.088,35.848 C14.2053339,35.5546652 14.264,35.2320018 14.264,34.88 L14.264,33.952 Z M17.736,30.128 L18.888,30.128 L19.032,31.664 C19.224001,31.1199973 19.5226646,30.6906682 19.928,30.376 C20.3333354,30.0613318 20.8293304,29.904 21.416,29.904 C22.0346698,29.904 22.5199982,30.0799982 22.872,30.432 C23.2240018,30.7840018 23.4479995,31.2106642 23.544,31.712 C23.6400005,31.4666654 23.7599993,31.2346678 23.904,31.016 C24.0480007,30.7973322 24.2213323,30.6053342 24.424,30.44 C24.6266677,30.2746658 24.861332,30.1440005 25.128,30.048 C25.394668,29.9519995 25.698665,29.904 26.04,29.904 C26.4880022,29.904 26.8586652,29.9813326 27.152,30.136 C27.4453348,30.2906674 27.6799991,30.501332 27.856,30.768 C28.0320009,31.034668 28.157333,31.3466649 28.232,31.704 C28.306667,32.0613351 28.344,32.4373314 28.344,32.832 L28.344,38 L27.016,38 L27.016,33.168 C27.016,32.4639965 26.8906679,31.9386684 26.64,31.592 C26.3893321,31.2453316 26.0240024,31.072 25.544,31.072 C25.0213307,31.072 24.5840018,31.3039977 24.232,31.768 C23.8799982,32.2320023 23.704,32.8959957 23.704,33.76 L23.704,38 L22.376,38 L22.376,33.232 C22.376,32.4959963 22.2480013,31.9520018 21.992,31.6 C21.7359987,31.2479982 21.378669,31.072 20.92,31.072 C20.4079974,31.072 19.9706685,31.309331 19.608,31.784 C19.2453315,32.258669 19.064,32.9439955 19.064,33.84 L19.064,38 L17.736,38 L17.736,30.128 Z M37.352,26.704 L38.68,26.704 L42.664,38 L41.16,38 L40.152,34.96 L35.8,34.96 L34.792,38 L33.336,38 L37.352,26.704 Z M39.768,33.856 C39.4693318,32.9279954 39.1733348,32.0186711 38.88,31.128 C38.5866652,30.2373289 38.2906682,29.3013382 37.992,28.32 C37.7146653,29.2800048 37.4213349,30.2106622 37.112,31.112 C36.8026651,32.0133378 36.4933349,32.9279954 36.184,33.856 L39.768,33.856 Z M44.088,30.128 L45.24,30.128 L45.384,31.664 C45.576001,31.1199973 45.8746646,30.6906682 46.28,30.376 C46.6853354,30.0613318 47.1813304,29.904 47.768,29.904 C48.3866698,29.904 48.8719982,30.0799982 49.224,30.432 C49.5760018,30.7840018 49.7999995,31.2106642 49.896,31.712 C49.9920005,31.4666654 50.1119993,31.2346678 50.256,31.016 C50.4000007,30.7973322 50.5733323,30.6053342 50.776,30.44 C50.9786677,30.2746658 51.213332,30.1440005 51.48,30.048 C51.746668,29.9519995 52.050665,29.904 52.392,29.904 C52.8400022,29.904 53.2106652,29.9813326 53.504,30.136 C53.7973348,30.2906674 54.0319991,30.501332 54.208,30.768 C54.3840009,31.034668 54.509333,31.3466649 54.584,31.704 C54.658667,32.0613351 54.696,32.4373314 54.696,32.832 L54.696,38 L53.368,38 L53.368,33.168 C53.368,32.4639965 53.2426679,31.9386684 52.992,31.592 C52.7413321,31.2453316 52.3760024,31.072 51.896,31.072 C51.3733307,31.072 50.9360018,31.3039977 50.584,31.768 C50.2319982,32.2320023 50.056,32.8959957 50.056,33.76 L50.056,38 L48.728,38 L48.728,33.232 C48.728,32.4959963 48.6000013,31.9520018 48.344,31.6 C48.0879987,31.2479982 47.730669,31.072 47.272,31.072 C46.7599974,31.072 46.3226685,31.309331 45.96,31.784 C45.5973315,32.258669 45.416,32.9439955 45.416,33.84 L45.416,38 L44.088,38 L44.088,30.128 Z M56.712,27.072 L58.04,27.072 L58.04,28.4 L56.712,28.4 L56.712,27.072 Z M56.712,30.128 L58.04,30.128 L58.04,38 L56.712,38 L56.712,30.128 Z M60.088,30.128 L61.24,30.128 L61.368,31.888 C61.5920011,31.3119971 61.9493309,30.8373352 62.44,30.464 C62.9306691,30.0906648 63.5119966,29.904 64.184,29.904 L64.184,31.312 C64.0346659,31.2799998 63.8693342,31.264 63.688,31.264 C63.421332,31.264 63.154668,31.3119995 62.888,31.408 C62.621332,31.5040005 62.3786678,31.6586656 62.16,31.872 C61.9413322,32.0853344 61.7626674,32.3599983 61.624,32.696 C61.4853326,33.0320017 61.416,33.4399976 61.416,33.92 L61.416,38 L60.088,38 L60.088,30.128 Z M65.496,27.072 L66.824,27.072 L66.824,28.4 L65.496,28.4 L65.496,27.072 Z M65.496,30.128 L66.824,30.128 L66.824,38 L65.496,38 L65.496,30.128 Z M72.568,26.704 L76.376,26.704 C76.834669,26.704 77.2853311,26.7493329 77.728,26.84 C78.1706689,26.9306671 78.562665,27.0853322 78.904,27.304 C79.245335,27.5226678 79.519999,27.8133315 79.728,28.176 C79.936001,28.5386685 80.04,28.986664 80.04,29.52 C80.04,30.2133368 79.8346687,30.7839978 79.424,31.232 C79.0133313,31.6800022 78.445337,31.9626661 77.72,32.08 C78.0933352,32.1333336 78.442665,32.2293326 78.768,32.368 C79.093335,32.5066674 79.3759988,32.6933322 79.616,32.928 C79.8560012,33.1626678 80.042666,33.442665 80.176,33.768 C80.309334,34.093335 80.376,34.4693312 80.376,34.896 C80.376,35.4720029 80.2773343,35.959998 80.08,36.36 C79.8826657,36.760002 79.613335,37.0799988 79.272,37.32 C78.930665,37.5600012 78.5253357,37.7333328 78.056,37.84 C77.5866643,37.9466672 77.0746694,38 76.52,38 L72.568,38 L72.568,26.704 Z M75.864,31.552 C76.1733349,31.552 76.4853318,31.5333335 76.8,31.496 C77.1146682,31.4586665 77.3999987,31.3706674 77.656,31.232 C77.9120013,31.0933326 78.1199992,30.8960013 78.28,30.64 C78.4400008,30.3839987 78.52,30.0373355 78.52,29.6 C78.52,29.2479982 78.4560006,28.9573345 78.328,28.728 C78.1999994,28.4986655 78.0240011,28.317334 77.8,28.184 C77.5759989,28.050666 77.3200014,27.9573336 77.032,27.904 C76.7439986,27.8506664 76.4400016,27.824 76.12,27.824 L74.008,27.824 L74.008,31.552 L75.864,31.552 Z M76.296,36.88 C76.6160016,36.88 76.9279985,36.8480003 77.232,36.784 C77.5360015,36.7199997 77.8079988,36.6080008 78.048,36.448 C78.2880012,36.2879992 78.4799993,36.0693347 78.624,35.792 C78.7680007,35.5146653 78.84,35.1626688 78.84,34.736 C78.84,34.3413314 78.7626674,34.010668 78.608,33.744 C78.4533326,33.477332 78.2480013,33.2640008 77.992,33.104 C77.7359987,32.9439992 77.445335,32.8293337 77.12,32.76 C76.794665,32.6906663 76.461335,32.656 76.12,32.656 L74.008,32.656 L74.008,36.88 L76.296,36.88 Z M87.032,38 C86.9146661,37.6159981 86.8453334,37.157336 86.824,36.624 C86.6106656,37.1146691 86.2826689,37.5066652 85.84,37.8 C85.3973311,38.0933348 84.872003,38.24 84.264,38.24 C83.4959962,38.24 82.8880022,38.0213355 82.44,37.584 C81.9919978,37.1466645 81.768,36.5600037 81.768,35.824 C81.768,35.4079979 81.8426659,35.0586681 81.992,34.776 C82.1413341,34.4933319 82.349332,34.2586676 82.616,34.072 C82.882668,33.8853324 83.1973315,33.7386672 83.56,33.632 C83.9226685,33.5253328 84.3173312,33.4400003 84.744,33.376 L86.76,33.072 L86.76,32.576 C86.76,32.2239982 86.7173338,31.9413344 86.632,31.728 C86.5466662,31.5146656 86.4293341,31.3493339 86.28,31.232 C86.1306659,31.1146661 85.960001,31.0373335 85.768,31 C85.575999,30.9626665 85.3733344,30.944 85.16,30.944 C84.551997,30.944 84.0506686,31.0559989 83.656,31.28 C83.2613314,31.5040011 82.930668,31.786665 82.664,32.128 L81.976,31.264 C82.2853349,30.8906648 82.7146639,30.570668 83.264,30.304 C83.8133361,30.037332 84.4933293,29.904 85.304,29.904 C86.2853382,29.904 86.9973311,30.1226645 87.44,30.56 C87.8826689,30.9973355 88.104,31.7013285 88.104,32.672 L88.104,35.856 C88.104,36.1120013 88.1066666,36.335999 88.112,36.528 C88.1173334,36.720001 88.1279999,36.8986658 88.144,37.064 C88.1600001,37.2293342 88.1839998,37.3866659 88.216,37.536 C88.2480002,37.6853341 88.2906664,37.8399992 88.344,38 L87.032,38 Z M86.76,33.952 L84.872,34.256 C84.2213301,34.3733339 83.7600014,34.5493322 83.488,34.784 C83.2159986,35.0186678 83.08,35.3439979 83.08,35.76 C83.08,36.1866688 83.2053321,36.5439986 83.456,36.832 C83.7066679,37.1200014 84.0773309,37.264 84.568,37.264 C84.8666682,37.264 85.149332,37.2053339 85.416,37.088 C85.682668,36.9706661 85.9146657,36.808001 86.112,36.6 C86.3093343,36.391999 86.4666661,36.1413348 86.584,35.848 C86.7013339,35.5546652 86.76,35.2320018 86.76,34.88 L86.76,33.952 Z M90.232,30.128 L91.384,30.128 L91.512,31.888 C91.7360011,31.3119971 92.0933309,30.8373352 92.584,30.464 C93.0746691,30.0906648 93.6559966,29.904 94.328,29.904 L94.328,31.312 C94.1786659,31.2799998 94.0133342,31.264 93.832,31.264 C93.565332,31.264 93.298668,31.3119995 93.032,31.408 C92.765332,31.5040005 92.5226678,31.6586656 92.304,31.872 C92.0853322,32.0853344 91.9066674,32.3599983 91.768,32.696 C91.6293326,33.0320017 91.56,33.4399976 91.56,33.92 L91.56,38 L90.232,38 L90.232,30.128 Z M100.584,38 C100.466666,37.6159981 100.397333,37.157336 100.376,36.624 C100.162666,37.1146691 99.8346689,37.5066652 99.392,37.8 C98.9493311,38.0933348 98.424003,38.24 97.816,38.24 C97.0479962,38.24 96.4400022,38.0213355 95.992,37.584 C95.5439978,37.1466645 95.32,36.5600037 95.32,35.824 C95.32,35.4079979 95.3946659,35.0586681 95.544,34.776 C95.6933341,34.4933319 95.901332,34.2586676 96.168,34.072 C96.434668,33.8853324 96.7493315,33.7386672 97.112,33.632 C97.4746685,33.5253328 97.8693312,33.4400003 98.296,33.376 L100.312,33.072 L100.312,32.576 C100.312,32.2239982 100.269334,31.9413344 100.184,31.728 C100.098666,31.5146656 99.9813341,31.3493339 99.832,31.232 C99.6826659,31.1146661 99.512001,31.0373335 99.32,31 C99.127999,30.9626665 98.9253344,30.944 98.712,30.944 C98.103997,30.944 97.6026686,31.0559989 97.208,31.28 C96.8133314,31.5040011 96.482668,31.786665 96.216,32.128 L95.528,31.264 C95.8373349,30.8906648 96.2666639,30.570668 96.816,30.304 C97.3653361,30.037332 98.0453293,29.904 98.856,29.904 C99.8373382,29.904 100.549331,30.1226645 100.992,30.56 C101.434669,30.9973355 101.656,31.7013285 101.656,32.672 L101.656,35.856 C101.656,36.1120013 101.658667,36.335999 101.664,36.528 C101.669333,36.720001 101.68,36.8986658 101.696,37.064 C101.712,37.2293342 101.736,37.3866659 101.768,37.536 C101.8,37.6853341 101.842666,37.8399992 101.896,38 L100.584,38 Z M100.312,33.952 L98.424,34.256 C97.7733301,34.3733339 97.3120014,34.5493322 97.04,34.784 C96.7679986,35.0186678 96.632,35.3439979 96.632,35.76 C96.632,36.1866688 96.7573321,36.5439986 97.008,36.832 C97.2586679,37.1200014 97.6293309,37.264 98.12,37.264 C98.4186682,37.264 98.701332,37.2053339 98.968,37.088 C99.234668,36.9706661 99.4666657,36.808001 99.664,36.6 C99.8613343,36.391999 100.018666,36.1413348 100.136,35.848 C100.253334,35.5546652 100.312,35.2320018 100.312,34.88 L100.312,33.952 Z M103.784,26.704 L105.112,26.704 L105.112,33.808 L108.68,30.128 L110.344,30.128 L107.256,33.136 L110.744,38 L109.192,38 L106.392,33.968 L105.112,35.2 L105.112,38 L103.784,38 L103.784,26.704 Z M116.936,38 C116.818666,37.6159981 116.749333,37.157336 116.728,36.624 C116.514666,37.1146691 116.186669,37.5066652 115.744,37.8 C115.301331,38.0933348 114.776003,38.24 114.168,38.24 C113.399996,38.24 112.792002,38.0213355 112.344,37.584 C111.895998,37.1466645 111.672,36.5600037 111.672,35.824 C111.672,35.4079979 111.746666,35.0586681 111.896,34.776 C112.045334,34.4933319 112.253332,34.2586676 112.52,34.072 C112.786668,33.8853324 113.101332,33.7386672 113.464,33.632 C113.826668,33.5253328 114.221331,33.4400003 114.648,33.376 L116.664,33.072 L116.664,32.576 C116.664,32.2239982 116.621334,31.9413344 116.536,31.728 C116.450666,31.5146656 116.333334,31.3493339 116.184,31.232 C116.034666,31.1146661 115.864001,31.0373335 115.672,31 C115.479999,30.9626665 115.277334,30.944 115.064,30.944 C114.455997,30.944 113.954669,31.0559989 113.56,31.28 C113.165331,31.5040011 112.834668,31.786665 112.568,32.128 L111.88,31.264 C112.189335,30.8906648 112.618664,30.570668 113.168,30.304 C113.717336,30.037332 114.397329,29.904 115.208,29.904 C116.189338,29.904 116.901331,30.1226645 117.344,30.56 C117.786669,30.9973355 118.008,31.7013285 118.008,32.672 L118.008,35.856 C118.008,36.1120013 118.010667,36.335999 118.016,36.528 C118.021333,36.720001 118.032,36.8986658 118.048,37.064 C118.064,37.2293342 118.088,37.3866659 118.12,37.536 C118.152,37.6853341 118.194666,37.8399992 118.248,38 L116.936,38 Z M116.664,33.952 L114.776,34.256 C114.12533,34.3733339 113.664001,34.5493322 113.392,34.784 C113.119999,35.0186678 112.984,35.3439979 112.984,35.76 C112.984,36.1866688 113.109332,36.5439986 113.36,36.832 C113.610668,37.1200014 113.981331,37.264 114.472,37.264 C114.770668,37.264 115.053332,37.2053339 115.32,37.088 C115.586668,36.9706661 115.818666,36.808001 116.016,36.6 C116.213334,36.391999 116.370666,36.1413348 116.488,35.848 C116.605334,35.5546652 116.664,35.2320018 116.664,34.88 L116.664,33.952 Z" id="I-am-Amiri-Baraka" fill="#000000"></path>
                        <g id="Combined-Shape">
                            <use fill="#FFFFFF" fill-rule="evenodd" xlink:href="#path-1"></use>
                            <path stroke="#9B9B9B" stroke-width="1" d="M69.5,24.0733869 C70.2950047,24.3544005 71.1370579,24.5 72,24.5 L138,24.5 C142.142136,24.5 145.5,21.1421356 145.5,17 L145.5,8 C145.5,3.85786438 142.142136,0.5 138,0.5 L72,0.5 C71.1370579,0.5 70.2950047,0.645599465 69.5,0.926613121 L69.5,24.0733869 Z"></path>
                        </g>
                        <path d="M134.821101,12.5207373 L137.834862,9.49308756 C137.917431,9.41013825 137.958716,9.32718894 138,9.16129032 C138,9.03686636 137.917431,8.9124424 137.834862,8.82949309 L137.174312,8.12442396 C137.091743,8.04147465 136.926606,8.04147465 136.844037,8 C136.720183,8 136.59633,8.08294931 136.513761,8.16589862 L133.5,11.1935484 L130.486239,8.16589862 C130.40367,8.04147465 130.279817,8 130.155963,8 C130.03211,8 129.908257,8.04147465 129.825688,8.16589862 L129.165138,8.82949309 C129.082569,8.9124424 129,8.99539171 129,9.11981567 C129,9.24423963 129.082569,9.36866359 129.165138,9.4516129 L132.178899,12.4792627 L129.165138,15.5069124 C129.041284,15.5898618 129,15.7142857 129,15.8387097 C129,15.9631336 129.082569,16.0875576 129.165138,16.1705069 L129.825688,16.8341014 C129.908257,16.9585253 130.03211,17 130.155963,17 C130.279817,17 130.40367,16.9170507 130.486239,16.8341014 L133.5,13.8064516 L136.513761,16.8341014 C136.59633,16.9585253 136.720183,17 136.844037,17 C136.96789,17 137.091743,16.9170507 137.174312,16.8341014 L137.834862,16.1705069 C137.917431,16.0875576 137.958716,15.9631336 137.958716,15.8387097 C137.958716,15.7142857 137.876147,15.5898618 137.793578,15.5069124 L134.821101,12.5207373 Z" id="Shape" fill="#9B9B9B" fill-rule="nonzero"></path>
                        <path d="M73.12,6.704 L76.928,6.704 C77.386669,6.704 77.8373311,6.74933288 78.28,6.84 C78.7226689,6.93066712 79.114665,7.08533224 79.456,7.304 C79.797335,7.52266776 80.071999,7.81333152 80.28,8.176 C80.488001,8.53866848 80.592,8.986664 80.592,9.52 C80.592,10.2133368 80.3866687,10.7839978 79.976,11.232 C79.5653313,11.6800022 78.997337,11.9626661 78.272,12.08 C78.6453352,12.1333336 78.994665,12.2293326 79.32,12.368 C79.645335,12.5066674 79.9279988,12.6933322 80.168,12.928 C80.4080012,13.1626678 80.594666,13.442665 80.728,13.768 C80.861334,14.093335 80.928,14.4693312 80.928,14.896 C80.928,15.4720029 80.8293343,15.959998 80.632,16.36 C80.4346657,16.760002 80.165335,17.0799988 79.824,17.32 C79.482665,17.5600012 79.0773357,17.7333328 78.608,17.84 C78.1386643,17.9466672 77.6266694,18 77.072,18 L73.12,18 L73.12,6.704 Z M76.416,11.552 C76.7253349,11.552 77.0373318,11.5333335 77.352,11.496 C77.6666682,11.4586665 77.9519987,11.3706674 78.208,11.232 C78.4640013,11.0933326 78.6719992,10.8960013 78.832,10.64 C78.9920008,10.3839987 79.072,10.0373355 79.072,9.6 C79.072,9.24799824 79.0080006,8.95733448 78.88,8.728 C78.7519994,8.49866552 78.5760011,8.317334 78.352,8.184 C78.1279989,8.050666 77.8720014,7.9573336 77.584,7.904 C77.2959986,7.8506664 76.9920016,7.824 76.672,7.824 L74.56,7.824 L74.56,11.552 L76.416,11.552 Z M76.848,16.88 C77.1680016,16.88 77.4799985,16.8480003 77.784,16.784 C78.0880015,16.7199997 78.3599988,16.6080008 78.6,16.448 C78.8400012,16.2879992 79.0319993,16.0693347 79.176,15.792 C79.3200007,15.5146653 79.392,15.1626688 79.392,14.736 C79.392,14.3413314 79.3146674,14.010668 79.16,13.744 C79.0053326,13.477332 78.8000013,13.2640008 78.544,13.104 C78.2879987,12.9439992 77.997335,12.8293337 77.672,12.76 C77.346665,12.6906663 77.013335,12.656 76.672,12.656 L74.56,12.656 L74.56,16.88 L76.848,16.88 Z M87.584,18 C87.4666661,17.6159981 87.3973334,17.157336 87.376,16.624 C87.1626656,17.1146691 86.8346689,17.5066652 86.392,17.8 C85.9493311,18.0933348 85.424003,18.24 84.816,18.24 C84.0479962,18.24 83.4400022,18.0213355 82.992,17.584 C82.5439978,17.1466645 82.32,16.5600037 82.32,15.824 C82.32,15.4079979 82.3946659,15.0586681 82.544,14.776 C82.6933341,14.4933319 82.901332,14.2586676 83.168,14.072 C83.434668,13.8853324 83.7493315,13.7386672 84.112,13.632 C84.4746685,13.5253328 84.8693312,13.4400003 85.296,13.376 L87.312,13.072 L87.312,12.576 C87.312,12.2239982 87.2693338,11.9413344 87.184,11.728 C87.0986662,11.5146656 86.9813341,11.3493339 86.832,11.232 C86.6826659,11.1146661 86.512001,11.0373335 86.32,11 C86.127999,10.9626665 85.9253344,10.944 85.712,10.944 C85.103997,10.944 84.6026686,11.0559989 84.208,11.28 C83.8133314,11.5040011 83.482668,11.786665 83.216,12.128 L82.528,11.264 C82.8373349,10.8906648 83.2666639,10.570668 83.816,10.304 C84.3653361,10.037332 85.0453293,9.904 85.856,9.904 C86.8373382,9.904 87.5493311,10.1226645 87.992,10.56 C88.4346689,10.9973355 88.656,11.7013285 88.656,12.672 L88.656,15.856 C88.656,16.1120013 88.6586666,16.335999 88.664,16.528 C88.6693334,16.720001 88.6799999,16.8986658 88.696,17.064 C88.7120001,17.2293342 88.7359998,17.3866659 88.768,17.536 C88.8000002,17.6853341 88.8426664,17.8399992 88.896,18 L87.584,18 Z M87.312,13.952 L85.424,14.256 C84.7733301,14.3733339 84.3120014,14.5493322 84.04,14.784 C83.7679986,15.0186678 83.632,15.3439979 83.632,15.76 C83.632,16.1866688 83.7573321,16.5439986 84.008,16.832 C84.2586679,17.1200014 84.6293309,17.264 85.12,17.264 C85.4186682,17.264 85.701332,17.2053339 85.968,17.088 C86.234668,16.9706661 86.4666657,16.808001 86.664,16.6 C86.8613343,16.391999 87.0186661,16.1413348 87.136,15.848 C87.2533339,15.5546652 87.312,15.2320018 87.312,14.88 L87.312,13.952 Z M90.784,10.128 L91.936,10.128 L92.08,11.696 C92.2826677,11.2159976 92.6053311,10.7973351 93.048,10.44 C93.4906689,10.0826649 94.0373301,9.904 94.688,9.904 C95.5093374,9.904 96.1146647,10.1653307 96.504,10.688 C96.8933353,11.2106693 97.088,11.9413286 97.088,12.88 L97.088,18 L95.76,18 L95.76,13.152 C95.76,12.4373298 95.6160014,11.9120017 95.328,11.576 C95.0399986,11.2399983 94.6506691,11.072 94.16,11.072 C93.5733304,11.072 93.0853353,11.3119976 92.696,11.792 C92.3066647,12.2720024 92.112,12.949329 92.112,13.824 L92.112,18 L90.784,18 L90.784,10.128 Z M104.048,18 C103.930666,17.6159981 103.861333,17.157336 103.84,16.624 C103.626666,17.1146691 103.298669,17.5066652 102.856,17.8 C102.413331,18.0933348 101.888003,18.24 101.28,18.24 C100.511996,18.24 99.9040022,18.0213355 99.456,17.584 C99.0079978,17.1466645 98.784,16.5600037 98.784,15.824 C98.784,15.4079979 98.8586659,15.0586681 99.008,14.776 C99.1573341,14.4933319 99.365332,14.2586676 99.632,14.072 C99.898668,13.8853324 100.213332,13.7386672 100.576,13.632 C100.938668,13.5253328 101.333331,13.4400003 101.76,13.376 L103.776,13.072 L103.776,12.576 C103.776,12.2239982 103.733334,11.9413344 103.648,11.728 C103.562666,11.5146656 103.445334,11.3493339 103.296,11.232 C103.146666,11.1146661 102.976001,11.0373335 102.784,11 C102.591999,10.9626665 102.389334,10.944 102.176,10.944 C101.567997,10.944 101.066669,11.0559989 100.672,11.28 C100.277331,11.5040011 99.946668,11.786665 99.68,12.128 L98.992,11.264 C99.3013349,10.8906648 99.7306639,10.570668 100.28,10.304 C100.829336,10.037332 101.509329,9.904 102.32,9.904 C103.301338,9.904 104.013331,10.1226645 104.456,10.56 C104.898669,10.9973355 105.12,11.7013285 105.12,12.672 L105.12,15.856 C105.12,16.1120013 105.122667,16.335999 105.128,16.528 C105.133333,16.720001 105.144,16.8986658 105.16,17.064 C105.176,17.2293342 105.2,17.3866659 105.232,17.536 C105.264,17.6853341 105.306666,17.8399992 105.36,18 L104.048,18 Z M103.776,13.952 L101.888,14.256 C101.23733,14.3733339 100.776001,14.5493322 100.504,14.784 C100.231999,15.0186678 100.096,15.3439979 100.096,15.76 C100.096,16.1866688 100.221332,16.5439986 100.472,16.832 C100.722668,17.1200014 101.093331,17.264 101.584,17.264 C101.882668,17.264 102.165332,17.2053339 102.432,17.088 C102.698668,16.9706661 102.930666,16.808001 103.128,16.6 C103.325334,16.391999 103.482666,16.1413348 103.6,15.848 C103.717334,15.5546652 103.776,15.2320018 103.776,14.88 L103.776,13.952 Z M107.248,10.128 L108.4,10.128 L108.544,11.696 C108.746668,11.2159976 109.069331,10.7973351 109.512,10.44 C109.954669,10.0826649 110.50133,9.904 111.152,9.904 C111.973337,9.904 112.578665,10.1653307 112.968,10.688 C113.357335,11.2106693 113.552,11.9413286 113.552,12.88 L113.552,18 L112.224,18 L112.224,13.152 C112.224,12.4373298 112.080001,11.9120017 111.792,11.576 C111.503999,11.2399983 111.114669,11.072 110.624,11.072 C110.03733,11.072 109.549335,11.3119976 109.16,11.792 C108.770665,12.2720024 108.576,12.949329 108.576,13.824 L108.576,18 L107.248,18 L107.248,10.128 Z M120.512,18 C120.394666,17.6159981 120.325333,17.157336 120.304,16.624 C120.090666,17.1146691 119.762669,17.5066652 119.32,17.8 C118.877331,18.0933348 118.352003,18.24 117.744,18.24 C116.975996,18.24 116.368002,18.0213355 115.92,17.584 C115.471998,17.1466645 115.248,16.5600037 115.248,15.824 C115.248,15.4079979 115.322666,15.0586681 115.472,14.776 C115.621334,14.4933319 115.829332,14.2586676 116.096,14.072 C116.362668,13.8853324 116.677332,13.7386672 117.04,13.632 C117.402668,13.5253328 117.797331,13.4400003 118.224,13.376 L120.24,13.072 L120.24,12.576 C120.24,12.2239982 120.197334,11.9413344 120.112,11.728 C120.026666,11.5146656 119.909334,11.3493339 119.76,11.232 C119.610666,11.1146661 119.440001,11.0373335 119.248,11 C119.055999,10.9626665 118.853334,10.944 118.64,10.944 C118.031997,10.944 117.530669,11.0559989 117.136,11.28 C116.741331,11.5040011 116.410668,11.786665 116.144,12.128 L115.456,11.264 C115.765335,10.8906648 116.194664,10.570668 116.744,10.304 C117.293336,10.037332 117.973329,9.904 118.784,9.904 C119.765338,9.904 120.477331,10.1226645 120.92,10.56 C121.362669,10.9973355 121.584,11.7013285 121.584,12.672 L121.584,15.856 C121.584,16.1120013 121.586667,16.335999 121.592,16.528 C121.597333,16.720001 121.608,16.8986658 121.624,17.064 C121.64,17.2293342 121.664,17.3866659 121.696,17.536 C121.728,17.6853341 121.770666,17.8399992 121.824,18 L120.512,18 Z M120.24,13.952 L118.352,14.256 C117.70133,14.3733339 117.240001,14.5493322 116.968,14.784 C116.695999,15.0186678 116.56,15.3439979 116.56,15.76 C116.56,16.1866688 116.685332,16.5439986 116.936,16.832 C117.186668,17.1200014 117.557331,17.264 118.048,17.264 C118.346668,17.264 118.629332,17.2053339 118.896,17.088 C119.162668,16.9706661 119.394666,16.808001 119.592,16.6 C119.789334,16.391999 119.946666,16.1413348 120.064,15.848 C120.181334,15.5546652 120.24,15.2320018 120.24,14.88 L120.24,13.952 Z" id="Banana" fill="#4A90E2"></path>
                    </g>
                </g>
            </g>
        </g>
    </g>
</svg>