<?xml version="1.0" encoding="UTF-8"?>
<svg width="295px" height="45px" viewBox="0 0 295 45" version="1.1" xmlns="http://www.w3.org/2000/svg" xmlns:xlink="http://www.w3.org/1999/xlink">
    <!-- Generator: Sketch 47 (45396) - http://www.bohemiancoding.com/sketch -->
    <title>InlineLabel</title>
    <desc>Created with Sketch.</desc>
    <defs></defs>
    <g id="Text-area" stroke="none" stroke-width="1" fill="none" fill-rule="evenodd">
        <g id="Text-area-Usage-extra-large-1200" transform="translate(-778.000000, -3265.000000)">
            <g id="Group-8" transform="translate(314.000000, 3203.000000)">
                <g id="InlineLabel" transform="translate(464.000000, 62.000000)">
                    <path d="M0.98,0.116 L3.962,0.116 C5.67000854,0.116 6.92532932,0.52899587 7.728,1.355 C8.53067068,2.18100413 8.932,3.41999174 8.932,5.072 C8.932,6.66800798 8.53067068,7.88832911 7.728,8.733 C6.92532932,9.57767089 5.72134136,10 4.116,10 L0.98,10 L0.98,0.116 Z M4.018,9.02 C4.69000336,9.02 5.25466438,8.92200098 5.712,8.726 C6.16933562,8.52999902 6.5379986,8.25700175 6.818,7.907 C7.0980014,7.55699825 7.29633275,7.13700245 7.413,6.647 C7.52966725,6.15699755 7.588,5.62266956 7.588,5.044 C7.588,4.4839972 7.52966725,3.96366907 7.413,3.483 C7.29633275,3.00233093 7.0980014,2.58466844 6.818,2.23 C6.5379986,1.87533156 6.16000238,1.59766767 5.684,1.397 C5.20799762,1.19633233 4.61067026,1.096 3.892,1.096 L2.24,1.096 L2.24,9.02 L4.018,9.02 Z M11.298,6.822 C11.3446669,7.6153373 11.5476649,8.22899783 11.907,8.663 C12.2663351,9.09700217 12.7679968,9.314 13.412,9.314 C14.2240041,9.314 14.8353313,8.93133716 15.246,8.166 L16.128,8.656 C15.857332,9.11333562 15.4980022,9.48666522 15.05,9.776 C14.6019978,10.0653348 14.0373367,10.21 13.356,10.21 C12.814664,10.21 12.341002,10.1166676 11.935,9.93 C11.528998,9.7433324 11.190668,9.4866683 10.92,9.16 C10.649332,8.8333317 10.446334,8.45066886 10.311,8.012 C10.175666,7.57333114 10.108,7.10200252 10.108,6.598 C10.108,6.10333086 10.1733327,5.63200224 10.304,5.184 C10.4346673,4.73599776 10.6329987,4.34400168 10.899,4.008 C11.1650013,3.67199832 11.4916647,3.40600098 11.879,3.21 C12.2663353,3.01399902 12.7213307,2.916 13.244,2.916 C13.7480025,2.916 14.1866648,3.01166571 14.56,3.203 C14.9333352,3.39433429 15.2436654,3.65099839 15.491,3.973 C15.7383346,4.29500161 15.9249994,4.66833121 16.051,5.093 C16.1770006,5.51766879 16.24,5.96799762 16.24,6.444 C16.24,6.54666718 16.2376667,6.62599972 16.233,6.682 C16.2283333,6.73800028 16.226,6.78466648 16.226,6.822 L11.298,6.822 Z M13.23,3.798 C12.6419971,3.798 12.1870016,4.0079979 11.865,4.428 C11.5429984,4.8480021 11.3586669,5.41266312 11.312,6.122 L15.05,6.122 C15.05,5.83266522 15.0173337,5.55033471 14.952,5.275 C14.8866663,4.99966529 14.7793341,4.75233443 14.63,4.533 C14.4806659,4.31366557 14.2916678,4.13633401 14.063,4.001 C13.8343322,3.86566599 13.5566683,3.798 13.23,3.798 Z M17.78,8.306 C18.0133345,8.60466816 18.3143315,8.85199902 18.683,9.048 C19.0516685,9.24400098 19.4553311,9.342 19.894,9.342 C20.286002,9.342 20.6266652,9.2486676 20.916,9.062 C21.2053348,8.8753324 21.35,8.5953352 21.35,8.222 C21.35,7.93266522 21.2543343,7.70633415 21.063,7.543 C20.8716657,7.37966585 20.6336681,7.24200056 20.349,7.13 C20.0643319,7.01799944 19.7540017,6.9153338 19.418,6.822 C19.0819983,6.7286662 18.7716681,6.60733408 18.487,6.458 C18.2023319,6.30866592 17.9643343,6.11266788 17.773,5.87 C17.5816657,5.62733212 17.486,5.2960021 17.486,4.876 C17.486,4.53066494 17.5559993,4.23433457 17.696,3.987 C17.8360007,3.73966543 18.0203322,3.53666746 18.249,3.378 C18.4776678,3.21933254 18.7413318,3.10266704 19.04,3.028 C19.3386682,2.95333296 19.6513317,2.916 19.978,2.916 C20.9486715,2.916 21.7559968,3.1959972 22.4,3.756 L21.812,4.54 C21.6066656,4.32533226 21.3336684,4.14566739 20.993,4.001 C20.6523316,3.85633261 20.3000018,3.784 19.936,3.784 C19.7773325,3.784 19.6210008,3.80266648 19.467,3.84 C19.3129992,3.87733352 19.1776672,3.93566627 19.061,4.015 C18.9443327,4.09433373 18.8510003,4.19466606 18.781,4.316 C18.7109996,4.43733394 18.676,4.58666578 18.676,4.764 C18.676,5.03466802 18.7716657,5.24466592 18.963,5.394 C19.1543343,5.54333408 19.3923319,5.67166613 19.677,5.779 C19.9616681,5.88633387 20.269665,5.98899951 20.601,6.087 C20.932335,6.18500049 21.2403319,6.31099923 21.525,6.465 C21.8096681,6.61900077 22.0476657,6.82199874 22.239,7.074 C22.4303343,7.32600126 22.526,7.6619979 22.526,8.082 C22.526,8.43666844 22.4536674,8.74699867 22.309,9.013 C22.1643326,9.27900133 21.9730012,9.50066578 21.735,9.678 C21.4969988,9.85533422 21.2216682,9.98833289 20.909,10.077 C20.5963318,10.1656671 20.2720017,10.21 19.936,10.21 C18.7786609,10.21 17.8593367,9.8366704 17.178,9.09 L17.78,8.306 Z M29.638,8.488 C29.3579986,9.0480028 28.9823357,9.47499853 28.511,9.769 C28.0396643,10.0630015 27.4680034,10.21 26.796,10.21 C26.2453306,10.21 25.767002,10.1143343 25.361,9.923 C24.954998,9.73166571 24.6190013,9.4726683 24.353,9.146 C24.0869987,8.8193317 23.8910006,8.43433555 23.765,7.991 C23.6389994,7.54766445 23.576,7.07400252 23.576,6.57 C23.576,6.0566641 23.643666,5.57833555 23.779,5.135 C23.914334,4.69166445 24.1149987,4.3066683 24.381,3.98 C24.6470013,3.6533317 24.9806647,3.39433429 25.382,3.203 C25.7833353,3.01166571 26.254664,2.916 26.796,2.916 C27.4773367,2.916 28.0443311,3.06766515 28.497,3.371 C28.9496689,3.67433485 29.3159986,4.10133058 29.596,4.652 L28.616,5.114 C28.2613316,4.25532904 27.6640042,3.826 26.824,3.826 C26.4693316,3.826 26.1636679,3.8959993 25.907,4.036 C25.650332,4.1760007 25.4403341,4.36733212 25.277,4.61 C25.1136658,4.85266788 24.9923337,5.13499839 24.913,5.457 C24.8336663,5.77900161 24.794,6.1266648 24.794,6.5 C24.794,6.85466844 24.831333,7.19999832 24.906,7.536 C24.980667,7.87200168 25.1019992,8.17066536 25.27,8.432 C25.4380008,8.69333464 25.6526654,8.90333254 25.914,9.062 C26.1753346,9.22066746 26.4973314,9.3 26.88,9.3 C27.3653358,9.3 27.7573318,9.17633457 28.056,8.929 C28.3546682,8.68166543 28.5833325,8.36200196 28.742,7.97 L29.638,8.488 Z M30.926,3.112 L31.934,3.112 L32.046,4.652 C32.242001,4.14799748 32.5546645,3.7326683 32.984,3.406 C33.4133355,3.0793317 33.9219971,2.916 34.51,2.916 L34.51,4.148 C34.3793327,4.11999986 34.2346675,4.106 34.076,4.106 C33.8426655,4.106 33.6093345,4.14799958 33.376,4.232 C33.1426655,4.31600042 32.9303343,4.4513324 32.739,4.638 C32.5476657,4.8246676 32.3913339,5.06499853 32.27,5.359 C32.1486661,5.65300147 32.088,6.0099979 32.088,6.43 L32.088,10 L30.926,10 L30.926,3.112 Z M35.658,0.438 L36.82,0.438 L36.82,1.6 L35.658,1.6 L35.658,0.438 Z M35.658,3.112 L36.82,3.112 L36.82,10 L35.658,10 L35.658,3.112 Z M38.612,3.112 L39.774,3.112 L39.774,4.442 C39.8580004,4.24599902 39.9653327,4.0546676 40.096,3.868 C40.2266673,3.6813324 40.3829991,3.5180007 40.565,3.378 C40.7470009,3.2379993 40.9593321,3.12600042 41.202,3.042 C41.4446679,2.95799958 41.7199985,2.916 42.028,2.916 C42.4760022,2.916 42.865665,3.0093324 43.197,3.196 C43.528335,3.3826676 43.8013323,3.6393317 44.016,3.966 C44.2306677,4.2926683 44.3916661,4.67299783 44.499,5.107 C44.6063339,5.54100217 44.66,6.00999748 44.66,6.514 C44.66,7.11133632 44.5900007,7.63866438 44.45,8.096 C44.3099993,8.55333562 44.1140013,8.93599846 43.862,9.244 C43.6099987,9.55200154 43.3160017,9.78533254 42.98,9.944 C42.6439983,10.1026675 42.280002,10.182 41.888,10.182 C41.3746641,10.182 40.9336685,10.0560013 40.565,9.804 C40.1963315,9.55199874 39.9326675,9.2393352 39.774,8.866 L39.774,12.422 L38.612,12.422 L38.612,3.112 Z M39.774,6.598 C39.774,6.79400098 39.7809999,6.97366585 39.795,7.137 C39.8090001,7.30033415 39.8253332,7.43799944 39.844,7.55 C39.8813335,7.77400112 39.9513328,7.98866564 40.054,8.194 C40.1566672,8.39933436 40.2826659,8.57899923 40.432,8.733 C40.5813341,8.88700077 40.7563323,9.0106662 40.957,9.104 C41.1576677,9.1973338 41.3793321,9.244 41.622,9.244 C41.9393349,9.244 42.2123322,9.16933408 42.441,9.02 C42.6696678,8.87066592 42.8586659,8.67000126 43.008,8.418 C43.1573341,8.16599874 43.2669997,7.87900161 43.337,7.557 C43.4070004,7.23499839 43.442,6.90133506 43.442,6.556 C43.442,6.21066494 43.4093337,5.87700161 43.344,5.555 C43.2786663,5.23299839 43.1736674,4.94833457 43.029,4.701 C42.8843326,4.45366543 42.6953345,4.25533408 42.462,4.106 C42.2286655,3.95666592 41.9486683,3.882 41.622,3.882 C41.3699987,3.882 41.1390011,3.9286662 40.929,4.022 C40.718999,4.1153338 40.5393341,4.24133254 40.39,4.4 C40.2406659,4.55866746 40.1170005,4.74066564 40.019,4.946 C39.9209995,5.15133436 39.8580001,5.36599888 39.83,5.59 C39.8113332,5.6833338 39.7973334,5.81166585 39.788,5.975 C39.7786666,6.13833415 39.774,6.32733226 39.774,6.542 L39.774,6.598 Z M46.746,3.91 L45.57,3.91 L45.57,3.112 L45.822,3.112 C46.1113348,3.112 46.3376659,3.08166697 46.501,3.021 C46.6643342,2.96033303 46.7879996,2.86700063 46.872,2.741 C46.9560004,2.61499937 47.0166665,2.44933436 47.054,2.244 C47.0913335,2.03866564 47.1239999,1.78666816 47.152,1.488 L47.18,1.236 L47.908,1.236 L47.908,3.112 L49.392,3.112 L49.392,3.91 L47.908,3.91 L47.908,8.194 C47.908,8.58600196 47.9663328,8.86833247 48.083,9.041 C48.1996673,9.21366753 48.4166651,9.3 48.734,9.3 C48.9860013,9.3 49.2193323,9.24400056 49.434,9.132 L49.56,9.972 C49.2053316,10.1306675 48.8133355,10.21 48.384,10.21 C48.0479983,10.21 47.7750011,10.1633338 47.565,10.07 C47.354999,9.9766662 47.1893339,9.85066746 47.068,9.692 C46.9466661,9.53333254 46.8626669,9.34200112 46.816,9.118 C46.7693331,8.89399888 46.746,8.65133464 46.746,8.39 L46.746,3.91 Z M50.792,0.438 L51.954,0.438 L51.954,1.6 L50.792,1.6 L50.792,0.438 Z M50.792,3.112 L51.954,3.112 L51.954,10 L50.792,10 L50.792,3.112 Z M56.602,10.21 C56.0793307,10.21 55.6196687,10.1143343 55.223,9.923 C54.8263314,9.73166571 54.4950013,9.47033499 54.229,9.139 C53.9629987,8.80766501 53.7646673,8.42033555 53.634,7.977 C53.5033327,7.53366445 53.438,7.0553359 53.438,6.542 C53.438,6.0286641 53.505666,5.55266886 53.641,5.114 C53.776334,4.67533114 53.9769987,4.2926683 54.243,3.966 C54.5090013,3.6393317 54.8403314,3.3826676 55.237,3.196 C55.6336687,3.0093324 56.0886641,2.916 56.602,2.916 C57.1153359,2.916 57.5703314,3.0093324 57.967,3.196 C58.3636687,3.3826676 58.697332,3.63699839 58.968,3.959 C59.238668,4.28100161 59.441666,4.66366445 59.577,5.107 C59.712334,5.55033555 59.78,6.0286641 59.78,6.542 C59.78,7.0553359 59.712334,7.53366445 59.577,7.977 C59.441666,8.42033555 59.238668,8.80766501 58.968,9.139 C58.697332,9.47033499 58.3636687,9.73166571 57.967,9.923 C57.5703314,10.1143343 57.1153359,10.21 56.602,10.21 Z M56.63,9.3 C56.9473349,9.3 57.2273321,9.2300007 57.47,9.09 C57.7126679,8.9499993 57.9133325,8.75633457 58.072,8.509 C58.2306675,8.26166543 58.3519996,7.97000168 58.436,7.634 C58.5200004,7.29799832 58.562,6.93400196 58.562,6.542 C58.562,6.14999804 58.5200004,5.78833499 58.436,5.457 C58.3519996,5.12566501 58.2260008,4.83866788 58.058,4.596 C57.8899992,4.35333212 57.6846679,4.16433401 57.442,4.029 C57.1993321,3.89366599 56.9193349,3.826 56.602,3.826 C56.2753317,3.826 55.9906679,3.89366599 55.748,4.029 C55.5053321,4.16433401 55.3046675,4.35333212 55.146,4.596 C54.9873325,4.83866788 54.8660004,5.12566501 54.782,5.457 C54.6979996,5.78833499 54.656,6.14999804 54.656,6.542 C54.656,6.93400196 54.6979996,7.29799832 54.782,7.634 C54.8660004,7.97000168 54.9896659,8.26166543 55.153,8.509 C55.3163342,8.75633457 55.5216654,8.9499993 55.769,9.09 C56.0163346,9.2300007 56.3033317,9.3 56.63,9.3 Z M61.264,3.112 L62.272,3.112 L62.398,4.484 C62.5753342,4.0639979 62.8576647,3.69766823 63.245,3.385 C63.6323353,3.07233177 64.1106638,2.916 64.68,2.916 C65.3986703,2.916 65.9283316,3.14466438 66.269,3.602 C66.6096684,4.05933562 66.78,4.69866256 66.78,5.52 L66.78,10 L65.618,10 L65.618,5.758 C65.618,5.13266354 65.4920013,4.67300147 65.24,4.379 C64.9879987,4.08499853 64.6473355,3.938 64.218,3.938 C63.7046641,3.938 63.2776684,4.1479979 62.937,4.568 C62.5963316,4.9880021 62.426,5.58066284 62.426,6.346 L62.426,10 L61.264,10 L61.264,3.112 Z" id="Description" fill="#4C5358"></path>
                    <path d="M174.244,43.146 C174.524001,42.9593324 174.838998,42.7353346 175.189,42.474 C175.539002,42.2126654 175.891332,41.9256682 176.246,41.613 C176.600668,41.3003318 176.943665,40.9690017 177.275,40.619 C177.606335,40.2689982 177.900332,39.9050019 178.157,39.527 C178.413668,39.1489981 178.621333,38.764002 178.78,38.372 C178.938667,37.979998 179.018,37.588002 179.018,37.196 C179.018,36.6453306 178.875668,36.1903351 178.591,35.831 C178.306332,35.4716649 177.87467,35.292 177.296,35.292 C176.773331,35.292 176.355668,35.4553317 176.043,35.782 C175.730332,36.1086683 175.522667,36.5146642 175.42,37 L174.314,36.734 C174.556668,35.9779962 174.929997,35.404002 175.434,35.012 C175.938003,34.619998 176.600663,34.424 177.422,34.424 C177.814002,34.424 178.184998,34.4799994 178.535,34.592 C178.885002,34.7040006 179.190665,34.8719989 179.452,35.096 C179.713335,35.3200011 179.918666,35.6023316 180.068,35.943 C180.217334,36.2836684 180.292,36.6826644 180.292,37.14 C180.292,37.7560031 180.140335,38.3509971 179.837,38.925 C179.533665,39.4990029 179.158002,40.0403308 178.71,40.549 C178.261998,41.0576692 177.776669,41.5243312 177.254,41.949 C176.731331,42.3736688 176.250669,42.7353318 175.812,43.034 L180.544,43.034 L180.544,44 L174.244,44 L174.244,43.146 Z M185.36,43.216 C185.789335,43.216 186.141665,43.0830013 186.417,42.817 C186.692335,42.5509987 186.906999,42.2196686 187.061,41.823 C187.215001,41.4263313 187.322333,41.0016689 187.383,40.549 C187.443667,40.0963311 187.474,39.6833352 187.474,39.31 C187.474,38.9459982 187.443667,38.5353356 187.383,38.078 C187.322333,37.6206644 187.215001,37.1936686 187.061,36.797 C186.906999,36.4003313 186.692335,36.066668 186.417,35.796 C186.141665,35.525332 185.789335,35.39 185.36,35.39 C184.939998,35.39 184.594668,35.518332 184.324,35.775 C184.053332,36.0316679 183.836334,36.3489981 183.673,36.727 C183.509666,37.1050019 183.397667,37.5133311 183.337,37.952 C183.276333,38.3906689 183.246,38.7966648 183.246,39.17 C183.246,39.5526686 183.271666,39.977331 183.323,40.444 C183.374334,40.910669 183.476999,41.3493313 183.631,41.76 C183.785001,42.1706687 183.999665,42.5159986 184.275,42.796 C184.550335,43.0760014 184.911998,43.216 185.36,43.216 Z M185.36,44.21 C184.743997,44.2006666 184.216669,44.0466682 183.778,43.748 C183.339331,43.4493318 182.984668,43.066669 182.714,42.6 C182.443332,42.133331 182.245001,41.6106696 182.119,41.032 C181.992999,40.4533304 181.93,39.8793362 181.93,39.31 C181.93,38.7406638 181.992999,38.1643362 182.119,37.581 C182.245001,36.9976637 182.445665,36.472669 182.721,36.006 C182.996335,35.539331 183.353331,35.1566682 183.792,34.858 C184.230669,34.5593318 184.76733,34.41 185.402,34.41 C186.027336,34.41 186.556998,34.5593318 186.991,34.858 C187.425002,35.1566682 187.774999,35.539331 188.041,36.006 C188.307001,36.472669 188.498333,36.9953304 188.615,37.574 C188.731667,38.1526696 188.79,38.7266638 188.79,39.296 C188.79,39.8560028 188.731667,40.4253304 188.615,41.004 C188.498333,41.5826696 188.307001,42.1076643 188.041,42.579 C187.774999,43.0503357 187.422669,43.4376651 186.984,43.741 C186.545331,44.0443348 186.004003,44.2006666 185.36,44.21 Z M193.34,43.216 C193.769335,43.216 194.121665,43.0830013 194.397,42.817 C194.672335,42.5509987 194.886999,42.2196686 195.041,41.823 C195.195001,41.4263313 195.302333,41.0016689 195.363,40.549 C195.423667,40.0963311 195.454,39.6833352 195.454,39.31 C195.454,38.9459982 195.423667,38.5353356 195.363,38.078 C195.302333,37.6206644 195.195001,37.1936686 195.041,36.797 C194.886999,36.4003313 194.672335,36.066668 194.397,35.796 C194.121665,35.525332 193.769335,35.39 193.34,35.39 C192.919998,35.39 192.574668,35.518332 192.304,35.775 C192.033332,36.0316679 191.816334,36.3489981 191.653,36.727 C191.489666,37.1050019 191.377667,37.5133311 191.317,37.952 C191.256333,38.3906689 191.226,38.7966648 191.226,39.17 C191.226,39.5526686 191.251666,39.977331 191.303,40.444 C191.354334,40.910669 191.456999,41.3493313 191.611,41.76 C191.765001,42.1706687 191.979665,42.5159986 192.255,42.796 C192.530335,43.0760014 192.891998,43.216 193.34,43.216 Z M193.34,44.21 C192.723997,44.2006666 192.196669,44.0466682 191.758,43.748 C191.319331,43.4493318 190.964668,43.066669 190.694,42.6 C190.423332,42.133331 190.225001,41.6106696 190.099,41.032 C189.972999,40.4533304 189.91,39.8793362 189.91,39.31 C189.91,38.7406638 189.972999,38.1643362 190.099,37.581 C190.225001,36.9976637 190.425665,36.472669 190.701,36.006 C190.976335,35.539331 191.333331,35.1566682 191.772,34.858 C192.210669,34.5593318 192.74733,34.41 193.382,34.41 C194.007336,34.41 194.536998,34.5593318 194.971,34.858 C195.405002,35.1566682 195.754999,35.539331 196.021,36.006 C196.287001,36.472669 196.478333,36.9953304 196.595,37.574 C196.711667,38.1526696 196.77,38.7266638 196.77,39.296 C196.77,39.8560028 196.711667,40.4253304 196.595,41.004 C196.478333,41.5826696 196.287001,42.1076643 196.021,42.579 C195.754999,43.0503357 195.402669,43.4376651 194.964,43.741 C194.525331,44.0443348 193.984003,44.2006666 193.34,44.21 Z M202.062,34.116 L203.084,34.116 L199.024,44 L197.974,44 L202.062,34.116 Z M204.554,43.146 C204.834001,42.9593324 205.148998,42.7353346 205.499,42.474 C205.849002,42.2126654 206.201332,41.9256682 206.556,41.613 C206.910668,41.3003318 207.253665,40.9690017 207.585,40.619 C207.916335,40.2689982 208.210332,39.9050019 208.467,39.527 C208.723668,39.1489981 208.931333,38.764002 209.09,38.372 C209.248667,37.979998 209.328,37.588002 209.328,37.196 C209.328,36.6453306 209.185668,36.1903351 208.901,35.831 C208.616332,35.4716649 208.18467,35.292 207.606,35.292 C207.083331,35.292 206.665668,35.4553317 206.353,35.782 C206.040332,36.1086683 205.832667,36.5146642 205.73,37 L204.624,36.734 C204.866668,35.9779962 205.239997,35.404002 205.744,35.012 C206.248003,34.619998 206.910663,34.424 207.732,34.424 C208.124002,34.424 208.494998,34.4799994 208.845,34.592 C209.195002,34.7040006 209.500665,34.8719989 209.762,35.096 C210.023335,35.3200011 210.228666,35.6023316 210.378,35.943 C210.527334,36.2836684 210.602,36.6826644 210.602,37.14 C210.602,37.7560031 210.450335,38.3509971 210.147,38.925 C209.843665,39.4990029 209.468002,40.0403308 209.02,40.549 C208.571998,41.0576692 208.086669,41.5243312 207.564,41.949 C207.041331,42.3736688 206.560669,42.7353318 206.122,43.034 L210.854,43.034 L210.854,44 L204.554,44 L204.554,43.146 Z M215.67,43.216 C216.099335,43.216 216.451665,43.0830013 216.727,42.817 C217.002335,42.5509987 217.216999,42.2196686 217.371,41.823 C217.525001,41.4263313 217.632333,41.0016689 217.693,40.549 C217.753667,40.0963311 217.784,39.6833352 217.784,39.31 C217.784,38.9459982 217.753667,38.5353356 217.693,38.078 C217.632333,37.6206644 217.525001,37.1936686 217.371,36.797 C217.216999,36.4003313 217.002335,36.066668 216.727,35.796 C216.451665,35.525332 216.099335,35.39 215.67,35.39 C215.249998,35.39 214.904668,35.518332 214.634,35.775 C214.363332,36.0316679 214.146334,36.3489981 213.983,36.727 C213.819666,37.1050019 213.707667,37.5133311 213.647,37.952 C213.586333,38.3906689 213.556,38.7966648 213.556,39.17 C213.556,39.5526686 213.581666,39.977331 213.633,40.444 C213.684334,40.910669 213.786999,41.3493313 213.941,41.76 C214.095001,42.1706687 214.309665,42.5159986 214.585,42.796 C214.860335,43.0760014 215.221998,43.216 215.67,43.216 Z M215.67,44.21 C215.053997,44.2006666 214.526669,44.0466682 214.088,43.748 C213.649331,43.4493318 213.294668,43.066669 213.024,42.6 C212.753332,42.133331 212.555001,41.6106696 212.429,41.032 C212.302999,40.4533304 212.24,39.8793362 212.24,39.31 C212.24,38.7406638 212.302999,38.1643362 212.429,37.581 C212.555001,36.9976637 212.755665,36.472669 213.031,36.006 C213.306335,35.539331 213.663331,35.1566682 214.102,34.858 C214.540669,34.5593318 215.07733,34.41 215.712,34.41 C216.337336,34.41 216.866998,34.5593318 217.301,34.858 C217.735002,35.1566682 218.084999,35.539331 218.351,36.006 C218.617001,36.472669 218.808333,36.9953304 218.925,37.574 C219.041667,38.1526696 219.1,38.7266638 219.1,39.296 C219.1,39.8560028 219.041667,40.4253304 218.925,41.004 C218.808333,41.5826696 218.617001,42.1076643 218.351,42.579 C218.084999,43.0503357 217.732669,43.4376651 217.294,43.741 C216.855331,44.0443348 216.314003,44.2006666 215.67,44.21 Z M223.65,43.216 C224.079335,43.216 224.431665,43.0830013 224.707,42.817 C224.982335,42.5509987 225.196999,42.2196686 225.351,41.823 C225.505001,41.4263313 225.612333,41.0016689 225.673,40.549 C225.733667,40.0963311 225.764,39.6833352 225.764,39.31 C225.764,38.9459982 225.733667,38.5353356 225.673,38.078 C225.612333,37.6206644 225.505001,37.1936686 225.351,36.797 C225.196999,36.4003313 224.982335,36.066668 224.707,35.796 C224.431665,35.525332 224.079335,35.39 223.65,35.39 C223.229998,35.39 222.884668,35.518332 222.614,35.775 C222.343332,36.0316679 222.126334,36.3489981 221.963,36.727 C221.799666,37.1050019 221.687667,37.5133311 221.627,37.952 C221.566333,38.3906689 221.536,38.7966648 221.536,39.17 C221.536,39.5526686 221.561666,39.977331 221.613,40.444 C221.664334,40.910669 221.766999,41.3493313 221.921,41.76 C222.075001,42.1706687 222.289665,42.5159986 222.565,42.796 C222.840335,43.0760014 223.201998,43.216 223.65,43.216 Z M223.65,44.21 C223.033997,44.2006666 222.506669,44.0466682 222.068,43.748 C221.629331,43.4493318 221.274668,43.066669 221.004,42.6 C220.733332,42.133331 220.535001,41.6106696 220.409,41.032 C220.282999,40.4533304 220.22,39.8793362 220.22,39.31 C220.22,38.7406638 220.282999,38.1643362 220.409,37.581 C220.535001,36.9976637 220.735665,36.472669 221.011,36.006 C221.286335,35.539331 221.643331,35.1566682 222.082,34.858 C222.520669,34.5593318 223.05733,34.41 223.692,34.41 C224.317336,34.41 224.846998,34.5593318 225.281,34.858 C225.715002,35.1566682 226.064999,35.539331 226.331,36.006 C226.597001,36.472669 226.788333,36.9953304 226.905,37.574 C227.021667,38.1526696 227.08,38.7266638 227.08,39.296 C227.08,39.8560028 227.021667,40.4253304 226.905,41.004 C226.788333,41.5826696 226.597001,42.1076643 226.331,42.579 C226.064999,43.0503357 225.712669,43.4376651 225.274,43.741 C224.835331,44.0443348 224.294003,44.2006666 223.65,44.21 Z M237.454,42.488 C237.173999,43.0480028 236.798336,43.4749985 236.327,43.769 C235.855664,44.0630015 235.284003,44.21 234.612,44.21 C234.061331,44.21 233.583002,44.1143343 233.177,43.923 C232.770998,43.7316657 232.435001,43.4726683 232.169,43.146 C231.902999,42.8193317 231.707001,42.4343355 231.581,41.991 C231.454999,41.5476644 231.392,41.0740025 231.392,40.57 C231.392,40.0566641 231.459666,39.5783355 231.595,39.135 C231.730334,38.6916644 231.930999,38.3066683 232.197,37.98 C232.463001,37.6533317 232.796665,37.3943343 233.198,37.203 C233.599335,37.0116657 234.070664,36.916 234.612,36.916 C235.293337,36.916 235.860331,37.0676651 236.313,37.371 C236.765669,37.6743348 237.131999,38.1013306 237.412,38.652 L236.432,39.114 C236.077332,38.255329 235.480004,37.826 234.64,37.826 C234.285332,37.826 233.979668,37.8959993 233.723,38.036 C233.466332,38.1760007 233.256334,38.3673321 233.093,38.61 C232.929666,38.8526679 232.808334,39.1349984 232.729,39.457 C232.649666,39.7790016 232.61,40.1266648 232.61,40.5 C232.61,40.8546684 232.647333,41.1999983 232.722,41.536 C232.796667,41.8720017 232.917999,42.1706654 233.086,42.432 C233.254001,42.6933346 233.468665,42.9033325 233.73,43.062 C233.991335,43.2206675 234.313331,43.3 234.696,43.3 C235.181336,43.3 235.573332,43.1763346 235.872,42.929 C236.170668,42.6816654 236.399333,42.362002 236.558,41.97 L237.454,42.488 Z M238.742,34.116 L239.904,34.116 L239.904,38.47 C239.988,38.2646656 240.095333,38.0686676 240.226,37.882 C240.356667,37.6953324 240.515332,37.5296674 240.702,37.385 C240.888668,37.2403326 241.103332,37.1260004 241.346,37.042 C241.588668,36.9579996 241.859332,36.916 242.158,36.916 C242.87667,36.916 243.406332,37.1516643 243.747,37.623 C244.087668,38.0943357 244.258,38.7313293 244.258,39.534 L244.258,44 L243.096,44 L243.096,39.716 C243.096,39.1279971 242.974668,38.6870015 242.732,38.393 C242.489332,38.0989985 242.144002,37.952 241.696,37.952 C241.434665,37.952 241.194334,38.0079994 240.975,38.12 C240.755666,38.2320006 240.566667,38.3906656 240.408,38.596 C240.249333,38.8013344 240.125667,39.0486652 240.037,39.338 C239.948333,39.6273348 239.904,39.9446649 239.904,40.29 L239.904,44 L238.742,44 L238.742,34.116 Z M250.348,44 C250.245333,43.6639983 250.184667,43.262669 250.166,42.796 C249.979332,43.2253355 249.692335,43.568332 249.305,43.825 C248.917665,44.0816679 248.458003,44.21 247.926,44.21 C247.253997,44.21 246.722002,44.0186686 246.33,43.636 C245.937998,43.2533314 245.742,42.7400032 245.742,42.096 C245.742,41.7319982 245.807333,41.4263346 245.938,41.179 C246.068667,40.9316654 246.250665,40.7263341 246.484,40.563 C246.717334,40.3996658 246.992665,40.2713338 247.31,40.178 C247.627335,40.0846662 247.972665,40.0100003 248.346,39.954 L250.11,39.688 L250.11,39.254 C250.11,38.9459985 250.072667,38.6986676 249.998,38.512 C249.923333,38.3253324 249.820667,38.1806672 249.69,38.078 C249.559333,37.9753328 249.410001,37.9076668 249.242,37.875 C249.073999,37.8423332 248.896668,37.826 248.71,37.826 C248.177997,37.826 247.739335,37.923999 247.394,38.12 C247.048665,38.316001 246.759334,38.5633318 246.526,38.862 L245.924,38.106 C246.194668,37.7793317 246.570331,37.4993345 247.051,37.266 C247.531669,37.0326655 248.126663,36.916 248.836,36.916 C249.694671,36.916 250.317665,37.1073314 250.705,37.49 C251.092335,37.8726686 251.286,38.4886624 251.286,39.338 L251.286,42.124 C251.286,42.3480011 251.288333,42.5439992 251.293,42.712 C251.297667,42.8800008 251.307,43.0363326 251.321,43.181 C251.335,43.3256674 251.356,43.4633327 251.384,43.594 C251.412,43.7246673 251.449333,43.8599993 251.496,44 L250.348,44 Z M250.11,40.458 L248.458,40.724 C247.888664,40.8266672 247.485001,40.9806656 247.247,41.186 C247.008999,41.3913344 246.89,41.6759982 246.89,42.04 C246.89,42.4133352 246.999666,42.7259987 247.219,42.978 C247.438334,43.2300013 247.762665,43.356 248.192,43.356 C248.453335,43.356 248.700665,43.3046672 248.934,43.202 C249.167334,43.0993328 249.370332,42.9570009 249.543,42.775 C249.715668,42.5929991 249.853333,42.3736679 249.956,42.117 C250.058667,41.860332 250.11,41.5780015 250.11,41.27 L250.11,40.458 Z M253.148,37.112 L254.156,37.112 L254.268,38.652 C254.464001,38.1479975 254.776665,37.7326683 255.206,37.406 C255.635335,37.0793317 256.143997,36.916 256.732,36.916 L256.732,38.148 C256.601333,38.1199999 256.456667,38.106 256.298,38.106 C256.064665,38.106 255.831334,38.1479996 255.598,38.232 C255.364666,38.3160004 255.152334,38.4513324 254.961,38.638 C254.769666,38.8246676 254.613334,39.0649985 254.492,39.359 C254.370666,39.6530015 254.31,40.0099979 254.31,40.43 L254.31,44 L253.148,44 L253.148,37.112 Z M262.206,44 C262.103333,43.6639983 262.042667,43.262669 262.024,42.796 C261.837332,43.2253355 261.550335,43.568332 261.163,43.825 C260.775665,44.0816679 260.316003,44.21 259.784,44.21 C259.111997,44.21 258.580002,44.0186686 258.188,43.636 C257.795998,43.2533314 257.6,42.7400032 257.6,42.096 C257.6,41.7319982 257.665333,41.4263346 257.796,41.179 C257.926667,40.9316654 258.108666,40.7263341 258.342,40.563 C258.575334,40.3996658 258.850665,40.2713338 259.168,40.178 C259.485335,40.0846662 259.830665,40.0100003 260.204,39.954 L261.968,39.688 L261.968,39.254 C261.968,38.9459985 261.930667,38.6986676 261.856,38.512 C261.781333,38.3253324 261.678667,38.1806672 261.548,38.078 C261.417333,37.9753328 261.268001,37.9076668 261.1,37.875 C260.931999,37.8423332 260.754668,37.826 260.568,37.826 C260.035997,37.826 259.597335,37.923999 259.252,38.12 C258.906665,38.316001 258.617334,38.5633318 258.384,38.862 L257.782,38.106 C258.052668,37.7793317 258.428331,37.4993345 258.909,37.266 C259.389669,37.0326655 259.984663,36.916 260.694,36.916 C261.552671,36.916 262.175665,37.1073314 262.563,37.49 C262.950335,37.8726686 263.144,38.4886624 263.144,39.338 L263.144,42.124 C263.144,42.3480011 263.146333,42.5439992 263.151,42.712 C263.155667,42.8800008 263.165,43.0363326 263.179,43.181 C263.193,43.3256674 263.214,43.4633327 263.242,43.594 C263.27,43.7246673 263.307333,43.8599993 263.354,44 L262.206,44 Z M261.968,40.458 L260.316,40.724 C259.746664,40.8266672 259.343001,40.9806656 259.105,41.186 C258.866999,41.3913344 258.748,41.6759982 258.748,42.04 C258.748,42.4133352 258.857666,42.7259987 259.077,42.978 C259.296334,43.2300013 259.620665,43.356 260.05,43.356 C260.311335,43.356 260.558665,43.3046672 260.792,43.202 C261.025334,43.0993328 261.228332,42.9570009 261.401,42.775 C261.573668,42.5929991 261.711333,42.3736679 261.814,42.117 C261.916667,41.860332 261.968,41.5780015 261.968,41.27 L261.968,40.458 Z M270.76,42.488 C270.479999,43.0480028 270.104336,43.4749985 269.633,43.769 C269.161664,44.0630015 268.590003,44.21 267.918,44.21 C267.367331,44.21 266.889002,44.1143343 266.483,43.923 C266.076998,43.7316657 265.741001,43.4726683 265.475,43.146 C265.208999,42.8193317 265.013001,42.4343355 264.887,41.991 C264.760999,41.5476644 264.698,41.0740025 264.698,40.57 C264.698,40.0566641 264.765666,39.5783355 264.901,39.135 C265.036334,38.6916644 265.236999,38.3066683 265.503,37.98 C265.769001,37.6533317 266.102665,37.3943343 266.504,37.203 C266.905335,37.0116657 267.376664,36.916 267.918,36.916 C268.599337,36.916 269.166331,37.0676651 269.619,37.371 C270.071669,37.6743348 270.437999,38.1013306 270.718,38.652 L269.738,39.114 C269.383332,38.255329 268.786004,37.826 267.946,37.826 C267.591332,37.826 267.285668,37.8959993 267.029,38.036 C266.772332,38.1760007 266.562334,38.3673321 266.399,38.61 C266.235666,38.8526679 266.114334,39.1349984 266.035,39.457 C265.955666,39.7790016 265.916,40.1266648 265.916,40.5 C265.916,40.8546684 265.953333,41.1999983 266.028,41.536 C266.102667,41.8720017 266.223999,42.1706654 266.392,42.432 C266.560001,42.6933346 266.774665,42.9033325 267.036,43.062 C267.297335,43.2206675 267.619331,43.3 268.002,43.3 C268.487336,43.3 268.879332,43.1763346 269.178,42.929 C269.476668,42.6816654 269.705333,42.362002 269.864,41.97 L270.76,42.488 Z M272.65,37.91 L271.474,37.91 L271.474,37.112 L271.726,37.112 C272.015335,37.112 272.241666,37.081667 272.405,37.021 C272.568334,36.960333 272.692,36.8670006 272.776,36.741 C272.86,36.6149994 272.920666,36.4493344 272.958,36.244 C272.995334,36.0386656 273.028,35.7866682 273.056,35.488 L273.084,35.236 L273.812,35.236 L273.812,37.112 L275.296,37.112 L275.296,37.91 L273.812,37.91 L273.812,42.194 C273.812,42.586002 273.870333,42.8683325 273.987,43.041 C274.103667,43.2136675 274.320665,43.3 274.638,43.3 C274.890001,43.3 275.123332,43.2440006 275.338,43.132 L275.464,43.972 C275.109332,44.1306675 274.717335,44.21 274.288,44.21 C273.951998,44.21 273.679001,44.1633338 273.469,44.07 C273.258999,43.9766662 273.093334,43.8506675 272.972,43.692 C272.850666,43.5333325 272.766667,43.3420011 272.72,43.118 C272.673333,42.8939989 272.65,42.6513346 272.65,42.39 L272.65,37.91 Z M277.578,40.822 C277.624667,41.6153373 277.827665,42.2289978 278.187,42.663 C278.546335,43.0970022 279.047997,43.314 279.692,43.314 C280.504004,43.314 281.115331,42.9313372 281.526,42.166 L282.408,42.656 C282.137332,43.1133356 281.778002,43.4866652 281.33,43.776 C280.881998,44.0653348 280.317337,44.21 279.636,44.21 C279.094664,44.21 278.621002,44.1166676 278.215,43.93 C277.808998,43.7433324 277.470668,43.4866683 277.2,43.16 C276.929332,42.8333317 276.726334,42.4506689 276.591,42.012 C276.455666,41.5733311 276.388,41.1020025 276.388,40.598 C276.388,40.1033309 276.453333,39.6320022 276.584,39.184 C276.714667,38.7359978 276.912999,38.3440017 277.179,38.008 C277.445001,37.6719983 277.771665,37.406001 278.159,37.21 C278.546335,37.013999 279.001331,36.916 279.524,36.916 C280.028003,36.916 280.466665,37.0116657 280.84,37.203 C281.213335,37.3943343 281.523665,37.6509984 281.771,37.973 C282.018335,38.2950016 282.204999,38.6683312 282.331,39.093 C282.457001,39.5176688 282.52,39.9679976 282.52,40.444 C282.52,40.5466672 282.517667,40.6259997 282.513,40.682 C282.508333,40.7380003 282.506,40.7846665 282.506,40.822 L277.578,40.822 Z M279.51,37.798 C278.921997,37.798 278.467002,38.0079979 278.145,38.428 C277.822998,38.8480021 277.638667,39.4126631 277.592,40.122 L281.33,40.122 C281.33,39.8326652 281.297334,39.5503347 281.232,39.275 C281.166666,38.9996653 281.059334,38.7523344 280.91,38.533 C280.760666,38.3136656 280.571668,38.136334 280.343,38.001 C280.114332,37.865666 279.836668,37.798 279.51,37.798 Z M283.934,37.112 L284.942,37.112 L285.054,38.652 C285.250001,38.1479975 285.562665,37.7326683 285.992,37.406 C286.421335,37.0793317 286.929997,36.916 287.518,36.916 L287.518,38.148 C287.387333,38.1199999 287.242667,38.106 287.084,38.106 C286.850665,38.106 286.617334,38.1479996 286.384,38.232 C286.150666,38.3160004 285.938334,38.4513324 285.747,38.638 C285.555666,38.8246676 285.399334,39.0649985 285.278,39.359 C285.156666,39.6530015 285.096,40.0099979 285.096,40.43 L285.096,44 L283.934,44 L283.934,37.112 Z M288.792,42.306 C289.025334,42.6046682 289.326331,42.851999 289.695,43.048 C290.063669,43.244001 290.467331,43.342 290.906,43.342 C291.298002,43.342 291.638665,43.2486676 291.928,43.062 C292.217335,42.8753324 292.362,42.5953352 292.362,42.222 C292.362,41.9326652 292.266334,41.7063341 292.075,41.543 C291.883666,41.3796658 291.645668,41.2420006 291.361,41.13 C291.076332,41.0179994 290.766002,40.9153338 290.43,40.822 C290.093998,40.7286662 289.783668,40.6073341 289.499,40.458 C289.214332,40.3086659 288.976334,40.1126679 288.785,39.87 C288.593666,39.6273321 288.498,39.2960021 288.498,38.876 C288.498,38.5306649 288.567999,38.2343346 288.708,37.987 C288.848001,37.7396654 289.032332,37.5366675 289.261,37.378 C289.489668,37.2193325 289.753332,37.102667 290.052,37.028 C290.350668,36.953333 290.663332,36.916 290.99,36.916 C291.960672,36.916 292.767997,37.1959972 293.412,37.756 L292.824,38.54 C292.618666,38.3253323 292.345668,38.1456674 292.005,38.001 C291.664332,37.8563326 291.312002,37.784 290.948,37.784 C290.789333,37.784 290.633001,37.8026665 290.479,37.84 C290.324999,37.8773335 290.189667,37.9356663 290.073,38.015 C289.956333,38.0943337 289.863,38.1946661 289.793,38.316 C289.723,38.4373339 289.688,38.5866658 289.688,38.764 C289.688,39.034668 289.783666,39.2446659 289.975,39.394 C290.166334,39.5433341 290.404332,39.6716661 290.689,39.779 C290.973668,39.8863339 291.281665,39.9889995 291.613,40.087 C291.944335,40.1850005 292.252332,40.3109992 292.537,40.465 C292.821668,40.6190008 293.059666,40.8219987 293.251,41.074 C293.442334,41.3260013 293.538,41.6619979 293.538,42.082 C293.538,42.4366684 293.465667,42.7469987 293.321,43.013 C293.176333,43.2790013 292.985001,43.5006658 292.747,43.678 C292.508999,43.8553342 292.233668,43.9883329 291.921,44.077 C291.608332,44.1656671 291.284002,44.21 290.948,44.21 C289.790661,44.21 288.871337,43.8366704 288.19,43.09 L288.792,42.306 Z" id="200/200-characters" fill="#4C5358"></path>
                    <path d="M84,22.5 L294,22.5" id="Line" stroke="#7C878E" stroke-linecap="square"></path>
                    <path d="M85.52,9.392 C85.8506683,9.88266912 86.2986638,10.2799985 86.864,10.584 C87.4293362,10.8880015 88.0959962,11.04 88.864,11.04 C89.2266685,11.04 89.5653318,10.9920005 89.88,10.896 C90.1946682,10.7999995 90.4666655,10.6613342 90.696,10.48 C90.9253345,10.2986658 91.1039994,10.0773346 91.232,9.816 C91.3600006,9.55466536 91.424,9.2640016 91.424,8.944 C91.424,8.61333168 91.3466674,8.33600112 91.192,8.112 C91.0373326,7.88799888 90.826668,7.69866744 90.56,7.544 C90.293332,7.38933256 89.9760018,7.25333392 89.608,7.136 C89.2399982,7.01866608 88.8426688,6.90133392 88.416,6.784 C87.9359976,6.64533264 87.4906687,6.49066752 87.08,6.32 C86.6693313,6.14933248 86.3146682,5.93866792 86.016,5.688 C85.7173318,5.43733208 85.4826675,5.14400168 85.312,4.808 C85.1413325,4.47199832 85.056,4.06933568 85.056,3.6 C85.056,3.1199976 85.1493324,2.68800192 85.336,2.304 C85.5226676,1.91999808 85.786665,1.59200136 86.128,1.32 C86.469335,1.04799864 86.8719977,0.83733408 87.336,0.688 C87.8000023,0.53866592 88.3146638,0.464 88.88,0.464 C89.6586706,0.464 90.3786634,0.59466536 91.04,0.856 C91.7013366,1.11733464 92.2666643,1.50399744 92.736,2.016 L91.76,2.928 C91.418665,2.5546648 91.0000025,2.25066784 90.504,2.016 C90.0079975,1.78133216 89.4613363,1.664 88.864,1.664 C88.1813299,1.664 87.6240022,1.8106652 87.192,2.104 C86.7599978,2.3973348 86.544,2.84266368 86.544,3.44 C86.544,3.73866816 86.610666,3.9946656 86.744,4.208 C86.877334,4.4213344 87.0639988,4.6079992 87.304,4.768 C87.5440012,4.9280008 87.826665,5.06933272 88.152,5.192 C88.477335,5.31466728 88.8373314,5.4293328 89.232,5.536 C89.8186696,5.6960008 90.341331,5.8693324 90.8,6.056 C91.258669,6.2426676 91.6426651,6.46399872 91.952,6.72 C92.2613349,6.97600128 92.4959992,7.27199832 92.656,7.608 C92.8160008,7.94400168 92.896,8.33599776 92.896,8.784 C92.896,9.32800272 92.7893344,9.81599784 92.576,10.248 C92.3626656,10.6800022 92.0720018,11.0426652 91.704,11.336 C91.3359982,11.6293348 90.9040025,11.8533326 90.408,12.008 C89.9119975,12.1626674 89.3866694,12.24 88.832,12.24 C87.8079949,12.24 86.9440035,12.077335 86.24,11.752 C85.5359965,11.426665 84.9706688,10.960003 84.544,10.352 L85.52,9.392 Z M97.824,12.24 C97.2266637,12.24 96.7013356,12.1306678 96.248,11.912 C95.7946644,11.6933322 95.4160015,11.3946686 95.112,11.016 C94.8079985,10.6373314 94.5813341,10.1946692 94.432,9.688 C94.2826659,9.1813308 94.208,8.6346696 94.208,8.048 C94.208,7.4613304 94.2853326,6.91733584 94.44,6.416 C94.5946674,5.91466416 94.8239985,5.4773352 95.128,5.104 C95.4320015,4.7306648 95.8106644,4.4373344 96.264,4.224 C96.7173356,4.0106656 97.2373304,3.904 97.824,3.904 C98.4106696,3.904 98.9306644,4.0106656 99.384,4.224 C99.8373356,4.4373344 100.218665,4.72799816 100.528,5.096 C100.837335,5.46400184 101.069333,5.9013308 101.224,6.408 C101.378667,6.9146692 101.456,7.4613304 101.456,8.048 C101.456,8.6346696 101.378667,9.1813308 101.224,9.688 C101.069333,10.1946692 100.837335,10.6373314 100.528,11.016 C100.218665,11.3946686 99.8373356,11.6933322 99.384,11.912 C98.9306644,12.1306678 98.4106696,12.24 97.824,12.24 Z M97.856,11.2 C98.2186685,11.2 98.5386653,11.1200008 98.816,10.96 C99.0933347,10.7999992 99.3226658,10.5786681 99.504,10.296 C99.6853342,10.0133319 99.8239995,9.68000192 99.92,9.296 C100.016,8.91199808 100.064,8.49600224 100.064,8.048 C100.064,7.59999776 100.016,7.18666856 99.92,6.808 C99.8239995,6.42933144 99.680001,6.10133472 99.488,5.824 C99.295999,5.54666528 99.0613347,5.33066744 98.784,5.176 C98.5066653,5.02133256 98.1866685,4.944 97.824,4.944 C97.4506648,4.944 97.1253347,5.02133256 96.848,5.176 C96.5706653,5.33066744 96.3413342,5.54666528 96.16,5.824 C95.9786658,6.10133472 95.8400005,6.42933144 95.744,6.808 C95.6479995,7.18666856 95.6,7.59999776 95.6,8.048 C95.6,8.49600224 95.6479995,8.91199808 95.744,9.296 C95.8400005,9.68000192 95.9813324,10.0133319 96.168,10.296 C96.3546676,10.5786681 96.5893319,10.7999992 96.872,10.96 C97.1546681,11.1200008 97.4826648,11.2 97.856,11.2 Z M103.152,4.128 L104.304,4.128 L104.448,5.664 C104.640001,5.11999728 104.938665,4.69066824 105.344,4.376 C105.749335,4.06133176 106.24533,3.904 106.832,3.904 C107.45067,3.904 107.935998,4.07999824 108.288,4.432 C108.640002,4.78400176 108.864,5.21066416 108.96,5.712 C109.056,5.46666544 109.175999,5.23466776 109.32,5.016 C109.464001,4.79733224 109.637332,4.60533416 109.84,4.44 C110.042668,4.27466584 110.277332,4.14400048 110.544,4.048 C110.810668,3.95199952 111.114665,3.904 111.456,3.904 C111.904002,3.904 112.274665,3.98133256 112.568,4.136 C112.861335,4.29066744 113.095999,4.501332 113.272,4.768 C113.448001,5.034668 113.573333,5.34666488 113.648,5.704 C113.722667,6.06133512 113.76,6.43733136 113.76,6.832 L113.76,12 L112.432,12 L112.432,7.168 C112.432,6.46399648 112.306668,5.9386684 112.056,5.592 C111.805332,5.2453316 111.440002,5.072 110.96,5.072 C110.437331,5.072 110.000002,5.30399768 109.648,5.768 C109.295998,6.23200232 109.12,6.89599568 109.12,7.76 L109.12,12 L107.792,12 L107.792,7.232 C107.792,6.49599632 107.664001,5.95200176 107.408,5.6 C107.151999,5.24799824 106.794669,5.072 106.336,5.072 C105.823997,5.072 105.386668,5.30933096 105.024,5.784 C104.661332,6.25866904 104.48,6.94399552 104.48,7.84 L104.48,12 L103.152,12 L103.152,4.128 Z M116.784,8.368 C116.837334,9.2746712 117.069331,9.97599752 117.48,10.472 C117.890669,10.9680025 118.463996,11.216 119.2,11.216 C120.128005,11.216 120.826664,10.778671 121.296,9.904 L122.304,10.464 C121.994665,10.9866693 121.584003,11.4133317 121.072,11.744 C120.559997,12.0746683 119.914671,12.24 119.136,12.24 C118.51733,12.24 117.976002,12.1333344 117.512,11.92 C117.047998,11.7066656 116.661335,11.4133352 116.352,11.04 C116.042665,10.6666648 115.810667,10.2293358 115.656,9.728 C115.501333,9.22666416 115.424,8.68800288 115.424,8.112 C115.424,7.54666384 115.498666,7.00800256 115.648,6.496 C115.797334,5.98399744 116.023998,5.53600192 116.328,5.152 C116.632002,4.76799808 117.005331,4.46400112 117.448,4.24 C117.890669,4.01599888 118.410664,3.904 119.008,3.904 C119.584003,3.904 120.085331,4.01333224 120.512,4.232 C120.938669,4.45066776 121.293332,4.74399816 121.576,5.112 C121.858668,5.48000184 122.071999,5.90666424 122.216,6.392 C122.360001,6.87733576 122.432,7.39199728 122.432,7.936 C122.432,8.05333392 122.429333,8.14399968 122.424,8.208 C122.418667,8.27200032 122.416,8.32533312 122.416,8.368 L116.784,8.368 Z M118.992,4.912 C118.319997,4.912 117.800002,5.1519976 117.432,5.632 C117.063998,6.1120024 116.853334,6.75732928 116.8,7.568 L121.072,7.568 C121.072,7.23733168 121.034667,6.91466824 120.96,6.6 C120.885333,6.28533176 120.762668,6.00266792 120.592,5.752 C120.421332,5.50133208 120.205335,5.29866744 119.944,5.144 C119.682665,4.98933256 119.365335,4.912 118.992,4.912 Z M128.336,5.04 L126.992,5.04 L126.992,4.128 L127.28,4.128 C127.610668,4.128 127.869332,4.09333368 128.056,4.024 C128.242668,3.95466632 128.384,3.84800072 128.48,3.704 C128.576,3.55999928 128.645333,3.37066784 128.688,3.136 C128.730667,2.90133216 128.768,2.61333504 128.8,2.272 L128.832,1.984 L129.664,1.984 L129.664,4.128 L131.36,4.128 L131.36,5.04 L129.664,5.04 L129.664,9.936 C129.664,10.3840022 129.730666,10.7066657 129.864,10.904 C129.997334,11.1013343 130.245332,11.2 130.608,11.2 C130.896001,11.2 131.162665,11.1360006 131.408,11.008 L131.552,11.968 C131.146665,12.1493342 130.698669,12.24 130.208,12.24 C129.823998,12.24 129.512001,12.1866672 129.272,12.08 C129.031999,11.9733328 128.842667,11.8293342 128.704,11.648 C128.565333,11.4666658 128.469334,11.2480013 128.416,10.992 C128.362666,10.7359987 128.336,10.4586682 128.336,10.16 L128.336,5.04 Z M132.784,13.68 C132.901334,13.7226669 133.034666,13.7599998 133.184,13.792 C133.333334,13.8240002 133.487999,13.84 133.648,13.84 C133.818668,13.84 133.965333,13.8160002 134.088,13.768 C134.210667,13.7199998 134.322666,13.6320006 134.424,13.504 C134.525334,13.3759994 134.621333,13.2053344 134.712,12.992 C134.802667,12.7786656 134.901333,12.501335 135.008,12.16 L132.336,4.128 L133.776,4.128 L135.696,10.64 L137.6,4.128 L139.04,4.128 L136.624,11.376 C136.421332,11.9946698 136.237334,12.5226645 136.072,12.96 C135.906666,13.3973355 135.722668,13.7573319 135.52,14.04 C135.317332,14.3226681 135.069335,14.530666 134.776,14.664 C134.482665,14.797334 134.106669,14.864 133.648,14.864 C133.466666,14.864 133.272001,14.8560001 133.064,14.84 C132.855999,14.8239999 132.693334,14.7946669 132.576,14.752 L132.784,13.68 Z M140.48,4.128 L141.808,4.128 L141.808,5.648 C141.904,5.42399888 142.026666,5.2053344 142.176,4.992 C142.325334,4.7786656 142.503999,4.5920008 142.712,4.432 C142.920001,4.2719992 143.162665,4.14400048 143.44,4.048 C143.717335,3.95199952 144.031998,3.904 144.384,3.904 C144.896003,3.904 145.341331,4.0106656 145.72,4.224 C146.098669,4.4373344 146.410665,4.7306648 146.656,5.104 C146.901335,5.4773352 147.085333,5.91199752 147.208,6.408 C147.330667,6.90400248 147.392,7.43999712 147.392,8.016 C147.392,8.69867008 147.312001,9.30133072 147.152,9.824 C146.991999,10.3466693 146.768001,10.7839982 146.48,11.136 C146.191999,11.4880018 145.856002,11.7546658 145.472,11.936 C145.087998,12.1173342 144.672002,12.208 144.224,12.208 C143.63733,12.208 143.133335,12.0640014 142.712,11.776 C142.290665,11.4879986 141.989334,11.1306688 141.808,10.704 L141.808,14.768 L140.48,14.768 L140.48,4.128 Z M141.808,8.112 C141.808,8.33600112 141.816,8.5413324 141.832,8.728 C141.848,8.9146676 141.866667,9.07199936 141.888,9.2 C141.930667,9.45600128 142.010666,9.70133216 142.128,9.936 C142.245334,10.1706678 142.389332,10.3759991 142.56,10.552 C142.730668,10.7280009 142.930666,10.8693328 143.16,10.976 C143.389334,11.0826672 143.642665,11.136 143.92,11.136 C144.282668,11.136 144.594665,11.0506675 144.856,10.88 C145.117335,10.7093325 145.333332,10.4800014 145.504,10.192 C145.674668,9.90399856 145.8,9.57600184 145.88,9.208 C145.96,8.83999816 146,8.45866864 146,8.064 C146,7.66933136 145.962667,7.28800184 145.888,6.92 C145.813333,6.55199816 145.693334,6.22666808 145.528,5.944 C145.362666,5.66133192 145.146668,5.43466752 144.88,5.264 C144.613332,5.09333248 144.293335,5.008 143.92,5.008 C143.631999,5.008 143.368001,5.0613328 143.128,5.168 C142.887999,5.2746672 142.682668,5.41866576 142.512,5.6 C142.341332,5.78133424 142.200001,5.98933216 142.088,6.224 C141.975999,6.45866784 141.904,6.70399872 141.872,6.96 C141.850667,7.0666672 141.834667,7.2133324 141.824,7.4 C141.813333,7.5866676 141.808,7.80266544 141.808,8.048 L141.808,8.112 Z M150.096,8.368 C150.149334,9.2746712 150.381331,9.97599752 150.792,10.472 C151.202669,10.9680025 151.775996,11.216 152.512,11.216 C153.440005,11.216 154.138664,10.778671 154.608,9.904 L155.616,10.464 C155.306665,10.9866693 154.896003,11.4133317 154.384,11.744 C153.871997,12.0746683 153.226671,12.24 152.448,12.24 C151.82933,12.24 151.288002,12.1333344 150.824,11.92 C150.359998,11.7066656 149.973335,11.4133352 149.664,11.04 C149.354665,10.6666648 149.122667,10.2293358 148.968,9.728 C148.813333,9.22666416 148.736,8.68800288 148.736,8.112 C148.736,7.54666384 148.810666,7.00800256 148.96,6.496 C149.109334,5.98399744 149.335998,5.53600192 149.64,5.152 C149.944002,4.76799808 150.317331,4.46400112 150.76,4.24 C151.202669,4.01599888 151.722664,3.904 152.32,3.904 C152.896003,3.904 153.397331,4.01333224 153.824,4.232 C154.250669,4.45066776 154.605332,4.74399816 154.888,5.112 C155.170668,5.48000184 155.383999,5.90666424 155.528,6.392 C155.672001,6.87733576 155.744,7.39199728 155.744,7.936 C155.744,8.05333392 155.741333,8.14399968 155.736,8.208 C155.730667,8.27200032 155.728,8.32533312 155.728,8.368 L150.096,8.368 Z M152.304,4.912 C151.631997,4.912 151.112002,5.1519976 150.744,5.632 C150.375998,6.1120024 150.165334,6.75732928 150.112,7.568 L154.384,7.568 C154.384,7.23733168 154.346667,6.91466824 154.272,6.6 C154.197333,6.28533176 154.074668,6.00266792 153.904,5.752 C153.733332,5.50133208 153.517335,5.29866744 153.256,5.144 C152.994665,4.98933256 152.677335,4.912 152.304,4.912 Z M162.656,10.464 C162.442666,10.997336 162.128002,11.4186651 161.712,11.728 C161.295998,12.0373349 160.77867,12.192 160.16,12.192 C159.669331,12.192 159.229335,12.0906677 158.84,11.888 C158.450665,11.6853323 158.120001,11.4026685 157.848,11.04 C157.575999,10.6773315 157.368001,10.2400026 157.224,9.728 C157.079999,9.21599744 157.008,8.65066976 157.008,8.032 C157.008,7.3919968 157.082666,6.8186692 157.232,6.312 C157.381334,5.8053308 157.594665,5.37600176 157.872,5.024 C158.149335,4.67199824 158.482665,4.40000096 158.872,4.208 C159.261335,4.01599904 159.690664,3.92 160.16,3.92 C160.800003,3.92 161.322665,4.07199848 161.728,4.376 C162.133335,4.68000152 162.421332,5.0453312 162.592,5.472 L162.592,0.704 L163.936,0.704 L163.936,12 L162.656,12 L162.656,10.464 Z M162.592,8.016 C162.592,7.68533168 162.584,7.4266676 162.568,7.24 C162.552,7.0533324 162.533333,6.90133392 162.512,6.784 C162.458666,6.54933216 162.378667,6.3253344 162.272,6.112 C162.165333,5.8986656 162.029334,5.70933416 161.864,5.544 C161.698666,5.37866584 161.504001,5.24800048 161.28,5.152 C161.055999,5.05599952 160.800001,5.008 160.512,5.008 C160.149332,5.008 159.837335,5.0879992 159.576,5.248 C159.314665,5.4080008 159.096001,5.62399864 158.92,5.896 C158.743999,6.16800136 158.613334,6.48799816 158.528,6.856 C158.442666,7.22400184 158.4,7.61599792 158.4,8.032 C158.4,8.48000224 158.448,8.89333144 158.544,9.272 C158.64,9.65066856 158.778666,9.97599864 158.96,10.248 C159.141334,10.5200014 159.365332,10.7333326 159.632,10.888 C159.898668,11.0426674 160.202665,11.12 160.544,11.12 C160.810668,11.12 161.053332,11.0720005 161.272,10.976 C161.490668,10.8799995 161.682666,10.7466675 161.848,10.576 C162.013334,10.4053325 162.149333,10.2106678 162.256,9.992 C162.362667,9.77333224 162.442666,9.54133456 162.496,9.296 C162.56,8.99733184 162.592,8.59733584 162.592,8.096 L162.592,8.016 Z M170.256,5.04 L168.912,5.04 L168.912,4.128 L169.2,4.128 C169.530668,4.128 169.789332,4.09333368 169.976,4.024 C170.162668,3.95466632 170.304,3.84800072 170.4,3.704 C170.496,3.55999928 170.565333,3.37066784 170.608,3.136 C170.650667,2.90133216 170.688,2.61333504 170.72,2.272 L170.752,1.984 L171.584,1.984 L171.584,4.128 L173.28,4.128 L173.28,5.04 L171.584,5.04 L171.584,9.936 C171.584,10.3840022 171.650666,10.7066657 171.784,10.904 C171.917334,11.1013343 172.165332,11.2 172.528,11.2 C172.816001,11.2 173.082665,11.1360006 173.328,11.008 L173.472,11.968 C173.066665,12.1493342 172.618669,12.24 172.128,12.24 C171.743998,12.24 171.432001,12.1866672 171.192,12.08 C170.951999,11.9733328 170.762667,11.8293342 170.624,11.648 C170.485333,11.4666658 170.389334,11.2480013 170.336,10.992 C170.282666,10.7359987 170.256,10.4586682 170.256,10.16 L170.256,5.04 Z M175.888,8.368 C175.941334,9.2746712 176.173331,9.97599752 176.584,10.472 C176.994669,10.9680025 177.567996,11.216 178.304,11.216 C179.232005,11.216 179.930664,10.778671 180.4,9.904 L181.408,10.464 C181.098665,10.9866693 180.688003,11.4133317 180.176,11.744 C179.663997,12.0746683 179.018671,12.24 178.24,12.24 C177.62133,12.24 177.080002,12.1333344 176.616,11.92 C176.151998,11.7066656 175.765335,11.4133352 175.456,11.04 C175.146665,10.6666648 174.914667,10.2293358 174.76,9.728 C174.605333,9.22666416 174.528,8.68800288 174.528,8.112 C174.528,7.54666384 174.602666,7.00800256 174.752,6.496 C174.901334,5.98399744 175.127998,5.53600192 175.432,5.152 C175.736002,4.76799808 176.109331,4.46400112 176.552,4.24 C176.994669,4.01599888 177.514664,3.904 178.112,3.904 C178.688003,3.904 179.189331,4.01333224 179.616,4.232 C180.042669,4.45066776 180.397332,4.74399816 180.68,5.112 C180.962668,5.48000184 181.175999,5.90666424 181.32,6.392 C181.464001,6.87733576 181.536,7.39199728 181.536,7.936 C181.536,8.05333392 181.533333,8.14399968 181.528,8.208 C181.522667,8.27200032 181.52,8.32533312 181.52,8.368 L175.888,8.368 Z M178.096,4.912 C177.423997,4.912 176.904002,5.1519976 176.536,5.632 C176.167998,6.1120024 175.957334,6.75732928 175.904,7.568 L180.176,7.568 C180.176,7.23733168 180.138667,6.91466824 180.064,6.6 C179.989333,6.28533176 179.866668,6.00266792 179.696,5.752 C179.525332,5.50133208 179.309335,5.29866744 179.048,5.144 C178.786665,4.98933256 178.469335,4.912 178.096,4.912 Z M184.72,7.888 L182.368,4.128 L183.84,4.128 L185.664,7.12 L187.488,4.128 L188.944,4.128 L186.576,7.888 L189.248,12 L187.696,12 L185.664,8.672 L183.6,12 L182.064,12 L184.72,7.888 Z M191.344,5.04 L190,5.04 L190,4.128 L190.288,4.128 C190.618668,4.128 190.877332,4.09333368 191.064,4.024 C191.250668,3.95466632 191.392,3.84800072 191.488,3.704 C191.584,3.55999928 191.653333,3.37066784 191.696,3.136 C191.738667,2.90133216 191.776,2.61333504 191.808,2.272 L191.84,1.984 L192.672,1.984 L192.672,4.128 L194.368,4.128 L194.368,5.04 L192.672,5.04 L192.672,9.936 C192.672,10.3840022 192.738666,10.7066657 192.872,10.904 C193.005334,11.1013343 193.253332,11.2 193.616,11.2 C193.904001,11.2 194.170665,11.1360006 194.416,11.008 L194.56,11.968 C194.154665,12.1493342 193.706669,12.24 193.216,12.24 C192.831998,12.24 192.520001,12.1866672 192.28,12.08 C192.039999,11.9733328 191.850667,11.8293342 191.712,11.648 C191.573333,11.4666658 191.477334,11.2480013 191.424,10.992 C191.370666,10.7359987 191.344,10.4586682 191.344,10.16 L191.344,5.04 Z M195.84,10.432 L197.328,10.432 L197.328,12 L195.84,12 L195.84,10.432 Z" id="Some-typed-text." fill="#000000"></path>
                </g>
            </g>
        </g>
    </g>
</svg>