<?xml version="1.0" encoding="UTF-8"?>
<svg width="322px" height="90px" viewBox="0 0 322 90" version="1.1" xmlns="http://www.w3.org/2000/svg" xmlns:xlink="http://www.w3.org/1999/xlink">
    <!-- Generator: Sketch 47 (45396) - http://www.bohemiancoding.com/sketch -->
    <title>MandatoryFields</title>
    <desc>Created with Sketch.</desc>
    <defs></defs>
    <g id="Text-area" stroke="none" stroke-width="1" fill="none" fill-rule="evenodd">
        <g id="Text-area-Usage-extra-large-1200" transform="translate(-767.000000, -2562.000000)">
            <g id="MandatoryFields" transform="translate(767.000000, 2562.000000)">
                <g id="Group-11" transform="translate(0.000000, 18.000000)">
                    <g id="Group-2-Copy" transform="translate(1.000000, 10.000000)">
                        <path d="M0,1.5625 L142,1.5625" id="Line" stroke="#7C878E" stroke-linecap="square"></path>
                        <path d="M115.5,11 L141.922886,11 C142.751313,11 143.422886,10.3284271 143.422886,9.5 C143.422886,8.67157288 142.751313,8 141.922886,8 L115.5,8 C114.671573,8 114,8.67157288 114,9.5 C114,10.3284271 114.671573,11 115.5,11 Z" id="Line-Copy" fill="#7C878E" fill-rule="nonzero"></path>
                    </g>
                    <rect id="Rectangle-4" fill="#000000" x="0" y="0" width="75" height="3" rx="1.5"></rect>
                </g>
                <g id="Group-11-Copy-3" transform="translate(0.000000, 69.000000)">
                    <g id="Group-2-Copy" transform="translate(1.000000, 10.000000)">
                        <path d="M0,1.5625 L142,1.5625" id="Line" stroke="#7C878E" stroke-linecap="square"></path>
                        <path d="M115.5,11 L141.922886,11 C142.751313,11 143.422886,10.3284271 143.422886,9.5 C143.422886,8.67157288 142.751313,8 141.922886,8 L115.5,8 C114.671573,8 114,8.67157288 114,9.5 C114,10.3284271 114.671573,11 115.5,11 Z" id="Line-Copy" fill="#7C878E" fill-rule="nonzero"></path>
                    </g>
                    <rect id="Rectangle-4" fill="#000000" x="0" y="0" width="75" height="3" rx="1.5"></rect>
                </g>
                <g id="Group-11-Copy-4" transform="translate(176.000000, 69.000000)">
                    <g id="Group-2-Copy" transform="translate(1.000000, 10.000000)">
                        <path d="M0,1.5625 L142,1.5625" id="Line" stroke="#7C878E" stroke-linecap="square"></path>
                        <path d="M115.5,11 L141.922886,11 C142.751313,11 143.422886,10.3284271 143.422886,9.5 C143.422886,8.67157288 142.751313,8 141.922886,8 L115.5,8 C114.671573,8 114,8.67157288 114,9.5 C114,10.3284271 114.671573,11 115.5,11 Z" id="Line-Copy" fill="#7C878E" fill-rule="nonzero"></path>
                    </g>
                    <rect id="Rectangle-4" fill="#000000" x="0" y="0" width="75" height="3" rx="1.5"></rect>
                </g>
                <g id="Group-11-Copy" transform="translate(177.000000, 18.000000)">
                    <g id="Group-2-Copy" transform="translate(1.000000, 10.000000)">
                        <path d="M0,1.5625 L142,1.5625" id="Line" stroke="#7C878E" stroke-linecap="square"></path>
                        <path d="M117.5,11 L141.922886,11 C142.751313,11 143.422886,10.3284271 143.422886,9.5 C143.422886,8.67157288 142.751313,8 141.922886,8 L117.5,8 C116.671573,8 116,8.67157288 116,9.5 C116,10.3284271 116.671573,11 117.5,11 Z" id="Line-Copy" fill="#7C878E" fill-rule="nonzero"></path>
                    </g>
                    <rect id="Rectangle-4" fill="#000000" x="0" y="0" width="75" height="3" rx="1.5"></rect>
                </g>
                <path d="M176.84,52.528 L177.92,52.528 L177.92,60.16 L181.964,60.16 L181.964,61 L176.84,61 L176.84,52.528 Z M186.848,61 C186.76,60.7119986 186.708,60.368002 186.692,59.968 C186.531999,60.3360018 186.286002,60.6299989 185.954,60.85 C185.621998,61.0700011 185.228002,61.18 184.772,61.18 C184.195997,61.18 183.740002,61.0160016 183.404,60.688 C183.067998,60.3599984 182.9,59.9200028 182.9,59.368 C182.9,59.0559984 182.955999,58.7940011 183.068,58.582 C183.180001,58.3699989 183.335999,58.1940007 183.536,58.054 C183.736001,57.9139993 183.971999,57.8040004 184.244,57.724 C184.516001,57.6439996 184.811998,57.5800002 185.132,57.532 L186.644,57.304 L186.644,56.932 C186.644,56.6679987 186.612,56.4560008 186.548,56.296 C186.484,56.1359992 186.396001,56.0120004 186.284,55.924 C186.171999,55.8359996 186.044001,55.7780001 185.9,55.75 C185.755999,55.7219999 185.604001,55.708 185.444,55.708 C184.987998,55.708 184.612001,55.7919992 184.316,55.96 C184.019999,56.1280008 183.772001,56.3399987 183.572,56.596 L183.056,55.948 C183.288001,55.6679986 183.609998,55.428001 184.022,55.228 C184.434002,55.027999 184.943997,54.928 185.552,54.928 C186.288004,54.928 186.821998,55.0919984 187.154,55.42 C187.486002,55.7480016 187.652,56.2759964 187.652,57.004 L187.652,59.392 C187.652,59.584001 187.654,59.7519993 187.658,59.896 C187.662,60.0400007 187.67,60.1739994 187.682,60.298 C187.694,60.4220006 187.712,60.5399994 187.736,60.652 C187.76,60.7640006 187.792,60.8799994 187.832,61 L186.848,61 Z M186.644,57.964 L185.228,58.192 C184.739998,58.2800004 184.394001,58.4119991 184.19,58.588 C183.985999,58.7640009 183.884,59.0079984 183.884,59.32 C183.884,59.6400016 183.977999,59.9079989 184.166,60.124 C184.354001,60.3400011 184.631998,60.448 185,60.448 C185.224001,60.448 185.435999,60.4040004 185.636,60.316 C185.836001,60.2279996 186.009999,60.1060008 186.158,59.95 C186.306001,59.7939992 186.424,59.6060011 186.512,59.386 C186.6,59.1659989 186.644,58.9240013 186.644,58.66 L186.644,57.964 Z M189.248,52.528 L190.244,52.528 L190.244,56.14 C190.404001,55.8039983 190.641998,55.5180012 190.958,55.282 C191.274002,55.0459988 191.667998,54.928 192.14,54.928 C192.484002,54.928 192.797999,54.9999993 193.082,55.144 C193.366001,55.2880007 193.607999,55.4939987 193.808,55.762 C194.008001,56.0300013 194.161999,56.3519981 194.27,56.728 C194.378001,57.1040019 194.432,57.5239977 194.432,57.988 C194.432,58.4440023 194.378001,58.8659981 194.27,59.254 C194.161999,59.6420019 194.008001,59.9759986 193.808,60.256 C193.607999,60.5360014 193.362001,60.7559992 193.07,60.916 C192.777999,61.0760008 192.448002,61.156 192.08,61.156 C191.647998,61.156 191.264002,61.0460011 190.928,60.826 C190.591998,60.6059989 190.340001,60.292002 190.172,59.884 L190.052,61 L189.248,61 L189.248,52.528 Z M190.244,58.072 C190.244,58.2480009 190.25,58.4059993 190.262,58.546 C190.274,58.6860007 190.288,58.8039995 190.304,58.9 C190.336,59.092001 190.396,59.2759991 190.484,59.452 C190.572,59.6280009 190.679999,59.7819993 190.808,59.914 C190.936001,60.0460007 191.085999,60.1519996 191.258,60.232 C191.430001,60.3120004 191.619999,60.352 191.828,60.352 C192.100001,60.352 192.333999,60.2860007 192.53,60.154 C192.726001,60.0219993 192.887999,59.8480011 193.016,59.632 C193.144001,59.4159989 193.238,59.1700014 193.298,58.894 C193.358,58.6179986 193.388,58.3360014 193.388,58.048 C193.388,57.7519985 193.356,57.4660014 193.292,57.19 C193.228,56.9139986 193.132001,56.6700011 193.004,56.458 C192.875999,56.2459989 192.712001,56.0760006 192.512,55.948 C192.311999,55.8199994 192.076001,55.756 191.804,55.756 C191.587999,55.756 191.394001,55.7939996 191.222,55.87 C191.049999,55.9460004 190.900001,56.0499993 190.772,56.182 C190.643999,56.3140007 190.54,56.4679991 190.46,56.644 C190.38,56.8200009 190.324,57.007999 190.292,57.208 C190.276,57.2880004 190.264,57.3899994 190.256,57.514 C190.248,57.6380006 190.244,57.8119989 190.244,58.036 L190.244,58.072 Z M196.46,58.276 C196.5,58.9560034 196.673998,59.4819981 196.982,59.854 C197.290002,60.2260019 197.719997,60.412 198.272,60.412 C198.968003,60.412 199.491998,60.0840033 199.844,59.428 L200.6,59.848 C200.367999,60.240002 200.060002,60.5599988 199.676,60.808 C199.291998,61.0560012 198.808003,61.18 198.224,61.18 C197.759998,61.18 197.354002,61.1000008 197.006,60.94 C196.657998,60.7799992 196.368001,60.5600014 196.136,60.28 C195.903999,59.9999986 195.730001,59.6720019 195.614,59.296 C195.497999,58.9199981 195.44,58.5160022 195.44,58.084 C195.44,57.6599979 195.495999,57.2560019 195.608,56.872 C195.720001,56.4879981 195.889999,56.1520014 196.118,55.864 C196.346001,55.5759986 196.625998,55.3480008 196.958,55.18 C197.290002,55.0119992 197.679998,54.928 198.128,54.928 C198.560002,54.928 198.935998,55.0099992 199.256,55.174 C199.576002,55.3380008 199.841999,55.5579986 200.054,55.834 C200.266001,56.1100014 200.425999,56.4299982 200.534,56.794 C200.642001,57.1580018 200.696,57.543998 200.696,57.952 C200.696,58.0400004 200.694,58.1079998 200.69,58.156 C200.686,58.2040002 200.684,58.2439998 200.684,58.276 L196.46,58.276 Z M198.116,55.684 C197.611997,55.684 197.222001,55.8639982 196.946,56.224 C196.669999,56.5840018 196.512,57.067997 196.472,57.676 L199.676,57.676 C199.676,57.4279988 199.648,57.1860012 199.592,56.95 C199.536,56.7139988 199.444001,56.5020009 199.316,56.314 C199.187999,56.1259991 199.026001,55.9740006 198.83,55.858 C198.633999,55.7419994 198.396001,55.684 198.116,55.684 Z M201.908,52.528 L202.904,52.528 L202.904,61 L201.908,61 L201.908,52.528 Z" id="Label" fill="#4C5358"></path>
                <path d="M176.84,0.528 L177.92,0.528 L177.92,8.16 L181.964,8.16 L181.964,9 L176.84,9 L176.84,0.528 Z M186.848,9 C186.76,8.71199856 186.708,8.368002 186.692,7.968 C186.531999,8.33600184 186.286002,8.6299989 185.954,8.85 C185.621998,9.0700011 185.228002,9.18 184.772,9.18 C184.195997,9.18 183.740002,9.01600164 183.404,8.688 C183.067998,8.35999836 182.9,7.92000276 182.9,7.368 C182.9,7.05599844 182.955999,6.79400106 183.068,6.582 C183.180001,6.36999894 183.335999,6.1940007 183.536,6.054 C183.736001,5.9139993 183.971999,5.8040004 184.244,5.724 C184.516001,5.6439996 184.811998,5.58000024 185.132,5.532 L186.644,5.304 L186.644,4.932 C186.644,4.66799868 186.612,4.4560008 186.548,4.296 C186.484,4.1359992 186.396001,4.01200044 186.284,3.924 C186.171999,3.83599956 186.044001,3.77800014 185.9,3.75 C185.755999,3.72199986 185.604001,3.708 185.444,3.708 C184.987998,3.708 184.612001,3.79199916 184.316,3.96 C184.019999,4.12800084 183.772001,4.33999872 183.572,4.596 L183.056,3.948 C183.288001,3.6679986 183.609998,3.428001 184.022,3.228 C184.434002,3.027999 184.943997,2.928 185.552,2.928 C186.288004,2.928 186.821998,3.09199836 187.154,3.42 C187.486002,3.74800164 187.652,4.27599636 187.652,5.004 L187.652,7.392 C187.652,7.58400096 187.654,7.75199928 187.658,7.896 C187.662,8.04000072 187.67,8.17399938 187.682,8.298 C187.694,8.42200062 187.712,8.53999944 187.736,8.652 C187.76,8.76400056 187.792,8.8799994 187.832,9 L186.848,9 Z M186.644,5.964 L185.228,6.192 C184.739998,6.28000044 184.394001,6.41199912 184.19,6.588 C183.985999,6.76400088 183.884,7.00799844 183.884,7.32 C183.884,7.6400016 183.977999,7.90799892 184.166,8.124 C184.354001,8.34000108 184.631998,8.448 185,8.448 C185.224001,8.448 185.435999,8.40400044 185.636,8.316 C185.836001,8.22799956 186.009999,8.10600078 186.158,7.95 C186.306001,7.79399922 186.424,7.6060011 186.512,7.386 C186.6,7.1659989 186.644,6.92400132 186.644,6.66 L186.644,5.964 Z M189.248,0.528 L190.244,0.528 L190.244,4.14 C190.404001,3.80399832 190.641998,3.51800118 190.958,3.282 C191.274002,3.04599882 191.667998,2.928 192.14,2.928 C192.484002,2.928 192.797999,2.99999928 193.082,3.144 C193.366001,3.28800072 193.607999,3.49399866 193.808,3.762 C194.008001,4.03000134 194.161999,4.35199812 194.27,4.728 C194.378001,5.10400188 194.432,5.52399768 194.432,5.988 C194.432,6.44400228 194.378001,6.86599806 194.27,7.254 C194.161999,7.64200194 194.008001,7.9759986 193.808,8.256 C193.607999,8.5360014 193.362001,8.7559992 193.07,8.916 C192.777999,9.0760008 192.448002,9.156 192.08,9.156 C191.647998,9.156 191.264002,9.0460011 190.928,8.826 C190.591998,8.6059989 190.340001,8.29200204 190.172,7.884 L190.052,9 L189.248,9 L189.248,0.528 Z M190.244,6.072 C190.244,6.24800088 190.25,6.4059993 190.262,6.546 C190.274,6.6860007 190.288,6.80399952 190.304,6.9 C190.336,7.09200096 190.396,7.27599912 190.484,7.452 C190.572,7.62800088 190.679999,7.78199934 190.808,7.914 C190.936001,8.04600066 191.085999,8.1519996 191.258,8.232 C191.430001,8.3120004 191.619999,8.352 191.828,8.352 C192.100001,8.352 192.333999,8.28600066 192.53,8.154 C192.726001,8.02199934 192.887999,7.84800108 193.016,7.632 C193.144001,7.41599892 193.238,7.17000138 193.298,6.894 C193.358,6.61799862 193.388,6.33600144 193.388,6.048 C193.388,5.75199852 193.356,5.46600138 193.292,5.19 C193.228,4.91399862 193.132001,4.67000106 193.004,4.458 C192.875999,4.24599894 192.712001,4.07600064 192.512,3.948 C192.311999,3.81999936 192.076001,3.756 191.804,3.756 C191.587999,3.756 191.394001,3.79399962 191.222,3.87 C191.049999,3.94600038 190.900001,4.04999934 190.772,4.182 C190.643999,4.31400066 190.54,4.46799912 190.46,4.644 C190.38,4.82000088 190.324,5.007999 190.292,5.208 C190.276,5.2880004 190.264,5.38999938 190.256,5.514 C190.248,5.63800062 190.244,5.81199888 190.244,6.036 L190.244,6.072 Z M196.46,6.276 C196.5,6.9560034 196.673998,7.48199814 196.982,7.854 C197.290002,8.22600186 197.719997,8.412 198.272,8.412 C198.968003,8.412 199.491998,8.08400328 199.844,7.428 L200.6,7.848 C200.367999,8.24000196 200.060002,8.55999876 199.676,8.808 C199.291998,9.05600124 198.808003,9.18 198.224,9.18 C197.759998,9.18 197.354002,9.1000008 197.006,8.94 C196.657998,8.7799992 196.368001,8.5600014 196.136,8.28 C195.903999,7.9999986 195.730001,7.67200188 195.614,7.296 C195.497999,6.91999812 195.44,6.51600216 195.44,6.084 C195.44,5.65999788 195.495999,5.25600192 195.608,4.872 C195.720001,4.48799808 195.889999,4.15200144 196.118,3.864 C196.346001,3.57599856 196.625998,3.34800084 196.958,3.18 C197.290002,3.01199916 197.679998,2.928 198.128,2.928 C198.560002,2.928 198.935998,3.00999918 199.256,3.174 C199.576002,3.33800082 199.841999,3.55799862 200.054,3.834 C200.266001,4.11000138 200.425999,4.42999818 200.534,4.794 C200.642001,5.15800182 200.696,5.54399796 200.696,5.952 C200.696,6.04000044 200.694,6.10799976 200.69,6.156 C200.686,6.20400024 200.684,6.24399984 200.684,6.276 L196.46,6.276 Z M198.116,3.684 C197.611997,3.684 197.222001,3.8639982 196.946,4.224 C196.669999,4.5840018 196.512,5.06799696 196.472,5.676 L199.676,5.676 C199.676,5.42799876 199.648,5.18600118 199.592,4.95 C199.536,4.71399882 199.444001,4.50200094 199.316,4.314 C199.187999,4.12599906 199.026001,3.97400058 198.83,3.858 C198.633999,3.74199942 198.396001,3.684 198.116,3.684 Z M201.908,0.528 L202.904,0.528 L202.904,9 L201.908,9 L201.908,0.528 Z" id="Label-*" fill="#4C5358"></path>
                <polygon id="Path" fill="#D0021B" points="208.112 2.184 206.768 1.752 206.9 1.26 208.244 1.692 208.244 0.336 208.808 0.336 208.808 1.692 210.116 1.224 210.296 1.728 208.94 2.184 209.828 3.36 209.372 3.696 208.52 2.52 207.692 3.696 207.224 3.36"></polygon>
                <path d="M0.84,0.528 L1.92,0.528 L1.92,8.16 L5.964,8.16 L5.964,9 L0.84,9 L0.84,0.528 Z M10.848,9 C10.7599996,8.71199856 10.7080001,8.368002 10.692,7.968 C10.5319992,8.33600184 10.2860017,8.6299989 9.954,8.85 C9.62199834,9.0700011 9.22800228,9.18 8.772,9.18 C8.19599712,9.18 7.74000168,9.01600164 7.404,8.688 C7.06799832,8.35999836 6.9,7.92000276 6.9,7.368 C6.9,7.05599844 6.95599944,6.79400106 7.068,6.582 C7.18000056,6.36999894 7.335999,6.1940007 7.536,6.054 C7.736001,5.9139993 7.97199864,5.8040004 8.244,5.724 C8.51600136,5.6439996 8.8119984,5.58000024 9.132,5.532 L10.644,5.304 L10.644,4.932 C10.644,4.66799868 10.6120003,4.4560008 10.548,4.296 C10.4839997,4.1359992 10.3960006,4.01200044 10.284,3.924 C10.1719994,3.83599956 10.0440007,3.77800014 9.9,3.75 C9.75599928,3.72199986 9.6040008,3.708 9.444,3.708 C8.98799772,3.708 8.61200148,3.79199916 8.316,3.96 C8.01999852,4.12800084 7.772001,4.33999872 7.572,4.596 L7.056,3.948 C7.28800116,3.6679986 7.60999794,3.428001 8.022,3.228 C8.43400206,3.027999 8.94399696,2.928 9.552,2.928 C10.2880037,2.928 10.8219983,3.09199836 11.154,3.42 C11.4860017,3.74800164 11.652,4.27599636 11.652,5.004 L11.652,7.392 C11.652,7.58400096 11.654,7.75199928 11.658,7.896 C11.662,8.04000072 11.6699999,8.17399938 11.682,8.298 C11.6940001,8.42200062 11.7119999,8.53999944 11.736,8.652 C11.7600001,8.76400056 11.7919998,8.8799994 11.832,9 L10.848,9 Z M10.644,5.964 L9.228,6.192 C8.73999756,6.28000044 8.39400102,6.41199912 8.19,6.588 C7.98599898,6.76400088 7.884,7.00799844 7.884,7.32 C7.884,7.6400016 7.97799906,7.90799892 8.166,8.124 C8.35400094,8.34000108 8.63199816,8.448 9,8.448 C9.22400112,8.448 9.435999,8.40400044 9.636,8.316 C9.836001,8.22799956 10.0099993,8.10600078 10.158,7.95 C10.3060007,7.79399922 10.4239996,7.6060011 10.512,7.386 C10.6000004,7.1659989 10.644,6.92400132 10.644,6.66 L10.644,5.964 Z M13.248,0.528 L14.244,0.528 L14.244,4.14 C14.4040008,3.80399832 14.6419984,3.51800118 14.958,3.282 C15.2740016,3.04599882 15.6679976,2.928 16.14,2.928 C16.4840017,2.928 16.7979986,2.99999928 17.082,3.144 C17.3660014,3.28800072 17.607999,3.49399866 17.808,3.762 C18.008001,4.03000134 18.1619995,4.35199812 18.27,4.728 C18.3780005,5.10400188 18.432,5.52399768 18.432,5.988 C18.432,6.44400228 18.3780005,6.86599806 18.27,7.254 C18.1619995,7.64200194 18.008001,7.9759986 17.808,8.256 C17.607999,8.5360014 17.3620015,8.7559992 17.07,8.916 C16.7779985,9.0760008 16.4480018,9.156 16.08,9.156 C15.6479978,9.156 15.2640017,9.0460011 14.928,8.826 C14.5919983,8.6059989 14.3400008,8.29200204 14.172,7.884 L14.052,9 L13.248,9 L13.248,0.528 Z M14.244,6.072 C14.244,6.24800088 14.2499999,6.4059993 14.262,6.546 C14.2740001,6.6860007 14.2879999,6.80399952 14.304,6.9 C14.3360002,7.09200096 14.3959996,7.27599912 14.484,7.452 C14.5720004,7.62800088 14.6799994,7.78199934 14.808,7.914 C14.9360006,8.04600066 15.0859991,8.1519996 15.258,8.232 C15.4300009,8.3120004 15.619999,8.352 15.828,8.352 C16.1000014,8.352 16.333999,8.28600066 16.53,8.154 C16.726001,8.02199934 16.8879994,7.84800108 17.016,7.632 C17.1440006,7.41599892 17.2379997,7.17000138 17.298,6.894 C17.3580003,6.61799862 17.388,6.33600144 17.388,6.048 C17.388,5.75199852 17.3560003,5.46600138 17.292,5.19 C17.2279997,4.91399862 17.1320006,4.67000106 17.004,4.458 C16.8759994,4.24599894 16.712001,4.07600064 16.512,3.948 C16.311999,3.81999936 16.0760014,3.756 15.804,3.756 C15.5879989,3.756 15.3940009,3.79399962 15.222,3.87 C15.0499991,3.94600038 14.9000006,4.04999934 14.772,4.182 C14.6439994,4.31400066 14.5400004,4.46799912 14.46,4.644 C14.3799996,4.82000088 14.3240002,5.007999 14.292,5.208 C14.2759999,5.2880004 14.264,5.38999938 14.256,5.514 C14.248,5.63800062 14.244,5.81199888 14.244,6.036 L14.244,6.072 Z M20.46,6.276 C20.5000002,6.9560034 20.6739985,7.48199814 20.982,7.854 C21.2900015,8.22600186 21.7199972,8.412 22.272,8.412 C22.9680035,8.412 23.4919982,8.08400328 23.844,7.428 L24.6,7.848 C24.3679988,8.24000196 24.0600019,8.55999876 23.676,8.808 C23.2919981,9.05600124 22.8080029,9.18 22.224,9.18 C21.7599977,9.18 21.3540017,9.1000008 21.006,8.94 C20.6579983,8.7799992 20.3680012,8.5600014 20.136,8.28 C19.9039988,7.9999986 19.7300006,7.67200188 19.614,7.296 C19.4979994,6.91999812 19.44,6.51600216 19.44,6.084 C19.44,5.65999788 19.4959994,5.25600192 19.608,4.872 C19.7200006,4.48799808 19.8899989,4.15200144 20.118,3.864 C20.3460011,3.57599856 20.6259983,3.34800084 20.958,3.18 C21.2900017,3.01199916 21.6799978,2.928 22.128,2.928 C22.5600022,2.928 22.9359984,3.00999918 23.256,3.174 C23.5760016,3.33800082 23.8419989,3.55799862 24.054,3.834 C24.2660011,4.11000138 24.4259995,4.42999818 24.534,4.794 C24.6420005,5.15800182 24.696,5.54399796 24.696,5.952 C24.696,6.04000044 24.694,6.10799976 24.69,6.156 C24.686,6.20400024 24.684,6.24399984 24.684,6.276 L20.46,6.276 Z M22.116,3.684 C21.6119975,3.684 21.2220014,3.8639982 20.946,4.224 C20.6699986,4.5840018 20.5120002,5.06799696 20.472,5.676 L23.676,5.676 C23.676,5.42799876 23.6480003,5.18600118 23.592,4.95 C23.5359997,4.71399882 23.4440006,4.50200094 23.316,4.314 C23.1879994,4.12599906 23.026001,3.97400058 22.83,3.858 C22.633999,3.74199942 22.3960014,3.684 22.116,3.684 Z M25.908,0.528 L26.904,0.528 L26.904,9 L25.908,9 L25.908,0.528 Z" id="Label-*" fill="#4C5358"></path>
                <polygon id="Path" fill="#D0021B" points="32.112 2.184 30.768 1.752 30.9 1.26 32.244 1.692 32.244 0.336 32.808 0.336 32.808 1.692 34.116 1.224 34.296 1.728 32.94 2.184 33.828 3.36 33.372 3.696 32.52 2.52 31.692 3.696 31.224 3.36"></polygon>
                <path d="M0.84,52.528 L1.92,52.528 L1.92,60.16 L5.964,60.16 L5.964,61 L0.84,61 L0.84,52.528 Z M10.848,61 C10.7599996,60.7119986 10.7080001,60.368002 10.692,59.968 C10.5319992,60.3360018 10.2860017,60.6299989 9.954,60.85 C9.62199834,61.0700011 9.22800228,61.18 8.772,61.18 C8.19599712,61.18 7.74000168,61.0160016 7.404,60.688 C7.06799832,60.3599984 6.9,59.9200028 6.9,59.368 C6.9,59.0559984 6.95599944,58.7940011 7.068,58.582 C7.18000056,58.3699989 7.335999,58.1940007 7.536,58.054 C7.736001,57.9139993 7.97199864,57.8040004 8.244,57.724 C8.51600136,57.6439996 8.8119984,57.5800002 9.132,57.532 L10.644,57.304 L10.644,56.932 C10.644,56.6679987 10.6120003,56.4560008 10.548,56.296 C10.4839997,56.1359992 10.3960006,56.0120004 10.284,55.924 C10.1719994,55.8359996 10.0440007,55.7780001 9.9,55.75 C9.75599928,55.7219999 9.6040008,55.708 9.444,55.708 C8.98799772,55.708 8.61200148,55.7919992 8.316,55.96 C8.01999852,56.1280008 7.772001,56.3399987 7.572,56.596 L7.056,55.948 C7.28800116,55.6679986 7.60999794,55.428001 8.022,55.228 C8.43400206,55.027999 8.94399696,54.928 9.552,54.928 C10.2880037,54.928 10.8219983,55.0919984 11.154,55.42 C11.4860017,55.7480016 11.652,56.2759964 11.652,57.004 L11.652,59.392 C11.652,59.584001 11.654,59.7519993 11.658,59.896 C11.662,60.0400007 11.6699999,60.1739994 11.682,60.298 C11.6940001,60.4220006 11.7119999,60.5399994 11.736,60.652 C11.7600001,60.7640006 11.7919998,60.8799994 11.832,61 L10.848,61 Z M10.644,57.964 L9.228,58.192 C8.73999756,58.2800004 8.39400102,58.4119991 8.19,58.588 C7.98599898,58.7640009 7.884,59.0079984 7.884,59.32 C7.884,59.6400016 7.97799906,59.9079989 8.166,60.124 C8.35400094,60.3400011 8.63199816,60.448 9,60.448 C9.22400112,60.448 9.435999,60.4040004 9.636,60.316 C9.836001,60.2279996 10.0099993,60.1060008 10.158,59.95 C10.3060007,59.7939992 10.4239996,59.6060011 10.512,59.386 C10.6000004,59.1659989 10.644,58.9240013 10.644,58.66 L10.644,57.964 Z M13.248,52.528 L14.244,52.528 L14.244,56.14 C14.4040008,55.8039983 14.6419984,55.5180012 14.958,55.282 C15.2740016,55.0459988 15.6679976,54.928 16.14,54.928 C16.4840017,54.928 16.7979986,54.9999993 17.082,55.144 C17.3660014,55.2880007 17.607999,55.4939987 17.808,55.762 C18.008001,56.0300013 18.1619995,56.3519981 18.27,56.728 C18.3780005,57.1040019 18.432,57.5239977 18.432,57.988 C18.432,58.4440023 18.3780005,58.8659981 18.27,59.254 C18.1619995,59.6420019 18.008001,59.9759986 17.808,60.256 C17.607999,60.5360014 17.3620015,60.7559992 17.07,60.916 C16.7779985,61.0760008 16.4480018,61.156 16.08,61.156 C15.6479978,61.156 15.2640017,61.0460011 14.928,60.826 C14.5919983,60.6059989 14.3400008,60.292002 14.172,59.884 L14.052,61 L13.248,61 L13.248,52.528 Z M14.244,58.072 C14.244,58.2480009 14.2499999,58.4059993 14.262,58.546 C14.2740001,58.6860007 14.2879999,58.8039995 14.304,58.9 C14.3360002,59.092001 14.3959996,59.2759991 14.484,59.452 C14.5720004,59.6280009 14.6799994,59.7819993 14.808,59.914 C14.9360006,60.0460007 15.0859991,60.1519996 15.258,60.232 C15.4300009,60.3120004 15.619999,60.352 15.828,60.352 C16.1000014,60.352 16.333999,60.2860007 16.53,60.154 C16.726001,60.0219993 16.8879994,59.8480011 17.016,59.632 C17.1440006,59.4159989 17.2379997,59.1700014 17.298,58.894 C17.3580003,58.6179986 17.388,58.3360014 17.388,58.048 C17.388,57.7519985 17.3560003,57.4660014 17.292,57.19 C17.2279997,56.9139986 17.1320006,56.6700011 17.004,56.458 C16.8759994,56.2459989 16.712001,56.0760006 16.512,55.948 C16.311999,55.8199994 16.0760014,55.756 15.804,55.756 C15.5879989,55.756 15.3940009,55.7939996 15.222,55.87 C15.0499991,55.9460004 14.9000006,56.0499993 14.772,56.182 C14.6439994,56.3140007 14.5400004,56.4679991 14.46,56.644 C14.3799996,56.8200009 14.3240002,57.007999 14.292,57.208 C14.2759999,57.2880004 14.264,57.3899994 14.256,57.514 C14.248,57.6380006 14.244,57.8119989 14.244,58.036 L14.244,58.072 Z M20.46,58.276 C20.5000002,58.9560034 20.6739985,59.4819981 20.982,59.854 C21.2900015,60.2260019 21.7199972,60.412 22.272,60.412 C22.9680035,60.412 23.4919982,60.0840033 23.844,59.428 L24.6,59.848 C24.3679988,60.240002 24.0600019,60.5599988 23.676,60.808 C23.2919981,61.0560012 22.8080029,61.18 22.224,61.18 C21.7599977,61.18 21.3540017,61.1000008 21.006,60.94 C20.6579983,60.7799992 20.3680012,60.5600014 20.136,60.28 C19.9039988,59.9999986 19.7300006,59.6720019 19.614,59.296 C19.4979994,58.9199981 19.44,58.5160022 19.44,58.084 C19.44,57.6599979 19.4959994,57.2560019 19.608,56.872 C19.7200006,56.4879981 19.8899989,56.1520014 20.118,55.864 C20.3460011,55.5759986 20.6259983,55.3480008 20.958,55.18 C21.2900017,55.0119992 21.6799978,54.928 22.128,54.928 C22.5600022,54.928 22.9359984,55.0099992 23.256,55.174 C23.5760016,55.3380008 23.8419989,55.5579986 24.054,55.834 C24.2660011,56.1100014 24.4259995,56.4299982 24.534,56.794 C24.6420005,57.1580018 24.696,57.543998 24.696,57.952 C24.696,58.0400004 24.694,58.1079998 24.69,58.156 C24.686,58.2040002 24.684,58.2439998 24.684,58.276 L20.46,58.276 Z M22.116,55.684 C21.6119975,55.684 21.2220014,55.8639982 20.946,56.224 C20.6699986,56.5840018 20.5120002,57.067997 20.472,57.676 L23.676,57.676 C23.676,57.4279988 23.6480003,57.1860012 23.592,56.95 C23.5359997,56.7139988 23.4440006,56.5020009 23.316,56.314 C23.1879994,56.1259991 23.026001,55.9740006 22.83,55.858 C22.633999,55.7419994 22.3960014,55.684 22.116,55.684 Z M25.908,52.528 L26.904,52.528 L26.904,61 L25.908,61 L25.908,52.528 Z" id="Label-*" fill="#4C5358"></path>
                <polygon id="Path" fill="#D0021B" points="32.112 54.184 30.768 53.752 30.9 53.26 32.244 53.692 32.244 52.336 32.808 52.336 32.808 53.692 34.116 53.224 34.296 53.728 32.94 54.184 33.828 55.36 33.372 55.696 32.52 54.52 31.692 55.696 31.224 55.36"></polygon>
            </g>
        </g>
    </g>
</svg>