<?xml version="1.0" encoding="UTF-8"?>
<svg width="212px" height="64px" viewBox="0 0 212 64" version="1.1" xmlns="http://www.w3.org/2000/svg" xmlns:xlink="http://www.w3.org/1999/xlink">
    <!-- Generator: Sketch 47 (45396) - http://www.bohemiancoding.com/sketch -->
    <title>Auto-capitalize</title>
    <desc>Created with Sketch.</desc>
    <defs></defs>
    <g id="Text-area" stroke="none" stroke-width="1" fill="none" fill-rule="evenodd">
        <g id="Text-area-Usage-extra-large-1200" transform="translate(-368.000000, -3595.000000)">
            <g id="Group-10" transform="translate(309.000000, 3528.000000)">
                <g id="Auto-capitalize" transform="translate(60.000000, 67.000000)">
                    <path d="M1.33,8.718 C1.61933478,9.14733548 2.01133086,9.49499867 2.506,9.761 C3.00066914,10.0270013 3.58399664,10.16 4.256,10.16 C4.57333492,10.16 4.86966529,10.1180004 5.145,10.034 C5.42033471,9.94999958 5.65833233,9.82866746 5.859,9.67 C6.05966767,9.51133254 6.21599944,9.31766781 6.328,9.089 C6.44000056,8.86033219 6.496,8.6060014 6.496,8.326 C6.496,8.03666522 6.42833401,7.79400098 6.293,7.598 C6.15766599,7.40199902 5.9733345,7.23633401 5.74,7.101 C5.5066655,6.96566599 5.22900161,6.84666718 4.907,6.744 C4.58499839,6.64133282 4.2373352,6.53866718 3.864,6.436 C3.4439979,6.31466606 3.05433513,6.17933408 2.695,6.03 C2.33566487,5.88066592 2.02533464,5.69633443 1.764,5.477 C1.50266536,5.25766557 1.29733408,5.00100147 1.148,4.707 C0.99866592,4.41299853 0.924,4.06066872 0.924,3.65 C0.924,3.2299979 1.00566585,2.85200168 1.169,2.516 C1.33233415,2.17999832 1.56333184,1.89300119 1.862,1.655 C2.16066816,1.41699881 2.51299797,1.23266732 2.919,1.102 C3.32500203,0.97133268 3.77533086,0.906 4.27,0.906 C4.95133674,0.906 5.58133044,1.02033219 6.16,1.249 C6.73866956,1.47766781 7.23333128,1.81599776 7.644,2.264 L6.79,3.062 C6.49133184,2.7353317 6.12500217,2.46933436 5.691,2.264 C5.25699783,2.05866564 4.77866928,1.956 4.256,1.956 C3.65866368,1.956 3.17100189,2.08433205 2.793,2.341 C2.41499811,2.59766795 2.226,2.98733072 2.226,3.51 C2.226,3.77133464 2.28433275,3.9953324 2.401,4.182 C2.51766725,4.3686676 2.68099895,4.5319993 2.891,4.672 C3.10100105,4.8120007 3.34833191,4.93566613 3.633,5.043 C3.91766809,5.15033387 4.23266494,5.2506662 4.578,5.344 C5.0913359,5.4840007 5.54866466,5.63566585 5.95,5.799 C6.35133534,5.96233415 6.68733198,6.15599888 6.958,6.38 C7.22866802,6.60400112 7.4339993,6.86299853 7.574,7.157 C7.7140007,7.45100147 7.784,7.79399804 7.784,8.186 C7.784,8.66200238 7.6906676,9.08899811 7.504,9.467 C7.3173324,9.84500189 7.06300161,10.162332 6.741,10.419 C6.41899839,10.6756679 6.04100217,10.871666 5.607,11.007 C5.17299783,11.142334 4.71333576,11.21 4.228,11.21 C3.33199552,11.21 2.57600308,11.0676681 1.96,10.783 C1.34399692,10.4983319 0.8493352,10.0900027 0.476,9.558 L1.33,8.718 Z M9.842,4.91 L8.666,4.91 L8.666,4.112 L8.918,4.112 C9.20733478,4.112 9.43366585,4.08166697 9.597,4.021 C9.76033415,3.96033303 9.88399958,3.86700063 9.968,3.741 C10.0520004,3.61499937 10.1126665,3.44933436 10.15,3.244 C10.1873335,3.03866564 10.2199999,2.78666816 10.248,2.488 L10.276,2.236 L11.004,2.236 L11.004,4.112 L12.488,4.112 L12.488,4.91 L11.004,4.91 L11.004,9.194 C11.004,9.58600196 11.0623327,9.86833247 11.179,10.041 C11.2956672,10.2136675 11.5126651,10.3 11.83,10.3 C12.0820013,10.3 12.3153323,10.2440006 12.53,10.132 L12.656,10.972 C12.3013316,11.1306675 11.9093355,11.21 11.48,11.21 C11.1439983,11.21 10.871001,11.1633338 10.661,11.07 C10.4509989,10.9766662 10.2853339,10.8506675 10.164,10.692 C10.0426661,10.5333325 9.9586669,10.3420011 9.912,10.118 C9.8653331,9.89399888 9.842,9.65133464 9.842,9.39 L9.842,4.91 Z M18.214,11 C18.1113328,10.6639983 18.0506668,10.262669 18.032,9.796 C17.8453324,10.2253355 17.5583353,10.568332 17.171,10.825 C16.7836647,11.0816679 16.3240027,11.21 15.792,11.21 C15.1199966,11.21 14.588002,11.0186686 14.196,10.636 C13.803998,10.2533314 13.608,9.74000322 13.608,9.096 C13.608,8.73199818 13.6733327,8.42633457 13.804,8.179 C13.9346673,7.93166543 14.1166655,7.72633415 14.35,7.563 C14.5833345,7.39966585 14.8586651,7.2713338 15.176,7.178 C15.4933349,7.0846662 15.8386648,7.01000028 16.212,6.954 L17.976,6.688 L17.976,6.254 C17.976,5.94599846 17.938667,5.6986676 17.864,5.512 C17.789333,5.3253324 17.6866673,5.18066718 17.556,5.078 C17.4253327,4.97533282 17.2760008,4.90766683 17.108,4.875 C16.9399992,4.84233317 16.7626676,4.826 16.576,4.826 C16.0439973,4.826 15.6053351,4.92399902 15.26,5.12 C14.9146649,5.31600098 14.6253345,5.56333184 14.392,5.862 L13.79,5.106 C14.060668,4.7793317 14.4363309,4.4993345 14.917,4.266 C15.3976691,4.0326655 15.9926631,3.916 16.702,3.916 C17.560671,3.916 18.1836647,4.10733142 18.571,4.49 C18.9583353,4.87266858 19.152,5.48866242 19.152,6.338 L19.152,9.124 C19.152,9.34800112 19.1543333,9.54399916 19.159,9.712 C19.1636667,9.88000084 19.1729999,10.0363326 19.187,10.181 C19.2010001,10.3256674 19.2219999,10.4633327 19.25,10.594 C19.2780001,10.7246673 19.3153331,10.8599993 19.362,11 L18.214,11 Z M17.976,7.458 L16.324,7.724 C15.7546638,7.82666718 15.3510012,7.98066564 15.113,8.186 C14.8749988,8.39133436 14.756,8.67599818 14.756,9.04 C14.756,9.4133352 14.8656656,9.72599874 15.085,9.978 C15.3043344,10.2300013 15.6286645,10.356 16.058,10.356 C16.3193346,10.356 16.5666655,10.3046672 16.8,10.202 C17.0333345,10.0993328 17.2363325,9.95700091 17.409,9.775 C17.5816675,9.59299909 17.7193328,9.37366795 17.822,9.117 C17.9246672,8.86033205 17.976,8.57800154 17.976,8.27 L17.976,7.458 Z M21.616,4.91 L20.44,4.91 L20.44,4.112 L20.692,4.112 C20.9813348,4.112 21.2076659,4.08166697 21.371,4.021 C21.5343342,3.96033303 21.6579996,3.86700063 21.742,3.741 C21.8260004,3.61499937 21.8866665,3.44933436 21.924,3.244 C21.9613335,3.03866564 21.9939999,2.78666816 22.022,2.488 L22.05,2.236 L22.778,2.236 L22.778,4.112 L24.262,4.112 L24.262,4.91 L22.778,4.91 L22.778,9.194 C22.778,9.58600196 22.8363328,9.86833247 22.953,10.041 C23.0696673,10.2136675 23.2866651,10.3 23.604,10.3 C23.8560013,10.3 24.0893323,10.2440006 24.304,10.132 L24.43,10.972 C24.0753316,11.1306675 23.6833355,11.21 23.254,11.21 C22.9179983,11.21 22.6450011,11.1633338 22.435,11.07 C22.224999,10.9766662 22.0593339,10.8506675 21.938,10.692 C21.8166661,10.5333325 21.7326669,10.3420011 21.686,10.118 C21.6393331,9.89399888 21.616,9.65133464 21.616,9.39 L21.616,4.91 Z M26.544,7.822 C26.5906669,8.6153373 26.7936649,9.22899783 27.153,9.663 C27.5123351,10.0970022 28.0139968,10.314 28.658,10.314 C29.4700041,10.314 30.0813313,9.93133716 30.492,9.166 L31.374,9.656 C31.103332,10.1133356 30.7440022,10.4866652 30.296,10.776 C29.8479978,11.0653348 29.2833367,11.21 28.602,11.21 C28.060664,11.21 27.587002,11.1166676 27.181,10.93 C26.774998,10.7433324 26.436668,10.4866683 26.166,10.16 C25.895332,9.8333317 25.692334,9.45066886 25.557,9.012 C25.421666,8.57333114 25.354,8.10200252 25.354,7.598 C25.354,7.10333086 25.4193327,6.63200224 25.55,6.184 C25.6806673,5.73599776 25.8789987,5.34400168 26.145,5.008 C26.4110013,4.67199832 26.7376647,4.40600098 27.125,4.21 C27.5123353,4.01399902 27.9673307,3.916 28.49,3.916 C28.9940025,3.916 29.4326648,4.01166571 29.806,4.203 C30.1793352,4.39433429 30.4896654,4.65099839 30.737,4.973 C30.9843346,5.29500161 31.1709994,5.66833121 31.297,6.093 C31.4230006,6.51766879 31.486,6.96799762 31.486,7.444 C31.486,7.54666718 31.4836667,7.62599972 31.479,7.682 C31.4743333,7.73800028 31.472,7.78466648 31.472,7.822 L26.544,7.822 Z M28.476,4.798 C27.8879971,4.798 27.4330016,5.0079979 27.111,5.428 C26.7889984,5.8480021 26.6046669,6.41266312 26.558,7.122 L30.296,7.122 C30.296,6.83266522 30.2633337,6.55033471 30.198,6.275 C30.1326663,5.99966529 30.0253341,5.75233443 29.876,5.533 C29.7266659,5.31366557 29.5376678,5.13633401 29.309,5.001 C29.0803322,4.86566599 28.8026683,4.798 28.476,4.798 Z M32.9,4.112 L33.908,4.112 L34.034,5.456 C34.2020008,4.97999762 34.4633316,4.60433471 34.818,4.329 C35.1726684,4.05366529 35.6066641,3.916 36.12,3.916 C36.661336,3.916 37.0859985,4.06999846 37.394,4.378 C37.7020015,4.68600154 37.8979996,5.05933114 37.982,5.498 C38.0660004,5.28333226 38.1709994,5.08033429 38.297,4.889 C38.4230006,4.69766571 38.5746658,4.52966739 38.752,4.385 C38.9293342,4.24033261 39.1346655,4.12600042 39.368,4.042 C39.6013345,3.95799958 39.8673318,3.916 40.166,3.916 C40.558002,3.916 40.882332,3.98366599 41.139,4.119 C41.3956679,4.25433401 41.6009992,4.4386655 41.755,4.672 C41.9090008,4.9053345 42.0186663,5.17833177 42.084,5.491 C42.1493337,5.80366823 42.182,6.13266494 42.182,6.478 L42.182,11 L41.02,11 L41.02,6.772 C41.02,6.15599692 40.9103344,5.69633485 40.691,5.393 C40.4716656,5.08966515 40.1520021,4.938 39.732,4.938 C39.2746644,4.938 38.8920015,5.14099797 38.584,5.547 C38.2759985,5.95300203 38.122,6.53399622 38.122,7.29 L38.122,11 L36.96,11 L36.96,6.828 C36.96,6.18399678 36.8480011,5.70800154 36.624,5.4 C36.3999989,5.09199846 36.0873353,4.938 35.686,4.938 C35.2379978,4.938 34.8553349,5.14566459 34.538,5.561 C34.2206651,5.97633541 34.062,6.57599608 34.062,7.36 L34.062,11 L32.9,11 L32.9,4.112 Z M44.828,7.822 C44.8746669,8.6153373 45.0776649,9.22899783 45.437,9.663 C45.7963351,10.0970022 46.2979968,10.314 46.942,10.314 C47.7540041,10.314 48.3653313,9.93133716 48.776,9.166 L49.658,9.656 C49.387332,10.1133356 49.0280022,10.4866652 48.58,10.776 C48.1319978,11.0653348 47.5673367,11.21 46.886,11.21 C46.344664,11.21 45.871002,11.1166676 45.465,10.93 C45.058998,10.7433324 44.720668,10.4866683 44.45,10.16 C44.179332,9.8333317 43.976334,9.45066886 43.841,9.012 C43.705666,8.57333114 43.638,8.10200252 43.638,7.598 C43.638,7.10333086 43.7033327,6.63200224 43.834,6.184 C43.9646673,5.73599776 44.1629987,5.34400168 44.429,5.008 C44.6950013,4.67199832 45.0216647,4.40600098 45.409,4.21 C45.7963353,4.01399902 46.2513307,3.916 46.774,3.916 C47.2780025,3.916 47.7166648,4.01166571 48.09,4.203 C48.4633352,4.39433429 48.7736654,4.65099839 49.021,4.973 C49.2683346,5.29500161 49.4549994,5.66833121 49.581,6.093 C49.7070006,6.51766879 49.77,6.96799762 49.77,7.444 C49.77,7.54666718 49.7676667,7.62599972 49.763,7.682 C49.7583333,7.73800028 49.756,7.78466648 49.756,7.822 L44.828,7.822 Z M46.76,4.798 C46.1719971,4.798 45.7170016,5.0079979 45.395,5.428 C45.0729984,5.8480021 44.8886669,6.41266312 44.842,7.122 L48.58,7.122 C48.58,6.83266522 48.5473337,6.55033471 48.482,6.275 C48.4166663,5.99966529 48.3093341,5.75233443 48.16,5.533 C48.0106659,5.31366557 47.8216678,5.13633401 47.593,5.001 C47.3643322,4.86566599 47.0866683,4.798 46.76,4.798 Z M51.184,4.112 L52.192,4.112 L52.318,5.484 C52.4953342,5.0639979 52.7776647,4.69766823 53.165,4.385 C53.5523353,4.07233177 54.0306638,3.916 54.6,3.916 C55.3186703,3.916 55.8483316,4.14466438 56.189,4.602 C56.5296684,5.05933562 56.7,5.69866256 56.7,6.52 L56.7,11 L55.538,11 L55.538,6.758 C55.538,6.13266354 55.4120013,5.67300147 55.16,5.379 C54.9079987,5.08499853 54.5673355,4.938 54.138,4.938 C53.6246641,4.938 53.1976684,5.1479979 52.857,5.568 C52.5163316,5.9880021 52.346,6.58066284 52.346,7.346 L52.346,11 L51.184,11 L51.184,4.112 Z M59.066,4.91 L57.89,4.91 L57.89,4.112 L58.142,4.112 C58.4313348,4.112 58.6576659,4.08166697 58.821,4.021 C58.9843342,3.96033303 59.1079996,3.86700063 59.192,3.741 C59.2760004,3.61499937 59.3366665,3.44933436 59.374,3.244 C59.4113335,3.03866564 59.4439999,2.78666816 59.472,2.488 L59.5,2.236 L60.228,2.236 L60.228,4.112 L61.712,4.112 L61.712,4.91 L60.228,4.91 L60.228,9.194 C60.228,9.58600196 60.2863327,9.86833247 60.403,10.041 C60.5196673,10.2136675 60.7366651,10.3 61.054,10.3 C61.3060013,10.3 61.5393323,10.2440006 61.754,10.132 L61.88,10.972 C61.5253316,11.1306675 61.1333355,11.21 60.704,11.21 C60.3679983,11.21 60.0950011,11.1633338 59.885,11.07 C59.674999,10.9766662 59.5093339,10.8506675 59.388,10.692 C59.2666661,10.5333325 59.1826669,10.3420011 59.136,10.118 C59.0893331,9.89399888 59.066,9.65133464 59.066,9.39 L59.066,4.91 Z" id="Statement" fill="#4C5358"></path>
                    <path d="M90.244,62.146 C90.5240014,61.9593324 90.8389982,61.7353346 91.189,61.474 C91.5390017,61.2126654 91.8913316,60.9256682 92.246,60.613 C92.6006684,60.3003318 92.943665,59.9690017 93.275,59.619 C93.606335,59.2689982 93.900332,58.9050019 94.157,58.527 C94.4136679,58.1489981 94.6213325,57.764002 94.78,57.372 C94.9386675,56.979998 95.018,56.588002 95.018,56.196 C95.018,55.6453306 94.8756681,55.1903351 94.591,54.831 C94.3063319,54.4716649 93.8746696,54.292 93.296,54.292 C92.7733307,54.292 92.3556682,54.4553317 92.043,54.782 C91.7303318,55.1086683 91.5226672,55.5146642 91.42,56 L90.314,55.734 C90.5566679,54.9779962 90.9299975,54.404002 91.434,54.012 C91.9380025,53.619998 92.6006626,53.424 93.422,53.424 C93.814002,53.424 94.1849982,53.4799994 94.535,53.592 C94.8850017,53.7040006 95.1906654,53.8719989 95.452,54.096 C95.7133346,54.3200011 95.9186659,54.6023316 96.068,54.943 C96.2173341,55.2836684 96.292,55.6826644 96.292,56.14 C96.292,56.7560031 96.1403348,57.3509971 95.837,57.925 C95.5336651,58.4990029 95.1580022,59.0403308 94.71,59.549 C94.2619978,60.0576692 93.7766693,60.5243312 93.254,60.949 C92.7313307,61.3736688 92.2506689,61.7353318 91.812,62.034 L96.544,62.034 L96.544,63 L90.244,63 L90.244,62.146 Z M101.36,62.216 C101.789335,62.216 102.141665,62.0830013 102.417,61.817 C102.692335,61.5509987 102.906999,61.2196686 103.061,60.823 C103.215001,60.4263313 103.322333,60.0016689 103.383,59.549 C103.443667,59.0963311 103.474,58.6833352 103.474,58.31 C103.474,57.9459982 103.443667,57.5353356 103.383,57.078 C103.322333,56.6206644 103.215001,56.1936686 103.061,55.797 C102.906999,55.4003313 102.692335,55.066668 102.417,54.796 C102.141665,54.525332 101.789335,54.39 101.36,54.39 C100.939998,54.39 100.594668,54.518332 100.324,54.775 C100.053332,55.0316679 99.8363341,55.3489981 99.673,55.727 C99.5096658,56.1050019 99.397667,56.5133311 99.337,56.952 C99.276333,57.3906689 99.246,57.7966648 99.246,58.17 C99.246,58.5526686 99.2716664,58.977331 99.323,59.444 C99.3743336,59.910669 99.4769992,60.3493313 99.631,60.76 C99.7850008,61.1706687 99.9996653,61.5159986 100.275,61.796 C100.550335,62.0760014 100.911998,62.216 101.36,62.216 Z M101.36,63.21 C100.743997,63.2006666 100.216669,63.0466682 99.778,62.748 C99.3393311,62.4493318 98.984668,62.066669 98.714,61.6 C98.443332,61.133331 98.2450006,60.6106696 98.119,60.032 C97.9929994,59.4533304 97.93,58.8793362 97.93,58.31 C97.93,57.7406638 97.9929994,57.1643362 98.119,56.581 C98.2450006,55.9976637 98.4456653,55.472669 98.721,55.006 C98.9963347,54.539331 99.3533311,54.1566682 99.792,53.858 C100.230669,53.5593318 100.76733,53.41 101.402,53.41 C102.027336,53.41 102.556998,53.5593318 102.991,53.858 C103.425002,54.1566682 103.774999,54.539331 104.041,55.006 C104.307001,55.472669 104.498333,55.9953304 104.615,56.574 C104.731667,57.1526696 104.79,57.7266638 104.79,58.296 C104.79,58.8560028 104.731667,59.4253304 104.615,60.004 C104.498333,60.5826696 104.307001,61.1076643 104.041,61.579 C103.774999,62.0503357 103.422669,62.4376651 102.984,62.741 C102.545331,63.0443348 102.004003,63.2006666 101.36,63.21 Z M109.34,62.216 C109.769335,62.216 110.121665,62.0830013 110.397,61.817 C110.672335,61.5509987 110.886999,61.2196686 111.041,60.823 C111.195001,60.4263313 111.302333,60.0016689 111.363,59.549 C111.423667,59.0963311 111.454,58.6833352 111.454,58.31 C111.454,57.9459982 111.423667,57.5353356 111.363,57.078 C111.302333,56.6206644 111.195001,56.1936686 111.041,55.797 C110.886999,55.4003313 110.672335,55.066668 110.397,54.796 C110.121665,54.525332 109.769335,54.39 109.34,54.39 C108.919998,54.39 108.574668,54.518332 108.304,54.775 C108.033332,55.0316679 107.816334,55.3489981 107.653,55.727 C107.489666,56.1050019 107.377667,56.5133311 107.317,56.952 C107.256333,57.3906689 107.226,57.7966648 107.226,58.17 C107.226,58.5526686 107.251666,58.977331 107.303,59.444 C107.354334,59.910669 107.456999,60.3493313 107.611,60.76 C107.765001,61.1706687 107.979665,61.5159986 108.255,61.796 C108.530335,62.0760014 108.891998,62.216 109.34,62.216 Z M109.34,63.21 C108.723997,63.2006666 108.196669,63.0466682 107.758,62.748 C107.319331,62.4493318 106.964668,62.066669 106.694,61.6 C106.423332,61.133331 106.225001,60.6106696 106.099,60.032 C105.972999,59.4533304 105.91,58.8793362 105.91,58.31 C105.91,57.7406638 105.972999,57.1643362 106.099,56.581 C106.225001,55.9976637 106.425665,55.472669 106.701,55.006 C106.976335,54.539331 107.333331,54.1566682 107.772,53.858 C108.210669,53.5593318 108.74733,53.41 109.382,53.41 C110.007336,53.41 110.536998,53.5593318 110.971,53.858 C111.405002,54.1566682 111.754999,54.539331 112.021,55.006 C112.287001,55.472669 112.478333,55.9953304 112.595,56.574 C112.711667,57.1526696 112.77,57.7266638 112.77,58.296 C112.77,58.8560028 112.711667,59.4253304 112.595,60.004 C112.478333,60.5826696 112.287001,61.1076643 112.021,61.579 C111.754999,62.0503357 111.402669,62.4376651 110.964,62.741 C110.525331,63.0443348 109.984003,63.2006666 109.34,63.21 Z M118.062,53.116 L119.084,53.116 L115.024,63 L113.974,63 L118.062,53.116 Z M120.554,62.146 C120.834001,61.9593324 121.148998,61.7353346 121.499,61.474 C121.849002,61.2126654 122.201332,60.9256682 122.556,60.613 C122.910668,60.3003318 123.253665,59.9690017 123.585,59.619 C123.916335,59.2689982 124.210332,58.9050019 124.467,58.527 C124.723668,58.1489981 124.931333,57.764002 125.09,57.372 C125.248667,56.979998 125.328,56.588002 125.328,56.196 C125.328,55.6453306 125.185668,55.1903351 124.901,54.831 C124.616332,54.4716649 124.18467,54.292 123.606,54.292 C123.083331,54.292 122.665668,54.4553317 122.353,54.782 C122.040332,55.1086683 121.832667,55.5146642 121.73,56 L120.624,55.734 C120.866668,54.9779962 121.239997,54.404002 121.744,54.012 C122.248003,53.619998 122.910663,53.424 123.732,53.424 C124.124002,53.424 124.494998,53.4799994 124.845,53.592 C125.195002,53.7040006 125.500665,53.8719989 125.762,54.096 C126.023335,54.3200011 126.228666,54.6023316 126.378,54.943 C126.527334,55.2836684 126.602,55.6826644 126.602,56.14 C126.602,56.7560031 126.450335,57.3509971 126.147,57.925 C125.843665,58.4990029 125.468002,59.0403308 125.02,59.549 C124.571998,60.0576692 124.086669,60.5243312 123.564,60.949 C123.041331,61.3736688 122.560669,61.7353318 122.122,62.034 L126.854,62.034 L126.854,63 L120.554,63 L120.554,62.146 Z M131.67,62.216 C132.099335,62.216 132.451665,62.0830013 132.727,61.817 C133.002335,61.5509987 133.216999,61.2196686 133.371,60.823 C133.525001,60.4263313 133.632333,60.0016689 133.693,59.549 C133.753667,59.0963311 133.784,58.6833352 133.784,58.31 C133.784,57.9459982 133.753667,57.5353356 133.693,57.078 C133.632333,56.6206644 133.525001,56.1936686 133.371,55.797 C133.216999,55.4003313 133.002335,55.066668 132.727,54.796 C132.451665,54.525332 132.099335,54.39 131.67,54.39 C131.249998,54.39 130.904668,54.518332 130.634,54.775 C130.363332,55.0316679 130.146334,55.3489981 129.983,55.727 C129.819666,56.1050019 129.707667,56.5133311 129.647,56.952 C129.586333,57.3906689 129.556,57.7966648 129.556,58.17 C129.556,58.5526686 129.581666,58.977331 129.633,59.444 C129.684334,59.910669 129.786999,60.3493313 129.941,60.76 C130.095001,61.1706687 130.309665,61.5159986 130.585,61.796 C130.860335,62.0760014 131.221998,62.216 131.67,62.216 Z M131.67,63.21 C131.053997,63.2006666 130.526669,63.0466682 130.088,62.748 C129.649331,62.4493318 129.294668,62.066669 129.024,61.6 C128.753332,61.133331 128.555001,60.6106696 128.429,60.032 C128.302999,59.4533304 128.24,58.8793362 128.24,58.31 C128.24,57.7406638 128.302999,57.1643362 128.429,56.581 C128.555001,55.9976637 128.755665,55.472669 129.031,55.006 C129.306335,54.539331 129.663331,54.1566682 130.102,53.858 C130.540669,53.5593318 131.07733,53.41 131.712,53.41 C132.337336,53.41 132.866998,53.5593318 133.301,53.858 C133.735002,54.1566682 134.084999,54.539331 134.351,55.006 C134.617001,55.472669 134.808333,55.9953304 134.925,56.574 C135.041667,57.1526696 135.1,57.7266638 135.1,58.296 C135.1,58.8560028 135.041667,59.4253304 134.925,60.004 C134.808333,60.5826696 134.617001,61.1076643 134.351,61.579 C134.084999,62.0503357 133.732669,62.4376651 133.294,62.741 C132.855331,63.0443348 132.314003,63.2006666 131.67,63.21 Z M139.65,62.216 C140.079335,62.216 140.431665,62.0830013 140.707,61.817 C140.982335,61.5509987 141.196999,61.2196686 141.351,60.823 C141.505001,60.4263313 141.612333,60.0016689 141.673,59.549 C141.733667,59.0963311 141.764,58.6833352 141.764,58.31 C141.764,57.9459982 141.733667,57.5353356 141.673,57.078 C141.612333,56.6206644 141.505001,56.1936686 141.351,55.797 C141.196999,55.4003313 140.982335,55.066668 140.707,54.796 C140.431665,54.525332 140.079335,54.39 139.65,54.39 C139.229998,54.39 138.884668,54.518332 138.614,54.775 C138.343332,55.0316679 138.126334,55.3489981 137.963,55.727 C137.799666,56.1050019 137.687667,56.5133311 137.627,56.952 C137.566333,57.3906689 137.536,57.7966648 137.536,58.17 C137.536,58.5526686 137.561666,58.977331 137.613,59.444 C137.664334,59.910669 137.766999,60.3493313 137.921,60.76 C138.075001,61.1706687 138.289665,61.5159986 138.565,61.796 C138.840335,62.0760014 139.201998,62.216 139.65,62.216 Z M139.65,63.21 C139.033997,63.2006666 138.506669,63.0466682 138.068,62.748 C137.629331,62.4493318 137.274668,62.066669 137.004,61.6 C136.733332,61.133331 136.535001,60.6106696 136.409,60.032 C136.282999,59.4533304 136.22,58.8793362 136.22,58.31 C136.22,57.7406638 136.282999,57.1643362 136.409,56.581 C136.535001,55.9976637 136.735665,55.472669 137.011,55.006 C137.286335,54.539331 137.643331,54.1566682 138.082,53.858 C138.520669,53.5593318 139.05733,53.41 139.692,53.41 C140.317336,53.41 140.846998,53.5593318 141.281,53.858 C141.715002,54.1566682 142.064999,54.539331 142.331,55.006 C142.597001,55.472669 142.788333,55.9953304 142.905,56.574 C143.021667,57.1526696 143.08,57.7266638 143.08,58.296 C143.08,58.8560028 143.021667,59.4253304 142.905,60.004 C142.788333,60.5826696 142.597001,61.1076643 142.331,61.579 C142.064999,62.0503357 141.712669,62.4376651 141.274,62.741 C140.835331,63.0443348 140.294003,63.2006666 139.65,63.21 Z M153.454,61.488 C153.173999,62.0480028 152.798336,62.4749985 152.327,62.769 C151.855664,63.0630015 151.284003,63.21 150.612,63.21 C150.061331,63.21 149.583002,63.1143343 149.177,62.923 C148.770998,62.7316657 148.435001,62.4726683 148.169,62.146 C147.902999,61.8193317 147.707001,61.4343355 147.581,60.991 C147.454999,60.5476644 147.392,60.0740025 147.392,59.57 C147.392,59.0566641 147.459666,58.5783355 147.595,58.135 C147.730334,57.6916644 147.930999,57.3066683 148.197,56.98 C148.463001,56.6533317 148.796665,56.3943343 149.198,56.203 C149.599335,56.0116657 150.070664,55.916 150.612,55.916 C151.293337,55.916 151.860331,56.0676651 152.313,56.371 C152.765669,56.6743348 153.131999,57.1013306 153.412,57.652 L152.432,58.114 C152.077332,57.255329 151.480004,56.826 150.64,56.826 C150.285332,56.826 149.979668,56.8959993 149.723,57.036 C149.466332,57.1760007 149.256334,57.3673321 149.093,57.61 C148.929666,57.8526679 148.808334,58.1349984 148.729,58.457 C148.649666,58.7790016 148.61,59.1266648 148.61,59.5 C148.61,59.8546684 148.647333,60.1999983 148.722,60.536 C148.796667,60.8720017 148.917999,61.1706654 149.086,61.432 C149.254001,61.6933346 149.468665,61.9033325 149.73,62.062 C149.991335,62.2206675 150.313331,62.3 150.696,62.3 C151.181336,62.3 151.573332,62.1763346 151.872,61.929 C152.170668,61.6816654 152.399333,61.362002 152.558,60.97 L153.454,61.488 Z M154.742,53.116 L155.904,53.116 L155.904,57.47 C155.988,57.2646656 156.095333,57.0686676 156.226,56.882 C156.356667,56.6953324 156.515332,56.5296674 156.702,56.385 C156.888668,56.2403326 157.103332,56.1260004 157.346,56.042 C157.588668,55.9579996 157.859332,55.916 158.158,55.916 C158.87667,55.916 159.406332,56.1516643 159.747,56.623 C160.087668,57.0943357 160.258,57.7313293 160.258,58.534 L160.258,63 L159.096,63 L159.096,58.716 C159.096,58.1279971 158.974668,57.6870015 158.732,57.393 C158.489332,57.0989985 158.144002,56.952 157.696,56.952 C157.434665,56.952 157.194334,57.0079994 156.975,57.12 C156.755666,57.2320006 156.566667,57.3906656 156.408,57.596 C156.249333,57.8013344 156.125667,58.0486652 156.037,58.338 C155.948333,58.6273348 155.904,58.9446649 155.904,59.29 L155.904,63 L154.742,63 L154.742,53.116 Z M166.348,63 C166.245333,62.6639983 166.184667,62.262669 166.166,61.796 C165.979332,62.2253355 165.692335,62.568332 165.305,62.825 C164.917665,63.0816679 164.458003,63.21 163.926,63.21 C163.253997,63.21 162.722002,63.0186686 162.33,62.636 C161.937998,62.2533314 161.742,61.7400032 161.742,61.096 C161.742,60.7319982 161.807333,60.4263346 161.938,60.179 C162.068667,59.9316654 162.250665,59.7263341 162.484,59.563 C162.717334,59.3996658 162.992665,59.2713338 163.31,59.178 C163.627335,59.0846662 163.972665,59.0100003 164.346,58.954 L166.11,58.688 L166.11,58.254 C166.11,57.9459985 166.072667,57.6986676 165.998,57.512 C165.923333,57.3253324 165.820667,57.1806672 165.69,57.078 C165.559333,56.9753328 165.410001,56.9076668 165.242,56.875 C165.073999,56.8423332 164.896668,56.826 164.71,56.826 C164.177997,56.826 163.739335,56.923999 163.394,57.12 C163.048665,57.316001 162.759334,57.5633318 162.526,57.862 L161.924,57.106 C162.194668,56.7793317 162.570331,56.4993345 163.051,56.266 C163.531669,56.0326655 164.126663,55.916 164.836,55.916 C165.694671,55.916 166.317665,56.1073314 166.705,56.49 C167.092335,56.8726686 167.286,57.4886624 167.286,58.338 L167.286,61.124 C167.286,61.3480011 167.288333,61.5439992 167.293,61.712 C167.297667,61.8800008 167.307,62.0363326 167.321,62.181 C167.335,62.3256674 167.356,62.4633327 167.384,62.594 C167.412,62.7246673 167.449333,62.8599993 167.496,63 L166.348,63 Z M166.11,59.458 L164.458,59.724 C163.888664,59.8266672 163.485001,59.9806656 163.247,60.186 C163.008999,60.3913344 162.89,60.6759982 162.89,61.04 C162.89,61.4133352 162.999666,61.7259987 163.219,61.978 C163.438334,62.2300013 163.762665,62.356 164.192,62.356 C164.453335,62.356 164.700666,62.3046672 164.934,62.202 C165.167334,62.0993328 165.370332,61.9570009 165.543,61.775 C165.715668,61.5929991 165.853333,61.3736679 165.956,61.117 C166.058667,60.860332 166.11,60.5780015 166.11,60.27 L166.11,59.458 Z M169.148,56.112 L170.156,56.112 L170.268,57.652 C170.464001,57.1479975 170.776665,56.7326683 171.206,56.406 C171.635335,56.0793317 172.143997,55.916 172.732,55.916 L172.732,57.148 C172.601333,57.1199999 172.456667,57.106 172.298,57.106 C172.064665,57.106 171.831335,57.1479996 171.598,57.232 C171.364666,57.3160004 171.152334,57.4513324 170.961,57.638 C170.769666,57.8246676 170.613334,58.0649985 170.492,58.359 C170.370666,58.6530015 170.31,59.0099979 170.31,59.43 L170.31,63 L169.148,63 L169.148,56.112 Z M178.206,63 C178.103333,62.6639983 178.042667,62.262669 178.024,61.796 C177.837332,62.2253355 177.550335,62.568332 177.163,62.825 C176.775665,63.0816679 176.316003,63.21 175.784,63.21 C175.111997,63.21 174.580002,63.0186686 174.188,62.636 C173.795998,62.2533314 173.6,61.7400032 173.6,61.096 C173.6,60.7319982 173.665333,60.4263346 173.796,60.179 C173.926667,59.9316654 174.108666,59.7263341 174.342,59.563 C174.575334,59.3996658 174.850665,59.2713338 175.168,59.178 C175.485335,59.0846662 175.830665,59.0100003 176.204,58.954 L177.968,58.688 L177.968,58.254 C177.968,57.9459985 177.930667,57.6986676 177.856,57.512 C177.781333,57.3253324 177.678667,57.1806672 177.548,57.078 C177.417333,56.9753328 177.268001,56.9076668 177.1,56.875 C176.931999,56.8423332 176.754668,56.826 176.568,56.826 C176.035997,56.826 175.597335,56.923999 175.252,57.12 C174.906665,57.316001 174.617335,57.5633318 174.384,57.862 L173.782,57.106 C174.052668,56.7793317 174.428331,56.4993345 174.909,56.266 C175.389669,56.0326655 175.984663,55.916 176.694,55.916 C177.552671,55.916 178.175665,56.1073314 178.563,56.49 C178.950335,56.8726686 179.144,57.4886624 179.144,58.338 L179.144,61.124 C179.144,61.3480011 179.146333,61.5439992 179.151,61.712 C179.155667,61.8800008 179.165,62.0363326 179.179,62.181 C179.193,62.3256674 179.214,62.4633327 179.242,62.594 C179.27,62.7246673 179.307333,62.8599993 179.354,63 L178.206,63 Z M177.968,59.458 L176.316,59.724 C175.746664,59.8266672 175.343001,59.9806656 175.105,60.186 C174.866999,60.3913344 174.748,60.6759982 174.748,61.04 C174.748,61.4133352 174.857666,61.7259987 175.077,61.978 C175.296334,62.2300013 175.620665,62.356 176.05,62.356 C176.311335,62.356 176.558666,62.3046672 176.792,62.202 C177.025334,62.0993328 177.228332,61.9570009 177.401,61.775 C177.573668,61.5929991 177.711333,61.3736679 177.814,61.117 C177.916667,60.860332 177.968,60.5780015 177.968,60.27 L177.968,59.458 Z M186.76,61.488 C186.479999,62.0480028 186.104336,62.4749985 185.633,62.769 C185.161664,63.0630015 184.590003,63.21 183.918,63.21 C183.367331,63.21 182.889002,63.1143343 182.483,62.923 C182.076998,62.7316657 181.741001,62.4726683 181.475,62.146 C181.208999,61.8193317 181.013001,61.4343355 180.887,60.991 C180.760999,60.5476644 180.698,60.0740025 180.698,59.57 C180.698,59.0566641 180.765666,58.5783355 180.901,58.135 C181.036334,57.6916644 181.236999,57.3066683 181.503,56.98 C181.769001,56.6533317 182.102665,56.3943343 182.504,56.203 C182.905335,56.0116657 183.376664,55.916 183.918,55.916 C184.599337,55.916 185.166331,56.0676651 185.619,56.371 C186.071669,56.6743348 186.437999,57.1013306 186.718,57.652 L185.738,58.114 C185.383332,57.255329 184.786004,56.826 183.946,56.826 C183.591332,56.826 183.285668,56.8959993 183.029,57.036 C182.772332,57.1760007 182.562334,57.3673321 182.399,57.61 C182.235666,57.8526679 182.114334,58.1349984 182.035,58.457 C181.955666,58.7790016 181.916,59.1266648 181.916,59.5 C181.916,59.8546684 181.953333,60.1999983 182.028,60.536 C182.102667,60.8720017 182.223999,61.1706654 182.392,61.432 C182.560001,61.6933346 182.774665,61.9033325 183.036,62.062 C183.297335,62.2206675 183.619331,62.3 184.002,62.3 C184.487336,62.3 184.879332,62.1763346 185.178,61.929 C185.476668,61.6816654 185.705333,61.362002 185.864,60.97 L186.76,61.488 Z M188.65,56.91 L187.474,56.91 L187.474,56.112 L187.726,56.112 C188.015335,56.112 188.241666,56.081667 188.405,56.021 C188.568334,55.960333 188.692,55.8670006 188.776,55.741 C188.86,55.6149994 188.920666,55.4493344 188.958,55.244 C188.995334,55.0386656 189.028,54.7866682 189.056,54.488 L189.084,54.236 L189.812,54.236 L189.812,56.112 L191.296,56.112 L191.296,56.91 L189.812,56.91 L189.812,61.194 C189.812,61.586002 189.870333,61.8683325 189.987,62.041 C190.103667,62.2136675 190.320665,62.3 190.638,62.3 C190.890001,62.3 191.123332,62.2440006 191.338,62.132 L191.464,62.972 C191.109332,63.1306675 190.717335,63.21 190.288,63.21 C189.951998,63.21 189.679001,63.1633338 189.469,63.07 C189.258999,62.9766662 189.093334,62.8506675 188.972,62.692 C188.850666,62.5333325 188.766667,62.3420011 188.72,62.118 C188.673333,61.8939989 188.65,61.6513346 188.65,61.39 L188.65,56.91 Z M193.578,59.822 C193.624667,60.6153373 193.827665,61.2289978 194.187,61.663 C194.546335,62.0970022 195.047997,62.314 195.692,62.314 C196.504004,62.314 197.115331,61.9313372 197.526,61.166 L198.408,61.656 C198.137332,62.1133356 197.778002,62.4866652 197.33,62.776 C196.881998,63.0653348 196.317337,63.21 195.636,63.21 C195.094664,63.21 194.621002,63.1166676 194.215,62.93 C193.808998,62.7433324 193.470668,62.4866683 193.2,62.16 C192.929332,61.8333317 192.726334,61.4506689 192.591,61.012 C192.455666,60.5733311 192.388,60.1020025 192.388,59.598 C192.388,59.1033309 192.453333,58.6320022 192.584,58.184 C192.714667,57.7359978 192.912999,57.3440017 193.179,57.008 C193.445001,56.6719983 193.771665,56.406001 194.159,56.21 C194.546335,56.013999 195.001331,55.916 195.524,55.916 C196.028003,55.916 196.466665,56.0116657 196.84,56.203 C197.213335,56.3943343 197.523665,56.6509984 197.771,56.973 C198.018335,57.2950016 198.204999,57.6683312 198.331,58.093 C198.457001,58.5176688 198.52,58.9679976 198.52,59.444 C198.52,59.5466672 198.517667,59.6259997 198.513,59.682 C198.508333,59.7380003 198.506,59.7846665 198.506,59.822 L193.578,59.822 Z M195.51,56.798 C194.921997,56.798 194.467002,57.0079979 194.145,57.428 C193.822998,57.8480021 193.638667,58.4126631 193.592,59.122 L197.33,59.122 C197.33,58.8326652 197.297334,58.5503347 197.232,58.275 C197.166666,57.9996653 197.059334,57.7523344 196.91,57.533 C196.760666,57.3136656 196.571668,57.136334 196.343,57.001 C196.114332,56.865666 195.836668,56.798 195.51,56.798 Z M199.934,56.112 L200.942,56.112 L201.054,57.652 C201.250001,57.1479975 201.562665,56.7326683 201.992,56.406 C202.421335,56.0793317 202.929997,55.916 203.518,55.916 L203.518,57.148 C203.387333,57.1199999 203.242667,57.106 203.084,57.106 C202.850665,57.106 202.617335,57.1479996 202.384,57.232 C202.150666,57.3160004 201.938334,57.4513324 201.747,57.638 C201.555666,57.8246676 201.399334,58.0649985 201.278,58.359 C201.156666,58.6530015 201.096,59.0099979 201.096,59.43 L201.096,63 L199.934,63 L199.934,56.112 Z M204.792,61.306 C205.025334,61.6046682 205.326331,61.851999 205.695,62.048 C206.063669,62.244001 206.467331,62.342 206.906,62.342 C207.298002,62.342 207.638665,62.2486676 207.928,62.062 C208.217335,61.8753324 208.362,61.5953352 208.362,61.222 C208.362,60.9326652 208.266334,60.7063341 208.075,60.543 C207.883666,60.3796658 207.645668,60.2420006 207.361,60.13 C207.076332,60.0179994 206.766002,59.9153338 206.43,59.822 C206.093998,59.7286662 205.783668,59.6073341 205.499,59.458 C205.214332,59.3086659 204.976334,59.1126679 204.785,58.87 C204.593666,58.6273321 204.498,58.2960021 204.498,57.876 C204.498,57.5306649 204.567999,57.2343346 204.708,56.987 C204.848001,56.7396654 205.032332,56.5366675 205.261,56.378 C205.489668,56.2193325 205.753332,56.102667 206.052,56.028 C206.350668,55.953333 206.663332,55.916 206.99,55.916 C207.960672,55.916 208.767997,56.1959972 209.412,56.756 L208.824,57.54 C208.618666,57.3253323 208.345668,57.1456674 208.005,57.001 C207.664332,56.8563326 207.312002,56.784 206.948,56.784 C206.789333,56.784 206.633001,56.8026665 206.479,56.84 C206.324999,56.8773335 206.189667,56.9356663 206.073,57.015 C205.956333,57.0943337 205.863,57.1946661 205.793,57.316 C205.723,57.4373339 205.688,57.5866658 205.688,57.764 C205.688,58.034668 205.783666,58.2446659 205.975,58.394 C206.166334,58.5433341 206.404332,58.6716661 206.689,58.779 C206.973668,58.8863339 207.281665,58.9889995 207.613,59.087 C207.944335,59.1850005 208.252332,59.3109992 208.537,59.465 C208.821668,59.6190008 209.059666,59.8219987 209.251,60.074 C209.442334,60.3260013 209.538,60.6619979 209.538,61.082 C209.538,61.4366684 209.465667,61.7469987 209.321,62.013 C209.176333,62.2790013 208.985001,62.5006658 208.747,62.678 C208.508999,62.8553342 208.233668,62.9883329 207.921,63.077 C207.608332,63.1656671 207.284002,63.21 206.948,63.21 C205.790661,63.21 204.871337,62.8366704 204.19,62.09 L204.792,61.306 Z" id="200/200-characters" fill="#4C5358"></path>
                    <path d="M0,41.5 L210,41.5" id="Line" stroke="#7C878E" stroke-linecap="square"></path>
                    <path d="M1.12,21.704 L2.8,21.704 C3.79200496,23.4213419 4.73599552,25.0479923 5.632,26.584 C6.52800448,28.1200077 7.38132928,29.6186594 8.192,31.08 C8.14933312,29.479992 8.13066664,27.909341 8.136,26.368 C8.14133336,24.826659 8.13866672,23.2720078 8.128,21.704 L9.488,21.704 L9.488,33 L7.824,33 C7.36533104,32.2106627 6.89866904,31.4053374 6.424,30.584 C5.94933096,29.7626626 5.47733568,28.9493374 5.008,28.144 C4.53866432,27.3386626 4.08533552,26.5520038 3.648,25.784 C3.21066448,25.0159962 2.8053352,24.2960034 2.432,23.624 C2.46400016,25.2346747 2.48,26.8079923 2.48,28.344 C2.48,29.8800077 2.48533328,31.4319922 2.496,33 L1.12,33 L1.12,21.704 Z M12.656,29.368 C12.7093336,30.2746712 12.9413313,30.9759975 13.352,31.472 C13.7626687,31.9680025 14.3359963,32.216 15.072,32.216 C16.0000046,32.216 16.6986643,31.778671 17.168,30.904 L18.176,31.464 C17.8666651,31.9866693 17.4560026,32.4133317 16.944,32.744 C16.4319974,33.0746683 15.7866706,33.24 15.008,33.24 C14.3893302,33.24 13.8480023,33.1333344 13.384,32.92 C12.9199977,32.7066656 12.5333349,32.4133352 12.224,32.04 C11.9146651,31.6666648 11.6826674,31.2293358 11.528,30.728 C11.3733326,30.2266642 11.296,29.6880029 11.296,29.112 C11.296,28.5466638 11.3706659,28.0080026 11.52,27.496 C11.6693341,26.9839974 11.8959985,26.5360019 12.2,26.152 C12.5040015,25.7679981 12.8773311,25.4640011 13.32,25.24 C13.7626689,25.0159989 14.2826637,24.904 14.88,24.904 C15.4560029,24.904 15.9573312,25.0133322 16.384,25.232 C16.8106688,25.4506678 17.1653319,25.7439982 17.448,26.112 C17.7306681,26.4800018 17.9439993,26.9066642 18.088,27.392 C18.2320007,27.8773358 18.304,28.3919973 18.304,28.936 C18.304,29.0533339 18.3013334,29.1439997 18.296,29.208 C18.2906666,29.2720003 18.288,29.3253331 18.288,29.368 L12.656,29.368 Z M14.864,25.912 C14.1919966,25.912 13.6720018,26.1519976 13.304,26.632 C12.9359982,27.1120024 12.7253336,27.7573293 12.672,28.568 L16.944,28.568 C16.944,28.2373317 16.906667,27.9146682 16.832,27.6 C16.757333,27.2853318 16.6346675,27.0026679 16.464,26.752 C16.2933325,26.5013321 16.0773346,26.2986674 15.816,26.144 C15.5546654,25.9893326 15.2373352,25.912 14.864,25.912 Z M19.312,25.128 L20.816,25.128 L22.736,31.752 L24.64,25.128 L26.08,25.128 L23.488,33 L21.888,33 L19.312,25.128 Z M28.512,29.368 C28.5653336,30.2746712 28.7973313,30.9759975 29.208,31.472 C29.6186687,31.9680025 30.1919963,32.216 30.928,32.216 C31.8560046,32.216 32.5546643,31.778671 33.024,30.904 L34.032,31.464 C33.7226651,31.9866693 33.3120026,32.4133317 32.8,32.744 C32.2879974,33.0746683 31.6426706,33.24 30.864,33.24 C30.2453302,33.24 29.7040023,33.1333344 29.24,32.92 C28.7759977,32.7066656 28.3893349,32.4133352 28.08,32.04 C27.7706651,31.6666648 27.5386674,31.2293358 27.384,30.728 C27.2293326,30.2266642 27.152,29.6880029 27.152,29.112 C27.152,28.5466638 27.2266659,28.0080026 27.376,27.496 C27.5253341,26.9839974 27.7519985,26.5360019 28.056,26.152 C28.3600015,25.7679981 28.7333311,25.4640011 29.176,25.24 C29.6186689,25.0159989 30.1386637,24.904 30.736,24.904 C31.3120029,24.904 31.8133312,25.0133322 32.24,25.232 C32.6666688,25.4506678 33.0213319,25.7439982 33.304,26.112 C33.5866681,26.4800018 33.7999993,26.9066642 33.944,27.392 C34.0880007,27.8773358 34.16,28.3919973 34.16,28.936 C34.16,29.0533339 34.1573334,29.1439997 34.152,29.208 C34.1466666,29.2720003 34.144,29.3253331 34.144,29.368 L28.512,29.368 Z M30.72,25.912 C30.0479966,25.912 29.5280018,26.1519976 29.16,26.632 C28.7919982,27.1120024 28.5813336,27.7573293 28.528,28.568 L32.8,28.568 C32.8,28.2373317 32.762667,27.9146682 32.688,27.6 C32.613333,27.2853318 32.4906675,27.0026679 32.32,26.752 C32.1493325,26.5013321 31.9333346,26.2986674 31.672,26.144 C31.4106654,25.9893326 31.0933352,25.912 30.72,25.912 Z M35.776,25.128 L36.928,25.128 L37.056,26.888 C37.2800011,26.3119971 37.6373309,25.8373352 38.128,25.464 C38.6186691,25.0906648 39.1999966,24.904 39.872,24.904 L39.872,26.312 C39.7226659,26.2799998 39.5573342,26.264 39.376,26.264 C39.109332,26.264 38.842668,26.3119995 38.576,26.408 C38.309332,26.5040005 38.0666678,26.6586656 37.848,26.872 C37.6293322,27.0853344 37.4506674,27.3599983 37.312,27.696 C37.1733326,28.0320017 37.104,28.4399976 37.104,28.92 L37.104,33 L35.776,33 L35.776,25.128 Z" id="Never" fill="#000000"></path>
                    <path d="M47,36 L47,21.0835661" id="Line" stroke="#7C878E" stroke-linecap="square"></path>
                </g>
            </g>
        </g>
    </g>
</svg>