<?xml version="1.0" encoding="UTF-8"?>
<svg width="322px" height="90px" viewBox="0 0 322 90" version="1.1" xmlns="http://www.w3.org/2000/svg" xmlns:xlink="http://www.w3.org/1999/xlink">
    <!-- Generator: Sketch 47 (45396) - http://www.bohemiancoding.com/sketch -->
    <title>OptionalFields</title>
    <desc>Created with Sketch.</desc>
    <defs></defs>
    <g id="Text-area" stroke="none" stroke-width="1" fill="none" fill-rule="evenodd">
        <g id="Text-area-Usage-extra-large-1200" transform="translate(-337.000000, -2562.000000)">
            <g id="OptionalFields" transform="translate(337.000000, 2562.000000)">
                <g id="Group-11" transform="translate(0.000000, 18.000000)">
                    <g id="Group-2-Copy" transform="translate(1.000000, 10.000000)">
                        <path d="M0,1.5625 L142,1.5625" id="Line" stroke="#7C878E" stroke-linecap="square"></path>
                        <path d="M115.5,11 L141.922886,11 C142.751313,11 143.422886,10.3284271 143.422886,9.5 C143.422886,8.67157288 142.751313,8 141.922886,8 L115.5,8 C114.671573,8 114,8.67157288 114,9.5 C114,10.3284271 114.671573,11 115.5,11 Z" id="Line-Copy" fill="#7C878E" fill-rule="nonzero"></path>
                    </g>
                    <rect id="Rectangle-4" fill="#000000" x="0" y="0" width="75" height="3" rx="1.5"></rect>
                </g>
                <g id="Group-11-Copy-3" transform="translate(0.000000, 69.000000)">
                    <g id="Group-2-Copy" transform="translate(1.000000, 10.000000)">
                        <path d="M0,1.5625 L142,1.5625" id="Line" stroke="#7C878E" stroke-linecap="square"></path>
                        <path d="M115.5,11 L141.922886,11 C142.751313,11 143.422886,10.3284271 143.422886,9.5 C143.422886,8.67157288 142.751313,8 141.922886,8 L115.5,8 C114.671573,8 114,8.67157288 114,9.5 C114,10.3284271 114.671573,11 115.5,11 Z" id="Line-Copy" fill="#7C878E" fill-rule="nonzero"></path>
                    </g>
                    <rect id="Rectangle-4" fill="#000000" x="0" y="0" width="75" height="3" rx="1.5"></rect>
                </g>
                <g id="Group-11-Copy-4" transform="translate(176.000000, 69.000000)">
                    <g id="Group-2-Copy" transform="translate(1.000000, 10.000000)">
                        <path d="M0,1.5625 L142,1.5625" id="Line" stroke="#7C878E" stroke-linecap="square"></path>
                        <path d="M115.5,11 L141.922886,11 C142.751313,11 143.422886,10.3284271 143.422886,9.5 C143.422886,8.67157288 142.751313,8 141.922886,8 L115.5,8 C114.671573,8 114,8.67157288 114,9.5 C114,10.3284271 114.671573,11 115.5,11 Z" id="Line-Copy" fill="#7C878E" fill-rule="nonzero"></path>
                    </g>
                    <rect id="Rectangle-4" fill="#000000" x="0" y="0" width="75" height="3" rx="1.5"></rect>
                </g>
                <g id="Group-11-Copy" transform="translate(177.000000, 18.000000)">
                    <g id="Group-2-Copy" transform="translate(1.000000, 10.000000)">
                        <path d="M0,1.5625 L142,1.5625" id="Line" stroke="#7C878E" stroke-linecap="square"></path>
                        <path d="M117.5,11 L141.922886,11 C142.751313,11 143.422886,10.3284271 143.422886,9.5 C143.422886,8.67157288 142.751313,8 141.922886,8 L117.5,8 C116.671573,8 116,8.67157288 116,9.5 C116,10.3284271 116.671573,11 117.5,11 Z" id="Line-Copy" fill="#7C878E" fill-rule="nonzero"></path>
                    </g>
                    <rect id="Rectangle-4" fill="#000000" x="0" y="0" width="75" height="3" rx="1.5"></rect>
                </g>
                <path d="M176.84,52.528 L177.92,52.528 L177.92,60.16 L181.964,60.16 L181.964,61 L176.84,61 L176.84,52.528 Z M186.848,61 C186.76,60.7119986 186.708,60.368002 186.692,59.968 C186.531999,60.3360018 186.286002,60.6299989 185.954,60.85 C185.621998,61.0700011 185.228002,61.18 184.772,61.18 C184.195997,61.18 183.740002,61.0160016 183.404,60.688 C183.067998,60.3599984 182.9,59.9200028 182.9,59.368 C182.9,59.0559984 182.955999,58.7940011 183.068,58.582 C183.180001,58.3699989 183.335999,58.1940007 183.536,58.054 C183.736001,57.9139993 183.971999,57.8040004 184.244,57.724 C184.516001,57.6439996 184.811998,57.5800002 185.132,57.532 L186.644,57.304 L186.644,56.932 C186.644,56.6679987 186.612,56.4560008 186.548,56.296 C186.484,56.1359992 186.396001,56.0120004 186.284,55.924 C186.171999,55.8359996 186.044001,55.7780001 185.9,55.75 C185.755999,55.7219999 185.604001,55.708 185.444,55.708 C184.987998,55.708 184.612001,55.7919992 184.316,55.96 C184.019999,56.1280008 183.772001,56.3399987 183.572,56.596 L183.056,55.948 C183.288001,55.6679986 183.609998,55.428001 184.022,55.228 C184.434002,55.027999 184.943997,54.928 185.552,54.928 C186.288004,54.928 186.821998,55.0919984 187.154,55.42 C187.486002,55.7480016 187.652,56.2759964 187.652,57.004 L187.652,59.392 C187.652,59.584001 187.654,59.7519993 187.658,59.896 C187.662,60.0400007 187.67,60.1739994 187.682,60.298 C187.694,60.4220006 187.712,60.5399994 187.736,60.652 C187.76,60.7640006 187.792,60.8799994 187.832,61 L186.848,61 Z M186.644,57.964 L185.228,58.192 C184.739998,58.2800004 184.394001,58.4119991 184.19,58.588 C183.985999,58.7640009 183.884,59.0079984 183.884,59.32 C183.884,59.6400016 183.977999,59.9079989 184.166,60.124 C184.354001,60.3400011 184.631998,60.448 185,60.448 C185.224001,60.448 185.435999,60.4040004 185.636,60.316 C185.836001,60.2279996 186.009999,60.1060008 186.158,59.95 C186.306001,59.7939992 186.424,59.6060011 186.512,59.386 C186.6,59.1659989 186.644,58.9240013 186.644,58.66 L186.644,57.964 Z M189.248,52.528 L190.244,52.528 L190.244,56.14 C190.404001,55.8039983 190.641998,55.5180012 190.958,55.282 C191.274002,55.0459988 191.667998,54.928 192.14,54.928 C192.484002,54.928 192.797999,54.9999993 193.082,55.144 C193.366001,55.2880007 193.607999,55.4939987 193.808,55.762 C194.008001,56.0300013 194.161999,56.3519981 194.27,56.728 C194.378001,57.1040019 194.432,57.5239977 194.432,57.988 C194.432,58.4440023 194.378001,58.8659981 194.27,59.254 C194.161999,59.6420019 194.008001,59.9759986 193.808,60.256 C193.607999,60.5360014 193.362001,60.7559992 193.07,60.916 C192.777999,61.0760008 192.448002,61.156 192.08,61.156 C191.647998,61.156 191.264002,61.0460011 190.928,60.826 C190.591998,60.6059989 190.340001,60.292002 190.172,59.884 L190.052,61 L189.248,61 L189.248,52.528 Z M190.244,58.072 C190.244,58.2480009 190.25,58.4059993 190.262,58.546 C190.274,58.6860007 190.288,58.8039995 190.304,58.9 C190.336,59.092001 190.396,59.2759991 190.484,59.452 C190.572,59.6280009 190.679999,59.7819993 190.808,59.914 C190.936001,60.0460007 191.085999,60.1519996 191.258,60.232 C191.430001,60.3120004 191.619999,60.352 191.828,60.352 C192.100001,60.352 192.333999,60.2860007 192.53,60.154 C192.726001,60.0219993 192.887999,59.8480011 193.016,59.632 C193.144001,59.4159989 193.238,59.1700014 193.298,58.894 C193.358,58.6179986 193.388,58.3360014 193.388,58.048 C193.388,57.7519985 193.356,57.4660014 193.292,57.19 C193.228,56.9139986 193.132001,56.6700011 193.004,56.458 C192.875999,56.2459989 192.712001,56.0760006 192.512,55.948 C192.311999,55.8199994 192.076001,55.756 191.804,55.756 C191.587999,55.756 191.394001,55.7939996 191.222,55.87 C191.049999,55.9460004 190.900001,56.0499993 190.772,56.182 C190.643999,56.3140007 190.54,56.4679991 190.46,56.644 C190.38,56.8200009 190.324,57.007999 190.292,57.208 C190.276,57.2880004 190.264,57.3899994 190.256,57.514 C190.248,57.6380006 190.244,57.8119989 190.244,58.036 L190.244,58.072 Z M196.46,58.276 C196.5,58.9560034 196.673998,59.4819981 196.982,59.854 C197.290002,60.2260019 197.719997,60.412 198.272,60.412 C198.968003,60.412 199.491998,60.0840033 199.844,59.428 L200.6,59.848 C200.367999,60.240002 200.060002,60.5599988 199.676,60.808 C199.291998,61.0560012 198.808003,61.18 198.224,61.18 C197.759998,61.18 197.354002,61.1000008 197.006,60.94 C196.657998,60.7799992 196.368001,60.5600014 196.136,60.28 C195.903999,59.9999986 195.730001,59.6720019 195.614,59.296 C195.497999,58.9199981 195.44,58.5160022 195.44,58.084 C195.44,57.6599979 195.495999,57.2560019 195.608,56.872 C195.720001,56.4879981 195.889999,56.1520014 196.118,55.864 C196.346001,55.5759986 196.625998,55.3480008 196.958,55.18 C197.290002,55.0119992 197.679998,54.928 198.128,54.928 C198.560002,54.928 198.935998,55.0099992 199.256,55.174 C199.576002,55.3380008 199.841999,55.5579986 200.054,55.834 C200.266001,56.1100014 200.425999,56.4299982 200.534,56.794 C200.642001,57.1580018 200.696,57.543998 200.696,57.952 C200.696,58.0400004 200.694,58.1079998 200.69,58.156 C200.686,58.2040002 200.684,58.2439998 200.684,58.276 L196.46,58.276 Z M198.116,55.684 C197.611997,55.684 197.222001,55.8639982 196.946,56.224 C196.669999,56.5840018 196.512,57.067997 196.472,57.676 L199.676,57.676 C199.676,57.4279988 199.648,57.1860012 199.592,56.95 C199.536,56.7139988 199.444001,56.5020009 199.316,56.314 C199.187999,56.1259991 199.026001,55.9740006 198.83,55.858 C198.633999,55.7419994 198.396001,55.684 198.116,55.684 Z M201.908,52.528 L202.904,52.528 L202.904,61 L201.908,61 L201.908,52.528 Z M209.468,63.34 C207.787992,61.8439925 206.948,59.992011 206.948,57.784 C206.948,56.7119946 207.161998,55.6920048 207.59,54.724 C208.018002,53.7559952 208.643996,52.9120036 209.468,52.192 L209.888,52.6 C209.223997,53.3520038 208.748001,54.1499958 208.46,54.994 C208.171999,55.8380042 208.028,56.7679949 208.028,57.784 C208.028,58.8240052 208.177999,59.7639958 208.478,60.604 C208.778002,61.4440042 209.247997,62.2279964 209.888,62.956 L209.468,63.34 Z M213.476,61.18 C213.027998,61.18 212.634002,61.0980008 212.294,60.934 C211.953998,60.7699992 211.670001,60.5460014 211.442,60.262 C211.213999,59.9779986 211.044001,59.6460019 210.932,59.266 C210.819999,58.8859981 210.764,58.4760022 210.764,58.036 C210.764,57.5959978 210.821999,57.1880019 210.938,56.812 C211.054001,56.4359981 211.225999,56.1080014 211.454,55.828 C211.682001,55.5479986 211.965998,55.3280008 212.306,55.168 C212.646002,55.0079992 213.035998,54.928 213.476,54.928 C213.916002,54.928 214.305998,55.0079992 214.646,55.168 C214.986002,55.3280008 215.271999,55.5459986 215.504,55.822 C215.736001,56.0980014 215.909999,56.4259981 216.026,56.806 C216.142001,57.1860019 216.2,57.5959978 216.2,58.036 C216.2,58.4760022 216.142001,58.8859981 216.026,59.266 C215.909999,59.6460019 215.736001,59.9779986 215.504,60.262 C215.271999,60.5460014 214.986002,60.7699992 214.646,60.934 C214.305998,61.0980008 213.916002,61.18 213.476,61.18 Z M213.5,60.4 C213.772001,60.4 214.011999,60.3400006 214.22,60.22 C214.428001,60.0999994 214.599999,59.9340011 214.736,59.722 C214.872001,59.5099989 214.976,59.2600014 215.048,58.972 C215.12,58.6839986 215.156,58.3720017 215.156,58.036 C215.156,57.6999983 215.12,57.3900014 215.048,57.106 C214.976,56.8219986 214.868001,56.576001 214.724,56.368 C214.579999,56.159999 214.404001,55.9980006 214.196,55.882 C213.987999,55.7659994 213.748001,55.708 213.476,55.708 C213.195999,55.708 212.952001,55.7659994 212.744,55.882 C212.535999,55.9980006 212.364001,56.159999 212.228,56.368 C212.091999,56.576001 211.988,56.8219986 211.916,57.106 C211.844,57.3900014 211.808,57.6999983 211.808,58.036 C211.808,58.3720017 211.844,58.6839986 211.916,58.972 C211.988,59.2600014 212.093999,59.5099989 212.234,59.722 C212.374001,59.9340011 212.549999,60.0999994 212.762,60.22 C212.974001,60.3400006 213.219999,60.4 213.5,60.4 Z M217.472,55.096 L218.468,55.096 L218.468,56.236 C218.54,56.0679992 218.631999,55.9040008 218.744,55.744 C218.856001,55.5839992 218.989999,55.4440006 219.146,55.324 C219.302001,55.2039994 219.483999,55.1080004 219.692,55.036 C219.900001,54.9639996 220.135999,54.928 220.4,54.928 C220.784002,54.928 221.117999,55.0079992 221.402,55.168 C221.686001,55.3280008 221.919999,55.5479986 222.104,55.828 C222.288001,56.1080014 222.426,56.4339981 222.518,56.806 C222.61,57.1780019 222.656,57.5799978 222.656,58.012 C222.656,58.5240026 222.596001,58.975998 222.476,59.368 C222.355999,59.760002 222.188001,60.0879987 221.972,60.352 C221.755999,60.6160013 221.504001,60.8159993 221.216,60.952 C220.927999,61.0880007 220.616002,61.156 220.28,61.156 C219.839998,61.156 219.462002,61.0480011 219.146,60.832 C218.829998,60.6159989 218.604001,60.3480016 218.468,60.028 L218.468,63.076 L217.472,63.076 L217.472,55.096 Z M218.468,58.084 C218.468,58.2520008 218.474,58.4059993 218.486,58.546 C218.498,58.6860007 218.512,58.8039995 218.528,58.9 C218.56,59.092001 218.62,59.2759991 218.708,59.452 C218.796,59.6280009 218.903999,59.7819993 219.032,59.914 C219.160001,60.0460007 219.309999,60.1519996 219.482,60.232 C219.654001,60.3120004 219.843999,60.352 220.052,60.352 C220.324001,60.352 220.557999,60.2880006 220.754,60.16 C220.950001,60.0319994 221.111999,59.8600011 221.24,59.644 C221.368001,59.4279989 221.462,59.1820014 221.522,58.906 C221.582,58.6299986 221.612,58.3440015 221.612,58.048 C221.612,57.7519985 221.584,57.4660014 221.528,57.19 C221.472,56.9139986 221.382001,56.6700011 221.258,56.458 C221.133999,56.2459989 220.972001,56.0760006 220.772,55.948 C220.571999,55.8199994 220.332001,55.756 220.052,55.756 C219.835999,55.756 219.638001,55.7959996 219.458,55.876 C219.277999,55.9560004 219.124001,56.0639993 218.996,56.2 C218.867999,56.3360007 218.762,56.4919991 218.678,56.668 C218.594,56.8440009 218.54,57.027999 218.516,57.22 C218.5,57.3000004 218.488,57.4099993 218.48,57.55 C218.472,57.6900007 218.468,57.8519991 218.468,58.036 L218.468,58.084 Z M224.444,55.78 L223.436,55.78 L223.436,55.096 L223.652,55.096 C223.900001,55.096 224.093999,55.0700003 224.234,55.018 C224.374001,54.9659997 224.48,54.8860005 224.552,54.778 C224.624,54.6699995 224.676,54.5280009 224.708,54.352 C224.74,54.1759991 224.768,53.9600013 224.792,53.704 L224.816,53.488 L225.44,53.488 L225.44,55.096 L226.712,55.096 L226.712,55.78 L225.44,55.78 L225.44,59.452 C225.44,59.7880017 225.49,60.0299993 225.59,60.178 C225.690001,60.3260007 225.875999,60.4 226.148,60.4 C226.364001,60.4 226.563999,60.3520005 226.748,60.256 L226.856,60.976 C226.551998,61.1120007 226.216002,61.18 225.848,61.18 C225.559999,61.18 225.326001,61.1400004 225.146,61.06 C224.965999,60.9799996 224.824001,60.8720007 224.72,60.736 C224.615999,60.5999993 224.544,60.436001 224.504,60.244 C224.464,60.051999 224.444,59.8440011 224.444,59.62 L224.444,55.78 Z M227.912,52.804 L228.908,52.804 L228.908,53.8 L227.912,53.8 L227.912,52.804 Z M227.912,55.096 L228.908,55.096 L228.908,61 L227.912,61 L227.912,55.096 Z M232.892,61.18 C232.443998,61.18 232.050002,61.0980008 231.71,60.934 C231.369998,60.7699992 231.086001,60.5460014 230.858,60.262 C230.629999,59.9779986 230.460001,59.6460019 230.348,59.266 C230.235999,58.8859981 230.18,58.4760022 230.18,58.036 C230.18,57.5959978 230.237999,57.1880019 230.354,56.812 C230.470001,56.4359981 230.641999,56.1080014 230.87,55.828 C231.098001,55.5479986 231.381998,55.3280008 231.722,55.168 C232.062002,55.0079992 232.451998,54.928 232.892,54.928 C233.332002,54.928 233.721998,55.0079992 234.062,55.168 C234.402002,55.3280008 234.687999,55.5459986 234.92,55.822 C235.152001,56.0980014 235.325999,56.4259981 235.442,56.806 C235.558001,57.1860019 235.616,57.5959978 235.616,58.036 C235.616,58.4760022 235.558001,58.8859981 235.442,59.266 C235.325999,59.6460019 235.152001,59.9779986 234.92,60.262 C234.687999,60.5460014 234.402002,60.7699992 234.062,60.934 C233.721998,61.0980008 233.332002,61.18 232.892,61.18 Z M232.916,60.4 C233.188001,60.4 233.427999,60.3400006 233.636,60.22 C233.844001,60.0999994 234.015999,59.9340011 234.152,59.722 C234.288001,59.5099989 234.392,59.2600014 234.464,58.972 C234.536,58.6839986 234.572,58.3720017 234.572,58.036 C234.572,57.6999983 234.536,57.3900014 234.464,57.106 C234.392,56.8219986 234.284001,56.576001 234.14,56.368 C233.995999,56.159999 233.820001,55.9980006 233.612,55.882 C233.403999,55.7659994 233.164001,55.708 232.892,55.708 C232.611999,55.708 232.368001,55.7659994 232.16,55.882 C231.951999,55.9980006 231.780001,56.159999 231.644,56.368 C231.507999,56.576001 231.404,56.8219986 231.332,57.106 C231.26,57.3900014 231.224,57.6999983 231.224,58.036 C231.224,58.3720017 231.26,58.6839986 231.332,58.972 C231.404,59.2600014 231.509999,59.5099989 231.65,59.722 C231.790001,59.9340011 231.965999,60.0999994 232.178,60.22 C232.390001,60.3400006 232.635999,60.4 232.916,60.4 Z M236.888,55.096 L237.752,55.096 L237.86,56.272 C238.012001,55.9119982 238.253998,55.5980013 238.586,55.33 C238.918002,55.0619987 239.327998,54.928 239.816,54.928 C240.432003,54.928 240.885999,55.123998 241.178,55.516 C241.470001,55.908002 241.616,56.4559965 241.616,57.16 L241.616,61 L240.62,61 L240.62,57.364 C240.62,56.8279973 240.512001,56.4340013 240.296,56.182 C240.079999,55.9299987 239.788002,55.804 239.42,55.804 C238.979998,55.804 238.614001,55.9839982 238.322,56.344 C238.029999,56.7040018 237.884,57.2119967 237.884,57.868 L237.884,61 L236.888,61 L236.888,55.096 Z M246.836,61 C246.748,60.7119986 246.696,60.368002 246.68,59.968 C246.519999,60.3360018 246.274002,60.6299989 245.942,60.85 C245.609998,61.0700011 245.216002,61.18 244.76,61.18 C244.183997,61.18 243.728002,61.0160016 243.392,60.688 C243.055998,60.3599984 242.888,59.9200028 242.888,59.368 C242.888,59.0559984 242.943999,58.7940011 243.056,58.582 C243.168001,58.3699989 243.323999,58.1940007 243.524,58.054 C243.724001,57.9139993 243.959999,57.8040004 244.232,57.724 C244.504001,57.6439996 244.799998,57.5800002 245.12,57.532 L246.632,57.304 L246.632,56.932 C246.632,56.6679987 246.6,56.4560008 246.536,56.296 C246.472,56.1359992 246.384001,56.0120004 246.272,55.924 C246.159999,55.8359996 246.032001,55.7780001 245.888,55.75 C245.743999,55.7219999 245.592001,55.708 245.432,55.708 C244.975998,55.708 244.600001,55.7919992 244.304,55.96 C244.007999,56.1280008 243.760001,56.3399987 243.56,56.596 L243.044,55.948 C243.276001,55.6679986 243.597998,55.428001 244.01,55.228 C244.422002,55.027999 244.931997,54.928 245.54,54.928 C246.276004,54.928 246.809998,55.0919984 247.142,55.42 C247.474002,55.7480016 247.64,56.2759964 247.64,57.004 L247.64,59.392 C247.64,59.584001 247.642,59.7519993 247.646,59.896 C247.65,60.0400007 247.658,60.1739994 247.67,60.298 C247.682,60.4220006 247.7,60.5399994 247.724,60.652 C247.748,60.7640006 247.78,60.8799994 247.82,61 L246.836,61 Z M246.632,57.964 L245.216,58.192 C244.727998,58.2800004 244.382001,58.4119991 244.178,58.588 C243.973999,58.7640009 243.872,59.0079984 243.872,59.32 C243.872,59.6400016 243.965999,59.9079989 244.154,60.124 C244.342001,60.3400011 244.619998,60.448 244.988,60.448 C245.212001,60.448 245.423999,60.4040004 245.624,60.316 C245.824001,60.2279996 245.997999,60.1060008 246.146,59.95 C246.294001,59.7939992 246.412,59.6060011 246.5,59.386 C246.588,59.1659989 246.632,58.9240013 246.632,58.66 L246.632,57.964 Z M249.236,52.528 L250.232,52.528 L250.232,61 L249.236,61 L249.236,52.528 Z M251.372,62.956 C252.020003,62.2119963 252.491999,61.4100043 252.788,60.55 C253.084001,59.6899957 253.232,58.764005 253.232,57.772 C253.232,57.2439974 253.196,56.7460023 253.124,56.278 C253.052,55.8099977 252.940001,55.3660021 252.788,54.946 C252.635999,54.5259979 252.442001,54.1240019 252.206,53.74 C251.969999,53.3559981 251.692002,52.9760019 251.372,52.6 L251.792,52.192 C252.624004,52.9200036 253.253998,53.7639952 253.682,54.724 C254.110002,55.6840048 254.324,56.6999946 254.324,57.772 C254.324,58.8760055 254.112002,59.8919954 253.688,60.82 C253.263998,61.7480046 252.632004,62.5879962 251.792,63.34 L251.372,62.956 Z" id="Label-(optional)" fill="#4C5358"></path>
                <path d="M176.84,0.528 L177.92,0.528 L177.92,8.16 L181.964,8.16 L181.964,9 L176.84,9 L176.84,0.528 Z M186.848,9 C186.76,8.71199856 186.708,8.368002 186.692,7.968 C186.531999,8.33600184 186.286002,8.6299989 185.954,8.85 C185.621998,9.0700011 185.228002,9.18 184.772,9.18 C184.195997,9.18 183.740002,9.01600164 183.404,8.688 C183.067998,8.35999836 182.9,7.92000276 182.9,7.368 C182.9,7.05599844 182.955999,6.79400106 183.068,6.582 C183.180001,6.36999894 183.335999,6.1940007 183.536,6.054 C183.736001,5.9139993 183.971999,5.8040004 184.244,5.724 C184.516001,5.6439996 184.811998,5.58000024 185.132,5.532 L186.644,5.304 L186.644,4.932 C186.644,4.66799868 186.612,4.4560008 186.548,4.296 C186.484,4.1359992 186.396001,4.01200044 186.284,3.924 C186.171999,3.83599956 186.044001,3.77800014 185.9,3.75 C185.755999,3.72199986 185.604001,3.708 185.444,3.708 C184.987998,3.708 184.612001,3.79199916 184.316,3.96 C184.019999,4.12800084 183.772001,4.33999872 183.572,4.596 L183.056,3.948 C183.288001,3.6679986 183.609998,3.428001 184.022,3.228 C184.434002,3.027999 184.943997,2.928 185.552,2.928 C186.288004,2.928 186.821998,3.09199836 187.154,3.42 C187.486002,3.74800164 187.652,4.27599636 187.652,5.004 L187.652,7.392 C187.652,7.58400096 187.654,7.75199928 187.658,7.896 C187.662,8.04000072 187.67,8.17399938 187.682,8.298 C187.694,8.42200062 187.712,8.53999944 187.736,8.652 C187.76,8.76400056 187.792,8.8799994 187.832,9 L186.848,9 Z M186.644,5.964 L185.228,6.192 C184.739998,6.28000044 184.394001,6.41199912 184.19,6.588 C183.985999,6.76400088 183.884,7.00799844 183.884,7.32 C183.884,7.6400016 183.977999,7.90799892 184.166,8.124 C184.354001,8.34000108 184.631998,8.448 185,8.448 C185.224001,8.448 185.435999,8.40400044 185.636,8.316 C185.836001,8.22799956 186.009999,8.10600078 186.158,7.95 C186.306001,7.79399922 186.424,7.6060011 186.512,7.386 C186.6,7.1659989 186.644,6.92400132 186.644,6.66 L186.644,5.964 Z M189.248,0.528 L190.244,0.528 L190.244,4.14 C190.404001,3.80399832 190.641998,3.51800118 190.958,3.282 C191.274002,3.04599882 191.667998,2.928 192.14,2.928 C192.484002,2.928 192.797999,2.99999928 193.082,3.144 C193.366001,3.28800072 193.607999,3.49399866 193.808,3.762 C194.008001,4.03000134 194.161999,4.35199812 194.27,4.728 C194.378001,5.10400188 194.432,5.52399768 194.432,5.988 C194.432,6.44400228 194.378001,6.86599806 194.27,7.254 C194.161999,7.64200194 194.008001,7.9759986 193.808,8.256 C193.607999,8.5360014 193.362001,8.7559992 193.07,8.916 C192.777999,9.0760008 192.448002,9.156 192.08,9.156 C191.647998,9.156 191.264002,9.0460011 190.928,8.826 C190.591998,8.6059989 190.340001,8.29200204 190.172,7.884 L190.052,9 L189.248,9 L189.248,0.528 Z M190.244,6.072 C190.244,6.24800088 190.25,6.4059993 190.262,6.546 C190.274,6.6860007 190.288,6.80399952 190.304,6.9 C190.336,7.09200096 190.396,7.27599912 190.484,7.452 C190.572,7.62800088 190.679999,7.78199934 190.808,7.914 C190.936001,8.04600066 191.085999,8.1519996 191.258,8.232 C191.430001,8.3120004 191.619999,8.352 191.828,8.352 C192.100001,8.352 192.333999,8.28600066 192.53,8.154 C192.726001,8.02199934 192.887999,7.84800108 193.016,7.632 C193.144001,7.41599892 193.238,7.17000138 193.298,6.894 C193.358,6.61799862 193.388,6.33600144 193.388,6.048 C193.388,5.75199852 193.356,5.46600138 193.292,5.19 C193.228,4.91399862 193.132001,4.67000106 193.004,4.458 C192.875999,4.24599894 192.712001,4.07600064 192.512,3.948 C192.311999,3.81999936 192.076001,3.756 191.804,3.756 C191.587999,3.756 191.394001,3.79399962 191.222,3.87 C191.049999,3.94600038 190.900001,4.04999934 190.772,4.182 C190.643999,4.31400066 190.54,4.46799912 190.46,4.644 C190.38,4.82000088 190.324,5.007999 190.292,5.208 C190.276,5.2880004 190.264,5.38999938 190.256,5.514 C190.248,5.63800062 190.244,5.81199888 190.244,6.036 L190.244,6.072 Z M196.46,6.276 C196.5,6.9560034 196.673998,7.48199814 196.982,7.854 C197.290002,8.22600186 197.719997,8.412 198.272,8.412 C198.968003,8.412 199.491998,8.08400328 199.844,7.428 L200.6,7.848 C200.367999,8.24000196 200.060002,8.55999876 199.676,8.808 C199.291998,9.05600124 198.808003,9.18 198.224,9.18 C197.759998,9.18 197.354002,9.1000008 197.006,8.94 C196.657998,8.7799992 196.368001,8.5600014 196.136,8.28 C195.903999,7.9999986 195.730001,7.67200188 195.614,7.296 C195.497999,6.91999812 195.44,6.51600216 195.44,6.084 C195.44,5.65999788 195.495999,5.25600192 195.608,4.872 C195.720001,4.48799808 195.889999,4.15200144 196.118,3.864 C196.346001,3.57599856 196.625998,3.34800084 196.958,3.18 C197.290002,3.01199916 197.679998,2.928 198.128,2.928 C198.560002,2.928 198.935998,3.00999918 199.256,3.174 C199.576002,3.33800082 199.841999,3.55799862 200.054,3.834 C200.266001,4.11000138 200.425999,4.42999818 200.534,4.794 C200.642001,5.15800182 200.696,5.54399796 200.696,5.952 C200.696,6.04000044 200.694,6.10799976 200.69,6.156 C200.686,6.20400024 200.684,6.24399984 200.684,6.276 L196.46,6.276 Z M198.116,3.684 C197.611997,3.684 197.222001,3.8639982 196.946,4.224 C196.669999,4.5840018 196.512,5.06799696 196.472,5.676 L199.676,5.676 C199.676,5.42799876 199.648,5.18600118 199.592,4.95 C199.536,4.71399882 199.444001,4.50200094 199.316,4.314 C199.187999,4.12599906 199.026001,3.97400058 198.83,3.858 C198.633999,3.74199942 198.396001,3.684 198.116,3.684 Z M201.908,0.528 L202.904,0.528 L202.904,9 L201.908,9 L201.908,0.528 Z" id="Label" fill="#4C5358"></path>
                <path d="M0.84,0.528 L1.92,0.528 L1.92,8.16 L5.964,8.16 L5.964,9 L0.84,9 L0.84,0.528 Z M10.848,9 C10.7599996,8.71199856 10.7080001,8.368002 10.692,7.968 C10.5319992,8.33600184 10.2860017,8.6299989 9.954,8.85 C9.62199834,9.0700011 9.22800228,9.18 8.772,9.18 C8.19599712,9.18 7.74000168,9.01600164 7.404,8.688 C7.06799832,8.35999836 6.9,7.92000276 6.9,7.368 C6.9,7.05599844 6.95599944,6.79400106 7.068,6.582 C7.18000056,6.36999894 7.335999,6.1940007 7.536,6.054 C7.736001,5.9139993 7.97199864,5.8040004 8.244,5.724 C8.51600136,5.6439996 8.8119984,5.58000024 9.132,5.532 L10.644,5.304 L10.644,4.932 C10.644,4.66799868 10.6120003,4.4560008 10.548,4.296 C10.4839997,4.1359992 10.3960006,4.01200044 10.284,3.924 C10.1719994,3.83599956 10.0440007,3.77800014 9.9,3.75 C9.75599928,3.72199986 9.6040008,3.708 9.444,3.708 C8.98799772,3.708 8.61200148,3.79199916 8.316,3.96 C8.01999852,4.12800084 7.772001,4.33999872 7.572,4.596 L7.056,3.948 C7.28800116,3.6679986 7.60999794,3.428001 8.022,3.228 C8.43400206,3.027999 8.94399696,2.928 9.552,2.928 C10.2880037,2.928 10.8219983,3.09199836 11.154,3.42 C11.4860017,3.74800164 11.652,4.27599636 11.652,5.004 L11.652,7.392 C11.652,7.58400096 11.654,7.75199928 11.658,7.896 C11.662,8.04000072 11.6699999,8.17399938 11.682,8.298 C11.6940001,8.42200062 11.7119999,8.53999944 11.736,8.652 C11.7600001,8.76400056 11.7919998,8.8799994 11.832,9 L10.848,9 Z M10.644,5.964 L9.228,6.192 C8.73999756,6.28000044 8.39400102,6.41199912 8.19,6.588 C7.98599898,6.76400088 7.884,7.00799844 7.884,7.32 C7.884,7.6400016 7.97799906,7.90799892 8.166,8.124 C8.35400094,8.34000108 8.63199816,8.448 9,8.448 C9.22400112,8.448 9.435999,8.40400044 9.636,8.316 C9.836001,8.22799956 10.0099993,8.10600078 10.158,7.95 C10.3060007,7.79399922 10.4239996,7.6060011 10.512,7.386 C10.6000004,7.1659989 10.644,6.92400132 10.644,6.66 L10.644,5.964 Z M13.248,0.528 L14.244,0.528 L14.244,4.14 C14.4040008,3.80399832 14.6419984,3.51800118 14.958,3.282 C15.2740016,3.04599882 15.6679976,2.928 16.14,2.928 C16.4840017,2.928 16.7979986,2.99999928 17.082,3.144 C17.3660014,3.28800072 17.607999,3.49399866 17.808,3.762 C18.008001,4.03000134 18.1619995,4.35199812 18.27,4.728 C18.3780005,5.10400188 18.432,5.52399768 18.432,5.988 C18.432,6.44400228 18.3780005,6.86599806 18.27,7.254 C18.1619995,7.64200194 18.008001,7.9759986 17.808,8.256 C17.607999,8.5360014 17.3620015,8.7559992 17.07,8.916 C16.7779985,9.0760008 16.4480018,9.156 16.08,9.156 C15.6479978,9.156 15.2640017,9.0460011 14.928,8.826 C14.5919983,8.6059989 14.3400008,8.29200204 14.172,7.884 L14.052,9 L13.248,9 L13.248,0.528 Z M14.244,6.072 C14.244,6.24800088 14.2499999,6.4059993 14.262,6.546 C14.2740001,6.6860007 14.2879999,6.80399952 14.304,6.9 C14.3360002,7.09200096 14.3959996,7.27599912 14.484,7.452 C14.5720004,7.62800088 14.6799994,7.78199934 14.808,7.914 C14.9360006,8.04600066 15.0859991,8.1519996 15.258,8.232 C15.4300009,8.3120004 15.619999,8.352 15.828,8.352 C16.1000014,8.352 16.333999,8.28600066 16.53,8.154 C16.726001,8.02199934 16.8879994,7.84800108 17.016,7.632 C17.1440006,7.41599892 17.2379997,7.17000138 17.298,6.894 C17.3580003,6.61799862 17.388,6.33600144 17.388,6.048 C17.388,5.75199852 17.3560003,5.46600138 17.292,5.19 C17.2279997,4.91399862 17.1320006,4.67000106 17.004,4.458 C16.8759994,4.24599894 16.712001,4.07600064 16.512,3.948 C16.311999,3.81999936 16.0760014,3.756 15.804,3.756 C15.5879989,3.756 15.3940009,3.79399962 15.222,3.87 C15.0499991,3.94600038 14.9000006,4.04999934 14.772,4.182 C14.6439994,4.31400066 14.5400004,4.46799912 14.46,4.644 C14.3799996,4.82000088 14.3240002,5.007999 14.292,5.208 C14.2759999,5.2880004 14.264,5.38999938 14.256,5.514 C14.248,5.63800062 14.244,5.81199888 14.244,6.036 L14.244,6.072 Z M20.46,6.276 C20.5000002,6.9560034 20.6739985,7.48199814 20.982,7.854 C21.2900015,8.22600186 21.7199972,8.412 22.272,8.412 C22.9680035,8.412 23.4919982,8.08400328 23.844,7.428 L24.6,7.848 C24.3679988,8.24000196 24.0600019,8.55999876 23.676,8.808 C23.2919981,9.05600124 22.8080029,9.18 22.224,9.18 C21.7599977,9.18 21.3540017,9.1000008 21.006,8.94 C20.6579983,8.7799992 20.3680012,8.5600014 20.136,8.28 C19.9039988,7.9999986 19.7300006,7.67200188 19.614,7.296 C19.4979994,6.91999812 19.44,6.51600216 19.44,6.084 C19.44,5.65999788 19.4959994,5.25600192 19.608,4.872 C19.7200006,4.48799808 19.8899989,4.15200144 20.118,3.864 C20.3460011,3.57599856 20.6259983,3.34800084 20.958,3.18 C21.2900017,3.01199916 21.6799978,2.928 22.128,2.928 C22.5600022,2.928 22.9359984,3.00999918 23.256,3.174 C23.5760016,3.33800082 23.8419989,3.55799862 24.054,3.834 C24.2660011,4.11000138 24.4259995,4.42999818 24.534,4.794 C24.6420005,5.15800182 24.696,5.54399796 24.696,5.952 C24.696,6.04000044 24.694,6.10799976 24.69,6.156 C24.686,6.20400024 24.684,6.24399984 24.684,6.276 L20.46,6.276 Z M22.116,3.684 C21.6119975,3.684 21.2220014,3.8639982 20.946,4.224 C20.6699986,4.5840018 20.5120002,5.06799696 20.472,5.676 L23.676,5.676 C23.676,5.42799876 23.6480003,5.18600118 23.592,4.95 C23.5359997,4.71399882 23.4440006,4.50200094 23.316,4.314 C23.1879994,4.12599906 23.026001,3.97400058 22.83,3.858 C22.633999,3.74199942 22.3960014,3.684 22.116,3.684 Z M25.908,0.528 L26.904,0.528 L26.904,9 L25.908,9 L25.908,0.528 Z" id="Label-Copy" fill="#4C5358"></path>
                <path d="M0.84,52.528 L1.92,52.528 L1.92,60.16 L5.964,60.16 L5.964,61 L0.84,61 L0.84,52.528 Z M10.848,61 C10.7599996,60.7119986 10.7080001,60.368002 10.692,59.968 C10.5319992,60.3360018 10.2860017,60.6299989 9.954,60.85 C9.62199834,61.0700011 9.22800228,61.18 8.772,61.18 C8.19599712,61.18 7.74000168,61.0160016 7.404,60.688 C7.06799832,60.3599984 6.9,59.9200028 6.9,59.368 C6.9,59.0559984 6.95599944,58.7940011 7.068,58.582 C7.18000056,58.3699989 7.335999,58.1940007 7.536,58.054 C7.736001,57.9139993 7.97199864,57.8040004 8.244,57.724 C8.51600136,57.6439996 8.8119984,57.5800002 9.132,57.532 L10.644,57.304 L10.644,56.932 C10.644,56.6679987 10.6120003,56.4560008 10.548,56.296 C10.4839997,56.1359992 10.3960006,56.0120004 10.284,55.924 C10.1719994,55.8359996 10.0440007,55.7780001 9.9,55.75 C9.75599928,55.7219999 9.6040008,55.708 9.444,55.708 C8.98799772,55.708 8.61200148,55.7919992 8.316,55.96 C8.01999852,56.1280008 7.772001,56.3399987 7.572,56.596 L7.056,55.948 C7.28800116,55.6679986 7.60999794,55.428001 8.022,55.228 C8.43400206,55.027999 8.94399696,54.928 9.552,54.928 C10.2880037,54.928 10.8219983,55.0919984 11.154,55.42 C11.4860017,55.7480016 11.652,56.2759964 11.652,57.004 L11.652,59.392 C11.652,59.584001 11.654,59.7519993 11.658,59.896 C11.662,60.0400007 11.6699999,60.1739994 11.682,60.298 C11.6940001,60.4220006 11.7119999,60.5399994 11.736,60.652 C11.7600001,60.7640006 11.7919998,60.8799994 11.832,61 L10.848,61 Z M10.644,57.964 L9.228,58.192 C8.73999756,58.2800004 8.39400102,58.4119991 8.19,58.588 C7.98599898,58.7640009 7.884,59.0079984 7.884,59.32 C7.884,59.6400016 7.97799906,59.9079989 8.166,60.124 C8.35400094,60.3400011 8.63199816,60.448 9,60.448 C9.22400112,60.448 9.435999,60.4040004 9.636,60.316 C9.836001,60.2279996 10.0099993,60.1060008 10.158,59.95 C10.3060007,59.7939992 10.4239996,59.6060011 10.512,59.386 C10.6000004,59.1659989 10.644,58.9240013 10.644,58.66 L10.644,57.964 Z M13.248,52.528 L14.244,52.528 L14.244,56.14 C14.4040008,55.8039983 14.6419984,55.5180012 14.958,55.282 C15.2740016,55.0459988 15.6679976,54.928 16.14,54.928 C16.4840017,54.928 16.7979986,54.9999993 17.082,55.144 C17.3660014,55.2880007 17.607999,55.4939987 17.808,55.762 C18.008001,56.0300013 18.1619995,56.3519981 18.27,56.728 C18.3780005,57.1040019 18.432,57.5239977 18.432,57.988 C18.432,58.4440023 18.3780005,58.8659981 18.27,59.254 C18.1619995,59.6420019 18.008001,59.9759986 17.808,60.256 C17.607999,60.5360014 17.3620015,60.7559992 17.07,60.916 C16.7779985,61.0760008 16.4480018,61.156 16.08,61.156 C15.6479978,61.156 15.2640017,61.0460011 14.928,60.826 C14.5919983,60.6059989 14.3400008,60.292002 14.172,59.884 L14.052,61 L13.248,61 L13.248,52.528 Z M14.244,58.072 C14.244,58.2480009 14.2499999,58.4059993 14.262,58.546 C14.2740001,58.6860007 14.2879999,58.8039995 14.304,58.9 C14.3360002,59.092001 14.3959996,59.2759991 14.484,59.452 C14.5720004,59.6280009 14.6799994,59.7819993 14.808,59.914 C14.9360006,60.0460007 15.0859991,60.1519996 15.258,60.232 C15.4300009,60.3120004 15.619999,60.352 15.828,60.352 C16.1000014,60.352 16.333999,60.2860007 16.53,60.154 C16.726001,60.0219993 16.8879994,59.8480011 17.016,59.632 C17.1440006,59.4159989 17.2379997,59.1700014 17.298,58.894 C17.3580003,58.6179986 17.388,58.3360014 17.388,58.048 C17.388,57.7519985 17.3560003,57.4660014 17.292,57.19 C17.2279997,56.9139986 17.1320006,56.6700011 17.004,56.458 C16.8759994,56.2459989 16.712001,56.0760006 16.512,55.948 C16.311999,55.8199994 16.0760014,55.756 15.804,55.756 C15.5879989,55.756 15.3940009,55.7939996 15.222,55.87 C15.0499991,55.9460004 14.9000006,56.0499993 14.772,56.182 C14.6439994,56.3140007 14.5400004,56.4679991 14.46,56.644 C14.3799996,56.8200009 14.3240002,57.007999 14.292,57.208 C14.2759999,57.2880004 14.264,57.3899994 14.256,57.514 C14.248,57.6380006 14.244,57.8119989 14.244,58.036 L14.244,58.072 Z M20.46,58.276 C20.5000002,58.9560034 20.6739985,59.4819981 20.982,59.854 C21.2900015,60.2260019 21.7199972,60.412 22.272,60.412 C22.9680035,60.412 23.4919982,60.0840033 23.844,59.428 L24.6,59.848 C24.3679988,60.240002 24.0600019,60.5599988 23.676,60.808 C23.2919981,61.0560012 22.8080029,61.18 22.224,61.18 C21.7599977,61.18 21.3540017,61.1000008 21.006,60.94 C20.6579983,60.7799992 20.3680012,60.5600014 20.136,60.28 C19.9039988,59.9999986 19.7300006,59.6720019 19.614,59.296 C19.4979994,58.9199981 19.44,58.5160022 19.44,58.084 C19.44,57.6599979 19.4959994,57.2560019 19.608,56.872 C19.7200006,56.4879981 19.8899989,56.1520014 20.118,55.864 C20.3460011,55.5759986 20.6259983,55.3480008 20.958,55.18 C21.2900017,55.0119992 21.6799978,54.928 22.128,54.928 C22.5600022,54.928 22.9359984,55.0099992 23.256,55.174 C23.5760016,55.3380008 23.8419989,55.5579986 24.054,55.834 C24.2660011,56.1100014 24.4259995,56.4299982 24.534,56.794 C24.6420005,57.1580018 24.696,57.543998 24.696,57.952 C24.696,58.0400004 24.694,58.1079998 24.69,58.156 C24.686,58.2040002 24.684,58.2439998 24.684,58.276 L20.46,58.276 Z M22.116,55.684 C21.6119975,55.684 21.2220014,55.8639982 20.946,56.224 C20.6699986,56.5840018 20.5120002,57.067997 20.472,57.676 L23.676,57.676 C23.676,57.4279988 23.6480003,57.1860012 23.592,56.95 C23.5359997,56.7139988 23.4440006,56.5020009 23.316,56.314 C23.1879994,56.1259991 23.026001,55.9740006 22.83,55.858 C22.633999,55.7419994 22.3960014,55.684 22.116,55.684 Z M25.908,52.528 L26.904,52.528 L26.904,61 L25.908,61 L25.908,52.528 Z" id="Label-Copy-2" fill="#4C5358"></path>
            </g>
        </g>
    </g>
</svg>