<?xml version="1.0" encoding="UTF-8"?>
<svg width="212px" height="65px" viewBox="0 0 212 65" version="1.1" xmlns="http://www.w3.org/2000/svg" xmlns:xlink="http://www.w3.org/1999/xlink">
    <!-- Generator: Sketch 47 (45396) - http://www.bohemiancoding.com/sketch -->
    <title>Placeholder</title>
    <desc>Created with Sketch.</desc>
    <defs></defs>
    <g id="Text-area" stroke="none" stroke-width="1" fill="none" fill-rule="evenodd">
        <g id="Text-area-Usage-extra-large-1200" transform="translate(-373.000000, -3245.000000)">
            <g id="Group-8" transform="translate(314.000000, 3203.000000)">
                <g id="Placeholder" transform="translate(60.000000, 42.000000)">
                    <path d="M0.98,0.116 L3.962,0.116 C5.67000854,0.116 6.92532932,0.52899587 7.728,1.355 C8.53067068,2.18100413 8.932,3.41999174 8.932,5.072 C8.932,6.66800798 8.53067068,7.88832911 7.728,8.733 C6.92532932,9.57767089 5.72134136,10 4.116,10 L0.98,10 L0.98,0.116 Z M4.018,9.02 C4.69000336,9.02 5.25466438,8.92200098 5.712,8.726 C6.16933562,8.52999902 6.5379986,8.25700175 6.818,7.907 C7.0980014,7.55699825 7.29633275,7.13700245 7.413,6.647 C7.52966725,6.15699755 7.588,5.62266956 7.588,5.044 C7.588,4.4839972 7.52966725,3.96366907 7.413,3.483 C7.29633275,3.00233093 7.0980014,2.58466844 6.818,2.23 C6.5379986,1.87533156 6.16000238,1.59766767 5.684,1.397 C5.20799762,1.19633233 4.61067026,1.096 3.892,1.096 L2.24,1.096 L2.24,9.02 L4.018,9.02 Z M11.298,6.822 C11.3446669,7.6153373 11.5476649,8.22899783 11.907,8.663 C12.2663351,9.09700217 12.7679968,9.314 13.412,9.314 C14.2240041,9.314 14.8353313,8.93133716 15.246,8.166 L16.128,8.656 C15.857332,9.11333562 15.4980022,9.48666522 15.05,9.776 C14.6019978,10.0653348 14.0373367,10.21 13.356,10.21 C12.814664,10.21 12.341002,10.1166676 11.935,9.93 C11.528998,9.7433324 11.190668,9.4866683 10.92,9.16 C10.649332,8.8333317 10.446334,8.45066886 10.311,8.012 C10.175666,7.57333114 10.108,7.10200252 10.108,6.598 C10.108,6.10333086 10.1733327,5.63200224 10.304,5.184 C10.4346673,4.73599776 10.6329987,4.34400168 10.899,4.008 C11.1650013,3.67199832 11.4916647,3.40600098 11.879,3.21 C12.2663353,3.01399902 12.7213307,2.916 13.244,2.916 C13.7480025,2.916 14.1866648,3.01166571 14.56,3.203 C14.9333352,3.39433429 15.2436654,3.65099839 15.491,3.973 C15.7383346,4.29500161 15.9249994,4.66833121 16.051,5.093 C16.1770006,5.51766879 16.24,5.96799762 16.24,6.444 C16.24,6.54666718 16.2376667,6.62599972 16.233,6.682 C16.2283333,6.73800028 16.226,6.78466648 16.226,6.822 L11.298,6.822 Z M13.23,3.798 C12.6419971,3.798 12.1870016,4.0079979 11.865,4.428 C11.5429984,4.8480021 11.3586669,5.41266312 11.312,6.122 L15.05,6.122 C15.05,5.83266522 15.0173337,5.55033471 14.952,5.275 C14.8866663,4.99966529 14.7793341,4.75233443 14.63,4.533 C14.4806659,4.31366557 14.2916678,4.13633401 14.063,4.001 C13.8343322,3.86566599 13.5566683,3.798 13.23,3.798 Z M17.78,8.306 C18.0133345,8.60466816 18.3143315,8.85199902 18.683,9.048 C19.0516685,9.24400098 19.4553311,9.342 19.894,9.342 C20.286002,9.342 20.6266652,9.2486676 20.916,9.062 C21.2053348,8.8753324 21.35,8.5953352 21.35,8.222 C21.35,7.93266522 21.2543343,7.70633415 21.063,7.543 C20.8716657,7.37966585 20.6336681,7.24200056 20.349,7.13 C20.0643319,7.01799944 19.7540017,6.9153338 19.418,6.822 C19.0819983,6.7286662 18.7716681,6.60733408 18.487,6.458 C18.2023319,6.30866592 17.9643343,6.11266788 17.773,5.87 C17.5816657,5.62733212 17.486,5.2960021 17.486,4.876 C17.486,4.53066494 17.5559993,4.23433457 17.696,3.987 C17.8360007,3.73966543 18.0203322,3.53666746 18.249,3.378 C18.4776678,3.21933254 18.7413318,3.10266704 19.04,3.028 C19.3386682,2.95333296 19.6513317,2.916 19.978,2.916 C20.9486715,2.916 21.7559968,3.1959972 22.4,3.756 L21.812,4.54 C21.6066656,4.32533226 21.3336684,4.14566739 20.993,4.001 C20.6523316,3.85633261 20.3000018,3.784 19.936,3.784 C19.7773325,3.784 19.6210008,3.80266648 19.467,3.84 C19.3129992,3.87733352 19.1776672,3.93566627 19.061,4.015 C18.9443327,4.09433373 18.8510003,4.19466606 18.781,4.316 C18.7109996,4.43733394 18.676,4.58666578 18.676,4.764 C18.676,5.03466802 18.7716657,5.24466592 18.963,5.394 C19.1543343,5.54333408 19.3923319,5.67166613 19.677,5.779 C19.9616681,5.88633387 20.269665,5.98899951 20.601,6.087 C20.932335,6.18500049 21.2403319,6.31099923 21.525,6.465 C21.8096681,6.61900077 22.0476657,6.82199874 22.239,7.074 C22.4303343,7.32600126 22.526,7.6619979 22.526,8.082 C22.526,8.43666844 22.4536674,8.74699867 22.309,9.013 C22.1643326,9.27900133 21.9730012,9.50066578 21.735,9.678 C21.4969988,9.85533422 21.2216682,9.98833289 20.909,10.077 C20.5963318,10.1656671 20.2720017,10.21 19.936,10.21 C18.7786609,10.21 17.8593367,9.8366704 17.178,9.09 L17.78,8.306 Z M29.638,8.488 C29.3579986,9.0480028 28.9823357,9.47499853 28.511,9.769 C28.0396643,10.0630015 27.4680034,10.21 26.796,10.21 C26.2453306,10.21 25.767002,10.1143343 25.361,9.923 C24.954998,9.73166571 24.6190013,9.4726683 24.353,9.146 C24.0869987,8.8193317 23.8910006,8.43433555 23.765,7.991 C23.6389994,7.54766445 23.576,7.07400252 23.576,6.57 C23.576,6.0566641 23.643666,5.57833555 23.779,5.135 C23.914334,4.69166445 24.1149987,4.3066683 24.381,3.98 C24.6470013,3.6533317 24.9806647,3.39433429 25.382,3.203 C25.7833353,3.01166571 26.254664,2.916 26.796,2.916 C27.4773367,2.916 28.0443311,3.06766515 28.497,3.371 C28.9496689,3.67433485 29.3159986,4.10133058 29.596,4.652 L28.616,5.114 C28.2613316,4.25532904 27.6640042,3.826 26.824,3.826 C26.4693316,3.826 26.1636679,3.8959993 25.907,4.036 C25.650332,4.1760007 25.4403341,4.36733212 25.277,4.61 C25.1136658,4.85266788 24.9923337,5.13499839 24.913,5.457 C24.8336663,5.77900161 24.794,6.1266648 24.794,6.5 C24.794,6.85466844 24.831333,7.19999832 24.906,7.536 C24.980667,7.87200168 25.1019992,8.17066536 25.27,8.432 C25.4380008,8.69333464 25.6526654,8.90333254 25.914,9.062 C26.1753346,9.22066746 26.4973314,9.3 26.88,9.3 C27.3653358,9.3 27.7573318,9.17633457 28.056,8.929 C28.3546682,8.68166543 28.5833325,8.36200196 28.742,7.97 L29.638,8.488 Z M30.926,3.112 L31.934,3.112 L32.046,4.652 C32.242001,4.14799748 32.5546645,3.7326683 32.984,3.406 C33.4133355,3.0793317 33.9219971,2.916 34.51,2.916 L34.51,4.148 C34.3793327,4.11999986 34.2346675,4.106 34.076,4.106 C33.8426655,4.106 33.6093345,4.14799958 33.376,4.232 C33.1426655,4.31600042 32.9303343,4.4513324 32.739,4.638 C32.5476657,4.8246676 32.3913339,5.06499853 32.27,5.359 C32.1486661,5.65300147 32.088,6.0099979 32.088,6.43 L32.088,10 L30.926,10 L30.926,3.112 Z M35.658,0.438 L36.82,0.438 L36.82,1.6 L35.658,1.6 L35.658,0.438 Z M35.658,3.112 L36.82,3.112 L36.82,10 L35.658,10 L35.658,3.112 Z M38.612,3.112 L39.774,3.112 L39.774,4.442 C39.8580004,4.24599902 39.9653327,4.0546676 40.096,3.868 C40.2266673,3.6813324 40.3829991,3.5180007 40.565,3.378 C40.7470009,3.2379993 40.9593321,3.12600042 41.202,3.042 C41.4446679,2.95799958 41.7199985,2.916 42.028,2.916 C42.4760022,2.916 42.865665,3.0093324 43.197,3.196 C43.528335,3.3826676 43.8013323,3.6393317 44.016,3.966 C44.2306677,4.2926683 44.3916661,4.67299783 44.499,5.107 C44.6063339,5.54100217 44.66,6.00999748 44.66,6.514 C44.66,7.11133632 44.5900007,7.63866438 44.45,8.096 C44.3099993,8.55333562 44.1140013,8.93599846 43.862,9.244 C43.6099987,9.55200154 43.3160017,9.78533254 42.98,9.944 C42.6439983,10.1026675 42.280002,10.182 41.888,10.182 C41.3746641,10.182 40.9336685,10.0560013 40.565,9.804 C40.1963315,9.55199874 39.9326675,9.2393352 39.774,8.866 L39.774,12.422 L38.612,12.422 L38.612,3.112 Z M39.774,6.598 C39.774,6.79400098 39.7809999,6.97366585 39.795,7.137 C39.8090001,7.30033415 39.8253332,7.43799944 39.844,7.55 C39.8813335,7.77400112 39.9513328,7.98866564 40.054,8.194 C40.1566672,8.39933436 40.2826659,8.57899923 40.432,8.733 C40.5813341,8.88700077 40.7563323,9.0106662 40.957,9.104 C41.1576677,9.1973338 41.3793321,9.244 41.622,9.244 C41.9393349,9.244 42.2123322,9.16933408 42.441,9.02 C42.6696678,8.87066592 42.8586659,8.67000126 43.008,8.418 C43.1573341,8.16599874 43.2669997,7.87900161 43.337,7.557 C43.4070004,7.23499839 43.442,6.90133506 43.442,6.556 C43.442,6.21066494 43.4093337,5.87700161 43.344,5.555 C43.2786663,5.23299839 43.1736674,4.94833457 43.029,4.701 C42.8843326,4.45366543 42.6953345,4.25533408 42.462,4.106 C42.2286655,3.95666592 41.9486683,3.882 41.622,3.882 C41.3699987,3.882 41.1390011,3.9286662 40.929,4.022 C40.718999,4.1153338 40.5393341,4.24133254 40.39,4.4 C40.2406659,4.55866746 40.1170005,4.74066564 40.019,4.946 C39.9209995,5.15133436 39.8580001,5.36599888 39.83,5.59 C39.8113332,5.6833338 39.7973334,5.81166585 39.788,5.975 C39.7786666,6.13833415 39.774,6.32733226 39.774,6.542 L39.774,6.598 Z M46.746,3.91 L45.57,3.91 L45.57,3.112 L45.822,3.112 C46.1113348,3.112 46.3376659,3.08166697 46.501,3.021 C46.6643342,2.96033303 46.7879996,2.86700063 46.872,2.741 C46.9560004,2.61499937 47.0166665,2.44933436 47.054,2.244 C47.0913335,2.03866564 47.1239999,1.78666816 47.152,1.488 L47.18,1.236 L47.908,1.236 L47.908,3.112 L49.392,3.112 L49.392,3.91 L47.908,3.91 L47.908,8.194 C47.908,8.58600196 47.9663328,8.86833247 48.083,9.041 C48.1996673,9.21366753 48.4166651,9.3 48.734,9.3 C48.9860013,9.3 49.2193323,9.24400056 49.434,9.132 L49.56,9.972 C49.2053316,10.1306675 48.8133355,10.21 48.384,10.21 C48.0479983,10.21 47.7750011,10.1633338 47.565,10.07 C47.354999,9.9766662 47.1893339,9.85066746 47.068,9.692 C46.9466661,9.53333254 46.8626669,9.34200112 46.816,9.118 C46.7693331,8.89399888 46.746,8.65133464 46.746,8.39 L46.746,3.91 Z M50.792,0.438 L51.954,0.438 L51.954,1.6 L50.792,1.6 L50.792,0.438 Z M50.792,3.112 L51.954,3.112 L51.954,10 L50.792,10 L50.792,3.112 Z M56.602,10.21 C56.0793307,10.21 55.6196687,10.1143343 55.223,9.923 C54.8263314,9.73166571 54.4950013,9.47033499 54.229,9.139 C53.9629987,8.80766501 53.7646673,8.42033555 53.634,7.977 C53.5033327,7.53366445 53.438,7.0553359 53.438,6.542 C53.438,6.0286641 53.505666,5.55266886 53.641,5.114 C53.776334,4.67533114 53.9769987,4.2926683 54.243,3.966 C54.5090013,3.6393317 54.8403314,3.3826676 55.237,3.196 C55.6336687,3.0093324 56.0886641,2.916 56.602,2.916 C57.1153359,2.916 57.5703314,3.0093324 57.967,3.196 C58.3636687,3.3826676 58.697332,3.63699839 58.968,3.959 C59.238668,4.28100161 59.441666,4.66366445 59.577,5.107 C59.712334,5.55033555 59.78,6.0286641 59.78,6.542 C59.78,7.0553359 59.712334,7.53366445 59.577,7.977 C59.441666,8.42033555 59.238668,8.80766501 58.968,9.139 C58.697332,9.47033499 58.3636687,9.73166571 57.967,9.923 C57.5703314,10.1143343 57.1153359,10.21 56.602,10.21 Z M56.63,9.3 C56.9473349,9.3 57.2273321,9.2300007 57.47,9.09 C57.7126679,8.9499993 57.9133325,8.75633457 58.072,8.509 C58.2306675,8.26166543 58.3519996,7.97000168 58.436,7.634 C58.5200004,7.29799832 58.562,6.93400196 58.562,6.542 C58.562,6.14999804 58.5200004,5.78833499 58.436,5.457 C58.3519996,5.12566501 58.2260008,4.83866788 58.058,4.596 C57.8899992,4.35333212 57.6846679,4.16433401 57.442,4.029 C57.1993321,3.89366599 56.9193349,3.826 56.602,3.826 C56.2753317,3.826 55.9906679,3.89366599 55.748,4.029 C55.5053321,4.16433401 55.3046675,4.35333212 55.146,4.596 C54.9873325,4.83866788 54.8660004,5.12566501 54.782,5.457 C54.6979996,5.78833499 54.656,6.14999804 54.656,6.542 C54.656,6.93400196 54.6979996,7.29799832 54.782,7.634 C54.8660004,7.97000168 54.9896659,8.26166543 55.153,8.509 C55.3163342,8.75633457 55.5216654,8.9499993 55.769,9.09 C56.0163346,9.2300007 56.3033317,9.3 56.63,9.3 Z M61.264,3.112 L62.272,3.112 L62.398,4.484 C62.5753342,4.0639979 62.8576647,3.69766823 63.245,3.385 C63.6323353,3.07233177 64.1106638,2.916 64.68,2.916 C65.3986703,2.916 65.9283316,3.14466438 66.269,3.602 C66.6096684,4.05933562 66.78,4.69866256 66.78,5.52 L66.78,10 L65.618,10 L65.618,5.758 C65.618,5.13266354 65.4920013,4.67300147 65.24,4.379 C64.9879987,4.08499853 64.6473355,3.938 64.218,3.938 C63.7046641,3.938 63.2776684,4.1479979 62.937,4.568 C62.5963316,4.9880021 62.426,5.58066284 62.426,6.346 L62.426,10 L61.264,10 L61.264,3.112 Z" id="Description" fill="#4C5358"></path>
                    <path d="M90.244,63.146 C90.5240014,62.9593324 90.8389982,62.7353346 91.189,62.474 C91.5390017,62.2126654 91.8913316,61.9256682 92.246,61.613 C92.6006684,61.3003318 92.943665,60.9690017 93.275,60.619 C93.606335,60.2689982 93.900332,59.9050019 94.157,59.527 C94.4136679,59.1489981 94.6213325,58.764002 94.78,58.372 C94.9386675,57.979998 95.018,57.588002 95.018,57.196 C95.018,56.6453306 94.8756681,56.1903351 94.591,55.831 C94.3063319,55.4716649 93.8746696,55.292 93.296,55.292 C92.7733307,55.292 92.3556682,55.4553317 92.043,55.782 C91.7303318,56.1086683 91.5226672,56.5146642 91.42,57 L90.314,56.734 C90.5566679,55.9779962 90.9299975,55.404002 91.434,55.012 C91.9380025,54.619998 92.6006626,54.424 93.422,54.424 C93.814002,54.424 94.1849982,54.4799994 94.535,54.592 C94.8850017,54.7040006 95.1906654,54.8719989 95.452,55.096 C95.7133346,55.3200011 95.9186659,55.6023316 96.068,55.943 C96.2173341,56.2836684 96.292,56.6826644 96.292,57.14 C96.292,57.7560031 96.1403348,58.3509971 95.837,58.925 C95.5336651,59.4990029 95.1580022,60.0403308 94.71,60.549 C94.2619978,61.0576692 93.7766693,61.5243312 93.254,61.949 C92.7313307,62.3736688 92.2506689,62.7353318 91.812,63.034 L96.544,63.034 L96.544,64 L90.244,64 L90.244,63.146 Z M101.36,63.216 C101.789335,63.216 102.141665,63.0830013 102.417,62.817 C102.692335,62.5509987 102.906999,62.2196686 103.061,61.823 C103.215001,61.4263313 103.322333,61.0016689 103.383,60.549 C103.443667,60.0963311 103.474,59.6833352 103.474,59.31 C103.474,58.9459982 103.443667,58.5353356 103.383,58.078 C103.322333,57.6206644 103.215001,57.1936686 103.061,56.797 C102.906999,56.4003313 102.692335,56.066668 102.417,55.796 C102.141665,55.525332 101.789335,55.39 101.36,55.39 C100.939998,55.39 100.594668,55.518332 100.324,55.775 C100.053332,56.0316679 99.8363341,56.3489981 99.673,56.727 C99.5096658,57.1050019 99.397667,57.5133311 99.337,57.952 C99.276333,58.3906689 99.246,58.7966648 99.246,59.17 C99.246,59.5526686 99.2716664,59.977331 99.323,60.444 C99.3743336,60.910669 99.4769992,61.3493313 99.631,61.76 C99.7850008,62.1706687 99.9996653,62.5159986 100.275,62.796 C100.550335,63.0760014 100.911998,63.216 101.36,63.216 Z M101.36,64.21 C100.743997,64.2006666 100.216669,64.0466682 99.778,63.748 C99.3393311,63.4493318 98.984668,63.066669 98.714,62.6 C98.443332,62.133331 98.2450006,61.6106696 98.119,61.032 C97.9929994,60.4533304 97.93,59.8793362 97.93,59.31 C97.93,58.7406638 97.9929994,58.1643362 98.119,57.581 C98.2450006,56.9976637 98.4456653,56.472669 98.721,56.006 C98.9963347,55.539331 99.3533311,55.1566682 99.792,54.858 C100.230669,54.5593318 100.76733,54.41 101.402,54.41 C102.027336,54.41 102.556998,54.5593318 102.991,54.858 C103.425002,55.1566682 103.774999,55.539331 104.041,56.006 C104.307001,56.472669 104.498333,56.9953304 104.615,57.574 C104.731667,58.1526696 104.79,58.7266638 104.79,59.296 C104.79,59.8560028 104.731667,60.4253304 104.615,61.004 C104.498333,61.5826696 104.307001,62.1076643 104.041,62.579 C103.774999,63.0503357 103.422669,63.4376651 102.984,63.741 C102.545331,64.0443348 102.004003,64.2006666 101.36,64.21 Z M109.34,63.216 C109.769335,63.216 110.121665,63.0830013 110.397,62.817 C110.672335,62.5509987 110.886999,62.2196686 111.041,61.823 C111.195001,61.4263313 111.302333,61.0016689 111.363,60.549 C111.423667,60.0963311 111.454,59.6833352 111.454,59.31 C111.454,58.9459982 111.423667,58.5353356 111.363,58.078 C111.302333,57.6206644 111.195001,57.1936686 111.041,56.797 C110.886999,56.4003313 110.672335,56.066668 110.397,55.796 C110.121665,55.525332 109.769335,55.39 109.34,55.39 C108.919998,55.39 108.574668,55.518332 108.304,55.775 C108.033332,56.0316679 107.816334,56.3489981 107.653,56.727 C107.489666,57.1050019 107.377667,57.5133311 107.317,57.952 C107.256333,58.3906689 107.226,58.7966648 107.226,59.17 C107.226,59.5526686 107.251666,59.977331 107.303,60.444 C107.354334,60.910669 107.456999,61.3493313 107.611,61.76 C107.765001,62.1706687 107.979665,62.5159986 108.255,62.796 C108.530335,63.0760014 108.891998,63.216 109.34,63.216 Z M109.34,64.21 C108.723997,64.2006666 108.196669,64.0466682 107.758,63.748 C107.319331,63.4493318 106.964668,63.066669 106.694,62.6 C106.423332,62.133331 106.225001,61.6106696 106.099,61.032 C105.972999,60.4533304 105.91,59.8793362 105.91,59.31 C105.91,58.7406638 105.972999,58.1643362 106.099,57.581 C106.225001,56.9976637 106.425665,56.472669 106.701,56.006 C106.976335,55.539331 107.333331,55.1566682 107.772,54.858 C108.210669,54.5593318 108.74733,54.41 109.382,54.41 C110.007336,54.41 110.536998,54.5593318 110.971,54.858 C111.405002,55.1566682 111.754999,55.539331 112.021,56.006 C112.287001,56.472669 112.478333,56.9953304 112.595,57.574 C112.711667,58.1526696 112.77,58.7266638 112.77,59.296 C112.77,59.8560028 112.711667,60.4253304 112.595,61.004 C112.478333,61.5826696 112.287001,62.1076643 112.021,62.579 C111.754999,63.0503357 111.402669,63.4376651 110.964,63.741 C110.525331,64.0443348 109.984003,64.2006666 109.34,64.21 Z M118.062,54.116 L119.084,54.116 L115.024,64 L113.974,64 L118.062,54.116 Z M120.554,63.146 C120.834001,62.9593324 121.148998,62.7353346 121.499,62.474 C121.849002,62.2126654 122.201332,61.9256682 122.556,61.613 C122.910668,61.3003318 123.253665,60.9690017 123.585,60.619 C123.916335,60.2689982 124.210332,59.9050019 124.467,59.527 C124.723668,59.1489981 124.931333,58.764002 125.09,58.372 C125.248667,57.979998 125.328,57.588002 125.328,57.196 C125.328,56.6453306 125.185668,56.1903351 124.901,55.831 C124.616332,55.4716649 124.18467,55.292 123.606,55.292 C123.083331,55.292 122.665668,55.4553317 122.353,55.782 C122.040332,56.1086683 121.832667,56.5146642 121.73,57 L120.624,56.734 C120.866668,55.9779962 121.239997,55.404002 121.744,55.012 C122.248003,54.619998 122.910663,54.424 123.732,54.424 C124.124002,54.424 124.494998,54.4799994 124.845,54.592 C125.195002,54.7040006 125.500665,54.8719989 125.762,55.096 C126.023335,55.3200011 126.228666,55.6023316 126.378,55.943 C126.527334,56.2836684 126.602,56.6826644 126.602,57.14 C126.602,57.7560031 126.450335,58.3509971 126.147,58.925 C125.843665,59.4990029 125.468002,60.0403308 125.02,60.549 C124.571998,61.0576692 124.086669,61.5243312 123.564,61.949 C123.041331,62.3736688 122.560669,62.7353318 122.122,63.034 L126.854,63.034 L126.854,64 L120.554,64 L120.554,63.146 Z M131.67,63.216 C132.099335,63.216 132.451665,63.0830013 132.727,62.817 C133.002335,62.5509987 133.216999,62.2196686 133.371,61.823 C133.525001,61.4263313 133.632333,61.0016689 133.693,60.549 C133.753667,60.0963311 133.784,59.6833352 133.784,59.31 C133.784,58.9459982 133.753667,58.5353356 133.693,58.078 C133.632333,57.6206644 133.525001,57.1936686 133.371,56.797 C133.216999,56.4003313 133.002335,56.066668 132.727,55.796 C132.451665,55.525332 132.099335,55.39 131.67,55.39 C131.249998,55.39 130.904668,55.518332 130.634,55.775 C130.363332,56.0316679 130.146334,56.3489981 129.983,56.727 C129.819666,57.1050019 129.707667,57.5133311 129.647,57.952 C129.586333,58.3906689 129.556,58.7966648 129.556,59.17 C129.556,59.5526686 129.581666,59.977331 129.633,60.444 C129.684334,60.910669 129.786999,61.3493313 129.941,61.76 C130.095001,62.1706687 130.309665,62.5159986 130.585,62.796 C130.860335,63.0760014 131.221998,63.216 131.67,63.216 Z M131.67,64.21 C131.053997,64.2006666 130.526669,64.0466682 130.088,63.748 C129.649331,63.4493318 129.294668,63.066669 129.024,62.6 C128.753332,62.133331 128.555001,61.6106696 128.429,61.032 C128.302999,60.4533304 128.24,59.8793362 128.24,59.31 C128.24,58.7406638 128.302999,58.1643362 128.429,57.581 C128.555001,56.9976637 128.755665,56.472669 129.031,56.006 C129.306335,55.539331 129.663331,55.1566682 130.102,54.858 C130.540669,54.5593318 131.07733,54.41 131.712,54.41 C132.337336,54.41 132.866998,54.5593318 133.301,54.858 C133.735002,55.1566682 134.084999,55.539331 134.351,56.006 C134.617001,56.472669 134.808333,56.9953304 134.925,57.574 C135.041667,58.1526696 135.1,58.7266638 135.1,59.296 C135.1,59.8560028 135.041667,60.4253304 134.925,61.004 C134.808333,61.5826696 134.617001,62.1076643 134.351,62.579 C134.084999,63.0503357 133.732669,63.4376651 133.294,63.741 C132.855331,64.0443348 132.314003,64.2006666 131.67,64.21 Z M139.65,63.216 C140.079335,63.216 140.431665,63.0830013 140.707,62.817 C140.982335,62.5509987 141.196999,62.2196686 141.351,61.823 C141.505001,61.4263313 141.612333,61.0016689 141.673,60.549 C141.733667,60.0963311 141.764,59.6833352 141.764,59.31 C141.764,58.9459982 141.733667,58.5353356 141.673,58.078 C141.612333,57.6206644 141.505001,57.1936686 141.351,56.797 C141.196999,56.4003313 140.982335,56.066668 140.707,55.796 C140.431665,55.525332 140.079335,55.39 139.65,55.39 C139.229998,55.39 138.884668,55.518332 138.614,55.775 C138.343332,56.0316679 138.126334,56.3489981 137.963,56.727 C137.799666,57.1050019 137.687667,57.5133311 137.627,57.952 C137.566333,58.3906689 137.536,58.7966648 137.536,59.17 C137.536,59.5526686 137.561666,59.977331 137.613,60.444 C137.664334,60.910669 137.766999,61.3493313 137.921,61.76 C138.075001,62.1706687 138.289665,62.5159986 138.565,62.796 C138.840335,63.0760014 139.201998,63.216 139.65,63.216 Z M139.65,64.21 C139.033997,64.2006666 138.506669,64.0466682 138.068,63.748 C137.629331,63.4493318 137.274668,63.066669 137.004,62.6 C136.733332,62.133331 136.535001,61.6106696 136.409,61.032 C136.282999,60.4533304 136.22,59.8793362 136.22,59.31 C136.22,58.7406638 136.282999,58.1643362 136.409,57.581 C136.535001,56.9976637 136.735665,56.472669 137.011,56.006 C137.286335,55.539331 137.643331,55.1566682 138.082,54.858 C138.520669,54.5593318 139.05733,54.41 139.692,54.41 C140.317336,54.41 140.846998,54.5593318 141.281,54.858 C141.715002,55.1566682 142.064999,55.539331 142.331,56.006 C142.597001,56.472669 142.788333,56.9953304 142.905,57.574 C143.021667,58.1526696 143.08,58.7266638 143.08,59.296 C143.08,59.8560028 143.021667,60.4253304 142.905,61.004 C142.788333,61.5826696 142.597001,62.1076643 142.331,62.579 C142.064999,63.0503357 141.712669,63.4376651 141.274,63.741 C140.835331,64.0443348 140.294003,64.2006666 139.65,64.21 Z M153.454,62.488 C153.173999,63.0480028 152.798336,63.4749985 152.327,63.769 C151.855664,64.0630015 151.284003,64.21 150.612,64.21 C150.061331,64.21 149.583002,64.1143343 149.177,63.923 C148.770998,63.7316657 148.435001,63.4726683 148.169,63.146 C147.902999,62.8193317 147.707001,62.4343355 147.581,61.991 C147.454999,61.5476644 147.392,61.0740025 147.392,60.57 C147.392,60.0566641 147.459666,59.5783355 147.595,59.135 C147.730334,58.6916644 147.930999,58.3066683 148.197,57.98 C148.463001,57.6533317 148.796665,57.3943343 149.198,57.203 C149.599335,57.0116657 150.070664,56.916 150.612,56.916 C151.293337,56.916 151.860331,57.0676651 152.313,57.371 C152.765669,57.6743348 153.131999,58.1013306 153.412,58.652 L152.432,59.114 C152.077332,58.255329 151.480004,57.826 150.64,57.826 C150.285332,57.826 149.979668,57.8959993 149.723,58.036 C149.466332,58.1760007 149.256334,58.3673321 149.093,58.61 C148.929666,58.8526679 148.808334,59.1349984 148.729,59.457 C148.649666,59.7790016 148.61,60.1266648 148.61,60.5 C148.61,60.8546684 148.647333,61.1999983 148.722,61.536 C148.796667,61.8720017 148.917999,62.1706654 149.086,62.432 C149.254001,62.6933346 149.468665,62.9033325 149.73,63.062 C149.991335,63.2206675 150.313331,63.3 150.696,63.3 C151.181336,63.3 151.573332,63.1763346 151.872,62.929 C152.170668,62.6816654 152.399333,62.362002 152.558,61.97 L153.454,62.488 Z M154.742,54.116 L155.904,54.116 L155.904,58.47 C155.988,58.2646656 156.095333,58.0686676 156.226,57.882 C156.356667,57.6953324 156.515332,57.5296674 156.702,57.385 C156.888668,57.2403326 157.103332,57.1260004 157.346,57.042 C157.588668,56.9579996 157.859332,56.916 158.158,56.916 C158.87667,56.916 159.406332,57.1516643 159.747,57.623 C160.087668,58.0943357 160.258,58.7313293 160.258,59.534 L160.258,64 L159.096,64 L159.096,59.716 C159.096,59.1279971 158.974668,58.6870015 158.732,58.393 C158.489332,58.0989985 158.144002,57.952 157.696,57.952 C157.434665,57.952 157.194334,58.0079994 156.975,58.12 C156.755666,58.2320006 156.566667,58.3906656 156.408,58.596 C156.249333,58.8013344 156.125667,59.0486652 156.037,59.338 C155.948333,59.6273348 155.904,59.9446649 155.904,60.29 L155.904,64 L154.742,64 L154.742,54.116 Z M166.348,64 C166.245333,63.6639983 166.184667,63.262669 166.166,62.796 C165.979332,63.2253355 165.692335,63.568332 165.305,63.825 C164.917665,64.0816679 164.458003,64.21 163.926,64.21 C163.253997,64.21 162.722002,64.0186686 162.33,63.636 C161.937998,63.2533314 161.742,62.7400032 161.742,62.096 C161.742,61.7319982 161.807333,61.4263346 161.938,61.179 C162.068667,60.9316654 162.250665,60.7263341 162.484,60.563 C162.717334,60.3996658 162.992665,60.2713338 163.31,60.178 C163.627335,60.0846662 163.972665,60.0100003 164.346,59.954 L166.11,59.688 L166.11,59.254 C166.11,58.9459985 166.072667,58.6986676 165.998,58.512 C165.923333,58.3253324 165.820667,58.1806672 165.69,58.078 C165.559333,57.9753328 165.410001,57.9076668 165.242,57.875 C165.073999,57.8423332 164.896668,57.826 164.71,57.826 C164.177997,57.826 163.739335,57.923999 163.394,58.12 C163.048665,58.316001 162.759334,58.5633318 162.526,58.862 L161.924,58.106 C162.194668,57.7793317 162.570331,57.4993345 163.051,57.266 C163.531669,57.0326655 164.126663,56.916 164.836,56.916 C165.694671,56.916 166.317665,57.1073314 166.705,57.49 C167.092335,57.8726686 167.286,58.4886624 167.286,59.338 L167.286,62.124 C167.286,62.3480011 167.288333,62.5439992 167.293,62.712 C167.297667,62.8800008 167.307,63.0363326 167.321,63.181 C167.335,63.3256674 167.356,63.4633327 167.384,63.594 C167.412,63.7246673 167.449333,63.8599993 167.496,64 L166.348,64 Z M166.11,60.458 L164.458,60.724 C163.888664,60.8266672 163.485001,60.9806656 163.247,61.186 C163.008999,61.3913344 162.89,61.6759982 162.89,62.04 C162.89,62.4133352 162.999666,62.7259987 163.219,62.978 C163.438334,63.2300013 163.762665,63.356 164.192,63.356 C164.453335,63.356 164.700666,63.3046672 164.934,63.202 C165.167334,63.0993328 165.370332,62.9570009 165.543,62.775 C165.715668,62.5929991 165.853333,62.3736679 165.956,62.117 C166.058667,61.860332 166.11,61.5780015 166.11,61.27 L166.11,60.458 Z M169.148,57.112 L170.156,57.112 L170.268,58.652 C170.464001,58.1479975 170.776665,57.7326683 171.206,57.406 C171.635335,57.0793317 172.143997,56.916 172.732,56.916 L172.732,58.148 C172.601333,58.1199999 172.456667,58.106 172.298,58.106 C172.064665,58.106 171.831335,58.1479996 171.598,58.232 C171.364666,58.3160004 171.152334,58.4513324 170.961,58.638 C170.769666,58.8246676 170.613334,59.0649985 170.492,59.359 C170.370666,59.6530015 170.31,60.0099979 170.31,60.43 L170.31,64 L169.148,64 L169.148,57.112 Z M178.206,64 C178.103333,63.6639983 178.042667,63.262669 178.024,62.796 C177.837332,63.2253355 177.550335,63.568332 177.163,63.825 C176.775665,64.0816679 176.316003,64.21 175.784,64.21 C175.111997,64.21 174.580002,64.0186686 174.188,63.636 C173.795998,63.2533314 173.6,62.7400032 173.6,62.096 C173.6,61.7319982 173.665333,61.4263346 173.796,61.179 C173.926667,60.9316654 174.108666,60.7263341 174.342,60.563 C174.575334,60.3996658 174.850665,60.2713338 175.168,60.178 C175.485335,60.0846662 175.830665,60.0100003 176.204,59.954 L177.968,59.688 L177.968,59.254 C177.968,58.9459985 177.930667,58.6986676 177.856,58.512 C177.781333,58.3253324 177.678667,58.1806672 177.548,58.078 C177.417333,57.9753328 177.268001,57.9076668 177.1,57.875 C176.931999,57.8423332 176.754668,57.826 176.568,57.826 C176.035997,57.826 175.597335,57.923999 175.252,58.12 C174.906665,58.316001 174.617335,58.5633318 174.384,58.862 L173.782,58.106 C174.052668,57.7793317 174.428331,57.4993345 174.909,57.266 C175.389669,57.0326655 175.984663,56.916 176.694,56.916 C177.552671,56.916 178.175665,57.1073314 178.563,57.49 C178.950335,57.8726686 179.144,58.4886624 179.144,59.338 L179.144,62.124 C179.144,62.3480011 179.146333,62.5439992 179.151,62.712 C179.155667,62.8800008 179.165,63.0363326 179.179,63.181 C179.193,63.3256674 179.214,63.4633327 179.242,63.594 C179.27,63.7246673 179.307333,63.8599993 179.354,64 L178.206,64 Z M177.968,60.458 L176.316,60.724 C175.746664,60.8266672 175.343001,60.9806656 175.105,61.186 C174.866999,61.3913344 174.748,61.6759982 174.748,62.04 C174.748,62.4133352 174.857666,62.7259987 175.077,62.978 C175.296334,63.2300013 175.620665,63.356 176.05,63.356 C176.311335,63.356 176.558666,63.3046672 176.792,63.202 C177.025334,63.0993328 177.228332,62.9570009 177.401,62.775 C177.573668,62.5929991 177.711333,62.3736679 177.814,62.117 C177.916667,61.860332 177.968,61.5780015 177.968,61.27 L177.968,60.458 Z M186.76,62.488 C186.479999,63.0480028 186.104336,63.4749985 185.633,63.769 C185.161664,64.0630015 184.590003,64.21 183.918,64.21 C183.367331,64.21 182.889002,64.1143343 182.483,63.923 C182.076998,63.7316657 181.741001,63.4726683 181.475,63.146 C181.208999,62.8193317 181.013001,62.4343355 180.887,61.991 C180.760999,61.5476644 180.698,61.0740025 180.698,60.57 C180.698,60.0566641 180.765666,59.5783355 180.901,59.135 C181.036334,58.6916644 181.236999,58.3066683 181.503,57.98 C181.769001,57.6533317 182.102665,57.3943343 182.504,57.203 C182.905335,57.0116657 183.376664,56.916 183.918,56.916 C184.599337,56.916 185.166331,57.0676651 185.619,57.371 C186.071669,57.6743348 186.437999,58.1013306 186.718,58.652 L185.738,59.114 C185.383332,58.255329 184.786004,57.826 183.946,57.826 C183.591332,57.826 183.285668,57.8959993 183.029,58.036 C182.772332,58.1760007 182.562334,58.3673321 182.399,58.61 C182.235666,58.8526679 182.114334,59.1349984 182.035,59.457 C181.955666,59.7790016 181.916,60.1266648 181.916,60.5 C181.916,60.8546684 181.953333,61.1999983 182.028,61.536 C182.102667,61.8720017 182.223999,62.1706654 182.392,62.432 C182.560001,62.6933346 182.774665,62.9033325 183.036,63.062 C183.297335,63.2206675 183.619331,63.3 184.002,63.3 C184.487336,63.3 184.879332,63.1763346 185.178,62.929 C185.476668,62.6816654 185.705333,62.362002 185.864,61.97 L186.76,62.488 Z M188.65,57.91 L187.474,57.91 L187.474,57.112 L187.726,57.112 C188.015335,57.112 188.241666,57.081667 188.405,57.021 C188.568334,56.960333 188.692,56.8670006 188.776,56.741 C188.86,56.6149994 188.920666,56.4493344 188.958,56.244 C188.995334,56.0386656 189.028,55.7866682 189.056,55.488 L189.084,55.236 L189.812,55.236 L189.812,57.112 L191.296,57.112 L191.296,57.91 L189.812,57.91 L189.812,62.194 C189.812,62.586002 189.870333,62.8683325 189.987,63.041 C190.103667,63.2136675 190.320665,63.3 190.638,63.3 C190.890001,63.3 191.123332,63.2440006 191.338,63.132 L191.464,63.972 C191.109332,64.1306675 190.717335,64.21 190.288,64.21 C189.951998,64.21 189.679001,64.1633338 189.469,64.07 C189.258999,63.9766662 189.093334,63.8506675 188.972,63.692 C188.850666,63.5333325 188.766667,63.3420011 188.72,63.118 C188.673333,62.8939989 188.65,62.6513346 188.65,62.39 L188.65,57.91 Z M193.578,60.822 C193.624667,61.6153373 193.827665,62.2289978 194.187,62.663 C194.546335,63.0970022 195.047997,63.314 195.692,63.314 C196.504004,63.314 197.115331,62.9313372 197.526,62.166 L198.408,62.656 C198.137332,63.1133356 197.778002,63.4866652 197.33,63.776 C196.881998,64.0653348 196.317337,64.21 195.636,64.21 C195.094664,64.21 194.621002,64.1166676 194.215,63.93 C193.808998,63.7433324 193.470668,63.4866683 193.2,63.16 C192.929332,62.8333317 192.726334,62.4506689 192.591,62.012 C192.455666,61.5733311 192.388,61.1020025 192.388,60.598 C192.388,60.1033309 192.453333,59.6320022 192.584,59.184 C192.714667,58.7359978 192.912999,58.3440017 193.179,58.008 C193.445001,57.6719983 193.771665,57.406001 194.159,57.21 C194.546335,57.013999 195.001331,56.916 195.524,56.916 C196.028003,56.916 196.466665,57.0116657 196.84,57.203 C197.213335,57.3943343 197.523665,57.6509984 197.771,57.973 C198.018335,58.2950016 198.204999,58.6683312 198.331,59.093 C198.457001,59.5176688 198.52,59.9679976 198.52,60.444 C198.52,60.5466672 198.517667,60.6259997 198.513,60.682 C198.508333,60.7380003 198.506,60.7846665 198.506,60.822 L193.578,60.822 Z M195.51,57.798 C194.921997,57.798 194.467002,58.0079979 194.145,58.428 C193.822998,58.8480021 193.638667,59.4126631 193.592,60.122 L197.33,60.122 C197.33,59.8326652 197.297334,59.5503347 197.232,59.275 C197.166666,58.9996653 197.059334,58.7523344 196.91,58.533 C196.760666,58.3136656 196.571668,58.136334 196.343,58.001 C196.114332,57.865666 195.836668,57.798 195.51,57.798 Z M199.934,57.112 L200.942,57.112 L201.054,58.652 C201.250001,58.1479975 201.562665,57.7326683 201.992,57.406 C202.421335,57.0793317 202.929997,56.916 203.518,56.916 L203.518,58.148 C203.387333,58.1199999 203.242667,58.106 203.084,58.106 C202.850665,58.106 202.617335,58.1479996 202.384,58.232 C202.150666,58.3160004 201.938334,58.4513324 201.747,58.638 C201.555666,58.8246676 201.399334,59.0649985 201.278,59.359 C201.156666,59.6530015 201.096,60.0099979 201.096,60.43 L201.096,64 L199.934,64 L199.934,57.112 Z M204.792,62.306 C205.025334,62.6046682 205.326331,62.851999 205.695,63.048 C206.063669,63.244001 206.467331,63.342 206.906,63.342 C207.298002,63.342 207.638665,63.2486676 207.928,63.062 C208.217335,62.8753324 208.362,62.5953352 208.362,62.222 C208.362,61.9326652 208.266334,61.7063341 208.075,61.543 C207.883666,61.3796658 207.645668,61.2420006 207.361,61.13 C207.076332,61.0179994 206.766002,60.9153338 206.43,60.822 C206.093998,60.7286662 205.783668,60.6073341 205.499,60.458 C205.214332,60.3086659 204.976334,60.1126679 204.785,59.87 C204.593666,59.6273321 204.498,59.2960021 204.498,58.876 C204.498,58.5306649 204.567999,58.2343346 204.708,57.987 C204.848001,57.7396654 205.032332,57.5366675 205.261,57.378 C205.489668,57.2193325 205.753332,57.102667 206.052,57.028 C206.350668,56.953333 206.663332,56.916 206.99,56.916 C207.960672,56.916 208.767997,57.1959972 209.412,57.756 L208.824,58.54 C208.618666,58.3253323 208.345668,58.1456674 208.005,58.001 C207.664332,57.8563326 207.312002,57.784 206.948,57.784 C206.789333,57.784 206.633001,57.8026665 206.479,57.84 C206.324999,57.8773335 206.189667,57.9356663 206.073,58.015 C205.956333,58.0943337 205.863,58.1946661 205.793,58.316 C205.723,58.4373339 205.688,58.5866658 205.688,58.764 C205.688,59.034668 205.783666,59.2446659 205.975,59.394 C206.166334,59.5433341 206.404332,59.6716661 206.689,59.779 C206.973668,59.8863339 207.281665,59.9889995 207.613,60.087 C207.944335,60.1850005 208.252332,60.3109992 208.537,60.465 C208.821668,60.6190008 209.059666,60.8219987 209.251,61.074 C209.442334,61.3260013 209.538,61.6619979 209.538,62.082 C209.538,62.4366684 209.465667,62.7469987 209.321,63.013 C209.176333,63.2790013 208.985001,63.5006658 208.747,63.678 C208.508999,63.8553342 208.233668,63.9883329 207.921,64.077 C207.608332,64.1656671 207.284002,64.21 206.948,64.21 C205.790661,64.21 204.871337,63.8366704 204.19,63.09 L204.792,62.306 Z" id="200/200-characters" fill="#4C5358"></path>
                    <path d="M0,42.5 L210,42.5" id="Line" stroke="#7C878E" stroke-linecap="square"></path>
                    <path d="M1.12,20.704 L4.928,20.704 C5.38666896,20.704 5.83733112,20.7493329 6.28,20.84 C6.72266888,20.9306671 7.11466496,21.0853322 7.456,21.304 C7.79733504,21.5226678 8.07199896,21.8133315 8.28,22.176 C8.48800104,22.5386685 8.592,22.986664 8.592,23.52 C8.592,24.2133368 8.38666872,24.7839978 7.976,25.232 C7.56533128,25.6800022 6.99733696,25.9626661 6.272,26.08 C6.6453352,26.1333336 6.99466504,26.2293326 7.32,26.368 C7.64533496,26.5066674 7.9279988,26.6933322 8.168,26.928 C8.4080012,27.1626678 8.594666,27.442665 8.728,27.768 C8.861334,28.093335 8.928,28.4693312 8.928,28.896 C8.928,29.4720029 8.82933432,29.959998 8.632,30.36 C8.43466568,30.760002 8.16533504,31.0799988 7.824,31.32 C7.48266496,31.5600012 7.07733568,31.7333328 6.608,31.84 C6.13866432,31.9466672 5.62666944,32 5.072,32 L1.12,32 L1.12,20.704 Z M4.416,25.552 C4.72533488,25.552 5.03733176,25.5333335 5.352,25.496 C5.66666824,25.4586665 5.95199872,25.3706674 6.208,25.232 C6.46400128,25.0933326 6.6719992,24.8960013 6.832,24.64 C6.9920008,24.3839987 7.072,24.0373355 7.072,23.6 C7.072,23.2479982 7.00800064,22.9573345 6.88,22.728 C6.75199936,22.4986655 6.57600112,22.317334 6.352,22.184 C6.12799888,22.050666 5.87200144,21.9573336 5.584,21.904 C5.29599856,21.8506664 4.9920016,21.824 4.672,21.824 L2.56,21.824 L2.56,25.552 L4.416,25.552 Z M4.848,30.88 C5.1680016,30.88 5.47999848,30.8480003 5.784,30.784 C6.08800152,30.7199997 6.3599988,30.6080008 6.6,30.448 C6.8400012,30.2879992 7.03199928,30.0693347 7.176,29.792 C7.32000072,29.5146653 7.392,29.1626688 7.392,28.736 C7.392,28.3413314 7.31466744,28.010668 7.16,27.744 C7.00533256,27.477332 6.80000128,27.2640008 6.544,27.104 C6.28799872,26.9439992 5.99733496,26.8293337 5.672,26.76 C5.34666504,26.6906663 5.01333504,26.656 4.672,26.656 L2.56,26.656 L2.56,30.88 L4.848,30.88 Z M10.64,24.128 L11.792,24.128 L11.92,25.888 C12.1440011,25.3119971 12.5013309,24.8373352 12.992,24.464 C13.4826691,24.0906648 14.0639966,23.904 14.736,23.904 L14.736,25.312 C14.5866659,25.2799998 14.4213342,25.264 14.24,25.264 C13.973332,25.264 13.706668,25.3119995 13.44,25.408 C13.173332,25.5040005 12.9306678,25.6586656 12.712,25.872 C12.4933322,26.0853344 12.3146674,26.3599983 12.176,26.696 C12.0373326,27.0320017 11.968,27.4399976 11.968,27.92 L11.968,32 L10.64,32 L10.64,24.128 Z M16.048,21.072 L17.376,21.072 L17.376,22.4 L16.048,22.4 L16.048,21.072 Z M16.048,24.128 L17.376,24.128 L17.376,32 L16.048,32 L16.048,24.128 Z M20.432,28.368 C20.4853336,29.2746712 20.7173313,29.9759975 21.128,30.472 C21.5386687,30.9680025 22.1119963,31.216 22.848,31.216 C23.7760046,31.216 24.4746643,30.778671 24.944,29.904 L25.952,30.464 C25.6426651,30.9866693 25.2320026,31.4133317 24.72,31.744 C24.2079974,32.0746683 23.5626706,32.24 22.784,32.24 C22.1653302,32.24 21.6240023,32.1333344 21.16,31.92 C20.6959977,31.7066656 20.3093349,31.4133352 20,31.04 C19.6906651,30.6666648 19.4586674,30.2293358 19.304,29.728 C19.1493326,29.2266642 19.072,28.6880029 19.072,28.112 C19.072,27.5466638 19.1466659,27.0080026 19.296,26.496 C19.4453341,25.9839974 19.6719985,25.5360019 19.976,25.152 C20.2800015,24.7679981 20.6533311,24.4640011 21.096,24.24 C21.5386689,24.0159989 22.0586637,23.904 22.656,23.904 C23.2320029,23.904 23.7333312,24.0133322 24.16,24.232 C24.5866688,24.4506678 24.9413319,24.7439982 25.224,25.112 C25.5066681,25.4800018 25.7199993,25.9066642 25.864,26.392 C26.0080007,26.8773358 26.08,27.3919973 26.08,27.936 C26.08,28.0533339 26.0773334,28.1439997 26.072,28.208 C26.0666666,28.2720003 26.064,28.3253331 26.064,28.368 L20.432,28.368 Z M22.64,24.912 C21.9679966,24.912 21.4480018,25.1519976 21.08,25.632 C20.7119982,26.1120024 20.5013336,26.7573293 20.448,27.568 L24.72,27.568 C24.72,27.2373317 24.682667,26.9146682 24.608,26.6 C24.533333,26.2853318 24.4106675,26.0026679 24.24,25.752 C24.0693325,25.5013321 23.8533346,25.2986674 23.592,25.144 C23.3306654,24.9893326 23.0133352,24.912 22.64,24.912 Z M28.368,25.04 L27.008,25.04 L27.008,24.128 L28.304,24.128 C28.2186662,23.8506653 28.146667,23.5546682 28.088,23.24 C28.029333,22.9253318 28,22.6293347 28,22.352 C28,22.0959987 28.029333,21.8533345 28.088,21.624 C28.146667,21.3946655 28.2506659,21.1920009 28.4,21.016 C28.5493341,20.8399991 28.7519987,20.6986672 29.008,20.592 C29.2640013,20.4853328 29.5893314,20.432 29.984,20.432 C30.2720014,20.432 30.5306655,20.4506665 30.76,20.488 C30.9893345,20.5253335 31.2053323,20.5866662 31.408,20.672 L31.184,21.68 C31.0666661,21.6266664 30.9200009,21.5813335 30.744,21.544 C30.5679991,21.5066665 30.4053341,21.488 30.256,21.488 C29.647997,21.488 29.344,21.8399965 29.344,22.544 C29.344,22.8213347 29.3786663,23.1093318 29.448,23.408 C29.5173337,23.7066682 29.589333,23.9466658 29.664,24.128 L31.184,24.128 L31.184,25.04 L29.712,25.04 L29.712,32 L28.368,32 L28.368,25.04 Z M32.528,20.704 L33.856,20.704 L33.856,32 L32.528,32 L32.528,20.704 Z M35.728,33.68 C35.8453339,33.7226669 35.9786659,33.7599998 36.128,33.792 C36.2773341,33.8240002 36.4319992,33.84 36.592,33.84 C36.7626675,33.84 36.9093327,33.8160002 37.032,33.768 C37.1546673,33.7199998 37.2666662,33.6320006 37.368,33.504 C37.4693338,33.3759994 37.5653329,33.2053344 37.656,32.992 C37.7466671,32.7786656 37.8453328,32.501335 37.952,32.16 L35.28,24.128 L36.72,24.128 L38.64,30.64 L40.544,24.128 L41.984,24.128 L39.568,31.376 C39.3653323,31.9946698 39.1813342,32.5226645 39.016,32.96 C38.8506658,33.3973355 38.6666677,33.7573319 38.464,34.04 C38.2613323,34.3226681 38.0133348,34.530666 37.72,34.664 C37.4266652,34.797334 37.050669,34.864 36.592,34.864 C36.4106658,34.864 36.216001,34.8560001 36.008,34.84 C35.799999,34.8239999 35.6373339,34.7946669 35.52,34.752 L35.728,33.68 Z M52.32,30.464 C52.1066656,30.997336 51.7920021,31.4186651 51.376,31.728 C50.9599979,32.0373349 50.4426698,32.192 49.824,32.192 C49.3333309,32.192 48.8933353,32.0906677 48.504,31.888 C48.1146647,31.6853323 47.7840014,31.4026685 47.512,31.04 C47.2399986,30.6773315 47.0320007,30.2400026 46.888,29.728 C46.7439993,29.2159974 46.672,28.6506698 46.672,28.032 C46.672,27.3919968 46.7466659,26.8186692 46.896,26.312 C47.0453341,25.8053308 47.2586653,25.3760018 47.536,25.024 C47.8133347,24.6719982 48.1466647,24.400001 48.536,24.208 C48.9253353,24.015999 49.3546643,23.92 49.824,23.92 C50.4640032,23.92 50.9866646,24.0719985 51.392,24.376 C51.7973354,24.6800015 52.0853325,25.0453312 52.256,25.472 L52.256,20.704 L53.6,20.704 L53.6,32 L52.32,32 L52.32,30.464 Z M52.256,28.016 C52.256,27.6853317 52.2480001,27.4266676 52.232,27.24 C52.2159999,27.0533324 52.1973334,26.9013339 52.176,26.784 C52.1226664,26.5493322 52.0426672,26.3253344 51.936,26.112 C51.8293328,25.8986656 51.6933342,25.7093342 51.528,25.544 C51.3626658,25.3786658 51.1680011,25.2480005 50.944,25.152 C50.7199989,25.0559995 50.4640014,25.008 50.176,25.008 C49.8133315,25.008 49.5013346,25.0879992 49.24,25.248 C48.9786654,25.4080008 48.7600009,25.6239986 48.584,25.896 C48.4079991,26.1680014 48.2773338,26.4879982 48.192,26.856 C48.1066662,27.2240018 48.064,27.6159979 48.064,28.032 C48.064,28.4800022 48.1119995,28.8933314 48.208,29.272 C48.3040005,29.6506686 48.4426658,29.9759986 48.624,30.248 C48.8053342,30.5200014 49.029332,30.7333326 49.296,30.888 C49.562668,31.0426674 49.866665,31.12 50.208,31.12 C50.474668,31.12 50.7173322,31.0720005 50.936,30.976 C51.1546678,30.8799995 51.3466658,30.7466675 51.512,30.576 C51.6773342,30.4053325 51.8133328,30.2106678 51.92,29.992 C52.0266672,29.7733322 52.1066664,29.5413346 52.16,29.296 C52.2240003,28.9973318 52.256,28.5973358 52.256,28.096 L52.256,28.016 Z M56.64,28.368 C56.6933336,29.2746712 56.9253313,29.9759975 57.336,30.472 C57.7466687,30.9680025 58.3199963,31.216 59.056,31.216 C59.9840046,31.216 60.6826643,30.778671 61.152,29.904 L62.16,30.464 C61.8506651,30.9866693 61.4400026,31.4133317 60.928,31.744 C60.4159974,32.0746683 59.7706706,32.24 58.992,32.24 C58.3733302,32.24 57.8320023,32.1333344 57.368,31.92 C56.9039977,31.7066656 56.5173349,31.4133352 56.208,31.04 C55.8986651,30.6666648 55.6666674,30.2293358 55.512,29.728 C55.3573326,29.2266642 55.28,28.6880029 55.28,28.112 C55.28,27.5466638 55.3546659,27.0080026 55.504,26.496 C55.6533341,25.9839974 55.8799985,25.5360019 56.184,25.152 C56.4880015,24.7679981 56.8613311,24.4640011 57.304,24.24 C57.7466689,24.0159989 58.2666637,23.904 58.864,23.904 C59.4400029,23.904 59.9413312,24.0133322 60.368,24.232 C60.7946688,24.4506678 61.1493319,24.7439982 61.432,25.112 C61.7146681,25.4800018 61.9279993,25.9066642 62.072,26.392 C62.2160007,26.8773358 62.288,27.3919973 62.288,27.936 C62.288,28.0533339 62.2853334,28.1439997 62.28,28.208 C62.2746666,28.2720003 62.272,28.3253331 62.272,28.368 L56.64,28.368 Z M58.848,24.912 C58.1759966,24.912 57.6560018,25.1519976 57.288,25.632 C56.9199982,26.1120024 56.7093336,26.7573293 56.656,27.568 L60.928,27.568 C60.928,27.2373317 60.890667,26.9146682 60.816,26.6 C60.741333,26.2853318 60.6186675,26.0026679 60.448,25.752 C60.2773325,25.5013321 60.0613346,25.2986674 59.8,25.144 C59.5386654,24.9893326 59.2213352,24.912 58.848,24.912 Z M64.048,30.064 C64.314668,30.405335 64.6586646,30.6879989 65.08,30.912 C65.5013354,31.1360011 65.9626642,31.248 66.464,31.248 C66.9120022,31.248 67.3013317,31.1413344 67.632,30.928 C67.9626683,30.7146656 68.128,30.3946688 68.128,29.968 C68.128,29.6373317 68.0186678,29.3786676 67.8,29.192 C67.5813322,29.0053324 67.309335,28.8480006 66.984,28.72 C66.658665,28.5919994 66.3040019,28.4746672 65.92,28.368 C65.5359981,28.2613328 65.181335,28.1226675 64.856,27.952 C64.530665,27.7813325 64.2586678,27.5573347 64.04,27.28 C63.8213322,27.0026653 63.712,26.6240024 63.712,26.144 C63.712,25.7493314 63.7919992,25.4106681 63.952,25.128 C64.1120008,24.8453319 64.3226654,24.6133342 64.584,24.432 C64.8453346,24.2506658 65.146665,24.1173338 65.488,24.032 C65.829335,23.9466662 66.1866648,23.904 66.56,23.904 C67.6693389,23.904 68.5919963,24.2239968 69.328,24.864 L68.656,25.76 C68.4213322,25.5146654 68.1093353,25.3093342 67.72,25.144 C67.3306647,24.9786658 66.9280021,24.896 66.512,24.896 C66.3306658,24.896 66.1520009,24.9173331 65.976,24.96 C65.7999991,25.0026669 65.645334,25.0693329 65.512,25.16 C65.378666,25.2506671 65.2720004,25.3653326 65.192,25.504 C65.1119996,25.6426674 65.072,25.8133323 65.072,26.016 C65.072,26.3253349 65.1813322,26.5653325 65.4,26.736 C65.6186678,26.9066675 65.890665,27.0533327 66.216,27.176 C66.541335,27.2986673 66.8933314,27.4159994 67.272,27.528 C67.6506686,27.6400006 68.002665,27.7839991 68.328,27.96 C68.653335,28.1360009 68.9253322,28.3679986 69.144,28.656 C69.3626678,28.9440014 69.472,29.3279976 69.472,29.808 C69.472,30.2133354 69.3893342,30.5679985 69.224,30.872 C69.0586658,31.1760015 68.8400014,31.4293323 68.568,31.632 C68.2959986,31.8346677 67.9813351,31.9866662 67.624,32.088 C67.2666649,32.1893338 66.8960019,32.24 66.512,32.24 C65.1893267,32.24 64.1386706,31.8133376 63.36,30.96 L64.048,30.064 Z M77.6,30.272 C77.2799984,30.9120032 76.8506694,31.3999983 76.312,31.736 C75.7733306,32.0720017 75.1200038,32.24 74.352,32.24 C73.7226635,32.24 73.1760023,32.1306678 72.712,31.912 C72.2479977,31.6933322 71.8640015,31.3973352 71.56,31.024 C71.2559985,30.6506648 71.0320007,30.2106692 70.888,29.704 C70.7439993,29.1973308 70.672,28.6560029 70.672,28.08 C70.672,27.4933304 70.7493326,26.9466692 70.904,26.44 C71.0586674,25.9333308 71.2879985,25.4933352 71.592,25.12 C71.8960015,24.7466648 72.277331,24.4506678 72.736,24.232 C73.194669,24.0133322 73.7333302,23.904 74.352,23.904 C75.1306706,23.904 75.7786641,24.0773316 76.296,24.424 C76.8133359,24.7706684 77.2319984,25.2586635 77.552,25.888 L76.432,26.416 C76.0266646,25.4346618 75.3440048,24.944 74.384,24.944 C73.9786646,24.944 73.6293348,25.0239992 73.336,25.184 C73.0426652,25.3440008 72.8026676,25.5626653 72.616,25.84 C72.4293324,26.1173347 72.2906671,26.4399982 72.2,26.808 C72.1093329,27.1760018 72.064,27.5733312 72.064,28 C72.064,28.4053354 72.1066662,28.7999981 72.192,29.184 C72.2773338,29.5680019 72.415999,29.9093318 72.608,30.208 C72.800001,30.5066682 73.0453318,30.7466658 73.344,30.928 C73.6426682,31.1093342 74.0106645,31.2 74.448,31.2 C75.0026694,31.2 75.450665,31.0586681 75.792,30.776 C76.133335,30.4933319 76.3946658,30.1280022 76.576,29.68 L77.6,30.272 Z M79.072,24.128 L80.224,24.128 L80.352,25.888 C80.5760011,25.3119971 80.9333309,24.8373352 81.424,24.464 C81.9146691,24.0906648 82.4959966,23.904 83.168,23.904 L83.168,25.312 C83.0186659,25.2799998 82.8533342,25.264 82.672,25.264 C82.405332,25.264 82.138668,25.3119995 81.872,25.408 C81.605332,25.5040005 81.3626678,25.6586656 81.144,25.872 C80.9253322,26.0853344 80.7466674,26.3599983 80.608,26.696 C80.4693326,27.0320017 80.4,27.4399976 80.4,27.92 L80.4,32 L79.072,32 L79.072,24.128 Z M84.48,21.072 L85.808,21.072 L85.808,22.4 L84.48,22.4 L84.48,21.072 Z M84.48,24.128 L85.808,24.128 L85.808,32 L84.48,32 L84.48,24.128 Z M87.856,20.704 L89.184,20.704 L89.184,25.52 C89.3973344,25.0719978 89.7146646,24.6906682 90.136,24.376 C90.5573354,24.0613318 91.0826635,23.904 91.712,23.904 C92.170669,23.904 92.5893314,23.999999 92.968,24.192 C93.3466686,24.384001 93.669332,24.6586649 93.936,25.016 C94.202668,25.3733351 94.4079993,25.8026642 94.552,26.304 C94.6960007,26.8053358 94.768,27.3653302 94.768,27.984 C94.768,28.592003 94.6960007,29.1546641 94.552,29.672 C94.4079993,30.1893359 94.202668,30.6346648 93.936,31.008 C93.669332,31.3813352 93.3413353,31.6746656 92.952,31.888 C92.5626647,32.1013344 92.1226691,32.208 91.632,32.208 C91.0559971,32.208 90.5440022,32.0613348 90.096,31.768 C89.6479978,31.4746652 89.3120011,31.0560027 89.088,30.512 L88.928,32 L87.856,32 L87.856,20.704 Z M89.184,28.096 C89.184,28.3306678 89.1919999,28.5413324 89.208,28.728 C89.2240001,28.9146676 89.2426666,29.0719994 89.264,29.2 C89.3066669,29.4560013 89.3866661,29.7013322 89.504,29.936 C89.6213339,30.1706678 89.7653325,30.3759991 89.936,30.552 C90.1066675,30.7280009 90.3066655,30.8693328 90.536,30.976 C90.7653345,31.0826672 91.0186653,31.136 91.296,31.136 C91.6586685,31.136 91.9706654,31.0480009 92.232,30.872 C92.4933346,30.6959991 92.7093325,30.4640014 92.88,30.176 C93.0506675,29.8879986 93.1759996,29.5600018 93.256,29.192 C93.3360004,28.8239982 93.376,28.4480019 93.376,28.064 C93.376,27.6693314 93.3333338,27.2880018 93.248,26.92 C93.1626662,26.5519982 93.0346675,26.2266681 92.864,25.944 C92.6933325,25.6613319 92.474668,25.4346675 92.208,25.264 C91.941332,25.0933325 91.6266685,25.008 91.264,25.008 C90.9759986,25.008 90.7173345,25.0586662 90.488,25.16 C90.2586655,25.2613338 90.0586675,25.3999991 89.888,25.576 C89.7173325,25.7520009 89.5786672,25.9573322 89.472,26.192 C89.3653328,26.4266678 89.2906669,26.677332 89.248,26.944 C89.2266666,27.0506672 89.2106667,27.1866658 89.2,27.352 C89.1893333,27.5173342 89.184,27.7493318 89.184,28.048 L89.184,28.096 Z M97.472,28.368 C97.5253336,29.2746712 97.7573313,29.9759975 98.168,30.472 C98.5786687,30.9680025 99.1519963,31.216 99.888,31.216 C100.816005,31.216 101.514664,30.778671 101.984,29.904 L102.992,30.464 C102.682665,30.9866693 102.272003,31.4133317 101.76,31.744 C101.247997,32.0746683 100.602671,32.24 99.824,32.24 C99.2053302,32.24 98.6640023,32.1333344 98.2,31.92 C97.7359977,31.7066656 97.3493349,31.4133352 97.04,31.04 C96.7306651,30.6666648 96.4986674,30.2293358 96.344,29.728 C96.1893326,29.2266642 96.112,28.6880029 96.112,28.112 C96.112,27.5466638 96.1866659,27.0080026 96.336,26.496 C96.4853341,25.9839974 96.7119985,25.5360019 97.016,25.152 C97.3200015,24.7679981 97.6933311,24.4640011 98.136,24.24 C98.5786689,24.0159989 99.0986637,23.904 99.696,23.904 C100.272003,23.904 100.773331,24.0133322 101.2,24.232 C101.626669,24.4506678 101.981332,24.7439982 102.264,25.112 C102.546668,25.4800018 102.759999,25.9066642 102.904,26.392 C103.048001,26.8773358 103.12,27.3919973 103.12,27.936 C103.12,28.0533339 103.117333,28.1439997 103.112,28.208 C103.106667,28.2720003 103.104,28.3253331 103.104,28.368 L97.472,28.368 Z M99.68,24.912 C99.0079966,24.912 98.4880018,25.1519976 98.12,25.632 C97.7519982,26.1120024 97.5413336,26.7573293 97.488,27.568 L101.76,27.568 C101.76,27.2373317 101.722667,26.9146682 101.648,26.6 C101.573333,26.2853318 101.450668,26.0026679 101.28,25.752 C101.109332,25.5013321 100.893335,25.2986674 100.632,25.144 C100.370665,24.9893326 100.053335,24.912 99.68,24.912 Z M108.16,33.68 C108.277334,33.7226669 108.410666,33.7599998 108.56,33.792 C108.709334,33.8240002 108.863999,33.84 109.024,33.84 C109.194668,33.84 109.341333,33.8160002 109.464,33.768 C109.586667,33.7199998 109.698666,33.6320006 109.8,33.504 C109.901334,33.3759994 109.997333,33.2053344 110.088,32.992 C110.178667,32.7786656 110.277333,32.501335 110.384,32.16 L107.712,24.128 L109.152,24.128 L111.072,30.64 L112.976,24.128 L114.416,24.128 L112,31.376 C111.797332,31.9946698 111.613334,32.5226645 111.448,32.96 C111.282666,33.3973355 111.098668,33.7573319 110.896,34.04 C110.693332,34.3226681 110.445335,34.530666 110.152,34.664 C109.858665,34.797334 109.482669,34.864 109.024,34.864 C108.842666,34.864 108.648001,34.8560001 108.44,34.84 C108.231999,34.8239999 108.069334,34.7946669 107.952,34.752 L108.16,33.68 Z M119.12,32.24 C118.522664,32.24 117.997336,32.1306678 117.544,31.912 C117.090664,31.6933322 116.712002,31.3946686 116.408,31.016 C116.103998,30.6373314 115.877334,30.1946692 115.728,29.688 C115.578666,29.1813308 115.504,28.6346696 115.504,28.048 C115.504,27.4613304 115.581333,26.9173358 115.736,26.416 C115.890667,25.9146642 116.119998,25.4773352 116.424,25.104 C116.728002,24.7306648 117.106664,24.4373344 117.56,24.224 C118.013336,24.0106656 118.53333,23.904 119.12,23.904 C119.70667,23.904 120.226664,24.0106656 120.68,24.224 C121.133336,24.4373344 121.514665,24.7279982 121.824,25.096 C122.133335,25.4640018 122.365333,25.9013308 122.52,26.408 C122.674667,26.9146692 122.752,27.4613304 122.752,28.048 C122.752,28.6346696 122.674667,29.1813308 122.52,29.688 C122.365333,30.1946692 122.133335,30.6373314 121.824,31.016 C121.514665,31.3946686 121.133336,31.6933322 120.68,31.912 C120.226664,32.1306678 119.70667,32.24 119.12,32.24 Z M119.152,31.2 C119.514668,31.2 119.834665,31.1200008 120.112,30.96 C120.389335,30.7999992 120.618666,30.5786681 120.8,30.296 C120.981334,30.0133319 121.12,29.6800019 121.216,29.296 C121.312,28.9119981 121.36,28.4960022 121.36,28.048 C121.36,27.5999978 121.312,27.1866686 121.216,26.808 C121.12,26.4293314 120.976001,26.1013347 120.784,25.824 C120.591999,25.5466653 120.357335,25.3306674 120.08,25.176 C119.802665,25.0213326 119.482668,24.944 119.12,24.944 C118.746665,24.944 118.421335,25.0213326 118.144,25.176 C117.866665,25.3306674 117.637334,25.5466653 117.456,25.824 C117.274666,26.1013347 117.136,26.4293314 117.04,26.808 C116.944,27.1866686 116.896,27.5999978 116.896,28.048 C116.896,28.4960022 116.944,28.9119981 117.04,29.296 C117.136,29.6800019 117.277332,30.0133319 117.464,30.296 C117.650668,30.5786681 117.885332,30.7999992 118.168,30.96 C118.450668,31.1200008 118.778665,31.2 119.152,31.2 Z M124.416,24.128 L125.76,24.128 L125.76,28.896 C125.76,29.6426704 125.898665,30.1893316 126.176,30.536 C126.453335,30.8826684 126.842664,31.056 127.344,31.056 C127.984003,31.056 128.482665,30.8026692 128.84,30.296 C129.197335,29.7893308 129.376,29.1146709 129.376,28.272 L129.376,24.128 L130.704,24.128 L130.704,32 L129.456,32 L129.456,30.4 C129.36,30.6453346 129.242667,30.8773322 129.104,31.096 C128.965333,31.3146678 128.794668,31.5066658 128.592,31.672 C128.389332,31.8373342 128.154668,31.9679995 127.888,32.064 C127.621332,32.1600005 127.306668,32.208 126.944,32.208 C126.090662,32.208 125.456002,31.9493359 125.04,31.432 C124.623998,30.9146641 124.416,30.1813381 124.416,29.232 L124.416,24.128 Z M132.752,24.128 L133.904,24.128 L134.032,25.888 C134.256001,25.3119971 134.613331,24.8373352 135.104,24.464 C135.594669,24.0906648 136.175997,23.904 136.848,23.904 L136.848,25.312 C136.698666,25.2799998 136.533334,25.264 136.352,25.264 C136.085332,25.264 135.818668,25.3119995 135.552,25.408 C135.285332,25.5040005 135.042668,25.6586656 134.824,25.872 C134.605332,26.0853344 134.426667,26.3599983 134.288,26.696 C134.149333,27.0320017 134.08,27.4399976 134.08,27.92 L134.08,32 L132.752,32 L132.752,24.128 Z M141.76,21.072 L143.088,21.072 L143.088,22.4 L141.76,22.4 L141.76,21.072 Z M141.76,24.128 L143.088,24.128 L143.088,32 L141.76,32 L141.76,24.128 Z M145.28,30.064 C145.546668,30.405335 145.890665,30.6879989 146.312,30.912 C146.733335,31.1360011 147.194664,31.248 147.696,31.248 C148.144002,31.248 148.533332,31.1413344 148.864,30.928 C149.194668,30.7146656 149.36,30.3946688 149.36,29.968 C149.36,29.6373317 149.250668,29.3786676 149.032,29.192 C148.813332,29.0053324 148.541335,28.8480006 148.216,28.72 C147.890665,28.5919994 147.536002,28.4746672 147.152,28.368 C146.767998,28.2613328 146.413335,28.1226675 146.088,27.952 C145.762665,27.7813325 145.490668,27.5573347 145.272,27.28 C145.053332,27.0026653 144.944,26.6240024 144.944,26.144 C144.944,25.7493314 145.023999,25.4106681 145.184,25.128 C145.344001,24.8453319 145.554665,24.6133342 145.816,24.432 C146.077335,24.2506658 146.378665,24.1173338 146.72,24.032 C147.061335,23.9466662 147.418665,23.904 147.792,23.904 C148.901339,23.904 149.823996,24.2239968 150.56,24.864 L149.888,25.76 C149.653332,25.5146654 149.341335,25.3093342 148.952,25.144 C148.562665,24.9786658 148.160002,24.896 147.744,24.896 C147.562666,24.896 147.384001,24.9173331 147.208,24.96 C147.031999,25.0026669 146.877334,25.0693329 146.744,25.16 C146.610666,25.2506671 146.504,25.3653326 146.424,25.504 C146.344,25.6426674 146.304,25.8133323 146.304,26.016 C146.304,26.3253349 146.413332,26.5653325 146.632,26.736 C146.850668,26.9066675 147.122665,27.0533327 147.448,27.176 C147.773335,27.2986673 148.125331,27.4159994 148.504,27.528 C148.882669,27.6400006 149.234665,27.7839991 149.56,27.96 C149.885335,28.1360009 150.157332,28.3679986 150.376,28.656 C150.594668,28.9440014 150.704,29.3279976 150.704,29.808 C150.704,30.2133354 150.621334,30.5679985 150.456,30.872 C150.290666,31.1760015 150.072001,31.4293323 149.8,31.632 C149.527999,31.8346677 149.213335,31.9866662 148.856,32.088 C148.498665,32.1893338 148.128002,32.24 147.744,32.24 C146.421327,32.24 145.370671,31.8133376 144.592,30.96 L145.28,30.064 Z M152.4,30.064 C152.666668,30.405335 153.010665,30.6879989 153.432,30.912 C153.853335,31.1360011 154.314664,31.248 154.816,31.248 C155.264002,31.248 155.653332,31.1413344 155.984,30.928 C156.314668,30.7146656 156.48,30.3946688 156.48,29.968 C156.48,29.6373317 156.370668,29.3786676 156.152,29.192 C155.933332,29.0053324 155.661335,28.8480006 155.336,28.72 C155.010665,28.5919994 154.656002,28.4746672 154.272,28.368 C153.887998,28.2613328 153.533335,28.1226675 153.208,27.952 C152.882665,27.7813325 152.610668,27.5573347 152.392,27.28 C152.173332,27.0026653 152.064,26.6240024 152.064,26.144 C152.064,25.7493314 152.143999,25.4106681 152.304,25.128 C152.464001,24.8453319 152.674665,24.6133342 152.936,24.432 C153.197335,24.2506658 153.498665,24.1173338 153.84,24.032 C154.181335,23.9466662 154.538665,23.904 154.912,23.904 C156.021339,23.904 156.943996,24.2239968 157.68,24.864 L157.008,25.76 C156.773332,25.5146654 156.461335,25.3093342 156.072,25.144 C155.682665,24.9786658 155.280002,24.896 154.864,24.896 C154.682666,24.896 154.504001,24.9173331 154.328,24.96 C154.151999,25.0026669 153.997334,25.0693329 153.864,25.16 C153.730666,25.2506671 153.624,25.3653326 153.544,25.504 C153.464,25.6426674 153.424,25.8133323 153.424,26.016 C153.424,26.3253349 153.533332,26.5653325 153.752,26.736 C153.970668,26.9066675 154.242665,27.0533327 154.568,27.176 C154.893335,27.2986673 155.245331,27.4159994 155.624,27.528 C156.002669,27.6400006 156.354665,27.7839991 156.68,27.96 C157.005335,28.1360009 157.277332,28.3679986 157.496,28.656 C157.714668,28.9440014 157.824,29.3279976 157.824,29.808 C157.824,30.2133354 157.741334,30.5679985 157.576,30.872 C157.410666,31.1760015 157.192001,31.4293323 156.92,31.632 C156.647999,31.8346677 156.333335,31.9866662 155.976,32.088 C155.618665,32.1893338 155.248002,32.24 154.864,32.24 C153.541327,32.24 152.490671,31.8133376 151.712,30.96 L152.4,30.064 Z M159.344,24.128 L160.688,24.128 L160.688,28.896 C160.688,29.6426704 160.826665,30.1893316 161.104,30.536 C161.381335,30.8826684 161.770664,31.056 162.272,31.056 C162.912003,31.056 163.410665,30.8026692 163.768,30.296 C164.125335,29.7893308 164.304,29.1146709 164.304,28.272 L164.304,24.128 L165.632,24.128 L165.632,32 L164.384,32 L164.384,30.4 C164.288,30.6453346 164.170667,30.8773322 164.032,31.096 C163.893333,31.3146678 163.722668,31.5066658 163.52,31.672 C163.317332,31.8373342 163.082668,31.9679995 162.816,32.064 C162.549332,32.1600005 162.234668,32.208 161.872,32.208 C161.018662,32.208 160.384002,31.9493359 159.968,31.432 C159.551998,30.9146641 159.344,30.1813381 159.344,29.232 L159.344,24.128 Z M168.688,28.368 C168.741334,29.2746712 168.973331,29.9759975 169.384,30.472 C169.794669,30.9680025 170.367996,31.216 171.104,31.216 C172.032005,31.216 172.730664,30.778671 173.2,29.904 L174.208,30.464 C173.898665,30.9866693 173.488003,31.4133317 172.976,31.744 C172.463997,32.0746683 171.818671,32.24 171.04,32.24 C170.42133,32.24 169.880002,32.1333344 169.416,31.92 C168.951998,31.7066656 168.565335,31.4133352 168.256,31.04 C167.946665,30.6666648 167.714667,30.2293358 167.56,29.728 C167.405333,29.2266642 167.328,28.6880029 167.328,28.112 C167.328,27.5466638 167.402666,27.0080026 167.552,26.496 C167.701334,25.9839974 167.927998,25.5360019 168.232,25.152 C168.536002,24.7679981 168.909331,24.4640011 169.352,24.24 C169.794669,24.0159989 170.314664,23.904 170.912,23.904 C171.488003,23.904 171.989331,24.0133322 172.416,24.232 C172.842669,24.4506678 173.197332,24.7439982 173.48,25.112 C173.762668,25.4800018 173.975999,25.9066642 174.12,26.392 C174.264001,26.8773358 174.336,27.3919973 174.336,27.936 C174.336,28.0533339 174.333333,28.1439997 174.328,28.208 C174.322667,28.2720003 174.32,28.3253331 174.32,28.368 L168.688,28.368 Z M170.896,24.912 C170.223997,24.912 169.704002,25.1519976 169.336,25.632 C168.967998,26.1120024 168.757334,26.7573293 168.704,27.568 L172.976,27.568 C172.976,27.2373317 172.938667,26.9146682 172.864,26.6 C172.789333,26.2853318 172.666668,26.0026679 172.496,25.752 C172.325332,25.5013321 172.109335,25.2986674 171.848,25.144 C171.586665,24.9893326 171.269335,24.912 170.896,24.912 Z" id="Briefly-describe-you" fill="#6C777C"></path>
                </g>
            </g>
        </g>
    </g>
</svg>