<?xml version="1.0" encoding="UTF-8"?>
<svg width="201px" height="60px" viewBox="0 0 201 60" version="1.1" xmlns="http://www.w3.org/2000/svg" xmlns:xlink="http://www.w3.org/1999/xlink">
    <!-- Generator: Sketch 47.1 (45422) - http://www.bohemiancoding.com/sketch -->
    <title>InstantInlineFeedback</title>
    <desc>Created with Sketch.</desc>
    <defs></defs>
    <g id="Text-area" stroke="none" stroke-width="1" fill="none" fill-rule="evenodd">
        <g id="Text-area-Usage-extra-large-1200" transform="translate(-379.000000, -3949.000000)">
            <g id="Group-5" transform="translate(304.000000, 3863.000000)">
                <g id="InstantInlineFeedback" transform="translate(75.000000, 86.000000)">
                    <path d="M0.98,0.116 L2.548,0.116 C2.80000126,0.74133646 3.05899867,1.39232995 3.325,2.069 C3.59100133,2.74567005 3.85233205,3.41533002 4.109,4.078 C4.36566795,4.74066998 4.61299881,5.37999692 4.851,5.996 C5.08900119,6.61200308 5.30599902,7.1766641 5.502,7.69 C5.69800098,7.1766641 5.9126655,6.61200308 6.146,5.996 C6.3793345,5.37999692 6.62666536,4.74066998 6.888,4.078 C7.14933464,3.41533002 7.41299867,2.74800336 7.679,2.076 C7.94500133,1.40399664 8.20399874,0.75066984 8.456,0.116 L9.954,0.116 L9.954,10 L8.764,10 L8.764,7.872 C8.764,7.14399636 8.76633331,6.42533688 8.771,5.716 C8.77566669,5.00666312 8.78033331,4.31833667 8.785,3.651 C8.78966669,2.98366333 8.79666662,2.36533618 8.806,1.796 C8.59133226,2.37466956 8.35100133,2.99766333 8.085,3.665 C7.81899867,4.33233667 7.54366809,5.02299643 7.259,5.737 C6.97433191,6.45100357 6.68500147,7.17199636 6.391,7.9 C6.09699853,8.62800364 5.8100014,9.3419965 5.53,10.042 L5.418,10.042 C5.16599874,9.40733016 4.88600154,8.71200378 4.578,7.956 C4.26999846,7.19999622 3.96433485,6.44633709 3.661,5.695 C3.35766515,4.94366291 3.07066802,4.22733674 2.8,3.546 C2.52933198,2.86466326 2.30533422,2.28133576 2.128,1.796 C2.13733338,2.36533618 2.14666662,2.98366333 2.156,3.651 C2.16533338,4.31833667 2.17,5.00899643 2.17,5.723 C2.17,6.43700357 2.17233331,7.15799636 2.177,7.886 C2.18166669,8.61400364 2.184,9.31866326 2.184,10 L0.98,10 L0.98,0.116 Z M12.712,6.822 C12.7586669,7.6153373 12.9616649,8.22899783 13.321,8.663 C13.6803351,9.09700217 14.1819968,9.314 14.826,9.314 C15.6380041,9.314 16.2493313,8.93133716 16.66,8.166 L17.542,8.656 C17.271332,9.11333562 16.9120022,9.48666522 16.464,9.776 C16.0159978,10.0653348 15.4513367,10.21 14.77,10.21 C14.228664,10.21 13.755002,10.1166676 13.349,9.93 C12.942998,9.7433324 12.604668,9.4866683 12.334,9.16 C12.063332,8.8333317 11.860334,8.45066886 11.725,8.012 C11.589666,7.57333114 11.522,7.10200252 11.522,6.598 C11.522,6.10333086 11.5873327,5.63200224 11.718,5.184 C11.8486673,4.73599776 12.0469987,4.34400168 12.313,4.008 C12.5790013,3.67199832 12.9056647,3.40600098 13.293,3.21 C13.6803353,3.01399902 14.1353307,2.916 14.658,2.916 C15.1620025,2.916 15.6006648,3.01166571 15.974,3.203 C16.3473352,3.39433429 16.6576654,3.65099839 16.905,3.973 C17.1523346,4.29500161 17.3389994,4.66833121 17.465,5.093 C17.5910006,5.51766879 17.654,5.96799762 17.654,6.444 C17.654,6.54666718 17.6516667,6.62599972 17.647,6.682 C17.6423333,6.73800028 17.64,6.78466648 17.64,6.822 L12.712,6.822 Z M14.644,3.798 C14.0559971,3.798 13.6010016,4.0079979 13.279,4.428 C12.9569984,4.8480021 12.7726669,5.41266312 12.726,6.122 L16.464,6.122 C16.464,5.83266522 16.4313337,5.55033471 16.366,5.275 C16.3006663,4.99966529 16.1933341,4.75233443 16.044,4.533 C15.8946659,4.31366557 15.7056678,4.13633401 15.477,4.001 C15.2483322,3.86566599 14.9706683,3.798 14.644,3.798 Z M19.194,8.306 C19.4273345,8.60466816 19.7283315,8.85199902 20.097,9.048 C20.4656685,9.24400098 20.8693311,9.342 21.308,9.342 C21.700002,9.342 22.0406652,9.2486676 22.33,9.062 C22.6193348,8.8753324 22.764,8.5953352 22.764,8.222 C22.764,7.93266522 22.6683343,7.70633415 22.477,7.543 C22.2856657,7.37966585 22.0476681,7.24200056 21.763,7.13 C21.4783319,7.01799944 21.1680017,6.9153338 20.832,6.822 C20.4959983,6.7286662 20.1856681,6.60733408 19.901,6.458 C19.6163319,6.30866592 19.3783343,6.11266788 19.187,5.87 C18.9956657,5.62733212 18.9,5.2960021 18.9,4.876 C18.9,4.53066494 18.9699993,4.23433457 19.11,3.987 C19.2500007,3.73966543 19.4343322,3.53666746 19.663,3.378 C19.8916678,3.21933254 20.1553318,3.10266704 20.454,3.028 C20.7526682,2.95333296 21.0653317,2.916 21.392,2.916 C22.3626715,2.916 23.1699968,3.1959972 23.814,3.756 L23.226,4.54 C23.0206656,4.32533226 22.7476684,4.14566739 22.407,4.001 C22.0663316,3.85633261 21.7140018,3.784 21.35,3.784 C21.1913325,3.784 21.0350008,3.80266648 20.881,3.84 C20.7269992,3.87733352 20.5916672,3.93566627 20.475,4.015 C20.3583327,4.09433373 20.2650003,4.19466606 20.195,4.316 C20.1249996,4.43733394 20.09,4.58666578 20.09,4.764 C20.09,5.03466802 20.1856657,5.24466592 20.377,5.394 C20.5683343,5.54333408 20.8063319,5.67166613 21.091,5.779 C21.3756681,5.88633387 21.683665,5.98899951 22.015,6.087 C22.346335,6.18500049 22.6543319,6.31099923 22.939,6.465 C23.2236681,6.61900077 23.4616657,6.82199874 23.653,7.074 C23.8443343,7.32600126 23.94,7.6619979 23.94,8.082 C23.94,8.43666844 23.8676674,8.74699867 23.723,9.013 C23.5783326,9.27900133 23.3870012,9.50066578 23.149,9.678 C22.9109988,9.85533422 22.6356682,9.98833289 22.323,10.077 C22.0103318,10.1656671 21.6860017,10.21 21.35,10.21 C20.1926609,10.21 19.2733367,9.8366704 18.592,9.09 L19.194,8.306 Z M25.424,8.306 C25.6573345,8.60466816 25.9583315,8.85199902 26.327,9.048 C26.6956685,9.24400098 27.0993311,9.342 27.538,9.342 C27.930002,9.342 28.2706652,9.2486676 28.56,9.062 C28.8493348,8.8753324 28.994,8.5953352 28.994,8.222 C28.994,7.93266522 28.8983343,7.70633415 28.707,7.543 C28.5156657,7.37966585 28.2776681,7.24200056 27.993,7.13 C27.7083319,7.01799944 27.3980017,6.9153338 27.062,6.822 C26.7259983,6.7286662 26.4156681,6.60733408 26.131,6.458 C25.8463319,6.30866592 25.6083343,6.11266788 25.417,5.87 C25.2256657,5.62733212 25.13,5.2960021 25.13,4.876 C25.13,4.53066494 25.1999993,4.23433457 25.34,3.987 C25.4800007,3.73966543 25.6643322,3.53666746 25.893,3.378 C26.1216678,3.21933254 26.3853318,3.10266704 26.684,3.028 C26.9826682,2.95333296 27.2953317,2.916 27.622,2.916 C28.5926715,2.916 29.3999968,3.1959972 30.044,3.756 L29.456,4.54 C29.2506656,4.32533226 28.9776684,4.14566739 28.637,4.001 C28.2963316,3.85633261 27.9440018,3.784 27.58,3.784 C27.4213325,3.784 27.2650008,3.80266648 27.111,3.84 C26.9569992,3.87733352 26.8216673,3.93566627 26.705,4.015 C26.5883327,4.09433373 26.4950003,4.19466606 26.425,4.316 C26.3549996,4.43733394 26.32,4.58666578 26.32,4.764 C26.32,5.03466802 26.4156657,5.24466592 26.607,5.394 C26.7983343,5.54333408 27.0363319,5.67166613 27.321,5.779 C27.6056681,5.88633387 27.913665,5.98899951 28.245,6.087 C28.576335,6.18500049 28.8843319,6.31099923 29.169,6.465 C29.4536681,6.61900077 29.6916657,6.82199874 29.883,7.074 C30.0743343,7.32600126 30.17,7.6619979 30.17,8.082 C30.17,8.43666844 30.0976674,8.74699867 29.953,9.013 C29.8083326,9.27900133 29.6170012,9.50066578 29.379,9.678 C29.1409988,9.85533422 28.8656682,9.98833289 28.553,10.077 C28.2403318,10.1656671 27.9160017,10.21 27.58,10.21 C26.4226609,10.21 25.5033367,9.8366704 24.822,9.09 L25.424,8.306 Z M35.854,10 C35.7513328,9.66399832 35.6906668,9.262669 35.672,8.796 C35.4853324,9.22533548 35.1983353,9.56833205 34.811,9.825 C34.4236647,10.0816679 33.9640027,10.21 33.432,10.21 C32.7599966,10.21 32.228002,10.0186686 31.836,9.636 C31.443998,9.25333142 31.248,8.74000322 31.248,8.096 C31.248,7.73199818 31.3133327,7.42633457 31.444,7.179 C31.5746673,6.93166543 31.7566655,6.72633415 31.99,6.563 C32.2233345,6.39966585 32.4986651,6.2713338 32.816,6.178 C33.1333349,6.0846662 33.4786648,6.01000028 33.852,5.954 L35.616,5.688 L35.616,5.254 C35.616,4.94599846 35.578667,4.6986676 35.504,4.512 C35.429333,4.3253324 35.3266673,4.18066718 35.196,4.078 C35.0653327,3.97533282 34.9160008,3.90766683 34.748,3.875 C34.5799992,3.84233317 34.4026676,3.826 34.216,3.826 C33.6839973,3.826 33.2453351,3.92399902 32.9,4.12 C32.5546649,4.31600098 32.2653345,4.56333184 32.032,4.862 L31.43,4.106 C31.700668,3.7793317 32.0763309,3.4993345 32.557,3.266 C33.0376691,3.0326655 33.6326631,2.916 34.342,2.916 C35.200671,2.916 35.8236647,3.10733142 36.211,3.49 C36.5983353,3.87266858 36.792,4.48866242 36.792,5.338 L36.792,8.124 C36.792,8.34800112 36.7943333,8.54399916 36.799,8.712 C36.8036667,8.88000084 36.8129999,9.03633261 36.827,9.181 C36.8410001,9.32566739 36.8619999,9.46333268 36.89,9.594 C36.9180001,9.72466732 36.9553331,9.8599993 37.002,10 L35.854,10 Z M35.616,6.458 L33.964,6.724 C33.3946638,6.82666718 32.9910012,6.98066564 32.753,7.186 C32.5149988,7.39133436 32.396,7.67599818 32.396,8.04 C32.396,8.4133352 32.5056656,8.72599874 32.725,8.978 C32.9443344,9.23000126 33.2686645,9.356 33.698,9.356 C33.9593346,9.356 34.2066655,9.30466718 34.44,9.202 C34.6733345,9.09933282 34.8763325,8.95700091 35.049,8.775 C35.2216675,8.59299909 35.3593328,8.37366795 35.462,8.117 C35.5646672,7.86033205 35.616,7.57800154 35.616,7.27 L35.616,6.458 Z M39.214,10.826 C39.484668,11.0873346 39.8089981,11.2949992 40.187,11.449 C40.5650019,11.6030008 40.9686645,11.68 41.398,11.68 C41.7526684,11.68 42.0419989,11.6263339 42.266,11.519 C42.4900011,11.4116661 42.6673327,11.2646676 42.798,11.078 C42.9286673,10.8913324 43.0196664,10.6790012 43.071,10.441 C43.1223336,10.2029988 43.148,9.94866802 43.148,9.678 L43.148,8.404 C42.9706658,8.8240021 42.7046684,9.16233205 42.35,9.419 C41.9953316,9.67566795 41.5380028,9.804 40.978,9.804 C40.5766647,9.804 40.2126683,9.72700077 39.886,9.573 C39.5593317,9.41899923 39.2793345,9.19733478 39.046,8.908 C38.8126655,8.61866522 38.6330006,8.2640021 38.507,7.844 C38.3809994,7.4239979 38.318,6.95266928 38.318,6.43 C38.318,5.9166641 38.3809994,5.44533548 38.507,5.016 C38.6330006,4.58666452 38.8149988,4.21800154 39.053,3.91 C39.2910012,3.60199846 39.5803316,3.36166753 39.921,3.189 C40.2616684,3.01633247 40.6419979,2.93 41.062,2.93 C41.6126694,2.93 42.0699982,3.06766529 42.434,3.343 C42.7980018,3.61833471 43.0593325,3.97066452 43.218,4.4 L43.414,3.112 L44.31,3.112 L44.31,9.65 C44.31,10.042002 44.2633338,10.4129982 44.17,10.763 C44.0766662,11.1130017 43.9180011,11.423332 43.694,11.694 C43.4699989,11.964668 43.1713352,12.1793325 42.798,12.338 C42.4246648,12.4966675 41.9580028,12.576 41.398,12.576 C40.7913303,12.576 40.2476691,12.4896675 39.767,12.317 C39.2863309,12.1443325 38.8826683,11.9273346 38.556,11.666 L39.214,10.826 Z M43.148,6.43 C43.148,6.27133254 43.1456667,6.11966739 43.141,5.975 C43.1363333,5.83033261 43.1246668,5.72066704 43.106,5.646 C43.0686665,5.42199888 43.0080004,5.20266774 42.924,4.988 C42.8399996,4.77333226 42.7256674,4.58666746 42.581,4.428 C42.4363326,4.26933254 42.2590011,4.14100049 42.049,4.043 C41.838999,3.94499951 41.5940014,3.896 41.314,3.896 C41.0059985,3.896 40.7400011,3.96133268 40.516,4.092 C40.2919989,4.22266732 40.1076674,4.39999888 39.963,4.624 C39.8183326,4.84800112 39.7110004,5.11399846 39.641,5.422 C39.5709997,5.73000154 39.536,6.05666494 39.536,6.402 C39.536,6.71000154 39.5686663,7.01566515 39.634,7.319 C39.6993337,7.62233485 39.8019993,7.8906655 39.942,8.124 C40.0820007,8.3573345 40.2663322,8.54633261 40.495,8.691 C40.7236678,8.83566739 41.0013317,8.908 41.328,8.908 C41.7853356,8.908 42.1539986,8.77966795 42.434,8.523 C42.7140014,8.26633205 42.9099994,7.94200196 43.022,7.55 C43.0686669,7.41933268 43.1013332,7.25600098 43.12,7.06 C43.1386668,6.86399902 43.148,6.67733422 43.148,6.5 L43.148,6.43 Z M46.984,6.822 C47.0306669,7.6153373 47.2336649,8.22899783 47.593,8.663 C47.9523351,9.09700217 48.4539968,9.314 49.098,9.314 C49.9100041,9.314 50.5213313,8.93133716 50.932,8.166 L51.814,8.656 C51.543332,9.11333562 51.1840022,9.48666522 50.736,9.776 C50.2879978,10.0653348 49.7233367,10.21 49.042,10.21 C48.500664,10.21 48.027002,10.1166676 47.621,9.93 C47.214998,9.7433324 46.876668,9.4866683 46.606,9.16 C46.335332,8.8333317 46.132334,8.45066886 45.997,8.012 C45.861666,7.57333114 45.794,7.10200252 45.794,6.598 C45.794,6.10333086 45.8593327,5.63200224 45.99,5.184 C46.1206673,4.73599776 46.3189987,4.34400168 46.585,4.008 C46.8510013,3.67199832 47.1776647,3.40600098 47.565,3.21 C47.9523353,3.01399902 48.4073307,2.916 48.93,2.916 C49.4340025,2.916 49.8726648,3.01166571 50.246,3.203 C50.6193352,3.39433429 50.9296654,3.65099839 51.177,3.973 C51.4243346,4.29500161 51.6109994,4.66833121 51.737,5.093 C51.8630006,5.51766879 51.926,5.96799762 51.926,6.444 C51.926,6.54666718 51.9236667,6.62599972 51.919,6.682 C51.9143333,6.73800028 51.912,6.78466648 51.912,6.822 L46.984,6.822 Z M48.916,3.798 C48.3279971,3.798 47.8730016,4.0079979 47.551,4.428 C47.2289984,4.8480021 47.0446669,5.41266312 46.998,6.122 L50.736,6.122 C50.736,5.83266522 50.7033337,5.55033471 50.638,5.275 C50.5726663,4.99966529 50.4653341,4.75233443 50.316,4.533 C50.1666659,4.31366557 49.9776678,4.13633401 49.749,4.001 C49.5203322,3.86566599 49.2426683,3.798 48.916,3.798 Z" id="Message" fill="#C30000"></path>
                    <path d="M7.74,55.212 C7.38799824,55.8840034 6.94000272,56.3799984 6.396,56.7 C5.85199728,57.0200016 5.180004,57.18 4.38,57.18 C3.74799684,57.18 3.19000242,57.0660011 2.706,56.838 C2.22199758,56.6099989 1.81800162,56.296002 1.494,55.896 C1.16999838,55.495998 0.92600082,55.0240027 0.762,54.48 C0.59799918,53.9359973 0.516,53.3520031 0.516,52.728 C0.516,52.0959968 0.59999916,51.5140027 0.768,50.982 C0.93600084,50.4499973 1.18399836,49.988002 1.512,49.596 C1.84000164,49.203998 2.2439976,48.8980011 2.724,48.678 C3.2040024,48.4579989 3.75599688,48.348 4.38,48.348 C5.1000036,48.348 5.73599724,48.4899986 6.288,48.774 C6.84000276,49.0580014 7.29999816,49.503997 7.668,50.112 L6.648,50.628 C6.41599884,50.2039979 6.10800192,49.8740012 5.724,49.638 C5.33999808,49.4019988 4.89200256,49.284 4.38,49.284 C3.93199776,49.284 3.5380017,49.3739991 3.198,49.554 C2.8579983,49.7340009 2.57400114,49.9779985 2.346,50.286 C2.11799886,50.5940015 1.94600058,50.9579979 1.83,51.378 C1.71399942,51.7980021 1.656,52.2479976 1.656,52.728 C1.656,53.2080024 1.7159994,53.6619979 1.836,54.09 C1.9560006,54.5180021 2.12999886,54.8919984 2.358,55.212 C2.58600114,55.5320016 2.8699983,55.7839991 3.21,55.968 C3.5500017,56.1520009 3.9399978,56.244 4.38,56.244 C5.49200556,56.244 6.27199776,55.7280052 6.72,54.696 L7.74,55.212 Z M12.696,57 C12.6079996,56.7119986 12.5560001,56.368002 12.54,55.968 C12.3799992,56.3360018 12.1340017,56.6299989 11.802,56.85 C11.4699983,57.0700011 11.0760023,57.18 10.62,57.18 C10.0439971,57.18 9.58800168,57.0160016 9.252,56.688 C8.91599832,56.3599984 8.748,55.9200028 8.748,55.368 C8.748,55.0559984 8.80399944,54.7940011 8.916,54.582 C9.02800056,54.3699989 9.183999,54.1940007 9.384,54.054 C9.584001,53.9139993 9.81999864,53.8040004 10.092,53.724 C10.3640014,53.6439996 10.6599984,53.5800002 10.98,53.532 L12.492,53.304 L12.492,52.932 C12.492,52.6679987 12.4600003,52.4560008 12.396,52.296 C12.3319997,52.1359992 12.2440006,52.0120004 12.132,51.924 C12.0199994,51.8359996 11.8920007,51.7780001 11.748,51.75 C11.6039993,51.7219999 11.4520008,51.708 11.292,51.708 C10.8359977,51.708 10.4600015,51.7919992 10.164,51.96 C9.86799852,52.1280008 9.620001,52.3399987 9.42,52.596 L8.904,51.948 C9.13600116,51.6679986 9.45799794,51.428001 9.87,51.228 C10.2820021,51.027999 10.791997,50.928 11.4,50.928 C12.1360037,50.928 12.6699983,51.0919984 13.002,51.42 C13.3340017,51.7480016 13.5,52.2759964 13.5,53.004 L13.5,55.392 C13.5,55.584001 13.502,55.7519993 13.506,55.896 C13.51,56.0400007 13.5179999,56.1739994 13.53,56.298 C13.5420001,56.4220006 13.5599999,56.5399994 13.584,56.652 C13.6080001,56.7640006 13.6399998,56.8799994 13.68,57 L12.696,57 Z M12.492,53.964 L11.076,54.192 C10.5879976,54.2800004 10.242001,54.4119991 10.038,54.588 C9.83399898,54.7640009 9.732,55.0079984 9.732,55.32 C9.732,55.6400016 9.82599906,55.9079989 10.014,56.124 C10.2020009,56.3400011 10.4799982,56.448 10.848,56.448 C11.0720011,56.448 11.283999,56.4040004 11.484,56.316 C11.684001,56.2279996 11.8579993,56.1060008 12.006,55.95 C12.1540007,55.7939992 12.2719996,55.6060011 12.36,55.386 C12.4480004,55.1659989 12.492,54.9240013 12.492,54.66 L12.492,53.964 Z M15.096,51.096 L15.96,51.096 L16.068,52.272 C16.2200008,51.9119982 16.4619983,51.5980013 16.794,51.33 C17.1260017,51.0619987 17.5359976,50.928 18.024,50.928 C18.6400031,50.928 19.0939985,51.123998 19.386,51.516 C19.6780015,51.908002 19.824,52.4559965 19.824,53.16 L19.824,57 L18.828,57 L18.828,53.364 C18.828,52.8279973 18.7200011,52.4340013 18.504,52.182 C18.2879989,51.9299987 17.9960018,51.804 17.628,51.804 C17.1879978,51.804 16.8220015,51.9839982 16.53,52.344 C16.2379985,52.7040018 16.092,53.2119967 16.092,53.868 L16.092,57 L15.096,57 L15.096,51.096 Z M21.336,51.096 L22.2,51.096 L22.308,52.272 C22.4600008,51.9119982 22.7019983,51.5980013 23.034,51.33 C23.3660017,51.0619987 23.7759976,50.928 24.264,50.928 C24.8800031,50.928 25.3339985,51.123998 25.626,51.516 C25.9180015,51.908002 26.064,52.4559965 26.064,53.16 L26.064,57 L25.068,57 L25.068,53.364 C25.068,52.8279973 24.9600011,52.4340013 24.744,52.182 C24.5279989,51.9299987 24.2360018,51.804 23.868,51.804 C23.4279978,51.804 23.0620015,51.9839982 22.77,52.344 C22.4779985,52.7040018 22.332,53.2119967 22.332,53.868 L22.332,57 L21.336,57 L21.336,51.096 Z M30.024,57.18 C29.5759978,57.18 29.1820017,57.0980008 28.842,56.934 C28.5019983,56.7699992 28.2180011,56.5460014 27.99,56.262 C27.7619989,55.9779986 27.5920006,55.6460019 27.48,55.266 C27.3679994,54.8859981 27.312,54.4760022 27.312,54.036 C27.312,53.5959978 27.3699994,53.1880019 27.486,52.812 C27.6020006,52.4359981 27.7739989,52.1080014 28.002,51.828 C28.2300011,51.5479986 28.5139983,51.3280008 28.854,51.168 C29.1940017,51.0079992 29.5839978,50.928 30.024,50.928 C30.4640022,50.928 30.8539983,51.0079992 31.194,51.168 C31.5340017,51.3280008 31.8199988,51.5459986 32.052,51.822 C32.2840012,52.0980014 32.4579994,52.4259981 32.574,52.806 C32.6900006,53.1860019 32.748,53.5959978 32.748,54.036 C32.748,54.4760022 32.6900006,54.8859981 32.574,55.266 C32.4579994,55.6460019 32.2840012,55.9779986 32.052,56.262 C31.8199988,56.5460014 31.5340017,56.7699992 31.194,56.934 C30.8539983,57.0980008 30.4640022,57.18 30.024,57.18 Z M30.048,56.4 C30.3200014,56.4 30.559999,56.3400006 30.768,56.22 C30.976001,56.0999994 31.1479993,55.9340011 31.284,55.722 C31.4200007,55.5099989 31.5239996,55.2600014 31.596,54.972 C31.6680004,54.6839986 31.704,54.3720017 31.704,54.036 C31.704,53.6999983 31.6680004,53.3900014 31.596,53.106 C31.5239996,52.8219986 31.4160007,52.576001 31.272,52.368 C31.1279993,52.159999 30.952001,51.9980006 30.744,51.882 C30.535999,51.7659994 30.2960014,51.708 30.024,51.708 C29.7439986,51.708 29.500001,51.7659994 29.292,51.882 C29.083999,51.9980006 28.9120007,52.159999 28.776,52.368 C28.6399993,52.576001 28.5360004,52.8219986 28.464,53.106 C28.3919996,53.3900014 28.356,53.6999983 28.356,54.036 C28.356,54.3720017 28.3919996,54.6839986 28.464,54.972 C28.5360004,55.2600014 28.6419993,55.5099989 28.782,55.722 C28.9220007,55.9340011 29.0979989,56.0999994 29.31,56.22 C29.5220011,56.3400006 29.7679986,56.4 30.048,56.4 Z M34.536,51.78 L33.528,51.78 L33.528,51.096 L33.744,51.096 C33.9920012,51.096 34.1859993,51.0700003 34.326,51.018 C34.4660007,50.9659997 34.5719996,50.8860005 34.644,50.778 C34.7160004,50.6699995 34.7679998,50.5280009 34.8,50.352 C34.8320002,50.1759991 34.8599999,49.9600013 34.884,49.704 L34.908,49.488 L35.532,49.488 L35.532,51.096 L36.804,51.096 L36.804,51.78 L35.532,51.78 L35.532,55.452 C35.532,55.7880017 35.5819995,56.0299993 35.682,56.178 C35.7820005,56.3260007 35.9679986,56.4 36.24,56.4 C36.4560011,56.4 36.6559991,56.3520005 36.84,56.256 L36.948,56.976 C36.6439985,57.1120007 36.3080018,57.18 35.94,57.18 C35.6519986,57.18 35.4180009,57.1400004 35.238,57.06 C35.0579991,56.9799996 34.9160005,56.8720007 34.812,56.736 C34.7079995,56.5999993 34.6360002,56.436001 34.596,56.244 C34.5559998,56.051999 34.536,55.8440011 34.536,55.62 L34.536,51.78 Z M41.46,54.276 C41.5000002,54.9560034 41.6739985,55.4819981 41.982,55.854 C42.2900015,56.2260019 42.7199972,56.412 43.272,56.412 C43.9680035,56.412 44.4919982,56.0840033 44.844,55.428 L45.6,55.848 C45.3679988,56.240002 45.0600019,56.5599988 44.676,56.808 C44.2919981,57.0560012 43.8080029,57.18 43.224,57.18 C42.7599977,57.18 42.3540017,57.1000008 42.006,56.94 C41.6579983,56.7799992 41.3680012,56.5600014 41.136,56.28 C40.9039988,55.9999986 40.7300006,55.6720019 40.614,55.296 C40.4979994,54.9199981 40.44,54.5160022 40.44,54.084 C40.44,53.6599979 40.4959994,53.2560019 40.608,52.872 C40.7200006,52.4879981 40.8899989,52.1520014 41.118,51.864 C41.3460011,51.5759986 41.6259983,51.3480008 41.958,51.18 C42.2900017,51.0119992 42.6799978,50.928 43.128,50.928 C43.5600022,50.928 43.9359984,51.0099992 44.256,51.174 C44.5760016,51.3380008 44.8419989,51.5579986 45.054,51.834 C45.2660011,52.1100014 45.4259995,52.4299982 45.534,52.794 C45.6420005,53.1580018 45.696,53.543998 45.696,53.952 C45.696,54.0400004 45.694,54.1079998 45.69,54.156 C45.686,54.2040002 45.684,54.2439998 45.684,54.276 L41.46,54.276 Z M43.116,51.684 C42.6119975,51.684 42.2220014,51.8639982 41.946,52.224 C41.6699986,52.5840018 41.5120002,53.067997 41.472,53.676 L44.676,53.676 C44.676,53.4279988 44.6480003,53.1860012 44.592,52.95 C44.5359997,52.7139988 44.4440006,52.5020009 44.316,52.314 C44.1879994,52.1259991 44.026001,51.9740006 43.83,51.858 C43.633999,51.7419994 43.3960014,51.684 43.116,51.684 Z M46.908,51.096 L47.772,51.096 L47.88,52.272 C48.0320008,51.9119982 48.2739983,51.5980013 48.606,51.33 C48.9380017,51.0619987 49.3479976,50.928 49.836,50.928 C50.4520031,50.928 50.9059985,51.123998 51.198,51.516 C51.4900015,51.908002 51.636,52.4559965 51.636,53.16 L51.636,57 L50.64,57 L50.64,53.364 C50.64,52.8279973 50.5320011,52.4340013 50.316,52.182 C50.0999989,51.9299987 49.8080018,51.804 49.44,51.804 C48.9999978,51.804 48.6340015,51.9839982 48.342,52.344 C48.0499985,52.7040018 47.904,53.2119967 47.904,53.868 L47.904,57 L46.908,57 L46.908,51.096 Z M53.664,51.78 L52.656,51.78 L52.656,51.096 L52.872,51.096 C53.1200012,51.096 53.3139993,51.0700003 53.454,51.018 C53.5940007,50.9659997 53.6999996,50.8860005 53.772,50.778 C53.8440004,50.6699995 53.8959998,50.5280009 53.928,50.352 C53.9600002,50.1759991 53.9879999,49.9600013 54.012,49.704 L54.036,49.488 L54.66,49.488 L54.66,51.096 L55.932,51.096 L55.932,51.78 L54.66,51.78 L54.66,55.452 C54.66,55.7880017 54.7099995,56.0299993 54.81,56.178 C54.9100005,56.3260007 55.0959986,56.4 55.368,56.4 C55.5840011,56.4 55.7839991,56.3520005 55.968,56.256 L56.076,56.976 C55.7719985,57.1120007 55.4360018,57.18 55.068,57.18 C54.7799986,57.18 54.5460009,57.1400004 54.366,57.06 C54.1859991,56.9799996 54.0440005,56.8720007 53.94,56.736 C53.8359995,56.5999993 53.7640002,56.436001 53.724,56.244 C53.6839998,56.051999 53.664,55.8440011 53.664,55.62 L53.664,51.78 Z M57.888,54.276 C57.9280002,54.9560034 58.1019985,55.4819981 58.41,55.854 C58.7180015,56.2260019 59.1479972,56.412 59.7,56.412 C60.3960035,56.412 60.9199982,56.0840033 61.272,55.428 L62.028,55.848 C61.7959988,56.240002 61.4880019,56.5599988 61.104,56.808 C60.7199981,57.0560012 60.2360029,57.18 59.652,57.18 C59.1879977,57.18 58.7820017,57.1000008 58.434,56.94 C58.0859983,56.7799992 57.7960012,56.5600014 57.564,56.28 C57.3319988,55.9999986 57.1580006,55.6720019 57.042,55.296 C56.9259994,54.9199981 56.868,54.5160022 56.868,54.084 C56.868,53.6599979 56.9239994,53.2560019 57.036,52.872 C57.1480006,52.4879981 57.3179989,52.1520014 57.546,51.864 C57.7740011,51.5759986 58.0539983,51.3480008 58.386,51.18 C58.7180017,51.0119992 59.1079978,50.928 59.556,50.928 C59.9880022,50.928 60.3639984,51.0099992 60.684,51.174 C61.0040016,51.3380008 61.2699989,51.5579986 61.482,51.834 C61.6940011,52.1100014 61.8539995,52.4299982 61.962,52.794 C62.0700005,53.1580018 62.124,53.543998 62.124,53.952 C62.124,54.0400004 62.122,54.1079998 62.118,54.156 C62.114,54.2040002 62.112,54.2439998 62.112,54.276 L57.888,54.276 Z M59.544,51.684 C59.0399975,51.684 58.6500014,51.8639982 58.374,52.224 C58.0979986,52.5840018 57.9400002,53.067997 57.9,53.676 L61.104,53.676 C61.104,53.4279988 61.0760003,53.1860012 61.02,52.95 C60.9639997,52.7139988 60.8720006,52.5020009 60.744,52.314 C60.6159994,52.1259991 60.454001,51.9740006 60.258,51.858 C60.061999,51.7419994 59.8240014,51.684 59.544,51.684 Z M63.336,51.096 L64.2,51.096 L64.296,52.416 C64.4640008,51.9839978 64.7319982,51.6280014 65.1,51.348 C65.4680018,51.0679986 65.9039975,50.928 66.408,50.928 L66.408,51.984 C66.2959994,51.9599999 66.1720007,51.948 66.036,51.948 C65.835999,51.948 65.636001,51.9839996 65.436,52.056 C65.235999,52.1280004 65.0540008,52.2439992 64.89,52.404 C64.7259992,52.5640008 64.5920005,52.7699987 64.488,53.022 C64.3839995,53.2740013 64.332,53.5799982 64.332,53.94 L64.332,57 L63.336,57 L63.336,51.096 Z M70.596,51.78 L69.576,51.78 L69.576,51.096 L70.548,51.096 C70.4839997,50.887999 70.4300002,50.6660012 70.386,50.43 C70.3419998,50.1939988 70.32,49.972001 70.32,49.764 C70.32,49.571999 70.3419998,49.3900009 70.386,49.218 C70.4300002,49.0459991 70.5079994,48.8940007 70.62,48.762 C70.7320006,48.6299993 70.883999,48.5240004 71.076,48.444 C71.268001,48.3639996 71.5119985,48.324 71.808,48.324 C72.0240011,48.324 72.2179991,48.3379999 72.39,48.366 C72.5620009,48.3940001 72.7239992,48.4399997 72.876,48.504 L72.708,49.26 C72.6199996,49.2199998 72.5100007,49.1860001 72.378,49.158 C72.2459993,49.1299999 72.1240006,49.116 72.012,49.116 C71.5559977,49.116 71.328,49.3799974 71.328,49.908 C71.328,50.116001 71.3539997,50.3319989 71.406,50.556 C71.4580003,50.7800011 71.5119997,50.9599993 71.568,51.096 L72.708,51.096 L72.708,51.78 L71.604,51.78 L71.604,57 L70.596,57 L70.596,51.78 Z M76.164,57.18 C75.7159978,57.18 75.3220017,57.0980008 74.982,56.934 C74.6419983,56.7699992 74.3580011,56.5460014 74.13,56.262 C73.9019989,55.9779986 73.7320006,55.6460019 73.62,55.266 C73.5079994,54.8859981 73.452,54.4760022 73.452,54.036 C73.452,53.5959978 73.5099994,53.1880019 73.626,52.812 C73.7420006,52.4359981 73.9139989,52.1080014 74.142,51.828 C74.3700011,51.5479986 74.6539983,51.3280008 74.994,51.168 C75.3340017,51.0079992 75.7239978,50.928 76.164,50.928 C76.6040022,50.928 76.9939983,51.0079992 77.334,51.168 C77.6740017,51.3280008 77.9599988,51.5459986 78.192,51.822 C78.4240012,52.0980014 78.5979994,52.4259981 78.714,52.806 C78.8300006,53.1860019 78.888,53.5959978 78.888,54.036 C78.888,54.4760022 78.8300006,54.8859981 78.714,55.266 C78.5979994,55.6460019 78.4240012,55.9779986 78.192,56.262 C77.9599988,56.5460014 77.6740017,56.7699992 77.334,56.934 C76.9939983,57.0980008 76.6040022,57.18 76.164,57.18 Z M76.188,56.4 C76.4600014,56.4 76.699999,56.3400006 76.908,56.22 C77.116001,56.0999994 77.2879993,55.9340011 77.424,55.722 C77.5600007,55.5099989 77.6639996,55.2600014 77.736,54.972 C77.8080004,54.6839986 77.844,54.3720017 77.844,54.036 C77.844,53.6999983 77.8080004,53.3900014 77.736,53.106 C77.6639996,52.8219986 77.5560007,52.576001 77.412,52.368 C77.2679993,52.159999 77.092001,51.9980006 76.884,51.882 C76.675999,51.7659994 76.4360014,51.708 76.164,51.708 C75.8839986,51.708 75.640001,51.7659994 75.432,51.882 C75.223999,51.9980006 75.0520007,52.159999 74.916,52.368 C74.7799993,52.576001 74.6760004,52.8219986 74.604,53.106 C74.5319996,53.3900014 74.496,53.6999983 74.496,54.036 C74.496,54.3720017 74.5319996,54.6839986 74.604,54.972 C74.6760004,55.2600014 74.7819993,55.5099989 74.922,55.722 C75.0620007,55.9340011 75.2379989,56.0999994 75.45,56.22 C75.6620011,56.3400006 75.9079986,56.4 76.188,56.4 Z M80.16,51.096 L81.024,51.096 L81.12,52.416 C81.2880008,51.9839978 81.5559982,51.6280014 81.924,51.348 C82.2920018,51.0679986 82.7279975,50.928 83.232,50.928 L83.232,51.984 C83.1199994,51.9599999 82.9960007,51.948 82.86,51.948 C82.659999,51.948 82.460001,51.9839996 82.26,52.056 C82.059999,52.1280004 81.8780008,52.2439992 81.714,52.404 C81.5499992,52.5640008 81.4160005,52.7699987 81.312,53.022 C81.2079995,53.2740013 81.156,53.5799982 81.156,53.94 L81.156,57 L80.16,57 L80.16,51.096 Z M87.024,55.548 C87.224001,55.8040013 87.4819984,56.0159992 87.798,56.184 C88.1140016,56.3520008 88.4599981,56.436 88.836,56.436 C89.1720017,56.436 89.4639988,56.3560008 89.712,56.196 C89.9600012,56.0359992 90.084,55.7960016 90.084,55.476 C90.084,55.2279988 90.0020008,55.0340007 89.838,54.894 C89.6739992,54.7539993 89.4700012,54.6360005 89.226,54.54 C88.9819988,54.4439995 88.7160014,54.3560004 88.428,54.276 C88.1399986,54.1959996 87.8740012,54.0920006 87.63,53.964 C87.3859988,53.8359994 87.1820008,53.668001 87.018,53.46 C86.8539992,53.251999 86.772,52.9680018 86.772,52.608 C86.772,52.3119985 86.8319994,52.0580011 86.952,51.846 C87.0720006,51.6339989 87.229999,51.4600007 87.426,51.324 C87.622001,51.1879993 87.8479987,51.0880003 88.104,51.024 C88.3600013,50.9599997 88.6279986,50.928 88.908,50.928 C89.7400042,50.928 90.4319972,51.1679976 90.984,51.648 L90.48,52.32 C90.3039991,52.1359991 90.0700015,51.9820006 89.778,51.858 C89.4859985,51.7339994 89.1840016,51.672 88.872,51.672 C88.7359993,51.672 88.6020007,51.6879998 88.47,51.72 C88.3379993,51.7520002 88.2220005,51.8019997 88.122,51.87 C88.0219995,51.9380003 87.9420003,52.0239995 87.882,52.128 C87.8219997,52.2320005 87.792,52.3599992 87.792,52.512 C87.792,52.7440012 87.8739992,52.9239994 88.038,53.052 C88.2020008,53.1800006 88.4059988,53.2899995 88.65,53.382 C88.8940012,53.4740005 89.1579986,53.5619996 89.442,53.646 C89.7260014,53.7300004 89.9899988,53.8379993 90.234,53.97 C90.4780012,54.1020007 90.6819992,54.2759989 90.846,54.492 C91.0100008,54.7080011 91.092,54.9959982 91.092,55.356 C91.092,55.6600015 91.0300006,55.9259989 90.906,56.154 C90.7819994,56.3820011 90.618001,56.5719992 90.414,56.724 C90.209999,56.8760008 89.9740013,56.9899996 89.706,57.066 C89.4379987,57.1420004 89.1600014,57.18 88.872,57.18 C87.879995,57.18 87.0920029,56.8600032 86.508,56.22 L87.024,55.548 Z M93.012,54.276 C93.0520002,54.9560034 93.2259985,55.4819981 93.534,55.854 C93.8420015,56.2260019 94.2719972,56.412 94.824,56.412 C95.5200035,56.412 96.0439982,56.0840033 96.396,55.428 L97.152,55.848 C96.9199988,56.240002 96.6120019,56.5599988 96.228,56.808 C95.8439981,57.0560012 95.3600029,57.18 94.776,57.18 C94.3119977,57.18 93.9060017,57.1000008 93.558,56.94 C93.2099983,56.7799992 92.9200012,56.5600014 92.688,56.28 C92.4559988,55.9999986 92.2820006,55.6720019 92.166,55.296 C92.0499994,54.9199981 91.992,54.5160022 91.992,54.084 C91.992,53.6599979 92.0479994,53.2560019 92.16,52.872 C92.2720006,52.4879981 92.4419989,52.1520014 92.67,51.864 C92.8980011,51.5759986 93.1779983,51.3480008 93.51,51.18 C93.8420017,51.0119992 94.2319978,50.928 94.68,50.928 C95.1120022,50.928 95.4879984,51.0099992 95.808,51.174 C96.1280016,51.3380008 96.3939989,51.5579986 96.606,51.834 C96.8180011,52.1100014 96.9779995,52.4299982 97.086,52.794 C97.1940005,53.1580018 97.248,53.543998 97.248,53.952 C97.248,54.0400004 97.246,54.1079998 97.242,54.156 C97.238,54.2040002 97.236,54.2439998 97.236,54.276 L93.012,54.276 Z M94.668,51.684 C94.1639975,51.684 93.7740014,51.8639982 93.498,52.224 C93.2219986,52.5840018 93.0640002,53.067997 93.024,53.676 L96.228,53.676 C96.228,53.4279988 96.2000003,53.1860012 96.144,52.95 C96.0879997,52.7139988 95.9960006,52.5020009 95.868,52.314 C95.7399994,52.1259991 95.578001,51.9740006 95.382,51.858 C95.185999,51.7419994 94.9480014,51.684 94.668,51.684 Z M103.392,55.704 C103.151999,56.1840024 102.830002,56.5499987 102.426,56.802 C102.021998,57.0540013 101.532003,57.18 100.956,57.18 C100.483998,57.18 100.074002,57.0980008 99.726,56.934 C99.3779983,56.7699992 99.0900011,56.5480014 98.862,56.268 C98.6339989,55.9879986 98.4660005,55.6580019 98.358,55.278 C98.2499995,54.8979981 98.196,54.4920022 98.196,54.06 C98.196,53.6199978 98.2539994,53.2100019 98.37,52.83 C98.4860006,52.4499981 98.6579989,52.1200014 98.886,51.84 C99.1140011,51.5599986 99.3999983,51.3380008 99.744,51.174 C100.088002,51.0099992 100.491998,50.928 100.956,50.928 C101.540003,50.928 102.025998,51.0579987 102.414,51.318 C102.802002,51.5780013 103.115999,51.9439976 103.356,52.416 L102.516,52.812 C102.211998,52.0759963 101.700004,51.708 100.98,51.708 C100.675998,51.708 100.414001,51.7679994 100.194,51.888 C99.9739989,52.0080006 99.7940007,52.171999 99.654,52.38 C99.5139993,52.588001 99.4100003,52.8299986 99.342,53.106 C99.2739997,53.3820014 99.24,53.6799984 99.24,54 C99.24,54.3040015 99.2719997,54.5999986 99.336,54.888 C99.4000003,55.1760014 99.5039993,55.4319989 99.648,55.656 C99.7920007,55.8800011 99.9759989,56.0599993 100.2,56.196 C100.424001,56.3320007 100.699998,56.4 101.028,56.4 C101.444002,56.4 101.779999,56.2940011 102.036,56.082 C102.292001,55.8699989 102.487999,55.5960017 102.624,55.26 L103.392,55.704 Z M104.472,51.096 L105.48,51.096 L105.48,54.672 C105.48,55.2320028 105.583999,55.6419987 105.792,55.902 C106.000001,56.1620013 106.291998,56.292 106.668,56.292 C107.148002,56.292 107.521999,56.1020019 107.79,55.722 C108.058001,55.3419981 108.192,54.8360032 108.192,54.204 L108.192,51.096 L109.188,51.096 L109.188,57 L108.252,57 L108.252,55.8 C108.18,55.9840009 108.092001,56.1579992 107.988,56.322 C107.883999,56.4860008 107.756001,56.6299994 107.604,56.754 C107.451999,56.8780006 107.276001,56.9759996 107.076,57.048 C106.875999,57.1200004 106.640001,57.156 106.368,57.156 C105.727997,57.156 105.252002,56.9620019 104.94,56.574 C104.627998,56.1859981 104.472,55.6360036 104.472,54.924 L104.472,51.096 Z M110.724,51.096 L111.588,51.096 L111.684,52.416 C111.852001,51.9839978 112.119998,51.6280014 112.488,51.348 C112.856002,51.0679986 113.291997,50.928 113.796,50.928 L113.796,51.984 C113.683999,51.9599999 113.560001,51.948 113.424,51.948 C113.223999,51.948 113.024001,51.9839996 112.824,52.056 C112.623999,52.1280004 112.442001,52.2439992 112.278,52.404 C112.113999,52.5640008 111.980001,52.7699987 111.876,53.022 C111.771999,53.2740013 111.72,53.5799982 111.72,53.94 L111.72,57 L110.724,57 L110.724,51.096 Z M114.78,48.804 L115.776,48.804 L115.776,49.8 L114.78,49.8 L114.78,48.804 Z M114.78,51.096 L115.776,51.096 L115.776,57 L114.78,57 L114.78,51.096 Z M117.828,51.78 L116.82,51.78 L116.82,51.096 L117.036,51.096 C117.284001,51.096 117.477999,51.0700003 117.618,51.018 C117.758001,50.9659997 117.864,50.8860005 117.936,50.778 C118.008,50.6699995 118.06,50.5280009 118.092,50.352 C118.124,50.1759991 118.152,49.9600013 118.176,49.704 L118.2,49.488 L118.824,49.488 L118.824,51.096 L120.096,51.096 L120.096,51.78 L118.824,51.78 L118.824,55.452 C118.824,55.7880017 118.874,56.0299993 118.974,56.178 C119.074001,56.3260007 119.259999,56.4 119.532,56.4 C119.748001,56.4 119.947999,56.3520005 120.132,56.256 L120.24,56.976 C119.935998,57.1120007 119.600002,57.18 119.232,57.18 C118.943999,57.18 118.710001,57.1400004 118.53,57.06 C118.349999,56.9799996 118.208001,56.8720007 118.104,56.736 C117.999999,56.5999993 117.928,56.436001 117.888,56.244 C117.848,56.051999 117.828,55.8440011 117.828,55.62 L117.828,51.78 Z M121.164,58.26 C121.252,58.2920002 121.351999,58.3199999 121.464,58.344 C121.576001,58.3680001 121.691999,58.38 121.812,58.38 C121.940001,58.38 122.05,58.3620002 122.142,58.326 C122.234,58.2899998 122.318,58.2240005 122.394,58.128 C122.47,58.0319995 122.542,57.9040008 122.61,57.744 C122.678,57.5839992 122.752,57.3760013 122.832,57.12 L120.828,51.096 L121.908,51.096 L123.348,55.98 L124.776,51.096 L125.856,51.096 L124.044,56.532 C123.891999,56.9960023 123.754001,57.3919984 123.63,57.72 C123.505999,58.0480016 123.368001,58.3179989 123.216,58.53 C123.063999,58.7420011 122.878001,58.8979995 122.658,58.998 C122.437999,59.0980005 122.156002,59.148 121.812,59.148 C121.675999,59.148 121.530001,59.1420001 121.374,59.13 C121.217999,59.1179999 121.096,59.0960002 121.008,59.064 L121.164,58.26 Z M129.636,51.096 L130.5,51.096 L130.596,52.416 C130.764001,51.9839978 131.031998,51.6280014 131.4,51.348 C131.768002,51.0679986 132.203997,50.928 132.708,50.928 L132.708,51.984 C132.595999,51.9599999 132.472001,51.948 132.336,51.948 C132.135999,51.948 131.936001,51.9839996 131.736,52.056 C131.535999,52.1280004 131.354001,52.2439992 131.19,52.404 C131.025999,52.5640008 130.892001,52.7699987 130.788,53.022 C130.683999,53.2740013 130.632,53.5799982 130.632,53.94 L130.632,57 L129.636,57 L129.636,51.096 Z M134.448,54.276 C134.488,54.9560034 134.661998,55.4819981 134.97,55.854 C135.278002,56.2260019 135.707997,56.412 136.26,56.412 C136.956003,56.412 137.479998,56.0840033 137.832,55.428 L138.588,55.848 C138.355999,56.240002 138.048002,56.5599988 137.664,56.808 C137.279998,57.0560012 136.796003,57.18 136.212,57.18 C135.747998,57.18 135.342002,57.1000008 134.994,56.94 C134.645998,56.7799992 134.356001,56.5600014 134.124,56.28 C133.891999,55.9999986 133.718001,55.6720019 133.602,55.296 C133.485999,54.9199981 133.428,54.5160022 133.428,54.084 C133.428,53.6599979 133.483999,53.2560019 133.596,52.872 C133.708001,52.4879981 133.877999,52.1520014 134.106,51.864 C134.334001,51.5759986 134.613998,51.3480008 134.946,51.18 C135.278002,51.0119992 135.667998,50.928 136.116,50.928 C136.548002,50.928 136.923998,51.0099992 137.244,51.174 C137.564002,51.3380008 137.829999,51.5579986 138.042,51.834 C138.254001,52.1100014 138.413999,52.4299982 138.522,52.794 C138.630001,53.1580018 138.684,53.543998 138.684,53.952 C138.684,54.0400004 138.682,54.1079998 138.678,54.156 C138.674,54.2040002 138.672,54.2439998 138.672,54.276 L134.448,54.276 Z M136.104,51.684 C135.599997,51.684 135.210001,51.8639982 134.934,52.224 C134.657999,52.5840018 134.5,53.067997 134.46,53.676 L137.664,53.676 C137.664,53.4279988 137.636,53.1860012 137.58,52.95 C137.524,52.7139988 137.432001,52.5020009 137.304,52.314 C137.175999,52.1259991 137.014001,51.9740006 136.818,51.858 C136.621999,51.7419994 136.384001,51.684 136.104,51.684 Z M143.604,57 C143.516,56.7119986 143.464,56.368002 143.448,55.968 C143.287999,56.3360018 143.042002,56.6299989 142.71,56.85 C142.377998,57.0700011 141.984002,57.18 141.528,57.18 C140.951997,57.18 140.496002,57.0160016 140.16,56.688 C139.823998,56.3599984 139.656,55.9200028 139.656,55.368 C139.656,55.0559984 139.711999,54.7940011 139.824,54.582 C139.936001,54.3699989 140.091999,54.1940007 140.292,54.054 C140.492001,53.9139993 140.727999,53.8040004 141,53.724 C141.272001,53.6439996 141.567998,53.5800002 141.888,53.532 L143.4,53.304 L143.4,52.932 C143.4,52.6679987 143.368,52.4560008 143.304,52.296 C143.24,52.1359992 143.152001,52.0120004 143.04,51.924 C142.927999,51.8359996 142.800001,51.7780001 142.656,51.75 C142.511999,51.7219999 142.360001,51.708 142.2,51.708 C141.743998,51.708 141.368001,51.7919992 141.072,51.96 C140.775999,52.1280008 140.528001,52.3399987 140.328,52.596 L139.812,51.948 C140.044001,51.6679986 140.365998,51.428001 140.778,51.228 C141.190002,51.027999 141.699997,50.928 142.308,50.928 C143.044004,50.928 143.577998,51.0919984 143.91,51.42 C144.242002,51.7480016 144.408,52.2759964 144.408,53.004 L144.408,55.392 C144.408,55.584001 144.41,55.7519993 144.414,55.896 C144.418,56.0400007 144.426,56.1739994 144.438,56.298 C144.45,56.4220006 144.468,56.5399994 144.492,56.652 C144.516,56.7640006 144.548,56.8799994 144.588,57 L143.604,57 Z M143.4,53.964 L141.984,54.192 C141.495998,54.2800004 141.150001,54.4119991 140.946,54.588 C140.741999,54.7640009 140.64,55.0079984 140.64,55.32 C140.64,55.6400016 140.733999,55.9079989 140.922,56.124 C141.110001,56.3400011 141.387998,56.448 141.756,56.448 C141.980001,56.448 142.191999,56.4040004 142.392,56.316 C142.592001,56.2279996 142.765999,56.1060008 142.914,55.95 C143.062001,55.7939992 143.18,55.6060011 143.268,55.386 C143.356,55.1659989 143.4,54.9240013 143.4,54.66 L143.4,53.964 Z M146.112,55.548 C146.312001,55.8040013 146.569998,56.0159992 146.886,56.184 C147.202002,56.3520008 147.547998,56.436 147.924,56.436 C148.260002,56.436 148.551999,56.3560008 148.8,56.196 C149.048001,56.0359992 149.172,55.7960016 149.172,55.476 C149.172,55.2279988 149.090001,55.0340007 148.926,54.894 C148.761999,54.7539993 148.558001,54.6360005 148.314,54.54 C148.069999,54.4439995 147.804001,54.3560004 147.516,54.276 C147.227999,54.1959996 146.962001,54.0920006 146.718,53.964 C146.473999,53.8359994 146.270001,53.668001 146.106,53.46 C145.941999,53.251999 145.86,52.9680018 145.86,52.608 C145.86,52.3119985 145.919999,52.0580011 146.04,51.846 C146.160001,51.6339989 146.317999,51.4600007 146.514,51.324 C146.710001,51.1879993 146.935999,51.0880003 147.192,51.024 C147.448001,50.9599997 147.715999,50.928 147.996,50.928 C148.828004,50.928 149.519997,51.1679976 150.072,51.648 L149.568,52.32 C149.391999,52.1359991 149.158001,51.9820006 148.866,51.858 C148.573999,51.7339994 148.272002,51.672 147.96,51.672 C147.823999,51.672 147.690001,51.6879998 147.558,51.72 C147.425999,51.7520002 147.310001,51.8019997 147.21,51.87 C147.11,51.9380003 147.03,52.0239995 146.97,52.128 C146.91,52.2320005 146.88,52.3599992 146.88,52.512 C146.88,52.7440012 146.961999,52.9239994 147.126,53.052 C147.290001,53.1800006 147.493999,53.2899995 147.738,53.382 C147.982001,53.4740005 148.245999,53.5619996 148.53,53.646 C148.814001,53.7300004 149.077999,53.8379993 149.322,53.97 C149.566001,54.1020007 149.769999,54.2759989 149.934,54.492 C150.098001,54.7080011 150.18,54.9959982 150.18,55.356 C150.18,55.6600015 150.118001,55.9259989 149.994,56.154 C149.869999,56.3820011 149.706001,56.5719992 149.502,56.724 C149.297999,56.8760008 149.062001,56.9899996 148.794,57.066 C148.525999,57.1420004 148.248001,57.18 147.96,57.18 C146.967995,57.18 146.180003,56.8600032 145.596,56.22 L146.112,55.548 Z M153.792,57.18 C153.343998,57.18 152.950002,57.0980008 152.61,56.934 C152.269998,56.7699992 151.986001,56.5460014 151.758,56.262 C151.529999,55.9779986 151.360001,55.6460019 151.248,55.266 C151.135999,54.8859981 151.08,54.4760022 151.08,54.036 C151.08,53.5959978 151.137999,53.1880019 151.254,52.812 C151.370001,52.4359981 151.541999,52.1080014 151.77,51.828 C151.998001,51.5479986 152.281998,51.3280008 152.622,51.168 C152.962002,51.0079992 153.351998,50.928 153.792,50.928 C154.232002,50.928 154.621998,51.0079992 154.962,51.168 C155.302002,51.3280008 155.587999,51.5459986 155.82,51.822 C156.052001,52.0980014 156.225999,52.4259981 156.342,52.806 C156.458001,53.1860019 156.516,53.5959978 156.516,54.036 C156.516,54.4760022 156.458001,54.8859981 156.342,55.266 C156.225999,55.6460019 156.052001,55.9779986 155.82,56.262 C155.587999,56.5460014 155.302002,56.7699992 154.962,56.934 C154.621998,57.0980008 154.232002,57.18 153.792,57.18 Z M153.816,56.4 C154.088001,56.4 154.327999,56.3400006 154.536,56.22 C154.744001,56.0999994 154.915999,55.9340011 155.052,55.722 C155.188001,55.5099989 155.292,55.2600014 155.364,54.972 C155.436,54.6839986 155.472,54.3720017 155.472,54.036 C155.472,53.6999983 155.436,53.3900014 155.364,53.106 C155.292,52.8219986 155.184001,52.576001 155.04,52.368 C154.895999,52.159999 154.720001,51.9980006 154.512,51.882 C154.303999,51.7659994 154.064001,51.708 153.792,51.708 C153.511999,51.708 153.268001,51.7659994 153.06,51.882 C152.851999,51.9980006 152.680001,52.159999 152.544,52.368 C152.407999,52.576001 152.304,52.8219986 152.232,53.106 C152.16,53.3900014 152.124,53.6999983 152.124,54.036 C152.124,54.3720017 152.16,54.6839986 152.232,54.972 C152.304,55.2600014 152.409999,55.5099989 152.55,55.722 C152.690001,55.9340011 152.865999,56.0999994 153.078,56.22 C153.290001,56.3400006 153.535999,56.4 153.816,56.4 Z M157.788,51.096 L158.652,51.096 L158.76,52.272 C158.912001,51.9119982 159.153998,51.5980013 159.486,51.33 C159.818002,51.0619987 160.227998,50.928 160.716,50.928 C161.332003,50.928 161.785999,51.123998 162.078,51.516 C162.370001,51.908002 162.516,52.4559965 162.516,53.16 L162.516,57 L161.52,57 L161.52,53.364 C161.52,52.8279973 161.412001,52.4340013 161.196,52.182 C160.979999,51.9299987 160.688002,51.804 160.32,51.804 C159.879998,51.804 159.514001,51.9839982 159.222,52.344 C158.929999,52.7040018 158.784,53.2119967 158.784,53.868 L158.784,57 L157.788,57 L157.788,51.096 Z M164.136,55.548 C164.336001,55.8040013 164.593998,56.0159992 164.91,56.184 C165.226002,56.3520008 165.571998,56.436 165.948,56.436 C166.284002,56.436 166.575999,56.3560008 166.824,56.196 C167.072001,56.0359992 167.196,55.7960016 167.196,55.476 C167.196,55.2279988 167.114001,55.0340007 166.95,54.894 C166.785999,54.7539993 166.582001,54.6360005 166.338,54.54 C166.093999,54.4439995 165.828001,54.3560004 165.54,54.276 C165.251999,54.1959996 164.986001,54.0920006 164.742,53.964 C164.497999,53.8359994 164.294001,53.668001 164.13,53.46 C163.965999,53.251999 163.884,52.9680018 163.884,52.608 C163.884,52.3119985 163.943999,52.0580011 164.064,51.846 C164.184001,51.6339989 164.341999,51.4600007 164.538,51.324 C164.734001,51.1879993 164.959999,51.0880003 165.216,51.024 C165.472001,50.9599997 165.739999,50.928 166.02,50.928 C166.852004,50.928 167.543997,51.1679976 168.096,51.648 L167.592,52.32 C167.415999,52.1359991 167.182001,51.9820006 166.89,51.858 C166.597999,51.7339994 166.296002,51.672 165.984,51.672 C165.847999,51.672 165.714001,51.6879998 165.582,51.72 C165.449999,51.7520002 165.334001,51.8019997 165.234,51.87 C165.134,51.9380003 165.054,52.0239995 164.994,52.128 C164.934,52.2320005 164.904,52.3599992 164.904,52.512 C164.904,52.7440012 164.985999,52.9239994 165.15,53.052 C165.314001,53.1800006 165.517999,53.2899995 165.762,53.382 C166.006001,53.4740005 166.269999,53.5619996 166.554,53.646 C166.838001,53.7300004 167.101999,53.8379993 167.346,53.97 C167.590001,54.1020007 167.793999,54.2759989 167.958,54.492 C168.122001,54.7080011 168.204,54.9959982 168.204,55.356 C168.204,55.6600015 168.142001,55.9259989 168.018,56.154 C167.893999,56.3820011 167.730001,56.5719992 167.526,56.724 C167.321999,56.8760008 167.086001,56.9899996 166.818,57.066 C166.549999,57.1420004 166.272001,57.18 165.984,57.18 C164.991995,57.18 164.204003,56.8600032 163.62,56.22 L164.136,55.548 Z" id="Cannot-enter-for-sec" fill="#7A787A"></path>
                    <path d="M1.5,42 L199.5,42" id="Line" stroke="#C30000" stroke-width="2" stroke-linecap="square"></path>
                    <path d="M184.410714,21.3482143 C185.464291,20.735116 186.613089,20.4285714 187.857143,20.4285714 C189.101197,20.4285714 190.248507,20.735116 191.299107,21.3482143 C192.349708,21.9613126 193.181545,22.7931495 193.794643,23.84375 C194.407741,24.8943505 194.714286,26.0416604 194.714286,27.2857143 C194.714286,28.5297681 194.407741,29.6770781 193.794643,30.7276786 C193.181545,31.7782791 192.349708,32.610116 191.299107,33.2232143 C190.248507,33.8363126 189.101197,34.1428571 187.857143,34.1428571 C186.613089,34.1428571 185.465779,33.8363126 184.415179,33.2232143 C183.364578,32.610116 182.532741,31.7782791 181.919643,30.7276786 C181.306545,29.6770781 181,28.5297681 181,27.2857143 C181,26.0416604 181.306545,24.8943505 181.919643,23.84375 C182.532741,22.7931495 183.36309,21.9613126 184.410714,21.3482143 Z M189,31.5625 L189,29.8660714 C189,29.7827377 188.973215,29.7127979 188.919643,29.65625 C188.866071,29.5997021 188.800596,29.5714286 188.723214,29.5714286 L187.008929,29.5714286 C186.931547,29.5714286 186.863096,29.6011902 186.803571,29.6607143 C186.744047,29.7202384 186.714286,29.7886901 186.714286,29.8660714 L186.714286,31.5625 C186.714286,31.6398813 186.744047,31.708333 186.803571,31.7678571 C186.863096,31.8273813 186.931547,31.8571429 187.008929,31.8571429 L188.723214,31.8571429 C188.800596,31.8571429 188.866071,31.8288693 188.919643,31.7723214 C188.973215,31.7157735 189,31.6458338 189,31.5625 Z M188.982143,28.4910714 L189.142857,22.9464286 C189.142857,22.8749996 189.113096,22.8214288 189.053571,22.7857143 C188.994047,22.738095 188.922619,22.7142857 188.839286,22.7142857 L186.875,22.7142857 C186.791666,22.7142857 186.720238,22.738095 186.660714,22.7857143 C186.60119,22.8214288 186.571429,22.8749996 186.571429,22.9464286 L186.723214,28.4910714 C186.723214,28.5505955 186.752976,28.6026783 186.8125,28.6473214 C186.872024,28.6919645 186.943452,28.7142857 187.026786,28.7142857 L188.678571,28.7142857 C188.761905,28.7142857 188.831845,28.6919645 188.888393,28.6473214 C188.944941,28.6026783 188.97619,28.5505955 188.982143,28.4910714 Z" id="exclamation-circle---FontAwesome" fill="#C30000"></path>
                    <path d="M0.944,23.208 L0.944,21.704 L2.256,21.704 L2.256,23.208 L1.92,25.784 L1.28,25.784 L0.944,23.208 Z M4.064,34.408 C4.37333488,34.2586659 4.57066624,34.0906676 4.656,33.904 C4.74133376,33.7173324 4.784,33.4853347 4.784,33.208 L4.784,33 L4.096,33 L4.096,31.432 L5.584,31.432 L5.584,33.16 C5.584,33.6826693 5.48533432,34.0826653 5.288,34.36 C5.09066568,34.6373347 4.78933536,34.8666658 4.384,35.048 L4.064,34.408 Z M4.096,25.288 L5.584,25.288 L5.584,26.856 L4.096,26.856 L4.096,25.288 Z M11.2,21.704 L14.608,21.704 C16.5600098,21.704 17.9946621,22.1759953 18.912,23.12 C19.8293379,24.0640047 20.288,25.4799906 20.288,27.368 C20.288,29.1920091 19.8293379,30.5866618 18.912,31.552 C17.9946621,32.5173382 16.6186758,33 14.784,33 L11.2,33 L11.2,21.704 Z M14.672,31.88 C15.4400038,31.88 16.0853307,31.7680011 16.608,31.544 C17.1306693,31.3199989 17.5519984,31.008002 17.872,30.608 C18.1920016,30.207998 18.418666,29.7280028 18.552,29.168 C18.685334,28.6079972 18.752,27.9973366 18.752,27.336 C18.752,26.6959968 18.685334,26.1013361 18.552,25.552 C18.418666,25.0026639 18.1920016,24.5253354 17.872,24.12 C17.5519984,23.7146646 17.1200027,23.3973345 16.576,23.168 C16.0319973,22.9386655 15.3493374,22.824 14.528,22.824 L12.64,22.824 L12.64,31.88 L14.672,31.88 Z M22.08,21.704 L25.76,21.704 C26.3466696,21.704 26.8853309,21.7653327 27.376,21.888 C27.8666691,22.0106673 28.2879982,22.2026654 28.64,22.464 C28.9920018,22.7253346 29.2666657,23.0586646 29.464,23.464 C29.6613343,23.8693354 29.76,24.3493306 29.76,24.904 C29.76,25.3733357 29.6800008,25.7813316 29.52,26.128 C29.3599992,26.4746684 29.1440014,26.7679988 28.872,27.008 C28.5999986,27.2480012 28.2880018,27.434666 27.936,27.568 C27.5839982,27.701334 27.2106686,27.7839998 26.816,27.816 C27.0933347,27.890667 27.3413322,28.0213324 27.56,28.208 C27.7786678,28.3946676 27.9946656,28.6693315 28.208,29.032 L30.448,33 L28.752,33 L26.976,29.688 C26.7306654,29.229331 26.4586682,28.8746679 26.16,28.624 C25.8613318,28.3733321 25.445336,28.248 24.912,28.248 L23.52,28.248 L23.52,33 L22.08,33 L22.08,21.704 Z M25.792,27.096 C26.5280037,27.096 27.1173311,26.925335 27.56,26.584 C28.0026689,26.242665 28.224,25.6933371 28.224,24.936 C28.224,24.2426632 28.0026689,23.7173351 27.56,23.36 C27.1173311,23.0026649 26.5173371,22.824 25.76,22.824 L23.52,22.824 L23.52,27.096 L25.792,27.096 Z M36.704,33.24 C35.9359962,33.24 35.2373365,33.1013347 34.608,32.824 C33.9786635,32.5466653 33.4373356,32.1493359 32.984,31.632 C32.5306644,31.1146641 32.1786679,30.4906703 31.928,29.76 C31.6773321,29.0293297 31.552,28.2160045 31.552,27.32 C31.552,26.4133288 31.6773321,25.6000036 31.928,24.88 C32.1786679,24.1599964 32.5306644,23.5466692 32.984,23.04 C33.4373356,22.5333308 33.9786635,22.1440014 34.608,21.872 C35.2373365,21.5999986 35.9359962,21.464 36.704,21.464 C37.4720038,21.464 38.1733302,21.5999986 38.808,21.872 C39.4426698,22.1440014 39.9866644,22.5333308 40.44,23.04 C40.8933356,23.5466692 41.2479987,24.1599964 41.504,24.88 C41.7600013,25.6000036 41.888,26.4133288 41.888,27.32 C41.888,28.2160045 41.7600013,29.0293297 41.504,29.76 C41.2479987,30.4906703 40.8880023,31.1146641 40.424,31.632 C39.9599977,32.1493359 39.4106698,32.5466653 38.776,32.824 C38.1413302,33.1013347 37.4506704,33.24 36.704,33.24 Z M36.704,31.992 C37.2693362,31.992 37.7759978,31.8800011 38.224,31.656 C38.6720022,31.4319989 39.0533318,31.1146687 39.368,30.704 C39.6826682,30.2933313 39.9226658,29.8000029 40.088,29.224 C40.2533342,28.6479971 40.336,28.0133368 40.336,27.32 C40.336,26.6479966 40.2533342,26.0293362 40.088,25.464 C39.9226658,24.8986638 39.6853349,24.4133354 39.376,24.008 C39.0666651,23.6026646 38.682669,23.2853345 38.224,23.056 C37.765331,22.8266655 37.2480029,22.712 36.672,22.712 C36.0959971,22.712 35.5866689,22.8266655 35.144,23.056 C34.7013311,23.2853345 34.3280015,23.6026646 34.024,24.008 C33.7199985,24.4133354 33.4880008,24.8986638 33.328,25.464 C33.1679992,26.0293362 33.088,26.6479966 33.088,27.32 C33.088,28.0133368 33.1733325,28.6479971 33.344,29.224 C33.5146675,29.8000029 33.7599984,30.2933313 34.08,30.704 C34.4000016,31.1146687 34.7813311,31.4319989 35.224,31.656 C35.6666689,31.8800011 36.1599973,31.992 36.704,31.992 Z M43.68,21.704 L47.472,21.704 C48.0373362,21.704 48.5599976,21.7679994 49.04,21.896 C49.5200024,22.0240006 49.9333316,22.221332 50.28,22.488 C50.6266684,22.754668 50.8986657,23.0933313 51.096,23.504 C51.2933343,23.9146687 51.392,24.4079971 51.392,24.984 C51.392,25.6240032 51.2933343,26.1679978 51.096,26.616 C50.8986657,27.0640022 50.6240018,27.4266653 50.272,27.704 C49.9199982,27.9813347 49.506669,28.1813327 49.032,28.304 C48.557331,28.4266673 48.0426694,28.488 47.488,28.488 L45.12,28.488 L45.12,33 L43.68,33 L43.68,21.704 Z M47.248,27.336 C48.0800042,27.336 48.725331,27.1573351 49.184,26.8 C49.642669,26.4426649 49.872,25.8373376 49.872,24.984 C49.872,24.5893314 49.805334,24.2533347 49.672,23.976 C49.538666,23.6986653 49.3573345,23.4746675 49.128,23.304 C48.8986655,23.1333325 48.6266682,23.010667 48.312,22.936 C47.9973318,22.861333 47.6586685,22.824 47.296,22.824 L45.12,22.824 L45.12,27.336 L47.248,27.336 Z M59.248,22.824 L55.904,22.824 L55.904,21.704 L64.016,21.704 L64.016,22.824 L60.688,22.824 L60.688,33 L59.248,33 L59.248,22.824 Z M67.504,21.704 L68.832,21.704 L72.816,33 L71.312,33 L70.304,29.96 L65.952,29.96 L64.944,33 L63.488,33 L67.504,21.704 Z M69.92,28.856 C69.6213318,27.9279954 69.3253348,27.0186711 69.032,26.128 C68.7386652,25.2373289 68.4426682,24.3013382 68.144,23.32 C67.8666653,24.2800048 67.5733349,25.2106622 67.264,26.112 C66.9546651,27.0133378 66.6453349,27.9279954 66.336,28.856 L69.92,28.856 Z M74.336,21.704 L78.144,21.704 C78.602669,21.704 79.0533311,21.7493329 79.496,21.84 C79.9386689,21.9306671 80.330665,22.0853322 80.672,22.304 C81.013335,22.5226678 81.287999,22.8133315 81.496,23.176 C81.704001,23.5386685 81.808,23.986664 81.808,24.52 C81.808,25.2133368 81.6026687,25.7839978 81.192,26.232 C80.7813313,26.6800022 80.213337,26.9626661 79.488,27.08 C79.8613352,27.1333336 80.210665,27.2293326 80.536,27.368 C80.861335,27.5066674 81.1439988,27.6933322 81.384,27.928 C81.6240012,28.1626678 81.810666,28.442665 81.944,28.768 C82.077334,29.093335 82.144,29.4693312 82.144,29.896 C82.144,30.4720029 82.0453343,30.959998 81.848,31.36 C81.6506657,31.760002 81.381335,32.0799988 81.04,32.32 C80.698665,32.5600012 80.2933357,32.7333328 79.824,32.84 C79.3546643,32.9466672 78.8426694,33 78.288,33 L74.336,33 L74.336,21.704 Z M77.632,26.552 C77.9413349,26.552 78.2533318,26.5333335 78.568,26.496 C78.8826682,26.4586665 79.1679987,26.3706674 79.424,26.232 C79.6800013,26.0933326 79.8879992,25.8960013 80.048,25.64 C80.2080008,25.3839987 80.288,25.0373355 80.288,24.6 C80.288,24.2479982 80.2240006,23.9573345 80.096,23.728 C79.9679994,23.4986655 79.7920011,23.317334 79.568,23.184 C79.3439989,23.050666 79.0880014,22.9573336 78.8,22.904 C78.5119986,22.8506664 78.2080016,22.824 77.888,22.824 L75.776,22.824 L75.776,26.552 L77.632,26.552 Z M78.064,31.88 C78.3840016,31.88 78.6959985,31.8480003 79,31.784 C79.3040015,31.7199997 79.5759988,31.6080008 79.816,31.448 C80.0560012,31.2879992 80.2479993,31.0693347 80.392,30.792 C80.5360007,30.5146653 80.608,30.1626688 80.608,29.736 C80.608,29.3413314 80.5306674,29.010668 80.376,28.744 C80.2213326,28.477332 80.0160013,28.2640008 79.76,28.104 C79.5039987,27.9439992 79.213335,27.8293337 78.888,27.76 C78.562665,27.6906663 78.229335,27.656 77.888,27.656 L75.776,27.656 L75.776,31.88 L78.064,31.88 Z M83.952,21.704 L85.392,21.704 L85.392,31.88 L90.784,31.88 L90.784,33 L83.952,33 L83.952,21.704 Z M92.448,21.704 L99.168,21.704 L99.168,22.824 L93.888,22.824 L93.888,26.536 L98,26.536 L98,27.656 L93.888,27.656 L93.888,31.88 L99.392,31.88 L99.392,33 L92.448,33 L92.448,21.704 Z M104.656,25.128 L106,25.128 L106,29.896 C106,30.6426704 106.138665,31.1893316 106.416,31.536 C106.693335,31.8826684 107.082664,32.056 107.584,32.056 C108.224003,32.056 108.722665,31.8026692 109.08,31.296 C109.437335,30.7893308 109.616,30.1146709 109.616,29.272 L109.616,25.128 L110.944,25.128 L110.944,33 L109.696,33 L109.696,31.4 C109.6,31.6453346 109.482667,31.8773322 109.344,32.096 C109.205333,32.3146678 109.034668,32.5066658 108.832,32.672 C108.629332,32.8373342 108.394668,32.9679995 108.128,33.064 C107.861332,33.1600005 107.546668,33.208 107.184,33.208 C106.330662,33.208 105.696002,32.9493359 105.28,32.432 C104.863998,31.9146641 104.656,31.1813381 104.656,30.232 L104.656,25.128 Z M113.136,31.064 C113.402668,31.405335 113.746665,31.6879989 114.168,31.912 C114.589335,32.1360011 115.050664,32.248 115.552,32.248 C116.000002,32.248 116.389332,32.1413344 116.72,31.928 C117.050668,31.7146656 117.216,31.3946688 117.216,30.968 C117.216,30.6373317 117.106668,30.3786676 116.888,30.192 C116.669332,30.0053324 116.397335,29.8480006 116.072,29.72 C115.746665,29.5919994 115.392002,29.4746672 115.008,29.368 C114.623998,29.2613328 114.269335,29.1226675 113.944,28.952 C113.618665,28.7813325 113.346668,28.5573347 113.128,28.28 C112.909332,28.0026653 112.8,27.6240024 112.8,27.144 C112.8,26.7493314 112.879999,26.4106681 113.04,26.128 C113.200001,25.8453319 113.410665,25.6133342 113.672,25.432 C113.933335,25.2506658 114.234665,25.1173338 114.576,25.032 C114.917335,24.9466662 115.274665,24.904 115.648,24.904 C116.757339,24.904 117.679996,25.2239968 118.416,25.864 L117.744,26.76 C117.509332,26.5146654 117.197335,26.3093342 116.808,26.144 C116.418665,25.9786658 116.016002,25.896 115.6,25.896 C115.418666,25.896 115.240001,25.9173331 115.064,25.96 C114.887999,26.0026669 114.733334,26.0693329 114.6,26.16 C114.466666,26.2506671 114.36,26.3653326 114.28,26.504 C114.2,26.6426674 114.16,26.8133323 114.16,27.016 C114.16,27.3253349 114.269332,27.5653325 114.488,27.736 C114.706668,27.9066675 114.978665,28.0533327 115.304,28.176 C115.629335,28.2986673 115.981331,28.4159994 116.36,28.528 C116.738669,28.6400006 117.090665,28.7839991 117.416,28.96 C117.741335,29.1360009 118.013332,29.3679986 118.232,29.656 C118.450668,29.9440014 118.56,30.3279976 118.56,30.808 C118.56,31.2133354 118.477334,31.5679985 118.312,31.872 C118.146666,32.1760015 117.928001,32.4293323 117.656,32.632 C117.383999,32.8346677 117.069335,32.9866662 116.712,33.088 C116.354665,33.1893338 115.984002,33.24 115.6,33.24 C114.277327,33.24 113.226671,32.8133376 112.448,31.96 L113.136,31.064 Z M121.12,29.368 C121.173334,30.2746712 121.405331,30.9759975 121.816,31.472 C122.226669,31.9680025 122.799996,32.216 123.536,32.216 C124.464005,32.216 125.162664,31.778671 125.632,30.904 L126.64,31.464 C126.330665,31.9866693 125.920003,32.4133317 125.408,32.744 C124.895997,33.0746683 124.250671,33.24 123.472,33.24 C122.85333,33.24 122.312002,33.1333344 121.848,32.92 C121.383998,32.7066656 120.997335,32.4133352 120.688,32.04 C120.378665,31.6666648 120.146667,31.2293358 119.992,30.728 C119.837333,30.2266642 119.76,29.6880029 119.76,29.112 C119.76,28.5466638 119.834666,28.0080026 119.984,27.496 C120.133334,26.9839974 120.359998,26.5360019 120.664,26.152 C120.968002,25.7679981 121.341331,25.4640011 121.784,25.24 C122.226669,25.0159989 122.746664,24.904 123.344,24.904 C123.920003,24.904 124.421331,25.0133322 124.848,25.232 C125.274669,25.4506678 125.629332,25.7439982 125.912,26.112 C126.194668,26.4800018 126.407999,26.9066642 126.552,27.392 C126.696001,27.8773358 126.768,28.3919973 126.768,28.936 C126.768,29.0533339 126.765333,29.1439997 126.76,29.208 C126.754667,29.2720003 126.752,29.3253331 126.752,29.368 L121.12,29.368 Z M123.328,25.912 C122.655997,25.912 122.136002,26.1519976 121.768,26.632 C121.399998,27.1120024 121.189334,27.7573293 121.136,28.568 L125.408,28.568 C125.408,28.2373317 125.370667,27.9146682 125.296,27.6 C125.221333,27.2853318 125.098668,27.0026679 124.928,26.752 C124.757332,26.5013321 124.541335,26.2986674 124.28,26.144 C124.018665,25.9893326 123.701335,25.912 123.328,25.912 Z M128.384,25.128 L129.536,25.128 L129.664,26.888 C129.888001,26.3119971 130.245331,25.8373352 130.736,25.464 C131.226669,25.0906648 131.807997,24.904 132.48,24.904 L132.48,26.312 C132.330666,26.2799998 132.165334,26.264 131.984,26.264 C131.717332,26.264 131.450668,26.3119995 131.184,26.408 C130.917332,26.5040005 130.674668,26.6586656 130.456,26.872 C130.237332,27.0853344 130.058667,27.3599983 129.92,27.696 C129.781333,28.0320017 129.712,28.4399976 129.712,28.92 L129.712,33 L128.384,33 L128.384,25.128 Z M133.936,31.064 C134.202668,31.405335 134.546665,31.6879989 134.968,31.912 C135.389335,32.1360011 135.850664,32.248 136.352,32.248 C136.800002,32.248 137.189332,32.1413344 137.52,31.928 C137.850668,31.7146656 138.016,31.3946688 138.016,30.968 C138.016,30.6373317 137.906668,30.3786676 137.688,30.192 C137.469332,30.0053324 137.197335,29.8480006 136.872,29.72 C136.546665,29.5919994 136.192002,29.4746672 135.808,29.368 C135.423998,29.2613328 135.069335,29.1226675 134.744,28.952 C134.418665,28.7813325 134.146668,28.5573347 133.928,28.28 C133.709332,28.0026653 133.6,27.6240024 133.6,27.144 C133.6,26.7493314 133.679999,26.4106681 133.84,26.128 C134.000001,25.8453319 134.210665,25.6133342 134.472,25.432 C134.733335,25.2506658 135.034665,25.1173338 135.376,25.032 C135.717335,24.9466662 136.074665,24.904 136.448,24.904 C137.557339,24.904 138.479996,25.2239968 139.216,25.864 L138.544,26.76 C138.309332,26.5146654 137.997335,26.3093342 137.608,26.144 C137.218665,25.9786658 136.816002,25.896 136.4,25.896 C136.218666,25.896 136.040001,25.9173331 135.864,25.96 C135.687999,26.0026669 135.533334,26.0693329 135.4,26.16 C135.266666,26.2506671 135.16,26.3653326 135.08,26.504 C135,26.6426674 134.96,26.8133323 134.96,27.016 C134.96,27.3253349 135.069332,27.5653325 135.288,27.736 C135.506668,27.9066675 135.778665,28.0533327 136.104,28.176 C136.429335,28.2986673 136.781331,28.4159994 137.16,28.528 C137.538669,28.6400006 137.890665,28.7839991 138.216,28.96 C138.541335,29.1360009 138.813332,29.3679986 139.032,29.656 C139.250668,29.9440014 139.36,30.3279976 139.36,30.808 C139.36,31.2133354 139.277334,31.5679985 139.112,31.872 C138.946666,32.1760015 138.728001,32.4293323 138.456,32.632 C138.183999,32.8346677 137.869335,32.9866662 137.512,33.088 C137.154665,33.1893338 136.784002,33.24 136.4,33.24 C135.077327,33.24 134.026671,32.8133376 133.248,31.96 L133.936,31.064 Z M140.752,34.408 C141.061335,34.2586659 141.258666,34.0906676 141.344,33.904 C141.429334,33.7173324 141.472,33.4853347 141.472,33.208 L141.472,33 L140.784,33 L140.784,31.432 L142.272,31.432 L142.272,33.16 C142.272,33.6826693 142.173334,34.0826653 141.976,34.36 C141.778666,34.6373347 141.477335,34.8666658 141.072,35.048 L140.752,34.408 Z M140.784,25.288 L142.272,25.288 L142.272,26.856 L140.784,26.856 L140.784,25.288 Z" id="';-DROP-TABLE-users;" fill="#000000"></path>
                </g>
            </g>
        </g>
    </g>
</svg>