<?xml version="1.0" encoding="UTF-8"?>
<svg width="201px" height="66px" viewBox="0 0 201 66" version="1.1" xmlns="http://www.w3.org/2000/svg" xmlns:xlink="http://www.w3.org/1999/xlink">
    <!-- Generator: Sketch 47.1 (45422) - http://www.bohemiancoding.com/sketch -->
    <title>Forms/Text Area/Success</title>
    <desc>Created with Sketch.</desc>
    <defs></defs>
    <g id="Text-area" stroke="none" stroke-width="1" fill="none" fill-rule="evenodd">
        <g id="Text-area-Usage-extra-large-1200" transform="translate(-308.000000, -1564.000000)">
            <g id="Forms/Text-Area/Success" transform="translate(308.000000, 1564.000000)">
                <path d="M90.162,64.09 L91.926,64.09 L91.926,57.16 C91.7019989,57.3746677 91.4430015,57.5379994 91.149,57.65 C90.8549985,57.7620006 90.4980021,57.8273332 90.078,57.846 L90.078,56.95 C90.6380028,56.95 91.0859983,56.8403344 91.422,56.621 C91.7580017,56.4016656 92.0193324,56.0633356 92.206,55.606 L93.088,55.606 L93.088,64.09 L94.824,64.09 L94.824,65 L90.162,65 L90.162,64.09 Z M100.34,64.216 C100.769335,64.216 101.121665,64.0830013 101.397,63.817 C101.672335,63.5509987 101.886999,63.2196686 102.041,62.823 C102.195001,62.4263314 102.302333,62.0016689 102.363,61.549 C102.423667,61.0963311 102.454,60.6833352 102.454,60.31 C102.454,59.9459982 102.423667,59.5353356 102.363,59.078 C102.302333,58.6206644 102.195001,58.1936687 102.041,57.797 C101.886999,57.4003313 101.672335,57.066668 101.397,56.796 C101.121665,56.525332 100.769335,56.39 100.34,56.39 C99.9199979,56.39 99.574668,56.5183321 99.304,56.775 C99.033332,57.0316679 98.8163341,57.3489981 98.653,57.727 C98.4896658,58.1050019 98.377667,58.5133311 98.317,58.952 C98.256333,59.3906689 98.226,59.7966648 98.226,60.17 C98.226,60.5526686 98.2516664,60.977331 98.303,61.444 C98.3543336,61.910669 98.4569992,62.3493313 98.611,62.76 C98.7650008,63.1706687 98.9796653,63.5159986 99.255,63.796 C99.5303347,64.0760014 99.8919978,64.216 100.34,64.216 Z M100.34,65.21 C99.7239969,65.2006666 99.1966689,65.0466682 98.758,64.748 C98.3193311,64.4493318 97.964668,64.066669 97.694,63.6 C97.423332,63.133331 97.2250006,62.6106696 97.099,62.032 C96.9729994,61.4533304 96.91,60.8793362 96.91,60.31 C96.91,59.7406638 96.9729994,59.1643362 97.099,58.581 C97.2250006,57.9976637 97.4256653,57.472669 97.701,57.006 C97.9763347,56.539331 98.3333311,56.1566682 98.772,55.858 C99.2106689,55.5593318 99.7473302,55.41 100.382,55.41 C101.007336,55.41 101.536998,55.5593318 101.971,55.858 C102.405002,56.1566682 102.754999,56.539331 103.021,57.006 C103.287001,57.472669 103.478333,57.9953304 103.595,58.574 C103.711667,59.1526696 103.77,59.7266638 103.77,60.296 C103.77,60.8560028 103.711667,61.4253304 103.595,62.004 C103.478333,62.5826696 103.287001,63.1076643 103.021,63.579 C102.754999,64.0503357 102.402669,64.4376651 101.964,64.741 C101.525331,65.0443349 100.984003,65.2006666 100.34,65.21 Z M109.062,55.116 L110.084,55.116 L106.024,65 L104.974,65 L109.062,55.116 Z M111.554,64.146 C111.834001,63.9593324 112.148998,63.7353346 112.499,63.474 C112.849002,63.2126654 113.201332,62.9256682 113.556,62.613 C113.910668,62.3003318 114.253665,61.9690017 114.585,61.619 C114.916335,61.2689983 115.210332,60.9050019 115.467,60.527 C115.723668,60.1489981 115.931333,59.764002 116.09,59.372 C116.248667,58.979998 116.328,58.588002 116.328,58.196 C116.328,57.6453306 116.185668,57.1903351 115.901,56.831 C115.616332,56.4716649 115.18467,56.292 114.606,56.292 C114.083331,56.292 113.665668,56.4553317 113.353,56.782 C113.040332,57.1086683 112.832667,57.5146642 112.73,58 L111.624,57.734 C111.866668,56.9779962 112.239997,56.404002 112.744,56.012 C113.248003,55.619998 113.910663,55.424 114.732,55.424 C115.124002,55.424 115.494998,55.4799994 115.845,55.592 C116.195002,55.7040006 116.500665,55.8719989 116.762,56.096 C117.023335,56.3200011 117.228666,56.6023316 117.378,56.943 C117.527334,57.2836684 117.602,57.6826644 117.602,58.14 C117.602,58.7560031 117.450335,59.3509971 117.147,59.925 C116.843665,60.4990029 116.468002,61.0403308 116.02,61.549 C115.571998,62.0576692 115.086669,62.5243312 114.564,62.949 C114.041331,63.3736688 113.560669,63.7353318 113.122,64.034 L117.854,64.034 L117.854,65 L111.554,65 L111.554,64.146 Z M122.67,64.216 C123.099335,64.216 123.451665,64.0830013 123.727,63.817 C124.002335,63.5509987 124.216999,63.2196686 124.371,62.823 C124.525001,62.4263314 124.632333,62.0016689 124.693,61.549 C124.753667,61.0963311 124.784,60.6833352 124.784,60.31 C124.784,59.9459982 124.753667,59.5353356 124.693,59.078 C124.632333,58.6206644 124.525001,58.1936687 124.371,57.797 C124.216999,57.4003313 124.002335,57.066668 123.727,56.796 C123.451665,56.525332 123.099335,56.39 122.67,56.39 C122.249998,56.39 121.904668,56.5183321 121.634,56.775 C121.363332,57.0316679 121.146334,57.3489981 120.983,57.727 C120.819666,58.1050019 120.707667,58.5133311 120.647,58.952 C120.586333,59.3906689 120.556,59.7966648 120.556,60.17 C120.556,60.5526686 120.581666,60.977331 120.633,61.444 C120.684334,61.910669 120.786999,62.3493313 120.941,62.76 C121.095001,63.1706687 121.309665,63.5159986 121.585,63.796 C121.860335,64.0760014 122.221998,64.216 122.67,64.216 Z M122.67,65.21 C122.053997,65.2006666 121.526669,65.0466682 121.088,64.748 C120.649331,64.4493318 120.294668,64.066669 120.024,63.6 C119.753332,63.133331 119.555001,62.6106696 119.429,62.032 C119.302999,61.4533304 119.24,60.8793362 119.24,60.31 C119.24,59.7406638 119.302999,59.1643362 119.429,58.581 C119.555001,57.9976637 119.755665,57.472669 120.031,57.006 C120.306335,56.539331 120.663331,56.1566682 121.102,55.858 C121.540669,55.5593318 122.07733,55.41 122.712,55.41 C123.337336,55.41 123.866998,55.5593318 124.301,55.858 C124.735002,56.1566682 125.084999,56.539331 125.351,57.006 C125.617001,57.472669 125.808333,57.9953304 125.925,58.574 C126.041667,59.1526696 126.1,59.7266638 126.1,60.296 C126.1,60.8560028 126.041667,61.4253304 125.925,62.004 C125.808333,62.5826696 125.617001,63.1076643 125.351,63.579 C125.084999,64.0503357 124.732669,64.4376651 124.294,64.741 C123.855331,65.0443349 123.314003,65.2006666 122.67,65.21 Z M130.65,64.216 C131.079335,64.216 131.431665,64.0830013 131.707,63.817 C131.982335,63.5509987 132.196999,63.2196686 132.351,62.823 C132.505001,62.4263314 132.612333,62.0016689 132.673,61.549 C132.733667,61.0963311 132.764,60.6833352 132.764,60.31 C132.764,59.9459982 132.733667,59.5353356 132.673,59.078 C132.612333,58.6206644 132.505001,58.1936687 132.351,57.797 C132.196999,57.4003313 131.982335,57.066668 131.707,56.796 C131.431665,56.525332 131.079335,56.39 130.65,56.39 C130.229998,56.39 129.884668,56.5183321 129.614,56.775 C129.343332,57.0316679 129.126334,57.3489981 128.963,57.727 C128.799666,58.1050019 128.687667,58.5133311 128.627,58.952 C128.566333,59.3906689 128.536,59.7966648 128.536,60.17 C128.536,60.5526686 128.561666,60.977331 128.613,61.444 C128.664334,61.910669 128.766999,62.3493313 128.921,62.76 C129.075001,63.1706687 129.289665,63.5159986 129.565,63.796 C129.840335,64.0760014 130.201998,64.216 130.65,64.216 Z M130.65,65.21 C130.033997,65.2006666 129.506669,65.0466682 129.068,64.748 C128.629331,64.4493318 128.274668,64.066669 128.004,63.6 C127.733332,63.133331 127.535001,62.6106696 127.409,62.032 C127.282999,61.4533304 127.22,60.8793362 127.22,60.31 C127.22,59.7406638 127.282999,59.1643362 127.409,58.581 C127.535001,57.9976637 127.735665,57.472669 128.011,57.006 C128.286335,56.539331 128.643331,56.1566682 129.082,55.858 C129.520669,55.5593318 130.05733,55.41 130.692,55.41 C131.317336,55.41 131.846998,55.5593318 132.281,55.858 C132.715002,56.1566682 133.064999,56.539331 133.331,57.006 C133.597001,57.472669 133.788333,57.9953304 133.905,58.574 C134.021667,59.1526696 134.08,59.7266638 134.08,60.296 C134.08,60.8560028 134.021667,61.4253304 133.905,62.004 C133.788333,62.5826696 133.597001,63.1076643 133.331,63.579 C133.064999,64.0503357 132.712669,64.4376651 132.274,64.741 C131.835331,65.0443349 131.294003,65.2006666 130.65,65.21 Z M144.454,63.488 C144.173999,64.0480028 143.798336,64.4749985 143.327,64.769 C142.855664,65.0630015 142.284003,65.21 141.612,65.21 C141.061331,65.21 140.583002,65.1143343 140.177,64.923 C139.770998,64.7316657 139.435001,64.4726683 139.169,64.146 C138.902999,63.8193317 138.707001,63.4343356 138.581,62.991 C138.454999,62.5476644 138.392,62.0740025 138.392,61.57 C138.392,61.0566641 138.459666,60.5783356 138.595,60.135 C138.730334,59.6916644 138.930999,59.3066683 139.197,58.98 C139.463001,58.6533317 139.796665,58.3943343 140.198,58.203 C140.599335,58.0116657 141.070664,57.916 141.612,57.916 C142.293337,57.916 142.860331,58.0676652 143.313,58.371 C143.765669,58.6743348 144.131999,59.1013306 144.412,59.652 L143.432,60.114 C143.077332,59.255329 142.480004,58.826 141.64,58.826 C141.285332,58.826 140.979668,58.8959993 140.723,59.036 C140.466332,59.1760007 140.256334,59.3673321 140.093,59.61 C139.929666,59.8526679 139.808334,60.1349984 139.729,60.457 C139.649666,60.7790016 139.61,61.1266648 139.61,61.5 C139.61,61.8546684 139.647333,62.1999983 139.722,62.536 C139.796667,62.8720017 139.917999,63.1706654 140.086,63.432 C140.254001,63.6933346 140.468665,63.9033325 140.73,64.062 C140.991335,64.2206675 141.313331,64.3 141.696,64.3 C142.181336,64.3 142.573332,64.1763346 142.872,63.929 C143.170668,63.6816654 143.399333,63.362002 143.558,62.97 L144.454,63.488 Z M145.742,55.116 L146.904,55.116 L146.904,59.47 C146.988,59.2646656 147.095333,59.0686676 147.226,58.882 C147.356667,58.6953324 147.515332,58.5296674 147.702,58.385 C147.888668,58.2403326 148.103332,58.1260004 148.346,58.042 C148.588668,57.9579996 148.859332,57.916 149.158,57.916 C149.87667,57.916 150.406332,58.1516643 150.747,58.623 C151.087668,59.0943357 151.258,59.7313293 151.258,60.534 L151.258,65 L150.096,65 L150.096,60.716 C150.096,60.1279971 149.974668,59.6870015 149.732,59.393 C149.489332,59.0989985 149.144002,58.952 148.696,58.952 C148.434665,58.952 148.194334,59.0079994 147.975,59.12 C147.755666,59.2320006 147.566667,59.3906656 147.408,59.596 C147.249333,59.8013344 147.125667,60.0486652 147.037,60.338 C146.948333,60.6273348 146.904,60.9446649 146.904,61.29 L146.904,65 L145.742,65 L145.742,55.116 Z M157.348,65 C157.245333,64.6639983 157.184667,64.262669 157.166,63.796 C156.979332,64.2253355 156.692335,64.568332 156.305,64.825 C155.917665,65.081668 155.458003,65.21 154.926,65.21 C154.253997,65.21 153.722002,65.0186686 153.33,64.636 C152.937998,64.2533314 152.742,63.7400032 152.742,63.096 C152.742,62.7319982 152.807333,62.4263346 152.938,62.179 C153.068667,61.9316654 153.250665,61.7263341 153.484,61.563 C153.717334,61.3996659 153.992665,61.2713338 154.31,61.178 C154.627335,61.0846662 154.972665,61.0100003 155.346,60.954 L157.11,60.688 L157.11,60.254 C157.11,59.9459985 157.072667,59.6986676 156.998,59.512 C156.923333,59.3253324 156.820667,59.1806672 156.69,59.078 C156.559333,58.9753328 156.410001,58.9076668 156.242,58.875 C156.073999,58.8423332 155.896668,58.826 155.71,58.826 C155.177997,58.826 154.739335,58.923999 154.394,59.12 C154.048665,59.316001 153.759335,59.5633318 153.526,59.862 L152.924,59.106 C153.194668,58.7793317 153.570331,58.4993345 154.051,58.266 C154.531669,58.0326655 155.126663,57.916 155.836,57.916 C156.694671,57.916 157.317665,58.1073314 157.705,58.49 C158.092335,58.8726686 158.286,59.4886624 158.286,60.338 L158.286,63.124 C158.286,63.3480011 158.288333,63.5439992 158.293,63.712 C158.297667,63.8800008 158.307,64.0363326 158.321,64.181 C158.335,64.3256674 158.356,64.4633327 158.384,64.594 C158.412,64.7246673 158.449333,64.8599993 158.496,65 L157.348,65 Z M157.11,61.458 L155.458,61.724 C154.888664,61.8266672 154.485001,61.9806656 154.247,62.186 C154.008999,62.3913344 153.89,62.6759982 153.89,63.04 C153.89,63.4133352 153.999666,63.7259987 154.219,63.978 C154.438334,64.2300013 154.762665,64.356 155.192,64.356 C155.453335,64.356 155.700666,64.3046672 155.934,64.202 C156.167335,64.0993328 156.370332,63.9570009 156.543,63.775 C156.715668,63.5929991 156.853333,63.373668 156.956,63.117 C157.058667,62.860332 157.11,62.5780015 157.11,62.27 L157.11,61.458 Z M160.148,58.112 L161.156,58.112 L161.268,59.652 C161.464001,59.1479975 161.776665,58.7326683 162.206,58.406 C162.635335,58.0793317 163.143997,57.916 163.732,57.916 L163.732,59.148 C163.601333,59.1199999 163.456667,59.106 163.298,59.106 C163.064665,59.106 162.831335,59.1479996 162.598,59.232 C162.364666,59.3160004 162.152334,59.4513324 161.961,59.638 C161.769666,59.8246676 161.613334,60.0649985 161.492,60.359 C161.370666,60.6530015 161.31,61.0099979 161.31,61.43 L161.31,65 L160.148,65 L160.148,58.112 Z M169.206,65 C169.103333,64.6639983 169.042667,64.262669 169.024,63.796 C168.837332,64.2253355 168.550335,64.568332 168.163,64.825 C167.775665,65.081668 167.316003,65.21 166.784,65.21 C166.111997,65.21 165.580002,65.0186686 165.188,64.636 C164.795998,64.2533314 164.6,63.7400032 164.6,63.096 C164.6,62.7319982 164.665333,62.4263346 164.796,62.179 C164.926667,61.9316654 165.108666,61.7263341 165.342,61.563 C165.575334,61.3996659 165.850665,61.2713338 166.168,61.178 C166.485335,61.0846662 166.830665,61.0100003 167.204,60.954 L168.968,60.688 L168.968,60.254 C168.968,59.9459985 168.930667,59.6986676 168.856,59.512 C168.781333,59.3253324 168.678667,59.1806672 168.548,59.078 C168.417333,58.9753328 168.268001,58.9076668 168.1,58.875 C167.931999,58.8423332 167.754668,58.826 167.568,58.826 C167.035997,58.826 166.597335,58.923999 166.252,59.12 C165.906665,59.316001 165.617335,59.5633318 165.384,59.862 L164.782,59.106 C165.052668,58.7793317 165.428331,58.4993345 165.909,58.266 C166.389669,58.0326655 166.984663,57.916 167.694,57.916 C168.552671,57.916 169.175665,58.1073314 169.563,58.49 C169.950335,58.8726686 170.144,59.4886624 170.144,60.338 L170.144,63.124 C170.144,63.3480011 170.146333,63.5439992 170.151,63.712 C170.155667,63.8800008 170.165,64.0363326 170.179,64.181 C170.193,64.3256674 170.214,64.4633327 170.242,64.594 C170.27,64.7246673 170.307333,64.8599993 170.354,65 L169.206,65 Z M168.968,61.458 L167.316,61.724 C166.746664,61.8266672 166.343001,61.9806656 166.105,62.186 C165.866999,62.3913344 165.748,62.6759982 165.748,63.04 C165.748,63.4133352 165.857666,63.7259987 166.077,63.978 C166.296334,64.2300013 166.620665,64.356 167.05,64.356 C167.311335,64.356 167.558666,64.3046672 167.792,64.202 C168.025334,64.0993328 168.228332,63.9570009 168.401,63.775 C168.573668,63.5929991 168.711333,63.373668 168.814,63.117 C168.916667,62.860332 168.968,62.5780015 168.968,62.27 L168.968,61.458 Z M177.76,63.488 C177.479999,64.0480028 177.104336,64.4749985 176.633,64.769 C176.161664,65.0630015 175.590003,65.21 174.918,65.21 C174.367331,65.21 173.889002,65.1143343 173.483,64.923 C173.076998,64.7316657 172.741001,64.4726683 172.475,64.146 C172.208999,63.8193317 172.013001,63.4343356 171.887,62.991 C171.760999,62.5476644 171.698,62.0740025 171.698,61.57 C171.698,61.0566641 171.765666,60.5783356 171.901,60.135 C172.036334,59.6916644 172.236999,59.3066683 172.503,58.98 C172.769001,58.6533317 173.102665,58.3943343 173.504,58.203 C173.905335,58.0116657 174.376664,57.916 174.918,57.916 C175.599337,57.916 176.166331,58.0676652 176.619,58.371 C177.071669,58.6743348 177.437999,59.1013306 177.718,59.652 L176.738,60.114 C176.383332,59.255329 175.786004,58.826 174.946,58.826 C174.591332,58.826 174.285668,58.8959993 174.029,59.036 C173.772332,59.1760007 173.562334,59.3673321 173.399,59.61 C173.235666,59.8526679 173.114334,60.1349984 173.035,60.457 C172.955666,60.7790016 172.916,61.1266648 172.916,61.5 C172.916,61.8546684 172.953333,62.1999983 173.028,62.536 C173.102667,62.8720017 173.223999,63.1706654 173.392,63.432 C173.560001,63.6933346 173.774665,63.9033325 174.036,64.062 C174.297335,64.2206675 174.619331,64.3 175.002,64.3 C175.487336,64.3 175.879332,64.1763346 176.178,63.929 C176.476668,63.6816654 176.705333,63.362002 176.864,62.97 L177.76,63.488 Z M179.65,58.91 L178.474,58.91 L178.474,58.112 L178.726,58.112 C179.015335,58.112 179.241666,58.081667 179.405,58.021 C179.568334,57.960333 179.692,57.8670006 179.776,57.741 C179.86,57.6149994 179.920666,57.4493344 179.958,57.244 C179.995334,57.0386656 180.028,56.7866682 180.056,56.488 L180.084,56.236 L180.812,56.236 L180.812,58.112 L182.296,58.112 L182.296,58.91 L180.812,58.91 L180.812,63.194 C180.812,63.586002 180.870333,63.8683325 180.987,64.041 C181.103667,64.2136675 181.320665,64.3 181.638,64.3 C181.890001,64.3 182.123332,64.2440006 182.338,64.132 L182.464,64.972 C182.109332,65.1306675 181.717335,65.21 181.288,65.21 C180.951998,65.21 180.679001,65.1633338 180.469,65.07 C180.258999,64.9766662 180.093334,64.8506675 179.972,64.692 C179.850666,64.5333325 179.766667,64.3420011 179.72,64.118 C179.673333,63.8939989 179.65,63.6513346 179.65,63.39 L179.65,58.91 Z M184.578,61.822 C184.624667,62.6153373 184.827665,63.2289978 185.187,63.663 C185.546335,64.0970022 186.047997,64.314 186.692,64.314 C187.504004,64.314 188.115331,63.9313372 188.526,63.166 L189.408,63.656 C189.137332,64.1133356 188.778002,64.4866652 188.33,64.776 C187.881998,65.0653348 187.317337,65.21 186.636,65.21 C186.094664,65.21 185.621002,65.1166676 185.215,64.93 C184.808998,64.7433324 184.470668,64.4866683 184.2,64.16 C183.929332,63.8333317 183.726334,63.4506689 183.591,63.012 C183.455666,62.5733311 183.388,62.1020025 183.388,61.598 C183.388,61.1033309 183.453333,60.6320022 183.584,60.184 C183.714667,59.7359978 183.912999,59.3440017 184.179,59.008 C184.445001,58.6719983 184.771665,58.406001 185.159,58.21 C185.546335,58.013999 186.001331,57.916 186.524,57.916 C187.028003,57.916 187.466665,58.0116657 187.84,58.203 C188.213335,58.3943343 188.523665,58.6509984 188.771,58.973 C189.018335,59.2950016 189.204999,59.6683312 189.331,60.093 C189.457001,60.5176688 189.52,60.9679976 189.52,61.444 C189.52,61.5466672 189.517667,61.6259997 189.513,61.682 C189.508333,61.7380003 189.506,61.7846665 189.506,61.822 L184.578,61.822 Z M186.51,58.798 C185.921997,58.798 185.467002,59.0079979 185.145,59.428 C184.822998,59.8480021 184.638667,60.4126631 184.592,61.122 L188.33,61.122 C188.33,60.8326652 188.297334,60.5503347 188.232,60.275 C188.166666,59.9996653 188.059334,59.7523344 187.91,59.533 C187.760666,59.3136656 187.571668,59.136334 187.343,59.001 C187.114332,58.865666 186.836668,58.798 186.51,58.798 Z M190.934,58.112 L191.942,58.112 L192.054,59.652 C192.250001,59.1479975 192.562665,58.7326683 192.992,58.406 C193.421335,58.0793317 193.929997,57.916 194.518,57.916 L194.518,59.148 C194.387333,59.1199999 194.242667,59.106 194.084,59.106 C193.850666,59.106 193.617335,59.1479996 193.384,59.232 C193.150666,59.3160004 192.938334,59.4513324 192.747,59.638 C192.555666,59.8246676 192.399334,60.0649985 192.278,60.359 C192.156666,60.6530015 192.096,61.0099979 192.096,61.43 L192.096,65 L190.934,65 L190.934,58.112 Z M195.792,63.306 C196.025334,63.6046682 196.326331,63.851999 196.695,64.048 C197.063669,64.244001 197.467331,64.342 197.906,64.342 C198.298002,64.342 198.638665,64.2486676 198.928,64.062 C199.217335,63.8753324 199.362,63.5953352 199.362,63.222 C199.362,62.9326652 199.266334,62.7063341 199.075,62.543 C198.883666,62.3796659 198.645668,62.2420006 198.361,62.13 C198.076332,62.0179994 197.766002,61.9153338 197.43,61.822 C197.093998,61.7286662 196.783668,61.6073341 196.499,61.458 C196.214332,61.3086659 195.976334,61.1126679 195.785,60.87 C195.593666,60.6273321 195.498,60.2960021 195.498,59.876 C195.498,59.5306649 195.567999,59.2343346 195.708,58.987 C195.848001,58.7396654 196.032332,58.5366675 196.261,58.378 C196.489668,58.2193325 196.753332,58.102667 197.052,58.028 C197.350668,57.953333 197.663332,57.916 197.99,57.916 C198.960672,57.916 199.767997,58.1959972 200.412,58.756 L199.824,59.54 C199.618666,59.3253323 199.345668,59.1456674 199.005,59.001 C198.664332,58.8563326 198.312002,58.784 197.948,58.784 C197.789333,58.784 197.633001,58.8026665 197.479,58.84 C197.324999,58.8773335 197.189667,58.9356663 197.073,59.015 C196.956333,59.0943337 196.863,59.1946661 196.793,59.316 C196.723,59.4373339 196.688,59.5866658 196.688,59.764 C196.688,60.034668 196.783666,60.2446659 196.975,60.394 C197.166334,60.5433341 197.404332,60.6716661 197.689,60.779 C197.973668,60.8863339 198.281665,60.9889995 198.613,61.087 C198.944335,61.1850005 199.252332,61.3109992 199.537,61.465 C199.821668,61.6190008 200.059666,61.8219987 200.251,62.074 C200.442334,62.3260013 200.538,62.6619979 200.538,63.082 C200.538,63.4366684 200.465667,63.7469987 200.321,64.013 C200.176333,64.2790013 199.985001,64.5006658 199.747,64.678 C199.508999,64.8553342 199.233668,64.9883329 198.921,65.077 C198.608332,65.1656671 198.284002,65.21 197.948,65.21 C196.790661,65.21 195.871337,64.8366704 195.19,64.09 L195.792,63.306 Z" id="10/200-characters" fill="#5D9834"></path>
                <g id="Group-2">
                    <path d="M3.234,1.096 L0.308,1.096 L0.308,0.116 L7.406,0.116 L7.406,1.096 L4.494,1.096 L4.494,10 L3.234,10 L3.234,1.096 Z M8.652,6.822 C8.6986669,7.6153373 8.90166487,8.22899783 9.261,8.663 C9.62033513,9.09700217 10.1219968,9.314 10.766,9.314 C11.5780041,9.314 12.1893313,8.93133716 12.6,8.166 L13.482,8.656 C13.211332,9.11333562 12.8520022,9.48666522 12.404,9.776 C11.9559978,10.0653348 11.3913367,10.21 10.71,10.21 C10.168664,10.21 9.69500203,10.1166676 9.289,9.93 C8.88299797,9.7433324 8.54466802,9.4866683 8.274,9.16 C8.00333198,8.8333317 7.80033401,8.45066886 7.665,8.012 C7.52966599,7.57333114 7.462,7.10200252 7.462,6.598 C7.462,6.10333086 7.52733268,5.63200224 7.658,5.184 C7.78866732,4.73599776 7.98699867,4.34400168 8.253,4.008 C8.51900133,3.67199832 8.84566473,3.40600098 9.233,3.21 C9.62033527,3.01399902 10.0753307,2.916 10.598,2.916 C11.1020025,2.916 11.5406648,3.01166571 11.914,3.203 C12.2873352,3.39433429 12.5976654,3.65099839 12.845,3.973 C13.0923346,4.29500161 13.2789994,4.66833121 13.405,5.093 C13.5310006,5.51766879 13.594,5.96799762 13.594,6.444 C13.594,6.54666718 13.5916667,6.62599972 13.587,6.682 C13.5823333,6.73800028 13.58,6.78466648 13.58,6.822 L8.652,6.822 Z M10.584,3.798 C9.99599706,3.798 9.54100161,4.0079979 9.219,4.428 C8.89699839,4.8480021 8.7126669,5.41266312 8.666,6.122 L12.404,6.122 C12.404,5.83266522 12.3713337,5.55033471 12.306,5.275 C12.2406663,4.99966529 12.1333341,4.75233443 11.984,4.533 C11.8346659,4.31366557 11.6456678,4.13633401 11.417,4.001 C11.1883322,3.86566599 10.9106683,3.798 10.584,3.798 Z M16.38,6.402 L14.322,3.112 L15.61,3.112 L17.206,5.73 L18.802,3.112 L20.076,3.112 L18.004,6.402 L20.342,10 L18.984,10 L17.206,7.088 L15.4,10 L14.056,10 L16.38,6.402 Z M22.176,3.91 L21,3.91 L21,3.112 L21.252,3.112 C21.5413348,3.112 21.7676659,3.08166697 21.931,3.021 C22.0943342,2.96033303 22.2179996,2.86700063 22.302,2.741 C22.3860004,2.61499937 22.4466665,2.44933436 22.484,2.244 C22.5213335,2.03866564 22.5539999,1.78666816 22.582,1.488 L22.61,1.236 L23.338,1.236 L23.338,3.112 L24.822,3.112 L24.822,3.91 L23.338,3.91 L23.338,8.194 C23.338,8.58600196 23.3963327,8.86833247 23.513,9.041 C23.6296673,9.21366753 23.8466651,9.3 24.164,9.3 C24.4160013,9.3 24.6493323,9.24400056 24.864,9.132 L24.99,9.972 C24.6353316,10.1306675 24.2433355,10.21 23.814,10.21 C23.4779983,10.21 23.205001,10.1633338 22.995,10.07 C22.784999,9.9766662 22.6193339,9.85066746 22.498,9.692 C22.3766661,9.53333254 22.2926669,9.34200112 22.246,9.118 C22.1993331,8.89399888 22.176,8.65133464 22.176,8.39 L22.176,3.91 Z M30.548,10 C30.4453328,9.66399832 30.3846668,9.262669 30.366,8.796 C30.1793324,9.22533548 29.8923353,9.56833205 29.505,9.825 C29.1176647,10.0816679 28.6580027,10.21 28.126,10.21 C27.4539966,10.21 26.922002,10.0186686 26.53,9.636 C26.137998,9.25333142 25.942,8.74000322 25.942,8.096 C25.942,7.73199818 26.0073327,7.42633457 26.138,7.179 C26.2686673,6.93166543 26.4506655,6.72633415 26.684,6.563 C26.9173345,6.39966585 27.1926651,6.2713338 27.51,6.178 C27.8273349,6.0846662 28.1726648,6.01000028 28.546,5.954 L30.31,5.688 L30.31,5.254 C30.31,4.94599846 30.272667,4.6986676 30.198,4.512 C30.123333,4.3253324 30.0206673,4.18066718 29.89,4.078 C29.7593327,3.97533282 29.6100008,3.90766683 29.442,3.875 C29.2739992,3.84233317 29.0966676,3.826 28.91,3.826 C28.3779973,3.826 27.9393351,3.92399902 27.594,4.12 C27.2486649,4.31600098 26.9593345,4.56333184 26.726,4.862 L26.124,4.106 C26.394668,3.7793317 26.7703309,3.4993345 27.251,3.266 C27.7316691,3.0326655 28.3266631,2.916 29.036,2.916 C29.894671,2.916 30.5176647,3.10733142 30.905,3.49 C31.2923353,3.87266858 31.486,4.48866242 31.486,5.338 L31.486,8.124 C31.486,8.34800112 31.4883333,8.54399916 31.493,8.712 C31.4976667,8.88000084 31.5069999,9.03633261 31.521,9.181 C31.5350001,9.32566739 31.5559999,9.46333268 31.584,9.594 C31.6120001,9.72466732 31.6493331,9.8599993 31.696,10 L30.548,10 Z M30.31,6.458 L28.658,6.724 C28.0886638,6.82666718 27.6850012,6.98066564 27.447,7.186 C27.2089988,7.39133436 27.09,7.67599818 27.09,8.04 C27.09,8.4133352 27.1996656,8.72599874 27.419,8.978 C27.6383344,9.23000126 27.9626645,9.356 28.392,9.356 C28.6533346,9.356 28.9006655,9.30466718 29.134,9.202 C29.3673345,9.09933282 29.5703325,8.95700091 29.743,8.775 C29.9156675,8.59299909 30.0533328,8.37366795 30.156,8.117 C30.2586672,7.86033205 30.31,7.57800154 30.31,7.27 L30.31,6.458 Z M33.348,3.112 L34.356,3.112 L34.468,4.652 C34.664001,4.14799748 34.9766645,3.7326683 35.406,3.406 C35.8353355,3.0793317 36.3439971,2.916 36.932,2.916 L36.932,4.148 C36.8013327,4.11999986 36.6566675,4.106 36.498,4.106 C36.2646655,4.106 36.0313345,4.14799958 35.798,4.232 C35.5646655,4.31600042 35.3523343,4.4513324 35.161,4.638 C34.9696657,4.8246676 34.8133339,5.06499853 34.692,5.359 C34.5706661,5.65300147 34.51,6.0099979 34.51,6.43 L34.51,10 L33.348,10 L33.348,3.112 Z M38.962,6.822 C39.0086669,7.6153373 39.2116649,8.22899783 39.571,8.663 C39.9303351,9.09700217 40.4319968,9.314 41.076,9.314 C41.8880041,9.314 42.4993313,8.93133716 42.91,8.166 L43.792,8.656 C43.521332,9.11333562 43.1620022,9.48666522 42.714,9.776 C42.2659978,10.0653348 41.7013367,10.21 41.02,10.21 C40.478664,10.21 40.005002,10.1166676 39.599,9.93 C39.192998,9.7433324 38.854668,9.4866683 38.584,9.16 C38.313332,8.8333317 38.110334,8.45066886 37.975,8.012 C37.839666,7.57333114 37.772,7.10200252 37.772,6.598 C37.772,6.10333086 37.8373327,5.63200224 37.968,5.184 C38.0986673,4.73599776 38.2969987,4.34400168 38.563,4.008 C38.8290013,3.67199832 39.1556647,3.40600098 39.543,3.21 C39.9303353,3.01399902 40.3853307,2.916 40.908,2.916 C41.4120025,2.916 41.8506648,3.01166571 42.224,3.203 C42.5973352,3.39433429 42.9076654,3.65099839 43.155,3.973 C43.4023346,4.29500161 43.5889994,4.66833121 43.715,5.093 C43.8410006,5.51766879 43.904,5.96799762 43.904,6.444 C43.904,6.54666718 43.9016667,6.62599972 43.897,6.682 C43.8923333,6.73800028 43.89,6.78466648 43.89,6.822 L38.962,6.822 Z M40.894,3.798 C40.3059971,3.798 39.8510016,4.0079979 39.529,4.428 C39.2069984,4.8480021 39.0226669,5.41266312 38.976,6.122 L42.714,6.122 C42.714,5.83266522 42.6813337,5.55033471 42.616,5.275 C42.5506663,4.99966529 42.4433341,4.75233443 42.294,4.533 C42.1446659,4.31366557 41.9556678,4.13633401 41.727,4.001 C41.4983322,3.86566599 41.2206683,3.798 40.894,3.798 Z M49.644,10 C49.5413328,9.66399832 49.4806668,9.262669 49.462,8.796 C49.2753324,9.22533548 48.9883353,9.56833205 48.601,9.825 C48.2136647,10.0816679 47.7540027,10.21 47.222,10.21 C46.5499966,10.21 46.018002,10.0186686 45.626,9.636 C45.233998,9.25333142 45.038,8.74000322 45.038,8.096 C45.038,7.73199818 45.1033327,7.42633457 45.234,7.179 C45.3646673,6.93166543 45.5466655,6.72633415 45.78,6.563 C46.0133345,6.39966585 46.2886651,6.2713338 46.606,6.178 C46.9233349,6.0846662 47.2686648,6.01000028 47.642,5.954 L49.406,5.688 L49.406,5.254 C49.406,4.94599846 49.368667,4.6986676 49.294,4.512 C49.219333,4.3253324 49.1166673,4.18066718 48.986,4.078 C48.8553327,3.97533282 48.7060008,3.90766683 48.538,3.875 C48.3699992,3.84233317 48.1926676,3.826 48.006,3.826 C47.4739973,3.826 47.0353351,3.92399902 46.69,4.12 C46.3446649,4.31600098 46.0553345,4.56333184 45.822,4.862 L45.22,4.106 C45.490668,3.7793317 45.8663309,3.4993345 46.347,3.266 C46.8276691,3.0326655 47.4226631,2.916 48.132,2.916 C48.990671,2.916 49.6136647,3.10733142 50.001,3.49 C50.3883353,3.87266858 50.582,4.48866242 50.582,5.338 L50.582,8.124 C50.582,8.34800112 50.5843333,8.54399916 50.589,8.712 C50.5936667,8.88000084 50.6029999,9.03633261 50.617,9.181 C50.6310001,9.32566739 50.6519999,9.46333268 50.68,9.594 C50.7080001,9.72466732 50.7453331,9.8599993 50.792,10 L49.644,10 Z M49.406,6.458 L47.754,6.724 C47.1846638,6.82666718 46.7810012,6.98066564 46.543,7.186 C46.3049988,7.39133436 46.186,7.67599818 46.186,8.04 C46.186,8.4133352 46.2956656,8.72599874 46.515,8.978 C46.7343344,9.23000126 47.0586645,9.356 47.488,9.356 C47.7493346,9.356 47.9966655,9.30466718 48.23,9.202 C48.4633345,9.09933282 48.6663325,8.95700091 48.839,8.775 C49.0116675,8.59299909 49.1493328,8.37366795 49.252,8.117 C49.3546672,7.86033205 49.406,7.57800154 49.406,7.27 L49.406,6.458 Z" id="Textarea" fill="#5D9834"></path>
                    <path d="M1,42 L199,42" id="Line" stroke="#5D9834" stroke-width="2" stroke-linecap="square"></path>
                    <path d="M192.464286,26.8392857 C192.464286,26.6726182 192.410715,26.5357148 192.303571,26.4285714 L191.491071,25.625 C191.377976,25.5119042 191.244048,25.4553571 191.089286,25.4553571 C190.934523,25.4553571 190.800596,25.5119042 190.6875,25.625 L187.044643,29.2589286 L185.026786,27.2410714 C184.91369,27.1279756 184.779763,27.0714286 184.625,27.0714286 C184.470237,27.0714286 184.33631,27.1279756 184.223214,27.2410714 L183.410714,28.0446429 C183.303571,28.1517863 183.25,28.2886896 183.25,28.4553571 C183.25,28.6160722 183.303571,28.7499995 183.410714,28.8571429 L186.642857,32.0892857 C186.755953,32.2023815 186.88988,32.2589286 187.044643,32.2589286 C187.205358,32.2589286 187.342261,32.2023815 187.455357,32.0892857 L192.303571,27.2410714 C192.410715,27.133928 192.464286,27.0000008 192.464286,26.8392857 Z M193.794643,24.8482143 C194.407741,25.8958386 194.714286,27.0416604 194.714286,28.2857143 C194.714286,29.5297681 194.407741,30.6770781 193.794643,31.7276786 C193.181545,32.7782791 192.349708,33.610116 191.299107,34.2232143 C190.248507,34.8363126 189.101197,35.1428571 187.857143,35.1428571 C186.613089,35.1428571 185.465779,34.8363126 184.415179,34.2232143 C183.364578,33.610116 182.532741,32.7782791 181.919643,31.7276786 C181.306545,30.6770781 181,29.5297681 181,28.2857143 C181,27.0416604 181.306545,25.8943505 181.919643,24.84375 C182.532741,23.7931495 183.364578,22.9613126 184.415179,22.3482143 C185.465779,21.735116 186.613089,21.4285714 187.857143,21.4285714 C189.101197,21.4285714 190.248507,21.735116 191.299107,22.3482143 C192.349708,22.9613126 193.181545,23.7946376 193.794643,24.8482143 Z" id="check-circle---FontAwesome" fill="#5D9834"></path>
                    <path d="M3.696,22.824 L0.352,22.824 L0.352,21.704 L8.464,21.704 L8.464,22.824 L5.136,22.824 L5.136,33 L3.696,33 L3.696,22.824 Z M9.84,21.704 L11.168,21.704 L11.168,26.68 C11.2640005,26.4453322 11.3866659,26.2213344 11.536,26.008 C11.6853341,25.7946656 11.8666656,25.6053342 12.08,25.44 C12.2933344,25.2746658 12.5386653,25.1440005 12.816,25.048 C13.0933347,24.9519995 13.402665,24.904 13.744,24.904 C14.5653374,24.904 15.1706647,25.1733306 15.56,25.712 C15.9493353,26.2506694 16.144,26.9786621 16.144,27.896 L16.144,33 L14.816,33 L14.816,28.104 C14.816,27.4319966 14.6773347,26.9280017 14.4,26.592 C14.1226653,26.2559983 13.7280026,26.088 13.216,26.088 C12.9173318,26.088 12.6426679,26.1519994 12.392,26.28 C12.1413321,26.4080006 11.9253342,26.5893322 11.744,26.824 C11.5626658,27.0586678 11.4213338,27.3413317 11.32,27.672 C11.2186662,28.0026683 11.168,28.3653314 11.168,28.76 L11.168,33 L9.84,33 L9.84,21.704 Z M18.16,22.072 L19.488,22.072 L19.488,23.4 L18.16,23.4 L18.16,22.072 Z M18.16,25.128 L19.488,25.128 L19.488,33 L18.16,33 L18.16,25.128 Z M21.68,31.064 C21.946668,31.405335 22.2906646,31.6879989 22.712,31.912 C23.1333354,32.1360011 23.5946642,32.248 24.096,32.248 C24.5440022,32.248 24.9333317,32.1413344 25.264,31.928 C25.5946683,31.7146656 25.76,31.3946688 25.76,30.968 C25.76,30.6373317 25.6506678,30.3786676 25.432,30.192 C25.2133322,30.0053324 24.941335,29.8480006 24.616,29.72 C24.290665,29.5919994 23.9360019,29.4746672 23.552,29.368 C23.1679981,29.2613328 22.813335,29.1226675 22.488,28.952 C22.162665,28.7813325 21.8906678,28.5573347 21.672,28.28 C21.4533322,28.0026653 21.344,27.6240024 21.344,27.144 C21.344,26.7493314 21.4239992,26.4106681 21.584,26.128 C21.7440008,25.8453319 21.9546654,25.6133342 22.216,25.432 C22.4773346,25.2506658 22.778665,25.1173338 23.12,25.032 C23.461335,24.9466662 23.8186648,24.904 24.192,24.904 C25.3013389,24.904 26.2239963,25.2239968 26.96,25.864 L26.288,26.76 C26.0533322,26.5146654 25.7413353,26.3093342 25.352,26.144 C24.9626647,25.9786658 24.5600021,25.896 24.144,25.896 C23.9626658,25.896 23.7840009,25.9173331 23.608,25.96 C23.4319991,26.0026669 23.277334,26.0693329 23.144,26.16 C23.010666,26.2506671 22.9040004,26.3653326 22.824,26.504 C22.7439996,26.6426674 22.704,26.8133323 22.704,27.016 C22.704,27.3253349 22.8133322,27.5653325 23.032,27.736 C23.2506678,27.9066675 23.522665,28.0533327 23.848,28.176 C24.173335,28.2986673 24.5253314,28.4159994 24.904,28.528 C25.2826686,28.6400006 25.634665,28.7839991 25.96,28.96 C26.285335,29.1360009 26.5573322,29.3679986 26.776,29.656 C26.9946678,29.9440014 27.104,30.3279976 27.104,30.808 C27.104,31.2133354 27.0213342,31.5679985 26.856,31.872 C26.6906658,32.1760015 26.4720014,32.4293323 26.2,32.632 C25.9279986,32.8346677 25.6133351,32.9866662 25.256,33.088 C24.8986649,33.1893338 24.5280019,33.24 24.144,33.24 C22.8213267,33.24 21.7706706,32.8133376 20.992,31.96 L21.68,31.064 Z M32.256,22.072 L33.584,22.072 L33.584,23.4 L32.256,23.4 L32.256,22.072 Z M32.256,25.128 L33.584,25.128 L33.584,33 L32.256,33 L32.256,25.128 Z M35.776,31.064 C36.042668,31.405335 36.3866646,31.6879989 36.808,31.912 C37.2293354,32.1360011 37.6906642,32.248 38.192,32.248 C38.6400022,32.248 39.0293317,32.1413344 39.36,31.928 C39.6906683,31.7146656 39.856,31.3946688 39.856,30.968 C39.856,30.6373317 39.7466678,30.3786676 39.528,30.192 C39.3093322,30.0053324 39.037335,29.8480006 38.712,29.72 C38.386665,29.5919994 38.0320019,29.4746672 37.648,29.368 C37.2639981,29.2613328 36.909335,29.1226675 36.584,28.952 C36.258665,28.7813325 35.9866678,28.5573347 35.768,28.28 C35.5493322,28.0026653 35.44,27.6240024 35.44,27.144 C35.44,26.7493314 35.5199992,26.4106681 35.68,26.128 C35.8400008,25.8453319 36.0506654,25.6133342 36.312,25.432 C36.5733346,25.2506658 36.874665,25.1173338 37.216,25.032 C37.557335,24.9466662 37.9146648,24.904 38.288,24.904 C39.3973389,24.904 40.3199963,25.2239968 41.056,25.864 L40.384,26.76 C40.1493322,26.5146654 39.8373353,26.3093342 39.448,26.144 C39.0586647,25.9786658 38.6560021,25.896 38.24,25.896 C38.0586658,25.896 37.8800009,25.9173331 37.704,25.96 C37.5279991,26.0026669 37.373334,26.0693329 37.24,26.16 C37.106666,26.2506671 37.0000004,26.3653326 36.92,26.504 C36.8399996,26.6426674 36.8,26.8133323 36.8,27.016 C36.8,27.3253349 36.9093322,27.5653325 37.128,27.736 C37.3466678,27.9066675 37.618665,28.0533327 37.944,28.176 C38.269335,28.2986673 38.6213314,28.4159994 39,28.528 C39.3786686,28.6400006 39.730665,28.7839991 40.056,28.96 C40.381335,29.1360009 40.6533322,29.3679986 40.872,29.656 C41.0906678,29.9440014 41.2,30.3279976 41.2,30.808 C41.2,31.2133354 41.1173342,31.5679985 40.952,31.872 C40.7866658,32.1760015 40.5680014,32.4293323 40.296,32.632 C40.0239986,32.8346677 39.7093351,32.9866662 39.352,33.088 C38.9946649,33.1893338 38.6240019,33.24 38.24,33.24 C36.9173267,33.24 35.8666706,32.8133376 35.088,31.96 L35.776,31.064 Z M46.496,31.064 C46.762668,31.405335 47.1066646,31.6879989 47.528,31.912 C47.9493354,32.1360011 48.4106642,32.248 48.912,32.248 C49.3600022,32.248 49.7493317,32.1413344 50.08,31.928 C50.4106683,31.7146656 50.576,31.3946688 50.576,30.968 C50.576,30.6373317 50.4666678,30.3786676 50.248,30.192 C50.0293322,30.0053324 49.757335,29.8480006 49.432,29.72 C49.106665,29.5919994 48.7520019,29.4746672 48.368,29.368 C47.9839981,29.2613328 47.629335,29.1226675 47.304,28.952 C46.978665,28.7813325 46.7066678,28.5573347 46.488,28.28 C46.2693322,28.0026653 46.16,27.6240024 46.16,27.144 C46.16,26.7493314 46.2399992,26.4106681 46.4,26.128 C46.5600008,25.8453319 46.7706654,25.6133342 47.032,25.432 C47.2933346,25.2506658 47.594665,25.1173338 47.936,25.032 C48.277335,24.9466662 48.6346648,24.904 49.008,24.904 C50.1173389,24.904 51.0399963,25.2239968 51.776,25.864 L51.104,26.76 C50.8693322,26.5146654 50.5573353,26.3093342 50.168,26.144 C49.7786647,25.9786658 49.3760021,25.896 48.96,25.896 C48.7786658,25.896 48.6000009,25.9173331 48.424,25.96 C48.2479991,26.0026669 48.093334,26.0693329 47.96,26.16 C47.826666,26.2506671 47.7200004,26.3653326 47.64,26.504 C47.5599996,26.6426674 47.52,26.8133323 47.52,27.016 C47.52,27.3253349 47.6293322,27.5653325 47.848,27.736 C48.0666678,27.9066675 48.338665,28.0533327 48.664,28.176 C48.989335,28.2986673 49.3413314,28.4159994 49.72,28.528 C50.0986686,28.6400006 50.450665,28.7839991 50.776,28.96 C51.101335,29.1360009 51.3733322,29.3679986 51.592,29.656 C51.8106678,29.9440014 51.92,30.3279976 51.92,30.808 C51.92,31.2133354 51.8373342,31.5679985 51.672,31.872 C51.5066658,32.1760015 51.2880014,32.4293323 51.016,32.632 C50.7439986,32.8346677 50.4293351,32.9866662 50.072,33.088 C49.7146649,33.1893338 49.3440019,33.24 48.96,33.24 C47.6373267,33.24 46.5866706,32.8133376 45.808,31.96 L46.496,31.064 Z M56.736,33.24 C56.1386637,33.24 55.6133356,33.1306678 55.16,32.912 C54.7066644,32.6933322 54.3280015,32.3946686 54.024,32.016 C53.7199985,31.6373314 53.4933341,31.1946692 53.344,30.688 C53.1946659,30.1813308 53.12,29.6346696 53.12,29.048 C53.12,28.4613304 53.1973326,27.9173358 53.352,27.416 C53.5066674,26.9146642 53.7359985,26.4773352 54.04,26.104 C54.3440015,25.7306648 54.7226644,25.4373344 55.176,25.224 C55.6293356,25.0106656 56.1493304,24.904 56.736,24.904 C57.3226696,24.904 57.8426644,25.0106656 58.296,25.224 C58.7493356,25.4373344 59.1306651,25.7279982 59.44,26.096 C59.7493349,26.4640018 59.9813326,26.9013308 60.136,27.408 C60.2906674,27.9146692 60.368,28.4613304 60.368,29.048 C60.368,29.6346696 60.2906674,30.1813308 60.136,30.688 C59.9813326,31.1946692 59.7493349,31.6373314 59.44,32.016 C59.1306651,32.3946686 58.7493356,32.6933322 58.296,32.912 C57.8426644,33.1306678 57.3226696,33.24 56.736,33.24 Z M56.768,32.2 C57.1306685,32.2 57.4506653,32.1200008 57.728,31.96 C58.0053347,31.7999992 58.2346658,31.5786681 58.416,31.296 C58.5973342,31.0133319 58.7359995,30.6800019 58.832,30.296 C58.9280005,29.9119981 58.976,29.4960022 58.976,29.048 C58.976,28.5999978 58.9280005,28.1866686 58.832,27.808 C58.7359995,27.4293314 58.592001,27.1013347 58.4,26.824 C58.207999,26.5466653 57.9733347,26.3306674 57.696,26.176 C57.4186653,26.0213326 57.0986685,25.944 56.736,25.944 C56.3626648,25.944 56.0373347,26.0213326 55.76,26.176 C55.4826653,26.3306674 55.2533342,26.5466653 55.072,26.824 C54.8906658,27.1013347 54.7520005,27.4293314 54.656,27.808 C54.5599995,28.1866686 54.512,28.5999978 54.512,29.048 C54.512,29.4960022 54.5599995,29.9119981 54.656,30.296 C54.7520005,30.6800019 54.8933324,31.0133319 55.08,31.296 C55.2666676,31.5786681 55.5013319,31.7999992 55.784,31.96 C56.0666681,32.1200008 56.3946648,32.2 56.768,32.2 Z M62.064,25.128 L63.216,25.128 L63.36,26.664 C63.552001,26.1199973 63.8506646,25.6906682 64.256,25.376 C64.6613354,25.0613318 65.1573304,24.904 65.744,24.904 C66.3626698,24.904 66.8479982,25.0799982 67.2,25.432 C67.5520018,25.7840018 67.7759995,26.2106642 67.872,26.712 C67.9680005,26.4666654 68.0879993,26.2346678 68.232,26.016 C68.3760007,25.7973322 68.5493323,25.6053342 68.752,25.44 C68.9546677,25.2746658 69.189332,25.1440005 69.456,25.048 C69.722668,24.9519995 70.026665,24.904 70.368,24.904 C70.8160022,24.904 71.1866652,24.9813326 71.48,25.136 C71.7733348,25.2906674 72.0079991,25.501332 72.184,25.768 C72.3600009,26.034668 72.485333,26.3466649 72.56,26.704 C72.634667,27.0613351 72.672,27.4373314 72.672,27.832 L72.672,33 L71.344,33 L71.344,28.168 C71.344,27.4639965 71.2186679,26.9386684 70.968,26.592 C70.7173321,26.2453316 70.3520024,26.072 69.872,26.072 C69.3493307,26.072 68.9120018,26.3039977 68.56,26.768 C68.2079982,27.2320023 68.032,27.8959957 68.032,28.76 L68.032,33 L66.704,33 L66.704,28.232 C66.704,27.4959963 66.5760013,26.9520018 66.32,26.6 C66.0639987,26.2479982 65.706669,26.072 65.248,26.072 C64.7359974,26.072 64.2986685,26.309331 63.936,26.784 C63.5733315,27.258669 63.392,27.9439955 63.392,28.84 L63.392,33 L62.064,33 L62.064,25.128 Z M75.696,29.368 C75.7493336,30.2746712 75.9813313,30.9759975 76.392,31.472 C76.8026687,31.9680025 77.3759963,32.216 78.112,32.216 C79.0400046,32.216 79.7386643,31.778671 80.208,30.904 L81.216,31.464 C80.9066651,31.9866693 80.4960026,32.4133317 79.984,32.744 C79.4719974,33.0746683 78.8266706,33.24 78.048,33.24 C77.4293302,33.24 76.8880023,33.1333344 76.424,32.92 C75.9599977,32.7066656 75.5733349,32.4133352 75.264,32.04 C74.9546651,31.6666648 74.7226674,31.2293358 74.568,30.728 C74.4133326,30.2266642 74.336,29.6880029 74.336,29.112 C74.336,28.5466638 74.4106659,28.0080026 74.56,27.496 C74.7093341,26.9839974 74.9359985,26.5360019 75.24,26.152 C75.5440015,25.7679981 75.9173311,25.4640011 76.36,25.24 C76.8026689,25.0159989 77.3226637,24.904 77.92,24.904 C78.4960029,24.904 78.9973312,25.0133322 79.424,25.232 C79.8506688,25.4506678 80.2053319,25.7439982 80.488,26.112 C80.7706681,26.4800018 80.9839993,26.9066642 81.128,27.392 C81.2720007,27.8773358 81.344,28.3919973 81.344,28.936 C81.344,29.0533339 81.3413334,29.1439997 81.336,29.208 C81.3306666,29.2720003 81.328,29.3253331 81.328,29.368 L75.696,29.368 Z M77.904,25.912 C77.2319966,25.912 76.7120018,26.1519976 76.344,26.632 C75.9759982,27.1120024 75.7653336,27.7573293 75.712,28.568 L79.984,28.568 C79.984,28.2373317 79.946667,27.9146682 79.872,27.6 C79.797333,27.2853318 79.6746675,27.0026679 79.504,26.752 C79.3333325,26.5013321 79.1173346,26.2986674 78.856,26.144 C78.5946654,25.9893326 78.2773352,25.912 77.904,25.912 Z M87.248,26.04 L85.904,26.04 L85.904,25.128 L86.192,25.128 C86.5226683,25.128 86.7813324,25.0933337 86.968,25.024 C87.1546676,24.9546663 87.2959995,24.8480007 87.392,24.704 C87.4880005,24.5599993 87.5573331,24.3706678 87.6,24.136 C87.6426669,23.9013322 87.6799998,23.613335 87.712,23.272 L87.744,22.984 L88.576,22.984 L88.576,25.128 L90.272,25.128 L90.272,26.04 L88.576,26.04 L88.576,30.936 C88.576,31.3840022 88.642666,31.7066657 88.776,31.904 C88.909334,32.1013343 89.1573315,32.2 89.52,32.2 C89.8080014,32.2 90.0746654,32.1360006 90.32,32.008 L90.464,32.968 C90.0586646,33.1493342 89.6106691,33.24 89.12,33.24 C88.7359981,33.24 88.4240012,33.1866672 88.184,33.08 C87.9439988,32.9733328 87.7546674,32.8293342 87.616,32.648 C87.4773326,32.4666658 87.3813336,32.2480013 87.328,31.992 C87.2746664,31.7359987 87.248,31.4586682 87.248,31.16 L87.248,26.04 Z M91.696,34.68 C91.8133339,34.7226669 91.9466659,34.7599998 92.096,34.792 C92.2453341,34.8240002 92.3999992,34.84 92.56,34.84 C92.7306675,34.84 92.8773327,34.8160002 93,34.768 C93.1226673,34.7199998 93.2346662,34.6320006 93.336,34.504 C93.4373338,34.3759994 93.5333329,34.2053344 93.624,33.992 C93.7146671,33.7786656 93.8133328,33.501335 93.92,33.16 L91.248,25.128 L92.688,25.128 L94.608,31.64 L96.512,25.128 L97.952,25.128 L95.536,32.376 C95.3333323,32.9946698 95.1493342,33.5226645 94.984,33.96 C94.8186658,34.3973355 94.6346677,34.7573319 94.432,35.04 C94.2293323,35.3226681 93.9813348,35.530666 93.688,35.664 C93.3946652,35.797334 93.018669,35.864 92.56,35.864 C92.3786658,35.864 92.184001,35.8560001 91.976,35.84 C91.767999,35.8239999 91.6053339,35.7946669 91.488,35.752 L91.696,34.68 Z M99.392,25.128 L100.72,25.128 L100.72,26.648 C100.816,26.4239989 100.938666,26.2053344 101.088,25.992 C101.237334,25.7786656 101.415999,25.5920008 101.624,25.432 C101.832001,25.2719992 102.074665,25.1440005 102.352,25.048 C102.629335,24.9519995 102.943998,24.904 103.296,24.904 C103.808003,24.904 104.253331,25.0106656 104.632,25.224 C105.010669,25.4373344 105.322665,25.7306648 105.568,26.104 C105.813335,26.4773352 105.997333,26.9119975 106.12,27.408 C106.242667,27.9040025 106.304,28.4399971 106.304,29.016 C106.304,29.6986701 106.224001,30.3013307 106.064,30.824 C105.903999,31.3466693 105.680001,31.7839982 105.392,32.136 C105.103999,32.4880018 104.768002,32.7546658 104.384,32.936 C103.999998,33.1173342 103.584002,33.208 103.136,33.208 C102.54933,33.208 102.045335,33.0640014 101.624,32.776 C101.202665,32.4879986 100.901334,32.1306688 100.72,31.704 L100.72,35.768 L99.392,35.768 L99.392,25.128 Z M100.72,29.112 C100.72,29.3360011 100.728,29.5413324 100.744,29.728 C100.76,29.9146676 100.778667,30.0719994 100.8,30.2 C100.842667,30.4560013 100.922666,30.7013322 101.04,30.936 C101.157334,31.1706678 101.301332,31.3759991 101.472,31.552 C101.642668,31.7280009 101.842666,31.8693328 102.072,31.976 C102.301334,32.0826672 102.554665,32.136 102.832,32.136 C103.194668,32.136 103.506665,32.0506675 103.768,31.88 C104.029335,31.7093325 104.245332,31.4800014 104.416,31.192 C104.586668,30.9039986 104.712,30.5760018 104.792,30.208 C104.872,29.8399982 104.912,29.4586686 104.912,29.064 C104.912,28.6693314 104.874667,28.2880018 104.8,27.92 C104.725333,27.5519982 104.605334,27.2266681 104.44,26.944 C104.274666,26.6613319 104.058668,26.4346675 103.792,26.264 C103.525332,26.0933325 103.205335,26.008 102.832,26.008 C102.543999,26.008 102.280001,26.0613328 102.04,26.168 C101.799999,26.2746672 101.594668,26.4186658 101.424,26.6 C101.253332,26.7813342 101.112001,26.9893322 101,27.224 C100.887999,27.4586678 100.816,27.7039987 100.784,27.96 C100.762667,28.0666672 100.746667,28.2133324 100.736,28.4 C100.725333,28.5866676 100.72,28.8026654 100.72,29.048 L100.72,29.112 Z M109.008,29.368 C109.061334,30.2746712 109.293331,30.9759975 109.704,31.472 C110.114669,31.9680025 110.687996,32.216 111.424,32.216 C112.352005,32.216 113.050664,31.778671 113.52,30.904 L114.528,31.464 C114.218665,31.9866693 113.808003,32.4133317 113.296,32.744 C112.783997,33.0746683 112.138671,33.24 111.36,33.24 C110.74133,33.24 110.200002,33.1333344 109.736,32.92 C109.271998,32.7066656 108.885335,32.4133352 108.576,32.04 C108.266665,31.6666648 108.034667,31.2293358 107.88,30.728 C107.725333,30.2266642 107.648,29.6880029 107.648,29.112 C107.648,28.5466638 107.722666,28.0080026 107.872,27.496 C108.021334,26.9839974 108.247998,26.5360019 108.552,26.152 C108.856002,25.7679981 109.229331,25.4640011 109.672,25.24 C110.114669,25.0159989 110.634664,24.904 111.232,24.904 C111.808003,24.904 112.309331,25.0133322 112.736,25.232 C113.162669,25.4506678 113.517332,25.7439982 113.8,26.112 C114.082668,26.4800018 114.295999,26.9066642 114.44,27.392 C114.584001,27.8773358 114.656,28.3919973 114.656,28.936 C114.656,29.0533339 114.653333,29.1439997 114.648,29.208 C114.642667,29.2720003 114.64,29.3253331 114.64,29.368 L109.008,29.368 Z M111.216,25.912 C110.543997,25.912 110.024002,26.1519976 109.656,26.632 C109.287998,27.1120024 109.077334,27.7573293 109.024,28.568 L113.296,28.568 C113.296,28.2373317 113.258667,27.9146682 113.184,27.6 C113.109333,27.2853318 112.986668,27.0026679 112.816,26.752 C112.645332,26.5013321 112.429335,26.2986674 112.168,26.144 C111.906665,25.9893326 111.589335,25.912 111.216,25.912 Z M121.568,31.464 C121.354666,31.997336 121.040002,32.4186651 120.624,32.728 C120.207998,33.0373349 119.69067,33.192 119.072,33.192 C118.581331,33.192 118.141335,33.0906677 117.752,32.888 C117.362665,32.6853323 117.032001,32.4026685 116.76,32.04 C116.487999,31.6773315 116.280001,31.2400026 116.136,30.728 C115.991999,30.2159974 115.92,29.6506698 115.92,29.032 C115.92,28.3919968 115.994666,27.8186692 116.144,27.312 C116.293334,26.8053308 116.506665,26.3760018 116.784,26.024 C117.061335,25.6719982 117.394665,25.400001 117.784,25.208 C118.173335,25.015999 118.602664,24.92 119.072,24.92 C119.712003,24.92 120.234665,25.0719985 120.64,25.376 C121.045335,25.6800015 121.333332,26.0453312 121.504,26.472 L121.504,21.704 L122.848,21.704 L122.848,33 L121.568,33 L121.568,31.464 Z M121.504,29.016 C121.504,28.6853317 121.496,28.4266676 121.48,28.24 C121.464,28.0533324 121.445333,27.9013339 121.424,27.784 C121.370666,27.5493322 121.290667,27.3253344 121.184,27.112 C121.077333,26.8986656 120.941334,26.7093342 120.776,26.544 C120.610666,26.3786658 120.416001,26.2480005 120.192,26.152 C119.967999,26.0559995 119.712001,26.008 119.424,26.008 C119.061332,26.008 118.749335,26.0879992 118.488,26.248 C118.226665,26.4080008 118.008001,26.6239986 117.832,26.896 C117.655999,27.1680014 117.525334,27.4879982 117.44,27.856 C117.354666,28.2240018 117.312,28.6159979 117.312,29.032 C117.312,29.4800022 117.36,29.8933314 117.456,30.272 C117.552,30.6506686 117.690666,30.9759986 117.872,31.248 C118.053334,31.5200014 118.277332,31.7333326 118.544,31.888 C118.810668,32.0426674 119.114665,32.12 119.456,32.12 C119.722668,32.12 119.965332,32.0720005 120.184,31.976 C120.402668,31.8799995 120.594666,31.7466675 120.76,31.576 C120.925334,31.4053325 121.061333,31.2106678 121.168,30.992 C121.274667,30.7733322 121.354666,30.5413346 121.408,30.296 C121.472,29.9973318 121.504,29.5973358 121.504,29.096 L121.504,29.016 Z M129.168,26.04 L127.824,26.04 L127.824,25.128 L128.112,25.128 C128.442668,25.128 128.701332,25.0933337 128.888,25.024 C129.074668,24.9546663 129.216,24.8480007 129.312,24.704 C129.408,24.5599993 129.477333,24.3706678 129.52,24.136 C129.562667,23.9013322 129.6,23.613335 129.632,23.272 L129.664,22.984 L130.496,22.984 L130.496,25.128 L132.192,25.128 L132.192,26.04 L130.496,26.04 L130.496,30.936 C130.496,31.3840022 130.562666,31.7066657 130.696,31.904 C130.829334,32.1013343 131.077332,32.2 131.44,32.2 C131.728001,32.2 131.994665,32.1360006 132.24,32.008 L132.384,32.968 C131.978665,33.1493342 131.530669,33.24 131.04,33.24 C130.655998,33.24 130.344001,33.1866672 130.104,33.08 C129.863999,32.9733328 129.674667,32.8293342 129.536,32.648 C129.397333,32.4666658 129.301334,32.2480013 129.248,31.992 C129.194666,31.7359987 129.168,31.4586682 129.168,31.16 L129.168,26.04 Z M134.8,29.368 C134.853334,30.2746712 135.085331,30.9759975 135.496,31.472 C135.906669,31.9680025 136.479996,32.216 137.216,32.216 C138.144005,32.216 138.842664,31.778671 139.312,30.904 L140.32,31.464 C140.010665,31.9866693 139.600003,32.4133317 139.088,32.744 C138.575997,33.0746683 137.930671,33.24 137.152,33.24 C136.53333,33.24 135.992002,33.1333344 135.528,32.92 C135.063998,32.7066656 134.677335,32.4133352 134.368,32.04 C134.058665,31.6666648 133.826667,31.2293358 133.672,30.728 C133.517333,30.2266642 133.44,29.6880029 133.44,29.112 C133.44,28.5466638 133.514666,28.0080026 133.664,27.496 C133.813334,26.9839974 134.039998,26.5360019 134.344,26.152 C134.648002,25.7679981 135.021331,25.4640011 135.464,25.24 C135.906669,25.0159989 136.426664,24.904 137.024,24.904 C137.600003,24.904 138.101331,25.0133322 138.528,25.232 C138.954669,25.4506678 139.309332,25.7439982 139.592,26.112 C139.874668,26.4800018 140.087999,26.9066642 140.232,27.392 C140.376001,27.8773358 140.448,28.3919973 140.448,28.936 C140.448,29.0533339 140.445333,29.1439997 140.44,29.208 C140.434667,29.2720003 140.432,29.3253331 140.432,29.368 L134.8,29.368 Z M137.008,25.912 C136.335997,25.912 135.816002,26.1519976 135.448,26.632 C135.079998,27.1120024 134.869334,27.7573293 134.816,28.568 L139.088,28.568 C139.088,28.2373317 139.050667,27.9146682 138.976,27.6 C138.901333,27.2853318 138.778668,27.0026679 138.608,26.752 C138.437332,26.5013321 138.221335,26.2986674 137.96,26.144 C137.698665,25.9893326 137.381335,25.912 137.008,25.912 Z M143.632,28.888 L141.28,25.128 L142.752,25.128 L144.576,28.12 L146.4,25.128 L147.856,25.128 L145.488,28.888 L148.16,33 L146.608,33 L144.576,29.672 L142.512,33 L140.976,33 L143.632,28.888 Z M150.256,26.04 L148.912,26.04 L148.912,25.128 L149.2,25.128 C149.530668,25.128 149.789332,25.0933337 149.976,25.024 C150.162668,24.9546663 150.304,24.8480007 150.4,24.704 C150.496,24.5599993 150.565333,24.3706678 150.608,24.136 C150.650667,23.9013322 150.688,23.613335 150.72,23.272 L150.752,22.984 L151.584,22.984 L151.584,25.128 L153.28,25.128 L153.28,26.04 L151.584,26.04 L151.584,30.936 C151.584,31.3840022 151.650666,31.7066657 151.784,31.904 C151.917334,32.1013343 152.165332,32.2 152.528,32.2 C152.816001,32.2 153.082665,32.1360006 153.328,32.008 L153.472,32.968 C153.066665,33.1493342 152.618669,33.24 152.128,33.24 C151.743998,33.24 151.432001,33.1866672 151.192,33.08 C150.951999,32.9733328 150.762667,32.8293342 150.624,32.648 C150.485333,32.4666658 150.389334,32.2480013 150.336,31.992 C150.282666,31.7359987 150.256,31.4586682 150.256,31.16 L150.256,26.04 Z" id="This-is-some-typed-t" fill="#000000"></path>
                </g>
            </g>
        </g>
    </g>
</svg>