<?xml version="1.0" encoding="UTF-8"?>
<svg width="244px" height="83px" viewBox="0 0 244 83" version="1.1" xmlns="http://www.w3.org/2000/svg" xmlns:xlink="http://www.w3.org/1999/xlink">
    <!-- Generator: Sketch 47.1 (45422) - http://www.bohemiancoding.com/sketch -->
    <title>LabelDown</title>
    <desc>Created with Sketch.</desc>
    <defs></defs>
    <g id="Page-1" stroke="none" stroke-width="1" fill="none" fill-rule="evenodd">
        <g id="Buttons-Usage-extra-large-1200" transform="translate(-825.000000, -1403.000000)">
            <g id="LabelDown" transform="translate(825.000000, 1395.000000)">
                <path d="M72,90.4111328 L72,89.2080078 C72.6699252,89.4768894 73.3079397,89.6113281 73.9140625,89.6113281 C74.5794304,89.6113281 75.1023744,89.4153665 75.4829102,89.0234375 C75.8634459,88.6315085 76.0537109,88.0914748 76.0537109,87.4033203 C76.0537109,85.8857346 75.007823,85.1269531 72.9160156,85.1269531 C72.6790353,85.1269531 72.4306654,85.1429035 72.1708984,85.1748047 L72.1708984,80.2529297 L77.2910156,80.2529297 L77.2910156,81.4287109 L73.3535156,81.4287109 L73.3535156,84.0947266 C74.6523502,84.0947266 75.6663375,84.3932262 76.3955078,84.9902344 C77.1246781,85.5872426 77.4892578,86.4143827 77.4892578,87.4716797 C77.4892578,88.4560596 77.1577182,89.2273735 76.4946289,89.7856445 C75.8315397,90.3439156 74.9121153,90.6230469 73.7363281,90.6230469 C73.2259089,90.6230469 72.6471387,90.5524096 72,90.4111328 Z M83.5390625,90.6230469 C82.4954375,90.6230469 81.6512077,90.1320036 81.0063477,89.1499023 C80.3614877,88.1678011 80.0390625,86.8860756 80.0390625,85.3046875 C80.0390625,83.7096274 80.3637663,82.4267627 81.0131836,81.4560547 C81.6626009,80.4853467 82.5182239,80 83.5800781,80 C84.6419324,80 85.4975553,80.4853467 86.1469727,81.4560547 C86.79639,82.4267627 87.1210938,83.7027916 87.1210938,85.2841797 C87.1210938,86.9065836 86.79639,88.2019808 86.1469727,89.1704102 C85.4975553,90.1388395 84.6282607,90.6230469 83.5390625,90.6230469 Z M83.5527344,89.6113281 C84.9791738,89.6113281 85.6923828,88.1621239 85.6923828,85.2636719 C85.6923828,82.4290223 84.9882883,81.0117188 83.5800781,81.0117188 C82.1764253,81.0117188 81.4746094,82.442694 81.4746094,85.3046875 C81.4746094,88.1757956 82.1673108,89.6113281 83.5527344,89.6113281 Z M96.4384766,89.0097656 L96.4384766,90.1855469 L95.9736328,90.3154297 C95.2125613,90.5205088 94.5221385,90.6230469 93.9023438,90.6230469 C92.6399676,90.6230469 91.6339556,90.2960645 90.8842773,89.6420898 C90.1345991,88.9881152 89.6435558,88.007168 89.4111328,86.6992188 L88.0371094,86.6992188 L88.3857422,85.8583984 L89.2949219,85.8583984 C89.2858072,85.63509 89.28125,85.4641933 89.28125,85.3457031 C89.28125,85.1679679 89.2949217,84.8899758 89.3222656,84.5117188 L88.0371094,84.5117188 L88.3857422,83.6640625 L89.4589844,83.6640625 C89.7415379,82.4472595 90.2713177,81.534671 91.0483398,80.9262695 C91.825362,80.3178681 92.8518816,80.0136719 94.1279297,80.0136719 C94.7932976,80.0136719 95.5589149,80.1139313 96.4248047,80.3144531 L96.4248047,81.5585938 C95.5908161,81.2350244 94.829756,81.0732422 94.1416016,81.0732422 C93.3258423,81.0732422 92.6433947,81.2897114 92.0942383,81.7226562 C91.5450819,82.1556011 91.1315118,82.8027301 90.8535156,83.6640625 L95.5498047,83.6640625 L95.2011719,84.5117188 L90.6689453,84.5117188 C90.6416014,84.8808612 90.6279297,85.1565746 90.6279297,85.3388672 C90.6279297,85.4573574 90.6324869,85.6305327 90.6416016,85.8583984 L94.640625,85.8583984 L94.2919922,86.6992188 L90.7919922,86.6992188 C91.0472018,87.6334682 91.4448215,88.3341448 91.9848633,88.8012695 C92.524905,89.2683943 93.2096313,89.5019531 94.0390625,89.5019531 C94.7181024,89.5019531 95.517899,89.3378923 96.4384766,89.0097656 Z" id="50€" fill="#0D78AA"></path>
                <path d="M1.30566406,19 L1.30566406,8.8828125 L4.06054688,8.8828125 C5.28190715,8.8828125 6.15917702,9.08902789 6.69238281,9.50146484 C7.2255886,9.9139018 7.4921875,10.5917922 7.4921875,11.5351562 C7.4921875,12.6106825 7.12760781,13.453773 6.3984375,14.0644531 C5.66926719,14.6751333 4.65755855,14.9804688 3.36328125,14.9804688 L2.72753906,14.9804688 L2.72753906,19 L1.30566406,19 Z M2.72753906,13.8935547 L3.30859375,13.8935547 C4.16081155,13.8935547 4.81933361,13.6975931 5.28417969,13.3056641 C5.74902576,12.913735 5.98144531,12.3600296 5.98144531,11.6445312 C5.98144531,11.0384084 5.79915547,10.60547 5.43457031,10.3457031 C5.06998516,10.0859362 4.4615928,9.95605469 3.609375,9.95605469 L2.72753906,9.95605469 L2.72753906,13.8935547 Z M9.08496094,19 L9.08496094,11.5761719 L10.4316406,11.5761719 L10.4316406,12.9707031 C10.9648464,11.9316354 11.7395783,11.4121094 12.7558594,11.4121094 C12.8925788,11.4121094 13.0361321,11.4235025 13.1865234,11.4462891 L13.1865234,12.7041016 C12.9541004,12.6266272 12.7490243,12.5878906 12.5712891,12.5878906 C11.7190713,12.5878906 11.0058622,13.0937449 10.4316406,14.1054688 L10.4316406,19 L9.08496094,19 Z M14.8134766,19 L14.8134766,11.5761719 L16.1601562,11.5761719 L16.1601562,19 L14.8134766,19 Z M14.8134766,10.2294922 L14.8134766,8.8828125 L16.1601562,8.8828125 L16.1601562,10.2294922 L14.8134766,10.2294922 Z M21.7587891,19.1708984 C20.7561799,19.1708984 19.9244825,18.7994829 19.2636719,18.0566406 C18.6028613,17.3137984 18.2724609,16.3772843 18.2724609,15.2470703 C18.2724609,14.039382 18.5994433,13.0983107 19.253418,12.4238281 C19.9073926,11.7493456 20.8199811,11.4121094 21.9912109,11.4121094 C22.5699899,11.4121094 23.2171188,11.4918612 23.9326172,11.6513672 L23.9326172,12.7792969 C23.1715457,12.5559885 22.5517602,12.4443359 22.0732422,12.4443359 C21.3850877,12.4443359 20.8325216,12.7029597 20.4155273,13.2202148 C19.9985331,13.73747 19.7900391,14.4267535 19.7900391,15.2880859 C19.7900391,16.1220745 20.0042296,16.7965469 20.4326172,17.3115234 C20.8610047,17.8265 21.421546,18.0839844 22.1142578,18.0839844 C22.7294953,18.0839844 23.3629525,17.9267594 24.0146484,17.6123047 L24.0146484,18.7744141 C23.1442014,19.0387383 22.3922558,19.1708984 21.7587891,19.1708984 Z M31.4726563,18.7607422 C30.570308,19.0341811 29.7978548,19.1708984 29.1552734,19.1708984 C28.061518,19.1708984 27.169437,18.8074581 26.4790039,18.0805664 C25.7885708,17.3536748 25.4433594,16.4114641 25.4433594,15.2539062 C25.4433594,14.1282496 25.7475556,13.2054072 26.355957,12.4853516 C26.9643585,11.7652959 27.7425083,11.4052734 28.6904297,11.4052734 C29.5882206,11.4052734 30.2820614,11.7242807 30.7719727,12.3623047 C31.261884,13.0003287 31.5068359,13.9072207 31.5068359,15.0830078 L31.5,15.5 L26.8173828,15.5 C27.0133473,17.2636807 27.8769455,18.1455078 29.4082031,18.1455078 C29.9687528,18.1455078 30.656897,17.9951187 31.4726563,17.6943359 L31.4726563,18.7607422 Z M26.8789063,14.4882812 L30.1533203,14.4882812 C30.1533203,13.107415 29.6383515,12.4169922 28.6083984,12.4169922 C27.5738881,12.4169922 26.9973964,13.107415 26.8789063,14.4882812 Z" id="Price" fill="#3F4F5A"></path>
                <path d="M170,90.3701172 L170,89.3583984 L172.023438,89.3583984 L172.023438,81.3740234 L170,81.8798828 L170,80.8408203 L173.376953,80 L173.376953,89.3583984 L175.400391,89.3583984 L175.400391,90.3701172 L170,90.3701172 Z M177.90918,90.3701172 L177.90918,89.1875 C178.301109,88.2714798 179.09407,87.2734429 180.288086,86.1933594 L181.060547,85.5029297 C182.054041,84.6051387 182.550781,83.7141971 182.550781,82.8300781 C182.550781,82.2649711 182.381024,81.8206396 182.041504,81.4970703 C181.701984,81.173501 181.236006,81.0117188 180.643555,81.0117188 C179.941728,81.0117188 179.114588,81.2828749 178.162109,81.8251953 L178.162109,80.6357422 C179.0599,80.2119119 179.950842,80 180.834961,80 C181.782882,80 182.543942,80.2552058 183.118164,80.765625 C183.692386,81.2760442 183.979492,81.9527953 183.979492,82.7958984 C183.979492,83.4020213 183.8348,83.9397763 183.54541,84.4091797 C183.256021,84.8785831 182.717126,85.4482388 181.928711,86.1181641 L181.40918,86.5625 C180.329096,87.4785202 179.704753,88.3535115 179.536133,89.1875 L183.931641,89.1875 L183.931641,90.3701172 L177.90918,90.3701172 Z M189.988281,90.6230469 C188.944656,90.6230469 188.100426,90.1320036 187.455566,89.1499023 C186.810706,88.1678011 186.488281,86.8860756 186.488281,85.3046875 C186.488281,83.7096274 186.812985,82.4267627 187.462402,81.4560547 C188.11182,80.4853467 188.967443,80 190.029297,80 C191.091151,80 191.946774,80.4853467 192.596191,81.4560547 C193.245609,82.4267627 193.570312,83.7027916 193.570312,85.2841797 C193.570312,86.9065836 193.245609,88.2019808 192.596191,89.1704102 C191.946774,90.1388395 191.077479,90.6230469 189.988281,90.6230469 Z M190.001953,89.6113281 C191.428393,89.6113281 192.141602,88.1621239 192.141602,85.2636719 C192.141602,82.4290223 191.437507,81.0117188 190.029297,81.0117188 C188.625644,81.0117188 187.923828,82.442694 187.923828,85.3046875 C187.923828,88.1757956 188.61653,89.6113281 190.001953,89.6113281 Z M202.887695,89.0097656 L202.887695,90.1855469 L202.422852,90.3154297 C201.66178,90.5205088 200.971357,90.6230469 200.351562,90.6230469 C199.089186,90.6230469 198.083174,90.2960645 197.333496,89.6420898 C196.583818,88.9881152 196.092775,88.007168 195.860352,86.6992188 L194.486328,86.6992188 L194.834961,85.8583984 L195.744141,85.8583984 C195.735026,85.63509 195.730469,85.4641933 195.730469,85.3457031 C195.730469,85.1679679 195.74414,84.8899758 195.771484,84.5117188 L194.486328,84.5117188 L194.834961,83.6640625 L195.908203,83.6640625 C196.190757,82.4472595 196.720536,81.534671 197.497559,80.9262695 C198.274581,80.3178681 199.3011,80.0136719 200.577148,80.0136719 C201.242516,80.0136719 202.008134,80.1139313 202.874023,80.3144531 L202.874023,81.5585938 C202.040035,81.2350244 201.278975,81.0732422 200.59082,81.0732422 C199.775061,81.0732422 199.092613,81.2897114 198.543457,81.7226562 C197.994301,82.1556011 197.580731,82.8027301 197.302734,83.6640625 L201.999023,83.6640625 L201.650391,84.5117188 L197.118164,84.5117188 C197.09082,84.8808612 197.077148,85.1565746 197.077148,85.3388672 C197.077148,85.4573574 197.081706,85.6305327 197.09082,85.8583984 L201.089844,85.8583984 L200.741211,86.6992188 L197.241211,86.6992188 C197.496421,87.6334682 197.89404,88.3341448 198.434082,88.8012695 C198.974124,89.2683943 199.65885,89.5019531 200.488281,89.5019531 C201.167321,89.5019531 201.967118,89.3378923 202.887695,89.0097656 Z" id="120€" fill="#0D78AA"></path>
                <g id="Range-slider-Copy-3" transform="translate(0.000000, 42.000000)">
                    <rect id="Rectangle-5" fill="#D2D6D8" x="0" y="9" width="244" height="5"></rect>
                    <rect id="Rectangle-5" fill="#0D78AA" x="94" y="9" width="83" height="5"></rect>
                    <circle id="Oval-2" stroke="#7C878E" fill="#FFFFFF" cx="186.5" cy="11.5" r="11.5"></circle>
                    <circle id="Oval-2-Copy" stroke="#7C878E" fill="#FFFFFF" cx="84.5" cy="11.5" r="11.5"></circle>
                </g>
            </g>
        </g>
    </g>
</svg>