<?xml version="1.0" encoding="UTF-8"?>
<svg width="244px" height="71px" viewBox="0 0 244 71" version="1.1" xmlns="http://www.w3.org/2000/svg" xmlns:xlink="http://www.w3.org/1999/xlink">
    <!-- Generator: Sketch 47 (45396) - http://www.bohemiancoding.com/sketch -->
    <title>LabelOnTop</title>
    <desc>Created with Sketch.</desc>
    <defs></defs>
    <g id="Page-1" stroke="none" stroke-width="1" fill="none" fill-rule="evenodd">
        <g id="Buttons-Usage-extra-large-1200" transform="translate(-382.000000, -1404.000000)">
            <g id="LabelOnTop" transform="translate(382.000000, 1404.000000)">
                <path d="M72.078,35.434 C72.2646676,35.9100024 72.5283316,36.2693321 72.869,36.512 C73.2096684,36.7546679 73.613331,36.876 74.08,36.876 C74.4066683,36.876 74.698332,36.8130006 74.955,36.687 C75.2116679,36.5609994 75.4263325,36.3906677 75.599,36.176 C75.7716675,35.9613323 75.9023329,35.7116681 75.991,35.427 C76.0796671,35.1423319 76.124,34.8413349 76.124,34.524 C76.124,34.2066651 76.0796671,33.9056681 75.991,33.621 C75.9023329,33.3363319 75.7740008,33.0913344 75.606,32.886 C75.4379992,32.6806656 75.2326679,32.5173339 74.99,32.396 C74.7473321,32.2746661 74.4720015,32.214 74.164,32.214 C73.7066644,32.214 73.3286682,32.3283322 73.03,32.557 C72.7313318,32.7856678 72.4980008,33.0539985 72.33,33.362 L71.35,33.236 L71.896,28.196 L76.95,28.196 L76.95,29.19 L72.708,29.19 L72.386,32.368 C72.6193345,32.0413317 72.9133316,31.7870009 73.268,31.605 C73.6226684,31.4229991 74.0426642,31.332 74.528,31.332 C74.9853356,31.332 75.3959982,31.4159992 75.76,31.584 C76.1240018,31.7520008 76.4273321,31.9759986 76.67,32.256 C76.9126679,32.5360014 77.0993327,32.8649981 77.23,33.243 C77.3606673,33.6210019 77.426,34.0199979 77.426,34.44 C77.426,34.9533359 77.3443341,35.4153313 77.181,35.826 C77.0176659,36.2366687 76.7936681,36.5866652 76.509,36.876 C76.2243319,37.1653348 75.8836686,37.3893325 75.487,37.548 C75.0903313,37.7066675 74.658669,37.786 74.192,37.786 C73.8373316,37.786 73.4990016,37.7510004 73.177,37.681 C72.8549984,37.6109997 72.558668,37.4990008 72.288,37.345 C72.017332,37.1909992 71.7723344,36.9880013 71.553,36.736 C71.3336656,36.4839987 71.1493341,36.1806684 71,35.826 L72.078,35.434 Z M82.214,36.806 C82.6433355,36.806 82.9956653,36.6730013 83.271,36.407 C83.5463347,36.1409987 83.7609992,35.8096687 83.915,35.413 C84.0690008,35.0163314 84.176333,34.5916689 84.237,34.139 C84.297667,33.6863311 84.328,33.2733352 84.328,32.9 C84.328,32.5359982 84.297667,32.1253356 84.237,31.668 C84.176333,31.2106644 84.0690008,30.7836687 83.915,30.387 C83.7609992,29.9903314 83.5463347,29.656668 83.271,29.386 C82.9956653,29.115332 82.6433355,28.98 82.214,28.98 C81.7939979,28.98 81.448668,29.1083321 81.178,29.365 C80.907332,29.621668 80.6903341,29.9389981 80.527,30.317 C80.3636659,30.6950019 80.251667,31.1033311 80.191,31.542 C80.130333,31.9806689 80.1,32.3866648 80.1,32.76 C80.1,33.1426686 80.1256664,33.567331 80.177,34.034 C80.2283336,34.500669 80.3309992,34.9393313 80.485,35.35 C80.6390008,35.7606687 80.8536653,36.1059986 81.129,36.386 C81.4043347,36.6660014 81.7659978,36.806 82.214,36.806 Z M82.214,37.8 C81.5979969,37.7906666 81.0706689,37.6366682 80.632,37.338 C80.1933311,37.0393318 79.838668,36.656669 79.568,36.19 C79.297332,35.723331 79.0990006,35.2006696 78.973,34.622 C78.8469994,34.0433304 78.784,33.4693362 78.784,32.9 C78.784,32.3306638 78.8469994,31.7543363 78.973,31.171 C79.0990006,30.5876638 79.2996653,30.062669 79.575,29.596 C79.8503347,29.129331 80.2073311,28.7466682 80.646,28.448 C81.0846689,28.1493318 81.6213302,28 82.256,28 C82.8813365,28 83.4109978,28.1493318 83.845,28.448 C84.2790022,28.7466682 84.6289987,29.129331 84.895,29.596 C85.1610013,30.062669 85.3523328,30.5853304 85.469,31.164 C85.5856673,31.7426696 85.644,32.3166638 85.644,32.886 C85.644,33.4460028 85.5856673,34.0153304 85.469,34.594 C85.3523328,35.1726696 85.1610013,35.6976643 84.895,36.169 C84.6289987,36.6403357 84.2766689,37.0276652 83.838,37.331 C83.3993311,37.6343349 82.8580032,37.7906666 82.214,37.8 Z M86.722,33.404 L87.688,33.404 C87.6786666,33.329333 87.6716667,33.2500004 87.667,33.166 C87.6623333,33.0819996 87.66,32.9933338 87.66,32.9 C87.66,32.8159996 87.6623333,32.7273338 87.667,32.634 C87.6716667,32.5406662 87.6786666,32.4520004 87.688,32.368 L86.414,32.368 L86.694,31.668 L87.758,31.668 C87.8420004,31.126664 87.981999,30.6320022 88.178,30.184 C88.374001,29.7359978 88.6306651,29.3510016 88.948,29.029 C89.2653349,28.7069984 89.6433311,28.4550009 90.082,28.273 C90.5206689,28.0909991 91.0199972,28 91.58,28 C92.3920041,28 93.0733306,28.1703316 93.624,28.511 C94.1746694,28.8516684 94.585332,29.2973306 94.856,29.848 L93.834,30.366 C93.6099989,29.9086644 93.3090019,29.551668 92.931,29.295 C92.5529981,29.0383321 92.0980027,28.91 91.566,28.91 C91.173998,28.91 90.8310015,28.9799993 90.537,29.12 C90.2429985,29.2600007 89.991001,29.4536654 89.781,29.701 C89.570999,29.9483346 89.4006673,30.2399983 89.27,30.576 C89.1393327,30.9120017 89.0460003,31.275998 88.99,31.668 L92.854,31.668 L92.56,32.368 L88.92,32.368 C88.9106666,32.4520004 88.9036667,32.5406662 88.899,32.634 C88.8943333,32.7273338 88.892,32.8159996 88.892,32.9 L88.892,33.152 C88.892,33.2360004 88.9013332,33.3199996 88.92,33.404 L92.168,33.404 L91.874,34.104 L88.99,34.104 C89.1206673,34.9813377 89.4099978,35.6626642 89.858,36.148 C90.3060022,36.6333358 90.9173295,36.876 91.692,36.876 C92.2520028,36.876 92.7256647,36.7196682 93.113,36.407 C93.5003353,36.0943318 93.7966656,35.7000024 94.002,35.224 L94.996,35.714 C94.8559993,36.0220015 94.6856677,36.3019987 94.485,36.554 C94.2843323,36.8060013 94.048668,37.0229991 93.778,37.205 C93.507332,37.3870009 93.1970017,37.5293328 92.847,37.632 C92.4969983,37.7346672 92.1026689,37.786 91.664,37.786 C91.0853304,37.786 90.5696689,37.6996675 90.117,37.527 C89.6643311,37.3543325 89.2770016,37.1070016 88.955,36.785 C88.6329984,36.4629984 88.374001,36.0756689 88.178,35.623 C87.981999,35.1703311 87.8420004,34.6640028 87.758,34.104 L86.414,34.104 L86.722,33.404 Z" id="50€" fill="#0D78AA"></path>
                <path d="M0.98,0.116 L4.298,0.116 C4.79266914,0.116 5.2499979,0.17199944 5.67,0.284 C6.0900021,0.39600056 6.45166515,0.5686655 6.755,0.802 C7.05833485,1.0353345 7.29633247,1.33166487 7.469,1.691 C7.64166753,2.05033513 7.728,2.48199748 7.728,2.986 C7.728,3.5460028 7.64166753,4.02199804 7.469,4.414 C7.29633247,4.80600196 7.05600154,5.12333212 6.748,5.366 C6.43999846,5.60866788 6.07833541,5.78366613 5.663,5.891 C5.24766459,5.99833387 4.79733576,6.052 4.312,6.052 L2.24,6.052 L2.24,10 L0.98,10 L0.98,0.116 Z M4.102,5.044 C4.83000364,5.044 5.39466466,4.88766823 5.796,4.575 C6.19733534,4.26233177 6.398,3.7326704 6.398,2.986 C6.398,2.64066494 6.33966725,2.34666788 6.223,2.104 C6.10633275,1.86133212 5.94766767,1.66533408 5.747,1.516 C5.54633233,1.36666592 5.30833471,1.25933366 5.033,1.194 C4.75766529,1.12866634 4.46133492,1.096 4.144,1.096 L2.24,1.096 L2.24,5.044 L4.102,5.044 Z M9.114,3.112 L10.122,3.112 L10.234,4.652 C10.430001,4.14799748 10.7426645,3.7326683 11.172,3.406 C11.6013355,3.0793317 12.1099971,2.916 12.698,2.916 L12.698,4.148 C12.5673327,4.11999986 12.4226675,4.106 12.264,4.106 C12.0306655,4.106 11.7973345,4.14799958 11.564,4.232 C11.3306655,4.31600042 11.1183343,4.4513324 10.927,4.638 C10.7356657,4.8246676 10.5793339,5.06499853 10.458,5.359 C10.3366661,5.65300147 10.276,6.0099979 10.276,6.43 L10.276,10 L9.114,10 L9.114,3.112 Z M13.846,0.438 L15.008,0.438 L15.008,1.6 L13.846,1.6 L13.846,0.438 Z M13.846,3.112 L15.008,3.112 L15.008,10 L13.846,10 L13.846,3.112 Z M22.554,8.488 C22.2739986,9.0480028 21.8983357,9.47499853 21.427,9.769 C20.9556643,10.0630015 20.3840034,10.21 19.712,10.21 C19.1613306,10.21 18.683002,10.1143343 18.277,9.923 C17.870998,9.73166571 17.5350013,9.4726683 17.269,9.146 C17.0029987,8.8193317 16.8070006,8.43433555 16.681,7.991 C16.5549994,7.54766445 16.492,7.07400252 16.492,6.57 C16.492,6.0566641 16.559666,5.57833555 16.695,5.135 C16.830334,4.69166445 17.0309987,4.3066683 17.297,3.98 C17.5630013,3.6533317 17.8966647,3.39433429 18.298,3.203 C18.6993353,3.01166571 19.170664,2.916 19.712,2.916 C20.3933367,2.916 20.9603311,3.06766515 21.413,3.371 C21.8656689,3.67433485 22.2319986,4.10133058 22.512,4.652 L21.532,5.114 C21.1773316,4.25532904 20.5800042,3.826 19.74,3.826 C19.3853316,3.826 19.079668,3.8959993 18.823,4.036 C18.5663321,4.1760007 18.3563342,4.36733212 18.193,4.61 C18.0296659,4.85266788 17.9083337,5.13499839 17.829,5.457 C17.7496663,5.77900161 17.71,6.1266648 17.71,6.5 C17.71,6.85466844 17.747333,7.19999832 17.822,7.536 C17.896667,7.87200168 18.0179992,8.17066536 18.186,8.432 C18.3540008,8.69333464 18.5686654,8.90333254 18.83,9.062 C19.0913346,9.22066746 19.4133314,9.3 19.796,9.3 C20.2813358,9.3 20.6733318,9.17633457 20.972,8.929 C21.2706682,8.68166543 21.4993325,8.36200196 21.658,7.97 L22.554,8.488 Z M24.724,6.822 C24.7706669,7.6153373 24.9736649,8.22899783 25.333,8.663 C25.6923351,9.09700217 26.1939968,9.314 26.838,9.314 C27.6500041,9.314 28.2613313,8.93133716 28.672,8.166 L29.554,8.656 C29.283332,9.11333562 28.9240022,9.48666522 28.476,9.776 C28.0279978,10.0653348 27.4633367,10.21 26.782,10.21 C26.240664,10.21 25.767002,10.1166676 25.361,9.93 C24.954998,9.7433324 24.616668,9.4866683 24.346,9.16 C24.075332,8.8333317 23.872334,8.45066886 23.737,8.012 C23.601666,7.57333114 23.534,7.10200252 23.534,6.598 C23.534,6.10333086 23.5993327,5.63200224 23.73,5.184 C23.8606673,4.73599776 24.0589987,4.34400168 24.325,4.008 C24.5910013,3.67199832 24.9176647,3.40600098 25.305,3.21 C25.6923353,3.01399902 26.1473307,2.916 26.67,2.916 C27.1740025,2.916 27.6126648,3.01166571 27.986,3.203 C28.3593352,3.39433429 28.6696654,3.65099839 28.917,3.973 C29.1643346,4.29500161 29.3509994,4.66833121 29.477,5.093 C29.6030006,5.51766879 29.666,5.96799762 29.666,6.444 C29.666,6.54666718 29.6636667,6.62599972 29.659,6.682 C29.6543333,6.73800028 29.652,6.78466648 29.652,6.822 L24.724,6.822 Z M26.656,3.798 C26.0679971,3.798 25.6130016,4.0079979 25.291,4.428 C24.9689984,4.8480021 24.7846669,5.41266312 24.738,6.122 L28.476,6.122 C28.476,5.83266522 28.4433337,5.55033471 28.378,5.275 C28.3126663,4.99966529 28.2053341,4.75233443 28.056,4.533 C27.9066659,4.31366557 27.7176678,4.13633401 27.489,4.001 C27.2603322,3.86566599 26.9826683,3.798 26.656,3.798 Z" id="Price" fill="#3F4F5A"></path>
                <path d="M172.084,36.68 L173.848,36.68 L173.848,29.75 C173.623999,29.9646677 173.365001,30.1279994 173.071,30.24 C172.776999,30.3520006 172.420002,30.4173332 172,30.436 L172,29.54 C172.560003,29.54 173.007998,29.4303344 173.344,29.211 C173.680002,28.9916656 173.941332,28.6533356 174.128,28.196 L175.01,28.196 L175.01,36.68 L176.746,36.68 L176.746,37.59 L172.084,37.59 L172.084,36.68 Z M179.126,36.736 C179.406001,36.5493324 179.720998,36.3253346 180.071,36.064 C180.421002,35.8026654 180.773332,35.5156682 181.128,35.203 C181.482668,34.8903318 181.825665,34.5590018 182.157,34.209 C182.488335,33.8589982 182.782332,33.4950019 183.039,33.117 C183.295668,32.7389981 183.503333,32.354002 183.662,31.962 C183.820667,31.569998 183.9,31.178002 183.9,30.786 C183.9,30.2353306 183.757668,29.7803351 183.473,29.421 C183.188332,29.0616649 182.75667,28.882 182.178,28.882 C181.655331,28.882 181.237668,29.0453317 180.925,29.372 C180.612332,29.6986683 180.404667,30.1046642 180.302,30.59 L179.196,30.324 C179.438668,29.5679962 179.811997,28.994002 180.316,28.602 C180.820003,28.209998 181.482663,28.014 182.304,28.014 C182.696002,28.014 183.066998,28.0699994 183.417,28.182 C183.767002,28.2940006 184.072665,28.4619989 184.334,28.686 C184.595335,28.9100011 184.800666,29.1923316 184.95,29.533 C185.099334,29.8736684 185.174,30.2726644 185.174,30.73 C185.174,31.3460031 185.022335,31.9409971 184.719,32.515 C184.415665,33.0890029 184.040002,33.6303308 183.592,34.139 C183.143998,34.6476692 182.658669,35.1143312 182.136,35.539 C181.613331,35.9636688 181.132669,36.3253318 180.694,36.624 L185.426,36.624 L185.426,37.59 L179.126,37.59 L179.126,36.736 Z M190.242,36.806 C190.671335,36.806 191.023665,36.6730013 191.299,36.407 C191.574335,36.1409987 191.788999,35.8096687 191.943,35.413 C192.097001,35.0163314 192.204333,34.5916689 192.265,34.139 C192.325667,33.6863311 192.356,33.2733352 192.356,32.9 C192.356,32.5359982 192.325667,32.1253356 192.265,31.668 C192.204333,31.2106644 192.097001,30.7836687 191.943,30.387 C191.788999,29.9903314 191.574335,29.656668 191.299,29.386 C191.023665,29.115332 190.671335,28.98 190.242,28.98 C189.821998,28.98 189.476668,29.1083321 189.206,29.365 C188.935332,29.621668 188.718334,29.9389981 188.555,30.317 C188.391666,30.6950019 188.279667,31.1033311 188.219,31.542 C188.158333,31.9806689 188.128,32.3866648 188.128,32.76 C188.128,33.1426686 188.153666,33.567331 188.205,34.034 C188.256334,34.500669 188.358999,34.9393313 188.513,35.35 C188.667001,35.7606687 188.881665,36.1059986 189.157,36.386 C189.432335,36.6660014 189.793998,36.806 190.242,36.806 Z M190.242,37.8 C189.625997,37.7906666 189.098669,37.6366682 188.66,37.338 C188.221331,37.0393318 187.866668,36.656669 187.596,36.19 C187.325332,35.723331 187.127001,35.2006696 187.001,34.622 C186.874999,34.0433304 186.812,33.4693362 186.812,32.9 C186.812,32.3306638 186.874999,31.7543363 187.001,31.171 C187.127001,30.5876638 187.327665,30.062669 187.603,29.596 C187.878335,29.129331 188.235331,28.7466682 188.674,28.448 C189.112669,28.1493318 189.64933,28 190.284,28 C190.909336,28 191.438998,28.1493318 191.873,28.448 C192.307002,28.7466682 192.656999,29.129331 192.923,29.596 C193.189001,30.062669 193.380333,30.5853304 193.497,31.164 C193.613667,31.7426696 193.672,32.3166638 193.672,32.886 C193.672,33.4460028 193.613667,34.0153304 193.497,34.594 C193.380333,35.1726696 193.189001,35.6976643 192.923,36.169 C192.656999,36.6403357 192.304669,37.0276652 191.866,37.331 C191.427331,37.6343349 190.886003,37.7906666 190.242,37.8 Z M194.75,33.404 L195.716,33.404 C195.706667,33.329333 195.699667,33.2500004 195.695,33.166 C195.690333,33.0819996 195.688,32.9933338 195.688,32.9 C195.688,32.8159996 195.690333,32.7273338 195.695,32.634 C195.699667,32.5406662 195.706667,32.4520004 195.716,32.368 L194.442,32.368 L194.722,31.668 L195.786,31.668 C195.87,31.126664 196.009999,30.6320022 196.206,30.184 C196.402001,29.7359978 196.658665,29.3510016 196.976,29.029 C197.293335,28.7069984 197.671331,28.4550009 198.11,28.273 C198.548669,28.0909991 199.047997,28 199.608,28 C200.420004,28 201.101331,28.1703316 201.652,28.511 C202.202669,28.8516684 202.613332,29.2973306 202.884,29.848 L201.862,30.366 C201.637999,29.9086644 201.337002,29.551668 200.959,29.295 C200.580998,29.0383321 200.126003,28.91 199.594,28.91 C199.201998,28.91 198.859001,28.9799993 198.565,29.12 C198.270999,29.2600007 198.019001,29.4536654 197.809,29.701 C197.598999,29.9483346 197.428667,30.2399983 197.298,30.576 C197.167333,30.9120017 197.074,31.275998 197.018,31.668 L200.882,31.668 L200.588,32.368 L196.948,32.368 C196.938667,32.4520004 196.931667,32.5406662 196.927,32.634 C196.922333,32.7273338 196.92,32.8159996 196.92,32.9 L196.92,33.152 C196.92,33.2360004 196.929333,33.3199996 196.948,33.404 L200.196,33.404 L199.902,34.104 L197.018,34.104 C197.148667,34.9813377 197.437998,35.6626642 197.886,36.148 C198.334002,36.6333358 198.945329,36.876 199.72,36.876 C200.280003,36.876 200.753665,36.7196682 201.141,36.407 C201.528335,36.0943318 201.824666,35.7000024 202.03,35.224 L203.024,35.714 C202.883999,36.0220015 202.713668,36.3019987 202.513,36.554 C202.312332,36.8060013 202.076668,37.0229991 201.806,37.205 C201.535332,37.3870009 201.225002,37.5293328 200.875,37.632 C200.524998,37.7346672 200.130669,37.786 199.692,37.786 C199.11333,37.786 198.597669,37.6996675 198.145,37.527 C197.692331,37.3543325 197.305002,37.1070016 196.983,36.785 C196.660998,36.4629984 196.402001,36.0756689 196.206,35.623 C196.009999,35.1703311 195.87,34.6640028 195.786,34.104 L194.442,34.104 L194.75,33.404 Z" id="120€" fill="#0D78AA"></path>
                <g id="Range-slider-Copy-3" transform="translate(0.000000, 47.000000)">
                    <rect id="Rectangle-5" fill="#D2D6D8" x="0" y="9" width="244" height="5"></rect>
                    <rect id="Rectangle-5" fill="#0D78AA" x="94" y="9" width="83" height="5"></rect>
                    <circle id="Oval-2" stroke="#7C878E" fill="#FFFFFF" cx="187.5" cy="11.5" r="11.5"></circle>
                    <circle id="Oval-2-Copy" stroke="#7C878E" fill="#FFFFFF" cx="83.5" cy="11.5" r="11.5"></circle>
                </g>
            </g>
        </g>
    </g>
</svg>