<?xml version="1.0" encoding="UTF-8"?>
<svg width="203px" height="42px" viewBox="0 0 203 42" version="1.1" xmlns="http://www.w3.org/2000/svg" xmlns:xlink="http://www.w3.org/1999/xlink">
    <!-- Generator: Sketch 47.1 (45422) - http://www.bohemiancoding.com/sketch -->
    <title>NumericValues</title>
    <desc>Created with Sketch.</desc>
    <defs></defs>
    <g id="Page-1" stroke="none" stroke-width="1" fill="none" fill-rule="evenodd">
        <g id="Buttons-Usage-extra-large-1200" transform="translate(-410.000000, -1731.000000)">
            <g id="NumericValues" transform="translate(411.000000, 1731.000000)">
                <g id="Group-8">
                    <rect id="Rectangle-5" fill="#D2D6D8" x="0" y="27" width="201" height="5"></rect>
                    <rect id="Rectangle-5" fill="#0D78AA" x="12" y="27" width="179" height="5"></rect>
                    <circle id="Oval-2" stroke="#7C878E" fill="#FFFFFF" cx="189.5" cy="29.5" r="11.5"></circle>
                    <circle id="Oval-2-Copy-2" stroke="#7C878E" fill="#FFFFFF" cx="11.5" cy="29.5" r="11.5"></circle>
                    <path d="M9.084,9.484 L10.848,9.484 L10.848,2.554 C10.6239989,2.76866774 10.3650015,2.93199944 10.071,3.044 C9.77699853,3.15600056 9.4200021,3.22133324 9,3.24 L9,2.344 C9.5600028,2.344 10.0079983,2.23433443 10.344,2.015 C10.6800017,1.79566557 10.9413324,1.45733562 11.128,1 L12.01,1 L12.01,9.484 L13.746,9.484 L13.746,10.394 L9.084,10.394 L9.084,9.484 Z" id="1" fill="#3F4F5A"></path>
                    <path d="M97,8.722 C97.2800014,8.5353324 97.5949983,8.31133464 97.945,8.05 C98.2950018,7.78866536 98.6473316,7.50166823 99.002,7.189 C99.3566684,6.87633177 99.699665,6.54500175 100.031,6.195 C100.362335,5.84499825 100.656332,5.48100189 100.913,5.103 C101.169668,4.72499811 101.377333,4.34000196 101.536,3.948 C101.694667,3.55599804 101.774,3.16400196 101.774,2.772 C101.774,2.22133058 101.631668,1.76633513 101.347,1.407 C101.062332,1.04766487 100.63067,0.868 100.052,0.868 C99.5293307,0.868 99.1116682,1.0313317 98.799,1.358 C98.4863318,1.6846683 98.2786672,2.09066424 98.176,2.576 L97.07,2.31 C97.3126679,1.55399622 97.6859975,0.98000196 98.19,0.588 C98.6940025,0.19599804 99.3566626,0 100.178,0 C100.570002,0 100.940998,0.05599944 101.291,0.168 C101.641002,0.28000056 101.946665,0.44799888 102.208,0.672 C102.469335,0.89600112 102.674666,1.17833163 102.824,1.519 C102.973334,1.85966837 103.048,2.25866438 103.048,2.716 C103.048,3.33200308 102.896335,3.92699713 102.593,4.501 C102.289665,5.07500287 101.914002,5.61633079 101.466,6.125 C101.017998,6.63366921 100.532669,7.10033121 100.01,7.525 C99.4873307,7.94966879 99.0066689,8.31133184 98.568,8.61 L103.3,8.61 L103.3,9.576 L97,9.576 L97,8.722 Z" id="2" fill="#3F4F5A"></path>
                    <path d="M187.918,7.76 C188.048667,8.17066872 188.281998,8.52533184 188.618,8.824 C188.954002,9.12266816 189.406664,9.272 189.976,9.272 C190.564003,9.272 191.025998,9.10166837 191.362,8.761 C191.698002,8.42033163 191.866,7.96066956 191.866,7.382 C191.866,7.03666494 191.800667,6.74266788 191.67,6.5 C191.539333,6.25733212 191.373668,6.05900077 191.173,5.905 C190.972332,5.75099923 190.748335,5.63666704 190.501,5.562 C190.253665,5.48733296 190.018001,5.45 189.794,5.45 L189.605,5.45 C189.544333,5.45 189.476667,5.45466662 189.402,5.464 L189.402,4.638 C189.476667,4.64733338 189.539666,4.652 189.591,4.652 L189.738,4.652 C189.962001,4.652 190.185999,4.61700035 190.41,4.547 C190.634001,4.47699965 190.832332,4.36966739 191.005,4.225 C191.177668,4.08033261 191.319999,3.90066774 191.432,3.686 C191.544001,3.47133226 191.6,3.21933478 191.6,2.93 C191.6,2.44466424 191.450668,2.04800154 191.152,1.74 C190.853332,1.43199846 190.419336,1.278 189.85,1.278 C189.355331,1.278 188.947002,1.42266522 188.625,1.712 C188.302998,2.00133478 188.086001,2.38399762 187.974,2.86 L186.938,2.524 C187.143334,1.85199664 187.500331,1.33166851 188.009,0.963 C188.517669,0.59433149 189.154663,0.41 189.92,0.41 C190.340002,0.41 190.727332,0.46133282 191.082,0.564 C191.436668,0.66666718 191.746999,0.82066564 192.013,1.026 C192.279001,1.23133436 192.486666,1.48099853 192.636,1.775 C192.785334,2.06900147 192.86,2.4026648 192.86,2.776 C192.86,3.35466956 192.687335,3.83299811 192.342,4.211 C191.996665,4.58900189 191.52067,4.84333268 190.914,4.974 C191.567337,5.07666718 192.101665,5.33566459 192.517,5.751 C192.932335,6.16633541 193.14,6.73332974 193.14,7.452 C193.14,7.918669 193.051334,8.32466494 192.874,8.67 C192.696666,9.01533506 192.463335,9.29999888 192.174,9.524 C191.884665,9.74800112 191.553335,9.91599944 191.18,10.028 C190.806665,10.1400006 190.424002,10.196 190.032,10.196 C189.201329,10.196 188.524669,10.0070019 188.002,9.629 C187.479331,9.25099811 187.092001,8.76333632 186.84,8.166 L187.918,7.76 Z" id="3" fill="#3F4F5A"></path>
                </g>
            </g>
        </g>
    </g>
</svg>