<?xml version="1.0" encoding="UTF-8"?>
<svg width="244px" height="47px" viewBox="0 0 244 47" version="1.1" xmlns="http://www.w3.org/2000/svg" xmlns:xlink="http://www.w3.org/1999/xlink">
    <!-- Generator: Sketch 47 (45396) - http://www.bohemiancoding.com/sketch -->
    <title>TooPrecise</title>
    <desc>Created with Sketch.</desc>
    <defs></defs>
    <g id="Page-1" stroke="none" stroke-width="1" fill="none" fill-rule="evenodd">
        <g id="Buttons-Usage-extra-large-1200" transform="translate(-827.000000, -1726.000000)">
            <g id="TooPrecise" transform="translate(827.000000, 1726.000000)">
                <g id="Group-9">
                    <rect id="Rectangle-5" fill="#D2D6D8" x="0" y="32" width="244" height="5"></rect>
                    <rect id="Rectangle-5" fill="#0D78AA" x="0" y="32" width="83" height="5"></rect>
                    <circle id="Oval-2" stroke="#7C878E" fill="#FFFFFF" cx="91.5" cy="34.5" r="11.5"></circle>
                    <path d="M59,6.132 L63.326,0.196 L64.558,0.196 L64.558,6.174 L65.762,6.174 L65.762,7.07 L64.558,7.07 L64.558,9.59 L63.382,9.59 L63.382,7.07 L59,7.07 L59,6.132 Z M63.382,6.174 L63.382,1.484 L59.994,6.174 L63.382,6.174 Z M67.162,8.218 L68.464,8.218 L68.464,9.59 L67.162,9.59 L67.162,8.218 Z M73.224,8.806 C73.6533355,8.806 74.0056653,8.67300133 74.281,8.407 C74.5563347,8.14099867 74.7709992,7.80966865 74.925,7.413 C75.0790008,7.01633135 75.186333,6.59166893 75.247,6.139 C75.307667,5.68633107 75.338,5.2733352 75.338,4.9 C75.338,4.53599818 75.307667,4.12533562 75.247,3.668 C75.186333,3.21066438 75.0790008,2.78366865 74.925,2.387 C74.7709992,1.99033135 74.5563347,1.65666802 74.281,1.386 C74.0056653,1.11533198 73.6533355,0.98 73.224,0.98 C72.8039979,0.98 72.458668,1.10833205 72.188,1.365 C71.917332,1.62166795 71.7003342,1.93899811 71.537,2.317 C71.3736659,2.69500189 71.261667,3.10333114 71.201,3.542 C71.140333,3.98066886 71.11,4.3866648 71.11,4.76 C71.11,5.14266858 71.1356664,5.567331 71.187,6.034 C71.2383336,6.500669 71.3409992,6.93933128 71.495,7.35 C71.6490008,7.76066872 71.8636653,8.1059986 72.139,8.386 C72.4143347,8.6660014 72.7759978,8.806 73.224,8.806 Z M73.224,9.8 C72.6079969,9.79066662 72.0806689,9.63666816 71.642,9.338 C71.2033311,9.03933184 70.848668,8.656669 70.578,8.19 C70.307332,7.723331 70.1090006,7.20066956 69.983,6.622 C69.8569994,6.04333044 69.794,5.46933618 69.794,4.9 C69.794,4.33066382 69.8569994,3.75433625 69.983,3.171 C70.1090006,2.58766375 70.3096653,2.062669 70.585,1.596 C70.8603347,1.129331 71.2173311,0.74666816 71.656,0.448 C72.0946689,0.14933184 72.6313302,0 73.266,0 C73.8913365,0 74.4209978,0.14933184 74.855,0.448 C75.2890022,0.74666816 75.6389987,1.129331 75.905,1.596 C76.1710013,2.062669 76.3623328,2.58533044 76.479,3.164 C76.5956673,3.74266956 76.654,4.31666382 76.654,4.886 C76.654,5.4460028 76.5956673,6.01533044 76.479,6.594 C76.3623328,7.17266956 76.1710013,7.69766431 75.905,8.169 C75.6389987,8.64033569 75.2866689,9.02766515 74.848,9.331 C74.4093311,9.63433485 73.8680032,9.79066662 73.224,9.8 Z M78.068,8.736 C78.3480014,8.5493324 78.6629982,8.32533464 79.013,8.064 C79.3630018,7.80266536 79.7153316,7.51566823 80.07,7.203 C80.4246684,6.89033177 80.767665,6.55900175 81.099,6.209 C81.430335,5.85899825 81.7243321,5.49500189 81.981,5.117 C82.237668,4.73899811 82.4453325,4.35400196 82.604,3.962 C82.7626675,3.56999804 82.842,3.17800196 82.842,2.786 C82.842,2.23533058 82.6996681,1.78033513 82.415,1.421 C82.1303319,1.06166487 81.6986696,0.882 81.12,0.882 C80.5973307,0.882 80.1796682,1.0453317 79.867,1.372 C79.5543318,1.6986683 79.3466672,2.10466424 79.244,2.59 L78.138,2.324 C78.3806679,1.56799622 78.7539975,0.99400196 79.258,0.602 C79.7620025,0.20999804 80.4246626,0.014 81.246,0.014 C81.638002,0.014 82.0089982,0.06999944 82.359,0.182 C82.7090018,0.29400056 83.0146654,0.46199888 83.276,0.686 C83.5373346,0.91000112 83.7426659,1.19233163 83.892,1.533 C84.0413341,1.87366837 84.116,2.27266438 84.116,2.73 C84.116,3.34600308 83.9643349,3.94099713 83.661,4.515 C83.3576652,5.08900287 82.9820022,5.63033079 82.534,6.139 C82.0859978,6.64766921 81.6006693,7.11433121 81.078,7.539 C80.5553307,7.96366879 80.0746689,8.32533184 79.636,8.624 L84.368,8.624 L84.368,9.59 L78.068,9.59 L78.068,8.736 Z M89.254,2.702 L90.416,2.702 L90.416,4.032 C90.5000004,3.83599902 90.6073327,3.6446676 90.738,3.458 C90.8686673,3.2713324 91.0249991,3.1080007 91.207,2.968 C91.3890009,2.8279993 91.6013321,2.71600042 91.844,2.632 C92.0866679,2.54799958 92.3619985,2.506 92.67,2.506 C93.1180022,2.506 93.507665,2.5993324 93.839,2.786 C94.170335,2.9726676 94.4433323,3.2293317 94.658,3.556 C94.8726677,3.8826683 95.0336661,4.26299783 95.141,4.697 C95.2483339,5.13100217 95.302,5.59999748 95.302,6.104 C95.302,6.70133632 95.2320007,7.22866438 95.092,7.686 C94.9519993,8.14333562 94.7560013,8.52599846 94.504,8.834 C94.2519987,9.14200154 93.9580017,9.37533254 93.622,9.534 C93.2859983,9.69266746 92.922002,9.772 92.53,9.772 C92.0166641,9.772 91.5756685,9.64600126 91.207,9.394 C90.8383315,9.14199874 90.5746675,8.8293352 90.416,8.456 L90.416,12.012 L89.254,12.012 L89.254,2.702 Z M90.416,6.188 C90.416,6.38400098 90.4229999,6.56366585 90.437,6.727 C90.4510001,6.89033415 90.4673332,7.02799944 90.486,7.14 C90.5233335,7.36400112 90.5933328,7.57866564 90.696,7.784 C90.7986672,7.98933436 90.9246659,8.16899923 91.074,8.323 C91.2233341,8.47700077 91.3983323,8.6006662 91.599,8.694 C91.7996677,8.7873338 92.0213321,8.834 92.264,8.834 C92.5813349,8.834 92.8543322,8.75933408 93.083,8.61 C93.3116678,8.46066592 93.5006659,8.26000126 93.65,8.008 C93.7993341,7.75599874 93.9089997,7.46900161 93.979,7.147 C94.0490004,6.82499839 94.084,6.49133506 94.084,6.146 C94.084,5.80066494 94.0513337,5.46700161 93.986,5.145 C93.9206663,4.82299839 93.8156674,4.53833457 93.671,4.291 C93.5263326,4.04366543 93.3373345,3.84533408 93.104,3.696 C92.8706655,3.54666592 92.5906683,3.472 92.264,3.472 C92.0119987,3.472 91.781001,3.5186662 91.571,3.612 C91.360999,3.7053338 91.1813341,3.83133254 91.032,3.99 C90.8826659,4.14866746 90.7590005,4.33066564 90.661,4.536 C90.5629995,4.74133436 90.5000001,4.95599888 90.472,5.18 C90.4533332,5.2733338 90.4393334,5.40166585 90.43,5.565 C90.4206666,5.72833415 90.416,5.91733226 90.416,6.132 L90.416,6.188 Z M99.642,9.8 C99.1193307,9.8 98.6596687,9.70433429 98.263,9.513 C97.8663313,9.32166571 97.5350013,9.06033499 97.269,8.729 C97.0029987,8.39766501 96.8046673,8.01033555 96.674,7.567 C96.5433327,7.12366445 96.478,6.6453359 96.478,6.132 C96.478,5.6186641 96.545666,5.14266886 96.681,4.704 C96.816334,4.26533114 97.0169987,3.8826683 97.283,3.556 C97.5490013,3.2293317 97.8803314,2.9726676 98.277,2.786 C98.6736686,2.5993324 99.1286641,2.506 99.642,2.506 C100.155336,2.506 100.610331,2.5993324 101.007,2.786 C101.403669,2.9726676 101.737332,3.22699839 102.008,3.549 C102.278668,3.87100161 102.481666,4.25366445 102.617,4.697 C102.752334,5.14033555 102.82,5.6186641 102.82,6.132 C102.82,6.6453359 102.752334,7.12366445 102.617,7.567 C102.481666,8.01033555 102.278668,8.39766501 102.008,8.729 C101.737332,9.06033499 101.403669,9.32166571 101.007,9.513 C100.610331,9.70433429 100.155336,9.8 99.642,9.8 Z M99.67,8.89 C99.9873349,8.89 100.267332,8.8200007 100.51,8.68 C100.752668,8.5399993 100.953333,8.34633457 101.112,8.099 C101.270667,7.85166543 101.392,7.56000168 101.476,7.224 C101.56,6.88799832 101.602,6.52400196 101.602,6.132 C101.602,5.73999804 101.56,5.37833499 101.476,5.047 C101.392,4.71566501 101.266001,4.42866788 101.098,4.186 C100.929999,3.94333212 100.724668,3.75433401 100.482,3.619 C100.239332,3.48366599 99.9593349,3.416 99.642,3.416 C99.3153317,3.416 99.0306679,3.48366599 98.788,3.619 C98.5453321,3.75433401 98.3446675,3.94333212 98.186,4.186 C98.0273325,4.42866788 97.9060004,4.71566501 97.822,5.047 C97.7379996,5.37833499 97.696,5.73999804 97.696,6.132 C97.696,6.52400196 97.7379996,6.88799832 97.822,7.224 C97.9060004,7.56000168 98.0296659,7.85166543 98.193,8.099 C98.3563342,8.34633457 98.5616654,8.5399993 98.809,8.68 C99.0563346,8.8200007 99.3433317,8.89 99.67,8.89 Z M104.304,0.028 L105.466,0.028 L105.466,1.19 L104.304,1.19 L104.304,0.028 Z M104.304,2.702 L105.466,2.702 L105.466,9.59 L104.304,9.59 L104.304,2.702 Z M107.258,2.702 L108.266,2.702 L108.392,4.074 C108.569334,3.6539979 108.851665,3.28766823 109.239,2.975 C109.626335,2.66233177 110.104664,2.506 110.674,2.506 C111.39267,2.506 111.922332,2.73466438 112.263,3.192 C112.603668,3.64933562 112.774,4.28866256 112.774,5.11 L112.774,9.59 L111.612,9.59 L111.612,5.348 C111.612,4.72266354 111.486001,4.26300147 111.234,3.969 C110.981999,3.67499853 110.641335,3.528 110.212,3.528 C109.698664,3.528 109.271668,3.7379979 108.931,4.158 C108.590332,4.5780021 108.42,5.17066284 108.42,5.936 L108.42,9.59 L107.258,9.59 L107.258,2.702 Z M115.14,3.5 L113.964,3.5 L113.964,2.702 L114.216,2.702 C114.505335,2.702 114.731666,2.67166697 114.895,2.611 C115.058334,2.55033303 115.182,2.45700063 115.266,2.331 C115.35,2.20499937 115.410666,2.03933436 115.448,1.834 C115.485334,1.62866564 115.518,1.37666816 115.546,1.078 L115.574,0.826 L116.302,0.826 L116.302,2.702 L117.786,2.702 L117.786,3.5 L116.302,3.5 L116.302,7.784 C116.302,8.17600196 116.360333,8.45833247 116.477,8.631 C116.593667,8.80366753 116.810665,8.89 117.128,8.89 C117.380001,8.89 117.613332,8.83400056 117.828,8.722 L117.954,9.562 C117.599332,9.72066746 117.207335,9.8 116.778,9.8 C116.441998,9.8 116.169001,9.7533338 115.959,9.66 C115.748999,9.5666662 115.583334,9.44066746 115.462,9.282 C115.340666,9.12333254 115.256667,8.93200112 115.21,8.708 C115.163333,8.48399888 115.14,8.24133464 115.14,7.98 L115.14,3.5 Z M119.312,7.896 C119.545335,8.19466816 119.846331,8.44199902 120.215,8.638 C120.583669,8.83400098 120.987331,8.932 121.426,8.932 C121.818002,8.932 122.158665,8.8386676 122.448,8.652 C122.737335,8.4653324 122.882,8.1853352 122.882,7.812 C122.882,7.52266522 122.786334,7.29633415 122.595,7.133 C122.403666,6.96966585 122.165668,6.83200056 121.881,6.72 C121.596332,6.60799944 121.286002,6.5053338 120.95,6.412 C120.613998,6.3186662 120.303668,6.19733408 120.019,6.048 C119.734332,5.89866592 119.496334,5.70266788 119.305,5.46 C119.113666,5.21733212 119.018,4.8860021 119.018,4.466 C119.018,4.12066494 119.087999,3.82433457 119.228,3.577 C119.368001,3.32966543 119.552332,3.12666746 119.781,2.968 C120.009668,2.80933254 120.273332,2.69266704 120.572,2.618 C120.870668,2.54333296 121.183332,2.506 121.51,2.506 C122.480672,2.506 123.287997,2.7859972 123.932,3.346 L123.344,4.13 C123.138666,3.91533226 122.865668,3.73566739 122.525,3.591 C122.184332,3.44633261 121.832002,3.374 121.468,3.374 C121.309333,3.374 121.153001,3.39266648 120.999,3.43 C120.844999,3.46733352 120.709667,3.52566627 120.593,3.605 C120.476333,3.68433373 120.383,3.78466606 120.313,3.906 C120.243,4.02733394 120.208,4.17666578 120.208,4.354 C120.208,4.62466802 120.303666,4.83466592 120.495,4.984 C120.686334,5.13333408 120.924332,5.26166613 121.209,5.369 C121.493668,5.47633387 121.801665,5.57899951 122.133,5.677 C122.464335,5.77500049 122.772332,5.90099923 123.057,6.055 C123.341668,6.20900077 123.579666,6.41199874 123.771,6.664 C123.962334,6.91600126 124.058,7.2519979 124.058,7.672 C124.058,8.02666844 123.985667,8.33699867 123.841,8.603 C123.696333,8.86900133 123.505001,9.09066578 123.267,9.268 C123.028999,9.44533422 122.753668,9.57833289 122.441,9.667 C122.128332,9.75566711 121.804002,9.8 121.468,9.8 C120.310661,9.8 119.391337,9.4266704 118.71,8.68 L119.312,7.896 Z" id="4.02-points" fill="#4C5358"></path>
                </g>
            </g>
        </g>
    </g>
</svg>