<?xml version="1.0" encoding="UTF-8"?>
<svg width="131px" height="36px" viewBox="0 0 131 36" version="1.1" xmlns="http://www.w3.org/2000/svg" xmlns:xlink="http://www.w3.org/1999/xlink">
    <!-- Generator: Sketch 47 (45396) - http://www.bohemiancoding.com/sketch -->
    <title>Descriptive Language</title>
    <desc>Created with Sketch.</desc>
    <defs></defs>
    <g id="Page-1" stroke="none" stroke-width="1" fill="none" fill-rule="evenodd">
        <g id="Buttons-Usage-extra-large-1200" transform="translate(-444.000000, -3023.000000)">
            <g id="Group" transform="translate(304.000000, 2992.000000)">
                <g id="Descriptive-Language" transform="translate(140.000000, 31.000000)">
                    <g id="Button/BG/Accent">
                        <rect id="Rectangle" fill="#0D78AA" x="0" y="0" width="131" height="36" rx="3"></rect>
                        <path d="M21.098,21.08 C21.4700019,21.6320028 21.9739968,22.0789983 22.61,22.421 C23.2460032,22.7630017 23.9959957,22.934 24.86,22.934 C25.268002,22.934 25.6489982,22.8800005 26.003,22.772 C26.3570018,22.6639995 26.6629987,22.508001 26.921,22.304 C27.1790013,22.099999 27.3799993,21.8510015 27.524,21.557 C27.6680007,21.2629985 27.74,20.9360018 27.74,20.576 C27.74,20.2039981 27.6530009,19.8920013 27.479,19.64 C27.3049991,19.3879987 27.0680015,19.1750009 26.768,19.001 C26.4679985,18.8269991 26.1110021,18.6740007 25.697,18.542 C25.2829979,18.4099993 24.8360024,18.2780007 24.356,18.146 C23.8159973,17.9899992 23.3150023,17.816001 22.853,17.624 C22.3909977,17.431999 21.9920017,17.1950014 21.656,16.913 C21.3199983,16.6309986 21.056001,16.3010019 20.864,15.923 C20.671999,15.5449981 20.576,15.0920026 20.576,14.564 C20.576,14.0239973 20.6809989,13.5380022 20.891,13.106 C21.101001,12.6739978 21.3979981,12.3050015 21.782,11.999 C22.1660019,11.6929985 22.6189974,11.4560008 23.141,11.288 C23.6630026,11.1199992 24.2419968,11.036 24.878,11.036 C25.7540044,11.036 26.5639963,11.1829985 27.308,11.477 C28.0520037,11.7710015 28.6879974,12.2059971 29.216,12.782 L28.118,13.808 C27.7339981,13.3879979 27.2630028,13.0460013 26.705,12.782 C26.1469972,12.5179987 25.5320034,12.386 24.86,12.386 C24.0919962,12.386 23.4650024,12.5509984 22.979,12.881 C22.4929976,13.2110017 22.25,13.7119966 22.25,14.384 C22.25,14.7200017 22.3249992,15.0079988 22.475,15.248 C22.6250007,15.4880012 22.8349986,15.6979991 23.105,15.878 C23.3750013,16.0580009 23.6929982,16.2169993 24.059,16.355 C24.4250018,16.4930007 24.8299978,16.6219994 25.274,16.742 C25.9340033,16.9220009 26.5219974,17.116999 27.038,17.327 C27.5540026,17.5370011 27.9859983,17.7859986 28.334,18.074 C28.6820017,18.3620014 28.9459991,18.6949981 29.126,19.073 C29.3060009,19.4510019 29.396,19.8919975 29.396,20.396 C29.396,21.0080031 29.2760012,21.5569976 29.036,22.043 C28.7959988,22.5290024 28.4690021,22.9369984 28.055,23.267 C27.6409979,23.5970017 27.1550028,23.8489991 26.597,24.023 C26.0389972,24.1970009 25.4480031,24.284 24.824,24.284 C23.6719942,24.284 22.700004,24.1010018 21.908,23.735 C21.115996,23.3689982 20.4800024,22.8440034 20,22.16 L21.098,21.08 Z M31.232,15.158 L32.744,15.158 L32.744,20.522 C32.744,21.3620042 32.8999984,21.9769981 33.212,22.367 C33.5240016,22.757002 33.9619972,22.952 34.526,22.952 C35.2460036,22.952 35.806998,22.6670029 36.209,22.097 C36.611002,21.5269972 36.812,20.7680047 36.812,19.82 L36.812,15.158 L38.306,15.158 L38.306,24.014 L36.902,24.014 L36.902,22.214 C36.7939995,22.4900014 36.6620008,22.7509988 36.506,22.997 C36.3499992,23.2430012 36.1580011,23.4589991 35.93,23.645 C35.7019989,23.8310009 35.4380015,23.9779995 35.138,24.086 C34.8379985,24.1940005 34.484002,24.248 34.076,24.248 C33.1159952,24.248 32.4020023,23.9570029 31.934,23.375 C31.4659977,22.7929971 31.232,21.9680053 31.232,20.9 L31.232,15.158 Z M40.61,11.306 L42.104,11.306 L42.104,16.724 C42.3440012,16.2199975 42.7009976,15.7910018 43.175,15.437 C43.6490024,15.0829982 44.2399965,14.906 44.948,14.906 C45.4640026,14.906 45.9349979,15.0139989 46.361,15.23 C46.7870021,15.4460011 47.1499985,15.754998 47.45,16.157 C47.7500015,16.559002 47.9809992,17.0419972 48.143,17.606 C48.3050008,18.1700028 48.386,18.7999965 48.386,19.496 C48.386,20.1800034 48.3050008,20.8129971 48.143,21.395 C47.9809992,21.9770029 47.7500015,22.4779979 47.45,22.898 C47.1499985,23.3180021 46.7810022,23.6479988 46.343,23.888 C45.9049978,24.1280012 45.4100028,24.248 44.858,24.248 C44.2099968,24.248 43.6340025,24.0830017 43.13,23.753 C42.6259975,23.4229984 42.2480013,22.9520031 41.996,22.34 L41.816,24.014 L40.61,24.014 L40.61,11.306 Z M42.104,19.622 C42.104,19.8860013 42.1129999,20.122999 42.131,20.333 C42.1490001,20.5430011 42.1699999,20.7199993 42.194,20.864 C42.2420002,21.1520014 42.3319993,21.4279987 42.464,21.692 C42.5960007,21.9560013 42.757999,22.186999 42.95,22.385 C43.142001,22.583001 43.3669987,22.7419994 43.625,22.862 C43.8830013,22.9820006 44.1679984,23.042 44.48,23.042 C44.888002,23.042 45.2389985,22.943001 45.533,22.745 C45.8270015,22.546999 46.069999,22.2860016 46.262,21.962 C46.454001,21.6379984 46.5949995,21.2690021 46.685,20.855 C46.7750005,20.4409979 46.82,20.0180022 46.82,19.586 C46.82,19.1419978 46.7720005,18.7130021 46.676,18.299 C46.5799995,17.8849979 46.436001,17.5190016 46.244,17.201 C46.051999,16.8829984 45.8060015,16.628001 45.506,16.436 C45.2059985,16.243999 44.852002,16.148 44.444,16.148 C44.1199984,16.148 43.8290013,16.2049994 43.571,16.319 C43.3129987,16.4330006 43.088001,16.588999 42.896,16.787 C42.703999,16.985001 42.5480006,17.2159987 42.428,17.48 C42.3079994,17.7440013 42.2240002,18.0259985 42.176,18.326 C42.1519999,18.4460006 42.1340001,18.5989991 42.122,18.785 C42.1099999,18.9710009 42.104,19.2319983 42.104,19.568 L42.104,19.622 Z M50.294,15.158 L51.59,15.158 L51.752,16.886 C51.9680011,16.2739969 52.3039977,15.7910018 52.76,15.437 C53.2160023,15.0829982 53.7739967,14.906 54.434,14.906 C55.1300035,14.906 55.675998,15.103998 56.072,15.5 C56.468002,15.896002 56.7199995,16.3759972 56.828,16.94 C56.9360005,16.6639986 57.0709992,16.4030012 57.233,16.157 C57.3950008,15.9109988 57.5899989,15.6950009 57.818,15.509 C58.0460011,15.3229991 58.3099985,15.1760005 58.61,15.068 C58.9100015,14.9599995 59.2519981,14.906 59.636,14.906 C60.1400025,14.906 60.5569984,14.9929991 60.887,15.167 C61.2170017,15.3410009 61.480999,15.5779985 61.679,15.878 C61.877001,16.1780015 62.0179996,16.528998 62.102,16.931 C62.1860004,17.333002 62.228,17.7559978 62.228,18.2 L62.228,24.014 L60.734,24.014 L60.734,18.578 C60.734,17.785996 60.5930014,17.195002 60.311,16.805 C60.0289986,16.4149981 59.6180027,16.22 59.078,16.22 C58.4899971,16.22 57.998002,16.4809974 57.602,17.003 C57.205998,17.5250026 57.008,18.2719951 57.008,19.244 L57.008,24.014 L55.514,24.014 L55.514,18.65 C55.514,17.8219959 55.3700014,17.210002 55.082,16.814 C54.7939986,16.417998 54.3920026,16.22 53.876,16.22 C53.2999971,16.22 52.808002,16.4869973 52.4,17.021 C51.991998,17.5550027 51.788,18.325995 51.788,19.334 L51.788,24.014 L50.294,24.014 L50.294,15.158 Z M64.496,11.72 L65.99,11.72 L65.99,13.214 L64.496,13.214 L64.496,11.72 Z M64.496,15.158 L65.99,15.158 L65.99,24.014 L64.496,24.014 L64.496,15.158 Z M69.068,16.184 L67.556,16.184 L67.556,15.158 L67.88,15.158 C68.2520019,15.158 68.5429989,15.1190004 68.753,15.041 C68.9630011,14.9629996 69.1219995,14.8430008 69.23,14.681 C69.3380005,14.5189992 69.4159998,14.3060013 69.464,14.042 C69.5120002,13.7779987 69.5539998,13.4540019 69.59,13.07 L69.626,12.746 L70.562,12.746 L70.562,15.158 L72.47,15.158 L72.47,16.184 L70.562,16.184 L70.562,21.692 C70.562,22.1960025 70.6369993,22.5589989 70.787,22.781 C70.9370008,23.0030011 71.215998,23.114 71.624,23.114 C71.9480016,23.114 72.2479986,23.0420007 72.524,22.898 L72.686,23.978 C72.2299977,24.182001 71.7260028,24.284 71.174,24.284 C70.7419978,24.284 70.3910014,24.2240006 70.121,24.104 C69.8509987,23.9839994 69.6380008,23.822001 69.482,23.618 C69.3259992,23.413999 69.2180003,23.1680014 69.158,22.88 C69.0979997,22.5919986 69.068,22.2800017 69.068,21.944 L69.068,16.184 Z M79.076,16.184 L77.546,16.184 L77.546,15.158 L79.004,15.158 C78.9079995,14.8459984 78.8270003,14.5130018 78.761,14.159 C78.6949997,13.8049982 78.662,13.4720016 78.662,13.16 C78.662,12.8719986 78.6949997,12.5990013 78.761,12.341 C78.8270003,12.0829987 78.9439992,11.855001 79.112,11.657 C79.2800008,11.458999 79.5079986,11.3000006 79.796,11.18 C80.0840014,11.0599994 80.4499978,11 80.894,11 C81.2180016,11 81.5089987,11.0209998 81.767,11.063 C82.0250013,11.1050002 82.2679989,11.1739995 82.496,11.27 L82.244,12.404 C82.1119993,12.3439997 81.947001,12.2930002 81.749,12.251 C81.550999,12.2089998 81.3680008,12.188 81.2,12.188 C80.5159966,12.188 80.174,12.583996 80.174,13.376 C80.174,13.6880016 80.2129996,14.0119983 80.291,14.348 C80.3690004,14.6840017 80.4499996,14.953999 80.534,15.158 L82.244,15.158 L82.244,16.184 L80.588,16.184 L80.588,24.014 L79.076,24.014 L79.076,16.184 Z M87.428,24.284 C86.7559966,24.284 86.1650025,24.1610012 85.655,23.915 C85.1449975,23.6689988 84.7190017,23.3330021 84.377,22.907 C84.0349983,22.4809979 83.7800008,21.9830029 83.612,21.413 C83.4439992,20.8429972 83.36,20.2280033 83.36,19.568 C83.36,18.9079967 83.4469991,18.2960028 83.621,17.732 C83.7950009,17.1679972 84.0529983,16.6760021 84.395,16.256 C84.7370017,15.8359979 85.1629975,15.5060012 85.673,15.266 C86.1830025,15.0259988 86.7679967,14.906 87.428,14.906 C88.0880033,14.906 88.6729974,15.0259988 89.183,15.266 C89.6930026,15.5060012 90.1219983,15.8329979 90.47,16.247 C90.8180017,16.6610021 91.0789991,17.1529972 91.253,17.723 C91.4270009,18.2930029 91.514,18.9079967 91.514,19.568 C91.514,20.2280033 91.4270009,20.8429972 91.253,21.413 C91.0789991,21.9830029 90.8180017,22.4809979 90.47,22.907 C90.1219983,23.3330021 89.6930026,23.6689988 89.183,23.915 C88.6729974,24.1610012 88.0880033,24.284 87.428,24.284 Z M87.464,23.114 C87.872002,23.114 88.2319984,23.0240009 88.544,22.844 C88.8560016,22.6639991 89.113999,22.4150016 89.318,22.097 C89.522001,21.7789984 89.6779995,21.4040022 89.786,20.972 C89.8940005,20.5399978 89.948,20.0720025 89.948,19.568 C89.948,19.0639975 89.8940005,18.5990021 89.786,18.173 C89.6779995,17.7469979 89.5160011,17.3780016 89.3,17.066 C89.0839989,16.7539984 88.8200016,16.5110009 88.508,16.337 C88.1959984,16.1629991 87.836002,16.076 87.428,16.076 C87.0079979,16.076 86.6420016,16.1629991 86.33,16.337 C86.0179984,16.5110009 85.760001,16.7539984 85.556,17.066 C85.351999,17.3780016 85.1960005,17.7469979 85.088,18.173 C84.9799995,18.5990021 84.926,19.0639975 84.926,19.568 C84.926,20.0720025 84.9799995,20.5399978 85.088,20.972 C85.1960005,21.4040022 85.354999,21.7789984 85.565,22.097 C85.7750011,22.4150016 86.0389984,22.6639991 86.357,22.844 C86.6750016,23.0240009 87.0439979,23.114 87.464,23.114 Z M93.422,15.158 L94.718,15.158 L94.862,17.138 C95.1140013,16.4899968 95.5159972,15.9560021 96.068,15.536 C96.6200028,15.1159979 97.2739962,14.906 98.03,14.906 L98.03,16.49 C97.8619992,16.4539998 97.676001,16.436 97.472,16.436 C97.1719985,16.436 96.8720015,16.4899995 96.572,16.598 C96.2719985,16.7060005 95.9990012,16.8799988 95.753,17.12 C95.5069988,17.3600012 95.3060008,17.6689981 95.15,18.047 C94.9939992,18.4250019 94.916,18.8839973 94.916,19.424 L94.916,24.014 L93.422,24.014 L93.422,15.158 Z M99.506,15.158 L100.802,15.158 L100.964,16.886 C101.180001,16.2739969 101.515998,15.7910018 101.972,15.437 C102.428002,15.0829982 102.985997,14.906 103.646,14.906 C104.342003,14.906 104.887998,15.103998 105.284,15.5 C105.680002,15.896002 105.931999,16.3759972 106.04,16.94 C106.148001,16.6639986 106.282999,16.4030012 106.445,16.157 C106.607001,15.9109988 106.801999,15.6950009 107.03,15.509 C107.258001,15.3229991 107.521998,15.1760005 107.822,15.068 C108.122002,14.9599995 108.463998,14.906 108.848,14.906 C109.352003,14.906 109.768998,14.9929991 110.099,15.167 C110.429002,15.3410009 110.692999,15.5779985 110.891,15.878 C111.089001,16.1780015 111.23,16.528998 111.314,16.931 C111.398,17.333002 111.44,17.7559978 111.44,18.2 L111.44,24.014 L109.946,24.014 L109.946,18.578 C109.946,17.785996 109.805001,17.195002 109.523,16.805 C109.240999,16.4149981 108.830003,16.22 108.29,16.22 C107.701997,16.22 107.210002,16.4809974 106.814,17.003 C106.417998,17.5250026 106.22,18.2719951 106.22,19.244 L106.22,24.014 L104.726,24.014 L104.726,18.65 C104.726,17.8219959 104.582001,17.210002 104.294,16.814 C104.005999,16.417998 103.604003,16.22 103.088,16.22 C102.511997,16.22 102.020002,16.4869973 101.612,17.021 C101.203998,17.5550027 101,18.325995 101,19.334 L101,24.014 L99.506,24.014 L99.506,15.158 Z" id="Button" fill="#FFFFFF"></path>
                    </g>
                </g>
            </g>
        </g>
    </g>
</svg>