<?xml version="1.0" encoding="UTF-8"?>
<svg width="94px" height="36px" viewBox="0 0 94 36" version="1.1" xmlns="http://www.w3.org/2000/svg" xmlns:xlink="http://www.w3.org/1999/xlink">
    <!-- Generator: Sketch 47 (45396) - http://www.bohemiancoding.com/sketch -->
    <title>Go</title>
    <desc>Created with Sketch.</desc>
    <defs></defs>
    <g id="Page-1" stroke="none" stroke-width="1" fill="none" fill-rule="evenodd">
        <g id="Buttons-Usage-extra-large-1200" transform="translate(-875.000000, -2760.000000)">
            <g id="Group-2-Copy" transform="translate(730.000000, 2729.000000)">
                <g id="Button-Accent" transform="translate(145.000000, 31.000000)">
                    <g id="Go">
                        <rect id="Rectangle" fill="#0D78AA" x="0" y="0" width="94" height="36" rx="3"></rect>
                        <path d="M46.702,21.764 C46.3539983,22.5200038 45.8440034,23.1229978 45.172,23.573 C44.4999966,24.0230022 43.6960047,24.248 42.76,24.248 C41.8239953,24.248 40.9960036,24.0830016 40.276,23.753 C39.5559964,23.4229984 38.9530024,22.961003 38.467,22.367 C37.9809976,21.772997 37.6150012,21.0680041 37.369,20.252 C37.1229988,19.4359959 37,18.5420049 37,17.57 C37,16.6219953 37.1259987,15.749004 37.378,14.951 C37.6300013,14.152996 37.9989976,13.4600029 38.485,12.872 C38.9710024,12.2839971 39.5739964,11.8250017 40.294,11.495 C41.0140036,11.1649983 41.8359954,11 42.76,11 C43.8760056,11 44.8629957,11.2279977 45.721,11.684 C46.5790043,12.1400023 47.2599975,12.7999957 47.764,13.664 L46.216,14.42 C45.9399986,13.7719968 45.4930031,13.2740017 44.875,12.926 C44.2569969,12.5779983 43.552004,12.404 42.76,12.404 C42.0879966,12.404 41.4970026,12.5389986 40.987,12.809 C40.4769974,13.0790013 40.0540017,13.4449977 39.718,13.907 C39.3819983,14.3690023 39.1300008,14.9149968 38.962,15.545 C38.7939992,16.1750031 38.71,16.8499964 38.71,17.57 C38.71,18.2900036 38.7969991,18.9679968 38.971,19.604 C39.1450009,20.2400032 39.4029983,20.7979976 39.745,21.278 C40.0870017,21.7580024 40.5159974,22.1389986 41.032,22.421 C41.5480026,22.7030014 42.1419966,22.844 42.814,22.844 C43.3900029,22.844 43.8999978,22.7360011 44.344,22.52 C44.7880022,22.3039989 45.1629985,22.0250017 45.469,21.683 C45.7750015,21.3409983 46.0089992,20.966002 46.171,20.558 C46.3330008,20.149998 46.414,19.748002 46.414,19.352 L46.414,18.65 L43.3,18.65 L43.3,17.408 L47.944,17.408 L47.944,23.978 L46.936,23.978 L46.702,21.764 Z M53.956,24.248 C53.2839966,24.248 52.6930026,24.1250012 52.183,23.879 C51.6729975,23.6329988 51.2470017,23.2970021 50.905,22.871 C50.5629983,22.4449979 50.3080008,21.9470028 50.14,21.377 C49.9719992,20.8069972 49.888,20.1920033 49.888,19.532 C49.888,18.8719967 49.9749991,18.2600028 50.149,17.696 C50.3230009,17.1319972 50.5809983,16.6400021 50.923,16.22 C51.2650017,15.7999979 51.6909975,15.4700012 52.201,15.23 C52.7110026,14.9899988 53.2959967,14.87 53.956,14.87 C54.6160033,14.87 55.2009975,14.9899988 55.711,15.23 C56.2210026,15.4700012 56.6499983,15.7969979 56.998,16.211 C57.3460017,16.6250021 57.6069991,17.1169972 57.781,17.687 C57.9550009,18.2570028 58.042,18.8719967 58.042,19.532 C58.042,20.1920033 57.9550009,20.8069972 57.781,21.377 C57.6069991,21.9470028 57.3460017,22.4449979 56.998,22.871 C56.6499983,23.2970021 56.2210026,23.6329988 55.711,23.879 C55.2009975,24.1250012 54.6160033,24.248 53.956,24.248 Z M53.992,23.078 C54.400002,23.078 54.7599984,22.9880009 55.072,22.808 C55.3840016,22.6279991 55.641999,22.3790016 55.846,22.061 C56.050001,21.7429984 56.2059995,21.3680022 56.314,20.936 C56.4220005,20.5039978 56.476,20.0360025 56.476,19.532 C56.476,19.0279975 56.4220005,18.5630021 56.314,18.137 C56.2059995,17.7109979 56.0440011,17.3420016 55.828,17.03 C55.6119989,16.7179984 55.3480016,16.4750009 55.036,16.301 C54.7239984,16.1269991 54.364002,16.04 53.956,16.04 C53.5359979,16.04 53.1700016,16.1269991 52.858,16.301 C52.5459984,16.4750009 52.288001,16.7179984 52.084,17.03 C51.879999,17.3420016 51.7240005,17.7109979 51.616,18.137 C51.5079995,18.5630021 51.454,19.0279975 51.454,19.532 C51.454,20.0360025 51.5079995,20.5039978 51.616,20.936 C51.7240005,21.3680022 51.882999,21.7429984 52.093,22.061 C52.3030011,22.3790016 52.5669984,22.6279991 52.885,22.808 C53.2030016,22.9880009 53.5719979,23.078 53.992,23.078 Z" id="Button" fill="#FFFFFF"></path>
                    </g>
                </g>
            </g>
        </g>
    </g>
</svg>