<?xml version="1.0" encoding="UTF-8"?>
<svg width="117px" height="36px" viewBox="0 0 117 36" version="1.1" xmlns="http://www.w3.org/2000/svg" xmlns:xlink="http://www.w3.org/1999/xlink">
    <!-- Generator: Sketch 47.1 (45422) - http://www.bohemiancoding.com/sketch -->
    <title>Primary choice</title>
    <desc>Created with Sketch.</desc>
    <defs></defs>
    <g id="Page-1" stroke="none" stroke-width="1" fill="none" fill-rule="evenodd">
        <g id="Buttons-Usage-extra-large-1200" transform="translate(-451.000000, -3895.000000)">
            <g id="Group-Copy-6" transform="translate(304.000000, 3861.000000)">
                <g id="Primary-choice" transform="translate(147.000000, 34.000000)">
                    <g id="Button/BG/Accent">
                        <rect id="Rectangle" fill="#0D78AA" x="0" y="0" width="117" height="36" rx="3"></rect>
                        <path d="M33.2858903,20.066 C33.6578922,20.6180028 34.1618871,21.0649983 34.7978903,21.407 C35.4338935,21.7490017 36.183886,21.92 37.0478903,21.92 C37.4558924,21.92 37.8368885,21.8660005 38.1908903,21.758 C38.5448921,21.6499995 38.850889,21.494001 39.1088903,21.29 C39.3668916,21.085999 39.5678896,20.8370015 39.7118903,20.543 C39.855891,20.2489985 39.9278903,19.9220018 39.9278903,19.562 C39.9278903,19.1899981 39.8408912,18.8780013 39.6668903,18.626 C39.4928894,18.3739987 39.2558918,18.1610009 38.9558903,17.987 C38.6558888,17.8129991 38.2988924,17.6600007 37.8848903,17.528 C37.4708882,17.3959993 37.0238927,17.2640007 36.5438903,17.132 C36.0038876,16.9759992 35.5028926,16.802001 35.0408903,16.61 C34.578888,16.417999 34.179892,16.1810014 33.8438903,15.899 C33.5078886,15.6169986 33.2438913,15.2870019 33.0518903,14.909 C32.8598894,14.5309981 32.7638903,14.0780026 32.7638903,13.55 C32.7638903,13.0099973 32.8688893,12.5240022 33.0788903,12.092 C33.2888914,11.6599978 33.5858884,11.2910015 33.9698903,10.985 C34.3538922,10.6789985 34.8068877,10.4420008 35.3288903,10.274 C35.8508929,10.1059992 36.4298871,10.022 37.0658903,10.022 C37.9418947,10.022 38.7518866,10.1689985 39.4958903,10.463 C40.239894,10.7570015 40.8758877,11.1919971 41.4038903,11.768 L40.3058903,12.794 C39.9218884,12.3739979 39.4508931,12.0320013 38.8928903,11.768 C38.3348875,11.5039987 37.7198937,11.372 37.0478903,11.372 C36.2798865,11.372 35.6528927,11.5369983 35.1668903,11.867 C34.6808879,12.1970016 34.4378903,12.6979966 34.4378903,13.37 C34.4378903,13.7060017 34.5128896,13.9939988 34.6628903,14.234 C34.8128911,14.4740012 35.022889,14.6839991 35.2928903,14.864 C35.5628917,15.0440009 35.8808885,15.2029993 36.2468903,15.341 C36.6128921,15.4790007 37.0178881,15.6079994 37.4618903,15.728 C38.1218936,15.9080009 38.7098877,16.1029989 39.2258903,16.313 C39.7418929,16.5230011 40.1738886,16.7719986 40.5218903,17.06 C40.8698921,17.3480014 41.1338894,17.6809981 41.3138903,18.059 C41.4938912,18.4370019 41.5838903,18.8779975 41.5838903,19.382 C41.5838903,19.9940031 41.4638915,20.5429976 41.2238903,21.029 C40.9838891,21.5150024 40.6568924,21.9229984 40.2428903,22.253 C39.8288882,22.5830016 39.3428931,22.8349991 38.7848903,23.009 C38.2268875,23.1830009 37.6358934,23.27 37.0118903,23.27 C35.8598846,23.27 34.8878943,23.0870018 34.0958903,22.721 C33.3038864,22.3549982 32.6678927,21.8300034 32.1878903,21.146 L33.2858903,20.066 Z M43.4198903,14.144 L44.9318903,14.144 L44.9318903,19.508 C44.9318903,20.3480042 45.0878888,20.962998 45.3998903,21.353 C45.7118919,21.743002 46.1498875,21.938 46.7138903,21.938 C47.4338939,21.938 47.9948883,21.6530029 48.3968903,21.083 C48.7988923,20.5129972 48.9998903,19.7540047 48.9998903,18.806 L48.9998903,14.144 L50.4938903,14.144 L50.4938903,23 L49.0898903,23 L49.0898903,21.2 C48.9818898,21.4760014 48.8498911,21.7369988 48.6938903,21.983 C48.5378895,22.2290012 48.3458915,22.4449991 48.1178903,22.631 C47.8898892,22.8170009 47.6258918,22.9639995 47.3258903,23.072 C47.0258888,23.1800005 46.6718924,23.234 46.2638903,23.234 C45.3038855,23.234 44.5898927,22.9430029 44.1218903,22.361 C43.653888,21.7789971 43.4198903,20.9540053 43.4198903,19.886 L43.4198903,14.144 Z M52.7978903,10.292 L54.2918903,10.292 L54.2918903,15.71 C54.5318915,15.2059975 54.8888879,14.7770018 55.3628903,14.423 C55.8368927,14.0689982 56.4278868,13.892 57.1358903,13.892 C57.6518929,13.892 58.1228882,13.9999989 58.5488903,14.216 C58.9748924,14.4320011 59.3378888,14.740998 59.6378903,15.143 C59.9378918,15.545002 60.1688895,16.0279972 60.3308903,16.592 C60.4928911,17.1560028 60.5738903,17.7859965 60.5738903,18.482 C60.5738903,19.1660034 60.4928911,19.7989971 60.3308903,20.381 C60.1688895,20.9630029 59.9378918,21.4639979 59.6378903,21.884 C59.3378888,22.3040021 58.9688925,22.6339988 58.5308903,22.874 C58.0928881,23.1140012 57.5978931,23.234 57.0458903,23.234 C56.3978871,23.234 55.8218928,23.0690016 55.3178903,22.739 C54.8138878,22.4089983 54.4358916,21.9380031 54.1838903,21.326 L54.0038903,23 L52.7978903,23 L52.7978903,10.292 Z M54.2918903,18.608 C54.2918903,18.8720013 54.3008902,19.108999 54.3188903,19.319 C54.3368904,19.529001 54.3578902,19.7059993 54.3818903,19.85 C54.4298906,20.1380014 54.5198897,20.4139987 54.6518903,20.678 C54.783891,20.9420013 54.9458894,21.172999 55.1378903,21.371 C55.3298913,21.569001 55.554889,21.7279994 55.8128903,21.848 C56.0708916,21.9680006 56.3558888,22.028 56.6678903,22.028 C57.0758924,22.028 57.4268888,21.929001 57.7208903,21.731 C58.0148918,21.532999 58.2578894,21.2720016 58.4498903,20.948 C58.6418913,20.6239984 58.7828899,20.2550021 58.8728903,19.841 C58.9628908,19.4269979 59.0078903,19.0040022 59.0078903,18.572 C59.0078903,18.1279978 58.9598908,17.6990021 58.8638903,17.285 C58.7678898,16.8709979 58.6238913,16.5050016 58.4318903,16.187 C58.2398894,15.8689984 57.9938918,15.614001 57.6938903,15.422 C57.3938888,15.229999 57.0398924,15.134 56.6318903,15.134 C56.3078887,15.134 56.0168916,15.1909994 55.7588903,15.305 C55.500889,15.4190006 55.2758913,15.574999 55.0838903,15.773 C54.8918894,15.971001 54.7358909,16.2019987 54.6158903,16.466 C54.4958897,16.7300013 54.4118906,17.0119985 54.3638903,17.312 C54.3398902,17.4320006 54.3218904,17.5849991 54.3098903,17.771 C54.2978903,17.9570009 54.2918903,18.2179983 54.2918903,18.554 L54.2918903,18.608 Z M62.4818903,14.144 L63.7778903,14.144 L63.9398903,15.872 C64.1558914,15.2599969 64.491888,14.7770018 64.9478903,14.423 C65.4038926,14.0689982 65.961887,13.892 66.6218903,13.892 C67.3178938,13.892 67.8638883,14.089998 68.2598903,14.486 C68.6558923,14.882002 68.9078898,15.3619972 69.0158903,15.926 C69.1238909,15.6499986 69.2588895,15.3890012 69.4208903,15.143 C69.5828911,14.8969988 69.7778892,14.6810009 70.0058903,14.495 C70.2338915,14.3089991 70.4978888,14.1620005 70.7978903,14.054 C71.0978918,13.9459995 71.4398884,13.892 71.8238903,13.892 C72.3278928,13.892 72.7448887,13.9789991 73.0748903,14.153 C73.404892,14.3270009 73.6688893,14.5639985 73.8668903,14.864 C74.0648913,15.1640015 74.2058899,15.514998 74.2898903,15.917 C74.3738907,16.319002 74.4158903,16.7419978 74.4158903,17.186 L74.4158903,23 L72.9218903,23 L72.9218903,17.564 C72.9218903,16.771996 72.7808917,16.1810019 72.4988903,15.791 C72.2168889,15.400998 71.805893,15.206 71.2658903,15.206 C70.6778874,15.206 70.1858923,15.4669974 69.7898903,15.989 C69.3938883,16.5110026 69.1958903,17.2579951 69.1958903,18.23 L69.1958903,23 L67.7018903,23 L67.7018903,17.636 C67.7018903,16.8079959 67.5578918,16.196002 67.2698903,15.8 C66.9818889,15.403998 66.5798929,15.206 66.0638903,15.206 C65.4878874,15.206 64.9958924,15.4729973 64.5878903,16.007 C64.1798883,16.5410027 63.9758903,17.311995 63.9758903,18.32 L63.9758903,23 L62.4818903,23 L62.4818903,14.144 Z M76.6838903,10.706 L78.1778903,10.706 L78.1778903,12.2 L76.6838903,12.2 L76.6838903,10.706 Z M76.6838903,14.144 L78.1778903,14.144 L78.1778903,23 L76.6838903,23 L76.6838903,14.144 Z M81.2558903,15.17 L79.7438903,15.17 L79.7438903,14.144 L80.0678903,14.144 C80.4398922,14.144 80.7308893,14.1050004 80.9408903,14.027 C81.1508914,13.9489996 81.3098898,13.8290008 81.4178903,13.667 C81.5258909,13.5049992 81.6038901,13.2920013 81.6518903,13.028 C81.6998906,12.7639987 81.7418901,12.4400019 81.7778903,12.056 L81.8138903,11.732 L82.7498903,11.732 L82.7498903,14.144 L84.6578903,14.144 L84.6578903,15.17 L82.7498903,15.17 L82.7498903,20.678 C82.7498903,21.1820025 82.8248896,21.5449989 82.9748903,21.767 C83.1248911,21.9890011 83.4038883,22.1 83.8118903,22.1 C84.1358919,22.1 84.4358889,22.0280007 84.7118903,21.884 L84.8738903,22.964 C84.417888,23.168001 83.9138931,23.27 83.3618903,23.27 C82.9298882,23.27 82.5788917,23.2100006 82.3088903,23.09 C82.038889,22.9699994 81.8258911,22.808001 81.6698903,22.604 C81.5138895,22.399999 81.4058906,22.1540014 81.3458903,21.866 C81.28589,21.5779986 81.2558903,21.2660017 81.2558903,20.93 L81.2558903,15.17 Z" id="Button" fill="#FFFFFF"></path>
                    </g>
                </g>
            </g>
        </g>
    </g>
</svg>