<?xml version="1.0" encoding="UTF-8"?>
<svg width="381px" height="36px" viewBox="0 0 381 36" version="1.1" xmlns="http://www.w3.org/2000/svg" xmlns:xlink="http://www.w3.org/1999/xlink">
    <!-- Generator: Sketch 47 (45396) - http://www.bohemiancoding.com/sketch -->
    <title>Sequential</title>
    <desc>Created with Sketch.</desc>
    <defs>
        <rect id="path-1" x="0" y="0" width="122" height="36" rx="3"></rect>
        <rect id="path-2" x="0" y="0" width="122" height="36" rx="3"></rect>
    </defs>
    <g id="Page-1" stroke="none" stroke-width="1" fill="none" fill-rule="evenodd">
        <g id="Buttons-Usage-extra-large-1200" transform="translate(-744.000000, -3671.000000)">
            <g id="Group-Copy-5" transform="translate(733.000000, 3640.000000)">
                <g id="Sequential" transform="translate(11.000000, 31.000000)">
                    <g id="Button-Accent-Copy-4">
                        <g id="Button/BG/Accent">
                            <rect id="Rectangle" fill="#0D78AA" x="0" y="0" width="117" height="36" rx="3"></rect>
                            <path d="M42.098,21.044 C42.4700019,21.5960028 42.9739968,22.0429983 43.61,22.385 C44.2460032,22.7270017 44.9959957,22.898 45.86,22.898 C46.268002,22.898 46.6489982,22.8440005 47.003,22.736 C47.3570018,22.6279995 47.6629987,22.472001 47.921,22.268 C48.1790013,22.063999 48.3799993,21.8150015 48.524,21.521 C48.6680007,21.2269985 48.74,20.9000018 48.74,20.54 C48.74,20.1679981 48.6530009,19.8560013 48.479,19.604 C48.3049991,19.3519987 48.0680015,19.1390009 47.768,18.965 C47.4679985,18.7909991 47.1110021,18.6380007 46.697,18.506 C46.2829979,18.3739993 45.8360024,18.2420007 45.356,18.11 C44.8159973,17.9539992 44.3150023,17.780001 43.853,17.588 C43.3909977,17.395999 42.9920017,17.1590014 42.656,16.877 C42.3199983,16.5949986 42.056001,16.2650019 41.864,15.887 C41.671999,15.5089981 41.576,15.0560026 41.576,14.528 C41.576,13.9879973 41.6809989,13.5020022 41.891,13.07 C42.101001,12.6379978 42.3979981,12.2690015 42.782,11.963 C43.1660019,11.6569985 43.6189974,11.4200008 44.141,11.252 C44.6630026,11.0839992 45.2419968,11 45.878,11 C46.7540044,11 47.5639963,11.1469985 48.308,11.441 C49.0520037,11.7350015 49.6879974,12.1699971 50.216,12.746 L49.118,13.772 C48.7339981,13.3519979 48.2630028,13.0100013 47.705,12.746 C47.1469972,12.4819987 46.5320034,12.35 45.86,12.35 C45.0919962,12.35 44.4650024,12.5149983 43.979,12.845 C43.4929976,13.1750016 43.25,13.6759966 43.25,14.348 C43.25,14.6840017 43.3249992,14.9719988 43.475,15.212 C43.6250007,15.4520012 43.8349987,15.6619991 44.105,15.842 C44.3750013,16.0220009 44.6929982,16.1809993 45.059,16.319 C45.4250018,16.4570007 45.8299978,16.5859994 46.274,16.706 C46.9340033,16.8860009 47.5219974,17.080999 48.038,17.291 C48.5540026,17.5010011 48.9859983,17.7499986 49.334,18.038 C49.6820017,18.3260014 49.9459991,18.6589981 50.126,19.037 C50.3060009,19.4150019 50.396,19.8559975 50.396,20.36 C50.396,20.9720031 50.2760012,21.5209976 50.036,22.007 C49.7959988,22.4930024 49.4690021,22.9009984 49.055,23.231 C48.6409979,23.5610017 48.1550028,23.8129991 47.597,23.987 C47.0389972,24.1610009 46.4480031,24.248 45.824,24.248 C44.6719942,24.248 43.700004,24.0650018 42.908,23.699 C42.115996,23.3329982 41.4800024,22.8080034 41,22.124 L42.098,21.044 Z M57.83,23.978 C57.6979993,23.5459978 57.6200001,23.030003 57.596,22.43 C57.3559988,22.9820028 56.9870025,23.4229984 56.489,23.753 C55.9909975,24.0830016 55.4000034,24.248 54.716,24.248 C53.8519957,24.248 53.1680025,24.0020025 52.664,23.51 C52.1599975,23.0179975 51.908,22.3580041 51.908,21.53 C51.908,21.0619977 51.9919992,20.6690016 52.16,20.351 C52.3280008,20.0329984 52.5619985,19.769001 52.862,19.559 C53.1620015,19.348999 53.515998,19.1840006 53.924,19.064 C54.332002,18.9439994 54.7759976,18.8480004 55.256,18.776 L57.524,18.434 L57.524,17.876 C57.524,17.479998 57.4760005,17.1620012 57.38,16.922 C57.2839995,16.6819988 57.1520008,16.4960007 56.984,16.364 C56.8159992,16.2319993 56.6240011,16.1450002 56.408,16.103 C56.1919989,16.0609998 55.9640012,16.04 55.724,16.04 C55.0399966,16.04 54.4760022,16.1659987 54.032,16.418 C53.5879978,16.6700013 53.2160015,16.9879981 52.916,17.372 L52.142,16.4 C52.4900017,15.9799979 52.9729969,15.6200015 53.591,15.32 C54.2090031,15.0199985 54.9739954,14.87 55.886,14.87 C56.9900055,14.87 57.7909975,15.1159975 58.289,15.608 C58.7870025,16.1000025 59.036,16.8919945 59.036,17.984 L59.036,21.566 C59.036,21.8540014 59.039,22.1059989 59.045,22.322 C59.051,22.5380011 59.0629999,22.7389991 59.081,22.925 C59.0990001,23.1110009 59.1259998,23.2879992 59.162,23.456 C59.1980002,23.6240008 59.2459997,23.7979991 59.306,23.978 L57.83,23.978 Z M57.524,19.424 L55.4,19.766 C54.6679963,19.8980007 54.1490015,20.0959987 53.843,20.36 C53.5369985,20.6240013 53.384,20.9899977 53.384,21.458 C53.384,21.9380024 53.5249986,22.3399984 53.807,22.664 C54.0890014,22.9880016 54.5059972,23.15 55.058,23.15 C55.3940017,23.15 55.7119985,23.0840007 56.012,22.952 C56.3120015,22.8199993 56.5729989,22.6370012 56.795,22.403 C57.0170011,22.1689988 57.1939993,21.8870017 57.326,21.557 C57.4580007,21.2269984 57.524,20.864002 57.524,20.468 L57.524,19.424 Z M60.746,15.122 L62.438,15.122 L64.598,22.574 L66.74,15.122 L68.36,15.122 L65.444,23.978 L63.644,23.978 L60.746,15.122 Z M71.096,19.892 C71.1560003,20.9120051 71.4169977,21.7009972 71.879,22.259 C72.3410023,22.8170028 72.9859959,23.096 73.814,23.096 C74.8580052,23.096 75.6439974,22.6040049 76.172,21.62 L77.306,22.25 C76.9579983,22.8380029 76.4960029,23.3179981 75.92,23.69 C75.3439971,24.0620019 74.6180044,24.248 73.742,24.248 C73.0459965,24.248 72.4370026,24.1280012 71.915,23.888 C71.3929974,23.6479988 70.9580017,23.3180021 70.61,22.898 C70.2619983,22.4779979 70.0010009,21.9860028 69.827,21.422 C69.6529991,20.8579972 69.566,20.2520032 69.566,19.604 C69.566,18.9679968 69.6499992,18.3620029 69.818,17.786 C69.9860008,17.2099971 70.2409983,16.7060022 70.583,16.274 C70.9250017,15.8419978 71.3449975,15.5000013 71.843,15.248 C72.3410025,14.9959987 72.9259966,14.87 73.598,14.87 C74.2460032,14.87 74.8099976,14.9929988 75.29,15.239 C75.7700024,15.4850012 76.1689984,15.8149979 76.487,16.229 C76.8050016,16.6430021 77.0449992,17.1229973 77.207,17.669 C77.3690008,18.2150027 77.45,18.7939969 77.45,19.406 C77.45,19.5380007 77.447,19.6399996 77.441,19.712 C77.435,19.7840004 77.432,19.8439998 77.432,19.892 L71.096,19.892 Z M73.58,16.004 C72.8239962,16.004 72.2390021,16.2739973 71.825,16.814 C71.4109979,17.3540027 71.1740003,18.0799954 71.114,18.992 L75.92,18.992 C75.92,18.6199981 75.8780004,18.2570018 75.794,17.903 C75.7099996,17.5489982 75.572001,17.2310014 75.38,16.949 C75.187999,16.6669986 74.9450015,16.4390009 74.651,16.265 C74.3569985,16.0909991 74.0000021,16.004 73.58,16.004 Z" id="Button" fill="#FFFFFF"></path>
                        </g>
                    </g>
                    <g id="Button-Regular-Copy-3" transform="translate(127.000000, 0.000000)">
                        <g id="Button/BG/Accent">
                            <g id="Rectangle">
                                <use fill="#F5F5F6" fill-rule="evenodd" xlink:href="#path-1"></use>
                                <rect stroke="#A9B1B5" stroke-width="1" x="0.5" y="0.5" width="121" height="35" rx="3"></rect>
                            </g>
                            <path d="M48,12 L55.56,12 L55.56,13.26 L49.62,13.26 L49.62,17.436 L54.246,17.436 L54.246,18.696 L49.62,18.696 L49.62,23.448 L55.812,23.448 L55.812,24.708 L48,24.708 L48,12 Z M63.678,22.98 C63.4379988,23.580003 63.0840023,24.0539983 62.616,24.402 C62.1479977,24.7500017 61.5660035,24.924 60.87,24.924 C60.3179972,24.924 59.8230022,24.8100011 59.385,24.582 C58.9469978,24.3539989 58.5750015,24.036002 58.269,23.628 C57.9629985,23.219998 57.7290008,22.7280029 57.567,22.152 C57.4049992,21.5759971 57.324,20.9400035 57.324,20.244 C57.324,19.5239964 57.4079992,18.8790029 57.576,18.309 C57.7440008,17.7389971 57.9839984,17.256002 58.296,16.86 C58.6080016,16.463998 58.9829978,16.1580011 59.421,15.942 C59.8590022,15.7259989 60.3419974,15.618 60.87,15.618 C61.5900036,15.618 62.1779977,15.7889983 62.634,16.131 C63.0900023,16.4730017 63.413999,16.8839976 63.606,17.364 L63.606,12 L65.118,12 L65.118,24.708 L63.678,24.708 L63.678,22.98 Z M63.606,20.226 C63.606,19.8539981 63.5970001,19.5630011 63.579,19.353 C63.5609999,19.142999 63.5400001,18.9720007 63.516,18.84 C63.4559997,18.5759987 63.3660006,18.3240012 63.246,18.084 C63.1259994,17.8439988 62.9730009,17.6310009 62.787,17.445 C62.6009991,17.2589991 62.3820013,17.1120005 62.13,17.004 C61.8779987,16.8959995 61.5900016,16.842 61.266,16.842 C60.857998,16.842 60.5070015,16.9319991 60.213,17.112 C59.9189985,17.2920009 59.673001,17.5349985 59.475,17.841 C59.276999,18.1470015 59.1300005,18.5069979 59.034,18.921 C58.9379995,19.3350021 58.89,19.7759977 58.89,20.244 C58.89,20.7480025 58.9439995,21.2129979 59.052,21.639 C59.1600005,22.0650021 59.315999,22.4309985 59.52,22.737 C59.724001,23.0430015 59.9759985,23.2829991 60.276,23.457 C60.5760015,23.6310009 60.9179981,23.718 61.302,23.718 C61.6020015,23.718 61.8749988,23.6640005 62.121,23.556 C62.3670012,23.4479995 62.5829991,23.298001 62.769,23.106 C62.9550009,22.913999 63.1079994,22.6950012 63.228,22.449 C63.3480006,22.2029988 63.4379997,21.9420014 63.498,21.666 C63.5700004,21.3299983 63.606,20.8800028 63.606,20.316 L63.606,20.226 Z M67.404,12.414 L68.898,12.414 L68.898,13.908 L67.404,13.908 L67.404,12.414 Z M67.404,15.852 L68.898,15.852 L68.898,24.708 L67.404,24.708 L67.404,15.852 Z M71.976,16.878 L70.464,16.878 L70.464,15.852 L70.788,15.852 C71.1600019,15.852 71.4509989,15.8130004 71.661,15.735 C71.871001,15.6569996 72.0299995,15.5370008 72.138,15.375 C72.2460005,15.2129992 72.3239998,15.0000013 72.372,14.736 C72.4200002,14.4719987 72.4619998,14.1480019 72.498,13.764 L72.534,13.44 L73.47,13.44 L73.47,15.852 L75.378,15.852 L75.378,16.878 L73.47,16.878 L73.47,22.386 C73.47,22.8900025 73.5449993,23.2529989 73.695,23.475 C73.8450007,23.6970011 74.123998,23.808 74.532,23.808 C74.8560016,23.808 75.1559986,23.7360007 75.432,23.592 L75.594,24.672 C75.1379977,24.876001 74.6340028,24.978 74.082,24.978 C73.6499978,24.978 73.2990013,24.9180006 73.029,24.798 C72.7589986,24.6779994 72.5460008,24.516001 72.39,24.312 C72.2339992,24.107999 72.1260003,23.8620014 72.066,23.574 C72.0059997,23.2859986 71.976,22.9740017 71.976,22.638 L71.976,16.878 Z" id="Button-Copy" fill="#000000"></path>
                        </g>
                    </g>
                    <g id="Button-Regular-Copy-4" transform="translate(259.000000, 0.000000)">
                        <g id="Button/BG/Accent">
                            <g id="Rectangle">
                                <use fill="#F5F5F6" fill-rule="evenodd" xlink:href="#path-2"></use>
                                <rect stroke="#A9B1B5" stroke-width="1" x="0.5" y="0.5" width="121" height="35" rx="3"></rect>
                            </g>
                            <path d="M41.098,21.044 C41.4700019,21.5960028 41.9739968,22.0429983 42.61,22.385 C43.2460032,22.7270017 43.9959957,22.898 44.86,22.898 C45.268002,22.898 45.6489982,22.8440005 46.003,22.736 C46.3570018,22.6279995 46.6629987,22.472001 46.921,22.268 C47.1790013,22.063999 47.3799993,21.8150015 47.524,21.521 C47.6680007,21.2269985 47.74,20.9000018 47.74,20.54 C47.74,20.1679981 47.6530009,19.8560013 47.479,19.604 C47.3049991,19.3519987 47.0680015,19.1390009 46.768,18.965 C46.4679985,18.7909991 46.1110021,18.6380007 45.697,18.506 C45.2829979,18.3739993 44.8360024,18.2420007 44.356,18.11 C43.8159973,17.9539992 43.3150023,17.780001 42.853,17.588 C42.3909977,17.395999 41.9920017,17.1590014 41.656,16.877 C41.3199983,16.5949986 41.056001,16.2650019 40.864,15.887 C40.671999,15.5089981 40.576,15.0560026 40.576,14.528 C40.576,13.9879973 40.680999,13.5020022 40.891,13.07 C41.1010011,12.6379978 41.3979981,12.2690015 41.782,11.963 C42.1660019,11.6569985 42.6189974,11.4200008 43.141,11.252 C43.6630026,11.0839992 44.2419968,11 44.878,11 C45.7540044,11 46.5639963,11.1469985 47.308,11.441 C48.0520037,11.7350015 48.6879974,12.1699971 49.216,12.746 L48.118,13.772 C47.7339981,13.3519979 47.2630028,13.0100013 46.705,12.746 C46.1469972,12.4819987 45.5320034,12.35 44.86,12.35 C44.0919962,12.35 43.4650024,12.5149983 42.979,12.845 C42.4929976,13.1750016 42.25,13.6759966 42.25,14.348 C42.25,14.6840017 42.3249993,14.9719988 42.475,15.212 C42.6250008,15.4520012 42.8349987,15.6619991 43.105,15.842 C43.3750013,16.0220009 43.6929982,16.1809993 44.059,16.319 C44.4250018,16.4570007 44.8299978,16.5859994 45.274,16.706 C45.9340033,16.8860009 46.5219974,17.080999 47.038,17.291 C47.5540026,17.5010011 47.9859983,17.7499986 48.334,18.038 C48.6820017,18.3260014 48.9459991,18.6589981 49.126,19.037 C49.3060009,19.4150019 49.396,19.8559975 49.396,20.36 C49.396,20.9720031 49.2760012,21.5209976 49.036,22.007 C48.7959988,22.4930024 48.4690021,22.9009984 48.055,23.231 C47.6409979,23.5610017 47.1550028,23.8129991 46.597,23.987 C46.0389972,24.1610009 45.4480031,24.248 44.824,24.248 C43.6719942,24.248 42.700004,24.0650018 41.908,23.699 C41.115996,23.3329982 40.4800024,22.8080034 40,22.124 L41.098,21.044 Z M51.268,11.27 L52.762,11.27 L52.762,16.868 C52.8700005,16.6039987 53.0079992,16.3520012 53.176,16.112 C53.3440008,15.8719988 53.5479988,15.6590009 53.788,15.473 C54.0280012,15.2869991 54.3039984,15.1400005 54.616,15.032 C54.9280016,14.9239995 55.2759981,14.87 55.66,14.87 C56.5840046,14.87 57.2649978,15.172997 57.703,15.779 C58.1410022,16.385003 58.36,17.2039948 58.36,18.236 L58.36,23.978 L56.866,23.978 L56.866,18.47 C56.866,17.7139962 56.7100016,17.1470019 56.398,16.769 C56.0859984,16.3909981 55.6420029,16.202 55.066,16.202 C54.7299983,16.202 54.4210014,16.2739993 54.139,16.418 C53.8569986,16.5620007 53.614001,16.7659987 53.41,17.03 C53.205999,17.2940013 53.0470006,17.6119981 52.933,17.984 C52.8189994,18.3560019 52.762,18.7639978 52.762,19.208 L52.762,23.978 L51.268,23.978 L51.268,11.27 Z M66.19,23.978 C66.0579993,23.5459978 65.9800001,23.030003 65.956,22.43 C65.7159988,22.9820028 65.3470025,23.4229984 64.849,23.753 C64.3509975,24.0830016 63.7600034,24.248 63.076,24.248 C62.2119957,24.248 61.5280025,24.0020025 61.024,23.51 C60.5199975,23.0179975 60.268,22.3580041 60.268,21.53 C60.268,21.0619977 60.3519992,20.6690016 60.52,20.351 C60.6880008,20.0329984 60.9219985,19.769001 61.222,19.559 C61.5220015,19.348999 61.875998,19.1840006 62.284,19.064 C62.692002,18.9439994 63.1359976,18.8480004 63.616,18.776 L65.884,18.434 L65.884,17.876 C65.884,17.479998 65.8360005,17.1620012 65.74,16.922 C65.6439995,16.6819988 65.5120008,16.4960007 65.344,16.364 C65.1759992,16.2319993 64.9840011,16.1450002 64.768,16.103 C64.5519989,16.0609998 64.3240012,16.04 64.084,16.04 C63.3999966,16.04 62.8360022,16.1659987 62.392,16.418 C61.9479978,16.6700013 61.5760015,16.9879981 61.276,17.372 L60.502,16.4 C60.8500017,15.9799979 61.3329969,15.6200015 61.951,15.32 C62.5690031,15.0199985 63.3339954,14.87 64.246,14.87 C65.3500055,14.87 66.1509975,15.1159975 66.649,15.608 C67.1470025,16.1000025 67.396,16.8919945 67.396,17.984 L67.396,21.566 C67.396,21.8540014 67.399,22.1059989 67.405,22.322 C67.411,22.5380011 67.4229999,22.7389991 67.441,22.925 C67.4590001,23.1110009 67.4859998,23.2879992 67.522,23.456 C67.5580002,23.6240008 67.6059997,23.7979991 67.666,23.978 L66.19,23.978 Z M65.884,19.424 L63.76,19.766 C63.0279963,19.8980007 62.5090015,20.0959987 62.203,20.36 C61.8969985,20.6240013 61.744,20.9899977 61.744,21.458 C61.744,21.9380024 61.8849986,22.3399984 62.167,22.664 C62.4490014,22.9880016 62.8659972,23.15 63.418,23.15 C63.7540017,23.15 64.0719985,23.0840007 64.372,22.952 C64.6720015,22.8199993 64.9329989,22.6370012 65.155,22.403 C65.3770011,22.1689988 65.5539993,21.8870017 65.686,21.557 C65.8180007,21.2269984 65.884,20.864002 65.884,20.468 L65.884,19.424 Z M69.79,15.122 L71.086,15.122 L71.23,17.102 C71.4820013,16.4539968 71.8839972,15.9200021 72.436,15.5 C72.9880028,15.0799979 73.6419962,14.87 74.398,14.87 L74.398,16.454 C74.2299992,16.4179998 74.044001,16.4 73.84,16.4 C73.5399985,16.4 73.2400015,16.4539995 72.94,16.562 C72.6399985,16.6700005 72.3670012,16.8439988 72.121,17.084 C71.8749988,17.3240012 71.6740008,17.6329981 71.518,18.011 C71.3619992,18.3890019 71.284,18.8479973 71.284,19.388 L71.284,23.978 L69.79,23.978 L69.79,15.122 Z M77.008,19.892 C77.0680003,20.9120051 77.3289977,21.7009972 77.791,22.259 C78.2530023,22.8170028 78.8979959,23.096 79.726,23.096 C80.7700052,23.096 81.5559974,22.6040049 82.084,21.62 L83.218,22.25 C82.8699983,22.8380029 82.4080029,23.3179981 81.832,23.69 C81.2559971,24.0620019 80.5300044,24.248 79.654,24.248 C78.9579965,24.248 78.3490026,24.1280012 77.827,23.888 C77.3049974,23.6479988 76.8700017,23.3180021 76.522,22.898 C76.1739983,22.4779979 75.9130009,21.9860028 75.739,21.422 C75.5649991,20.8579972 75.478,20.2520032 75.478,19.604 C75.478,18.9679968 75.5619992,18.3620029 75.73,17.786 C75.8980008,17.2099971 76.1529983,16.7060022 76.495,16.274 C76.8370017,15.8419978 77.2569975,15.5000013 77.755,15.248 C78.2530025,14.9959987 78.8379966,14.87 79.51,14.87 C80.1580032,14.87 80.7219976,14.9929988 81.202,15.239 C81.6820024,15.4850012 82.0809984,15.8149979 82.399,16.229 C82.7170016,16.6430021 82.9569992,17.1229973 83.119,17.669 C83.2810008,18.2150027 83.362,18.7939969 83.362,19.406 C83.362,19.5380007 83.359,19.6399996 83.353,19.712 C83.347,19.7840004 83.344,19.8439998 83.344,19.892 L77.008,19.892 Z M79.492,16.004 C78.7359962,16.004 78.1510021,16.2739973 77.737,16.814 C77.3229979,17.3540027 77.0860003,18.0799954 77.026,18.992 L81.832,18.992 C81.832,18.6199981 81.7900004,18.2570018 81.706,17.903 C81.6219996,17.5489982 81.484001,17.2310014 81.292,16.949 C81.099999,16.6669986 80.8570015,16.4390009 80.563,16.265 C80.2689985,16.0909991 79.9120021,16.004 79.492,16.004 Z" id="Button-Copy" fill="#000000"></path>
                        </g>
                    </g>
                </g>
            </g>
        </g>
    </g>
</svg>