<?xml version="1.0" encoding="UTF-8"?>
<svg width="372px" height="36px" viewBox="0 0 372 36" version="1.1" xmlns="http://www.w3.org/2000/svg" xmlns:xlink="http://www.w3.org/1999/xlink">
    <!-- Generator: Sketch 47 (45396) - http://www.bohemiancoding.com/sketch -->
    <title>Cluttered</title>
    <desc>Created with Sketch.</desc>
    <defs>
        <rect id="path-1" x="0" y="0" width="90" height="36" rx="3"></rect>
        <rect id="path-2" x="0" y="0" width="90" height="36" rx="3"></rect>
        <rect id="path-3" x="0" y="0" width="90" height="36" rx="3"></rect>
    </defs>
    <g id="Page-1" stroke="none" stroke-width="1" fill="none" fill-rule="evenodd">
        <g id="Buttons-Usage-extra-large-1200" transform="translate(-742.000000, -3266.000000)">
            <g id="Group-2-Copy-2" transform="translate(730.000000, 3235.000000)">
                <g id="Cluttered" transform="translate(12.000000, 31.000000)">
                    <g id="Button-Accent" transform="translate(282.000000, 0.000000)">
                        <g id="Button/BG/Accent">
                            <rect id="Rectangle" fill="#0D78AA" x="0" y="0" width="90" height="36" rx="3"></rect>
                            <path d="M40.796,24.248 C39.9319957,24.248 39.1460035,24.0920016 38.438,23.78 C37.7299965,23.4679984 37.1210026,23.0210029 36.611,22.439 C36.1009974,21.8569971 35.7050014,21.1550041 35.423,20.333 C35.1409986,19.5109959 35,18.596005 35,17.588 C35,16.5679949 35.1409986,15.653004 35.423,14.843 C35.7050014,14.032996 36.1009974,13.3430028 36.611,12.773 C37.1210026,12.2029972 37.7299965,11.7650015 38.438,11.459 C39.1460035,11.1529985 39.9319957,11 40.796,11 C41.6600043,11 42.4489964,11.1529985 43.163,11.459 C43.8770036,11.7650015 44.4889974,12.2029972 44.999,12.773 C45.5090025,13.3430028 45.9079986,14.032996 46.196,14.843 C46.4840014,15.653004 46.628,16.5679949 46.628,17.588 C46.628,18.596005 46.4840014,19.5109959 46.196,20.333 C45.9079986,21.1550041 45.5030026,21.8569971 44.981,22.439 C44.4589974,23.0210029 43.8410036,23.4679984 43.127,23.78 C42.4129964,24.0920016 41.6360042,24.248 40.796,24.248 Z M40.796,22.844 C41.4320032,22.844 42.0019975,22.7180013 42.506,22.466 C43.0100025,22.2139987 43.4389982,21.8570023 43.793,21.395 C44.1470018,20.9329977 44.4169991,20.3780032 44.603,19.73 C44.7890009,19.0819968 44.882,18.3680039 44.882,17.588 C44.882,16.8319962 44.7890009,16.1360032 44.603,15.5 C44.4169991,14.8639968 44.1500017,14.3180023 43.802,13.862 C43.4539983,13.4059977 43.0220026,13.0490013 42.506,12.791 C41.9899974,12.5329987 41.4080032,12.404 40.76,12.404 C40.1119968,12.404 39.5390025,12.5329987 39.041,12.791 C38.5429975,13.0490013 38.1230017,13.4059977 37.781,13.862 C37.4389983,14.3180023 37.1780009,14.8639968 36.998,15.5 C36.8179991,16.1360032 36.728,16.8319962 36.728,17.588 C36.728,18.3680039 36.823999,19.0819968 37.016,19.73 C37.208001,20.3780032 37.4839982,20.9329977 37.844,21.395 C38.2040018,21.8570023 38.6329975,22.2139987 39.131,22.466 C39.6290025,22.7180013 40.1839969,22.844 40.796,22.844 Z M48.536,11.27 L50.03,11.27 L50.03,19.262 L54.044,15.122 L55.916,15.122 L52.442,18.506 L56.366,23.978 L54.62,23.978 L51.47,19.442 L50.03,20.828 L50.03,23.978 L48.536,23.978 L48.536,11.27 Z" id="Button" fill="#FFFFFF"></path>
                        </g>
                    </g>
                    <g id="Button-Regular" transform="translate(94.000000, 0.000000)">
                        <g id="Button/BG/Accent">
                            <g id="Rectangle">
                                <use fill="#F5F5F6" fill-rule="evenodd" xlink:href="#path-1"></use>
                                <rect stroke="#A9B1B5" stroke-width="1" x="0.5" y="0.5" width="89" height="35" rx="3"></rect>
                            </g>
                            <path d="M21,12 L25.284,12 C25.8000026,12 26.3069975,12.0509995 26.805,12.153 C27.3030025,12.2550005 27.7439981,12.4289988 28.128,12.675 C28.5120019,12.9210012 28.8209988,13.247998 29.055,13.656 C29.2890012,14.064002 29.406,14.567997 29.406,15.168 C29.406,15.9480039 29.1750023,16.5899975 28.713,17.094 C28.2509977,17.5980025 27.6120041,17.9159993 26.796,18.048 C27.2160021,18.1080003 27.6089982,18.2159992 27.975,18.372 C28.3410018,18.5280008 28.6589986,18.7379987 28.929,19.002 C29.1990013,19.2660013 29.4089992,19.5809982 29.559,19.947 C29.7090007,20.3130018 29.784,20.7359976 29.784,21.216 C29.784,21.8640032 29.6730011,22.4129978 29.451,22.863 C29.2289989,23.3130023 28.9260019,23.6729987 28.542,23.943 C28.1579981,24.2130014 27.7020026,24.4079994 27.174,24.528 C26.6459974,24.6480006 26.0700031,24.708 25.446,24.708 L21,24.708 L21,12 Z M24.708,17.454 C25.0560017,17.454 25.4069982,17.4330002 25.761,17.391 C26.1150018,17.3489998 26.4359986,17.2500008 26.724,17.094 C27.0120014,16.9379992 27.2459991,16.7160014 27.426,16.428 C27.6060009,16.1399986 27.696,15.7500025 27.696,15.258 C27.696,14.861998 27.6240007,14.5350013 27.48,14.277 C27.3359993,14.0189987 27.1380013,13.8150008 26.886,13.665 C26.6339987,13.5149993 26.3460016,13.4100003 26.022,13.35 C25.6979984,13.2899997 25.3560018,13.26 24.996,13.26 L22.62,13.26 L22.62,17.454 L24.708,17.454 Z M25.194,23.448 C25.5540018,23.448 25.9049983,23.4120004 26.247,23.34 C26.5890017,23.2679996 26.8949986,23.1420009 27.165,22.962 C27.4350014,22.7819991 27.6509992,22.5360016 27.813,22.224 C27.9750008,21.9119984 28.056,21.5160024 28.056,21.036 C28.056,20.5919978 27.9690009,20.2200015 27.795,19.92 C27.6209991,19.6199985 27.3900014,19.3800009 27.102,19.2 C26.8139986,19.0199991 26.4870018,18.8910004 26.121,18.813 C25.7549982,18.7349996 25.3800019,18.696 24.996,18.696 L22.62,18.696 L22.62,23.448 L25.194,23.448 Z M31.674,15.852 L33.186,15.852 L33.186,21.216 C33.186,22.0560042 33.3419984,22.670998 33.654,23.061 C33.9660016,23.451002 34.4039972,23.646 34.968,23.646 C35.6880036,23.646 36.248998,23.3610029 36.651,22.791 C37.053002,22.2209972 37.254,21.4620047 37.254,20.514 L37.254,15.852 L38.748,15.852 L38.748,24.708 L37.344,24.708 L37.344,22.908 C37.2359995,23.1840014 37.1040008,23.4449988 36.948,23.691 C36.7919992,23.9370012 36.6000011,24.1529991 36.372,24.339 C36.1439989,24.5250009 35.8800015,24.6719995 35.58,24.78 C35.2799985,24.8880005 34.926002,24.942 34.518,24.942 C33.5579952,24.942 32.8440023,24.6510029 32.376,24.069 C31.9079977,23.4869971 31.674,22.6620053 31.674,21.594 L31.674,15.852 Z M41.826,16.878 L40.314,16.878 L40.314,15.852 L40.638,15.852 C41.0100019,15.852 41.300999,15.8130004 41.511,15.735 C41.721001,15.6569996 41.8799995,15.5370008 41.988,15.375 C42.0960005,15.2129992 42.1739998,15.0000013 42.222,14.736 C42.2700002,14.4719987 42.3119998,14.1480019 42.348,13.764 L42.384,13.44 L43.32,13.44 L43.32,15.852 L45.228,15.852 L45.228,16.878 L43.32,16.878 L43.32,22.386 C43.32,22.8900025 43.3949992,23.2529989 43.545,23.475 C43.6950008,23.6970011 43.973998,23.808 44.382,23.808 C44.7060016,23.808 45.0059986,23.7360007 45.282,23.592 L45.444,24.672 C44.9879977,24.876001 44.4840028,24.978 43.932,24.978 C43.4999978,24.978 43.1490014,24.9180006 42.879,24.798 C42.6089987,24.6779994 42.3960008,24.516001 42.24,24.312 C42.0839992,24.107999 41.9760003,23.8620014 41.916,23.574 C41.8559997,23.2859986 41.826,22.9740017 41.826,22.638 L41.826,16.878 Z M47.802,16.878 L46.29,16.878 L46.29,15.852 L46.614,15.852 C46.9860019,15.852 47.276999,15.8130004 47.487,15.735 C47.6970011,15.6569996 47.8559995,15.5370008 47.964,15.375 C48.0720005,15.2129992 48.1499998,15.0000013 48.198,14.736 C48.2460002,14.4719987 48.2879998,14.1480019 48.324,13.764 L48.36,13.44 L49.296,13.44 L49.296,15.852 L51.204,15.852 L51.204,16.878 L49.296,16.878 L49.296,22.386 C49.296,22.8900025 49.3709993,23.2529989 49.521,23.475 C49.6710008,23.6970011 49.949998,23.808 50.358,23.808 C50.6820016,23.808 50.9819986,23.7360007 51.258,23.592 L51.42,24.672 C50.9639977,24.876001 50.4600028,24.978 49.908,24.978 C49.4759978,24.978 49.1250014,24.9180006 48.855,24.798 C48.5849987,24.6779994 48.3720008,24.516001 48.216,24.312 C48.0599992,24.107999 47.9520003,23.8620014 47.892,23.574 C47.8319997,23.2859986 47.802,22.9740017 47.802,22.638 L47.802,16.878 Z M56.676,24.978 C56.0039966,24.978 55.4130026,24.8550012 54.903,24.609 C54.3929975,24.3629988 53.9670017,24.0270021 53.625,23.601 C53.2829983,23.1749979 53.0280008,22.6770028 52.86,22.107 C52.6919992,21.5369972 52.608,20.9220033 52.608,20.262 C52.608,19.6019967 52.6949991,18.9900028 52.869,18.426 C53.0430009,17.8619972 53.3009983,17.3700021 53.643,16.95 C53.9850017,16.5299979 54.4109975,16.2000012 54.921,15.96 C55.4310026,15.7199988 56.0159967,15.6 56.676,15.6 C57.3360033,15.6 57.9209975,15.7199988 58.431,15.96 C58.9410026,16.2000012 59.3699983,16.5269979 59.718,16.941 C60.0660017,17.3550021 60.3269991,17.8469972 60.501,18.417 C60.6750009,18.9870028 60.762,19.6019967 60.762,20.262 C60.762,20.9220033 60.6750009,21.5369972 60.501,22.107 C60.3269991,22.6770028 60.0660017,23.1749979 59.718,23.601 C59.3699983,24.0270021 58.9410026,24.3629988 58.431,24.609 C57.9209975,24.8550012 57.3360033,24.978 56.676,24.978 Z M56.712,23.808 C57.120002,23.808 57.4799984,23.7180009 57.792,23.538 C58.1040016,23.3579991 58.361999,23.1090016 58.566,22.791 C58.770001,22.4729984 58.9259995,22.0980022 59.034,21.666 C59.1420005,21.2339978 59.196,20.7660025 59.196,20.262 C59.196,19.7579975 59.1420005,19.2930021 59.034,18.867 C58.9259995,18.4409979 58.7640011,18.0720016 58.548,17.76 C58.3319989,17.4479984 58.0680016,17.2050009 57.756,17.031 C57.4439984,16.8569991 57.084002,16.77 56.676,16.77 C56.2559979,16.77 55.8900016,16.8569991 55.578,17.031 C55.2659984,17.2050009 55.008001,17.4479984 54.804,17.76 C54.599999,18.0720016 54.4440005,18.4409979 54.336,18.867 C54.2279995,19.2930021 54.174,19.7579975 54.174,20.262 C54.174,20.7660025 54.2279995,21.2339978 54.336,21.666 C54.4440005,22.0980022 54.6029989,22.4729984 54.813,22.791 C55.0230011,23.1090016 55.2869984,23.3579991 55.605,23.538 C55.9230016,23.7180009 56.2919979,23.808 56.712,23.808 Z M62.67,15.852 L63.966,15.852 L64.128,17.616 C64.3560011,17.0759973 64.7189975,16.605002 65.217,16.203 C65.7150025,15.800998 66.3299963,15.6 67.062,15.6 C67.9860046,15.6 68.6669978,15.8939971 69.105,16.482 C69.5430022,17.0700029 69.762,17.8919947 69.762,18.948 L69.762,24.708 L68.268,24.708 L68.268,19.254 C68.268,18.449996 68.1060016,17.8590019 67.782,17.481 C67.4579984,17.1029981 67.0200028,16.914 66.468,16.914 C65.8079967,16.914 65.2590022,17.1839973 64.821,17.724 C64.3829978,18.2640027 64.164,19.0259951 64.164,20.01 L64.164,24.708 L62.67,24.708 L62.67,15.852 Z" id="Button-Copy" fill="#000000"></path>
                        </g>
                    </g>
                    <g id="Button-Regular-Copy-2">
                        <g id="Button/BG/Accent">
                            <g id="Rectangle">
                                <use fill="#F5F5F6" fill-rule="evenodd" xlink:href="#path-2"></use>
                                <rect stroke="#A9B1B5" stroke-width="1" x="0.5" y="0.5" width="89" height="35" rx="3"></rect>
                            </g>
                            <path d="M21,12 L25.284,12 C25.8000026,12 26.3069975,12.0509995 26.805,12.153 C27.3030025,12.2550005 27.7439981,12.4289988 28.128,12.675 C28.5120019,12.9210012 28.8209988,13.247998 29.055,13.656 C29.2890012,14.064002 29.406,14.567997 29.406,15.168 C29.406,15.9480039 29.1750023,16.5899975 28.713,17.094 C28.2509977,17.5980025 27.6120041,17.9159993 26.796,18.048 C27.2160021,18.1080003 27.6089982,18.2159992 27.975,18.372 C28.3410018,18.5280008 28.6589987,18.7379987 28.929,19.002 C29.1990013,19.2660013 29.4089992,19.5809982 29.559,19.947 C29.7090007,20.3130018 29.784,20.7359976 29.784,21.216 C29.784,21.8640032 29.6730011,22.4129978 29.451,22.863 C29.2289989,23.3130023 28.9260019,23.6729987 28.542,23.943 C28.1579981,24.2130014 27.7020026,24.4079994 27.174,24.528 C26.6459974,24.6480006 26.0700031,24.708 25.446,24.708 L21,24.708 L21,12 Z M24.708,17.454 C25.0560017,17.454 25.4069982,17.4330002 25.761,17.391 C26.1150018,17.3489998 26.4359986,17.2500008 26.724,17.094 C27.0120014,16.9379992 27.2459991,16.7160014 27.426,16.428 C27.6060009,16.1399986 27.696,15.7500025 27.696,15.258 C27.696,14.861998 27.6240007,14.5350013 27.48,14.277 C27.3359993,14.0189987 27.1380013,13.8150008 26.886,13.665 C26.6339987,13.5149993 26.3460016,13.4100003 26.022,13.35 C25.6979984,13.2899997 25.3560018,13.26 24.996,13.26 L22.62,13.26 L22.62,17.454 L24.708,17.454 Z M25.194,23.448 C25.5540018,23.448 25.9049983,23.4120004 26.247,23.34 C26.5890017,23.2679996 26.8949986,23.1420009 27.165,22.962 C27.4350014,22.7819991 27.6509992,22.5360016 27.813,22.224 C27.9750008,21.9119984 28.056,21.5160024 28.056,21.036 C28.056,20.5919978 27.9690009,20.2200015 27.795,19.92 C27.6209991,19.6199985 27.3900014,19.3800009 27.102,19.2 C26.8139986,19.0199991 26.4870018,18.8910004 26.121,18.813 C25.7549982,18.7349996 25.3800019,18.696 24.996,18.696 L22.62,18.696 L22.62,23.448 L25.194,23.448 Z M31.674,15.852 L33.186,15.852 L33.186,21.216 C33.186,22.0560042 33.3419984,22.670998 33.654,23.061 C33.9660016,23.451002 34.4039972,23.646 34.968,23.646 C35.6880036,23.646 36.248998,23.3610029 36.651,22.791 C37.053002,22.2209972 37.254,21.4620047 37.254,20.514 L37.254,15.852 L38.748,15.852 L38.748,24.708 L37.344,24.708 L37.344,22.908 C37.2359995,23.1840014 37.1040008,23.4449988 36.948,23.691 C36.7919992,23.9370012 36.6000011,24.1529991 36.372,24.339 C36.1439989,24.5250009 35.8800015,24.6719995 35.58,24.78 C35.2799985,24.8880005 34.926002,24.942 34.518,24.942 C33.5579952,24.942 32.8440023,24.6510029 32.376,24.069 C31.9079977,23.4869971 31.674,22.6620053 31.674,21.594 L31.674,15.852 Z M41.826,16.878 L40.314,16.878 L40.314,15.852 L40.638,15.852 C41.0100019,15.852 41.3009989,15.8130004 41.511,15.735 C41.721001,15.6569996 41.8799995,15.5370008 41.988,15.375 C42.0960005,15.2129992 42.1739998,15.0000013 42.222,14.736 C42.2700002,14.4719987 42.3119998,14.1480019 42.348,13.764 L42.384,13.44 L43.32,13.44 L43.32,15.852 L45.228,15.852 L45.228,16.878 L43.32,16.878 L43.32,22.386 C43.32,22.8900025 43.3949992,23.2529989 43.545,23.475 C43.6950008,23.6970011 43.973998,23.808 44.382,23.808 C44.7060016,23.808 45.0059986,23.7360007 45.282,23.592 L45.444,24.672 C44.9879977,24.876001 44.4840028,24.978 43.932,24.978 C43.4999978,24.978 43.1490014,24.9180006 42.879,24.798 C42.6089987,24.6779994 42.3960008,24.516001 42.24,24.312 C42.0839992,24.107999 41.9760003,23.8620014 41.916,23.574 C41.8559997,23.2859986 41.826,22.9740017 41.826,22.638 L41.826,16.878 Z M47.802,16.878 L46.29,16.878 L46.29,15.852 L46.614,15.852 C46.9860019,15.852 47.276999,15.8130004 47.487,15.735 C47.6970011,15.6569996 47.8559995,15.5370008 47.964,15.375 C48.0720005,15.2129992 48.1499998,15.0000013 48.198,14.736 C48.2460002,14.4719987 48.2879998,14.1480019 48.324,13.764 L48.36,13.44 L49.296,13.44 L49.296,15.852 L51.204,15.852 L51.204,16.878 L49.296,16.878 L49.296,22.386 C49.296,22.8900025 49.3709993,23.2529989 49.521,23.475 C49.6710008,23.6970011 49.949998,23.808 50.358,23.808 C50.6820016,23.808 50.9819986,23.7360007 51.258,23.592 L51.42,24.672 C50.9639977,24.876001 50.4600028,24.978 49.908,24.978 C49.4759978,24.978 49.1250014,24.9180006 48.855,24.798 C48.5849987,24.6779994 48.3720008,24.516001 48.216,24.312 C48.0599992,24.107999 47.9520003,23.8620014 47.892,23.574 C47.8319997,23.2859986 47.802,22.9740017 47.802,22.638 L47.802,16.878 Z M56.676,24.978 C56.0039966,24.978 55.4130026,24.8550012 54.903,24.609 C54.3929975,24.3629988 53.9670017,24.0270021 53.625,23.601 C53.2829983,23.1749979 53.0280008,22.6770028 52.86,22.107 C52.6919992,21.5369972 52.608,20.9220033 52.608,20.262 C52.608,19.6019967 52.6949991,18.9900028 52.869,18.426 C53.0430009,17.8619972 53.3009983,17.3700021 53.643,16.95 C53.9850017,16.5299979 54.4109975,16.2000012 54.921,15.96 C55.4310026,15.7199988 56.0159967,15.6 56.676,15.6 C57.3360033,15.6 57.9209975,15.7199988 58.431,15.96 C58.9410026,16.2000012 59.3699983,16.5269979 59.718,16.941 C60.0660017,17.3550021 60.3269991,17.8469972 60.501,18.417 C60.6750009,18.9870028 60.762,19.6019967 60.762,20.262 C60.762,20.9220033 60.6750009,21.5369972 60.501,22.107 C60.3269991,22.6770028 60.0660017,23.1749979 59.718,23.601 C59.3699983,24.0270021 58.9410026,24.3629988 58.431,24.609 C57.9209975,24.8550012 57.3360033,24.978 56.676,24.978 Z M56.712,23.808 C57.120002,23.808 57.4799984,23.7180009 57.792,23.538 C58.1040016,23.3579991 58.361999,23.1090016 58.566,22.791 C58.770001,22.4729984 58.9259995,22.0980022 59.034,21.666 C59.1420005,21.2339978 59.196,20.7660025 59.196,20.262 C59.196,19.7579975 59.1420005,19.2930021 59.034,18.867 C58.9259995,18.4409979 58.7640011,18.0720016 58.548,17.76 C58.3319989,17.4479984 58.0680016,17.2050009 57.756,17.031 C57.4439984,16.8569991 57.084002,16.77 56.676,16.77 C56.2559979,16.77 55.8900016,16.8569991 55.578,17.031 C55.2659984,17.2050009 55.008001,17.4479984 54.804,17.76 C54.599999,18.0720016 54.4440005,18.4409979 54.336,18.867 C54.2279995,19.2930021 54.174,19.7579975 54.174,20.262 C54.174,20.7660025 54.2279995,21.2339978 54.336,21.666 C54.4440005,22.0980022 54.6029989,22.4729984 54.813,22.791 C55.0230011,23.1090016 55.2869984,23.3579991 55.605,23.538 C55.9230016,23.7180009 56.2919979,23.808 56.712,23.808 Z M62.67,15.852 L63.966,15.852 L64.128,17.616 C64.3560011,17.0759973 64.7189975,16.605002 65.217,16.203 C65.7150025,15.800998 66.3299963,15.6 67.062,15.6 C67.9860046,15.6 68.6669978,15.8939971 69.105,16.482 C69.5430022,17.0700029 69.762,17.8919947 69.762,18.948 L69.762,24.708 L68.268,24.708 L68.268,19.254 C68.268,18.449996 68.1060016,17.8590019 67.782,17.481 C67.4579984,17.1029981 67.0200028,16.914 66.468,16.914 C65.8079967,16.914 65.2590022,17.1839973 64.821,17.724 C64.3829978,18.2640027 64.164,19.0259951 64.164,20.01 L64.164,24.708 L62.67,24.708 L62.67,15.852 Z" id="Button-Copy" fill="#000000"></path>
                        </g>
                    </g>
                    <g id="Button-Regular-Copy" transform="translate(188.000000, 0.000000)">
                        <g id="Button/BG/Accent">
                            <g id="Rectangle">
                                <use fill="#F5F5F6" fill-rule="evenodd" xlink:href="#path-3"></use>
                                <rect stroke="#A9B1B5" stroke-width="1" x="0.5" y="0.5" width="89" height="35" rx="3"></rect>
                            </g>
                            <path d="M21,12 L25.284,12 C25.8000026,12 26.3069975,12.0509995 26.805,12.153 C27.3030025,12.2550005 27.7439981,12.4289988 28.128,12.675 C28.5120019,12.9210012 28.8209988,13.247998 29.055,13.656 C29.2890012,14.064002 29.406,14.567997 29.406,15.168 C29.406,15.9480039 29.1750023,16.5899975 28.713,17.094 C28.2509977,17.5980025 27.6120041,17.9159993 26.796,18.048 C27.2160021,18.1080003 27.6089982,18.2159992 27.975,18.372 C28.3410018,18.5280008 28.6589987,18.7379987 28.929,19.002 C29.1990014,19.2660013 29.4089993,19.5809982 29.559,19.947 C29.7090008,20.3130018 29.784,20.7359976 29.784,21.216 C29.784,21.8640032 29.6730011,22.4129978 29.451,22.863 C29.2289989,23.3130023 28.9260019,23.6729987 28.542,23.943 C28.1579981,24.2130014 27.7020026,24.4079994 27.174,24.528 C26.6459974,24.6480006 26.0700031,24.708 25.446,24.708 L21,24.708 L21,12 Z M24.708,17.454 C25.0560017,17.454 25.4069982,17.4330002 25.761,17.391 C26.1150018,17.3489998 26.4359986,17.2500008 26.724,17.094 C27.0120014,16.9379992 27.2459991,16.7160014 27.426,16.428 C27.6060009,16.1399986 27.696,15.7500025 27.696,15.258 C27.696,14.861998 27.6240007,14.5350013 27.48,14.277 C27.3359993,14.0189987 27.1380013,13.8150008 26.886,13.665 C26.6339987,13.5149993 26.3460016,13.4100003 26.022,13.35 C25.6979984,13.2899997 25.3560018,13.26 24.996,13.26 L22.62,13.26 L22.62,17.454 L24.708,17.454 Z M25.194,23.448 C25.5540018,23.448 25.9049983,23.4120004 26.247,23.34 C26.5890017,23.2679996 26.8949986,23.1420009 27.165,22.962 C27.4350014,22.7819991 27.6509992,22.5360016 27.813,22.224 C27.9750008,21.9119984 28.056,21.5160024 28.056,21.036 C28.056,20.5919978 27.9690009,20.2200015 27.795,19.92 C27.6209991,19.6199985 27.3900014,19.3800009 27.102,19.2 C26.8139986,19.0199991 26.4870018,18.8910004 26.121,18.813 C25.7549982,18.7349996 25.3800019,18.696 24.996,18.696 L22.62,18.696 L22.62,23.448 L25.194,23.448 Z M31.674,15.852 L33.186,15.852 L33.186,21.216 C33.186,22.0560042 33.3419984,22.670998 33.654,23.061 C33.9660016,23.451002 34.4039972,23.646 34.968,23.646 C35.6880036,23.646 36.248998,23.3610029 36.651,22.791 C37.053002,22.2209972 37.254,21.4620047 37.254,20.514 L37.254,15.852 L38.748,15.852 L38.748,24.708 L37.344,24.708 L37.344,22.908 C37.2359995,23.1840014 37.1040008,23.4449988 36.948,23.691 C36.7919992,23.9370012 36.6000011,24.1529991 36.372,24.339 C36.1439989,24.5250009 35.8800015,24.6719995 35.58,24.78 C35.2799985,24.8880005 34.926002,24.942 34.518,24.942 C33.5579952,24.942 32.8440023,24.6510029 32.376,24.069 C31.9079977,23.4869971 31.674,22.6620053 31.674,21.594 L31.674,15.852 Z M41.826,16.878 L40.314,16.878 L40.314,15.852 L40.638,15.852 C41.0100019,15.852 41.300999,15.8130004 41.511,15.735 C41.7210011,15.6569996 41.8799995,15.5370008 41.988,15.375 C42.0960005,15.2129992 42.1739998,15.0000013 42.222,14.736 C42.2700002,14.4719987 42.3119998,14.1480019 42.348,13.764 L42.384,13.44 L43.32,13.44 L43.32,15.852 L45.228,15.852 L45.228,16.878 L43.32,16.878 L43.32,22.386 C43.32,22.8900025 43.3949993,23.2529989 43.545,23.475 C43.6950008,23.6970011 43.973998,23.808 44.382,23.808 C44.7060016,23.808 45.0059986,23.7360007 45.282,23.592 L45.444,24.672 C44.9879977,24.876001 44.4840028,24.978 43.932,24.978 C43.4999978,24.978 43.1490014,24.9180006 42.879,24.798 C42.6089987,24.6779994 42.3960008,24.516001 42.24,24.312 C42.0839992,24.107999 41.9760003,23.8620014 41.916,23.574 C41.8559997,23.2859986 41.826,22.9740017 41.826,22.638 L41.826,16.878 Z M47.802,16.878 L46.29,16.878 L46.29,15.852 L46.614,15.852 C46.9860019,15.852 47.2769989,15.8130004 47.487,15.735 C47.6970011,15.6569996 47.8559995,15.5370008 47.964,15.375 C48.0720005,15.2129992 48.1499998,15.0000013 48.198,14.736 C48.2460002,14.4719987 48.2879998,14.1480019 48.324,13.764 L48.36,13.44 L49.296,13.44 L49.296,15.852 L51.204,15.852 L51.204,16.878 L49.296,16.878 L49.296,22.386 C49.296,22.8900025 49.3709993,23.2529989 49.521,23.475 C49.6710007,23.6970011 49.949998,23.808 50.358,23.808 C50.6820016,23.808 50.9819986,23.7360007 51.258,23.592 L51.42,24.672 C50.9639977,24.876001 50.4600028,24.978 49.908,24.978 C49.4759978,24.978 49.1250013,24.9180006 48.855,24.798 C48.5849986,24.6779994 48.3720008,24.516001 48.216,24.312 C48.0599992,24.107999 47.9520003,23.8620014 47.892,23.574 C47.8319997,23.2859986 47.802,22.9740017 47.802,22.638 L47.802,16.878 Z M56.676,24.978 C56.0039966,24.978 55.4130026,24.8550012 54.903,24.609 C54.3929974,24.3629988 53.9670017,24.0270021 53.625,23.601 C53.2829983,23.1749979 53.0280008,22.6770028 52.86,22.107 C52.6919992,21.5369972 52.608,20.9220033 52.608,20.262 C52.608,19.6019967 52.6949991,18.9900028 52.869,18.426 C53.0430009,17.8619972 53.3009983,17.3700021 53.643,16.95 C53.9850017,16.5299979 54.4109974,16.2000012 54.921,15.96 C55.4310026,15.7199988 56.0159967,15.6 56.676,15.6 C57.3360033,15.6 57.9209975,15.7199988 58.431,15.96 C58.9410025,16.2000012 59.3699983,16.5269979 59.718,16.941 C60.0660017,17.3550021 60.3269991,17.8469972 60.501,18.417 C60.6750009,18.9870028 60.762,19.6019967 60.762,20.262 C60.762,20.9220033 60.6750009,21.5369972 60.501,22.107 C60.3269991,22.6770028 60.0660017,23.1749979 59.718,23.601 C59.3699983,24.0270021 58.9410025,24.3629988 58.431,24.609 C57.9209975,24.8550012 57.3360033,24.978 56.676,24.978 Z M56.712,23.808 C57.120002,23.808 57.4799984,23.7180009 57.792,23.538 C58.1040016,23.3579991 58.361999,23.1090016 58.566,22.791 C58.770001,22.4729984 58.9259995,22.0980022 59.034,21.666 C59.1420005,21.2339978 59.196,20.7660025 59.196,20.262 C59.196,19.7579975 59.1420005,19.2930021 59.034,18.867 C58.9259995,18.4409979 58.7640011,18.0720016 58.548,17.76 C58.3319989,17.4479984 58.0680016,17.2050009 57.756,17.031 C57.4439984,16.8569991 57.084002,16.77 56.676,16.77 C56.2559979,16.77 55.8900016,16.8569991 55.578,17.031 C55.2659984,17.2050009 55.008001,17.4479984 54.804,17.76 C54.599999,18.0720016 54.4440005,18.4409979 54.336,18.867 C54.2279995,19.2930021 54.174,19.7579975 54.174,20.262 C54.174,20.7660025 54.2279995,21.2339978 54.336,21.666 C54.4440005,22.0980022 54.6029989,22.4729984 54.813,22.791 C55.0230011,23.1090016 55.2869984,23.3579991 55.605,23.538 C55.9230016,23.7180009 56.2919979,23.808 56.712,23.808 Z M62.67,15.852 L63.966,15.852 L64.128,17.616 C64.3560011,17.0759973 64.7189975,16.605002 65.217,16.203 C65.7150025,15.800998 66.3299963,15.6 67.062,15.6 C67.9860046,15.6 68.6669978,15.8939971 69.105,16.482 C69.5430022,17.0700029 69.762,17.8919947 69.762,18.948 L69.762,24.708 L68.268,24.708 L68.268,19.254 C68.268,18.449996 68.1060016,17.8590019 67.782,17.481 C67.4579984,17.1029981 67.0200028,16.914 66.468,16.914 C65.8079967,16.914 65.2590022,17.1839973 64.821,17.724 C64.3829978,18.2640027 64.164,19.0259951 64.164,20.01 L64.164,24.708 L62.67,24.708 L62.67,15.852 Z" id="Button-Copy" fill="#000000"></path>
                        </g>
                    </g>
                </g>
            </g>
        </g>
    </g>
</svg>