<?xml version="1.0" encoding="UTF-8"?>
<svg width="321px" height="64px" viewBox="0 0 321 64" version="1.1" xmlns="http://www.w3.org/2000/svg" xmlns:xlink="http://www.w3.org/1999/xlink">
    <!-- Generator: Sketch 47 (45396) - http://www.bohemiancoding.com/sketch -->
    <title>Topbar</title>
    <desc>Created with Sketch.</desc>
    <defs>
        <rect id="path-1" x="0" y="0" width="78" height="36" rx="3"></rect>
    </defs>
    <g id="Page-1" stroke="none" stroke-width="1" fill="none" fill-rule="evenodd">
        <g id="Buttons-Usage-extra-large-1200" transform="translate(-350.000000, -3657.000000)">
            <g id="Topbar" transform="translate(350.000000, 3657.000000)">
                <g id="topbar">
                    <rect id="Blue" fill="#4AC7ED" x="0" y="0" width="20" height="4"></rect>
                    <rect id="Orange" fill="#F48C3B" x="20" y="0" width="52" height="4"></rect>
                    <rect id="Grey" fill="#A9B1B5" x="72" y="0" width="103" height="4"></rect>
                    <rect id="Green" fill="#ADC543" x="175" y="0" width="146" height="4"></rect>
                    <rect id="Bar" fill="#495C6A" x="0" y="4" width="321" height="60"></rect>
                    <path d="M126,26 L130.266,26 C130.902003,26 131.489997,26.0719993 132.03,26.216 C132.570003,26.3600007 133.034998,26.5819985 133.425,26.882 C133.815002,27.1820015 134.120999,27.5629977 134.343,28.025 C134.565001,28.4870023 134.676,29.0419968 134.676,29.69 C134.676,30.4100036 134.565001,31.0219975 134.343,31.526 C134.120999,32.0300025 133.812002,32.4379984 133.416,32.75 C133.019998,33.0620016 132.555003,33.2869993 132.021,33.425 C131.486997,33.5630007 130.908003,33.632 130.284,33.632 L127.62,33.632 L127.62,38.708 L126,38.708 L126,26 Z M130.014,32.336 C130.950005,32.336 131.675997,32.135002 132.192,31.733 C132.708003,31.330998 132.966,30.6500048 132.966,29.69 C132.966,29.2459978 132.891001,28.8680016 132.741,28.556 C132.590999,28.2439984 132.387001,27.992001 132.129,27.8 C131.870999,27.607999 131.565002,27.4700004 131.211,27.386 C130.856998,27.3019996 130.476002,27.26 130.068,27.26 L127.62,27.26 L127.62,32.336 L130.014,32.336 Z M141.48,38.708 C141.347999,38.2759978 141.27,37.760003 141.246,37.16 C141.005999,37.7120028 140.637002,38.1529984 140.139,38.483 C139.640998,38.8130017 139.050003,38.978 138.366,38.978 C137.501996,38.978 136.818003,38.7320025 136.314,38.24 C135.809997,37.7479975 135.558,37.0880041 135.558,36.26 C135.558,35.7919977 135.641999,35.3990016 135.81,35.081 C135.978001,34.7629984 136.211998,34.4990011 136.512,34.289 C136.812002,34.0789989 137.165998,33.9140006 137.574,33.794 C137.982002,33.6739994 138.425998,33.5780004 138.906,33.506 L141.174,33.164 L141.174,32.606 C141.174,32.209998 141.126,31.8920012 141.03,31.652 C140.934,31.4119988 140.802001,31.2260007 140.634,31.094 C140.465999,30.9619993 140.274001,30.8750002 140.058,30.833 C139.841999,30.7909998 139.614001,30.77 139.374,30.77 C138.689997,30.77 138.126002,30.8959987 137.682,31.148 C137.237998,31.4000013 136.866002,31.7179981 136.566,32.102 L135.792,31.13 C136.140002,30.7099979 136.622997,30.3500015 137.241,30.05 C137.859003,29.7499985 138.623995,29.6 139.536,29.6 C140.640006,29.6 141.440998,29.8459975 141.939,30.338 C142.437002,30.8300025 142.686,31.6219945 142.686,32.714 L142.686,36.296 C142.686,36.5840014 142.689,36.8359989 142.695,37.052 C142.701,37.2680011 142.713,37.4689991 142.731,37.655 C142.749,37.8410009 142.776,38.0179992 142.812,38.186 C142.848,38.3540008 142.896,38.5279991 142.956,38.708 L141.48,38.708 Z M141.174,34.154 L139.05,34.496 C138.317996,34.6280007 137.799002,34.8259987 137.493,35.09 C137.186998,35.3540013 137.034,35.7199977 137.034,36.188 C137.034,36.6680024 137.174999,37.0699984 137.457,37.394 C137.739001,37.7180016 138.155997,37.88 138.708,37.88 C139.044002,37.88 139.361998,37.8140007 139.662,37.682 C139.962001,37.5499993 140.222999,37.3670012 140.445,37.133 C140.667001,36.8989988 140.843999,36.6170017 140.976,36.287 C141.108001,35.9569984 141.174,35.594002 141.174,35.198 L141.174,34.154 Z M145.8,39.77 C146.148002,40.1060017 146.564998,40.372999 147.051,40.571 C147.537002,40.769001 148.055997,40.868 148.608,40.868 C149.064002,40.868 149.435999,40.7990007 149.724,40.661 C150.012001,40.5229993 150.239999,40.3340012 150.408,40.094 C150.576001,39.8539988 150.693,39.5810015 150.759,39.275 C150.825,38.9689985 150.858,38.6420017 150.858,38.294 L150.858,36.656 C150.629999,37.1960027 150.288002,37.6309983 149.832,37.961 C149.375998,38.2910016 148.788004,38.456 148.068,38.456 C147.551997,38.456 147.084002,38.357001 146.664,38.159 C146.243998,37.960999 145.884001,37.6760019 145.584,37.304 C145.283998,36.9319981 145.053001,36.4760027 144.891,35.936 C144.728999,35.3959973 144.648,34.7900034 144.648,34.118 C144.648,33.4579967 144.728999,32.8520028 144.891,32.3 C145.053001,31.7479972 145.286998,31.274002 145.593,30.878 C145.899002,30.481998 146.270998,30.1730011 146.709,29.951 C147.147002,29.7289989 147.635997,29.618 148.176,29.618 C148.884004,29.618 149.471998,29.7949982 149.94,30.149 C150.408002,30.5030018 150.743999,30.9559972 150.948,31.508 L151.2,29.852 L152.352,29.852 L152.352,38.258 C152.352,38.7620025 152.292001,39.2389977 152.172,39.689 C152.051999,40.1390023 151.848001,40.5379983 151.56,40.886 C151.271999,41.2340017 150.888002,41.509999 150.408,41.714 C149.927998,41.918001 149.328004,42.02 148.608,42.02 C147.827996,42.02 147.129003,41.9090011 146.511,41.687 C145.892997,41.4649989 145.374002,41.1860017 144.954,40.85 L145.8,39.77 Z M150.858,34.118 C150.858,33.913999 150.855,33.7190009 150.849,33.533 C150.843,33.3469991 150.828,33.2060005 150.804,33.11 C150.756,32.8219986 150.678001,32.5400014 150.57,32.264 C150.461999,31.9879986 150.315001,31.748001 150.129,31.544 C149.942999,31.339999 149.715001,31.1750006 149.445,31.049 C149.174999,30.9229994 148.860002,30.86 148.5,30.86 C148.103998,30.86 147.762001,30.9439992 147.474,31.112 C147.185999,31.2800008 146.949001,31.5079986 146.763,31.796 C146.576999,32.0840014 146.439,32.425998 146.349,32.822 C146.259,33.218002 146.214,33.6379978 146.214,34.082 C146.214,34.478002 146.256,34.870998 146.34,35.261 C146.424,35.6510019 146.555999,35.9959985 146.736,36.296 C146.916001,36.5960015 147.152999,36.8389991 147.447,37.025 C147.741001,37.2110009 148.097998,37.304 148.518,37.304 C149.106003,37.304 149.579998,37.1390016 149.94,36.809 C150.300002,36.4789983 150.551999,36.0620025 150.696,35.558 C150.756,35.3899992 150.798,35.1800013 150.822,34.928 C150.846,34.6759987 150.858,34.4360011 150.858,34.208 L150.858,34.118 Z M155.79,34.622 C155.85,35.6420051 156.110998,36.4309972 156.573,36.989 C157.035002,37.5470028 157.679996,37.826 158.508,37.826 C159.552005,37.826 160.337997,37.3340049 160.866,36.35 L162,36.98 C161.651998,37.5680029 161.190003,38.0479981 160.614,38.42 C160.037997,38.7920019 159.312004,38.978 158.436,38.978 C157.739997,38.978 157.131003,38.8580012 156.609,38.618 C156.086997,38.3779988 155.652002,38.0480021 155.304,37.628 C154.955998,37.2079979 154.695001,36.7160028 154.521,36.152 C154.346999,35.5879972 154.26,34.9820032 154.26,34.334 C154.26,33.6979968 154.343999,33.0920029 154.512,32.516 C154.680001,31.9399971 154.934998,31.4360022 155.277,31.004 C155.619002,30.5719978 156.038998,30.2300013 156.537,29.978 C157.035002,29.7259987 157.619997,29.6 158.292,29.6 C158.940003,29.6 159.503998,29.7229988 159.984,29.969 C160.464002,30.2150012 160.862998,30.5449979 161.181,30.959 C161.499002,31.3730021 161.738999,31.8529973 161.901,32.399 C162.063001,32.9450027 162.144,33.5239969 162.144,34.136 C162.144,34.2680007 162.141,34.3699996 162.135,34.442 C162.129,34.5140004 162.126,34.5739998 162.126,34.622 L155.79,34.622 Z M158.274,30.734 C157.517996,30.734 156.933002,31.0039973 156.519,31.544 C156.104998,32.0840027 155.868,32.8099954 155.808,33.722 L160.614,33.722 C160.614,33.3499981 160.572,32.9870018 160.488,32.633 C160.404,32.2789982 160.266001,31.9610014 160.074,31.679 C159.881999,31.3969986 159.639001,31.1690009 159.345,30.995 C159.050999,30.8209991 158.694002,30.734 158.274,30.734 Z M168.786,30.878 L167.274,30.878 L167.274,29.852 L167.598,29.852 C167.970002,29.852 168.260999,29.8130004 168.471,29.735 C168.681001,29.6569996 168.839999,29.5370008 168.948,29.375 C169.056001,29.2129992 169.134,29.0000013 169.182,28.736 C169.23,28.4719987 169.272,28.1480019 169.308,27.764 L169.344,27.44 L170.28,27.44 L170.28,29.852 L172.188,29.852 L172.188,30.878 L170.28,30.878 L170.28,36.386 C170.28,36.8900025 170.354999,37.2529989 170.505,37.475 C170.655001,37.6970011 170.933998,37.808 171.342,37.808 C171.666002,37.808 171.965999,37.7360007 172.242,37.592 L172.404,38.672 C171.947998,38.876001 171.444003,38.978 170.892,38.978 C170.459998,38.978 170.109001,38.9180006 169.839,38.798 C169.568999,38.6779994 169.356001,38.516001 169.2,38.312 C169.043999,38.107999 168.936,37.8620014 168.876,37.574 C168.816,37.2859986 168.786,36.9740017 168.786,36.638 L168.786,30.878 Z M173.988,26.414 L175.482,26.414 L175.482,27.908 L173.988,27.908 L173.988,26.414 Z M173.988,29.852 L175.482,29.852 L175.482,38.708 L173.988,38.708 L173.988,29.852 Z M178.56,30.878 L177.048,30.878 L177.048,29.852 L177.372,29.852 C177.744002,29.852 178.034999,29.8130004 178.245,29.735 C178.455001,29.6569996 178.613999,29.5370008 178.722,29.375 C178.830001,29.2129992 178.908,29.0000013 178.956,28.736 C179.004,28.4719987 179.046,28.1480019 179.082,27.764 L179.118,27.44 L180.054,27.44 L180.054,29.852 L181.962,29.852 L181.962,30.878 L180.054,30.878 L180.054,36.386 C180.054,36.8900025 180.128999,37.2529989 180.279,37.475 C180.429001,37.6970011 180.707998,37.808 181.116,37.808 C181.440002,37.808 181.739999,37.7360007 182.016,37.592 L182.178,38.672 C181.721998,38.876001 181.218003,38.978 180.666,38.978 C180.233998,38.978 179.883001,38.9180006 179.613,38.798 C179.342999,38.6779994 179.130001,38.516001 178.974,38.312 C178.817999,38.107999 178.71,37.8620014 178.65,37.574 C178.59,37.2859986 178.56,36.9740017 178.56,36.638 L178.56,30.878 Z M183.762,26 L185.256,26 L185.256,38.708 L183.762,38.708 L183.762,26 Z M188.694,34.622 C188.754,35.6420051 189.014998,36.4309972 189.477,36.989 C189.939002,37.5470028 190.583996,37.826 191.412,37.826 C192.456005,37.826 193.241997,37.3340049 193.77,36.35 L194.904,36.98 C194.555998,37.5680029 194.094003,38.0479981 193.518,38.42 C192.941997,38.7920019 192.216004,38.978 191.34,38.978 C190.643997,38.978 190.035003,38.8580012 189.513,38.618 C188.990997,38.3779988 188.556002,38.0480021 188.208,37.628 C187.859998,37.2079979 187.599001,36.7160028 187.425,36.152 C187.250999,35.5879972 187.164,34.9820032 187.164,34.334 C187.164,33.6979968 187.247999,33.0920029 187.416,32.516 C187.584001,31.9399971 187.838998,31.4360022 188.181,31.004 C188.523002,30.5719978 188.942998,30.2300013 189.441,29.978 C189.939002,29.7259987 190.523997,29.6 191.196,29.6 C191.844003,29.6 192.407998,29.7229988 192.888,29.969 C193.368002,30.2150012 193.766998,30.5449979 194.085,30.959 C194.403002,31.3730021 194.642999,31.8529973 194.805,32.399 C194.967001,32.9450027 195.048,33.5239969 195.048,34.136 C195.048,34.2680007 195.045,34.3699996 195.039,34.442 C195.033,34.5140004 195.03,34.5739998 195.03,34.622 L188.694,34.622 Z M191.178,30.734 C190.421996,30.734 189.837002,31.0039973 189.423,31.544 C189.008998,32.0840027 188.772,32.8099954 188.712,33.722 L193.518,33.722 C193.518,33.3499981 193.476,32.9870018 193.392,32.633 C193.308,32.2789982 193.170001,31.9610014 192.978,31.679 C192.785999,31.3969986 192.543001,31.1690009 192.249,30.995 C191.954999,30.8209991 191.598002,30.734 191.178,30.734 Z" id="Page-title" fill="#FFFFFF"></path>
                    <path d="M29.2142857,26.0714286 C29.3333339,26.1904768 29.3928571,26.3273802 29.3928571,26.4821429 C29.3928571,26.6369055 29.3333339,26.7738089 29.2142857,26.8928571 L22.1964286,33.9107143 L29.2142857,40.9285714 C29.3333339,41.0476196 29.3928571,41.184523 29.3928571,41.3392857 C29.3928571,41.4940484 29.3333339,41.6309518 29.2142857,41.75 L28.3214286,42.6428571 C28.2023804,42.7619054 28.065477,42.8214286 27.9107143,42.8214286 C27.7559516,42.8214286 27.6190482,42.7619054 27.5,42.6428571 L19.1785714,34.3214286 C19.0595232,34.2023804 19,34.065477 19,33.9107143 C19,33.7559516 19.0595232,33.6190482 19.1785714,33.5 L27.5,25.1785714 C27.6190482,25.0595232 27.7559516,25 27.9107143,25 C28.065477,25 28.2023804,25.0595232 28.3214286,25.1785714 L29.2142857,26.0714286 Z" id="angle-left---FontAwesome-Copy" fill="#4BB452AD57A8"></path>
                </g>
                <g id="Button-Regular" transform="translate(236.000000, 16.000000)">
                    <g id="Button/BG/Accent">
                        <g id="Rectangle">
                            <use fill="#F5F5F6" fill-rule="evenodd" xlink:href="#path-1"></use>
                            <rect stroke="#A9B1B5" stroke-width="1" x="0.5" y="0.5" width="77" height="35" rx="3"></rect>
                        </g>
                        <path d="M22.098,21.044 C22.4700019,21.5960028 22.9739968,22.0429983 23.61,22.385 C24.2460032,22.7270017 24.9959957,22.898 25.86,22.898 C26.268002,22.898 26.6489982,22.8440005 27.003,22.736 C27.3570018,22.6279995 27.6629987,22.472001 27.921,22.268 C28.1790013,22.063999 28.3799993,21.8150015 28.524,21.521 C28.6680007,21.2269985 28.74,20.9000018 28.74,20.54 C28.74,20.1679981 28.6530009,19.8560013 28.479,19.604 C28.3049991,19.3519987 28.0680015,19.1390009 27.768,18.965 C27.4679985,18.7909991 27.1110021,18.6380007 26.697,18.506 C26.2829979,18.3739993 25.8360024,18.2420007 25.356,18.11 C24.8159973,17.9539992 24.3150023,17.780001 23.853,17.588 C23.3909977,17.395999 22.9920017,17.1590014 22.656,16.877 C22.3199983,16.5949986 22.056001,16.2650019 21.864,15.887 C21.671999,15.5089981 21.576,15.0560026 21.576,14.528 C21.576,13.9879973 21.680999,13.5020022 21.891,13.07 C22.1010011,12.6379978 22.3979981,12.2690015 22.782,11.963 C23.1660019,11.6569985 23.6189974,11.4200008 24.141,11.252 C24.6630026,11.0839992 25.2419968,11 25.878,11 C26.7540044,11 27.5639963,11.1469985 28.308,11.441 C29.0520037,11.7350015 29.6879974,12.1699971 30.216,12.746 L29.118,13.772 C28.7339981,13.3519979 28.2630028,13.0100013 27.705,12.746 C27.1469972,12.4819987 26.5320034,12.35 25.86,12.35 C25.0919962,12.35 24.4650024,12.5149983 23.979,12.845 C23.4929976,13.1750016 23.25,13.6759966 23.25,14.348 C23.25,14.6840017 23.3249993,14.9719988 23.475,15.212 C23.6250008,15.4520012 23.8349987,15.6619991 24.105,15.842 C24.3750014,16.0220009 24.6929982,16.1809993 25.059,16.319 C25.4250018,16.4570007 25.8299978,16.5859994 26.274,16.706 C26.9340033,16.8860009 27.5219974,17.080999 28.038,17.291 C28.5540026,17.5010011 28.9859983,17.7499986 29.334,18.038 C29.6820017,18.3260014 29.9459991,18.6589981 30.126,19.037 C30.3060009,19.4150019 30.396,19.8559975 30.396,20.36 C30.396,20.9720031 30.2760012,21.5209976 30.036,22.007 C29.7959988,22.4930024 29.4690021,22.9009984 29.055,23.231 C28.6409979,23.5610017 28.1550028,23.8129991 27.597,23.987 C27.0389972,24.1610009 26.4480031,24.248 25.824,24.248 C24.6719942,24.248 23.700004,24.0650018 22.908,23.699 C22.115996,23.3329982 21.4800024,22.8080034 21,22.124 L22.098,21.044 Z M37.83,23.978 C37.6979993,23.5459978 37.6200001,23.030003 37.596,22.43 C37.3559988,22.9820028 36.9870025,23.4229984 36.489,23.753 C35.9909975,24.0830016 35.4000034,24.248 34.716,24.248 C33.8519957,24.248 33.1680025,24.0020025 32.664,23.51 C32.1599975,23.0179975 31.908,22.3580041 31.908,21.53 C31.908,21.0619977 31.9919992,20.6690016 32.16,20.351 C32.3280008,20.0329984 32.5619985,19.769001 32.862,19.559 C33.1620015,19.348999 33.515998,19.1840006 33.924,19.064 C34.332002,18.9439994 34.7759976,18.8480004 35.256,18.776 L37.524,18.434 L37.524,17.876 C37.524,17.479998 37.4760005,17.1620012 37.38,16.922 C37.2839995,16.6819988 37.1520008,16.4960007 36.984,16.364 C36.8159992,16.2319993 36.6240011,16.1450002 36.408,16.103 C36.1919989,16.0609998 35.9640012,16.04 35.724,16.04 C35.0399966,16.04 34.4760022,16.1659987 34.032,16.418 C33.5879978,16.6700013 33.2160015,16.9879981 32.916,17.372 L32.142,16.4 C32.4900017,15.9799979 32.9729969,15.6200015 33.591,15.32 C34.2090031,15.0199985 34.9739954,14.87 35.886,14.87 C36.9900055,14.87 37.7909975,15.1159975 38.289,15.608 C38.7870025,16.1000025 39.036,16.8919945 39.036,17.984 L39.036,21.566 C39.036,21.8540014 39.039,22.1059989 39.045,22.322 C39.051,22.5380011 39.0629999,22.7389991 39.081,22.925 C39.0990001,23.1110009 39.1259998,23.2879992 39.162,23.456 C39.1980002,23.6240008 39.2459997,23.7979991 39.306,23.978 L37.83,23.978 Z M37.524,19.424 L35.4,19.766 C34.6679963,19.8980007 34.1490015,20.0959987 33.843,20.36 C33.5369985,20.6240013 33.384,20.9899977 33.384,21.458 C33.384,21.9380024 33.5249986,22.3399984 33.807,22.664 C34.0890014,22.9880016 34.5059972,23.15 35.058,23.15 C35.3940017,23.15 35.7119985,23.0840007 36.012,22.952 C36.3120015,22.8199993 36.5729989,22.6370012 36.795,22.403 C37.0170011,22.1689988 37.1939993,21.8870017 37.326,21.557 C37.4580007,21.2269984 37.524,20.864002 37.524,20.468 L37.524,19.424 Z M40.746,15.122 L42.438,15.122 L44.598,22.574 L46.74,15.122 L48.36,15.122 L45.444,23.978 L43.644,23.978 L40.746,15.122 Z M51.096,19.892 C51.1560003,20.9120051 51.4169977,21.7009972 51.879,22.259 C52.3410023,22.8170028 52.9859959,23.096 53.814,23.096 C54.8580052,23.096 55.6439974,22.6040049 56.172,21.62 L57.306,22.25 C56.9579983,22.8380029 56.4960029,23.3179981 55.92,23.69 C55.3439971,24.0620019 54.6180044,24.248 53.742,24.248 C53.0459965,24.248 52.4370026,24.1280012 51.915,23.888 C51.3929974,23.6479988 50.9580017,23.3180021 50.61,22.898 C50.2619983,22.4779979 50.0010009,21.9860028 49.827,21.422 C49.6529991,20.8579972 49.566,20.2520032 49.566,19.604 C49.566,18.9679968 49.6499992,18.3620029 49.818,17.786 C49.9860008,17.2099971 50.2409983,16.7060022 50.583,16.274 C50.9250017,15.8419978 51.3449975,15.5000013 51.843,15.248 C52.3410025,14.9959987 52.9259966,14.87 53.598,14.87 C54.2460032,14.87 54.8099976,14.9929988 55.29,15.239 C55.7700024,15.4850012 56.1689984,15.8149979 56.487,16.229 C56.8050016,16.6430021 57.0449992,17.1229973 57.207,17.669 C57.3690008,18.2150027 57.45,18.7939969 57.45,19.406 C57.45,19.5380007 57.447,19.6399996 57.441,19.712 C57.435,19.7840004 57.432,19.8439998 57.432,19.892 L51.096,19.892 Z M53.58,16.004 C52.8239962,16.004 52.2390021,16.2739973 51.825,16.814 C51.4109979,17.3540027 51.1740003,18.0799954 51.114,18.992 L55.92,18.992 C55.92,18.6199981 55.8780004,18.2570018 55.794,17.903 C55.7099996,17.5489982 55.572001,17.2310014 55.38,16.949 C55.187999,16.6669986 54.9450015,16.4390009 54.651,16.265 C54.3569985,16.0909991 54.0000021,16.004 53.58,16.004 Z" id="Button-Copy" fill="#000000"></path>
                    </g>
                </g>
            </g>
        </g>
    </g>
</svg>