<?xml version="1.0" encoding="UTF-8"?>
<svg width="99px" height="36px" viewBox="0 0 99 36" version="1.1" xmlns="http://www.w3.org/2000/svg" xmlns:xlink="http://www.w3.org/1999/xlink">
    <!-- Generator: Sketch 47 (45396) - http://www.bohemiancoding.com/sketch -->
    <title>GenericLanguage</title>
    <desc>Created with Sketch.</desc>
    <defs></defs>
    <g id="Page-1" stroke="none" stroke-width="1" fill="none" fill-rule="evenodd">
        <g id="Buttons-Usage-extra-large-1200" transform="translate(-871.000000, -3023.000000)">
            <g id="Group-2" transform="translate(730.000000, 2992.000000)">
                <g id="GenericLanguage" transform="translate(141.000000, 31.000000)">
                    <g id="Button/BG/Accent">
                        <rect id="Rectangle" fill="#0D78AA" x="0" y="0" width="99" height="36" rx="3"></rect>
                        <path d="M44.796,24.248 C43.9319957,24.248 43.1460035,24.0920016 42.438,23.78 C41.7299965,23.4679984 41.1210026,23.0210029 40.611,22.439 C40.1009975,21.8569971 39.7050014,21.1550041 39.423,20.333 C39.1409986,19.5109959 39,18.596005 39,17.588 C39,16.5679949 39.1409986,15.653004 39.423,14.843 C39.7050014,14.032996 40.1009975,13.3430028 40.611,12.773 C41.1210026,12.2029972 41.7299965,11.7650015 42.438,11.459 C43.1460035,11.1529985 43.9319957,11 44.796,11 C45.6600043,11 46.4489964,11.1529985 47.163,11.459 C47.8770036,11.7650015 48.4889974,12.2029972 48.999,12.773 C49.5090026,13.3430028 49.9079986,14.032996 50.196,14.843 C50.4840014,15.653004 50.628,16.5679949 50.628,17.588 C50.628,18.596005 50.4840014,19.5109959 50.196,20.333 C49.9079986,21.1550041 49.5030026,21.8569971 48.981,22.439 C48.4589974,23.0210029 47.8410036,23.4679984 47.127,23.78 C46.4129964,24.0920016 45.6360042,24.248 44.796,24.248 Z M44.796,22.844 C45.4320032,22.844 46.0019975,22.7180013 46.506,22.466 C47.0100025,22.2139987 47.4389982,21.8570023 47.793,21.395 C48.1470018,20.9329977 48.4169991,20.3780032 48.603,19.73 C48.7890009,19.0819968 48.882,18.3680039 48.882,17.588 C48.882,16.8319962 48.7890009,16.1360032 48.603,15.5 C48.4169991,14.8639968 48.1500017,14.3180023 47.802,13.862 C47.4539983,13.4059977 47.0220026,13.0490013 46.506,12.791 C45.9899974,12.5329987 45.4080032,12.404 44.76,12.404 C44.1119968,12.404 43.5390025,12.5329987 43.041,12.791 C42.5429975,13.0490013 42.1230017,13.4059977 41.781,13.862 C41.4389983,14.3180023 41.1780009,14.8639968 40.998,15.5 C40.8179991,16.1360032 40.728,16.8319962 40.728,17.588 C40.728,18.3680039 40.823999,19.0819968 41.016,19.73 C41.208001,20.3780032 41.4839982,20.9329977 41.844,21.395 C42.2040018,21.8570023 42.6329975,22.2139987 43.131,22.466 C43.6290025,22.7180013 44.1839969,22.844 44.796,22.844 Z M52.536,11.27 L54.03,11.27 L54.03,19.262 L58.044,15.122 L59.916,15.122 L56.442,18.506 L60.366,23.978 L58.62,23.978 L55.47,19.442 L54.03,20.828 L54.03,23.978 L52.536,23.978 L52.536,11.27 Z" id="Button" fill="#FFFFFF"></path>
                    </g>
                </g>
            </g>
        </g>
    </g>
</svg>