<?xml version="1.0" encoding="UTF-8"?>
<svg width="208px" height="36px" viewBox="0 0 208 36" version="1.1" xmlns="http://www.w3.org/2000/svg" xmlns:xlink="http://www.w3.org/1999/xlink">
    <!-- Generator: Sketch 47 (45396) - http://www.bohemiancoding.com/sketch -->
    <title>Don't two CTA</title>
    <desc>Created with Sketch.</desc>
    <defs></defs>
    <g id="Page-1" stroke="none" stroke-width="1" fill="none" fill-rule="evenodd">
        <g id="Buttons-Usage-extra-large-1200" transform="translate(-819.000000, -3452.000000)">
            <g id="Group-2-Copy-3" transform="translate(730.000000, 3427.000000)">
                <g id="Don't-two-CTA" transform="translate(89.000000, 25.000000)">
                    <g id="Button-Accent" transform="translate(109.000000, 0.000000)">
                        <g id="Button/BG/Accent">
                            <rect id="Rectangle" fill="#0D78AA" x="0" y="0" width="99" height="36" rx="3"></rect>
                            <path d="M33.098,21.044 C33.4700019,21.5960028 33.9739968,22.0429983 34.61,22.385 C35.2460032,22.7270017 35.9959957,22.898 36.86,22.898 C37.268002,22.898 37.6489982,22.8440005 38.003,22.736 C38.3570018,22.6279995 38.6629987,22.472001 38.921,22.268 C39.1790013,22.063999 39.3799993,21.8150015 39.524,21.521 C39.6680007,21.2269985 39.74,20.9000018 39.74,20.54 C39.74,20.1679981 39.6530009,19.8560013 39.479,19.604 C39.3049991,19.3519987 39.0680015,19.1390009 38.768,18.965 C38.4679985,18.7909991 38.1110021,18.6380007 37.697,18.506 C37.2829979,18.3739993 36.8360024,18.2420007 36.356,18.11 C35.8159973,17.9539992 35.3150023,17.780001 34.853,17.588 C34.3909977,17.395999 33.9920017,17.1590014 33.656,16.877 C33.3199983,16.5949986 33.056001,16.2650019 32.864,15.887 C32.671999,15.5089981 32.576,15.0560026 32.576,14.528 C32.576,13.9879973 32.680999,13.5020022 32.891,13.07 C33.1010011,12.6379978 33.3979981,12.2690015 33.782,11.963 C34.1660019,11.6569985 34.6189974,11.4200008 35.141,11.252 C35.6630026,11.0839992 36.2419968,11 36.878,11 C37.7540044,11 38.5639963,11.1469985 39.308,11.441 C40.0520037,11.7350015 40.6879974,12.1699971 41.216,12.746 L40.118,13.772 C39.7339981,13.3519979 39.2630028,13.0100013 38.705,12.746 C38.1469972,12.4819987 37.5320034,12.35 36.86,12.35 C36.0919962,12.35 35.4650024,12.5149983 34.979,12.845 C34.4929976,13.1750016 34.25,13.6759966 34.25,14.348 C34.25,14.6840017 34.3249993,14.9719988 34.475,15.212 C34.6250008,15.4520012 34.8349987,15.6619991 35.105,15.842 C35.3750014,16.0220009 35.6929982,16.1809993 36.059,16.319 C36.4250018,16.4570007 36.8299978,16.5859994 37.274,16.706 C37.9340033,16.8860009 38.5219974,17.080999 39.038,17.291 C39.5540026,17.5010011 39.9859983,17.7499986 40.334,18.038 C40.6820017,18.3260014 40.9459991,18.6589981 41.126,19.037 C41.3060009,19.4150019 41.396,19.8559975 41.396,20.36 C41.396,20.9720031 41.2760012,21.5209976 41.036,22.007 C40.7959988,22.4930024 40.4690021,22.9009984 40.055,23.231 C39.6409979,23.5610017 39.1550028,23.8129991 38.597,23.987 C38.0389972,24.1610009 37.4480031,24.248 36.824,24.248 C35.6719942,24.248 34.700004,24.0650018 33.908,23.699 C33.115996,23.3329982 32.4800024,22.8080034 32,22.124 L33.098,21.044 Z M48.83,23.978 C48.6979993,23.5459978 48.6200001,23.030003 48.596,22.43 C48.3559988,22.9820028 47.9870025,23.4229984 47.489,23.753 C46.9909975,24.0830016 46.4000034,24.248 45.716,24.248 C44.8519957,24.248 44.1680025,24.0020025 43.664,23.51 C43.1599975,23.0179975 42.908,22.3580041 42.908,21.53 C42.908,21.0619977 42.9919992,20.6690016 43.16,20.351 C43.3280008,20.0329984 43.5619985,19.769001 43.862,19.559 C44.1620015,19.348999 44.515998,19.1840006 44.924,19.064 C45.332002,18.9439994 45.7759976,18.8480004 46.256,18.776 L48.524,18.434 L48.524,17.876 C48.524,17.479998 48.4760005,17.1620012 48.38,16.922 C48.2839995,16.6819988 48.1520008,16.4960007 47.984,16.364 C47.8159992,16.2319993 47.6240011,16.1450002 47.408,16.103 C47.1919989,16.0609998 46.9640012,16.04 46.724,16.04 C46.0399966,16.04 45.4760022,16.1659987 45.032,16.418 C44.5879978,16.6700013 44.2160015,16.9879981 43.916,17.372 L43.142,16.4 C43.4900017,15.9799979 43.9729969,15.6200015 44.591,15.32 C45.2090031,15.0199985 45.9739954,14.87 46.886,14.87 C47.9900055,14.87 48.7909975,15.1159975 49.289,15.608 C49.7870025,16.1000025 50.036,16.8919945 50.036,17.984 L50.036,21.566 C50.036,21.8540014 50.039,22.1059989 50.045,22.322 C50.051,22.5380011 50.0629999,22.7389991 50.081,22.925 C50.0990001,23.1110009 50.1259998,23.2879992 50.162,23.456 C50.1980002,23.6240008 50.2459997,23.7979991 50.306,23.978 L48.83,23.978 Z M48.524,19.424 L46.4,19.766 C45.6679963,19.8980007 45.1490015,20.0959987 44.843,20.36 C44.5369985,20.6240013 44.384,20.9899977 44.384,21.458 C44.384,21.9380024 44.5249986,22.3399984 44.807,22.664 C45.0890014,22.9880016 45.5059972,23.15 46.058,23.15 C46.3940017,23.15 46.7119985,23.0840007 47.012,22.952 C47.3120015,22.8199993 47.5729989,22.6370012 47.795,22.403 C48.0170011,22.1689988 48.1939993,21.8870017 48.326,21.557 C48.4580007,21.2269984 48.524,20.864002 48.524,20.468 L48.524,19.424 Z M51.746,15.122 L53.438,15.122 L55.598,22.574 L57.74,15.122 L59.36,15.122 L56.444,23.978 L54.644,23.978 L51.746,15.122 Z M62.096,19.892 C62.1560003,20.9120051 62.4169977,21.7009972 62.879,22.259 C63.3410023,22.8170028 63.9859959,23.096 64.814,23.096 C65.8580052,23.096 66.6439974,22.6040049 67.172,21.62 L68.306,22.25 C67.9579983,22.8380029 67.4960029,23.3179981 66.92,23.69 C66.3439971,24.0620019 65.6180044,24.248 64.742,24.248 C64.0459965,24.248 63.4370026,24.1280012 62.915,23.888 C62.3929974,23.6479988 61.9580017,23.3180021 61.61,22.898 C61.2619983,22.4779979 61.0010009,21.9860028 60.827,21.422 C60.6529991,20.8579972 60.566,20.2520032 60.566,19.604 C60.566,18.9679968 60.6499992,18.3620029 60.818,17.786 C60.9860008,17.2099971 61.2409983,16.7060022 61.583,16.274 C61.9250017,15.8419978 62.3449975,15.5000013 62.843,15.248 C63.3410025,14.9959987 63.9259966,14.87 64.598,14.87 C65.2460032,14.87 65.8099976,14.9929988 66.29,15.239 C66.7700024,15.4850012 67.1689984,15.8149979 67.487,16.229 C67.8050016,16.6430021 68.0449992,17.1229973 68.207,17.669 C68.3690008,18.2150027 68.45,18.7939969 68.45,19.406 C68.45,19.5380007 68.447,19.6399996 68.441,19.712 C68.435,19.7840004 68.432,19.8439998 68.432,19.892 L62.096,19.892 Z M64.58,16.004 C63.8239962,16.004 63.2390021,16.2739973 62.825,16.814 C62.4109979,17.3540027 62.1740003,18.0799954 62.114,18.992 L66.92,18.992 C66.92,18.6199981 66.8780004,18.2570018 66.794,17.903 C66.7099996,17.5489982 66.572001,17.2310014 66.38,16.949 C66.187999,16.6669986 65.9450015,16.4390009 65.651,16.265 C65.3569985,16.0909991 65.0000021,16.004 64.58,16.004 Z" id="Button" fill="#FFFFFF"></path>
                        </g>
                    </g>
                    <g id="Button-Accent-Copy-2">
                        <g id="Button/BG/Accent">
                            <rect id="Rectangle" fill="#0D78AA" x="0" y="0" width="99" height="36" rx="3"></rect>
                            <path d="M36,11 L43.56,11 L43.56,12.26 L37.62,12.26 L37.62,16.436 L42.246,16.436 L42.246,17.696 L37.62,17.696 L37.62,22.448 L43.812,22.448 L43.812,23.708 L36,23.708 L36,11 Z M51.678,21.98 C51.4379988,22.580003 51.0840023,23.0539983 50.616,23.402 C50.1479977,23.7500017 49.5660035,23.924 48.87,23.924 C48.3179972,23.924 47.8230022,23.8100011 47.385,23.582 C46.9469978,23.3539989 46.5750015,23.036002 46.269,22.628 C45.9629985,22.219998 45.7290008,21.7280029 45.567,21.152 C45.4049992,20.5759971 45.324,19.9400035 45.324,19.244 C45.324,18.5239964 45.4079992,17.8790029 45.576,17.309 C45.7440008,16.7389972 45.9839984,16.256002 46.296,15.86 C46.6080016,15.463998 46.9829978,15.1580011 47.421,14.942 C47.8590022,14.7259989 48.3419974,14.618 48.87,14.618 C49.5900036,14.618 50.1779977,14.7889983 50.634,15.131 C51.0900023,15.4730017 51.413999,15.8839976 51.606,16.364 L51.606,11 L53.118,11 L53.118,23.708 L51.678,23.708 L51.678,21.98 Z M51.606,19.226 C51.606,18.8539981 51.5970001,18.5630011 51.579,18.353 C51.5609999,18.1429989 51.5400001,17.9720007 51.516,17.84 C51.4559997,17.5759987 51.3660006,17.3240012 51.246,17.084 C51.1259994,16.8439988 50.9730009,16.6310009 50.787,16.445 C50.6009991,16.2589991 50.3820013,16.1120005 50.13,16.004 C49.8779987,15.8959995 49.5900016,15.842 49.266,15.842 C48.857998,15.842 48.5070015,15.9319991 48.213,16.112 C47.9189985,16.2920009 47.673001,16.5349985 47.475,16.841 C47.276999,17.1470015 47.1300005,17.5069979 47.034,17.921 C46.9379995,18.3350021 46.89,18.7759977 46.89,19.244 C46.89,19.7480025 46.9439995,20.2129979 47.052,20.639 C47.1600005,21.0650021 47.315999,21.4309985 47.52,21.737 C47.724001,22.0430015 47.9759985,22.2829991 48.276,22.457 C48.5760015,22.6310009 48.9179981,22.718 49.302,22.718 C49.6020015,22.718 49.8749988,22.6640005 50.121,22.556 C50.3670012,22.4479995 50.5829991,22.298001 50.769,22.106 C50.9550009,21.913999 51.1079994,21.6950012 51.228,21.449 C51.3480006,21.2029988 51.4379997,20.9420014 51.498,20.666 C51.5700004,20.3299983 51.606,19.8800028 51.606,19.316 L51.606,19.226 Z M55.404,11.414 L56.898,11.414 L56.898,12.908 L55.404,12.908 L55.404,11.414 Z M55.404,14.852 L56.898,14.852 L56.898,23.708 L55.404,23.708 L55.404,14.852 Z M59.976,15.878 L58.464,15.878 L58.464,14.852 L58.788,14.852 C59.1600019,14.852 59.4509989,14.8130004 59.661,14.735 C59.8710011,14.6569996 60.0299995,14.5370008 60.138,14.375 C60.2460005,14.2129992 60.3239998,14.0000013 60.372,13.736 C60.4200002,13.4719987 60.4619998,13.1480019 60.498,12.764 L60.534,12.44 L61.47,12.44 L61.47,14.852 L63.378,14.852 L63.378,15.878 L61.47,15.878 L61.47,21.386 C61.47,21.8900025 61.5449993,22.2529989 61.695,22.475 C61.8450008,22.6970011 62.123998,22.808 62.532,22.808 C62.8560016,22.808 63.1559986,22.7360007 63.432,22.592 L63.594,23.672 C63.1379977,23.876001 62.6340028,23.978 62.082,23.978 C61.6499978,23.978 61.2990014,23.9180006 61.029,23.798 C60.7589987,23.6779994 60.5460008,23.516001 60.39,23.312 C60.2339992,23.107999 60.1260003,22.8620014 60.066,22.574 C60.0059997,22.2859986 59.976,21.9740017 59.976,21.638 L59.976,15.878 Z" id="Button" fill="#FFFFFF"></path>
                        </g>
                    </g>
                </g>
            </g>
        </g>
    </g>
</svg>