<?xml version="1.0" encoding="UTF-8"?>
<svg width="117px" height="36px" viewBox="0 0 117 36" version="1.1" xmlns="http://www.w3.org/2000/svg" xmlns:xlink="http://www.w3.org/1999/xlink">
    <!-- Generator: Sketch 47 (45396) - http://www.bohemiancoding.com/sketch -->
    <title>Flow-specific</title>
    <desc>Created with Sketch.</desc>
    <defs></defs>
    <g id="Page-1" stroke="none" stroke-width="1" fill="none" fill-rule="evenodd">
        <g id="Buttons-Usage-extra-large-1200" transform="translate(-451.000000, -3458.000000)">
            <g id="Group-Copy-3" transform="translate(304.000000, 3427.000000)">
                <g id="Flow-specific" transform="translate(147.000000, 31.000000)">
                    <g id="Button/BG/Accent">
                        <rect id="Rectangle" fill="#0D78AA" x="0" y="0" width="117" height="36" rx="3"></rect>
                        <path d="M48.518,12 L50.012,12 L54.494,24.708 L52.802,24.708 L51.668,21.288 L46.772,21.288 L45.638,24.708 L44,24.708 L48.518,12 Z M51.236,20.046 C50.8999983,19.0019948 50.5670017,17.979005 50.237,16.977 C49.9069984,15.974995 49.5740017,14.9220055 49.238,13.818 C48.9259984,14.8980054 48.5960017,15.9449949 48.248,16.959 C47.8999983,17.9730051 47.5520017,19.0019948 47.204,20.046 L51.236,20.046 Z M62.054,22.98 C61.8139988,23.580003 61.4600023,24.0539983 60.992,24.402 C60.5239977,24.7500017 59.9420035,24.924 59.246,24.924 C58.6939972,24.924 58.1990022,24.8100011 57.761,24.582 C57.3229978,24.3539989 56.9510015,24.036002 56.645,23.628 C56.3389985,23.219998 56.1050008,22.7280029 55.943,22.152 C55.7809992,21.5759971 55.7,20.9400035 55.7,20.244 C55.7,19.5239964 55.7839992,18.8790029 55.952,18.309 C56.1200008,17.7389971 56.3599984,17.256002 56.672,16.86 C56.9840016,16.463998 57.3589978,16.1580011 57.797,15.942 C58.2350022,15.7259989 58.7179974,15.618 59.246,15.618 C59.9660036,15.618 60.5539977,15.7889983 61.01,16.131 C61.4660023,16.4730017 61.789999,16.8839976 61.982,17.364 L61.982,12 L63.494,12 L63.494,24.708 L62.054,24.708 L62.054,22.98 Z M61.982,20.226 C61.982,19.8539981 61.9730001,19.5630011 61.955,19.353 C61.9369999,19.142999 61.9160001,18.9720007 61.892,18.84 C61.8319997,18.5759987 61.7420006,18.3240012 61.622,18.084 C61.5019994,17.8439988 61.3490009,17.6310009 61.163,17.445 C60.9769991,17.2589991 60.7580013,17.1120005 60.506,17.004 C60.2539987,16.8959995 59.9660016,16.842 59.642,16.842 C59.233998,16.842 58.8830015,16.9319991 58.589,17.112 C58.2949985,17.2920009 58.049001,17.5349985 57.851,17.841 C57.652999,18.1470015 57.5060005,18.5069979 57.41,18.921 C57.3139995,19.3350021 57.266,19.7759977 57.266,20.244 C57.266,20.7480025 57.3199995,21.2129979 57.428,21.639 C57.5360005,22.0650021 57.691999,22.4309985 57.896,22.737 C58.100001,23.0430015 58.3519985,23.2829991 58.652,23.457 C58.9520015,23.6310009 59.2939981,23.718 59.678,23.718 C59.9780015,23.718 60.2509988,23.6640005 60.497,23.556 C60.7430012,23.4479995 60.9589991,23.298001 61.145,23.106 C61.3310009,22.913999 61.4839994,22.6950012 61.604,22.449 C61.7240006,22.2029988 61.8139997,21.9420014 61.874,21.666 C61.9460004,21.3299983 61.982,20.8800028 61.982,20.316 L61.982,20.226 Z M71.738,22.98 C71.4979988,23.580003 71.1440023,24.0539983 70.676,24.402 C70.2079977,24.7500017 69.6260035,24.924 68.93,24.924 C68.3779972,24.924 67.8830022,24.8100011 67.445,24.582 C67.0069978,24.3539989 66.6350015,24.036002 66.329,23.628 C66.0229985,23.219998 65.7890008,22.7280029 65.627,22.152 C65.4649992,21.5759971 65.384,20.9400035 65.384,20.244 C65.384,19.5239964 65.4679992,18.8790029 65.636,18.309 C65.8040008,17.7389971 66.0439984,17.256002 66.356,16.86 C66.6680016,16.463998 67.0429978,16.1580011 67.481,15.942 C67.9190022,15.7259989 68.4019974,15.618 68.93,15.618 C69.6500036,15.618 70.2379977,15.7889983 70.694,16.131 C71.1500023,16.4730017 71.473999,16.8839976 71.666,17.364 L71.666,12 L73.178,12 L73.178,24.708 L71.738,24.708 L71.738,22.98 Z M71.666,20.226 C71.666,19.8539981 71.6570001,19.5630011 71.639,19.353 C71.6209999,19.142999 71.6000001,18.9720007 71.576,18.84 C71.5159997,18.5759987 71.4260006,18.3240012 71.306,18.084 C71.1859994,17.8439988 71.0330009,17.6310009 70.847,17.445 C70.6609991,17.2589991 70.4420013,17.1120005 70.19,17.004 C69.9379987,16.8959995 69.6500016,16.842 69.326,16.842 C68.917998,16.842 68.5670015,16.9319991 68.273,17.112 C67.9789985,17.2920009 67.733001,17.5349985 67.535,17.841 C67.336999,18.1470015 67.1900005,18.5069979 67.094,18.921 C66.9979995,19.3350021 66.95,19.7759977 66.95,20.244 C66.95,20.7480025 67.0039995,21.2129979 67.112,21.639 C67.2200005,22.0650021 67.375999,22.4309985 67.58,22.737 C67.784001,23.0430015 68.0359985,23.2829991 68.336,23.457 C68.6360015,23.6310009 68.9779981,23.718 69.362,23.718 C69.6620015,23.718 69.9349988,23.6640005 70.181,23.556 C70.4270012,23.4479995 70.6429991,23.298001 70.829,23.106 C71.0150009,22.913999 71.1679994,22.6950012 71.288,22.449 C71.4080006,22.2029988 71.4979997,21.9420014 71.558,21.666 C71.6300004,21.3299983 71.666,20.8800028 71.666,20.316 L71.666,20.226 Z" id="Button" fill="#FFFFFF"></path>
                    </g>
                </g>
            </g>
        </g>
    </g>
</svg>