<?xml version="1.0" encoding="UTF-8"?>
<svg width="320px" height="205px" viewBox="0 0 320 205" version="1.1" xmlns="http://www.w3.org/2000/svg" xmlns:xlink="http://www.w3.org/1999/xlink">
    <!-- Generator: Sketch 47 (45396) - http://www.bohemiancoding.com/sketch -->
    <title>F Pattern</title>
    <desc>Created with Sketch.</desc>
    <defs></defs>
    <g id="Page-1" stroke="none" stroke-width="1" fill="none" fill-rule="evenodd">
        <g id="Buttons-Usage-extra-large-1200" transform="translate(-801.000000, -2268.000000)">
            <g id="F-Pattern" transform="translate(801.000000, 2268.000000)">
                <rect id="Rectangle-13" fill="#7C878E" x="9" y="0" width="113" height="20" rx="10"></rect>
                <rect id="Rectangle-13-Copy" fill="#7C878E" x="9" y="39" width="311" height="13" rx="6.5"></rect>
                <rect id="Rectangle-13-Copy-2" fill="#7C878E" x="9" y="60" width="311" height="13" rx="6.5"></rect>
                <rect id="Rectangle-13-Copy-3" fill="#7C878E" x="9" y="81" width="222" height="13" rx="6.5"></rect>
                <rect id="Rectangle-2" stroke="#0D78AA" x="100.5" y="168.5" width="80" height="36" rx="2"></rect>
                <rect id="Rectangle-2-Copy" fill="#0D78AA" x="9" y="168" width="81" height="37" rx="2"></rect>
                <g id="Group-4" transform="translate(1.000000, 2.000000)" fill="#AFC836">
                    <rect id="Rectangle-4" x="0" y="0" width="16" height="16" rx="8"></rect>
                    <rect id="Rectangle-4-Copy" x="114" y="0" width="16" height="16" rx="8"></rect>
                    <rect id="Rectangle-4-Copy-2" x="0" y="176" width="16" height="16" rx="8"></rect>
                    <rect id="Rectangle-4-Copy-3" x="0" y="35" width="16" height="16" rx="8"></rect>
                    <rect id="Rectangle-4-Copy-6" x="98" y="35" width="16" height="16" rx="8"></rect>
                    <rect id="Rectangle-4-Copy-4" x="0" y="57" width="16" height="16" rx="8"></rect>
                    <rect id="Rectangle-4-Copy-7" x="82" y="57" width="16" height="16" rx="8"></rect>
                    <rect id="Rectangle-4-Copy-5" x="0" y="79" width="16" height="16" rx="8"></rect>
                    <rect id="Rectangle-4-Copy-8" x="66" y="79" width="16" height="16" rx="8"></rect>
                </g>
                <polyline id="Path-3" stroke="#AFC836" stroke-width="2" points="123 10 8.99561412 10 8.99561412 187"></polyline>
                <path d="M108,45 L10,45" id="Path-4" stroke="#AFC836" stroke-width="2"></path>
                <polygon id="Triangle-Copy-3" fill="#AFC836" transform="translate(9.000000, 137.000000) rotate(180.000000) translate(-9.000000, -137.000000) " points="9 128 18 146 0 146"></polygon>
                <path d="M92,67 L10.9938274,67" id="Path-5" stroke="#AFC836" stroke-width="2"></path>
                <path d="M76,88 L11,88" id="Path-6" stroke="#AFC836" stroke-width="2"></path>
            </g>
        </g>
    </g>
</svg>