<?xml version="1.0" encoding="UTF-8"?>
<svg width="244px" height="36px" viewBox="0 0 244 36" version="1.1" xmlns="http://www.w3.org/2000/svg" xmlns:xlink="http://www.w3.org/1999/xlink">
    <!-- Generator: Sketch 47 (45396) - http://www.bohemiancoding.com/sketch -->
    <title>Proximity</title>
    <desc>Created with Sketch.</desc>
    <defs></defs>
    <g id="Page-1" stroke="none" stroke-width="1" fill="none" fill-rule="evenodd">
        <g id="Buttons-Usage-extra-large-1200" transform="translate(-401.000000, -3266.000000)">
            <g id="Group-Copy-2" transform="translate(304.000000, 3235.000000)">
                <g id="Proximity" transform="translate(97.000000, 31.000000)">
                    <g id="Button-Accent-Copy">
                        <g id="Button/BG/Accent">
                            <rect id="Rectangle" fill="#0D78AA" x="0" y="0" width="117" height="36" rx="3"></rect>
                            <path d="M46,12 L53.56,12 L53.56,13.26 L47.62,13.26 L47.62,17.436 L52.246,17.436 L52.246,18.696 L47.62,18.696 L47.62,23.448 L53.812,23.448 L53.812,24.708 L46,24.708 L46,12 Z M61.678,22.98 C61.4379988,23.580003 61.0840023,24.0539983 60.616,24.402 C60.1479977,24.7500017 59.5660035,24.924 58.87,24.924 C58.3179972,24.924 57.8230022,24.8100011 57.385,24.582 C56.9469978,24.3539989 56.5750015,24.036002 56.269,23.628 C55.9629985,23.219998 55.7290008,22.7280029 55.567,22.152 C55.4049992,21.5759971 55.324,20.9400035 55.324,20.244 C55.324,19.5239964 55.4079992,18.8790029 55.576,18.309 C55.7440008,17.7389971 55.9839984,17.256002 56.296,16.86 C56.6080016,16.463998 56.9829978,16.1580011 57.421,15.942 C57.8590022,15.7259989 58.3419974,15.618 58.87,15.618 C59.5900036,15.618 60.1779977,15.7889983 60.634,16.131 C61.0900023,16.4730017 61.413999,16.8839976 61.606,17.364 L61.606,12 L63.118,12 L63.118,24.708 L61.678,24.708 L61.678,22.98 Z M61.606,20.226 C61.606,19.8539981 61.5970001,19.5630011 61.579,19.353 C61.5609999,19.142999 61.5400001,18.9720007 61.516,18.84 C61.4559997,18.5759987 61.3660006,18.3240012 61.246,18.084 C61.1259994,17.8439988 60.9730009,17.6310009 60.787,17.445 C60.6009991,17.2589991 60.3820013,17.1120005 60.13,17.004 C59.8779987,16.8959995 59.5900016,16.842 59.266,16.842 C58.857998,16.842 58.5070015,16.9319991 58.213,17.112 C57.9189985,17.2920009 57.673001,17.5349985 57.475,17.841 C57.276999,18.1470015 57.1300005,18.5069979 57.034,18.921 C56.9379995,19.3350021 56.89,19.7759977 56.89,20.244 C56.89,20.7480025 56.9439995,21.2129979 57.052,21.639 C57.1600005,22.0650021 57.315999,22.4309985 57.52,22.737 C57.724001,23.0430015 57.9759985,23.2829991 58.276,23.457 C58.5760015,23.6310009 58.9179981,23.718 59.302,23.718 C59.6020015,23.718 59.8749988,23.6640005 60.121,23.556 C60.3670012,23.4479995 60.5829991,23.298001 60.769,23.106 C60.9550009,22.913999 61.1079994,22.6950012 61.228,22.449 C61.3480006,22.2029988 61.4379997,21.9420014 61.498,21.666 C61.5700004,21.3299983 61.606,20.8800028 61.606,20.316 L61.606,20.226 Z M65.404,12.414 L66.898,12.414 L66.898,13.908 L65.404,13.908 L65.404,12.414 Z M65.404,15.852 L66.898,15.852 L66.898,24.708 L65.404,24.708 L65.404,15.852 Z M69.976,16.878 L68.464,16.878 L68.464,15.852 L68.788,15.852 C69.1600019,15.852 69.4509989,15.8130004 69.661,15.735 C69.8710011,15.6569996 70.0299995,15.5370008 70.138,15.375 C70.2460005,15.2129992 70.3239998,15.0000013 70.372,14.736 C70.4200002,14.4719987 70.4619998,14.1480019 70.498,13.764 L70.534,13.44 L71.47,13.44 L71.47,15.852 L73.378,15.852 L73.378,16.878 L71.47,16.878 L71.47,22.386 C71.47,22.8900025 71.5449993,23.2529989 71.695,23.475 C71.8450007,23.6970011 72.123998,23.808 72.532,23.808 C72.8560016,23.808 73.1559986,23.7360007 73.432,23.592 L73.594,24.672 C73.1379977,24.876001 72.6340028,24.978 72.082,24.978 C71.6499978,24.978 71.2990013,24.9180006 71.029,24.798 C70.7589986,24.6779994 70.5460008,24.516001 70.39,24.312 C70.2339992,24.107999 70.1260003,23.8620014 70.066,23.574 C70.0059997,23.2859986 69.976,22.9740017 69.976,22.638 L69.976,16.878 Z" id="Button" fill="#FFFFFF"></path>
                        </g>
                    </g>
                    <g id="Button-Accent-Copy" transform="translate(127.000000, 0.000000)">
                        <g id="Button/BG/Accent">
                            <rect id="Rectangle" fill="#0D78AA" x="0" y="0" width="117" height="36" rx="3"></rect>
                            <path d="M41.098,21.044 C41.4700019,21.5960028 41.9739968,22.0429983 42.61,22.385 C43.2460032,22.7270017 43.9959957,22.898 44.86,22.898 C45.268002,22.898 45.6489982,22.8440005 46.003,22.736 C46.3570018,22.6279995 46.6629987,22.472001 46.921,22.268 C47.1790013,22.063999 47.3799993,21.8150015 47.524,21.521 C47.6680007,21.2269985 47.74,20.9000018 47.74,20.54 C47.74,20.1679981 47.6530009,19.8560013 47.479,19.604 C47.3049991,19.3519987 47.0680015,19.1390009 46.768,18.965 C46.4679985,18.7909991 46.1110021,18.6380007 45.697,18.506 C45.2829979,18.3739993 44.8360024,18.2420007 44.356,18.11 C43.8159973,17.9539992 43.3150023,17.780001 42.853,17.588 C42.3909977,17.395999 41.9920017,17.1590014 41.656,16.877 C41.3199983,16.5949986 41.056001,16.2650019 40.864,15.887 C40.671999,15.5089981 40.576,15.0560026 40.576,14.528 C40.576,13.9879973 40.6809989,13.5020022 40.891,13.07 C41.1010011,12.6379978 41.3979981,12.2690015 41.782,11.963 C42.1660019,11.6569985 42.6189974,11.4200008 43.141,11.252 C43.6630026,11.0839992 44.2419968,11 44.878,11 C45.7540044,11 46.5639963,11.1469985 47.308,11.441 C48.0520037,11.7350015 48.6879974,12.1699971 49.216,12.746 L48.118,13.772 C47.7339981,13.3519979 47.2630028,13.0100013 46.705,12.746 C46.1469972,12.4819987 45.5320034,12.35 44.86,12.35 C44.0919962,12.35 43.4650024,12.5149983 42.979,12.845 C42.4929976,13.1750016 42.25,13.6759966 42.25,14.348 C42.25,14.6840017 42.3249992,14.9719988 42.475,15.212 C42.6250007,15.4520012 42.8349987,15.6619991 43.105,15.842 C43.3750013,16.0220009 43.6929982,16.1809993 44.059,16.319 C44.4250018,16.4570007 44.8299978,16.5859994 45.274,16.706 C45.9340033,16.8860009 46.5219974,17.080999 47.038,17.291 C47.5540026,17.5010011 47.9859983,17.7499986 48.334,18.038 C48.6820017,18.3260014 48.9459991,18.6589981 49.126,19.037 C49.3060009,19.4150019 49.396,19.8559975 49.396,20.36 C49.396,20.9720031 49.2760012,21.5209976 49.036,22.007 C48.7959988,22.4930024 48.4690021,22.9009984 48.055,23.231 C47.6409979,23.5610017 47.1550028,23.8129991 46.597,23.987 C46.0389972,24.1610009 45.4480031,24.248 44.824,24.248 C43.6719942,24.248 42.700004,24.0650018 41.908,23.699 C41.115996,23.3329982 40.4800024,22.8080034 40,22.124 L41.098,21.044 Z M56.83,23.978 C56.6979993,23.5459978 56.6200001,23.030003 56.596,22.43 C56.3559988,22.9820028 55.9870025,23.4229984 55.489,23.753 C54.9909975,24.0830016 54.4000034,24.248 53.716,24.248 C52.8519957,24.248 52.1680025,24.0020025 51.664,23.51 C51.1599975,23.0179975 50.908,22.3580041 50.908,21.53 C50.908,21.0619977 50.9919992,20.6690016 51.16,20.351 C51.3280008,20.0329984 51.5619985,19.769001 51.862,19.559 C52.1620015,19.348999 52.515998,19.1840006 52.924,19.064 C53.332002,18.9439994 53.7759976,18.8480004 54.256,18.776 L56.524,18.434 L56.524,17.876 C56.524,17.479998 56.4760005,17.1620012 56.38,16.922 C56.2839995,16.6819988 56.1520008,16.4960007 55.984,16.364 C55.8159992,16.2319993 55.6240011,16.1450002 55.408,16.103 C55.1919989,16.0609998 54.9640012,16.04 54.724,16.04 C54.0399966,16.04 53.4760022,16.1659987 53.032,16.418 C52.5879978,16.6700013 52.2160015,16.9879981 51.916,17.372 L51.142,16.4 C51.4900017,15.9799979 51.9729969,15.6200015 52.591,15.32 C53.2090031,15.0199985 53.9739954,14.87 54.886,14.87 C55.9900055,14.87 56.7909975,15.1159975 57.289,15.608 C57.7870025,16.1000025 58.036,16.8919945 58.036,17.984 L58.036,21.566 C58.036,21.8540014 58.039,22.1059989 58.045,22.322 C58.051,22.5380011 58.0629999,22.7389991 58.081,22.925 C58.0990001,23.1110009 58.1259998,23.2879992 58.162,23.456 C58.1980002,23.6240008 58.2459997,23.7979991 58.306,23.978 L56.83,23.978 Z M56.524,19.424 L54.4,19.766 C53.6679963,19.8980007 53.1490015,20.0959987 52.843,20.36 C52.5369985,20.6240013 52.384,20.9899977 52.384,21.458 C52.384,21.9380024 52.5249986,22.3399984 52.807,22.664 C53.0890014,22.9880016 53.5059972,23.15 54.058,23.15 C54.3940017,23.15 54.7119985,23.0840007 55.012,22.952 C55.3120015,22.8199993 55.5729989,22.6370012 55.795,22.403 C56.0170011,22.1689988 56.1939993,21.8870017 56.326,21.557 C56.4580007,21.2269984 56.524,20.864002 56.524,20.468 L56.524,19.424 Z M59.746,15.122 L61.438,15.122 L63.598,22.574 L65.74,15.122 L67.36,15.122 L64.444,23.978 L62.644,23.978 L59.746,15.122 Z M70.096,19.892 C70.1560003,20.9120051 70.4169977,21.7009972 70.879,22.259 C71.3410023,22.8170028 71.9859959,23.096 72.814,23.096 C73.8580052,23.096 74.6439974,22.6040049 75.172,21.62 L76.306,22.25 C75.9579983,22.8380029 75.4960029,23.3179981 74.92,23.69 C74.3439971,24.0620019 73.6180044,24.248 72.742,24.248 C72.0459965,24.248 71.4370026,24.1280012 70.915,23.888 C70.3929974,23.6479988 69.9580017,23.3180021 69.61,22.898 C69.2619983,22.4779979 69.0010009,21.9860028 68.827,21.422 C68.6529991,20.8579972 68.566,20.2520032 68.566,19.604 C68.566,18.9679968 68.6499992,18.3620029 68.818,17.786 C68.9860008,17.2099971 69.2409983,16.7060022 69.583,16.274 C69.9250017,15.8419978 70.3449975,15.5000013 70.843,15.248 C71.3410025,14.9959987 71.9259966,14.87 72.598,14.87 C73.2460032,14.87 73.8099976,14.9929988 74.29,15.239 C74.7700024,15.4850012 75.1689984,15.8149979 75.487,16.229 C75.8050016,16.6430021 76.0449992,17.1229973 76.207,17.669 C76.3690008,18.2150027 76.45,18.7939969 76.45,19.406 C76.45,19.5380007 76.447,19.6399996 76.441,19.712 C76.435,19.7840004 76.432,19.8439998 76.432,19.892 L70.096,19.892 Z M72.58,16.004 C71.8239962,16.004 71.2390021,16.2739973 70.825,16.814 C70.4109979,17.3540027 70.1740003,18.0799954 70.114,18.992 L74.92,18.992 C74.92,18.6199981 74.8780004,18.2570018 74.794,17.903 C74.7099996,17.5489982 74.572001,17.2310014 74.38,16.949 C74.187999,16.6669986 73.9450015,16.4390009 73.651,16.265 C73.3569985,16.0909991 73.0000021,16.004 72.58,16.004 Z" id="Button" fill="#FFFFFF"></path>
                        </g>
                    </g>
                </g>
            </g>
        </g>
    </g>
</svg>